# Baked from official LDraw part 11477.dat
o ldraw_11477
v -0.2500000 0.4000000 0.5000000
v -0.2500000 0.2000000 0.5000000
v 0.2500000 0.2000000 0.5000000
v 0.2500000 0.4000000 0.5000000
v 0.2500000 0.2000000 0.5000000
v -0.2500000 0.2000000 0.5000000
v -0.1500000 0.2000000 0.4000000
v 0.1500000 0.2000000 0.4000000
v -0.2500000 0.2000000 0.5000000
v -0.2500000 0.2000000 0.0000000
v -0.1500000 0.2000000 0.0000000
v -0.1500000 0.2000000 0.4000000
v 0.1500000 0.2000000 0.4000000
v 0.1500000 0.2000000 0.0000000
v 0.2500000 0.2000000 0.0000000
v 0.2500000 0.2000000 0.5000000
v 0.1500000 0.3000000 0.4000000
v -0.1500000 0.3000000 0.4000000
v -0.1500000 0.3000000 0.2500000
v 0.1500000 0.3000000 0.2500000
v -0.1500000 0.2000000 0.4000000
v -0.1500000 0.3000000 0.4000000
v 0.1500000 0.3000000 0.4000000
v 0.1500000 0.2000000 0.4000000
v -0.1500000 0.3000000 0.4000000
v -0.1500000 0.2000000 0.4000000
v -0.1500000 0.2500000 0.1000000
v -0.1500000 0.3000000 0.2500000
v -0.1500000 0.2500000 0.1000000
v -0.1500000 0.2000000 0.4000000
v -0.1500000 0.2000000 0.0000000
v -0.1500000 0.2500000 0.0000000
v 0.1500000 0.3000000 0.4000000
v 0.1500000 0.3000000 0.2500000
v 0.1500000 0.2500000 0.1000000
v 0.1500000 0.2000000 0.4000000
v 0.1500000 0.2500000 0.0000000
v 0.1500000 0.2000000 0.0000000
v 0.1500000 0.2000000 0.4000000
v 0.1500000 0.2500000 0.1000000
v -0.1385850 0.2808650 0.1925950
v -0.1385850 0.3000000 0.1925950
v -0.1500000 0.3000000 0.2500000
v -0.1385850 0.2808650 0.1925950
v -0.1060650 0.2646450 0.1439350
v -0.1060650 0.3000000 0.1439350
v -0.1385850 0.3000000 0.1925950
v -0.1060650 0.2646450 0.1439350
v -0.0574050 0.2538050 0.1114150
v -0.0574050 0.3000000 0.1114150
v -0.1060650 0.3000000 0.1439350
v -0.0574050 0.2538050 0.1114150
v 0.0000000 0.2500000 0.1000000
v 0.0000000 0.3000000 0.1000000
v -0.0574050 0.3000000 0.1114150
v 0.1500000 0.3000000 0.2500000
v 0.1385850 0.3000000 0.1925950
v 0.1385850 0.2808650 0.1925950
v 0.1385850 0.3000000 0.1925950
v 0.1060650 0.3000000 0.1439350
v 0.1060650 0.2646450 0.1439350
v 0.1385850 0.2808650 0.1925950
v 0.1060650 0.3000000 0.1439350
v 0.0574050 0.3000000 0.1114150
v 0.0574050 0.2538050 0.1114150
v 0.1060650 0.2646450 0.1439350
v 0.0574050 0.3000000 0.1114150
v 0.0000000 0.3000000 0.1000000
v 0.0000000 0.2500000 0.1000000
v 0.0574050 0.2538050 0.1114150
v -0.1385850 0.3000000 0.1925950
v 0.1385850 0.3000000 0.1925950
v 0.1500000 0.3000000 0.2500000
v -0.1500000 0.3000000 0.2500000
v -0.1060650 0.3000000 0.1439350
v 0.1060650 0.3000000 0.1439350
v 0.1385850 0.3000000 0.1925950
v -0.1385850 0.3000000 0.1925950
v -0.0574050 0.3000000 0.1114150
v 0.0574050 0.3000000 0.1114150
v 0.1060650 0.3000000 0.1439350
v -0.1060650 0.3000000 0.1439350
v 0.0000000 0.3000000 0.1000000
v 0.0574050 0.3000000 0.1114150
v -0.0574050 0.3000000 0.1114150
v -0.1385850 0.2808650 0.1925950
v -0.1500000 0.3000000 0.2500000
v -0.1500000 0.2500000 0.1000000
v -0.1060650 0.2646450 0.1439350
v -0.1385850 0.2808650 0.1925950
v -0.1500000 0.2500000 0.1000000
v -0.0574050 0.2538050 0.1114150
v -0.1060650 0.2646450 0.1439350
v -0.1500000 0.2500000 0.1000000
v 0.0000000 0.2500000 0.1000000
v -0.0574050 0.2538050 0.1114150
v -0.1500000 0.2500000 0.1000000
v 0.0574050 0.2538050 0.1114150
v 0.0000000 0.2500000 0.1000000
v 0.1500000 0.2500000 0.1000000
v 0.1060650 0.2646450 0.1439350
v 0.0574050 0.2538050 0.1114150
v 0.1500000 0.2500000 0.1000000
v 0.1385850 0.2808650 0.1925950
v 0.1060650 0.2646450 0.1439350
v 0.1500000 0.2500000 0.1000000
v 0.1500000 0.3000000 0.2500000
v 0.1385850 0.2808650 0.1925950
v 0.1500000 0.2500000 0.1000000
v -0.0375000 0.2500000 0.0000000
v -0.0375000 0.2500000 0.1000000
v -0.1500000 0.2500000 0.1000000
v -0.1500000 0.2500000 0.0000000
v -0.1500000 0.2000000 0.0000000
v -0.0375000 0.2000000 0.0000000
v -0.0375000 0.2500000 0.0000000
v -0.1500000 0.2500000 0.0000000
v -0.0375000 0.2000000 0.0000000
v 0.0375000 0.2000000 0.0000000
v 0.0375000 0.2000000 0.1000000
v -0.0375000 0.2000000 0.1000000
v 0.0375000 0.2000000 0.1000000
v 0.0375000 0.2500000 0.1000000
v -0.0375000 0.2500000 0.1000000
v -0.0375000 0.2000000 0.1000000
v -0.0375000 0.2000000 0.1000000
v -0.0375000 0.2500000 0.1000000
v -0.0375000 0.2500000 0.0000000
v -0.0375000 0.2000000 0.0000000
v 0.0375000 0.2000000 0.0000000
v 0.0375000 0.2500000 0.0000000
v 0.0375000 0.2500000 0.1000000
v 0.0375000 0.2000000 0.1000000
v 0.1500000 0.2500000 0.0000000
v 0.1500000 0.2500000 0.1000000
v 0.0375000 0.2500000 0.1000000
v 0.0375000 0.2500000 0.0000000
v 0.1500000 0.2500000 0.0000000
v 0.0375000 0.2500000 0.0000000
v 0.0375000 0.2000000 0.0000000
v 0.1500000 0.2000000 0.0000000
v -0.2500000 -0.0000000 0.0000000
v -0.1500000 0.2000000 0.0000000
v -0.2500000 0.2000000 0.0000000
v -0.0375000 0.2000000 0.0000000
v -0.1500000 0.2000000 0.0000000
v -0.2500000 -0.0000000 0.0000000
v 0.2500000 -0.0000000 0.0000000
v 0.1500000 0.2000000 0.0000000
v 0.0375000 0.2000000 0.0000000
v -0.2500000 -0.0000000 0.0000000
v 0.2500000 -0.0000000 0.0000000
v 0.0375000 0.2000000 0.0000000
v -0.0375000 0.2000000 0.0000000
v 0.2500000 0.2000000 0.0000000
v 0.1500000 0.2000000 0.0000000
v 0.2500000 -0.0000000 0.0000000
v 0.1500000 -0.0000000 -0.1000000
v 0.2500000 -0.0000000 0.0000000
v -0.2500000 -0.0000000 0.0000000
v -0.1500000 -0.0000000 -0.1000000
v -0.1500000 -0.0000000 -0.1000000
v -0.2500000 -0.0000000 0.0000000
v -0.2500000 -0.0000000 -0.5000000
v -0.1500000 -0.0000000 -0.4000000
v -0.1500000 -0.0000000 -0.4000000
v -0.2500000 -0.0000000 -0.5000000
v 0.2500000 -0.0000000 -0.5000000
v 0.1500000 -0.0000000 -0.4000000
v 0.1500000 -0.0000000 -0.4000000
v 0.2500000 -0.0000000 -0.5000000
v 0.2500000 -0.0000000 0.0000000
v 0.1500000 -0.0000000 -0.1000000
v -0.1500000 0.1000000 -0.2500000
v -0.1500000 0.1750000 -0.1000000
v -0.1500000 -0.0000000 -0.1000000
v 0.1500000 -0.0000000 -0.1000000
v 0.1500000 0.1750000 -0.1000000
v 0.1500000 0.1000000 -0.2500000
v -0.1500000 -0.0000000 -0.4000000
v -0.1500000 0.0500000 -0.4000000
v -0.1500000 0.1000000 -0.2500000
v -0.1500000 -0.0000000 -0.1000000
v 0.1500000 -0.0000000 -0.1000000
v 0.1500000 0.1000000 -0.2500000
v 0.1500000 0.0500000 -0.4000000
v 0.1500000 -0.0000000 -0.4000000
v 0.1500000 0.1750000 -0.1000000
v 0.1500000 -0.0000000 -0.1000000
v -0.1500000 -0.0000000 -0.1000000
v -0.1500000 0.1750000 -0.1000000
v 0.1500000 0.1750000 -0.1000000
v -0.1500000 0.1750000 -0.1000000
v -0.1500000 0.1000000 -0.2500000
v 0.1500000 0.1000000 -0.2500000
v -0.1385850 0.0808650 -0.3074050
v -0.1385850 0.1000000 -0.3074050
v -0.1500000 0.1000000 -0.2500000
v -0.1385850 0.0808650 -0.3074050
v -0.1060650 0.0646450 -0.3560650
v -0.1060650 0.1000000 -0.3560650
v -0.1385850 0.1000000 -0.3074050
v -0.1060650 0.0646450 -0.3560650
v -0.0574050 0.0538050 -0.3885850
v -0.0574050 0.1000000 -0.3885850
v -0.1060650 0.1000000 -0.3560650
v -0.0574050 0.0538050 -0.3885850
v 0.0000000 0.0500000 -0.4000000
v 0.0000000 0.1000000 -0.4000000
v -0.0574050 0.1000000 -0.3885850
v 0.1500000 0.1000000 -0.2500000
v 0.1385850 0.1000000 -0.3074050
v 0.1385850 0.0808650 -0.3074050
v 0.1385850 0.1000000 -0.3074050
v 0.1060650 0.1000000 -0.3560650
v 0.1060650 0.0646450 -0.3560650
v 0.1385850 0.0808650 -0.3074050
v 0.1060650 0.1000000 -0.3560650
v 0.0574050 0.1000000 -0.3885850
v 0.0574050 0.0538050 -0.3885850
v 0.1060650 0.0646450 -0.3560650
v 0.0574050 0.1000000 -0.3885850
v 0.0000000 0.1000000 -0.4000000
v 0.0000000 0.0500000 -0.4000000
v 0.0574050 0.0538050 -0.3885850
v -0.1385850 0.1000000 -0.3074050
v 0.1385850 0.1000000 -0.3074050
v 0.1500000 0.1000000 -0.2500000
v -0.1500000 0.1000000 -0.2500000
v -0.1060650 0.1000000 -0.3560650
v 0.1060650 0.1000000 -0.3560650
v 0.1385850 0.1000000 -0.3074050
v -0.1385850 0.1000000 -0.3074050
v -0.0574050 0.1000000 -0.3885850
v 0.0574050 0.1000000 -0.3885850
v 0.1060650 0.1000000 -0.3560650
v -0.1060650 0.1000000 -0.3560650
v 0.0000000 0.1000000 -0.4000000
v 0.0574050 0.1000000 -0.3885850
v -0.0574050 0.1000000 -0.3885850
v -0.1385850 0.0808650 -0.3074050
v -0.1500000 0.1000000 -0.2500000
v -0.1500000 0.0500000 -0.4000000
v -0.1060650 0.0646450 -0.3560650
v -0.1385850 0.0808650 -0.3074050
v -0.1500000 0.0500000 -0.4000000
v -0.0574050 0.0538050 -0.3885850
v -0.1060650 0.0646450 -0.3560650
v -0.1500000 0.0500000 -0.4000000
v 0.0000000 0.0500000 -0.4000000
v -0.0574050 0.0538050 -0.3885850
v -0.1500000 0.0500000 -0.4000000
v 0.0574050 0.0538050 -0.3885850
v 0.0000000 0.0500000 -0.4000000
v 0.1500000 0.0500000 -0.4000000
v 0.1060650 0.0646450 -0.3560650
v 0.0574050 0.0538050 -0.3885850
v 0.1500000 0.0500000 -0.4000000
v 0.1385850 0.0808650 -0.3074050
v 0.1060650 0.0646450 -0.3560650
v 0.1500000 0.0500000 -0.4000000
v 0.1500000 0.1000000 -0.2500000
v 0.1385850 0.0808650 -0.3074050
v 0.1500000 0.0500000 -0.4000000
v -0.1500000 0.0500000 -0.4000000
v -0.1500000 -0.0000000 -0.4000000
v 0.1500000 -0.0000000 -0.4000000
v 0.1500000 0.0500000 -0.4000000
v 0.2500000 0.1000000 -0.5000000
v 0.2500000 -0.0000000 -0.5000000
v -0.2500000 -0.0000000 -0.5000000
v -0.2500000 0.1000000 -0.5000000
v -0.2500000 0.2000000 0.0000000
v -0.2500000 0.2000000 0.5000000
v -0.2500000 0.4000000 0.5000000
v 0.2500000 0.2000000 0.5000000
v 0.2500000 0.2000000 0.0000000
v 0.2500000 0.4000000 0.5000000
v -0.2500000 -0.0000000 0.0000000
v -0.2500000 0.2000000 0.0000000
v -0.2500000 0.1000000 -0.5000000
v -0.2500000 -0.0000000 -0.5000000
v 0.2500000 -0.0000000 -0.5000000
v 0.2500000 0.1000000 -0.5000000
v 0.2500000 0.2000000 0.0000000
v 0.2500000 -0.0000000 0.0000000
v -0.2500000 0.2000000 0.0000000
v -0.2500000 0.4000000 0.5000000
v -0.2500000 0.1000000 -0.5000000
v 0.2500000 0.1000000 -0.5000000
v 0.2500000 0.4000000 0.5000000
v 0.2500000 0.2000000 0.0000000
v -0.2500000 0.3913100 0.3154000
v -0.2500000 0.1882894 -0.3609000
v -0.2500000 0.0999975 -0.5000000
v -0.2500000 0.4000015 0.5000000
v -0.2500000 0.3650904 0.1340000
v -0.2500000 0.2627471 -0.2071000
v -0.2500000 0.1882894 -0.3609000
v -0.2500000 0.3913100 0.3154000
v -0.2500000 0.3220671 -0.0412000
v -0.2500000 0.2627471 -0.2071000
v -0.2500000 0.3650904 0.1340000
v 0.2500000 0.4000015 0.5000000
v 0.2500000 0.0999975 -0.5000000
v 0.2500000 0.1882894 -0.3609000
v 0.2500000 0.3913100 0.3154000
v 0.2500000 0.3913100 0.3154000
v 0.2500000 0.1882894 -0.3609000
v 0.2500000 0.2627471 -0.2071000
v 0.2500000 0.3650904 0.1340000
v 0.2500000 0.3650904 0.1340000
v 0.2500000 0.2627471 -0.2071000
v 0.2500000 0.3220671 -0.0412000
v -0.2500000 0.1882894 -0.3609000
v 0.2500000 0.1882894 -0.3609000
v 0.2500000 0.0999975 -0.5000000
v -0.2500000 0.0999975 -0.5000000
v -0.2500000 0.2627471 -0.2071000
v 0.2500000 0.2627471 -0.2071000
v 0.2500000 0.1882894 -0.3609000
v -0.2500000 0.1882894 -0.3609000
v -0.2500000 0.3220671 -0.0412000
v 0.2500000 0.3220671 -0.0412000
v 0.2500000 0.2627471 -0.2071000
v -0.2500000 0.2627471 -0.2071000
v -0.2500000 0.3650904 0.1340000
v 0.2500000 0.3650904 0.1340000
v 0.2500000 0.3220671 -0.0412000
v -0.2500000 0.3220671 -0.0412000
v -0.2500000 0.3913100 0.3154000
v 0.2500000 0.3913100 0.3154000
v 0.2500000 0.3650904 0.1340000
v -0.2500000 0.3650904 0.1340000
v -0.2500000 0.4000015 0.5000000
v 0.2500000 0.4000015 0.5000000
v 0.2500000 0.3913100 0.3154000
v -0.2500000 0.3913100 0.3154000
s off
f 1 2 3
f 1 3 4
f 5 6 7
f 5 7 8
f 9 10 11
f 9 11 12
f 13 14 15
f 13 15 16
f 17 18 19
f 17 19 20
f 21 22 23
f 21 23 24
f 25 26 27
f 25 27 28
f 29 30 31
f 29 31 32
f 33 34 35
f 33 35 36
f 37 38 39
f 37 39 40
f 41 42 43
f 44 45 46
f 44 46 47
f 48 49 50
f 48 50 51
f 52 53 54
f 52 54 55
f 56 57 58
f 59 60 61
f 59 61 62
f 63 64 65
f 63 65 66
f 67 68 69
f 67 69 70
f 71 72 73
f 71 73 74
f 75 76 77
f 75 77 78
f 79 80 81
f 79 81 82
f 83 84 85
f 86 87 88
f 89 90 91
f 92 93 94
f 95 96 97
f 98 99 100
f 101 102 103
f 104 105 106
f 107 108 109
f 110 111 112
f 110 112 113
f 114 115 116
f 114 116 117
f 118 119 120
f 118 120 121
f 122 123 124
f 122 124 125
f 126 127 128
f 126 128 129
f 130 131 132
f 130 132 133
f 134 135 136
f 134 136 137
f 138 139 140
f 138 140 141
f 142 143 144
f 145 146 147
f 148 149 150
f 151 152 153
f 151 153 154
f 155 156 157
f 158 159 160
f 158 160 161
f 162 163 164
f 162 164 165
f 166 167 168
f 166 168 169
f 170 171 172
f 170 172 173
f 174 175 176
f 177 178 179
f 180 181 182
f 180 182 183
f 184 185 186
f 184 186 187
f 188 189 190
f 188 190 191
f 192 193 194
f 192 194 195
f 196 197 198
f 199 200 201
f 199 201 202
f 203 204 205
f 203 205 206
f 207 208 209
f 207 209 210
f 211 212 213
f 214 215 216
f 214 216 217
f 218 219 220
f 218 220 221
f 222 223 224
f 222 224 225
f 226 227 228
f 226 228 229
f 230 231 232
f 230 232 233
f 234 235 236
f 234 236 237
f 238 239 240
f 241 242 243
f 244 245 246
f 247 248 249
f 250 251 252
f 253 254 255
f 256 257 258
f 259 260 261
f 262 263 264
f 265 266 267
f 265 267 268
f 269 270 271
f 269 271 272
f 273 274 275
f 276 277 278
f 279 280 281
f 279 281 282
f 283 284 285
f 283 285 286
f 287 288 289
f 290 291 292
f 293 294 295
f 293 295 296
f 297 298 299
f 297 299 300
f 301 302 303
f 304 305 306
f 304 306 307
f 308 309 310
f 308 310 311
f 312 313 314
f 315 316 317
f 315 317 318
f 319 320 321
f 319 321 322
f 323 324 325
f 323 325 326
f 327 328 329
f 327 329 330
f 331 332 333
f 331 333 334
f 335 336 337
f 335 337 338
