# Baked from official LDraw part 14769.dat
o ldraw_14769
v 0.3658685 -0.2000000 -0.1586038
v 0.3658685 -0.1000000 -0.1586038
v 0.3885850 -0.1000000 -0.1925948
v 0.3885850 -0.2000000 -0.1925948
v 0.3984550 -0.1750000 -0.2422298
v 0.3984550 -0.2000000 -0.2422298
v 0.3885852 -0.2000000 -0.1925950
v 0.3885852 -0.1000000 -0.1925950
v 0.3885852 -0.1000000 -0.1925950
v 0.3984550 -0.1000000 -0.2422298
v 0.3984550 -0.1750000 -0.2422298
v 0.3984550 -0.1750000 -0.2422300
v 0.3984550 -0.1000000 -0.2422300
v 0.4000000 -0.1000000 -0.2500000
v 0.4000000 -0.1750000 -0.2500000
v 0.3903625 -0.1000000 -0.2984675
v 0.3903625 -0.1750000 -0.2984675
v 0.4000000 -0.1750000 -0.2500000
v 0.4000000 -0.1000000 -0.2500000
v 0.3658683 -0.1000000 0.1586038
v 0.3695488 -0.1000000 0.1530717
v 0.3695488 -0.2000000 0.1530717
v 0.3658683 -0.2000000 0.1586038
v 0.4000100 -0.2000000 0.0000031
v 0.4000100 -0.1000000 0.0000031
v 0.3695518 -0.1000000 -0.1530733
v 0.3695518 -0.2000000 -0.1530733
v 0.3695481 -0.2000000 0.1530719
v 0.3695481 -0.1000000 0.1530719
v 0.4000100 -0.1000000 0.0000031
v 0.4000100 -0.2000000 0.0000031
v 0.3658683 -0.2000000 -0.1586038
v 0.3695488 -0.2000000 -0.1530717
v 0.3695488 -0.1000000 -0.1530717
v 0.3658683 -0.1000000 -0.1586038
v 0.3984550 -0.2000000 0.2422298
v 0.4388375 -0.2000000 0.1817742
v 0.4388375 -0.1750000 0.1817742
v 0.3984550 -0.1750000 0.2422298
v 0.4388428 -0.2000000 -0.1817748
v 0.4388428 -0.1750000 -0.1817748
v 0.4750120 -0.1750000 0.0000034
v 0.4750120 -0.2000000 0.0000034
v 0.4750120 -0.2000000 0.0000034
v 0.4750120 -0.1750000 0.0000034
v 0.4388386 -0.1750000 0.1817728
v 0.4388386 -0.2000000 0.1817728
v 0.3984550 -0.1750000 -0.2422298
v 0.4388375 -0.1750000 -0.1817742
v 0.4388375 -0.2000000 -0.1817742
v 0.3984550 -0.2000000 -0.2422298
v 0.3535503 -0.1000000 0.3535500
v 0.3903623 -0.1000000 0.2984675
v 0.3903623 -0.0000000 0.2984675
v 0.3535503 -0.0000000 0.3535500
v 0.4619343 -0.1750000 0.1913413
v 0.3903625 -0.1000000 0.2984675
v 0.3903625 -0.1750000 0.2984675
v 0.3903625 -0.0000000 0.2984675
v 0.3903625 -0.1000000 0.2984675
v 0.4619343 -0.1750000 0.1913413
v 0.4619353 -0.0000000 0.1913398
v 0.4619397 -0.1750000 -0.1913418
v 0.4619397 -0.0000000 -0.1913418
v 0.5000126 -0.0000000 0.0000037
v 0.5000126 -0.1750000 0.0000037
v 0.5000126 -0.1750000 0.0000037
v 0.5000126 -0.0000000 0.0000037
v 0.4619353 -0.0000000 0.1913398
v 0.4619353 -0.1750000 0.1913398
v 0.4619397 -0.0000000 -0.1913418
v 0.4619400 -0.1750000 -0.1913400
v 0.3903625 -0.1000000 -0.2984675
v 0.3903625 -0.0000000 -0.2984675
v 0.3903625 -0.1750000 -0.2984675
v 0.3903625 -0.1000000 -0.2984675
v 0.4619400 -0.1750000 -0.1913400
v 0.3535503 -0.0000000 -0.3535500
v 0.3903623 -0.0000000 -0.2984675
v 0.3903623 -0.1000000 -0.2984675
v 0.3535503 -0.1000000 -0.3535500
v 0.4000000 -0.1000000 0.2500000
v 0.4000000 -0.1750000 0.2500000
v 0.3903625 -0.1750000 0.2984675
v 0.3903625 -0.1000000 0.2984675
v 0.4000000 -0.1750000 0.2500000
v 0.4000000 -0.1000000 0.2500000
v 0.3984550 -0.1000000 0.2422300
v 0.3984550 -0.1750000 0.2422300
v 0.3984550 -0.1750000 0.2422298
v 0.3984550 -0.1000000 0.2422298
v 0.3885852 -0.1000000 0.1925950
v 0.3885852 -0.1000000 0.1925950
v 0.3885852 -0.2000000 0.1925950
v 0.3984550 -0.2000000 0.2422298
v 0.3984550 -0.1750000 0.2422298
v 0.3885850 -0.2000000 0.1925948
v 0.3885850 -0.1000000 0.1925948
v 0.3658685 -0.1000000 0.1586038
v 0.3658685 -0.2000000 0.1586038
v 0.3984550 -0.2000000 -0.2422298
v 0.4388375 -0.2000000 -0.1817743
v 0.4157460 -0.2000000 -0.1722083
v 0.3885852 -0.2000000 -0.1925950
v 0.3885852 -0.2000000 -0.1925950
v 0.4157460 -0.2000000 -0.1722083
v 0.3695490 -0.2000000 -0.1530718
v 0.3658683 -0.2000000 -0.1586038
v 0.4157460 -0.2000000 -0.1722083
v 0.4500118 -0.2000000 0.0000028
v 0.4000105 -0.2000000 0.0000025
v 0.3695520 -0.2000000 -0.1530740
v 0.4500118 -0.2000000 0.0000028
v 0.4157425 -0.2000000 0.1722055
v 0.3695488 -0.2000000 0.1530716
v 0.4000105 -0.2000000 0.0000025
v 0.4388430 -0.2000000 -0.1817730
v 0.4750116 -0.2000000 0.0000051
v 0.4500110 -0.2000000 0.0000049
v 0.4157460 -0.2000000 -0.1722060
v 0.4750116 -0.2000000 0.0000051
v 0.4388376 -0.2000000 0.1817742
v 0.4157409 -0.2000000 0.1722071
v 0.4500110 -0.2000000 0.0000049
v 0.3658685 -0.2000000 0.1586038
v 0.3695490 -0.2000000 0.1530715
v 0.4157425 -0.2000000 0.1722055
v 0.3885852 -0.2000000 0.1925950
v 0.3885852 -0.2000000 0.1925950
v 0.4157425 -0.2000000 0.1722055
v 0.4388375 -0.2000000 0.1817743
v 0.3984550 -0.2000000 0.2422298
v 0.4619400 -0.1750000 -0.1913400
v 0.4000000 -0.1750000 -0.2500000
v 0.3903625 -0.1750000 -0.2984675
v 0.4619400 -0.1750000 -0.1913400
v 0.4388375 -0.1750000 -0.1817743
v 0.3984550 -0.1750000 -0.2422298
v 0.4000000 -0.1750000 -0.2500000
v 0.4619400 -0.1750000 -0.1913400
v 0.5000122 -0.1750000 0.0000054
v 0.4750116 -0.1750000 0.0000051
v 0.4388430 -0.1750000 -0.1817730
v 0.5000122 -0.1750000 0.0000054
v 0.4619343 -0.1750000 0.1913413
v 0.4388376 -0.1750000 0.1817742
v 0.4750116 -0.1750000 0.0000051
v 0.4000003 -0.1750000 0.2500000
v 0.3984550 -0.1750000 0.2422298
v 0.4388375 -0.1750000 0.1817743
v 0.4619343 -0.1750000 0.1913413
v 0.3903625 -0.1750000 0.2984675
v 0.4000003 -0.1750000 0.2500000
v 0.4619343 -0.1750000 0.1913413
v 0.3903623 -0.1000000 0.2984675
v 0.3535500 -0.1000000 0.3535500
v 0.1414215 -0.1000000 0.1414215
v 0.4000000 -0.1000000 0.2500000
v 0.1414215 -0.1000000 0.1414215
v 0.3658683 -0.1000000 0.1586038
v 0.3885850 -0.1000000 0.1925950
v 0.4000000 -0.1000000 0.2500000
v 0.1414215 -0.1000000 0.1414215
v 0.4000000 -0.1000000 0.0000000
v 0.3695483 -0.1000000 0.1530720
v 0.3658683 -0.1000000 0.1586038
v 0.2828430 -0.1000000 0.0000000
v 0.4000000 -0.1000000 0.0000000
v 0.1414215 -0.1000000 0.1414215
v 0.1414215 -0.1000000 -0.1414215
v 0.4000000 -0.1000000 0.0000000
v 0.2828430 -0.1000000 0.0000000
v 0.3658683 -0.1000000 -0.1586038
v 0.3695483 -0.1000000 -0.1530720
v 0.4000000 -0.1000000 0.0000000
v 0.1414215 -0.1000000 -0.1414215
v 0.4000000 -0.1000000 -0.2500000
v 0.3885850 -0.1000000 -0.1925950
v 0.3658683 -0.1000000 -0.1586038
v 0.1414215 -0.1000000 -0.1414215
v 0.4000000 -0.1000000 -0.2500000
v 0.1414215 -0.1000000 -0.1414215
v 0.3535500 -0.1000000 -0.3535500
v 0.3903623 -0.1000000 -0.2984675
v 0.1847813 -0.1000000 -0.0765373
v 0.1414215 -0.1000000 -0.1414215
v 0.2828430 -0.1000000 0.0000000
v 0.1999983 -0.1000000 0.0000000
v 0.1847813 -0.1000000 -0.0765373
v 0.2828430 -0.1000000 0.0000000
v 0.1847813 -0.1000000 0.0765373
v 0.1999983 -0.1000000 0.0000000
v 0.2828430 -0.1000000 0.0000000
v 0.1414215 -0.1000000 0.1414215
v 0.1847813 -0.1000000 0.0765373
v 0.2828430 -0.1000000 0.0000000
v 0.1586038 -0.2000000 0.3658685
v 0.1586038 -0.1000000 0.3658685
v 0.1925948 -0.1000000 0.3885850
v 0.1925948 -0.2000000 0.3885850
v 0.2422298 -0.1750000 0.3984550
v 0.2422298 -0.2000000 0.3984550
v 0.1925950 -0.2000000 0.3885852
v 0.1925950 -0.1000000 0.3885852
v 0.1925950 -0.1000000 0.3885852
v 0.2422298 -0.1000000 0.3984550
v 0.2422298 -0.1750000 0.3984550
v 0.2422300 -0.1750000 0.3984550
v 0.2422300 -0.1000000 0.3984550
v 0.2500000 -0.1000000 0.4000000
v 0.2500000 -0.1750000 0.4000000
v 0.2984675 -0.1000000 0.3903625
v 0.2984675 -0.1750000 0.3903625
v 0.2500000 -0.1750000 0.4000000
v 0.2500000 -0.1000000 0.4000000
v -0.1586038 -0.1000000 0.3658683
v -0.1530717 -0.1000000 0.3695488
v -0.1530717 -0.2000000 0.3695488
v -0.1586038 -0.2000000 0.3658683
v -0.0000031 -0.2000000 0.4000100
v -0.0000031 -0.1000000 0.4000100
v 0.1530733 -0.1000000 0.3695518
v 0.1530733 -0.2000000 0.3695518
v -0.1530719 -0.2000000 0.3695481
v -0.1530719 -0.1000000 0.3695481
v -0.0000031 -0.1000000 0.4000100
v -0.0000031 -0.2000000 0.4000100
v 0.1586038 -0.2000000 0.3658683
v 0.1530717 -0.2000000 0.3695488
v 0.1530717 -0.1000000 0.3695488
v 0.1586038 -0.1000000 0.3658683
v -0.2422298 -0.2000000 0.3984550
v -0.1817742 -0.2000000 0.4388375
v -0.1817742 -0.1750000 0.4388375
v -0.2422298 -0.1750000 0.3984550
v 0.1817748 -0.2000000 0.4388428
v 0.1817748 -0.1750000 0.4388428
v -0.0000034 -0.1750000 0.4750120
v -0.0000034 -0.2000000 0.4750120
v -0.0000034 -0.2000000 0.4750120
v -0.0000034 -0.1750000 0.4750120
v -0.1817728 -0.1750000 0.4388386
v -0.1817728 -0.2000000 0.4388386
v 0.2422298 -0.1750000 0.3984550
v 0.1817742 -0.1750000 0.4388375
v 0.1817742 -0.2000000 0.4388375
v 0.2422298 -0.2000000 0.3984550
v -0.3535500 -0.1000000 0.3535503
v -0.2984675 -0.1000000 0.3903623
v -0.2984675 -0.0000000 0.3903623
v -0.3535500 -0.0000000 0.3535503
v -0.1913413 -0.1750000 0.4619343
v -0.2984675 -0.1000000 0.3903625
v -0.2984675 -0.1750000 0.3903625
v -0.2984675 -0.0000000 0.3903625
v -0.2984675 -0.1000000 0.3903625
v -0.1913413 -0.1750000 0.4619343
v -0.1913398 -0.0000000 0.4619353
v 0.1913418 -0.1750000 0.4619397
v 0.1913418 -0.0000000 0.4619397
v -0.0000037 -0.0000000 0.5000126
v -0.0000037 -0.1750000 0.5000126
v -0.0000037 -0.1750000 0.5000126
v -0.0000037 -0.0000000 0.5000126
v -0.1913398 -0.0000000 0.4619353
v -0.1913398 -0.1750000 0.4619353
v 0.1913418 -0.0000000 0.4619397
v 0.1913400 -0.1750000 0.4619400
v 0.2984675 -0.1000000 0.3903625
v 0.2984675 -0.0000000 0.3903625
v 0.2984675 -0.1750000 0.3903625
v 0.2984675 -0.1000000 0.3903625
v 0.1913400 -0.1750000 0.4619400
v 0.3535500 -0.0000000 0.3535503
v 0.2984675 -0.0000000 0.3903623
v 0.2984675 -0.1000000 0.3903623
v 0.3535500 -0.1000000 0.3535503
v -0.2500000 -0.1000000 0.4000000
v -0.2500000 -0.1750000 0.4000000
v -0.2984675 -0.1750000 0.3903625
v -0.2984675 -0.1000000 0.3903625
v -0.2500000 -0.1750000 0.4000000
v -0.2500000 -0.1000000 0.4000000
v -0.2422300 -0.1000000 0.3984550
v -0.2422300 -0.1750000 0.3984550
v -0.2422298 -0.1750000 0.3984550
v -0.2422298 -0.1000000 0.3984550
v -0.1925950 -0.1000000 0.3885852
v -0.1925950 -0.1000000 0.3885852
v -0.1925950 -0.2000000 0.3885852
v -0.2422298 -0.2000000 0.3984550
v -0.2422298 -0.1750000 0.3984550
v -0.1925948 -0.2000000 0.3885850
v -0.1925948 -0.1000000 0.3885850
v -0.1586038 -0.1000000 0.3658685
v -0.1586038 -0.2000000 0.3658685
v 0.2422298 -0.2000000 0.3984550
v 0.1817743 -0.2000000 0.4388375
v 0.1722083 -0.2000000 0.4157460
v 0.1925950 -0.2000000 0.3885852
v 0.1925950 -0.2000000 0.3885852
v 0.1722083 -0.2000000 0.4157460
v 0.1530718 -0.2000000 0.3695490
v 0.1586038 -0.2000000 0.3658683
v 0.1722083 -0.2000000 0.4157460
v -0.0000028 -0.2000000 0.4500118
v -0.0000025 -0.2000000 0.4000105
v 0.1530740 -0.2000000 0.3695520
v -0.0000028 -0.2000000 0.4500118
v -0.1722055 -0.2000000 0.4157425
v -0.1530716 -0.2000000 0.3695488
v -0.0000025 -0.2000000 0.4000105
v 0.1817730 -0.2000000 0.4388430
v -0.0000051 -0.2000000 0.4750116
v -0.0000049 -0.2000000 0.4500110
v 0.1722060 -0.2000000 0.4157460
v -0.0000051 -0.2000000 0.4750116
v -0.1817742 -0.2000000 0.4388376
v -0.1722071 -0.2000000 0.4157409
v -0.0000049 -0.2000000 0.4500110
v -0.1586038 -0.2000000 0.3658685
v -0.1530715 -0.2000000 0.3695490
v -0.1722055 -0.2000000 0.4157425
v -0.1925950 -0.2000000 0.3885852
v -0.1925950 -0.2000000 0.3885852
v -0.1722055 -0.2000000 0.4157425
v -0.1817743 -0.2000000 0.4388375
v -0.2422298 -0.2000000 0.3984550
v 0.1913400 -0.1750000 0.4619400
v 0.2500000 -0.1750000 0.4000000
v 0.2984675 -0.1750000 0.3903625
v 0.1913400 -0.1750000 0.4619400
v 0.1817743 -0.1750000 0.4388375
v 0.2422298 -0.1750000 0.3984550
v 0.2500000 -0.1750000 0.4000000
v 0.1913400 -0.1750000 0.4619400
v -0.0000054 -0.1750000 0.5000122
v -0.0000051 -0.1750000 0.4750116
v 0.1817730 -0.1750000 0.4388430
v -0.0000054 -0.1750000 0.5000122
v -0.1913413 -0.1750000 0.4619343
v -0.1817742 -0.1750000 0.4388376
v -0.0000051 -0.1750000 0.4750116
v -0.2500000 -0.1750000 0.4000003
v -0.2422298 -0.1750000 0.3984550
v -0.1817743 -0.1750000 0.4388375
v -0.1913413 -0.1750000 0.4619343
v -0.2984675 -0.1750000 0.3903625
v -0.2500000 -0.1750000 0.4000003
v -0.1913413 -0.1750000 0.4619343
v -0.2984675 -0.1000000 0.3903623
v -0.3535500 -0.1000000 0.3535500
v -0.1414215 -0.1000000 0.1414215
v -0.2500000 -0.1000000 0.4000000
v -0.1414215 -0.1000000 0.1414215
v -0.1586038 -0.1000000 0.3658683
v -0.1925950 -0.1000000 0.3885850
v -0.2500000 -0.1000000 0.4000000
v -0.1414215 -0.1000000 0.1414215
v 0.0000000 -0.1000000 0.4000000
v -0.1530720 -0.1000000 0.3695483
v -0.1586038 -0.1000000 0.3658683
v 0.0000000 -0.1000000 0.2828430
v 0.0000000 -0.1000000 0.4000000
v -0.1414215 -0.1000000 0.1414215
v 0.1414215 -0.1000000 0.1414215
v 0.0000000 -0.1000000 0.4000000
v 0.0000000 -0.1000000 0.2828430
v 0.1586038 -0.1000000 0.3658683
v 0.1530720 -0.1000000 0.3695483
v 0.0000000 -0.1000000 0.4000000
v 0.1414215 -0.1000000 0.1414215
v 0.2500000 -0.1000000 0.4000000
v 0.1925950 -0.1000000 0.3885850
v 0.1586038 -0.1000000 0.3658683
v 0.1414215 -0.1000000 0.1414215
v 0.2500000 -0.1000000 0.4000000
v 0.1414215 -0.1000000 0.1414215
v 0.3535500 -0.1000000 0.3535500
v 0.2984675 -0.1000000 0.3903623
v 0.0765373 -0.1000000 0.1847813
v 0.1414215 -0.1000000 0.1414215
v 0.0000000 -0.1000000 0.2828430
v 0.0000000 -0.1000000 0.1999983
v 0.0765373 -0.1000000 0.1847813
v 0.0000000 -0.1000000 0.2828430
v -0.0765373 -0.1000000 0.1847813
v 0.0000000 -0.1000000 0.1999983
v 0.0000000 -0.1000000 0.2828430
v -0.1414215 -0.1000000 0.1414215
v -0.0765373 -0.1000000 0.1847813
v 0.0000000 -0.1000000 0.2828430
v -0.3658685 -0.2000000 0.1586038
v -0.3658685 -0.1000000 0.1586038
v -0.3885850 -0.1000000 0.1925948
v -0.3885850 -0.2000000 0.1925948
v -0.3984550 -0.1750000 0.2422298
v -0.3984550 -0.2000000 0.2422298
v -0.3885852 -0.2000000 0.1925950
v -0.3885852 -0.1000000 0.1925950
v -0.3885852 -0.1000000 0.1925950
v -0.3984550 -0.1000000 0.2422298
v -0.3984550 -0.1750000 0.2422298
v -0.3984550 -0.1750000 0.2422300
v -0.3984550 -0.1000000 0.2422300
v -0.4000000 -0.1000000 0.2500000
v -0.4000000 -0.1750000 0.2500000
v -0.3903625 -0.1000000 0.2984675
v -0.3903625 -0.1750000 0.2984675
v -0.4000000 -0.1750000 0.2500000
v -0.4000000 -0.1000000 0.2500000
v -0.3658683 -0.1000000 -0.1586038
v -0.3695488 -0.1000000 -0.1530717
v -0.3695488 -0.2000000 -0.1530717
v -0.3658683 -0.2000000 -0.1586038
v -0.4000100 -0.2000000 -0.0000031
v -0.4000100 -0.1000000 -0.0000031
v -0.3695518 -0.1000000 0.1530733
v -0.3695518 -0.2000000 0.1530733
v -0.3695481 -0.2000000 -0.1530719
v -0.3695481 -0.1000000 -0.1530719
v -0.4000100 -0.1000000 -0.0000031
v -0.4000100 -0.2000000 -0.0000031
v -0.3658683 -0.2000000 0.1586038
v -0.3695488 -0.2000000 0.1530717
v -0.3695488 -0.1000000 0.1530717
v -0.3658683 -0.1000000 0.1586038
v -0.3984550 -0.2000000 -0.2422298
v -0.4388375 -0.2000000 -0.1817742
v -0.4388375 -0.1750000 -0.1817742
v -0.3984550 -0.1750000 -0.2422298
v -0.4388428 -0.2000000 0.1817748
v -0.4388428 -0.1750000 0.1817748
v -0.4750120 -0.1750000 -0.0000034
v -0.4750120 -0.2000000 -0.0000034
v -0.4750120 -0.2000000 -0.0000034
v -0.4750120 -0.1750000 -0.0000034
v -0.4388386 -0.1750000 -0.1817728
v -0.4388386 -0.2000000 -0.1817728
v -0.3984550 -0.1750000 0.2422298
v -0.4388375 -0.1750000 0.1817742
v -0.4388375 -0.2000000 0.1817742
v -0.3984550 -0.2000000 0.2422298
v -0.3535503 -0.1000000 -0.3535500
v -0.3903623 -0.1000000 -0.2984675
v -0.3903623 -0.0000000 -0.2984675
v -0.3535503 -0.0000000 -0.3535500
v -0.4619343 -0.1750000 -0.1913413
v -0.3903625 -0.1000000 -0.2984675
v -0.3903625 -0.1750000 -0.2984675
v -0.3903625 -0.0000000 -0.2984675
v -0.3903625 -0.1000000 -0.2984675
v -0.4619343 -0.1750000 -0.1913413
v -0.4619353 -0.0000000 -0.1913398
v -0.4619397 -0.1750000 0.1913418
v -0.4619397 -0.0000000 0.1913418
v -0.5000126 -0.0000000 -0.0000037
v -0.5000126 -0.1750000 -0.0000037
v -0.5000126 -0.1750000 -0.0000037
v -0.5000126 -0.0000000 -0.0000037
v -0.4619353 -0.0000000 -0.1913398
v -0.4619353 -0.1750000 -0.1913398
v -0.4619397 -0.0000000 0.1913418
v -0.4619400 -0.1750000 0.1913400
v -0.3903625 -0.1000000 0.2984675
v -0.3903625 -0.0000000 0.2984675
v -0.3903625 -0.1750000 0.2984675
v -0.3903625 -0.1000000 0.2984675
v -0.4619400 -0.1750000 0.1913400
v -0.3535503 -0.0000000 0.3535500
v -0.3903623 -0.0000000 0.2984675
v -0.3903623 -0.1000000 0.2984675
v -0.3535503 -0.1000000 0.3535500
v -0.4000000 -0.1000000 -0.2500000
v -0.4000000 -0.1750000 -0.2500000
v -0.3903625 -0.1750000 -0.2984675
v -0.3903625 -0.1000000 -0.2984675
v -0.4000000 -0.1750000 -0.2500000
v -0.4000000 -0.1000000 -0.2500000
v -0.3984550 -0.1000000 -0.2422300
v -0.3984550 -0.1750000 -0.2422300
v -0.3984550 -0.1750000 -0.2422298
v -0.3984550 -0.1000000 -0.2422298
v -0.3885852 -0.1000000 -0.1925950
v -0.3885852 -0.1000000 -0.1925950
v -0.3885852 -0.2000000 -0.1925950
v -0.3984550 -0.2000000 -0.2422298
v -0.3984550 -0.1750000 -0.2422298
v -0.3885850 -0.2000000 -0.1925948
v -0.3885850 -0.1000000 -0.1925948
v -0.3658685 -0.1000000 -0.1586038
v -0.3658685 -0.2000000 -0.1586038
v -0.3984550 -0.2000000 0.2422298
v -0.4388375 -0.2000000 0.1817743
v -0.4157460 -0.2000000 0.1722083
v -0.3885852 -0.2000000 0.1925950
v -0.3885852 -0.2000000 0.1925950
v -0.4157460 -0.2000000 0.1722083
v -0.3695490 -0.2000000 0.1530718
v -0.3658683 -0.2000000 0.1586038
v -0.4157460 -0.2000000 0.1722083
v -0.4500118 -0.2000000 -0.0000028
v -0.4000105 -0.2000000 -0.0000025
v -0.3695520 -0.2000000 0.1530740
v -0.4500118 -0.2000000 -0.0000028
v -0.4157425 -0.2000000 -0.1722055
v -0.3695488 -0.2000000 -0.1530716
v -0.4000105 -0.2000000 -0.0000025
v -0.4388430 -0.2000000 0.1817730
v -0.4750116 -0.2000000 -0.0000051
v -0.4500110 -0.2000000 -0.0000049
v -0.4157460 -0.2000000 0.1722060
v -0.4750116 -0.2000000 -0.0000051
v -0.4388376 -0.2000000 -0.1817742
v -0.4157409 -0.2000000 -0.1722071
v -0.4500110 -0.2000000 -0.0000049
v -0.3658685 -0.2000000 -0.1586038
v -0.3695490 -0.2000000 -0.1530715
v -0.4157425 -0.2000000 -0.1722055
v -0.3885852 -0.2000000 -0.1925950
v -0.3885852 -0.2000000 -0.1925950
v -0.4157425 -0.2000000 -0.1722055
v -0.4388375 -0.2000000 -0.1817743
v -0.3984550 -0.2000000 -0.2422298
v -0.4619400 -0.1750000 0.1913400
v -0.4000000 -0.1750000 0.2500000
v -0.3903625 -0.1750000 0.2984675
v -0.4619400 -0.1750000 0.1913400
v -0.4388375 -0.1750000 0.1817743
v -0.3984550 -0.1750000 0.2422298
v -0.4000000 -0.1750000 0.2500000
v -0.4619400 -0.1750000 0.1913400
v -0.5000122 -0.1750000 -0.0000054
v -0.4750116 -0.1750000 -0.0000051
v -0.4388430 -0.1750000 0.1817730
v -0.5000122 -0.1750000 -0.0000054
v -0.4619343 -0.1750000 -0.1913413
v -0.4388376 -0.1750000 -0.1817742
v -0.4750116 -0.1750000 -0.0000051
v -0.4000003 -0.1750000 -0.2500000
v -0.3984550 -0.1750000 -0.2422298
v -0.4388375 -0.1750000 -0.1817743
v -0.4619343 -0.1750000 -0.1913413
v -0.3903625 -0.1750000 -0.2984675
v -0.4000003 -0.1750000 -0.2500000
v -0.4619343 -0.1750000 -0.1913413
v -0.3903623 -0.1000000 -0.2984675
v -0.3535500 -0.1000000 -0.3535500
v -0.1414215 -0.1000000 -0.1414215
v -0.4000000 -0.1000000 -0.2500000
v -0.1414215 -0.1000000 -0.1414215
v -0.3658683 -0.1000000 -0.1586038
v -0.3885850 -0.1000000 -0.1925950
v -0.4000000 -0.1000000 -0.2500000
v -0.1414215 -0.1000000 -0.1414215
v -0.4000000 -0.1000000 0.0000000
v -0.3695483 -0.1000000 -0.1530720
v -0.3658683 -0.1000000 -0.1586038
v -0.2828430 -0.1000000 0.0000000
v -0.4000000 -0.1000000 0.0000000
v -0.1414215 -0.1000000 -0.1414215
v -0.1414215 -0.1000000 0.1414215
v -0.4000000 -0.1000000 0.0000000
v -0.2828430 -0.1000000 0.0000000
v -0.3658683 -0.1000000 0.1586038
v -0.3695483 -0.1000000 0.1530720
v -0.4000000 -0.1000000 0.0000000
v -0.1414215 -0.1000000 0.1414215
v -0.4000000 -0.1000000 0.2500000
v -0.3885850 -0.1000000 0.1925950
v -0.3658683 -0.1000000 0.1586038
v -0.1414215 -0.1000000 0.1414215
v -0.4000000 -0.1000000 0.2500000
v -0.1414215 -0.1000000 0.1414215
v -0.3535500 -0.1000000 0.3535500
v -0.3903623 -0.1000000 0.2984675
v -0.1847813 -0.1000000 0.0765373
v -0.1414215 -0.1000000 0.1414215
v -0.2828430 -0.1000000 0.0000000
v -0.1999983 -0.1000000 0.0000000
v -0.1847813 -0.1000000 0.0765373
v -0.2828430 -0.1000000 0.0000000
v -0.1847813 -0.1000000 -0.0765373
v -0.1999983 -0.1000000 0.0000000
v -0.2828430 -0.1000000 0.0000000
v -0.1414215 -0.1000000 -0.1414215
v -0.1847813 -0.1000000 -0.0765373
v -0.2828430 -0.1000000 0.0000000
v -0.1586038 -0.2000000 -0.3658685
v -0.1586038 -0.1000000 -0.3658685
v -0.1925948 -0.1000000 -0.3885850
v -0.1925948 -0.2000000 -0.3885850
v -0.2422298 -0.1750000 -0.3984550
v -0.2422298 -0.2000000 -0.3984550
v -0.1925950 -0.2000000 -0.3885852
v -0.1925950 -0.1000000 -0.3885852
v -0.1925950 -0.1000000 -0.3885852
v -0.2422298 -0.1000000 -0.3984550
v -0.2422298 -0.1750000 -0.3984550
v -0.2422300 -0.1750000 -0.3984550
v -0.2422300 -0.1000000 -0.3984550
v -0.2500000 -0.1000000 -0.4000000
v -0.2500000 -0.1750000 -0.4000000
v -0.2984675 -0.1000000 -0.3903625
v -0.2984675 -0.1750000 -0.3903625
v -0.2500000 -0.1750000 -0.4000000
v -0.2500000 -0.1000000 -0.4000000
v 0.1586038 -0.1000000 -0.3658683
v 0.1530717 -0.1000000 -0.3695488
v 0.1530717 -0.2000000 -0.3695488
v 0.1586038 -0.2000000 -0.3658683
v 0.0000031 -0.2000000 -0.4000100
v 0.0000031 -0.1000000 -0.4000100
v -0.1530733 -0.1000000 -0.3695518
v -0.1530733 -0.2000000 -0.3695518
v 0.1530719 -0.2000000 -0.3695481
v 0.1530719 -0.1000000 -0.3695481
v 0.0000031 -0.1000000 -0.4000100
v 0.0000031 -0.2000000 -0.4000100
v -0.1586038 -0.2000000 -0.3658683
v -0.1530717 -0.2000000 -0.3695488
v -0.1530717 -0.1000000 -0.3695488
v -0.1586038 -0.1000000 -0.3658683
v 0.2422298 -0.2000000 -0.3984550
v 0.1817742 -0.2000000 -0.4388375
v 0.1817742 -0.1750000 -0.4388375
v 0.2422298 -0.1750000 -0.3984550
v -0.1817748 -0.2000000 -0.4388428
v -0.1817748 -0.1750000 -0.4388428
v 0.0000034 -0.1750000 -0.4750120
v 0.0000034 -0.2000000 -0.4750120
v 0.0000034 -0.2000000 -0.4750120
v 0.0000034 -0.1750000 -0.4750120
v 0.1817728 -0.1750000 -0.4388386
v 0.1817728 -0.2000000 -0.4388386
v -0.2422298 -0.1750000 -0.3984550
v -0.1817742 -0.1750000 -0.4388375
v -0.1817742 -0.2000000 -0.4388375
v -0.2422298 -0.2000000 -0.3984550
v 0.3535500 -0.1000000 -0.3535503
v 0.2984675 -0.1000000 -0.3903623
v 0.2984675 -0.0000000 -0.3903623
v 0.3535500 -0.0000000 -0.3535503
v 0.1913413 -0.1750000 -0.4619343
v 0.2984675 -0.1000000 -0.3903625
v 0.2984675 -0.1750000 -0.3903625
v 0.2984675 -0.0000000 -0.3903625
v 0.2984675 -0.1000000 -0.3903625
v 0.1913413 -0.1750000 -0.4619343
v 0.1913398 -0.0000000 -0.4619353
v -0.1913418 -0.1750000 -0.4619397
v -0.1913418 -0.0000000 -0.4619397
v 0.0000037 -0.0000000 -0.5000126
v 0.0000037 -0.1750000 -0.5000126
v 0.0000037 -0.1750000 -0.5000126
v 0.0000037 -0.0000000 -0.5000126
v 0.1913398 -0.0000000 -0.4619353
v 0.1913398 -0.1750000 -0.4619353
v -0.1913418 -0.0000000 -0.4619397
v -0.1913400 -0.1750000 -0.4619400
v -0.2984675 -0.1000000 -0.3903625
v -0.2984675 -0.0000000 -0.3903625
v -0.2984675 -0.1750000 -0.3903625
v -0.2984675 -0.1000000 -0.3903625
v -0.1913400 -0.1750000 -0.4619400
v -0.3535500 -0.0000000 -0.3535503
v -0.2984675 -0.0000000 -0.3903623
v -0.2984675 -0.1000000 -0.3903623
v -0.3535500 -0.1000000 -0.3535503
v 0.2500000 -0.1000000 -0.4000000
v 0.2500000 -0.1750000 -0.4000000
v 0.2984675 -0.1750000 -0.3903625
v 0.2984675 -0.1000000 -0.3903625
v 0.2500000 -0.1750000 -0.4000000
v 0.2500000 -0.1000000 -0.4000000
v 0.2422300 -0.1000000 -0.3984550
v 0.2422300 -0.1750000 -0.3984550
v 0.2422298 -0.1750000 -0.3984550
v 0.2422298 -0.1000000 -0.3984550
v 0.1925950 -0.1000000 -0.3885852
v 0.1925950 -0.1000000 -0.3885852
v 0.1925950 -0.2000000 -0.3885852
v 0.2422298 -0.2000000 -0.3984550
v 0.2422298 -0.1750000 -0.3984550
v 0.1925948 -0.2000000 -0.3885850
v 0.1925948 -0.1000000 -0.3885850
v 0.1586038 -0.1000000 -0.3658685
v 0.1586038 -0.2000000 -0.3658685
v -0.2422298 -0.2000000 -0.3984550
v -0.1817743 -0.2000000 -0.4388375
v -0.1722083 -0.2000000 -0.4157460
v -0.1925950 -0.2000000 -0.3885852
v -0.1925950 -0.2000000 -0.3885852
v -0.1722083 -0.2000000 -0.4157460
v -0.1530718 -0.2000000 -0.3695490
v -0.1586038 -0.2000000 -0.3658683
v -0.1722083 -0.2000000 -0.4157460
v 0.0000028 -0.2000000 -0.4500118
v 0.0000025 -0.2000000 -0.4000105
v -0.1530740 -0.2000000 -0.3695520
v 0.0000028 -0.2000000 -0.4500118
v 0.1722055 -0.2000000 -0.4157425
v 0.1530716 -0.2000000 -0.3695488
v 0.0000025 -0.2000000 -0.4000105
v -0.1817730 -0.2000000 -0.4388430
v 0.0000051 -0.2000000 -0.4750116
v 0.0000049 -0.2000000 -0.4500110
v -0.1722060 -0.2000000 -0.4157460
v 0.0000051 -0.2000000 -0.4750116
v 0.1817742 -0.2000000 -0.4388376
v 0.1722071 -0.2000000 -0.4157409
v 0.0000049 -0.2000000 -0.4500110
v 0.1586038 -0.2000000 -0.3658685
v 0.1530715 -0.2000000 -0.3695490
v 0.1722055 -0.2000000 -0.4157425
v 0.1925950 -0.2000000 -0.3885852
v 0.1925950 -0.2000000 -0.3885852
v 0.1722055 -0.2000000 -0.4157425
v 0.1817743 -0.2000000 -0.4388375
v 0.2422298 -0.2000000 -0.3984550
v -0.1913400 -0.1750000 -0.4619400
v -0.2500000 -0.1750000 -0.4000000
v -0.2984675 -0.1750000 -0.3903625
v -0.1913400 -0.1750000 -0.4619400
v -0.1817743 -0.1750000 -0.4388375
v -0.2422298 -0.1750000 -0.3984550
v -0.2500000 -0.1750000 -0.4000000
v -0.1913400 -0.1750000 -0.4619400
v 0.0000054 -0.1750000 -0.5000122
v 0.0000051 -0.1750000 -0.4750116
v -0.1817730 -0.1750000 -0.4388430
v 0.0000054 -0.1750000 -0.5000122
v 0.1913413 -0.1750000 -0.4619343
v 0.1817742 -0.1750000 -0.4388376
v 0.0000051 -0.1750000 -0.4750116
v 0.2500000 -0.1750000 -0.4000003
v 0.2422298 -0.1750000 -0.3984550
v 0.1817743 -0.1750000 -0.4388375
v 0.1913413 -0.1750000 -0.4619343
v 0.2984675 -0.1750000 -0.3903625
v 0.2500000 -0.1750000 -0.4000003
v 0.1913413 -0.1750000 -0.4619343
v 0.2984675 -0.1000000 -0.3903623
v 0.3535500 -0.1000000 -0.3535500
v 0.1414215 -0.1000000 -0.1414215
v 0.2500000 -0.1000000 -0.4000000
v 0.1414215 -0.1000000 -0.1414215
v 0.1586038 -0.1000000 -0.3658683
v 0.1925950 -0.1000000 -0.3885850
v 0.2500000 -0.1000000 -0.4000000
v 0.1414215 -0.1000000 -0.1414215
v 0.0000000 -0.1000000 -0.4000000
v 0.1530720 -0.1000000 -0.3695483
v 0.1586038 -0.1000000 -0.3658683
v 0.0000000 -0.1000000 -0.2828430
v 0.0000000 -0.1000000 -0.4000000
v 0.1414215 -0.1000000 -0.1414215
v -0.1414215 -0.1000000 -0.1414215
v 0.0000000 -0.1000000 -0.4000000
v 0.0000000 -0.1000000 -0.2828430
v -0.1586038 -0.1000000 -0.3658683
v -0.1530720 -0.1000000 -0.3695483
v 0.0000000 -0.1000000 -0.4000000
v -0.1414215 -0.1000000 -0.1414215
v -0.2500000 -0.1000000 -0.4000000
v -0.1925950 -0.1000000 -0.3885850
v -0.1586038 -0.1000000 -0.3658683
v -0.1414215 -0.1000000 -0.1414215
v -0.2500000 -0.1000000 -0.4000000
v -0.1414215 -0.1000000 -0.1414215
v -0.3535500 -0.1000000 -0.3535500
v -0.2984675 -0.1000000 -0.3903623
v -0.0765373 -0.1000000 -0.1847813
v -0.1414215 -0.1000000 -0.1414215
v 0.0000000 -0.1000000 -0.2828430
v 0.0000000 -0.1000000 -0.1999983
v -0.0765373 -0.1000000 -0.1847813
v 0.0000000 -0.1000000 -0.2828430
v 0.0765373 -0.1000000 -0.1847813
v 0.0000000 -0.1000000 -0.1999983
v 0.0000000 -0.1000000 -0.2828430
v 0.1414215 -0.1000000 -0.1414215
v 0.0765373 -0.1000000 -0.1847813
v 0.0000000 -0.1000000 -0.2828430
v 0.0000000 -0.1000000 0.0000000
v 0.1500000 -0.1000000 0.0000000
v 0.1385850 -0.1000000 0.0574050
v 0.0000000 -0.1000000 0.0000000
v 0.1385850 -0.1000000 0.0574050
v 0.1060650 -0.1000000 0.1060650
v 0.0000000 -0.1000000 0.0000000
v 0.1060650 -0.1000000 0.1060650
v 0.0574050 -0.1000000 0.1385850
v 0.0000000 -0.1000000 0.0000000
v 0.0574050 -0.1000000 0.1385850
v 0.0000000 -0.1000000 0.1500000
v 0.0000000 -0.1000000 0.0000000
v 0.0000000 -0.1000000 0.1500000
v -0.0574050 -0.1000000 0.1385850
v 0.0000000 -0.1000000 0.0000000
v -0.0574050 -0.1000000 0.1385850
v -0.1060650 -0.1000000 0.1060650
v 0.0000000 -0.1000000 0.0000000
v -0.1060650 -0.1000000 0.1060650
v -0.1385850 -0.1000000 0.0574050
v 0.0000000 -0.1000000 0.0000000
v -0.1385850 -0.1000000 0.0574050
v -0.1500000 -0.1000000 0.0000000
v 0.0000000 -0.1000000 0.0000000
v -0.1500000 -0.1000000 0.0000000
v -0.1385850 -0.1000000 -0.0574050
v 0.0000000 -0.1000000 0.0000000
v -0.1385850 -0.1000000 -0.0574050
v -0.1060650 -0.1000000 -0.1060650
v 0.0000000 -0.1000000 0.0000000
v -0.1060650 -0.1000000 -0.1060650
v -0.0574050 -0.1000000 -0.1385850
v 0.0000000 -0.1000000 0.0000000
v -0.0574050 -0.1000000 -0.1385850
v 0.0000000 -0.1000000 -0.1500000
v 0.0000000 -0.1000000 0.0000000
v 0.0000000 -0.1000000 -0.1500000
v 0.0574050 -0.1000000 -0.1385850
v 0.0000000 -0.1000000 0.0000000
v 0.0574050 -0.1000000 -0.1385850
v 0.1060650 -0.1000000 -0.1060650
v 0.0000000 -0.1000000 0.0000000
v 0.1060650 -0.1000000 -0.1060650
v 0.1385850 -0.1000000 -0.0574050
v 0.0000000 -0.1000000 0.0000000
v 0.1385850 -0.1000000 -0.0574050
v 0.1500000 -0.1000000 0.0000000
v 0.1500000 -0.2000000 0.0000000
v 0.1385850 -0.2000000 0.0574050
v 0.1385850 -0.1000000 0.0574050
v 0.1500000 -0.1000000 0.0000000
v 0.1385850 -0.2000000 0.0574050
v 0.1060650 -0.2000000 0.1060650
v 0.1060650 -0.1000000 0.1060650
v 0.1385850 -0.1000000 0.0574050
v 0.1060650 -0.2000000 0.1060650
v 0.0574050 -0.2000000 0.1385850
v 0.0574050 -0.1000000 0.1385850
v 0.1060650 -0.1000000 0.1060650
v 0.0574050 -0.2000000 0.1385850
v 0.0000000 -0.2000000 0.1500000
v 0.0000000 -0.1000000 0.1500000
v 0.0574050 -0.1000000 0.1385850
v 0.0000000 -0.2000000 0.1500000
v -0.0574050 -0.2000000 0.1385850
v -0.0574050 -0.1000000 0.1385850
v 0.0000000 -0.1000000 0.1500000
v -0.0574050 -0.2000000 0.1385850
v -0.1060650 -0.2000000 0.1060650
v -0.1060650 -0.1000000 0.1060650
v -0.0574050 -0.1000000 0.1385850
v -0.1060650 -0.2000000 0.1060650
v -0.1385850 -0.2000000 0.0574050
v -0.1385850 -0.1000000 0.0574050
v -0.1060650 -0.1000000 0.1060650
v -0.1385850 -0.2000000 0.0574050
v -0.1500000 -0.2000000 0.0000000
v -0.1500000 -0.1000000 0.0000000
v -0.1385850 -0.1000000 0.0574050
v -0.1500000 -0.2000000 0.0000000
v -0.1385850 -0.2000000 -0.0574050
v -0.1385850 -0.1000000 -0.0574050
v -0.1500000 -0.1000000 0.0000000
v -0.1385850 -0.2000000 -0.0574050
v -0.1060650 -0.2000000 -0.1060650
v -0.1060650 -0.1000000 -0.1060650
v -0.1385850 -0.1000000 -0.0574050
v -0.1060650 -0.2000000 -0.1060650
v -0.0574050 -0.2000000 -0.1385850
v -0.0574050 -0.1000000 -0.1385850
v -0.1060650 -0.1000000 -0.1060650
v -0.0574050 -0.2000000 -0.1385850
v 0.0000000 -0.2000000 -0.1500000
v 0.0000000 -0.1000000 -0.1500000
v -0.0574050 -0.1000000 -0.1385850
v 0.0000000 -0.2000000 -0.1500000
v 0.0574050 -0.2000000 -0.1385850
v 0.0574050 -0.1000000 -0.1385850
v 0.0000000 -0.1000000 -0.1500000
v 0.0574050 -0.2000000 -0.1385850
v 0.1060650 -0.2000000 -0.1060650
v 0.1060650 -0.1000000 -0.1060650
v 0.0574050 -0.1000000 -0.1385850
v 0.1060650 -0.2000000 -0.1060650
v 0.1385850 -0.2000000 -0.0574050
v 0.1385850 -0.1000000 -0.0574050
v 0.1060650 -0.1000000 -0.1060650
v 0.1385850 -0.2000000 -0.0574050
v 0.1500000 -0.2000000 0.0000000
v 0.1500000 -0.1000000 0.0000000
v 0.1385850 -0.1000000 -0.0574050
v 0.2000000 -0.1000000 0.0000000
v 0.1847800 -0.1000000 0.0765400
v 0.1847800 -0.2000000 0.0765400
v 0.2000000 -0.2000000 0.0000000
v 0.1847800 -0.1000000 0.0765400
v 0.1414200 -0.1000000 0.1414200
v 0.1414200 -0.2000000 0.1414200
v 0.1847800 -0.2000000 0.0765400
v 0.1414200 -0.1000000 0.1414200
v 0.0765400 -0.1000000 0.1847800
v 0.0765400 -0.2000000 0.1847800
v 0.1414200 -0.2000000 0.1414200
v 0.0765400 -0.1000000 0.1847800
v 0.0000000 -0.1000000 0.2000000
v 0.0000000 -0.2000000 0.2000000
v 0.0765400 -0.2000000 0.1847800
v 0.0000000 -0.1000000 0.2000000
v -0.0765400 -0.1000000 0.1847800
v -0.0765400 -0.2000000 0.1847800
v 0.0000000 -0.2000000 0.2000000
v -0.0765400 -0.1000000 0.1847800
v -0.1414200 -0.1000000 0.1414200
v -0.1414200 -0.2000000 0.1414200
v -0.0765400 -0.2000000 0.1847800
v -0.1414200 -0.1000000 0.1414200
v -0.1847800 -0.1000000 0.0765400
v -0.1847800 -0.2000000 0.0765400
v -0.1414200 -0.2000000 0.1414200
v -0.1847800 -0.1000000 0.0765400
v -0.2000000 -0.1000000 0.0000000
v -0.2000000 -0.2000000 0.0000000
v -0.1847800 -0.2000000 0.0765400
v -0.2000000 -0.1000000 0.0000000
v -0.1847800 -0.1000000 -0.0765400
v -0.1847800 -0.2000000 -0.0765400
v -0.2000000 -0.2000000 0.0000000
v -0.1847800 -0.1000000 -0.0765400
v -0.1414200 -0.1000000 -0.1414200
v -0.1414200 -0.2000000 -0.1414200
v -0.1847800 -0.2000000 -0.0765400
v -0.1414200 -0.1000000 -0.1414200
v -0.0765400 -0.1000000 -0.1847800
v -0.0765400 -0.2000000 -0.1847800
v -0.1414200 -0.2000000 -0.1414200
v -0.0765400 -0.1000000 -0.1847800
v 0.0000000 -0.1000000 -0.2000000
v 0.0000000 -0.2000000 -0.2000000
v -0.0765400 -0.2000000 -0.1847800
v 0.0000000 -0.1000000 -0.2000000
v 0.0765400 -0.1000000 -0.1847800
v 0.0765400 -0.2000000 -0.1847800
v 0.0000000 -0.2000000 -0.2000000
v 0.0765400 -0.1000000 -0.1847800
v 0.1414200 -0.1000000 -0.1414200
v 0.1414200 -0.2000000 -0.1414200
v 0.0765400 -0.2000000 -0.1847800
v 0.1414200 -0.1000000 -0.1414200
v 0.1847800 -0.1000000 -0.0765400
v 0.1847800 -0.2000000 -0.0765400
v 0.1414200 -0.2000000 -0.1414200
v 0.1847800 -0.1000000 -0.0765400
v 0.2000000 -0.1000000 0.0000000
v 0.2000000 -0.2000000 0.0000000
v 0.1847800 -0.2000000 -0.0765400
v -0.0765400 -0.2000000 0.1847800
v -0.0574050 -0.2000000 0.1385850
v 0.0000000 -0.2000000 0.1500000
v 0.0000000 -0.2000000 0.2000000
v -0.1414200 -0.2000000 0.1414200
v -0.1060650 -0.2000000 0.1060650
v -0.0574050 -0.2000000 0.1385850
v -0.0765400 -0.2000000 0.1847800
v -0.1847800 -0.2000000 0.0765400
v -0.1385850 -0.2000000 0.0574050
v -0.1060650 -0.2000000 0.1060650
v -0.1414200 -0.2000000 0.1414200
v -0.2000000 -0.2000000 0.0000000
v -0.1500000 -0.2000000 0.0000000
v -0.1385850 -0.2000000 0.0574050
v -0.1847800 -0.2000000 0.0765400
v -0.1847800 -0.2000000 -0.0765400
v -0.1385850 -0.2000000 -0.0574050
v -0.1500000 -0.2000000 0.0000000
v -0.2000000 -0.2000000 0.0000000
v -0.1414200 -0.2000000 -0.1414200
v -0.1060650 -0.2000000 -0.1060650
v -0.1385850 -0.2000000 -0.0574050
v -0.1847800 -0.2000000 -0.0765400
v -0.0765400 -0.2000000 -0.1847800
v -0.0574050 -0.2000000 -0.1385850
v -0.1060650 -0.2000000 -0.1060650
v -0.1414200 -0.2000000 -0.1414200
v 0.0000000 -0.2000000 -0.2000000
v 0.0000000 -0.2000000 -0.1500000
v -0.0574050 -0.2000000 -0.1385850
v -0.0765400 -0.2000000 -0.1847800
v 0.0765400 -0.2000000 -0.1847800
v 0.0574050 -0.2000000 -0.1385850
v 0.0000000 -0.2000000 -0.1500000
v 0.0000000 -0.2000000 -0.2000000
v 0.1414200 -0.2000000 -0.1414200
v 0.1060650 -0.2000000 -0.1060650
v 0.0574050 -0.2000000 -0.1385850
v 0.0765400 -0.2000000 -0.1847800
v 0.1847800 -0.2000000 -0.0765400
v 0.1385850 -0.2000000 -0.0574050
v 0.1060650 -0.2000000 -0.1060650
v 0.1414200 -0.2000000 -0.1414200
v 0.2000000 -0.2000000 0.0000000
v 0.1500000 -0.2000000 0.0000000
v 0.1385850 -0.2000000 -0.0574050
v 0.1847800 -0.2000000 -0.0765400
v 0.1847800 -0.2000000 0.0765400
v 0.1385850 -0.2000000 0.0574050
v 0.1500000 -0.2000000 0.0000000
v 0.2000000 -0.2000000 0.0000000
v 0.1414200 -0.2000000 0.1414200
v 0.1060650 -0.2000000 0.1060650
v 0.1385850 -0.2000000 0.0574050
v 0.1847800 -0.2000000 0.0765400
v 0.0765400 -0.2000000 0.1847800
v 0.0574050 -0.2000000 0.1385850
v 0.1060650 -0.2000000 0.1060650
v 0.1414200 -0.2000000 0.1414200
v 0.0000000 -0.2000000 0.2000000
v 0.0000000 -0.2000000 0.1500000
v 0.0574050 -0.2000000 0.1385850
v 0.0765400 -0.2000000 0.1847800
v 0.4619500 -0.0000000 0.1913500
v 0.5000000 -0.0000000 0.0000000
v 0.0000000 -0.0000000 0.0000000
v 0.3535500 -0.0000000 0.3535500
v 0.4619500 -0.0000000 0.1913500
v 0.0000000 -0.0000000 0.0000000
v 0.1913500 -0.0000000 0.4619500
v 0.3535500 -0.0000000 0.3535500
v 0.0000000 -0.0000000 0.0000000
v 0.0000000 -0.0000000 0.5000000
v 0.1913500 -0.0000000 0.4619500
v 0.0000000 -0.0000000 0.0000000
v -0.1913500 -0.0000000 0.4619500
v 0.0000000 -0.0000000 0.5000000
v 0.0000000 -0.0000000 0.0000000
v -0.3535500 -0.0000000 0.3535500
v -0.1913500 -0.0000000 0.4619500
v 0.0000000 -0.0000000 0.0000000
v -0.4619500 -0.0000000 0.1913500
v -0.3535500 -0.0000000 0.3535500
v 0.0000000 -0.0000000 0.0000000
v -0.5000000 -0.0000000 0.0000000
v -0.4619500 -0.0000000 0.1913500
v 0.0000000 -0.0000000 0.0000000
v -0.4619500 -0.0000000 -0.1913500
v -0.5000000 -0.0000000 0.0000000
v 0.0000000 -0.0000000 0.0000000
v -0.3535500 -0.0000000 -0.3535500
v -0.4619500 -0.0000000 -0.1913500
v 0.0000000 -0.0000000 0.0000000
v -0.1913500 -0.0000000 -0.4619500
v -0.3535500 -0.0000000 -0.3535500
v 0.0000000 -0.0000000 0.0000000
v 0.0000000 -0.0000000 -0.5000000
v -0.1913500 -0.0000000 -0.4619500
v 0.0000000 -0.0000000 0.0000000
v 0.1913500 -0.0000000 -0.4619500
v 0.0000000 -0.0000000 -0.5000000
v 0.0000000 -0.0000000 0.0000000
v 0.3535500 -0.0000000 -0.3535500
v 0.1913500 -0.0000000 -0.4619500
v 0.0000000 -0.0000000 0.0000000
v 0.4619500 -0.0000000 -0.1913500
v 0.3535500 -0.0000000 -0.3535500
v 0.0000000 -0.0000000 0.0000000
v 0.5000000 -0.0000000 0.0000000
v 0.4619500 -0.0000000 -0.1913500
v 0.0000000 -0.0000000 0.0000000
s off
f 1 2 3
f 1 3 4
f 5 6 7
f 5 7 8
f 9 10 11
f 12 13 14
f 12 14 15
f 16 17 18
f 16 18 19
f 20 21 22
f 20 22 23
f 24 25 26
f 24 26 27
f 28 29 30
f 28 30 31
f 32 33 34
f 32 34 35
f 36 37 38
f 36 38 39
f 40 41 42
f 40 42 43
f 44 45 46
f 44 46 47
f 48 49 50
f 48 50 51
f 52 53 54
f 52 54 55
f 56 57 58
f 59 60 61
f 59 61 62
f 63 64 65
f 63 65 66
f 67 68 69
f 67 69 70
f 71 72 73
f 71 73 74
f 75 76 77
f 78 79 80
f 78 80 81
f 82 83 84
f 82 84 85
f 86 87 88
f 86 88 89
f 90 91 92
f 93 94 95
f 93 95 96
f 97 98 99
f 97 99 100
f 101 102 103
f 101 103 104
f 105 106 107
f 105 107 108
f 109 110 111
f 109 111 112
f 113 114 115
f 113 115 116
f 117 118 119
f 117 119 120
f 121 122 123
f 121 123 124
f 125 126 127
f 125 127 128
f 129 130 131
f 129 131 132
f 133 134 135
f 136 137 138
f 136 138 139
f 140 141 142
f 140 142 143
f 144 145 146
f 144 146 147
f 148 149 150
f 148 150 151
f 152 153 154
f 155 156 157
f 155 157 158
f 159 160 161
f 159 161 162
f 163 164 165
f 163 165 166
f 167 168 169
f 170 171 172
f 173 174 175
f 173 175 176
f 177 178 179
f 177 179 180
f 181 182 183
f 181 183 184
f 185 186 187
f 188 189 190
f 191 192 193
f 194 195 196
f 197 198 199
f 197 199 200
f 201 202 203
f 201 203 204
f 205 206 207
f 208 209 210
f 208 210 211
f 212 213 214
f 212 214 215
f 216 217 218
f 216 218 219
f 220 221 222
f 220 222 223
f 224 225 226
f 224 226 227
f 228 229 230
f 228 230 231
f 232 233 234
f 232 234 235
f 236 237 238
f 236 238 239
f 240 241 242
f 240 242 243
f 244 245 246
f 244 246 247
f 248 249 250
f 248 250 251
f 252 253 254
f 255 256 257
f 255 257 258
f 259 260 261
f 259 261 262
f 263 264 265
f 263 265 266
f 267 268 269
f 267 269 270
f 271 272 273
f 274 275 276
f 274 276 277
f 278 279 280
f 278 280 281
f 282 283 284
f 282 284 285
f 286 287 288
f 289 290 291
f 289 291 292
f 293 294 295
f 293 295 296
f 297 298 299
f 297 299 300
f 301 302 303
f 301 303 304
f 305 306 307
f 305 307 308
f 309 310 311
f 309 311 312
f 313 314 315
f 313 315 316
f 317 318 319
f 317 319 320
f 321 322 323
f 321 323 324
f 325 326 327
f 325 327 328
f 329 330 331
f 332 333 334
f 332 334 335
f 336 337 338
f 336 338 339
f 340 341 342
f 340 342 343
f 344 345 346
f 344 346 347
f 348 349 350
f 351 352 353
f 351 353 354
f 355 356 357
f 355 357 358
f 359 360 361
f 359 361 362
f 363 364 365
f 366 367 368
f 369 370 371
f 369 371 372
f 373 374 375
f 373 375 376
f 377 378 379
f 377 379 380
f 381 382 383
f 384 385 386
f 387 388 389
f 390 391 392
f 393 394 395
f 393 395 396
f 397 398 399
f 397 399 400
f 401 402 403
f 404 405 406
f 404 406 407
f 408 409 410
f 408 410 411
f 412 413 414
f 412 414 415
f 416 417 418
f 416 418 419
f 420 421 422
f 420 422 423
f 424 425 426
f 424 426 427
f 428 429 430
f 428 430 431
f 432 433 434
f 432 434 435
f 436 437 438
f 436 438 439
f 440 441 442
f 440 442 443
f 444 445 446
f 444 446 447
f 448 449 450
f 451 452 453
f 451 453 454
f 455 456 457
f 455 457 458
f 459 460 461
f 459 461 462
f 463 464 465
f 463 465 466
f 467 468 469
f 470 471 472
f 470 472 473
f 474 475 476
f 474 476 477
f 478 479 480
f 478 480 481
f 482 483 484
f 485 486 487
f 485 487 488
f 489 490 491
f 489 491 492
f 493 494 495
f 493 495 496
f 497 498 499
f 497 499 500
f 501 502 503
f 501 503 504
f 505 506 507
f 505 507 508
f 509 510 511
f 509 511 512
f 513 514 515
f 513 515 516
f 517 518 519
f 517 519 520
f 521 522 523
f 521 523 524
f 525 526 527
f 528 529 530
f 528 530 531
f 532 533 534
f 532 534 535
f 536 537 538
f 536 538 539
f 540 541 542
f 540 542 543
f 544 545 546
f 547 548 549
f 547 549 550
f 551 552 553
f 551 553 554
f 555 556 557
f 555 557 558
f 559 560 561
f 562 563 564
f 565 566 567
f 565 567 568
f 569 570 571
f 569 571 572
f 573 574 575
f 573 575 576
f 577 578 579
f 580 581 582
f 583 584 585
f 586 587 588
f 589 590 591
f 589 591 592
f 593 594 595
f 593 595 596
f 597 598 599
f 600 601 602
f 600 602 603
f 604 605 606
f 604 606 607
f 608 609 610
f 608 610 611
f 612 613 614
f 612 614 615
f 616 617 618
f 616 618 619
f 620 621 622
f 620 622 623
f 624 625 626
f 624 626 627
f 628 629 630
f 628 630 631
f 632 633 634
f 632 634 635
f 636 637 638
f 636 638 639
f 640 641 642
f 640 642 643
f 644 645 646
f 647 648 649
f 647 649 650
f 651 652 653
f 651 653 654
f 655 656 657
f 655 657 658
f 659 660 661
f 659 661 662
f 663 664 665
f 666 667 668
f 666 668 669
f 670 671 672
f 670 672 673
f 674 675 676
f 674 676 677
f 678 679 680
f 681 682 683
f 681 683 684
f 685 686 687
f 685 687 688
f 689 690 691
f 689 691 692
f 693 694 695
f 693 695 696
f 697 698 699
f 697 699 700
f 701 702 703
f 701 703 704
f 705 706 707
f 705 707 708
f 709 710 711
f 709 711 712
f 713 714 715
f 713 715 716
f 717 718 719
f 717 719 720
f 721 722 723
f 724 725 726
f 724 726 727
f 728 729 730
f 728 730 731
f 732 733 734
f 732 734 735
f 736 737 738
f 736 738 739
f 740 741 742
f 743 744 745
f 743 745 746
f 747 748 749
f 747 749 750
f 751 752 753
f 751 753 754
f 755 756 757
f 758 759 760
f 761 762 763
f 761 763 764
f 765 766 767
f 765 767 768
f 769 770 771
f 769 771 772
f 773 774 775
f 776 777 778
f 779 780 781
f 782 783 784
f 785 786 787
f 788 789 790
f 791 792 793
f 794 795 796
f 797 798 799
f 800 801 802
f 803 804 805
f 806 807 808
f 809 810 811
f 812 813 814
f 815 816 817
f 818 819 820
f 821 822 823
f 824 825 826
f 827 828 829
f 830 831 832
f 833 834 835
f 833 835 836
f 837 838 839
f 837 839 840
f 841 842 843
f 841 843 844
f 845 846 847
f 845 847 848
f 849 850 851
f 849 851 852
f 853 854 855
f 853 855 856
f 857 858 859
f 857 859 860
f 861 862 863
f 861 863 864
f 865 866 867
f 865 867 868
f 869 870 871
f 869 871 872
f 873 874 875
f 873 875 876
f 877 878 879
f 877 879 880
f 881 882 883
f 881 883 884
f 885 886 887
f 885 887 888
f 889 890 891
f 889 891 892
f 893 894 895
f 893 895 896
f 897 898 899
f 897 899 900
f 901 902 903
f 901 903 904
f 905 906 907
f 905 907 908
f 909 910 911
f 909 911 912
f 913 914 915
f 913 915 916
f 917 918 919
f 917 919 920
f 921 922 923
f 921 923 924
f 925 926 927
f 925 927 928
f 929 930 931
f 929 931 932
f 933 934 935
f 933 935 936
f 937 938 939
f 937 939 940
f 941 942 943
f 941 943 944
f 945 946 947
f 945 947 948
f 949 950 951
f 949 951 952
f 953 954 955
f 953 955 956
f 957 958 959
f 957 959 960
f 961 962 963
f 961 963 964
f 965 966 967
f 965 967 968
f 969 970 971
f 969 971 972
f 973 974 975
f 973 975 976
f 977 978 979
f 977 979 980
f 981 982 983
f 981 983 984
f 985 986 987
f 985 987 988
f 989 990 991
f 989 991 992
f 993 994 995
f 993 995 996
f 997 998 999
f 997 999 1000
f 1001 1002 1003
f 1001 1003 1004
f 1005 1006 1007
f 1005 1007 1008
f 1009 1010 1011
f 1009 1011 1012
f 1013 1014 1015
f 1013 1015 1016
f 1017 1018 1019
f 1017 1019 1020
f 1021 1022 1023
f 1021 1023 1024
f 1025 1026 1027
f 1028 1029 1030
f 1031 1032 1033
f 1034 1035 1036
f 1037 1038 1039
f 1040 1041 1042
f 1043 1044 1045
f 1046 1047 1048
f 1049 1050 1051
f 1052 1053 1054
f 1055 1056 1057
f 1058 1059 1060
f 1061 1062 1063
f 1064 1065 1066
f 1067 1068 1069
f 1070 1071 1072
