# Baked from official LDraw part 15068.dat
o ldraw_15068
v 0.0923900 0.2000000 0.2117300
v 0.1000000 0.2000000 0.2500000
v 0.0000000 0.2000000 0.2500000
v 0.0707100 0.2000000 0.1792900
v 0.0923900 0.2000000 0.2117300
v 0.0000000 0.2000000 0.2500000
v 0.0382700 0.2000000 0.1576100
v 0.0707100 0.2000000 0.1792900
v 0.0000000 0.2000000 0.2500000
v 0.0000000 0.2000000 0.1500000
v 0.0382700 0.2000000 0.1576100
v 0.0000000 0.2000000 0.2500000
v -0.0382700 0.2000000 0.1576100
v 0.0000000 0.2000000 0.1500000
v 0.0000000 0.2000000 0.2500000
v -0.0707100 0.2000000 0.1792900
v -0.0382700 0.2000000 0.1576100
v 0.0000000 0.2000000 0.2500000
v -0.0923900 0.2000000 0.2117300
v -0.0707100 0.2000000 0.1792900
v 0.0000000 0.2000000 0.2500000
v -0.1000000 0.2000000 0.2500000
v -0.0923900 0.2000000 0.2117300
v 0.0000000 0.2000000 0.2500000
v -0.0923900 0.2000000 0.2882700
v -0.1000000 0.2000000 0.2500000
v 0.0000000 0.2000000 0.2500000
v -0.0707100 0.2000000 0.3207100
v -0.0923900 0.2000000 0.2882700
v 0.0000000 0.2000000 0.2500000
v -0.0382700 0.2000000 0.3423900
v -0.0707100 0.2000000 0.3207100
v 0.0000000 0.2000000 0.2500000
v 0.0000000 0.2000000 0.3500000
v -0.0382700 0.2000000 0.3423900
v 0.0000000 0.2000000 0.2500000
v 0.0382700 0.2000000 0.3423900
v 0.0000000 0.2000000 0.3500000
v 0.0000000 0.2000000 0.2500000
v 0.0707100 0.2000000 0.3207100
v 0.0382700 0.2000000 0.3423900
v 0.0000000 0.2000000 0.2500000
v 0.0923900 0.2000000 0.2882700
v 0.0707100 0.2000000 0.3207100
v 0.0000000 0.2000000 0.2500000
v 0.1000000 0.2000000 0.2500000
v 0.0923900 0.2000000 0.2882700
v 0.0000000 0.2000000 0.2500000
v 0.1000000 0.2000000 0.2500000
v 0.0923900 0.2000000 0.2117300
v 0.0923900 0.3000000 0.2117300
v 0.1000000 0.3000000 0.2500000
v 0.0923900 0.2000000 0.2117300
v 0.0707100 0.2000000 0.1792900
v 0.0707100 0.3000000 0.1792900
v 0.0923900 0.3000000 0.2117300
v 0.0707100 0.2000000 0.1792900
v 0.0382700 0.2000000 0.1576100
v 0.0382700 0.3000000 0.1576100
v 0.0707100 0.3000000 0.1792900
v 0.0382700 0.2000000 0.1576100
v 0.0000000 0.2000000 0.1500000
v 0.0000000 0.3000000 0.1500000
v 0.0382700 0.3000000 0.1576100
v 0.0000000 0.2000000 0.1500000
v -0.0382700 0.2000000 0.1576100
v -0.0382700 0.3000000 0.1576100
v 0.0000000 0.3000000 0.1500000
v -0.0382700 0.2000000 0.1576100
v -0.0707100 0.2000000 0.1792900
v -0.0707100 0.3000000 0.1792900
v -0.0382700 0.3000000 0.1576100
v -0.0707100 0.2000000 0.1792900
v -0.0923900 0.2000000 0.2117300
v -0.0923900 0.3000000 0.2117300
v -0.0707100 0.3000000 0.1792900
v -0.0923900 0.2000000 0.2117300
v -0.1000000 0.2000000 0.2500000
v -0.1000000 0.3000000 0.2500000
v -0.0923900 0.3000000 0.2117300
v -0.1000000 0.2000000 0.2500000
v -0.0923900 0.2000000 0.2882700
v -0.0923900 0.3000000 0.2882700
v -0.1000000 0.3000000 0.2500000
v -0.0923900 0.2000000 0.2882700
v -0.0707100 0.2000000 0.3207100
v -0.0707100 0.3000000 0.3207100
v -0.0923900 0.3000000 0.2882700
v -0.0707100 0.2000000 0.3207100
v -0.0382700 0.2000000 0.3423900
v -0.0382700 0.3000000 0.3423900
v -0.0707100 0.3000000 0.3207100
v -0.0382700 0.2000000 0.3423900
v 0.0000000 0.2000000 0.3500000
v 0.0000000 0.3000000 0.3500000
v -0.0382700 0.3000000 0.3423900
v 0.0000000 0.2000000 0.3500000
v 0.0382700 0.2000000 0.3423900
v 0.0382700 0.3000000 0.3423900
v 0.0000000 0.3000000 0.3500000
v 0.0382700 0.2000000 0.3423900
v 0.0707100 0.2000000 0.3207100
v 0.0707100 0.3000000 0.3207100
v 0.0382700 0.3000000 0.3423900
v 0.0707100 0.2000000 0.3207100
v 0.0923900 0.2000000 0.2882700
v 0.0923900 0.3000000 0.2882700
v 0.0707100 0.3000000 0.3207100
v 0.0923900 0.2000000 0.2882700
v 0.1000000 0.2000000 0.2500000
v 0.1000000 0.3000000 0.2500000
v 0.0923900 0.3000000 0.2882700
v 0.0923900 -0.0000000 -0.2882700
v 0.1000000 -0.0000000 -0.2500000
v 0.0000000 -0.0000000 -0.2500000
v 0.0707100 -0.0000000 -0.3207100
v 0.0923900 -0.0000000 -0.2882700
v 0.0000000 -0.0000000 -0.2500000
v 0.0382700 -0.0000000 -0.3423900
v 0.0707100 -0.0000000 -0.3207100
v 0.0000000 -0.0000000 -0.2500000
v 0.0000000 -0.0000000 -0.3500000
v 0.0382700 -0.0000000 -0.3423900
v 0.0000000 -0.0000000 -0.2500000
v -0.0382700 -0.0000000 -0.3423900
v 0.0000000 -0.0000000 -0.3500000
v 0.0000000 -0.0000000 -0.2500000
v -0.0707100 -0.0000000 -0.3207100
v -0.0382700 -0.0000000 -0.3423900
v 0.0000000 -0.0000000 -0.2500000
v -0.0923900 -0.0000000 -0.2882700
v -0.0707100 -0.0000000 -0.3207100
v 0.0000000 -0.0000000 -0.2500000
v -0.1000000 -0.0000000 -0.2500000
v -0.0923900 -0.0000000 -0.2882700
v 0.0000000 -0.0000000 -0.2500000
v -0.0923900 -0.0000000 -0.2117300
v -0.1000000 -0.0000000 -0.2500000
v 0.0000000 -0.0000000 -0.2500000
v -0.0707100 -0.0000000 -0.1792900
v -0.0923900 -0.0000000 -0.2117300
v 0.0000000 -0.0000000 -0.2500000
v -0.0382700 -0.0000000 -0.1576100
v -0.0707100 -0.0000000 -0.1792900
v 0.0000000 -0.0000000 -0.2500000
v 0.0000000 -0.0000000 -0.1500000
v -0.0382700 -0.0000000 -0.1576100
v 0.0000000 -0.0000000 -0.2500000
v 0.0382700 -0.0000000 -0.1576100
v 0.0000000 -0.0000000 -0.1500000
v 0.0000000 -0.0000000 -0.2500000
v 0.0707100 -0.0000000 -0.1792900
v 0.0382700 -0.0000000 -0.1576100
v 0.0000000 -0.0000000 -0.2500000
v 0.0923900 -0.0000000 -0.2117300
v 0.0707100 -0.0000000 -0.1792900
v 0.0000000 -0.0000000 -0.2500000
v 0.1000000 -0.0000000 -0.2500000
v 0.0923900 -0.0000000 -0.2117300
v 0.0000000 -0.0000000 -0.2500000
v 0.1000000 -0.0000000 -0.2500000
v 0.0923900 -0.0000000 -0.2882700
v 0.0923900 0.1000000 -0.2882700
v 0.1000000 0.1000000 -0.2500000
v 0.0923900 -0.0000000 -0.2882700
v 0.0707100 -0.0000000 -0.3207100
v 0.0707100 0.1000000 -0.3207100
v 0.0923900 0.1000000 -0.2882700
v 0.0707100 -0.0000000 -0.3207100
v 0.0382700 -0.0000000 -0.3423900
v 0.0382700 0.1000000 -0.3423900
v 0.0707100 0.1000000 -0.3207100
v 0.0382700 -0.0000000 -0.3423900
v 0.0000000 -0.0000000 -0.3500000
v 0.0000000 0.1000000 -0.3500000
v 0.0382700 0.1000000 -0.3423900
v 0.0000000 -0.0000000 -0.3500000
v -0.0382700 -0.0000000 -0.3423900
v -0.0382700 0.1000000 -0.3423900
v 0.0000000 0.1000000 -0.3500000
v -0.0382700 -0.0000000 -0.3423900
v -0.0707100 -0.0000000 -0.3207100
v -0.0707100 0.1000000 -0.3207100
v -0.0382700 0.1000000 -0.3423900
v -0.0707100 -0.0000000 -0.3207100
v -0.0923900 -0.0000000 -0.2882700
v -0.0923900 0.1000000 -0.2882700
v -0.0707100 0.1000000 -0.3207100
v -0.0923900 -0.0000000 -0.2882700
v -0.1000000 -0.0000000 -0.2500000
v -0.1000000 0.1000000 -0.2500000
v -0.0923900 0.1000000 -0.2882700
v -0.1000000 -0.0000000 -0.2500000
v -0.0923900 -0.0000000 -0.2117300
v -0.0923900 0.1000000 -0.2117300
v -0.1000000 0.1000000 -0.2500000
v -0.0923900 -0.0000000 -0.2117300
v -0.0707100 -0.0000000 -0.1792900
v -0.0707100 0.1000000 -0.1792900
v -0.0923900 0.1000000 -0.2117300
v -0.0707100 -0.0000000 -0.1792900
v -0.0382700 -0.0000000 -0.1576100
v -0.0382700 0.1000000 -0.1576100
v -0.0707100 0.1000000 -0.1792900
v -0.0382700 -0.0000000 -0.1576100
v 0.0000000 -0.0000000 -0.1500000
v 0.0000000 0.1000000 -0.1500000
v -0.0382700 0.1000000 -0.1576100
v 0.0000000 -0.0000000 -0.1500000
v 0.0382700 -0.0000000 -0.1576100
v 0.0382700 0.1000000 -0.1576100
v 0.0000000 0.1000000 -0.1500000
v 0.0382700 -0.0000000 -0.1576100
v 0.0707100 -0.0000000 -0.1792900
v 0.0707100 0.1000000 -0.1792900
v 0.0382700 0.1000000 -0.1576100
v 0.0707100 -0.0000000 -0.1792900
v 0.0923900 -0.0000000 -0.2117300
v 0.0923900 0.1000000 -0.2117300
v 0.0707100 0.1000000 -0.1792900
v 0.0923900 -0.0000000 -0.2117300
v 0.1000000 -0.0000000 -0.2500000
v 0.1000000 0.1000000 -0.2500000
v 0.0923900 0.1000000 -0.2117300
v 0.0000000 0.1000000 -0.3500000
v -0.0382700 0.1000000 -0.3423900
v -0.0382700 0.1022830 -0.3423900
v -0.0382700 0.1000000 -0.3423900
v -0.0707100 0.1000000 -0.3207100
v -0.0707100 0.1087870 -0.3207100
v -0.0382700 0.1022830 -0.3423900
v -0.0707100 0.1000000 -0.3207100
v -0.0923900 0.1000000 -0.2882700
v -0.0923900 0.1185190 -0.2882700
v -0.0707100 0.1087870 -0.3207100
v -0.0923900 0.1000000 -0.2882700
v -0.1000000 0.1000000 -0.2500000
v -0.1000000 0.1300000 -0.2500000
v -0.0923900 0.1185190 -0.2882700
v -0.1000000 0.1000000 -0.2500000
v -0.0923900 0.1000000 -0.2117300
v -0.0923900 0.1414810 -0.2117300
v -0.1000000 0.1300000 -0.2500000
v -0.0923900 0.1000000 -0.2117300
v -0.0707100 0.1000000 -0.1792900
v -0.0707100 0.1512130 -0.1792900
v -0.0923900 0.1414810 -0.2117300
v -0.0707100 0.1000000 -0.1792900
v -0.0382700 0.1000000 -0.1576100
v -0.0382700 0.1577170 -0.1576100
v -0.0707100 0.1512130 -0.1792900
v -0.0382700 0.1000000 -0.1576100
v 0.0000000 0.1000000 -0.1500000
v 0.0000000 0.1600000 -0.1500000
v -0.0382700 0.1577170 -0.1576100
v 0.0000000 0.1000000 -0.1500000
v 0.0382700 0.1000000 -0.1576100
v 0.0382700 0.1577170 -0.1576100
v 0.0000000 0.1600000 -0.1500000
v 0.0382700 0.1000000 -0.1576100
v 0.0707100 0.1000000 -0.1792900
v 0.0707100 0.1512130 -0.1792900
v 0.0382700 0.1577170 -0.1576100
v 0.0707100 0.1000000 -0.1792900
v 0.0923900 0.1000000 -0.2117300
v 0.0923900 0.1414810 -0.2117300
v 0.0707100 0.1512130 -0.1792900
v 0.0923900 0.1000000 -0.2117300
v 0.1000000 0.1000000 -0.2500000
v 0.1000000 0.1300000 -0.2500000
v 0.0923900 0.1414810 -0.2117300
v 0.1000000 0.1000000 -0.2500000
v 0.0923900 0.1000000 -0.2882700
v 0.0923900 0.1185190 -0.2882700
v 0.1000000 0.1300000 -0.2500000
v 0.0923900 0.1000000 -0.2882700
v 0.0707100 0.1000000 -0.3207100
v 0.0707100 0.1087870 -0.3207100
v 0.0923900 0.1185190 -0.2882700
v 0.0707100 0.1000000 -0.3207100
v 0.0382700 0.1000000 -0.3423900
v 0.0382700 0.1022830 -0.3423900
v 0.0707100 0.1087870 -0.3207100
v 0.0000000 0.1000000 -0.3500000
v 0.0382700 0.1022830 -0.3423900
v 0.0382700 0.1000000 -0.3423900
v -0.5000000 0.2000000 0.5000000
v 0.5000000 0.2000000 0.5000000
v 0.5000000 0.4000000 0.5000000
v -0.5000000 0.4000000 0.5000000
v -0.5000000 0.2000000 0.5000000
v -0.5000000 0.2000000 0.0000000
v -0.4000000 0.2000000 0.0000000
v -0.4000000 0.2000000 0.4000000
v 0.5000000 0.2000000 0.5000000
v -0.5000000 0.2000000 0.5000000
v -0.4000000 0.2000000 0.4000000
v 0.4000000 0.2000000 0.4000000
v 0.5000000 0.2000000 0.0000000
v 0.5000000 0.2000000 0.5000000
v 0.4000000 0.2000000 0.4000000
v 0.4000000 0.2000000 0.0000000
v -0.4000000 0.3000000 0.4000000
v 0.4000000 0.3000000 0.4000000
v 0.4000000 0.2000000 0.4000000
v -0.4000000 0.2000000 0.4000000
v 0.4000000 0.3000000 0.2500000
v 0.4000000 0.3000000 0.4000000
v -0.4000000 0.3000000 0.4000000
v -0.4000000 0.3000000 0.2500000
v -0.4000000 0.2000000 0.4000000
v -0.4000000 0.2000000 0.0000000
v -0.4000000 0.2166750 0.0000000
v -0.4000000 0.2500000 0.1000000
v 0.4000000 0.3000000 0.2500000
v 0.4000000 0.2500000 0.1000000
v 0.4000000 0.2000000 0.4000000
v 0.4000000 0.3000000 0.4000000
v 0.4000000 0.2500000 0.1000000
v 0.4000000 0.2166750 0.0000000
v 0.4000000 0.2000000 0.0000000
v 0.4000000 0.2000000 0.4000000
v -0.4000000 0.3000000 0.2500000
v -0.4000000 0.3000000 0.4000000
v -0.4000000 0.2000000 0.4000000
v -0.4000000 0.2500000 0.1000000
v -0.4000000 0.2500000 0.1000000
v -0.3885850 0.2808650 0.1925950
v -0.4000000 0.3000000 0.2500000
v -0.4000000 0.2500000 0.1000000
v -0.3560650 0.2646450 0.1439350
v -0.3885850 0.2808650 0.1925950
v -0.4000000 0.2500000 0.1000000
v -0.3074050 0.2538050 0.1114150
v -0.3560650 0.2646450 0.1439350
v 0.4000000 0.3000000 0.2500000
v 0.3885850 0.2808650 0.1925950
v 0.4000000 0.2500000 0.1000000
v 0.3885850 0.2808650 0.1925950
v 0.3560650 0.2646450 0.1439350
v 0.4000000 0.2500000 0.1000000
v 0.3560650 0.2646450 0.1439350
v 0.3074050 0.2538050 0.1114150
v 0.4000000 0.2500000 0.1000000
v -0.3885850 0.2808650 0.1925950
v -0.3885850 0.3000000 0.1925950
v -0.4000000 0.3000000 0.2500000
v -0.3885850 0.2808650 0.1925950
v -0.3560650 0.2646450 0.1439350
v -0.3560650 0.3000000 0.1439350
v -0.3885850 0.3000000 0.1925950
v -0.3560650 0.2646450 0.1439350
v -0.3074050 0.2538050 0.1114150
v -0.3074050 0.3000000 0.1114150
v -0.3560650 0.3000000 0.1439350
v 0.4000000 0.3000000 0.2500000
v 0.3885850 0.3000000 0.1925950
v 0.3885850 0.2808650 0.1925950
v 0.3885850 0.3000000 0.1925950
v 0.3560650 0.3000000 0.1439350
v 0.3560650 0.2646450 0.1439350
v 0.3885850 0.2808650 0.1925950
v 0.3560650 0.3000000 0.1439350
v 0.3074050 0.3000000 0.1114150
v 0.3074050 0.2538050 0.1114150
v 0.3560650 0.2646450 0.1439350
v -0.4000000 0.3000000 0.2500000
v -0.3885850 0.3000000 0.1925950
v -0.3560650 0.3000000 0.1439350
v -0.3074050 0.3000000 0.1114150
v 0.3074050 0.3000000 0.1114150
v 0.3560650 0.3000000 0.1439350
v 0.3885850 0.3000000 0.1925950
v 0.4000000 0.3000000 0.2500000
v -0.3074050 0.2538050 0.1114150
v -0.4000000 0.2500000 0.1000000
v -0.2875000 0.2500000 0.1000000
v 0.2875000 0.2500000 0.1000000
v 0.4000000 0.2500000 0.1000000
v 0.3074050 0.2538050 0.1114150
v -0.2875000 0.2500000 0.1000000
v -0.2875000 0.3000000 0.1000000
v -0.3074050 0.3000000 0.1114150
v -0.3074050 0.2538050 0.1114150
v 0.3074050 0.2538050 0.1114150
v 0.3074050 0.3000000 0.1114150
v 0.2875000 0.3000000 0.1000000
v 0.2875000 0.2500000 0.1000000
v -0.2875000 0.3000000 0.1000000
v -0.4000000 0.3000000 0.2500000
v -0.3074050 0.3000000 0.1114150
v 0.3074050 0.3000000 0.1114150
v 0.4000000 0.3000000 0.2500000
v 0.2875000 0.3000000 0.1000000
v -0.2875000 0.2500000 0.1000000
v -0.4000000 0.2500000 0.1000000
v -0.4000000 0.2166500 0.0000000
v -0.2875000 0.2166500 0.0000000
v -0.2875000 0.2000000 0.0000000
v -0.2875000 0.2166500 0.0000000
v -0.4000000 0.2166500 0.0000000
v -0.4000000 0.2000000 0.0000000
v 0.4000000 0.2500000 0.1000000
v 0.2875000 0.2500000 0.1000000
v 0.2875000 0.2166500 0.0000000
v 0.4000000 0.2166500 0.0000000
v 0.4000000 0.2000000 0.0000000
v 0.4000000 0.2166500 0.0000000
v 0.2875000 0.2166500 0.0000000
v 0.2875000 0.2000000 0.0000000
v -0.2875000 0.2500000 0.1000000
v -0.2875000 0.2166500 0.0000000
v -0.2875000 0.2000000 0.0000000
v -0.2875000 0.2000000 0.1000000
v 0.2875000 0.2000000 0.1000000
v 0.2875000 0.2000000 0.0000000
v 0.2875000 0.2166500 0.0000000
v 0.2875000 0.2500000 0.1000000
v -0.4000000 0.3000000 0.2500000
v -0.2875000 0.3000000 0.1000000
v 0.2875000 0.3000000 0.1000000
v 0.4000000 0.3000000 0.2500000
v -0.2875000 0.3000000 0.1000000
v -0.2875000 0.2500000 0.1000000
v -0.2125000 0.2750000 0.1000000
v 0.2125000 0.2750000 0.1000000
v 0.2875000 0.2500000 0.1000000
v 0.2875000 0.3000000 0.1000000
v 0.0375000 0.2750000 0.1000000
v 0.2125000 0.2750000 0.1000000
v 0.2875000 0.3000000 0.1000000
v -0.2875000 0.3000000 0.1000000
v -0.2125000 0.2750000 0.1000000
v -0.0375000 0.2750000 0.1000000
v -0.2125000 0.2750000 0.1000000
v -0.2875000 0.2500000 0.1000000
v -0.2875000 0.2000000 0.1000000
v -0.2125000 0.2000000 0.1000000
v 0.2125000 0.2000000 0.1000000
v 0.2875000 0.2000000 0.1000000
v 0.2875000 0.2500000 0.1000000
v 0.2125000 0.2750000 0.1000000
v -0.2125000 0.2000000 0.1000000
v -0.2875000 0.2000000 0.1000000
v -0.2875000 0.2000000 0.0000000
v -0.2125000 0.2000000 0.0000000
v -0.2125000 0.2750000 0.0000000
v -0.2125000 0.2750000 0.1000000
v -0.2125000 0.2000000 0.1000000
v -0.2125000 0.2000000 0.0000000
v 0.2125000 0.2000000 0.0000000
v 0.2875000 0.2000000 0.0000000
v 0.2875000 0.2000000 0.1000000
v 0.2125000 0.2000000 0.1000000
v 0.2125000 0.2000000 0.0000000
v 0.2125000 0.2000000 0.1000000
v 0.2125000 0.2750000 0.1000000
v 0.2125000 0.2750000 0.0000000
v -0.0375000 0.2750000 0.0000000
v -0.0375000 0.2750000 0.1000000
v -0.2125000 0.2750000 0.1000000
v -0.2125000 0.2750000 0.0000000
v -0.2125000 0.2000000 0.0000000
v -0.0375000 0.2000000 0.0000000
v -0.0375000 0.2750000 0.0000000
v -0.2125000 0.2750000 0.0000000
v 0.2125000 0.2750000 0.0000000
v 0.2125000 0.2750000 0.1000000
v 0.0375000 0.2750000 0.1000000
v 0.0375000 0.2750000 0.0000000
v 0.0375000 0.2000000 0.0000000
v 0.2125000 0.2000000 0.0000000
v 0.2125000 0.2750000 0.0000000
v 0.0375000 0.2750000 0.0000000
v 0.0375000 0.2750000 0.1000000
v 0.2875000 0.3000000 0.1000000
v -0.2875000 0.3000000 0.1000000
v -0.0375000 0.2750000 0.1000000
v -0.0375000 0.2000000 0.1000000
v -0.0375000 0.2000000 0.0000000
v 0.0375000 0.2000000 0.0000000
v 0.0375000 0.2000000 0.1000000
v -0.0375000 0.2750000 0.1000000
v -0.0375000 0.2750000 0.0000000
v -0.0375000 0.2000000 0.0000000
v -0.0375000 0.2000000 0.1000000
v 0.0375000 0.2750000 0.0000000
v 0.0375000 0.2750000 0.1000000
v 0.0375000 0.2000000 0.1000000
v 0.0375000 0.2000000 0.0000000
v 0.0375000 0.2750000 0.1000000
v -0.0375000 0.2750000 0.1000000
v -0.0375000 0.2000000 0.1000000
v 0.0375000 0.2000000 0.1000000
v -0.5000000 -0.0000000 0.0000000
v -0.4000000 0.2000000 0.0000000
v -0.5000000 0.2000000 0.0000000
v -0.2875000 0.2000000 0.0000000
v -0.4000000 0.2000000 0.0000000
v -0.5000000 -0.0000000 0.0000000
v -0.2125000 0.2000000 0.0000000
v -0.2875000 0.2000000 0.0000000
v -0.5000000 -0.0000000 0.0000000
v -0.0375000 0.2000000 0.0000000
v -0.2125000 0.2000000 0.0000000
v -0.5000000 -0.0000000 0.0000000
v -0.0375000 0.2000000 0.0000000
v -0.5000000 -0.0000000 0.0000000
v 0.5000000 -0.0000000 0.0000000
v 0.0375000 0.2000000 0.0000000
v 0.2125000 0.2000000 0.0000000
v 0.0375000 0.2000000 0.0000000
v 0.5000000 -0.0000000 0.0000000
v 0.5000000 -0.0000000 0.0000000
v 0.2875000 0.2000000 0.0000000
v 0.2125000 0.2000000 0.0000000
v 0.4000000 0.2000000 0.0000000
v 0.2875000 0.2000000 0.0000000
v 0.5000000 -0.0000000 0.0000000
v 0.5000000 0.2000000 0.0000000
v 0.4000000 0.2000000 0.0000000
v 0.5000000 -0.0000000 0.0000000
v -0.4000000 -0.0000000 -0.1000000
v -0.5000000 -0.0000000 0.0000000
v -0.5000000 -0.0000000 -0.5000000
v -0.4000000 -0.0000000 -0.4000000
v 0.4000000 -0.0000000 -0.1000000
v 0.5000000 -0.0000000 0.0000000
v -0.5000000 -0.0000000 0.0000000
v -0.4000000 -0.0000000 -0.1000000
v 0.4000000 -0.0000000 -0.4000000
v 0.5000000 -0.0000000 -0.5000000
v 0.5000000 -0.0000000 0.0000000
v 0.4000000 -0.0000000 -0.1000000
v -0.4000000 -0.0000000 -0.4000000
v -0.5000000 -0.0000000 -0.5000000
v 0.5000000 -0.0000000 -0.5000000
v 0.4000000 -0.0000000 -0.4000000
v 0.4000000 0.1750000 -0.1000000
v 0.4000000 -0.0000000 -0.1000000
v -0.4000000 -0.0000000 -0.1000000
v -0.4000000 0.1750000 -0.1000000
v -0.4000000 0.1000000 -0.3500000
v -0.4000000 0.1750000 -0.1000000
v -0.4000000 -0.0000000 -0.1000000
v 0.4000000 -0.0000000 -0.1000000
v 0.4000000 0.1750000 -0.1000000
v 0.4000000 0.1000000 -0.3500000
v -0.4000000 -0.0000000 -0.4000000
v -0.4000000 0.1000000 -0.4000000
v -0.4000000 0.1000000 -0.3500000
v -0.4000000 -0.0000000 -0.1000000
v 0.4000000 -0.0000000 -0.1000000
v 0.4000000 0.1000000 -0.3500000
v 0.4000000 0.1000000 -0.4000000
v 0.4000000 -0.0000000 -0.4000000
v 0.4000000 0.1000000 -0.3500000
v 0.4000000 0.1750000 -0.1000000
v -0.4000000 0.1750000 -0.1000000
v -0.4000000 0.1000000 -0.3500000
v -0.4000000 0.1000000 -0.4000000
v 0.4000000 0.1000000 -0.4000000
v 0.4000000 0.1000000 -0.3500000
v -0.4000000 0.1000000 -0.3500000
v -0.4000000 0.1000000 -0.4000000
v -0.4000000 -0.0000000 -0.4000000
v 0.4000000 -0.0000000 -0.4000000
v 0.4000000 0.1000000 -0.4000000
v 0.5000000 0.1000000 -0.5000000
v 0.5000000 -0.0000000 -0.5000000
v -0.5000000 -0.0000000 -0.5000000
v -0.5000000 0.1000000 -0.5000000
v -0.5000000 0.2000000 0.0000000
v -0.5000000 0.2000000 0.5000000
v -0.5000000 0.4000000 0.5000000
v 0.5000000 0.4000000 0.5000000
v 0.5000000 0.2000000 0.5000000
v 0.5000000 0.2000000 0.0000000
v -0.5000000 -0.0000000 0.0000000
v -0.5000000 0.2000000 0.0000000
v -0.5000000 0.1000000 -0.5000000
v -0.5000000 -0.0000000 -0.5000000
v 0.5000000 -0.0000000 -0.5000000
v 0.5000000 0.1000000 -0.5000000
v 0.5000000 0.2000000 0.0000000
v 0.5000000 -0.0000000 0.0000000
v -0.5000000 0.2000000 0.0000000
v -0.5000000 0.4000000 0.5000000
v -0.5000000 0.1000000 -0.5000000
v 0.5000000 0.1000000 -0.5000000
v 0.5000000 0.4000000 0.5000000
v 0.5000000 0.2000000 0.0000000
v -0.5000000 0.3913100 0.3154000
v -0.5000000 0.1882894 -0.3609000
v -0.5000000 0.0999975 -0.5000000
v -0.5000000 0.4000015 0.5000000
v -0.5000000 0.3650904 0.1340000
v -0.5000000 0.2627471 -0.2071000
v -0.5000000 0.1882894 -0.3609000
v -0.5000000 0.3913100 0.3154000
v -0.5000000 0.3220671 -0.0412000
v -0.5000000 0.2627471 -0.2071000
v -0.5000000 0.3650904 0.1340000
v 0.5000000 0.4000015 0.5000000
v 0.5000000 0.0999975 -0.5000000
v 0.5000000 0.1882894 -0.3609000
v 0.5000000 0.3913100 0.3154000
v 0.5000000 0.3913100 0.3154000
v 0.5000000 0.1882894 -0.3609000
v 0.5000000 0.2627471 -0.2071000
v 0.5000000 0.3650904 0.1340000
v 0.5000000 0.3650904 0.1340000
v 0.5000000 0.2627471 -0.2071000
v 0.5000000 0.3220671 -0.0412000
v -0.5000000 0.1882894 -0.3609000
v 0.5000000 0.1882894 -0.3609000
v 0.5000000 0.0999975 -0.5000000
v -0.5000000 0.0999975 -0.5000000
v -0.5000000 0.2627471 -0.2071000
v 0.5000000 0.2627471 -0.2071000
v 0.5000000 0.1882894 -0.3609000
v -0.5000000 0.1882894 -0.3609000
v -0.5000000 0.3220671 -0.0412000
v 0.5000000 0.3220671 -0.0412000
v 0.5000000 0.2627471 -0.2071000
v -0.5000000 0.2627471 -0.2071000
v -0.5000000 0.3650904 0.1340000
v 0.5000000 0.3650904 0.1340000
v 0.5000000 0.3220671 -0.0412000
v -0.5000000 0.3220671 -0.0412000
v -0.5000000 0.3913100 0.3154000
v 0.5000000 0.3913100 0.3154000
v 0.5000000 0.3650904 0.1340000
v -0.5000000 0.3650904 0.1340000
v -0.5000000 0.4000015 0.5000000
v 0.5000000 0.4000015 0.5000000
v 0.5000000 0.3913100 0.3154000
v -0.5000000 0.3913100 0.3154000
s off
f 1 2 3
f 4 5 6
f 7 8 9
f 10 11 12
f 13 14 15
f 16 17 18
f 19 20 21
f 22 23 24
f 25 26 27
f 28 29 30
f 31 32 33
f 34 35 36
f 37 38 39
f 40 41 42
f 43 44 45
f 46 47 48
f 49 50 51
f 49 51 52
f 53 54 55
f 53 55 56
f 57 58 59
f 57 59 60
f 61 62 63
f 61 63 64
f 65 66 67
f 65 67 68
f 69 70 71
f 69 71 72
f 73 74 75
f 73 75 76
f 77 78 79
f 77 79 80
f 81 82 83
f 81 83 84
f 85 86 87
f 85 87 88
f 89 90 91
f 89 91 92
f 93 94 95
f 93 95 96
f 97 98 99
f 97 99 100
f 101 102 103
f 101 103 104
f 105 106 107
f 105 107 108
f 109 110 111
f 109 111 112
f 113 114 115
f 116 117 118
f 119 120 121
f 122 123 124
f 125 126 127
f 128 129 130
f 131 132 133
f 134 135 136
f 137 138 139
f 140 141 142
f 143 144 145
f 146 147 148
f 149 150 151
f 152 153 154
f 155 156 157
f 158 159 160
f 161 162 163
f 161 163 164
f 165 166 167
f 165 167 168
f 169 170 171
f 169 171 172
f 173 174 175
f 173 175 176
f 177 178 179
f 177 179 180
f 181 182 183
f 181 183 184
f 185 186 187
f 185 187 188
f 189 190 191
f 189 191 192
f 193 194 195
f 193 195 196
f 197 198 199
f 197 199 200
f 201 202 203
f 201 203 204
f 205 206 207
f 205 207 208
f 209 210 211
f 209 211 212
f 213 214 215
f 213 215 216
f 217 218 219
f 217 219 220
f 221 222 223
f 221 223 224
f 225 226 227
f 228 229 230
f 228 230 231
f 232 233 234
f 232 234 235
f 236 237 238
f 236 238 239
f 240 241 242
f 240 242 243
f 244 245 246
f 244 246 247
f 248 249 250
f 248 250 251
f 252 253 254
f 252 254 255
f 256 257 258
f 256 258 259
f 260 261 262
f 260 262 263
f 264 265 266
f 264 266 267
f 268 269 270
f 268 270 271
f 272 273 274
f 272 274 275
f 276 277 278
f 276 278 279
f 280 281 282
f 280 282 283
f 284 285 286
f 287 288 289
f 287 289 290
f 291 292 293
f 291 293 294
f 295 296 297
f 295 297 298
f 299 300 301
f 299 301 302
f 303 304 305
f 303 305 306
f 307 308 309
f 307 309 310
f 311 312 313
f 311 313 314
f 315 316 317
f 315 317 318
f 319 320 321
f 319 321 322
f 323 324 325
f 323 325 326
f 327 328 329
f 330 331 332
f 333 334 335
f 336 337 338
f 339 340 341
f 342 343 344
f 345 346 347
f 348 349 350
f 348 350 351
f 352 353 354
f 352 354 355
f 356 357 358
f 359 360 361
f 359 361 362
f 363 364 365
f 363 365 366
f 367 368 369
f 367 369 370
f 371 372 373
f 371 373 374
f 375 376 377
f 378 379 380
f 381 382 383
f 381 383 384
f 385 386 387
f 385 387 388
f 389 390 391
f 392 393 394
f 395 396 397
f 395 397 398
f 399 400 401
f 399 401 402
f 403 404 405
f 403 405 406
f 407 408 409
f 407 409 410
f 411 412 413
f 411 413 414
f 415 416 417
f 415 417 418
f 419 420 421
f 419 421 422
f 423 424 425
f 426 427 428
f 429 430 431
f 432 433 434
f 435 436 437
f 435 437 438
f 439 440 441
f 439 441 442
f 443 444 445
f 443 445 446
f 447 448 449
f 447 449 450
f 451 452 453
f 451 453 454
f 455 456 457
f 455 457 458
f 459 460 461
f 459 461 462
f 463 464 465
f 463 465 466
f 467 468 469
f 467 469 470
f 471 472 473
f 471 473 474
f 475 476 477
f 475 477 478
f 479 480 481
f 479 481 482
f 483 484 485
f 483 485 486
f 487 488 489
f 487 489 490
f 491 492 493
f 491 493 494
f 495 496 497
f 498 499 500
f 501 502 503
f 504 505 506
f 507 508 509
f 507 509 510
f 511 512 513
f 514 515 516
f 517 518 519
f 520 521 522
f 523 524 525
f 523 525 526
f 527 528 529
f 527 529 530
f 531 532 533
f 531 533 534
f 535 536 537
f 535 537 538
f 539 540 541
f 539 541 542
f 543 544 545
f 546 547 548
f 549 550 551
f 549 551 552
f 553 554 555
f 553 555 556
f 557 558 559
f 557 559 560
f 561 562 563
f 561 563 564
f 565 566 567
f 565 567 568
f 569 570 571
f 569 571 572
f 573 574 575
f 576 577 578
f 579 580 581
f 579 581 582
f 583 584 585
f 583 585 586
f 587 588 589
f 590 591 592
f 593 594 595
f 593 595 596
f 597 598 599
f 597 599 600
f 601 602 603
f 604 605 606
f 604 606 607
f 608 609 610
f 608 610 611
f 612 613 614
f 615 616 617
f 615 617 618
f 619 620 621
f 619 621 622
f 623 624 625
f 623 625 626
f 627 628 629
f 627 629 630
f 631 632 633
f 631 633 634
f 635 636 637
f 635 637 638
