# Baked from official LDraw part 18863.dat
o ldraw_18863
v 0.2250000 -0.0000000 0.4750000
v -0.2250000 -0.0000000 0.4750000
v -0.1500000 -0.0000000 0.4000000
v 0.1500000 -0.0000000 0.4000000
v -0.2250000 -0.0000000 -0.4750000
v 0.2250000 -0.0000000 -0.4750000
v 0.1500000 -0.0000000 -0.4000000
v -0.1500000 -0.0000000 -0.4000000
v 0.2250000 -0.0000000 -0.4750000
v 0.2250000 -0.0000000 0.4750000
v 0.1500000 -0.0000000 0.4000000
v 0.1500000 -0.0000000 -0.4000000
v -0.2250000 -0.0000000 0.4750000
v -0.2250000 -0.0000000 -0.4750000
v -0.1500000 -0.0000000 -0.4000000
v -0.1500000 -0.0000000 0.4000000
v -0.2250000 -0.0000000 0.4750000
v -0.2250000 0.0250000 0.4750000
v -0.2250000 0.0250000 -0.4750000
v -0.2250000 -0.0000000 -0.4750000
v -0.2250000 -0.0000000 -0.4750000
v -0.2250000 0.0250000 -0.4750000
v 0.2250000 0.0250000 -0.4750000
v 0.2250000 -0.0000000 -0.4750000
v 0.2250000 -0.0000000 -0.4750000
v 0.2250000 0.0250000 -0.4750000
v 0.2250000 0.0250000 0.4750000
v 0.2250000 -0.0000000 0.4750000
v 0.2250000 -0.0000000 0.4750000
v 0.2250000 0.0250000 0.4750000
v -0.2250000 0.0250000 0.4750000
v -0.2250000 -0.0000000 0.4750000
v 0.2500000 0.0250000 0.5000000
v -0.2500000 0.0250000 0.5000000
v -0.2250000 0.0250000 0.4750000
v 0.2250000 0.0250000 0.4750000
v -0.2500000 0.0250000 -0.5000000
v 0.2500000 0.0250000 -0.5000000
v 0.2250000 0.0250000 -0.4750000
v -0.2250000 0.0250000 -0.4750000
v 0.2500000 0.0250000 -0.5000000
v 0.2500000 0.0250000 0.5000000
v 0.2250000 0.0250000 0.4750000
v 0.2250000 0.0250000 -0.4750000
v -0.2500000 0.0250000 0.5000000
v -0.2500000 0.0250000 -0.5000000
v -0.2250000 0.0250000 -0.4750000
v -0.2250000 0.0250000 0.4750000
v 0.1500000 0.1547250 -0.2531250
v 0.1500000 0.1856000 -0.3531250
v 0.1500000 0.1312500 -0.3531250
v 0.1500000 0.1312500 -0.2531250
v 0.1500000 0.1547250 -0.2531250
v 0.1500000 0.2281250 -0.2012000
v 0.1500000 0.1856000 -0.3531250
v 0.1500000 -0.0000000 0.4000000
v 0.1500000 0.1312500 -0.2531250
v 0.1500000 0.1312500 -0.3531250
v 0.1500000 -0.0000000 -0.4000000
v 0.1500000 0.1312500 -0.4000000
v 0.1500000 -0.0000000 -0.4000000
v 0.1500000 0.1312500 -0.3531250
v 0.1500000 0.1312500 -0.2531250
v 0.1500000 -0.0000000 0.4000000
v 0.1500000 0.1312500 -0.1531250
v 0.1500000 0.1312500 -0.1531250
v 0.1500000 -0.0000000 0.4000000
v 0.1500000 0.1485250 -0.0531250
v 0.1500000 0.1485250 -0.0531250
v 0.1500000 -0.0000000 0.4000000
v 0.1500000 0.1765250 0.0468750
v 0.1500000 0.1765250 0.0468750
v 0.1500000 -0.0000000 0.4000000
v 0.1500000 0.2045250 0.1468750
v 0.1500000 0.1765250 0.0468750
v 0.1500000 0.2045250 0.1468750
v 0.1500000 0.2664250 0.1468750
v 0.1500000 0.2976000 0.0468750
v 0.1500000 0.2664250 0.1468750
v 0.1500000 0.3402250 0.1991000
v 0.1500000 0.2976000 0.0468750
v 0.1500000 0.2045250 0.1468750
v 0.1500000 -0.0000000 0.4000000
v 0.1500000 0.2325250 0.2468750
v 0.1500000 -0.0000000 0.4000000
v 0.1500000 0.2605250 0.3468750
v 0.1500000 0.2325250 0.2468750
v 0.1500000 0.2325250 0.2468750
v 0.1500000 0.2605250 0.3468750
v 0.1500000 0.3222500 0.3468750
v 0.1500000 0.3536000 0.2468750
v 0.1500000 0.3222500 0.3468750
v 0.1500000 0.3962500 0.3992500
v 0.1500000 0.3536000 0.2468750
v 0.1500000 -0.0000000 0.4000000
v 0.1500000 0.2757750 0.4000000
v 0.1500000 0.2605250 0.3468750
v 0.1500000 0.1312500 -0.1531250
v 0.1500000 0.1485250 -0.0531250
v 0.1500000 0.2105750 -0.0531250
v 0.1500000 0.2416000 -0.1531250
v 0.1500000 0.2841750 -0.0010500
v 0.1500000 0.2416000 -0.1531250
v 0.1500000 0.2105750 -0.0531250
v -0.1500000 0.1547250 -0.2531250
v -0.1500000 0.1312500 -0.2531250
v -0.1500000 0.1312500 -0.3531250
v -0.1500000 0.1856000 -0.3531250
v -0.1500000 0.1547250 -0.2531250
v -0.1500000 0.1856000 -0.3531250
v -0.1500000 0.2281250 -0.2012000
v -0.1500000 -0.0000000 0.4000000
v -0.1500000 -0.0000000 -0.4000000
v -0.1500000 0.1312500 -0.3531250
v -0.1500000 0.1312500 -0.2531250
v -0.1500000 0.1312500 -0.4000000
v -0.1500000 0.1312500 -0.3531250
v -0.1500000 -0.0000000 -0.4000000
v -0.1500000 0.1312500 -0.2531250
v -0.1500000 0.1312500 -0.1531250
v -0.1500000 -0.0000000 0.4000000
v -0.1500000 0.1312500 -0.1531250
v -0.1500000 0.1485250 -0.0531250
v -0.1500000 -0.0000000 0.4000000
v -0.1500000 0.1485250 -0.0531250
v -0.1500000 0.1765250 0.0468750
v -0.1500000 -0.0000000 0.4000000
v -0.1500000 0.1765250 0.0468750
v -0.1500000 0.2045250 0.1468750
v -0.1500000 -0.0000000 0.4000000
v -0.1500000 0.1765250 0.0468750
v -0.1500000 0.2976000 0.0468750
v -0.1500000 0.2664250 0.1468750
v -0.1500000 0.2045250 0.1468750
v -0.1500000 0.2664250 0.1468750
v -0.1500000 0.2976000 0.0468750
v -0.1500000 0.3402250 0.1991000
v -0.1500000 0.2045250 0.1468750
v -0.1500000 0.2325250 0.2468750
v -0.1500000 -0.0000000 0.4000000
v -0.1500000 -0.0000000 0.4000000
v -0.1500000 0.2325250 0.2468750
v -0.1500000 0.2605250 0.3468750
v -0.1500000 0.2325250 0.2468750
v -0.1500000 0.3536000 0.2468750
v -0.1500000 0.3222500 0.3468750
v -0.1500000 0.2605250 0.3468750
v -0.1500000 0.3222500 0.3468750
v -0.1500000 0.3536000 0.2468750
v -0.1500000 0.3962500 0.3992500
v -0.1500000 -0.0000000 0.4000000
v -0.1500000 0.2605250 0.3468750
v -0.1500000 0.2757750 0.4000000
v -0.1500000 0.1312500 -0.1531250
v -0.1500000 0.2416000 -0.1531250
v -0.1500000 0.2105750 -0.0531250
v -0.1500000 0.1485250 -0.0531250
v -0.1500000 0.2841750 -0.0010500
v -0.1500000 0.2105750 -0.0531250
v -0.1500000 0.2416000 -0.1531250
v 0.1500000 -0.0000000 -0.4000000
v 0.1500000 0.1312500 -0.4000000
v -0.1500000 0.1312500 -0.4000000
v -0.1500000 -0.0000000 -0.4000000
v 0.1500000 0.1312500 -0.4000000
v 0.1500000 0.1312500 -0.3531250
v -0.1500000 0.1312500 -0.3531250
v -0.1500000 0.1312500 -0.4000000
v -0.1500000 0.1856000 -0.3531250
v -0.1500000 0.1312500 -0.3531250
v 0.1500000 0.1312500 -0.3531250
v 0.1500000 0.1856000 -0.3531250
v 0.1500000 0.1312500 -0.1531250
v 0.1500000 0.2416000 -0.1531250
v -0.1500000 0.2416000 -0.1531250
v -0.1500000 0.1312500 -0.1531250
v -0.1500000 0.1312500 -0.2531250
v 0.1500000 0.1312500 -0.2531250
v 0.1500000 0.1312500 -0.1531250
v -0.1500000 0.1312500 -0.1531250
v -0.1500000 0.1312500 -0.2531250
v -0.1500000 0.1547250 -0.2531250
v 0.1500000 0.1547250 -0.2531250
v 0.1500000 0.1312500 -0.2531250
v -0.1500000 0.2281250 -0.2012000
v 0.1500000 0.2281250 -0.2012000
v 0.1500000 0.1547250 -0.2531250
v -0.1500000 0.1547250 -0.2531250
v 0.1500000 0.2416000 -0.1531250
v 0.1500000 0.2281250 -0.2012000
v -0.1500000 0.2281250 -0.2012000
v -0.1500000 0.2416000 -0.1531250
v -0.1500000 0.1765250 0.0468750
v 0.1500000 0.1765250 0.0468750
v 0.1500000 0.2976000 0.0468750
v -0.1500000 0.2976000 0.0468750
v 0.1500000 0.1485250 -0.0531250
v 0.1500000 0.1765250 0.0468750
v -0.1500000 0.1765250 0.0468750
v -0.1500000 0.1485250 -0.0531250
v -0.1500000 0.2105750 -0.0531250
v 0.1500000 0.2105750 -0.0531250
v 0.1500000 0.1485250 -0.0531250
v -0.1500000 0.1485250 -0.0531250
v -0.1500000 0.2105750 -0.0531250
v -0.1500000 0.2841750 -0.0010500
v 0.1500000 0.2841750 -0.0010500
v 0.1500000 0.2105750 -0.0531250
v -0.1500000 0.2841750 -0.0010500
v -0.1500000 0.2976000 0.0468750
v 0.1500000 0.2976000 0.0468750
v 0.1500000 0.2841750 -0.0010500
v -0.1500000 0.2325250 0.2468750
v 0.1500000 0.2325250 0.2468750
v 0.1500000 0.3536000 0.2468750
v -0.1500000 0.3536000 0.2468750
v 0.1500000 0.2045250 0.1468750
v 0.1500000 0.2325250 0.2468750
v -0.1500000 0.2325250 0.2468750
v -0.1500000 0.2045250 0.1468750
v -0.1500000 0.2664250 0.1468750
v 0.1500000 0.2664250 0.1468750
v 0.1500000 0.2045250 0.1468750
v -0.1500000 0.2045250 0.1468750
v -0.1500000 0.2664250 0.1468750
v -0.1500000 0.3402250 0.1991000
v 0.1500000 0.3402250 0.1991000
v 0.1500000 0.2664250 0.1468750
v 0.1500000 0.3536000 0.2468750
v 0.1500000 0.3402250 0.1991000
v -0.1500000 0.3402250 0.1991000
v -0.1500000 0.3536000 0.2468750
v -0.1500000 0.2605250 0.3468750
v 0.1500000 0.2605250 0.3468750
v 0.1500000 0.2757750 0.4000000
v -0.1500000 0.2757750 0.4000000
v -0.1500000 0.3222500 0.3468750
v 0.1500000 0.3222500 0.3468750
v 0.1500000 0.2605250 0.3468750
v -0.1500000 0.2605250 0.3468750
v 0.1500000 0.3962500 0.3992500
v 0.1500000 0.3222500 0.3468750
v -0.1500000 0.3222500 0.3468750
v -0.1500000 0.3962500 0.3992500
v -0.1500000 -0.0000000 0.4000000
v -0.1500000 0.2757750 0.4000000
v 0.1500000 0.2757750 0.4000000
v 0.1500000 -0.0000000 0.4000000
v 0.1840250 0.1607500 -0.4418500
v 0.1500000 0.1856000 -0.3531250
v 0.1500000 0.2281250 -0.2012000
v 0.1840250 0.4053500 0.4317500
v 0.1840250 0.1607500 -0.4418500
v 0.1500000 0.2841750 -0.0010500
v 0.1500000 0.2976000 0.0468750
v 0.1840250 0.1607500 -0.4418500
v 0.1500000 0.2281250 -0.2012000
v 0.1500000 0.2416000 -0.1531250
v 0.1840250 0.1607500 -0.4418500
v 0.1500000 0.2416000 -0.1531250
v 0.1500000 0.2841750 -0.0010500
v 0.1500000 0.2976000 0.0468750
v 0.1500000 0.3402250 0.1991000
v 0.1840250 0.4053500 0.4317500
v 0.1500000 0.3402250 0.1991000
v 0.1500000 0.3536000 0.2468750
v 0.1840250 0.4053500 0.4317500
v 0.1840250 0.4053500 0.4317500
v 0.1500000 0.3536000 0.2468750
v 0.1500000 0.3962500 0.3992500
v -0.1500000 0.2281250 -0.2012000
v -0.1500000 0.1856000 -0.3531250
v -0.1840250 0.1607500 -0.4418500
v -0.1500000 0.2416000 -0.1531250
v -0.1500000 0.2281250 -0.2012000
v -0.1840250 0.1607500 -0.4418500
v -0.1500000 0.2841750 -0.0010500
v -0.1500000 0.2416000 -0.1531250
v -0.1840250 0.1607500 -0.4418500
v -0.1840250 0.4053500 0.4317500
v -0.1500000 0.2976000 0.0468750
v -0.1500000 0.2841750 -0.0010500
v -0.1840250 0.1607500 -0.4418500
v -0.1500000 0.2976000 0.0468750
v -0.1840250 0.4053500 0.4317500
v -0.1500000 0.3402250 0.1991000
v -0.1500000 0.3402250 0.1991000
v -0.1840250 0.4053500 0.4317500
v -0.1500000 0.3536000 0.2468750
v -0.1840250 0.4053500 0.4317500
v -0.1500000 0.3962500 0.3992500
v -0.1500000 0.3536000 0.2468750
v 0.1500000 0.1856000 -0.3531250
v 0.1840250 0.1607500 -0.4418500
v -0.1840250 0.1607500 -0.4418500
v -0.1500000 0.1856000 -0.3531250
v -0.1500000 0.3962500 0.3992500
v -0.1840250 0.4053500 0.4317500
v 0.1840250 0.4053500 0.4317500
v 0.1500000 0.3962500 0.3992500
v 0.2027750 0.3923050 0.4548500
v 0.2027750 0.1376500 -0.4548500
v 0.1840250 0.1607500 -0.4418500
v 0.1840250 0.4053500 0.4317500
v 0.1840250 0.1607500 -0.4418500
v 0.2027750 0.1376500 -0.4548500
v -0.2027750 0.1376500 -0.4548500
v -0.1840250 0.1607500 -0.4418500
v -0.1840250 0.1607500 -0.4418500
v -0.2027750 0.1376500 -0.4548500
v -0.2027750 0.3923050 0.4548500
v -0.1840250 0.4053500 0.4317500
v -0.1840250 0.4053500 0.4317500
v -0.2027750 0.3923050 0.4548500
v 0.2027750 0.3923050 0.4548500
v 0.1840250 0.4053500 0.4317500
v 0.1875000 0.4050000 0.5000000
v 0.2114187 0.3998633 0.4816732
v 0.2316938 0.3852293 0.4294624
v 0.2316938 0.3852293 0.4294624
v 0.2452438 0.3633323 0.3513387
v 0.2500000 0.3375000 0.2591750
v 0.1875000 0.4050000 0.5000000
v 0.2114187 0.3998633 0.5000000
v 0.2114187 0.3998633 0.4816732
v 0.2114187 0.3998633 0.5000000
v 0.2316938 0.3852293 0.5000000
v 0.2316938 0.3852293 0.4294624
v 0.2114187 0.3998633 0.4816732
v 0.2316938 0.3852293 0.5000000
v 0.2452438 0.3633323 0.5000000
v 0.2452438 0.3633323 0.3513387
v 0.2316938 0.3852293 0.4294624
v 0.2452438 0.3633323 0.5000000
v 0.2500000 0.3375000 0.5000000
v 0.2500000 0.3375000 0.2591750
v 0.2452438 0.3633323 0.3513387
v 0.1875000 0.4050000 0.5000000
v 0.2500000 0.3375000 0.5000000
v 0.2452438 0.3633323 0.5000000
v 0.2114187 0.3998633 0.5000000
v 0.2114187 0.3998633 0.5000000
v 0.2452438 0.3633323 0.5000000
v 0.2316938 0.3852293 0.5000000
v 0.2027750 0.3923050 0.4548500
v 0.2500000 0.3375000 0.2591750
v 0.2500000 0.1250000 -0.5000000
v 0.2027750 0.1376500 -0.4548500
v 0.2027750 0.3923050 0.4548500
v 0.2316938 0.3852293 0.4294624
v 0.2500000 0.3375000 0.2591750
v 0.1875000 0.4050000 0.5000000
v 0.2316938 0.3852293 0.4294624
v 0.2027750 0.3923050 0.4548500
v -0.2316938 0.3852293 0.4294624
v -0.2114187 0.3998633 0.4816732
v -0.1875000 0.4050000 0.5000000
v -0.2500000 0.3375000 0.2591750
v -0.2452438 0.3633323 0.3513387
v -0.2316938 0.3852293 0.4294624
v -0.2114187 0.3998633 0.4816732
v -0.2114187 0.3998633 0.5000000
v -0.1875000 0.4050000 0.5000000
v -0.2114187 0.3998633 0.4816732
v -0.2316938 0.3852293 0.4294624
v -0.2316938 0.3852293 0.5000000
v -0.2114187 0.3998633 0.5000000
v -0.2316938 0.3852293 0.4294624
v -0.2452438 0.3633323 0.3513387
v -0.2452438 0.3633323 0.5000000
v -0.2316938 0.3852293 0.5000000
v -0.2452438 0.3633323 0.3513387
v -0.2500000 0.3375000 0.2591750
v -0.2500000 0.3375000 0.5000000
v -0.2452438 0.3633323 0.5000000
v -0.2114187 0.3998633 0.5000000
v -0.2452438 0.3633323 0.5000000
v -0.2500000 0.3375000 0.5000000
v -0.1875000 0.4050000 0.5000000
v -0.2316938 0.3852293 0.5000000
v -0.2452438 0.3633323 0.5000000
v -0.2114187 0.3998633 0.5000000
v -0.2027750 0.3923050 0.4548500
v -0.2027750 0.1376500 -0.4548500
v -0.2500000 0.1250000 -0.5000000
v -0.2500000 0.3375000 0.2591750
v -0.2027750 0.3923050 0.4548500
v -0.2500000 0.3375000 0.2591750
v -0.2316938 0.3852293 0.4294624
v -0.1875000 0.4050000 0.5000000
v -0.2027750 0.3923050 0.4548500
v -0.2316938 0.3852293 0.4294624
v 0.2500000 0.1250000 -0.5000000
v -0.2500000 0.1250000 -0.5000000
v -0.2027750 0.1376500 -0.4548500
v 0.2027750 0.1376500 -0.4548500
v -0.2027750 0.3923050 0.4548500
v -0.1875000 0.4050000 0.5000000
v 0.1875000 0.4050000 0.5000000
v 0.2027750 0.3923050 0.4548500
v 0.2500000 0.1250000 -0.5000000
v 0.2500000 0.0250000 -0.5000000
v -0.2500000 0.0250000 -0.5000000
v -0.2500000 0.1250000 -0.5000000
v -0.2500000 0.1250000 -0.5000000
v -0.2500000 0.0250000 0.5000000
v -0.2500000 0.3375000 0.5000000
v -0.2500000 0.3375000 0.2591750
v -0.2500000 0.0250000 0.5000000
v -0.2500000 0.1250000 -0.5000000
v -0.2500000 0.0250000 -0.5000000
v 0.2500000 0.0250000 0.5000000
v 0.2500000 0.0250000 -0.5000000
v 0.2500000 0.1250000 -0.5000000
v 0.2500000 0.3375000 0.5000000
v 0.2500000 0.0250000 0.5000000
v 0.2500000 0.1250000 -0.5000000
v 0.2500000 0.3375000 0.2591750
v -0.2500000 0.3375000 0.5000000
v -0.2500000 0.0250000 0.5000000
v 0.2500000 0.0250000 0.5000000
v 0.2500000 0.3375000 0.5000000
v 0.1875000 0.4050000 0.5000000
v -0.1875000 0.4050000 0.5000000
v -0.2500000 0.3375000 0.5000000
v 0.2500000 0.3375000 0.5000000
s off
f 1 2 3
f 1 3 4
f 5 6 7
f 5 7 8
f 9 10 11
f 9 11 12
f 13 14 15
f 13 15 16
f 17 18 19
f 17 19 20
f 21 22 23
f 21 23 24
f 25 26 27
f 25 27 28
f 29 30 31
f 29 31 32
f 33 34 35
f 33 35 36
f 37 38 39
f 37 39 40
f 41 42 43
f 41 43 44
f 45 46 47
f 45 47 48
f 49 50 51
f 49 51 52
f 53 54 55
f 56 57 58
f 56 58 59
f 60 61 62
f 63 64 65
f 66 67 68
f 69 70 71
f 72 73 74
f 75 76 77
f 75 77 78
f 79 80 81
f 82 83 84
f 85 86 87
f 88 89 90
f 88 90 91
f 92 93 94
f 95 96 97
f 98 99 100
f 98 100 101
f 102 103 104
f 105 106 107
f 105 107 108
f 109 110 111
f 112 113 114
f 112 114 115
f 116 117 118
f 119 120 121
f 122 123 124
f 125 126 127
f 128 129 130
f 131 132 133
f 131 133 134
f 135 136 137
f 138 139 140
f 141 142 143
f 144 145 146
f 144 146 147
f 148 149 150
f 151 152 153
f 154 155 156
f 154 156 157
f 158 159 160
f 161 162 163
f 161 163 164
f 165 166 167
f 165 167 168
f 169 170 171
f 169 171 172
f 173 174 175
f 173 175 176
f 177 178 179
f 177 179 180
f 181 182 183
f 181 183 184
f 185 186 187
f 185 187 188
f 189 190 191
f 189 191 192
f 193 194 195
f 193 195 196
f 197 198 199
f 197 199 200
f 201 202 203
f 201 203 204
f 205 206 207
f 205 207 208
f 209 210 211
f 209 211 212
f 213 214 215
f 213 215 216
f 217 218 219
f 217 219 220
f 221 222 223
f 221 223 224
f 225 226 227
f 225 227 228
f 229 230 231
f 229 231 232
f 233 234 235
f 233 235 236
f 237 238 239
f 237 239 240
f 241 242 243
f 241 243 244
f 245 246 247
f 245 247 248
f 249 250 251
f 252 253 254
f 252 254 255
f 256 257 258
f 259 260 261
f 262 263 264
f 265 266 267
f 268 269 270
f 271 272 273
f 274 275 276
f 277 278 279
f 280 281 282
f 280 282 283
f 284 285 286
f 287 288 289
f 290 291 292
f 293 294 295
f 293 295 296
f 297 298 299
f 297 299 300
f 301 302 303
f 301 303 304
f 305 306 307
f 305 307 308
f 309 310 311
f 309 311 312
f 313 314 315
f 313 315 316
f 317 318 319
f 320 321 322
f 323 324 325
f 326 327 328
f 326 328 329
f 330 331 332
f 330 332 333
f 334 335 336
f 334 336 337
f 338 339 340
f 338 340 341
f 342 343 344
f 345 346 347
f 345 347 348
f 349 350 351
f 352 353 354
f 355 356 357
f 358 359 360
f 361 362 363
f 364 365 366
f 364 366 367
f 368 369 370
f 368 370 371
f 372 373 374
f 372 374 375
f 376 377 378
f 376 378 379
f 380 381 382
f 383 384 385
f 383 385 386
f 387 388 389
f 390 391 392
f 393 394 395
f 393 395 396
f 397 398 399
f 397 399 400
f 401 402 403
f 401 403 404
f 405 406 407
f 405 407 408
f 409 410 411
f 412 413 414
f 415 416 417
f 415 417 418
f 419 420 421
f 419 421 422
f 423 424 425
f 423 425 426
