# Baked from official LDraw part 22886.dat
o ldraw_22886
v -0.4000000 -0.1000000 -0.1500000
v -0.4000000 -0.1000000 0.1500000
v -0.4000000 -1.8000000 0.1500000
v -0.4000000 -1.8000000 -0.1500000
v -0.4000000 -0.1000000 0.1500000
v -0.1625000 -0.1000000 0.1500000
v -0.1625000 -1.8000000 0.1500000
v -0.4000000 -1.8000000 0.1500000
v -0.4000000 -1.8000000 -0.1500000
v -0.1625000 -1.8000000 -0.1500000
v -0.1625000 -0.1000000 -0.1500000
v -0.4000000 -0.1000000 -0.1500000
v -0.1625000 -1.8000000 0.1500000
v -0.1625000 -1.8000000 0.1250000
v -0.0875000 -1.8000000 0.1250000
v -0.0875000 -1.8000000 0.1500000
v -0.1625000 -0.1000000 0.1500000
v -0.1625000 -0.1000000 0.1250000
v -0.1625000 -1.8000000 0.1250000
v -0.1625000 -1.8000000 0.1500000
v -0.0875000 -0.1000000 0.1250000
v -0.0875000 -0.1000000 0.1500000
v -0.0875000 -1.8000000 0.1500000
v -0.0875000 -1.8000000 0.1250000
v -0.1625000 -1.8000000 0.1250000
v -0.1250000 -1.8000000 0.0875000
v -0.0875000 -1.8000000 0.1250000
v -0.1250000 -0.1000000 0.0875000
v -0.0875000 -0.1000000 0.1250000
v -0.0875000 -1.8000000 0.1250000
v -0.1250000 -1.8000000 0.0875000
v -0.1625000 -1.8000000 0.1250000
v -0.1625000 -0.1000000 0.1250000
v -0.1250000 -0.1000000 0.0875000
v -0.1250000 -1.8000000 0.0875000
v -0.0875000 -1.8000000 -0.1500000
v -0.0875000 -1.8000000 -0.1250000
v -0.1625000 -1.8000000 -0.1250000
v -0.1625000 -1.8000000 -0.1500000
v -0.0875000 -0.1000000 -0.1500000
v -0.0875000 -0.1000000 -0.1250000
v -0.0875000 -1.8000000 -0.1250000
v -0.0875000 -1.8000000 -0.1500000
v -0.1625000 -0.1000000 -0.1250000
v -0.1625000 -0.1000000 -0.1500000
v -0.1625000 -1.8000000 -0.1500000
v -0.1625000 -1.8000000 -0.1250000
v -0.0875000 -1.8000000 -0.1250000
v -0.1250000 -1.8000000 -0.0875000
v -0.1625000 -1.8000000 -0.1250000
v -0.1250000 -0.1000000 -0.0875000
v -0.1625000 -0.1000000 -0.1250000
v -0.1625000 -1.8000000 -0.1250000
v -0.1250000 -1.8000000 -0.0875000
v -0.0875000 -1.8000000 -0.1250000
v -0.0875000 -0.1000000 -0.1250000
v -0.1250000 -0.1000000 -0.0875000
v -0.1250000 -1.8000000 -0.0875000
v 0.0875000 -0.1000000 0.1500000
v 0.0875000 -1.8000000 0.1500000
v -0.0875000 -1.8000000 0.1500000
v -0.0875000 -0.1000000 0.1500000
v -0.0875000 -0.1000000 -0.1500000
v -0.0875000 -1.8000000 -0.1500000
v 0.0875000 -1.8000000 -0.1500000
v 0.0875000 -0.1000000 -0.1500000
v 0.0875000 -1.8000000 0.1500000
v 0.0875000 -1.8000000 0.1250000
v 0.1625000 -1.8000000 0.1250000
v 0.1625000 -1.8000000 0.1500000
v 0.0875000 -0.1000000 0.1500000
v 0.0875000 -0.1000000 0.1250000
v 0.0875000 -1.8000000 0.1250000
v 0.0875000 -1.8000000 0.1500000
v 0.1625000 -0.1000000 0.1250000
v 0.1625000 -0.1000000 0.1500000
v 0.1625000 -1.8000000 0.1500000
v 0.1625000 -1.8000000 0.1250000
v 0.0875000 -1.8000000 0.1250000
v 0.1250000 -1.8000000 0.0875000
v 0.1625000 -1.8000000 0.1250000
v 0.1250000 -0.1000000 0.0875000
v 0.1625000 -0.1000000 0.1250000
v 0.1625000 -1.8000000 0.1250000
v 0.1250000 -1.8000000 0.0875000
v 0.0875000 -1.8000000 0.1250000
v 0.0875000 -0.1000000 0.1250000
v 0.1250000 -0.1000000 0.0875000
v 0.1250000 -1.8000000 0.0875000
v 0.1625000 -1.8000000 -0.1500000
v 0.1625000 -1.8000000 -0.1250000
v 0.0875000 -1.8000000 -0.1250000
v 0.0875000 -1.8000000 -0.1500000
v 0.1625000 -0.1000000 -0.1500000
v 0.1625000 -0.1000000 -0.1250000
v 0.1625000 -1.8000000 -0.1250000
v 0.1625000 -1.8000000 -0.1500000
v 0.0875000 -0.1000000 -0.1250000
v 0.0875000 -0.1000000 -0.1500000
v 0.0875000 -1.8000000 -0.1500000
v 0.0875000 -1.8000000 -0.1250000
v 0.1625000 -1.8000000 -0.1250000
v 0.1250000 -1.8000000 -0.0875000
v 0.0875000 -1.8000000 -0.1250000
v 0.1250000 -0.1000000 -0.0875000
v 0.0875000 -0.1000000 -0.1250000
v 0.0875000 -1.8000000 -0.1250000
v 0.1250000 -1.8000000 -0.0875000
v 0.1625000 -1.8000000 -0.1250000
v 0.1625000 -0.1000000 -0.1250000
v 0.1250000 -0.1000000 -0.0875000
v 0.1250000 -1.8000000 -0.0875000
v 0.4000000 -0.1000000 0.1500000
v 0.4000000 -0.1000000 -0.1500000
v 0.4000000 -1.8000000 -0.1500000
v 0.4000000 -1.8000000 0.1500000
v 0.4000000 -0.1000000 -0.1500000
v 0.1625000 -0.1000000 -0.1500000
v 0.1625000 -1.8000000 -0.1500000
v 0.4000000 -1.8000000 -0.1500000
v 0.4000000 -1.8000000 0.1500000
v 0.1625000 -1.8000000 0.1500000
v 0.1625000 -0.1000000 0.1500000
v 0.4000000 -0.1000000 0.1500000
v -0.1625000 -0.1000000 0.1250000
v -0.1625000 -0.1000000 0.1500000
v -0.4000000 -0.1000000 0.1500000
v -0.4000000 -0.1000000 -0.1500000
v -0.1625000 -0.1000000 -0.1250000
v -0.1625000 -0.1000000 0.1250000
v -0.4000000 -0.1000000 0.1500000
v -0.1625000 -0.1000000 -0.1500000
v -0.1625000 -0.1000000 -0.1250000
v -0.4000000 -0.1000000 -0.1500000
v -0.1625000 -0.1000000 -0.1250000
v -0.1250000 -0.1000000 -0.0875000
v -0.1250000 -0.1000000 0.0875000
v -0.1625000 -0.1000000 0.1250000
v -0.1250000 -0.1000000 -0.0875000
v -0.0875000 -0.1000000 -0.1250000
v -0.0875000 -0.1000000 0.1250000
v -0.1250000 -0.1000000 0.0875000
v -0.0875000 -0.1000000 0.1250000
v 0.0875000 -0.1000000 0.1250000
v 0.0875000 -0.1000000 0.1500000
v -0.0875000 -0.1000000 0.1500000
v -0.0875000 -0.1000000 -0.1250000
v 0.0875000 -0.1000000 -0.1250000
v 0.0875000 -0.1000000 0.1250000
v -0.0875000 -0.1000000 0.1250000
v -0.0875000 -0.1000000 -0.1500000
v 0.0875000 -0.1000000 -0.1500000
v 0.0875000 -0.1000000 -0.1250000
v -0.0875000 -0.1000000 -0.1250000
v 0.1250000 -0.1000000 0.0875000
v 0.0875000 -0.1000000 0.1250000
v 0.0875000 -0.1000000 -0.1250000
v 0.1250000 -0.1000000 -0.0875000
v 0.1625000 -0.1000000 0.1250000
v 0.1250000 -0.1000000 0.0875000
v 0.1250000 -0.1000000 -0.0875000
v 0.1625000 -0.1000000 -0.1250000
v 0.1625000 -0.1000000 0.1500000
v 0.1625000 -0.1000000 0.1250000
v 0.4000000 -0.1000000 0.1500000
v 0.4000000 -0.1000000 0.1500000
v 0.1625000 -0.1000000 0.1250000
v 0.1625000 -0.1000000 -0.1250000
v 0.4000000 -0.1000000 -0.1500000
v 0.1625000 -0.1000000 -0.1250000
v 0.1625000 -0.1000000 -0.1500000
v 0.4000000 -0.1000000 -0.1500000
v -0.4000000 -1.8000000 -0.1500000
v -0.4000000 -1.8000000 0.1500000
v -0.5000000 -1.8000000 0.2500000
v -0.5000000 -1.8000000 -0.2500000
v -0.4000000 -1.8000000 0.1500000
v -0.1625000 -1.8000000 0.1500000
v -0.5000000 -1.8000000 0.2500000
v -0.1625000 -1.8000000 0.1500000
v -0.0875000 -1.8000000 0.1500000
v -0.5000000 -1.8000000 0.2500000
v -0.0875000 -1.8000000 0.1500000
v 0.0875000 -1.8000000 0.1500000
v 0.5000000 -1.8000000 0.2500000
v -0.5000000 -1.8000000 0.2500000
v 0.0875000 -1.8000000 0.1500000
v 0.1625000 -1.8000000 0.1500000
v 0.5000000 -1.8000000 0.2500000
v 0.1625000 -1.8000000 0.1500000
v 0.4000000 -1.8000000 0.1500000
v 0.5000000 -1.8000000 0.2500000
v 0.4000000 -1.8000000 0.1500000
v 0.4000000 -1.8000000 -0.1500000
v 0.5000000 -1.8000000 -0.2500000
v 0.5000000 -1.8000000 0.2500000
v 0.4000000 -1.8000000 -0.1500000
v 0.1625000 -1.8000000 -0.1500000
v 0.5000000 -1.8000000 -0.2500000
v 0.1625000 -1.8000000 -0.1500000
v 0.0875000 -1.8000000 -0.1500000
v 0.5000000 -1.8000000 -0.2500000
v 0.0875000 -1.8000000 -0.1500000
v -0.0875000 -1.8000000 -0.1500000
v -0.5000000 -1.8000000 -0.2500000
v 0.5000000 -1.8000000 -0.2500000
v -0.0875000 -1.8000000 -0.1500000
v -0.1625000 -1.8000000 -0.1500000
v -0.5000000 -1.8000000 -0.2500000
v -0.1625000 -1.8000000 -0.1500000
v -0.4000000 -1.8000000 -0.1500000
v -0.5000000 -1.8000000 -0.2500000
v -0.5000000 -0.0000000 0.2500000
v 0.5000000 -0.0000000 0.2500000
v 0.5000000 -0.0000000 -0.2500000
v -0.5000000 -0.0000000 -0.2500000
v -0.5000000 -0.0000000 0.2500000
v -0.5000000 -1.8000000 0.2500000
v 0.5000000 -1.8000000 0.2500000
v 0.5000000 -0.0000000 0.2500000
v -0.5000000 -0.0000000 -0.2500000
v -0.5000000 -1.8000000 -0.2500000
v -0.5000000 -1.8000000 0.2500000
v -0.5000000 -0.0000000 0.2500000
v 0.5000000 -0.0000000 -0.2500000
v 0.5000000 -1.8000000 -0.2500000
v -0.5000000 -1.8000000 -0.2500000
v -0.5000000 -0.0000000 -0.2500000
v 0.5000000 -0.0000000 0.2500000
v 0.5000000 -1.8000000 0.2500000
v 0.5000000 -1.8000000 -0.2500000
v 0.5000000 -0.0000000 -0.2500000
v -0.1000000 0.1000000 0.0000000
v -0.1114150 0.1000000 0.0574050
v -0.1114150 -0.0000000 0.0574050
v -0.1000000 -0.0000000 0.0000000
v -0.1114150 0.1000000 0.0574050
v -0.1439350 0.1000000 0.1060650
v -0.1439350 -0.0000000 0.1060650
v -0.1114150 -0.0000000 0.0574050
v -0.1439350 0.1000000 0.1060650
v -0.1925950 0.1000000 0.1385850
v -0.1925950 -0.0000000 0.1385850
v -0.1439350 -0.0000000 0.1060650
v -0.1925950 0.1000000 0.1385850
v -0.2500000 0.1000000 0.1500000
v -0.2500000 -0.0000000 0.1500000
v -0.1925950 -0.0000000 0.1385850
v -0.2500000 0.1000000 0.1500000
v -0.3074050 0.1000000 0.1385850
v -0.3074050 -0.0000000 0.1385850
v -0.2500000 -0.0000000 0.1500000
v -0.3074050 0.1000000 0.1385850
v -0.3560650 0.1000000 0.1060650
v -0.3560650 -0.0000000 0.1060650
v -0.3074050 -0.0000000 0.1385850
v -0.3560650 0.1000000 0.1060650
v -0.3885850 0.1000000 0.0574050
v -0.3885850 -0.0000000 0.0574050
v -0.3560650 -0.0000000 0.1060650
v -0.3885850 0.1000000 0.0574050
v -0.4000000 0.1000000 0.0000000
v -0.4000000 -0.0000000 0.0000000
v -0.3885850 -0.0000000 0.0574050
v -0.4000000 0.1000000 0.0000000
v -0.3885850 0.1000000 -0.0574050
v -0.3885850 -0.0000000 -0.0574050
v -0.4000000 -0.0000000 0.0000000
v -0.3885850 0.1000000 -0.0574050
v -0.3560650 0.1000000 -0.1060650
v -0.3560650 -0.0000000 -0.1060650
v -0.3885850 -0.0000000 -0.0574050
v -0.3560650 0.1000000 -0.1060650
v -0.3074050 0.1000000 -0.1385850
v -0.3074050 -0.0000000 -0.1385850
v -0.3560650 -0.0000000 -0.1060650
v -0.3074050 0.1000000 -0.1385850
v -0.2500000 0.1000000 -0.1500000
v -0.2500000 -0.0000000 -0.1500000
v -0.3074050 -0.0000000 -0.1385850
v -0.2500000 0.1000000 -0.1500000
v -0.1925950 0.1000000 -0.1385850
v -0.1925950 -0.0000000 -0.1385850
v -0.2500000 -0.0000000 -0.1500000
v -0.1925950 0.1000000 -0.1385850
v -0.1439350 0.1000000 -0.1060650
v -0.1439350 -0.0000000 -0.1060650
v -0.1925950 -0.0000000 -0.1385850
v -0.1439350 0.1000000 -0.1060650
v -0.1114150 0.1000000 -0.0574050
v -0.1114150 -0.0000000 -0.0574050
v -0.1439350 -0.0000000 -0.1060650
v -0.1114150 0.1000000 -0.0574050
v -0.1000000 0.1000000 0.0000000
v -0.1000000 -0.0000000 0.0000000
v -0.1114150 -0.0000000 -0.0574050
v -0.1114150 0.1000000 0.0574050
v -0.1000000 0.1000000 0.0000000
v -0.2500000 0.1000000 0.0000000
v -0.1439350 0.1000000 0.1060650
v -0.1114150 0.1000000 0.0574050
v -0.2500000 0.1000000 0.0000000
v -0.1925950 0.1000000 0.1385850
v -0.1439350 0.1000000 0.1060650
v -0.2500000 0.1000000 0.0000000
v -0.2500000 0.1000000 0.1500000
v -0.1925950 0.1000000 0.1385850
v -0.2500000 0.1000000 0.0000000
v -0.3074050 0.1000000 0.1385850
v -0.2500000 0.1000000 0.1500000
v -0.2500000 0.1000000 0.0000000
v -0.3560650 0.1000000 0.1060650
v -0.3074050 0.1000000 0.1385850
v -0.2500000 0.1000000 0.0000000
v -0.3885850 0.1000000 0.0574050
v -0.3560650 0.1000000 0.1060650
v -0.2500000 0.1000000 0.0000000
v -0.4000000 0.1000000 0.0000000
v -0.3885850 0.1000000 0.0574050
v -0.2500000 0.1000000 0.0000000
v -0.3885850 0.1000000 -0.0574050
v -0.4000000 0.1000000 0.0000000
v -0.2500000 0.1000000 0.0000000
v -0.3560650 0.1000000 -0.1060650
v -0.3885850 0.1000000 -0.0574050
v -0.2500000 0.1000000 0.0000000
v -0.3074050 0.1000000 -0.1385850
v -0.3560650 0.1000000 -0.1060650
v -0.2500000 0.1000000 0.0000000
v -0.2500000 0.1000000 -0.1500000
v -0.3074050 0.1000000 -0.1385850
v -0.2500000 0.1000000 0.0000000
v -0.1925950 0.1000000 -0.1385850
v -0.2500000 0.1000000 -0.1500000
v -0.2500000 0.1000000 0.0000000
v -0.1439350 0.1000000 -0.1060650
v -0.1925950 0.1000000 -0.1385850
v -0.2500000 0.1000000 0.0000000
v -0.1114150 0.1000000 -0.0574050
v -0.1439350 0.1000000 -0.1060650
v -0.2500000 0.1000000 0.0000000
v -0.1000000 0.1000000 0.0000000
v -0.1114150 0.1000000 -0.0574050
v -0.2500000 0.1000000 0.0000000
v 0.4000000 0.1000000 0.0000000
v 0.3885850 0.1000000 0.0574050
v 0.3885850 -0.0000000 0.0574050
v 0.4000000 -0.0000000 0.0000000
v 0.3885850 0.1000000 0.0574050
v 0.3560650 0.1000000 0.1060650
v 0.3560650 -0.0000000 0.1060650
v 0.3885850 -0.0000000 0.0574050
v 0.3560650 0.1000000 0.1060650
v 0.3074050 0.1000000 0.1385850
v 0.3074050 -0.0000000 0.1385850
v 0.3560650 -0.0000000 0.1060650
v 0.3074050 0.1000000 0.1385850
v 0.2500000 0.1000000 0.1500000
v 0.2500000 -0.0000000 0.1500000
v 0.3074050 -0.0000000 0.1385850
v 0.2500000 0.1000000 0.1500000
v 0.1925950 0.1000000 0.1385850
v 0.1925950 -0.0000000 0.1385850
v 0.2500000 -0.0000000 0.1500000
v 0.1925950 0.1000000 0.1385850
v 0.1439350 0.1000000 0.1060650
v 0.1439350 -0.0000000 0.1060650
v 0.1925950 -0.0000000 0.1385850
v 0.1439350 0.1000000 0.1060650
v 0.1114150 0.1000000 0.0574050
v 0.1114150 -0.0000000 0.0574050
v 0.1439350 -0.0000000 0.1060650
v 0.1114150 0.1000000 0.0574050
v 0.1000000 0.1000000 0.0000000
v 0.1000000 -0.0000000 0.0000000
v 0.1114150 -0.0000000 0.0574050
v 0.1000000 0.1000000 0.0000000
v 0.1114150 0.1000000 -0.0574050
v 0.1114150 -0.0000000 -0.0574050
v 0.1000000 -0.0000000 0.0000000
v 0.1114150 0.1000000 -0.0574050
v 0.1439350 0.1000000 -0.1060650
v 0.1439350 -0.0000000 -0.1060650
v 0.1114150 -0.0000000 -0.0574050
v 0.1439350 0.1000000 -0.1060650
v 0.1925950 0.1000000 -0.1385850
v 0.1925950 -0.0000000 -0.1385850
v 0.1439350 -0.0000000 -0.1060650
v 0.1925950 0.1000000 -0.1385850
v 0.2500000 0.1000000 -0.1500000
v 0.2500000 -0.0000000 -0.1500000
v 0.1925950 -0.0000000 -0.1385850
v 0.2500000 0.1000000 -0.1500000
v 0.3074050 0.1000000 -0.1385850
v 0.3074050 -0.0000000 -0.1385850
v 0.2500000 -0.0000000 -0.1500000
v 0.3074050 0.1000000 -0.1385850
v 0.3560650 0.1000000 -0.1060650
v 0.3560650 -0.0000000 -0.1060650
v 0.3074050 -0.0000000 -0.1385850
v 0.3560650 0.1000000 -0.1060650
v 0.3885850 0.1000000 -0.0574050
v 0.3885850 -0.0000000 -0.0574050
v 0.3560650 -0.0000000 -0.1060650
v 0.3885850 0.1000000 -0.0574050
v 0.4000000 0.1000000 0.0000000
v 0.4000000 -0.0000000 0.0000000
v 0.3885850 -0.0000000 -0.0574050
v 0.3885850 0.1000000 0.0574050
v 0.4000000 0.1000000 0.0000000
v 0.2500000 0.1000000 0.0000000
v 0.3560650 0.1000000 0.1060650
v 0.3885850 0.1000000 0.0574050
v 0.2500000 0.1000000 0.0000000
v 0.3074050 0.1000000 0.1385850
v 0.3560650 0.1000000 0.1060650
v 0.2500000 0.1000000 0.0000000
v 0.2500000 0.1000000 0.1500000
v 0.3074050 0.1000000 0.1385850
v 0.2500000 0.1000000 0.0000000
v 0.1925950 0.1000000 0.1385850
v 0.2500000 0.1000000 0.1500000
v 0.2500000 0.1000000 0.0000000
v 0.1439350 0.1000000 0.1060650
v 0.1925950 0.1000000 0.1385850
v 0.2500000 0.1000000 0.0000000
v 0.1114150 0.1000000 0.0574050
v 0.1439350 0.1000000 0.1060650
v 0.2500000 0.1000000 0.0000000
v 0.1000000 0.1000000 0.0000000
v 0.1114150 0.1000000 0.0574050
v 0.2500000 0.1000000 0.0000000
v 0.1114150 0.1000000 -0.0574050
v 0.1000000 0.1000000 0.0000000
v 0.2500000 0.1000000 0.0000000
v 0.1439350 0.1000000 -0.1060650
v 0.1114150 0.1000000 -0.0574050
v 0.2500000 0.1000000 0.0000000
v 0.1925950 0.1000000 -0.1385850
v 0.1439350 0.1000000 -0.1060650
v 0.2500000 0.1000000 0.0000000
v 0.2500000 0.1000000 -0.1500000
v 0.1925950 0.1000000 -0.1385850
v 0.2500000 0.1000000 0.0000000
v 0.3074050 0.1000000 -0.1385850
v 0.2500000 0.1000000 -0.1500000
v 0.2500000 0.1000000 0.0000000
v 0.3560650 0.1000000 -0.1060650
v 0.3074050 0.1000000 -0.1385850
v 0.2500000 0.1000000 0.0000000
v 0.3885850 0.1000000 -0.0574050
v 0.3560650 0.1000000 -0.1060650
v 0.2500000 0.1000000 0.0000000
v 0.4000000 0.1000000 0.0000000
v 0.3885850 0.1000000 -0.0574050
v 0.2500000 0.1000000 0.0000000
s off
f 1 2 3
f 1 3 4
f 5 6 7
f 5 7 8
f 9 10 11
f 9 11 12
f 13 14 15
f 13 15 16
f 17 18 19
f 17 19 20
f 21 22 23
f 21 23 24
f 25 26 27
f 28 29 30
f 28 30 31
f 32 33 34
f 32 34 35
f 36 37 38
f 36 38 39
f 40 41 42
f 40 42 43
f 44 45 46
f 44 46 47
f 48 49 50
f 51 52 53
f 51 53 54
f 55 56 57
f 55 57 58
f 59 60 61
f 59 61 62
f 63 64 65
f 63 65 66
f 67 68 69
f 67 69 70
f 71 72 73
f 71 73 74
f 75 76 77
f 75 77 78
f 79 80 81
f 82 83 84
f 82 84 85
f 86 87 88
f 86 88 89
f 90 91 92
f 90 92 93
f 94 95 96
f 94 96 97
f 98 99 100
f 98 100 101
f 102 103 104
f 105 106 107
f 105 107 108
f 109 110 111
f 109 111 112
f 113 114 115
f 113 115 116
f 117 118 119
f 117 119 120
f 121 122 123
f 121 123 124
f 125 126 127
f 128 129 130
f 128 130 131
f 132 133 134
f 135 136 137
f 135 137 138
f 139 140 141
f 139 141 142
f 143 144 145
f 143 145 146
f 147 148 149
f 147 149 150
f 151 152 153
f 151 153 154
f 155 156 157
f 155 157 158
f 159 160 161
f 159 161 162
f 163 164 165
f 166 167 168
f 166 168 169
f 170 171 172
f 173 174 175
f 173 175 176
f 177 178 179
f 180 181 182
f 183 184 185
f 183 185 186
f 187 188 189
f 190 191 192
f 193 194 195
f 193 195 196
f 197 198 199
f 200 201 202
f 203 204 205
f 203 205 206
f 207 208 209
f 210 211 212
f 213 214 215
f 213 215 216
f 217 218 219
f 217 219 220
f 221 222 223
f 221 223 224
f 225 226 227
f 225 227 228
f 229 230 231
f 229 231 232
f 233 234 235
f 233 235 236
f 237 238 239
f 237 239 240
f 241 242 243
f 241 243 244
f 245 246 247
f 245 247 248
f 249 250 251
f 249 251 252
f 253 254 255
f 253 255 256
f 257 258 259
f 257 259 260
f 261 262 263
f 261 263 264
f 265 266 267
f 265 267 268
f 269 270 271
f 269 271 272
f 273 274 275
f 273 275 276
f 277 278 279
f 277 279 280
f 281 282 283
f 281 283 284
f 285 286 287
f 285 287 288
f 289 290 291
f 289 291 292
f 293 294 295
f 293 295 296
f 297 298 299
f 300 301 302
f 303 304 305
f 306 307 308
f 309 310 311
f 312 313 314
f 315 316 317
f 318 319 320
f 321 322 323
f 324 325 326
f 327 328 329
f 330 331 332
f 333 334 335
f 336 337 338
f 339 340 341
f 342 343 344
f 345 346 347
f 345 347 348
f 349 350 351
f 349 351 352
f 353 354 355
f 353 355 356
f 357 358 359
f 357 359 360
f 361 362 363
f 361 363 364
f 365 366 367
f 365 367 368
f 369 370 371
f 369 371 372
f 373 374 375
f 373 375 376
f 377 378 379
f 377 379 380
f 381 382 383
f 381 383 384
f 385 386 387
f 385 387 388
f 389 390 391
f 389 391 392
f 393 394 395
f 393 395 396
f 397 398 399
f 397 399 400
f 401 402 403
f 401 403 404
f 405 406 407
f 405 407 408
f 409 410 411
f 412 413 414
f 415 416 417
f 418 419 420
f 421 422 423
f 424 425 426
f 427 428 429
f 430 431 432
f 433 434 435
f 436 437 438
f 439 440 441
f 442 443 444
f 445 446 447
f 448 449 450
f 451 452 453
f 454 455 456
