# Baked from official LDraw part 2421.dat
o ldraw_2421
v 0.1000000 -0.1250000 0.0000000
v 0.0923900 -0.1250000 0.0382700
v 0.0923900 0.1250000 0.0382700
v 0.1000000 0.1250000 0.0000000
v 0.0923900 -0.1250000 0.0382700
v 0.0707100 -0.1250000 0.0707100
v 0.0707100 0.1250000 0.0707100
v 0.0923900 0.1250000 0.0382700
v 0.0707100 -0.1250000 0.0707100
v 0.0382700 -0.1250000 0.0923900
v 0.0382700 0.1250000 0.0923900
v 0.0707100 0.1250000 0.0707100
v 0.0382700 -0.1250000 0.0923900
v 0.0000000 -0.1250000 0.1000000
v 0.0000000 0.1250000 0.1000000
v 0.0382700 0.1250000 0.0923900
v 0.0000000 -0.1250000 0.1000000
v -0.0382700 -0.1250000 0.0923900
v -0.0382700 0.1250000 0.0923900
v 0.0000000 0.1250000 0.1000000
v -0.0382700 -0.1250000 0.0923900
v -0.0707100 -0.1250000 0.0707100
v -0.0707100 0.1250000 0.0707100
v -0.0382700 0.1250000 0.0923900
v -0.0707100 -0.1250000 0.0707100
v -0.0923900 -0.1250000 0.0382700
v -0.0923900 0.1250000 0.0382700
v -0.0707100 0.1250000 0.0707100
v -0.0923900 -0.1250000 0.0382700
v -0.1000000 -0.1250000 0.0000000
v -0.1000000 0.1250000 0.0000000
v -0.0923900 0.1250000 0.0382700
v -0.1000000 -0.1250000 0.0000000
v -0.0923900 -0.1250000 -0.0382700
v -0.0923900 0.1250000 -0.0382700
v -0.1000000 0.1250000 0.0000000
v -0.0923900 -0.1250000 -0.0382700
v -0.0707100 -0.1250000 -0.0707100
v -0.0707100 0.1250000 -0.0707100
v -0.0923900 0.1250000 -0.0382700
v -0.0707100 -0.1250000 -0.0707100
v -0.0382700 -0.1250000 -0.0923900
v -0.0382700 0.1250000 -0.0923900
v -0.0707100 0.1250000 -0.0707100
v -0.0382700 -0.1250000 -0.0923900
v 0.0000000 -0.1250000 -0.1000000
v 0.0000000 0.1250000 -0.1000000
v -0.0382700 0.1250000 -0.0923900
v 0.0000000 -0.1250000 -0.1000000
v 0.0382700 -0.1250000 -0.0923900
v 0.0382700 0.1250000 -0.0923900
v 0.0000000 0.1250000 -0.1000000
v 0.0382700 -0.1250000 -0.0923900
v 0.0707100 -0.1250000 -0.0707100
v 0.0707100 0.1250000 -0.0707100
v 0.0382700 0.1250000 -0.0923900
v 0.0707100 -0.1250000 -0.0707100
v 0.0923900 -0.1250000 -0.0382700
v 0.0923900 0.1250000 -0.0382700
v 0.0707100 0.1250000 -0.0707100
v 0.0923900 -0.1250000 -0.0382700
v 0.1000000 -0.1250000 0.0000000
v 0.1000000 0.1250000 0.0000000
v 0.0923900 0.1250000 -0.0382700
v -0.0765400 -0.1250000 0.1847800
v -0.0382700 -0.1250000 0.0923900
v 0.0000000 -0.1250000 0.1000000
v 0.0000000 -0.1250000 0.2000000
v -0.1414200 -0.1250000 0.1414200
v -0.0707100 -0.1250000 0.0707100
v -0.0382700 -0.1250000 0.0923900
v -0.0765400 -0.1250000 0.1847800
v -0.1847800 -0.1250000 0.0765400
v -0.0923900 -0.1250000 0.0382700
v -0.0707100 -0.1250000 0.0707100
v -0.1414200 -0.1250000 0.1414200
v -0.2000000 -0.1250000 0.0000000
v -0.1000000 -0.1250000 0.0000000
v -0.0923900 -0.1250000 0.0382700
v -0.1847800 -0.1250000 0.0765400
v -0.1847800 -0.1250000 -0.0765400
v -0.0923900 -0.1250000 -0.0382700
v -0.1000000 -0.1250000 0.0000000
v -0.2000000 -0.1250000 0.0000000
v -0.1414200 -0.1250000 -0.1414200
v -0.0707100 -0.1250000 -0.0707100
v -0.0923900 -0.1250000 -0.0382700
v -0.1847800 -0.1250000 -0.0765400
v -0.0765400 -0.1250000 -0.1847800
v -0.0382700 -0.1250000 -0.0923900
v -0.0707100 -0.1250000 -0.0707100
v -0.1414200 -0.1250000 -0.1414200
v 0.0000000 -0.1250000 -0.2000000
v 0.0000000 -0.1250000 -0.1000000
v -0.0382700 -0.1250000 -0.0923900
v -0.0765400 -0.1250000 -0.1847800
v 0.0765400 -0.1250000 -0.1847800
v 0.0382700 -0.1250000 -0.0923900
v 0.0000000 -0.1250000 -0.1000000
v 0.0000000 -0.1250000 -0.2000000
v 0.1414200 -0.1250000 -0.1414200
v 0.0707100 -0.1250000 -0.0707100
v 0.0382700 -0.1250000 -0.0923900
v 0.0765400 -0.1250000 -0.1847800
v 0.1847800 -0.1250000 -0.0765400
v 0.0923900 -0.1250000 -0.0382700
v 0.0707100 -0.1250000 -0.0707100
v 0.1414200 -0.1250000 -0.1414200
v 0.2000000 -0.1250000 0.0000000
v 0.1000000 -0.1250000 0.0000000
v 0.0923900 -0.1250000 -0.0382700
v 0.1847800 -0.1250000 -0.0765400
v 0.1847800 -0.1250000 0.0765400
v 0.0923900 -0.1250000 0.0382700
v 0.1000000 -0.1250000 0.0000000
v 0.2000000 -0.1250000 0.0000000
v 0.1414200 -0.1250000 0.1414200
v 0.0707100 -0.1250000 0.0707100
v 0.0923900 -0.1250000 0.0382700
v 0.1847800 -0.1250000 0.0765400
v 0.0765400 -0.1250000 0.1847800
v 0.0382700 -0.1250000 0.0923900
v 0.0707100 -0.1250000 0.0707100
v 0.1414200 -0.1250000 0.1414200
v 0.0000000 -0.1250000 0.2000000
v 0.0000000 -0.1250000 0.1000000
v 0.0382700 -0.1250000 0.0923900
v 0.0765400 -0.1250000 0.1847800
v 0.0000000 0.1250000 0.2000000
v 0.0000000 0.1250000 0.1000000
v -0.0382700 0.1250000 0.0923900
v -0.0765400 0.1250000 0.1847800
v -0.0765400 0.1250000 0.1847800
v -0.0382700 0.1250000 0.0923900
v -0.0707100 0.1250000 0.0707100
v -0.1414200 0.1250000 0.1414200
v -0.1414200 0.1250000 0.1414200
v -0.0707100 0.1250000 0.0707100
v -0.0923900 0.1250000 0.0382700
v -0.1847800 0.1250000 0.0765400
v -0.1847800 0.1250000 0.0765400
v -0.0923900 0.1250000 0.0382700
v -0.1000000 0.1250000 0.0000000
v -0.2000000 0.1250000 0.0000000
v -0.2000000 0.1250000 0.0000000
v -0.1000000 0.1250000 0.0000000
v -0.0923900 0.1250000 -0.0382700
v -0.1847800 0.1250000 -0.0765400
v -0.1847800 0.1250000 -0.0765400
v -0.0923900 0.1250000 -0.0382700
v -0.0707100 0.1250000 -0.0707100
v -0.1414200 0.1250000 -0.1414200
v -0.1414200 0.1250000 -0.1414200
v -0.0707100 0.1250000 -0.0707100
v -0.0382700 0.1250000 -0.0923900
v -0.0765400 0.1250000 -0.1847800
v -0.0765400 0.1250000 -0.1847800
v -0.0382700 0.1250000 -0.0923900
v 0.0000000 0.1250000 -0.1000000
v 0.0000000 0.1250000 -0.2000000
v 0.0000000 0.1250000 -0.2000000
v 0.0000000 0.1250000 -0.1000000
v 0.0382700 0.1250000 -0.0923900
v 0.0765400 0.1250000 -0.1847800
v 0.0765400 0.1250000 -0.1847800
v 0.0382700 0.1250000 -0.0923900
v 0.0707100 0.1250000 -0.0707100
v 0.1414200 0.1250000 -0.1414200
v 0.1414200 0.1250000 -0.1414200
v 0.0707100 0.1250000 -0.0707100
v 0.0923900 0.1250000 -0.0382700
v 0.1847800 0.1250000 -0.0765400
v 0.1847800 0.1250000 -0.0765400
v 0.0923900 0.1250000 -0.0382700
v 0.1000000 0.1250000 0.0000000
v 0.2000000 0.1250000 0.0000000
v 0.2000000 0.1250000 0.0000000
v 0.1000000 0.1250000 0.0000000
v 0.0923900 0.1250000 0.0382700
v 0.1847800 0.1250000 0.0765400
v 0.1847800 0.1250000 0.0765400
v 0.0923900 0.1250000 0.0382700
v 0.0707100 0.1250000 0.0707100
v 0.1414200 0.1250000 0.1414200
v 0.1414200 0.1250000 0.1414200
v 0.0707100 0.1250000 0.0707100
v 0.0382700 0.1250000 0.0923900
v 0.0765400 0.1250000 0.1847800
v 0.0765400 0.1250000 0.1847800
v 0.0382700 0.1250000 0.0923900
v 0.0000000 0.1250000 0.1000000
v 0.0000000 0.1250000 0.2000000
v 0.2000000 0.1250000 0.0000000
v 0.1847800 0.1250000 0.0765400
v 0.1847800 -0.1250000 0.0765400
v 0.2000000 -0.1250000 0.0000000
v 0.1847800 0.1250000 0.0765400
v 0.1414200 0.1250000 0.1414200
v 0.1414200 -0.1250000 0.1414200
v 0.1847800 -0.1250000 0.0765400
v 0.1414200 0.1250000 0.1414200
v 0.0765400 0.1250000 0.1847800
v 0.0765400 -0.1250000 0.1847800
v 0.1414200 -0.1250000 0.1414200
v 0.0765400 0.1250000 0.1847800
v 0.0000000 0.1250000 0.2000000
v 0.0000000 -0.1250000 0.2000000
v 0.0765400 -0.1250000 0.1847800
v 0.0000000 0.1250000 0.2000000
v -0.0765400 0.1250000 0.1847800
v -0.0765400 -0.1250000 0.1847800
v 0.0000000 -0.1250000 0.2000000
v -0.0765400 0.1250000 0.1847800
v -0.1414200 0.1250000 0.1414200
v -0.1414200 -0.1250000 0.1414200
v -0.0765400 -0.1250000 0.1847800
v -0.1414200 0.1250000 0.1414200
v -0.1847800 0.1250000 0.0765400
v -0.1847800 -0.1250000 0.0765400
v -0.1414200 -0.1250000 0.1414200
v -0.1847800 0.1250000 0.0765400
v -0.2000000 0.1250000 0.0000000
v -0.2000000 -0.1250000 0.0000000
v -0.1847800 -0.1250000 0.0765400
v -0.2000000 0.1250000 0.0000000
v -0.1847800 0.1250000 -0.0765400
v -0.1847800 -0.1250000 -0.0765400
v -0.2000000 -0.1250000 0.0000000
v -0.1847800 0.1250000 -0.0765400
v -0.1414200 0.1250000 -0.1414200
v -0.1414200 -0.1250000 -0.1414200
v -0.1847800 -0.1250000 -0.0765400
v -0.1414200 0.1250000 -0.1414200
v -0.0765400 0.1250000 -0.1847800
v -0.0765400 -0.1250000 -0.1847800
v -0.1414200 -0.1250000 -0.1414200
v -0.0765400 0.1250000 -0.1847800
v 0.0000000 0.1250000 -0.2000000
v 0.0000000 -0.1250000 -0.2000000
v -0.0765400 -0.1250000 -0.1847800
v 0.0000000 0.1250000 -0.2000000
v 0.0765400 0.1250000 -0.1847800
v 0.0765400 -0.1250000 -0.1847800
v 0.0000000 -0.1250000 -0.2000000
v 0.0765400 0.1250000 -0.1847800
v 0.1414200 0.1250000 -0.1414200
v 0.1414200 -0.1250000 -0.1414200
v 0.0765400 -0.1250000 -0.1847800
v 0.1414200 0.1250000 -0.1414200
v 0.1847800 0.1250000 -0.0765400
v 0.1847800 -0.1250000 -0.0765400
v 0.1414200 -0.1250000 -0.1414200
v 0.1847800 0.1250000 -0.0765400
v 0.2000000 0.1250000 0.0000000
v 0.2000000 -0.1250000 0.0000000
v 0.1847800 -0.1250000 -0.0765400
v -0.1239000 -0.0983000 -0.8500000
v -0.1581000 -0.0043000 -0.8500000
v -0.1473699 -0.0003961 -0.9074050
v -0.1131699 -0.0943961 -0.9074050
v -0.1131699 -0.0943961 -0.9074050
v -0.1473699 -0.0003961 -0.9074050
v -0.1168011 0.0107258 -0.9560650
v -0.0826011 -0.0832742 -0.9560650
v -0.0826011 -0.0832742 -0.9560650
v -0.1168011 0.0107258 -0.9560650
v -0.0710607 0.0273675 -0.9885850
v -0.0368607 -0.0666325 -0.9885850
v -0.0368607 -0.0666325 -0.9885850
v -0.0710607 0.0273675 -0.9885850
v -0.0171000 0.0470000 -1.0000000
v 0.0171000 -0.0470000 -1.0000000
v 0.0171000 -0.0470000 -1.0000000
v -0.0171000 0.0470000 -1.0000000
v 0.0368607 0.0666325 -0.9885850
v 0.0710607 -0.0273675 -0.9885850
v 0.0710607 -0.0273675 -0.9885850
v 0.0368607 0.0666325 -0.9885850
v 0.0826011 0.0832742 -0.9560650
v 0.1168011 -0.0107258 -0.9560650
v 0.1168011 -0.0107258 -0.9560650
v 0.0826011 0.0832742 -0.9560650
v 0.1131699 0.0943961 -0.9074050
v 0.1473699 0.0003961 -0.9074050
v 0.1473699 0.0003961 -0.9074050
v 0.1131699 0.0943961 -0.9074050
v 0.1239000 0.0983000 -0.8500000
v 0.1581000 0.0043000 -0.8500000
v 0.0171000 -0.0470000 -0.8500000
v -0.1239000 -0.0983000 -0.8500000
v -0.1131699 -0.0943961 -0.9074050
v 0.0171000 -0.0470000 -0.8500000
v -0.1131699 -0.0943961 -0.9074050
v -0.0826011 -0.0832742 -0.9560650
v 0.0171000 -0.0470000 -0.8500000
v -0.0826011 -0.0832742 -0.9560650
v -0.0368607 -0.0666325 -0.9885850
v 0.0171000 -0.0470000 -0.8500000
v -0.0368607 -0.0666325 -0.9885850
v 0.0171000 -0.0470000 -1.0000000
v 0.0171000 -0.0470000 -0.8500000
v 0.0171000 -0.0470000 -1.0000000
v 0.0710607 -0.0273675 -0.9885850
v 0.0171000 -0.0470000 -0.8500000
v 0.0710607 -0.0273675 -0.9885850
v 0.1168011 -0.0107258 -0.9560650
v 0.0171000 -0.0470000 -0.8500000
v 0.1168011 -0.0107258 -0.9560650
v 0.1473699 0.0003961 -0.9074050
v 0.0171000 -0.0470000 -0.8500000
v 0.1473699 0.0003961 -0.9074050
v 0.1581000 0.0043000 -0.8500000
v -0.1473699 -0.0003961 -0.9074050
v -0.1581000 -0.0043000 -0.8500000
v -0.0171000 0.0470000 -0.8500000
v -0.1168011 0.0107258 -0.9560650
v -0.1473699 -0.0003961 -0.9074050
v -0.0171000 0.0470000 -0.8500000
v -0.0710607 0.0273675 -0.9885850
v -0.1168011 0.0107258 -0.9560650
v -0.0171000 0.0470000 -0.8500000
v -0.0171000 0.0470000 -1.0000000
v -0.0710607 0.0273675 -0.9885850
v -0.0171000 0.0470000 -0.8500000
v 0.0368607 0.0666325 -0.9885850
v -0.0171000 0.0470000 -1.0000000
v -0.0171000 0.0470000 -0.8500000
v 0.0826011 0.0832742 -0.9560650
v 0.0368607 0.0666325 -0.9885850
v -0.0171000 0.0470000 -0.8500000
v 0.1131699 0.0943961 -0.9074050
v 0.0826011 0.0832742 -0.9560650
v -0.0171000 0.0470000 -0.8500000
v 0.1239000 0.0983000 -0.8500000
v 0.1131699 0.0943961 -0.9074050
v -0.0171000 0.0470000 -0.8500000
v -0.1581000 -0.0043000 -0.1875000
v -0.1581000 -0.0043000 -0.8500000
v -0.1239000 -0.0983000 -0.8500000
v -0.1239000 -0.0983000 -0.1875000
v 0.1239000 0.0983000 -0.1875000
v 0.1239000 0.0983000 -0.8500000
v -0.1581000 -0.0043000 -0.8500000
v -0.1581000 -0.0043000 -0.1875000
v 0.1581000 0.0043000 -0.1875000
v 0.1581000 0.0043000 -0.8500000
v 0.1239000 0.0983000 -0.8500000
v 0.1239000 0.0983000 -0.1875000
v -0.1239000 -0.0983000 -0.1875000
v -0.1239000 -0.0983000 -0.8500000
v 0.1581000 0.0043000 -0.8500000
v 0.1581000 0.0043000 -0.1875000
v -0.1581000 -0.0043000 -0.1875000
v -0.1239000 -0.0983000 -0.1875000
v -0.1239000 -0.0983000 -0.1000000
v -0.1581000 -0.0043000 -0.1000000
v 0.1239000 0.0983000 -0.1000000
v 0.1581000 0.0043000 -0.1000000
v 0.1581000 0.0043000 -0.1875000
v 0.1239000 0.0983000 -0.1875000
v -0.1239000 -0.0983000 -0.1000000
v -0.1239000 -0.0983000 -0.1875000
v 0.0171000 -0.0470000 -0.1875000
v 0.0171000 -0.0470000 -0.1875000
v 0.1581000 0.0043000 -0.1875000
v 0.1581000 0.0043000 -0.1000000
v -0.0171000 0.0470000 -0.1875000
v -0.1581000 -0.0043000 -0.1875000
v -0.1581000 -0.0043000 -0.1000000
v 0.1239000 0.0983000 -0.1000000
v 0.1239000 0.0983000 -0.1875000
v -0.0171000 0.0470000 -0.1875000
v -0.6741500 -0.0983000 0.5323000
v -0.6570500 -0.0043000 0.5619000
v -0.7121278 -0.0003961 0.5813107
v -0.7292278 -0.0943961 0.5517107
v -0.7292278 -0.0943961 0.5517107
v -0.7121278 -0.0003961 0.5813107
v -0.7695517 0.0107258 0.5791694
v -0.7866517 -0.0832742 0.5495694
v -0.7866517 -0.0832742 0.5495694
v -0.7695517 0.0107258 0.5791694
v -0.8205843 0.0273675 0.5558202
v -0.8376843 -0.0666325 0.5262202
v -0.8376843 -0.0666325 0.5262202
v -0.8205843 0.0273675 0.5558202
v -0.8574500 0.0470000 0.5148000
v -0.8745500 -0.0470000 0.4852000
v -0.8745500 -0.0470000 0.4852000
v -0.8574500 0.0470000 0.5148000
v -0.8745450 0.0666325 0.4623648
v -0.8916450 -0.0273675 0.4327648
v -0.8916450 -0.0273675 0.4327648
v -0.8745450 0.0666325 0.4623648
v -0.8692528 0.0832742 0.4064956
v -0.8863528 -0.0107258 0.3768956
v -0.8863528 -0.0107258 0.3768956
v -0.8692528 0.0832742 0.4064956
v -0.8423977 0.0943961 0.3556943
v -0.8594977 0.0003961 0.3260943
v -0.8594977 0.0003961 0.3260943
v -0.8423977 0.0943961 0.3556943
v -0.7980500 0.0983000 0.3177000
v -0.8151500 0.0043000 0.2881000
v -0.7446500 -0.0470000 0.4102000
v -0.6741500 -0.0983000 0.5323000
v -0.7292278 -0.0943961 0.5517107
v -0.7446500 -0.0470000 0.4102000
v -0.7292278 -0.0943961 0.5517107
v -0.7866517 -0.0832742 0.5495694
v -0.7446500 -0.0470000 0.4102000
v -0.7866517 -0.0832742 0.5495694
v -0.8376843 -0.0666325 0.5262202
v -0.7446500 -0.0470000 0.4102000
v -0.8376843 -0.0666325 0.5262202
v -0.8745500 -0.0470000 0.4852000
v -0.7446500 -0.0470000 0.4102000
v -0.8745500 -0.0470000 0.4852000
v -0.8916450 -0.0273675 0.4327648
v -0.7446500 -0.0470000 0.4102000
v -0.8916450 -0.0273675 0.4327648
v -0.8863528 -0.0107258 0.3768956
v -0.7446500 -0.0470000 0.4102000
v -0.8863528 -0.0107258 0.3768956
v -0.8594977 0.0003961 0.3260943
v -0.7446500 -0.0470000 0.4102000
v -0.8594977 0.0003961 0.3260943
v -0.8151500 0.0043000 0.2881000
v -0.7121278 -0.0003961 0.5813107
v -0.6570500 -0.0043000 0.5619000
v -0.7275500 0.0470000 0.4398000
v -0.7695517 0.0107258 0.5791694
v -0.7121278 -0.0003961 0.5813107
v -0.7275500 0.0470000 0.4398000
v -0.8205843 0.0273675 0.5558202
v -0.7695517 0.0107258 0.5791694
v -0.7275500 0.0470000 0.4398000
v -0.8574500 0.0470000 0.5148000
v -0.8205843 0.0273675 0.5558202
v -0.7275500 0.0470000 0.4398000
v -0.8745450 0.0666325 0.4623648
v -0.8574500 0.0470000 0.5148000
v -0.7275500 0.0470000 0.4398000
v -0.8692528 0.0832742 0.4064956
v -0.8745450 0.0666325 0.4623648
v -0.7275500 0.0470000 0.4398000
v -0.8423977 0.0943961 0.3556943
v -0.8692528 0.0832742 0.4064956
v -0.7275500 0.0470000 0.4398000
v -0.7980500 0.0983000 0.3177000
v -0.8423977 0.0943961 0.3556943
v -0.7275500 0.0470000 0.4398000
v -0.0833250 -0.0043000 0.2306500
v -0.6570500 -0.0043000 0.5619000
v -0.6741500 -0.0983000 0.5323000
v -0.1004250 -0.0983000 0.2010500
v -0.2243250 0.0983000 -0.0135500
v -0.7980500 0.0983000 0.3177000
v -0.6570500 -0.0043000 0.5619000
v -0.0833250 -0.0043000 0.2306500
v -0.2414250 0.0043000 -0.0431500
v -0.8151500 0.0043000 0.2881000
v -0.7980500 0.0983000 0.3177000
v -0.2243250 0.0983000 -0.0135500
v -0.1004250 -0.0983000 0.2010500
v -0.6741500 -0.0983000 0.5323000
v -0.8151500 0.0043000 0.2881000
v -0.2414250 0.0043000 -0.0431500
v -0.0833250 -0.0043000 0.2306500
v -0.1004250 -0.0983000 0.2010500
v -0.0246500 -0.0983000 0.1573000
v -0.0075500 -0.0043000 0.1869000
v -0.1485500 0.0983000 -0.0573000
v -0.1656500 0.0043000 -0.0869000
v -0.2414250 0.0043000 -0.0431500
v -0.2243250 0.0983000 -0.0135500
v -0.0246500 -0.0983000 0.1573000
v -0.1004250 -0.0983000 0.2010500
v -0.1709250 -0.0470000 0.0789500
v -0.1709250 -0.0470000 0.0789500
v -0.2414250 0.0043000 -0.0431500
v -0.1656500 0.0043000 -0.0869000
v -0.1538250 0.0470000 0.1085500
v -0.0833250 -0.0043000 0.2306500
v -0.0075500 -0.0043000 0.1869000
v -0.1485500 0.0983000 -0.0573000
v -0.2243250 0.0983000 -0.0135500
v -0.1538250 0.0470000 0.1085500
v 0.7980500 -0.0983000 0.3177000
v 0.8151500 -0.0043000 0.2881000
v 0.8594977 -0.0003961 0.3260943
v 0.8423977 -0.0943961 0.3556943
v 0.8423977 -0.0943961 0.3556943
v 0.8594977 -0.0003961 0.3260943
v 0.8863528 0.0107258 0.3768956
v 0.8692528 -0.0832742 0.4064956
v 0.8692528 -0.0832742 0.4064956
v 0.8863528 0.0107258 0.3768956
v 0.8916450 0.0273675 0.4327648
v 0.8745450 -0.0666325 0.4623648
v 0.8745450 -0.0666325 0.4623648
v 0.8916450 0.0273675 0.4327648
v 0.8745500 0.0470000 0.4852000
v 0.8574500 -0.0470000 0.5148000
v 0.8574500 -0.0470000 0.5148000
v 0.8745500 0.0470000 0.4852000
v 0.8376843 0.0666325 0.5262202
v 0.8205843 -0.0273675 0.5558202
v 0.8205843 -0.0273675 0.5558202
v 0.8376843 0.0666325 0.5262202
v 0.7866517 0.0832742 0.5495694
v 0.7695517 -0.0107258 0.5791694
v 0.7695517 -0.0107258 0.5791694
v 0.7866517 0.0832742 0.5495694
v 0.7292278 0.0943961 0.5517107
v 0.7121278 0.0003961 0.5813107
v 0.7121278 0.0003961 0.5813107
v 0.7292278 0.0943961 0.5517107
v 0.6741500 0.0983000 0.5323000
v 0.6570500 0.0043000 0.5619000
v 0.7275500 -0.0470000 0.4398000
v 0.7980500 -0.0983000 0.3177000
v 0.8423977 -0.0943961 0.3556943
v 0.7275500 -0.0470000 0.4398000
v 0.8423977 -0.0943961 0.3556943
v 0.8692528 -0.0832742 0.4064956
v 0.7275500 -0.0470000 0.4398000
v 0.8692528 -0.0832742 0.4064956
v 0.8745450 -0.0666325 0.4623648
v 0.7275500 -0.0470000 0.4398000
v 0.8745450 -0.0666325 0.4623648
v 0.8574500 -0.0470000 0.5148000
v 0.7275500 -0.0470000 0.4398000
v 0.8574500 -0.0470000 0.5148000
v 0.8205843 -0.0273675 0.5558202
v 0.7275500 -0.0470000 0.4398000
v 0.8205843 -0.0273675 0.5558202
v 0.7695517 -0.0107258 0.5791694
v 0.7275500 -0.0470000 0.4398000
v 0.7695517 -0.0107258 0.5791694
v 0.7121278 0.0003961 0.5813107
v 0.7275500 -0.0470000 0.4398000
v 0.7121278 0.0003961 0.5813107
v 0.6570500 0.0043000 0.5619000
v 0.8594977 -0.0003961 0.3260943
v 0.8151500 -0.0043000 0.2881000
v 0.7446500 0.0470000 0.4102000
v 0.8863528 0.0107258 0.3768956
v 0.8594977 -0.0003961 0.3260943
v 0.7446500 0.0470000 0.4102000
v 0.8916450 0.0273675 0.4327648
v 0.8863528 0.0107258 0.3768956
v 0.7446500 0.0470000 0.4102000
v 0.8745500 0.0470000 0.4852000
v 0.8916450 0.0273675 0.4327648
v 0.7446500 0.0470000 0.4102000
v 0.8376843 0.0666325 0.5262202
v 0.8745500 0.0470000 0.4852000
v 0.7446500 0.0470000 0.4102000
v 0.7866517 0.0832742 0.5495694
v 0.8376843 0.0666325 0.5262202
v 0.7446500 0.0470000 0.4102000
v 0.7292278 0.0943961 0.5517107
v 0.7866517 0.0832742 0.5495694
v 0.7446500 0.0470000 0.4102000
v 0.6741500 0.0983000 0.5323000
v 0.7292278 0.0943961 0.5517107
v 0.7446500 0.0470000 0.4102000
v 0.2414250 -0.0043000 -0.0431500
v 0.8151500 -0.0043000 0.2881000
v 0.7980500 -0.0983000 0.3177000
v 0.2243250 -0.0983000 -0.0135500
v 0.1004250 0.0983000 0.2010500
v 0.6741500 0.0983000 0.5323000
v 0.8151500 -0.0043000 0.2881000
v 0.2414250 -0.0043000 -0.0431500
v 0.0833250 0.0043000 0.2306500
v 0.6570500 0.0043000 0.5619000
v 0.6741500 0.0983000 0.5323000
v 0.1004250 0.0983000 0.2010500
v 0.2243250 -0.0983000 -0.0135500
v 0.7980500 -0.0983000 0.3177000
v 0.6570500 0.0043000 0.5619000
v 0.0833250 0.0043000 0.2306500
v 0.2414250 -0.0043000 -0.0431500
v 0.2243250 -0.0983000 -0.0135500
v 0.1485500 -0.0983000 -0.0573000
v 0.1656500 -0.0043000 -0.0869000
v 0.0246500 0.0983000 0.1573000
v 0.0075500 0.0043000 0.1869000
v 0.0833250 0.0043000 0.2306500
v 0.1004250 0.0983000 0.2010500
v 0.1485500 -0.0983000 -0.0573000
v 0.2243250 -0.0983000 -0.0135500
v 0.1538250 -0.0470000 0.1085500
v 0.1538250 -0.0470000 0.1085500
v 0.0833250 0.0043000 0.2306500
v 0.0075500 0.0043000 0.1869000
v 0.1709250 0.0470000 0.0789500
v 0.2414250 -0.0043000 -0.0431500
v 0.1656500 -0.0043000 -0.0869000
v 0.0246500 0.0983000 0.1573000
v 0.1004250 0.0983000 0.2010500
v 0.1709250 0.0470000 0.0789500
s off
f 1 2 3
f 1 3 4
f 5 6 7
f 5 7 8
f 9 10 11
f 9 11 12
f 13 14 15
f 13 15 16
f 17 18 19
f 17 19 20
f 21 22 23
f 21 23 24
f 25 26 27
f 25 27 28
f 29 30 31
f 29 31 32
f 33 34 35
f 33 35 36
f 37 38 39
f 37 39 40
f 41 42 43
f 41 43 44
f 45 46 47
f 45 47 48
f 49 50 51
f 49 51 52
f 53 54 55
f 53 55 56
f 57 58 59
f 57 59 60
f 61 62 63
f 61 63 64
f 65 66 67
f 65 67 68
f 69 70 71
f 69 71 72
f 73 74 75
f 73 75 76
f 77 78 79
f 77 79 80
f 81 82 83
f 81 83 84
f 85 86 87
f 85 87 88
f 89 90 91
f 89 91 92
f 93 94 95
f 93 95 96
f 97 98 99
f 97 99 100
f 101 102 103
f 101 103 104
f 105 106 107
f 105 107 108
f 109 110 111
f 109 111 112
f 113 114 115
f 113 115 116
f 117 118 119
f 117 119 120
f 121 122 123
f 121 123 124
f 125 126 127
f 125 127 128
f 129 130 131
f 129 131 132
f 133 134 135
f 133 135 136
f 137 138 139
f 137 139 140
f 141 142 143
f 141 143 144
f 145 146 147
f 145 147 148
f 149 150 151
f 149 151 152
f 153 154 155
f 153 155 156
f 157 158 159
f 157 159 160
f 161 162 163
f 161 163 164
f 165 166 167
f 165 167 168
f 169 170 171
f 169 171 172
f 173 174 175
f 173 175 176
f 177 178 179
f 177 179 180
f 181 182 183
f 181 183 184
f 185 186 187
f 185 187 188
f 189 190 191
f 189 191 192
f 193 194 195
f 193 195 196
f 197 198 199
f 197 199 200
f 201 202 203
f 201 203 204
f 205 206 207
f 205 207 208
f 209 210 211
f 209 211 212
f 213 214 215
f 213 215 216
f 217 218 219
f 217 219 220
f 221 222 223
f 221 223 224
f 225 226 227
f 225 227 228
f 229 230 231
f 229 231 232
f 233 234 235
f 233 235 236
f 237 238 239
f 237 239 240
f 241 242 243
f 241 243 244
f 245 246 247
f 245 247 248
f 249 250 251
f 249 251 252
f 253 254 255
f 253 255 256
f 257 258 259
f 257 259 260
f 261 262 263
f 261 263 264
f 265 266 267
f 265 267 268
f 269 270 271
f 269 271 272
f 273 274 275
f 273 275 276
f 277 278 279
f 277 279 280
f 281 282 283
f 281 283 284
f 285 286 287
f 285 287 288
f 289 290 291
f 292 293 294
f 295 296 297
f 298 299 300
f 301 302 303
f 304 305 306
f 307 308 309
f 310 311 312
f 313 314 315
f 316 317 318
f 319 320 321
f 322 323 324
f 325 326 327
f 328 329 330
f 331 332 333
f 334 335 336
f 337 338 339
f 337 339 340
f 341 342 343
f 341 343 344
f 345 346 347
f 345 347 348
f 349 350 351
f 349 351 352
f 353 354 355
f 353 355 356
f 357 358 359
f 357 359 360
f 361 362 363
f 364 365 366
f 367 368 369
f 370 371 372
f 373 374 375
f 373 375 376
f 377 378 379
f 377 379 380
f 381 382 383
f 381 383 384
f 385 386 387
f 385 387 388
f 389 390 391
f 389 391 392
f 393 394 395
f 393 395 396
f 397 398 399
f 397 399 400
f 401 402 403
f 401 403 404
f 405 406 407
f 408 409 410
f 411 412 413
f 414 415 416
f 417 418 419
f 420 421 422
f 423 424 425
f 426 427 428
f 429 430 431
f 432 433 434
f 435 436 437
f 438 439 440
f 441 442 443
f 444 445 446
f 447 448 449
f 450 451 452
f 453 454 455
f 453 455 456
f 457 458 459
f 457 459 460
f 461 462 463
f 461 463 464
f 465 466 467
f 465 467 468
f 469 470 471
f 469 471 472
f 473 474 475
f 473 475 476
f 477 478 479
f 480 481 482
f 483 484 485
f 486 487 488
f 489 490 491
f 489 491 492
f 493 494 495
f 493 495 496
f 497 498 499
f 497 499 500
f 501 502 503
f 501 503 504
f 505 506 507
f 505 507 508
f 509 510 511
f 509 511 512
f 513 514 515
f 513 515 516
f 517 518 519
f 517 519 520
f 521 522 523
f 524 525 526
f 527 528 529
f 530 531 532
f 533 534 535
f 536 537 538
f 539 540 541
f 542 543 544
f 545 546 547
f 548 549 550
f 551 552 553
f 554 555 556
f 557 558 559
f 560 561 562
f 563 564 565
f 566 567 568
f 569 570 571
f 569 571 572
f 573 574 575
f 573 575 576
f 577 578 579
f 577 579 580
f 581 582 583
f 581 583 584
f 585 586 587
f 585 587 588
f 589 590 591
f 589 591 592
f 593 594 595
f 596 597 598
f 599 600 601
f 602 603 604
