# Baked from official LDraw part 2432.dat
o ldraw_2432
v 0.0000000 -0.8000000 0.0000000
v 0.1000000 -0.8000000 0.0000000
v 0.0923900 -0.8000000 0.0382700
v 0.0000000 -0.8000000 0.0000000
v 0.0923900 -0.8000000 0.0382700
v 0.0707100 -0.8000000 0.0707100
v 0.0000000 -0.8000000 0.0000000
v 0.0707100 -0.8000000 0.0707100
v 0.0382700 -0.8000000 0.0923900
v 0.0000000 -0.8000000 0.0000000
v 0.0382700 -0.8000000 0.0923900
v 0.0000000 -0.8000000 0.1000000
v 0.0000000 -0.8000000 0.0000000
v 0.0000000 -0.8000000 0.1000000
v -0.0382700 -0.8000000 0.0923900
v 0.0000000 -0.8000000 0.0000000
v -0.0382700 -0.8000000 0.0923900
v -0.0707100 -0.8000000 0.0707100
v 0.0000000 -0.8000000 0.0000000
v -0.0707100 -0.8000000 0.0707100
v -0.0923900 -0.8000000 0.0382700
v 0.0000000 -0.8000000 0.0000000
v -0.0923900 -0.8000000 0.0382700
v -0.1000000 -0.8000000 0.0000000
v 0.0000000 -0.8000000 0.0000000
v -0.1000000 -0.8000000 0.0000000
v -0.0923900 -0.8000000 -0.0382700
v 0.0000000 -0.8000000 0.0000000
v -0.0923900 -0.8000000 -0.0382700
v -0.0707100 -0.8000000 -0.0707100
v 0.0000000 -0.8000000 0.0000000
v -0.0707100 -0.8000000 -0.0707100
v -0.0382700 -0.8000000 -0.0923900
v 0.0000000 -0.8000000 0.0000000
v -0.0382700 -0.8000000 -0.0923900
v 0.0000000 -0.8000000 -0.1000000
v 0.0000000 -0.8000000 0.0000000
v 0.0000000 -0.8000000 -0.1000000
v 0.0382700 -0.8000000 -0.0923900
v 0.0000000 -0.8000000 0.0000000
v 0.0382700 -0.8000000 -0.0923900
v 0.0707100 -0.8000000 -0.0707100
v 0.0000000 -0.8000000 0.0000000
v 0.0707100 -0.8000000 -0.0707100
v 0.0923900 -0.8000000 -0.0382700
v 0.0000000 -0.8000000 0.0000000
v 0.0923900 -0.8000000 -0.0382700
v 0.1000000 -0.8000000 0.0000000
v 0.1000000 -0.7000000 0.0000000
v 0.0923900 -0.7000000 0.0382700
v 0.0923900 -0.8000000 0.0382700
v 0.1000000 -0.8000000 0.0000000
v 0.0923900 -0.7000000 0.0382700
v 0.0707100 -0.7000000 0.0707100
v 0.0707100 -0.8000000 0.0707100
v 0.0923900 -0.8000000 0.0382700
v 0.0707100 -0.7000000 0.0707100
v 0.0382700 -0.7000000 0.0923900
v 0.0382700 -0.8000000 0.0923900
v 0.0707100 -0.8000000 0.0707100
v 0.0382700 -0.7000000 0.0923900
v 0.0000000 -0.7000000 0.1000000
v 0.0000000 -0.8000000 0.1000000
v 0.0382700 -0.8000000 0.0923900
v 0.0000000 -0.7000000 0.1000000
v -0.0382700 -0.7000000 0.0923900
v -0.0382700 -0.8000000 0.0923900
v 0.0000000 -0.8000000 0.1000000
v -0.0382700 -0.7000000 0.0923900
v -0.0707100 -0.7000000 0.0707100
v -0.0707100 -0.8000000 0.0707100
v -0.0382700 -0.8000000 0.0923900
v -0.0707100 -0.7000000 0.0707100
v -0.0923900 -0.7000000 0.0382700
v -0.0923900 -0.8000000 0.0382700
v -0.0707100 -0.8000000 0.0707100
v -0.0923900 -0.7000000 0.0382700
v -0.1000000 -0.7000000 0.0000000
v -0.1000000 -0.8000000 0.0000000
v -0.0923900 -0.8000000 0.0382700
v -0.1000000 -0.7000000 0.0000000
v -0.0923900 -0.7000000 -0.0382700
v -0.0923900 -0.8000000 -0.0382700
v -0.1000000 -0.8000000 0.0000000
v -0.0923900 -0.7000000 -0.0382700
v -0.0707100 -0.7000000 -0.0707100
v -0.0707100 -0.8000000 -0.0707100
v -0.0923900 -0.8000000 -0.0382700
v -0.0707100 -0.7000000 -0.0707100
v -0.0382700 -0.7000000 -0.0923900
v -0.0382700 -0.8000000 -0.0923900
v -0.0707100 -0.8000000 -0.0707100
v -0.0382700 -0.7000000 -0.0923900
v 0.0000000 -0.7000000 -0.1000000
v 0.0000000 -0.8000000 -0.1000000
v -0.0382700 -0.8000000 -0.0923900
v 0.0000000 -0.7000000 -0.1000000
v 0.0382700 -0.7000000 -0.0923900
v 0.0382700 -0.8000000 -0.0923900
v 0.0000000 -0.8000000 -0.1000000
v 0.0382700 -0.7000000 -0.0923900
v 0.0707100 -0.7000000 -0.0707100
v 0.0707100 -0.8000000 -0.0707100
v 0.0382700 -0.8000000 -0.0923900
v 0.0707100 -0.7000000 -0.0707100
v 0.0923900 -0.7000000 -0.0382700
v 0.0923900 -0.8000000 -0.0382700
v 0.0707100 -0.8000000 -0.0707100
v 0.0923900 -0.7000000 -0.0382700
v 0.1000000 -0.7000000 0.0000000
v 0.1000000 -0.8000000 0.0000000
v 0.0923900 -0.8000000 -0.0382700
v -0.4000000 -0.7000000 -0.1500000
v 0.4000000 -0.7000000 -0.1500000
v 0.4000000 -0.7000000 0.1500000
v -0.4000000 -0.7000000 0.1500000
v 0.4000000 -0.7000000 0.1500000
v 0.4000000 -0.8000000 0.1500000
v -0.4000000 -0.8000000 0.1500000
v -0.4000000 -0.7000000 0.1500000
v -0.4000000 -0.7000000 0.1500000
v -0.4000000 -0.8000000 0.1500000
v -0.4000000 -0.8000000 -0.1500000
v -0.4000000 -0.7000000 -0.1500000
v -0.4000000 -0.7000000 -0.1500000
v -0.4000000 -0.8000000 -0.1500000
v 0.4000000 -0.8000000 -0.1500000
v 0.4000000 -0.7000000 -0.1500000
v 0.4000000 -0.7000000 -0.1500000
v 0.4000000 -0.8000000 -0.1500000
v 0.4000000 -0.8000000 0.1500000
v 0.4000000 -0.7000000 0.1500000
v -0.5000000 -0.8000000 0.2500000
v -0.4000000 -0.8000000 0.1500000
v 0.4000000 -0.8000000 0.1500000
v 0.5000000 -0.8000000 0.2500000
v -0.5000000 -0.8000000 -0.2500000
v -0.4000000 -0.8000000 -0.1500000
v -0.4000000 -0.8000000 0.1500000
v -0.5000000 -0.8000000 0.2500000
v 0.5000000 -0.8000000 -0.2500000
v 0.4000000 -0.8000000 -0.1500000
v -0.4000000 -0.8000000 -0.1500000
v -0.5000000 -0.8000000 -0.2500000
v 0.5000000 -0.8000000 0.2500000
v 0.4000000 -0.8000000 0.1500000
v 0.4000000 -0.8000000 -0.1500000
v 0.5000000 -0.8000000 -0.2500000
v -0.4000000 -0.1000000 0.2500000
v -0.4000000 -0.1382700 0.2423900
v 0.4000000 -0.1382700 0.2423900
v 0.4000000 -0.1000000 0.2500000
v -0.4000000 -0.1382700 0.2423900
v -0.4000000 -0.1707100 0.2207100
v 0.4000000 -0.1707100 0.2207100
v 0.4000000 -0.1382700 0.2423900
v -0.4000000 -0.1707100 0.2207100
v -0.4000000 -0.1923900 0.1882700
v 0.4000000 -0.1923900 0.1882700
v 0.4000000 -0.1707100 0.2207100
v -0.4000000 -0.1923900 0.1882700
v -0.4000000 -0.2000000 0.1500000
v 0.4000000 -0.2000000 0.1500000
v 0.4000000 -0.1923900 0.1882700
v -0.4000000 -0.2000000 0.1500000
v -0.4000000 -0.1923900 0.1117300
v 0.4000000 -0.1923900 0.1117300
v 0.4000000 -0.2000000 0.1500000
v -0.4000000 -0.1923900 0.1117300
v -0.4000000 -0.1707100 0.0792900
v 0.4000000 -0.1707100 0.0792900
v 0.4000000 -0.1923900 0.1117300
v -0.4000000 -0.1707100 0.0792900
v -0.4000000 -0.1382700 0.0576100
v 0.4000000 -0.1382700 0.0576100
v 0.4000000 -0.1707100 0.0792900
v -0.4000000 -0.1382700 0.0576100
v -0.4000000 -0.1000000 0.0500000
v 0.4000000 -0.1000000 0.0500000
v 0.4000000 -0.1382700 0.0576100
v -0.4000000 -0.1000000 0.0500000
v -0.4000000 -0.0617300 0.0576100
v 0.4000000 -0.0617300 0.0576100
v 0.4000000 -0.1000000 0.0500000
v -0.4000000 -0.0617300 0.0576100
v -0.4000000 -0.0292900 0.0792900
v 0.4000000 -0.0292900 0.0792900
v 0.4000000 -0.0617300 0.0576100
v -0.4000000 -0.0292900 0.0792900
v -0.4000000 -0.0076100 0.1117300
v 0.4000000 -0.0076100 0.1117300
v 0.4000000 -0.0292900 0.0792900
v -0.4000000 -0.0076100 0.1117300
v -0.4000000 -0.0000000 0.1500000
v 0.4000000 -0.0000000 0.1500000
v 0.4000000 -0.0076100 0.1117300
v -0.4000000 -0.0000000 0.1500000
v -0.4000000 -0.0076100 0.1882700
v 0.4000000 -0.0076100 0.1882700
v 0.4000000 -0.0000000 0.1500000
v -0.4000000 -0.0076100 0.1882700
v -0.4000000 -0.0292900 0.2207100
v 0.4000000 -0.0292900 0.2207100
v 0.4000000 -0.0076100 0.1882700
v -0.4000000 -0.0292900 0.2207100
v -0.4000000 -0.0617300 0.2423900
v 0.4000000 -0.0617300 0.2423900
v 0.4000000 -0.0292900 0.2207100
v -0.4000000 -0.0617300 0.2423900
v -0.4000000 -0.1000000 0.2500000
v 0.4000000 -0.1000000 0.2500000
v 0.4000000 -0.0617300 0.2423900
v 0.5000000 -0.8000000 -0.2500000
v 0.5000000 -0.6000000 -0.2500000
v 0.5000000 -0.6000000 0.2500000
v 0.5000000 -0.8000000 0.2500000
v -0.5000000 -0.6000000 0.2500000
v -0.5000000 -0.6000000 -0.2500000
v -0.5000000 -0.8000000 -0.2500000
v -0.5000000 -0.8000000 0.2500000
v 0.5000000 -0.6000000 -0.2500000
v 0.5000000 -0.0617300 0.0576100
v 0.5000000 -0.1000000 0.2500000
v 0.5000000 -0.6000000 0.2500000
v -0.4000000 -0.6000000 -0.2500000
v -0.5000000 -0.6000000 -0.2500000
v -0.5000000 -0.0617300 0.0576100
v -0.4000000 -0.0617300 0.0576100
v 0.5000000 -0.6000000 -0.2500000
v 0.4000000 -0.6000000 -0.2500000
v 0.4000000 -0.0617300 0.0576100
v 0.5000000 -0.0617300 0.0576100
v -0.5000000 -0.1000000 0.2500000
v -0.5000000 -0.0617300 0.0576100
v -0.5000000 -0.6000000 -0.2500000
v -0.5000000 -0.6000000 0.2500000
v 0.4000000 -0.1000000 0.2500000
v 0.4000000 -0.0617300 0.0576100
v 0.4000000 -0.6000000 -0.2500000
v 0.4000000 -0.6000000 0.2500000
v -0.4000000 -0.6000000 -0.2500000
v -0.4000000 -0.0617300 0.0576100
v -0.4000000 -0.1000000 0.2500000
v -0.4000000 -0.6000000 0.2500000
v 0.4000000 -0.6000000 0.2500000
v 0.4000000 -0.6000000 -0.2500000
v -0.4000000 -0.6000000 -0.2500000
v -0.4000000 -0.6000000 0.2500000
v -0.5000000 -0.8000000 -0.2500000
v -0.5000000 -0.6000000 -0.2500000
v 0.5000000 -0.6000000 -0.2500000
v 0.5000000 -0.8000000 -0.2500000
v 0.5000000 -0.8000000 0.2500000
v 0.5000000 -0.6000000 0.2500000
v -0.5000000 -0.6000000 0.2500000
v -0.5000000 -0.8000000 0.2500000
v 0.4000000 -0.6000000 0.2500000
v 0.5000000 -0.6000000 0.2500000
v 0.5000000 -0.1000000 0.2500000
v 0.4000000 -0.1000000 0.2500000
v -0.5000000 -0.6000000 0.2500000
v -0.4000000 -0.6000000 0.2500000
v -0.4000000 -0.1000000 0.2500000
v -0.5000000 -0.1000000 0.2500000
v 0.5000000 -0.0617300 0.2423900
v 0.5000000 -0.1000000 0.2500000
v 0.5000000 -0.1000000 0.1500000
v 0.5000000 -0.0292900 0.2207100
v 0.5000000 -0.0617300 0.2423900
v 0.5000000 -0.1000000 0.1500000
v 0.5000000 -0.0076100 0.1882700
v 0.5000000 -0.0292900 0.2207100
v 0.5000000 -0.1000000 0.1500000
v 0.5000000 -0.0000000 0.1500000
v 0.5000000 -0.0076100 0.1882700
v 0.5000000 -0.1000000 0.1500000
v 0.5000000 -0.0076100 0.1117300
v 0.5000000 -0.0000000 0.1500000
v 0.5000000 -0.1000000 0.1500000
v 0.5000000 -0.0292900 0.0792900
v 0.5000000 -0.0076100 0.1117300
v 0.5000000 -0.1000000 0.1500000
v 0.5000000 -0.0617300 0.0576100
v 0.5000000 -0.0292900 0.0792900
v 0.5000000 -0.1000000 0.1500000
v -0.5000000 -0.1000000 0.1500000
v -0.5000000 -0.1000000 0.2500000
v -0.5000000 -0.0617300 0.2423900
v -0.5000000 -0.1000000 0.1500000
v -0.5000000 -0.0617300 0.2423900
v -0.5000000 -0.0292900 0.2207100
v -0.5000000 -0.1000000 0.1500000
v -0.5000000 -0.0292900 0.2207100
v -0.5000000 -0.0076100 0.1882700
v -0.5000000 -0.1000000 0.1500000
v -0.5000000 -0.0076100 0.1882700
v -0.5000000 -0.0000000 0.1500000
v -0.5000000 -0.1000000 0.1500000
v -0.5000000 -0.0000000 0.1500000
v -0.5000000 -0.0076100 0.1117300
v -0.5000000 -0.1000000 0.1500000
v -0.5000000 -0.0076100 0.1117300
v -0.5000000 -0.0292900 0.0792900
v -0.5000000 -0.1000000 0.1500000
v -0.5000000 -0.0292900 0.0792900
v -0.5000000 -0.0617300 0.0576100
v -0.5000000 -0.0617300 0.2423900
v -0.5000000 -0.1000000 0.2500000
v -0.4000000 -0.1000000 0.2500000
v -0.4000000 -0.0617300 0.2423900
v -0.5000000 -0.0292900 0.2207100
v -0.5000000 -0.0617300 0.2423900
v -0.4000000 -0.0617300 0.2423900
v -0.4000000 -0.0292900 0.2207100
v -0.5000000 -0.0076100 0.1882700
v -0.5000000 -0.0292900 0.2207100
v -0.4000000 -0.0292900 0.2207100
v -0.4000000 -0.0076100 0.1882700
v -0.5000000 -0.0000000 0.1500000
v -0.5000000 -0.0076100 0.1882700
v -0.4000000 -0.0076100 0.1882700
v -0.4000000 -0.0000000 0.1500000
v -0.5000000 -0.0076100 0.1117300
v -0.5000000 -0.0000000 0.1500000
v -0.4000000 -0.0000000 0.1500000
v -0.4000000 -0.0076100 0.1117300
v -0.5000000 -0.0292900 0.0792900
v -0.5000000 -0.0076100 0.1117300
v -0.4000000 -0.0076100 0.1117300
v -0.4000000 -0.0292900 0.0792900
v -0.5000000 -0.0617300 0.0576100
v -0.5000000 -0.0292900 0.0792900
v -0.4000000 -0.0292900 0.0792900
v -0.4000000 -0.0617300 0.0576100
v 0.4000000 -0.0617300 0.2423900
v 0.4000000 -0.1000000 0.2500000
v 0.5000000 -0.1000000 0.2500000
v 0.5000000 -0.0617300 0.2423900
v 0.4000000 -0.0292900 0.2207100
v 0.4000000 -0.0617300 0.2423900
v 0.5000000 -0.0617300 0.2423900
v 0.5000000 -0.0292900 0.2207100
v 0.4000000 -0.0076100 0.1882700
v 0.4000000 -0.0292900 0.2207100
v 0.5000000 -0.0292900 0.2207100
v 0.5000000 -0.0076100 0.1882700
v 0.4000000 -0.0000000 0.1500000
v 0.4000000 -0.0076100 0.1882700
v 0.5000000 -0.0076100 0.1882700
v 0.5000000 -0.0000000 0.1500000
v 0.4000000 -0.0076100 0.1117300
v 0.4000000 -0.0000000 0.1500000
v 0.5000000 -0.0000000 0.1500000
v 0.5000000 -0.0076100 0.1117300
v 0.4000000 -0.0292900 0.0792900
v 0.4000000 -0.0076100 0.1117300
v 0.5000000 -0.0076100 0.1117300
v 0.5000000 -0.0292900 0.0792900
v 0.4000000 -0.0617300 0.0576100
v 0.4000000 -0.0292900 0.0792900
v 0.5000000 -0.0292900 0.0792900
v 0.5000000 -0.0617300 0.0576100
s off
f 1 2 3
f 4 5 6
f 7 8 9
f 10 11 12
f 13 14 15
f 16 17 18
f 19 20 21
f 22 23 24
f 25 26 27
f 28 29 30
f 31 32 33
f 34 35 36
f 37 38 39
f 40 41 42
f 43 44 45
f 46 47 48
f 49 50 51
f 49 51 52
f 53 54 55
f 53 55 56
f 57 58 59
f 57 59 60
f 61 62 63
f 61 63 64
f 65 66 67
f 65 67 68
f 69 70 71
f 69 71 72
f 73 74 75
f 73 75 76
f 77 78 79
f 77 79 80
f 81 82 83
f 81 83 84
f 85 86 87
f 85 87 88
f 89 90 91
f 89 91 92
f 93 94 95
f 93 95 96
f 97 98 99
f 97 99 100
f 101 102 103
f 101 103 104
f 105 106 107
f 105 107 108
f 109 110 111
f 109 111 112
f 113 114 115
f 113 115 116
f 117 118 119
f 117 119 120
f 121 122 123
f 121 123 124
f 125 126 127
f 125 127 128
f 129 130 131
f 129 131 132
f 133 134 135
f 133 135 136
f 137 138 139
f 137 139 140
f 141 142 143
f 141 143 144
f 145 146 147
f 145 147 148
f 149 150 151
f 149 151 152
f 153 154 155
f 153 155 156
f 157 158 159
f 157 159 160
f 161 162 163
f 161 163 164
f 165 166 167
f 165 167 168
f 169 170 171
f 169 171 172
f 173 174 175
f 173 175 176
f 177 178 179
f 177 179 180
f 181 182 183
f 181 183 184
f 185 186 187
f 185 187 188
f 189 190 191
f 189 191 192
f 193 194 195
f 193 195 196
f 197 198 199
f 197 199 200
f 201 202 203
f 201 203 204
f 205 206 207
f 205 207 208
f 209 210 211
f 209 211 212
f 213 214 215
f 213 215 216
f 217 218 219
f 217 219 220
f 221 222 223
f 221 223 224
f 225 226 227
f 225 227 228
f 229 230 231
f 229 231 232
f 233 234 235
f 233 235 236
f 237 238 239
f 237 239 240
f 241 242 243
f 241 243 244
f 245 246 247
f 245 247 248
f 249 250 251
f 249 251 252
f 253 254 255
f 253 255 256
f 257 258 259
f 257 259 260
f 261 262 263
f 261 263 264
f 265 266 267
f 268 269 270
f 271 272 273
f 274 275 276
f 277 278 279
f 280 281 282
f 283 284 285
f 286 287 288
f 289 290 291
f 292 293 294
f 295 296 297
f 298 299 300
f 301 302 303
f 304 305 306
f 307 308 309
f 307 309 310
f 311 312 313
f 311 313 314
f 315 316 317
f 315 317 318
f 319 320 321
f 319 321 322
f 323 324 325
f 323 325 326
f 327 328 329
f 327 329 330
f 331 332 333
f 331 333 334
f 335 336 337
f 335 337 338
f 339 340 341
f 339 341 342
f 343 344 345
f 343 345 346
f 347 348 349
f 347 349 350
f 351 352 353
f 351 353 354
f 355 356 357
f 355 357 358
f 359 360 361
f 359 361 362
