# Baked from official LDraw part 2439.dat
o ldraw_2439
v -0.0250000 -1.0750000 0.4733750
v -0.1229250 -1.0750000 0.4588000
v 0.0000000 -1.0750000 0.0000000
v -0.2583500 -1.0750000 0.3974500
v -0.3358750 -1.0750000 0.3358750
v 0.0000000 -1.0750000 0.0000000
v -0.3358750 -1.0750000 -0.3358750
v -0.2583500 -1.0750000 -0.3974500
v 0.0000000 -1.0750000 0.0000000
v -0.3358750 -1.0750000 0.3358750
v -0.3974500 -1.0750000 0.2583500
v 0.0000000 -1.0750000 0.0000000
v -0.3974500 -1.0750000 -0.2583500
v -0.3358750 -1.0750000 -0.3358750
v 0.0000000 -1.0750000 0.0000000
v -0.4224500 -1.0750000 0.2150250
v -0.4588000 -1.0750000 0.1229500
v 0.0000000 -1.0750000 0.0000000
v -0.4588000 -1.0750000 -0.1229500
v -0.4224500 -1.0750000 -0.2150250
v 0.0000000 -1.0750000 0.0000000
v -0.4588000 -1.0750000 0.1229250
v -0.4733750 -1.0750000 0.0250000
v 0.0000000 -1.0750000 0.0000000
v -0.4733750 -1.0750000 -0.0250000
v -0.4588000 -1.0750000 -0.1229250
v 0.0000000 -1.0750000 0.0000000
v -0.1229250 -1.0750000 -0.4588000
v -0.0250000 -1.0750000 -0.4733750
v 0.0000000 -1.0750000 0.0000000
v -0.1229500 -1.0750000 0.4588000
v -0.2150250 -1.0750000 0.4224500
v 0.0000000 -1.0750000 0.0000000
v -0.2150250 -1.0750000 -0.4224500
v -0.1229500 -1.0750000 -0.4588000
v 0.0000000 -1.0750000 0.0000000
v 0.0000000 -1.0750000 0.0000000
v -0.0250000 -1.0750000 -0.4733750
v 0.0250000 -1.0750000 -0.4733750
v 0.0000000 -1.0750000 0.0000000
v -0.2583500 -1.0750000 -0.3974500
v -0.2150250 -1.0750000 -0.4224500
v 0.0000000 -1.0750000 0.0000000
v -0.3974500 -1.0750000 0.2583500
v -0.4224500 -1.0750000 0.2150250
v 0.0000000 -1.0750000 0.0000000
v -0.4224500 -1.0750000 -0.2150250
v -0.3974500 -1.0750000 -0.2583500
v 0.0000000 -1.0750000 0.0000000
v -0.4733750 -1.0750000 0.0250000
v -0.4733750 -1.0750000 -0.0250000
v 0.0000000 -1.0750000 0.0000000
v -0.2150250 -1.0750000 0.4224500
v -0.2583500 -1.0750000 0.3974500
v 0.0000000 -1.0750000 0.0000000
v 0.0250000 -1.0750000 0.4733750
v -0.0250000 -1.0750000 0.4733750
v 0.0000000 -1.0750000 0.0000000
v 0.2583500 -1.0750000 0.3974500
v 0.2150250 -1.0750000 0.4224500
v 0.0000000 -1.0750000 0.0000000
v 0.3974500 -1.0750000 -0.2583500
v 0.4224500 -1.0750000 -0.2150250
v 0.0000000 -1.0750000 0.0000000
v 0.4224500 -1.0750000 0.2150250
v 0.3974500 -1.0750000 0.2583500
v 0.0000000 -1.0750000 0.0000000
v 0.4733750 -1.0750000 -0.0250000
v 0.4733750 -1.0750000 0.0250000
v 0.0000000 -1.0750000 0.0000000
v 0.2150250 -1.0750000 -0.4224500
v 0.2583500 -1.0750000 -0.3974500
v 0.0250000 -1.0750000 -0.4733750
v 0.1229250 -1.0750000 -0.4588000
v 0.0000000 -1.0750000 0.0000000
v 0.2583500 -1.0750000 -0.3974500
v 0.3358750 -1.0750000 -0.3358750
v 0.0000000 -1.0750000 0.0000000
v 0.3358750 -1.0750000 0.3358750
v 0.2583500 -1.0750000 0.3974500
v 0.0000000 -1.0750000 0.0000000
v 0.3358750 -1.0750000 -0.3358750
v 0.3974500 -1.0750000 -0.2583500
v 0.0000000 -1.0750000 0.0000000
v 0.3974500 -1.0750000 0.2583500
v 0.3358750 -1.0750000 0.3358750
v 0.0000000 -1.0750000 0.0000000
v 0.4224500 -1.0750000 -0.2150250
v 0.4588000 -1.0750000 -0.1229500
v 0.0000000 -1.0750000 0.0000000
v 0.4588000 -1.0750000 0.1229500
v 0.4224500 -1.0750000 0.2150250
v 0.0000000 -1.0750000 0.0000000
v 0.4588000 -1.0750000 -0.1229250
v 0.4733750 -1.0750000 -0.0250000
v 0.0000000 -1.0750000 0.0000000
v 0.4733750 -1.0750000 0.0250000
v 0.4588000 -1.0750000 0.1229250
v 0.0000000 -1.0750000 0.0000000
v 0.1229250 -1.0750000 0.4588000
v 0.0250000 -1.0750000 0.4733750
v 0.0000000 -1.0750000 0.0000000
v 0.1229500 -1.0750000 -0.4588000
v 0.2150250 -1.0750000 -0.4224500
v 0.0000000 -1.0750000 0.0000000
v 0.2150250 -1.0750000 0.4224500
v 0.1229500 -1.0750000 0.4588000
v 0.0000000 -1.0750000 0.0000000
v 0.0250000 -1.0750000 -0.4875000
v 0.0250000 -1.0750000 -0.4733750
v -0.0250000 -1.0750000 -0.4733750
v -0.0250000 -1.0750000 -0.4875000
v -0.2221000 -1.0750000 -0.4346750
v -0.2150250 -1.0750000 -0.4224500
v -0.2583500 -1.0750000 -0.3974500
v -0.2654000 -1.0750000 -0.4096750
v -0.4346750 -1.0750000 0.2221000
v -0.4224500 -1.0750000 0.2150250
v -0.3974500 -1.0750000 0.2583500
v -0.4096750 -1.0750000 0.2654000
v -0.4096750 -1.0750000 -0.2654000
v -0.3974500 -1.0750000 -0.2583500
v -0.4224500 -1.0750000 -0.2150250
v -0.4346750 -1.0750000 -0.2221000
v -0.4875000 -1.0750000 -0.0250000
v -0.4733750 -1.0750000 -0.0250000
v -0.4733750 -1.0750000 0.0250000
v -0.4875000 -1.0750000 0.0250000
v -0.2654000 -1.0750000 0.4096750
v -0.2583500 -1.0750000 0.3974500
v -0.2150250 -1.0750000 0.4224500
v -0.2221000 -1.0750000 0.4346750
v -0.0250000 -1.0750000 0.4875000
v -0.0250000 -1.0750000 0.4733750
v 0.0250000 -1.0750000 0.4733750
v 0.0250000 -1.0750000 0.4875000
v 0.2221000 -1.0750000 0.4346750
v 0.2150250 -1.0750000 0.4224500
v 0.2583500 -1.0750000 0.3974500
v 0.2654000 -1.0750000 0.4096750
v 0.4346750 -1.0750000 -0.2221000
v 0.4224500 -1.0750000 -0.2150250
v 0.3974500 -1.0750000 -0.2583500
v 0.4096750 -1.0750000 -0.2654000
v 0.4096750 -1.0750000 0.2654000
v 0.3974500 -1.0750000 0.2583500
v 0.4224500 -1.0750000 0.2150250
v 0.4346750 -1.0750000 0.2221000
v 0.4875000 -1.0750000 0.0250000
v 0.4733750 -1.0750000 0.0250000
v 0.4733750 -1.0750000 -0.0250000
v 0.4875000 -1.0750000 -0.0250000
v 0.2654000 -1.0750000 -0.4096750
v 0.2583500 -1.0750000 -0.3974500
v 0.2150250 -1.0750000 -0.4224500
v 0.2221000 -1.0750000 -0.4346750
v 0.1500000 -1.1750000 0.0000000
v 0.1385850 -1.1750000 0.0574050
v 0.1385850 -1.0750000 0.0574050
v 0.1500000 -1.0750000 0.0000000
v 0.1385850 -1.1750000 0.0574050
v 0.1060650 -1.1750000 0.1060650
v 0.1060650 -1.0750000 0.1060650
v 0.1385850 -1.0750000 0.0574050
v 0.1060650 -1.1750000 0.1060650
v 0.0574050 -1.1750000 0.1385850
v 0.0574050 -1.0750000 0.1385850
v 0.1060650 -1.0750000 0.1060650
v 0.0574050 -1.1750000 0.1385850
v 0.0000000 -1.1750000 0.1500000
v 0.0000000 -1.0750000 0.1500000
v 0.0574050 -1.0750000 0.1385850
v 0.0000000 -1.1750000 0.1500000
v -0.0574050 -1.1750000 0.1385850
v -0.0574050 -1.0750000 0.1385850
v 0.0000000 -1.0750000 0.1500000
v -0.0574050 -1.1750000 0.1385850
v -0.1060650 -1.1750000 0.1060650
v -0.1060650 -1.0750000 0.1060650
v -0.0574050 -1.0750000 0.1385850
v -0.1060650 -1.1750000 0.1060650
v -0.1385850 -1.1750000 0.0574050
v -0.1385850 -1.0750000 0.0574050
v -0.1060650 -1.0750000 0.1060650
v -0.1385850 -1.1750000 0.0574050
v -0.1500000 -1.1750000 0.0000000
v -0.1500000 -1.0750000 0.0000000
v -0.1385850 -1.0750000 0.0574050
v -0.1500000 -1.1750000 0.0000000
v -0.1385850 -1.1750000 -0.0574050
v -0.1385850 -1.0750000 -0.0574050
v -0.1500000 -1.0750000 0.0000000
v -0.1385850 -1.1750000 -0.0574050
v -0.1060650 -1.1750000 -0.1060650
v -0.1060650 -1.0750000 -0.1060650
v -0.1385850 -1.0750000 -0.0574050
v -0.1060650 -1.1750000 -0.1060650
v -0.0574050 -1.1750000 -0.1385850
v -0.0574050 -1.0750000 -0.1385850
v -0.1060650 -1.0750000 -0.1060650
v -0.0574050 -1.1750000 -0.1385850
v 0.0000000 -1.1750000 -0.1500000
v 0.0000000 -1.0750000 -0.1500000
v -0.0574050 -1.0750000 -0.1385850
v 0.0000000 -1.1750000 -0.1500000
v 0.0574050 -1.1750000 -0.1385850
v 0.0574050 -1.0750000 -0.1385850
v 0.0000000 -1.0750000 -0.1500000
v 0.0574050 -1.1750000 -0.1385850
v 0.1060650 -1.1750000 -0.1060650
v 0.1060650 -1.0750000 -0.1060650
v 0.0574050 -1.0750000 -0.1385850
v 0.1060650 -1.1750000 -0.1060650
v 0.1385850 -1.1750000 -0.0574050
v 0.1385850 -1.0750000 -0.0574050
v 0.1060650 -1.0750000 -0.1060650
v 0.1385850 -1.1750000 -0.0574050
v 0.1500000 -1.1750000 0.0000000
v 0.1500000 -1.0750000 0.0000000
v 0.1385850 -1.0750000 -0.0574050
v 0.2000000 -1.0750000 0.0000000
v 0.1847800 -1.0750000 0.0765400
v 0.1847800 -1.1750000 0.0765400
v 0.2000000 -1.1750000 0.0000000
v 0.1847800 -1.0750000 0.0765400
v 0.1414200 -1.0750000 0.1414200
v 0.1414200 -1.1750000 0.1414200
v 0.1847800 -1.1750000 0.0765400
v 0.1414200 -1.0750000 0.1414200
v 0.0765400 -1.0750000 0.1847800
v 0.0765400 -1.1750000 0.1847800
v 0.1414200 -1.1750000 0.1414200
v 0.0765400 -1.0750000 0.1847800
v 0.0000000 -1.0750000 0.2000000
v 0.0000000 -1.1750000 0.2000000
v 0.0765400 -1.1750000 0.1847800
v 0.0000000 -1.0750000 0.2000000
v -0.0765400 -1.0750000 0.1847800
v -0.0765400 -1.1750000 0.1847800
v 0.0000000 -1.1750000 0.2000000
v -0.0765400 -1.0750000 0.1847800
v -0.1414200 -1.0750000 0.1414200
v -0.1414200 -1.1750000 0.1414200
v -0.0765400 -1.1750000 0.1847800
v -0.1414200 -1.0750000 0.1414200
v -0.1847800 -1.0750000 0.0765400
v -0.1847800 -1.1750000 0.0765400
v -0.1414200 -1.1750000 0.1414200
v -0.1847800 -1.0750000 0.0765400
v -0.2000000 -1.0750000 0.0000000
v -0.2000000 -1.1750000 0.0000000
v -0.1847800 -1.1750000 0.0765400
v -0.2000000 -1.0750000 0.0000000
v -0.1847800 -1.0750000 -0.0765400
v -0.1847800 -1.1750000 -0.0765400
v -0.2000000 -1.1750000 0.0000000
v -0.1847800 -1.0750000 -0.0765400
v -0.1414200 -1.0750000 -0.1414200
v -0.1414200 -1.1750000 -0.1414200
v -0.1847800 -1.1750000 -0.0765400
v -0.1414200 -1.0750000 -0.1414200
v -0.0765400 -1.0750000 -0.1847800
v -0.0765400 -1.1750000 -0.1847800
v -0.1414200 -1.1750000 -0.1414200
v -0.0765400 -1.0750000 -0.1847800
v 0.0000000 -1.0750000 -0.2000000
v 0.0000000 -1.1750000 -0.2000000
v -0.0765400 -1.1750000 -0.1847800
v 0.0000000 -1.0750000 -0.2000000
v 0.0765400 -1.0750000 -0.1847800
v 0.0765400 -1.1750000 -0.1847800
v 0.0000000 -1.1750000 -0.2000000
v 0.0765400 -1.0750000 -0.1847800
v 0.1414200 -1.0750000 -0.1414200
v 0.1414200 -1.1750000 -0.1414200
v 0.0765400 -1.1750000 -0.1847800
v 0.1414200 -1.0750000 -0.1414200
v 0.1847800 -1.0750000 -0.0765400
v 0.1847800 -1.1750000 -0.0765400
v 0.1414200 -1.1750000 -0.1414200
v 0.1847800 -1.0750000 -0.0765400
v 0.2000000 -1.0750000 0.0000000
v 0.2000000 -1.1750000 0.0000000
v 0.1847800 -1.1750000 -0.0765400
v -0.0765400 -1.1750000 0.1847800
v -0.0574050 -1.1750000 0.1385850
v 0.0000000 -1.1750000 0.1500000
v 0.0000000 -1.1750000 0.2000000
v -0.1414200 -1.1750000 0.1414200
v -0.1060650 -1.1750000 0.1060650
v -0.0574050 -1.1750000 0.1385850
v -0.0765400 -1.1750000 0.1847800
v -0.1847800 -1.1750000 0.0765400
v -0.1385850 -1.1750000 0.0574050
v -0.1060650 -1.1750000 0.1060650
v -0.1414200 -1.1750000 0.1414200
v -0.2000000 -1.1750000 0.0000000
v -0.1500000 -1.1750000 0.0000000
v -0.1385850 -1.1750000 0.0574050
v -0.1847800 -1.1750000 0.0765400
v -0.1847800 -1.1750000 -0.0765400
v -0.1385850 -1.1750000 -0.0574050
v -0.1500000 -1.1750000 0.0000000
v -0.2000000 -1.1750000 0.0000000
v -0.1414200 -1.1750000 -0.1414200
v -0.1060650 -1.1750000 -0.1060650
v -0.1385850 -1.1750000 -0.0574050
v -0.1847800 -1.1750000 -0.0765400
v -0.0765400 -1.1750000 -0.1847800
v -0.0574050 -1.1750000 -0.1385850
v -0.1060650 -1.1750000 -0.1060650
v -0.1414200 -1.1750000 -0.1414200
v 0.0000000 -1.1750000 -0.2000000
v 0.0000000 -1.1750000 -0.1500000
v -0.0574050 -1.1750000 -0.1385850
v -0.0765400 -1.1750000 -0.1847800
v 0.0765400 -1.1750000 -0.1847800
v 0.0574050 -1.1750000 -0.1385850
v 0.0000000 -1.1750000 -0.1500000
v 0.0000000 -1.1750000 -0.2000000
v 0.1414200 -1.1750000 -0.1414200
v 0.1060650 -1.1750000 -0.1060650
v 0.0574050 -1.1750000 -0.1385850
v 0.0765400 -1.1750000 -0.1847800
v 0.1847800 -1.1750000 -0.0765400
v 0.1385850 -1.1750000 -0.0574050
v 0.1060650 -1.1750000 -0.1060650
v 0.1414200 -1.1750000 -0.1414200
v 0.2000000 -1.1750000 0.0000000
v 0.1500000 -1.1750000 0.0000000
v 0.1385850 -1.1750000 -0.0574050
v 0.1847800 -1.1750000 -0.0765400
v 0.1847800 -1.1750000 0.0765400
v 0.1385850 -1.1750000 0.0574050
v 0.1500000 -1.1750000 0.0000000
v 0.2000000 -1.1750000 0.0000000
v 0.1414200 -1.1750000 0.1414200
v 0.1060650 -1.1750000 0.1060650
v 0.1385850 -1.1750000 0.0574050
v 0.1847800 -1.1750000 0.0765400
v 0.0765400 -1.1750000 0.1847800
v 0.0574050 -1.1750000 0.1385850
v 0.1060650 -1.1750000 0.1060650
v 0.1414200 -1.1750000 0.1414200
v 0.0000000 -1.1750000 0.2000000
v 0.0000000 -1.1750000 0.1500000
v 0.0574050 -1.1750000 0.1385850
v 0.0765400 -1.1750000 0.1847800
v -0.4000000 -1.2000000 0.1197000
v -0.4000000 -1.2000000 -0.1197000
v -0.4000000 -1.0750000 -0.1197000
v -0.4000000 -1.0750000 0.1197000
v -0.4467250 -1.0750000 -0.1197000
v -0.4000000 -1.0750000 -0.1197000
v -0.4000000 -1.2000000 -0.1197000
v -0.4467250 -1.2000000 -0.1197000
v -0.4000000 -1.2000000 -0.1197000
v -0.4000000 -1.2000000 0.0000000
v -0.4625000 -1.2000000 0.0000000
v -0.4467250 -1.2000000 -0.1197000
v -0.4467250 -1.2000000 -0.1197000
v -0.4625000 -1.2000000 0.0000000
v -0.4625000 -1.0750000 0.0000000
v -0.4467250 -1.0750000 -0.1197000
v -0.4467250 -1.2000000 0.1197000
v -0.4000000 -1.2000000 0.1197000
v -0.4000000 -1.0750000 0.1197000
v -0.4467250 -1.0750000 0.1197000
v -0.4467250 -1.2000000 0.1197000
v -0.4625000 -1.2000000 0.0000000
v -0.4000000 -1.2000000 0.0000000
v -0.4000000 -1.2000000 0.1197000
v -0.4467250 -1.0750000 0.1197000
v -0.4625000 -1.0750000 0.0000000
v -0.4625000 -1.2000000 0.0000000
v -0.4467250 -1.2000000 0.1197000
v -0.1197000 -1.2000000 -0.4467250
v -0.1197000 -1.2000000 -0.4000000
v -0.1197000 -1.0750000 -0.4000000
v -0.1197000 -1.0750000 -0.4467250
v -0.1197000 -1.0750000 -0.4467250
v 0.0000000 -1.0750000 -0.4625000
v 0.0000000 -1.2000000 -0.4625000
v -0.1197000 -1.2000000 -0.4467250
v -0.1197000 -1.2000000 -0.4467250
v 0.0000000 -1.2000000 -0.4625000
v 0.0000000 -1.2000000 -0.4000000
v -0.1197000 -1.2000000 -0.4000000
v -0.1197000 -1.0750000 0.4000000
v 0.1197000 -1.0750000 0.4000000
v 0.1197000 -1.2000000 0.4000000
v -0.1197000 -1.2000000 0.4000000
v -0.1197000 -1.0750000 0.4467250
v -0.1197000 -1.0750000 0.4000000
v -0.1197000 -1.2000000 0.4000000
v -0.1197000 -1.2000000 0.4467250
v -0.1197000 -1.2000000 0.4467250
v 0.0000000 -1.2000000 0.4625000
v 0.0000000 -1.0750000 0.4625000
v -0.1197000 -1.0750000 0.4467250
v -0.1197000 -1.2000000 0.4000000
v 0.0000000 -1.2000000 0.4000000
v 0.0000000 -1.2000000 0.4625000
v -0.1197000 -1.2000000 0.4467250
v 0.4000000 -1.2000000 -0.1197000
v 0.4000000 -1.2000000 0.1197000
v 0.4000000 -1.0750000 0.1197000
v 0.4000000 -1.0750000 -0.1197000
v 0.4467250 -1.2000000 -0.1197000
v 0.4000000 -1.2000000 -0.1197000
v 0.4000000 -1.0750000 -0.1197000
v 0.4467250 -1.0750000 -0.1197000
v 0.4467250 -1.2000000 -0.1197000
v 0.4625000 -1.2000000 0.0000000
v 0.4000000 -1.2000000 0.0000000
v 0.4000000 -1.2000000 -0.1197000
v 0.4467250 -1.0750000 -0.1197000
v 0.4625000 -1.0750000 0.0000000
v 0.4625000 -1.2000000 0.0000000
v 0.4467250 -1.2000000 -0.1197000
v 0.4467250 -1.0750000 0.1197000
v 0.4000000 -1.0750000 0.1197000
v 0.4000000 -1.2000000 0.1197000
v 0.4467250 -1.2000000 0.1197000
v 0.4000000 -1.2000000 0.1197000
v 0.4000000 -1.2000000 0.0000000
v 0.4625000 -1.2000000 0.0000000
v 0.4467250 -1.2000000 0.1197000
v 0.4467250 -1.2000000 0.1197000
v 0.4625000 -1.2000000 0.0000000
v 0.4625000 -1.0750000 0.0000000
v 0.4467250 -1.0750000 0.1197000
v 0.1197000 -1.0750000 -0.4000000
v -0.1197000 -1.0750000 -0.4000000
v -0.1197000 -1.2000000 -0.4000000
v 0.1197000 -1.2000000 -0.4000000
v 0.1197000 -1.2000000 -0.4467250
v 0.0000000 -1.2000000 -0.4625000
v 0.0000000 -1.0750000 -0.4625000
v 0.1197000 -1.0750000 -0.4467250
v 0.1197000 -1.2000000 -0.4000000
v 0.0000000 -1.2000000 -0.4000000
v 0.0000000 -1.2000000 -0.4625000
v 0.1197000 -1.2000000 -0.4467250
v 0.1197000 -1.0750000 -0.4467250
v 0.1197000 -1.0750000 -0.4000000
v 0.1197000 -1.2000000 -0.4000000
v 0.1197000 -1.2000000 -0.4467250
v 0.1197000 -1.0750000 0.4467250
v 0.0000000 -1.0750000 0.4625000
v 0.0000000 -1.2000000 0.4625000
v 0.1197000 -1.2000000 0.4467250
v 0.1197000 -1.2000000 0.4467250
v 0.0000000 -1.2000000 0.4625000
v 0.0000000 -1.2000000 0.4000000
v 0.1197000 -1.2000000 0.4000000
v 0.1197000 -1.2000000 0.4467250
v 0.1197000 -1.2000000 0.4000000
v 0.1197000 -1.0750000 0.4000000
v 0.1197000 -1.0750000 0.4467250
v -0.3005000 -1.0000000 -0.3005250
v -0.2125000 -1.0000000 -0.3680500
v -0.2125000 -0.0000000 -0.3680500
v -0.3005000 -0.0000000 -0.3005250
v -0.3005250 -1.0000000 0.3005000
v -0.3680500 -1.0000000 0.2125000
v -0.3680500 -0.0000000 0.2125000
v -0.3005250 -0.0000000 0.3005000
v -0.3680500 -1.0000000 -0.2125000
v -0.3005250 -1.0000000 -0.3005000
v -0.3005250 -0.0000000 -0.3005000
v -0.3680500 -0.0000000 -0.2125000
v -0.3680500 -1.0000000 0.2125000
v -0.4105000 -1.0000000 0.1100000
v -0.4105000 -0.0000000 0.1100000
v -0.3680500 -0.0000000 0.2125000
v -0.4105000 -1.0000000 -0.1100000
v -0.3680500 -1.0000000 -0.2125000
v -0.3680500 -0.0000000 -0.2125000
v -0.4105000 -0.0000000 -0.1100000
v -0.4105250 -1.0000000 0.1100000
v -0.4250000 -1.0000000 0.0000000
v -0.4250000 -0.0000000 0.0000000
v -0.4105250 -0.0000000 0.1100000
v -0.4250000 -1.0000000 0.0000000
v -0.4105250 -1.0000000 -0.1100000
v -0.4105250 -0.0000000 -0.1100000
v -0.4250000 -0.0000000 0.0000000
v -0.1100000 -1.0000000 -0.4105250
v 0.0000000 -1.0000000 -0.4250000
v 0.0000000 -0.0000000 -0.4250000
v -0.1100000 -0.0000000 -0.4105250
v -0.1100000 -1.0000000 0.4105000
v -0.2125000 -1.0000000 0.3680500
v -0.2125000 -0.0000000 0.3680500
v -0.1100000 -0.0000000 0.4105000
v -0.2125000 -1.0000000 0.3680500
v -0.3005000 -1.0000000 0.3005250
v -0.3005000 -0.0000000 0.3005250
v -0.2125000 -0.0000000 0.3680500
v -0.2125000 -1.0000000 -0.3680500
v -0.1100000 -1.0000000 -0.4105000
v -0.1100000 -0.0000000 -0.4105000
v -0.2125000 -0.0000000 -0.3680500
v 0.0000000 -1.0000000 -0.4250000
v 0.1100000 -1.0000000 -0.4105250
v 0.1100000 -0.0000000 -0.4105250
v 0.0000000 -0.0000000 -0.4250000
v 0.0000000 -1.0000000 0.4250000
v -0.1100000 -1.0000000 0.4105250
v -0.1100000 -0.0000000 0.4105250
v 0.0000000 -0.0000000 0.4250000
v 0.3005000 -1.0000000 0.3005250
v 0.2125000 -1.0000000 0.3680500
v 0.2125000 -0.0000000 0.3680500
v 0.3005000 -0.0000000 0.3005250
v 0.3005250 -1.0000000 -0.3005000
v 0.3680500 -1.0000000 -0.2125000
v 0.3680500 -0.0000000 -0.2125000
v 0.3005250 -0.0000000 -0.3005000
v 0.3680500 -1.0000000 -0.2125000
v 0.4105000 -1.0000000 -0.1100000
v 0.4105000 -0.0000000 -0.1100000
v 0.3680500 -0.0000000 -0.2125000
v 0.3680500 -1.0000000 0.2125000
v 0.3005250 -1.0000000 0.3005000
v 0.3005250 -0.0000000 0.3005000
v 0.3680500 -0.0000000 0.2125000
v 0.4105000 -1.0000000 0.1100000
v 0.3680500 -1.0000000 0.2125000
v 0.3680500 -0.0000000 0.2125000
v 0.4105000 -0.0000000 0.1100000
v 0.4105250 -1.0000000 -0.1100000
v 0.4250000 -1.0000000 0.0000000
v 0.4250000 -0.0000000 0.0000000
v 0.4105250 -0.0000000 -0.1100000
v 0.4250000 -1.0000000 0.0000000
v 0.4105250 -1.0000000 0.1100000
v 0.4105250 -0.0000000 0.1100000
v 0.4250000 -0.0000000 0.0000000
v 0.1100000 -1.0000000 0.4105250
v 0.0000000 -1.0000000 0.4250000
v 0.0000000 -0.0000000 0.4250000
v 0.1100000 -0.0000000 0.4105250
v 0.1100000 -1.0000000 -0.4105000
v 0.2125000 -1.0000000 -0.3680500
v 0.2125000 -0.0000000 -0.3680500
v 0.1100000 -0.0000000 -0.4105000
v 0.2125000 -1.0000000 -0.3680500
v 0.3005000 -1.0000000 -0.3005250
v 0.3005000 -0.0000000 -0.3005250
v 0.2125000 -0.0000000 -0.3680500
v 0.2125000 -1.0000000 0.3680500
v 0.1100000 -1.0000000 0.4105000
v 0.1100000 -0.0000000 0.4105000
v 0.2125000 -0.0000000 0.3680500
v 0.0000000 -1.0000000 0.0000000
v -0.2125000 -1.0000000 -0.3680500
v -0.3005000 -1.0000000 -0.3005250
v -0.3005000 -1.0000000 0.3005250
v -0.2125000 -1.0000000 0.3680500
v 0.0000000 -1.0000000 0.0000000
v -0.3005250 -1.0000000 -0.3005000
v -0.3680500 -1.0000000 -0.2125000
v 0.0000000 -1.0000000 0.0000000
v 0.0000000 -1.0000000 0.0000000
v -0.3680500 -1.0000000 0.2125000
v -0.3005250 -1.0000000 0.3005000
v 0.0000000 -1.0000000 0.0000000
v -0.3680500 -1.0000000 -0.2125000
v -0.4105000 -1.0000000 -0.1100000
v -0.4105000 -1.0000000 0.1100000
v -0.3680500 -1.0000000 0.2125000
v 0.0000000 -1.0000000 0.0000000
v -0.4105250 -1.0000000 -0.1100000
v -0.4250000 -1.0000000 0.0000000
v 0.0000000 -1.0000000 0.0000000
v 0.0000000 -1.0000000 0.0000000
v -0.4250000 -1.0000000 0.0000000
v -0.4105250 -1.0000000 0.1100000
v 0.0000000 -1.0000000 0.0000000
v 0.0000000 -1.0000000 -0.4250000
v -0.1100000 -1.0000000 -0.4105250
v -0.1100000 -1.0000000 0.4105250
v 0.0000000 -1.0000000 0.4250000
v 0.0000000 -1.0000000 0.0000000
v 0.0000000 -1.0000000 0.0000000
v -0.2125000 -1.0000000 0.3680500
v -0.1100000 -1.0000000 0.4105000
v -0.1100000 -1.0000000 -0.4105000
v -0.2125000 -1.0000000 -0.3680500
v 0.0000000 -1.0000000 0.0000000
v 0.3005000 -1.0000000 -0.3005250
v 0.2125000 -1.0000000 -0.3680500
v 0.0000000 -1.0000000 0.0000000
v 0.0000000 -1.0000000 0.0000000
v 0.2125000 -1.0000000 0.3680500
v 0.3005000 -1.0000000 0.3005250
v 0.0000000 -1.0000000 0.0000000
v 0.3680500 -1.0000000 -0.2125000
v 0.3005250 -1.0000000 -0.3005000
v 0.3005250 -1.0000000 0.3005000
v 0.3680500 -1.0000000 0.2125000
v 0.0000000 -1.0000000 0.0000000
v 0.4105000 -1.0000000 -0.1100000
v 0.3680500 -1.0000000 -0.2125000
v 0.0000000 -1.0000000 0.0000000
v 0.0000000 -1.0000000 0.0000000
v 0.3680500 -1.0000000 0.2125000
v 0.4105000 -1.0000000 0.1100000
v 0.0000000 -1.0000000 0.0000000
v 0.4250000 -1.0000000 0.0000000
v 0.4105250 -1.0000000 -0.1100000
v 0.4105250 -1.0000000 0.1100000
v 0.4250000 -1.0000000 0.0000000
v 0.0000000 -1.0000000 0.0000000
v 0.1100000 -1.0000000 -0.4105250
v 0.0000000 -1.0000000 -0.4250000
v 0.0000000 -1.0000000 0.0000000
v 0.0000000 -1.0000000 0.0000000
v 0.0000000 -1.0000000 0.4250000
v 0.1100000 -1.0000000 0.4105250
v 0.0000000 -1.0000000 0.0000000
v 0.2125000 -1.0000000 -0.3680500
v 0.1100000 -1.0000000 -0.4105000
v 0.1100000 -1.0000000 0.4105000
v 0.2125000 -1.0000000 0.3680500
v 0.0000000 -1.0000000 0.0000000
v -0.2125000 -0.0000000 -0.3680500
v -0.2150250 -0.0000000 -0.4224500
v -0.2583500 -0.0000000 -0.3974500
v -0.2583500 -0.0000000 0.3974500
v -0.2150250 -0.0000000 0.4224500
v -0.2125000 -0.0000000 0.3680500
v 0.0000000 -0.0000000 -0.4250000
v 0.0250000 -0.0000000 -0.4733750
v -0.0250000 -0.0000000 -0.4733750
v -0.0250000 -0.0000000 0.4733750
v 0.0250000 -0.0000000 0.4733750
v 0.0000000 -0.0000000 0.4250000
v 0.2125000 -0.0000000 -0.3680500
v 0.2583500 -0.0000000 -0.3974500
v 0.2150250 -0.0000000 -0.4224500
v 0.2150250 -0.0000000 0.4224500
v 0.2583500 -0.0000000 0.3974500
v 0.2125000 -0.0000000 0.3680500
v -0.0250000 -0.0000000 -0.4733750
v -0.1229250 -0.0000000 -0.4588000
v -0.1100000 -0.0000000 -0.4105250
v 0.0000000 -0.0000000 -0.4250000
v 0.0000000 -0.0000000 0.4250000
v -0.1100000 -0.0000000 0.4105250
v -0.1229250 -0.0000000 0.4588000
v -0.0250000 -0.0000000 0.4733750
v -0.2583500 -0.0000000 -0.3974500
v -0.3358750 -0.0000000 -0.3358750
v -0.3005000 -0.0000000 -0.3005250
v -0.2125000 -0.0000000 -0.3680500
v -0.2125000 -0.0000000 0.3680500
v -0.3005000 -0.0000000 0.3005250
v -0.3358750 -0.0000000 0.3358750
v -0.2583500 -0.0000000 0.3974500
v -0.1229500 -0.0000000 -0.4588000
v -0.2150250 -0.0000000 -0.4224500
v -0.2125000 -0.0000000 -0.3680500
v -0.1100000 -0.0000000 -0.4105000
v -0.1100000 -0.0000000 0.4105000
v -0.2125000 -0.0000000 0.3680500
v -0.2150250 -0.0000000 0.4224500
v -0.1229500 -0.0000000 0.4588000
v -0.2654000 -0.0000000 -0.4096750
v -0.2583500 -0.0000000 -0.3974500
v -0.2150250 -0.0000000 -0.4224500
v -0.2221000 -0.0000000 -0.4346750
v -0.2221000 -0.0000000 0.4346750
v -0.2150250 -0.0000000 0.4224500
v -0.2583500 -0.0000000 0.3974500
v -0.2654000 -0.0000000 0.4096750
v -0.0250000 -0.0000000 -0.4875000
v -0.0250000 -0.0000000 -0.4733750
v 0.0250000 -0.0000000 -0.4733750
v 0.0250000 -0.0000000 -0.4875000
v 0.0250000 -0.0000000 0.4875000
v 0.0250000 -0.0000000 0.4733750
v -0.0250000 -0.0000000 0.4733750
v -0.0250000 -0.0000000 0.4875000
v 0.2221000 -0.0000000 -0.4346750
v 0.2150250 -0.0000000 -0.4224500
v 0.2583500 -0.0000000 -0.3974500
v 0.2654000 -0.0000000 -0.4096750
v 0.2654000 -0.0000000 0.4096750
v 0.2583500 -0.0000000 0.3974500
v 0.2150250 -0.0000000 0.4224500
v 0.2221000 -0.0000000 0.4346750
v 0.3358750 -0.0000000 -0.3358750
v 0.2583500 -0.0000000 -0.3974500
v 0.2125000 -0.0000000 -0.3680500
v 0.3005000 -0.0000000 -0.3005250
v 0.3005000 -0.0000000 0.3005250
v 0.2125000 -0.0000000 0.3680500
v 0.2583500 -0.0000000 0.3974500
v 0.3358750 -0.0000000 0.3358750
v 0.1229250 -0.0000000 -0.4588000
v 0.0250000 -0.0000000 -0.4733750
v 0.0000000 -0.0000000 -0.4250000
v 0.1100000 -0.0000000 -0.4105250
v 0.1100000 -0.0000000 0.4105250
v 0.0000000 -0.0000000 0.4250000
v 0.0250000 -0.0000000 0.4733750
v 0.1229250 -0.0000000 0.4588000
v 0.2150250 -0.0000000 -0.4224500
v 0.1229500 -0.0000000 -0.4588000
v 0.1100000 -0.0000000 -0.4105000
v 0.2125000 -0.0000000 -0.3680500
v 0.2125000 -0.0000000 0.3680500
v 0.1100000 -0.0000000 0.4105000
v 0.1229500 -0.0000000 0.4588000
v 0.2150250 -0.0000000 0.4224500
v -0.0250000 -1.0750000 -0.4733750
v -0.1229250 -1.0750000 -0.4588000
v -0.1229250 -0.0000000 -0.4588000
v -0.0250000 -0.0000000 -0.4733750
v -0.0250000 -1.0750000 -0.4875000
v -0.0250000 -1.0750000 -0.4733750
v -0.0250000 -0.0000000 -0.4733750
v -0.0250000 -0.0000000 -0.4875000
v -0.0250000 -0.0000000 -0.4875000
v 0.0250000 -0.0000000 -0.4875000
v 0.0250000 -1.0750000 -0.4875000
v -0.0250000 -1.0750000 -0.4875000
v -0.0250000 -0.0000000 0.4733750
v -0.1229250 -0.0000000 0.4588000
v -0.1229250 -1.0750000 0.4588000
v -0.0250000 -1.0750000 0.4733750
v -0.0250000 -0.0000000 0.4875000
v -0.0250000 -0.0000000 0.4733750
v -0.0250000 -1.0750000 0.4733750
v -0.0250000 -1.0750000 0.4875000
v -0.0250000 -1.0750000 0.4875000
v 0.0250000 -1.0750000 0.4875000
v 0.0250000 -0.0000000 0.4875000
v -0.0250000 -0.0000000 0.4875000
v -0.2583500 -1.0750000 -0.3974500
v -0.3358750 -1.0750000 -0.3358750
v -0.3358750 -0.0000000 -0.3358750
v -0.2583500 -0.0000000 -0.3974500
v -0.2583500 -0.0000000 0.3974500
v -0.3358750 -0.0000000 0.3358750
v -0.3358750 -1.0750000 0.3358750
v -0.2583500 -1.0750000 0.3974500
v -0.2654000 -1.0750000 -0.4096750
v -0.2583500 -1.0750000 -0.3974500
v -0.2583500 -0.0000000 -0.3974500
v -0.2654000 -0.0000000 -0.4096750
v -0.2654000 -0.0000000 -0.4096750
v -0.2221000 -0.0000000 -0.4346750
v -0.2221000 -1.0750000 -0.4346750
v -0.2654000 -1.0750000 -0.4096750
v -0.2654000 -0.0000000 0.4096750
v -0.2583500 -0.0000000 0.3974500
v -0.2583500 -1.0750000 0.3974500
v -0.2654000 -1.0750000 0.4096750
v -0.2654000 -1.0750000 0.4096750
v -0.2221000 -1.0750000 0.4346750
v -0.2221000 -0.0000000 0.4346750
v -0.2654000 -0.0000000 0.4096750
v -0.3358750 -1.0750000 -0.3358750
v -0.3974500 -1.0750000 -0.2583500
v -0.3974500 -0.3000000 -0.2583500
v -0.3358750 -0.3000000 -0.3358750
v -0.3974500 -1.0750000 0.2583500
v -0.3358750 -1.0750000 0.3358750
v -0.3358750 -0.3000000 0.3358750
v -0.3974500 -0.3000000 0.2583500
v -0.4096750 -0.3000000 -0.2654000
v -0.3974500 -0.3000000 -0.2583500
v -0.3974500 -1.0750000 -0.2583500
v -0.4096750 -1.0750000 -0.2654000
v -0.4096750 -1.0750000 0.2654000
v -0.3974500 -1.0750000 0.2583500
v -0.3974500 -0.3000000 0.2583500
v -0.4096750 -0.3000000 0.2654000
v -0.4096750 -0.3000000 0.2654000
v -0.4346750 -0.3000000 0.2221000
v -0.4346750 -1.0750000 0.2221000
v -0.4096750 -1.0750000 0.2654000
v -0.4224500 -1.0750000 -0.2150250
v -0.4588000 -1.0750000 -0.1229500
v -0.4588000 -0.3000000 -0.1229500
v -0.4224500 -0.3000000 -0.2150250
v -0.4346750 -0.3000000 -0.2221000
v -0.4096750 -0.3000000 -0.2654000
v -0.4096750 -1.0750000 -0.2654000
v -0.4346750 -1.0750000 -0.2221000
v -0.4346750 -1.0750000 -0.2221000
v -0.4224500 -1.0750000 -0.2150250
v -0.4224500 -0.3000000 -0.2150250
v -0.4346750 -0.3000000 -0.2221000
v -0.4346750 -0.3000000 0.2221000
v -0.4224500 -0.3000000 0.2150250
v -0.4224500 -1.0750000 0.2150250
v -0.4346750 -1.0750000 0.2221000
v -0.4588000 -1.0750000 0.1229500
v -0.4224500 -1.0750000 0.2150250
v -0.4224500 -0.3000000 0.2150250
v -0.4588000 -0.3000000 0.1229500
v -0.4588000 -1.0750000 -0.1229250
v -0.4733750 -1.0750000 -0.0250000
v -0.4733750 -0.3000000 -0.0250000
v -0.4588000 -0.3000000 -0.1229250
v -0.4733750 -1.0750000 0.0250000
v -0.4588000 -1.0750000 0.1229250
v -0.4588000 -0.3000000 0.1229250
v -0.4733750 -0.3000000 0.0250000
v -0.4875000 -0.3000000 -0.0250000
v -0.4733750 -0.3000000 -0.0250000
v -0.4733750 -1.0750000 -0.0250000
v -0.4875000 -1.0750000 -0.0250000
v -0.4875000 -1.0750000 0.0250000
v -0.4733750 -1.0750000 0.0250000
v -0.4733750 -0.3000000 0.0250000
v -0.4875000 -0.3000000 0.0250000
v -0.4875000 -0.3000000 0.0250000
v -0.4875000 -0.3000000 -0.0250000
v -0.4875000 -1.0750000 -0.0250000
v -0.4875000 -1.0750000 0.0250000
v -0.1229500 -1.0750000 -0.4588000
v -0.2150250 -1.0750000 -0.4224500
v -0.2150250 -0.0000000 -0.4224500
v -0.1229500 -0.0000000 -0.4588000
v -0.1229500 -0.0000000 0.4588000
v -0.2150250 -0.0000000 0.4224500
v -0.2150250 -1.0750000 0.4224500
v -0.1229500 -1.0750000 0.4588000
v -0.2221000 -0.0000000 -0.4346750
v -0.2150250 -0.0000000 -0.4224500
v -0.2150250 -1.0750000 -0.4224500
v -0.2221000 -1.0750000 -0.4346750
v -0.2221000 -1.0750000 0.4346750
v -0.2150250 -1.0750000 0.4224500
v -0.2150250 -0.0000000 0.4224500
v -0.2221000 -0.0000000 0.4346750
v 0.0250000 -0.0000000 -0.4875000
v 0.0250000 -0.0000000 -0.4733750
v 0.0250000 -1.0750000 -0.4733750
v 0.0250000 -1.0750000 -0.4875000
v 0.0250000 -1.0750000 0.4875000
v 0.0250000 -1.0750000 0.4733750
v 0.0250000 -0.0000000 0.4733750
v 0.0250000 -0.0000000 0.4875000
v 0.2654000 -0.0000000 -0.4096750
v 0.2583500 -0.0000000 -0.3974500
v 0.2583500 -1.0750000 -0.3974500
v 0.2654000 -1.0750000 -0.4096750
v 0.2654000 -1.0750000 0.4096750
v 0.2583500 -1.0750000 0.3974500
v 0.2583500 -0.0000000 0.3974500
v 0.2654000 -0.0000000 0.4096750
v 0.3358750 -1.0750000 -0.3358750
v 0.2583500 -1.0750000 -0.3974500
v 0.2583500 -0.0000000 -0.3974500
v 0.3358750 -0.0000000 -0.3358750
v 0.3358750 -0.0000000 0.3358750
v 0.2583500 -0.0000000 0.3974500
v 0.2583500 -1.0750000 0.3974500
v 0.3358750 -1.0750000 0.3358750
v 0.3358750 -0.3000000 -0.3358750
v 0.3974500 -0.3000000 -0.2583500
v 0.3974500 -1.0750000 -0.2583500
v 0.3358750 -1.0750000 -0.3358750
v 0.3974500 -0.3000000 0.2583500
v 0.3358750 -0.3000000 0.3358750
v 0.3358750 -1.0750000 0.3358750
v 0.3974500 -1.0750000 0.2583500
v 0.4096750 -1.0750000 -0.2654000
v 0.3974500 -1.0750000 -0.2583500
v 0.3974500 -0.3000000 -0.2583500
v 0.4096750 -0.3000000 -0.2654000
v 0.4096750 -0.3000000 0.2654000
v 0.3974500 -0.3000000 0.2583500
v 0.3974500 -1.0750000 0.2583500
v 0.4096750 -1.0750000 0.2654000
v 0.4096750 -1.0750000 0.2654000
v 0.4346750 -1.0750000 0.2221000
v 0.4346750 -0.3000000 0.2221000
v 0.4096750 -0.3000000 0.2654000
v 0.4224500 -0.3000000 -0.2150250
v 0.4588000 -0.3000000 -0.1229500
v 0.4588000 -1.0750000 -0.1229500
v 0.4224500 -1.0750000 -0.2150250
v 0.4346750 -1.0750000 -0.2221000
v 0.4096750 -1.0750000 -0.2654000
v 0.4096750 -0.3000000 -0.2654000
v 0.4346750 -0.3000000 -0.2221000
v 0.4346750 -0.3000000 -0.2221000
v 0.4224500 -0.3000000 -0.2150250
v 0.4224500 -1.0750000 -0.2150250
v 0.4346750 -1.0750000 -0.2221000
v 0.4346750 -1.0750000 0.2221000
v 0.4224500 -1.0750000 0.2150250
v 0.4224500 -0.3000000 0.2150250
v 0.4346750 -0.3000000 0.2221000
v 0.4588000 -0.3000000 0.1229500
v 0.4224500 -0.3000000 0.2150250
v 0.4224500 -1.0750000 0.2150250
v 0.4588000 -1.0750000 0.1229500
v 0.4588000 -0.3000000 -0.1229250
v 0.4733750 -0.3000000 -0.0250000
v 0.4733750 -1.0750000 -0.0250000
v 0.4588000 -1.0750000 -0.1229250
v 0.4733750 -0.3000000 0.0250000
v 0.4588000 -0.3000000 0.1229250
v 0.4588000 -1.0750000 0.1229250
v 0.4733750 -1.0750000 0.0250000
v 0.4875000 -1.0750000 -0.0250000
v 0.4733750 -1.0750000 -0.0250000
v 0.4733750 -0.3000000 -0.0250000
v 0.4875000 -0.3000000 -0.0250000
v 0.4875000 -0.3000000 0.0250000
v 0.4733750 -0.3000000 0.0250000
v 0.4733750 -1.0750000 0.0250000
v 0.4875000 -1.0750000 0.0250000
v 0.4875000 -1.0750000 0.0250000
v 0.4875000 -1.0750000 -0.0250000
v 0.4875000 -0.3000000 -0.0250000
v 0.4875000 -0.3000000 0.0250000
v 0.1229250 -1.0750000 -0.4588000
v 0.0250000 -1.0750000 -0.4733750
v 0.0250000 -0.0000000 -0.4733750
v 0.1229250 -0.0000000 -0.4588000
v 0.1229250 -0.0000000 0.4588000
v 0.0250000 -0.0000000 0.4733750
v 0.0250000 -1.0750000 0.4733750
v 0.1229250 -1.0750000 0.4588000
v 0.2150250 -1.0750000 -0.4224500
v 0.1229500 -1.0750000 -0.4588000
v 0.1229500 -0.0000000 -0.4588000
v 0.2150250 -0.0000000 -0.4224500
v 0.2150250 -0.0000000 0.4224500
v 0.1229500 -0.0000000 0.4588000
v 0.1229500 -1.0750000 0.4588000
v 0.2150250 -1.0750000 0.4224500
v 0.2221000 -0.0000000 -0.4346750
v 0.2654000 -0.0000000 -0.4096750
v 0.2654000 -1.0750000 -0.4096750
v 0.2221000 -1.0750000 -0.4346750
v 0.2221000 -1.0750000 -0.4346750
v 0.2150250 -1.0750000 -0.4224500
v 0.2150250 -0.0000000 -0.4224500
v 0.2221000 -0.0000000 -0.4346750
v 0.2221000 -1.0750000 0.4346750
v 0.2654000 -1.0750000 0.4096750
v 0.2654000 -0.0000000 0.4096750
v 0.2221000 -0.0000000 0.4346750
v 0.2221000 -0.0000000 0.4346750
v 0.2150250 -0.0000000 0.4224500
v 0.2150250 -1.0750000 0.4224500
v 0.2221000 -1.0750000 0.4346750
v 0.8000000 -0.2375000 0.1500000
v 0.7923900 -0.2757700 0.1500000
v 0.7923900 -0.2757700 -0.1500000
v 0.8000000 -0.2375000 -0.1500000
v 0.7923900 -0.2757700 0.1500000
v 0.7707100 -0.3082100 0.1500000
v 0.7707100 -0.3082100 -0.1500000
v 0.7923900 -0.2757700 -0.1500000
v 0.7707100 -0.3082100 0.1500000
v 0.7382700 -0.3298900 0.1500000
v 0.7382700 -0.3298900 -0.1500000
v 0.7707100 -0.3082100 -0.1500000
v 0.7382700 -0.3298900 0.1500000
v 0.7000000 -0.3375000 0.1500000
v 0.7000000 -0.3375000 -0.1500000
v 0.7382700 -0.3298900 -0.1500000
v 0.7000000 -0.3375000 0.1500000
v 0.6617300 -0.3298900 0.1500000
v 0.6617300 -0.3298900 -0.1500000
v 0.7000000 -0.3375000 -0.1500000
v 0.6617300 -0.3298900 0.1500000
v 0.6292900 -0.3082100 0.1500000
v 0.6292900 -0.3082100 -0.1500000
v 0.6617300 -0.3298900 -0.1500000
v 0.6292900 -0.3082100 0.1500000
v 0.6076100 -0.2757700 0.1500000
v 0.6076100 -0.2757700 -0.1500000
v 0.6292900 -0.3082100 -0.1500000
v 0.6076100 -0.2757700 0.1500000
v 0.6000000 -0.2375000 0.1500000
v 0.6000000 -0.2375000 -0.1500000
v 0.6076100 -0.2757700 -0.1500000
v 0.6000000 -0.2375000 0.1500000
v 0.6076100 -0.1992300 0.1500000
v 0.6076100 -0.1992300 -0.1500000
v 0.6000000 -0.2375000 -0.1500000
v 0.6076100 -0.1992300 0.1500000
v 0.6292900 -0.1667900 0.1500000
v 0.6292900 -0.1667900 -0.1500000
v 0.6076100 -0.1992300 -0.1500000
v 0.6292900 -0.1667900 0.1500000
v 0.6617300 -0.1451100 0.1500000
v 0.6617300 -0.1451100 -0.1500000
v 0.6292900 -0.1667900 -0.1500000
v 0.6617300 -0.1451100 0.1500000
v 0.7000000 -0.1375000 0.1500000
v 0.7000000 -0.1375000 -0.1500000
v 0.6617300 -0.1451100 -0.1500000
v 0.7000000 -0.1375000 0.1500000
v 0.7382700 -0.1451100 0.1500000
v 0.7382700 -0.1451100 -0.1500000
v 0.7000000 -0.1375000 -0.1500000
v 0.7382700 -0.1451100 0.1500000
v 0.7707100 -0.1667900 0.1500000
v 0.7707100 -0.1667900 -0.1500000
v 0.7382700 -0.1451100 -0.1500000
v 0.7707100 -0.1667900 0.1500000
v 0.7923900 -0.1992300 0.1500000
v 0.7923900 -0.1992300 -0.1500000
v 0.7707100 -0.1667900 -0.1500000
v 0.7923900 -0.1992300 0.1500000
v 0.8000000 -0.2375000 0.1500000
v 0.8000000 -0.2375000 -0.1500000
v 0.7923900 -0.1992300 -0.1500000
v 0.7382700 -0.1451100 0.1750000
v 0.7000000 -0.1375000 0.1750000
v 0.7000000 -0.2375000 0.1750000
v 0.7707100 -0.1667900 0.1750000
v 0.7382700 -0.1451100 0.1750000
v 0.7000000 -0.2375000 0.1750000
v 0.7923900 -0.1992300 0.1750000
v 0.7707100 -0.1667900 0.1750000
v 0.7000000 -0.2375000 0.1750000
v 0.8000000 -0.2375000 0.1750000
v 0.7923900 -0.1992300 0.1750000
v 0.7000000 -0.2375000 0.1750000
v 0.7923900 -0.2757700 0.1750000
v 0.8000000 -0.2375000 0.1750000
v 0.7000000 -0.2375000 0.1750000
v 0.7707100 -0.3082100 0.1750000
v 0.7923900 -0.2757700 0.1750000
v 0.7000000 -0.2375000 0.1750000
v 0.7382700 -0.3298900 0.1750000
v 0.7707100 -0.3082100 0.1750000
v 0.7000000 -0.2375000 0.1750000
v 0.7000000 -0.3375000 0.1750000
v 0.7382700 -0.3298900 0.1750000
v 0.7000000 -0.2375000 0.1750000
v 0.7000000 -0.1375000 0.1500000
v 0.7000000 -0.1375000 0.1750000
v 0.7382700 -0.1451100 0.1750000
v 0.7382700 -0.1451100 0.1500000
v 0.7382700 -0.1451100 0.1500000
v 0.7382700 -0.1451100 0.1750000
v 0.7707100 -0.1667900 0.1750000
v 0.7707100 -0.1667900 0.1500000
v 0.7707100 -0.1667900 0.1500000
v 0.7707100 -0.1667900 0.1750000
v 0.7923900 -0.1992300 0.1750000
v 0.7923900 -0.1992300 0.1500000
v 0.7923900 -0.1992300 0.1500000
v 0.7923900 -0.1992300 0.1750000
v 0.8000000 -0.2375000 0.1750000
v 0.8000000 -0.2375000 0.1500000
v 0.8000000 -0.2375000 0.1500000
v 0.8000000 -0.2375000 0.1750000
v 0.7923900 -0.2757700 0.1750000
v 0.7923900 -0.2757700 0.1500000
v 0.7923900 -0.2757700 0.1500000
v 0.7923900 -0.2757700 0.1750000
v 0.7707100 -0.3082100 0.1750000
v 0.7707100 -0.3082100 0.1500000
v 0.7707100 -0.3082100 0.1500000
v 0.7707100 -0.3082100 0.1750000
v 0.7382700 -0.3298900 0.1750000
v 0.7382700 -0.3298900 0.1500000
v 0.7382700 -0.3298900 0.1500000
v 0.7382700 -0.3298900 0.1750000
v 0.7000000 -0.3375000 0.1750000
v 0.7000000 -0.3375000 0.1500000
v 0.7382700 -0.1451100 -0.1500000
v 0.7382700 -0.1451100 -0.1750000
v 0.7000000 -0.1375000 -0.1750000
v 0.7000000 -0.1375000 -0.1500000
v 0.7707100 -0.1667900 -0.1500000
v 0.7707100 -0.1667900 -0.1750000
v 0.7382700 -0.1451100 -0.1750000
v 0.7382700 -0.1451100 -0.1500000
v 0.7923900 -0.1992300 -0.1500000
v 0.7923900 -0.1992300 -0.1750000
v 0.7707100 -0.1667900 -0.1750000
v 0.7707100 -0.1667900 -0.1500000
v 0.8000000 -0.2375000 -0.1500000
v 0.8000000 -0.2375000 -0.1750000
v 0.7923900 -0.1992300 -0.1750000
v 0.7923900 -0.1992300 -0.1500000
v 0.7923900 -0.2757700 -0.1500000
v 0.7923900 -0.2757700 -0.1750000
v 0.8000000 -0.2375000 -0.1750000
v 0.8000000 -0.2375000 -0.1500000
v 0.7707100 -0.3082100 -0.1500000
v 0.7707100 -0.3082100 -0.1750000
v 0.7923900 -0.2757700 -0.1750000
v 0.7923900 -0.2757700 -0.1500000
v 0.7382700 -0.3298900 -0.1500000
v 0.7382700 -0.3298900 -0.1750000
v 0.7707100 -0.3082100 -0.1750000
v 0.7707100 -0.3082100 -0.1500000
v 0.7000000 -0.3375000 -0.1500000
v 0.7000000 -0.3375000 -0.1750000
v 0.7382700 -0.3298900 -0.1750000
v 0.7382700 -0.3298900 -0.1500000
v 0.7000000 -0.2375000 -0.1750000
v 0.7000000 -0.1375000 -0.1750000
v 0.7382700 -0.1451100 -0.1750000
v 0.7000000 -0.2375000 -0.1750000
v 0.7382700 -0.1451100 -0.1750000
v 0.7707100 -0.1667900 -0.1750000
v 0.7000000 -0.2375000 -0.1750000
v 0.7707100 -0.1667900 -0.1750000
v 0.7923900 -0.1992300 -0.1750000
v 0.7000000 -0.2375000 -0.1750000
v 0.7923900 -0.1992300 -0.1750000
v 0.8000000 -0.2375000 -0.1750000
v 0.7000000 -0.2375000 -0.1750000
v 0.8000000 -0.2375000 -0.1750000
v 0.7923900 -0.2757700 -0.1750000
v 0.7000000 -0.2375000 -0.1750000
v 0.7923900 -0.2757700 -0.1750000
v 0.7707100 -0.3082100 -0.1750000
v 0.7000000 -0.2375000 -0.1750000
v 0.7707100 -0.3082100 -0.1750000
v 0.7382700 -0.3298900 -0.1750000
v 0.7000000 -0.2375000 -0.1750000
v 0.7382700 -0.3298900 -0.1750000
v 0.7000000 -0.3375000 -0.1750000
v 0.6750000 -0.3000000 -0.1750000
v 0.6293000 -0.3082000 -0.1750000
v 0.6238000 -0.3000000 -0.1750000
v 0.6238000 -0.3000000 0.1750000
v 0.6293000 -0.3082000 0.1750000
v 0.6750000 -0.3000000 0.1750000
v 0.6238000 -0.1750000 -0.1750000
v 0.6293000 -0.1668000 -0.1750000
v 0.6750000 -0.1750000 -0.1750000
v 0.6750000 -0.1750000 0.1750000
v 0.6293000 -0.1668000 0.1750000
v 0.6238000 -0.1750000 0.1750000
v 0.6617250 -0.3299000 -0.1750000
v 0.6293000 -0.3082000 -0.1750000
v 0.6750000 -0.3000000 -0.1750000
v 0.6750000 -0.3000000 0.1750000
v 0.6293000 -0.3082000 0.1750000
v 0.6617250 -0.3299000 0.1750000
v 0.6750000 -0.1750000 -0.1750000
v 0.6293000 -0.1668000 -0.1750000
v 0.6617250 -0.1451000 -0.1750000
v 0.6617250 -0.1451000 0.1750000
v 0.6293000 -0.1668000 0.1750000
v 0.6750000 -0.1750000 0.1750000
v 0.7000000 -0.3375000 -0.1750000
v 0.6617250 -0.3299000 -0.1750000
v 0.6750000 -0.3000000 -0.1750000
v 0.6750000 -0.3000000 0.1750000
v 0.6617250 -0.3299000 0.1750000
v 0.7000000 -0.3375000 0.1750000
v 0.6750000 -0.1750000 -0.1750000
v 0.6617250 -0.1451000 -0.1750000
v 0.7000000 -0.1375000 -0.1750000
v 0.7000000 -0.1375000 0.1750000
v 0.6617250 -0.1451000 0.1750000
v 0.6750000 -0.1750000 0.1750000
v 0.6238000 -0.3000000 -0.1750000
v 0.6293000 -0.3082000 -0.1750000
v 0.6293000 -0.3082000 -0.1500000
v 0.6238000 -0.3000000 -0.1500000
v 0.6238000 -0.3000000 0.1500000
v 0.6293000 -0.3082000 0.1500000
v 0.6293000 -0.3082000 0.1750000
v 0.6238000 -0.3000000 0.1750000
v 0.6238000 -0.1750000 -0.1500000
v 0.6293000 -0.1668000 -0.1500000
v 0.6293000 -0.1668000 -0.1750000
v 0.6238000 -0.1750000 -0.1750000
v 0.6238000 -0.1750000 0.1750000
v 0.6293000 -0.1668000 0.1750000
v 0.6293000 -0.1668000 0.1500000
v 0.6238000 -0.1750000 0.1500000
v 0.6293000 -0.3082000 -0.1750000
v 0.6617250 -0.3299000 -0.1750000
v 0.6617250 -0.3299000 -0.1500000
v 0.6293000 -0.3082000 -0.1500000
v 0.6293000 -0.3082000 0.1500000
v 0.6617250 -0.3299000 0.1500000
v 0.6617250 -0.3299000 0.1750000
v 0.6293000 -0.3082000 0.1750000
v 0.6617250 -0.3299000 -0.1750000
v 0.7000000 -0.3375000 -0.1750000
v 0.7000000 -0.3375000 -0.1500000
v 0.6617250 -0.3299000 -0.1500000
v 0.6617250 -0.3299000 0.1500000
v 0.7000000 -0.3375000 0.1500000
v 0.7000000 -0.3375000 0.1750000
v 0.6617250 -0.3299000 0.1750000
v 0.6617250 -0.1451000 -0.1750000
v 0.6293000 -0.1668000 -0.1750000
v 0.6293000 -0.1668000 -0.1500000
v 0.6617250 -0.1451000 -0.1500000
v 0.6617250 -0.1451000 0.1500000
v 0.6293000 -0.1668000 0.1500000
v 0.6293000 -0.1668000 0.1750000
v 0.6617250 -0.1451000 0.1750000
v 0.6750000 -0.1750000 -0.1750000
v 0.7000000 -0.1375000 -0.1750000
v 0.7000000 -0.3375000 -0.1750000
v 0.6750000 -0.3000000 -0.1750000
v 0.6750000 -0.3000000 0.1750000
v 0.7000000 -0.3375000 0.1750000
v 0.7000000 -0.1375000 0.1750000
v 0.6750000 -0.1750000 0.1750000
v 0.7000000 -0.1375000 -0.1750000
v 0.6617250 -0.1451000 -0.1750000
v 0.6617250 -0.1451000 -0.1500000
v 0.7000000 -0.1375000 -0.1500000
v 0.7000000 -0.1375000 0.1500000
v 0.6617250 -0.1451000 0.1500000
v 0.6617250 -0.1451000 0.1750000
v 0.7000000 -0.1375000 0.1750000
v 0.3680500 -0.0000000 -0.2125000
v 0.4224500 -0.0000000 -0.2150250
v 0.3974500 -0.0000000 -0.2583500
v 0.3974500 -0.0000000 0.2583500
v 0.4224500 -0.0000000 0.2150250
v 0.3680500 -0.0000000 0.2125000
v 0.3743000 -0.3000000 -0.2875000
v 0.3358750 -0.3000000 -0.3358750
v 0.3358750 -0.1750000 -0.3358750
v 0.3743000 -0.1750000 -0.2875000
v 0.3743000 -0.1750000 0.2875000
v 0.3358750 -0.1750000 0.3358750
v 0.3358750 -0.3000000 0.3358750
v 0.3743000 -0.3000000 0.2875000
v 0.3974500 -0.0000000 -0.2583500
v 0.3358750 -0.0000000 -0.3358750
v 0.3005250 -0.0000000 -0.3005000
v 0.3680500 -0.0000000 -0.2125000
v 0.3974500 -0.1750000 -0.2583500
v 0.3358750 -0.1750000 -0.3358750
v 0.3358750 -0.0000000 -0.3358750
v 0.3974500 -0.0000000 -0.2583500
v 0.3680500 -0.0000000 0.2125000
v 0.3005250 -0.0000000 0.3005000
v 0.3358750 -0.0000000 0.3358750
v 0.3974500 -0.0000000 0.2583500
v 0.3974500 -0.0000000 0.2583500
v 0.3358750 -0.0000000 0.3358750
v 0.3358750 -0.1750000 0.3358750
v 0.3974500 -0.1750000 0.2583500
v 0.4096750 -0.1750000 -0.2654000
v 0.3974500 -0.1750000 -0.2583500
v 0.3974500 -0.0000000 -0.2583500
v 0.4096750 -0.0000000 -0.2654000
v 0.4096750 -0.0000000 -0.2654000
v 0.4346750 -0.0000000 -0.2221000
v 0.4346750 -0.1750000 -0.2221000
v 0.4096750 -0.1750000 -0.2654000
v 0.4096750 -0.0000000 0.2654000
v 0.3974500 -0.0000000 0.2583500
v 0.3974500 -0.1750000 0.2583500
v 0.4096750 -0.1750000 0.2654000
v 0.4096750 -0.1750000 0.2654000
v 0.4346750 -0.1750000 0.2221000
v 0.4346750 -0.0000000 0.2221000
v 0.4096750 -0.0000000 0.2654000
v 0.4096750 -0.0000000 -0.2654000
v 0.3974500 -0.0000000 -0.2583500
v 0.4224500 -0.0000000 -0.2150250
v 0.4346750 -0.0000000 -0.2221000
v 0.4346750 -0.0000000 -0.2221000
v 0.4224500 -0.0000000 -0.2150250
v 0.4224500 -0.1750000 -0.2150250
v 0.4346750 -0.1750000 -0.2221000
v 0.4346750 -0.0000000 0.2221000
v 0.4224500 -0.0000000 0.2150250
v 0.3974500 -0.0000000 0.2583500
v 0.4096750 -0.0000000 0.2654000
v 0.4346750 -0.1750000 0.2221000
v 0.4224500 -0.1750000 0.2150250
v 0.4224500 -0.0000000 0.2150250
v 0.4346750 -0.0000000 0.2221000
v 0.4481250 -0.1750000 -0.1500000
v 0.4224500 -0.1750000 -0.2150250
v 0.4224500 -0.0000000 -0.2150250
v 0.4481250 -0.0000000 -0.1500000
v 0.4481250 -0.0000000 0.1500000
v 0.4224500 -0.0000000 0.2150250
v 0.4224500 -0.1750000 0.2150250
v 0.4481250 -0.1750000 0.1500000
v 0.4481250 -0.0000000 -0.1500000
v 0.4224500 -0.0000000 -0.2150250
v 0.3680500 -0.0000000 -0.2125000
v 0.4105000 -0.0000000 -0.1100000
v 0.4105000 -0.0000000 0.1100000
v 0.3680500 -0.0000000 0.2125000
v 0.4224500 -0.0000000 0.2150250
v 0.4481250 -0.0000000 0.1500000
v 0.3974500 -0.3000000 -0.2583500
v 0.3743000 -0.3000000 -0.2875000
v 0.4096750 -0.3000000 -0.2654000
v 0.4096750 -0.3000000 0.2654000
v 0.3743000 -0.3000000 0.2875000
v 0.3974500 -0.3000000 0.2583500
v 0.4096750 -0.1750000 -0.2654000
v 0.3743000 -0.1750000 -0.2875000
v 0.3974500 -0.1750000 -0.2583500
v 0.3974500 -0.1750000 0.2583500
v 0.3743000 -0.1750000 0.2875000
v 0.4096750 -0.1750000 0.2654000
v 0.4224500 -0.3000000 -0.2150250
v 0.4346750 -0.3000000 -0.2221000
v 0.4481250 -0.3000000 -0.1500000
v 0.4481250 -0.3000000 0.1500000
v 0.4346750 -0.3000000 0.2221000
v 0.4224500 -0.3000000 0.2150250
v 0.4481250 -0.1750000 -0.1500000
v 0.4346750 -0.1750000 -0.2221000
v 0.4224500 -0.1750000 -0.2150250
v 0.4224500 -0.1750000 0.2150250
v 0.4346750 -0.1750000 0.2221000
v 0.4481250 -0.1750000 0.1500000
v 0.4481250 -0.3000000 -0.1500000
v 0.5250000 -0.3000000 -0.1500000
v 0.4588000 -0.3000000 -0.1229250
v 0.4588000 -0.3000000 0.1229250
v 0.5250000 -0.3000000 0.1500000
v 0.4481250 -0.3000000 0.1500000
v 0.4096750 -0.3000000 -0.2654000
v 0.3743000 -0.3000000 -0.2875000
v 0.6000000 -0.3000000 -0.2250000
v 0.6000000 -0.3000000 -0.2250000
v 0.4346750 -0.3000000 -0.2221000
v 0.4096750 -0.3000000 -0.2654000
v 0.6000000 -0.3000000 0.2250000
v 0.3743000 -0.3000000 0.2875000
v 0.4096750 -0.3000000 0.2654000
v 0.4096750 -0.3000000 0.2654000
v 0.4346750 -0.3000000 0.2221000
v 0.6000000 -0.3000000 0.2250000
v 0.6000000 -0.1750000 -0.2250000
v 0.3743000 -0.1750000 -0.2875000
v 0.4096750 -0.1750000 -0.2654000
v 0.4096750 -0.1750000 -0.2654000
v 0.4346750 -0.1750000 -0.2221000
v 0.6000000 -0.1750000 -0.2250000
v 0.4096750 -0.1750000 0.2654000
v 0.3743000 -0.1750000 0.2875000
v 0.6000000 -0.1750000 0.2250000
v 0.6000000 -0.1750000 0.2250000
v 0.4346750 -0.1750000 0.2221000
v 0.4096750 -0.1750000 0.2654000
v 0.6000000 -0.3000000 -0.2250000
v 0.6238000 -0.3000000 -0.1750000
v 0.6238000 -0.3000000 -0.1500000
v 0.6238000 -0.3000000 0.1500000
v 0.6238000 -0.3000000 0.1750000
v 0.6000000 -0.3000000 0.2250000
v 0.6238000 -0.1750000 -0.1500000
v 0.6238000 -0.1750000 -0.1750000
v 0.6000000 -0.1750000 -0.2250000
v 0.6000000 -0.1750000 0.2250000
v 0.6238000 -0.1750000 0.1750000
v 0.6238000 -0.1750000 0.1500000
v 0.6750000 -0.3000000 -0.1750000
v 0.6238000 -0.3000000 -0.1750000
v 0.6000000 -0.3000000 -0.2250000
v 0.6000000 -0.3000000 0.2250000
v 0.6238000 -0.3000000 0.1750000
v 0.6750000 -0.3000000 0.1750000
v 0.6000000 -0.1750000 -0.2250000
v 0.6238000 -0.1750000 -0.1750000
v 0.6750000 -0.1750000 -0.1750000
v 0.6750000 -0.1750000 0.1750000
v 0.6238000 -0.1750000 0.1750000
v 0.6000000 -0.1750000 0.2250000
v 0.6000000 -0.1750000 -0.2250000
v 0.6000000 -0.3000000 -0.2250000
v 0.3743000 -0.3000000 -0.2875000
v 0.3743000 -0.1750000 -0.2875000
v 0.3743000 -0.1750000 0.2875000
v 0.3743000 -0.3000000 0.2875000
v 0.6000000 -0.3000000 0.2250000
v 0.6000000 -0.1750000 0.2250000
v 0.4346750 -0.3000000 -0.2221000
v 0.6000000 -0.3000000 -0.2250000
v 0.6238000 -0.3000000 -0.1500000
v 0.4481250 -0.3000000 -0.1500000
v 0.4481250 -0.3000000 0.1500000
v 0.6238000 -0.3000000 0.1500000
v 0.6000000 -0.3000000 0.2250000
v 0.4346750 -0.3000000 0.2221000
v 0.4481250 -0.1750000 -0.1500000
v 0.6238000 -0.1750000 -0.1500000
v 0.6000000 -0.1750000 -0.2250000
v 0.4346750 -0.1750000 -0.2221000
v 0.4346750 -0.1750000 0.2221000
v 0.6000000 -0.1750000 0.2250000
v 0.6238000 -0.1750000 0.1500000
v 0.4481250 -0.1750000 0.1500000
v 0.5250000 -0.3000000 -0.1500000
v 0.5250000 -0.3000000 -0.0250000
v 0.4733750 -0.3000000 -0.0250000
v 0.4588000 -0.3000000 -0.1229250
v 0.4588000 -0.3000000 0.1229250
v 0.4733750 -0.3000000 0.0250000
v 0.5250000 -0.3000000 0.0250000
v 0.5250000 -0.3000000 0.1500000
v 0.5250000 -0.3000000 -0.0250000
v 0.5250000 -0.3000000 0.0250000
v 0.4875000 -0.3000000 0.0250000
v 0.4875000 -0.3000000 -0.0250000
v 0.6750000 -0.1750000 -0.1750000
v 0.6750000 -0.3000000 -0.1750000
v 0.6000000 -0.3000000 -0.2250000
v 0.6000000 -0.1750000 -0.2250000
v 0.6000000 -0.1750000 0.2250000
v 0.6000000 -0.3000000 0.2250000
v 0.6750000 -0.3000000 0.1750000
v 0.6750000 -0.1750000 0.1750000
v 0.6076000 -0.2757750 -0.1500000
v 0.6000000 -0.2375000 -0.1500000
v 0.5250000 -0.2375000 -0.1500000
v 0.5250000 -0.2757750 -0.1500000
v 0.5250000 -0.2757750 0.1500000
v 0.5250000 -0.2375000 0.1500000
v 0.6000000 -0.2375000 0.1500000
v 0.6076000 -0.2757750 0.1500000
v 0.5250000 -0.1992250 -0.1500000
v 0.5250000 -0.2375000 -0.1500000
v 0.6000000 -0.2375000 -0.1500000
v 0.6076000 -0.1992250 -0.1500000
v 0.6076000 -0.1992250 0.1500000
v 0.6000000 -0.2375000 0.1500000
v 0.5250000 -0.2375000 0.1500000
v 0.5250000 -0.1992250 0.1500000
v 0.6238000 -0.3000000 -0.1500000
v 0.6076000 -0.2757750 -0.1500000
v 0.5250000 -0.2757750 -0.1500000
v 0.5250000 -0.3000000 -0.1500000
v 0.5250000 -0.3000000 0.1500000
v 0.5250000 -0.2757750 0.1500000
v 0.6076000 -0.2757750 0.1500000
v 0.6238000 -0.3000000 0.1500000
v 0.5250000 -0.1750000 -0.1500000
v 0.5250000 -0.1992250 -0.1500000
v 0.6076000 -0.1992250 -0.1500000
v 0.6238000 -0.1750000 -0.1500000
v 0.6238000 -0.1750000 0.1500000
v 0.6076000 -0.1992250 0.1500000
v 0.5250000 -0.1992250 0.1500000
v 0.5250000 -0.1750000 0.1500000
v 0.4105000 -0.0000000 -0.1100000
v 0.4701500 -0.0000000 -0.1500000
v 0.4481250 -0.0000000 -0.1500000
v 0.4481250 -0.0000000 0.1500000
v 0.4701500 -0.0000000 0.1500000
v 0.4105000 -0.0000000 0.1100000
v 0.4250000 -0.0000000 0.0000000
v 0.5000000 -0.0000000 0.0000000
v 0.4701500 -0.0000000 -0.1500000
v 0.4105000 -0.0000000 -0.1100000
v 0.4105000 -0.0000000 0.1100000
v 0.4701500 -0.0000000 0.1500000
v 0.5000000 -0.0000000 0.0000000
v 0.4250000 -0.0000000 0.0000000
v 0.5250000 -0.0000000 -0.1500000
v 0.5250000 -0.1750000 -0.1500000
v 0.4481250 -0.1750000 -0.1500000
v 0.4481250 -0.0000000 -0.1500000
v 0.4481250 -0.0000000 0.1500000
v 0.4481250 -0.1750000 0.1500000
v 0.5250000 -0.1750000 0.1500000
v 0.5250000 -0.0000000 0.1500000
v 0.4701500 0.0500000 -0.1500000
v 0.4701500 -0.0000000 -0.1500000
v 0.5000000 -0.0000000 0.0000000
v 0.5000000 0.0500000 0.0000000
v 0.5250000 0.0500000 -0.1500000
v 0.5250000 -0.0000000 -0.1500000
v 0.4701500 -0.0000000 -0.1500000
v 0.4701500 0.0500000 -0.1500000
v 0.4701500 0.0500000 -0.1500000
v 0.5000000 0.0500000 0.0000000
v 0.5250000 0.0500000 0.0000000
v 0.5250000 0.0500000 -0.1500000
v 0.5000000 0.0500000 0.0000000
v 0.5000000 -0.0000000 0.0000000
v 0.4701500 -0.0000000 0.1500000
v 0.4701500 0.0500000 0.1500000
v 0.4701500 0.0500000 0.1500000
v 0.4701500 -0.0000000 0.1500000
v 0.5250000 -0.0000000 0.1500000
v 0.5250000 0.0500000 0.1500000
v 0.5250000 0.0500000 0.1500000
v 0.5250000 0.0500000 0.0000000
v 0.5000000 0.0500000 0.0000000
v 0.4701500 0.0500000 0.1500000
v 0.5250000 0.0500000 0.1500000
v 0.5250000 -0.3000000 0.1500000
v 0.5250000 -0.3000000 -0.1500000
v 0.5250000 0.0500000 -0.1500000
v -0.8000000 -0.2375000 -0.1500000
v -0.7923900 -0.2757700 -0.1500000
v -0.7923900 -0.2757700 0.1500000
v -0.8000000 -0.2375000 0.1500000
v -0.7923900 -0.2757700 -0.1500000
v -0.7707100 -0.3082100 -0.1500000
v -0.7707100 -0.3082100 0.1500000
v -0.7923900 -0.2757700 0.1500000
v -0.7707100 -0.3082100 -0.1500000
v -0.7382700 -0.3298900 -0.1500000
v -0.7382700 -0.3298900 0.1500000
v -0.7707100 -0.3082100 0.1500000
v -0.7382700 -0.3298900 -0.1500000
v -0.7000000 -0.3375000 -0.1500000
v -0.7000000 -0.3375000 0.1500000
v -0.7382700 -0.3298900 0.1500000
v -0.7000000 -0.3375000 -0.1500000
v -0.6617300 -0.3298900 -0.1500000
v -0.6617300 -0.3298900 0.1500000
v -0.7000000 -0.3375000 0.1500000
v -0.6617300 -0.3298900 -0.1500000
v -0.6292900 -0.3082100 -0.1500000
v -0.6292900 -0.3082100 0.1500000
v -0.6617300 -0.3298900 0.1500000
v -0.6292900 -0.3082100 -0.1500000
v -0.6076100 -0.2757700 -0.1500000
v -0.6076100 -0.2757700 0.1500000
v -0.6292900 -0.3082100 0.1500000
v -0.6076100 -0.2757700 -0.1500000
v -0.6000000 -0.2375000 -0.1500000
v -0.6000000 -0.2375000 0.1500000
v -0.6076100 -0.2757700 0.1500000
v -0.6000000 -0.2375000 -0.1500000
v -0.6076100 -0.1992300 -0.1500000
v -0.6076100 -0.1992300 0.1500000
v -0.6000000 -0.2375000 0.1500000
v -0.6076100 -0.1992300 -0.1500000
v -0.6292900 -0.1667900 -0.1500000
v -0.6292900 -0.1667900 0.1500000
v -0.6076100 -0.1992300 0.1500000
v -0.6292900 -0.1667900 -0.1500000
v -0.6617300 -0.1451100 -0.1500000
v -0.6617300 -0.1451100 0.1500000
v -0.6292900 -0.1667900 0.1500000
v -0.6617300 -0.1451100 -0.1500000
v -0.7000000 -0.1375000 -0.1500000
v -0.7000000 -0.1375000 0.1500000
v -0.6617300 -0.1451100 0.1500000
v -0.7000000 -0.1375000 -0.1500000
v -0.7382700 -0.1451100 -0.1500000
v -0.7382700 -0.1451100 0.1500000
v -0.7000000 -0.1375000 0.1500000
v -0.7382700 -0.1451100 -0.1500000
v -0.7707100 -0.1667900 -0.1500000
v -0.7707100 -0.1667900 0.1500000
v -0.7382700 -0.1451100 0.1500000
v -0.7707100 -0.1667900 -0.1500000
v -0.7923900 -0.1992300 -0.1500000
v -0.7923900 -0.1992300 0.1500000
v -0.7707100 -0.1667900 0.1500000
v -0.7923900 -0.1992300 -0.1500000
v -0.8000000 -0.2375000 -0.1500000
v -0.8000000 -0.2375000 0.1500000
v -0.7923900 -0.1992300 0.1500000
v -0.7000000 -0.2375000 0.1750000
v -0.7000000 -0.1375000 0.1750000
v -0.7382700 -0.1451100 0.1750000
v -0.7000000 -0.2375000 0.1750000
v -0.7382700 -0.1451100 0.1750000
v -0.7707100 -0.1667900 0.1750000
v -0.7000000 -0.2375000 0.1750000
v -0.7707100 -0.1667900 0.1750000
v -0.7923900 -0.1992300 0.1750000
v -0.7000000 -0.2375000 0.1750000
v -0.7923900 -0.1992300 0.1750000
v -0.8000000 -0.2375000 0.1750000
v -0.7000000 -0.2375000 0.1750000
v -0.8000000 -0.2375000 0.1750000
v -0.7923900 -0.2757700 0.1750000
v -0.7000000 -0.2375000 0.1750000
v -0.7923900 -0.2757700 0.1750000
v -0.7707100 -0.3082100 0.1750000
v -0.7000000 -0.2375000 0.1750000
v -0.7707100 -0.3082100 0.1750000
v -0.7382700 -0.3298900 0.1750000
v -0.7000000 -0.2375000 0.1750000
v -0.7382700 -0.3298900 0.1750000
v -0.7000000 -0.3375000 0.1750000
v -0.7382700 -0.1451100 0.1500000
v -0.7382700 -0.1451100 0.1750000
v -0.7000000 -0.1375000 0.1750000
v -0.7000000 -0.1375000 0.1500000
v -0.7707100 -0.1667900 0.1500000
v -0.7707100 -0.1667900 0.1750000
v -0.7382700 -0.1451100 0.1750000
v -0.7382700 -0.1451100 0.1500000
v -0.7923900 -0.1992300 0.1500000
v -0.7923900 -0.1992300 0.1750000
v -0.7707100 -0.1667900 0.1750000
v -0.7707100 -0.1667900 0.1500000
v -0.8000000 -0.2375000 0.1500000
v -0.8000000 -0.2375000 0.1750000
v -0.7923900 -0.1992300 0.1750000
v -0.7923900 -0.1992300 0.1500000
v -0.7923900 -0.2757700 0.1500000
v -0.7923900 -0.2757700 0.1750000
v -0.8000000 -0.2375000 0.1750000
v -0.8000000 -0.2375000 0.1500000
v -0.7707100 -0.3082100 0.1500000
v -0.7707100 -0.3082100 0.1750000
v -0.7923900 -0.2757700 0.1750000
v -0.7923900 -0.2757700 0.1500000
v -0.7382700 -0.3298900 0.1500000
v -0.7382700 -0.3298900 0.1750000
v -0.7707100 -0.3082100 0.1750000
v -0.7707100 -0.3082100 0.1500000
v -0.7000000 -0.3375000 0.1500000
v -0.7000000 -0.3375000 0.1750000
v -0.7382700 -0.3298900 0.1750000
v -0.7382700 -0.3298900 0.1500000
v -0.7000000 -0.1375000 -0.1500000
v -0.7000000 -0.1375000 -0.1750000
v -0.7382700 -0.1451100 -0.1750000
v -0.7382700 -0.1451100 -0.1500000
v -0.7382700 -0.1451100 -0.1500000
v -0.7382700 -0.1451100 -0.1750000
v -0.7707100 -0.1667900 -0.1750000
v -0.7707100 -0.1667900 -0.1500000
v -0.7707100 -0.1667900 -0.1500000
v -0.7707100 -0.1667900 -0.1750000
v -0.7923900 -0.1992300 -0.1750000
v -0.7923900 -0.1992300 -0.1500000
v -0.7923900 -0.1992300 -0.1500000
v -0.7923900 -0.1992300 -0.1750000
v -0.8000000 -0.2375000 -0.1750000
v -0.8000000 -0.2375000 -0.1500000
v -0.8000000 -0.2375000 -0.1500000
v -0.8000000 -0.2375000 -0.1750000
v -0.7923900 -0.2757700 -0.1750000
v -0.7923900 -0.2757700 -0.1500000
v -0.7923900 -0.2757700 -0.1500000
v -0.7923900 -0.2757700 -0.1750000
v -0.7707100 -0.3082100 -0.1750000
v -0.7707100 -0.3082100 -0.1500000
v -0.7707100 -0.3082100 -0.1500000
v -0.7707100 -0.3082100 -0.1750000
v -0.7382700 -0.3298900 -0.1750000
v -0.7382700 -0.3298900 -0.1500000
v -0.7382700 -0.3298900 -0.1500000
v -0.7382700 -0.3298900 -0.1750000
v -0.7000000 -0.3375000 -0.1750000
v -0.7000000 -0.3375000 -0.1500000
v -0.7382700 -0.1451100 -0.1750000
v -0.7000000 -0.1375000 -0.1750000
v -0.7000000 -0.2375000 -0.1750000
v -0.7707100 -0.1667900 -0.1750000
v -0.7382700 -0.1451100 -0.1750000
v -0.7000000 -0.2375000 -0.1750000
v -0.7923900 -0.1992300 -0.1750000
v -0.7707100 -0.1667900 -0.1750000
v -0.7000000 -0.2375000 -0.1750000
v -0.8000000 -0.2375000 -0.1750000
v -0.7923900 -0.1992300 -0.1750000
v -0.7000000 -0.2375000 -0.1750000
v -0.7923900 -0.2757700 -0.1750000
v -0.8000000 -0.2375000 -0.1750000
v -0.7000000 -0.2375000 -0.1750000
v -0.7707100 -0.3082100 -0.1750000
v -0.7923900 -0.2757700 -0.1750000
v -0.7000000 -0.2375000 -0.1750000
v -0.7382700 -0.3298900 -0.1750000
v -0.7707100 -0.3082100 -0.1750000
v -0.7000000 -0.2375000 -0.1750000
v -0.7000000 -0.3375000 -0.1750000
v -0.7382700 -0.3298900 -0.1750000
v -0.7000000 -0.2375000 -0.1750000
v -0.6238000 -0.3000000 -0.1750000
v -0.6293000 -0.3082000 -0.1750000
v -0.6750000 -0.3000000 -0.1750000
v -0.6750000 -0.3000000 0.1750000
v -0.6293000 -0.3082000 0.1750000
v -0.6238000 -0.3000000 0.1750000
v -0.6750000 -0.1750000 -0.1750000
v -0.6293000 -0.1668000 -0.1750000
v -0.6238000 -0.1750000 -0.1750000
v -0.6238000 -0.1750000 0.1750000
v -0.6293000 -0.1668000 0.1750000
v -0.6750000 -0.1750000 0.1750000
v -0.6750000 -0.3000000 -0.1750000
v -0.6293000 -0.3082000 -0.1750000
v -0.6617250 -0.3299000 -0.1750000
v -0.6617250 -0.3299000 0.1750000
v -0.6293000 -0.3082000 0.1750000
v -0.6750000 -0.3000000 0.1750000
v -0.6617250 -0.1451000 -0.1750000
v -0.6293000 -0.1668000 -0.1750000
v -0.6750000 -0.1750000 -0.1750000
v -0.6750000 -0.1750000 0.1750000
v -0.6293000 -0.1668000 0.1750000
v -0.6617250 -0.1451000 0.1750000
v -0.6750000 -0.3000000 -0.1750000
v -0.6617250 -0.3299000 -0.1750000
v -0.7000000 -0.3375000 -0.1750000
v -0.7000000 -0.3375000 0.1750000
v -0.6617250 -0.3299000 0.1750000
v -0.6750000 -0.3000000 0.1750000
v -0.7000000 -0.1375000 -0.1750000
v -0.6617250 -0.1451000 -0.1750000
v -0.6750000 -0.1750000 -0.1750000
v -0.6750000 -0.1750000 0.1750000
v -0.6617250 -0.1451000 0.1750000
v -0.7000000 -0.1375000 0.1750000
v -0.6238000 -0.3000000 -0.1500000
v -0.6293000 -0.3082000 -0.1500000
v -0.6293000 -0.3082000 -0.1750000
v -0.6238000 -0.3000000 -0.1750000
v -0.6238000 -0.3000000 0.1750000
v -0.6293000 -0.3082000 0.1750000
v -0.6293000 -0.3082000 0.1500000
v -0.6238000 -0.3000000 0.1500000
v -0.6238000 -0.1750000 -0.1750000
v -0.6293000 -0.1668000 -0.1750000
v -0.6293000 -0.1668000 -0.1500000
v -0.6238000 -0.1750000 -0.1500000
v -0.6238000 -0.1750000 0.1500000
v -0.6293000 -0.1668000 0.1500000
v -0.6293000 -0.1668000 0.1750000
v -0.6238000 -0.1750000 0.1750000
v -0.6293000 -0.3082000 -0.1500000
v -0.6617250 -0.3299000 -0.1500000
v -0.6617250 -0.3299000 -0.1750000
v -0.6293000 -0.3082000 -0.1750000
v -0.6293000 -0.3082000 0.1750000
v -0.6617250 -0.3299000 0.1750000
v -0.6617250 -0.3299000 0.1500000
v -0.6293000 -0.3082000 0.1500000
v -0.6617250 -0.3299000 -0.1500000
v -0.7000000 -0.3375000 -0.1500000
v -0.7000000 -0.3375000 -0.1750000
v -0.6617250 -0.3299000 -0.1750000
v -0.6617250 -0.3299000 0.1750000
v -0.7000000 -0.3375000 0.1750000
v -0.7000000 -0.3375000 0.1500000
v -0.6617250 -0.3299000 0.1500000
v -0.6617250 -0.1451000 -0.1500000
v -0.6293000 -0.1668000 -0.1500000
v -0.6293000 -0.1668000 -0.1750000
v -0.6617250 -0.1451000 -0.1750000
v -0.6617250 -0.1451000 0.1750000
v -0.6293000 -0.1668000 0.1750000
v -0.6293000 -0.1668000 0.1500000
v -0.6617250 -0.1451000 0.1500000
v -0.6750000 -0.3000000 -0.1750000
v -0.7000000 -0.3375000 -0.1750000
v -0.7000000 -0.1375000 -0.1750000
v -0.6750000 -0.1750000 -0.1750000
v -0.6750000 -0.1750000 0.1750000
v -0.7000000 -0.1375000 0.1750000
v -0.7000000 -0.3375000 0.1750000
v -0.6750000 -0.3000000 0.1750000
v -0.7000000 -0.1375000 -0.1500000
v -0.6617250 -0.1451000 -0.1500000
v -0.6617250 -0.1451000 -0.1750000
v -0.7000000 -0.1375000 -0.1750000
v -0.7000000 -0.1375000 0.1750000
v -0.6617250 -0.1451000 0.1750000
v -0.6617250 -0.1451000 0.1500000
v -0.7000000 -0.1375000 0.1500000
v -0.3974500 -0.0000000 -0.2583500
v -0.4224500 -0.0000000 -0.2150250
v -0.3680500 -0.0000000 -0.2125000
v -0.3680500 -0.0000000 0.2125000
v -0.4224500 -0.0000000 0.2150250
v -0.3974500 -0.0000000 0.2583500
v -0.3743000 -0.1750000 -0.2875000
v -0.3358750 -0.1750000 -0.3358750
v -0.3358750 -0.3000000 -0.3358750
v -0.3743000 -0.3000000 -0.2875000
v -0.3743000 -0.3000000 0.2875000
v -0.3358750 -0.3000000 0.3358750
v -0.3358750 -0.1750000 0.3358750
v -0.3743000 -0.1750000 0.2875000
v -0.3680500 -0.0000000 -0.2125000
v -0.3005250 -0.0000000 -0.3005000
v -0.3358750 -0.0000000 -0.3358750
v -0.3974500 -0.0000000 -0.2583500
v -0.3974500 -0.0000000 -0.2583500
v -0.3358750 -0.0000000 -0.3358750
v -0.3358750 -0.1750000 -0.3358750
v -0.3974500 -0.1750000 -0.2583500
v -0.3974500 -0.0000000 0.2583500
v -0.3358750 -0.0000000 0.3358750
v -0.3005250 -0.0000000 0.3005000
v -0.3680500 -0.0000000 0.2125000
v -0.3974500 -0.1750000 0.2583500
v -0.3358750 -0.1750000 0.3358750
v -0.3358750 -0.0000000 0.3358750
v -0.3974500 -0.0000000 0.2583500
v -0.4096750 -0.0000000 -0.2654000
v -0.3974500 -0.0000000 -0.2583500
v -0.3974500 -0.1750000 -0.2583500
v -0.4096750 -0.1750000 -0.2654000
v -0.4096750 -0.1750000 -0.2654000
v -0.4346750 -0.1750000 -0.2221000
v -0.4346750 -0.0000000 -0.2221000
v -0.4096750 -0.0000000 -0.2654000
v -0.4096750 -0.1750000 0.2654000
v -0.3974500 -0.1750000 0.2583500
v -0.3974500 -0.0000000 0.2583500
v -0.4096750 -0.0000000 0.2654000
v -0.4096750 -0.0000000 0.2654000
v -0.4346750 -0.0000000 0.2221000
v -0.4346750 -0.1750000 0.2221000
v -0.4096750 -0.1750000 0.2654000
v -0.4346750 -0.0000000 -0.2221000
v -0.4224500 -0.0000000 -0.2150250
v -0.3974500 -0.0000000 -0.2583500
v -0.4096750 -0.0000000 -0.2654000
v -0.4346750 -0.1750000 -0.2221000
v -0.4224500 -0.1750000 -0.2150250
v -0.4224500 -0.0000000 -0.2150250
v -0.4346750 -0.0000000 -0.2221000
v -0.4096750 -0.0000000 0.2654000
v -0.3974500 -0.0000000 0.2583500
v -0.4224500 -0.0000000 0.2150250
v -0.4346750 -0.0000000 0.2221000
v -0.4346750 -0.0000000 0.2221000
v -0.4224500 -0.0000000 0.2150250
v -0.4224500 -0.1750000 0.2150250
v -0.4346750 -0.1750000 0.2221000
v -0.4481250 -0.0000000 -0.1500000
v -0.4224500 -0.0000000 -0.2150250
v -0.4224500 -0.1750000 -0.2150250
v -0.4481250 -0.1750000 -0.1500000
v -0.4481250 -0.1750000 0.1500000
v -0.4224500 -0.1750000 0.2150250
v -0.4224500 -0.0000000 0.2150250
v -0.4481250 -0.0000000 0.1500000
v -0.4105000 -0.0000000 -0.1100000
v -0.3680500 -0.0000000 -0.2125000
v -0.4224500 -0.0000000 -0.2150250
v -0.4481250 -0.0000000 -0.1500000
v -0.4481250 -0.0000000 0.1500000
v -0.4224500 -0.0000000 0.2150250
v -0.3680500 -0.0000000 0.2125000
v -0.4105000 -0.0000000 0.1100000
v -0.4096750 -0.3000000 -0.2654000
v -0.3743000 -0.3000000 -0.2875000
v -0.3974500 -0.3000000 -0.2583500
v -0.3974500 -0.3000000 0.2583500
v -0.3743000 -0.3000000 0.2875000
v -0.4096750 -0.3000000 0.2654000
v -0.3974500 -0.1750000 -0.2583500
v -0.3743000 -0.1750000 -0.2875000
v -0.4096750 -0.1750000 -0.2654000
v -0.4096750 -0.1750000 0.2654000
v -0.3743000 -0.1750000 0.2875000
v -0.3974500 -0.1750000 0.2583500
v -0.4481250 -0.3000000 -0.1500000
v -0.4346750 -0.3000000 -0.2221000
v -0.4224500 -0.3000000 -0.2150250
v -0.4224500 -0.3000000 0.2150250
v -0.4346750 -0.3000000 0.2221000
v -0.4481250 -0.3000000 0.1500000
v -0.4224500 -0.1750000 -0.2150250
v -0.4346750 -0.1750000 -0.2221000
v -0.4481250 -0.1750000 -0.1500000
v -0.4481250 -0.1750000 0.1500000
v -0.4346750 -0.1750000 0.2221000
v -0.4224500 -0.1750000 0.2150250
v -0.4588000 -0.3000000 -0.1229250
v -0.5250000 -0.3000000 -0.1500000
v -0.4481250 -0.3000000 -0.1500000
v -0.4481250 -0.3000000 0.1500000
v -0.5250000 -0.3000000 0.1500000
v -0.4588000 -0.3000000 0.1229250
v -0.6000000 -0.3000000 -0.2250000
v -0.3743000 -0.3000000 -0.2875000
v -0.4096750 -0.3000000 -0.2654000
v -0.4096750 -0.3000000 -0.2654000
v -0.4346750 -0.3000000 -0.2221000
v -0.6000000 -0.3000000 -0.2250000
v -0.4096750 -0.3000000 0.2654000
v -0.3743000 -0.3000000 0.2875000
v -0.6000000 -0.3000000 0.2250000
v -0.6000000 -0.3000000 0.2250000
v -0.4346750 -0.3000000 0.2221000
v -0.4096750 -0.3000000 0.2654000
v -0.4096750 -0.1750000 -0.2654000
v -0.3743000 -0.1750000 -0.2875000
v -0.6000000 -0.1750000 -0.2250000
v -0.6000000 -0.1750000 -0.2250000
v -0.4346750 -0.1750000 -0.2221000
v -0.4096750 -0.1750000 -0.2654000
v -0.6000000 -0.1750000 0.2250000
v -0.3743000 -0.1750000 0.2875000
v -0.4096750 -0.1750000 0.2654000
v -0.4096750 -0.1750000 0.2654000
v -0.4346750 -0.1750000 0.2221000
v -0.6000000 -0.1750000 0.2250000
v -0.6238000 -0.3000000 -0.1500000
v -0.6238000 -0.3000000 -0.1750000
v -0.6000000 -0.3000000 -0.2250000
v -0.6000000 -0.3000000 0.2250000
v -0.6238000 -0.3000000 0.1750000
v -0.6238000 -0.3000000 0.1500000
v -0.6000000 -0.1750000 -0.2250000
v -0.6238000 -0.1750000 -0.1750000
v -0.6238000 -0.1750000 -0.1500000
v -0.6238000 -0.1750000 0.1500000
v -0.6238000 -0.1750000 0.1750000
v -0.6000000 -0.1750000 0.2250000
v -0.6000000 -0.3000000 -0.2250000
v -0.6238000 -0.3000000 -0.1750000
v -0.6750000 -0.3000000 -0.1750000
v -0.6750000 -0.3000000 0.1750000
v -0.6238000 -0.3000000 0.1750000
v -0.6000000 -0.3000000 0.2250000
v -0.6750000 -0.1750000 -0.1750000
v -0.6238000 -0.1750000 -0.1750000
v -0.6000000 -0.1750000 -0.2250000
v -0.6000000 -0.1750000 0.2250000
v -0.6238000 -0.1750000 0.1750000
v -0.6750000 -0.1750000 0.1750000
v -0.3743000 -0.1750000 -0.2875000
v -0.3743000 -0.3000000 -0.2875000
v -0.6000000 -0.3000000 -0.2250000
v -0.6000000 -0.1750000 -0.2250000
v -0.6000000 -0.1750000 0.2250000
v -0.6000000 -0.3000000 0.2250000
v -0.3743000 -0.3000000 0.2875000
v -0.3743000 -0.1750000 0.2875000
v -0.4481250 -0.3000000 -0.1500000
v -0.6238000 -0.3000000 -0.1500000
v -0.6000000 -0.3000000 -0.2250000
v -0.4346750 -0.3000000 -0.2221000
v -0.4346750 -0.3000000 0.2221000
v -0.6000000 -0.3000000 0.2250000
v -0.6238000 -0.3000000 0.1500000
v -0.4481250 -0.3000000 0.1500000
v -0.4346750 -0.1750000 -0.2221000
v -0.6000000 -0.1750000 -0.2250000
v -0.6238000 -0.1750000 -0.1500000
v -0.4481250 -0.1750000 -0.1500000
v -0.4481250 -0.1750000 0.1500000
v -0.6238000 -0.1750000 0.1500000
v -0.6000000 -0.1750000 0.2250000
v -0.4346750 -0.1750000 0.2221000
v -0.4588000 -0.3000000 -0.1229250
v -0.4733750 -0.3000000 -0.0250000
v -0.5250000 -0.3000000 -0.0250000
v -0.5250000 -0.3000000 -0.1500000
v -0.5250000 -0.3000000 0.1500000
v -0.5250000 -0.3000000 0.0250000
v -0.4733750 -0.3000000 0.0250000
v -0.4588000 -0.3000000 0.1229250
v -0.4875000 -0.3000000 -0.0250000
v -0.4875000 -0.3000000 0.0250000
v -0.5250000 -0.3000000 0.0250000
v -0.5250000 -0.3000000 -0.0250000
v -0.6000000 -0.1750000 -0.2250000
v -0.6000000 -0.3000000 -0.2250000
v -0.6750000 -0.3000000 -0.1750000
v -0.6750000 -0.1750000 -0.1750000
v -0.6750000 -0.1750000 0.1750000
v -0.6750000 -0.3000000 0.1750000
v -0.6000000 -0.3000000 0.2250000
v -0.6000000 -0.1750000 0.2250000
v -0.5250000 -0.2757750 -0.1500000
v -0.5250000 -0.2375000 -0.1500000
v -0.6000000 -0.2375000 -0.1500000
v -0.6076000 -0.2757750 -0.1500000
v -0.6076000 -0.2757750 0.1500000
v -0.6000000 -0.2375000 0.1500000
v -0.5250000 -0.2375000 0.1500000
v -0.5250000 -0.2757750 0.1500000
v -0.6076000 -0.1992250 -0.1500000
v -0.6000000 -0.2375000 -0.1500000
v -0.5250000 -0.2375000 -0.1500000
v -0.5250000 -0.1992250 -0.1500000
v -0.5250000 -0.1992250 0.1500000
v -0.5250000 -0.2375000 0.1500000
v -0.6000000 -0.2375000 0.1500000
v -0.6076000 -0.1992250 0.1500000
v -0.5250000 -0.3000000 -0.1500000
v -0.5250000 -0.2757750 -0.1500000
v -0.6076000 -0.2757750 -0.1500000
v -0.6238000 -0.3000000 -0.1500000
v -0.6238000 -0.3000000 0.1500000
v -0.6076000 -0.2757750 0.1500000
v -0.5250000 -0.2757750 0.1500000
v -0.5250000 -0.3000000 0.1500000
v -0.6238000 -0.1750000 -0.1500000
v -0.6076000 -0.1992250 -0.1500000
v -0.5250000 -0.1992250 -0.1500000
v -0.5250000 -0.1750000 -0.1500000
v -0.5250000 -0.1750000 0.1500000
v -0.5250000 -0.1992250 0.1500000
v -0.6076000 -0.1992250 0.1500000
v -0.6238000 -0.1750000 0.1500000
v -0.4481250 -0.0000000 -0.1500000
v -0.4701500 -0.0000000 -0.1500000
v -0.4105000 -0.0000000 -0.1100000
v -0.4105000 -0.0000000 0.1100000
v -0.4701500 -0.0000000 0.1500000
v -0.4481250 -0.0000000 0.1500000
v -0.4105000 -0.0000000 -0.1100000
v -0.4701500 -0.0000000 -0.1500000
v -0.5000000 -0.0000000 0.0000000
v -0.4250000 -0.0000000 0.0000000
v -0.4250000 -0.0000000 0.0000000
v -0.5000000 -0.0000000 0.0000000
v -0.4701500 -0.0000000 0.1500000
v -0.4105000 -0.0000000 0.1100000
v -0.4481250 -0.0000000 -0.1500000
v -0.4481250 -0.1750000 -0.1500000
v -0.5250000 -0.1750000 -0.1500000
v -0.5250000 -0.0000000 -0.1500000
v -0.5250000 -0.0000000 0.1500000
v -0.5250000 -0.1750000 0.1500000
v -0.4481250 -0.1750000 0.1500000
v -0.4481250 -0.0000000 0.1500000
v -0.5000000 0.0500000 0.0000000
v -0.5000000 -0.0000000 0.0000000
v -0.4701500 -0.0000000 -0.1500000
v -0.4701500 0.0500000 -0.1500000
v -0.4701500 0.0500000 -0.1500000
v -0.4701500 -0.0000000 -0.1500000
v -0.5250000 -0.0000000 -0.1500000
v -0.5250000 0.0500000 -0.1500000
v -0.5250000 0.0500000 -0.1500000
v -0.5250000 0.0500000 0.0000000
v -0.5000000 0.0500000 0.0000000
v -0.4701500 0.0500000 -0.1500000
v -0.4701500 0.0500000 0.1500000
v -0.4701500 -0.0000000 0.1500000
v -0.5000000 -0.0000000 0.0000000
v -0.5000000 0.0500000 0.0000000
v -0.5250000 0.0500000 0.1500000
v -0.5250000 -0.0000000 0.1500000
v -0.4701500 -0.0000000 0.1500000
v -0.4701500 0.0500000 0.1500000
v -0.4701500 0.0500000 0.1500000
v -0.5000000 0.0500000 0.0000000
v -0.5250000 0.0500000 0.0000000
v -0.5250000 0.0500000 0.1500000
v -0.5250000 0.0500000 -0.1500000
v -0.5250000 -0.3000000 -0.1500000
v -0.5250000 -0.3000000 0.1500000
v -0.5250000 0.0500000 0.1500000
s off
f 1 2 3
f 4 5 6
f 7 8 9
f 10 11 12
f 13 14 15
f 16 17 18
f 19 20 21
f 22 23 24
f 25 26 27
f 28 29 30
f 31 32 33
f 34 35 36
f 37 38 39
f 40 41 42
f 43 44 45
f 46 47 48
f 49 50 51
f 52 53 54
f 55 56 57
f 58 59 60
f 61 62 63
f 64 65 66
f 67 68 69
f 70 71 72
f 73 74 75
f 76 77 78
f 79 80 81
f 82 83 84
f 85 86 87
f 88 89 90
f 91 92 93
f 94 95 96
f 97 98 99
f 100 101 102
f 103 104 105
f 106 107 108
f 109 110 111
f 109 111 112
f 113 114 115
f 113 115 116
f 117 118 119
f 117 119 120
f 121 122 123
f 121 123 124
f 125 126 127
f 125 127 128
f 129 130 131
f 129 131 132
f 133 134 135
f 133 135 136
f 137 138 139
f 137 139 140
f 141 142 143
f 141 143 144
f 145 146 147
f 145 147 148
f 149 150 151
f 149 151 152
f 153 154 155
f 153 155 156
f 157 158 159
f 157 159 160
f 161 162 163
f 161 163 164
f 165 166 167
f 165 167 168
f 169 170 171
f 169 171 172
f 173 174 175
f 173 175 176
f 177 178 179
f 177 179 180
f 181 182 183
f 181 183 184
f 185 186 187
f 185 187 188
f 189 190 191
f 189 191 192
f 193 194 195
f 193 195 196
f 197 198 199
f 197 199 200
f 201 202 203
f 201 203 204
f 205 206 207
f 205 207 208
f 209 210 211
f 209 211 212
f 213 214 215
f 213 215 216
f 217 218 219
f 217 219 220
f 221 222 223
f 221 223 224
f 225 226 227
f 225 227 228
f 229 230 231
f 229 231 232
f 233 234 235
f 233 235 236
f 237 238 239
f 237 239 240
f 241 242 243
f 241 243 244
f 245 246 247
f 245 247 248
f 249 250 251
f 249 251 252
f 253 254 255
f 253 255 256
f 257 258 259
f 257 259 260
f 261 262 263
f 261 263 264
f 265 266 267
f 265 267 268
f 269 270 271
f 269 271 272
f 273 274 275
f 273 275 276
f 277 278 279
f 277 279 280
f 281 282 283
f 281 283 284
f 285 286 287
f 285 287 288
f 289 290 291
f 289 291 292
f 293 294 295
f 293 295 296
f 297 298 299
f 297 299 300
f 301 302 303
f 301 303 304
f 305 306 307
f 305 307 308
f 309 310 311
f 309 311 312
f 313 314 315
f 313 315 316
f 317 318 319
f 317 319 320
f 321 322 323
f 321 323 324
f 325 326 327
f 325 327 328
f 329 330 331
f 329 331 332
f 333 334 335
f 333 335 336
f 337 338 339
f 337 339 340
f 341 342 343
f 341 343 344
f 345 346 347
f 345 347 348
f 349 350 351
f 349 351 352
f 353 354 355
f 353 355 356
f 357 358 359
f 357 359 360
f 361 362 363
f 361 363 364
f 365 366 367
f 365 367 368
f 369 370 371
f 369 371 372
f 373 374 375
f 373 375 376
f 377 378 379
f 377 379 380
f 381 382 383
f 381 383 384
f 385 386 387
f 385 387 388
f 389 390 391
f 389 391 392
f 393 394 395
f 393 395 396
f 397 398 399
f 397 399 400
f 401 402 403
f 401 403 404
f 405 406 407
f 405 407 408
f 409 410 411
f 409 411 412
f 413 414 415
f 413 415 416
f 417 418 419
f 417 419 420
f 421 422 423
f 421 423 424
f 425 426 427
f 425 427 428
f 429 430 431
f 429 431 432
f 433 434 435
f 433 435 436
f 437 438 439
f 437 439 440
f 441 442 443
f 441 443 444
f 445 446 447
f 445 447 448
f 449 450 451
f 449 451 452
f 453 454 455
f 453 455 456
f 457 458 459
f 457 459 460
f 461 462 463
f 461 463 464
f 465 466 467
f 465 467 468
f 469 470 471
f 469 471 472
f 473 474 475
f 473 475 476
f 477 478 479
f 477 479 480
f 481 482 483
f 481 483 484
f 485 486 487
f 485 487 488
f 489 490 491
f 489 491 492
f 493 494 495
f 493 495 496
f 497 498 499
f 497 499 500
f 501 502 503
f 501 503 504
f 505 506 507
f 505 507 508
f 509 510 511
f 509 511 512
f 513 514 515
f 513 515 516
f 517 518 519
f 517 519 520
f 521 522 523
f 521 523 524
f 525 526 527
f 525 527 528
f 529 530 531
f 529 531 532
f 533 534 535
f 533 535 536
f 537 538 539
f 537 539 540
f 541 542 543
f 541 543 544
f 545 546 547
f 545 547 548
f 549 550 551
f 549 551 552
f 553 554 555
f 553 555 556
f 557 558 559
f 560 561 562
f 563 564 565
f 566 567 568
f 569 570 571
f 572 573 574
f 575 576 577
f 578 579 580
f 581 582 583
f 584 585 586
f 587 588 589
f 590 591 592
f 593 594 595
f 596 597 598
f 599 600 601
f 602 603 604
f 605 606 607
f 608 609 610
f 611 612 613
f 614 615 616
f 617 618 619
f 620 621 622
f 623 624 625
f 626 627 628
f 629 630 631
f 632 633 634
f 635 636 637
f 638 639 640
f 641 642 643
f 644 645 646
f 647 648 649
f 647 649 650
f 651 652 653
f 651 653 654
f 655 656 657
f 655 657 658
f 659 660 661
f 659 661 662
f 663 664 665
f 663 665 666
f 667 668 669
f 667 669 670
f 671 672 673
f 671 673 674
f 675 676 677
f 675 677 678
f 679 680 681
f 679 681 682
f 683 684 685
f 683 685 686
f 687 688 689
f 687 689 690
f 691 692 693
f 691 693 694
f 695 696 697
f 695 697 698
f 699 700 701
f 699 701 702
f 703 704 705
f 703 705 706
f 707 708 709
f 707 709 710
f 711 712 713
f 711 713 714
f 715 716 717
f 715 717 718
f 719 720 721
f 719 721 722
f 723 724 725
f 723 725 726
f 727 728 729
f 727 729 730
f 731 732 733
f 731 733 734
f 735 736 737
f 735 737 738
f 739 740 741
f 739 741 742
f 743 744 745
f 743 745 746
f 747 748 749
f 747 749 750
f 751 752 753
f 751 753 754
f 755 756 757
f 755 757 758
f 759 760 761
f 759 761 762
f 763 764 765
f 763 765 766
f 767 768 769
f 767 769 770
f 771 772 773
f 771 773 774
f 775 776 777
f 775 777 778
f 779 780 781
f 779 781 782
f 783 784 785
f 783 785 786
f 787 788 789
f 787 789 790
f 791 792 793
f 791 793 794
f 795 796 797
f 795 797 798
f 799 800 801
f 799 801 802
f 803 804 805
f 803 805 806
f 807 808 809
f 807 809 810
f 811 812 813
f 811 813 814
f 815 816 817
f 815 817 818
f 819 820 821
f 819 821 822
f 823 824 825
f 823 825 826
f 827 828 829
f 827 829 830
f 831 832 833
f 831 833 834
f 835 836 837
f 835 837 838
f 839 840 841
f 839 841 842
f 843 844 845
f 843 845 846
f 847 848 849
f 847 849 850
f 851 852 853
f 851 853 854
f 855 856 857
f 855 857 858
f 859 860 861
f 859 861 862
f 863 864 865
f 863 865 866
f 867 868 869
f 867 869 870
f 871 872 873
f 871 873 874
f 875 876 877
f 875 877 878
f 879 880 881
f 879 881 882
f 883 884 885
f 883 885 886
f 887 888 889
f 887 889 890
f 891 892 893
f 891 893 894
f 895 896 897
f 895 897 898
f 899 900 901
f 899 901 902
f 903 904 905
f 903 905 906
f 907 908 909
f 907 909 910
f 911 912 913
f 911 913 914
f 915 916 917
f 915 917 918
f 919 920 921
f 919 921 922
f 923 924 925
f 923 925 926
f 927 928 929
f 927 929 930
f 931 932 933
f 931 933 934
f 935 936 937
f 935 937 938
f 939 940 941
f 939 941 942
f 943 944 945
f 943 945 946
f 947 948 949
f 947 949 950
f 951 952 953
f 951 953 954
f 955 956 957
f 955 957 958
f 959 960 961
f 959 961 962
f 963 964 965
f 963 965 966
f 967 968 969
f 967 969 970
f 971 972 973
f 971 973 974
f 975 976 977
f 975 977 978
f 979 980 981
f 979 981 982
f 983 984 985
f 983 985 986
f 987 988 989
f 987 989 990
f 991 992 993
f 991 993 994
f 995 996 997
f 995 997 998
f 999 1000 1001
f 999 1001 1002
f 1003 1004 1005
f 1003 1005 1006
f 1007 1008 1009
f 1007 1009 1010
f 1011 1012 1013
f 1011 1013 1014
f 1015 1016 1017
f 1015 1017 1018
f 1019 1020 1021
f 1019 1021 1022
f 1023 1024 1025
f 1026 1027 1028
f 1029 1030 1031
f 1032 1033 1034
f 1035 1036 1037
f 1038 1039 1040
f 1041 1042 1043
f 1044 1045 1046
f 1047 1048 1049
f 1047 1049 1050
f 1051 1052 1053
f 1051 1053 1054
f 1055 1056 1057
f 1055 1057 1058
f 1059 1060 1061
f 1059 1061 1062
f 1063 1064 1065
f 1063 1065 1066
f 1067 1068 1069
f 1067 1069 1070
f 1071 1072 1073
f 1071 1073 1074
f 1075 1076 1077
f 1075 1077 1078
f 1079 1080 1081
f 1079 1081 1082
f 1083 1084 1085
f 1083 1085 1086
f 1087 1088 1089
f 1087 1089 1090
f 1091 1092 1093
f 1091 1093 1094
f 1095 1096 1097
f 1095 1097 1098
f 1099 1100 1101
f 1099 1101 1102
f 1103 1104 1105
f 1103 1105 1106
f 1107 1108 1109
f 1107 1109 1110
f 1111 1112 1113
f 1114 1115 1116
f 1117 1118 1119
f 1120 1121 1122
f 1123 1124 1125
f 1126 1127 1128
f 1129 1130 1131
f 1132 1133 1134
f 1135 1136 1137
f 1138 1139 1140
f 1141 1142 1143
f 1144 1145 1146
f 1147 1148 1149
f 1150 1151 1152
f 1153 1154 1155
f 1156 1157 1158
f 1159 1160 1161
f 1162 1163 1164
f 1165 1166 1167
f 1168 1169 1170
f 1171 1172 1173
f 1171 1173 1174
f 1175 1176 1177
f 1175 1177 1178
f 1179 1180 1181
f 1179 1181 1182
f 1183 1184 1185
f 1183 1185 1186
f 1187 1188 1189
f 1187 1189 1190
f 1191 1192 1193
f 1191 1193 1194
f 1195 1196 1197
f 1195 1197 1198
f 1199 1200 1201
f 1199 1201 1202
f 1203 1204 1205
f 1203 1205 1206
f 1207 1208 1209
f 1207 1209 1210
f 1211 1212 1213
f 1211 1213 1214
f 1215 1216 1217
f 1215 1217 1218
f 1219 1220 1221
f 1219 1221 1222
f 1223 1224 1225
f 1223 1225 1226
f 1227 1228 1229
f 1230 1231 1232
f 1233 1234 1235
f 1233 1235 1236
f 1237 1238 1239
f 1237 1239 1240
f 1241 1242 1243
f 1241 1243 1244
f 1245 1246 1247
f 1245 1247 1248
f 1249 1250 1251
f 1249 1251 1252
f 1253 1254 1255
f 1253 1255 1256
f 1257 1258 1259
f 1257 1259 1260
f 1261 1262 1263
f 1261 1263 1264
f 1265 1266 1267
f 1265 1267 1268
f 1269 1270 1271
f 1269 1271 1272
f 1273 1274 1275
f 1273 1275 1276
f 1277 1278 1279
f 1277 1279 1280
f 1281 1282 1283
f 1281 1283 1284
f 1285 1286 1287
f 1285 1287 1288
f 1289 1290 1291
f 1289 1291 1292
f 1293 1294 1295
f 1293 1295 1296
f 1297 1298 1299
f 1297 1299 1300
f 1301 1302 1303
f 1301 1303 1304
f 1305 1306 1307
f 1308 1309 1310
f 1311 1312 1313
f 1314 1315 1316
f 1317 1318 1319
f 1320 1321 1322
f 1323 1324 1325
f 1326 1327 1328
f 1329 1330 1331
f 1332 1333 1334
f 1335 1336 1337
f 1338 1339 1340
f 1341 1342 1343
f 1344 1345 1346
f 1347 1348 1349
f 1350 1351 1352
f 1353 1354 1355
f 1356 1357 1358
f 1359 1360 1361
f 1362 1363 1364
f 1365 1366 1367
f 1368 1369 1370
f 1371 1372 1373
f 1374 1375 1376
f 1377 1378 1379
f 1380 1381 1382
f 1383 1384 1385
f 1383 1385 1386
f 1387 1388 1389
f 1387 1389 1390
f 1391 1392 1393
f 1391 1393 1394
f 1395 1396 1397
f 1395 1397 1398
f 1399 1400 1401
f 1399 1401 1402
f 1403 1404 1405
f 1403 1405 1406
f 1407 1408 1409
f 1407 1409 1410
f 1411 1412 1413
f 1411 1413 1414
f 1415 1416 1417
f 1415 1417 1418
f 1419 1420 1421
f 1419 1421 1422
f 1423 1424 1425
f 1423 1425 1426
f 1427 1428 1429
f 1427 1429 1430
f 1431 1432 1433
f 1431 1433 1434
f 1435 1436 1437
f 1435 1437 1438
f 1439 1440 1441
f 1439 1441 1442
f 1443 1444 1445
f 1443 1445 1446
f 1447 1448 1449
f 1447 1449 1450
f 1451 1452 1453
f 1451 1453 1454
f 1455 1456 1457
f 1455 1457 1458
f 1459 1460 1461
f 1462 1463 1464
f 1465 1466 1467
f 1465 1467 1468
f 1469 1470 1471
f 1469 1471 1472
f 1473 1474 1475
f 1473 1475 1476
f 1477 1478 1479
f 1477 1479 1480
f 1481 1482 1483
f 1481 1483 1484
f 1485 1486 1487
f 1485 1487 1488
f 1489 1490 1491
f 1489 1491 1492
f 1493 1494 1495
f 1493 1495 1496
f 1497 1498 1499
f 1497 1499 1500
f 1501 1502 1503
f 1501 1503 1504
f 1505 1506 1507
f 1505 1507 1508
f 1509 1510 1511
f 1509 1511 1512
f 1513 1514 1515
f 1513 1515 1516
f 1517 1518 1519
f 1517 1519 1520
f 1521 1522 1523
f 1521 1523 1524
f 1525 1526 1527
f 1525 1527 1528
f 1529 1530 1531
f 1529 1531 1532
f 1533 1534 1535
f 1533 1535 1536
f 1537 1538 1539
f 1537 1539 1540
f 1541 1542 1543
f 1541 1543 1544
f 1545 1546 1547
f 1545 1547 1548
f 1549 1550 1551
f 1549 1551 1552
f 1553 1554 1555
f 1553 1555 1556
f 1557 1558 1559
f 1557 1559 1560
f 1561 1562 1563
f 1561 1563 1564
f 1565 1566 1567
f 1565 1567 1568
f 1569 1570 1571
f 1569 1571 1572
f 1573 1574 1575
f 1576 1577 1578
f 1579 1580 1581
f 1582 1583 1584
f 1585 1586 1587
f 1588 1589 1590
f 1591 1592 1593
f 1594 1595 1596
f 1597 1598 1599
f 1597 1599 1600
f 1601 1602 1603
f 1601 1603 1604
f 1605 1606 1607
f 1605 1607 1608
f 1609 1610 1611
f 1609 1611 1612
f 1613 1614 1615
f 1613 1615 1616
f 1617 1618 1619
f 1617 1619 1620
f 1621 1622 1623
f 1621 1623 1624
f 1625 1626 1627
f 1625 1627 1628
f 1629 1630 1631
f 1629 1631 1632
f 1633 1634 1635
f 1633 1635 1636
f 1637 1638 1639
f 1637 1639 1640
f 1641 1642 1643
f 1641 1643 1644
f 1645 1646 1647
f 1645 1647 1648
f 1649 1650 1651
f 1649 1651 1652
f 1653 1654 1655
f 1653 1655 1656
f 1657 1658 1659
f 1657 1659 1660
f 1661 1662 1663
f 1664 1665 1666
f 1667 1668 1669
f 1670 1671 1672
f 1673 1674 1675
f 1676 1677 1678
f 1679 1680 1681
f 1682 1683 1684
f 1685 1686 1687
f 1688 1689 1690
f 1691 1692 1693
f 1694 1695 1696
f 1697 1698 1699
f 1700 1701 1702
f 1703 1704 1705
f 1706 1707 1708
f 1709 1710 1711
f 1712 1713 1714
f 1715 1716 1717
f 1718 1719 1720
f 1721 1722 1723
f 1721 1723 1724
f 1725 1726 1727
f 1725 1727 1728
f 1729 1730 1731
f 1729 1731 1732
f 1733 1734 1735
f 1733 1735 1736
f 1737 1738 1739
f 1737 1739 1740
f 1741 1742 1743
f 1741 1743 1744
f 1745 1746 1747
f 1745 1747 1748
f 1749 1750 1751
f 1749 1751 1752
f 1753 1754 1755
f 1753 1755 1756
f 1757 1758 1759
f 1757 1759 1760
f 1761 1762 1763
f 1761 1763 1764
f 1765 1766 1767
f 1765 1767 1768
f 1769 1770 1771
f 1769 1771 1772
f 1773 1774 1775
f 1773 1775 1776
f 1777 1778 1779
f 1780 1781 1782
f 1783 1784 1785
f 1783 1785 1786
f 1787 1788 1789
f 1787 1789 1790
f 1791 1792 1793
f 1791 1793 1794
f 1795 1796 1797
f 1795 1797 1798
f 1799 1800 1801
f 1799 1801 1802
f 1803 1804 1805
f 1803 1805 1806
f 1807 1808 1809
f 1807 1809 1810
f 1811 1812 1813
f 1811 1813 1814
f 1815 1816 1817
f 1815 1817 1818
f 1819 1820 1821
f 1819 1821 1822
f 1823 1824 1825
f 1823 1825 1826
f 1827 1828 1829
f 1827 1829 1830
f 1831 1832 1833
f 1831 1833 1834
f 1835 1836 1837
f 1835 1837 1838
f 1839 1840 1841
f 1839 1841 1842
f 1843 1844 1845
f 1843 1845 1846
f 1847 1848 1849
f 1847 1849 1850
f 1851 1852 1853
f 1851 1853 1854
f 1855 1856 1857
f 1858 1859 1860
f 1861 1862 1863
f 1864 1865 1866
f 1867 1868 1869
f 1870 1871 1872
f 1873 1874 1875
f 1876 1877 1878
f 1879 1880 1881
f 1882 1883 1884
f 1885 1886 1887
f 1888 1889 1890
f 1891 1892 1893
f 1894 1895 1896
f 1897 1898 1899
f 1900 1901 1902
f 1903 1904 1905
f 1906 1907 1908
f 1909 1910 1911
f 1912 1913 1914
f 1915 1916 1917
f 1918 1919 1920
f 1921 1922 1923
f 1924 1925 1926
f 1927 1928 1929
f 1930 1931 1932
f 1933 1934 1935
f 1933 1935 1936
f 1937 1938 1939
f 1937 1939 1940
f 1941 1942 1943
f 1941 1943 1944
f 1945 1946 1947
f 1945 1947 1948
f 1949 1950 1951
f 1949 1951 1952
f 1953 1954 1955
f 1953 1955 1956
f 1957 1958 1959
f 1957 1959 1960
f 1961 1962 1963
f 1961 1963 1964
f 1965 1966 1967
f 1965 1967 1968
f 1969 1970 1971
f 1969 1971 1972
f 1973 1974 1975
f 1973 1975 1976
f 1977 1978 1979
f 1977 1979 1980
f 1981 1982 1983
f 1981 1983 1984
f 1985 1986 1987
f 1985 1987 1988
f 1989 1990 1991
f 1989 1991 1992
f 1993 1994 1995
f 1993 1995 1996
f 1997 1998 1999
f 1997 1999 2000
f 2001 2002 2003
f 2001 2003 2004
f 2005 2006 2007
f 2005 2007 2008
f 2009 2010 2011
f 2012 2013 2014
f 2015 2016 2017
f 2015 2017 2018
f 2019 2020 2021
f 2019 2021 2022
f 2023 2024 2025
f 2023 2025 2026
f 2027 2028 2029
f 2027 2029 2030
f 2031 2032 2033
f 2031 2033 2034
f 2035 2036 2037
f 2035 2037 2038
f 2039 2040 2041
f 2039 2041 2042
f 2043 2044 2045
f 2043 2045 2046
f 2047 2048 2049
f 2047 2049 2050
f 2051 2052 2053
f 2051 2053 2054
f 2055 2056 2057
f 2055 2057 2058
