# Baked from official LDraw part 2454a.dat
o ldraw_2454a
v 0.4000000 -3.0000000 -0.1500000
v 0.4000000 -3.0000000 0.1500000
v 0.4000000 -0.1000000 0.1500000
v 0.4000000 -0.1000000 -0.1500000
v 0.4000000 -3.0000000 0.1500000
v 0.1750000 -3.0000000 0.1500000
v 0.1750000 -0.1000000 0.1500000
v 0.4000000 -0.1000000 0.1500000
v 0.4000000 -0.1000000 -0.1500000
v 0.1750000 -0.1000000 -0.1500000
v 0.1750000 -3.0000000 -0.1500000
v 0.4000000 -3.0000000 -0.1500000
v -0.4000000 -0.1000000 -0.1500000
v -0.4000000 -0.1000000 0.1500000
v -0.4000000 -3.0000000 0.1500000
v -0.4000000 -3.0000000 -0.1500000
v -0.4000000 -0.1000000 0.1500000
v -0.1750000 -0.1000000 0.1500000
v -0.1750000 -3.0000000 0.1500000
v -0.4000000 -3.0000000 0.1500000
v -0.4000000 -3.0000000 -0.1500000
v -0.1750000 -3.0000000 -0.1500000
v -0.1750000 -0.1000000 -0.1500000
v -0.4000000 -0.1000000 -0.1500000
v -0.5000000 -3.0000000 0.2500000
v 0.5000000 -3.0000000 0.2500000
v 0.5000000 -0.0000000 0.2500000
v -0.5000000 -0.0000000 0.2500000
v 0.5000000 -3.0000000 0.2500000
v 0.5000000 -3.0000000 -0.2500000
v 0.5000000 -0.0000000 -0.2500000
v 0.5000000 -0.0000000 0.2500000
v -0.5000000 -0.0000000 0.2500000
v -0.5000000 -0.0000000 -0.2500000
v -0.5000000 -3.0000000 -0.2500000
v -0.5000000 -3.0000000 0.2500000
v 0.5000000 -3.0000000 0.2500000
v -0.5000000 -3.0000000 0.2500000
v -0.4000000 -3.0000000 0.1500000
v 0.4000000 -3.0000000 0.1500000
v -0.5000000 -3.0000000 0.2500000
v -0.5000000 -3.0000000 -0.2500000
v -0.4000000 -3.0000000 -0.1500000
v -0.4000000 -3.0000000 0.1500000
v -0.5000000 -3.0000000 -0.2500000
v 0.5000000 -3.0000000 -0.2500000
v 0.4000000 -3.0000000 -0.1500000
v -0.4000000 -3.0000000 -0.1500000
v 0.5000000 -3.0000000 -0.2500000
v 0.5000000 -3.0000000 0.2500000
v 0.4000000 -3.0000000 0.1500000
v 0.4000000 -3.0000000 -0.1500000
v 0.3207118 -0.1000000 0.0707128
v 0.3207118 -0.0000000 0.0707128
v 0.3423878 -0.0000000 0.0382683
v 0.3423878 -0.1000000 0.0382683
v 0.2882679 -0.1000000 0.0923869
v 0.2882679 -0.0000000 0.0923869
v 0.3207118 -0.0000000 0.0707128
v 0.3207118 -0.1000000 0.0707128
v 0.2500008 -0.1000000 0.1000023
v 0.2500008 -0.0000000 0.1000023
v 0.2882679 -0.0000000 0.0923869
v 0.2882679 -0.1000000 0.0923869
v 0.2117317 -0.1000000 0.0923878
v 0.2117317 -0.0000000 0.0923878
v 0.2500008 -0.0000000 0.1000023
v 0.2500008 -0.1000000 0.1000023
v 0.1792872 -0.1000000 0.0707118
v 0.1792872 -0.0000000 0.0707118
v 0.2117317 -0.0000000 0.0923878
v 0.2117317 -0.1000000 0.0923878
v 0.1576131 -0.1000000 0.0382679
v 0.1576131 -0.0000000 0.0382679
v 0.1792872 -0.0000000 0.0707118
v 0.1792872 -0.1000000 0.0707118
v 0.3423878 -0.1000000 -0.0382683
v 0.3423878 -0.0000000 -0.0382683
v 0.3207118 -0.0000000 -0.0707128
v 0.3207118 -0.1000000 -0.0707128
v 0.3207118 -0.1000000 -0.0707128
v 0.3207118 -0.0000000 -0.0707128
v 0.2882679 -0.0000000 -0.0923869
v 0.2882679 -0.1000000 -0.0923869
v 0.2882679 -0.1000000 -0.0923869
v 0.2882679 -0.0000000 -0.0923869
v 0.2500008 -0.0000000 -0.1000023
v 0.2500008 -0.1000000 -0.1000023
v 0.2500008 -0.1000000 -0.1000023
v 0.2500008 -0.0000000 -0.1000023
v 0.2117317 -0.0000000 -0.0923878
v 0.2117317 -0.1000000 -0.0923878
v 0.2117317 -0.1000000 -0.0923878
v 0.2117317 -0.0000000 -0.0923878
v 0.1792872 -0.0000000 -0.0707118
v 0.1792872 -0.1000000 -0.0707118
v 0.1792872 -0.1000000 -0.0707118
v 0.1792872 -0.0000000 -0.0707118
v 0.1576131 -0.0000000 -0.0382679
v 0.1576131 -0.1000000 -0.0382679
v -0.1792882 -0.1000000 0.0707128
v -0.1792882 -0.0000000 0.0707128
v -0.1576123 -0.0000000 0.0382683
v -0.1576123 -0.1000000 0.0382683
v -0.2117321 -0.1000000 0.0923869
v -0.2117321 -0.0000000 0.0923869
v -0.1792882 -0.0000000 0.0707128
v -0.1792882 -0.1000000 0.0707128
v -0.2499992 -0.1000000 0.1000023
v -0.2499992 -0.0000000 0.1000023
v -0.2117321 -0.0000000 0.0923869
v -0.2117321 -0.1000000 0.0923869
v -0.2882683 -0.1000000 0.0923878
v -0.2882683 -0.0000000 0.0923878
v -0.2499992 -0.0000000 0.1000023
v -0.2499992 -0.1000000 0.1000023
v -0.3207128 -0.1000000 0.0707118
v -0.3207128 -0.0000000 0.0707118
v -0.2882683 -0.0000000 0.0923878
v -0.2882683 -0.1000000 0.0923878
v -0.3423869 -0.1000000 0.0382679
v -0.3423869 -0.0000000 0.0382679
v -0.3207128 -0.0000000 0.0707118
v -0.3207128 -0.1000000 0.0707118
v -0.1576123 -0.1000000 -0.0382683
v -0.1576123 -0.0000000 -0.0382683
v -0.1792882 -0.0000000 -0.0707128
v -0.1792882 -0.1000000 -0.0707128
v -0.1792882 -0.1000000 -0.0707128
v -0.1792882 -0.0000000 -0.0707128
v -0.2117321 -0.0000000 -0.0923869
v -0.2117321 -0.1000000 -0.0923869
v -0.2117321 -0.1000000 -0.0923869
v -0.2117321 -0.0000000 -0.0923869
v -0.2499992 -0.0000000 -0.1000023
v -0.2499992 -0.1000000 -0.1000023
v -0.2499992 -0.1000000 -0.1000023
v -0.2499992 -0.0000000 -0.1000023
v -0.2882683 -0.0000000 -0.0923878
v -0.2882683 -0.1000000 -0.0923878
v -0.2882683 -0.1000000 -0.0923878
v -0.2882683 -0.0000000 -0.0923878
v -0.3207128 -0.0000000 -0.0707118
v -0.3207128 -0.1000000 -0.0707118
v -0.3207128 -0.1000000 -0.0707118
v -0.3207128 -0.0000000 -0.0707118
v -0.3423869 -0.0000000 -0.0382679
v -0.3423869 -0.1000000 -0.0382679
v 0.3500000 -0.0000000 0.0000000
v 0.3423900 -0.0000000 0.0382700
v 0.3423900 0.1000000 0.0382700
v 0.3500000 0.1000000 0.0000000
v 0.3423900 -0.0000000 0.0382700
v 0.3207100 -0.0000000 0.0707100
v 0.3207100 0.1000000 0.0707100
v 0.3423900 0.1000000 0.0382700
v 0.3207100 -0.0000000 0.0707100
v 0.2882700 -0.0000000 0.0923900
v 0.2882700 0.1000000 0.0923900
v 0.3207100 0.1000000 0.0707100
v 0.2882700 -0.0000000 0.0923900
v 0.2500000 -0.0000000 0.1000000
v 0.2500000 0.1000000 0.1000000
v 0.2882700 0.1000000 0.0923900
v 0.2500000 -0.0000000 0.1000000
v 0.2117300 -0.0000000 0.0923900
v 0.2117300 0.1000000 0.0923900
v 0.2500000 0.1000000 0.1000000
v 0.2117300 -0.0000000 0.0923900
v 0.1792900 -0.0000000 0.0707100
v 0.1792900 0.1000000 0.0707100
v 0.2117300 0.1000000 0.0923900
v 0.1792900 -0.0000000 0.0707100
v 0.1576100 -0.0000000 0.0382700
v 0.1576100 0.1000000 0.0382700
v 0.1792900 0.1000000 0.0707100
v 0.1576100 -0.0000000 0.0382700
v 0.1500000 -0.0000000 0.0000000
v 0.1500000 0.1000000 0.0000000
v 0.1576100 0.1000000 0.0382700
v 0.1500000 -0.0000000 0.0000000
v 0.1576100 -0.0000000 -0.0382700
v 0.1576100 0.1000000 -0.0382700
v 0.1500000 0.1000000 0.0000000
v 0.1576100 -0.0000000 -0.0382700
v 0.1792900 -0.0000000 -0.0707100
v 0.1792900 0.1000000 -0.0707100
v 0.1576100 0.1000000 -0.0382700
v 0.1792900 -0.0000000 -0.0707100
v 0.2117300 -0.0000000 -0.0923900
v 0.2117300 0.1000000 -0.0923900
v 0.1792900 0.1000000 -0.0707100
v 0.2117300 -0.0000000 -0.0923900
v 0.2500000 -0.0000000 -0.1000000
v 0.2500000 0.1000000 -0.1000000
v 0.2117300 0.1000000 -0.0923900
v 0.2500000 -0.0000000 -0.1000000
v 0.2882700 -0.0000000 -0.0923900
v 0.2882700 0.1000000 -0.0923900
v 0.2500000 0.1000000 -0.1000000
v 0.2882700 -0.0000000 -0.0923900
v 0.3207100 -0.0000000 -0.0707100
v 0.3207100 0.1000000 -0.0707100
v 0.2882700 0.1000000 -0.0923900
v 0.3207100 -0.0000000 -0.0707100
v 0.3423900 -0.0000000 -0.0382700
v 0.3423900 0.1000000 -0.0382700
v 0.3207100 0.1000000 -0.0707100
v 0.3423900 -0.0000000 -0.0382700
v 0.3500000 -0.0000000 0.0000000
v 0.3500000 0.1000000 0.0000000
v 0.3423900 0.1000000 -0.0382700
v 0.4000000 0.1000000 0.0000000
v 0.3885850 0.1000000 0.0574050
v 0.3885850 -0.0000000 0.0574050
v 0.4000000 -0.0000000 0.0000000
v 0.3885850 0.1000000 0.0574050
v 0.3560650 0.1000000 0.1060650
v 0.3560650 -0.0000000 0.1060650
v 0.3885850 -0.0000000 0.0574050
v 0.3560650 0.1000000 0.1060650
v 0.3074050 0.1000000 0.1385850
v 0.3074050 -0.0000000 0.1385850
v 0.3560650 -0.0000000 0.1060650
v 0.3074050 0.1000000 0.1385850
v 0.2500000 0.1000000 0.1500000
v 0.2500000 -0.0000000 0.1500000
v 0.3074050 -0.0000000 0.1385850
v 0.2500000 0.1000000 0.1500000
v 0.1925950 0.1000000 0.1385850
v 0.1925950 -0.0000000 0.1385850
v 0.2500000 -0.0000000 0.1500000
v 0.1925950 0.1000000 0.1385850
v 0.1439350 0.1000000 0.1060650
v 0.1439350 -0.0000000 0.1060650
v 0.1925950 -0.0000000 0.1385850
v 0.1439350 0.1000000 0.1060650
v 0.1114150 0.1000000 0.0574050
v 0.1114150 -0.0000000 0.0574050
v 0.1439350 -0.0000000 0.1060650
v 0.1114150 0.1000000 0.0574050
v 0.1000000 0.1000000 0.0000000
v 0.1000000 -0.0000000 0.0000000
v 0.1114150 -0.0000000 0.0574050
v 0.1000000 0.1000000 0.0000000
v 0.1114150 0.1000000 -0.0574050
v 0.1114150 -0.0000000 -0.0574050
v 0.1000000 -0.0000000 0.0000000
v 0.1114150 0.1000000 -0.0574050
v 0.1439350 0.1000000 -0.1060650
v 0.1439350 -0.0000000 -0.1060650
v 0.1114150 -0.0000000 -0.0574050
v 0.1439350 0.1000000 -0.1060650
v 0.1925950 0.1000000 -0.1385850
v 0.1925950 -0.0000000 -0.1385850
v 0.1439350 -0.0000000 -0.1060650
v 0.1925950 0.1000000 -0.1385850
v 0.2500000 0.1000000 -0.1500000
v 0.2500000 -0.0000000 -0.1500000
v 0.1925950 -0.0000000 -0.1385850
v 0.2500000 0.1000000 -0.1500000
v 0.3074050 0.1000000 -0.1385850
v 0.3074050 -0.0000000 -0.1385850
v 0.2500000 -0.0000000 -0.1500000
v 0.3074050 0.1000000 -0.1385850
v 0.3560650 0.1000000 -0.1060650
v 0.3560650 -0.0000000 -0.1060650
v 0.3074050 -0.0000000 -0.1385850
v 0.3560650 0.1000000 -0.1060650
v 0.3885850 0.1000000 -0.0574050
v 0.3885850 -0.0000000 -0.0574050
v 0.3560650 -0.0000000 -0.1060650
v 0.3885850 0.1000000 -0.0574050
v 0.4000000 0.1000000 0.0000000
v 0.4000000 -0.0000000 0.0000000
v 0.3885850 -0.0000000 -0.0574050
v 0.2500000 0.1000000 0.1500000
v 0.2500000 0.1000000 0.1000000
v 0.2117300 0.1000000 0.0923900
v 0.1925950 0.1000000 0.1385850
v 0.1925950 0.1000000 0.1385850
v 0.2117300 0.1000000 0.0923900
v 0.1792900 0.1000000 0.0707100
v 0.1439350 0.1000000 0.1060650
v 0.1439350 0.1000000 0.1060650
v 0.1792900 0.1000000 0.0707100
v 0.1576100 0.1000000 0.0382700
v 0.1114150 0.1000000 0.0574050
v 0.1114150 0.1000000 0.0574050
v 0.1576100 0.1000000 0.0382700
v 0.1500000 0.1000000 0.0000000
v 0.1000000 0.1000000 0.0000000
v 0.1000000 0.1000000 0.0000000
v 0.1500000 0.1000000 0.0000000
v 0.1576100 0.1000000 -0.0382700
v 0.1114150 0.1000000 -0.0574050
v 0.1114150 0.1000000 -0.0574050
v 0.1576100 0.1000000 -0.0382700
v 0.1792900 0.1000000 -0.0707100
v 0.1439350 0.1000000 -0.1060650
v 0.1439350 0.1000000 -0.1060650
v 0.1792900 0.1000000 -0.0707100
v 0.2117300 0.1000000 -0.0923900
v 0.1925950 0.1000000 -0.1385850
v 0.1925950 0.1000000 -0.1385850
v 0.2117300 0.1000000 -0.0923900
v 0.2500000 0.1000000 -0.1000000
v 0.2500000 0.1000000 -0.1500000
v 0.2500000 0.1000000 -0.1500000
v 0.2500000 0.1000000 -0.1000000
v 0.2882700 0.1000000 -0.0923900
v 0.3074050 0.1000000 -0.1385850
v 0.3074050 0.1000000 -0.1385850
v 0.2882700 0.1000000 -0.0923900
v 0.3207100 0.1000000 -0.0707100
v 0.3560650 0.1000000 -0.1060650
v 0.3560650 0.1000000 -0.1060650
v 0.3207100 0.1000000 -0.0707100
v 0.3423900 0.1000000 -0.0382700
v 0.3885850 0.1000000 -0.0574050
v 0.3885850 0.1000000 -0.0574050
v 0.3423900 0.1000000 -0.0382700
v 0.3500000 0.1000000 0.0000000
v 0.4000000 0.1000000 0.0000000
v 0.4000000 0.1000000 0.0000000
v 0.3500000 0.1000000 0.0000000
v 0.3423900 0.1000000 0.0382700
v 0.3885850 0.1000000 0.0574050
v 0.3885850 0.1000000 0.0574050
v 0.3423900 0.1000000 0.0382700
v 0.3207100 0.1000000 0.0707100
v 0.3560650 0.1000000 0.1060650
v 0.3560650 0.1000000 0.1060650
v 0.3207100 0.1000000 0.0707100
v 0.2882700 0.1000000 0.0923900
v 0.3074050 0.1000000 0.1385850
v 0.3074050 0.1000000 0.1385850
v 0.2882700 0.1000000 0.0923900
v 0.2500000 0.1000000 0.1000000
v 0.2500000 0.1000000 0.1500000
v -0.1500000 -0.0000000 0.0000000
v -0.1576100 -0.0000000 0.0382700
v -0.1576100 0.1000000 0.0382700
v -0.1500000 0.1000000 0.0000000
v -0.1576100 -0.0000000 0.0382700
v -0.1792900 -0.0000000 0.0707100
v -0.1792900 0.1000000 0.0707100
v -0.1576100 0.1000000 0.0382700
v -0.1792900 -0.0000000 0.0707100
v -0.2117300 -0.0000000 0.0923900
v -0.2117300 0.1000000 0.0923900
v -0.1792900 0.1000000 0.0707100
v -0.2117300 -0.0000000 0.0923900
v -0.2500000 -0.0000000 0.1000000
v -0.2500000 0.1000000 0.1000000
v -0.2117300 0.1000000 0.0923900
v -0.2500000 -0.0000000 0.1000000
v -0.2882700 -0.0000000 0.0923900
v -0.2882700 0.1000000 0.0923900
v -0.2500000 0.1000000 0.1000000
v -0.2882700 -0.0000000 0.0923900
v -0.3207100 -0.0000000 0.0707100
v -0.3207100 0.1000000 0.0707100
v -0.2882700 0.1000000 0.0923900
v -0.3207100 -0.0000000 0.0707100
v -0.3423900 -0.0000000 0.0382700
v -0.3423900 0.1000000 0.0382700
v -0.3207100 0.1000000 0.0707100
v -0.3423900 -0.0000000 0.0382700
v -0.3500000 -0.0000000 0.0000000
v -0.3500000 0.1000000 0.0000000
v -0.3423900 0.1000000 0.0382700
v -0.3500000 -0.0000000 0.0000000
v -0.3423900 -0.0000000 -0.0382700
v -0.3423900 0.1000000 -0.0382700
v -0.3500000 0.1000000 0.0000000
v -0.3423900 -0.0000000 -0.0382700
v -0.3207100 -0.0000000 -0.0707100
v -0.3207100 0.1000000 -0.0707100
v -0.3423900 0.1000000 -0.0382700
v -0.3207100 -0.0000000 -0.0707100
v -0.2882700 -0.0000000 -0.0923900
v -0.2882700 0.1000000 -0.0923900
v -0.3207100 0.1000000 -0.0707100
v -0.2882700 -0.0000000 -0.0923900
v -0.2500000 -0.0000000 -0.1000000
v -0.2500000 0.1000000 -0.1000000
v -0.2882700 0.1000000 -0.0923900
v -0.2500000 -0.0000000 -0.1000000
v -0.2117300 -0.0000000 -0.0923900
v -0.2117300 0.1000000 -0.0923900
v -0.2500000 0.1000000 -0.1000000
v -0.2117300 -0.0000000 -0.0923900
v -0.1792900 -0.0000000 -0.0707100
v -0.1792900 0.1000000 -0.0707100
v -0.2117300 0.1000000 -0.0923900
v -0.1792900 -0.0000000 -0.0707100
v -0.1576100 -0.0000000 -0.0382700
v -0.1576100 0.1000000 -0.0382700
v -0.1792900 0.1000000 -0.0707100
v -0.1576100 -0.0000000 -0.0382700
v -0.1500000 -0.0000000 0.0000000
v -0.1500000 0.1000000 0.0000000
v -0.1576100 0.1000000 -0.0382700
v -0.1000000 0.1000000 0.0000000
v -0.1114150 0.1000000 0.0574050
v -0.1114150 -0.0000000 0.0574050
v -0.1000000 -0.0000000 0.0000000
v -0.1114150 0.1000000 0.0574050
v -0.1439350 0.1000000 0.1060650
v -0.1439350 -0.0000000 0.1060650
v -0.1114150 -0.0000000 0.0574050
v -0.1439350 0.1000000 0.1060650
v -0.1925950 0.1000000 0.1385850
v -0.1925950 -0.0000000 0.1385850
v -0.1439350 -0.0000000 0.1060650
v -0.1925950 0.1000000 0.1385850
v -0.2500000 0.1000000 0.1500000
v -0.2500000 -0.0000000 0.1500000
v -0.1925950 -0.0000000 0.1385850
v -0.2500000 0.1000000 0.1500000
v -0.3074050 0.1000000 0.1385850
v -0.3074050 -0.0000000 0.1385850
v -0.2500000 -0.0000000 0.1500000
v -0.3074050 0.1000000 0.1385850
v -0.3560650 0.1000000 0.1060650
v -0.3560650 -0.0000000 0.1060650
v -0.3074050 -0.0000000 0.1385850
v -0.3560650 0.1000000 0.1060650
v -0.3885850 0.1000000 0.0574050
v -0.3885850 -0.0000000 0.0574050
v -0.3560650 -0.0000000 0.1060650
v -0.3885850 0.1000000 0.0574050
v -0.4000000 0.1000000 0.0000000
v -0.4000000 -0.0000000 0.0000000
v -0.3885850 -0.0000000 0.0574050
v -0.4000000 0.1000000 0.0000000
v -0.3885850 0.1000000 -0.0574050
v -0.3885850 -0.0000000 -0.0574050
v -0.4000000 -0.0000000 0.0000000
v -0.3885850 0.1000000 -0.0574050
v -0.3560650 0.1000000 -0.1060650
v -0.3560650 -0.0000000 -0.1060650
v -0.3885850 -0.0000000 -0.0574050
v -0.3560650 0.1000000 -0.1060650
v -0.3074050 0.1000000 -0.1385850
v -0.3074050 -0.0000000 -0.1385850
v -0.3560650 -0.0000000 -0.1060650
v -0.3074050 0.1000000 -0.1385850
v -0.2500000 0.1000000 -0.1500000
v -0.2500000 -0.0000000 -0.1500000
v -0.3074050 -0.0000000 -0.1385850
v -0.2500000 0.1000000 -0.1500000
v -0.1925950 0.1000000 -0.1385850
v -0.1925950 -0.0000000 -0.1385850
v -0.2500000 -0.0000000 -0.1500000
v -0.1925950 0.1000000 -0.1385850
v -0.1439350 0.1000000 -0.1060650
v -0.1439350 -0.0000000 -0.1060650
v -0.1925950 -0.0000000 -0.1385850
v -0.1439350 0.1000000 -0.1060650
v -0.1114150 0.1000000 -0.0574050
v -0.1114150 -0.0000000 -0.0574050
v -0.1439350 -0.0000000 -0.1060650
v -0.1114150 0.1000000 -0.0574050
v -0.1000000 0.1000000 0.0000000
v -0.1000000 -0.0000000 0.0000000
v -0.1114150 -0.0000000 -0.0574050
v -0.2500000 0.1000000 0.1500000
v -0.2500000 0.1000000 0.1000000
v -0.2882700 0.1000000 0.0923900
v -0.3074050 0.1000000 0.1385850
v -0.3074050 0.1000000 0.1385850
v -0.2882700 0.1000000 0.0923900
v -0.3207100 0.1000000 0.0707100
v -0.3560650 0.1000000 0.1060650
v -0.3560650 0.1000000 0.1060650
v -0.3207100 0.1000000 0.0707100
v -0.3423900 0.1000000 0.0382700
v -0.3885850 0.1000000 0.0574050
v -0.3885850 0.1000000 0.0574050
v -0.3423900 0.1000000 0.0382700
v -0.3500000 0.1000000 0.0000000
v -0.4000000 0.1000000 0.0000000
v -0.4000000 0.1000000 0.0000000
v -0.3500000 0.1000000 0.0000000
v -0.3423900 0.1000000 -0.0382700
v -0.3885850 0.1000000 -0.0574050
v -0.3885850 0.1000000 -0.0574050
v -0.3423900 0.1000000 -0.0382700
v -0.3207100 0.1000000 -0.0707100
v -0.3560650 0.1000000 -0.1060650
v -0.3560650 0.1000000 -0.1060650
v -0.3207100 0.1000000 -0.0707100
v -0.2882700 0.1000000 -0.0923900
v -0.3074050 0.1000000 -0.1385850
v -0.3074050 0.1000000 -0.1385850
v -0.2882700 0.1000000 -0.0923900
v -0.2500000 0.1000000 -0.1000000
v -0.2500000 0.1000000 -0.1500000
v -0.2500000 0.1000000 -0.1500000
v -0.2500000 0.1000000 -0.1000000
v -0.2117300 0.1000000 -0.0923900
v -0.1925950 0.1000000 -0.1385850
v -0.1925950 0.1000000 -0.1385850
v -0.2117300 0.1000000 -0.0923900
v -0.1792900 0.1000000 -0.0707100
v -0.1439350 0.1000000 -0.1060650
v -0.1439350 0.1000000 -0.1060650
v -0.1792900 0.1000000 -0.0707100
v -0.1576100 0.1000000 -0.0382700
v -0.1114150 0.1000000 -0.0574050
v -0.1114150 0.1000000 -0.0574050
v -0.1576100 0.1000000 -0.0382700
v -0.1500000 0.1000000 0.0000000
v -0.1000000 0.1000000 0.0000000
v -0.1000000 0.1000000 0.0000000
v -0.1500000 0.1000000 0.0000000
v -0.1576100 0.1000000 0.0382700
v -0.1114150 0.1000000 0.0574050
v -0.1114150 0.1000000 0.0574050
v -0.1576100 0.1000000 0.0382700
v -0.1792900 0.1000000 0.0707100
v -0.1439350 0.1000000 0.1060650
v -0.1439350 0.1000000 0.1060650
v -0.1792900 0.1000000 0.0707100
v -0.2117300 0.1000000 0.0923900
v -0.1925950 0.1000000 0.1385850
v -0.1925950 0.1000000 0.1385850
v -0.2117300 0.1000000 0.0923900
v -0.2500000 0.1000000 0.1000000
v -0.2500000 0.1000000 0.1500000
v 0.1576120 -0.0000000 -0.0382680
v 0.1499976 -0.0000000 0.0000011
v 0.1576131 -0.0000000 0.0382683
v 0.3423869 -0.0000000 0.0382683
v 0.3500024 -0.0000000 0.0000011
v 0.3423880 -0.0000000 -0.0382680
v 0.1576131 -0.1000000 0.0382683
v 0.1499976 -0.1000000 0.0000011
v 0.1576120 -0.1000000 -0.0382680
v 0.3423880 -0.1000000 -0.0382680
v 0.3500024 -0.1000000 0.0000011
v 0.3423869 -0.1000000 0.0382683
v 0.3423880 -0.0000000 0.0382680
v 0.1576120 -0.0000000 0.0382680
v 0.1576120 -0.1000000 0.0382680
v 0.3423880 -0.1000000 0.0382680
v 0.3423880 -0.1000000 0.0382680
v 0.1576120 -0.1000000 0.0382680
v 0.1576120 -0.1000000 -0.0382680
v 0.3423880 -0.1000000 -0.0382680
v 0.3423880 -0.1000000 -0.0382680
v 0.1576120 -0.1000000 -0.0382680
v 0.1576120 -0.0000000 -0.0382680
v 0.3423880 -0.0000000 -0.0382680
v 0.3423880 -0.0000000 -0.0382680
v 0.1576120 -0.0000000 -0.0382680
v 0.1576120 -0.0000000 0.0382680
v 0.3423880 -0.0000000 0.0382680
v -0.3423880 -0.0000000 -0.0382680
v -0.3500024 -0.0000000 0.0000011
v -0.3423869 -0.0000000 0.0382683
v -0.1576131 -0.0000000 0.0382683
v -0.1499976 -0.0000000 0.0000011
v -0.1576120 -0.0000000 -0.0382680
v -0.3423869 -0.1000000 0.0382683
v -0.3500024 -0.1000000 0.0000011
v -0.3423880 -0.1000000 -0.0382680
v -0.1576120 -0.1000000 -0.0382680
v -0.1499976 -0.1000000 0.0000011
v -0.1576131 -0.1000000 0.0382683
v -0.1576120 -0.0000000 0.0382680
v -0.3423880 -0.0000000 0.0382680
v -0.3423880 -0.1000000 0.0382680
v -0.1576120 -0.1000000 0.0382680
v -0.1576120 -0.1000000 0.0382680
v -0.3423880 -0.1000000 0.0382680
v -0.3423880 -0.1000000 -0.0382680
v -0.1576120 -0.1000000 -0.0382680
v -0.1576120 -0.1000000 -0.0382680
v -0.3423880 -0.1000000 -0.0382680
v -0.3423880 -0.0000000 -0.0382680
v -0.1576120 -0.0000000 -0.0382680
v -0.1576120 -0.0000000 -0.0382680
v -0.3423880 -0.0000000 -0.0382680
v -0.3423880 -0.0000000 0.0382680
v -0.1576120 -0.0000000 0.0382680
v 0.3423900 -0.1000000 0.0382700
v 0.3500000 -0.1000000 0.0000000
v 0.3500000 -0.1000000 0.1000000
v 0.3207100 -0.1000000 0.0707100
v 0.3423900 -0.1000000 0.0382700
v 0.3500000 -0.1000000 0.1000000
v 0.2882700 -0.1000000 0.0923900
v 0.3207100 -0.1000000 0.0707100
v 0.3500000 -0.1000000 0.1000000
v 0.2500000 -0.1000000 0.1000000
v 0.2882700 -0.1000000 0.0923900
v 0.3500000 -0.1000000 0.1000000
v 0.2117300 -0.1000000 0.0923900
v 0.2500000 -0.1000000 0.1000000
v 0.1500000 -0.1000000 0.1000000
v 0.1792900 -0.1000000 0.0707100
v 0.2117300 -0.1000000 0.0923900
v 0.1500000 -0.1000000 0.1000000
v 0.1576100 -0.1000000 0.0382700
v 0.1792900 -0.1000000 0.0707100
v 0.1500000 -0.1000000 0.1000000
v 0.1500000 -0.1000000 0.0000000
v 0.1576100 -0.1000000 0.0382700
v 0.1500000 -0.1000000 0.1000000
v 0.1576100 -0.1000000 -0.0382700
v 0.1500000 -0.1000000 0.0000000
v 0.1500000 -0.1000000 -0.1000000
v 0.1792900 -0.1000000 -0.0707100
v 0.1576100 -0.1000000 -0.0382700
v 0.1500000 -0.1000000 -0.1000000
v 0.2117300 -0.1000000 -0.0923900
v 0.1792900 -0.1000000 -0.0707100
v 0.1500000 -0.1000000 -0.1000000
v 0.2500000 -0.1000000 -0.1000000
v 0.2117300 -0.1000000 -0.0923900
v 0.1500000 -0.1000000 -0.1000000
v 0.2882700 -0.1000000 -0.0923900
v 0.2500000 -0.1000000 -0.1000000
v 0.3500000 -0.1000000 -0.1000000
v 0.3207100 -0.1000000 -0.0707100
v 0.2882700 -0.1000000 -0.0923900
v 0.3500000 -0.1000000 -0.1000000
v 0.3423900 -0.1000000 -0.0382700
v 0.3207100 -0.1000000 -0.0707100
v 0.3500000 -0.1000000 -0.1000000
v 0.3500000 -0.1000000 0.0000000
v 0.3423900 -0.1000000 -0.0382700
v 0.3500000 -0.1000000 -0.1000000
v -0.1576100 -0.1000000 0.0382700
v -0.1500000 -0.1000000 0.0000000
v -0.1500000 -0.1000000 0.1000000
v -0.1792900 -0.1000000 0.0707100
v -0.1576100 -0.1000000 0.0382700
v -0.1500000 -0.1000000 0.1000000
v -0.2117300 -0.1000000 0.0923900
v -0.1792900 -0.1000000 0.0707100
v -0.1500000 -0.1000000 0.1000000
v -0.2500000 -0.1000000 0.1000000
v -0.2117300 -0.1000000 0.0923900
v -0.1500000 -0.1000000 0.1000000
v -0.2882700 -0.1000000 0.0923900
v -0.2500000 -0.1000000 0.1000000
v -0.3500000 -0.1000000 0.1000000
v -0.3207100 -0.1000000 0.0707100
v -0.2882700 -0.1000000 0.0923900
v -0.3500000 -0.1000000 0.1000000
v -0.3423900 -0.1000000 0.0382700
v -0.3207100 -0.1000000 0.0707100
v -0.3500000 -0.1000000 0.1000000
v -0.3500000 -0.1000000 0.0000000
v -0.3423900 -0.1000000 0.0382700
v -0.3500000 -0.1000000 0.1000000
v -0.3423900 -0.1000000 -0.0382700
v -0.3500000 -0.1000000 0.0000000
v -0.3500000 -0.1000000 -0.1000000
v -0.3207100 -0.1000000 -0.0707100
v -0.3423900 -0.1000000 -0.0382700
v -0.3500000 -0.1000000 -0.1000000
v -0.2882700 -0.1000000 -0.0923900
v -0.3207100 -0.1000000 -0.0707100
v -0.3500000 -0.1000000 -0.1000000
v -0.2500000 -0.1000000 -0.1000000
v -0.2882700 -0.1000000 -0.0923900
v -0.3500000 -0.1000000 -0.1000000
v -0.2117300 -0.1000000 -0.0923900
v -0.2500000 -0.1000000 -0.1000000
v -0.1500000 -0.1000000 -0.1000000
v -0.1792900 -0.1000000 -0.0707100
v -0.2117300 -0.1000000 -0.0923900
v -0.1500000 -0.1000000 -0.1000000
v -0.1576100 -0.1000000 -0.0382700
v -0.1792900 -0.1000000 -0.0707100
v -0.1500000 -0.1000000 -0.1000000
v -0.1500000 -0.1000000 0.0000000
v -0.1576100 -0.1000000 -0.0382700
v -0.1500000 -0.1000000 -0.1000000
v -0.4000000 -0.1000000 0.1500000
v -0.4000000 -0.1000000 -0.1500000
v -0.3500000 -0.1000000 -0.1000000
v -0.3500000 -0.1000000 0.1000000
v 0.4000000 -0.1000000 -0.1500000
v 0.4000000 -0.1000000 0.1500000
v 0.3500000 -0.1000000 0.1000000
v 0.3500000 -0.1000000 -0.1000000
v 0.1500000 -0.1000000 -0.1000000
v 0.1500000 -0.1000000 0.1000000
v -0.1500000 -0.1000000 0.1000000
v -0.1500000 -0.1000000 -0.1000000
v -0.3500000 -0.1000000 -0.1000000
v -0.4000000 -0.1000000 -0.1500000
v 0.4000000 -0.1000000 -0.1500000
v 0.3500000 -0.1000000 -0.1000000
v 0.4000000 -0.1000000 0.1500000
v -0.4000000 -0.1000000 0.1500000
v -0.3500000 -0.1000000 0.1000000
v 0.3500000 -0.1000000 0.1000000
v 0.4000000 -0.0000000 0.1500000
v 0.4000000 -0.0000000 0.0000000
v 0.3885850 -0.0000000 0.0574050
v 0.4000000 -0.0000000 0.1500000
v 0.3885850 -0.0000000 0.0574050
v 0.3560650 -0.0000000 0.1060650
v 0.4000000 -0.0000000 0.1500000
v 0.3560650 -0.0000000 0.1060650
v 0.3074050 -0.0000000 0.1385850
v 0.4000000 -0.0000000 0.1500000
v 0.3074050 -0.0000000 0.1385850
v 0.2500000 -0.0000000 0.1500000
v 0.1000000 -0.0000000 0.1500000
v 0.2500000 -0.0000000 0.1500000
v 0.1925950 -0.0000000 0.1385850
v 0.1000000 -0.0000000 0.1500000
v 0.1925950 -0.0000000 0.1385850
v 0.1439350 -0.0000000 0.1060650
v 0.1000000 -0.0000000 0.1500000
v 0.1439350 -0.0000000 0.1060650
v 0.1114150 -0.0000000 0.0574050
v 0.1000000 -0.0000000 0.1500000
v 0.1114150 -0.0000000 0.0574050
v 0.1000000 -0.0000000 0.0000000
v 0.1000000 -0.0000000 -0.1500000
v 0.1000000 -0.0000000 0.0000000
v 0.1114150 -0.0000000 -0.0574050
v 0.1000000 -0.0000000 -0.1500000
v 0.1114150 -0.0000000 -0.0574050
v 0.1439350 -0.0000000 -0.1060650
v 0.1000000 -0.0000000 -0.1500000
v 0.1439350 -0.0000000 -0.1060650
v 0.1925950 -0.0000000 -0.1385850
v 0.1000000 -0.0000000 -0.1500000
v 0.1925950 -0.0000000 -0.1385850
v 0.2500000 -0.0000000 -0.1500000
v 0.4000000 -0.0000000 -0.1500000
v 0.2500000 -0.0000000 -0.1500000
v 0.3074050 -0.0000000 -0.1385850
v 0.4000000 -0.0000000 -0.1500000
v 0.3074050 -0.0000000 -0.1385850
v 0.3560650 -0.0000000 -0.1060650
v 0.4000000 -0.0000000 -0.1500000
v 0.3560650 -0.0000000 -0.1060650
v 0.3885850 -0.0000000 -0.0574050
v 0.4000000 -0.0000000 -0.1500000
v 0.3885850 -0.0000000 -0.0574050
v 0.4000000 -0.0000000 0.0000000
v -0.1000000 -0.0000000 0.1500000
v -0.1000000 -0.0000000 0.0000000
v -0.1114150 -0.0000000 0.0574050
v -0.1000000 -0.0000000 0.1500000
v -0.1114150 -0.0000000 0.0574050
v -0.1439350 -0.0000000 0.1060650
v -0.1000000 -0.0000000 0.1500000
v -0.1439350 -0.0000000 0.1060650
v -0.1925950 -0.0000000 0.1385850
v -0.1000000 -0.0000000 0.1500000
v -0.1925950 -0.0000000 0.1385850
v -0.2500000 -0.0000000 0.1500000
v -0.4000000 -0.0000000 0.1500000
v -0.2500000 -0.0000000 0.1500000
v -0.3074050 -0.0000000 0.1385850
v -0.4000000 -0.0000000 0.1500000
v -0.3074050 -0.0000000 0.1385850
v -0.3560650 -0.0000000 0.1060650
v -0.4000000 -0.0000000 0.1500000
v -0.3560650 -0.0000000 0.1060650
v -0.3885850 -0.0000000 0.0574050
v -0.4000000 -0.0000000 0.1500000
v -0.3885850 -0.0000000 0.0574050
v -0.4000000 -0.0000000 0.0000000
v -0.4000000 -0.0000000 -0.1500000
v -0.4000000 -0.0000000 0.0000000
v -0.3885850 -0.0000000 -0.0574050
v -0.4000000 -0.0000000 -0.1500000
v -0.3885850 -0.0000000 -0.0574050
v -0.3560650 -0.0000000 -0.1060650
v -0.4000000 -0.0000000 -0.1500000
v -0.3560650 -0.0000000 -0.1060650
v -0.3074050 -0.0000000 -0.1385850
v -0.4000000 -0.0000000 -0.1500000
v -0.3074050 -0.0000000 -0.1385850
v -0.2500000 -0.0000000 -0.1500000
v -0.1000000 -0.0000000 -0.1500000
v -0.2500000 -0.0000000 -0.1500000
v -0.1925950 -0.0000000 -0.1385850
v -0.1000000 -0.0000000 -0.1500000
v -0.1925950 -0.0000000 -0.1385850
v -0.1439350 -0.0000000 -0.1060650
v -0.1000000 -0.0000000 -0.1500000
v -0.1439350 -0.0000000 -0.1060650
v -0.1114150 -0.0000000 -0.0574050
v -0.1000000 -0.0000000 -0.1500000
v -0.1114150 -0.0000000 -0.0574050
v -0.1000000 -0.0000000 0.0000000
v -0.5000000 -0.0000000 0.2500000
v 0.5000000 -0.0000000 0.2500000
v 0.4000000 -0.0000000 0.1500000
v -0.4000000 -0.0000000 0.1500000
v -0.5000000 -0.0000000 -0.2500000
v -0.5000000 -0.0000000 0.2500000
v -0.4000000 -0.0000000 0.1500000
v -0.4000000 -0.0000000 -0.1500000
v 0.5000000 -0.0000000 -0.2500000
v -0.5000000 -0.0000000 -0.2500000
v -0.4000000 -0.0000000 -0.1500000
v 0.4000000 -0.0000000 -0.1500000
v 0.5000000 -0.0000000 0.2500000
v 0.5000000 -0.0000000 -0.2500000
v 0.4000000 -0.0000000 -0.1500000
v 0.4000000 -0.0000000 0.1500000
v 0.1000000 -0.0000000 0.1500000
v 0.1000000 -0.0000000 -0.1500000
v -0.1000000 -0.0000000 -0.1500000
v -0.1000000 -0.0000000 0.1500000
v -0.1625000 -0.1000000 -0.1500000
v -0.1750000 -0.1000000 -0.1500000
v -0.1750000 -3.0000000 -0.1500000
v -0.1625000 -3.0000000 -0.1500000
v 0.1625000 -3.0000000 -0.1500000
v 0.1750000 -3.0000000 -0.1500000
v 0.1750000 -0.1000000 -0.1500000
v 0.1625000 -0.1000000 -0.1500000
v -0.1625000 -3.0000000 0.1500000
v -0.1750000 -3.0000000 0.1500000
v -0.1750000 -0.1000000 0.1500000
v -0.1625000 -0.1000000 0.1500000
v 0.1625000 -0.1000000 0.1500000
v 0.1750000 -0.1000000 0.1500000
v 0.1750000 -3.0000000 0.1500000
v 0.1625000 -3.0000000 0.1500000
v 0.1625000 -0.1000000 -0.1500000
v 0.1000000 -0.1000000 -0.0937500
v 0.1000000 -3.0000000 -0.0937500
v 0.1625000 -3.0000000 -0.1500000
v 0.1000000 -0.1000000 -0.0937500
v 0.1000000 -0.1000000 -0.1500000
v 0.1000000 -3.0000000 -0.1500000
v 0.1000000 -3.0000000 -0.0937500
v 0.1000000 -3.0000000 -0.1500000
v 0.1625000 -3.0000000 -0.1500000
v 0.1000000 -3.0000000 -0.0937500
v -0.1625000 -3.0000000 -0.1500000
v -0.1000000 -3.0000000 -0.0937500
v -0.1000000 -0.1000000 -0.0937500
v -0.1625000 -0.1000000 -0.1500000
v -0.1000000 -3.0000000 -0.0937500
v -0.1000000 -3.0000000 -0.1500000
v -0.1000000 -0.1000000 -0.1500000
v -0.1000000 -0.1000000 -0.0937500
v -0.1000000 -3.0000000 -0.0937500
v -0.1625000 -3.0000000 -0.1500000
v -0.1000000 -3.0000000 -0.1500000
v 0.1625000 -3.0000000 0.1500000
v 0.1000000 -3.0000000 0.0937500
v 0.1000000 -0.1000000 0.0937500
v 0.1625000 -0.1000000 0.1500000
v 0.1000000 -3.0000000 0.0937500
v 0.1000000 -3.0000000 0.1500000
v 0.1000000 -0.1000000 0.1500000
v 0.1000000 -0.1000000 0.0937500
v 0.1000000 -3.0000000 0.0937500
v 0.1625000 -3.0000000 0.1500000
v 0.1000000 -3.0000000 0.1500000
v -0.1625000 -0.1000000 0.1500000
v -0.1000000 -0.1000000 0.0937500
v -0.1000000 -3.0000000 0.0937500
v -0.1625000 -3.0000000 0.1500000
v -0.1000000 -0.1000000 0.0937500
v -0.1000000 -0.1000000 0.1500000
v -0.1000000 -3.0000000 0.1500000
v -0.1000000 -3.0000000 0.0937500
v -0.1000000 -3.0000000 0.1500000
v -0.1625000 -3.0000000 0.1500000
v -0.1000000 -3.0000000 0.0937500
v -0.1000000 -0.1000000 -0.1500000
v -0.1000000 -3.0000000 -0.1500000
v 0.1000000 -3.0000000 -0.1500000
v 0.1000000 -0.1000000 -0.1500000
v 0.1000000 -0.1000000 0.1500000
v 0.1000000 -3.0000000 0.1500000
v -0.1000000 -3.0000000 0.1500000
v -0.1000000 -0.1000000 0.1500000
v 0.5000000 -3.0000000 -0.2500000
v -0.5000000 -3.0000000 -0.2500000
v -0.5000000 -0.0000000 -0.2500000
v 0.5000000 -0.0000000 -0.2500000
s off
f 1 2 3
f 1 3 4
f 5 6 7
f 5 7 8
f 9 10 11
f 9 11 12
f 13 14 15
f 13 15 16
f 17 18 19
f 17 19 20
f 21 22 23
f 21 23 24
f 25 26 27
f 25 27 28
f 29 30 31
f 29 31 32
f 33 34 35
f 33 35 36
f 37 38 39
f 37 39 40
f 41 42 43
f 41 43 44
f 45 46 47
f 45 47 48
f 49 50 51
f 49 51 52
f 53 54 55
f 53 55 56
f 57 58 59
f 57 59 60
f 61 62 63
f 61 63 64
f 65 66 67
f 65 67 68
f 69 70 71
f 69 71 72
f 73 74 75
f 73 75 76
f 77 78 79
f 77 79 80
f 81 82 83
f 81 83 84
f 85 86 87
f 85 87 88
f 89 90 91
f 89 91 92
f 93 94 95
f 93 95 96
f 97 98 99
f 97 99 100
f 101 102 103
f 101 103 104
f 105 106 107
f 105 107 108
f 109 110 111
f 109 111 112
f 113 114 115
f 113 115 116
f 117 118 119
f 117 119 120
f 121 122 123
f 121 123 124
f 125 126 127
f 125 127 128
f 129 130 131
f 129 131 132
f 133 134 135
f 133 135 136
f 137 138 139
f 137 139 140
f 141 142 143
f 141 143 144
f 145 146 147
f 145 147 148
f 149 150 151
f 149 151 152
f 153 154 155
f 153 155 156
f 157 158 159
f 157 159 160
f 161 162 163
f 161 163 164
f 165 166 167
f 165 167 168
f 169 170 171
f 169 171 172
f 173 174 175
f 173 175 176
f 177 178 179
f 177 179 180
f 181 182 183
f 181 183 184
f 185 186 187
f 185 187 188
f 189 190 191
f 189 191 192
f 193 194 195
f 193 195 196
f 197 198 199
f 197 199 200
f 201 202 203
f 201 203 204
f 205 206 207
f 205 207 208
f 209 210 211
f 209 211 212
f 213 214 215
f 213 215 216
f 217 218 219
f 217 219 220
f 221 222 223
f 221 223 224
f 225 226 227
f 225 227 228
f 229 230 231
f 229 231 232
f 233 234 235
f 233 235 236
f 237 238 239
f 237 239 240
f 241 242 243
f 241 243 244
f 245 246 247
f 245 247 248
f 249 250 251
f 249 251 252
f 253 254 255
f 253 255 256
f 257 258 259
f 257 259 260
f 261 262 263
f 261 263 264
f 265 266 267
f 265 267 268
f 269 270 271
f 269 271 272
f 273 274 275
f 273 275 276
f 277 278 279
f 277 279 280
f 281 282 283
f 281 283 284
f 285 286 287
f 285 287 288
f 289 290 291
f 289 291 292
f 293 294 295
f 293 295 296
f 297 298 299
f 297 299 300
f 301 302 303
f 301 303 304
f 305 306 307
f 305 307 308
f 309 310 311
f 309 311 312
f 313 314 315
f 313 315 316
f 317 318 319
f 317 319 320
f 321 322 323
f 321 323 324
f 325 326 327
f 325 327 328
f 329 330 331
f 329 331 332
f 333 334 335
f 333 335 336
f 337 338 339
f 337 339 340
f 341 342 343
f 341 343 344
f 345 346 347
f 345 347 348
f 349 350 351
f 349 351 352
f 353 354 355
f 353 355 356
f 357 358 359
f 357 359 360
f 361 362 363
f 361 363 364
f 365 366 367
f 365 367 368
f 369 370 371
f 369 371 372
f 373 374 375
f 373 375 376
f 377 378 379
f 377 379 380
f 381 382 383
f 381 383 384
f 385 386 387
f 385 387 388
f 389 390 391
f 389 391 392
f 393 394 395
f 393 395 396
f 397 398 399
f 397 399 400
f 401 402 403
f 401 403 404
f 405 406 407
f 405 407 408
f 409 410 411
f 409 411 412
f 413 414 415
f 413 415 416
f 417 418 419
f 417 419 420
f 421 422 423
f 421 423 424
f 425 426 427
f 425 427 428
f 429 430 431
f 429 431 432
f 433 434 435
f 433 435 436
f 437 438 439
f 437 439 440
f 441 442 443
f 441 443 444
f 445 446 447
f 445 447 448
f 449 450 451
f 449 451 452
f 453 454 455
f 453 455 456
f 457 458 459
f 457 459 460
f 461 462 463
f 461 463 464
f 465 466 467
f 465 467 468
f 469 470 471
f 469 471 472
f 473 474 475
f 473 475 476
f 477 478 479
f 477 479 480
f 481 482 483
f 481 483 484
f 485 486 487
f 485 487 488
f 489 490 491
f 489 491 492
f 493 494 495
f 493 495 496
f 497 498 499
f 497 499 500
f 501 502 503
f 501 503 504
f 505 506 507
f 505 507 508
f 509 510 511
f 509 511 512
f 513 514 515
f 513 515 516
f 517 518 519
f 517 519 520
f 521 522 523
f 521 523 524
f 525 526 527
f 525 527 528
f 529 530 531
f 529 531 532
f 533 534 535
f 536 537 538
f 539 540 541
f 542 543 544
f 545 546 547
f 545 547 548
f 549 550 551
f 549 551 552
f 553 554 555
f 553 555 556
f 557 558 559
f 557 559 560
f 561 562 563
f 564 565 566
f 567 568 569
f 570 571 572
f 573 574 575
f 573 575 576
f 577 578 579
f 577 579 580
f 581 582 583
f 581 583 584
f 585 586 587
f 585 587 588
f 589 590 591
f 592 593 594
f 595 596 597
f 598 599 600
f 601 602 603
f 604 605 606
f 607 608 609
f 610 611 612
f 613 614 615
f 616 617 618
f 619 620 621
f 622 623 624
f 625 626 627
f 628 629 630
f 631 632 633
f 634 635 636
f 637 638 639
f 640 641 642
f 643 644 645
f 646 647 648
f 649 650 651
f 652 653 654
f 655 656 657
f 658 659 660
f 661 662 663
f 664 665 666
f 667 668 669
f 670 671 672
f 673 674 675
f 676 677 678
f 679 680 681
f 682 683 684
f 685 686 687
f 685 687 688
f 689 690 691
f 689 691 692
f 693 694 695
f 693 695 696
f 697 698 699
f 697 699 700
f 701 702 703
f 701 703 704
f 705 706 707
f 708 709 710
f 711 712 713
f 714 715 716
f 717 718 719
f 720 721 722
f 723 724 725
f 726 727 728
f 729 730 731
f 732 733 734
f 735 736 737
f 738 739 740
f 741 742 743
f 744 745 746
f 747 748 749
f 750 751 752
f 753 754 755
f 756 757 758
f 759 760 761
f 762 763 764
f 765 766 767
f 768 769 770
f 771 772 773
f 774 775 776
f 777 778 779
f 780 781 782
f 783 784 785
f 786 787 788
f 789 790 791
f 792 793 794
f 795 796 797
f 798 799 800
f 801 802 803
f 801 803 804
f 805 806 807
f 805 807 808
f 809 810 811
f 809 811 812
f 813 814 815
f 813 815 816
f 817 818 819
f 817 819 820
f 821 822 823
f 821 823 824
f 825 826 827
f 825 827 828
f 829 830 831
f 829 831 832
f 833 834 835
f 833 835 836
f 837 838 839
f 837 839 840
f 841 842 843
f 841 843 844
f 845 846 847
f 848 849 850
f 848 850 851
f 852 853 854
f 852 854 855
f 856 857 858
f 859 860 861
f 859 861 862
f 863 864 865
f 863 865 866
f 867 868 869
f 870 871 872
f 870 872 873
f 874 875 876
f 874 876 877
f 878 879 880
f 881 882 883
f 881 883 884
f 885 886 887
f 885 887 888
f 889 890 891
f 889 891 892
