# Baked from official LDraw part 2540.dat
o ldraw_2540
v 0.0000000 -0.2000000 0.0000000
v 0.1000000 -0.2000000 0.0000000
v 0.0923900 -0.2000000 0.0382700
v 0.0000000 -0.2000000 0.0000000
v 0.0923900 -0.2000000 0.0382700
v 0.0707100 -0.2000000 0.0707100
v 0.0000000 -0.2000000 0.0000000
v 0.0707100 -0.2000000 0.0707100
v 0.0382700 -0.2000000 0.0923900
v 0.0000000 -0.2000000 0.0000000
v 0.0382700 -0.2000000 0.0923900
v 0.0000000 -0.2000000 0.1000000
v 0.0000000 -0.2000000 0.0000000
v 0.0000000 -0.2000000 0.1000000
v -0.0382700 -0.2000000 0.0923900
v 0.0000000 -0.2000000 0.0000000
v -0.0382700 -0.2000000 0.0923900
v -0.0707100 -0.2000000 0.0707100
v 0.0000000 -0.2000000 0.0000000
v -0.0707100 -0.2000000 0.0707100
v -0.0923900 -0.2000000 0.0382700
v 0.0000000 -0.2000000 0.0000000
v -0.0923900 -0.2000000 0.0382700
v -0.1000000 -0.2000000 0.0000000
v 0.0000000 -0.2000000 0.0000000
v -0.1000000 -0.2000000 0.0000000
v -0.0923900 -0.2000000 -0.0382700
v 0.0000000 -0.2000000 0.0000000
v -0.0923900 -0.2000000 -0.0382700
v -0.0707100 -0.2000000 -0.0707100
v 0.0000000 -0.2000000 0.0000000
v -0.0707100 -0.2000000 -0.0707100
v -0.0382700 -0.2000000 -0.0923900
v 0.0000000 -0.2000000 0.0000000
v -0.0382700 -0.2000000 -0.0923900
v 0.0000000 -0.2000000 -0.1000000
v 0.0000000 -0.2000000 0.0000000
v 0.0000000 -0.2000000 -0.1000000
v 0.0382700 -0.2000000 -0.0923900
v 0.0000000 -0.2000000 0.0000000
v 0.0382700 -0.2000000 -0.0923900
v 0.0707100 -0.2000000 -0.0707100
v 0.0000000 -0.2000000 0.0000000
v 0.0707100 -0.2000000 -0.0707100
v 0.0923900 -0.2000000 -0.0382700
v 0.0000000 -0.2000000 0.0000000
v 0.0923900 -0.2000000 -0.0382700
v 0.1000000 -0.2000000 0.0000000
v 0.1000000 -0.1000000 0.0000000
v 0.0923900 -0.1000000 0.0382700
v 0.0923900 -0.2000000 0.0382700
v 0.1000000 -0.2000000 0.0000000
v 0.0923900 -0.1000000 0.0382700
v 0.0707100 -0.1000000 0.0707100
v 0.0707100 -0.2000000 0.0707100
v 0.0923900 -0.2000000 0.0382700
v 0.0707100 -0.1000000 0.0707100
v 0.0382700 -0.1000000 0.0923900
v 0.0382700 -0.2000000 0.0923900
v 0.0707100 -0.2000000 0.0707100
v 0.0382700 -0.1000000 0.0923900
v 0.0000000 -0.1000000 0.1000000
v 0.0000000 -0.2000000 0.1000000
v 0.0382700 -0.2000000 0.0923900
v 0.0000000 -0.1000000 0.1000000
v -0.0382700 -0.1000000 0.0923900
v -0.0382700 -0.2000000 0.0923900
v 0.0000000 -0.2000000 0.1000000
v -0.0382700 -0.1000000 0.0923900
v -0.0707100 -0.1000000 0.0707100
v -0.0707100 -0.2000000 0.0707100
v -0.0382700 -0.2000000 0.0923900
v -0.0707100 -0.1000000 0.0707100
v -0.0923900 -0.1000000 0.0382700
v -0.0923900 -0.2000000 0.0382700
v -0.0707100 -0.2000000 0.0707100
v -0.0923900 -0.1000000 0.0382700
v -0.1000000 -0.1000000 0.0000000
v -0.1000000 -0.2000000 0.0000000
v -0.0923900 -0.2000000 0.0382700
v -0.1000000 -0.1000000 0.0000000
v -0.0923900 -0.1000000 -0.0382700
v -0.0923900 -0.2000000 -0.0382700
v -0.1000000 -0.2000000 0.0000000
v -0.0923900 -0.1000000 -0.0382700
v -0.0707100 -0.1000000 -0.0707100
v -0.0707100 -0.2000000 -0.0707100
v -0.0923900 -0.2000000 -0.0382700
v -0.0707100 -0.1000000 -0.0707100
v -0.0382700 -0.1000000 -0.0923900
v -0.0382700 -0.2000000 -0.0923900
v -0.0707100 -0.2000000 -0.0707100
v -0.0382700 -0.1000000 -0.0923900
v 0.0000000 -0.1000000 -0.1000000
v 0.0000000 -0.2000000 -0.1000000
v -0.0382700 -0.2000000 -0.0923900
v 0.0000000 -0.1000000 -0.1000000
v 0.0382700 -0.1000000 -0.0923900
v 0.0382700 -0.2000000 -0.0923900
v 0.0000000 -0.2000000 -0.1000000
v 0.0382700 -0.1000000 -0.0923900
v 0.0707100 -0.1000000 -0.0707100
v 0.0707100 -0.2000000 -0.0707100
v 0.0382700 -0.2000000 -0.0923900
v 0.0707100 -0.1000000 -0.0707100
v 0.0923900 -0.1000000 -0.0382700
v 0.0923900 -0.2000000 -0.0382700
v 0.0707100 -0.2000000 -0.0707100
v 0.0923900 -0.1000000 -0.0382700
v 0.1000000 -0.1000000 0.0000000
v 0.1000000 -0.2000000 0.0000000
v 0.0923900 -0.2000000 -0.0382700
v -0.4000000 -0.1000000 -0.1500000
v 0.4000000 -0.1000000 -0.1500000
v 0.4000000 -0.1000000 0.1500000
v -0.4000000 -0.1000000 0.1500000
v 0.4000000 -0.1000000 0.1500000
v 0.4000000 -0.2000000 0.1500000
v -0.4000000 -0.2000000 0.1500000
v -0.4000000 -0.1000000 0.1500000
v -0.4000000 -0.1000000 0.1500000
v -0.4000000 -0.2000000 0.1500000
v -0.4000000 -0.2000000 -0.1500000
v -0.4000000 -0.1000000 -0.1500000
v -0.4000000 -0.1000000 -0.1500000
v -0.4000000 -0.2000000 -0.1500000
v 0.4000000 -0.2000000 -0.1500000
v 0.4000000 -0.1000000 -0.1500000
v 0.4000000 -0.1000000 -0.1500000
v 0.4000000 -0.2000000 -0.1500000
v 0.4000000 -0.2000000 0.1500000
v 0.4000000 -0.1000000 0.1500000
v -0.5000000 -0.2000000 0.2500000
v -0.4000000 -0.2000000 0.1500000
v 0.4000000 -0.2000000 0.1500000
v 0.5000000 -0.2000000 0.2500000
v -0.5000000 -0.2000000 -0.2500000
v -0.4000000 -0.2000000 -0.1500000
v -0.4000000 -0.2000000 0.1500000
v -0.5000000 -0.2000000 0.2500000
v 0.5000000 -0.2000000 0.2500000
v 0.4000000 -0.2000000 0.1500000
v 0.4000000 -0.2000000 -0.1500000
v 0.5000000 -0.2000000 -0.2500000
v -0.1500000 -0.2000000 -0.2500000
v 0.1500000 -0.2000000 -0.2500000
v 0.4000000 -0.2000000 -0.1500000
v -0.4000000 -0.2000000 -0.1500000
v 0.3000000 -0.2000000 -0.2500000
v 0.5000000 -0.2000000 -0.2500000
v 0.4000000 -0.2000000 -0.1500000
v 0.1500000 -0.2000000 -0.2500000
v 0.3000000 -0.2000000 -0.2500000
v 0.4000000 -0.2000000 -0.1500000
v -0.3000000 -0.2000000 -0.2500000
v -0.1500000 -0.2000000 -0.2500000
v -0.4000000 -0.2000000 -0.1500000
v -0.5000000 -0.2000000 -0.2500000
v -0.3000000 -0.2000000 -0.2500000
v -0.4000000 -0.2000000 -0.1500000
v -0.3000000 -0.2000000 -0.2500000
v -0.5000000 -0.2000000 -0.2500000
v -0.5000000 -0.0000000 -0.2500000
v -0.3000000 -0.0000000 -0.2500000
v -0.1500000 -0.0000000 -0.2500000
v 0.1500000 -0.0000000 -0.2500000
v 0.1500000 -0.2000000 -0.2500000
v -0.1500000 -0.2000000 -0.2500000
v 0.3000000 -0.0000000 -0.2500000
v 0.5000000 -0.0000000 -0.2500000
v 0.5000000 -0.2000000 -0.2500000
v 0.3000000 -0.2000000 -0.2500000
v -0.5000000 -0.2000000 0.2500000
v 0.5000000 -0.2000000 0.2500000
v 0.5000000 -0.0000000 0.2500000
v -0.5000000 -0.0000000 0.2500000
v 0.5000000 -0.2000000 0.2500000
v 0.5000000 -0.2000000 -0.2500000
v 0.5000000 -0.0000000 -0.2500000
v 0.5000000 -0.0000000 0.2500000
v -0.5000000 -0.0000000 0.2500000
v -0.5000000 -0.0000000 -0.2500000
v -0.5000000 -0.2000000 -0.2500000
v -0.5000000 -0.2000000 0.2500000
v -0.2500000 0.1000000 0.1500000
v -0.3074050 0.1000000 0.1385850
v -0.3074050 -0.0000000 0.1385850
v -0.2500000 -0.0000000 0.1500000
v -0.3074050 0.1000000 0.1385850
v -0.3560650 0.1000000 0.1060650
v -0.3560650 -0.0000000 0.1060650
v -0.3074050 -0.0000000 0.1385850
v -0.3560650 0.1000000 0.1060650
v -0.3885850 0.1000000 0.0574050
v -0.3885850 -0.0000000 0.0574050
v -0.3560650 -0.0000000 0.1060650
v -0.3885850 0.1000000 0.0574050
v -0.4000000 0.1000000 0.0000000
v -0.4000000 -0.0000000 0.0000000
v -0.3885850 -0.0000000 0.0574050
v -0.4000000 0.1000000 0.0000000
v -0.3885850 0.1000000 -0.0574050
v -0.3885850 -0.0000000 -0.0574050
v -0.4000000 -0.0000000 0.0000000
v -0.3885850 0.1000000 -0.0574050
v -0.3560650 0.1000000 -0.1060650
v -0.3560650 -0.0000000 -0.1060650
v -0.3885850 -0.0000000 -0.0574050
v -0.3560650 0.1000000 -0.1060650
v -0.3074050 0.1000000 -0.1385850
v -0.3074050 -0.0000000 -0.1385850
v -0.3560650 -0.0000000 -0.1060650
v -0.3074050 0.1000000 -0.1385850
v -0.2500000 0.1000000 -0.1500000
v -0.2500000 -0.0000000 -0.1500000
v -0.3074050 -0.0000000 -0.1385850
v -0.2500000 0.1000000 -0.1500000
v -0.1925950 0.1000000 -0.1385850
v -0.1925950 -0.0000000 -0.1385850
v -0.2500000 -0.0000000 -0.1500000
v -0.1925950 0.1000000 -0.1385850
v -0.1439350 0.1000000 -0.1060650
v -0.1439350 -0.0000000 -0.1060650
v -0.1925950 -0.0000000 -0.1385850
v -0.1439350 0.1000000 -0.1060650
v -0.1114150 0.1000000 -0.0574050
v -0.1114150 -0.0000000 -0.0574050
v -0.1439350 -0.0000000 -0.1060650
v -0.1114150 0.1000000 -0.0574050
v -0.1000000 0.1000000 0.0000000
v -0.1000000 -0.0000000 0.0000000
v -0.1114150 -0.0000000 -0.0574050
v -0.1000000 0.1000000 0.0000000
v -0.1114150 0.1000000 0.0574050
v -0.1114150 -0.0000000 0.0574050
v -0.1000000 -0.0000000 0.0000000
v -0.1114150 0.1000000 0.0574050
v -0.1439350 0.1000000 0.1060650
v -0.1439350 -0.0000000 0.1060650
v -0.1114150 -0.0000000 0.0574050
v -0.1439350 0.1000000 0.1060650
v -0.1925950 0.1000000 0.1385850
v -0.1925950 -0.0000000 0.1385850
v -0.1439350 -0.0000000 0.1060650
v -0.1925950 0.1000000 0.1385850
v -0.2500000 0.1000000 0.1500000
v -0.2500000 -0.0000000 0.1500000
v -0.1925950 -0.0000000 0.1385850
v -0.3074050 0.1000000 0.1385850
v -0.2500000 0.1000000 0.1500000
v -0.2500000 0.1000000 0.0000000
v -0.3560650 0.1000000 0.1060650
v -0.3074050 0.1000000 0.1385850
v -0.2500000 0.1000000 0.0000000
v -0.3885850 0.1000000 0.0574050
v -0.3560650 0.1000000 0.1060650
v -0.2500000 0.1000000 0.0000000
v -0.4000000 0.1000000 0.0000000
v -0.3885850 0.1000000 0.0574050
v -0.2500000 0.1000000 0.0000000
v -0.3885850 0.1000000 -0.0574050
v -0.4000000 0.1000000 0.0000000
v -0.2500000 0.1000000 0.0000000
v -0.3560650 0.1000000 -0.1060650
v -0.3885850 0.1000000 -0.0574050
v -0.2500000 0.1000000 0.0000000
v -0.3074050 0.1000000 -0.1385850
v -0.3560650 0.1000000 -0.1060650
v -0.2500000 0.1000000 0.0000000
v -0.2500000 0.1000000 -0.1500000
v -0.3074050 0.1000000 -0.1385850
v -0.2500000 0.1000000 0.0000000
v -0.1925950 0.1000000 -0.1385850
v -0.2500000 0.1000000 -0.1500000
v -0.2500000 0.1000000 0.0000000
v -0.1439350 0.1000000 -0.1060650
v -0.1925950 0.1000000 -0.1385850
v -0.2500000 0.1000000 0.0000000
v -0.1114150 0.1000000 -0.0574050
v -0.1439350 0.1000000 -0.1060650
v -0.2500000 0.1000000 0.0000000
v -0.1000000 0.1000000 0.0000000
v -0.1114150 0.1000000 -0.0574050
v -0.2500000 0.1000000 0.0000000
v -0.1114150 0.1000000 0.0574050
v -0.1000000 0.1000000 0.0000000
v -0.2500000 0.1000000 0.0000000
v -0.1439350 0.1000000 0.1060650
v -0.1114150 0.1000000 0.0574050
v -0.2500000 0.1000000 0.0000000
v -0.1925950 0.1000000 0.1385850
v -0.1439350 0.1000000 0.1060650
v -0.2500000 0.1000000 0.0000000
v -0.2500000 0.1000000 0.1500000
v -0.1925950 0.1000000 0.1385850
v -0.2500000 0.1000000 0.0000000
v 0.2500000 0.1000000 0.1500000
v 0.1925950 0.1000000 0.1385850
v 0.1925950 -0.0000000 0.1385850
v 0.2500000 -0.0000000 0.1500000
v 0.1925950 0.1000000 0.1385850
v 0.1439350 0.1000000 0.1060650
v 0.1439350 -0.0000000 0.1060650
v 0.1925950 -0.0000000 0.1385850
v 0.1439350 0.1000000 0.1060650
v 0.1114150 0.1000000 0.0574050
v 0.1114150 -0.0000000 0.0574050
v 0.1439350 -0.0000000 0.1060650
v 0.1114150 0.1000000 0.0574050
v 0.1000000 0.1000000 0.0000000
v 0.1000000 -0.0000000 0.0000000
v 0.1114150 -0.0000000 0.0574050
v 0.1000000 0.1000000 0.0000000
v 0.1114150 0.1000000 -0.0574050
v 0.1114150 -0.0000000 -0.0574050
v 0.1000000 -0.0000000 0.0000000
v 0.1114150 0.1000000 -0.0574050
v 0.1439350 0.1000000 -0.1060650
v 0.1439350 -0.0000000 -0.1060650
v 0.1114150 -0.0000000 -0.0574050
v 0.1439350 0.1000000 -0.1060650
v 0.1925950 0.1000000 -0.1385850
v 0.1925950 -0.0000000 -0.1385850
v 0.1439350 -0.0000000 -0.1060650
v 0.1925950 0.1000000 -0.1385850
v 0.2500000 0.1000000 -0.1500000
v 0.2500000 -0.0000000 -0.1500000
v 0.1925950 -0.0000000 -0.1385850
v 0.2500000 0.1000000 -0.1500000
v 0.3074050 0.1000000 -0.1385850
v 0.3074050 -0.0000000 -0.1385850
v 0.2500000 -0.0000000 -0.1500000
v 0.3074050 0.1000000 -0.1385850
v 0.3560650 0.1000000 -0.1060650
v 0.3560650 -0.0000000 -0.1060650
v 0.3074050 -0.0000000 -0.1385850
v 0.3560650 0.1000000 -0.1060650
v 0.3885850 0.1000000 -0.0574050
v 0.3885850 -0.0000000 -0.0574050
v 0.3560650 -0.0000000 -0.1060650
v 0.3885850 0.1000000 -0.0574050
v 0.4000000 0.1000000 0.0000000
v 0.4000000 -0.0000000 0.0000000
v 0.3885850 -0.0000000 -0.0574050
v 0.4000000 0.1000000 0.0000000
v 0.3885850 0.1000000 0.0574050
v 0.3885850 -0.0000000 0.0574050
v 0.4000000 -0.0000000 0.0000000
v 0.3885850 0.1000000 0.0574050
v 0.3560650 0.1000000 0.1060650
v 0.3560650 -0.0000000 0.1060650
v 0.3885850 -0.0000000 0.0574050
v 0.3560650 0.1000000 0.1060650
v 0.3074050 0.1000000 0.1385850
v 0.3074050 -0.0000000 0.1385850
v 0.3560650 -0.0000000 0.1060650
v 0.3074050 0.1000000 0.1385850
v 0.2500000 0.1000000 0.1500000
v 0.2500000 -0.0000000 0.1500000
v 0.3074050 -0.0000000 0.1385850
v 0.1925950 0.1000000 0.1385850
v 0.2500000 0.1000000 0.1500000
v 0.2500000 0.1000000 0.0000000
v 0.1439350 0.1000000 0.1060650
v 0.1925950 0.1000000 0.1385850
v 0.2500000 0.1000000 0.0000000
v 0.1114150 0.1000000 0.0574050
v 0.1439350 0.1000000 0.1060650
v 0.2500000 0.1000000 0.0000000
v 0.1000000 0.1000000 0.0000000
v 0.1114150 0.1000000 0.0574050
v 0.2500000 0.1000000 0.0000000
v 0.1114150 0.1000000 -0.0574050
v 0.1000000 0.1000000 0.0000000
v 0.2500000 0.1000000 0.0000000
v 0.1439350 0.1000000 -0.1060650
v 0.1114150 0.1000000 -0.0574050
v 0.2500000 0.1000000 0.0000000
v 0.1925950 0.1000000 -0.1385850
v 0.1439350 0.1000000 -0.1060650
v 0.2500000 0.1000000 0.0000000
v 0.2500000 0.1000000 -0.1500000
v 0.1925950 0.1000000 -0.1385850
v 0.2500000 0.1000000 0.0000000
v 0.3074050 0.1000000 -0.1385850
v 0.2500000 0.1000000 -0.1500000
v 0.2500000 0.1000000 0.0000000
v 0.3560650 0.1000000 -0.1060650
v 0.3074050 0.1000000 -0.1385850
v 0.2500000 0.1000000 0.0000000
v 0.3885850 0.1000000 -0.0574050
v 0.3560650 0.1000000 -0.1060650
v 0.2500000 0.1000000 0.0000000
v 0.4000000 0.1000000 0.0000000
v 0.3885850 0.1000000 -0.0574050
v 0.2500000 0.1000000 0.0000000
v 0.3885850 0.1000000 0.0574050
v 0.4000000 0.1000000 0.0000000
v 0.2500000 0.1000000 0.0000000
v 0.3560650 0.1000000 0.1060650
v 0.3885850 0.1000000 0.0574050
v 0.2500000 0.1000000 0.0000000
v 0.3074050 0.1000000 0.1385850
v 0.3560650 0.1000000 0.1060650
v 0.2500000 0.1000000 0.0000000
v 0.2500000 0.1000000 0.1500000
v 0.3074050 0.1000000 0.1385850
v 0.2500000 0.1000000 0.0000000
v 0.1500000 -0.1500000 -0.5000000
v 0.1500000 -0.1423900 -0.4617300
v -0.1500000 -0.1423900 -0.4617300
v -0.1500000 -0.1500000 -0.5000000
v 0.1500000 -0.1423900 -0.4617300
v 0.1500000 -0.1207100 -0.4292900
v -0.1500000 -0.1207100 -0.4292900
v -0.1500000 -0.1423900 -0.4617300
v 0.1500000 -0.1207100 -0.4292900
v 0.1500000 -0.0882700 -0.4076100
v -0.1500000 -0.0882700 -0.4076100
v -0.1500000 -0.1207100 -0.4292900
v 0.1500000 -0.0882700 -0.4076100
v 0.1500000 -0.0500000 -0.4000000
v -0.1500000 -0.0500000 -0.4000000
v -0.1500000 -0.0882700 -0.4076100
v 0.1500000 -0.0500000 -0.4000000
v 0.1500000 -0.0117300 -0.4076100
v -0.1500000 -0.0117300 -0.4076100
v -0.1500000 -0.0500000 -0.4000000
v 0.1500000 -0.0117300 -0.4076100
v 0.1500000 0.0207100 -0.4292900
v -0.1500000 0.0207100 -0.4292900
v -0.1500000 -0.0117300 -0.4076100
v 0.1500000 0.0207100 -0.4292900
v 0.1500000 0.0423900 -0.4617300
v -0.1500000 0.0423900 -0.4617300
v -0.1500000 0.0207100 -0.4292900
v 0.1500000 0.0423900 -0.4617300
v 0.1500000 0.0500000 -0.5000000
v -0.1500000 0.0500000 -0.5000000
v -0.1500000 0.0423900 -0.4617300
v 0.1500000 0.0500000 -0.5000000
v 0.1500000 0.0423900 -0.5382700
v -0.1500000 0.0423900 -0.5382700
v -0.1500000 0.0500000 -0.5000000
v 0.1500000 0.0423900 -0.5382700
v 0.1500000 0.0207100 -0.5707100
v -0.1500000 0.0207100 -0.5707100
v -0.1500000 0.0423900 -0.5382700
v 0.1500000 0.0207100 -0.5707100
v 0.1500000 -0.0117300 -0.5923900
v -0.1500000 -0.0117300 -0.5923900
v -0.1500000 0.0207100 -0.5707100
v 0.1500000 -0.0117300 -0.5923900
v 0.1500000 -0.0500000 -0.6000000
v -0.1500000 -0.0500000 -0.6000000
v -0.1500000 -0.0117300 -0.5923900
v 0.1500000 -0.0500000 -0.6000000
v 0.1500000 -0.0882700 -0.5923900
v -0.1500000 -0.0882700 -0.5923900
v -0.1500000 -0.0500000 -0.6000000
v 0.1500000 -0.0882700 -0.5923900
v 0.1500000 -0.1207100 -0.5707100
v -0.1500000 -0.1207100 -0.5707100
v -0.1500000 -0.0882700 -0.5923900
v 0.1500000 -0.1207100 -0.5707100
v 0.1500000 -0.1423900 -0.5382700
v -0.1500000 -0.1423900 -0.5382700
v -0.1500000 -0.1207100 -0.5707100
v 0.1500000 -0.1423900 -0.5382700
v 0.1500000 -0.1500000 -0.5000000
v -0.1500000 -0.1500000 -0.5000000
v -0.1500000 -0.1423900 -0.5382700
v -0.5000000 -0.0500000 -0.5000000
v -0.5000000 -0.1500000 -0.5000000
v -0.5000000 -0.1423900 -0.4617300
v -0.5000000 -0.0500000 -0.5000000
v -0.5000000 -0.1423900 -0.4617300
v -0.5000000 -0.1207100 -0.4292900
v -0.5000000 -0.0500000 -0.5000000
v -0.5000000 -0.1207100 -0.4292900
v -0.5000000 -0.0882700 -0.4076100
v -0.5000000 -0.0500000 -0.5000000
v -0.5000000 -0.0882700 -0.4076100
v -0.5000000 -0.0500000 -0.4000000
v -0.5000000 -0.0500000 -0.5000000
v -0.5000000 -0.0500000 -0.4000000
v -0.5000000 -0.0117300 -0.4076100
v -0.5000000 -0.0500000 -0.5000000
v -0.5000000 -0.0117300 -0.4076100
v -0.5000000 0.0207100 -0.4292900
v -0.5000000 -0.0500000 -0.5000000
v -0.5000000 0.0207100 -0.4292900
v -0.5000000 0.0423900 -0.4617300
v -0.5000000 -0.0500000 -0.5000000
v -0.5000000 0.0423900 -0.4617300
v -0.5000000 0.0500000 -0.5000000
v -0.5000000 -0.0500000 -0.5000000
v -0.5000000 0.0500000 -0.5000000
v -0.5000000 0.0423900 -0.5382700
v -0.5000000 -0.0500000 -0.5000000
v -0.5000000 0.0423900 -0.5382700
v -0.5000000 0.0207100 -0.5707100
v -0.5000000 -0.0500000 -0.5000000
v -0.5000000 0.0207100 -0.5707100
v -0.5000000 -0.0117300 -0.5923900
v -0.5000000 -0.0500000 -0.5000000
v -0.5000000 -0.0117300 -0.5923900
v -0.5000000 -0.0500000 -0.6000000
v -0.5000000 -0.0500000 -0.5000000
v -0.5000000 -0.0500000 -0.6000000
v -0.5000000 -0.0882700 -0.5923900
v -0.5000000 -0.0500000 -0.5000000
v -0.5000000 -0.0882700 -0.5923900
v -0.5000000 -0.1207100 -0.5707100
v -0.5000000 -0.0500000 -0.5000000
v -0.5000000 -0.1207100 -0.5707100
v -0.5000000 -0.1423900 -0.5382700
v -0.5000000 -0.0500000 -0.5000000
v -0.5000000 -0.1423900 -0.5382700
v -0.5000000 -0.1500000 -0.5000000
v -0.3000000 -0.1500000 -0.5000000
v -0.3000000 -0.1423900 -0.4617300
v -0.5000000 -0.1423900 -0.4617300
v -0.5000000 -0.1500000 -0.5000000
v -0.3000000 -0.1423900 -0.4617300
v -0.3000000 -0.1207100 -0.4292900
v -0.5000000 -0.1207100 -0.4292900
v -0.5000000 -0.1423900 -0.4617300
v -0.3000000 -0.1207100 -0.4292900
v -0.3000000 -0.0882700 -0.4076100
v -0.5000000 -0.0882700 -0.4076100
v -0.5000000 -0.1207100 -0.4292900
v -0.3000000 -0.0882700 -0.4076100
v -0.3000000 -0.0500000 -0.4000000
v -0.5000000 -0.0500000 -0.4000000
v -0.5000000 -0.0882700 -0.4076100
v -0.3000000 -0.0500000 -0.4000000
v -0.3000000 -0.0117300 -0.4076100
v -0.5000000 -0.0117300 -0.4076100
v -0.5000000 -0.0500000 -0.4000000
v -0.3000000 -0.0117300 -0.4076100
v -0.3000000 0.0207100 -0.4292900
v -0.5000000 0.0207100 -0.4292900
v -0.5000000 -0.0117300 -0.4076100
v -0.3000000 0.0207100 -0.4292900
v -0.3000000 0.0423900 -0.4617300
v -0.5000000 0.0423900 -0.4617300
v -0.5000000 0.0207100 -0.4292900
v -0.3000000 0.0423900 -0.4617300
v -0.3000000 0.0500000 -0.5000000
v -0.5000000 0.0500000 -0.5000000
v -0.5000000 0.0423900 -0.4617300
v -0.3000000 0.0500000 -0.5000000
v -0.3000000 0.0423900 -0.5382700
v -0.5000000 0.0423900 -0.5382700
v -0.5000000 0.0500000 -0.5000000
v -0.3000000 0.0423900 -0.5382700
v -0.3000000 0.0207100 -0.5707100
v -0.5000000 0.0207100 -0.5707100
v -0.5000000 0.0423900 -0.5382700
v -0.3000000 0.0207100 -0.5707100
v -0.3000000 -0.0117300 -0.5923900
v -0.5000000 -0.0117300 -0.5923900
v -0.5000000 0.0207100 -0.5707100
v -0.3000000 -0.0117300 -0.5923900
v -0.3000000 -0.0500000 -0.6000000
v -0.5000000 -0.0500000 -0.6000000
v -0.5000000 -0.0117300 -0.5923900
v -0.3000000 -0.0500000 -0.6000000
v -0.3000000 -0.0882700 -0.5923900
v -0.5000000 -0.0882700 -0.5923900
v -0.5000000 -0.0500000 -0.6000000
v -0.3000000 -0.0882700 -0.5923900
v -0.3000000 -0.1207100 -0.5707100
v -0.5000000 -0.1207100 -0.5707100
v -0.5000000 -0.0882700 -0.5923900
v -0.3000000 -0.1207100 -0.5707100
v -0.3000000 -0.1423900 -0.5382700
v -0.5000000 -0.1423900 -0.5382700
v -0.5000000 -0.1207100 -0.5707100
v -0.3000000 -0.1423900 -0.5382700
v -0.3000000 -0.1500000 -0.5000000
v -0.5000000 -0.1500000 -0.5000000
v -0.5000000 -0.1423900 -0.5382700
v 0.5000000 -0.1423900 -0.4617300
v 0.5000000 -0.1500000 -0.5000000
v 0.5000000 -0.0500000 -0.5000000
v 0.5000000 -0.1207100 -0.4292900
v 0.5000000 -0.1423900 -0.4617300
v 0.5000000 -0.0500000 -0.5000000
v 0.5000000 -0.0882700 -0.4076100
v 0.5000000 -0.1207100 -0.4292900
v 0.5000000 -0.0500000 -0.5000000
v 0.5000000 -0.0500000 -0.4000000
v 0.5000000 -0.0882700 -0.4076100
v 0.5000000 -0.0500000 -0.5000000
v 0.5000000 -0.0117300 -0.4076100
v 0.5000000 -0.0500000 -0.4000000
v 0.5000000 -0.0500000 -0.5000000
v 0.5000000 0.0207100 -0.4292900
v 0.5000000 -0.0117300 -0.4076100
v 0.5000000 -0.0500000 -0.5000000
v 0.5000000 0.0423900 -0.4617300
v 0.5000000 0.0207100 -0.4292900
v 0.5000000 -0.0500000 -0.5000000
v 0.5000000 0.0500000 -0.5000000
v 0.5000000 0.0423900 -0.4617300
v 0.5000000 -0.0500000 -0.5000000
v 0.5000000 0.0423900 -0.5382700
v 0.5000000 0.0500000 -0.5000000
v 0.5000000 -0.0500000 -0.5000000
v 0.5000000 0.0207100 -0.5707100
v 0.5000000 0.0423900 -0.5382700
v 0.5000000 -0.0500000 -0.5000000
v 0.5000000 -0.0117300 -0.5923900
v 0.5000000 0.0207100 -0.5707100
v 0.5000000 -0.0500000 -0.5000000
v 0.5000000 -0.0500000 -0.6000000
v 0.5000000 -0.0117300 -0.5923900
v 0.5000000 -0.0500000 -0.5000000
v 0.5000000 -0.0882700 -0.5923900
v 0.5000000 -0.0500000 -0.6000000
v 0.5000000 -0.0500000 -0.5000000
v 0.5000000 -0.1207100 -0.5707100
v 0.5000000 -0.0882700 -0.5923900
v 0.5000000 -0.0500000 -0.5000000
v 0.5000000 -0.1423900 -0.5382700
v 0.5000000 -0.1207100 -0.5707100
v 0.5000000 -0.0500000 -0.5000000
v 0.5000000 -0.1500000 -0.5000000
v 0.5000000 -0.1423900 -0.5382700
v 0.5000000 -0.0500000 -0.5000000
v 0.5000000 -0.1500000 -0.5000000
v 0.5000000 -0.1423900 -0.4617300
v 0.3000000 -0.1423900 -0.4617300
v 0.3000000 -0.1500000 -0.5000000
v 0.5000000 -0.1423900 -0.4617300
v 0.5000000 -0.1207100 -0.4292900
v 0.3000000 -0.1207100 -0.4292900
v 0.3000000 -0.1423900 -0.4617300
v 0.5000000 -0.1207100 -0.4292900
v 0.5000000 -0.0882700 -0.4076100
v 0.3000000 -0.0882700 -0.4076100
v 0.3000000 -0.1207100 -0.4292900
v 0.5000000 -0.0882700 -0.4076100
v 0.5000000 -0.0500000 -0.4000000
v 0.3000000 -0.0500000 -0.4000000
v 0.3000000 -0.0882700 -0.4076100
v 0.5000000 -0.0500000 -0.4000000
v 0.5000000 -0.0117300 -0.4076100
v 0.3000000 -0.0117300 -0.4076100
v 0.3000000 -0.0500000 -0.4000000
v 0.5000000 -0.0117300 -0.4076100
v 0.5000000 0.0207100 -0.4292900
v 0.3000000 0.0207100 -0.4292900
v 0.3000000 -0.0117300 -0.4076100
v 0.5000000 0.0207100 -0.4292900
v 0.5000000 0.0423900 -0.4617300
v 0.3000000 0.0423900 -0.4617300
v 0.3000000 0.0207100 -0.4292900
v 0.5000000 0.0423900 -0.4617300
v 0.5000000 0.0500000 -0.5000000
v 0.3000000 0.0500000 -0.5000000
v 0.3000000 0.0423900 -0.4617300
v 0.5000000 0.0500000 -0.5000000
v 0.5000000 0.0423900 -0.5382700
v 0.3000000 0.0423900 -0.5382700
v 0.3000000 0.0500000 -0.5000000
v 0.5000000 0.0423900 -0.5382700
v 0.5000000 0.0207100 -0.5707100
v 0.3000000 0.0207100 -0.5707100
v 0.3000000 0.0423900 -0.5382700
v 0.5000000 0.0207100 -0.5707100
v 0.5000000 -0.0117300 -0.5923900
v 0.3000000 -0.0117300 -0.5923900
v 0.3000000 0.0207100 -0.5707100
v 0.5000000 -0.0117300 -0.5923900
v 0.5000000 -0.0500000 -0.6000000
v 0.3000000 -0.0500000 -0.6000000
v 0.3000000 -0.0117300 -0.5923900
v 0.5000000 -0.0500000 -0.6000000
v 0.5000000 -0.0882700 -0.5923900
v 0.3000000 -0.0882700 -0.5923900
v 0.3000000 -0.0500000 -0.6000000
v 0.5000000 -0.0882700 -0.5923900
v 0.5000000 -0.1207100 -0.5707100
v 0.3000000 -0.1207100 -0.5707100
v 0.3000000 -0.0882700 -0.5923900
v 0.5000000 -0.1207100 -0.5707100
v 0.5000000 -0.1423900 -0.5382700
v 0.3000000 -0.1423900 -0.5382700
v 0.3000000 -0.1207100 -0.5707100
v 0.5000000 -0.1423900 -0.5382700
v 0.5000000 -0.1500000 -0.5000000
v 0.3000000 -0.1500000 -0.5000000
v 0.3000000 -0.1423900 -0.5382700
v 0.5000000 -0.0000000 0.2500000
v 0.1500000 -0.0000000 -0.2500000
v -0.1500000 -0.0000000 -0.2500000
v -0.5000000 -0.0000000 0.2500000
v -0.3000000 -0.0000000 -0.2500000
v -0.5000000 -0.0000000 -0.2500000
v -0.5000000 -0.0000000 0.2500000
v -0.1500000 -0.0000000 -0.2500000
v -0.3000000 -0.0000000 -0.2500000
v -0.5000000 -0.0000000 0.2500000
v 0.3000000 -0.0000000 -0.2500000
v 0.1500000 -0.0000000 -0.2500000
v 0.5000000 -0.0000000 0.2500000
v 0.5000000 -0.0000000 -0.2500000
v 0.3000000 -0.0000000 -0.2500000
v 0.5000000 -0.0000000 0.2500000
v -0.1500000 -0.0000000 -0.3599250
v -0.3000000 -0.0000000 -0.3599250
v -0.3000000 -0.0000000 -0.2500000
v -0.1500000 -0.0000000 -0.2500000
v -0.1500000 -0.0000000 -0.3599250
v -0.1500000 0.0074050 -0.3614150
v -0.3000000 0.0074050 -0.3614150
v -0.3000000 -0.0000000 -0.3599250
v -0.1500000 0.1000000 -0.5000000
v -0.3000000 0.1000000 -0.5000000
v -0.3000000 0.0885850 -0.4425950
v -0.1500000 0.0885850 -0.4425950
v -0.1500000 0.0885850 -0.4425950
v -0.3000000 0.0885850 -0.4425950
v -0.3000000 0.0560650 -0.3939350
v -0.1500000 0.0560650 -0.3939350
v -0.1500000 0.0560650 -0.3939350
v -0.3000000 0.0560650 -0.3939350
v -0.3000000 0.0074050 -0.3614150
v -0.1500000 0.0074050 -0.3614150
v -0.1500000 0.0885850 -0.5574050
v -0.3000000 0.0885850 -0.5574050
v -0.3000000 0.1000000 -0.5000000
v -0.1500000 0.1000000 -0.5000000
v -0.1500000 0.0560650 -0.6060650
v -0.3000000 0.0560650 -0.6060650
v -0.3000000 0.0885850 -0.5574050
v -0.1500000 0.0885850 -0.5574050
v -0.1500000 0.0074050 -0.6385850
v -0.3000000 0.0074050 -0.6385850
v -0.3000000 0.0560650 -0.6060650
v -0.1500000 0.0560650 -0.6060650
v -0.1500000 -0.0500000 -0.6500000
v -0.3000000 -0.0500000 -0.6500000
v -0.3000000 0.0074050 -0.6385850
v -0.1500000 0.0074050 -0.6385850
v -0.1500000 -0.1074050 -0.6385850
v -0.3000000 -0.1074050 -0.6385850
v -0.3000000 -0.0500000 -0.6500000
v -0.1500000 -0.0500000 -0.6500000
v -0.1500000 -0.1560650 -0.6060650
v -0.3000000 -0.1560650 -0.6060650
v -0.3000000 -0.1074050 -0.6385850
v -0.1500000 -0.1074050 -0.6385850
v -0.1500000 -0.1885850 -0.5574050
v -0.3000000 -0.1885850 -0.5574050
v -0.3000000 -0.1560650 -0.6060650
v -0.1500000 -0.1560650 -0.6060650
v -0.1500000 -0.2000000 -0.5000000
v -0.3000000 -0.2000000 -0.5000000
v -0.3000000 -0.1885850 -0.5574050
v -0.1500000 -0.1885850 -0.5574050
v -0.1500000 -0.2000000 -0.2500000
v -0.3000000 -0.2000000 -0.2500000
v -0.3000000 -0.2000000 -0.5000000
v -0.1500000 -0.2000000 -0.5000000
v -0.1500000 -0.1500000 -0.4000000
v -0.1500000 -0.1500000 -0.5000000
v -0.1500000 -0.1423900 -0.4617300
v -0.1500000 -0.1500000 -0.4000000
v -0.1500000 -0.1423900 -0.4617300
v -0.1500000 -0.1207100 -0.4292900
v -0.1500000 -0.1500000 -0.4000000
v -0.1500000 -0.1207100 -0.4292900
v -0.1500000 -0.0882700 -0.4076100
v -0.1500000 -0.1500000 -0.4000000
v -0.1500000 -0.0882700 -0.4076100
v -0.1500000 -0.0500000 -0.4000000
v -0.1500000 -0.0117300 -0.4076100
v -0.1500000 -0.0301100 -0.4000000
v -0.1500000 -0.0500000 -0.4000000
v -0.1500000 -0.2000000 -0.5000000
v -0.1500000 -0.1885850 -0.5574050
v -0.1500000 -0.1423900 -0.5382700
v -0.1500000 -0.1500000 -0.5000000
v -0.1500000 -0.1885850 -0.5574050
v -0.1500000 -0.1560650 -0.6060650
v -0.1500000 -0.1207100 -0.5707100
v -0.1500000 -0.1423900 -0.5382700
v -0.1500000 -0.1560650 -0.6060650
v -0.1500000 -0.1074050 -0.6385850
v -0.1500000 -0.0882700 -0.5923900
v -0.1500000 -0.1207100 -0.5707100
v -0.1500000 -0.1074050 -0.6385850
v -0.1500000 -0.0500000 -0.6500000
v -0.1500000 -0.0500000 -0.6000000
v -0.1500000 -0.0882700 -0.5923900
v -0.1500000 -0.0500000 -0.6500000
v -0.1500000 0.0074050 -0.6385850
v -0.1500000 -0.0117300 -0.5923900
v -0.1500000 -0.0500000 -0.6000000
v -0.1500000 0.0074050 -0.6385850
v -0.1500000 0.0560650 -0.6060650
v -0.1500000 0.0207100 -0.5707100
v -0.1500000 -0.0117300 -0.5923900
v -0.1500000 0.0560650 -0.6060650
v -0.1500000 0.0885850 -0.5574050
v -0.1500000 0.0423900 -0.5382700
v -0.1500000 0.0207100 -0.5707100
v -0.1500000 0.0885850 -0.5574050
v -0.1500000 0.1000000 -0.5000000
v -0.1500000 0.0500000 -0.5000000
v -0.1500000 0.0423900 -0.5382700
v -0.1500000 0.0500000 -0.5000000
v -0.1500000 0.1000000 -0.5000000
v -0.1500000 0.0885850 -0.4425950
v -0.1500000 0.0423900 -0.4617300
v -0.1500000 0.0423900 -0.4617300
v -0.1500000 0.0885850 -0.4425950
v -0.1500000 0.0560650 -0.3939350
v -0.1500000 0.0207100 -0.4292900
v -0.1500000 0.0207100 -0.4292900
v -0.1500000 0.0560650 -0.3939350
v -0.1500000 0.0074050 -0.3614150
v -0.1500000 -0.0117300 -0.4076100
v -0.1500000 -0.1500000 -0.4000000
v -0.1500000 -0.0500000 -0.4000000
v -0.1500000 -0.0000000 -0.2500000
v -0.1500000 -0.2000000 -0.2500000
v -0.1500000 -0.2000000 -0.5000000
v -0.1500000 -0.1500000 -0.5000000
v -0.1500000 -0.1500000 -0.4000000
v -0.1500000 -0.2000000 -0.2500000
v -0.1500000 -0.0301100 -0.4000000
v -0.1500000 -0.0117300 -0.4076100
v -0.1500000 0.0074050 -0.3614150
v -0.1500000 -0.0000000 -0.3599250
v -0.1500000 -0.0000000 -0.3599250
v -0.1500000 -0.0000000 -0.2500000
v -0.1500000 -0.0500000 -0.4000000
v -0.1500000 -0.0301100 -0.4000000
v -0.3000000 -0.1423900 -0.4617300
v -0.3000000 -0.1500000 -0.5000000
v -0.3000000 -0.1500000 -0.4000000
v -0.3000000 -0.1207100 -0.4292900
v -0.3000000 -0.1423900 -0.4617300
v -0.3000000 -0.1500000 -0.4000000
v -0.3000000 -0.0882700 -0.4076100
v -0.3000000 -0.1207100 -0.4292900
v -0.3000000 -0.1500000 -0.4000000
v -0.3000000 -0.0500000 -0.4000000
v -0.3000000 -0.0882700 -0.4076100
v -0.3000000 -0.1500000 -0.4000000
v -0.3000000 -0.0500000 -0.4000000
v -0.3000000 -0.0301100 -0.4000000
v -0.3000000 -0.0117300 -0.4076100
v -0.3000000 -0.1500000 -0.5000000
v -0.3000000 -0.1423900 -0.5382700
v -0.3000000 -0.1885850 -0.5574050
v -0.3000000 -0.2000000 -0.5000000
v -0.3000000 -0.1423900 -0.5382700
v -0.3000000 -0.1207100 -0.5707100
v -0.3000000 -0.1560650 -0.6060650
v -0.3000000 -0.1885850 -0.5574050
v -0.3000000 -0.1207100 -0.5707100
v -0.3000000 -0.0882700 -0.5923900
v -0.3000000 -0.1074050 -0.6385850
v -0.3000000 -0.1560650 -0.6060650
v -0.3000000 -0.0882700 -0.5923900
v -0.3000000 -0.0500000 -0.6000000
v -0.3000000 -0.0500000 -0.6500000
v -0.3000000 -0.1074050 -0.6385850
v -0.3000000 -0.0500000 -0.6000000
v -0.3000000 -0.0117300 -0.5923900
v -0.3000000 0.0074050 -0.6385850
v -0.3000000 -0.0500000 -0.6500000
v -0.3000000 -0.0117300 -0.5923900
v -0.3000000 0.0207100 -0.5707100
v -0.3000000 0.0560650 -0.6060650
v -0.3000000 0.0074050 -0.6385850
v -0.3000000 0.0207100 -0.5707100
v -0.3000000 0.0423900 -0.5382700
v -0.3000000 0.0885850 -0.5574050
v -0.3000000 0.0560650 -0.6060650
v -0.3000000 0.0423900 -0.5382700
v -0.3000000 0.0500000 -0.5000000
v -0.3000000 0.1000000 -0.5000000
v -0.3000000 0.0885850 -0.5574050
v -0.3000000 0.0423900 -0.4617300
v -0.3000000 0.0885850 -0.4425950
v -0.3000000 0.1000000 -0.5000000
v -0.3000000 0.0500000 -0.5000000
v -0.3000000 0.0207100 -0.4292900
v -0.3000000 0.0560650 -0.3939350
v -0.3000000 0.0885850 -0.4425950
v -0.3000000 0.0423900 -0.4617300
v -0.3000000 -0.0117300 -0.4076100
v -0.3000000 0.0074050 -0.3614150
v -0.3000000 0.0560650 -0.3939350
v -0.3000000 0.0207100 -0.4292900
v -0.3000000 -0.1500000 -0.4000000
v -0.3000000 -0.2000000 -0.2500000
v -0.3000000 -0.0000000 -0.2500000
v -0.3000000 -0.0500000 -0.4000000
v -0.3000000 -0.2000000 -0.5000000
v -0.3000000 -0.2000000 -0.2500000
v -0.3000000 -0.1500000 -0.4000000
v -0.3000000 -0.1500000 -0.5000000
v -0.3000000 -0.0301100 -0.4000000
v -0.3000000 -0.0000000 -0.3599250
v -0.3000000 0.0074050 -0.3614150
v -0.3000000 -0.0117300 -0.4076100
v -0.3000000 -0.0000000 -0.3599250
v -0.3000000 -0.0301100 -0.4000000
v -0.3000000 -0.0500000 -0.4000000
v -0.3000000 -0.0000000 -0.2500000
v 0.1500000 -0.0000000 -0.2500000
v 0.3000000 -0.0000000 -0.2500000
v 0.3000000 -0.0000000 -0.3599250
v 0.1500000 -0.0000000 -0.3599250
v 0.3000000 -0.0000000 -0.3599250
v 0.3000000 0.0074050 -0.3614150
v 0.1500000 0.0074050 -0.3614150
v 0.1500000 -0.0000000 -0.3599250
v 0.1500000 0.0885850 -0.4425950
v 0.3000000 0.0885850 -0.4425950
v 0.3000000 0.1000000 -0.5000000
v 0.1500000 0.1000000 -0.5000000
v 0.1500000 0.0560650 -0.3939350
v 0.3000000 0.0560650 -0.3939350
v 0.3000000 0.0885850 -0.4425950
v 0.1500000 0.0885850 -0.4425950
v 0.1500000 0.0074050 -0.3614150
v 0.3000000 0.0074050 -0.3614150
v 0.3000000 0.0560650 -0.3939350
v 0.1500000 0.0560650 -0.3939350
v 0.1500000 0.1000000 -0.5000000
v 0.3000000 0.1000000 -0.5000000
v 0.3000000 0.0885850 -0.5574050
v 0.1500000 0.0885850 -0.5574050
v 0.1500000 0.0885850 -0.5574050
v 0.3000000 0.0885850 -0.5574050
v 0.3000000 0.0560650 -0.6060650
v 0.1500000 0.0560650 -0.6060650
v 0.1500000 0.0560650 -0.6060650
v 0.3000000 0.0560650 -0.6060650
v 0.3000000 0.0074050 -0.6385850
v 0.1500000 0.0074050 -0.6385850
v 0.1500000 0.0074050 -0.6385850
v 0.3000000 0.0074050 -0.6385850
v 0.3000000 -0.0500000 -0.6500000
v 0.1500000 -0.0500000 -0.6500000
v 0.1500000 -0.0500000 -0.6500000
v 0.3000000 -0.0500000 -0.6500000
v 0.3000000 -0.1074050 -0.6385850
v 0.1500000 -0.1074050 -0.6385850
v 0.1500000 -0.1074050 -0.6385850
v 0.3000000 -0.1074050 -0.6385850
v 0.3000000 -0.1560650 -0.6060650
v 0.1500000 -0.1560650 -0.6060650
v 0.1500000 -0.1560650 -0.6060650
v 0.3000000 -0.1560650 -0.6060650
v 0.3000000 -0.1885850 -0.5574050
v 0.1500000 -0.1885850 -0.5574050
v 0.1500000 -0.1885850 -0.5574050
v 0.3000000 -0.1885850 -0.5574050
v 0.3000000 -0.2000000 -0.5000000
v 0.1500000 -0.2000000 -0.5000000
v 0.1500000 -0.2000000 -0.5000000
v 0.3000000 -0.2000000 -0.5000000
v 0.3000000 -0.2000000 -0.2500000
v 0.1500000 -0.2000000 -0.2500000
v 0.1500000 -0.1423900 -0.4617300
v 0.1500000 -0.1500000 -0.5000000
v 0.1500000 -0.1500000 -0.4000000
v 0.1500000 -0.1207100 -0.4292900
v 0.1500000 -0.1423900 -0.4617300
v 0.1500000 -0.1500000 -0.4000000
v 0.1500000 -0.0882700 -0.4076100
v 0.1500000 -0.1207100 -0.4292900
v 0.1500000 -0.1500000 -0.4000000
v 0.1500000 -0.0500000 -0.4000000
v 0.1500000 -0.0882700 -0.4076100
v 0.1500000 -0.1500000 -0.4000000
v 0.1500000 -0.0500000 -0.4000000
v 0.1500000 -0.0301100 -0.4000000
v 0.1500000 -0.0117300 -0.4076100
v 0.1500000 -0.1500000 -0.5000000
v 0.1500000 -0.1423900 -0.5382700
v 0.1500000 -0.1885850 -0.5574050
v 0.1500000 -0.2000000 -0.5000000
v 0.1500000 -0.1423900 -0.5382700
v 0.1500000 -0.1207100 -0.5707100
v 0.1500000 -0.1560650 -0.6060650
v 0.1500000 -0.1885850 -0.5574050
v 0.1500000 -0.1207100 -0.5707100
v 0.1500000 -0.0882700 -0.5923900
v 0.1500000 -0.1074050 -0.6385850
v 0.1500000 -0.1560650 -0.6060650
v 0.1500000 -0.0882700 -0.5923900
v 0.1500000 -0.0500000 -0.6000000
v 0.1500000 -0.0500000 -0.6500000
v 0.1500000 -0.1074050 -0.6385850
v 0.1500000 -0.0500000 -0.6000000
v 0.1500000 -0.0117300 -0.5923900
v 0.1500000 0.0074050 -0.6385850
v 0.1500000 -0.0500000 -0.6500000
v 0.1500000 -0.0117300 -0.5923900
v 0.1500000 0.0207100 -0.5707100
v 0.1500000 0.0560650 -0.6060650
v 0.1500000 0.0074050 -0.6385850
v 0.1500000 0.0207100 -0.5707100
v 0.1500000 0.0423900 -0.5382700
v 0.1500000 0.0885850 -0.5574050
v 0.1500000 0.0560650 -0.6060650
v 0.1500000 0.0423900 -0.5382700
v 0.1500000 0.0500000 -0.5000000
v 0.1500000 0.1000000 -0.5000000
v 0.1500000 0.0885850 -0.5574050
v 0.1500000 0.0423900 -0.4617300
v 0.1500000 0.0885850 -0.4425950
v 0.1500000 0.1000000 -0.5000000
v 0.1500000 0.0500000 -0.5000000
v 0.1500000 0.0207100 -0.4292900
v 0.1500000 0.0560650 -0.3939350
v 0.1500000 0.0885850 -0.4425950
v 0.1500000 0.0423900 -0.4617300
v 0.1500000 -0.0117300 -0.4076100
v 0.1500000 0.0074050 -0.3614150
v 0.1500000 0.0560650 -0.3939350
v 0.1500000 0.0207100 -0.4292900
v 0.1500000 -0.2000000 -0.2500000
v 0.1500000 -0.0000000 -0.2500000
v 0.1500000 -0.0500000 -0.4000000
v 0.1500000 -0.1500000 -0.4000000
v 0.1500000 -0.2000000 -0.2500000
v 0.1500000 -0.1500000 -0.4000000
v 0.1500000 -0.1500000 -0.5000000
v 0.1500000 -0.2000000 -0.5000000
v 0.1500000 -0.0000000 -0.3599250
v 0.1500000 0.0074050 -0.3614150
v 0.1500000 -0.0117300 -0.4076100
v 0.1500000 -0.0301100 -0.4000000
v 0.1500000 -0.0301100 -0.4000000
v 0.1500000 -0.0500000 -0.4000000
v 0.1500000 -0.0000000 -0.2500000
v 0.1500000 -0.0000000 -0.3599250
v 0.3000000 -0.1500000 -0.4000000
v 0.3000000 -0.1500000 -0.5000000
v 0.3000000 -0.1423900 -0.4617300
v 0.3000000 -0.1500000 -0.4000000
v 0.3000000 -0.1423900 -0.4617300
v 0.3000000 -0.1207100 -0.4292900
v 0.3000000 -0.1500000 -0.4000000
v 0.3000000 -0.1207100 -0.4292900
v 0.3000000 -0.0882700 -0.4076100
v 0.3000000 -0.1500000 -0.4000000
v 0.3000000 -0.0882700 -0.4076100
v 0.3000000 -0.0500000 -0.4000000
v 0.3000000 -0.0117300 -0.4076100
v 0.3000000 -0.0301100 -0.4000000
v 0.3000000 -0.0500000 -0.4000000
v 0.3000000 -0.2000000 -0.5000000
v 0.3000000 -0.1885850 -0.5574050
v 0.3000000 -0.1423900 -0.5382700
v 0.3000000 -0.1500000 -0.5000000
v 0.3000000 -0.1885850 -0.5574050
v 0.3000000 -0.1560650 -0.6060650
v 0.3000000 -0.1207100 -0.5707100
v 0.3000000 -0.1423900 -0.5382700
v 0.3000000 -0.1560650 -0.6060650
v 0.3000000 -0.1074050 -0.6385850
v 0.3000000 -0.0882700 -0.5923900
v 0.3000000 -0.1207100 -0.5707100
v 0.3000000 -0.1074050 -0.6385850
v 0.3000000 -0.0500000 -0.6500000
v 0.3000000 -0.0500000 -0.6000000
v 0.3000000 -0.0882700 -0.5923900
v 0.3000000 -0.0500000 -0.6500000
v 0.3000000 0.0074050 -0.6385850
v 0.3000000 -0.0117300 -0.5923900
v 0.3000000 -0.0500000 -0.6000000
v 0.3000000 0.0074050 -0.6385850
v 0.3000000 0.0560650 -0.6060650
v 0.3000000 0.0207100 -0.5707100
v 0.3000000 -0.0117300 -0.5923900
v 0.3000000 0.0560650 -0.6060650
v 0.3000000 0.0885850 -0.5574050
v 0.3000000 0.0423900 -0.5382700
v 0.3000000 0.0207100 -0.5707100
v 0.3000000 0.0885850 -0.5574050
v 0.3000000 0.1000000 -0.5000000
v 0.3000000 0.0500000 -0.5000000
v 0.3000000 0.0423900 -0.5382700
v 0.3000000 0.0500000 -0.5000000
v 0.3000000 0.1000000 -0.5000000
v 0.3000000 0.0885850 -0.4425950
v 0.3000000 0.0423900 -0.4617300
v 0.3000000 0.0423900 -0.4617300
v 0.3000000 0.0885850 -0.4425950
v 0.3000000 0.0560650 -0.3939350
v 0.3000000 0.0207100 -0.4292900
v 0.3000000 0.0207100 -0.4292900
v 0.3000000 0.0560650 -0.3939350
v 0.3000000 0.0074050 -0.3614150
v 0.3000000 -0.0117300 -0.4076100
v 0.3000000 -0.0500000 -0.4000000
v 0.3000000 -0.0000000 -0.2500000
v 0.3000000 -0.2000000 -0.2500000
v 0.3000000 -0.1500000 -0.4000000
v 0.3000000 -0.1500000 -0.5000000
v 0.3000000 -0.1500000 -0.4000000
v 0.3000000 -0.2000000 -0.2500000
v 0.3000000 -0.2000000 -0.5000000
v 0.3000000 -0.0117300 -0.4076100
v 0.3000000 0.0074050 -0.3614150
v 0.3000000 -0.0000000 -0.3599250
v 0.3000000 -0.0301100 -0.4000000
v 0.3000000 -0.0000000 -0.2500000
v 0.3000000 -0.0500000 -0.4000000
v 0.3000000 -0.0301100 -0.4000000
v 0.3000000 -0.0000000 -0.3599250
s off
f 1 2 3
f 4 5 6
f 7 8 9
f 10 11 12
f 13 14 15
f 16 17 18
f 19 20 21
f 22 23 24
f 25 26 27
f 28 29 30
f 31 32 33
f 34 35 36
f 37 38 39
f 40 41 42
f 43 44 45
f 46 47 48
f 49 50 51
f 49 51 52
f 53 54 55
f 53 55 56
f 57 58 59
f 57 59 60
f 61 62 63
f 61 63 64
f 65 66 67
f 65 67 68
f 69 70 71
f 69 71 72
f 73 74 75
f 73 75 76
f 77 78 79
f 77 79 80
f 81 82 83
f 81 83 84
f 85 86 87
f 85 87 88
f 89 90 91
f 89 91 92
f 93 94 95
f 93 95 96
f 97 98 99
f 97 99 100
f 101 102 103
f 101 103 104
f 105 106 107
f 105 107 108
f 109 110 111
f 109 111 112
f 113 114 115
f 113 115 116
f 117 118 119
f 117 119 120
f 121 122 123
f 121 123 124
f 125 126 127
f 125 127 128
f 129 130 131
f 129 131 132
f 133 134 135
f 133 135 136
f 137 138 139
f 137 139 140
f 141 142 143
f 141 143 144
f 145 146 147
f 145 147 148
f 149 150 151
f 152 153 154
f 155 156 157
f 158 159 160
f 161 162 163
f 161 163 164
f 165 166 167
f 165 167 168
f 169 170 171
f 169 171 172
f 173 174 175
f 173 175 176
f 177 178 179
f 177 179 180
f 181 182 183
f 181 183 184
f 185 186 187
f 185 187 188
f 189 190 191
f 189 191 192
f 193 194 195
f 193 195 196
f 197 198 199
f 197 199 200
f 201 202 203
f 201 203 204
f 205 206 207
f 205 207 208
f 209 210 211
f 209 211 212
f 213 214 215
f 213 215 216
f 217 218 219
f 217 219 220
f 221 222 223
f 221 223 224
f 225 226 227
f 225 227 228
f 229 230 231
f 229 231 232
f 233 234 235
f 233 235 236
f 237 238 239
f 237 239 240
f 241 242 243
f 241 243 244
f 245 246 247
f 245 247 248
f 249 250 251
f 252 253 254
f 255 256 257
f 258 259 260
f 261 262 263
f 264 265 266
f 267 268 269
f 270 271 272
f 273 274 275
f 276 277 278
f 279 280 281
f 282 283 284
f 285 286 287
f 288 289 290
f 291 292 293
f 294 295 296
f 297 298 299
f 297 299 300
f 301 302 303
f 301 303 304
f 305 306 307
f 305 307 308
f 309 310 311
f 309 311 312
f 313 314 315
f 313 315 316
f 317 318 319
f 317 319 320
f 321 322 323
f 321 323 324
f 325 326 327
f 325 327 328
f 329 330 331
f 329 331 332
f 333 334 335
f 333 335 336
f 337 338 339
f 337 339 340
f 341 342 343
f 341 343 344
f 345 346 347
f 345 347 348
f 349 350 351
f 349 351 352
f 353 354 355
f 353 355 356
f 357 358 359
f 357 359 360
f 361 362 363
f 364 365 366
f 367 368 369
f 370 371 372
f 373 374 375
f 376 377 378
f 379 380 381
f 382 383 384
f 385 386 387
f 388 389 390
f 391 392 393
f 394 395 396
f 397 398 399
f 400 401 402
f 403 404 405
f 406 407 408
f 409 410 411
f 409 411 412
f 413 414 415
f 413 415 416
f 417 418 419
f 417 419 420
f 421 422 423
f 421 423 424
f 425 426 427
f 425 427 428
f 429 430 431
f 429 431 432
f 433 434 435
f 433 435 436
f 437 438 439
f 437 439 440
f 441 442 443
f 441 443 444
f 445 446 447
f 445 447 448
f 449 450 451
f 449 451 452
f 453 454 455
f 453 455 456
f 457 458 459
f 457 459 460
f 461 462 463
f 461 463 464
f 465 466 467
f 465 467 468
f 469 470 471
f 469 471 472
f 473 474 475
f 476 477 478
f 479 480 481
f 482 483 484
f 485 486 487
f 488 489 490
f 491 492 493
f 494 495 496
f 497 498 499
f 500 501 502
f 503 504 505
f 506 507 508
f 509 510 511
f 512 513 514
f 515 516 517
f 518 519 520
f 521 522 523
f 521 523 524
f 525 526 527
f 525 527 528
f 529 530 531
f 529 531 532
f 533 534 535
f 533 535 536
f 537 538 539
f 537 539 540
f 541 542 543
f 541 543 544
f 545 546 547
f 545 547 548
f 549 550 551
f 549 551 552
f 553 554 555
f 553 555 556
f 557 558 559
f 557 559 560
f 561 562 563
f 561 563 564
f 565 566 567
f 565 567 568
f 569 570 571
f 569 571 572
f 573 574 575
f 573 575 576
f 577 578 579
f 577 579 580
f 581 582 583
f 581 583 584
f 585 586 587
f 588 589 590
f 591 592 593
f 594 595 596
f 597 598 599
f 600 601 602
f 603 604 605
f 606 607 608
f 609 610 611
f 612 613 614
f 615 616 617
f 618 619 620
f 621 622 623
f 624 625 626
f 627 628 629
f 630 631 632
f 633 634 635
f 633 635 636
f 637 638 639
f 637 639 640
f 641 642 643
f 641 643 644
f 645 646 647
f 645 647 648
f 649 650 651
f 649 651 652
f 653 654 655
f 653 655 656
f 657 658 659
f 657 659 660
f 661 662 663
f 661 663 664
f 665 666 667
f 665 667 668
f 669 670 671
f 669 671 672
f 673 674 675
f 673 675 676
f 677 678 679
f 677 679 680
f 681 682 683
f 681 683 684
f 685 686 687
f 685 687 688
f 689 690 691
f 689 691 692
f 693 694 695
f 693 695 696
f 697 698 699
f 697 699 700
f 701 702 703
f 704 705 706
f 707 708 709
f 710 711 712
f 713 714 715
f 713 715 716
f 717 718 719
f 717 719 720
f 721 722 723
f 721 723 724
f 725 726 727
f 725 727 728
f 729 730 731
f 729 731 732
f 733 734 735
f 733 735 736
f 737 738 739
f 737 739 740
f 741 742 743
f 741 743 744
f 745 746 747
f 745 747 748
f 749 750 751
f 749 751 752
f 753 754 755
f 753 755 756
f 757 758 759
f 757 759 760
f 761 762 763
f 761 763 764
f 765 766 767
f 765 767 768
f 769 770 771
f 772 773 774
f 775 776 777
f 778 779 780
f 781 782 783
f 784 785 786
f 784 786 787
f 788 789 790
f 788 790 791
f 792 793 794
f 792 794 795
f 796 797 798
f 796 798 799
f 800 801 802
f 800 802 803
f 804 805 806
f 804 806 807
f 808 809 810
f 808 810 811
f 812 813 814
f 812 814 815
f 816 817 818
f 816 818 819
f 820 821 822
f 820 822 823
f 824 825 826
f 824 826 827
f 828 829 830
f 828 830 831
f 832 833 834
f 832 834 835
f 836 837 838
f 836 838 839
f 840 841 842
f 840 842 843
f 844 845 846
f 847 848 849
f 850 851 852
f 853 854 855
f 856 857 858
f 859 860 861
f 859 861 862
f 863 864 865
f 863 865 866
f 867 868 869
f 867 869 870
f 871 872 873
f 871 873 874
f 875 876 877
f 875 877 878
f 879 880 881
f 879 881 882
f 883 884 885
f 883 885 886
f 887 888 889
f 887 889 890
f 891 892 893
f 891 893 894
f 895 896 897
f 895 897 898
f 899 900 901
f 899 901 902
f 903 904 905
f 903 905 906
f 907 908 909
f 907 909 910
f 911 912 913
f 911 913 914
f 915 916 917
f 915 917 918
f 919 920 921
f 919 921 922
f 923 924 925
f 923 925 926
f 927 928 929
f 927 929 930
f 931 932 933
f 931 933 934
f 935 936 937
f 935 937 938
f 939 940 941
f 939 941 942
f 943 944 945
f 943 945 946
f 947 948 949
f 947 949 950
f 951 952 953
f 951 953 954
f 955 956 957
f 955 957 958
f 959 960 961
f 959 961 962
f 963 964 965
f 963 965 966
f 967 968 969
f 967 969 970
f 971 972 973
f 971 973 974
f 975 976 977
f 978 979 980
f 981 982 983
f 984 985 986
f 987 988 989
f 990 991 992
f 990 992 993
f 994 995 996
f 994 996 997
f 998 999 1000
f 998 1000 1001
f 1002 1003 1004
f 1002 1004 1005
f 1006 1007 1008
f 1006 1008 1009
f 1010 1011 1012
f 1010 1012 1013
f 1014 1015 1016
f 1014 1016 1017
f 1018 1019 1020
f 1018 1020 1021
f 1022 1023 1024
f 1022 1024 1025
f 1026 1027 1028
f 1026 1028 1029
f 1030 1031 1032
f 1030 1032 1033
f 1034 1035 1036
f 1034 1036 1037
f 1038 1039 1040
f 1038 1040 1041
f 1042 1043 1044
f 1042 1044 1045
f 1046 1047 1048
f 1046 1048 1049
f 1050 1051 1052
f 1053 1054 1055
f 1056 1057 1058
f 1059 1060 1061
f 1062 1063 1064
f 1065 1066 1067
f 1065 1067 1068
f 1069 1070 1071
f 1069 1071 1072
f 1073 1074 1075
f 1073 1075 1076
f 1077 1078 1079
f 1077 1079 1080
f 1081 1082 1083
f 1081 1083 1084
f 1085 1086 1087
f 1085 1087 1088
f 1089 1090 1091
f 1089 1091 1092
f 1093 1094 1095
f 1093 1095 1096
f 1097 1098 1099
f 1097 1099 1100
f 1101 1102 1103
f 1101 1103 1104
f 1105 1106 1107
f 1105 1107 1108
f 1109 1110 1111
f 1109 1111 1112
f 1113 1114 1115
f 1113 1115 1116
f 1117 1118 1119
f 1117 1119 1120
f 1121 1122 1123
f 1121 1123 1124
