# Baked from official LDraw part 2555.dat
o ldraw_2555
v -0.2500000 -0.0000000 0.2500000
v -0.2500000 -0.2000000 0.2500000
v 0.2500000 -0.2000000 0.2500000
v 0.2500000 -0.0000000 0.2500000
v -0.2500000 -0.0000000 -0.2500000
v -0.2500000 -0.2000000 -0.2500000
v -0.2500000 -0.2000000 0.2500000
v -0.2500000 -0.0000000 0.2500000
v 0.2500000 -0.0000000 -0.2500000
v 0.2500000 -0.2000000 -0.2500000
v -0.2500000 -0.2000000 -0.2500000
v -0.2500000 -0.0000000 -0.2500000
v 0.2500000 -0.0000000 0.2500000
v 0.2500000 -0.2000000 0.2500000
v 0.2500000 -0.2000000 -0.2500000
v 0.2500000 -0.0000000 -0.2500000
v -0.1500000 -0.1000000 -0.1500000
v 0.1500000 -0.1000000 -0.1500000
v 0.1500000 -0.1000000 0.1500000
v -0.1500000 -0.1000000 0.1500000
v 0.1500000 -0.1000000 0.1500000
v 0.1500000 -0.2000000 0.1500000
v -0.1500000 -0.2000000 0.1500000
v -0.1500000 -0.1000000 0.1500000
v -0.1500000 -0.1000000 0.1500000
v -0.1500000 -0.2000000 0.1500000
v -0.1500000 -0.2000000 -0.1500000
v -0.1500000 -0.1000000 -0.1500000
v -0.1500000 -0.1000000 -0.1500000
v -0.1500000 -0.2000000 -0.1500000
v 0.1500000 -0.2000000 -0.1500000
v 0.1500000 -0.1000000 -0.1500000
v 0.1500000 -0.1000000 -0.1500000
v 0.1500000 -0.2000000 -0.1500000
v 0.1500000 -0.2000000 0.1500000
v 0.1500000 -0.1000000 0.1500000
v -0.2500000 -0.2000000 0.2500000
v -0.1500000 -0.2000000 0.1500000
v 0.1500000 -0.2000000 0.1500000
v 0.2500000 -0.2000000 0.2500000
v -0.2500000 -0.2000000 -0.2500000
v -0.1500000 -0.2000000 -0.1500000
v -0.1500000 -0.2000000 0.1500000
v -0.2500000 -0.2000000 0.2500000
v 0.2500000 -0.2000000 -0.2500000
v 0.1500000 -0.2000000 -0.1500000
v -0.1500000 -0.2000000 -0.1500000
v -0.2500000 -0.2000000 -0.2500000
v 0.2500000 -0.2000000 0.2500000
v 0.1500000 -0.2000000 0.1500000
v 0.1500000 -0.2000000 -0.1500000
v 0.2500000 -0.2000000 -0.2500000
v -0.2500000 -0.0000000 0.2500000
v 0.2500000 -0.0000000 0.2500000
v 0.2500000 -0.0000000 -0.2500000
v -0.2500000 -0.0000000 -0.2500000
v -0.2500000 -0.0000000 -0.1000000
v -0.1000000 0.0500000 -0.1000000
v 0.1000000 0.0500000 -0.1000000
v 0.2500000 -0.0000000 -0.1000000
v 0.2500000 -0.0000000 0.1000000
v 0.1000000 0.0500000 0.1000000
v -0.1000000 0.0500000 0.1000000
v -0.2500000 -0.0000000 0.1000000
v 0.0000000 0.0500000 0.1000000
v -0.0382700 0.0576100 0.1000000
v -0.1000000 0.0500000 0.1000000
v -0.0382700 0.0576100 0.1000000
v -0.0707100 0.0792900 0.1000000
v -0.1000000 0.0500000 0.1000000
v -0.0707100 0.0792900 0.1000000
v -0.0923900 0.1117300 0.1000000
v -0.1000000 0.0500000 0.1000000
v -0.0923900 0.1117300 0.1000000
v -0.1000000 0.1500000 0.1000000
v -0.1000000 0.0500000 0.1000000
v -0.1000000 0.1500000 0.1000000
v -0.0923900 0.1882700 0.1000000
v -0.1000000 0.2500000 0.1000000
v 0.1000000 0.0500000 0.1000000
v 0.0382700 0.0576100 0.1000000
v 0.0000000 0.0500000 0.1000000
v 0.1000000 0.0500000 0.1000000
v 0.0707100 0.0792900 0.1000000
v 0.0382700 0.0576100 0.1000000
v 0.1000000 0.0500000 0.1000000
v 0.0923900 0.1117300 0.1000000
v 0.0707100 0.0792900 0.1000000
v 0.1000000 0.0500000 0.1000000
v 0.1000000 0.1500000 0.1000000
v 0.0923900 0.1117300 0.1000000
v 0.1000000 0.2500000 0.1000000
v 0.0923900 0.1882700 0.1000000
v 0.1000000 0.1500000 0.1000000
v -0.1000000 0.0500000 -0.1000000
v -0.0382700 0.0576100 -0.1000000
v 0.0000000 0.0500000 -0.1000000
v -0.1000000 0.0500000 -0.1000000
v -0.0707100 0.0792900 -0.1000000
v -0.0382700 0.0576100 -0.1000000
v -0.1000000 0.0500000 -0.1000000
v -0.0923900 0.1117300 -0.1000000
v -0.0707100 0.0792900 -0.1000000
v -0.1000000 0.0500000 -0.1000000
v -0.1000000 0.1500000 -0.1000000
v -0.0923900 0.1117300 -0.1000000
v -0.1000000 0.2500000 -0.1000000
v -0.0923900 0.1882700 -0.1000000
v -0.1000000 0.1500000 -0.1000000
v 0.0000000 0.0500000 -0.1000000
v 0.0382700 0.0576100 -0.1000000
v 0.1000000 0.0500000 -0.1000000
v 0.0382700 0.0576100 -0.1000000
v 0.0707100 0.0792900 -0.1000000
v 0.1000000 0.0500000 -0.1000000
v 0.0707100 0.0792900 -0.1000000
v 0.0923900 0.1117300 -0.1000000
v 0.1000000 0.0500000 -0.1000000
v 0.0923900 0.1117300 -0.1000000
v 0.1000000 0.1500000 -0.1000000
v 0.1000000 0.0500000 -0.1000000
v 0.1000000 0.1500000 -0.1000000
v 0.0923900 0.1882700 -0.1000000
v 0.1000000 0.2500000 -0.1000000
v -0.0382700 0.0576100 0.1000000
v 0.0000000 0.0500000 0.1000000
v 0.0000000 0.0500000 -0.1000000
v -0.0382700 0.0576100 -0.1000000
v -0.0707100 0.0792900 0.1000000
v -0.0382700 0.0576100 0.1000000
v -0.0382700 0.0576100 -0.1000000
v -0.0707100 0.0792900 -0.1000000
v -0.0923900 0.1117300 0.1000000
v -0.0707100 0.0792900 0.1000000
v -0.0707100 0.0792900 -0.1000000
v -0.0923900 0.1117300 -0.1000000
v -0.1000000 0.1500000 0.1000000
v -0.0923900 0.1117300 0.1000000
v -0.0923900 0.1117300 -0.1000000
v -0.1000000 0.1500000 -0.1000000
v -0.0923900 0.1882700 0.1000000
v -0.1000000 0.1500000 0.1000000
v -0.1000000 0.1500000 -0.1000000
v -0.0923900 0.1882700 -0.1000000
v 0.0382700 0.0576100 -0.1000000
v 0.0000000 0.0500000 -0.1000000
v 0.0000000 0.0500000 0.1000000
v 0.0382700 0.0576100 0.1000000
v 0.0707100 0.0792900 -0.1000000
v 0.0382700 0.0576100 -0.1000000
v 0.0382700 0.0576100 0.1000000
v 0.0707100 0.0792900 0.1000000
v 0.0923900 0.1117300 -0.1000000
v 0.0707100 0.0792900 -0.1000000
v 0.0707100 0.0792900 0.1000000
v 0.0923900 0.1117300 0.1000000
v 0.1000000 0.1500000 -0.1000000
v 0.0923900 0.1117300 -0.1000000
v 0.0923900 0.1117300 0.1000000
v 0.1000000 0.1500000 0.1000000
v 0.0923900 0.1882700 -0.1000000
v 0.1000000 0.1500000 -0.1000000
v 0.1000000 0.1500000 0.1000000
v 0.0923900 0.1882700 0.1000000
v -0.1000000 0.2500000 0.1000000
v -0.0923900 0.1882700 0.1000000
v -0.0923900 0.1882700 -0.1000000
v -0.1000000 0.2500000 -0.1000000
v 0.1000000 0.2500000 -0.1000000
v 0.0923900 0.1882700 -0.1000000
v 0.0923900 0.1882700 0.1000000
v 0.1000000 0.2500000 0.1000000
v 0.2500000 -0.0000000 0.1000000
v 0.2500000 -0.0000000 -0.1000000
v 0.2000000 0.2500000 -0.1000000
v 0.2000000 0.2500000 0.1000000
v 0.1000000 0.2500000 0.1000000
v 0.2000000 0.2500000 0.1000000
v 0.2000000 0.2500000 -0.1000000
v 0.1000000 0.2500000 -0.1000000
v -0.2500000 -0.0000000 -0.1000000
v -0.2500000 -0.0000000 0.1000000
v -0.2000000 0.2500000 0.1000000
v -0.2000000 0.2500000 -0.1000000
v -0.1000000 0.2500000 -0.1000000
v -0.2000000 0.2500000 -0.1000000
v -0.2000000 0.2500000 0.1000000
v -0.1000000 0.2500000 0.1000000
v 0.1000000 0.0500000 -0.1000000
v 0.1000000 0.1500000 -0.1000000
v 0.2000000 0.2500000 -0.1000000
v 0.2500000 -0.0000000 -0.1000000
v 0.2000000 0.2500000 -0.1000000
v 0.1000000 0.1500000 -0.1000000
v 0.1000000 0.2500000 -0.1000000
v -0.2500000 -0.0000000 -0.1000000
v -0.2000000 0.2500000 -0.1000000
v -0.1000000 0.1500000 -0.1000000
v -0.1000000 0.0500000 -0.1000000
v -0.1000000 0.2500000 -0.1000000
v -0.1000000 0.1500000 -0.1000000
v -0.2000000 0.2500000 -0.1000000
v 0.2500000 -0.0000000 0.1000000
v 0.2000000 0.2500000 0.1000000
v 0.1000000 0.1500000 0.1000000
v 0.1000000 0.0500000 0.1000000
v 0.1000000 0.2500000 0.1000000
v 0.1000000 0.1500000 0.1000000
v 0.2000000 0.2500000 0.1000000
v -0.1000000 0.0500000 0.1000000
v -0.1000000 0.1500000 0.1000000
v -0.2000000 0.2500000 0.1000000
v -0.2500000 -0.0000000 0.1000000
v -0.2000000 0.2500000 0.1000000
v -0.1000000 0.1500000 0.1000000
v -0.1000000 0.2500000 0.1000000
s off
f 1 2 3
f 1 3 4
f 5 6 7
f 5 7 8
f 9 10 11
f 9 11 12
f 13 14 15
f 13 15 16
f 17 18 19
f 17 19 20
f 21 22 23
f 21 23 24
f 25 26 27
f 25 27 28
f 29 30 31
f 29 31 32
f 33 34 35
f 33 35 36
f 37 38 39
f 37 39 40
f 41 42 43
f 41 43 44
f 45 46 47
f 45 47 48
f 49 50 51
f 49 51 52
f 53 54 55
f 53 55 56
f 57 58 59
f 57 59 60
f 61 62 63
f 61 63 64
f 65 66 67
f 68 69 70
f 71 72 73
f 74 75 76
f 77 78 79
f 80 81 82
f 83 84 85
f 86 87 88
f 89 90 91
f 92 93 94
f 95 96 97
f 98 99 100
f 101 102 103
f 104 105 106
f 107 108 109
f 110 111 112
f 113 114 115
f 116 117 118
f 119 120 121
f 122 123 124
f 125 126 127
f 125 127 128
f 129 130 131
f 129 131 132
f 133 134 135
f 133 135 136
f 137 138 139
f 137 139 140
f 141 142 143
f 141 143 144
f 145 146 147
f 145 147 148
f 149 150 151
f 149 151 152
f 153 154 155
f 153 155 156
f 157 158 159
f 157 159 160
f 161 162 163
f 161 163 164
f 165 166 167
f 165 167 168
f 169 170 171
f 169 171 172
f 173 174 175
f 173 175 176
f 177 178 179
f 177 179 180
f 181 182 183
f 181 183 184
f 185 186 187
f 185 187 188
f 189 190 191
f 189 191 192
f 193 194 195
f 196 197 198
f 196 198 199
f 200 201 202
f 203 204 205
f 203 205 206
f 207 208 209
f 210 211 212
f 210 212 213
f 214 215 216
