# Baked from official LDraw part 2654a.dat
o ldraw_2654a
v 0.5000000 -0.0562500 0.0000000
v 0.4619500 -0.0562500 0.1913500
v 0.3464625 -0.1209375 0.1435125
v 0.3750000 -0.1209375 0.0000000
v 0.4619500 -0.0562500 0.1913500
v 0.3535500 -0.0562500 0.3535500
v 0.2651625 -0.1209375 0.2651625
v 0.3464625 -0.1209375 0.1435125
v 0.3535500 -0.0562500 0.3535500
v 0.1913500 -0.0562500 0.4619500
v 0.1435125 -0.1209375 0.3464625
v 0.2651625 -0.1209375 0.2651625
v 0.1913500 -0.0562500 0.4619500
v 0.0000000 -0.0562500 0.5000000
v 0.0000000 -0.1209375 0.3750000
v 0.1435125 -0.1209375 0.3464625
v 0.0000000 -0.0562500 0.5000000
v -0.1913500 -0.0562500 0.4619500
v -0.1435125 -0.1209375 0.3464625
v 0.0000000 -0.1209375 0.3750000
v -0.1913500 -0.0562500 0.4619500
v -0.3535500 -0.0562500 0.3535500
v -0.2651625 -0.1209375 0.2651625
v -0.1435125 -0.1209375 0.3464625
v -0.3535500 -0.0562500 0.3535500
v -0.4619500 -0.0562500 0.1913500
v -0.3464625 -0.1209375 0.1435125
v -0.2651625 -0.1209375 0.2651625
v -0.4619500 -0.0562500 0.1913500
v -0.5000000 -0.0562500 0.0000000
v -0.3750000 -0.1209375 0.0000000
v -0.3464625 -0.1209375 0.1435125
v -0.5000000 -0.0562500 0.0000000
v -0.4619500 -0.0562500 -0.1913500
v -0.3464625 -0.1209375 -0.1435125
v -0.3750000 -0.1209375 0.0000000
v -0.4619500 -0.0562500 -0.1913500
v -0.3535500 -0.0562500 -0.3535500
v -0.2651625 -0.1209375 -0.2651625
v -0.3464625 -0.1209375 -0.1435125
v -0.3535500 -0.0562500 -0.3535500
v -0.1913500 -0.0562500 -0.4619500
v -0.1435125 -0.1209375 -0.3464625
v -0.2651625 -0.1209375 -0.2651625
v -0.1913500 -0.0562500 -0.4619500
v 0.0000000 -0.0562500 -0.5000000
v 0.0000000 -0.1209375 -0.3750000
v -0.1435125 -0.1209375 -0.3464625
v 0.0000000 -0.0562500 -0.5000000
v 0.1913500 -0.0562500 -0.4619500
v 0.1435125 -0.1209375 -0.3464625
v 0.0000000 -0.1209375 -0.3750000
v 0.1913500 -0.0562500 -0.4619500
v 0.3535500 -0.0562500 -0.3535500
v 0.2651625 -0.1209375 -0.2651625
v 0.1435125 -0.1209375 -0.3464625
v 0.3535500 -0.0562500 -0.3535500
v 0.4619500 -0.0562500 -0.1913500
v 0.3464625 -0.1209375 -0.1435125
v 0.2651625 -0.1209375 -0.2651625
v 0.4619500 -0.0562500 -0.1913500
v 0.5000000 -0.0562500 0.0000000
v 0.3750000 -0.1209375 0.0000000
v 0.3464625 -0.1209375 -0.1435125
v 0.3464625 -0.1209375 0.1435125
v 0.1732313 -0.1856250 0.0717563
v 0.1875000 -0.1856250 0.0000000
v 0.3750000 -0.1209375 0.0000000
v 0.2651625 -0.1209375 0.2651625
v 0.1325812 -0.1856250 0.1325812
v 0.1732313 -0.1856250 0.0717563
v 0.3464625 -0.1209375 0.1435125
v 0.1435125 -0.1209375 0.3464625
v 0.0717563 -0.1856250 0.1732313
v 0.1325812 -0.1856250 0.1325812
v 0.2651625 -0.1209375 0.2651625
v 0.0000000 -0.1209375 0.3750000
v 0.0000000 -0.1856250 0.1875000
v 0.0717563 -0.1856250 0.1732313
v 0.1435125 -0.1209375 0.3464625
v -0.1435125 -0.1209375 0.3464625
v -0.0717563 -0.1856250 0.1732313
v 0.0000000 -0.1856250 0.1875000
v 0.0000000 -0.1209375 0.3750000
v -0.2651625 -0.1209375 0.2651625
v -0.1325812 -0.1856250 0.1325812
v -0.0717563 -0.1856250 0.1732313
v -0.1435125 -0.1209375 0.3464625
v -0.3464625 -0.1209375 0.1435125
v -0.1732313 -0.1856250 0.0717563
v -0.1325812 -0.1856250 0.1325812
v -0.2651625 -0.1209375 0.2651625
v -0.3750000 -0.1209375 0.0000000
v -0.1875000 -0.1856250 0.0000000
v -0.1732313 -0.1856250 0.0717563
v -0.3464625 -0.1209375 0.1435125
v -0.3464625 -0.1209375 -0.1435125
v -0.1732313 -0.1856250 -0.0717563
v -0.1875000 -0.1856250 0.0000000
v -0.3750000 -0.1209375 0.0000000
v -0.2651625 -0.1209375 -0.2651625
v -0.1325812 -0.1856250 -0.1325812
v -0.1732313 -0.1856250 -0.0717563
v -0.3464625 -0.1209375 -0.1435125
v -0.1435125 -0.1209375 -0.3464625
v -0.0717563 -0.1856250 -0.1732313
v -0.1325812 -0.1856250 -0.1325812
v -0.2651625 -0.1209375 -0.2651625
v 0.0000000 -0.1209375 -0.3750000
v 0.0000000 -0.1856250 -0.1875000
v -0.0717563 -0.1856250 -0.1732313
v -0.1435125 -0.1209375 -0.3464625
v 0.1435125 -0.1209375 -0.3464625
v 0.0717563 -0.1856250 -0.1732313
v 0.0000000 -0.1856250 -0.1875000
v 0.0000000 -0.1209375 -0.3750000
v 0.2651625 -0.1209375 -0.2651625
v 0.1325812 -0.1856250 -0.1325812
v 0.0717563 -0.1856250 -0.1732313
v 0.1435125 -0.1209375 -0.3464625
v 0.3464625 -0.1209375 -0.1435125
v 0.1732313 -0.1856250 -0.0717563
v 0.1325812 -0.1856250 -0.1325812
v 0.2651625 -0.1209375 -0.2651625
v 0.3750000 -0.1209375 0.0000000
v 0.1875000 -0.1856250 0.0000000
v 0.1732313 -0.1856250 -0.0717563
v 0.3464625 -0.1209375 -0.1435125
v 0.1875000 -0.1856250 0.0000000
v 0.1732313 -0.1856250 0.0717563
v 0.0000000 -0.2000000 0.0000000
v 0.1732313 -0.1856250 0.0717563
v 0.1326000 -0.1856250 0.1326000
v 0.0000000 -0.2000000 0.0000000
v 0.1326000 -0.1856250 0.1326000
v 0.0717563 -0.1856250 0.1732313
v 0.0000000 -0.2000000 0.0000000
v 0.0717563 -0.1856250 0.1732313
v 0.0000000 -0.1856250 0.1875000
v 0.0000000 -0.2000000 0.0000000
v 0.0000000 -0.1856250 0.1875000
v -0.0717563 -0.1856250 0.1732313
v 0.0000000 -0.2000000 0.0000000
v -0.0717563 -0.1856250 0.1732313
v -0.1326000 -0.1856250 0.1326000
v 0.0000000 -0.2000000 0.0000000
v -0.1326000 -0.1856250 0.1326000
v -0.1732313 -0.1856250 0.0717563
v 0.0000000 -0.2000000 0.0000000
v -0.1732313 -0.1856250 0.0717563
v -0.1875000 -0.1856250 0.0000000
v 0.0000000 -0.2000000 0.0000000
v -0.1875000 -0.1856250 0.0000000
v -0.1732313 -0.1856250 -0.0717563
v 0.0000000 -0.2000000 0.0000000
v -0.1732313 -0.1856250 -0.0717563
v -0.1326000 -0.1856250 -0.1326000
v 0.0000000 -0.2000000 0.0000000
v -0.1326000 -0.1856250 -0.1326000
v -0.0717563 -0.1856250 -0.1732313
v 0.0000000 -0.2000000 0.0000000
v -0.0717563 -0.1856250 -0.1732313
v 0.0000000 -0.1856250 -0.1875000
v 0.0000000 -0.2000000 0.0000000
v 0.0000000 -0.1856250 -0.1875000
v 0.0717563 -0.1856250 -0.1732313
v 0.0000000 -0.2000000 0.0000000
v 0.0717563 -0.1856250 -0.1732313
v 0.1326000 -0.1856250 -0.1326000
v 0.0000000 -0.2000000 0.0000000
v 0.1326000 -0.1856250 -0.1326000
v 0.1732313 -0.1856250 -0.0717563
v 0.0000000 -0.2000000 0.0000000
v 0.1732313 -0.1856250 -0.0717563
v 0.1875000 -0.1856250 0.0000000
v 0.0000000 -0.2000000 0.0000000
v 0.5000000 -0.0281250 0.0000000
v 0.4619500 -0.0281250 0.1913500
v 0.4619500 -0.0562500 0.1913500
v 0.5000000 -0.0562500 0.0000000
v 0.4619500 -0.0281250 0.1913500
v 0.3535500 -0.0281250 0.3535500
v 0.3535500 -0.0562500 0.3535500
v 0.4619500 -0.0562500 0.1913500
v 0.3535500 -0.0281250 0.3535500
v 0.1913500 -0.0281250 0.4619500
v 0.1913500 -0.0562500 0.4619500
v 0.3535500 -0.0562500 0.3535500
v 0.1913500 -0.0281250 0.4619500
v 0.0000000 -0.0281250 0.5000000
v 0.0000000 -0.0562500 0.5000000
v 0.1913500 -0.0562500 0.4619500
v 0.0000000 -0.0281250 0.5000000
v -0.1913500 -0.0281250 0.4619500
v -0.1913500 -0.0562500 0.4619500
v 0.0000000 -0.0562500 0.5000000
v -0.1913500 -0.0281250 0.4619500
v -0.3535500 -0.0281250 0.3535500
v -0.3535500 -0.0562500 0.3535500
v -0.1913500 -0.0562500 0.4619500
v -0.3535500 -0.0281250 0.3535500
v -0.4619500 -0.0281250 0.1913500
v -0.4619500 -0.0562500 0.1913500
v -0.3535500 -0.0562500 0.3535500
v -0.4619500 -0.0281250 0.1913500
v -0.5000000 -0.0281250 0.0000000
v -0.5000000 -0.0562500 0.0000000
v -0.4619500 -0.0562500 0.1913500
v -0.5000000 -0.0281250 0.0000000
v -0.4619500 -0.0281250 -0.1913500
v -0.4619500 -0.0562500 -0.1913500
v -0.5000000 -0.0562500 0.0000000
v -0.4619500 -0.0281250 -0.1913500
v -0.3535500 -0.0281250 -0.3535500
v -0.3535500 -0.0562500 -0.3535500
v -0.4619500 -0.0562500 -0.1913500
v -0.3535500 -0.0281250 -0.3535500
v -0.1913500 -0.0281250 -0.4619500
v -0.1913500 -0.0562500 -0.4619500
v -0.3535500 -0.0562500 -0.3535500
v -0.1913500 -0.0281250 -0.4619500
v 0.0000000 -0.0281250 -0.5000000
v 0.0000000 -0.0562500 -0.5000000
v -0.1913500 -0.0562500 -0.4619500
v 0.0000000 -0.0281250 -0.5000000
v 0.1913500 -0.0281250 -0.4619500
v 0.1913500 -0.0562500 -0.4619500
v 0.0000000 -0.0562500 -0.5000000
v 0.1913500 -0.0281250 -0.4619500
v 0.3535500 -0.0281250 -0.3535500
v 0.3535500 -0.0562500 -0.3535500
v 0.1913500 -0.0562500 -0.4619500
v 0.3535500 -0.0281250 -0.3535500
v 0.4619500 -0.0281250 -0.1913500
v 0.4619500 -0.0562500 -0.1913500
v 0.3535500 -0.0562500 -0.3535500
v 0.4619500 -0.0281250 -0.1913500
v 0.5000000 -0.0281250 0.0000000
v 0.5000000 -0.0562500 0.0000000
v 0.4619500 -0.0562500 -0.1913500
v 0.3250000 -0.0768750 0.0000000
v 0.3002675 -0.0768750 0.1243775
v 0.3753344 -0.0281250 0.1554719
v 0.4062500 -0.0281250 0.0000000
v 0.3002675 -0.0768750 0.1243775
v 0.2298075 -0.0768750 0.2298075
v 0.2872594 -0.0281250 0.2872594
v 0.3753344 -0.0281250 0.1554719
v 0.2298075 -0.0768750 0.2298075
v 0.1243775 -0.0768750 0.3002675
v 0.1554719 -0.0281250 0.3753344
v 0.2872594 -0.0281250 0.2872594
v 0.1243775 -0.0768750 0.3002675
v 0.0000000 -0.0768750 0.3250000
v 0.0000000 -0.0281250 0.4062500
v 0.1554719 -0.0281250 0.3753344
v 0.0000000 -0.0768750 0.3250000
v -0.1243775 -0.0768750 0.3002675
v -0.1554719 -0.0281250 0.3753344
v 0.0000000 -0.0281250 0.4062500
v -0.1243775 -0.0768750 0.3002675
v -0.2298075 -0.0768750 0.2298075
v -0.2872594 -0.0281250 0.2872594
v -0.1554719 -0.0281250 0.3753344
v -0.2298075 -0.0768750 0.2298075
v -0.3002675 -0.0768750 0.1243775
v -0.3753344 -0.0281250 0.1554719
v -0.2872594 -0.0281250 0.2872594
v -0.3002675 -0.0768750 0.1243775
v -0.3250000 -0.0768750 0.0000000
v -0.4062500 -0.0281250 0.0000000
v -0.3753344 -0.0281250 0.1554719
v -0.3250000 -0.0768750 0.0000000
v -0.3002675 -0.0768750 -0.1243775
v -0.3753344 -0.0281250 -0.1554719
v -0.4062500 -0.0281250 0.0000000
v -0.3002675 -0.0768750 -0.1243775
v -0.2298075 -0.0768750 -0.2298075
v -0.2872594 -0.0281250 -0.2872594
v -0.3753344 -0.0281250 -0.1554719
v -0.2298075 -0.0768750 -0.2298075
v -0.1243775 -0.0768750 -0.3002675
v -0.1554719 -0.0281250 -0.3753344
v -0.2872594 -0.0281250 -0.2872594
v -0.1243775 -0.0768750 -0.3002675
v 0.0000000 -0.0768750 -0.3250000
v 0.0000000 -0.0281250 -0.4062500
v -0.1554719 -0.0281250 -0.3753344
v 0.0000000 -0.0768750 -0.3250000
v 0.1243775 -0.0768750 -0.3002675
v 0.1554719 -0.0281250 -0.3753344
v 0.0000000 -0.0281250 -0.4062500
v 0.1243775 -0.0768750 -0.3002675
v 0.2298075 -0.0768750 -0.2298075
v 0.2872594 -0.0281250 -0.2872594
v 0.1554719 -0.0281250 -0.3753344
v 0.2298075 -0.0768750 -0.2298075
v 0.3002675 -0.0768750 -0.1243775
v 0.3753344 -0.0281250 -0.1554719
v 0.2872594 -0.0281250 -0.2872594
v 0.3002675 -0.0768750 -0.1243775
v 0.3250000 -0.0768750 0.0000000
v 0.4062500 -0.0281250 0.0000000
v 0.3753344 -0.0281250 -0.1554719
v 0.3000000 -0.0925000 0.0000000
v 0.2771700 -0.0925000 0.1148100
v 0.3002675 -0.0768750 0.1243775
v 0.3250000 -0.0768750 0.0000000
v 0.2771700 -0.0925000 0.1148100
v 0.2121300 -0.0925000 0.2121300
v 0.2298075 -0.0768750 0.2298075
v 0.3002675 -0.0768750 0.1243775
v 0.2121300 -0.0925000 0.2121300
v 0.1148100 -0.0925000 0.2771700
v 0.1243775 -0.0768750 0.3002675
v 0.2298075 -0.0768750 0.2298075
v 0.1148100 -0.0925000 0.2771700
v 0.0000000 -0.0925000 0.3000000
v 0.0000000 -0.0768750 0.3250000
v 0.1243775 -0.0768750 0.3002675
v 0.0000000 -0.0925000 0.3000000
v -0.1148100 -0.0925000 0.2771700
v -0.1243775 -0.0768750 0.3002675
v 0.0000000 -0.0768750 0.3250000
v -0.1148100 -0.0925000 0.2771700
v -0.2121300 -0.0925000 0.2121300
v -0.2298075 -0.0768750 0.2298075
v -0.1243775 -0.0768750 0.3002675
v -0.2121300 -0.0925000 0.2121300
v -0.2771700 -0.0925000 0.1148100
v -0.3002675 -0.0768750 0.1243775
v -0.2298075 -0.0768750 0.2298075
v -0.2771700 -0.0925000 0.1148100
v -0.3000000 -0.0925000 0.0000000
v -0.3250000 -0.0768750 0.0000000
v -0.3002675 -0.0768750 0.1243775
v -0.3000000 -0.0925000 0.0000000
v -0.2771700 -0.0925000 -0.1148100
v -0.3002675 -0.0768750 -0.1243775
v -0.3250000 -0.0768750 0.0000000
v -0.2771700 -0.0925000 -0.1148100
v -0.2121300 -0.0925000 -0.2121300
v -0.2298075 -0.0768750 -0.2298075
v -0.3002675 -0.0768750 -0.1243775
v -0.2121300 -0.0925000 -0.2121300
v -0.1148100 -0.0925000 -0.2771700
v -0.1243775 -0.0768750 -0.3002675
v -0.2298075 -0.0768750 -0.2298075
v -0.1148100 -0.0925000 -0.2771700
v 0.0000000 -0.0925000 -0.3000000
v 0.0000000 -0.0768750 -0.3250000
v -0.1243775 -0.0768750 -0.3002675
v 0.0000000 -0.0925000 -0.3000000
v 0.1148100 -0.0925000 -0.2771700
v 0.1243775 -0.0768750 -0.3002675
v 0.0000000 -0.0768750 -0.3250000
v 0.1148100 -0.0925000 -0.2771700
v 0.2121300 -0.0925000 -0.2121300
v 0.2298075 -0.0768750 -0.2298075
v 0.1243775 -0.0768750 -0.3002675
v 0.2121300 -0.0925000 -0.2121300
v 0.2771700 -0.0925000 -0.1148100
v 0.3002675 -0.0768750 -0.1243775
v 0.2298075 -0.0768750 -0.2298075
v 0.2771700 -0.0925000 -0.1148100
v 0.3000000 -0.0925000 0.0000000
v 0.3250000 -0.0768750 0.0000000
v 0.3002675 -0.0768750 -0.1243775
v -0.3000000 -0.0925000 0.0000000
v -0.1500000 -0.1175000 0.0000000
v -0.1385850 -0.1175000 -0.0574050
v -0.2771700 -0.0925000 -0.1148100
v -0.2771700 -0.0925000 -0.1148100
v -0.1385850 -0.1175000 -0.0574050
v -0.1060650 -0.1175000 -0.1060650
v -0.2121300 -0.0925000 -0.2121300
v -0.2121300 -0.0925000 -0.2121300
v -0.1060650 -0.1175000 -0.1060650
v -0.0574050 -0.1175000 -0.1385850
v -0.1148100 -0.0925000 -0.2771700
v -0.1148100 -0.0925000 -0.2771700
v -0.0574050 -0.1175000 -0.1385850
v 0.0000000 -0.1175000 -0.1500000
v 0.0000000 -0.0925000 -0.3000000
v 0.0000000 -0.0925000 -0.3000000
v 0.0000000 -0.1175000 -0.1500000
v 0.0574050 -0.1175000 -0.1385850
v 0.1148100 -0.0925000 -0.2771700
v 0.1148100 -0.0925000 -0.2771700
v 0.0574050 -0.1175000 -0.1385850
v 0.1060650 -0.1175000 -0.1060650
v 0.2121300 -0.0925000 -0.2121300
v 0.2121300 -0.0925000 -0.2121300
v 0.1060650 -0.1175000 -0.1060650
v 0.1385850 -0.1175000 -0.0574050
v 0.2771700 -0.0925000 -0.1148100
v 0.2771700 -0.0925000 -0.1148100
v 0.1385850 -0.1175000 -0.0574050
v 0.1500000 -0.1175000 0.0000000
v 0.3000000 -0.0925000 0.0000000
v 0.3000000 -0.0925000 0.0000000
v 0.1500000 -0.1175000 0.0000000
v 0.1385850 -0.1175000 0.0574050
v 0.2771700 -0.0925000 0.1148100
v 0.2771700 -0.0925000 0.1148100
v 0.1385850 -0.1175000 0.0574050
v 0.1060650 -0.1175000 0.1060650
v 0.2121300 -0.0925000 0.2121300
v 0.2121300 -0.0925000 0.2121300
v 0.1060650 -0.1175000 0.1060650
v 0.0574050 -0.1175000 0.1385850
v 0.1148100 -0.0925000 0.2771700
v 0.1148100 -0.0925000 0.2771700
v 0.0574050 -0.1175000 0.1385850
v 0.0000000 -0.1175000 0.1500000
v 0.0000000 -0.0925000 0.3000000
v 0.0000000 -0.0925000 0.3000000
v 0.0000000 -0.1175000 0.1500000
v -0.0574050 -0.1175000 0.1385850
v -0.1148100 -0.0925000 0.2771700
v -0.1148100 -0.0925000 0.2771700
v -0.0574050 -0.1175000 0.1385850
v -0.1060650 -0.1175000 0.1060650
v -0.2121300 -0.0925000 0.2121300
v -0.2121300 -0.0925000 0.2121300
v -0.1060650 -0.1175000 0.1060650
v -0.1385850 -0.1175000 0.0574050
v -0.2771700 -0.0925000 0.1148100
v -0.2771700 -0.0925000 0.1148100
v -0.1385850 -0.1175000 0.0574050
v -0.1500000 -0.1175000 0.0000000
v -0.3000000 -0.0925000 0.0000000
v 0.1385850 -0.1175000 0.0574050
v 0.1500000 -0.1175000 0.0000000
v 0.0000000 -0.1175000 0.0000000
v 0.1060650 -0.1175000 0.1060650
v 0.1385850 -0.1175000 0.0574050
v 0.0000000 -0.1175000 0.0000000
v 0.0574050 -0.1175000 0.1385850
v 0.1060650 -0.1175000 0.1060650
v 0.0000000 -0.1175000 0.0000000
v 0.0000000 -0.1175000 0.1500000
v 0.0574050 -0.1175000 0.1385850
v 0.0000000 -0.1175000 0.0000000
v -0.0574050 -0.1175000 0.1385850
v 0.0000000 -0.1175000 0.1500000
v 0.0000000 -0.1175000 0.0000000
v -0.1060650 -0.1175000 0.1060650
v -0.0574050 -0.1175000 0.1385850
v 0.0000000 -0.1175000 0.0000000
v -0.1385850 -0.1175000 0.0574050
v -0.1060650 -0.1175000 0.1060650
v 0.0000000 -0.1175000 0.0000000
v -0.1500000 -0.1175000 0.0000000
v -0.1385850 -0.1175000 0.0574050
v 0.0000000 -0.1175000 0.0000000
v -0.1385850 -0.1175000 -0.0574050
v -0.1500000 -0.1175000 0.0000000
v 0.0000000 -0.1175000 0.0000000
v -0.1060650 -0.1175000 -0.1060650
v -0.1385850 -0.1175000 -0.0574050
v 0.0000000 -0.1175000 0.0000000
v -0.0574050 -0.1175000 -0.1385850
v -0.1060650 -0.1175000 -0.1060650
v 0.0000000 -0.1175000 0.0000000
v 0.0000000 -0.1175000 -0.1500000
v -0.0574050 -0.1175000 -0.1385850
v 0.0000000 -0.1175000 0.0000000
v 0.0574050 -0.1175000 -0.1385850
v 0.0000000 -0.1175000 -0.1500000
v 0.0000000 -0.1175000 0.0000000
v 0.1060650 -0.1175000 -0.1060650
v 0.0574050 -0.1175000 -0.1385850
v 0.0000000 -0.1175000 0.0000000
v 0.1385850 -0.1175000 -0.0574050
v 0.1060650 -0.1175000 -0.1060650
v 0.0000000 -0.1175000 0.0000000
v 0.1500000 -0.1175000 0.0000000
v 0.1385850 -0.1175000 -0.0574050
v 0.0000000 -0.1175000 0.0000000
v -0.3500000 0.1000000 0.2698900
v -0.3423900 0.1000000 0.2882700
v -0.3500000 0.1000000 0.2500000
v -0.3347800 0.1000000 0.3066500
v -0.3207100 0.1000000 0.3207100
v -0.3423900 0.1000000 0.2882700
v -0.3066500 0.1000000 0.3347800
v -0.2882700 0.1000000 0.3423900
v -0.3207100 0.1000000 0.3207100
v -0.2698900 0.1000000 0.3500000
v -0.2500000 0.1000000 0.3500000
v -0.2882700 0.1000000 0.3423900
v -0.2500000 -0.0000000 0.3500000
v -0.2882700 -0.0000000 0.3423900
v -0.2882700 0.1000000 0.3423900
v -0.2500000 0.1000000 0.3500000
v -0.2882700 -0.0000000 0.3423900
v -0.3207100 -0.0000000 0.3207100
v -0.3207100 0.1000000 0.3207100
v -0.2882700 0.1000000 0.3423900
v -0.3207100 -0.0000000 0.3207100
v -0.3423900 -0.0000000 0.2882700
v -0.3423900 0.1000000 0.2882700
v -0.3207100 0.1000000 0.3207100
v -0.3423900 -0.0000000 0.2882700
v -0.3500000 -0.0000000 0.2500000
v -0.3500000 0.1000000 0.2500000
v -0.3423900 0.1000000 0.2882700
v -0.3500000 -0.0000000 0.2500000
v -0.3423900 -0.0000000 0.2117300
v -0.3423900 0.1000000 0.2117300
v -0.3500000 0.1000000 0.2500000
v -0.3423900 -0.0000000 0.2117300
v -0.3207100 -0.0000000 0.1792900
v -0.3207100 0.1000000 0.1792900
v -0.3423900 0.1000000 0.2117300
v -0.3207100 -0.0000000 0.1792900
v -0.2882700 -0.0000000 0.1576100
v -0.2882700 0.1000000 0.1576100
v -0.3207100 0.1000000 0.1792900
v -0.2882700 -0.0000000 0.1576100
v -0.2500000 -0.0000000 0.1500000
v -0.2500000 0.1000000 0.1500000
v -0.2882700 0.1000000 0.1576100
v -0.2500000 -0.0000000 0.1500000
v -0.2117300 -0.0000000 0.1576100
v -0.2117300 0.1000000 0.1576100
v -0.2500000 0.1000000 0.1500000
v -0.2117300 -0.0000000 0.1576100
v -0.1792900 -0.0000000 0.1792900
v -0.1792900 0.1000000 0.1792900
v -0.2117300 0.1000000 0.1576100
v -0.1792900 -0.0000000 0.1792900
v -0.1576100 -0.0000000 0.2117300
v -0.1576100 0.1000000 0.2117300
v -0.1792900 0.1000000 0.1792900
v -0.1576100 -0.0000000 0.2117300
v -0.1500000 -0.0000000 0.2500000
v -0.1500000 0.1000000 0.2500000
v -0.1576100 0.1000000 0.2117300
v -0.1500000 -0.0000000 0.2500000
v -0.1576100 -0.0000000 0.2882700
v -0.1576100 0.1000000 0.2882700
v -0.1500000 0.1000000 0.2500000
v -0.1576100 -0.0000000 0.2882700
v -0.1792900 -0.0000000 0.3207100
v -0.1792900 0.1000000 0.3207100
v -0.1576100 0.1000000 0.2882700
v -0.1792900 -0.0000000 0.3207100
v -0.2117300 -0.0000000 0.3423900
v -0.2117300 0.1000000 0.3423900
v -0.1792900 0.1000000 0.3207100
v -0.2117300 -0.0000000 0.3423900
v -0.2500000 -0.0000000 0.3500000
v -0.2500000 0.1000000 0.3500000
v -0.2117300 0.1000000 0.3423900
v -0.3500000 0.1000000 0.2500000
v -0.3423900 0.1000000 0.2117300
v -0.3885850 0.1000000 0.1925950
v -0.4000000 0.1000000 0.2500000
v -0.3423900 0.1000000 0.2117300
v -0.3207100 0.1000000 0.1792900
v -0.3560650 0.1000000 0.1439350
v -0.3885850 0.1000000 0.1925950
v -0.3207100 0.1000000 0.1792900
v -0.2882700 0.1000000 0.1576100
v -0.3074050 0.1000000 0.1114150
v -0.3560650 0.1000000 0.1439350
v -0.2882700 0.1000000 0.1576100
v -0.2500000 0.1000000 0.1500000
v -0.2500000 0.1000000 0.1000000
v -0.3074050 0.1000000 0.1114150
v -0.2500000 0.1000000 0.1500000
v -0.2117300 0.1000000 0.1576100
v -0.1925950 0.1000000 0.1114150
v -0.2500000 0.1000000 0.1000000
v -0.2117300 0.1000000 0.1576100
v -0.1792900 0.1000000 0.1792900
v -0.1439350 0.1000000 0.1439350
v -0.1925950 0.1000000 0.1114150
v -0.1792900 0.1000000 0.1792900
v -0.1576100 0.1000000 0.2117300
v -0.1114150 0.1000000 0.1925950
v -0.1439350 0.1000000 0.1439350
v -0.1576100 0.1000000 0.2117300
v -0.1500000 0.1000000 0.2500000
v -0.1000000 0.1000000 0.2500000
v -0.1114150 0.1000000 0.1925950
v -0.1500000 0.1000000 0.2500000
v -0.1576100 0.1000000 0.2882700
v -0.1114150 0.1000000 0.3074050
v -0.1000000 0.1000000 0.2500000
v -0.1576100 0.1000000 0.2882700
v -0.1792900 0.1000000 0.3207100
v -0.1439350 0.1000000 0.3560650
v -0.1114150 0.1000000 0.3074050
v -0.1792900 0.1000000 0.3207100
v -0.2117300 0.1000000 0.3423900
v -0.1925950 0.1000000 0.3885850
v -0.1439350 0.1000000 0.3560650
v -0.2117300 0.1000000 0.3423900
v -0.2500000 0.1000000 0.3500000
v -0.2500000 0.1000000 0.4000000
v -0.1925950 0.1000000 0.3885850
v -0.2698900 0.1000000 0.3500000
v -0.2984675 0.1000000 0.3903625
v -0.2500000 0.1000000 0.4000000
v -0.2500000 0.1000000 0.3500000
v -0.2984675 0.1000000 0.3903625
v -0.2698900 0.1000000 0.3500000
v -0.2882750 0.1000000 0.3423750
v -0.3066500 0.1000000 0.3347800
v -0.3535500 0.1000000 0.3535500
v -0.2984675 0.1000000 0.3903625
v -0.2882750 0.1000000 0.3423750
v -0.3535500 0.1000000 0.3535500
v -0.3066500 0.1000000 0.3347800
v -0.3207000 0.1000000 0.3207000
v -0.3903625 0.1000000 0.2984675
v -0.3535500 0.1000000 0.3535500
v -0.3347800 0.1000000 0.3066500
v -0.3423750 0.1000000 0.2882750
v -0.3535500 0.1000000 0.3535500
v -0.3207000 0.1000000 0.3207000
v -0.3347800 0.1000000 0.3066500
v -0.4000000 0.1000000 0.2500000
v -0.3903625 0.1000000 0.2984675
v -0.3500000 0.1000000 0.2698900
v -0.3500000 0.1000000 0.2500000
v -0.3903625 0.1000000 0.2984675
v -0.3423750 0.1000000 0.2882750
v -0.3500000 0.1000000 0.2698900
v -0.4000000 -0.0000000 0.2500000
v -0.4000000 0.1000000 0.2500000
v -0.3885850 0.1000000 0.1925950
v -0.3885850 -0.0000000 0.1925950
v -0.3885850 -0.0000000 0.1925950
v -0.3885850 0.1000000 0.1925950
v -0.3560650 0.1000000 0.1439350
v -0.3560650 -0.0000000 0.1439350
v -0.3560650 -0.0000000 0.1439350
v -0.3560650 0.1000000 0.1439350
v -0.3074050 0.1000000 0.1114150
v -0.3074050 -0.0000000 0.1114150
v -0.3074050 -0.0000000 0.1114150
v -0.3074050 0.1000000 0.1114150
v -0.2500000 0.1000000 0.1000000
v -0.2500000 -0.0000000 0.1000000
v -0.2500000 -0.0000000 0.1000000
v -0.2500000 0.1000000 0.1000000
v -0.1925950 0.1000000 0.1114150
v -0.1925950 -0.0000000 0.1114150
v -0.1925950 -0.0000000 0.1114150
v -0.1925950 0.1000000 0.1114150
v -0.1439350 0.1000000 0.1439350
v -0.1439350 -0.0000000 0.1439350
v -0.1439350 -0.0000000 0.1439350
v -0.1439350 0.1000000 0.1439350
v -0.1114150 0.1000000 0.1925950
v -0.1114150 -0.0000000 0.1925950
v -0.1114150 -0.0000000 0.1925950
v -0.1114150 0.1000000 0.1925950
v -0.1000000 0.1000000 0.2500000
v -0.1000000 -0.0000000 0.2500000
v -0.1000000 -0.0000000 0.2500000
v -0.1000000 0.1000000 0.2500000
v -0.1114150 0.1000000 0.3074050
v -0.1114150 -0.0000000 0.3074050
v -0.1114150 -0.0000000 0.3074050
v -0.1114150 0.1000000 0.3074050
v -0.1439350 0.1000000 0.3560650
v -0.1439350 -0.0000000 0.3560650
v -0.1439350 -0.0000000 0.3560650
v -0.1439350 0.1000000 0.3560650
v -0.1925950 0.1000000 0.3885850
v -0.1925950 -0.0000000 0.3885850
v -0.1925950 -0.0000000 0.3885850
v -0.1925950 0.1000000 0.3885850
v -0.2500000 0.1000000 0.4000000
v -0.2500000 -0.0000000 0.4000000
v -0.2500000 0.1000000 0.4000000
v -0.2984675 0.1000000 0.3903625
v -0.2984675 -0.0000000 0.3903625
v -0.2500000 -0.0000000 0.4000000
v -0.2984675 0.1000000 0.3903625
v -0.3535500 0.1000000 0.3535500
v -0.3535500 -0.0000000 0.3535500
v -0.2984675 -0.0000000 0.3903625
v -0.3535500 0.1000000 0.3535500
v -0.3903625 0.1000000 0.2984675
v -0.3903625 -0.0000000 0.2984675
v -0.3535500 -0.0000000 0.3535500
v -0.3903625 0.1000000 0.2984675
v -0.4000000 0.1000000 0.2500000
v -0.4000000 -0.0000000 0.2500000
v -0.3903625 -0.0000000 0.2984675
v -0.2500000 -0.0000000 0.2500000
v -0.2500000 -0.0000000 0.3500000
v -0.2117300 -0.0000000 0.3423900
v -0.2500000 -0.0000000 0.2500000
v -0.2117300 -0.0000000 0.3423900
v -0.1792900 -0.0000000 0.3207100
v -0.2500000 -0.0000000 0.2500000
v -0.1792900 -0.0000000 0.3207100
v -0.1576100 -0.0000000 0.2882700
v -0.2500000 -0.0000000 0.2500000
v -0.1576100 -0.0000000 0.2882700
v -0.1500000 -0.0000000 0.2500000
v -0.2500000 -0.0000000 0.2500000
v -0.1500000 -0.0000000 0.2500000
v -0.1576100 -0.0000000 0.2117300
v -0.2500000 -0.0000000 0.2500000
v -0.1576100 -0.0000000 0.2117300
v -0.1792900 -0.0000000 0.1792900
v -0.2500000 -0.0000000 0.2500000
v -0.1792900 -0.0000000 0.1792900
v -0.2117300 -0.0000000 0.1576100
v -0.2500000 -0.0000000 0.2500000
v -0.2117300 -0.0000000 0.1576100
v -0.2500000 -0.0000000 0.1500000
v -0.2500000 -0.0000000 0.2500000
v -0.2500000 -0.0000000 0.1500000
v -0.2882700 -0.0000000 0.1576100
v -0.2500000 -0.0000000 0.2500000
v -0.2882700 -0.0000000 0.1576100
v -0.3207100 -0.0000000 0.1792900
v -0.2500000 -0.0000000 0.2500000
v -0.3207100 -0.0000000 0.1792900
v -0.3423900 -0.0000000 0.2117300
v -0.2500000 -0.0000000 0.2500000
v -0.3423900 -0.0000000 0.2117300
v -0.3500000 -0.0000000 0.2500000
v -0.2500000 -0.0000000 0.2500000
v -0.3500000 -0.0000000 0.2500000
v -0.3423900 -0.0000000 0.2882700
v -0.2500000 -0.0000000 0.2500000
v -0.3423900 -0.0000000 0.2882700
v -0.3207100 -0.0000000 0.3207100
v -0.2500000 -0.0000000 0.2500000
v -0.3207100 -0.0000000 0.3207100
v -0.2882700 -0.0000000 0.3423900
v -0.2500000 -0.0000000 0.2500000
v -0.2882700 -0.0000000 0.3423900
v -0.2500000 -0.0000000 0.3500000
v 0.1817825 -0.0281250 0.4388525
v -0.0000000 -0.0281250 0.4750240
v 0.0000000 -0.0281250 0.5000253
v 0.1913500 -0.0281250 0.4619500
v -0.0000000 -0.0281250 0.4750240
v -0.1817742 -0.0281250 0.4388510
v -0.1913413 -0.0281250 0.4619484
v 0.0000000 -0.0281250 0.5000253
v 0.1817750 -0.0281250 0.4388425
v 0.1817750 -0.0000000 0.4388425
v -0.0000031 -0.0000000 0.4750119
v -0.0000031 -0.0281250 0.4750119
v -0.0000031 -0.0281250 0.4750119
v -0.0000031 -0.0000000 0.4750119
v -0.1817724 -0.0000000 0.4388386
v -0.1817724 -0.0281250 0.4388386
v -0.1817730 -0.0000000 0.4388430
v 0.0000051 -0.0000000 0.4750116
v 0.0000049 -0.0000000 0.4500110
v -0.1722060 -0.0000000 0.4157460
v 0.0000051 -0.0000000 0.4750116
v 0.1817742 -0.0000000 0.4388376
v 0.1722071 -0.0000000 0.4157409
v 0.0000049 -0.0000000 0.4500110
v -0.1722060 -0.0000000 0.4157460
v 0.0000049 -0.0000000 0.4500110
v 0.0000047 -0.0000000 0.4375107
v -0.1674225 -0.0000000 0.4041975
v 0.0000049 -0.0000000 0.4500110
v 0.1722071 -0.0000000 0.4157409
v 0.1674236 -0.0000000 0.4041925
v 0.0000047 -0.0000000 0.4375107
v -0.1674225 -0.0000000 0.4041975
v 0.0000047 -0.0000000 0.4375107
v 0.0000044 -0.0000000 0.4062599
v -0.1554638 -0.0000000 0.3753263
v 0.0000047 -0.0000000 0.4375107
v 0.1674236 -0.0000000 0.4041925
v 0.1554648 -0.0000000 0.3753216
v 0.0000044 -0.0000000 0.4062599
v -0.0000028 -0.0281250 0.4062592
v -0.0000028 -0.0000000 0.4062592
v 0.1554650 -0.0000000 0.3753250
v 0.1554650 -0.0281250 0.3753250
v -0.1554630 -0.0281250 0.3753216
v -0.1554630 -0.0000000 0.3753216
v -0.0000028 -0.0000000 0.4062592
v -0.0000028 -0.0281250 0.4062592
v -0.2422300 -0.0281250 0.3984550
v -0.2422300 -0.0000000 0.3984550
v -0.2500000 -0.0000000 0.4000000
v -0.2500000 -0.0281250 0.4000000
v -0.1817738 -0.0281250 0.4388387
v -0.1817738 -0.0000000 0.4388387
v -0.2422313 -0.0000000 0.3984562
v -0.2422313 -0.0281250 0.3984562
v -0.3903638 -0.0281250 0.2984688
v -0.3903638 -0.0000000 0.2984688
v -0.4000012 -0.0000000 0.2500013
v -0.4000012 -0.0281250 0.2500013
v -0.3984562 -0.0000000 0.2422300
v -0.4388437 -0.0000000 0.1817750
v -0.4388437 -0.0281250 0.1817750
v -0.3984562 -0.0281250 0.2422300
v -0.2984575 -0.0281250 0.3903700
v -0.2984925 -0.0000000 0.3903625
v -0.3535500 -0.0000000 0.3535500
v -0.3535500 -0.0281250 0.3535500
v -0.3535500 -0.0281250 0.3535500
v -0.3535500 -0.0000000 0.3535500
v -0.3903625 -0.0000000 0.2984675
v -0.3903625 -0.0281250 0.2984675
v -0.2984925 -0.0000000 0.3903625
v -0.2984575 -0.0281250 0.3903700
v -0.2500000 -0.0281250 0.4000000
v -0.2500000 -0.0000000 0.4000000
v -0.1817725 -0.0000000 0.4388375
v -0.1554725 -0.0000000 0.3753350
v -0.1641200 -0.0000000 0.3695550
v -0.1925950 -0.0000000 0.3885850
v -0.1925950 -0.0000000 0.3885850
v -0.2422300 -0.0000000 0.3984550
v -0.1817725 -0.0000000 0.4388375
v -0.2500000 -0.0281250 0.4000000
v -0.1913500 -0.0281250 0.4619500
v -0.1817725 -0.0281250 0.4388375
v -0.2422300 -0.0281250 0.3984550
v -0.2500000 -0.0281250 0.4000000
v -0.2984575 -0.0281250 0.3903700
v -0.1913500 -0.0281250 0.4619500
v -0.3984550 -0.0281250 0.2422300
v -0.4000000 -0.0281250 0.2500000
v -0.4000000 -0.0000000 0.2500000
v -0.3984550 -0.0000000 0.2422300
v -0.4388425 -0.0000000 0.1817750
v -0.3885850 -0.0000000 0.1925950
v -0.3695550 -0.0000000 0.1641200
v -0.3753350 -0.0000000 0.1554725
v -0.3885850 -0.0000000 0.1925950
v -0.4388425 -0.0000000 0.1817750
v -0.3984550 -0.0000000 0.2422300
v -0.3984550 -0.0281250 0.2422300
v -0.4388425 -0.0281250 0.1817750
v -0.4619500 -0.0281250 0.1913500
v -0.4000000 -0.0281250 0.2500000
v -0.4000000 -0.0281250 0.2500000
v -0.4619500 -0.0281250 0.1913500
v -0.3903625 -0.0281250 0.2984675
v -0.3560650 -0.0410625 0.1439350
v -0.3695550 -0.0281250 0.1641200
v -0.3695550 -0.0000000 0.1641200
v -0.3560650 -0.0000000 0.1439350
v -0.3695550 -0.0281250 0.1641200
v -0.3753350 -0.0281250 0.1554725
v -0.3753350 -0.0000000 0.1554725
v -0.3695550 -0.0000000 0.1641200
v -0.1554725 -0.0281250 0.3753350
v -0.1641200 -0.0281250 0.3695550
v -0.1641200 -0.0000000 0.3695550
v -0.1554725 -0.0000000 0.3753350
v -0.1439350 -0.0410625 0.3560650
v -0.1439350 -0.0000000 0.3560650
v -0.1641200 -0.0000000 0.3695550
v -0.1641200 -0.0281250 0.3695550
v -0.1439350 -0.0000000 0.3560650
v -0.1439350 -0.0410625 0.3560650
v -0.1114150 -0.0741400 0.3074050
v -0.1114150 -0.0000000 0.3074050
v -0.1000000 -0.0975200 0.2500000
v -0.1000000 -0.0000000 0.2500000
v -0.1114150 -0.0000000 0.3074050
v -0.1114150 -0.0741400 0.3074050
v -0.1057600 -0.0925000 0.2789700
v -0.1000000 -0.0975200 0.2500000
v -0.1114150 -0.0741400 0.3074050
v -0.1000000 -0.0975200 0.2500000
v -0.1114150 -0.1047700 0.1925950
v -0.1114150 -0.0000000 0.1925950
v -0.1000000 -0.0000000 0.2500000
v -0.1114150 -0.1047700 0.1925950
v -0.1439350 -0.1085750 0.1439350
v -0.1439350 -0.0000000 0.1439350
v -0.1114150 -0.0000000 0.1925950
v -0.1439350 -0.1085750 0.1439350
v -0.1925950 -0.1047700 0.1114150
v -0.1925950 -0.0000000 0.1114150
v -0.1439350 -0.0000000 0.1439350
v -0.1925950 -0.1047700 0.1114150
v -0.2500000 -0.0975200 0.1000000
v -0.2500000 -0.0000000 0.1000000
v -0.1925950 -0.0000000 0.1114150
v -0.2500000 -0.0975200 0.1000000
v -0.3074050 -0.0741400 0.1114150
v -0.3074050 -0.0000000 0.1114150
v -0.2500000 -0.0000000 0.1000000
v -0.2789700 -0.0925000 0.1057600
v -0.3074050 -0.0741400 0.1114150
v -0.2500000 -0.0975200 0.1000000
v -0.3074050 -0.0741400 0.1114150
v -0.3560650 -0.0410625 0.1439350
v -0.3560650 -0.0000000 0.1439350
v -0.3074050 -0.0000000 0.1114150
v 0.2698900 0.1000000 0.3500000
v 0.2882700 0.1000000 0.3423900
v 0.2500000 0.1000000 0.3500000
v 0.3066500 0.1000000 0.3347800
v 0.3207100 0.1000000 0.3207100
v 0.2882700 0.1000000 0.3423900
v 0.3347800 0.1000000 0.3066500
v 0.3423900 0.1000000 0.2882700
v 0.3207100 0.1000000 0.3207100
v 0.3500000 0.1000000 0.2698900
v 0.3500000 0.1000000 0.2500000
v 0.3423900 0.1000000 0.2882700
v 0.3500000 -0.0000000 0.2500000
v 0.3423900 -0.0000000 0.2882700
v 0.3423900 0.1000000 0.2882700
v 0.3500000 0.1000000 0.2500000
v 0.3423900 -0.0000000 0.2882700
v 0.3207100 -0.0000000 0.3207100
v 0.3207100 0.1000000 0.3207100
v 0.3423900 0.1000000 0.2882700
v 0.3207100 -0.0000000 0.3207100
v 0.2882700 -0.0000000 0.3423900
v 0.2882700 0.1000000 0.3423900
v 0.3207100 0.1000000 0.3207100
v 0.2882700 -0.0000000 0.3423900
v 0.2500000 -0.0000000 0.3500000
v 0.2500000 0.1000000 0.3500000
v 0.2882700 0.1000000 0.3423900
v 0.2500000 -0.0000000 0.3500000
v 0.2117300 -0.0000000 0.3423900
v 0.2117300 0.1000000 0.3423900
v 0.2500000 0.1000000 0.3500000
v 0.2117300 -0.0000000 0.3423900
v 0.1792900 -0.0000000 0.3207100
v 0.1792900 0.1000000 0.3207100
v 0.2117300 0.1000000 0.3423900
v 0.1792900 -0.0000000 0.3207100
v 0.1576100 -0.0000000 0.2882700
v 0.1576100 0.1000000 0.2882700
v 0.1792900 0.1000000 0.3207100
v 0.1576100 -0.0000000 0.2882700
v 0.1500000 -0.0000000 0.2500000
v 0.1500000 0.1000000 0.2500000
v 0.1576100 0.1000000 0.2882700
v 0.1500000 -0.0000000 0.2500000
v 0.1576100 -0.0000000 0.2117300
v 0.1576100 0.1000000 0.2117300
v 0.1500000 0.1000000 0.2500000
v 0.1576100 -0.0000000 0.2117300
v 0.1792900 -0.0000000 0.1792900
v 0.1792900 0.1000000 0.1792900
v 0.1576100 0.1000000 0.2117300
v 0.1792900 -0.0000000 0.1792900
v 0.2117300 -0.0000000 0.1576100
v 0.2117300 0.1000000 0.1576100
v 0.1792900 0.1000000 0.1792900
v 0.2117300 -0.0000000 0.1576100
v 0.2500000 -0.0000000 0.1500000
v 0.2500000 0.1000000 0.1500000
v 0.2117300 0.1000000 0.1576100
v 0.2500000 -0.0000000 0.1500000
v 0.2882700 -0.0000000 0.1576100
v 0.2882700 0.1000000 0.1576100
v 0.2500000 0.1000000 0.1500000
v 0.2882700 -0.0000000 0.1576100
v 0.3207100 -0.0000000 0.1792900
v 0.3207100 0.1000000 0.1792900
v 0.2882700 0.1000000 0.1576100
v 0.3207100 -0.0000000 0.1792900
v 0.3423900 -0.0000000 0.2117300
v 0.3423900 0.1000000 0.2117300
v 0.3207100 0.1000000 0.1792900
v 0.3423900 -0.0000000 0.2117300
v 0.3500000 -0.0000000 0.2500000
v 0.3500000 0.1000000 0.2500000
v 0.3423900 0.1000000 0.2117300
v 0.2500000 0.1000000 0.3500000
v 0.2117300 0.1000000 0.3423900
v 0.1925950 0.1000000 0.3885850
v 0.2500000 0.1000000 0.4000000
v 0.2117300 0.1000000 0.3423900
v 0.1792900 0.1000000 0.3207100
v 0.1439350 0.1000000 0.3560650
v 0.1925950 0.1000000 0.3885850
v 0.1792900 0.1000000 0.3207100
v 0.1576100 0.1000000 0.2882700
v 0.1114150 0.1000000 0.3074050
v 0.1439350 0.1000000 0.3560650
v 0.1576100 0.1000000 0.2882700
v 0.1500000 0.1000000 0.2500000
v 0.1000000 0.1000000 0.2500000
v 0.1114150 0.1000000 0.3074050
v 0.1500000 0.1000000 0.2500000
v 0.1576100 0.1000000 0.2117300
v 0.1114150 0.1000000 0.1925950
v 0.1000000 0.1000000 0.2500000
v 0.1576100 0.1000000 0.2117300
v 0.1792900 0.1000000 0.1792900
v 0.1439350 0.1000000 0.1439350
v 0.1114150 0.1000000 0.1925950
v 0.1792900 0.1000000 0.1792900
v 0.2117300 0.1000000 0.1576100
v 0.1925950 0.1000000 0.1114150
v 0.1439350 0.1000000 0.1439350
v 0.2117300 0.1000000 0.1576100
v 0.2500000 0.1000000 0.1500000
v 0.2500000 0.1000000 0.1000000
v 0.1925950 0.1000000 0.1114150
v 0.2500000 0.1000000 0.1500000
v 0.2882700 0.1000000 0.1576100
v 0.3074050 0.1000000 0.1114150
v 0.2500000 0.1000000 0.1000000
v 0.2882700 0.1000000 0.1576100
v 0.3207100 0.1000000 0.1792900
v 0.3560650 0.1000000 0.1439350
v 0.3074050 0.1000000 0.1114150
v 0.3207100 0.1000000 0.1792900
v 0.3423900 0.1000000 0.2117300
v 0.3885850 0.1000000 0.1925950
v 0.3560650 0.1000000 0.1439350
v 0.3423900 0.1000000 0.2117300
v 0.3500000 0.1000000 0.2500000
v 0.4000000 0.1000000 0.2500000
v 0.3885850 0.1000000 0.1925950
v 0.3500000 0.1000000 0.2698900
v 0.3903625 0.1000000 0.2984675
v 0.4000000 0.1000000 0.2500000
v 0.3500000 0.1000000 0.2500000
v 0.3903625 0.1000000 0.2984675
v 0.3500000 0.1000000 0.2698900
v 0.3423750 0.1000000 0.2882750
v 0.3347800 0.1000000 0.3066500
v 0.3535500 0.1000000 0.3535500
v 0.3903625 0.1000000 0.2984675
v 0.3423750 0.1000000 0.2882750
v 0.3535500 0.1000000 0.3535500
v 0.3347800 0.1000000 0.3066500
v 0.3207000 0.1000000 0.3207000
v 0.2984675 0.1000000 0.3903625
v 0.3535500 0.1000000 0.3535500
v 0.3066500 0.1000000 0.3347800
v 0.2882750 0.1000000 0.3423750
v 0.3535500 0.1000000 0.3535500
v 0.3207000 0.1000000 0.3207000
v 0.3066500 0.1000000 0.3347800
v 0.2500000 0.1000000 0.4000000
v 0.2984675 0.1000000 0.3903625
v 0.2698900 0.1000000 0.3500000
v 0.2500000 0.1000000 0.3500000
v 0.2984675 0.1000000 0.3903625
v 0.2882750 0.1000000 0.3423750
v 0.2698900 0.1000000 0.3500000
v 0.2500000 -0.0000000 0.4000000
v 0.2500000 0.1000000 0.4000000
v 0.1925950 0.1000000 0.3885850
v 0.1925950 -0.0000000 0.3885850
v 0.1925950 -0.0000000 0.3885850
v 0.1925950 0.1000000 0.3885850
v 0.1439350 0.1000000 0.3560650
v 0.1439350 -0.0000000 0.3560650
v 0.1439350 -0.0000000 0.3560650
v 0.1439350 0.1000000 0.3560650
v 0.1114150 0.1000000 0.3074050
v 0.1114150 -0.0000000 0.3074050
v 0.1114150 -0.0000000 0.3074050
v 0.1114150 0.1000000 0.3074050
v 0.1000000 0.1000000 0.2500000
v 0.1000000 -0.0000000 0.2500000
v 0.1000000 -0.0000000 0.2500000
v 0.1000000 0.1000000 0.2500000
v 0.1114150 0.1000000 0.1925950
v 0.1114150 -0.0000000 0.1925950
v 0.1114150 -0.0000000 0.1925950
v 0.1114150 0.1000000 0.1925950
v 0.1439350 0.1000000 0.1439350
v 0.1439350 -0.0000000 0.1439350
v 0.1439350 -0.0000000 0.1439350
v 0.1439350 0.1000000 0.1439350
v 0.1925950 0.1000000 0.1114150
v 0.1925950 -0.0000000 0.1114150
v 0.1925950 -0.0000000 0.1114150
v 0.1925950 0.1000000 0.1114150
v 0.2500000 0.1000000 0.1000000
v 0.2500000 -0.0000000 0.1000000
v 0.2500000 -0.0000000 0.1000000
v 0.2500000 0.1000000 0.1000000
v 0.3074050 0.1000000 0.1114150
v 0.3074050 -0.0000000 0.1114150
v 0.3074050 -0.0000000 0.1114150
v 0.3074050 0.1000000 0.1114150
v 0.3560650 0.1000000 0.1439350
v 0.3560650 -0.0000000 0.1439350
v 0.3560650 -0.0000000 0.1439350
v 0.3560650 0.1000000 0.1439350
v 0.3885850 0.1000000 0.1925950
v 0.3885850 -0.0000000 0.1925950
v 0.3885850 -0.0000000 0.1925950
v 0.3885850 0.1000000 0.1925950
v 0.4000000 0.1000000 0.2500000
v 0.4000000 -0.0000000 0.2500000
v 0.4000000 0.1000000 0.2500000
v 0.3903625 0.1000000 0.2984675
v 0.3903625 -0.0000000 0.2984675
v 0.4000000 -0.0000000 0.2500000
v 0.3903625 0.1000000 0.2984675
v 0.3535500 0.1000000 0.3535500
v 0.3535500 -0.0000000 0.3535500
v 0.3903625 -0.0000000 0.2984675
v 0.3535500 0.1000000 0.3535500
v 0.2984675 0.1000000 0.3903625
v 0.2984675 -0.0000000 0.3903625
v 0.3535500 -0.0000000 0.3535500
v 0.2984675 0.1000000 0.3903625
v 0.2500000 0.1000000 0.4000000
v 0.2500000 -0.0000000 0.4000000
v 0.2984675 -0.0000000 0.3903625
v 0.2500000 -0.0000000 0.2500000
v 0.3500000 -0.0000000 0.2500000
v 0.3423900 -0.0000000 0.2117300
v 0.2500000 -0.0000000 0.2500000
v 0.3423900 -0.0000000 0.2117300
v 0.3207100 -0.0000000 0.1792900
v 0.2500000 -0.0000000 0.2500000
v 0.3207100 -0.0000000 0.1792900
v 0.2882700 -0.0000000 0.1576100
v 0.2500000 -0.0000000 0.2500000
v 0.2882700 -0.0000000 0.1576100
v 0.2500000 -0.0000000 0.1500000
v 0.2500000 -0.0000000 0.2500000
v 0.2500000 -0.0000000 0.1500000
v 0.2117300 -0.0000000 0.1576100
v 0.2500000 -0.0000000 0.2500000
v 0.2117300 -0.0000000 0.1576100
v 0.1792900 -0.0000000 0.1792900
v 0.2500000 -0.0000000 0.2500000
v 0.1792900 -0.0000000 0.1792900
v 0.1576100 -0.0000000 0.2117300
v 0.2500000 -0.0000000 0.2500000
v 0.1576100 -0.0000000 0.2117300
v 0.1500000 -0.0000000 0.2500000
v 0.2500000 -0.0000000 0.2500000
v 0.1500000 -0.0000000 0.2500000
v 0.1576100 -0.0000000 0.2882700
v 0.2500000 -0.0000000 0.2500000
v 0.1576100 -0.0000000 0.2882700
v 0.1792900 -0.0000000 0.3207100
v 0.2500000 -0.0000000 0.2500000
v 0.1792900 -0.0000000 0.3207100
v 0.2117300 -0.0000000 0.3423900
v 0.2500000 -0.0000000 0.2500000
v 0.2117300 -0.0000000 0.3423900
v 0.2500000 -0.0000000 0.3500000
v 0.2500000 -0.0000000 0.2500000
v 0.2500000 -0.0000000 0.3500000
v 0.2882700 -0.0000000 0.3423900
v 0.2500000 -0.0000000 0.2500000
v 0.2882700 -0.0000000 0.3423900
v 0.3207100 -0.0000000 0.3207100
v 0.2500000 -0.0000000 0.2500000
v 0.3207100 -0.0000000 0.3207100
v 0.3423900 -0.0000000 0.2882700
v 0.2500000 -0.0000000 0.2500000
v 0.3423900 -0.0000000 0.2882700
v 0.3500000 -0.0000000 0.2500000
v 0.4388525 -0.0281250 -0.1817825
v 0.4750240 -0.0281250 0.0000000
v 0.5000253 -0.0281250 0.0000000
v 0.4619500 -0.0281250 -0.1913500
v 0.4750240 -0.0281250 0.0000000
v 0.4388510 -0.0281250 0.1817742
v 0.4619484 -0.0281250 0.1913413
v 0.5000253 -0.0281250 0.0000000
v 0.4388425 -0.0281250 -0.1817750
v 0.4388425 -0.0000000 -0.1817750
v 0.4750119 -0.0000000 0.0000031
v 0.4750119 -0.0281250 0.0000031
v 0.4750119 -0.0281250 0.0000031
v 0.4750119 -0.0000000 0.0000031
v 0.4388386 -0.0000000 0.1817724
v 0.4388386 -0.0281250 0.1817724
v 0.4388430 -0.0000000 0.1817730
v 0.4750116 -0.0000000 -0.0000051
v 0.4500110 -0.0000000 -0.0000049
v 0.4157460 -0.0000000 0.1722060
v 0.4750116 -0.0000000 -0.0000051
v 0.4388376 -0.0000000 -0.1817742
v 0.4157409 -0.0000000 -0.1722071
v 0.4500110 -0.0000000 -0.0000049
v 0.4157460 -0.0000000 0.1722060
v 0.4500110 -0.0000000 -0.0000049
v 0.4375107 -0.0000000 -0.0000047
v 0.4041975 -0.0000000 0.1674225
v 0.4500110 -0.0000000 -0.0000049
v 0.4157409 -0.0000000 -0.1722071
v 0.4041925 -0.0000000 -0.1674236
v 0.4375107 -0.0000000 -0.0000047
v 0.4041975 -0.0000000 0.1674225
v 0.4375107 -0.0000000 -0.0000047
v 0.4062599 -0.0000000 -0.0000044
v 0.3753263 -0.0000000 0.1554638
v 0.4375107 -0.0000000 -0.0000047
v 0.4041925 -0.0000000 -0.1674236
v 0.3753216 -0.0000000 -0.1554648
v 0.4062599 -0.0000000 -0.0000044
v 0.4062592 -0.0281250 0.0000028
v 0.4062592 -0.0000000 0.0000028
v 0.3753250 -0.0000000 -0.1554650
v 0.3753250 -0.0281250 -0.1554650
v 0.3753216 -0.0281250 0.1554630
v 0.3753216 -0.0000000 0.1554630
v 0.4062592 -0.0000000 0.0000028
v 0.4062592 -0.0281250 0.0000028
v 0.3984550 -0.0281250 0.2422300
v 0.3984550 -0.0000000 0.2422300
v 0.4000000 -0.0000000 0.2500000
v 0.4000000 -0.0281250 0.2500000
v 0.4388387 -0.0281250 0.1817738
v 0.4388387 -0.0000000 0.1817738
v 0.3984562 -0.0000000 0.2422313
v 0.3984562 -0.0281250 0.2422313
v 0.2984688 -0.0281250 0.3903638
v 0.2984688 -0.0000000 0.3903638
v 0.2500013 -0.0000000 0.4000012
v 0.2500013 -0.0281250 0.4000012
v 0.2422300 -0.0000000 0.3984562
v 0.1817750 -0.0000000 0.4388437
v 0.1817750 -0.0281250 0.4388437
v 0.2422300 -0.0281250 0.3984562
v 0.3903700 -0.0281250 0.2984575
v 0.3903625 -0.0000000 0.2984925
v 0.3535500 -0.0000000 0.3535500
v 0.3535500 -0.0281250 0.3535500
v 0.3535500 -0.0281250 0.3535500
v 0.3535500 -0.0000000 0.3535500
v 0.2984675 -0.0000000 0.3903625
v 0.2984675 -0.0281250 0.3903625
v 0.3903625 -0.0000000 0.2984925
v 0.3903700 -0.0281250 0.2984575
v 0.4000000 -0.0281250 0.2500000
v 0.4000000 -0.0000000 0.2500000
v 0.4388375 -0.0000000 0.1817725
v 0.3753350 -0.0000000 0.1554725
v 0.3695550 -0.0000000 0.1641200
v 0.3885850 -0.0000000 0.1925950
v 0.3885850 -0.0000000 0.1925950
v 0.3984550 -0.0000000 0.2422300
v 0.4388375 -0.0000000 0.1817725
v 0.4000000 -0.0281250 0.2500000
v 0.4619500 -0.0281250 0.1913500
v 0.4388375 -0.0281250 0.1817725
v 0.3984550 -0.0281250 0.2422300
v 0.4000000 -0.0281250 0.2500000
v 0.3903700 -0.0281250 0.2984575
v 0.4619500 -0.0281250 0.1913500
v 0.2422300 -0.0281250 0.3984550
v 0.2500000 -0.0281250 0.4000000
v 0.2500000 -0.0000000 0.4000000
v 0.2422300 -0.0000000 0.3984550
v 0.1817750 -0.0000000 0.4388425
v 0.1925950 -0.0000000 0.3885850
v 0.1641200 -0.0000000 0.3695550
v 0.1554725 -0.0000000 0.3753350
v 0.1925950 -0.0000000 0.3885850
v 0.1817750 -0.0000000 0.4388425
v 0.2422300 -0.0000000 0.3984550
v 0.2422300 -0.0281250 0.3984550
v 0.1817750 -0.0281250 0.4388425
v 0.1913500 -0.0281250 0.4619500
v 0.2500000 -0.0281250 0.4000000
v 0.2500000 -0.0281250 0.4000000
v 0.1913500 -0.0281250 0.4619500
v 0.2984675 -0.0281250 0.3903625
v 0.1439350 -0.0410625 0.3560650
v 0.1641200 -0.0281250 0.3695550
v 0.1641200 -0.0000000 0.3695550
v 0.1439350 -0.0000000 0.3560650
v 0.1641200 -0.0281250 0.3695550
v 0.1554725 -0.0281250 0.3753350
v 0.1554725 -0.0000000 0.3753350
v 0.1641200 -0.0000000 0.3695550
v 0.3753350 -0.0281250 0.1554725
v 0.3695550 -0.0281250 0.1641200
v 0.3695550 -0.0000000 0.1641200
v 0.3753350 -0.0000000 0.1554725
v 0.3560650 -0.0410625 0.1439350
v 0.3560650 -0.0000000 0.1439350
v 0.3695550 -0.0000000 0.1641200
v 0.3695550 -0.0281250 0.1641200
v 0.3560650 -0.0000000 0.1439350
v 0.3560650 -0.0410625 0.1439350
v 0.3074050 -0.0741400 0.1114150
v 0.3074050 -0.0000000 0.1114150
v 0.2500000 -0.0975200 0.1000000
v 0.2500000 -0.0000000 0.1000000
v 0.3074050 -0.0000000 0.1114150
v 0.3074050 -0.0741400 0.1114150
v 0.2789700 -0.0925000 0.1057600
v 0.2500000 -0.0975200 0.1000000
v 0.3074050 -0.0741400 0.1114150
v 0.2500000 -0.0975200 0.1000000
v 0.1925950 -0.1047700 0.1114150
v 0.1925950 -0.0000000 0.1114150
v 0.2500000 -0.0000000 0.1000000
v 0.1925950 -0.1047700 0.1114150
v 0.1439350 -0.1085750 0.1439350
v 0.1439350 -0.0000000 0.1439350
v 0.1925950 -0.0000000 0.1114150
v 0.1439350 -0.1085750 0.1439350
v 0.1114150 -0.1047700 0.1925950
v 0.1114150 -0.0000000 0.1925950
v 0.1439350 -0.0000000 0.1439350
v 0.1114150 -0.1047700 0.1925950
v 0.1000000 -0.0975200 0.2500000
v 0.1000000 -0.0000000 0.2500000
v 0.1114150 -0.0000000 0.1925950
v 0.1000000 -0.0975200 0.2500000
v 0.1114150 -0.0741400 0.3074050
v 0.1114150 -0.0000000 0.3074050
v 0.1000000 -0.0000000 0.2500000
v 0.1057600 -0.0925000 0.2789700
v 0.1114150 -0.0741400 0.3074050
v 0.1000000 -0.0975200 0.2500000
v 0.1114150 -0.0741400 0.3074050
v 0.1439350 -0.0410625 0.3560650
v 0.1439350 -0.0000000 0.3560650
v 0.1114150 -0.0000000 0.3074050
v 0.3500000 0.1000000 -0.2698900
v 0.3423900 0.1000000 -0.2882700
v 0.3500000 0.1000000 -0.2500000
v 0.3347800 0.1000000 -0.3066500
v 0.3207100 0.1000000 -0.3207100
v 0.3423900 0.1000000 -0.2882700
v 0.3066500 0.1000000 -0.3347800
v 0.2882700 0.1000000 -0.3423900
v 0.3207100 0.1000000 -0.3207100
v 0.2698900 0.1000000 -0.3500000
v 0.2500000 0.1000000 -0.3500000
v 0.2882700 0.1000000 -0.3423900
v 0.2500000 -0.0000000 -0.3500000
v 0.2882700 -0.0000000 -0.3423900
v 0.2882700 0.1000000 -0.3423900
v 0.2500000 0.1000000 -0.3500000
v 0.2882700 -0.0000000 -0.3423900
v 0.3207100 -0.0000000 -0.3207100
v 0.3207100 0.1000000 -0.3207100
v 0.2882700 0.1000000 -0.3423900
v 0.3207100 -0.0000000 -0.3207100
v 0.3423900 -0.0000000 -0.2882700
v 0.3423900 0.1000000 -0.2882700
v 0.3207100 0.1000000 -0.3207100
v 0.3423900 -0.0000000 -0.2882700
v 0.3500000 -0.0000000 -0.2500000
v 0.3500000 0.1000000 -0.2500000
v 0.3423900 0.1000000 -0.2882700
v 0.3500000 -0.0000000 -0.2500000
v 0.3423900 -0.0000000 -0.2117300
v 0.3423900 0.1000000 -0.2117300
v 0.3500000 0.1000000 -0.2500000
v 0.3423900 -0.0000000 -0.2117300
v 0.3207100 -0.0000000 -0.1792900
v 0.3207100 0.1000000 -0.1792900
v 0.3423900 0.1000000 -0.2117300
v 0.3207100 -0.0000000 -0.1792900
v 0.2882700 -0.0000000 -0.1576100
v 0.2882700 0.1000000 -0.1576100
v 0.3207100 0.1000000 -0.1792900
v 0.2882700 -0.0000000 -0.1576100
v 0.2500000 -0.0000000 -0.1500000
v 0.2500000 0.1000000 -0.1500000
v 0.2882700 0.1000000 -0.1576100
v 0.2500000 -0.0000000 -0.1500000
v 0.2117300 -0.0000000 -0.1576100
v 0.2117300 0.1000000 -0.1576100
v 0.2500000 0.1000000 -0.1500000
v 0.2117300 -0.0000000 -0.1576100
v 0.1792900 -0.0000000 -0.1792900
v 0.1792900 0.1000000 -0.1792900
v 0.2117300 0.1000000 -0.1576100
v 0.1792900 -0.0000000 -0.1792900
v 0.1576100 -0.0000000 -0.2117300
v 0.1576100 0.1000000 -0.2117300
v 0.1792900 0.1000000 -0.1792900
v 0.1576100 -0.0000000 -0.2117300
v 0.1500000 -0.0000000 -0.2500000
v 0.1500000 0.1000000 -0.2500000
v 0.1576100 0.1000000 -0.2117300
v 0.1500000 -0.0000000 -0.2500000
v 0.1576100 -0.0000000 -0.2882700
v 0.1576100 0.1000000 -0.2882700
v 0.1500000 0.1000000 -0.2500000
v 0.1576100 -0.0000000 -0.2882700
v 0.1792900 -0.0000000 -0.3207100
v 0.1792900 0.1000000 -0.3207100
v 0.1576100 0.1000000 -0.2882700
v 0.1792900 -0.0000000 -0.3207100
v 0.2117300 -0.0000000 -0.3423900
v 0.2117300 0.1000000 -0.3423900
v 0.1792900 0.1000000 -0.3207100
v 0.2117300 -0.0000000 -0.3423900
v 0.2500000 -0.0000000 -0.3500000
v 0.2500000 0.1000000 -0.3500000
v 0.2117300 0.1000000 -0.3423900
v 0.3500000 0.1000000 -0.2500000
v 0.3423900 0.1000000 -0.2117300
v 0.3885850 0.1000000 -0.1925950
v 0.4000000 0.1000000 -0.2500000
v 0.3423900 0.1000000 -0.2117300
v 0.3207100 0.1000000 -0.1792900
v 0.3560650 0.1000000 -0.1439350
v 0.3885850 0.1000000 -0.1925950
v 0.3207100 0.1000000 -0.1792900
v 0.2882700 0.1000000 -0.1576100
v 0.3074050 0.1000000 -0.1114150
v 0.3560650 0.1000000 -0.1439350
v 0.2882700 0.1000000 -0.1576100
v 0.2500000 0.1000000 -0.1500000
v 0.2500000 0.1000000 -0.1000000
v 0.3074050 0.1000000 -0.1114150
v 0.2500000 0.1000000 -0.1500000
v 0.2117300 0.1000000 -0.1576100
v 0.1925950 0.1000000 -0.1114150
v 0.2500000 0.1000000 -0.1000000
v 0.2117300 0.1000000 -0.1576100
v 0.1792900 0.1000000 -0.1792900
v 0.1439350 0.1000000 -0.1439350
v 0.1925950 0.1000000 -0.1114150
v 0.1792900 0.1000000 -0.1792900
v 0.1576100 0.1000000 -0.2117300
v 0.1114150 0.1000000 -0.1925950
v 0.1439350 0.1000000 -0.1439350
v 0.1576100 0.1000000 -0.2117300
v 0.1500000 0.1000000 -0.2500000
v 0.1000000 0.1000000 -0.2500000
v 0.1114150 0.1000000 -0.1925950
v 0.1500000 0.1000000 -0.2500000
v 0.1576100 0.1000000 -0.2882700
v 0.1114150 0.1000000 -0.3074050
v 0.1000000 0.1000000 -0.2500000
v 0.1576100 0.1000000 -0.2882700
v 0.1792900 0.1000000 -0.3207100
v 0.1439350 0.1000000 -0.3560650
v 0.1114150 0.1000000 -0.3074050
v 0.1792900 0.1000000 -0.3207100
v 0.2117300 0.1000000 -0.3423900
v 0.1925950 0.1000000 -0.3885850
v 0.1439350 0.1000000 -0.3560650
v 0.2117300 0.1000000 -0.3423900
v 0.2500000 0.1000000 -0.3500000
v 0.2500000 0.1000000 -0.4000000
v 0.1925950 0.1000000 -0.3885850
v 0.2698900 0.1000000 -0.3500000
v 0.2984675 0.1000000 -0.3903625
v 0.2500000 0.1000000 -0.4000000
v 0.2500000 0.1000000 -0.3500000
v 0.2984675 0.1000000 -0.3903625
v 0.2698900 0.1000000 -0.3500000
v 0.2882750 0.1000000 -0.3423750
v 0.3066500 0.1000000 -0.3347800
v 0.3535500 0.1000000 -0.3535500
v 0.2984675 0.1000000 -0.3903625
v 0.2882750 0.1000000 -0.3423750
v 0.3535500 0.1000000 -0.3535500
v 0.3066500 0.1000000 -0.3347800
v 0.3207000 0.1000000 -0.3207000
v 0.3903625 0.1000000 -0.2984675
v 0.3535500 0.1000000 -0.3535500
v 0.3347800 0.1000000 -0.3066500
v 0.3423750 0.1000000 -0.2882750
v 0.3535500 0.1000000 -0.3535500
v 0.3207000 0.1000000 -0.3207000
v 0.3347800 0.1000000 -0.3066500
v 0.4000000 0.1000000 -0.2500000
v 0.3903625 0.1000000 -0.2984675
v 0.3500000 0.1000000 -0.2698900
v 0.3500000 0.1000000 -0.2500000
v 0.3903625 0.1000000 -0.2984675
v 0.3423750 0.1000000 -0.2882750
v 0.3500000 0.1000000 -0.2698900
v 0.4000000 -0.0000000 -0.2500000
v 0.4000000 0.1000000 -0.2500000
v 0.3885850 0.1000000 -0.1925950
v 0.3885850 -0.0000000 -0.1925950
v 0.3885850 -0.0000000 -0.1925950
v 0.3885850 0.1000000 -0.1925950
v 0.3560650 0.1000000 -0.1439350
v 0.3560650 -0.0000000 -0.1439350
v 0.3560650 -0.0000000 -0.1439350
v 0.3560650 0.1000000 -0.1439350
v 0.3074050 0.1000000 -0.1114150
v 0.3074050 -0.0000000 -0.1114150
v 0.3074050 -0.0000000 -0.1114150
v 0.3074050 0.1000000 -0.1114150
v 0.2500000 0.1000000 -0.1000000
v 0.2500000 -0.0000000 -0.1000000
v 0.2500000 -0.0000000 -0.1000000
v 0.2500000 0.1000000 -0.1000000
v 0.1925950 0.1000000 -0.1114150
v 0.1925950 -0.0000000 -0.1114150
v 0.1925950 -0.0000000 -0.1114150
v 0.1925950 0.1000000 -0.1114150
v 0.1439350 0.1000000 -0.1439350
v 0.1439350 -0.0000000 -0.1439350
v 0.1439350 -0.0000000 -0.1439350
v 0.1439350 0.1000000 -0.1439350
v 0.1114150 0.1000000 -0.1925950
v 0.1114150 -0.0000000 -0.1925950
v 0.1114150 -0.0000000 -0.1925950
v 0.1114150 0.1000000 -0.1925950
v 0.1000000 0.1000000 -0.2500000
v 0.1000000 -0.0000000 -0.2500000
v 0.1000000 -0.0000000 -0.2500000
v 0.1000000 0.1000000 -0.2500000
v 0.1114150 0.1000000 -0.3074050
v 0.1114150 -0.0000000 -0.3074050
v 0.1114150 -0.0000000 -0.3074050
v 0.1114150 0.1000000 -0.3074050
v 0.1439350 0.1000000 -0.3560650
v 0.1439350 -0.0000000 -0.3560650
v 0.1439350 -0.0000000 -0.3560650
v 0.1439350 0.1000000 -0.3560650
v 0.1925950 0.1000000 -0.3885850
v 0.1925950 -0.0000000 -0.3885850
v 0.1925950 -0.0000000 -0.3885850
v 0.1925950 0.1000000 -0.3885850
v 0.2500000 0.1000000 -0.4000000
v 0.2500000 -0.0000000 -0.4000000
v 0.2500000 0.1000000 -0.4000000
v 0.2984675 0.1000000 -0.3903625
v 0.2984675 -0.0000000 -0.3903625
v 0.2500000 -0.0000000 -0.4000000
v 0.2984675 0.1000000 -0.3903625
v 0.3535500 0.1000000 -0.3535500
v 0.3535500 -0.0000000 -0.3535500
v 0.2984675 -0.0000000 -0.3903625
v 0.3535500 0.1000000 -0.3535500
v 0.3903625 0.1000000 -0.2984675
v 0.3903625 -0.0000000 -0.2984675
v 0.3535500 -0.0000000 -0.3535500
v 0.3903625 0.1000000 -0.2984675
v 0.4000000 0.1000000 -0.2500000
v 0.4000000 -0.0000000 -0.2500000
v 0.3903625 -0.0000000 -0.2984675
v 0.2500000 -0.0000000 -0.2500000
v 0.2500000 -0.0000000 -0.3500000
v 0.2117300 -0.0000000 -0.3423900
v 0.2500000 -0.0000000 -0.2500000
v 0.2117300 -0.0000000 -0.3423900
v 0.1792900 -0.0000000 -0.3207100
v 0.2500000 -0.0000000 -0.2500000
v 0.1792900 -0.0000000 -0.3207100
v 0.1576100 -0.0000000 -0.2882700
v 0.2500000 -0.0000000 -0.2500000
v 0.1576100 -0.0000000 -0.2882700
v 0.1500000 -0.0000000 -0.2500000
v 0.2500000 -0.0000000 -0.2500000
v 0.1500000 -0.0000000 -0.2500000
v 0.1576100 -0.0000000 -0.2117300
v 0.2500000 -0.0000000 -0.2500000
v 0.1576100 -0.0000000 -0.2117300
v 0.1792900 -0.0000000 -0.1792900
v 0.2500000 -0.0000000 -0.2500000
v 0.1792900 -0.0000000 -0.1792900
v 0.2117300 -0.0000000 -0.1576100
v 0.2500000 -0.0000000 -0.2500000
v 0.2117300 -0.0000000 -0.1576100
v 0.2500000 -0.0000000 -0.1500000
v 0.2500000 -0.0000000 -0.2500000
v 0.2500000 -0.0000000 -0.1500000
v 0.2882700 -0.0000000 -0.1576100
v 0.2500000 -0.0000000 -0.2500000
v 0.2882700 -0.0000000 -0.1576100
v 0.3207100 -0.0000000 -0.1792900
v 0.2500000 -0.0000000 -0.2500000
v 0.3207100 -0.0000000 -0.1792900
v 0.3423900 -0.0000000 -0.2117300
v 0.2500000 -0.0000000 -0.2500000
v 0.3423900 -0.0000000 -0.2117300
v 0.3500000 -0.0000000 -0.2500000
v 0.2500000 -0.0000000 -0.2500000
v 0.3500000 -0.0000000 -0.2500000
v 0.3423900 -0.0000000 -0.2882700
v 0.2500000 -0.0000000 -0.2500000
v 0.3423900 -0.0000000 -0.2882700
v 0.3207100 -0.0000000 -0.3207100
v 0.2500000 -0.0000000 -0.2500000
v 0.3207100 -0.0000000 -0.3207100
v 0.2882700 -0.0000000 -0.3423900
v 0.2500000 -0.0000000 -0.2500000
v 0.2882700 -0.0000000 -0.3423900
v 0.2500000 -0.0000000 -0.3500000
v -0.1817825 -0.0281250 -0.4388525
v 0.0000000 -0.0281250 -0.4750240
v 0.0000000 -0.0281250 -0.5000253
v -0.1913500 -0.0281250 -0.4619500
v 0.0000000 -0.0281250 -0.4750240
v 0.1817742 -0.0281250 -0.4388510
v 0.1913413 -0.0281250 -0.4619484
v 0.0000000 -0.0281250 -0.5000253
v -0.1817750 -0.0281250 -0.4388425
v -0.1817750 -0.0000000 -0.4388425
v 0.0000031 -0.0000000 -0.4750119
v 0.0000031 -0.0281250 -0.4750119
v 0.0000031 -0.0281250 -0.4750119
v 0.0000031 -0.0000000 -0.4750119
v 0.1817724 -0.0000000 -0.4388386
v 0.1817724 -0.0281250 -0.4388386
v 0.1817730 -0.0000000 -0.4388430
v -0.0000051 -0.0000000 -0.4750116
v -0.0000049 -0.0000000 -0.4500110
v 0.1722060 -0.0000000 -0.4157460
v -0.0000051 -0.0000000 -0.4750116
v -0.1817742 -0.0000000 -0.4388376
v -0.1722071 -0.0000000 -0.4157409
v -0.0000049 -0.0000000 -0.4500110
v 0.1722060 -0.0000000 -0.4157460
v -0.0000049 -0.0000000 -0.4500110
v -0.0000047 -0.0000000 -0.4375107
v 0.1674225 -0.0000000 -0.4041975
v -0.0000049 -0.0000000 -0.4500110
v -0.1722071 -0.0000000 -0.4157409
v -0.1674236 -0.0000000 -0.4041925
v -0.0000047 -0.0000000 -0.4375107
v 0.1674225 -0.0000000 -0.4041975
v -0.0000047 -0.0000000 -0.4375107
v -0.0000044 -0.0000000 -0.4062599
v 0.1554638 -0.0000000 -0.3753263
v -0.0000047 -0.0000000 -0.4375107
v -0.1674236 -0.0000000 -0.4041925
v -0.1554648 -0.0000000 -0.3753216
v -0.0000044 -0.0000000 -0.4062599
v 0.0000028 -0.0281250 -0.4062592
v 0.0000028 -0.0000000 -0.4062592
v -0.1554650 -0.0000000 -0.3753250
v -0.1554650 -0.0281250 -0.3753250
v 0.1554630 -0.0281250 -0.3753216
v 0.1554630 -0.0000000 -0.3753216
v 0.0000028 -0.0000000 -0.4062592
v 0.0000028 -0.0281250 -0.4062592
v 0.2422300 -0.0281250 -0.3984550
v 0.2422300 -0.0000000 -0.3984550
v 0.2500000 -0.0000000 -0.4000000
v 0.2500000 -0.0281250 -0.4000000
v 0.1817738 -0.0281250 -0.4388387
v 0.1817738 -0.0000000 -0.4388387
v 0.2422313 -0.0000000 -0.3984562
v 0.2422313 -0.0281250 -0.3984562
v 0.3903638 -0.0281250 -0.2984688
v 0.3903638 -0.0000000 -0.2984688
v 0.4000012 -0.0000000 -0.2500013
v 0.4000012 -0.0281250 -0.2500013
v 0.3984562 -0.0000000 -0.2422300
v 0.4388437 -0.0000000 -0.1817750
v 0.4388437 -0.0281250 -0.1817750
v 0.3984562 -0.0281250 -0.2422300
v 0.2984575 -0.0281250 -0.3903700
v 0.2984925 -0.0000000 -0.3903625
v 0.3535500 -0.0000000 -0.3535500
v 0.3535500 -0.0281250 -0.3535500
v 0.3535500 -0.0281250 -0.3535500
v 0.3535500 -0.0000000 -0.3535500
v 0.3903625 -0.0000000 -0.2984675
v 0.3903625 -0.0281250 -0.2984675
v 0.2984925 -0.0000000 -0.3903625
v 0.2984575 -0.0281250 -0.3903700
v 0.2500000 -0.0281250 -0.4000000
v 0.2500000 -0.0000000 -0.4000000
v 0.1817725 -0.0000000 -0.4388375
v 0.1554725 -0.0000000 -0.3753350
v 0.1641200 -0.0000000 -0.3695550
v 0.1925950 -0.0000000 -0.3885850
v 0.1925950 -0.0000000 -0.3885850
v 0.2422300 -0.0000000 -0.3984550
v 0.1817725 -0.0000000 -0.4388375
v 0.2500000 -0.0281250 -0.4000000
v 0.1913500 -0.0281250 -0.4619500
v 0.1817725 -0.0281250 -0.4388375
v 0.2422300 -0.0281250 -0.3984550
v 0.2500000 -0.0281250 -0.4000000
v 0.2984575 -0.0281250 -0.3903700
v 0.1913500 -0.0281250 -0.4619500
v 0.3984550 -0.0281250 -0.2422300
v 0.4000000 -0.0281250 -0.2500000
v 0.4000000 -0.0000000 -0.2500000
v 0.3984550 -0.0000000 -0.2422300
v 0.4388425 -0.0000000 -0.1817750
v 0.3885850 -0.0000000 -0.1925950
v 0.3695550 -0.0000000 -0.1641200
v 0.3753350 -0.0000000 -0.1554725
v 0.3885850 -0.0000000 -0.1925950
v 0.4388425 -0.0000000 -0.1817750
v 0.3984550 -0.0000000 -0.2422300
v 0.3984550 -0.0281250 -0.2422300
v 0.4388425 -0.0281250 -0.1817750
v 0.4619500 -0.0281250 -0.1913500
v 0.4000000 -0.0281250 -0.2500000
v 0.4000000 -0.0281250 -0.2500000
v 0.4619500 -0.0281250 -0.1913500
v 0.3903625 -0.0281250 -0.2984675
v 0.3560650 -0.0410625 -0.1439350
v 0.3695550 -0.0281250 -0.1641200
v 0.3695550 -0.0000000 -0.1641200
v 0.3560650 -0.0000000 -0.1439350
v 0.3695550 -0.0281250 -0.1641200
v 0.3753350 -0.0281250 -0.1554725
v 0.3753350 -0.0000000 -0.1554725
v 0.3695550 -0.0000000 -0.1641200
v 0.1554725 -0.0281250 -0.3753350
v 0.1641200 -0.0281250 -0.3695550
v 0.1641200 -0.0000000 -0.3695550
v 0.1554725 -0.0000000 -0.3753350
v 0.1439350 -0.0410625 -0.3560650
v 0.1439350 -0.0000000 -0.3560650
v 0.1641200 -0.0000000 -0.3695550
v 0.1641200 -0.0281250 -0.3695550
v 0.1439350 -0.0000000 -0.3560650
v 0.1439350 -0.0410625 -0.3560650
v 0.1114150 -0.0741400 -0.3074050
v 0.1114150 -0.0000000 -0.3074050
v 0.1000000 -0.0975200 -0.2500000
v 0.1000000 -0.0000000 -0.2500000
v 0.1114150 -0.0000000 -0.3074050
v 0.1114150 -0.0741400 -0.3074050
v 0.1057600 -0.0925000 -0.2789700
v 0.1000000 -0.0975200 -0.2500000
v 0.1114150 -0.0741400 -0.3074050
v 0.1000000 -0.0975200 -0.2500000
v 0.1114150 -0.1047700 -0.1925950
v 0.1114150 -0.0000000 -0.1925950
v 0.1000000 -0.0000000 -0.2500000
v 0.1114150 -0.1047700 -0.1925950
v 0.1439350 -0.1085750 -0.1439350
v 0.1439350 -0.0000000 -0.1439350
v 0.1114150 -0.0000000 -0.1925950
v 0.1439350 -0.1085750 -0.1439350
v 0.1925950 -0.1047700 -0.1114150
v 0.1925950 -0.0000000 -0.1114150
v 0.1439350 -0.0000000 -0.1439350
v 0.1925950 -0.1047700 -0.1114150
v 0.2500000 -0.0975200 -0.1000000
v 0.2500000 -0.0000000 -0.1000000
v 0.1925950 -0.0000000 -0.1114150
v 0.2500000 -0.0975200 -0.1000000
v 0.3074050 -0.0741400 -0.1114150
v 0.3074050 -0.0000000 -0.1114150
v 0.2500000 -0.0000000 -0.1000000
v 0.2789700 -0.0925000 -0.1057600
v 0.3074050 -0.0741400 -0.1114150
v 0.2500000 -0.0975200 -0.1000000
v 0.3074050 -0.0741400 -0.1114150
v 0.3560650 -0.0410625 -0.1439350
v 0.3560650 -0.0000000 -0.1439350
v 0.3074050 -0.0000000 -0.1114150
v -0.2698900 0.1000000 -0.3500000
v -0.2882700 0.1000000 -0.3423900
v -0.2500000 0.1000000 -0.3500000
v -0.3066500 0.1000000 -0.3347800
v -0.3207100 0.1000000 -0.3207100
v -0.2882700 0.1000000 -0.3423900
v -0.3347800 0.1000000 -0.3066500
v -0.3423900 0.1000000 -0.2882700
v -0.3207100 0.1000000 -0.3207100
v -0.3500000 0.1000000 -0.2698900
v -0.3500000 0.1000000 -0.2500000
v -0.3423900 0.1000000 -0.2882700
v -0.3500000 -0.0000000 -0.2500000
v -0.3423900 -0.0000000 -0.2882700
v -0.3423900 0.1000000 -0.2882700
v -0.3500000 0.1000000 -0.2500000
v -0.3423900 -0.0000000 -0.2882700
v -0.3207100 -0.0000000 -0.3207100
v -0.3207100 0.1000000 -0.3207100
v -0.3423900 0.1000000 -0.2882700
v -0.3207100 -0.0000000 -0.3207100
v -0.2882700 -0.0000000 -0.3423900
v -0.2882700 0.1000000 -0.3423900
v -0.3207100 0.1000000 -0.3207100
v -0.2882700 -0.0000000 -0.3423900
v -0.2500000 -0.0000000 -0.3500000
v -0.2500000 0.1000000 -0.3500000
v -0.2882700 0.1000000 -0.3423900
v -0.2500000 -0.0000000 -0.3500000
v -0.2117300 -0.0000000 -0.3423900
v -0.2117300 0.1000000 -0.3423900
v -0.2500000 0.1000000 -0.3500000
v -0.2117300 -0.0000000 -0.3423900
v -0.1792900 -0.0000000 -0.3207100
v -0.1792900 0.1000000 -0.3207100
v -0.2117300 0.1000000 -0.3423900
v -0.1792900 -0.0000000 -0.3207100
v -0.1576100 -0.0000000 -0.2882700
v -0.1576100 0.1000000 -0.2882700
v -0.1792900 0.1000000 -0.3207100
v -0.1576100 -0.0000000 -0.2882700
v -0.1500000 -0.0000000 -0.2500000
v -0.1500000 0.1000000 -0.2500000
v -0.1576100 0.1000000 -0.2882700
v -0.1500000 -0.0000000 -0.2500000
v -0.1576100 -0.0000000 -0.2117300
v -0.1576100 0.1000000 -0.2117300
v -0.1500000 0.1000000 -0.2500000
v -0.1576100 -0.0000000 -0.2117300
v -0.1792900 -0.0000000 -0.1792900
v -0.1792900 0.1000000 -0.1792900
v -0.1576100 0.1000000 -0.2117300
v -0.1792900 -0.0000000 -0.1792900
v -0.2117300 -0.0000000 -0.1576100
v -0.2117300 0.1000000 -0.1576100
v -0.1792900 0.1000000 -0.1792900
v -0.2117300 -0.0000000 -0.1576100
v -0.2500000 -0.0000000 -0.1500000
v -0.2500000 0.1000000 -0.1500000
v -0.2117300 0.1000000 -0.1576100
v -0.2500000 -0.0000000 -0.1500000
v -0.2882700 -0.0000000 -0.1576100
v -0.2882700 0.1000000 -0.1576100
v -0.2500000 0.1000000 -0.1500000
v -0.2882700 -0.0000000 -0.1576100
v -0.3207100 -0.0000000 -0.1792900
v -0.3207100 0.1000000 -0.1792900
v -0.2882700 0.1000000 -0.1576100
v -0.3207100 -0.0000000 -0.1792900
v -0.3423900 -0.0000000 -0.2117300
v -0.3423900 0.1000000 -0.2117300
v -0.3207100 0.1000000 -0.1792900
v -0.3423900 -0.0000000 -0.2117300
v -0.3500000 -0.0000000 -0.2500000
v -0.3500000 0.1000000 -0.2500000
v -0.3423900 0.1000000 -0.2117300
v -0.2500000 0.1000000 -0.3500000
v -0.2117300 0.1000000 -0.3423900
v -0.1925950 0.1000000 -0.3885850
v -0.2500000 0.1000000 -0.4000000
v -0.2117300 0.1000000 -0.3423900
v -0.1792900 0.1000000 -0.3207100
v -0.1439350 0.1000000 -0.3560650
v -0.1925950 0.1000000 -0.3885850
v -0.1792900 0.1000000 -0.3207100
v -0.1576100 0.1000000 -0.2882700
v -0.1114150 0.1000000 -0.3074050
v -0.1439350 0.1000000 -0.3560650
v -0.1576100 0.1000000 -0.2882700
v -0.1500000 0.1000000 -0.2500000
v -0.1000000 0.1000000 -0.2500000
v -0.1114150 0.1000000 -0.3074050
v -0.1500000 0.1000000 -0.2500000
v -0.1576100 0.1000000 -0.2117300
v -0.1114150 0.1000000 -0.1925950
v -0.1000000 0.1000000 -0.2500000
v -0.1576100 0.1000000 -0.2117300
v -0.1792900 0.1000000 -0.1792900
v -0.1439350 0.1000000 -0.1439350
v -0.1114150 0.1000000 -0.1925950
v -0.1792900 0.1000000 -0.1792900
v -0.2117300 0.1000000 -0.1576100
v -0.1925950 0.1000000 -0.1114150
v -0.1439350 0.1000000 -0.1439350
v -0.2117300 0.1000000 -0.1576100
v -0.2500000 0.1000000 -0.1500000
v -0.2500000 0.1000000 -0.1000000
v -0.1925950 0.1000000 -0.1114150
v -0.2500000 0.1000000 -0.1500000
v -0.2882700 0.1000000 -0.1576100
v -0.3074050 0.1000000 -0.1114150
v -0.2500000 0.1000000 -0.1000000
v -0.2882700 0.1000000 -0.1576100
v -0.3207100 0.1000000 -0.1792900
v -0.3560650 0.1000000 -0.1439350
v -0.3074050 0.1000000 -0.1114150
v -0.3207100 0.1000000 -0.1792900
v -0.3423900 0.1000000 -0.2117300
v -0.3885850 0.1000000 -0.1925950
v -0.3560650 0.1000000 -0.1439350
v -0.3423900 0.1000000 -0.2117300
v -0.3500000 0.1000000 -0.2500000
v -0.4000000 0.1000000 -0.2500000
v -0.3885850 0.1000000 -0.1925950
v -0.3500000 0.1000000 -0.2698900
v -0.3903625 0.1000000 -0.2984675
v -0.4000000 0.1000000 -0.2500000
v -0.3500000 0.1000000 -0.2500000
v -0.3903625 0.1000000 -0.2984675
v -0.3500000 0.1000000 -0.2698900
v -0.3423750 0.1000000 -0.2882750
v -0.3347800 0.1000000 -0.3066500
v -0.3535500 0.1000000 -0.3535500
v -0.3903625 0.1000000 -0.2984675
v -0.3423750 0.1000000 -0.2882750
v -0.3535500 0.1000000 -0.3535500
v -0.3347800 0.1000000 -0.3066500
v -0.3207000 0.1000000 -0.3207000
v -0.2984675 0.1000000 -0.3903625
v -0.3535500 0.1000000 -0.3535500
v -0.3066500 0.1000000 -0.3347800
v -0.2882750 0.1000000 -0.3423750
v -0.3535500 0.1000000 -0.3535500
v -0.3207000 0.1000000 -0.3207000
v -0.3066500 0.1000000 -0.3347800
v -0.2500000 0.1000000 -0.4000000
v -0.2984675 0.1000000 -0.3903625
v -0.2698900 0.1000000 -0.3500000
v -0.2500000 0.1000000 -0.3500000
v -0.2984675 0.1000000 -0.3903625
v -0.2882750 0.1000000 -0.3423750
v -0.2698900 0.1000000 -0.3500000
v -0.2500000 -0.0000000 -0.4000000
v -0.2500000 0.1000000 -0.4000000
v -0.1925950 0.1000000 -0.3885850
v -0.1925950 -0.0000000 -0.3885850
v -0.1925950 -0.0000000 -0.3885850
v -0.1925950 0.1000000 -0.3885850
v -0.1439350 0.1000000 -0.3560650
v -0.1439350 -0.0000000 -0.3560650
v -0.1439350 -0.0000000 -0.3560650
v -0.1439350 0.1000000 -0.3560650
v -0.1114150 0.1000000 -0.3074050
v -0.1114150 -0.0000000 -0.3074050
v -0.1114150 -0.0000000 -0.3074050
v -0.1114150 0.1000000 -0.3074050
v -0.1000000 0.1000000 -0.2500000
v -0.1000000 -0.0000000 -0.2500000
v -0.1000000 -0.0000000 -0.2500000
v -0.1000000 0.1000000 -0.2500000
v -0.1114150 0.1000000 -0.1925950
v -0.1114150 -0.0000000 -0.1925950
v -0.1114150 -0.0000000 -0.1925950
v -0.1114150 0.1000000 -0.1925950
v -0.1439350 0.1000000 -0.1439350
v -0.1439350 -0.0000000 -0.1439350
v -0.1439350 -0.0000000 -0.1439350
v -0.1439350 0.1000000 -0.1439350
v -0.1925950 0.1000000 -0.1114150
v -0.1925950 -0.0000000 -0.1114150
v -0.1925950 -0.0000000 -0.1114150
v -0.1925950 0.1000000 -0.1114150
v -0.2500000 0.1000000 -0.1000000
v -0.2500000 -0.0000000 -0.1000000
v -0.2500000 -0.0000000 -0.1000000
v -0.2500000 0.1000000 -0.1000000
v -0.3074050 0.1000000 -0.1114150
v -0.3074050 -0.0000000 -0.1114150
v -0.3074050 -0.0000000 -0.1114150
v -0.3074050 0.1000000 -0.1114150
v -0.3560650 0.1000000 -0.1439350
v -0.3560650 -0.0000000 -0.1439350
v -0.3560650 -0.0000000 -0.1439350
v -0.3560650 0.1000000 -0.1439350
v -0.3885850 0.1000000 -0.1925950
v -0.3885850 -0.0000000 -0.1925950
v -0.3885850 -0.0000000 -0.1925950
v -0.3885850 0.1000000 -0.1925950
v -0.4000000 0.1000000 -0.2500000
v -0.4000000 -0.0000000 -0.2500000
v -0.4000000 0.1000000 -0.2500000
v -0.3903625 0.1000000 -0.2984675
v -0.3903625 -0.0000000 -0.2984675
v -0.4000000 -0.0000000 -0.2500000
v -0.3903625 0.1000000 -0.2984675
v -0.3535500 0.1000000 -0.3535500
v -0.3535500 -0.0000000 -0.3535500
v -0.3903625 -0.0000000 -0.2984675
v -0.3535500 0.1000000 -0.3535500
v -0.2984675 0.1000000 -0.3903625
v -0.2984675 -0.0000000 -0.3903625
v -0.3535500 -0.0000000 -0.3535500
v -0.2984675 0.1000000 -0.3903625
v -0.2500000 0.1000000 -0.4000000
v -0.2500000 -0.0000000 -0.4000000
v -0.2984675 -0.0000000 -0.3903625
v -0.2500000 -0.0000000 -0.2500000
v -0.3500000 -0.0000000 -0.2500000
v -0.3423900 -0.0000000 -0.2117300
v -0.2500000 -0.0000000 -0.2500000
v -0.3423900 -0.0000000 -0.2117300
v -0.3207100 -0.0000000 -0.1792900
v -0.2500000 -0.0000000 -0.2500000
v -0.3207100 -0.0000000 -0.1792900
v -0.2882700 -0.0000000 -0.1576100
v -0.2500000 -0.0000000 -0.2500000
v -0.2882700 -0.0000000 -0.1576100
v -0.2500000 -0.0000000 -0.1500000
v -0.2500000 -0.0000000 -0.2500000
v -0.2500000 -0.0000000 -0.1500000
v -0.2117300 -0.0000000 -0.1576100
v -0.2500000 -0.0000000 -0.2500000
v -0.2117300 -0.0000000 -0.1576100
v -0.1792900 -0.0000000 -0.1792900
v -0.2500000 -0.0000000 -0.2500000
v -0.1792900 -0.0000000 -0.1792900
v -0.1576100 -0.0000000 -0.2117300
v -0.2500000 -0.0000000 -0.2500000
v -0.1576100 -0.0000000 -0.2117300
v -0.1500000 -0.0000000 -0.2500000
v -0.2500000 -0.0000000 -0.2500000
v -0.1500000 -0.0000000 -0.2500000
v -0.1576100 -0.0000000 -0.2882700
v -0.2500000 -0.0000000 -0.2500000
v -0.1576100 -0.0000000 -0.2882700
v -0.1792900 -0.0000000 -0.3207100
v -0.2500000 -0.0000000 -0.2500000
v -0.1792900 -0.0000000 -0.3207100
v -0.2117300 -0.0000000 -0.3423900
v -0.2500000 -0.0000000 -0.2500000
v -0.2117300 -0.0000000 -0.3423900
v -0.2500000 -0.0000000 -0.3500000
v -0.2500000 -0.0000000 -0.2500000
v -0.2500000 -0.0000000 -0.3500000
v -0.2882700 -0.0000000 -0.3423900
v -0.2500000 -0.0000000 -0.2500000
v -0.2882700 -0.0000000 -0.3423900
v -0.3207100 -0.0000000 -0.3207100
v -0.2500000 -0.0000000 -0.2500000
v -0.3207100 -0.0000000 -0.3207100
v -0.3423900 -0.0000000 -0.2882700
v -0.2500000 -0.0000000 -0.2500000
v -0.3423900 -0.0000000 -0.2882700
v -0.3500000 -0.0000000 -0.2500000
v -0.4388525 -0.0281250 0.1817825
v -0.4750240 -0.0281250 -0.0000000
v -0.5000253 -0.0281250 0.0000000
v -0.4619500 -0.0281250 0.1913500
v -0.4750240 -0.0281250 -0.0000000
v -0.4388510 -0.0281250 -0.1817742
v -0.4619484 -0.0281250 -0.1913413
v -0.5000253 -0.0281250 0.0000000
v -0.4388425 -0.0281250 0.1817750
v -0.4388425 -0.0000000 0.1817750
v -0.4750119 -0.0000000 -0.0000031
v -0.4750119 -0.0281250 -0.0000031
v -0.4750119 -0.0281250 -0.0000031
v -0.4750119 -0.0000000 -0.0000031
v -0.4388386 -0.0000000 -0.1817724
v -0.4388386 -0.0281250 -0.1817724
v -0.4388430 -0.0000000 -0.1817730
v -0.4750116 -0.0000000 0.0000051
v -0.4500110 -0.0000000 0.0000049
v -0.4157460 -0.0000000 -0.1722060
v -0.4750116 -0.0000000 0.0000051
v -0.4388376 -0.0000000 0.1817742
v -0.4157409 -0.0000000 0.1722071
v -0.4500110 -0.0000000 0.0000049
v -0.4157460 -0.0000000 -0.1722060
v -0.4500110 -0.0000000 0.0000049
v -0.4375107 -0.0000000 0.0000047
v -0.4041975 -0.0000000 -0.1674225
v -0.4500110 -0.0000000 0.0000049
v -0.4157409 -0.0000000 0.1722071
v -0.4041925 -0.0000000 0.1674236
v -0.4375107 -0.0000000 0.0000047
v -0.4041975 -0.0000000 -0.1674225
v -0.4375107 -0.0000000 0.0000047
v -0.4062599 -0.0000000 0.0000044
v -0.3753263 -0.0000000 -0.1554638
v -0.4375107 -0.0000000 0.0000047
v -0.4041925 -0.0000000 0.1674236
v -0.3753216 -0.0000000 0.1554648
v -0.4062599 -0.0000000 0.0000044
v -0.4062592 -0.0281250 -0.0000028
v -0.4062592 -0.0000000 -0.0000028
v -0.3753250 -0.0000000 0.1554650
v -0.3753250 -0.0281250 0.1554650
v -0.3753216 -0.0281250 -0.1554630
v -0.3753216 -0.0000000 -0.1554630
v -0.4062592 -0.0000000 -0.0000028
v -0.4062592 -0.0281250 -0.0000028
v -0.3984550 -0.0281250 -0.2422300
v -0.3984550 -0.0000000 -0.2422300
v -0.4000000 -0.0000000 -0.2500000
v -0.4000000 -0.0281250 -0.2500000
v -0.4388387 -0.0281250 -0.1817738
v -0.4388387 -0.0000000 -0.1817738
v -0.3984562 -0.0000000 -0.2422313
v -0.3984562 -0.0281250 -0.2422313
v -0.2984688 -0.0281250 -0.3903638
v -0.2984688 -0.0000000 -0.3903638
v -0.2500013 -0.0000000 -0.4000012
v -0.2500013 -0.0281250 -0.4000012
v -0.2422300 -0.0000000 -0.3984562
v -0.1817750 -0.0000000 -0.4388437
v -0.1817750 -0.0281250 -0.4388437
v -0.2422300 -0.0281250 -0.3984562
v -0.3903700 -0.0281250 -0.2984575
v -0.3903625 -0.0000000 -0.2984925
v -0.3535500 -0.0000000 -0.3535500
v -0.3535500 -0.0281250 -0.3535500
v -0.3535500 -0.0281250 -0.3535500
v -0.3535500 -0.0000000 -0.3535500
v -0.2984675 -0.0000000 -0.3903625
v -0.2984675 -0.0281250 -0.3903625
v -0.3903625 -0.0000000 -0.2984925
v -0.3903700 -0.0281250 -0.2984575
v -0.4000000 -0.0281250 -0.2500000
v -0.4000000 -0.0000000 -0.2500000
v -0.4388375 -0.0000000 -0.1817725
v -0.3753350 -0.0000000 -0.1554725
v -0.3695550 -0.0000000 -0.1641200
v -0.3885850 -0.0000000 -0.1925950
v -0.3885850 -0.0000000 -0.1925950
v -0.3984550 -0.0000000 -0.2422300
v -0.4388375 -0.0000000 -0.1817725
v -0.4000000 -0.0281250 -0.2500000
v -0.4619500 -0.0281250 -0.1913500
v -0.4388375 -0.0281250 -0.1817725
v -0.3984550 -0.0281250 -0.2422300
v -0.4000000 -0.0281250 -0.2500000
v -0.3903700 -0.0281250 -0.2984575
v -0.4619500 -0.0281250 -0.1913500
v -0.2422300 -0.0281250 -0.3984550
v -0.2500000 -0.0281250 -0.4000000
v -0.2500000 -0.0000000 -0.4000000
v -0.2422300 -0.0000000 -0.3984550
v -0.1817750 -0.0000000 -0.4388425
v -0.1925950 -0.0000000 -0.3885850
v -0.1641200 -0.0000000 -0.3695550
v -0.1554725 -0.0000000 -0.3753350
v -0.1925950 -0.0000000 -0.3885850
v -0.1817750 -0.0000000 -0.4388425
v -0.2422300 -0.0000000 -0.3984550
v -0.2422300 -0.0281250 -0.3984550
v -0.1817750 -0.0281250 -0.4388425
v -0.1913500 -0.0281250 -0.4619500
v -0.2500000 -0.0281250 -0.4000000
v -0.2500000 -0.0281250 -0.4000000
v -0.1913500 -0.0281250 -0.4619500
v -0.2984675 -0.0281250 -0.3903625
v -0.1439350 -0.0410625 -0.3560650
v -0.1641200 -0.0281250 -0.3695550
v -0.1641200 -0.0000000 -0.3695550
v -0.1439350 -0.0000000 -0.3560650
v -0.1641200 -0.0281250 -0.3695550
v -0.1554725 -0.0281250 -0.3753350
v -0.1554725 -0.0000000 -0.3753350
v -0.1641200 -0.0000000 -0.3695550
v -0.3753350 -0.0281250 -0.1554725
v -0.3695550 -0.0281250 -0.1641200
v -0.3695550 -0.0000000 -0.1641200
v -0.3753350 -0.0000000 -0.1554725
v -0.3560650 -0.0410625 -0.1439350
v -0.3560650 -0.0000000 -0.1439350
v -0.3695550 -0.0000000 -0.1641200
v -0.3695550 -0.0281250 -0.1641200
v -0.3560650 -0.0000000 -0.1439350
v -0.3560650 -0.0410625 -0.1439350
v -0.3074050 -0.0741400 -0.1114150
v -0.3074050 -0.0000000 -0.1114150
v -0.2500000 -0.0975200 -0.1000000
v -0.2500000 -0.0000000 -0.1000000
v -0.3074050 -0.0000000 -0.1114150
v -0.3074050 -0.0741400 -0.1114150
v -0.2789700 -0.0925000 -0.1057600
v -0.2500000 -0.0975200 -0.1000000
v -0.3074050 -0.0741400 -0.1114150
v -0.2500000 -0.0975200 -0.1000000
v -0.1925950 -0.1047700 -0.1114150
v -0.1925950 -0.0000000 -0.1114150
v -0.2500000 -0.0000000 -0.1000000
v -0.1925950 -0.1047700 -0.1114150
v -0.1439350 -0.1085750 -0.1439350
v -0.1439350 -0.0000000 -0.1439350
v -0.1925950 -0.0000000 -0.1114150
v -0.1439350 -0.1085750 -0.1439350
v -0.1114150 -0.1047700 -0.1925950
v -0.1114150 -0.0000000 -0.1925950
v -0.1439350 -0.0000000 -0.1439350
v -0.1114150 -0.1047700 -0.1925950
v -0.1000000 -0.0975200 -0.2500000
v -0.1000000 -0.0000000 -0.2500000
v -0.1114150 -0.0000000 -0.1925950
v -0.1000000 -0.0975200 -0.2500000
v -0.1114150 -0.0741400 -0.3074050
v -0.1114150 -0.0000000 -0.3074050
v -0.1000000 -0.0000000 -0.2500000
v -0.1057600 -0.0925000 -0.2789700
v -0.1114150 -0.0741400 -0.3074050
v -0.1000000 -0.0975200 -0.2500000
v -0.1114150 -0.0741400 -0.3074050
v -0.1439350 -0.0410625 -0.3560650
v -0.1439350 -0.0000000 -0.3560650
v -0.1114150 -0.0000000 -0.3074050
s off
f 1 2 3
f 1 3 4
f 5 6 7
f 5 7 8
f 9 10 11
f 9 11 12
f 13 14 15
f 13 15 16
f 17 18 19
f 17 19 20
f 21 22 23
f 21 23 24
f 25 26 27
f 25 27 28
f 29 30 31
f 29 31 32
f 33 34 35
f 33 35 36
f 37 38 39
f 37 39 40
f 41 42 43
f 41 43 44
f 45 46 47
f 45 47 48
f 49 50 51
f 49 51 52
f 53 54 55
f 53 55 56
f 57 58 59
f 57 59 60
f 61 62 63
f 61 63 64
f 65 66 67
f 65 67 68
f 69 70 71
f 69 71 72
f 73 74 75
f 73 75 76
f 77 78 79
f 77 79 80
f 81 82 83
f 81 83 84
f 85 86 87
f 85 87 88
f 89 90 91
f 89 91 92
f 93 94 95
f 93 95 96
f 97 98 99
f 97 99 100
f 101 102 103
f 101 103 104
f 105 106 107
f 105 107 108
f 109 110 111
f 109 111 112
f 113 114 115
f 113 115 116
f 117 118 119
f 117 119 120
f 121 122 123
f 121 123 124
f 125 126 127
f 125 127 128
f 129 130 131
f 132 133 134
f 135 136 137
f 138 139 140
f 141 142 143
f 144 145 146
f 147 148 149
f 150 151 152
f 153 154 155
f 156 157 158
f 159 160 161
f 162 163 164
f 165 166 167
f 168 169 170
f 171 172 173
f 174 175 176
f 177 178 179
f 177 179 180
f 181 182 183
f 181 183 184
f 185 186 187
f 185 187 188
f 189 190 191
f 189 191 192
f 193 194 195
f 193 195 196
f 197 198 199
f 197 199 200
f 201 202 203
f 201 203 204
f 205 206 207
f 205 207 208
f 209 210 211
f 209 211 212
f 213 214 215
f 213 215 216
f 217 218 219
f 217 219 220
f 221 222 223
f 221 223 224
f 225 226 227
f 225 227 228
f 229 230 231
f 229 231 232
f 233 234 235
f 233 235 236
f 237 238 239
f 237 239 240
f 241 242 243
f 241 243 244
f 245 246 247
f 245 247 248
f 249 250 251
f 249 251 252
f 253 254 255
f 253 255 256
f 257 258 259
f 257 259 260
f 261 262 263
f 261 263 264
f 265 266 267
f 265 267 268
f 269 270 271
f 269 271 272
f 273 274 275
f 273 275 276
f 277 278 279
f 277 279 280
f 281 282 283
f 281 283 284
f 285 286 287
f 285 287 288
f 289 290 291
f 289 291 292
f 293 294 295
f 293 295 296
f 297 298 299
f 297 299 300
f 301 302 303
f 301 303 304
f 305 306 307
f 305 307 308
f 309 310 311
f 309 311 312
f 313 314 315
f 313 315 316
f 317 318 319
f 317 319 320
f 321 322 323
f 321 323 324
f 325 326 327
f 325 327 328
f 329 330 331
f 329 331 332
f 333 334 335
f 333 335 336
f 337 338 339
f 337 339 340
f 341 342 343
f 341 343 344
f 345 346 347
f 345 347 348
f 349 350 351
f 349 351 352
f 353 354 355
f 353 355 356
f 357 358 359
f 357 359 360
f 361 362 363
f 361 363 364
f 365 366 367
f 365 367 368
f 369 370 371
f 369 371 372
f 373 374 375
f 373 375 376
f 377 378 379
f 377 379 380
f 381 382 383
f 381 383 384
f 385 386 387
f 385 387 388
f 389 390 391
f 389 391 392
f 393 394 395
f 393 395 396
f 397 398 399
f 397 399 400
f 401 402 403
f 401 403 404
f 405 406 407
f 405 407 408
f 409 410 411
f 409 411 412
f 413 414 415
f 413 415 416
f 417 418 419
f 417 419 420
f 421 422 423
f 421 423 424
f 425 426 427
f 425 427 428
f 429 430 431
f 429 431 432
f 433 434 435
f 436 437 438
f 439 440 441
f 442 443 444
f 445 446 447
f 448 449 450
f 451 452 453
f 454 455 456
f 457 458 459
f 460 461 462
f 463 464 465
f 466 467 468
f 469 470 471
f 472 473 474
f 475 476 477
f 478 479 480
f 481 482 483
f 484 485 486
f 487 488 489
f 490 491 492
f 493 494 495
f 493 495 496
f 497 498 499
f 497 499 500
f 501 502 503
f 501 503 504
f 505 506 507
f 505 507 508
f 509 510 511
f 509 511 512
f 513 514 515
f 513 515 516
f 517 518 519
f 517 519 520
f 521 522 523
f 521 523 524
f 525 526 527
f 525 527 528
f 529 530 531
f 529 531 532
f 533 534 535
f 533 535 536
f 537 538 539
f 537 539 540
f 541 542 543
f 541 543 544
f 545 546 547
f 545 547 548
f 549 550 551
f 549 551 552
f 553 554 555
f 553 555 556
f 557 558 559
f 557 559 560
f 561 562 563
f 561 563 564
f 565 566 567
f 565 567 568
f 569 570 571
f 569 571 572
f 573 574 575
f 573 575 576
f 577 578 579
f 577 579 580
f 581 582 583
f 581 583 584
f 585 586 587
f 585 587 588
f 589 590 591
f 589 591 592
f 593 594 595
f 593 595 596
f 597 598 599
f 597 599 600
f 601 602 603
f 601 603 604
f 605 606 607
f 605 607 608
f 609 610 611
f 612 613 614
f 612 614 615
f 616 617 618
f 619 620 621
f 619 621 622
f 623 624 625
f 626 627 628
f 626 628 629
f 630 631 632
f 633 634 635
f 633 635 636
f 637 638 639
f 637 639 640
f 641 642 643
f 641 643 644
f 645 646 647
f 645 647 648
f 649 650 651
f 649 651 652
f 653 654 655
f 653 655 656
f 657 658 659
f 657 659 660
f 661 662 663
f 661 663 664
f 665 666 667
f 665 667 668
f 669 670 671
f 669 671 672
f 673 674 675
f 673 675 676
f 677 678 679
f 677 679 680
f 681 682 683
f 681 683 684
f 685 686 687
f 685 687 688
f 689 690 691
f 689 691 692
f 693 694 695
f 693 695 696
f 697 698 699
f 700 701 702
f 703 704 705
f 706 707 708
f 709 710 711
f 712 713 714
f 715 716 717
f 718 719 720
f 721 722 723
f 724 725 726
f 727 728 729
f 730 731 732
f 733 734 735
f 736 737 738
f 739 740 741
f 742 743 744
f 745 746 747
f 745 747 748
f 749 750 751
f 749 751 752
f 753 754 755
f 753 755 756
f 757 758 759
f 757 759 760
f 761 762 763
f 761 763 764
f 765 766 767
f 765 767 768
f 769 770 771
f 769 771 772
f 773 774 775
f 773 775 776
f 777 778 779
f 777 779 780
f 781 782 783
f 781 783 784
f 785 786 787
f 785 787 788
f 789 790 791
f 789 791 792
f 793 794 795
f 793 795 796
f 797 798 799
f 797 799 800
f 801 802 803
f 801 803 804
f 805 806 807
f 805 807 808
f 809 810 811
f 809 811 812
f 813 814 815
f 813 815 816
f 817 818 819
f 817 819 820
f 821 822 823
f 821 823 824
f 825 826 827
f 828 829 830
f 828 830 831
f 832 833 834
f 835 836 837
f 835 837 838
f 839 840 841
f 839 841 842
f 843 844 845
f 846 847 848
f 846 848 849
f 850 851 852
f 853 854 855
f 853 855 856
f 857 858 859
f 857 859 860
f 861 862 863
f 861 863 864
f 865 866 867
f 865 867 868
f 869 870 871
f 869 871 872
f 873 874 875
f 873 875 876
f 877 878 879
f 880 881 882
f 880 882 883
f 884 885 886
f 884 886 887
f 888 889 890
f 888 890 891
f 892 893 894
f 892 894 895
f 896 897 898
f 896 898 899
f 900 901 902
f 903 904 905
f 903 905 906
f 907 908 909
f 910 911 912
f 913 914 915
f 916 917 918
f 919 920 921
f 919 921 922
f 923 924 925
f 923 925 926
f 927 928 929
f 927 929 930
f 931 932 933
f 931 933 934
f 935 936 937
f 935 937 938
f 939 940 941
f 939 941 942
f 943 944 945
f 943 945 946
f 947 948 949
f 947 949 950
f 951 952 953
f 951 953 954
f 955 956 957
f 955 957 958
f 959 960 961
f 959 961 962
f 963 964 965
f 963 965 966
f 967 968 969
f 967 969 970
f 971 972 973
f 971 973 974
f 975 976 977
f 975 977 978
f 979 980 981
f 979 981 982
f 983 984 985
f 983 985 986
f 987 988 989
f 987 989 990
f 991 992 993
f 991 993 994
f 995 996 997
f 995 997 998
f 999 1000 1001
f 999 1001 1002
f 1003 1004 1005
f 1003 1005 1006
f 1007 1008 1009
f 1007 1009 1010
f 1011 1012 1013
f 1011 1013 1014
f 1015 1016 1017
f 1015 1017 1018
f 1019 1020 1021
f 1019 1021 1022
f 1023 1024 1025
f 1023 1025 1026
f 1027 1028 1029
f 1027 1029 1030
f 1031 1032 1033
f 1031 1033 1034
f 1035 1036 1037
f 1038 1039 1040
f 1038 1040 1041
f 1042 1043 1044
f 1045 1046 1047
f 1045 1047 1048
f 1049 1050 1051
f 1052 1053 1054
f 1052 1054 1055
f 1056 1057 1058
f 1059 1060 1061
f 1059 1061 1062
f 1063 1064 1065
f 1063 1065 1066
f 1067 1068 1069
f 1067 1069 1070
f 1071 1072 1073
f 1071 1073 1074
f 1075 1076 1077
f 1075 1077 1078
f 1079 1080 1081
f 1079 1081 1082
f 1083 1084 1085
f 1083 1085 1086
f 1087 1088 1089
f 1087 1089 1090
f 1091 1092 1093
f 1091 1093 1094
f 1095 1096 1097
f 1095 1097 1098
f 1099 1100 1101
f 1099 1101 1102
f 1103 1104 1105
f 1103 1105 1106
f 1107 1108 1109
f 1107 1109 1110
f 1111 1112 1113
f 1111 1113 1114
f 1115 1116 1117
f 1115 1117 1118
f 1119 1120 1121
f 1119 1121 1122
f 1123 1124 1125
f 1126 1127 1128
f 1129 1130 1131
f 1132 1133 1134
f 1135 1136 1137
f 1138 1139 1140
f 1141 1142 1143
f 1144 1145 1146
f 1147 1148 1149
f 1150 1151 1152
f 1153 1154 1155
f 1156 1157 1158
f 1159 1160 1161
f 1162 1163 1164
f 1165 1166 1167
f 1168 1169 1170
f 1171 1172 1173
f 1171 1173 1174
f 1175 1176 1177
f 1175 1177 1178
f 1179 1180 1181
f 1179 1181 1182
f 1183 1184 1185
f 1183 1185 1186
f 1187 1188 1189
f 1187 1189 1190
f 1191 1192 1193
f 1191 1193 1194
f 1195 1196 1197
f 1195 1197 1198
f 1199 1200 1201
f 1199 1201 1202
f 1203 1204 1205
f 1203 1205 1206
f 1207 1208 1209
f 1207 1209 1210
f 1211 1212 1213
f 1211 1213 1214
f 1215 1216 1217
f 1215 1217 1218
f 1219 1220 1221
f 1219 1221 1222
f 1223 1224 1225
f 1223 1225 1226
f 1227 1228 1229
f 1227 1229 1230
f 1231 1232 1233
f 1231 1233 1234
f 1235 1236 1237
f 1235 1237 1238
f 1239 1240 1241
f 1239 1241 1242
f 1243 1244 1245
f 1243 1245 1246
f 1247 1248 1249
f 1247 1249 1250
f 1251 1252 1253
f 1254 1255 1256
f 1254 1256 1257
f 1258 1259 1260
f 1261 1262 1263
f 1261 1263 1264
f 1265 1266 1267
f 1265 1267 1268
f 1269 1270 1271
f 1272 1273 1274
f 1272 1274 1275
f 1276 1277 1278
f 1279 1280 1281
f 1279 1281 1282
f 1283 1284 1285
f 1283 1285 1286
f 1287 1288 1289
f 1287 1289 1290
f 1291 1292 1293
f 1291 1293 1294
f 1295 1296 1297
f 1295 1297 1298
f 1299 1300 1301
f 1299 1301 1302
f 1303 1304 1305
f 1306 1307 1308
f 1306 1308 1309
f 1310 1311 1312
f 1310 1312 1313
f 1314 1315 1316
f 1314 1316 1317
f 1318 1319 1320
f 1318 1320 1321
f 1322 1323 1324
f 1322 1324 1325
f 1326 1327 1328
f 1329 1330 1331
f 1329 1331 1332
f 1333 1334 1335
f 1336 1337 1338
f 1339 1340 1341
f 1342 1343 1344
f 1345 1346 1347
f 1345 1347 1348
f 1349 1350 1351
f 1349 1351 1352
f 1353 1354 1355
f 1353 1355 1356
f 1357 1358 1359
f 1357 1359 1360
f 1361 1362 1363
f 1361 1363 1364
f 1365 1366 1367
f 1365 1367 1368
f 1369 1370 1371
f 1369 1371 1372
f 1373 1374 1375
f 1373 1375 1376
f 1377 1378 1379
f 1377 1379 1380
f 1381 1382 1383
f 1381 1383 1384
f 1385 1386 1387
f 1385 1387 1388
f 1389 1390 1391
f 1389 1391 1392
f 1393 1394 1395
f 1393 1395 1396
f 1397 1398 1399
f 1397 1399 1400
f 1401 1402 1403
f 1401 1403 1404
f 1405 1406 1407
f 1405 1407 1408
f 1409 1410 1411
f 1409 1411 1412
f 1413 1414 1415
f 1413 1415 1416
f 1417 1418 1419
f 1417 1419 1420
f 1421 1422 1423
f 1421 1423 1424
f 1425 1426 1427
f 1425 1427 1428
f 1429 1430 1431
f 1429 1431 1432
f 1433 1434 1435
f 1433 1435 1436
f 1437 1438 1439
f 1437 1439 1440
f 1441 1442 1443
f 1441 1443 1444
f 1445 1446 1447
f 1445 1447 1448
f 1449 1450 1451
f 1449 1451 1452
f 1453 1454 1455
f 1453 1455 1456
f 1457 1458 1459
f 1457 1459 1460
f 1461 1462 1463
f 1464 1465 1466
f 1464 1466 1467
f 1468 1469 1470
f 1471 1472 1473
f 1471 1473 1474
f 1475 1476 1477
f 1478 1479 1480
f 1478 1480 1481
f 1482 1483 1484
f 1485 1486 1487
f 1485 1487 1488
f 1489 1490 1491
f 1489 1491 1492
f 1493 1494 1495
f 1493 1495 1496
f 1497 1498 1499
f 1497 1499 1500
f 1501 1502 1503
f 1501 1503 1504
f 1505 1506 1507
f 1505 1507 1508
f 1509 1510 1511
f 1509 1511 1512
f 1513 1514 1515
f 1513 1515 1516
f 1517 1518 1519
f 1517 1519 1520
f 1521 1522 1523
f 1521 1523 1524
f 1525 1526 1527
f 1525 1527 1528
f 1529 1530 1531
f 1529 1531 1532
f 1533 1534 1535
f 1533 1535 1536
f 1537 1538 1539
f 1537 1539 1540
f 1541 1542 1543
f 1541 1543 1544
f 1545 1546 1547
f 1545 1547 1548
f 1549 1550 1551
f 1552 1553 1554
f 1555 1556 1557
f 1558 1559 1560
f 1561 1562 1563
f 1564 1565 1566
f 1567 1568 1569
f 1570 1571 1572
f 1573 1574 1575
f 1576 1577 1578
f 1579 1580 1581
f 1582 1583 1584
f 1585 1586 1587
f 1588 1589 1590
f 1591 1592 1593
f 1594 1595 1596
f 1597 1598 1599
f 1597 1599 1600
f 1601 1602 1603
f 1601 1603 1604
f 1605 1606 1607
f 1605 1607 1608
f 1609 1610 1611
f 1609 1611 1612
f 1613 1614 1615
f 1613 1615 1616
f 1617 1618 1619
f 1617 1619 1620
f 1621 1622 1623
f 1621 1623 1624
f 1625 1626 1627
f 1625 1627 1628
f 1629 1630 1631
f 1629 1631 1632
f 1633 1634 1635
f 1633 1635 1636
f 1637 1638 1639
f 1637 1639 1640
f 1641 1642 1643
f 1641 1643 1644
f 1645 1646 1647
f 1645 1647 1648
f 1649 1650 1651
f 1649 1651 1652
f 1653 1654 1655
f 1653 1655 1656
f 1657 1658 1659
f 1657 1659 1660
f 1661 1662 1663
f 1661 1663 1664
f 1665 1666 1667
f 1665 1667 1668
f 1669 1670 1671
f 1669 1671 1672
f 1673 1674 1675
f 1673 1675 1676
f 1677 1678 1679
f 1680 1681 1682
f 1680 1682 1683
f 1684 1685 1686
f 1687 1688 1689
f 1687 1689 1690
f 1691 1692 1693
f 1691 1693 1694
f 1695 1696 1697
f 1698 1699 1700
f 1698 1700 1701
f 1702 1703 1704
f 1705 1706 1707
f 1705 1707 1708
f 1709 1710 1711
f 1709 1711 1712
f 1713 1714 1715
f 1713 1715 1716
f 1717 1718 1719
f 1717 1719 1720
f 1721 1722 1723
f 1721 1723 1724
f 1725 1726 1727
f 1725 1727 1728
f 1729 1730 1731
f 1732 1733 1734
f 1732 1734 1735
f 1736 1737 1738
f 1736 1738 1739
f 1740 1741 1742
f 1740 1742 1743
f 1744 1745 1746
f 1744 1746 1747
f 1748 1749 1750
f 1748 1750 1751
f 1752 1753 1754
f 1755 1756 1757
f 1755 1757 1758
f 1759 1760 1761
f 1762 1763 1764
f 1765 1766 1767
f 1768 1769 1770
f 1771 1772 1773
f 1771 1773 1774
f 1775 1776 1777
f 1775 1777 1778
f 1779 1780 1781
f 1779 1781 1782
f 1783 1784 1785
f 1783 1785 1786
f 1787 1788 1789
f 1787 1789 1790
f 1791 1792 1793
f 1791 1793 1794
f 1795 1796 1797
f 1795 1797 1798
f 1799 1800 1801
f 1799 1801 1802
f 1803 1804 1805
f 1803 1805 1806
f 1807 1808 1809
f 1807 1809 1810
f 1811 1812 1813
f 1811 1813 1814
f 1815 1816 1817
f 1815 1817 1818
f 1819 1820 1821
f 1819 1821 1822
f 1823 1824 1825
f 1823 1825 1826
f 1827 1828 1829
f 1827 1829 1830
f 1831 1832 1833
f 1831 1833 1834
f 1835 1836 1837
f 1835 1837 1838
f 1839 1840 1841
f 1839 1841 1842
f 1843 1844 1845
f 1843 1845 1846
f 1847 1848 1849
f 1847 1849 1850
f 1851 1852 1853
f 1851 1853 1854
f 1855 1856 1857
f 1855 1857 1858
f 1859 1860 1861
f 1859 1861 1862
f 1863 1864 1865
f 1863 1865 1866
f 1867 1868 1869
f 1867 1869 1870
f 1871 1872 1873
f 1871 1873 1874
f 1875 1876 1877
f 1875 1877 1878
f 1879 1880 1881
f 1879 1881 1882
f 1883 1884 1885
f 1883 1885 1886
f 1887 1888 1889
f 1890 1891 1892
f 1890 1892 1893
f 1894 1895 1896
f 1897 1898 1899
f 1897 1899 1900
f 1901 1902 1903
f 1904 1905 1906
f 1904 1906 1907
f 1908 1909 1910
f 1911 1912 1913
f 1911 1913 1914
f 1915 1916 1917
f 1915 1917 1918
f 1919 1920 1921
f 1919 1921 1922
f 1923 1924 1925
f 1923 1925 1926
f 1927 1928 1929
f 1927 1929 1930
f 1931 1932 1933
f 1931 1933 1934
f 1935 1936 1937
f 1935 1937 1938
f 1939 1940 1941
f 1939 1941 1942
f 1943 1944 1945
f 1943 1945 1946
f 1947 1948 1949
f 1947 1949 1950
f 1951 1952 1953
f 1951 1953 1954
f 1955 1956 1957
f 1955 1957 1958
f 1959 1960 1961
f 1959 1961 1962
f 1963 1964 1965
f 1963 1965 1966
f 1967 1968 1969
f 1967 1969 1970
f 1971 1972 1973
f 1971 1973 1974
f 1975 1976 1977
f 1978 1979 1980
f 1981 1982 1983
f 1984 1985 1986
f 1987 1988 1989
f 1990 1991 1992
f 1993 1994 1995
f 1996 1997 1998
f 1999 2000 2001
f 2002 2003 2004
f 2005 2006 2007
f 2008 2009 2010
f 2011 2012 2013
f 2014 2015 2016
f 2017 2018 2019
f 2020 2021 2022
f 2023 2024 2025
f 2023 2025 2026
f 2027 2028 2029
f 2027 2029 2030
f 2031 2032 2033
f 2031 2033 2034
f 2035 2036 2037
f 2035 2037 2038
f 2039 2040 2041
f 2039 2041 2042
f 2043 2044 2045
f 2043 2045 2046
f 2047 2048 2049
f 2047 2049 2050
f 2051 2052 2053
f 2051 2053 2054
f 2055 2056 2057
f 2055 2057 2058
f 2059 2060 2061
f 2059 2061 2062
f 2063 2064 2065
f 2063 2065 2066
f 2067 2068 2069
f 2067 2069 2070
f 2071 2072 2073
f 2071 2073 2074
f 2075 2076 2077
f 2075 2077 2078
f 2079 2080 2081
f 2079 2081 2082
f 2083 2084 2085
f 2083 2085 2086
f 2087 2088 2089
f 2087 2089 2090
f 2091 2092 2093
f 2091 2093 2094
f 2095 2096 2097
f 2095 2097 2098
f 2099 2100 2101
f 2099 2101 2102
f 2103 2104 2105
f 2106 2107 2108
f 2106 2108 2109
f 2110 2111 2112
f 2113 2114 2115
f 2113 2115 2116
f 2117 2118 2119
f 2117 2119 2120
f 2121 2122 2123
f 2124 2125 2126
f 2124 2126 2127
f 2128 2129 2130
f 2131 2132 2133
f 2131 2133 2134
f 2135 2136 2137
f 2135 2137 2138
f 2139 2140 2141
f 2139 2141 2142
f 2143 2144 2145
f 2143 2145 2146
f 2147 2148 2149
f 2147 2149 2150
f 2151 2152 2153
f 2151 2153 2154
f 2155 2156 2157
f 2158 2159 2160
f 2158 2160 2161
f 2162 2163 2164
f 2162 2164 2165
f 2166 2167 2168
f 2166 2168 2169
f 2170 2171 2172
f 2170 2172 2173
f 2174 2175 2176
f 2174 2176 2177
f 2178 2179 2180
f 2181 2182 2183
f 2181 2183 2184
