# Baked from official LDraw part 2921.dat
o ldraw_2921
v 0.0923900 -0.6000000 -0.5382700
v 0.1000000 -0.6000000 -0.5000000
v 0.0000000 -0.6000000 -0.5000000
v 0.0707100 -0.6000000 -0.5707100
v 0.0923900 -0.6000000 -0.5382700
v 0.0000000 -0.6000000 -0.5000000
v 0.0382700 -0.6000000 -0.5923900
v 0.0707100 -0.6000000 -0.5707100
v 0.0000000 -0.6000000 -0.5000000
v 0.0000000 -0.6000000 -0.6000000
v 0.0382700 -0.6000000 -0.5923900
v 0.0000000 -0.6000000 -0.5000000
v -0.0382700 -0.6000000 -0.5923900
v 0.0000000 -0.6000000 -0.6000000
v 0.0000000 -0.6000000 -0.5000000
v -0.0707100 -0.6000000 -0.5707100
v -0.0382700 -0.6000000 -0.5923900
v 0.0000000 -0.6000000 -0.5000000
v -0.0923900 -0.6000000 -0.5382700
v -0.0707100 -0.6000000 -0.5707100
v 0.0000000 -0.6000000 -0.5000000
v -0.1000000 -0.6000000 -0.5000000
v -0.0923900 -0.6000000 -0.5382700
v 0.0000000 -0.6000000 -0.5000000
v -0.0923900 -0.6000000 -0.4617300
v -0.1000000 -0.6000000 -0.5000000
v 0.0000000 -0.6000000 -0.5000000
v -0.0707100 -0.6000000 -0.4292900
v -0.0923900 -0.6000000 -0.4617300
v 0.0000000 -0.6000000 -0.5000000
v -0.0382700 -0.6000000 -0.4076100
v -0.0707100 -0.6000000 -0.4292900
v 0.0000000 -0.6000000 -0.5000000
v 0.0000000 -0.6000000 -0.4000000
v -0.0382700 -0.6000000 -0.4076100
v 0.0000000 -0.6000000 -0.5000000
v 0.0382700 -0.6000000 -0.4076100
v 0.0000000 -0.6000000 -0.4000000
v 0.0000000 -0.6000000 -0.5000000
v 0.0707100 -0.6000000 -0.4292900
v 0.0382700 -0.6000000 -0.4076100
v 0.0000000 -0.6000000 -0.5000000
v 0.0923900 -0.6000000 -0.4617300
v 0.0707100 -0.6000000 -0.4292900
v 0.0000000 -0.6000000 -0.5000000
v 0.1000000 -0.6000000 -0.5000000
v 0.0923900 -0.6000000 -0.4617300
v 0.0000000 -0.6000000 -0.5000000
v -0.1000000 -0.4000000 -0.4000000
v -0.1000000 -0.4000000 -0.5000000
v -0.0923900 -0.4000000 -0.4617300
v -0.1000000 -0.4000000 -0.4000000
v -0.0923900 -0.4000000 -0.4617300
v -0.0707100 -0.4000000 -0.4292900
v -0.1000000 -0.4000000 -0.4000000
v -0.0707100 -0.4000000 -0.4292900
v -0.0382700 -0.4000000 -0.4076100
v -0.1000000 -0.4000000 -0.4000000
v -0.0382700 -0.4000000 -0.4076100
v 0.0000000 -0.4000000 -0.4000000
v 0.1000000 -0.4000000 -0.4000000
v 0.0000000 -0.4000000 -0.4000000
v 0.0382700 -0.4000000 -0.4076100
v 0.1000000 -0.4000000 -0.4000000
v 0.0382700 -0.4000000 -0.4076100
v 0.0707100 -0.4000000 -0.4292900
v 0.1000000 -0.4000000 -0.4000000
v 0.0707100 -0.4000000 -0.4292900
v 0.0923900 -0.4000000 -0.4617300
v 0.1000000 -0.4000000 -0.4000000
v 0.0923900 -0.4000000 -0.4617300
v 0.1000000 -0.4000000 -0.5000000
v 0.1000000 -0.2000000 -0.4000000
v 0.1000000 -0.2000000 -0.5000000
v 0.0923900 -0.2000000 -0.4617300
v 0.1000000 -0.2000000 -0.4000000
v 0.0923900 -0.2000000 -0.4617300
v 0.0707100 -0.2000000 -0.4292900
v 0.1000000 -0.2000000 -0.4000000
v 0.0707100 -0.2000000 -0.4292900
v 0.0382700 -0.2000000 -0.4076100
v 0.1000000 -0.2000000 -0.4000000
v 0.0382700 -0.2000000 -0.4076100
v 0.0000000 -0.2000000 -0.4000000
v -0.1000000 -0.2000000 -0.4000000
v 0.0000000 -0.2000000 -0.4000000
v -0.0382700 -0.2000000 -0.4076100
v -0.1000000 -0.2000000 -0.4000000
v -0.0382700 -0.2000000 -0.4076100
v -0.0707100 -0.2000000 -0.4292900
v -0.1000000 -0.2000000 -0.4000000
v -0.0707100 -0.2000000 -0.4292900
v -0.0923900 -0.2000000 -0.4617300
v -0.1000000 -0.2000000 -0.4000000
v -0.0923900 -0.2000000 -0.4617300
v -0.1000000 -0.2000000 -0.5000000
v 0.0923900 -0.0000000 -0.4617300
v 0.1000000 -0.0000000 -0.5000000
v 0.0000000 -0.0000000 -0.5000000
v 0.0707100 -0.0000000 -0.4292900
v 0.0923900 -0.0000000 -0.4617300
v 0.0000000 -0.0000000 -0.5000000
v 0.0382700 -0.0000000 -0.4076100
v 0.0707100 -0.0000000 -0.4292900
v 0.0000000 -0.0000000 -0.5000000
v 0.0000000 -0.0000000 -0.4000000
v 0.0382700 -0.0000000 -0.4076100
v 0.0000000 -0.0000000 -0.5000000
v -0.0382700 -0.0000000 -0.4076100
v 0.0000000 -0.0000000 -0.4000000
v 0.0000000 -0.0000000 -0.5000000
v -0.0707100 -0.0000000 -0.4292900
v -0.0382700 -0.0000000 -0.4076100
v 0.0000000 -0.0000000 -0.5000000
v -0.0923900 -0.0000000 -0.4617300
v -0.0707100 -0.0000000 -0.4292900
v 0.0000000 -0.0000000 -0.5000000
v -0.1000000 -0.0000000 -0.5000000
v -0.0923900 -0.0000000 -0.4617300
v 0.0000000 -0.0000000 -0.5000000
v -0.0923900 -0.0000000 -0.5382700
v -0.1000000 -0.0000000 -0.5000000
v 0.0000000 -0.0000000 -0.5000000
v -0.0707100 -0.0000000 -0.5707100
v -0.0923900 -0.0000000 -0.5382700
v 0.0000000 -0.0000000 -0.5000000
v -0.0382700 -0.0000000 -0.5923900
v -0.0707100 -0.0000000 -0.5707100
v 0.0000000 -0.0000000 -0.5000000
v 0.0000000 -0.0000000 -0.6000000
v -0.0382700 -0.0000000 -0.5923900
v 0.0000000 -0.0000000 -0.5000000
v 0.0382700 -0.0000000 -0.5923900
v 0.0000000 -0.0000000 -0.6000000
v 0.0000000 -0.0000000 -0.5000000
v 0.0707100 -0.0000000 -0.5707100
v 0.0382700 -0.0000000 -0.5923900
v 0.0000000 -0.0000000 -0.5000000
v 0.0923900 -0.0000000 -0.5382700
v 0.0707100 -0.0000000 -0.5707100
v 0.0000000 -0.0000000 -0.5000000
v 0.1000000 -0.0000000 -0.5000000
v 0.0923900 -0.0000000 -0.5382700
v 0.0000000 -0.0000000 -0.5000000
v 0.1000000 -0.2000000 -0.4000000
v -0.1000000 -0.2000000 -0.4000000
v -0.1000000 -0.2000000 -0.2500000
v 0.1000000 -0.2000000 -0.2500000
v -0.1000000 -0.4000000 -0.2500000
v -0.1000000 -0.4000000 -0.4000000
v 0.1000000 -0.4000000 -0.4000000
v 0.1000000 -0.4000000 -0.2500000
v 0.1000000 -0.4000000 -0.2500000
v 0.1000000 -0.4000000 -0.5000000
v 0.1000000 -0.2000000 -0.5000000
v 0.1000000 -0.2000000 -0.2500000
v -0.1000000 -0.2000000 -0.5000000
v -0.1000000 -0.4000000 -0.5000000
v -0.1000000 -0.4000000 -0.2500000
v -0.1000000 -0.2000000 -0.2500000
v 0.1000000 -0.6000000 -0.5000000
v 0.1000000 -0.4000000 -0.5000000
v 0.0923900 -0.4000000 -0.4617300
v 0.0923900 -0.6000000 -0.4617300
v 0.0923900 -0.6000000 -0.4617300
v 0.0923900 -0.4000000 -0.4617300
v 0.0707100 -0.4000000 -0.4292900
v 0.0707100 -0.6000000 -0.4292900
v 0.0707100 -0.6000000 -0.4292900
v 0.0707100 -0.4000000 -0.4292900
v 0.0382700 -0.4000000 -0.4076100
v 0.0382700 -0.6000000 -0.4076100
v 0.0382700 -0.6000000 -0.4076100
v 0.0382700 -0.4000000 -0.4076100
v 0.0000000 -0.4000000 -0.4000000
v 0.0000000 -0.6000000 -0.4000000
v 0.0000000 -0.6000000 -0.4000000
v 0.0000000 -0.4000000 -0.4000000
v -0.0382700 -0.4000000 -0.4076100
v -0.0382700 -0.6000000 -0.4076100
v -0.0382700 -0.6000000 -0.4076100
v -0.0382700 -0.4000000 -0.4076100
v -0.0707100 -0.4000000 -0.4292900
v -0.0707100 -0.6000000 -0.4292900
v -0.0707100 -0.6000000 -0.4292900
v -0.0707100 -0.4000000 -0.4292900
v -0.0923900 -0.4000000 -0.4617300
v -0.0923900 -0.6000000 -0.4617300
v -0.0923900 -0.6000000 -0.4617300
v -0.0923900 -0.4000000 -0.4617300
v -0.1000000 -0.4000000 -0.5000000
v -0.1000000 -0.6000000 -0.5000000
v 0.1000000 -0.2000000 -0.5000000
v 0.1000000 -0.0000000 -0.5000000
v 0.0923900 -0.0000000 -0.4617300
v 0.0923900 -0.2000000 -0.4617300
v 0.0923900 -0.2000000 -0.4617300
v 0.0923900 -0.0000000 -0.4617300
v 0.0707100 -0.0000000 -0.4292900
v 0.0707100 -0.2000000 -0.4292900
v 0.0707100 -0.2000000 -0.4292900
v 0.0707100 -0.0000000 -0.4292900
v 0.0382700 -0.0000000 -0.4076100
v 0.0382700 -0.2000000 -0.4076100
v 0.0382700 -0.2000000 -0.4076100
v 0.0382700 -0.0000000 -0.4076100
v 0.0000000 -0.0000000 -0.4000000
v 0.0000000 -0.2000000 -0.4000000
v 0.0000000 -0.2000000 -0.4000000
v 0.0000000 -0.0000000 -0.4000000
v -0.0382700 -0.0000000 -0.4076100
v -0.0382700 -0.2000000 -0.4076100
v -0.0382700 -0.2000000 -0.4076100
v -0.0382700 -0.0000000 -0.4076100
v -0.0707100 -0.0000000 -0.4292900
v -0.0707100 -0.2000000 -0.4292900
v -0.0707100 -0.2000000 -0.4292900
v -0.0707100 -0.0000000 -0.4292900
v -0.0923900 -0.0000000 -0.4617300
v -0.0923900 -0.2000000 -0.4617300
v -0.0923900 -0.2000000 -0.4617300
v -0.0923900 -0.0000000 -0.4617300
v -0.1000000 -0.0000000 -0.5000000
v -0.1000000 -0.2000000 -0.5000000
v 0.0923900 -0.6000000 -0.5382700
v 0.0923900 -0.0000000 -0.5382700
v 0.1000000 -0.0000000 -0.5000000
v 0.1000000 -0.6000000 -0.5000000
v 0.0707100 -0.6000000 -0.5707100
v 0.0707100 -0.0000000 -0.5707100
v 0.0923900 -0.0000000 -0.5382700
v 0.0923900 -0.6000000 -0.5382700
v 0.0382700 -0.6000000 -0.5923900
v 0.0382700 -0.0000000 -0.5923900
v 0.0707100 -0.0000000 -0.5707100
v 0.0707100 -0.6000000 -0.5707100
v 0.0000000 -0.6000000 -0.6000000
v 0.0000000 -0.0000000 -0.6000000
v 0.0382700 -0.0000000 -0.5923900
v 0.0382700 -0.6000000 -0.5923900
v -0.0382700 -0.6000000 -0.5923900
v -0.0382700 -0.0000000 -0.5923900
v 0.0000000 -0.0000000 -0.6000000
v 0.0000000 -0.6000000 -0.6000000
v -0.0707100 -0.6000000 -0.5707100
v -0.0707100 -0.0000000 -0.5707100
v -0.0382700 -0.0000000 -0.5923900
v -0.0382700 -0.6000000 -0.5923900
v -0.0923900 -0.6000000 -0.5382700
v -0.0923900 -0.0000000 -0.5382700
v -0.0707100 -0.0000000 -0.5707100
v -0.0707100 -0.6000000 -0.5707100
v -0.1000000 -0.6000000 -0.5000000
v -0.1000000 -0.0000000 -0.5000000
v -0.0923900 -0.0000000 -0.5382700
v -0.0923900 -0.6000000 -0.5382700
v 0.0000000 0.1000000 -0.1500000
v 0.0574050 0.1000000 -0.1385850
v 0.0574050 -0.0000000 -0.1385850
v 0.0000000 -0.0000000 -0.1500000
v 0.0574050 0.1000000 -0.1385850
v 0.1060650 0.1000000 -0.1060650
v 0.1060650 -0.0000000 -0.1060650
v 0.0574050 -0.0000000 -0.1385850
v 0.1060650 0.1000000 -0.1060650
v 0.1385850 0.1000000 -0.0574050
v 0.1385850 -0.0000000 -0.0574050
v 0.1060650 -0.0000000 -0.1060650
v 0.1385850 0.1000000 -0.0574050
v 0.1500000 0.1000000 0.0000000
v 0.1500000 -0.0000000 0.0000000
v 0.1385850 -0.0000000 -0.0574050
v 0.1500000 0.1000000 0.0000000
v 0.1385850 0.1000000 0.0574050
v 0.1385850 -0.0000000 0.0574050
v 0.1500000 -0.0000000 0.0000000
v 0.1385850 0.1000000 0.0574050
v 0.1060650 0.1000000 0.1060650
v 0.1060650 -0.0000000 0.1060650
v 0.1385850 -0.0000000 0.0574050
v 0.1060650 0.1000000 0.1060650
v 0.0574050 0.1000000 0.1385850
v 0.0574050 -0.0000000 0.1385850
v 0.1060650 -0.0000000 0.1060650
v 0.0574050 0.1000000 0.1385850
v 0.0000000 0.1000000 0.1500000
v 0.0000000 -0.0000000 0.1500000
v 0.0574050 -0.0000000 0.1385850
v 0.0000000 0.1000000 0.1500000
v -0.0574050 0.1000000 0.1385850
v -0.0574050 -0.0000000 0.1385850
v 0.0000000 -0.0000000 0.1500000
v -0.0574050 0.1000000 0.1385850
v -0.1060650 0.1000000 0.1060650
v -0.1060650 -0.0000000 0.1060650
v -0.0574050 -0.0000000 0.1385850
v -0.1060650 0.1000000 0.1060650
v -0.1385850 0.1000000 0.0574050
v -0.1385850 -0.0000000 0.0574050
v -0.1060650 -0.0000000 0.1060650
v -0.1385850 0.1000000 0.0574050
v -0.1500000 0.1000000 0.0000000
v -0.1500000 -0.0000000 0.0000000
v -0.1385850 -0.0000000 0.0574050
v -0.1500000 0.1000000 0.0000000
v -0.1385850 0.1000000 -0.0574050
v -0.1385850 -0.0000000 -0.0574050
v -0.1500000 -0.0000000 0.0000000
v -0.1385850 0.1000000 -0.0574050
v -0.1060650 0.1000000 -0.1060650
v -0.1060650 -0.0000000 -0.1060650
v -0.1385850 -0.0000000 -0.0574050
v -0.1060650 0.1000000 -0.1060650
v -0.0574050 0.1000000 -0.1385850
v -0.0574050 -0.0000000 -0.1385850
v -0.1060650 -0.0000000 -0.1060650
v -0.0574050 0.1000000 -0.1385850
v 0.0000000 0.1000000 -0.1500000
v 0.0000000 -0.0000000 -0.1500000
v -0.0574050 -0.0000000 -0.1385850
v 0.0574050 0.1000000 -0.1385850
v 0.0000000 0.1000000 -0.1500000
v 0.0000000 0.1000000 0.0000000
v 0.1060650 0.1000000 -0.1060650
v 0.0574050 0.1000000 -0.1385850
v 0.0000000 0.1000000 0.0000000
v 0.1385850 0.1000000 -0.0574050
v 0.1060650 0.1000000 -0.1060650
v 0.0000000 0.1000000 0.0000000
v 0.1500000 0.1000000 0.0000000
v 0.1385850 0.1000000 -0.0574050
v 0.0000000 0.1000000 0.0000000
v 0.1385850 0.1000000 0.0574050
v 0.1500000 0.1000000 0.0000000
v 0.0000000 0.1000000 0.0000000
v 0.1060650 0.1000000 0.1060650
v 0.1385850 0.1000000 0.0574050
v 0.0000000 0.1000000 0.0000000
v 0.0574050 0.1000000 0.1385850
v 0.1060650 0.1000000 0.1060650
v 0.0000000 0.1000000 0.0000000
v 0.0000000 0.1000000 0.1500000
v 0.0574050 0.1000000 0.1385850
v 0.0000000 0.1000000 0.0000000
v -0.0574050 0.1000000 0.1385850
v 0.0000000 0.1000000 0.1500000
v 0.0000000 0.1000000 0.0000000
v -0.1060650 0.1000000 0.1060650
v -0.0574050 0.1000000 0.1385850
v 0.0000000 0.1000000 0.0000000
v -0.1385850 0.1000000 0.0574050
v -0.1060650 0.1000000 0.1060650
v 0.0000000 0.1000000 0.0000000
v -0.1500000 0.1000000 0.0000000
v -0.1385850 0.1000000 0.0574050
v 0.0000000 0.1000000 0.0000000
v -0.1385850 0.1000000 -0.0574050
v -0.1500000 0.1000000 0.0000000
v 0.0000000 0.1000000 0.0000000
v -0.1060650 0.1000000 -0.1060650
v -0.1385850 0.1000000 -0.0574050
v 0.0000000 0.1000000 0.0000000
v -0.0574050 0.1000000 -0.1385850
v -0.1060650 0.1000000 -0.1060650
v 0.0000000 0.1000000 0.0000000
v 0.0000000 0.1000000 -0.1500000
v -0.0574050 0.1000000 -0.1385850
v 0.0000000 0.1000000 0.0000000
v 0.2500000 -0.0000000 0.2500000
v 0.2500000 -0.0000000 -0.2500000
v -0.2500000 -0.0000000 -0.2500000
v -0.2500000 -0.0000000 0.2500000
v -0.2500000 -0.6000000 0.2500000
v 0.2500000 -0.6000000 0.2500000
v 0.2500000 -0.0000000 0.2500000
v -0.2500000 -0.0000000 0.2500000
v 0.2500000 -0.6000000 0.2500000
v 0.2500000 -0.6000000 -0.2500000
v 0.2500000 -0.0000000 -0.2500000
v 0.2500000 -0.0000000 0.2500000
v -0.2500000 -0.6000000 -0.2500000
v -0.2500000 -0.6000000 0.2500000
v -0.2500000 -0.0000000 0.2500000
v -0.2500000 -0.0000000 -0.2500000
v 0.1500000 -0.1000000 0.1500000
v -0.1500000 -0.1000000 0.1500000
v -0.1500000 -0.1000000 -0.1500000
v 0.1500000 -0.1000000 -0.1500000
v 0.1500000 -0.1000000 0.1500000
v 0.1500000 -0.6000000 0.1500000
v -0.1500000 -0.6000000 0.1500000
v -0.1500000 -0.1000000 0.1500000
v 0.1500000 -0.1000000 -0.1500000
v 0.1500000 -0.6000000 -0.1500000
v 0.1500000 -0.6000000 0.1500000
v 0.1500000 -0.1000000 0.1500000
v -0.1500000 -0.1000000 -0.1500000
v -0.1500000 -0.6000000 -0.1500000
v 0.1500000 -0.6000000 -0.1500000
v 0.1500000 -0.1000000 -0.1500000
v -0.1500000 -0.1000000 0.1500000
v -0.1500000 -0.6000000 0.1500000
v -0.1500000 -0.6000000 -0.1500000
v -0.1500000 -0.1000000 -0.1500000
v -0.2500000 -0.6000000 -0.2500000
v 0.2500000 -0.6000000 -0.2500000
v 0.1500000 -0.6000000 -0.1500000
v -0.1500000 -0.6000000 -0.1500000
v 0.2500000 -0.6000000 0.2500000
v 0.1500000 -0.6000000 0.1500000
v 0.1500000 -0.6000000 -0.1500000
v 0.2500000 -0.6000000 -0.2500000
v 0.2500000 -0.6000000 0.2500000
v -0.2500000 -0.6000000 0.2500000
v -0.1500000 -0.6000000 0.1500000
v 0.1500000 -0.6000000 0.1500000
v -0.2500000 -0.6000000 -0.2500000
v -0.1500000 -0.6000000 -0.1500000
v -0.1500000 -0.6000000 0.1500000
v -0.2500000 -0.6000000 0.2500000
v -0.1000000 -0.2000000 -0.2500000
v -0.2500000 -0.0000000 -0.2500000
v 0.2500000 -0.0000000 -0.2500000
v 0.1000000 -0.2000000 -0.2500000
v -0.1000000 -0.4000000 -0.2500000
v -0.2500000 -0.6000000 -0.2500000
v -0.2500000 -0.0000000 -0.2500000
v -0.1000000 -0.2000000 -0.2500000
v 0.2500000 -0.6000000 -0.2500000
v 0.1000000 -0.4000000 -0.2500000
v 0.1000000 -0.2000000 -0.2500000
v 0.2500000 -0.0000000 -0.2500000
v -0.2500000 -0.6000000 -0.2500000
v -0.1000000 -0.4000000 -0.2500000
v 0.1000000 -0.4000000 -0.2500000
v 0.2500000 -0.6000000 -0.2500000
s off
f 1 2 3
f 4 5 6
f 7 8 9
f 10 11 12
f 13 14 15
f 16 17 18
f 19 20 21
f 22 23 24
f 25 26 27
f 28 29 30
f 31 32 33
f 34 35 36
f 37 38 39
f 40 41 42
f 43 44 45
f 46 47 48
f 49 50 51
f 52 53 54
f 55 56 57
f 58 59 60
f 61 62 63
f 64 65 66
f 67 68 69
f 70 71 72
f 73 74 75
f 76 77 78
f 79 80 81
f 82 83 84
f 85 86 87
f 88 89 90
f 91 92 93
f 94 95 96
f 97 98 99
f 100 101 102
f 103 104 105
f 106 107 108
f 109 110 111
f 112 113 114
f 115 116 117
f 118 119 120
f 121 122 123
f 124 125 126
f 127 128 129
f 130 131 132
f 133 134 135
f 136 137 138
f 139 140 141
f 142 143 144
f 145 146 147
f 145 147 148
f 149 150 151
f 149 151 152
f 153 154 155
f 153 155 156
f 157 158 159
f 157 159 160
f 161 162 163
f 161 163 164
f 165 166 167
f 165 167 168
f 169 170 171
f 169 171 172
f 173 174 175
f 173 175 176
f 177 178 179
f 177 179 180
f 181 182 183
f 181 183 184
f 185 186 187
f 185 187 188
f 189 190 191
f 189 191 192
f 193 194 195
f 193 195 196
f 197 198 199
f 197 199 200
f 201 202 203
f 201 203 204
f 205 206 207
f 205 207 208
f 209 210 211
f 209 211 212
f 213 214 215
f 213 215 216
f 217 218 219
f 217 219 220
f 221 222 223
f 221 223 224
f 225 226 227
f 225 227 228
f 229 230 231
f 229 231 232
f 233 234 235
f 233 235 236
f 237 238 239
f 237 239 240
f 241 242 243
f 241 243 244
f 245 246 247
f 245 247 248
f 249 250 251
f 249 251 252
f 253 254 255
f 253 255 256
f 257 258 259
f 257 259 260
f 261 262 263
f 261 263 264
f 265 266 267
f 265 267 268
f 269 270 271
f 269 271 272
f 273 274 275
f 273 275 276
f 277 278 279
f 277 279 280
f 281 282 283
f 281 283 284
f 285 286 287
f 285 287 288
f 289 290 291
f 289 291 292
f 293 294 295
f 293 295 296
f 297 298 299
f 297 299 300
f 301 302 303
f 301 303 304
f 305 306 307
f 305 307 308
f 309 310 311
f 309 311 312
f 313 314 315
f 313 315 316
f 317 318 319
f 317 319 320
f 321 322 323
f 324 325 326
f 327 328 329
f 330 331 332
f 333 334 335
f 336 337 338
f 339 340 341
f 342 343 344
f 345 346 347
f 348 349 350
f 351 352 353
f 354 355 356
f 357 358 359
f 360 361 362
f 363 364 365
f 366 367 368
f 369 370 371
f 369 371 372
f 373 374 375
f 373 375 376
f 377 378 379
f 377 379 380
f 381 382 383
f 381 383 384
f 385 386 387
f 385 387 388
f 389 390 391
f 389 391 392
f 393 394 395
f 393 395 396
f 397 398 399
f 397 399 400
f 401 402 403
f 401 403 404
f 405 406 407
f 405 407 408
f 409 410 411
f 409 411 412
f 413 414 415
f 413 415 416
f 417 418 419
f 417 419 420
f 421 422 423
f 421 423 424
f 425 426 427
f 425 427 428
f 429 430 431
f 429 431 432
f 433 434 435
f 433 435 436
