# Baked from official LDraw part 3010.dat
o ldraw_3010
v -0.6000000 0.1000000 0.0000000
v -0.6114150 0.1000000 0.0574050
v -0.6114150 -0.0000000 0.0574050
v -0.6000000 -0.0000000 0.0000000
v -0.6114150 0.1000000 0.0574050
v -0.6439350 0.1000000 0.1060650
v -0.6439350 -0.0000000 0.1060650
v -0.6114150 -0.0000000 0.0574050
v -0.6439350 0.1000000 0.1060650
v -0.6925950 0.1000000 0.1385850
v -0.6925950 -0.0000000 0.1385850
v -0.6439350 -0.0000000 0.1060650
v -0.6925950 0.1000000 0.1385850
v -0.7500000 0.1000000 0.1500000
v -0.7500000 -0.0000000 0.1500000
v -0.6925950 -0.0000000 0.1385850
v -0.7500000 0.1000000 0.1500000
v -0.8074050 0.1000000 0.1385850
v -0.8074050 -0.0000000 0.1385850
v -0.7500000 -0.0000000 0.1500000
v -0.8074050 0.1000000 0.1385850
v -0.8560650 0.1000000 0.1060650
v -0.8560650 -0.0000000 0.1060650
v -0.8074050 -0.0000000 0.1385850
v -0.8560650 0.1000000 0.1060650
v -0.8885850 0.1000000 0.0574050
v -0.8885850 -0.0000000 0.0574050
v -0.8560650 -0.0000000 0.1060650
v -0.8885850 0.1000000 0.0574050
v -0.9000000 0.1000000 0.0000000
v -0.9000000 -0.0000000 0.0000000
v -0.8885850 -0.0000000 0.0574050
v -0.9000000 0.1000000 0.0000000
v -0.8885850 0.1000000 -0.0574050
v -0.8885850 -0.0000000 -0.0574050
v -0.9000000 -0.0000000 0.0000000
v -0.8885850 0.1000000 -0.0574050
v -0.8560650 0.1000000 -0.1060650
v -0.8560650 -0.0000000 -0.1060650
v -0.8885850 -0.0000000 -0.0574050
v -0.8560650 0.1000000 -0.1060650
v -0.8074050 0.1000000 -0.1385850
v -0.8074050 -0.0000000 -0.1385850
v -0.8560650 -0.0000000 -0.1060650
v -0.8074050 0.1000000 -0.1385850
v -0.7500000 0.1000000 -0.1500000
v -0.7500000 -0.0000000 -0.1500000
v -0.8074050 -0.0000000 -0.1385850
v -0.7500000 0.1000000 -0.1500000
v -0.6925950 0.1000000 -0.1385850
v -0.6925950 -0.0000000 -0.1385850
v -0.7500000 -0.0000000 -0.1500000
v -0.6925950 0.1000000 -0.1385850
v -0.6439350 0.1000000 -0.1060650
v -0.6439350 -0.0000000 -0.1060650
v -0.6925950 -0.0000000 -0.1385850
v -0.6439350 0.1000000 -0.1060650
v -0.6114150 0.1000000 -0.0574050
v -0.6114150 -0.0000000 -0.0574050
v -0.6439350 -0.0000000 -0.1060650
v -0.6114150 0.1000000 -0.0574050
v -0.6000000 0.1000000 0.0000000
v -0.6000000 -0.0000000 0.0000000
v -0.6114150 -0.0000000 -0.0574050
v -0.6114150 0.1000000 0.0574050
v -0.6000000 0.1000000 0.0000000
v -0.7500000 0.1000000 0.0000000
v -0.6439350 0.1000000 0.1060650
v -0.6114150 0.1000000 0.0574050
v -0.7500000 0.1000000 0.0000000
v -0.6925950 0.1000000 0.1385850
v -0.6439350 0.1000000 0.1060650
v -0.7500000 0.1000000 0.0000000
v -0.7500000 0.1000000 0.1500000
v -0.6925950 0.1000000 0.1385850
v -0.7500000 0.1000000 0.0000000
v -0.8074050 0.1000000 0.1385850
v -0.7500000 0.1000000 0.1500000
v -0.7500000 0.1000000 0.0000000
v -0.8560650 0.1000000 0.1060650
v -0.8074050 0.1000000 0.1385850
v -0.7500000 0.1000000 0.0000000
v -0.8885850 0.1000000 0.0574050
v -0.8560650 0.1000000 0.1060650
v -0.7500000 0.1000000 0.0000000
v -0.9000000 0.1000000 0.0000000
v -0.8885850 0.1000000 0.0574050
v -0.7500000 0.1000000 0.0000000
v -0.8885850 0.1000000 -0.0574050
v -0.9000000 0.1000000 0.0000000
v -0.7500000 0.1000000 0.0000000
v -0.8560650 0.1000000 -0.1060650
v -0.8885850 0.1000000 -0.0574050
v -0.7500000 0.1000000 0.0000000
v -0.8074050 0.1000000 -0.1385850
v -0.8560650 0.1000000 -0.1060650
v -0.7500000 0.1000000 0.0000000
v -0.7500000 0.1000000 -0.1500000
v -0.8074050 0.1000000 -0.1385850
v -0.7500000 0.1000000 0.0000000
v -0.6925950 0.1000000 -0.1385850
v -0.7500000 0.1000000 -0.1500000
v -0.7500000 0.1000000 0.0000000
v -0.6439350 0.1000000 -0.1060650
v -0.6925950 0.1000000 -0.1385850
v -0.7500000 0.1000000 0.0000000
v -0.6114150 0.1000000 -0.0574050
v -0.6439350 0.1000000 -0.1060650
v -0.7500000 0.1000000 0.0000000
v -0.6000000 0.1000000 0.0000000
v -0.6114150 0.1000000 -0.0574050
v -0.7500000 0.1000000 0.0000000
v -0.1000000 0.1000000 0.0000000
v -0.1114150 0.1000000 0.0574050
v -0.1114150 -0.0000000 0.0574050
v -0.1000000 -0.0000000 0.0000000
v -0.1114150 0.1000000 0.0574050
v -0.1439350 0.1000000 0.1060650
v -0.1439350 -0.0000000 0.1060650
v -0.1114150 -0.0000000 0.0574050
v -0.1439350 0.1000000 0.1060650
v -0.1925950 0.1000000 0.1385850
v -0.1925950 -0.0000000 0.1385850
v -0.1439350 -0.0000000 0.1060650
v -0.1925950 0.1000000 0.1385850
v -0.2500000 0.1000000 0.1500000
v -0.2500000 -0.0000000 0.1500000
v -0.1925950 -0.0000000 0.1385850
v -0.2500000 0.1000000 0.1500000
v -0.3074050 0.1000000 0.1385850
v -0.3074050 -0.0000000 0.1385850
v -0.2500000 -0.0000000 0.1500000
v -0.3074050 0.1000000 0.1385850
v -0.3560650 0.1000000 0.1060650
v -0.3560650 -0.0000000 0.1060650
v -0.3074050 -0.0000000 0.1385850
v -0.3560650 0.1000000 0.1060650
v -0.3885850 0.1000000 0.0574050
v -0.3885850 -0.0000000 0.0574050
v -0.3560650 -0.0000000 0.1060650
v -0.3885850 0.1000000 0.0574050
v -0.4000000 0.1000000 0.0000000
v -0.4000000 -0.0000000 0.0000000
v -0.3885850 -0.0000000 0.0574050
v -0.4000000 0.1000000 0.0000000
v -0.3885850 0.1000000 -0.0574050
v -0.3885850 -0.0000000 -0.0574050
v -0.4000000 -0.0000000 0.0000000
v -0.3885850 0.1000000 -0.0574050
v -0.3560650 0.1000000 -0.1060650
v -0.3560650 -0.0000000 -0.1060650
v -0.3885850 -0.0000000 -0.0574050
v -0.3560650 0.1000000 -0.1060650
v -0.3074050 0.1000000 -0.1385850
v -0.3074050 -0.0000000 -0.1385850
v -0.3560650 -0.0000000 -0.1060650
v -0.3074050 0.1000000 -0.1385850
v -0.2500000 0.1000000 -0.1500000
v -0.2500000 -0.0000000 -0.1500000
v -0.3074050 -0.0000000 -0.1385850
v -0.2500000 0.1000000 -0.1500000
v -0.1925950 0.1000000 -0.1385850
v -0.1925950 -0.0000000 -0.1385850
v -0.2500000 -0.0000000 -0.1500000
v -0.1925950 0.1000000 -0.1385850
v -0.1439350 0.1000000 -0.1060650
v -0.1439350 -0.0000000 -0.1060650
v -0.1925950 -0.0000000 -0.1385850
v -0.1439350 0.1000000 -0.1060650
v -0.1114150 0.1000000 -0.0574050
v -0.1114150 -0.0000000 -0.0574050
v -0.1439350 -0.0000000 -0.1060650
v -0.1114150 0.1000000 -0.0574050
v -0.1000000 0.1000000 0.0000000
v -0.1000000 -0.0000000 0.0000000
v -0.1114150 -0.0000000 -0.0574050
v -0.1114150 0.1000000 0.0574050
v -0.1000000 0.1000000 0.0000000
v -0.2500000 0.1000000 0.0000000
v -0.1439350 0.1000000 0.1060650
v -0.1114150 0.1000000 0.0574050
v -0.2500000 0.1000000 0.0000000
v -0.1925950 0.1000000 0.1385850
v -0.1439350 0.1000000 0.1060650
v -0.2500000 0.1000000 0.0000000
v -0.2500000 0.1000000 0.1500000
v -0.1925950 0.1000000 0.1385850
v -0.2500000 0.1000000 0.0000000
v -0.3074050 0.1000000 0.1385850
v -0.2500000 0.1000000 0.1500000
v -0.2500000 0.1000000 0.0000000
v -0.3560650 0.1000000 0.1060650
v -0.3074050 0.1000000 0.1385850
v -0.2500000 0.1000000 0.0000000
v -0.3885850 0.1000000 0.0574050
v -0.3560650 0.1000000 0.1060650
v -0.2500000 0.1000000 0.0000000
v -0.4000000 0.1000000 0.0000000
v -0.3885850 0.1000000 0.0574050
v -0.2500000 0.1000000 0.0000000
v -0.3885850 0.1000000 -0.0574050
v -0.4000000 0.1000000 0.0000000
v -0.2500000 0.1000000 0.0000000
v -0.3560650 0.1000000 -0.1060650
v -0.3885850 0.1000000 -0.0574050
v -0.2500000 0.1000000 0.0000000
v -0.3074050 0.1000000 -0.1385850
v -0.3560650 0.1000000 -0.1060650
v -0.2500000 0.1000000 0.0000000
v -0.2500000 0.1000000 -0.1500000
v -0.3074050 0.1000000 -0.1385850
v -0.2500000 0.1000000 0.0000000
v -0.1925950 0.1000000 -0.1385850
v -0.2500000 0.1000000 -0.1500000
v -0.2500000 0.1000000 0.0000000
v -0.1439350 0.1000000 -0.1060650
v -0.1925950 0.1000000 -0.1385850
v -0.2500000 0.1000000 0.0000000
v -0.1114150 0.1000000 -0.0574050
v -0.1439350 0.1000000 -0.1060650
v -0.2500000 0.1000000 0.0000000
v -0.1000000 0.1000000 0.0000000
v -0.1114150 0.1000000 -0.0574050
v -0.2500000 0.1000000 0.0000000
v 0.4000000 0.1000000 0.0000000
v 0.3885850 0.1000000 0.0574050
v 0.3885850 -0.0000000 0.0574050
v 0.4000000 -0.0000000 0.0000000
v 0.3885850 0.1000000 0.0574050
v 0.3560650 0.1000000 0.1060650
v 0.3560650 -0.0000000 0.1060650
v 0.3885850 -0.0000000 0.0574050
v 0.3560650 0.1000000 0.1060650
v 0.3074050 0.1000000 0.1385850
v 0.3074050 -0.0000000 0.1385850
v 0.3560650 -0.0000000 0.1060650
v 0.3074050 0.1000000 0.1385850
v 0.2500000 0.1000000 0.1500000
v 0.2500000 -0.0000000 0.1500000
v 0.3074050 -0.0000000 0.1385850
v 0.2500000 0.1000000 0.1500000
v 0.1925950 0.1000000 0.1385850
v 0.1925950 -0.0000000 0.1385850
v 0.2500000 -0.0000000 0.1500000
v 0.1925950 0.1000000 0.1385850
v 0.1439350 0.1000000 0.1060650
v 0.1439350 -0.0000000 0.1060650
v 0.1925950 -0.0000000 0.1385850
v 0.1439350 0.1000000 0.1060650
v 0.1114150 0.1000000 0.0574050
v 0.1114150 -0.0000000 0.0574050
v 0.1439350 -0.0000000 0.1060650
v 0.1114150 0.1000000 0.0574050
v 0.1000000 0.1000000 0.0000000
v 0.1000000 -0.0000000 0.0000000
v 0.1114150 -0.0000000 0.0574050
v 0.1000000 0.1000000 0.0000000
v 0.1114150 0.1000000 -0.0574050
v 0.1114150 -0.0000000 -0.0574050
v 0.1000000 -0.0000000 0.0000000
v 0.1114150 0.1000000 -0.0574050
v 0.1439350 0.1000000 -0.1060650
v 0.1439350 -0.0000000 -0.1060650
v 0.1114150 -0.0000000 -0.0574050
v 0.1439350 0.1000000 -0.1060650
v 0.1925950 0.1000000 -0.1385850
v 0.1925950 -0.0000000 -0.1385850
v 0.1439350 -0.0000000 -0.1060650
v 0.1925950 0.1000000 -0.1385850
v 0.2500000 0.1000000 -0.1500000
v 0.2500000 -0.0000000 -0.1500000
v 0.1925950 -0.0000000 -0.1385850
v 0.2500000 0.1000000 -0.1500000
v 0.3074050 0.1000000 -0.1385850
v 0.3074050 -0.0000000 -0.1385850
v 0.2500000 -0.0000000 -0.1500000
v 0.3074050 0.1000000 -0.1385850
v 0.3560650 0.1000000 -0.1060650
v 0.3560650 -0.0000000 -0.1060650
v 0.3074050 -0.0000000 -0.1385850
v 0.3560650 0.1000000 -0.1060650
v 0.3885850 0.1000000 -0.0574050
v 0.3885850 -0.0000000 -0.0574050
v 0.3560650 -0.0000000 -0.1060650
v 0.3885850 0.1000000 -0.0574050
v 0.4000000 0.1000000 0.0000000
v 0.4000000 -0.0000000 0.0000000
v 0.3885850 -0.0000000 -0.0574050
v 0.3885850 0.1000000 0.0574050
v 0.4000000 0.1000000 0.0000000
v 0.2500000 0.1000000 0.0000000
v 0.3560650 0.1000000 0.1060650
v 0.3885850 0.1000000 0.0574050
v 0.2500000 0.1000000 0.0000000
v 0.3074050 0.1000000 0.1385850
v 0.3560650 0.1000000 0.1060650
v 0.2500000 0.1000000 0.0000000
v 0.2500000 0.1000000 0.1500000
v 0.3074050 0.1000000 0.1385850
v 0.2500000 0.1000000 0.0000000
v 0.1925950 0.1000000 0.1385850
v 0.2500000 0.1000000 0.1500000
v 0.2500000 0.1000000 0.0000000
v 0.1439350 0.1000000 0.1060650
v 0.1925950 0.1000000 0.1385850
v 0.2500000 0.1000000 0.0000000
v 0.1114150 0.1000000 0.0574050
v 0.1439350 0.1000000 0.1060650
v 0.2500000 0.1000000 0.0000000
v 0.1000000 0.1000000 0.0000000
v 0.1114150 0.1000000 0.0574050
v 0.2500000 0.1000000 0.0000000
v 0.1114150 0.1000000 -0.0574050
v 0.1000000 0.1000000 0.0000000
v 0.2500000 0.1000000 0.0000000
v 0.1439350 0.1000000 -0.1060650
v 0.1114150 0.1000000 -0.0574050
v 0.2500000 0.1000000 0.0000000
v 0.1925950 0.1000000 -0.1385850
v 0.1439350 0.1000000 -0.1060650
v 0.2500000 0.1000000 0.0000000
v 0.2500000 0.1000000 -0.1500000
v 0.1925950 0.1000000 -0.1385850
v 0.2500000 0.1000000 0.0000000
v 0.3074050 0.1000000 -0.1385850
v 0.2500000 0.1000000 -0.1500000
v 0.2500000 0.1000000 0.0000000
v 0.3560650 0.1000000 -0.1060650
v 0.3074050 0.1000000 -0.1385850
v 0.2500000 0.1000000 0.0000000
v 0.3885850 0.1000000 -0.0574050
v 0.3560650 0.1000000 -0.1060650
v 0.2500000 0.1000000 0.0000000
v 0.4000000 0.1000000 0.0000000
v 0.3885850 0.1000000 -0.0574050
v 0.2500000 0.1000000 0.0000000
v 0.9000000 0.1000000 0.0000000
v 0.8885850 0.1000000 0.0574050
v 0.8885850 -0.0000000 0.0574050
v 0.9000000 -0.0000000 0.0000000
v 0.8885850 0.1000000 0.0574050
v 0.8560650 0.1000000 0.1060650
v 0.8560650 -0.0000000 0.1060650
v 0.8885850 -0.0000000 0.0574050
v 0.8560650 0.1000000 0.1060650
v 0.8074050 0.1000000 0.1385850
v 0.8074050 -0.0000000 0.1385850
v 0.8560650 -0.0000000 0.1060650
v 0.8074050 0.1000000 0.1385850
v 0.7500000 0.1000000 0.1500000
v 0.7500000 -0.0000000 0.1500000
v 0.8074050 -0.0000000 0.1385850
v 0.7500000 0.1000000 0.1500000
v 0.6925950 0.1000000 0.1385850
v 0.6925950 -0.0000000 0.1385850
v 0.7500000 -0.0000000 0.1500000
v 0.6925950 0.1000000 0.1385850
v 0.6439350 0.1000000 0.1060650
v 0.6439350 -0.0000000 0.1060650
v 0.6925950 -0.0000000 0.1385850
v 0.6439350 0.1000000 0.1060650
v 0.6114150 0.1000000 0.0574050
v 0.6114150 -0.0000000 0.0574050
v 0.6439350 -0.0000000 0.1060650
v 0.6114150 0.1000000 0.0574050
v 0.6000000 0.1000000 0.0000000
v 0.6000000 -0.0000000 0.0000000
v 0.6114150 -0.0000000 0.0574050
v 0.6000000 0.1000000 0.0000000
v 0.6114150 0.1000000 -0.0574050
v 0.6114150 -0.0000000 -0.0574050
v 0.6000000 -0.0000000 0.0000000
v 0.6114150 0.1000000 -0.0574050
v 0.6439350 0.1000000 -0.1060650
v 0.6439350 -0.0000000 -0.1060650
v 0.6114150 -0.0000000 -0.0574050
v 0.6439350 0.1000000 -0.1060650
v 0.6925950 0.1000000 -0.1385850
v 0.6925950 -0.0000000 -0.1385850
v 0.6439350 -0.0000000 -0.1060650
v 0.6925950 0.1000000 -0.1385850
v 0.7500000 0.1000000 -0.1500000
v 0.7500000 -0.0000000 -0.1500000
v 0.6925950 -0.0000000 -0.1385850
v 0.7500000 0.1000000 -0.1500000
v 0.8074050 0.1000000 -0.1385850
v 0.8074050 -0.0000000 -0.1385850
v 0.7500000 -0.0000000 -0.1500000
v 0.8074050 0.1000000 -0.1385850
v 0.8560650 0.1000000 -0.1060650
v 0.8560650 -0.0000000 -0.1060650
v 0.8074050 -0.0000000 -0.1385850
v 0.8560650 0.1000000 -0.1060650
v 0.8885850 0.1000000 -0.0574050
v 0.8885850 -0.0000000 -0.0574050
v 0.8560650 -0.0000000 -0.1060650
v 0.8885850 0.1000000 -0.0574050
v 0.9000000 0.1000000 0.0000000
v 0.9000000 -0.0000000 0.0000000
v 0.8885850 -0.0000000 -0.0574050
v 0.8885850 0.1000000 0.0574050
v 0.9000000 0.1000000 0.0000000
v 0.7500000 0.1000000 0.0000000
v 0.8560650 0.1000000 0.1060650
v 0.8885850 0.1000000 0.0574050
v 0.7500000 0.1000000 0.0000000
v 0.8074050 0.1000000 0.1385850
v 0.8560650 0.1000000 0.1060650
v 0.7500000 0.1000000 0.0000000
v 0.7500000 0.1000000 0.1500000
v 0.8074050 0.1000000 0.1385850
v 0.7500000 0.1000000 0.0000000
v 0.6925950 0.1000000 0.1385850
v 0.7500000 0.1000000 0.1500000
v 0.7500000 0.1000000 0.0000000
v 0.6439350 0.1000000 0.1060650
v 0.6925950 0.1000000 0.1385850
v 0.7500000 0.1000000 0.0000000
v 0.6114150 0.1000000 0.0574050
v 0.6439350 0.1000000 0.1060650
v 0.7500000 0.1000000 0.0000000
v 0.6000000 0.1000000 0.0000000
v 0.6114150 0.1000000 0.0574050
v 0.7500000 0.1000000 0.0000000
v 0.6114150 0.1000000 -0.0574050
v 0.6000000 0.1000000 0.0000000
v 0.7500000 0.1000000 0.0000000
v 0.6439350 0.1000000 -0.1060650
v 0.6114150 0.1000000 -0.0574050
v 0.7500000 0.1000000 0.0000000
v 0.6925950 0.1000000 -0.1385850
v 0.6439350 0.1000000 -0.1060650
v 0.7500000 0.1000000 0.0000000
v 0.7500000 0.1000000 -0.1500000
v 0.6925950 0.1000000 -0.1385850
v 0.7500000 0.1000000 0.0000000
v 0.8074050 0.1000000 -0.1385850
v 0.7500000 0.1000000 -0.1500000
v 0.7500000 0.1000000 0.0000000
v 0.8560650 0.1000000 -0.1060650
v 0.8074050 0.1000000 -0.1385850
v 0.7500000 0.1000000 0.0000000
v 0.8885850 0.1000000 -0.0574050
v 0.8560650 0.1000000 -0.1060650
v 0.7500000 0.1000000 0.0000000
v 0.9000000 0.1000000 0.0000000
v 0.8885850 0.1000000 -0.0574050
v 0.7500000 0.1000000 0.0000000
v -0.5000000 -0.6000000 0.0000000
v -0.4000000 -0.6000000 0.0000000
v -0.4076100 -0.6000000 0.0382700
v -0.5000000 -0.6000000 0.0000000
v -0.4076100 -0.6000000 0.0382700
v -0.4292900 -0.6000000 0.0707100
v -0.5000000 -0.6000000 0.0000000
v -0.4292900 -0.6000000 0.0707100
v -0.4617300 -0.6000000 0.0923900
v -0.5000000 -0.6000000 0.0000000
v -0.4617300 -0.6000000 0.0923900
v -0.5000000 -0.6000000 0.1000000
v -0.5000000 -0.6000000 0.0000000
v -0.5000000 -0.6000000 0.1000000
v -0.5382700 -0.6000000 0.0923900
v -0.5000000 -0.6000000 0.0000000
v -0.5382700 -0.6000000 0.0923900
v -0.5707100 -0.6000000 0.0707100
v -0.5000000 -0.6000000 0.0000000
v -0.5707100 -0.6000000 0.0707100
v -0.5923900 -0.6000000 0.0382700
v -0.5000000 -0.6000000 0.0000000
v -0.5923900 -0.6000000 0.0382700
v -0.6000000 -0.6000000 0.0000000
v -0.5000000 -0.6000000 0.0000000
v -0.6000000 -0.6000000 0.0000000
v -0.5923900 -0.6000000 -0.0382700
v -0.5000000 -0.6000000 0.0000000
v -0.5923900 -0.6000000 -0.0382700
v -0.5707100 -0.6000000 -0.0707100
v -0.5000000 -0.6000000 0.0000000
v -0.5707100 -0.6000000 -0.0707100
v -0.5382700 -0.6000000 -0.0923900
v -0.5000000 -0.6000000 0.0000000
v -0.5382700 -0.6000000 -0.0923900
v -0.5000000 -0.6000000 -0.1000000
v -0.5000000 -0.6000000 0.0000000
v -0.5000000 -0.6000000 -0.1000000
v -0.4617300 -0.6000000 -0.0923900
v -0.5000000 -0.6000000 0.0000000
v -0.4617300 -0.6000000 -0.0923900
v -0.4292900 -0.6000000 -0.0707100
v -0.5000000 -0.6000000 0.0000000
v -0.4292900 -0.6000000 -0.0707100
v -0.4076100 -0.6000000 -0.0382700
v -0.5000000 -0.6000000 0.0000000
v -0.4076100 -0.6000000 -0.0382700
v -0.4000000 -0.6000000 0.0000000
v -0.4000000 -0.1000000 0.0000000
v -0.4076100 -0.1000000 0.0382700
v -0.4076100 -0.6000000 0.0382700
v -0.4000000 -0.6000000 0.0000000
v -0.4076100 -0.1000000 0.0382700
v -0.4292900 -0.1000000 0.0707100
v -0.4292900 -0.6000000 0.0707100
v -0.4076100 -0.6000000 0.0382700
v -0.4292900 -0.1000000 0.0707100
v -0.4617300 -0.1000000 0.0923900
v -0.4617300 -0.6000000 0.0923900
v -0.4292900 -0.6000000 0.0707100
v -0.4617300 -0.1000000 0.0923900
v -0.5000000 -0.1000000 0.1000000
v -0.5000000 -0.6000000 0.1000000
v -0.4617300 -0.6000000 0.0923900
v -0.5000000 -0.1000000 0.1000000
v -0.5382700 -0.1000000 0.0923900
v -0.5382700 -0.6000000 0.0923900
v -0.5000000 -0.6000000 0.1000000
v -0.5382700 -0.1000000 0.0923900
v -0.5707100 -0.1000000 0.0707100
v -0.5707100 -0.6000000 0.0707100
v -0.5382700 -0.6000000 0.0923900
v -0.5707100 -0.1000000 0.0707100
v -0.5923900 -0.1000000 0.0382700
v -0.5923900 -0.6000000 0.0382700
v -0.5707100 -0.6000000 0.0707100
v -0.5923900 -0.1000000 0.0382700
v -0.6000000 -0.1000000 0.0000000
v -0.6000000 -0.6000000 0.0000000
v -0.5923900 -0.6000000 0.0382700
v -0.6000000 -0.1000000 0.0000000
v -0.5923900 -0.1000000 -0.0382700
v -0.5923900 -0.6000000 -0.0382700
v -0.6000000 -0.6000000 0.0000000
v -0.5923900 -0.1000000 -0.0382700
v -0.5707100 -0.1000000 -0.0707100
v -0.5707100 -0.6000000 -0.0707100
v -0.5923900 -0.6000000 -0.0382700
v -0.5707100 -0.1000000 -0.0707100
v -0.5382700 -0.1000000 -0.0923900
v -0.5382700 -0.6000000 -0.0923900
v -0.5707100 -0.6000000 -0.0707100
v -0.5382700 -0.1000000 -0.0923900
v -0.5000000 -0.1000000 -0.1000000
v -0.5000000 -0.6000000 -0.1000000
v -0.5382700 -0.6000000 -0.0923900
v -0.5000000 -0.1000000 -0.1000000
v -0.4617300 -0.1000000 -0.0923900
v -0.4617300 -0.6000000 -0.0923900
v -0.5000000 -0.6000000 -0.1000000
v -0.4617300 -0.1000000 -0.0923900
v -0.4292900 -0.1000000 -0.0707100
v -0.4292900 -0.6000000 -0.0707100
v -0.4617300 -0.6000000 -0.0923900
v -0.4292900 -0.1000000 -0.0707100
v -0.4076100 -0.1000000 -0.0382700
v -0.4076100 -0.6000000 -0.0382700
v -0.4292900 -0.6000000 -0.0707100
v -0.4076100 -0.1000000 -0.0382700
v -0.4000000 -0.1000000 0.0000000
v -0.4000000 -0.6000000 0.0000000
v -0.4076100 -0.6000000 -0.0382700
v 0.0000000 -0.6000000 0.0000000
v 0.1000000 -0.6000000 0.0000000
v 0.0923900 -0.6000000 0.0382700
v 0.0000000 -0.6000000 0.0000000
v 0.0923900 -0.6000000 0.0382700
v 0.0707100 -0.6000000 0.0707100
v 0.0000000 -0.6000000 0.0000000
v 0.0707100 -0.6000000 0.0707100
v 0.0382700 -0.6000000 0.0923900
v 0.0000000 -0.6000000 0.0000000
v 0.0382700 -0.6000000 0.0923900
v 0.0000000 -0.6000000 0.1000000
v 0.0000000 -0.6000000 0.0000000
v 0.0000000 -0.6000000 0.1000000
v -0.0382700 -0.6000000 0.0923900
v 0.0000000 -0.6000000 0.0000000
v -0.0382700 -0.6000000 0.0923900
v -0.0707100 -0.6000000 0.0707100
v 0.0000000 -0.6000000 0.0000000
v -0.0707100 -0.6000000 0.0707100
v -0.0923900 -0.6000000 0.0382700
v 0.0000000 -0.6000000 0.0000000
v -0.0923900 -0.6000000 0.0382700
v -0.1000000 -0.6000000 0.0000000
v 0.0000000 -0.6000000 0.0000000
v -0.1000000 -0.6000000 0.0000000
v -0.0923900 -0.6000000 -0.0382700
v 0.0000000 -0.6000000 0.0000000
v -0.0923900 -0.6000000 -0.0382700
v -0.0707100 -0.6000000 -0.0707100
v 0.0000000 -0.6000000 0.0000000
v -0.0707100 -0.6000000 -0.0707100
v -0.0382700 -0.6000000 -0.0923900
v 0.0000000 -0.6000000 0.0000000
v -0.0382700 -0.6000000 -0.0923900
v 0.0000000 -0.6000000 -0.1000000
v 0.0000000 -0.6000000 0.0000000
v 0.0000000 -0.6000000 -0.1000000
v 0.0382700 -0.6000000 -0.0923900
v 0.0000000 -0.6000000 0.0000000
v 0.0382700 -0.6000000 -0.0923900
v 0.0707100 -0.6000000 -0.0707100
v 0.0000000 -0.6000000 0.0000000
v 0.0707100 -0.6000000 -0.0707100
v 0.0923900 -0.6000000 -0.0382700
v 0.0000000 -0.6000000 0.0000000
v 0.0923900 -0.6000000 -0.0382700
v 0.1000000 -0.6000000 0.0000000
v 0.1000000 -0.1000000 0.0000000
v 0.0923900 -0.1000000 0.0382700
v 0.0923900 -0.6000000 0.0382700
v 0.1000000 -0.6000000 0.0000000
v 0.0923900 -0.1000000 0.0382700
v 0.0707100 -0.1000000 0.0707100
v 0.0707100 -0.6000000 0.0707100
v 0.0923900 -0.6000000 0.0382700
v 0.0707100 -0.1000000 0.0707100
v 0.0382700 -0.1000000 0.0923900
v 0.0382700 -0.6000000 0.0923900
v 0.0707100 -0.6000000 0.0707100
v 0.0382700 -0.1000000 0.0923900
v 0.0000000 -0.1000000 0.1000000
v 0.0000000 -0.6000000 0.1000000
v 0.0382700 -0.6000000 0.0923900
v 0.0000000 -0.1000000 0.1000000
v -0.0382700 -0.1000000 0.0923900
v -0.0382700 -0.6000000 0.0923900
v 0.0000000 -0.6000000 0.1000000
v -0.0382700 -0.1000000 0.0923900
v -0.0707100 -0.1000000 0.0707100
v -0.0707100 -0.6000000 0.0707100
v -0.0382700 -0.6000000 0.0923900
v -0.0707100 -0.1000000 0.0707100
v -0.0923900 -0.1000000 0.0382700
v -0.0923900 -0.6000000 0.0382700
v -0.0707100 -0.6000000 0.0707100
v -0.0923900 -0.1000000 0.0382700
v -0.1000000 -0.1000000 0.0000000
v -0.1000000 -0.6000000 0.0000000
v -0.0923900 -0.6000000 0.0382700
v -0.1000000 -0.1000000 0.0000000
v -0.0923900 -0.1000000 -0.0382700
v -0.0923900 -0.6000000 -0.0382700
v -0.1000000 -0.6000000 0.0000000
v -0.0923900 -0.1000000 -0.0382700
v -0.0707100 -0.1000000 -0.0707100
v -0.0707100 -0.6000000 -0.0707100
v -0.0923900 -0.6000000 -0.0382700
v -0.0707100 -0.1000000 -0.0707100
v -0.0382700 -0.1000000 -0.0923900
v -0.0382700 -0.6000000 -0.0923900
v -0.0707100 -0.6000000 -0.0707100
v -0.0382700 -0.1000000 -0.0923900
v 0.0000000 -0.1000000 -0.1000000
v 0.0000000 -0.6000000 -0.1000000
v -0.0382700 -0.6000000 -0.0923900
v 0.0000000 -0.1000000 -0.1000000
v 0.0382700 -0.1000000 -0.0923900
v 0.0382700 -0.6000000 -0.0923900
v 0.0000000 -0.6000000 -0.1000000
v 0.0382700 -0.1000000 -0.0923900
v 0.0707100 -0.1000000 -0.0707100
v 0.0707100 -0.6000000 -0.0707100
v 0.0382700 -0.6000000 -0.0923900
v 0.0707100 -0.1000000 -0.0707100
v 0.0923900 -0.1000000 -0.0382700
v 0.0923900 -0.6000000 -0.0382700
v 0.0707100 -0.6000000 -0.0707100
v 0.0923900 -0.1000000 -0.0382700
v 0.1000000 -0.1000000 0.0000000
v 0.1000000 -0.6000000 0.0000000
v 0.0923900 -0.6000000 -0.0382700
v 0.5000000 -0.6000000 0.0000000
v 0.6000000 -0.6000000 0.0000000
v 0.5923900 -0.6000000 0.0382700
v 0.5000000 -0.6000000 0.0000000
v 0.5923900 -0.6000000 0.0382700
v 0.5707100 -0.6000000 0.0707100
v 0.5000000 -0.6000000 0.0000000
v 0.5707100 -0.6000000 0.0707100
v 0.5382700 -0.6000000 0.0923900
v 0.5000000 -0.6000000 0.0000000
v 0.5382700 -0.6000000 0.0923900
v 0.5000000 -0.6000000 0.1000000
v 0.5000000 -0.6000000 0.0000000
v 0.5000000 -0.6000000 0.1000000
v 0.4617300 -0.6000000 0.0923900
v 0.5000000 -0.6000000 0.0000000
v 0.4617300 -0.6000000 0.0923900
v 0.4292900 -0.6000000 0.0707100
v 0.5000000 -0.6000000 0.0000000
v 0.4292900 -0.6000000 0.0707100
v 0.4076100 -0.6000000 0.0382700
v 0.5000000 -0.6000000 0.0000000
v 0.4076100 -0.6000000 0.0382700
v 0.4000000 -0.6000000 0.0000000
v 0.5000000 -0.6000000 0.0000000
v 0.4000000 -0.6000000 0.0000000
v 0.4076100 -0.6000000 -0.0382700
v 0.5000000 -0.6000000 0.0000000
v 0.4076100 -0.6000000 -0.0382700
v 0.4292900 -0.6000000 -0.0707100
v 0.5000000 -0.6000000 0.0000000
v 0.4292900 -0.6000000 -0.0707100
v 0.4617300 -0.6000000 -0.0923900
v 0.5000000 -0.6000000 0.0000000
v 0.4617300 -0.6000000 -0.0923900
v 0.5000000 -0.6000000 -0.1000000
v 0.5000000 -0.6000000 0.0000000
v 0.5000000 -0.6000000 -0.1000000
v 0.5382700 -0.6000000 -0.0923900
v 0.5000000 -0.6000000 0.0000000
v 0.5382700 -0.6000000 -0.0923900
v 0.5707100 -0.6000000 -0.0707100
v 0.5000000 -0.6000000 0.0000000
v 0.5707100 -0.6000000 -0.0707100
v 0.5923900 -0.6000000 -0.0382700
v 0.5000000 -0.6000000 0.0000000
v 0.5923900 -0.6000000 -0.0382700
v 0.6000000 -0.6000000 0.0000000
v 0.6000000 -0.1000000 0.0000000
v 0.5923900 -0.1000000 0.0382700
v 0.5923900 -0.6000000 0.0382700
v 0.6000000 -0.6000000 0.0000000
v 0.5923900 -0.1000000 0.0382700
v 0.5707100 -0.1000000 0.0707100
v 0.5707100 -0.6000000 0.0707100
v 0.5923900 -0.6000000 0.0382700
v 0.5707100 -0.1000000 0.0707100
v 0.5382700 -0.1000000 0.0923900
v 0.5382700 -0.6000000 0.0923900
v 0.5707100 -0.6000000 0.0707100
v 0.5382700 -0.1000000 0.0923900
v 0.5000000 -0.1000000 0.1000000
v 0.5000000 -0.6000000 0.1000000
v 0.5382700 -0.6000000 0.0923900
v 0.5000000 -0.1000000 0.1000000
v 0.4617300 -0.1000000 0.0923900
v 0.4617300 -0.6000000 0.0923900
v 0.5000000 -0.6000000 0.1000000
v 0.4617300 -0.1000000 0.0923900
v 0.4292900 -0.1000000 0.0707100
v 0.4292900 -0.6000000 0.0707100
v 0.4617300 -0.6000000 0.0923900
v 0.4292900 -0.1000000 0.0707100
v 0.4076100 -0.1000000 0.0382700
v 0.4076100 -0.6000000 0.0382700
v 0.4292900 -0.6000000 0.0707100
v 0.4076100 -0.1000000 0.0382700
v 0.4000000 -0.1000000 0.0000000
v 0.4000000 -0.6000000 0.0000000
v 0.4076100 -0.6000000 0.0382700
v 0.4000000 -0.1000000 0.0000000
v 0.4076100 -0.1000000 -0.0382700
v 0.4076100 -0.6000000 -0.0382700
v 0.4000000 -0.6000000 0.0000000
v 0.4076100 -0.1000000 -0.0382700
v 0.4292900 -0.1000000 -0.0707100
v 0.4292900 -0.6000000 -0.0707100
v 0.4076100 -0.6000000 -0.0382700
v 0.4292900 -0.1000000 -0.0707100
v 0.4617300 -0.1000000 -0.0923900
v 0.4617300 -0.6000000 -0.0923900
v 0.4292900 -0.6000000 -0.0707100
v 0.4617300 -0.1000000 -0.0923900
v 0.5000000 -0.1000000 -0.1000000
v 0.5000000 -0.6000000 -0.1000000
v 0.4617300 -0.6000000 -0.0923900
v 0.5000000 -0.1000000 -0.1000000
v 0.5382700 -0.1000000 -0.0923900
v 0.5382700 -0.6000000 -0.0923900
v 0.5000000 -0.6000000 -0.1000000
v 0.5382700 -0.1000000 -0.0923900
v 0.5707100 -0.1000000 -0.0707100
v 0.5707100 -0.6000000 -0.0707100
v 0.5382700 -0.6000000 -0.0923900
v 0.5707100 -0.1000000 -0.0707100
v 0.5923900 -0.1000000 -0.0382700
v 0.5923900 -0.6000000 -0.0382700
v 0.5707100 -0.6000000 -0.0707100
v 0.5923900 -0.1000000 -0.0382700
v 0.6000000 -0.1000000 0.0000000
v 0.6000000 -0.6000000 0.0000000
v 0.5923900 -0.6000000 -0.0382700
v 1.0000000 -0.0000000 0.2500000
v 1.0000000 -0.0000000 -0.2500000
v -1.0000000 -0.0000000 -0.2500000
v -1.0000000 -0.0000000 0.2500000
v -1.0000000 -0.6000000 0.2500000
v 1.0000000 -0.6000000 0.2500000
v 1.0000000 -0.0000000 0.2500000
v -1.0000000 -0.0000000 0.2500000
v 1.0000000 -0.6000000 0.2500000
v 1.0000000 -0.6000000 -0.2500000
v 1.0000000 -0.0000000 -0.2500000
v 1.0000000 -0.0000000 0.2500000
v -1.0000000 -0.6000000 -0.2500000
v -1.0000000 -0.6000000 0.2500000
v -1.0000000 -0.0000000 0.2500000
v -1.0000000 -0.0000000 -0.2500000
v 0.9000000 -0.1000000 0.1500000
v -0.9000000 -0.1000000 0.1500000
v -0.9000000 -0.1000000 -0.1500000
v 0.9000000 -0.1000000 -0.1500000
v 0.9000000 -0.1000000 0.1500000
v 0.9000000 -0.6000000 0.1500000
v -0.9000000 -0.6000000 0.1500000
v -0.9000000 -0.1000000 0.1500000
v 0.9000000 -0.1000000 -0.1500000
v 0.9000000 -0.6000000 -0.1500000
v 0.9000000 -0.6000000 0.1500000
v 0.9000000 -0.1000000 0.1500000
v -0.9000000 -0.1000000 -0.1500000
v -0.9000000 -0.6000000 -0.1500000
v 0.9000000 -0.6000000 -0.1500000
v 0.9000000 -0.1000000 -0.1500000
v -0.9000000 -0.1000000 0.1500000
v -0.9000000 -0.6000000 0.1500000
v -0.9000000 -0.6000000 -0.1500000
v -0.9000000 -0.1000000 -0.1500000
v -1.0000000 -0.6000000 -0.2500000
v 1.0000000 -0.6000000 -0.2500000
v 0.9000000 -0.6000000 -0.1500000
v -0.9000000 -0.6000000 -0.1500000
v 1.0000000 -0.6000000 0.2500000
v 0.9000000 -0.6000000 0.1500000
v 0.9000000 -0.6000000 -0.1500000
v 1.0000000 -0.6000000 -0.2500000
v -1.0000000 -0.6000000 0.2500000
v -0.9000000 -0.6000000 0.1500000
v 0.9000000 -0.6000000 0.1500000
v 1.0000000 -0.6000000 0.2500000
v -1.0000000 -0.6000000 -0.2500000
v -0.9000000 -0.6000000 -0.1500000
v -0.9000000 -0.6000000 0.1500000
v -1.0000000 -0.6000000 0.2500000
v -1.0000000 -0.0000000 -0.2500000
v 1.0000000 -0.0000000 -0.2500000
v 1.0000000 -0.6000000 -0.2500000
v -1.0000000 -0.6000000 -0.2500000
s off
f 1 2 3
f 1 3 4
f 5 6 7
f 5 7 8
f 9 10 11
f 9 11 12
f 13 14 15
f 13 15 16
f 17 18 19
f 17 19 20
f 21 22 23
f 21 23 24
f 25 26 27
f 25 27 28
f 29 30 31
f 29 31 32
f 33 34 35
f 33 35 36
f 37 38 39
f 37 39 40
f 41 42 43
f 41 43 44
f 45 46 47
f 45 47 48
f 49 50 51
f 49 51 52
f 53 54 55
f 53 55 56
f 57 58 59
f 57 59 60
f 61 62 63
f 61 63 64
f 65 66 67
f 68 69 70
f 71 72 73
f 74 75 76
f 77 78 79
f 80 81 82
f 83 84 85
f 86 87 88
f 89 90 91
f 92 93 94
f 95 96 97
f 98 99 100
f 101 102 103
f 104 105 106
f 107 108 109
f 110 111 112
f 113 114 115
f 113 115 116
f 117 118 119
f 117 119 120
f 121 122 123
f 121 123 124
f 125 126 127
f 125 127 128
f 129 130 131
f 129 131 132
f 133 134 135
f 133 135 136
f 137 138 139
f 137 139 140
f 141 142 143
f 141 143 144
f 145 146 147
f 145 147 148
f 149 150 151
f 149 151 152
f 153 154 155
f 153 155 156
f 157 158 159
f 157 159 160
f 161 162 163
f 161 163 164
f 165 166 167
f 165 167 168
f 169 170 171
f 169 171 172
f 173 174 175
f 173 175 176
f 177 178 179
f 180 181 182
f 183 184 185
f 186 187 188
f 189 190 191
f 192 193 194
f 195 196 197
f 198 199 200
f 201 202 203
f 204 205 206
f 207 208 209
f 210 211 212
f 213 214 215
f 216 217 218
f 219 220 221
f 222 223 224
f 225 226 227
f 225 227 228
f 229 230 231
f 229 231 232
f 233 234 235
f 233 235 236
f 237 238 239
f 237 239 240
f 241 242 243
f 241 243 244
f 245 246 247
f 245 247 248
f 249 250 251
f 249 251 252
f 253 254 255
f 253 255 256
f 257 258 259
f 257 259 260
f 261 262 263
f 261 263 264
f 265 266 267
f 265 267 268
f 269 270 271
f 269 271 272
f 273 274 275
f 273 275 276
f 277 278 279
f 277 279 280
f 281 282 283
f 281 283 284
f 285 286 287
f 285 287 288
f 289 290 291
f 292 293 294
f 295 296 297
f 298 299 300
f 301 302 303
f 304 305 306
f 307 308 309
f 310 311 312
f 313 314 315
f 316 317 318
f 319 320 321
f 322 323 324
f 325 326 327
f 328 329 330
f 331 332 333
f 334 335 336
f 337 338 339
f 337 339 340
f 341 342 343
f 341 343 344
f 345 346 347
f 345 347 348
f 349 350 351
f 349 351 352
f 353 354 355
f 353 355 356
f 357 358 359
f 357 359 360
f 361 362 363
f 361 363 364
f 365 366 367
f 365 367 368
f 369 370 371
f 369 371 372
f 373 374 375
f 373 375 376
f 377 378 379
f 377 379 380
f 381 382 383
f 381 383 384
f 385 386 387
f 385 387 388
f 389 390 391
f 389 391 392
f 393 394 395
f 393 395 396
f 397 398 399
f 397 399 400
f 401 402 403
f 404 405 406
f 407 408 409
f 410 411 412
f 413 414 415
f 416 417 418
f 419 420 421
f 422 423 424
f 425 426 427
f 428 429 430
f 431 432 433
f 434 435 436
f 437 438 439
f 440 441 442
f 443 444 445
f 446 447 448
f 449 450 451
f 452 453 454
f 455 456 457
f 458 459 460
f 461 462 463
f 464 465 466
f 467 468 469
f 470 471 472
f 473 474 475
f 476 477 478
f 479 480 481
f 482 483 484
f 485 486 487
f 488 489 490
f 491 492 493
f 494 495 496
f 497 498 499
f 497 499 500
f 501 502 503
f 501 503 504
f 505 506 507
f 505 507 508
f 509 510 511
f 509 511 512
f 513 514 515
f 513 515 516
f 517 518 519
f 517 519 520
f 521 522 523
f 521 523 524
f 525 526 527
f 525 527 528
f 529 530 531
f 529 531 532
f 533 534 535
f 533 535 536
f 537 538 539
f 537 539 540
f 541 542 543
f 541 543 544
f 545 546 547
f 545 547 548
f 549 550 551
f 549 551 552
f 553 554 555
f 553 555 556
f 557 558 559
f 557 559 560
f 561 562 563
f 564 565 566
f 567 568 569
f 570 571 572
f 573 574 575
f 576 577 578
f 579 580 581
f 582 583 584
f 585 586 587
f 588 589 590
f 591 592 593
f 594 595 596
f 597 598 599
f 600 601 602
f 603 604 605
f 606 607 608
f 609 610 611
f 609 611 612
f 613 614 615
f 613 615 616
f 617 618 619
f 617 619 620
f 621 622 623
f 621 623 624
f 625 626 627
f 625 627 628
f 629 630 631
f 629 631 632
f 633 634 635
f 633 635 636
f 637 638 639
f 637 639 640
f 641 642 643
f 641 643 644
f 645 646 647
f 645 647 648
f 649 650 651
f 649 651 652
f 653 654 655
f 653 655 656
f 657 658 659
f 657 659 660
f 661 662 663
f 661 663 664
f 665 666 667
f 665 667 668
f 669 670 671
f 669 671 672
f 673 674 675
f 676 677 678
f 679 680 681
f 682 683 684
f 685 686 687
f 688 689 690
f 691 692 693
f 694 695 696
f 697 698 699
f 700 701 702
f 703 704 705
f 706 707 708
f 709 710 711
f 712 713 714
f 715 716 717
f 718 719 720
f 721 722 723
f 721 723 724
f 725 726 727
f 725 727 728
f 729 730 731
f 729 731 732
f 733 734 735
f 733 735 736
f 737 738 739
f 737 739 740
f 741 742 743
f 741 743 744
f 745 746 747
f 745 747 748
f 749 750 751
f 749 751 752
f 753 754 755
f 753 755 756
f 757 758 759
f 757 759 760
f 761 762 763
f 761 763 764
f 765 766 767
f 765 767 768
f 769 770 771
f 769 771 772
f 773 774 775
f 773 775 776
f 777 778 779
f 777 779 780
f 781 782 783
f 781 783 784
f 785 786 787
f 785 787 788
f 789 790 791
f 789 791 792
f 793 794 795
f 793 795 796
f 797 798 799
f 797 799 800
f 801 802 803
f 801 803 804
f 805 806 807
f 805 807 808
f 809 810 811
f 809 811 812
f 813 814 815
f 813 815 816
f 817 818 819
f 817 819 820
f 821 822 823
f 821 823 824
f 825 826 827
f 825 827 828
f 829 830 831
f 829 831 832
f 833 834 835
f 833 835 836
f 837 838 839
f 837 839 840
