# Baked from official LDraw part 30367a.dat
o ldraw_30367a
v -0.1500000 -0.5000000 0.0000000
v -0.1385850 -0.5000000 0.0574050
v -0.1385850 -0.6000000 0.0574050
v -0.1500000 -0.6000000 0.0000000
v -0.1385850 -0.5000000 0.0574050
v -0.1060650 -0.5000000 0.1060650
v -0.1060650 -0.6000000 0.1060650
v -0.1385850 -0.6000000 0.0574050
v -0.1060650 -0.5000000 0.1060650
v -0.0574050 -0.5000000 0.1385850
v -0.0574050 -0.6000000 0.1385850
v -0.1060650 -0.6000000 0.1060650
v -0.0574050 -0.5000000 0.1385850
v 0.0000000 -0.5000000 0.1500000
v 0.0000000 -0.6000000 0.1500000
v -0.0574050 -0.6000000 0.1385850
v 0.0000000 -0.5000000 0.1500000
v 0.0574050 -0.5000000 0.1385850
v 0.0574050 -0.6000000 0.1385850
v 0.0000000 -0.6000000 0.1500000
v 0.0574050 -0.5000000 0.1385850
v 0.1060650 -0.5000000 0.1060650
v 0.1060650 -0.6000000 0.1060650
v 0.0574050 -0.6000000 0.1385850
v 0.1060650 -0.5000000 0.1060650
v 0.1385850 -0.5000000 0.0574050
v 0.1385850 -0.6000000 0.0574050
v 0.1060650 -0.6000000 0.1060650
v 0.1385850 -0.5000000 0.0574050
v 0.1500000 -0.5000000 0.0000000
v 0.1500000 -0.6000000 0.0000000
v 0.1385850 -0.6000000 0.0574050
v 0.1500000 -0.5000000 0.0000000
v 0.1385850 -0.5000000 -0.0574050
v 0.1385850 -0.6000000 -0.0574050
v 0.1500000 -0.6000000 0.0000000
v 0.1385850 -0.5000000 -0.0574050
v 0.1060650 -0.5000000 -0.1060650
v 0.1060650 -0.6000000 -0.1060650
v 0.1385850 -0.6000000 -0.0574050
v 0.1060650 -0.5000000 -0.1060650
v 0.0574050 -0.5000000 -0.1385850
v 0.0574050 -0.6000000 -0.1385850
v 0.1060650 -0.6000000 -0.1060650
v 0.0574050 -0.5000000 -0.1385850
v 0.0000000 -0.5000000 -0.1500000
v 0.0000000 -0.6000000 -0.1500000
v 0.0574050 -0.6000000 -0.1385850
v 0.0000000 -0.5000000 -0.1500000
v -0.0574050 -0.5000000 -0.1385850
v -0.0574050 -0.6000000 -0.1385850
v 0.0000000 -0.6000000 -0.1500000
v -0.0574050 -0.5000000 -0.1385850
v -0.1060650 -0.5000000 -0.1060650
v -0.1060650 -0.6000000 -0.1060650
v -0.0574050 -0.6000000 -0.1385850
v -0.1060650 -0.5000000 -0.1060650
v -0.1385850 -0.5000000 -0.0574050
v -0.1385850 -0.6000000 -0.0574050
v -0.1060650 -0.6000000 -0.1060650
v -0.1385850 -0.5000000 -0.0574050
v -0.1500000 -0.5000000 0.0000000
v -0.1500000 -0.6000000 0.0000000
v -0.1385850 -0.6000000 -0.0574050
v -0.2000000 -0.6000000 0.0000000
v -0.1847800 -0.6000000 0.0765400
v -0.1847800 -0.5000000 0.0765400
v -0.2000000 -0.5000000 0.0000000
v -0.1847800 -0.6000000 0.0765400
v -0.1414200 -0.6000000 0.1414200
v -0.1414200 -0.5000000 0.1414200
v -0.1847800 -0.5000000 0.0765400
v -0.1414200 -0.6000000 0.1414200
v -0.0765400 -0.6000000 0.1847800
v -0.0765400 -0.5000000 0.1847800
v -0.1414200 -0.5000000 0.1414200
v -0.0765400 -0.6000000 0.1847800
v 0.0000000 -0.6000000 0.2000000
v 0.0000000 -0.5000000 0.2000000
v -0.0765400 -0.5000000 0.1847800
v 0.0000000 -0.6000000 0.2000000
v 0.0765400 -0.6000000 0.1847800
v 0.0765400 -0.5000000 0.1847800
v 0.0000000 -0.5000000 0.2000000
v 0.0765400 -0.6000000 0.1847800
v 0.1414200 -0.6000000 0.1414200
v 0.1414200 -0.5000000 0.1414200
v 0.0765400 -0.5000000 0.1847800
v 0.1414200 -0.6000000 0.1414200
v 0.1847800 -0.6000000 0.0765400
v 0.1847800 -0.5000000 0.0765400
v 0.1414200 -0.5000000 0.1414200
v 0.1847800 -0.6000000 0.0765400
v 0.2000000 -0.6000000 0.0000000
v 0.2000000 -0.5000000 0.0000000
v 0.1847800 -0.5000000 0.0765400
v 0.2000000 -0.6000000 0.0000000
v 0.1847800 -0.6000000 -0.0765400
v 0.1847800 -0.5000000 -0.0765400
v 0.2000000 -0.5000000 0.0000000
v 0.1847800 -0.6000000 -0.0765400
v 0.1414200 -0.6000000 -0.1414200
v 0.1414200 -0.5000000 -0.1414200
v 0.1847800 -0.5000000 -0.0765400
v 0.1414200 -0.6000000 -0.1414200
v 0.0765400 -0.6000000 -0.1847800
v 0.0765400 -0.5000000 -0.1847800
v 0.1414200 -0.5000000 -0.1414200
v 0.0765400 -0.6000000 -0.1847800
v 0.0000000 -0.6000000 -0.2000000
v 0.0000000 -0.5000000 -0.2000000
v 0.0765400 -0.5000000 -0.1847800
v 0.0000000 -0.6000000 -0.2000000
v -0.0765400 -0.6000000 -0.1847800
v -0.0765400 -0.5000000 -0.1847800
v 0.0000000 -0.5000000 -0.2000000
v -0.0765400 -0.6000000 -0.1847800
v -0.1414200 -0.6000000 -0.1414200
v -0.1414200 -0.5000000 -0.1414200
v -0.0765400 -0.5000000 -0.1847800
v -0.1414200 -0.6000000 -0.1414200
v -0.1847800 -0.6000000 -0.0765400
v -0.1847800 -0.5000000 -0.0765400
v -0.1414200 -0.5000000 -0.1414200
v -0.1847800 -0.6000000 -0.0765400
v -0.2000000 -0.6000000 0.0000000
v -0.2000000 -0.5000000 0.0000000
v -0.1847800 -0.5000000 -0.0765400
v 0.0000000 -0.6000000 0.2000000
v 0.0000000 -0.6000000 0.1500000
v 0.0574050 -0.6000000 0.1385850
v 0.0765400 -0.6000000 0.1847800
v 0.0765400 -0.6000000 0.1847800
v 0.0574050 -0.6000000 0.1385850
v 0.1060650 -0.6000000 0.1060650
v 0.1414200 -0.6000000 0.1414200
v 0.1414200 -0.6000000 0.1414200
v 0.1060650 -0.6000000 0.1060650
v 0.1385850 -0.6000000 0.0574050
v 0.1847800 -0.6000000 0.0765400
v 0.1847800 -0.6000000 0.0765400
v 0.1385850 -0.6000000 0.0574050
v 0.1500000 -0.6000000 0.0000000
v 0.2000000 -0.6000000 0.0000000
v 0.2000000 -0.6000000 0.0000000
v 0.1500000 -0.6000000 0.0000000
v 0.1385850 -0.6000000 -0.0574050
v 0.1847800 -0.6000000 -0.0765400
v 0.1847800 -0.6000000 -0.0765400
v 0.1385850 -0.6000000 -0.0574050
v 0.1060650 -0.6000000 -0.1060650
v 0.1414200 -0.6000000 -0.1414200
v 0.1414200 -0.6000000 -0.1414200
v 0.1060650 -0.6000000 -0.1060650
v 0.0574050 -0.6000000 -0.1385850
v 0.0765400 -0.6000000 -0.1847800
v 0.0765400 -0.6000000 -0.1847800
v 0.0574050 -0.6000000 -0.1385850
v 0.0000000 -0.6000000 -0.1500000
v 0.0000000 -0.6000000 -0.2000000
v 0.0000000 -0.6000000 -0.2000000
v 0.0000000 -0.6000000 -0.1500000
v -0.0574050 -0.6000000 -0.1385850
v -0.0765400 -0.6000000 -0.1847800
v -0.0765400 -0.6000000 -0.1847800
v -0.0574050 -0.6000000 -0.1385850
v -0.1060650 -0.6000000 -0.1060650
v -0.1414200 -0.6000000 -0.1414200
v -0.1414200 -0.6000000 -0.1414200
v -0.1060650 -0.6000000 -0.1060650
v -0.1385850 -0.6000000 -0.0574050
v -0.1847800 -0.6000000 -0.0765400
v -0.1847800 -0.6000000 -0.0765400
v -0.1385850 -0.6000000 -0.0574050
v -0.1500000 -0.6000000 0.0000000
v -0.2000000 -0.6000000 0.0000000
v -0.2000000 -0.6000000 0.0000000
v -0.1500000 -0.6000000 0.0000000
v -0.1385850 -0.6000000 0.0574050
v -0.1847800 -0.6000000 0.0765400
v -0.1847800 -0.6000000 0.0765400
v -0.1385850 -0.6000000 0.0574050
v -0.1060650 -0.6000000 0.1060650
v -0.1414200 -0.6000000 0.1414200
v -0.1414200 -0.6000000 0.1414200
v -0.1060650 -0.6000000 0.1060650
v -0.0574050 -0.6000000 0.1385850
v -0.0765400 -0.6000000 0.1847800
v -0.0765400 -0.6000000 0.1847800
v -0.0574050 -0.6000000 0.1385850
v 0.0000000 -0.6000000 0.1500000
v 0.0000000 -0.6000000 0.2000000
v 0.1500000 -0.5000000 0.0000000
v 0.1385850 -0.5000000 0.0574050
v 0.1385850 -0.1000000 0.0574050
v 0.1500000 -0.1000000 0.0000000
v 0.1385850 -0.5000000 0.0574050
v 0.1060650 -0.5000000 0.1060650
v 0.1060650 -0.1000000 0.1060650
v 0.1385850 -0.1000000 0.0574050
v 0.1060650 -0.5000000 0.1060650
v 0.0574050 -0.5000000 0.1385850
v 0.0574050 -0.1000000 0.1385850
v 0.1060650 -0.1000000 0.1060650
v 0.0574050 -0.5000000 0.1385850
v 0.0000000 -0.5000000 0.1500000
v 0.0000000 -0.1000000 0.1500000
v 0.0574050 -0.1000000 0.1385850
v 0.0000000 -0.5000000 0.1500000
v -0.0574050 -0.5000000 0.1385850
v -0.0574050 -0.1000000 0.1385850
v 0.0000000 -0.1000000 0.1500000
v -0.0574050 -0.5000000 0.1385850
v -0.1060650 -0.5000000 0.1060650
v -0.1060650 -0.1000000 0.1060650
v -0.0574050 -0.1000000 0.1385850
v -0.1060650 -0.5000000 0.1060650
v -0.1385850 -0.5000000 0.0574050
v -0.1385850 -0.1000000 0.0574050
v -0.1060650 -0.1000000 0.1060650
v -0.1385850 -0.5000000 0.0574050
v -0.1500000 -0.5000000 0.0000000
v -0.1500000 -0.1000000 0.0000000
v -0.1385850 -0.1000000 0.0574050
v -0.1500000 -0.5000000 0.0000000
v -0.1385850 -0.5000000 -0.0574050
v -0.1385850 -0.1000000 -0.0574050
v -0.1500000 -0.1000000 0.0000000
v -0.1385850 -0.5000000 -0.0574050
v -0.1060650 -0.5000000 -0.1060650
v -0.1060650 -0.1000000 -0.1060650
v -0.1385850 -0.1000000 -0.0574050
v -0.1060650 -0.5000000 -0.1060650
v -0.0574050 -0.5000000 -0.1385850
v -0.0574050 -0.1000000 -0.1385850
v -0.1060650 -0.1000000 -0.1060650
v -0.0574050 -0.5000000 -0.1385850
v 0.0000000 -0.5000000 -0.1500000
v 0.0000000 -0.1000000 -0.1500000
v -0.0574050 -0.1000000 -0.1385850
v 0.0000000 -0.5000000 -0.1500000
v 0.0574050 -0.5000000 -0.1385850
v 0.0574050 -0.1000000 -0.1385850
v 0.0000000 -0.1000000 -0.1500000
v 0.0574050 -0.5000000 -0.1385850
v 0.1060650 -0.5000000 -0.1060650
v 0.1060650 -0.1000000 -0.1060650
v 0.0574050 -0.1000000 -0.1385850
v 0.1060650 -0.5000000 -0.1060650
v 0.1385850 -0.5000000 -0.0574050
v 0.1385850 -0.1000000 -0.0574050
v 0.1060650 -0.1000000 -0.1060650
v 0.1385850 -0.5000000 -0.0574050
v 0.1500000 -0.5000000 0.0000000
v 0.1500000 -0.1000000 0.0000000
v 0.1385850 -0.1000000 -0.0574050
v 0.1500000 -0.1000000 0.0000000
v 0.1000000 -0.1000000 0.0000000
v 0.0923900 -0.1000000 -0.0382700
v 0.1385850 -0.1000000 -0.0574050
v 0.1385850 -0.1000000 -0.0574050
v 0.0923900 -0.1000000 -0.0382700
v 0.0707100 -0.1000000 -0.0707100
v 0.1060650 -0.1000000 -0.1060650
v 0.1060650 -0.1000000 -0.1060650
v 0.0707100 -0.1000000 -0.0707100
v 0.0382700 -0.1000000 -0.0923900
v 0.0574050 -0.1000000 -0.1385850
v 0.0574050 -0.1000000 -0.1385850
v 0.0382700 -0.1000000 -0.0923900
v 0.0000000 -0.1000000 -0.1000000
v 0.0000000 -0.1000000 -0.1500000
v 0.0000000 -0.1000000 -0.1500000
v 0.0000000 -0.1000000 -0.1000000
v -0.0382700 -0.1000000 -0.0923900
v -0.0574050 -0.1000000 -0.1385850
v -0.0574050 -0.1000000 -0.1385850
v -0.0382700 -0.1000000 -0.0923900
v -0.0707100 -0.1000000 -0.0707100
v -0.1060650 -0.1000000 -0.1060650
v -0.1060650 -0.1000000 -0.1060650
v -0.0707100 -0.1000000 -0.0707100
v -0.0923900 -0.1000000 -0.0382700
v -0.1385850 -0.1000000 -0.0574050
v -0.1385850 -0.1000000 -0.0574050
v -0.0923900 -0.1000000 -0.0382700
v -0.1000000 -0.1000000 0.0000000
v -0.1500000 -0.1000000 0.0000000
v -0.1500000 -0.1000000 0.0000000
v -0.1000000 -0.1000000 0.0000000
v -0.0923900 -0.1000000 0.0382700
v -0.1385850 -0.1000000 0.0574050
v -0.1385850 -0.1000000 0.0574050
v -0.0923900 -0.1000000 0.0382700
v -0.0707100 -0.1000000 0.0707100
v -0.1060650 -0.1000000 0.1060650
v -0.1060650 -0.1000000 0.1060650
v -0.0707100 -0.1000000 0.0707100
v -0.0382700 -0.1000000 0.0923900
v -0.0574050 -0.1000000 0.1385850
v -0.0574050 -0.1000000 0.1385850
v -0.0382700 -0.1000000 0.0923900
v 0.0000000 -0.1000000 0.1000000
v 0.0000000 -0.1000000 0.1500000
v 0.0000000 -0.1000000 0.1500000
v 0.0000000 -0.1000000 0.1000000
v 0.0382700 -0.1000000 0.0923900
v 0.0574050 -0.1000000 0.1385850
v 0.0574050 -0.1000000 0.1385850
v 0.0382700 -0.1000000 0.0923900
v 0.0707100 -0.1000000 0.0707100
v 0.1060650 -0.1000000 0.1060650
v 0.1060650 -0.1000000 0.1060650
v 0.0707100 -0.1000000 0.0707100
v 0.0923900 -0.1000000 0.0382700
v 0.1385850 -0.1000000 0.0574050
v 0.1385850 -0.1000000 0.0574050
v 0.0923900 -0.1000000 0.0382700
v 0.1000000 -0.1000000 0.0000000
v 0.1500000 -0.1000000 0.0000000
v 0.2000000 -0.4000000 0.0000000
v 0.1847800 -0.4000000 0.0765400
v 0.1847800 -0.5000000 0.0765400
v 0.2000000 -0.5000000 0.0000000
v 0.1847800 -0.4000000 0.0765400
v 0.1414200 -0.4000000 0.1414200
v 0.1414200 -0.5000000 0.1414200
v 0.1847800 -0.5000000 0.0765400
v 0.1414200 -0.4000000 0.1414200
v 0.0765400 -0.4000000 0.1847800
v 0.0765400 -0.5000000 0.1847800
v 0.1414200 -0.5000000 0.1414200
v 0.0765400 -0.4000000 0.1847800
v 0.0000000 -0.4000000 0.2000000
v 0.0000000 -0.5000000 0.2000000
v 0.0765400 -0.5000000 0.1847800
v 0.0000000 -0.4000000 0.2000000
v -0.0765400 -0.4000000 0.1847800
v -0.0765400 -0.5000000 0.1847800
v 0.0000000 -0.5000000 0.2000000
v -0.0765400 -0.4000000 0.1847800
v -0.1414200 -0.4000000 0.1414200
v -0.1414200 -0.5000000 0.1414200
v -0.0765400 -0.5000000 0.1847800
v -0.1414200 -0.4000000 0.1414200
v -0.1847800 -0.4000000 0.0765400
v -0.1847800 -0.5000000 0.0765400
v -0.1414200 -0.5000000 0.1414200
v -0.1847800 -0.4000000 0.0765400
v -0.2000000 -0.4000000 0.0000000
v -0.2000000 -0.5000000 0.0000000
v -0.1847800 -0.5000000 0.0765400
v -0.2000000 -0.4000000 0.0000000
v -0.1847800 -0.4000000 -0.0765400
v -0.1847800 -0.5000000 -0.0765400
v -0.2000000 -0.5000000 0.0000000
v -0.1847800 -0.4000000 -0.0765400
v -0.1414200 -0.4000000 -0.1414200
v -0.1414200 -0.5000000 -0.1414200
v -0.1847800 -0.5000000 -0.0765400
v -0.1414200 -0.4000000 -0.1414200
v -0.0765400 -0.4000000 -0.1847800
v -0.0765400 -0.5000000 -0.1847800
v -0.1414200 -0.5000000 -0.1414200
v -0.0765400 -0.4000000 -0.1847800
v 0.0000000 -0.4000000 -0.2000000
v 0.0000000 -0.5000000 -0.2000000
v -0.0765400 -0.5000000 -0.1847800
v 0.0000000 -0.4000000 -0.2000000
v 0.0765400 -0.4000000 -0.1847800
v 0.0765400 -0.5000000 -0.1847800
v 0.0000000 -0.5000000 -0.2000000
v 0.0765400 -0.4000000 -0.1847800
v 0.1414200 -0.4000000 -0.1414200
v 0.1414200 -0.5000000 -0.1414200
v 0.0765400 -0.5000000 -0.1847800
v 0.1414200 -0.4000000 -0.1414200
v 0.1847800 -0.4000000 -0.0765400
v 0.1847800 -0.5000000 -0.0765400
v 0.1414200 -0.5000000 -0.1414200
v 0.1847800 -0.4000000 -0.0765400
v 0.2000000 -0.4000000 0.0000000
v 0.2000000 -0.5000000 0.0000000
v 0.1847800 -0.5000000 -0.0765400
v 0.4000000 -0.5000000 0.0000000
v 0.3695600 -0.5000000 0.1530800
v 0.3695600 -0.4000000 0.1530800
v 0.4000000 -0.4000000 0.0000000
v 0.3695600 -0.5000000 0.1530800
v 0.2828400 -0.5000000 0.2828400
v 0.2828400 -0.4000000 0.2828400
v 0.3695600 -0.4000000 0.1530800
v 0.2828400 -0.5000000 0.2828400
v 0.1530800 -0.5000000 0.3695600
v 0.1530800 -0.4000000 0.3695600
v 0.2828400 -0.4000000 0.2828400
v 0.1530800 -0.5000000 0.3695600
v 0.0000000 -0.5000000 0.4000000
v 0.0000000 -0.4000000 0.4000000
v 0.1530800 -0.4000000 0.3695600
v 0.0000000 -0.5000000 0.4000000
v -0.1530800 -0.5000000 0.3695600
v -0.1530800 -0.4000000 0.3695600
v 0.0000000 -0.4000000 0.4000000
v -0.1530800 -0.5000000 0.3695600
v -0.2828400 -0.5000000 0.2828400
v -0.2828400 -0.4000000 0.2828400
v -0.1530800 -0.4000000 0.3695600
v -0.2828400 -0.5000000 0.2828400
v -0.3695600 -0.5000000 0.1530800
v -0.3695600 -0.4000000 0.1530800
v -0.2828400 -0.4000000 0.2828400
v -0.3695600 -0.5000000 0.1530800
v -0.4000000 -0.5000000 0.0000000
v -0.4000000 -0.4000000 0.0000000
v -0.3695600 -0.4000000 0.1530800
v -0.4000000 -0.5000000 0.0000000
v -0.3695600 -0.5000000 -0.1530800
v -0.3695600 -0.4000000 -0.1530800
v -0.4000000 -0.4000000 0.0000000
v -0.3695600 -0.5000000 -0.1530800
v -0.2828400 -0.5000000 -0.2828400
v -0.2828400 -0.4000000 -0.2828400
v -0.3695600 -0.4000000 -0.1530800
v -0.2828400 -0.5000000 -0.2828400
v -0.1530800 -0.5000000 -0.3695600
v -0.1530800 -0.4000000 -0.3695600
v -0.2828400 -0.4000000 -0.2828400
v -0.1530800 -0.5000000 -0.3695600
v 0.0000000 -0.5000000 -0.4000000
v 0.0000000 -0.4000000 -0.4000000
v -0.1530800 -0.4000000 -0.3695600
v 0.0000000 -0.5000000 -0.4000000
v 0.1530800 -0.5000000 -0.3695600
v 0.1530800 -0.4000000 -0.3695600
v 0.0000000 -0.4000000 -0.4000000
v 0.1530800 -0.5000000 -0.3695600
v 0.2828400 -0.5000000 -0.2828400
v 0.2828400 -0.4000000 -0.2828400
v 0.1530800 -0.4000000 -0.3695600
v 0.2828400 -0.5000000 -0.2828400
v 0.3695600 -0.5000000 -0.1530800
v 0.3695600 -0.4000000 -0.1530800
v 0.2828400 -0.4000000 -0.2828400
v 0.3695600 -0.5000000 -0.1530800
v 0.4000000 -0.5000000 0.0000000
v 0.4000000 -0.4000000 0.0000000
v 0.3695600 -0.4000000 -0.1530800
v 0.4619361 -0.6000000 -0.1913395
v 0.5000131 -0.6000000 -0.0000031
v 0.4619400 -0.6000000 0.1913425
v 0.4619400 -0.6000000 -0.1913425
v 0.4619360 -0.6000000 0.1913395
v 0.4000000 -0.6000000 0.2840000
v 0.4000000 -0.6000000 -0.2840000
v 0.4000000 -0.6000000 0.2840000
v 0.4000000 -0.5000000 0.2840000
v 0.4000000 -0.5000000 0.0000000
v 0.4000000 -0.6000000 -0.2840000
v 0.4619400 -0.6000000 -0.1913425
v 0.4619400 -0.5000000 -0.1913425
v 0.5000131 -0.5000000 0.0000031
v 0.5000131 -0.6000000 0.0000031
v 0.5000131 -0.6000000 0.0000031
v 0.5000131 -0.5000000 0.0000031
v 0.4619361 -0.5000000 0.1913395
v 0.4619361 -0.6000000 0.1913395
v 0.4619360 -0.6000000 0.1913395
v 0.4619360 -0.5000000 0.1913395
v 0.4000000 -0.5000000 0.2840000
v 0.4000000 -0.6000000 0.2840000
v 0.0000000 -0.5000000 0.4000000
v 0.2840000 -0.5000000 0.4000000
v 0.2840000 -0.6000000 0.4000000
v 0.2840000 -0.5000000 0.4000000
v 0.1913500 -0.5000000 0.4619500
v 0.1913500 -0.6000000 0.4619500
v 0.2840000 -0.6000000 0.4000000
v 0.4000000 -0.5000000 0.0000000
v 0.4000000 -0.5000000 0.2840000
v 0.3695600 -0.5000000 0.1530800
v 0.3695600 -0.5000000 0.1530800
v 0.4000000 -0.5000000 0.2840000
v 0.3535000 -0.5000000 0.3535000
v 0.2828400 -0.5000000 0.2828400
v 0.1530800 -0.5000000 0.3695600
v 0.2828400 -0.5000000 0.2828400
v 0.3535000 -0.5000000 0.3535000
v 0.2840000 -0.5000000 0.4000000
v 0.0000000 -0.5000000 0.4000000
v 0.1530800 -0.5000000 0.3695600
v 0.2840000 -0.5000000 0.4000000
v 0.1847750 -0.4000000 0.0765250
v 0.1847750 -0.1000000 0.0765250
v 0.1414275 -0.1000000 0.1414148
v 0.1414275 -0.4000000 0.1414148
v 0.1414275 -0.4000000 0.1414148
v 0.1414275 -0.1000000 0.1414148
v 0.0765436 -0.1000000 0.1847652
v 0.0765436 -0.4000000 0.1847652
v 0.1847750 -0.1000000 0.0765250
v 0.1847750 -0.4000000 0.0765250
v 0.1925500 -0.4000000 0.0375000
v 0.1925500 -0.1000000 0.0375000
v 0.1925500 -0.4000000 0.0375000
v 0.3925500 -0.4000000 0.0375000
v 0.3773300 -0.2851900 0.0375000
v 0.1925500 -0.4000000 0.0375000
v 0.3773300 -0.2851900 0.0375000
v 0.3339700 -0.1878700 0.0375000
v 0.1925500 -0.4000000 0.0375000
v 0.3339700 -0.1878700 0.0375000
v 0.2690900 -0.1228300 0.0375000
v 0.1925500 -0.4000000 0.0375000
v 0.2690900 -0.1228300 0.0375000
v 0.1925500 -0.1000000 0.0375000
v 0.1925500 -0.4000000 0.0375000
v 0.2000000 -0.4000000 0.0000000
v 0.4000000 -0.4000000 0.0000000
v 0.3925500 -0.4000000 0.0375000
v 0.0375033 -0.4000000 0.1925425
v 0.0765467 -0.4000000 0.1847575
v 0.0765467 -0.1000000 0.1847575
v 0.0375033 -0.1000000 0.1925425
v 0.0375000 -0.2851900 0.3773300
v 0.0375000 -0.4000000 0.3925500
v 0.0375000 -0.4000000 0.1925500
v 0.0375000 -0.1878700 0.3339700
v 0.0375000 -0.2851900 0.3773300
v 0.0375000 -0.4000000 0.1925500
v 0.0375000 -0.1228300 0.2690900
v 0.0375000 -0.1878700 0.3339700
v 0.0375000 -0.4000000 0.1925500
v 0.0375000 -0.1000000 0.1925500
v 0.0375000 -0.1228300 0.2690900
v 0.0375000 -0.4000000 0.1925500
v 0.0375000 -0.4000000 0.3925500
v 0.0000000 -0.4000000 0.4000000
v 0.0000000 -0.4000000 0.2000000
v 0.0375000 -0.4000000 0.1925500
v 0.2765400 -0.1228300 0.0000000
v 0.2555000 -0.1228300 0.1058400
v 0.1847800 -0.1000000 0.0765400
v 0.2000000 -0.1000000 0.0000000
v 0.3414200 -0.1878700 0.0000000
v 0.3154400 -0.1878700 0.1306600
v 0.2555000 -0.1228300 0.1058400
v 0.2765400 -0.1228300 0.0000000
v 0.3847800 -0.2851900 0.0000000
v 0.3555000 -0.2851900 0.1472600
v 0.3154400 -0.1878700 0.1306600
v 0.3414200 -0.1878700 0.0000000
v 0.4000000 -0.4000000 0.0000000
v 0.3695600 -0.4000000 0.1530800
v 0.3555000 -0.2851900 0.1472600
v 0.3847800 -0.2851900 0.0000000
v 0.2555000 -0.1228300 0.1058400
v 0.1955400 -0.1228300 0.1955400
v 0.1414200 -0.1000000 0.1414200
v 0.1847800 -0.1000000 0.0765400
v 0.3154400 -0.1878700 0.1306600
v 0.2414200 -0.1878700 0.2414200
v 0.1955400 -0.1228300 0.1955400
v 0.2555000 -0.1228300 0.1058400
v 0.3555000 -0.2851900 0.1472600
v 0.2720800 -0.2851900 0.2720800
v 0.2414200 -0.1878700 0.2414200
v 0.3154400 -0.1878700 0.1306600
v 0.3695600 -0.4000000 0.1530800
v 0.2828400 -0.4000000 0.2828400
v 0.2720800 -0.2851900 0.2720800
v 0.3555000 -0.2851900 0.1472600
v 0.1955400 -0.1228300 0.1955400
v 0.1058400 -0.1228300 0.2555000
v 0.0765400 -0.1000000 0.1847800
v 0.1414200 -0.1000000 0.1414200
v 0.2414200 -0.1878700 0.2414200
v 0.1306600 -0.1878700 0.3154400
v 0.1058400 -0.1228300 0.2555000
v 0.1955400 -0.1228300 0.1955400
v 0.2720800 -0.2851900 0.2720800
v 0.1472600 -0.2851900 0.3555000
v 0.1306600 -0.1878700 0.3154400
v 0.2414200 -0.1878700 0.2414200
v 0.2828400 -0.4000000 0.2828400
v 0.1530800 -0.4000000 0.3695600
v 0.1472600 -0.2851900 0.3555000
v 0.2720800 -0.2851900 0.2720800
v 0.1058400 -0.1228300 0.2555000
v 0.0000000 -0.1228300 0.2765400
v 0.0000000 -0.1000000 0.2000000
v 0.0765400 -0.1000000 0.1847800
v 0.1306600 -0.1878700 0.3154400
v 0.0000000 -0.1878700 0.3414200
v 0.0000000 -0.1228300 0.2765400
v 0.1058400 -0.1228300 0.2555000
v 0.1472600 -0.2851900 0.3555000
v 0.0000000 -0.2851900 0.3847800
v 0.0000000 -0.1878700 0.3414200
v 0.1306600 -0.1878700 0.3154400
v 0.1530800 -0.4000000 0.3695600
v 0.0000000 -0.4000000 0.4000000
v 0.0000000 -0.2851900 0.3847800
v 0.1472600 -0.2851900 0.3555000
v 0.1913395 -0.6000000 0.4619361
v 0.0000031 -0.6000000 0.5000131
v -0.1913425 -0.6000000 0.4619400
v 0.1913425 -0.6000000 0.4619400
v -0.1913395 -0.6000000 0.4619360
v -0.2840000 -0.6000000 0.4000000
v 0.2840000 -0.6000000 0.4000000
v -0.2840000 -0.6000000 0.4000000
v -0.2840000 -0.5000000 0.4000000
v 0.0000000 -0.5000000 0.4000000
v 0.2840000 -0.6000000 0.4000000
v 0.1913425 -0.6000000 0.4619400
v 0.1913425 -0.5000000 0.4619400
v -0.0000031 -0.5000000 0.5000131
v -0.0000031 -0.6000000 0.5000131
v -0.0000031 -0.6000000 0.5000131
v -0.0000031 -0.5000000 0.5000131
v -0.1913395 -0.5000000 0.4619361
v -0.1913395 -0.6000000 0.4619361
v -0.1913395 -0.6000000 0.4619360
v -0.1913395 -0.5000000 0.4619360
v -0.2840000 -0.5000000 0.4000000
v -0.2840000 -0.6000000 0.4000000
v -0.4000000 -0.5000000 0.0000000
v -0.4000000 -0.5000000 0.2840000
v -0.4000000 -0.6000000 0.2840000
v -0.4000000 -0.5000000 0.2840000
v -0.4619500 -0.5000000 0.1913500
v -0.4619500 -0.6000000 0.1913500
v -0.4000000 -0.6000000 0.2840000
v 0.0000000 -0.5000000 0.4000000
v -0.2840000 -0.5000000 0.4000000
v -0.1530800 -0.5000000 0.3695600
v -0.1530800 -0.5000000 0.3695600
v -0.2840000 -0.5000000 0.4000000
v -0.3535000 -0.5000000 0.3535000
v -0.2828400 -0.5000000 0.2828400
v -0.3695600 -0.5000000 0.1530800
v -0.2828400 -0.5000000 0.2828400
v -0.3535000 -0.5000000 0.3535000
v -0.4000000 -0.5000000 0.2840000
v -0.4000000 -0.5000000 0.0000000
v -0.3695600 -0.5000000 0.1530800
v -0.4000000 -0.5000000 0.2840000
v -0.0765250 -0.4000000 0.1847750
v -0.0765250 -0.1000000 0.1847750
v -0.1414148 -0.1000000 0.1414275
v -0.1414148 -0.4000000 0.1414275
v -0.1414148 -0.4000000 0.1414275
v -0.1414148 -0.1000000 0.1414275
v -0.1847652 -0.1000000 0.0765436
v -0.1847652 -0.4000000 0.0765436
v -0.0765250 -0.1000000 0.1847750
v -0.0765250 -0.4000000 0.1847750
v -0.0375000 -0.4000000 0.1925500
v -0.0375000 -0.1000000 0.1925500
v -0.0375000 -0.4000000 0.1925500
v -0.0375000 -0.4000000 0.3925500
v -0.0375000 -0.2851900 0.3773300
v -0.0375000 -0.4000000 0.1925500
v -0.0375000 -0.2851900 0.3773300
v -0.0375000 -0.1878700 0.3339700
v -0.0375000 -0.4000000 0.1925500
v -0.0375000 -0.1878700 0.3339700
v -0.0375000 -0.1228300 0.2690900
v -0.0375000 -0.4000000 0.1925500
v -0.0375000 -0.1228300 0.2690900
v -0.0375000 -0.1000000 0.1925500
v -0.0375000 -0.4000000 0.1925500
v 0.0000000 -0.4000000 0.2000000
v 0.0000000 -0.4000000 0.4000000
v -0.0375000 -0.4000000 0.3925500
v -0.1925425 -0.4000000 0.0375033
v -0.1847575 -0.4000000 0.0765467
v -0.1847575 -0.1000000 0.0765467
v -0.1925425 -0.1000000 0.0375033
v -0.3773300 -0.2851900 0.0375000
v -0.3925500 -0.4000000 0.0375000
v -0.1925500 -0.4000000 0.0375000
v -0.3339700 -0.1878700 0.0375000
v -0.3773300 -0.2851900 0.0375000
v -0.1925500 -0.4000000 0.0375000
v -0.2690900 -0.1228300 0.0375000
v -0.3339700 -0.1878700 0.0375000
v -0.1925500 -0.4000000 0.0375000
v -0.1925500 -0.1000000 0.0375000
v -0.2690900 -0.1228300 0.0375000
v -0.1925500 -0.4000000 0.0375000
v -0.3925500 -0.4000000 0.0375000
v -0.4000000 -0.4000000 0.0000000
v -0.2000000 -0.4000000 0.0000000
v -0.1925500 -0.4000000 0.0375000
v 0.0000000 -0.1228300 0.2765400
v -0.1058400 -0.1228300 0.2555000
v -0.0765400 -0.1000000 0.1847800
v 0.0000000 -0.1000000 0.2000000
v 0.0000000 -0.1878700 0.3414200
v -0.1306600 -0.1878700 0.3154400
v -0.1058400 -0.1228300 0.2555000
v 0.0000000 -0.1228300 0.2765400
v 0.0000000 -0.2851900 0.3847800
v -0.1472600 -0.2851900 0.3555000
v -0.1306600 -0.1878700 0.3154400
v 0.0000000 -0.1878700 0.3414200
v 0.0000000 -0.4000000 0.4000000
v -0.1530800 -0.4000000 0.3695600
v -0.1472600 -0.2851900 0.3555000
v 0.0000000 -0.2851900 0.3847800
v -0.1058400 -0.1228300 0.2555000
v -0.1955400 -0.1228300 0.1955400
v -0.1414200 -0.1000000 0.1414200
v -0.0765400 -0.1000000 0.1847800
v -0.1306600 -0.1878700 0.3154400
v -0.2414200 -0.1878700 0.2414200
v -0.1955400 -0.1228300 0.1955400
v -0.1058400 -0.1228300 0.2555000
v -0.1472600 -0.2851900 0.3555000
v -0.2720800 -0.2851900 0.2720800
v -0.2414200 -0.1878700 0.2414200
v -0.1306600 -0.1878700 0.3154400
v -0.1530800 -0.4000000 0.3695600
v -0.2828400 -0.4000000 0.2828400
v -0.2720800 -0.2851900 0.2720800
v -0.1472600 -0.2851900 0.3555000
v -0.1955400 -0.1228300 0.1955400
v -0.2555000 -0.1228300 0.1058400
v -0.1847800 -0.1000000 0.0765400
v -0.1414200 -0.1000000 0.1414200
v -0.2414200 -0.1878700 0.2414200
v -0.3154400 -0.1878700 0.1306600
v -0.2555000 -0.1228300 0.1058400
v -0.1955400 -0.1228300 0.1955400
v -0.2720800 -0.2851900 0.2720800
v -0.3555000 -0.2851900 0.1472600
v -0.3154400 -0.1878700 0.1306600
v -0.2414200 -0.1878700 0.2414200
v -0.2828400 -0.4000000 0.2828400
v -0.3695600 -0.4000000 0.1530800
v -0.3555000 -0.2851900 0.1472600
v -0.2720800 -0.2851900 0.2720800
v -0.2555000 -0.1228300 0.1058400
v -0.2765400 -0.1228300 0.0000000
v -0.2000000 -0.1000000 0.0000000
v -0.1847800 -0.1000000 0.0765400
v -0.3154400 -0.1878700 0.1306600
v -0.3414200 -0.1878700 0.0000000
v -0.2765400 -0.1228300 0.0000000
v -0.2555000 -0.1228300 0.1058400
v -0.3555000 -0.2851900 0.1472600
v -0.3847800 -0.2851900 0.0000000
v -0.3414200 -0.1878700 0.0000000
v -0.3154400 -0.1878700 0.1306600
v -0.3695600 -0.4000000 0.1530800
v -0.4000000 -0.4000000 0.0000000
v -0.3847800 -0.2851900 0.0000000
v -0.3555000 -0.2851900 0.1472600
v -0.4619361 -0.6000000 0.1913395
v -0.5000131 -0.6000000 0.0000031
v -0.4619400 -0.6000000 -0.1913425
v -0.4619400 -0.6000000 0.1913425
v -0.4619360 -0.6000000 -0.1913395
v -0.4000000 -0.6000000 -0.2840000
v -0.4000000 -0.6000000 0.2840000
v -0.4000000 -0.6000000 -0.2840000
v -0.4000000 -0.5000000 -0.2840000
v -0.4000000 -0.5000000 0.0000000
v -0.4000000 -0.6000000 0.2840000
v -0.4619400 -0.6000000 0.1913425
v -0.4619400 -0.5000000 0.1913425
v -0.5000131 -0.5000000 -0.0000031
v -0.5000131 -0.6000000 -0.0000031
v -0.5000131 -0.6000000 -0.0000031
v -0.5000131 -0.5000000 -0.0000031
v -0.4619361 -0.5000000 -0.1913395
v -0.4619361 -0.6000000 -0.1913395
v -0.4619360 -0.6000000 -0.1913395
v -0.4619360 -0.5000000 -0.1913395
v -0.4000000 -0.5000000 -0.2840000
v -0.4000000 -0.6000000 -0.2840000
v 0.0000000 -0.5000000 -0.4000000
v -0.2840000 -0.5000000 -0.4000000
v -0.2840000 -0.6000000 -0.4000000
v -0.2840000 -0.5000000 -0.4000000
v -0.1913500 -0.5000000 -0.4619500
v -0.1913500 -0.6000000 -0.4619500
v -0.2840000 -0.6000000 -0.4000000
v -0.4000000 -0.5000000 0.0000000
v -0.4000000 -0.5000000 -0.2840000
v -0.3695600 -0.5000000 -0.1530800
v -0.3695600 -0.5000000 -0.1530800
v -0.4000000 -0.5000000 -0.2840000
v -0.3535000 -0.5000000 -0.3535000
v -0.2828400 -0.5000000 -0.2828400
v -0.1530800 -0.5000000 -0.3695600
v -0.2828400 -0.5000000 -0.2828400
v -0.3535000 -0.5000000 -0.3535000
v -0.2840000 -0.5000000 -0.4000000
v 0.0000000 -0.5000000 -0.4000000
v -0.1530800 -0.5000000 -0.3695600
v -0.2840000 -0.5000000 -0.4000000
v -0.1847750 -0.4000000 -0.0765250
v -0.1847750 -0.1000000 -0.0765250
v -0.1414275 -0.1000000 -0.1414148
v -0.1414275 -0.4000000 -0.1414148
v -0.1414275 -0.4000000 -0.1414148
v -0.1414275 -0.1000000 -0.1414148
v -0.0765436 -0.1000000 -0.1847652
v -0.0765436 -0.4000000 -0.1847652
v -0.1847750 -0.1000000 -0.0765250
v -0.1847750 -0.4000000 -0.0765250
v -0.1925500 -0.4000000 -0.0375000
v -0.1925500 -0.1000000 -0.0375000
v -0.1925500 -0.4000000 -0.0375000
v -0.3925500 -0.4000000 -0.0375000
v -0.3773300 -0.2851900 -0.0375000
v -0.1925500 -0.4000000 -0.0375000
v -0.3773300 -0.2851900 -0.0375000
v -0.3339700 -0.1878700 -0.0375000
v -0.1925500 -0.4000000 -0.0375000
v -0.3339700 -0.1878700 -0.0375000
v -0.2690900 -0.1228300 -0.0375000
v -0.1925500 -0.4000000 -0.0375000
v -0.2690900 -0.1228300 -0.0375000
v -0.1925500 -0.1000000 -0.0375000
v -0.1925500 -0.4000000 -0.0375000
v -0.2000000 -0.4000000 0.0000000
v -0.4000000 -0.4000000 0.0000000
v -0.3925500 -0.4000000 -0.0375000
v -0.0375033 -0.4000000 -0.1925425
v -0.0765467 -0.4000000 -0.1847575
v -0.0765467 -0.1000000 -0.1847575
v -0.0375033 -0.1000000 -0.1925425
v -0.0375000 -0.2851900 -0.3773300
v -0.0375000 -0.4000000 -0.3925500
v -0.0375000 -0.4000000 -0.1925500
v -0.0375000 -0.1878700 -0.3339700
v -0.0375000 -0.2851900 -0.3773300
v -0.0375000 -0.4000000 -0.1925500
v -0.0375000 -0.1228300 -0.2690900
v -0.0375000 -0.1878700 -0.3339700
v -0.0375000 -0.4000000 -0.1925500
v -0.0375000 -0.1000000 -0.1925500
v -0.0375000 -0.1228300 -0.2690900
v -0.0375000 -0.4000000 -0.1925500
v -0.0375000 -0.4000000 -0.3925500
v 0.0000000 -0.4000000 -0.4000000
v 0.0000000 -0.4000000 -0.2000000
v -0.0375000 -0.4000000 -0.1925500
v -0.2765400 -0.1228300 0.0000000
v -0.2555000 -0.1228300 -0.1058400
v -0.1847800 -0.1000000 -0.0765400
v -0.2000000 -0.1000000 0.0000000
v -0.3414200 -0.1878700 0.0000000
v -0.3154400 -0.1878700 -0.1306600
v -0.2555000 -0.1228300 -0.1058400
v -0.2765400 -0.1228300 0.0000000
v -0.3847800 -0.2851900 0.0000000
v -0.3555000 -0.2851900 -0.1472600
v -0.3154400 -0.1878700 -0.1306600
v -0.3414200 -0.1878700 0.0000000
v -0.4000000 -0.4000000 0.0000000
v -0.3695600 -0.4000000 -0.1530800
v -0.3555000 -0.2851900 -0.1472600
v -0.3847800 -0.2851900 0.0000000
v -0.2555000 -0.1228300 -0.1058400
v -0.1955400 -0.1228300 -0.1955400
v -0.1414200 -0.1000000 -0.1414200
v -0.1847800 -0.1000000 -0.0765400
v -0.3154400 -0.1878700 -0.1306600
v -0.2414200 -0.1878700 -0.2414200
v -0.1955400 -0.1228300 -0.1955400
v -0.2555000 -0.1228300 -0.1058400
v -0.3555000 -0.2851900 -0.1472600
v -0.2720800 -0.2851900 -0.2720800
v -0.2414200 -0.1878700 -0.2414200
v -0.3154400 -0.1878700 -0.1306600
v -0.3695600 -0.4000000 -0.1530800
v -0.2828400 -0.4000000 -0.2828400
v -0.2720800 -0.2851900 -0.2720800
v -0.3555000 -0.2851900 -0.1472600
v -0.1955400 -0.1228300 -0.1955400
v -0.1058400 -0.1228300 -0.2555000
v -0.0765400 -0.1000000 -0.1847800
v -0.1414200 -0.1000000 -0.1414200
v -0.2414200 -0.1878700 -0.2414200
v -0.1306600 -0.1878700 -0.3154400
v -0.1058400 -0.1228300 -0.2555000
v -0.1955400 -0.1228300 -0.1955400
v -0.2720800 -0.2851900 -0.2720800
v -0.1472600 -0.2851900 -0.3555000
v -0.1306600 -0.1878700 -0.3154400
v -0.2414200 -0.1878700 -0.2414200
v -0.2828400 -0.4000000 -0.2828400
v -0.1530800 -0.4000000 -0.3695600
v -0.1472600 -0.2851900 -0.3555000
v -0.2720800 -0.2851900 -0.2720800
v -0.1058400 -0.1228300 -0.2555000
v 0.0000000 -0.1228300 -0.2765400
v 0.0000000 -0.1000000 -0.2000000
v -0.0765400 -0.1000000 -0.1847800
v -0.1306600 -0.1878700 -0.3154400
v 0.0000000 -0.1878700 -0.3414200
v 0.0000000 -0.1228300 -0.2765400
v -0.1058400 -0.1228300 -0.2555000
v -0.1472600 -0.2851900 -0.3555000
v 0.0000000 -0.2851900 -0.3847800
v 0.0000000 -0.1878700 -0.3414200
v -0.1306600 -0.1878700 -0.3154400
v -0.1530800 -0.4000000 -0.3695600
v 0.0000000 -0.4000000 -0.4000000
v 0.0000000 -0.2851900 -0.3847800
v -0.1472600 -0.2851900 -0.3555000
v -0.1913395 -0.6000000 -0.4619361
v -0.0000031 -0.6000000 -0.5000131
v 0.1913425 -0.6000000 -0.4619400
v -0.1913425 -0.6000000 -0.4619400
v 0.1913395 -0.6000000 -0.4619360
v 0.2840000 -0.6000000 -0.4000000
v -0.2840000 -0.6000000 -0.4000000
v 0.2840000 -0.6000000 -0.4000000
v 0.2840000 -0.5000000 -0.4000000
v 0.0000000 -0.5000000 -0.4000000
v -0.2840000 -0.6000000 -0.4000000
v -0.1913425 -0.6000000 -0.4619400
v -0.1913425 -0.5000000 -0.4619400
v 0.0000031 -0.5000000 -0.5000131
v 0.0000031 -0.6000000 -0.5000131
v 0.0000031 -0.6000000 -0.5000131
v 0.0000031 -0.5000000 -0.5000131
v 0.1913395 -0.5000000 -0.4619361
v 0.1913395 -0.6000000 -0.4619361
v 0.1913395 -0.6000000 -0.4619360
v 0.1913395 -0.5000000 -0.4619360
v 0.2840000 -0.5000000 -0.4000000
v 0.2840000 -0.6000000 -0.4000000
v 0.4000000 -0.5000000 0.0000000
v 0.4000000 -0.5000000 -0.2840000
v 0.4000000 -0.6000000 -0.2840000
v 0.4000000 -0.5000000 -0.2840000
v 0.4619500 -0.5000000 -0.1913500
v 0.4619500 -0.6000000 -0.1913500
v 0.4000000 -0.6000000 -0.2840000
v 0.0000000 -0.5000000 -0.4000000
v 0.2840000 -0.5000000 -0.4000000
v 0.1530800 -0.5000000 -0.3695600
v 0.1530800 -0.5000000 -0.3695600
v 0.2840000 -0.5000000 -0.4000000
v 0.3535000 -0.5000000 -0.3535000
v 0.2828400 -0.5000000 -0.2828400
v 0.3695600 -0.5000000 -0.1530800
v 0.2828400 -0.5000000 -0.2828400
v 0.3535000 -0.5000000 -0.3535000
v 0.4000000 -0.5000000 -0.2840000
v 0.4000000 -0.5000000 0.0000000
v 0.3695600 -0.5000000 -0.1530800
v 0.4000000 -0.5000000 -0.2840000
v 0.0765250 -0.4000000 -0.1847750
v 0.0765250 -0.1000000 -0.1847750
v 0.1414148 -0.1000000 -0.1414275
v 0.1414148 -0.4000000 -0.1414275
v 0.1414148 -0.4000000 -0.1414275
v 0.1414148 -0.1000000 -0.1414275
v 0.1847652 -0.1000000 -0.0765436
v 0.1847652 -0.4000000 -0.0765436
v 0.0765250 -0.1000000 -0.1847750
v 0.0765250 -0.4000000 -0.1847750
v 0.0375000 -0.4000000 -0.1925500
v 0.0375000 -0.1000000 -0.1925500
v 0.0375000 -0.4000000 -0.1925500
v 0.0375000 -0.4000000 -0.3925500
v 0.0375000 -0.2851900 -0.3773300
v 0.0375000 -0.4000000 -0.1925500
v 0.0375000 -0.2851900 -0.3773300
v 0.0375000 -0.1878700 -0.3339700
v 0.0375000 -0.4000000 -0.1925500
v 0.0375000 -0.1878700 -0.3339700
v 0.0375000 -0.1228300 -0.2690900
v 0.0375000 -0.4000000 -0.1925500
v 0.0375000 -0.1228300 -0.2690900
v 0.0375000 -0.1000000 -0.1925500
v 0.0375000 -0.4000000 -0.1925500
v 0.0000000 -0.4000000 -0.2000000
v 0.0000000 -0.4000000 -0.4000000
v 0.0375000 -0.4000000 -0.3925500
v 0.1925425 -0.4000000 -0.0375033
v 0.1847575 -0.4000000 -0.0765467
v 0.1847575 -0.1000000 -0.0765467
v 0.1925425 -0.1000000 -0.0375033
v 0.3773300 -0.2851900 -0.0375000
v 0.3925500 -0.4000000 -0.0375000
v 0.1925500 -0.4000000 -0.0375000
v 0.3339700 -0.1878700 -0.0375000
v 0.3773300 -0.2851900 -0.0375000
v 0.1925500 -0.4000000 -0.0375000
v 0.2690900 -0.1228300 -0.0375000
v 0.3339700 -0.1878700 -0.0375000
v 0.1925500 -0.4000000 -0.0375000
v 0.1925500 -0.1000000 -0.0375000
v 0.2690900 -0.1228300 -0.0375000
v 0.1925500 -0.4000000 -0.0375000
v 0.3925500 -0.4000000 -0.0375000
v 0.4000000 -0.4000000 0.0000000
v 0.2000000 -0.4000000 0.0000000
v 0.1925500 -0.4000000 -0.0375000
v 0.0000000 -0.1228300 -0.2765400
v 0.1058400 -0.1228300 -0.2555000
v 0.0765400 -0.1000000 -0.1847800
v 0.0000000 -0.1000000 -0.2000000
v 0.0000000 -0.1878700 -0.3414200
v 0.1306600 -0.1878700 -0.3154400
v 0.1058400 -0.1228300 -0.2555000
v 0.0000000 -0.1228300 -0.2765400
v 0.0000000 -0.2851900 -0.3847800
v 0.1472600 -0.2851900 -0.3555000
v 0.1306600 -0.1878700 -0.3154400
v 0.0000000 -0.1878700 -0.3414200
v 0.0000000 -0.4000000 -0.4000000
v 0.1530800 -0.4000000 -0.3695600
v 0.1472600 -0.2851900 -0.3555000
v 0.0000000 -0.2851900 -0.3847800
v 0.1058400 -0.1228300 -0.2555000
v 0.1955400 -0.1228300 -0.1955400
v 0.1414200 -0.1000000 -0.1414200
v 0.0765400 -0.1000000 -0.1847800
v 0.1306600 -0.1878700 -0.3154400
v 0.2414200 -0.1878700 -0.2414200
v 0.1955400 -0.1228300 -0.1955400
v 0.1058400 -0.1228300 -0.2555000
v 0.1472600 -0.2851900 -0.3555000
v 0.2720800 -0.2851900 -0.2720800
v 0.2414200 -0.1878700 -0.2414200
v 0.1306600 -0.1878700 -0.3154400
v 0.1530800 -0.4000000 -0.3695600
v 0.2828400 -0.4000000 -0.2828400
v 0.2720800 -0.2851900 -0.2720800
v 0.1472600 -0.2851900 -0.3555000
v 0.1955400 -0.1228300 -0.1955400
v 0.2555000 -0.1228300 -0.1058400
v 0.1847800 -0.1000000 -0.0765400
v 0.1414200 -0.1000000 -0.1414200
v 0.2414200 -0.1878700 -0.2414200
v 0.3154400 -0.1878700 -0.1306600
v 0.2555000 -0.1228300 -0.1058400
v 0.1955400 -0.1228300 -0.1955400
v 0.2720800 -0.2851900 -0.2720800
v 0.3555000 -0.2851900 -0.1472600
v 0.3154400 -0.1878700 -0.1306600
v 0.2414200 -0.1878700 -0.2414200
v 0.2828400 -0.4000000 -0.2828400
v 0.3695600 -0.4000000 -0.1530800
v 0.3555000 -0.2851900 -0.1472600
v 0.2720800 -0.2851900 -0.2720800
v 0.2555000 -0.1228300 -0.1058400
v 0.2765400 -0.1228300 0.0000000
v 0.2000000 -0.1000000 0.0000000
v 0.1847800 -0.1000000 -0.0765400
v 0.3154400 -0.1878700 -0.1306600
v 0.3414200 -0.1878700 0.0000000
v 0.2765400 -0.1228300 0.0000000
v 0.2555000 -0.1228300 -0.1058400
v 0.3555000 -0.2851900 -0.1472600
v 0.3847800 -0.2851900 0.0000000
v 0.3414200 -0.1878700 0.0000000
v 0.3154400 -0.1878700 -0.1306600
v 0.3695600 -0.4000000 -0.1530800
v 0.4000000 -0.4000000 0.0000000
v 0.3847800 -0.2851900 0.0000000
v 0.3555000 -0.2851900 -0.1472600
v 0.0250000 -0.1000000 0.0144250
v 0.0250000 -0.1000000 0.0950250
v 0.0000000 -0.1000000 0.1000000
v 0.0000000 -0.1000000 0.0000000
v 0.0000000 -0.1000000 0.1000000
v -0.0250000 -0.1000000 0.0950250
v -0.0250000 -0.1000000 0.0144250
v 0.0000000 -0.1000000 0.0000000
v -0.0250000 -0.1000000 0.0144250
v -0.0948500 -0.1000000 -0.0259000
v -0.0923875 -0.1000000 -0.0382675
v 0.0000000 -0.1000000 0.0000000
v -0.0923875 -0.1000000 -0.0382675
v -0.0707100 -0.1000000 -0.0707100
v 0.0000000 -0.1000000 -0.0288625
v 0.0000000 -0.1000000 0.0000000
v 0.0000000 -0.1000000 -0.0288625
v 0.0707100 -0.1000000 -0.0707100
v 0.0923875 -0.1000000 -0.0382675
v 0.0000000 -0.1000000 0.0000000
v 0.0923875 -0.1000000 -0.0382675
v 0.0948500 -0.1000000 -0.0259000
v 0.0250000 -0.1000000 0.0144250
v 0.0000000 -0.1000000 0.0000000
v 0.0250000 -0.0000000 0.0144250
v 0.0250000 -0.0000000 0.0950250
v 0.0250000 -0.1000000 0.0950250
v 0.0250000 -0.1000000 0.0144250
v 0.0250000 -0.0000000 0.0144250
v 0.0250000 -0.1000000 0.0144250
v 0.0948500 -0.1000000 -0.0259000
v 0.0948500 -0.0000000 -0.0259000
v -0.0250000 -0.1000000 0.0144250
v -0.0250000 -0.1000000 0.0950250
v -0.0250000 -0.0000000 0.0950250
v -0.0250000 -0.0000000 0.0144250
v -0.0250000 -0.1000000 0.0144250
v -0.0250000 -0.0000000 0.0144250
v -0.0948500 -0.0000000 -0.0259000
v -0.0948500 -0.1000000 -0.0259000
v 0.0000000 -0.0000000 -0.0288625
v 0.0707100 -0.0000000 -0.0707100
v 0.0707100 -0.1000000 -0.0707100
v 0.0000000 -0.1000000 -0.0288625
v 0.0000000 -0.0000000 -0.0288625
v 0.0000000 -0.1000000 -0.0288625
v -0.0707100 -0.1000000 -0.0707100
v -0.0707100 -0.0000000 -0.0707100
v 0.0923900 -0.1000000 0.0382700
v 0.0923900 -0.0000000 0.0382700
v 0.1000000 -0.0000000 0.0000000
v 0.1000000 -0.1000000 0.0000000
v 0.0707100 -0.1000000 0.0707100
v 0.0707100 -0.0000000 0.0707100
v 0.0923900 -0.0000000 0.0382700
v 0.0923900 -0.1000000 0.0382700
v 0.0382700 -0.1000000 0.0923900
v 0.0382700 -0.0000000 0.0923900
v 0.0707100 -0.0000000 0.0707100
v 0.0707100 -0.1000000 0.0707100
v -0.0707120 -0.1000000 0.0707118
v -0.0707120 -0.0000000 0.0707118
v -0.0382675 -0.0000000 0.0923875
v -0.0382675 -0.1000000 0.0923875
v -0.0923862 -0.1000000 0.0382683
v -0.0923862 -0.0000000 0.0382683
v -0.0707120 -0.0000000 0.0707118
v -0.0707120 -0.1000000 0.0707118
v -0.1000018 -0.1000000 0.0000014
v -0.1000018 -0.0000000 0.0000014
v -0.0923862 -0.0000000 0.0382683
v -0.0923862 -0.1000000 0.0382683
v -0.0707100 -0.1000000 -0.0707100
v -0.0382683 -0.1000000 -0.0923897
v -0.0382683 -0.0000000 -0.0923897
v -0.0707100 -0.0000000 -0.0707100
v -0.0382683 -0.1000000 -0.0923897
v 0.0000000 -0.1000000 -0.0999981
v 0.0000000 -0.0000000 -0.0999981
v -0.0382683 -0.0000000 -0.0923897
v 0.0000000 -0.1000000 -0.0999981
v 0.0382683 -0.1000000 -0.0923897
v 0.0382683 -0.0000000 -0.0923897
v 0.0000000 -0.0000000 -0.0999981
v 0.0382683 -0.1000000 -0.0923897
v 0.0707100 -0.1000000 -0.0707100
v 0.0707100 -0.0000000 -0.0707100
v 0.0382683 -0.0000000 -0.0923897
v 0.0250000 -0.0000000 0.0950250
v 0.0382675 -0.0000000 0.0923875
v 0.0382675 -0.1000000 0.0923875
v 0.0250000 -0.1000000 0.0950250
v -0.0250000 -0.1000000 0.0950250
v -0.0382675 -0.1000000 0.0923875
v -0.0382675 -0.0000000 0.0923875
v -0.0250000 -0.0000000 0.0950250
v -0.0948500 -0.0000000 -0.0259000
v -0.1000000 -0.0000000 0.0000000
v -0.1000000 -0.1000000 0.0000000
v -0.0948500 -0.1000000 -0.0259000
v 0.0948500 -0.1000000 -0.0259000
v 0.1000000 -0.1000000 0.0000000
v 0.1000000 -0.0000000 0.0000000
v 0.0948500 -0.0000000 -0.0259000
v 0.0000000 -0.0000000 0.1000000
v 0.0250000 -0.0000000 0.0950250
v 0.0250000 -0.0000000 0.0144250
v 0.0000000 -0.0000000 0.0000000
v -0.0250000 -0.0000000 0.0144250
v -0.0250000 -0.0000000 0.0950250
v 0.0000000 -0.0000000 0.1000000
v 0.0000000 -0.0000000 0.0000000
v -0.0923875 -0.0000000 -0.0382675
v -0.0948500 -0.0000000 -0.0259000
v -0.0250000 -0.0000000 0.0144250
v 0.0000000 -0.0000000 0.0000000
v 0.0000000 -0.0000000 -0.0288625
v -0.0707100 -0.0000000 -0.0707100
v -0.0923875 -0.0000000 -0.0382675
v 0.0000000 -0.0000000 0.0000000
v 0.0923875 -0.0000000 -0.0382675
v 0.0707100 -0.0000000 -0.0707100
v 0.0000000 -0.0000000 -0.0288625
v 0.0000000 -0.0000000 0.0000000
v 0.0250000 -0.0000000 0.0144250
v 0.0948500 -0.0000000 -0.0259000
v 0.0923875 -0.0000000 -0.0382675
v 0.0000000 -0.0000000 0.0000000
v 0.0000000 -0.0000000 0.2000000
v 0.0000000 -0.0000000 0.1500000
v -0.0574050 -0.0000000 0.1385850
v -0.0765400 -0.0000000 0.1847800
v -0.0765400 -0.0000000 0.1847800
v -0.0574050 -0.0000000 0.1385850
v -0.1060650 -0.0000000 0.1060650
v -0.1414200 -0.0000000 0.1414200
v -0.1414200 -0.0000000 0.1414200
v -0.1060650 -0.0000000 0.1060650
v -0.1385850 -0.0000000 0.0574050
v -0.1847800 -0.0000000 0.0765400
v -0.1847800 -0.0000000 0.0765400
v -0.1385850 -0.0000000 0.0574050
v -0.1500000 -0.0000000 0.0000000
v -0.2000000 -0.0000000 0.0000000
v -0.2000000 -0.0000000 0.0000000
v -0.1500000 -0.0000000 0.0000000
v -0.1385850 -0.0000000 -0.0574050
v -0.1847800 -0.0000000 -0.0765400
v -0.1847800 -0.0000000 -0.0765400
v -0.1385850 -0.0000000 -0.0574050
v -0.1060650 -0.0000000 -0.1060650
v -0.1414200 -0.0000000 -0.1414200
v -0.1414200 -0.0000000 -0.1414200
v -0.1060650 -0.0000000 -0.1060650
v -0.0574050 -0.0000000 -0.1385850
v -0.0765400 -0.0000000 -0.1847800
v -0.0765400 -0.0000000 -0.1847800
v -0.0574050 -0.0000000 -0.1385850
v 0.0000000 -0.0000000 -0.1500000
v 0.0000000 -0.0000000 -0.2000000
v 0.0000000 -0.0000000 -0.2000000
v 0.0000000 -0.0000000 -0.1500000
v 0.0574050 -0.0000000 -0.1385850
v 0.0765400 -0.0000000 -0.1847800
v 0.0765400 -0.0000000 -0.1847800
v 0.0574050 -0.0000000 -0.1385850
v 0.1060650 -0.0000000 -0.1060650
v 0.1414200 -0.0000000 -0.1414200
v 0.1414200 -0.0000000 -0.1414200
v 0.1060650 -0.0000000 -0.1060650
v 0.1385850 -0.0000000 -0.0574050
v 0.1847800 -0.0000000 -0.0765400
v 0.1847800 -0.0000000 -0.0765400
v 0.1385850 -0.0000000 -0.0574050
v 0.1500000 -0.0000000 0.0000000
v 0.2000000 -0.0000000 0.0000000
v 0.2000000 -0.0000000 0.0000000
v 0.1500000 -0.0000000 0.0000000
v 0.1385850 -0.0000000 0.0574050
v 0.1847800 -0.0000000 0.0765400
v 0.1847800 -0.0000000 0.0765400
v 0.1385850 -0.0000000 0.0574050
v 0.1060650 -0.0000000 0.1060650
v 0.1414200 -0.0000000 0.1414200
v 0.1414200 -0.0000000 0.1414200
v 0.1060650 -0.0000000 0.1060650
v 0.0574050 -0.0000000 0.1385850
v 0.0765400 -0.0000000 0.1847800
v 0.0765400 -0.0000000 0.1847800
v 0.0574050 -0.0000000 0.1385850
v 0.0000000 -0.0000000 0.1500000
v 0.0000000 -0.0000000 0.2000000
v 0.1000000 -0.0000000 0.0000000
v 0.0923900 -0.0000000 0.0382700
v 0.0923900 0.1000000 0.0382700
v 0.1000000 0.1000000 0.0000000
v 0.0923900 -0.0000000 0.0382700
v 0.0707100 -0.0000000 0.0707100
v 0.0707100 0.1000000 0.0707100
v 0.0923900 0.1000000 0.0382700
v 0.0707100 -0.0000000 0.0707100
v 0.0382700 -0.0000000 0.0923900
v 0.0382700 0.1000000 0.0923900
v 0.0707100 0.1000000 0.0707100
v 0.0382700 -0.0000000 0.0923900
v 0.0000000 -0.0000000 0.1000000
v 0.0000000 0.1000000 0.1000000
v 0.0382700 0.1000000 0.0923900
v 0.0000000 -0.0000000 0.1000000
v -0.0382700 -0.0000000 0.0923900
v -0.0382700 0.1000000 0.0923900
v 0.0000000 0.1000000 0.1000000
v -0.0382700 -0.0000000 0.0923900
v -0.0707100 -0.0000000 0.0707100
v -0.0707100 0.1000000 0.0707100
v -0.0382700 0.1000000 0.0923900
v -0.0707100 -0.0000000 0.0707100
v -0.0923900 -0.0000000 0.0382700
v -0.0923900 0.1000000 0.0382700
v -0.0707100 0.1000000 0.0707100
v -0.0923900 -0.0000000 0.0382700
v -0.1000000 -0.0000000 0.0000000
v -0.1000000 0.1000000 0.0000000
v -0.0923900 0.1000000 0.0382700
v -0.1000000 -0.0000000 0.0000000
v -0.0923900 -0.0000000 -0.0382700
v -0.0923900 0.1000000 -0.0382700
v -0.1000000 0.1000000 0.0000000
v -0.0923900 -0.0000000 -0.0382700
v -0.0707100 -0.0000000 -0.0707100
v -0.0707100 0.1000000 -0.0707100
v -0.0923900 0.1000000 -0.0382700
v -0.0707100 -0.0000000 -0.0707100
v -0.0382700 -0.0000000 -0.0923900
v -0.0382700 0.1000000 -0.0923900
v -0.0707100 0.1000000 -0.0707100
v -0.0382700 -0.0000000 -0.0923900
v 0.0000000 -0.0000000 -0.1000000
v 0.0000000 0.1000000 -0.1000000
v -0.0382700 0.1000000 -0.0923900
v 0.0000000 -0.0000000 -0.1000000
v 0.0382700 -0.0000000 -0.0923900
v 0.0382700 0.1000000 -0.0923900
v 0.0000000 0.1000000 -0.1000000
v 0.0382700 -0.0000000 -0.0923900
v 0.0707100 -0.0000000 -0.0707100
v 0.0707100 0.1000000 -0.0707100
v 0.0382700 0.1000000 -0.0923900
v 0.0707100 -0.0000000 -0.0707100
v 0.0923900 -0.0000000 -0.0382700
v 0.0923900 0.1000000 -0.0382700
v 0.0707100 0.1000000 -0.0707100
v 0.0923900 -0.0000000 -0.0382700
v 0.1000000 -0.0000000 0.0000000
v 0.1000000 0.1000000 0.0000000
v 0.0923900 0.1000000 -0.0382700
v 0.1500000 0.1000000 0.0000000
v 0.1385850 0.1000000 0.0574050
v 0.1385850 -0.0000000 0.0574050
v 0.1500000 -0.0000000 0.0000000
v 0.1385850 0.1000000 0.0574050
v 0.1060650 0.1000000 0.1060650
v 0.1060650 -0.0000000 0.1060650
v 0.1385850 -0.0000000 0.0574050
v 0.1060650 0.1000000 0.1060650
v 0.0574050 0.1000000 0.1385850
v 0.0574050 -0.0000000 0.1385850
v 0.1060650 -0.0000000 0.1060650
v 0.0574050 0.1000000 0.1385850
v 0.0000000 0.1000000 0.1500000
v 0.0000000 -0.0000000 0.1500000
v 0.0574050 -0.0000000 0.1385850
v 0.0000000 0.1000000 0.1500000
v -0.0574050 0.1000000 0.1385850
v -0.0574050 -0.0000000 0.1385850
v 0.0000000 -0.0000000 0.1500000
v -0.0574050 0.1000000 0.1385850
v -0.1060650 0.1000000 0.1060650
v -0.1060650 -0.0000000 0.1060650
v -0.0574050 -0.0000000 0.1385850
v -0.1060650 0.1000000 0.1060650
v -0.1385850 0.1000000 0.0574050
v -0.1385850 -0.0000000 0.0574050
v -0.1060650 -0.0000000 0.1060650
v -0.1385850 0.1000000 0.0574050
v -0.1500000 0.1000000 0.0000000
v -0.1500000 -0.0000000 0.0000000
v -0.1385850 -0.0000000 0.0574050
v -0.1500000 0.1000000 0.0000000
v -0.1385850 0.1000000 -0.0574050
v -0.1385850 -0.0000000 -0.0574050
v -0.1500000 -0.0000000 0.0000000
v -0.1385850 0.1000000 -0.0574050
v -0.1060650 0.1000000 -0.1060650
v -0.1060650 -0.0000000 -0.1060650
v -0.1385850 -0.0000000 -0.0574050
v -0.1060650 0.1000000 -0.1060650
v -0.0574050 0.1000000 -0.1385850
v -0.0574050 -0.0000000 -0.1385850
v -0.1060650 -0.0000000 -0.1060650
v -0.0574050 0.1000000 -0.1385850
v 0.0000000 0.1000000 -0.1500000
v 0.0000000 -0.0000000 -0.1500000
v -0.0574050 -0.0000000 -0.1385850
v 0.0000000 0.1000000 -0.1500000
v 0.0574050 0.1000000 -0.1385850
v 0.0574050 -0.0000000 -0.1385850
v 0.0000000 -0.0000000 -0.1500000
v 0.0574050 0.1000000 -0.1385850
v 0.1060650 0.1000000 -0.1060650
v 0.1060650 -0.0000000 -0.1060650
v 0.0574050 -0.0000000 -0.1385850
v 0.1060650 0.1000000 -0.1060650
v 0.1385850 0.1000000 -0.0574050
v 0.1385850 -0.0000000 -0.0574050
v 0.1060650 -0.0000000 -0.1060650
v 0.1385850 0.1000000 -0.0574050
v 0.1500000 0.1000000 0.0000000
v 0.1500000 -0.0000000 0.0000000
v 0.1385850 -0.0000000 -0.0574050
v 0.0000000 0.1000000 0.1500000
v 0.0000000 0.1000000 0.1000000
v -0.0382700 0.1000000 0.0923900
v -0.0574050 0.1000000 0.1385850
v -0.0574050 0.1000000 0.1385850
v -0.0382700 0.1000000 0.0923900
v -0.0707100 0.1000000 0.0707100
v -0.1060650 0.1000000 0.1060650
v -0.1060650 0.1000000 0.1060650
v -0.0707100 0.1000000 0.0707100
v -0.0923900 0.1000000 0.0382700
v -0.1385850 0.1000000 0.0574050
v -0.1385850 0.1000000 0.0574050
v -0.0923900 0.1000000 0.0382700
v -0.1000000 0.1000000 0.0000000
v -0.1500000 0.1000000 0.0000000
v -0.1500000 0.1000000 0.0000000
v -0.1000000 0.1000000 0.0000000
v -0.0923900 0.1000000 -0.0382700
v -0.1385850 0.1000000 -0.0574050
v -0.1385850 0.1000000 -0.0574050
v -0.0923900 0.1000000 -0.0382700
v -0.0707100 0.1000000 -0.0707100
v -0.1060650 0.1000000 -0.1060650
v -0.1060650 0.1000000 -0.1060650
v -0.0707100 0.1000000 -0.0707100
v -0.0382700 0.1000000 -0.0923900
v -0.0574050 0.1000000 -0.1385850
v -0.0574050 0.1000000 -0.1385850
v -0.0382700 0.1000000 -0.0923900
v 0.0000000 0.1000000 -0.1000000
v 0.0000000 0.1000000 -0.1500000
v 0.0000000 0.1000000 -0.1500000
v 0.0000000 0.1000000 -0.1000000
v 0.0382700 0.1000000 -0.0923900
v 0.0574050 0.1000000 -0.1385850
v 0.0574050 0.1000000 -0.1385850
v 0.0382700 0.1000000 -0.0923900
v 0.0707100 0.1000000 -0.0707100
v 0.1060650 0.1000000 -0.1060650
v 0.1060650 0.1000000 -0.1060650
v 0.0707100 0.1000000 -0.0707100
v 0.0923900 0.1000000 -0.0382700
v 0.1385850 0.1000000 -0.0574050
v 0.1385850 0.1000000 -0.0574050
v 0.0923900 0.1000000 -0.0382700
v 0.1000000 0.1000000 0.0000000
v 0.1500000 0.1000000 0.0000000
v 0.1500000 0.1000000 0.0000000
v 0.1000000 0.1000000 0.0000000
v 0.0923900 0.1000000 0.0382700
v 0.1385850 0.1000000 0.0574050
v 0.1385850 0.1000000 0.0574050
v 0.0923900 0.1000000 0.0382700
v 0.0707100 0.1000000 0.0707100
v 0.1060650 0.1000000 0.1060650
v 0.1060650 0.1000000 0.1060650
v 0.0707100 0.1000000 0.0707100
v 0.0382700 0.1000000 0.0923900
v 0.0574050 0.1000000 0.1385850
v 0.0574050 0.1000000 0.1385850
v 0.0382700 0.1000000 0.0923900
v 0.0000000 0.1000000 0.1000000
v 0.0000000 0.1000000 0.1500000
v 0.3148200 -0.0304151 0.0000000
v 0.2908600 -0.0304151 -0.1204800
v 0.1847800 0.0000125 -0.0765400
v 0.2000000 0.0000125 0.0000000
v 0.4121400 -0.1171378 0.0000000
v 0.3807600 -0.1171378 -0.1577200
v 0.2908600 -0.0304151 -0.1204800
v 0.3148200 -0.0304151 0.0000000
v 0.4771800 -0.2469019 0.0000000
v 0.4408600 -0.2469019 -0.1826200
v 0.3807600 -0.1171378 -0.1577200
v 0.4121400 -0.1171378 0.0000000
v 0.5000000 -0.4000000 0.0000000
v 0.4619600 -0.4000000 -0.1913600
v 0.4408600 -0.2469019 -0.1826200
v 0.4771800 -0.2469019 0.0000000
v 0.2908600 -0.0304151 -0.1204800
v 0.2226000 -0.0304151 -0.2226000
v 0.1414200 0.0000125 -0.1414200
v 0.1847800 0.0000125 -0.0765400
v 0.3807600 -0.1171378 -0.1577200
v 0.2914200 -0.1171378 -0.2914200
v 0.2226000 -0.0304151 -0.2226000
v 0.2908600 -0.0304151 -0.1204800
v 0.4408600 -0.2469019 -0.1826200
v 0.3374000 -0.2469019 -0.3374000
v 0.2914200 -0.1171378 -0.2914200
v 0.3807600 -0.1171378 -0.1577200
v 0.4619600 -0.4000000 -0.1913600
v 0.3535600 -0.4000000 -0.3535600
v 0.3374000 -0.2469019 -0.3374000
v 0.4408600 -0.2469019 -0.1826200
v 0.2226000 -0.0304151 -0.2226000
v 0.1204800 -0.0304151 -0.2908600
v 0.0765400 0.0000125 -0.1847800
v 0.1414200 0.0000125 -0.1414200
v 0.2914200 -0.1171378 -0.2914200
v 0.1577200 -0.1171378 -0.3807600
v 0.1204800 -0.0304151 -0.2908600
v 0.2226000 -0.0304151 -0.2226000
v 0.3374000 -0.2469019 -0.3374000
v 0.1826200 -0.2469019 -0.4408600
v 0.1577200 -0.1171378 -0.3807600
v 0.2914200 -0.1171378 -0.2914200
v 0.3535600 -0.4000000 -0.3535600
v 0.1913600 -0.4000000 -0.4619600
v 0.1826200 -0.2469019 -0.4408600
v 0.3374000 -0.2469019 -0.3374000
v 0.1204800 -0.0304151 -0.2908600
v 0.0000000 -0.0304151 -0.3148200
v 0.0000000 0.0000125 -0.2000000
v 0.0765400 0.0000125 -0.1847800
v 0.1577200 -0.1171378 -0.3807600
v 0.0000000 -0.1171378 -0.4121400
v 0.0000000 -0.0304151 -0.3148200
v 0.1204800 -0.0304151 -0.2908600
v 0.1826200 -0.2469019 -0.4408600
v 0.0000000 -0.2469019 -0.4771800
v 0.0000000 -0.1171378 -0.4121400
v 0.1577200 -0.1171378 -0.3807600
v 0.1913600 -0.4000000 -0.4619600
v 0.0000000 -0.4000000 -0.5000000
v 0.0000000 -0.2469019 -0.4771800
v 0.1826200 -0.2469019 -0.4408600
v 0.0000000 -0.0304151 -0.3148200
v -0.1204800 -0.0304151 -0.2908600
v -0.0765400 0.0000125 -0.1847800
v 0.0000000 0.0000125 -0.2000000
v 0.0000000 -0.1171378 -0.4121400
v -0.1577200 -0.1171378 -0.3807600
v -0.1204800 -0.0304151 -0.2908600
v 0.0000000 -0.0304151 -0.3148200
v 0.0000000 -0.2469019 -0.4771800
v -0.1826200 -0.2469019 -0.4408600
v -0.1577200 -0.1171378 -0.3807600
v 0.0000000 -0.1171378 -0.4121400
v 0.0000000 -0.4000000 -0.5000000
v -0.1913600 -0.4000000 -0.4619600
v -0.1826200 -0.2469019 -0.4408600
v 0.0000000 -0.2469019 -0.4771800
v -0.1204800 -0.0304151 -0.2908600
v -0.2226000 -0.0304151 -0.2226000
v -0.1414200 0.0000125 -0.1414200
v -0.0765400 0.0000125 -0.1847800
v -0.1577200 -0.1171378 -0.3807600
v -0.2914200 -0.1171378 -0.2914200
v -0.2226000 -0.0304151 -0.2226000
v -0.1204800 -0.0304151 -0.2908600
v -0.1826200 -0.2469019 -0.4408600
v -0.3374000 -0.2469019 -0.3374000
v -0.2914200 -0.1171378 -0.2914200
v -0.1577200 -0.1171378 -0.3807600
v -0.1913600 -0.4000000 -0.4619600
v -0.3535600 -0.4000000 -0.3535600
v -0.3374000 -0.2469019 -0.3374000
v -0.1826200 -0.2469019 -0.4408600
v -0.2226000 -0.0304151 -0.2226000
v -0.2908600 -0.0304151 -0.1204800
v -0.1847800 0.0000125 -0.0765400
v -0.1414200 0.0000125 -0.1414200
v -0.2914200 -0.1171378 -0.2914200
v -0.3807600 -0.1171378 -0.1577200
v -0.2908600 -0.0304151 -0.1204800
v -0.2226000 -0.0304151 -0.2226000
v -0.3374000 -0.2469019 -0.3374000
v -0.4408600 -0.2469019 -0.1826200
v -0.3807600 -0.1171378 -0.1577200
v -0.2914200 -0.1171378 -0.2914200
v -0.3535600 -0.4000000 -0.3535600
v -0.4619600 -0.4000000 -0.1913600
v -0.4408600 -0.2469019 -0.1826200
v -0.3374000 -0.2469019 -0.3374000
v -0.2908600 -0.0304151 -0.1204800
v -0.3148200 -0.0304151 0.0000000
v -0.2000000 0.0000125 0.0000000
v -0.1847800 0.0000125 -0.0765400
v -0.3807600 -0.1171378 -0.1577200
v -0.4121400 -0.1171378 0.0000000
v -0.3148200 -0.0304151 0.0000000
v -0.2908600 -0.0304151 -0.1204800
v -0.4408600 -0.2469019 -0.1826200
v -0.4771800 -0.2469019 0.0000000
v -0.4121400 -0.1171378 0.0000000
v -0.3807600 -0.1171378 -0.1577200
v -0.4619600 -0.4000000 -0.1913600
v -0.5000000 -0.4000000 0.0000000
v -0.4771800 -0.2469019 0.0000000
v -0.4408600 -0.2469019 -0.1826200
v -0.3148200 -0.0304151 0.0000000
v -0.2908600 -0.0304151 0.1204800
v -0.1847800 0.0000125 0.0765400
v -0.2000000 0.0000125 0.0000000
v -0.4121400 -0.1171378 0.0000000
v -0.3807600 -0.1171378 0.1577200
v -0.2908600 -0.0304151 0.1204800
v -0.3148200 -0.0304151 0.0000000
v -0.4771800 -0.2469019 0.0000000
v -0.4408600 -0.2469019 0.1826200
v -0.3807600 -0.1171378 0.1577200
v -0.4121400 -0.1171378 0.0000000
v -0.5000000 -0.4000000 0.0000000
v -0.4619600 -0.4000000 0.1913600
v -0.4408600 -0.2469019 0.1826200
v -0.4771800 -0.2469019 0.0000000
v -0.2908600 -0.0304151 0.1204800
v -0.2226000 -0.0304151 0.2226000
v -0.1414200 0.0000125 0.1414200
v -0.1847800 0.0000125 0.0765400
v -0.3807600 -0.1171378 0.1577200
v -0.2914200 -0.1171378 0.2914200
v -0.2226000 -0.0304151 0.2226000
v -0.2908600 -0.0304151 0.1204800
v -0.4408600 -0.2469019 0.1826200
v -0.3374000 -0.2469019 0.3374000
v -0.2914200 -0.1171378 0.2914200
v -0.3807600 -0.1171378 0.1577200
v -0.4619600 -0.4000000 0.1913600
v -0.3535600 -0.4000000 0.3535600
v -0.3374000 -0.2469019 0.3374000
v -0.4408600 -0.2469019 0.1826200
v -0.2226000 -0.0304151 0.2226000
v -0.1204800 -0.0304151 0.2908600
v -0.0765400 0.0000125 0.1847800
v -0.1414200 0.0000125 0.1414200
v -0.2914200 -0.1171378 0.2914200
v -0.1577200 -0.1171378 0.3807600
v -0.1204800 -0.0304151 0.2908600
v -0.2226000 -0.0304151 0.2226000
v -0.3374000 -0.2469019 0.3374000
v -0.1826200 -0.2469019 0.4408600
v -0.1577200 -0.1171378 0.3807600
v -0.2914200 -0.1171378 0.2914200
v -0.3535600 -0.4000000 0.3535600
v -0.1913600 -0.4000000 0.4619600
v -0.1826200 -0.2469019 0.4408600
v -0.3374000 -0.2469019 0.3374000
v -0.1204800 -0.0304151 0.2908600
v 0.0000000 -0.0304151 0.3148200
v 0.0000000 0.0000125 0.2000000
v -0.0765400 0.0000125 0.1847800
v -0.1577200 -0.1171378 0.3807600
v 0.0000000 -0.1171378 0.4121400
v 0.0000000 -0.0304151 0.3148200
v -0.1204800 -0.0304151 0.2908600
v -0.1826200 -0.2469019 0.4408600
v 0.0000000 -0.2469019 0.4771800
v 0.0000000 -0.1171378 0.4121400
v -0.1577200 -0.1171378 0.3807600
v -0.1913600 -0.4000000 0.4619600
v 0.0000000 -0.4000000 0.5000000
v 0.0000000 -0.2469019 0.4771800
v -0.1826200 -0.2469019 0.4408600
v 0.0000000 -0.0304151 0.3148200
v 0.1204800 -0.0304151 0.2908600
v 0.0765400 0.0000125 0.1847800
v 0.0000000 0.0000125 0.2000000
v 0.0000000 -0.1171378 0.4121400
v 0.1577200 -0.1171378 0.3807600
v 0.1204800 -0.0304151 0.2908600
v 0.0000000 -0.0304151 0.3148200
v 0.0000000 -0.2469019 0.4771800
v 0.1826200 -0.2469019 0.4408600
v 0.1577200 -0.1171378 0.3807600
v 0.0000000 -0.1171378 0.4121400
v 0.0000000 -0.4000000 0.5000000
v 0.1913600 -0.4000000 0.4619600
v 0.1826200 -0.2469019 0.4408600
v 0.0000000 -0.2469019 0.4771800
v 0.1204800 -0.0304151 0.2908600
v 0.2226000 -0.0304151 0.2226000
v 0.1414200 0.0000125 0.1414200
v 0.0765400 0.0000125 0.1847800
v 0.1577200 -0.1171378 0.3807600
v 0.2914200 -0.1171378 0.2914200
v 0.2226000 -0.0304151 0.2226000
v 0.1204800 -0.0304151 0.2908600
v 0.1826200 -0.2469019 0.4408600
v 0.3374000 -0.2469019 0.3374000
v 0.2914200 -0.1171378 0.2914200
v 0.1577200 -0.1171378 0.3807600
v 0.1913600 -0.4000000 0.4619600
v 0.3535600 -0.4000000 0.3535600
v 0.3374000 -0.2469019 0.3374000
v 0.1826200 -0.2469019 0.4408600
v 0.2226000 -0.0304151 0.2226000
v 0.2908600 -0.0304151 0.1204800
v 0.1847800 0.0000125 0.0765400
v 0.1414200 0.0000125 0.1414200
v 0.2914200 -0.1171378 0.2914200
v 0.3807600 -0.1171378 0.1577200
v 0.2908600 -0.0304151 0.1204800
v 0.2226000 -0.0304151 0.2226000
v 0.3374000 -0.2469019 0.3374000
v 0.4408600 -0.2469019 0.1826200
v 0.3807600 -0.1171378 0.1577200
v 0.2914200 -0.1171378 0.2914200
v 0.3535600 -0.4000000 0.3535600
v 0.4619600 -0.4000000 0.1913600
v 0.4408600 -0.2469019 0.1826200
v 0.3374000 -0.2469019 0.3374000
v 0.2908600 -0.0304151 0.1204800
v 0.3148200 -0.0304151 0.0000000
v 0.2000000 0.0000125 0.0000000
v 0.1847800 0.0000125 0.0765400
v 0.3807600 -0.1171378 0.1577200
v 0.4121400 -0.1171378 0.0000000
v 0.3148200 -0.0304151 0.0000000
v 0.2908600 -0.0304151 0.1204800
v 0.4408600 -0.2469019 0.1826200
v 0.4771800 -0.2469019 0.0000000
v 0.4121400 -0.1171378 0.0000000
v 0.3807600 -0.1171378 0.1577200
v 0.4619600 -0.4000000 0.1913600
v 0.5000000 -0.4000000 0.0000000
v 0.4771800 -0.2469019 0.0000000
v 0.4408600 -0.2469019 0.1826200
v 0.5000000 -0.4000000 0.0000000
v 0.4619500 -0.4000000 0.1913500
v 0.4619500 -0.5000000 0.1913500
v 0.5000000 -0.5000000 0.0000000
v 0.4619500 -0.4000000 0.1913500
v 0.3535500 -0.4000000 0.3535500
v 0.3535500 -0.5000000 0.3535500
v 0.4619500 -0.5000000 0.1913500
v 0.3535500 -0.4000000 0.3535500
v 0.1913500 -0.4000000 0.4619500
v 0.1913500 -0.5000000 0.4619500
v 0.3535500 -0.5000000 0.3535500
v 0.1913500 -0.4000000 0.4619500
v 0.0000000 -0.4000000 0.5000000
v 0.0000000 -0.5000000 0.5000000
v 0.1913500 -0.5000000 0.4619500
v 0.0000000 -0.4000000 0.5000000
v -0.1913500 -0.4000000 0.4619500
v -0.1913500 -0.5000000 0.4619500
v 0.0000000 -0.5000000 0.5000000
v -0.1913500 -0.4000000 0.4619500
v -0.3535500 -0.4000000 0.3535500
v -0.3535500 -0.5000000 0.3535500
v -0.1913500 -0.5000000 0.4619500
v -0.3535500 -0.4000000 0.3535500
v -0.4619500 -0.4000000 0.1913500
v -0.4619500 -0.5000000 0.1913500
v -0.3535500 -0.5000000 0.3535500
v -0.4619500 -0.4000000 0.1913500
v -0.5000000 -0.4000000 0.0000000
v -0.5000000 -0.5000000 0.0000000
v -0.4619500 -0.5000000 0.1913500
v -0.5000000 -0.4000000 0.0000000
v -0.4619500 -0.4000000 -0.1913500
v -0.4619500 -0.5000000 -0.1913500
v -0.5000000 -0.5000000 0.0000000
v -0.4619500 -0.4000000 -0.1913500
v -0.3535500 -0.4000000 -0.3535500
v -0.3535500 -0.5000000 -0.3535500
v -0.4619500 -0.5000000 -0.1913500
v -0.3535500 -0.4000000 -0.3535500
v -0.1913500 -0.4000000 -0.4619500
v -0.1913500 -0.5000000 -0.4619500
v -0.3535500 -0.5000000 -0.3535500
v -0.1913500 -0.4000000 -0.4619500
v 0.0000000 -0.4000000 -0.5000000
v 0.0000000 -0.5000000 -0.5000000
v -0.1913500 -0.5000000 -0.4619500
v 0.0000000 -0.4000000 -0.5000000
v 0.1913500 -0.4000000 -0.4619500
v 0.1913500 -0.5000000 -0.4619500
v 0.0000000 -0.5000000 -0.5000000
v 0.1913500 -0.4000000 -0.4619500
v 0.3535500 -0.4000000 -0.3535500
v 0.3535500 -0.5000000 -0.3535500
v 0.1913500 -0.5000000 -0.4619500
v 0.3535500 -0.4000000 -0.3535500
v 0.4619500 -0.4000000 -0.1913500
v 0.4619500 -0.5000000 -0.1913500
v 0.3535500 -0.5000000 -0.3535500
v 0.4619500 -0.4000000 -0.1913500
v 0.5000000 -0.4000000 0.0000000
v 0.5000000 -0.5000000 0.0000000
v 0.4619500 -0.5000000 -0.1913500
s off
f 1 2 3
f 1 3 4
f 5 6 7
f 5 7 8
f 9 10 11
f 9 11 12
f 13 14 15
f 13 15 16
f 17 18 19
f 17 19 20
f 21 22 23
f 21 23 24
f 25 26 27
f 25 27 28
f 29 30 31
f 29 31 32
f 33 34 35
f 33 35 36
f 37 38 39
f 37 39 40
f 41 42 43
f 41 43 44
f 45 46 47
f 45 47 48
f 49 50 51
f 49 51 52
f 53 54 55
f 53 55 56
f 57 58 59
f 57 59 60
f 61 62 63
f 61 63 64
f 65 66 67
f 65 67 68
f 69 70 71
f 69 71 72
f 73 74 75
f 73 75 76
f 77 78 79
f 77 79 80
f 81 82 83
f 81 83 84
f 85 86 87
f 85 87 88
f 89 90 91
f 89 91 92
f 93 94 95
f 93 95 96
f 97 98 99
f 97 99 100
f 101 102 103
f 101 103 104
f 105 106 107
f 105 107 108
f 109 110 111
f 109 111 112
f 113 114 115
f 113 115 116
f 117 118 119
f 117 119 120
f 121 122 123
f 121 123 124
f 125 126 127
f 125 127 128
f 129 130 131
f 129 131 132
f 133 134 135
f 133 135 136
f 137 138 139
f 137 139 140
f 141 142 143
f 141 143 144
f 145 146 147
f 145 147 148
f 149 150 151
f 149 151 152
f 153 154 155
f 153 155 156
f 157 158 159
f 157 159 160
f 161 162 163
f 161 163 164
f 165 166 167
f 165 167 168
f 169 170 171
f 169 171 172
f 173 174 175
f 173 175 176
f 177 178 179
f 177 179 180
f 181 182 183
f 181 183 184
f 185 186 187
f 185 187 188
f 189 190 191
f 189 191 192
f 193 194 195
f 193 195 196
f 197 198 199
f 197 199 200
f 201 202 203
f 201 203 204
f 205 206 207
f 205 207 208
f 209 210 211
f 209 211 212
f 213 214 215
f 213 215 216
f 217 218 219
f 217 219 220
f 221 222 223
f 221 223 224
f 225 226 227
f 225 227 228
f 229 230 231
f 229 231 232
f 233 234 235
f 233 235 236
f 237 238 239
f 237 239 240
f 241 242 243
f 241 243 244
f 245 246 247
f 245 247 248
f 249 250 251
f 249 251 252
f 253 254 255
f 253 255 256
f 257 258 259
f 257 259 260
f 261 262 263
f 261 263 264
f 265 266 267
f 265 267 268
f 269 270 271
f 269 271 272
f 273 274 275
f 273 275 276
f 277 278 279
f 277 279 280
f 281 282 283
f 281 283 284
f 285 286 287
f 285 287 288
f 289 290 291
f 289 291 292
f 293 294 295
f 293 295 296
f 297 298 299
f 297 299 300
f 301 302 303
f 301 303 304
f 305 306 307
f 305 307 308
f 309 310 311
f 309 311 312
f 313 314 315
f 313 315 316
f 317 318 319
f 317 319 320
f 321 322 323
f 321 323 324
f 325 326 327
f 325 327 328
f 329 330 331
f 329 331 332
f 333 334 335
f 333 335 336
f 337 338 339
f 337 339 340
f 341 342 343
f 341 343 344
f 345 346 347
f 345 347 348
f 349 350 351
f 349 351 352
f 353 354 355
f 353 355 356
f 357 358 359
f 357 359 360
f 361 362 363
f 361 363 364
f 365 366 367
f 365 367 368
f 369 370 371
f 369 371 372
f 373 374 375
f 373 375 376
f 377 378 379
f 377 379 380
f 381 382 383
f 381 383 384
f 385 386 387
f 385 387 388
f 389 390 391
f 389 391 392
f 393 394 395
f 393 395 396
f 397 398 399
f 397 399 400
f 401 402 403
f 401 403 404
f 405 406 407
f 405 407 408
f 409 410 411
f 409 411 412
f 413 414 415
f 413 415 416
f 417 418 419
f 417 419 420
f 421 422 423
f 421 423 424
f 425 426 427
f 425 427 428
f 429 430 431
f 429 431 432
f 433 434 435
f 433 435 436
f 437 438 439
f 437 439 440
f 441 442 443
f 441 443 444
f 445 446 447
f 445 447 448
f 449 450 451
f 452 453 454
f 452 454 455
f 456 457 458
f 456 458 459
f 460 461 462
f 460 462 463
f 464 465 466
f 464 466 467
f 468 469 470
f 468 470 471
f 472 473 474
f 475 476 477
f 475 477 478
f 479 480 481
f 482 483 484
f 482 484 485
f 486 487 488
f 486 488 489
f 490 491 492
f 493 494 495
f 493 495 496
f 497 498 499
f 497 499 500
f 501 502 503
f 501 503 504
f 505 506 507
f 508 509 510
f 511 512 513
f 514 515 516
f 517 518 519
f 517 519 520
f 521 522 523
f 521 523 524
f 525 526 527
f 528 529 530
f 531 532 533
f 534 535 536
f 537 538 539
f 537 539 540
f 541 542 543
f 541 543 544
f 545 546 547
f 545 547 548
f 549 550 551
f 549 551 552
f 553 554 555
f 553 555 556
f 557 558 559
f 557 559 560
f 561 562 563
f 561 563 564
f 565 566 567
f 565 567 568
f 569 570 571
f 569 571 572
f 573 574 575
f 573 575 576
f 577 578 579
f 577 579 580
f 581 582 583
f 581 583 584
f 585 586 587
f 585 587 588
f 589 590 591
f 589 591 592
f 593 594 595
f 593 595 596
f 597 598 599
f 597 599 600
f 601 602 603
f 601 603 604
f 605 606 607
f 608 609 610
f 608 610 611
f 612 613 614
f 612 614 615
f 616 617 618
f 616 618 619
f 620 621 622
f 620 622 623
f 624 625 626
f 624 626 627
f 628 629 630
f 631 632 633
f 631 633 634
f 635 636 637
f 638 639 640
f 638 640 641
f 642 643 644
f 642 644 645
f 646 647 648
f 649 650 651
f 649 651 652
f 653 654 655
f 653 655 656
f 657 658 659
f 657 659 660
f 661 662 663
f 664 665 666
f 667 668 669
f 670 671 672
f 673 674 675
f 673 675 676
f 677 678 679
f 677 679 680
f 681 682 683
f 684 685 686
f 687 688 689
f 690 691 692
f 693 694 695
f 693 695 696
f 697 698 699
f 697 699 700
f 701 702 703
f 701 703 704
f 705 706 707
f 705 707 708
f 709 710 711
f 709 711 712
f 713 714 715
f 713 715 716
f 717 718 719
f 717 719 720
f 721 722 723
f 721 723 724
f 725 726 727
f 725 727 728
f 729 730 731
f 729 731 732
f 733 734 735
f 733 735 736
f 737 738 739
f 737 739 740
f 741 742 743
f 741 743 744
f 745 746 747
f 745 747 748
f 749 750 751
f 749 751 752
f 753 754 755
f 753 755 756
f 757 758 759
f 757 759 760
f 761 762 763
f 764 765 766
f 764 766 767
f 768 769 770
f 768 770 771
f 772 773 774
f 772 774 775
f 776 777 778
f 776 778 779
f 780 781 782
f 780 782 783
f 784 785 786
f 787 788 789
f 787 789 790
f 791 792 793
f 794 795 796
f 794 796 797
f 798 799 800
f 798 800 801
f 802 803 804
f 805 806 807
f 805 807 808
f 809 810 811
f 809 811 812
f 813 814 815
f 813 815 816
f 817 818 819
f 820 821 822
f 823 824 825
f 826 827 828
f 829 830 831
f 829 831 832
f 833 834 835
f 833 835 836
f 837 838 839
f 840 841 842
f 843 844 845
f 846 847 848
f 849 850 851
f 849 851 852
f 853 854 855
f 853 855 856
f 857 858 859
f 857 859 860
f 861 862 863
f 861 863 864
f 865 866 867
f 865 867 868
f 869 870 871
f 869 871 872
f 873 874 875
f 873 875 876
f 877 878 879
f 877 879 880
f 881 882 883
f 881 883 884
f 885 886 887
f 885 887 888
f 889 890 891
f 889 891 892
f 893 894 895
f 893 895 896
f 897 898 899
f 897 899 900
f 901 902 903
f 901 903 904
f 905 906 907
f 905 907 908
f 909 910 911
f 909 911 912
f 913 914 915
f 913 915 916
f 917 918 919
f 920 921 922
f 920 922 923
f 924 925 926
f 924 926 927
f 928 929 930
f 928 930 931
f 932 933 934
f 932 934 935
f 936 937 938
f 936 938 939
f 940 941 942
f 943 944 945
f 943 945 946
f 947 948 949
f 950 951 952
f 950 952 953
f 954 955 956
f 954 956 957
f 958 959 960
f 961 962 963
f 961 963 964
f 965 966 967
f 965 967 968
f 969 970 971
f 969 971 972
f 973 974 975
f 976 977 978
f 979 980 981
f 982 983 984
f 985 986 987
f 985 987 988
f 989 990 991
f 989 991 992
f 993 994 995
f 996 997 998
f 999 1000 1001
f 1002 1003 1004
f 1005 1006 1007
f 1005 1007 1008
f 1009 1010 1011
f 1009 1011 1012
f 1013 1014 1015
f 1013 1015 1016
f 1017 1018 1019
f 1017 1019 1020
f 1021 1022 1023
f 1021 1023 1024
f 1025 1026 1027
f 1025 1027 1028
f 1029 1030 1031
f 1029 1031 1032
f 1033 1034 1035
f 1033 1035 1036
f 1037 1038 1039
f 1037 1039 1040
f 1041 1042 1043
f 1041 1043 1044
f 1045 1046 1047
f 1045 1047 1048
f 1049 1050 1051
f 1049 1051 1052
f 1053 1054 1055
f 1053 1055 1056
f 1057 1058 1059
f 1057 1059 1060
f 1061 1062 1063
f 1061 1063 1064
f 1065 1066 1067
f 1065 1067 1068
f 1069 1070 1071
f 1069 1071 1072
f 1073 1074 1075
f 1073 1075 1076
f 1077 1078 1079
f 1077 1079 1080
f 1081 1082 1083
f 1081 1083 1084
f 1085 1086 1087
f 1085 1087 1088
f 1089 1090 1091
f 1089 1091 1092
f 1093 1094 1095
f 1093 1095 1096
f 1097 1098 1099
f 1097 1099 1100
f 1101 1102 1103
f 1101 1103 1104
f 1105 1106 1107
f 1105 1107 1108
f 1109 1110 1111
f 1109 1111 1112
f 1113 1114 1115
f 1113 1115 1116
f 1117 1118 1119
f 1117 1119 1120
f 1121 1122 1123
f 1121 1123 1124
f 1125 1126 1127
f 1125 1127 1128
f 1129 1130 1131
f 1129 1131 1132
f 1133 1134 1135
f 1133 1135 1136
f 1137 1138 1139
f 1137 1139 1140
f 1141 1142 1143
f 1141 1143 1144
f 1145 1146 1147
f 1145 1147 1148
f 1149 1150 1151
f 1149 1151 1152
f 1153 1154 1155
f 1153 1155 1156
f 1157 1158 1159
f 1157 1159 1160
f 1161 1162 1163
f 1161 1163 1164
f 1165 1166 1167
f 1165 1167 1168
f 1169 1170 1171
f 1169 1171 1172
f 1173 1174 1175
f 1173 1175 1176
f 1177 1178 1179
f 1177 1179 1180
f 1181 1182 1183
f 1181 1183 1184
f 1185 1186 1187
f 1185 1187 1188
f 1189 1190 1191
f 1189 1191 1192
f 1193 1194 1195
f 1193 1195 1196
f 1197 1198 1199
f 1197 1199 1200
f 1201 1202 1203
f 1201 1203 1204
f 1205 1206 1207
f 1205 1207 1208
f 1209 1210 1211
f 1209 1211 1212
f 1213 1214 1215
f 1213 1215 1216
f 1217 1218 1219
f 1217 1219 1220
f 1221 1222 1223
f 1221 1223 1224
f 1225 1226 1227
f 1225 1227 1228
f 1229 1230 1231
f 1229 1231 1232
f 1233 1234 1235
f 1233 1235 1236
f 1237 1238 1239
f 1237 1239 1240
f 1241 1242 1243
f 1241 1243 1244
f 1245 1246 1247
f 1245 1247 1248
f 1249 1250 1251
f 1249 1251 1252
f 1253 1254 1255
f 1253 1255 1256
f 1257 1258 1259
f 1257 1259 1260
f 1261 1262 1263
f 1261 1263 1264
f 1265 1266 1267
f 1265 1267 1268
f 1269 1270 1271
f 1269 1271 1272
f 1273 1274 1275
f 1273 1275 1276
f 1277 1278 1279
f 1277 1279 1280
f 1281 1282 1283
f 1281 1283 1284
f 1285 1286 1287
f 1285 1287 1288
f 1289 1290 1291
f 1289 1291 1292
f 1293 1294 1295
f 1293 1295 1296
f 1297 1298 1299
f 1297 1299 1300
f 1301 1302 1303
f 1301 1303 1304
f 1305 1306 1307
f 1305 1307 1308
f 1309 1310 1311
f 1309 1311 1312
f 1313 1314 1315
f 1313 1315 1316
f 1317 1318 1319
f 1317 1319 1320
f 1321 1322 1323
f 1321 1323 1324
f 1325 1326 1327
f 1325 1327 1328
f 1329 1330 1331
f 1329 1331 1332
f 1333 1334 1335
f 1333 1335 1336
f 1337 1338 1339
f 1337 1339 1340
f 1341 1342 1343
f 1341 1343 1344
f 1345 1346 1347
f 1345 1347 1348
f 1349 1350 1351
f 1349 1351 1352
f 1353 1354 1355
f 1353 1355 1356
f 1357 1358 1359
f 1357 1359 1360
f 1361 1362 1363
f 1361 1363 1364
f 1365 1366 1367
f 1365 1367 1368
f 1369 1370 1371
f 1369 1371 1372
f 1373 1374 1375
f 1373 1375 1376
f 1377 1378 1379
f 1377 1379 1380
f 1381 1382 1383
f 1381 1383 1384
f 1385 1386 1387
f 1385 1387 1388
f 1389 1390 1391
f 1389 1391 1392
f 1393 1394 1395
f 1393 1395 1396
f 1397 1398 1399
f 1397 1399 1400
f 1401 1402 1403
f 1401 1403 1404
f 1405 1406 1407
f 1405 1407 1408
f 1409 1410 1411
f 1409 1411 1412
f 1413 1414 1415
f 1413 1415 1416
f 1417 1418 1419
f 1417 1419 1420
f 1421 1422 1423
f 1421 1423 1424
f 1425 1426 1427
f 1425 1427 1428
f 1429 1430 1431
f 1429 1431 1432
f 1433 1434 1435
f 1433 1435 1436
f 1437 1438 1439
f 1437 1439 1440
f 1441 1442 1443
f 1441 1443 1444
f 1445 1446 1447
f 1445 1447 1448
f 1449 1450 1451
f 1449 1451 1452
f 1453 1454 1455
f 1453 1455 1456
f 1457 1458 1459
f 1457 1459 1460
f 1461 1462 1463
f 1461 1463 1464
f 1465 1466 1467
f 1465 1467 1468
f 1469 1470 1471
f 1469 1471 1472
f 1473 1474 1475
f 1473 1475 1476
f 1477 1478 1479
f 1477 1479 1480
f 1481 1482 1483
f 1481 1483 1484
f 1485 1486 1487
f 1485 1487 1488
f 1489 1490 1491
f 1489 1491 1492
f 1493 1494 1495
f 1493 1495 1496
f 1497 1498 1499
f 1497 1499 1500
f 1501 1502 1503
f 1501 1503 1504
f 1505 1506 1507
f 1505 1507 1508
f 1509 1510 1511
f 1509 1511 1512
f 1513 1514 1515
f 1513 1515 1516
f 1517 1518 1519
f 1517 1519 1520
f 1521 1522 1523
f 1521 1523 1524
f 1525 1526 1527
f 1525 1527 1528
f 1529 1530 1531
f 1529 1531 1532
f 1533 1534 1535
f 1533 1535 1536
f 1537 1538 1539
f 1537 1539 1540
f 1541 1542 1543
f 1541 1543 1544
f 1545 1546 1547
f 1545 1547 1548
f 1549 1550 1551
f 1549 1551 1552
f 1553 1554 1555
f 1553 1555 1556
f 1557 1558 1559
f 1557 1559 1560
f 1561 1562 1563
f 1561 1563 1564
f 1565 1566 1567
f 1565 1567 1568
f 1569 1570 1571
f 1569 1571 1572
f 1573 1574 1575
f 1573 1575 1576
f 1577 1578 1579
f 1577 1579 1580
f 1581 1582 1583
f 1581 1583 1584
f 1585 1586 1587
f 1585 1587 1588
f 1589 1590 1591
f 1589 1591 1592
f 1593 1594 1595
f 1593 1595 1596
f 1597 1598 1599
f 1597 1599 1600
f 1601 1602 1603
f 1601 1603 1604
f 1605 1606 1607
f 1605 1607 1608
f 1609 1610 1611
f 1609 1611 1612
f 1613 1614 1615
f 1613 1615 1616
f 1617 1618 1619
f 1617 1619 1620
f 1621 1622 1623
f 1621 1623 1624
f 1625 1626 1627
f 1625 1627 1628
f 1629 1630 1631
f 1629 1631 1632
f 1633 1634 1635
f 1633 1635 1636
f 1637 1638 1639
f 1637 1639 1640
f 1641 1642 1643
f 1641 1643 1644
f 1645 1646 1647
f 1645 1647 1648
f 1649 1650 1651
f 1649 1651 1652
f 1653 1654 1655
f 1653 1655 1656
f 1657 1658 1659
f 1657 1659 1660
f 1661 1662 1663
f 1661 1663 1664
f 1665 1666 1667
f 1665 1667 1668
f 1669 1670 1671
f 1669 1671 1672
f 1673 1674 1675
f 1673 1675 1676
f 1677 1678 1679
f 1677 1679 1680
f 1681 1682 1683
f 1681 1683 1684
f 1685 1686 1687
f 1685 1687 1688
f 1689 1690 1691
f 1689 1691 1692
f 1693 1694 1695
f 1693 1695 1696
f 1697 1698 1699
f 1697 1699 1700
f 1701 1702 1703
f 1701 1703 1704
f 1705 1706 1707
f 1705 1707 1708
f 1709 1710 1711
f 1709 1711 1712
f 1713 1714 1715
f 1713 1715 1716
f 1717 1718 1719
f 1717 1719 1720
f 1721 1722 1723
f 1721 1723 1724
f 1725 1726 1727
f 1725 1727 1728
f 1729 1730 1731
f 1729 1731 1732
f 1733 1734 1735
f 1733 1735 1736
f 1737 1738 1739
f 1737 1739 1740
f 1741 1742 1743
f 1741 1743 1744
f 1745 1746 1747
f 1745 1747 1748
f 1749 1750 1751
f 1749 1751 1752
f 1753 1754 1755
f 1753 1755 1756
f 1757 1758 1759
f 1757 1759 1760
f 1761 1762 1763
f 1761 1763 1764
f 1765 1766 1767
f 1765 1767 1768
f 1769 1770 1771
f 1769 1771 1772
f 1773 1774 1775
f 1773 1775 1776
