# Baked from official LDraw part 3037.dat
o ldraw_3037
v 0.6500000 -0.6000000 -0.2500000
v 0.6385850 -0.6000000 -0.1925950
v 0.6385850 -0.5000000 -0.1925950
v 0.6500000 -0.5000000 -0.2500000
v 0.6385850 -0.6000000 -0.1925950
v 0.6060650 -0.6000000 -0.1439350
v 0.6060650 -0.5000000 -0.1439350
v 0.6385850 -0.5000000 -0.1925950
v 0.6060650 -0.6000000 -0.1439350
v 0.5574050 -0.6000000 -0.1114150
v 0.5574050 -0.5000000 -0.1114150
v 0.6060650 -0.5000000 -0.1439350
v 0.5574050 -0.6000000 -0.1114150
v 0.5000000 -0.6000000 -0.1000000
v 0.5000000 -0.5000000 -0.1000000
v 0.5574050 -0.5000000 -0.1114150
v 0.5000000 -0.6000000 -0.1000000
v 0.4425950 -0.6000000 -0.1114150
v 0.4425950 -0.5000000 -0.1114150
v 0.5000000 -0.5000000 -0.1000000
v 0.4425950 -0.6000000 -0.1114150
v 0.3939350 -0.6000000 -0.1439350
v 0.3939350 -0.5000000 -0.1439350
v 0.4425950 -0.5000000 -0.1114150
v 0.3939350 -0.6000000 -0.1439350
v 0.3614150 -0.6000000 -0.1925950
v 0.3614150 -0.5000000 -0.1925950
v 0.3939350 -0.5000000 -0.1439350
v 0.3614150 -0.6000000 -0.1925950
v 0.3500000 -0.6000000 -0.2500000
v 0.3500000 -0.5000000 -0.2500000
v 0.3614150 -0.5000000 -0.1925950
v 0.3500000 -0.6000000 -0.2500000
v 0.3614150 -0.6000000 -0.3074050
v 0.3614150 -0.5000000 -0.3074050
v 0.3500000 -0.5000000 -0.2500000
v 0.3614150 -0.6000000 -0.3074050
v 0.3939350 -0.6000000 -0.3560650
v 0.3939350 -0.5000000 -0.3560650
v 0.3614150 -0.5000000 -0.3074050
v 0.3939350 -0.6000000 -0.3560650
v 0.4425950 -0.6000000 -0.3885850
v 0.4425950 -0.5000000 -0.3885850
v 0.3939350 -0.5000000 -0.3560650
v 0.4425950 -0.6000000 -0.3885850
v 0.5000000 -0.6000000 -0.4000000
v 0.5000000 -0.5000000 -0.4000000
v 0.4425950 -0.5000000 -0.3885850
v 0.5000000 -0.6000000 -0.4000000
v 0.5574050 -0.6000000 -0.3885850
v 0.5574050 -0.5000000 -0.3885850
v 0.5000000 -0.5000000 -0.4000000
v 0.5574050 -0.6000000 -0.3885850
v 0.6060650 -0.6000000 -0.3560650
v 0.6060650 -0.5000000 -0.3560650
v 0.5574050 -0.5000000 -0.3885850
v 0.6060650 -0.6000000 -0.3560650
v 0.6385850 -0.6000000 -0.3074050
v 0.6385850 -0.5000000 -0.3074050
v 0.6060650 -0.5000000 -0.3560650
v 0.6385850 -0.6000000 -0.3074050
v 0.6500000 -0.6000000 -0.2500000
v 0.6500000 -0.5000000 -0.2500000
v 0.6385850 -0.5000000 -0.3074050
v 0.7000000 -0.5000000 -0.2500000
v 0.6847800 -0.5000000 -0.1734600
v 0.6847800 -0.6000000 -0.1734600
v 0.7000000 -0.6000000 -0.2500000
v 0.6847800 -0.5000000 -0.1734600
v 0.6414200 -0.5000000 -0.1085800
v 0.6414200 -0.6000000 -0.1085800
v 0.6847800 -0.6000000 -0.1734600
v 0.6414200 -0.5000000 -0.1085800
v 0.5765400 -0.5000000 -0.0652200
v 0.5765400 -0.6000000 -0.0652200
v 0.6414200 -0.6000000 -0.1085800
v 0.5765400 -0.5000000 -0.0652200
v 0.5000000 -0.5000000 -0.0500000
v 0.5000000 -0.6000000 -0.0500000
v 0.5765400 -0.6000000 -0.0652200
v 0.5000000 -0.5000000 -0.0500000
v 0.4234600 -0.5000000 -0.0652200
v 0.4234600 -0.6000000 -0.0652200
v 0.5000000 -0.6000000 -0.0500000
v 0.4234600 -0.5000000 -0.0652200
v 0.3585800 -0.5000000 -0.1085800
v 0.3585800 -0.6000000 -0.1085800
v 0.4234600 -0.6000000 -0.0652200
v 0.3585800 -0.5000000 -0.1085800
v 0.3152200 -0.5000000 -0.1734600
v 0.3152200 -0.6000000 -0.1734600
v 0.3585800 -0.6000000 -0.1085800
v 0.3152200 -0.5000000 -0.1734600
v 0.3000000 -0.5000000 -0.2500000
v 0.3000000 -0.6000000 -0.2500000
v 0.3152200 -0.6000000 -0.1734600
v 0.3000000 -0.5000000 -0.2500000
v 0.3152200 -0.5000000 -0.3265400
v 0.3152200 -0.6000000 -0.3265400
v 0.3000000 -0.6000000 -0.2500000
v 0.3152200 -0.5000000 -0.3265400
v 0.3585800 -0.5000000 -0.3914200
v 0.3585800 -0.6000000 -0.3914200
v 0.3152200 -0.6000000 -0.3265400
v 0.3585800 -0.5000000 -0.3914200
v 0.4234600 -0.5000000 -0.4347800
v 0.4234600 -0.6000000 -0.4347800
v 0.3585800 -0.6000000 -0.3914200
v 0.4234600 -0.5000000 -0.4347800
v 0.5000000 -0.5000000 -0.4500000
v 0.5000000 -0.6000000 -0.4500000
v 0.4234600 -0.6000000 -0.4347800
v 0.5000000 -0.5000000 -0.4500000
v 0.5765400 -0.5000000 -0.4347800
v 0.5765400 -0.6000000 -0.4347800
v 0.5000000 -0.6000000 -0.4500000
v 0.5765400 -0.5000000 -0.4347800
v 0.6414200 -0.5000000 -0.3914200
v 0.6414200 -0.6000000 -0.3914200
v 0.5765400 -0.6000000 -0.4347800
v 0.6414200 -0.5000000 -0.3914200
v 0.6847800 -0.5000000 -0.3265400
v 0.6847800 -0.6000000 -0.3265400
v 0.6414200 -0.6000000 -0.3914200
v 0.6847800 -0.5000000 -0.3265400
v 0.7000000 -0.5000000 -0.2500000
v 0.7000000 -0.6000000 -0.2500000
v 0.6847800 -0.6000000 -0.3265400
v 0.4234600 -0.6000000 -0.0652200
v 0.4425950 -0.6000000 -0.1114150
v 0.5000000 -0.6000000 -0.1000000
v 0.5000000 -0.6000000 -0.0500000
v 0.3585800 -0.6000000 -0.1085800
v 0.3939350 -0.6000000 -0.1439350
v 0.4425950 -0.6000000 -0.1114150
v 0.4234600 -0.6000000 -0.0652200
v 0.3152200 -0.6000000 -0.1734600
v 0.3614150 -0.6000000 -0.1925950
v 0.3939350 -0.6000000 -0.1439350
v 0.3585800 -0.6000000 -0.1085800
v 0.3000000 -0.6000000 -0.2500000
v 0.3500000 -0.6000000 -0.2500000
v 0.3614150 -0.6000000 -0.1925950
v 0.3152200 -0.6000000 -0.1734600
v 0.3152200 -0.6000000 -0.3265400
v 0.3614150 -0.6000000 -0.3074050
v 0.3500000 -0.6000000 -0.2500000
v 0.3000000 -0.6000000 -0.2500000
v 0.3585800 -0.6000000 -0.3914200
v 0.3939350 -0.6000000 -0.3560650
v 0.3614150 -0.6000000 -0.3074050
v 0.3152200 -0.6000000 -0.3265400
v 0.4234600 -0.6000000 -0.4347800
v 0.4425950 -0.6000000 -0.3885850
v 0.3939350 -0.6000000 -0.3560650
v 0.3585800 -0.6000000 -0.3914200
v 0.5000000 -0.6000000 -0.4500000
v 0.5000000 -0.6000000 -0.4000000
v 0.4425950 -0.6000000 -0.3885850
v 0.4234600 -0.6000000 -0.4347800
v 0.5765400 -0.6000000 -0.4347800
v 0.5574050 -0.6000000 -0.3885850
v 0.5000000 -0.6000000 -0.4000000
v 0.5000000 -0.6000000 -0.4500000
v 0.6414200 -0.6000000 -0.3914200
v 0.6060650 -0.6000000 -0.3560650
v 0.5574050 -0.6000000 -0.3885850
v 0.5765400 -0.6000000 -0.4347800
v 0.6847800 -0.6000000 -0.3265400
v 0.6385850 -0.6000000 -0.3074050
v 0.6060650 -0.6000000 -0.3560650
v 0.6414200 -0.6000000 -0.3914200
v 0.7000000 -0.6000000 -0.2500000
v 0.6500000 -0.6000000 -0.2500000
v 0.6385850 -0.6000000 -0.3074050
v 0.6847800 -0.6000000 -0.3265400
v 0.6847800 -0.6000000 -0.1734600
v 0.6385850 -0.6000000 -0.1925950
v 0.6500000 -0.6000000 -0.2500000
v 0.7000000 -0.6000000 -0.2500000
v 0.6414200 -0.6000000 -0.1085800
v 0.6060650 -0.6000000 -0.1439350
v 0.6385850 -0.6000000 -0.1925950
v 0.6847800 -0.6000000 -0.1734600
v 0.5765400 -0.6000000 -0.0652200
v 0.5574050 -0.6000000 -0.1114150
v 0.6060650 -0.6000000 -0.1439350
v 0.6414200 -0.6000000 -0.1085800
v 0.5000000 -0.6000000 -0.0500000
v 0.5000000 -0.6000000 -0.1000000
v 0.5574050 -0.6000000 -0.1114150
v 0.5765400 -0.6000000 -0.0652200
v 0.5000000 -0.2500000 -0.4000000
v 0.5574050 -0.2500000 -0.3885850
v 0.5574050 -0.2385850 -0.3885850
v 0.5574050 -0.2500000 -0.3885850
v 0.6060650 -0.2500000 -0.3560650
v 0.6060650 -0.2060650 -0.3560650
v 0.5574050 -0.2385850 -0.3885850
v 0.6060650 -0.2500000 -0.3560650
v 0.6385850 -0.2500000 -0.3074050
v 0.6385850 -0.1574050 -0.3074050
v 0.6060650 -0.2060650 -0.3560650
v 0.6385850 -0.2500000 -0.3074050
v 0.6500000 -0.2500000 -0.2500000
v 0.6500000 -0.1000000 -0.2500000
v 0.6385850 -0.1574050 -0.3074050
v 0.4425950 -0.2385850 -0.3885850
v 0.4425950 -0.2500000 -0.3885850
v 0.5000000 -0.2500000 -0.4000000
v 0.4425950 -0.2385850 -0.3885850
v 0.3939350 -0.2060650 -0.3560650
v 0.3939350 -0.2500000 -0.3560650
v 0.4425950 -0.2500000 -0.3885850
v 0.3939350 -0.2060650 -0.3560650
v 0.3614150 -0.1574050 -0.3074050
v 0.3614150 -0.2500000 -0.3074050
v 0.3939350 -0.2500000 -0.3560650
v 0.3614150 -0.1574050 -0.3074050
v 0.3500000 -0.1000000 -0.2500000
v 0.3500000 -0.2500000 -0.2500000
v 0.3614150 -0.2500000 -0.3074050
v 0.6385850 -0.5000000 -0.1925950
v 0.6385850 -0.1000000 -0.1925950
v 0.6500000 -0.1000000 -0.2500000
v 0.6500000 -0.5000000 -0.2500000
v 0.6060650 -0.5000000 -0.1439350
v 0.6060650 -0.1000000 -0.1439350
v 0.6385850 -0.1000000 -0.1925950
v 0.6385850 -0.5000000 -0.1925950
v 0.5574050 -0.5000000 -0.1114150
v 0.5574050 -0.1000000 -0.1114150
v 0.6060650 -0.1000000 -0.1439350
v 0.6060650 -0.5000000 -0.1439350
v 0.5000000 -0.5000000 -0.1000000
v 0.5000000 -0.1000000 -0.1000000
v 0.5574050 -0.1000000 -0.1114150
v 0.5574050 -0.5000000 -0.1114150
v 0.4425950 -0.5000000 -0.1114150
v 0.4425950 -0.1000000 -0.1114150
v 0.5000000 -0.1000000 -0.1000000
v 0.5000000 -0.5000000 -0.1000000
v 0.3939350 -0.5000000 -0.1439350
v 0.3939350 -0.1000000 -0.1439350
v 0.4425950 -0.1000000 -0.1114150
v 0.4425950 -0.5000000 -0.1114150
v 0.3614150 -0.5000000 -0.1925950
v 0.3614150 -0.1000000 -0.1925950
v 0.3939350 -0.1000000 -0.1439350
v 0.3939350 -0.5000000 -0.1439350
v 0.3500000 -0.5000000 -0.2500000
v 0.3500000 -0.1000000 -0.2500000
v 0.3614150 -0.1000000 -0.1925950
v 0.3614150 -0.5000000 -0.1925950
v 0.6500000 -0.5000000 -0.2500000
v 0.6500000 -0.2500000 -0.2500000
v 0.6385850 -0.2500000 -0.3074050
v 0.6385850 -0.5000000 -0.3074050
v 0.6385850 -0.5000000 -0.3074050
v 0.6385850 -0.2500000 -0.3074050
v 0.6060650 -0.2500000 -0.3560650
v 0.6060650 -0.5000000 -0.3560650
v 0.6060650 -0.5000000 -0.3560650
v 0.6060650 -0.2500000 -0.3560650
v 0.5574050 -0.2500000 -0.3885850
v 0.5574050 -0.5000000 -0.3885850
v 0.5574050 -0.5000000 -0.3885850
v 0.5574050 -0.2500000 -0.3885850
v 0.5000000 -0.2500000 -0.4000000
v 0.5000000 -0.5000000 -0.4000000
v 0.5000000 -0.5000000 -0.4000000
v 0.5000000 -0.2500000 -0.4000000
v 0.4425950 -0.2500000 -0.3885850
v 0.4425950 -0.5000000 -0.3885850
v 0.4425950 -0.5000000 -0.3885850
v 0.4425950 -0.2500000 -0.3885850
v 0.3939350 -0.2500000 -0.3560650
v 0.3939350 -0.5000000 -0.3560650
v 0.3939350 -0.5000000 -0.3560650
v 0.3939350 -0.2500000 -0.3560650
v 0.3614150 -0.2500000 -0.3074050
v 0.3614150 -0.5000000 -0.3074050
v 0.3614150 -0.5000000 -0.3074050
v 0.3614150 -0.2500000 -0.3074050
v 0.3500000 -0.2500000 -0.2500000
v 0.3500000 -0.5000000 -0.2500000
v 0.5765400 -0.2847800 -0.4347800
v 0.5765400 -0.3000000 -0.4347800
v 0.5000000 -0.3000000 -0.4500000
v 0.5765400 -0.2847800 -0.4347800
v 0.6414200 -0.2414200 -0.3914200
v 0.6414200 -0.3000000 -0.3914200
v 0.5765400 -0.3000000 -0.4347800
v 0.6414200 -0.2414200 -0.3914200
v 0.6847800 -0.1765400 -0.3265400
v 0.6847800 -0.3000000 -0.3265400
v 0.6414200 -0.3000000 -0.3914200
v 0.6847800 -0.1765400 -0.3265400
v 0.7000000 -0.1000000 -0.2500000
v 0.7000000 -0.3000000 -0.2500000
v 0.6847800 -0.3000000 -0.3265400
v 0.5000000 -0.3000000 -0.4500000
v 0.4234600 -0.3000000 -0.4347800
v 0.4234600 -0.2847800 -0.4347800
v 0.4234600 -0.3000000 -0.4347800
v 0.3585800 -0.3000000 -0.3914200
v 0.3585800 -0.2414200 -0.3914200
v 0.4234600 -0.2847800 -0.4347800
v 0.3585800 -0.3000000 -0.3914200
v 0.3152200 -0.3000000 -0.3265400
v 0.3152200 -0.1765400 -0.3265400
v 0.3585800 -0.2414200 -0.3914200
v 0.3152200 -0.3000000 -0.3265400
v 0.3000000 -0.3000000 -0.2500000
v 0.3000000 -0.1000000 -0.2500000
v 0.3152200 -0.1765400 -0.3265400
v 0.7000000 -0.5000000 -0.2500000
v 0.7000000 -0.1000000 -0.2500000
v 0.6847800 -0.1000000 -0.1734600
v 0.6847800 -0.5000000 -0.1734600
v 0.6847800 -0.5000000 -0.1734600
v 0.6847800 -0.1000000 -0.1734600
v 0.6414200 -0.1000000 -0.1085800
v 0.6414200 -0.5000000 -0.1085800
v 0.6414200 -0.5000000 -0.1085800
v 0.6414200 -0.1000000 -0.1085800
v 0.5765400 -0.1000000 -0.0652200
v 0.5765400 -0.5000000 -0.0652200
v 0.5765400 -0.5000000 -0.0652200
v 0.5765400 -0.1000000 -0.0652200
v 0.5000000 -0.1000000 -0.0500000
v 0.5000000 -0.5000000 -0.0500000
v 0.5000000 -0.5000000 -0.0500000
v 0.5000000 -0.1000000 -0.0500000
v 0.4234600 -0.1000000 -0.0652200
v 0.4234600 -0.5000000 -0.0652200
v 0.4234600 -0.5000000 -0.0652200
v 0.4234600 -0.1000000 -0.0652200
v 0.3585800 -0.1000000 -0.1085800
v 0.3585800 -0.5000000 -0.1085800
v 0.3585800 -0.5000000 -0.1085800
v 0.3585800 -0.1000000 -0.1085800
v 0.3152200 -0.1000000 -0.1734600
v 0.3152200 -0.5000000 -0.1734600
v 0.3152200 -0.5000000 -0.1734600
v 0.3152200 -0.1000000 -0.1734600
v 0.3000000 -0.1000000 -0.2500000
v 0.3000000 -0.5000000 -0.2500000
v 0.6847800 -0.5000000 -0.3265400
v 0.6847800 -0.3000000 -0.3265400
v 0.7000000 -0.3000000 -0.2500000
v 0.7000000 -0.5000000 -0.2500000
v 0.6414200 -0.5000000 -0.3914200
v 0.6414200 -0.3000000 -0.3914200
v 0.6847800 -0.3000000 -0.3265400
v 0.6847800 -0.5000000 -0.3265400
v 0.5765400 -0.5000000 -0.4347800
v 0.5765400 -0.3000000 -0.4347800
v 0.6414200 -0.3000000 -0.3914200
v 0.6414200 -0.5000000 -0.3914200
v 0.5000000 -0.5000000 -0.4500000
v 0.5000000 -0.3000000 -0.4500000
v 0.5765400 -0.3000000 -0.4347800
v 0.5765400 -0.5000000 -0.4347800
v 0.4234600 -0.5000000 -0.4347800
v 0.4234600 -0.3000000 -0.4347800
v 0.5000000 -0.3000000 -0.4500000
v 0.5000000 -0.5000000 -0.4500000
v 0.3585800 -0.5000000 -0.3914200
v 0.3585800 -0.3000000 -0.3914200
v 0.4234600 -0.3000000 -0.4347800
v 0.4234600 -0.5000000 -0.4347800
v 0.3152200 -0.5000000 -0.3265400
v 0.3152200 -0.3000000 -0.3265400
v 0.3585800 -0.3000000 -0.3914200
v 0.3585800 -0.5000000 -0.3914200
v 0.3000000 -0.5000000 -0.2500000
v 0.3000000 -0.3000000 -0.2500000
v 0.3152200 -0.3000000 -0.3265400
v 0.3152200 -0.5000000 -0.3265400
v -0.3500000 -0.6000000 -0.2500000
v -0.3614150 -0.6000000 -0.1925950
v -0.3614150 -0.5000000 -0.1925950
v -0.3500000 -0.5000000 -0.2500000
v -0.3614150 -0.6000000 -0.1925950
v -0.3939350 -0.6000000 -0.1439350
v -0.3939350 -0.5000000 -0.1439350
v -0.3614150 -0.5000000 -0.1925950
v -0.3939350 -0.6000000 -0.1439350
v -0.4425950 -0.6000000 -0.1114150
v -0.4425950 -0.5000000 -0.1114150
v -0.3939350 -0.5000000 -0.1439350
v -0.4425950 -0.6000000 -0.1114150
v -0.5000000 -0.6000000 -0.1000000
v -0.5000000 -0.5000000 -0.1000000
v -0.4425950 -0.5000000 -0.1114150
v -0.5000000 -0.6000000 -0.1000000
v -0.5574050 -0.6000000 -0.1114150
v -0.5574050 -0.5000000 -0.1114150
v -0.5000000 -0.5000000 -0.1000000
v -0.5574050 -0.6000000 -0.1114150
v -0.6060650 -0.6000000 -0.1439350
v -0.6060650 -0.5000000 -0.1439350
v -0.5574050 -0.5000000 -0.1114150
v -0.6060650 -0.6000000 -0.1439350
v -0.6385850 -0.6000000 -0.1925950
v -0.6385850 -0.5000000 -0.1925950
v -0.6060650 -0.5000000 -0.1439350
v -0.6385850 -0.6000000 -0.1925950
v -0.6500000 -0.6000000 -0.2500000
v -0.6500000 -0.5000000 -0.2500000
v -0.6385850 -0.5000000 -0.1925950
v -0.6500000 -0.6000000 -0.2500000
v -0.6385850 -0.6000000 -0.3074050
v -0.6385850 -0.5000000 -0.3074050
v -0.6500000 -0.5000000 -0.2500000
v -0.6385850 -0.6000000 -0.3074050
v -0.6060650 -0.6000000 -0.3560650
v -0.6060650 -0.5000000 -0.3560650
v -0.6385850 -0.5000000 -0.3074050
v -0.6060650 -0.6000000 -0.3560650
v -0.5574050 -0.6000000 -0.3885850
v -0.5574050 -0.5000000 -0.3885850
v -0.6060650 -0.5000000 -0.3560650
v -0.5574050 -0.6000000 -0.3885850
v -0.5000000 -0.6000000 -0.4000000
v -0.5000000 -0.5000000 -0.4000000
v -0.5574050 -0.5000000 -0.3885850
v -0.5000000 -0.6000000 -0.4000000
v -0.4425950 -0.6000000 -0.3885850
v -0.4425950 -0.5000000 -0.3885850
v -0.5000000 -0.5000000 -0.4000000
v -0.4425950 -0.6000000 -0.3885850
v -0.3939350 -0.6000000 -0.3560650
v -0.3939350 -0.5000000 -0.3560650
v -0.4425950 -0.5000000 -0.3885850
v -0.3939350 -0.6000000 -0.3560650
v -0.3614150 -0.6000000 -0.3074050
v -0.3614150 -0.5000000 -0.3074050
v -0.3939350 -0.5000000 -0.3560650
v -0.3614150 -0.6000000 -0.3074050
v -0.3500000 -0.6000000 -0.2500000
v -0.3500000 -0.5000000 -0.2500000
v -0.3614150 -0.5000000 -0.3074050
v -0.3000000 -0.5000000 -0.2500000
v -0.3152200 -0.5000000 -0.1734600
v -0.3152200 -0.6000000 -0.1734600
v -0.3000000 -0.6000000 -0.2500000
v -0.3152200 -0.5000000 -0.1734600
v -0.3585800 -0.5000000 -0.1085800
v -0.3585800 -0.6000000 -0.1085800
v -0.3152200 -0.6000000 -0.1734600
v -0.3585800 -0.5000000 -0.1085800
v -0.4234600 -0.5000000 -0.0652200
v -0.4234600 -0.6000000 -0.0652200
v -0.3585800 -0.6000000 -0.1085800
v -0.4234600 -0.5000000 -0.0652200
v -0.5000000 -0.5000000 -0.0500000
v -0.5000000 -0.6000000 -0.0500000
v -0.4234600 -0.6000000 -0.0652200
v -0.5000000 -0.5000000 -0.0500000
v -0.5765400 -0.5000000 -0.0652200
v -0.5765400 -0.6000000 -0.0652200
v -0.5000000 -0.6000000 -0.0500000
v -0.5765400 -0.5000000 -0.0652200
v -0.6414200 -0.5000000 -0.1085800
v -0.6414200 -0.6000000 -0.1085800
v -0.5765400 -0.6000000 -0.0652200
v -0.6414200 -0.5000000 -0.1085800
v -0.6847800 -0.5000000 -0.1734600
v -0.6847800 -0.6000000 -0.1734600
v -0.6414200 -0.6000000 -0.1085800
v -0.6847800 -0.5000000 -0.1734600
v -0.7000000 -0.5000000 -0.2500000
v -0.7000000 -0.6000000 -0.2500000
v -0.6847800 -0.6000000 -0.1734600
v -0.7000000 -0.5000000 -0.2500000
v -0.6847800 -0.5000000 -0.3265400
v -0.6847800 -0.6000000 -0.3265400
v -0.7000000 -0.6000000 -0.2500000
v -0.6847800 -0.5000000 -0.3265400
v -0.6414200 -0.5000000 -0.3914200
v -0.6414200 -0.6000000 -0.3914200
v -0.6847800 -0.6000000 -0.3265400
v -0.6414200 -0.5000000 -0.3914200
v -0.5765400 -0.5000000 -0.4347800
v -0.5765400 -0.6000000 -0.4347800
v -0.6414200 -0.6000000 -0.3914200
v -0.5765400 -0.5000000 -0.4347800
v -0.5000000 -0.5000000 -0.4500000
v -0.5000000 -0.6000000 -0.4500000
v -0.5765400 -0.6000000 -0.4347800
v -0.5000000 -0.5000000 -0.4500000
v -0.4234600 -0.5000000 -0.4347800
v -0.4234600 -0.6000000 -0.4347800
v -0.5000000 -0.6000000 -0.4500000
v -0.4234600 -0.5000000 -0.4347800
v -0.3585800 -0.5000000 -0.3914200
v -0.3585800 -0.6000000 -0.3914200
v -0.4234600 -0.6000000 -0.4347800
v -0.3585800 -0.5000000 -0.3914200
v -0.3152200 -0.5000000 -0.3265400
v -0.3152200 -0.6000000 -0.3265400
v -0.3585800 -0.6000000 -0.3914200
v -0.3152200 -0.5000000 -0.3265400
v -0.3000000 -0.5000000 -0.2500000
v -0.3000000 -0.6000000 -0.2500000
v -0.3152200 -0.6000000 -0.3265400
v -0.5765400 -0.6000000 -0.0652200
v -0.5574050 -0.6000000 -0.1114150
v -0.5000000 -0.6000000 -0.1000000
v -0.5000000 -0.6000000 -0.0500000
v -0.6414200 -0.6000000 -0.1085800
v -0.6060650 -0.6000000 -0.1439350
v -0.5574050 -0.6000000 -0.1114150
v -0.5765400 -0.6000000 -0.0652200
v -0.6847800 -0.6000000 -0.1734600
v -0.6385850 -0.6000000 -0.1925950
v -0.6060650 -0.6000000 -0.1439350
v -0.6414200 -0.6000000 -0.1085800
v -0.7000000 -0.6000000 -0.2500000
v -0.6500000 -0.6000000 -0.2500000
v -0.6385850 -0.6000000 -0.1925950
v -0.6847800 -0.6000000 -0.1734600
v -0.6847800 -0.6000000 -0.3265400
v -0.6385850 -0.6000000 -0.3074050
v -0.6500000 -0.6000000 -0.2500000
v -0.7000000 -0.6000000 -0.2500000
v -0.6414200 -0.6000000 -0.3914200
v -0.6060650 -0.6000000 -0.3560650
v -0.6385850 -0.6000000 -0.3074050
v -0.6847800 -0.6000000 -0.3265400
v -0.5765400 -0.6000000 -0.4347800
v -0.5574050 -0.6000000 -0.3885850
v -0.6060650 -0.6000000 -0.3560650
v -0.6414200 -0.6000000 -0.3914200
v -0.5000000 -0.6000000 -0.4500000
v -0.5000000 -0.6000000 -0.4000000
v -0.5574050 -0.6000000 -0.3885850
v -0.5765400 -0.6000000 -0.4347800
v -0.4234600 -0.6000000 -0.4347800
v -0.4425950 -0.6000000 -0.3885850
v -0.5000000 -0.6000000 -0.4000000
v -0.5000000 -0.6000000 -0.4500000
v -0.3585800 -0.6000000 -0.3914200
v -0.3939350 -0.6000000 -0.3560650
v -0.4425950 -0.6000000 -0.3885850
v -0.4234600 -0.6000000 -0.4347800
v -0.3152200 -0.6000000 -0.3265400
v -0.3614150 -0.6000000 -0.3074050
v -0.3939350 -0.6000000 -0.3560650
v -0.3585800 -0.6000000 -0.3914200
v -0.3000000 -0.6000000 -0.2500000
v -0.3500000 -0.6000000 -0.2500000
v -0.3614150 -0.6000000 -0.3074050
v -0.3152200 -0.6000000 -0.3265400
v -0.3152200 -0.6000000 -0.1734600
v -0.3614150 -0.6000000 -0.1925950
v -0.3500000 -0.6000000 -0.2500000
v -0.3000000 -0.6000000 -0.2500000
v -0.3585800 -0.6000000 -0.1085800
v -0.3939350 -0.6000000 -0.1439350
v -0.3614150 -0.6000000 -0.1925950
v -0.3152200 -0.6000000 -0.1734600
v -0.4234600 -0.6000000 -0.0652200
v -0.4425950 -0.6000000 -0.1114150
v -0.3939350 -0.6000000 -0.1439350
v -0.3585800 -0.6000000 -0.1085800
v -0.5000000 -0.6000000 -0.0500000
v -0.5000000 -0.6000000 -0.1000000
v -0.4425950 -0.6000000 -0.1114150
v -0.4234600 -0.6000000 -0.0652200
v -0.5000000 -0.2500000 -0.4000000
v -0.4425950 -0.2500000 -0.3885850
v -0.4425950 -0.2385850 -0.3885850
v -0.4425950 -0.2500000 -0.3885850
v -0.3939350 -0.2500000 -0.3560650
v -0.3939350 -0.2060650 -0.3560650
v -0.4425950 -0.2385850 -0.3885850
v -0.3939350 -0.2500000 -0.3560650
v -0.3614150 -0.2500000 -0.3074050
v -0.3614150 -0.1574050 -0.3074050
v -0.3939350 -0.2060650 -0.3560650
v -0.3614150 -0.2500000 -0.3074050
v -0.3500000 -0.2500000 -0.2500000
v -0.3500000 -0.1000000 -0.2500000
v -0.3614150 -0.1574050 -0.3074050
v -0.5574050 -0.2385850 -0.3885850
v -0.5574050 -0.2500000 -0.3885850
v -0.5000000 -0.2500000 -0.4000000
v -0.5574050 -0.2385850 -0.3885850
v -0.6060650 -0.2060650 -0.3560650
v -0.6060650 -0.2500000 -0.3560650
v -0.5574050 -0.2500000 -0.3885850
v -0.6060650 -0.2060650 -0.3560650
v -0.6385850 -0.1574050 -0.3074050
v -0.6385850 -0.2500000 -0.3074050
v -0.6060650 -0.2500000 -0.3560650
v -0.6385850 -0.1574050 -0.3074050
v -0.6500000 -0.1000000 -0.2500000
v -0.6500000 -0.2500000 -0.2500000
v -0.6385850 -0.2500000 -0.3074050
v -0.3614150 -0.5000000 -0.1925950
v -0.3614150 -0.1000000 -0.1925950
v -0.3500000 -0.1000000 -0.2500000
v -0.3500000 -0.5000000 -0.2500000
v -0.3939350 -0.5000000 -0.1439350
v -0.3939350 -0.1000000 -0.1439350
v -0.3614150 -0.1000000 -0.1925950
v -0.3614150 -0.5000000 -0.1925950
v -0.4425950 -0.5000000 -0.1114150
v -0.4425950 -0.1000000 -0.1114150
v -0.3939350 -0.1000000 -0.1439350
v -0.3939350 -0.5000000 -0.1439350
v -0.5000000 -0.5000000 -0.1000000
v -0.5000000 -0.1000000 -0.1000000
v -0.4425950 -0.1000000 -0.1114150
v -0.4425950 -0.5000000 -0.1114150
v -0.5574050 -0.5000000 -0.1114150
v -0.5574050 -0.1000000 -0.1114150
v -0.5000000 -0.1000000 -0.1000000
v -0.5000000 -0.5000000 -0.1000000
v -0.6060650 -0.5000000 -0.1439350
v -0.6060650 -0.1000000 -0.1439350
v -0.5574050 -0.1000000 -0.1114150
v -0.5574050 -0.5000000 -0.1114150
v -0.6385850 -0.5000000 -0.1925950
v -0.6385850 -0.1000000 -0.1925950
v -0.6060650 -0.1000000 -0.1439350
v -0.6060650 -0.5000000 -0.1439350
v -0.6500000 -0.5000000 -0.2500000
v -0.6500000 -0.1000000 -0.2500000
v -0.6385850 -0.1000000 -0.1925950
v -0.6385850 -0.5000000 -0.1925950
v -0.3500000 -0.5000000 -0.2500000
v -0.3500000 -0.2500000 -0.2500000
v -0.3614150 -0.2500000 -0.3074050
v -0.3614150 -0.5000000 -0.3074050
v -0.3614150 -0.5000000 -0.3074050
v -0.3614150 -0.2500000 -0.3074050
v -0.3939350 -0.2500000 -0.3560650
v -0.3939350 -0.5000000 -0.3560650
v -0.3939350 -0.5000000 -0.3560650
v -0.3939350 -0.2500000 -0.3560650
v -0.4425950 -0.2500000 -0.3885850
v -0.4425950 -0.5000000 -0.3885850
v -0.4425950 -0.5000000 -0.3885850
v -0.4425950 -0.2500000 -0.3885850
v -0.5000000 -0.2500000 -0.4000000
v -0.5000000 -0.5000000 -0.4000000
v -0.5000000 -0.5000000 -0.4000000
v -0.5000000 -0.2500000 -0.4000000
v -0.5574050 -0.2500000 -0.3885850
v -0.5574050 -0.5000000 -0.3885850
v -0.5574050 -0.5000000 -0.3885850
v -0.5574050 -0.2500000 -0.3885850
v -0.6060650 -0.2500000 -0.3560650
v -0.6060650 -0.5000000 -0.3560650
v -0.6060650 -0.5000000 -0.3560650
v -0.6060650 -0.2500000 -0.3560650
v -0.6385850 -0.2500000 -0.3074050
v -0.6385850 -0.5000000 -0.3074050
v -0.6385850 -0.5000000 -0.3074050
v -0.6385850 -0.2500000 -0.3074050
v -0.6500000 -0.2500000 -0.2500000
v -0.6500000 -0.5000000 -0.2500000
v -0.4234600 -0.2847800 -0.4347800
v -0.4234600 -0.3000000 -0.4347800
v -0.5000000 -0.3000000 -0.4500000
v -0.4234600 -0.2847800 -0.4347800
v -0.3585800 -0.2414200 -0.3914200
v -0.3585800 -0.3000000 -0.3914200
v -0.4234600 -0.3000000 -0.4347800
v -0.3585800 -0.2414200 -0.3914200
v -0.3152200 -0.1765400 -0.3265400
v -0.3152200 -0.3000000 -0.3265400
v -0.3585800 -0.3000000 -0.3914200
v -0.3152200 -0.1765400 -0.3265400
v -0.3000000 -0.1000000 -0.2500000
v -0.3000000 -0.3000000 -0.2500000
v -0.3152200 -0.3000000 -0.3265400
v -0.5000000 -0.3000000 -0.4500000
v -0.5765400 -0.3000000 -0.4347800
v -0.5765400 -0.2847800 -0.4347800
v -0.5765400 -0.3000000 -0.4347800
v -0.6414200 -0.3000000 -0.3914200
v -0.6414200 -0.2414200 -0.3914200
v -0.5765400 -0.2847800 -0.4347800
v -0.6414200 -0.3000000 -0.3914200
v -0.6847800 -0.3000000 -0.3265400
v -0.6847800 -0.1765400 -0.3265400
v -0.6414200 -0.2414200 -0.3914200
v -0.6847800 -0.3000000 -0.3265400
v -0.7000000 -0.3000000 -0.2500000
v -0.7000000 -0.1000000 -0.2500000
v -0.6847800 -0.1765400 -0.3265400
v -0.3000000 -0.5000000 -0.2500000
v -0.3000000 -0.1000000 -0.2500000
v -0.3152200 -0.1000000 -0.1734600
v -0.3152200 -0.5000000 -0.1734600
v -0.3152200 -0.5000000 -0.1734600
v -0.3152200 -0.1000000 -0.1734600
v -0.3585800 -0.1000000 -0.1085800
v -0.3585800 -0.5000000 -0.1085800
v -0.3585800 -0.5000000 -0.1085800
v -0.3585800 -0.1000000 -0.1085800
v -0.4234600 -0.1000000 -0.0652200
v -0.4234600 -0.5000000 -0.0652200
v -0.4234600 -0.5000000 -0.0652200
v -0.4234600 -0.1000000 -0.0652200
v -0.5000000 -0.1000000 -0.0500000
v -0.5000000 -0.5000000 -0.0500000
v -0.5000000 -0.5000000 -0.0500000
v -0.5000000 -0.1000000 -0.0500000
v -0.5765400 -0.1000000 -0.0652200
v -0.5765400 -0.5000000 -0.0652200
v -0.5765400 -0.5000000 -0.0652200
v -0.5765400 -0.1000000 -0.0652200
v -0.6414200 -0.1000000 -0.1085800
v -0.6414200 -0.5000000 -0.1085800
v -0.6414200 -0.5000000 -0.1085800
v -0.6414200 -0.1000000 -0.1085800
v -0.6847800 -0.1000000 -0.1734600
v -0.6847800 -0.5000000 -0.1734600
v -0.6847800 -0.5000000 -0.1734600
v -0.6847800 -0.1000000 -0.1734600
v -0.7000000 -0.1000000 -0.2500000
v -0.7000000 -0.5000000 -0.2500000
v -0.3152200 -0.5000000 -0.3265400
v -0.3152200 -0.3000000 -0.3265400
v -0.3000000 -0.3000000 -0.2500000
v -0.3000000 -0.5000000 -0.2500000
v -0.3585800 -0.5000000 -0.3914200
v -0.3585800 -0.3000000 -0.3914200
v -0.3152200 -0.3000000 -0.3265400
v -0.3152200 -0.5000000 -0.3265400
v -0.4234600 -0.5000000 -0.4347800
v -0.4234600 -0.3000000 -0.4347800
v -0.3585800 -0.3000000 -0.3914200
v -0.3585800 -0.5000000 -0.3914200
v -0.5000000 -0.5000000 -0.4500000
v -0.5000000 -0.3000000 -0.4500000
v -0.4234600 -0.3000000 -0.4347800
v -0.4234600 -0.5000000 -0.4347800
v -0.5765400 -0.5000000 -0.4347800
v -0.5765400 -0.3000000 -0.4347800
v -0.5000000 -0.3000000 -0.4500000
v -0.5000000 -0.5000000 -0.4500000
v -0.6414200 -0.5000000 -0.3914200
v -0.6414200 -0.3000000 -0.3914200
v -0.5765400 -0.3000000 -0.4347800
v -0.5765400 -0.5000000 -0.4347800
v -0.6847800 -0.5000000 -0.3265400
v -0.6847800 -0.3000000 -0.3265400
v -0.6414200 -0.3000000 -0.3914200
v -0.6414200 -0.5000000 -0.3914200
v -0.7000000 -0.5000000 -0.2500000
v -0.7000000 -0.3000000 -0.2500000
v -0.6847800 -0.3000000 -0.3265400
v -0.6847800 -0.5000000 -0.3265400
v 0.1500000 -0.6000000 -0.2500000
v 0.1385850 -0.6000000 -0.1925950
v 0.1385850 -0.5000000 -0.1925950
v 0.1500000 -0.5000000 -0.2500000
v 0.1385850 -0.6000000 -0.1925950
v 0.1060650 -0.6000000 -0.1439350
v 0.1060650 -0.5000000 -0.1439350
v 0.1385850 -0.5000000 -0.1925950
v 0.1060650 -0.6000000 -0.1439350
v 0.0574050 -0.6000000 -0.1114150
v 0.0574050 -0.5000000 -0.1114150
v 0.1060650 -0.5000000 -0.1439350
v 0.0574050 -0.6000000 -0.1114150
v 0.0000000 -0.6000000 -0.1000000
v 0.0000000 -0.5000000 -0.1000000
v 0.0574050 -0.5000000 -0.1114150
v 0.0000000 -0.6000000 -0.1000000
v -0.0574050 -0.6000000 -0.1114150
v -0.0574050 -0.5000000 -0.1114150
v 0.0000000 -0.5000000 -0.1000000
v -0.0574050 -0.6000000 -0.1114150
v -0.1060650 -0.6000000 -0.1439350
v -0.1060650 -0.5000000 -0.1439350
v -0.0574050 -0.5000000 -0.1114150
v -0.1060650 -0.6000000 -0.1439350
v -0.1385850 -0.6000000 -0.1925950
v -0.1385850 -0.5000000 -0.1925950
v -0.1060650 -0.5000000 -0.1439350
v -0.1385850 -0.6000000 -0.1925950
v -0.1500000 -0.6000000 -0.2500000
v -0.1500000 -0.5000000 -0.2500000
v -0.1385850 -0.5000000 -0.1925950
v -0.1500000 -0.6000000 -0.2500000
v -0.1385850 -0.6000000 -0.3074050
v -0.1385850 -0.5000000 -0.3074050
v -0.1500000 -0.5000000 -0.2500000
v -0.1385850 -0.6000000 -0.3074050
v -0.1060650 -0.6000000 -0.3560650
v -0.1060650 -0.5000000 -0.3560650
v -0.1385850 -0.5000000 -0.3074050
v -0.1060650 -0.6000000 -0.3560650
v -0.0574050 -0.6000000 -0.3885850
v -0.0574050 -0.5000000 -0.3885850
v -0.1060650 -0.5000000 -0.3560650
v -0.0574050 -0.6000000 -0.3885850
v 0.0000000 -0.6000000 -0.4000000
v 0.0000000 -0.5000000 -0.4000000
v -0.0574050 -0.5000000 -0.3885850
v 0.0000000 -0.6000000 -0.4000000
v 0.0574050 -0.6000000 -0.3885850
v 0.0574050 -0.5000000 -0.3885850
v 0.0000000 -0.5000000 -0.4000000
v 0.0574050 -0.6000000 -0.3885850
v 0.1060650 -0.6000000 -0.3560650
v 0.1060650 -0.5000000 -0.3560650
v 0.0574050 -0.5000000 -0.3885850
v 0.1060650 -0.6000000 -0.3560650
v 0.1385850 -0.6000000 -0.3074050
v 0.1385850 -0.5000000 -0.3074050
v 0.1060650 -0.5000000 -0.3560650
v 0.1385850 -0.6000000 -0.3074050
v 0.1500000 -0.6000000 -0.2500000
v 0.1500000 -0.5000000 -0.2500000
v 0.1385850 -0.5000000 -0.3074050
v 0.2000000 -0.5000000 -0.2500000
v 0.1847800 -0.5000000 -0.1734600
v 0.1847800 -0.6000000 -0.1734600
v 0.2000000 -0.6000000 -0.2500000
v 0.1847800 -0.5000000 -0.1734600
v 0.1414200 -0.5000000 -0.1085800
v 0.1414200 -0.6000000 -0.1085800
v 0.1847800 -0.6000000 -0.1734600
v 0.1414200 -0.5000000 -0.1085800
v 0.0765400 -0.5000000 -0.0652200
v 0.0765400 -0.6000000 -0.0652200
v 0.1414200 -0.6000000 -0.1085800
v 0.0765400 -0.5000000 -0.0652200
v 0.0000000 -0.5000000 -0.0500000
v 0.0000000 -0.6000000 -0.0500000
v 0.0765400 -0.6000000 -0.0652200
v 0.0000000 -0.5000000 -0.0500000
v -0.0765400 -0.5000000 -0.0652200
v -0.0765400 -0.6000000 -0.0652200
v 0.0000000 -0.6000000 -0.0500000
v -0.0765400 -0.5000000 -0.0652200
v -0.1414200 -0.5000000 -0.1085800
v -0.1414200 -0.6000000 -0.1085800
v -0.0765400 -0.6000000 -0.0652200
v -0.1414200 -0.5000000 -0.1085800
v -0.1847800 -0.5000000 -0.1734600
v -0.1847800 -0.6000000 -0.1734600
v -0.1414200 -0.6000000 -0.1085800
v -0.1847800 -0.5000000 -0.1734600
v -0.2000000 -0.5000000 -0.2500000
v -0.2000000 -0.6000000 -0.2500000
v -0.1847800 -0.6000000 -0.1734600
v -0.2000000 -0.5000000 -0.2500000
v -0.1847800 -0.5000000 -0.3265400
v -0.1847800 -0.6000000 -0.3265400
v -0.2000000 -0.6000000 -0.2500000
v -0.1847800 -0.5000000 -0.3265400
v -0.1414200 -0.5000000 -0.3914200
v -0.1414200 -0.6000000 -0.3914200
v -0.1847800 -0.6000000 -0.3265400
v -0.1414200 -0.5000000 -0.3914200
v -0.0765400 -0.5000000 -0.4347800
v -0.0765400 -0.6000000 -0.4347800
v -0.1414200 -0.6000000 -0.3914200
v -0.0765400 -0.5000000 -0.4347800
v 0.0000000 -0.5000000 -0.4500000
v 0.0000000 -0.6000000 -0.4500000
v -0.0765400 -0.6000000 -0.4347800
v 0.0000000 -0.5000000 -0.4500000
v 0.0765400 -0.5000000 -0.4347800
v 0.0765400 -0.6000000 -0.4347800
v 0.0000000 -0.6000000 -0.4500000
v 0.0765400 -0.5000000 -0.4347800
v 0.1414200 -0.5000000 -0.3914200
v 0.1414200 -0.6000000 -0.3914200
v 0.0765400 -0.6000000 -0.4347800
v 0.1414200 -0.5000000 -0.3914200
v 0.1847800 -0.5000000 -0.3265400
v 0.1847800 -0.6000000 -0.3265400
v 0.1414200 -0.6000000 -0.3914200
v 0.1847800 -0.5000000 -0.3265400
v 0.2000000 -0.5000000 -0.2500000
v 0.2000000 -0.6000000 -0.2500000
v 0.1847800 -0.6000000 -0.3265400
v -0.0765400 -0.6000000 -0.0652200
v -0.0574050 -0.6000000 -0.1114150
v 0.0000000 -0.6000000 -0.1000000
v 0.0000000 -0.6000000 -0.0500000
v -0.1414200 -0.6000000 -0.1085800
v -0.1060650 -0.6000000 -0.1439350
v -0.0574050 -0.6000000 -0.1114150
v -0.0765400 -0.6000000 -0.0652200
v -0.1847800 -0.6000000 -0.1734600
v -0.1385850 -0.6000000 -0.1925950
v -0.1060650 -0.6000000 -0.1439350
v -0.1414200 -0.6000000 -0.1085800
v -0.2000000 -0.6000000 -0.2500000
v -0.1500000 -0.6000000 -0.2500000
v -0.1385850 -0.6000000 -0.1925950
v -0.1847800 -0.6000000 -0.1734600
v -0.1847800 -0.6000000 -0.3265400
v -0.1385850 -0.6000000 -0.3074050
v -0.1500000 -0.6000000 -0.2500000
v -0.2000000 -0.6000000 -0.2500000
v -0.1414200 -0.6000000 -0.3914200
v -0.1060650 -0.6000000 -0.3560650
v -0.1385850 -0.6000000 -0.3074050
v -0.1847800 -0.6000000 -0.3265400
v -0.0765400 -0.6000000 -0.4347800
v -0.0574050 -0.6000000 -0.3885850
v -0.1060650 -0.6000000 -0.3560650
v -0.1414200 -0.6000000 -0.3914200
v 0.0000000 -0.6000000 -0.4500000
v 0.0000000 -0.6000000 -0.4000000
v -0.0574050 -0.6000000 -0.3885850
v -0.0765400 -0.6000000 -0.4347800
v 0.0765400 -0.6000000 -0.4347800
v 0.0574050 -0.6000000 -0.3885850
v 0.0000000 -0.6000000 -0.4000000
v 0.0000000 -0.6000000 -0.4500000
v 0.1414200 -0.6000000 -0.3914200
v 0.1060650 -0.6000000 -0.3560650
v 0.0574050 -0.6000000 -0.3885850
v 0.0765400 -0.6000000 -0.4347800
v 0.1847800 -0.6000000 -0.3265400
v 0.1385850 -0.6000000 -0.3074050
v 0.1060650 -0.6000000 -0.3560650
v 0.1414200 -0.6000000 -0.3914200
v 0.2000000 -0.6000000 -0.2500000
v 0.1500000 -0.6000000 -0.2500000
v 0.1385850 -0.6000000 -0.3074050
v 0.1847800 -0.6000000 -0.3265400
v 0.1847800 -0.6000000 -0.1734600
v 0.1385850 -0.6000000 -0.1925950
v 0.1500000 -0.6000000 -0.2500000
v 0.2000000 -0.6000000 -0.2500000
v 0.1414200 -0.6000000 -0.1085800
v 0.1060650 -0.6000000 -0.1439350
v 0.1385850 -0.6000000 -0.1925950
v 0.1847800 -0.6000000 -0.1734600
v 0.0765400 -0.6000000 -0.0652200
v 0.0574050 -0.6000000 -0.1114150
v 0.1060650 -0.6000000 -0.1439350
v 0.1414200 -0.6000000 -0.1085800
v 0.0000000 -0.6000000 -0.0500000
v 0.0000000 -0.6000000 -0.1000000
v 0.0574050 -0.6000000 -0.1114150
v 0.0765400 -0.6000000 -0.0652200
v 0.0000000 -0.2500000 -0.4000000
v 0.0574050 -0.2500000 -0.3885850
v 0.0574050 -0.2385850 -0.3885850
v 0.0574050 -0.2500000 -0.3885850
v 0.1060650 -0.2500000 -0.3560650
v 0.1060650 -0.2060650 -0.3560650
v 0.0574050 -0.2385850 -0.3885850
v 0.1060650 -0.2500000 -0.3560650
v 0.1385850 -0.2500000 -0.3074050
v 0.1385850 -0.1574050 -0.3074050
v 0.1060650 -0.2060650 -0.3560650
v 0.1385850 -0.2500000 -0.3074050
v 0.1500000 -0.2500000 -0.2500000
v 0.1500000 -0.1000000 -0.2500000
v 0.1385850 -0.1574050 -0.3074050
v -0.0574050 -0.2385850 -0.3885850
v -0.0574050 -0.2500000 -0.3885850
v 0.0000000 -0.2500000 -0.4000000
v -0.0574050 -0.2385850 -0.3885850
v -0.1060650 -0.2060650 -0.3560650
v -0.1060650 -0.2500000 -0.3560650
v -0.0574050 -0.2500000 -0.3885850
v -0.1060650 -0.2060650 -0.3560650
v -0.1385850 -0.1574050 -0.3074050
v -0.1385850 -0.2500000 -0.3074050
v -0.1060650 -0.2500000 -0.3560650
v -0.1385850 -0.1574050 -0.3074050
v -0.1500000 -0.1000000 -0.2500000
v -0.1500000 -0.2500000 -0.2500000
v -0.1385850 -0.2500000 -0.3074050
v 0.1385850 -0.5000000 -0.1925950
v 0.1385850 -0.1000000 -0.1925950
v 0.1500000 -0.1000000 -0.2500000
v 0.1500000 -0.5000000 -0.2500000
v 0.1060650 -0.5000000 -0.1439350
v 0.1060650 -0.1000000 -0.1439350
v 0.1385850 -0.1000000 -0.1925950
v 0.1385850 -0.5000000 -0.1925950
v 0.0574050 -0.5000000 -0.1114150
v 0.0574050 -0.1000000 -0.1114150
v 0.1060650 -0.1000000 -0.1439350
v 0.1060650 -0.5000000 -0.1439350
v 0.0000000 -0.5000000 -0.1000000
v 0.0000000 -0.1000000 -0.1000000
v 0.0574050 -0.1000000 -0.1114150
v 0.0574050 -0.5000000 -0.1114150
v -0.0574050 -0.5000000 -0.1114150
v -0.0574050 -0.1000000 -0.1114150
v 0.0000000 -0.1000000 -0.1000000
v 0.0000000 -0.5000000 -0.1000000
v -0.1060650 -0.5000000 -0.1439350
v -0.1060650 -0.1000000 -0.1439350
v -0.0574050 -0.1000000 -0.1114150
v -0.0574050 -0.5000000 -0.1114150
v -0.1385850 -0.5000000 -0.1925950
v -0.1385850 -0.1000000 -0.1925950
v -0.1060650 -0.1000000 -0.1439350
v -0.1060650 -0.5000000 -0.1439350
v -0.1500000 -0.5000000 -0.2500000
v -0.1500000 -0.1000000 -0.2500000
v -0.1385850 -0.1000000 -0.1925950
v -0.1385850 -0.5000000 -0.1925950
v 0.1500000 -0.5000000 -0.2500000
v 0.1500000 -0.2500000 -0.2500000
v 0.1385850 -0.2500000 -0.3074050
v 0.1385850 -0.5000000 -0.3074050
v 0.1385850 -0.5000000 -0.3074050
v 0.1385850 -0.2500000 -0.3074050
v 0.1060650 -0.2500000 -0.3560650
v 0.1060650 -0.5000000 -0.3560650
v 0.1060650 -0.5000000 -0.3560650
v 0.1060650 -0.2500000 -0.3560650
v 0.0574050 -0.2500000 -0.3885850
v 0.0574050 -0.5000000 -0.3885850
v 0.0574050 -0.5000000 -0.3885850
v 0.0574050 -0.2500000 -0.3885850
v 0.0000000 -0.2500000 -0.4000000
v 0.0000000 -0.5000000 -0.4000000
v 0.0000000 -0.5000000 -0.4000000
v 0.0000000 -0.2500000 -0.4000000
v -0.0574050 -0.2500000 -0.3885850
v -0.0574050 -0.5000000 -0.3885850
v -0.0574050 -0.5000000 -0.3885850
v -0.0574050 -0.2500000 -0.3885850
v -0.1060650 -0.2500000 -0.3560650
v -0.1060650 -0.5000000 -0.3560650
v -0.1060650 -0.5000000 -0.3560650
v -0.1060650 -0.2500000 -0.3560650
v -0.1385850 -0.2500000 -0.3074050
v -0.1385850 -0.5000000 -0.3074050
v -0.1385850 -0.5000000 -0.3074050
v -0.1385850 -0.2500000 -0.3074050
v -0.1500000 -0.2500000 -0.2500000
v -0.1500000 -0.5000000 -0.2500000
v 0.0765400 -0.2847800 -0.4347800
v 0.0765400 -0.3000000 -0.4347800
v 0.0000000 -0.3000000 -0.4500000
v 0.0765400 -0.2847800 -0.4347800
v 0.1414200 -0.2414200 -0.3914200
v 0.1414200 -0.3000000 -0.3914200
v 0.0765400 -0.3000000 -0.4347800
v 0.1414200 -0.2414200 -0.3914200
v 0.1847800 -0.1765400 -0.3265400
v 0.1847800 -0.3000000 -0.3265400
v 0.1414200 -0.3000000 -0.3914200
v 0.1847800 -0.1765400 -0.3265400
v 0.2000000 -0.1000000 -0.2500000
v 0.2000000 -0.3000000 -0.2500000
v 0.1847800 -0.3000000 -0.3265400
v 0.0000000 -0.3000000 -0.4500000
v -0.0765400 -0.3000000 -0.4347800
v -0.0765400 -0.2847800 -0.4347800
v -0.0765400 -0.3000000 -0.4347800
v -0.1414200 -0.3000000 -0.3914200
v -0.1414200 -0.2414200 -0.3914200
v -0.0765400 -0.2847800 -0.4347800
v -0.1414200 -0.3000000 -0.3914200
v -0.1847800 -0.3000000 -0.3265400
v -0.1847800 -0.1765400 -0.3265400
v -0.1414200 -0.2414200 -0.3914200
v -0.1847800 -0.3000000 -0.3265400
v -0.2000000 -0.3000000 -0.2500000
v -0.2000000 -0.1000000 -0.2500000
v -0.1847800 -0.1765400 -0.3265400
v 0.2000000 -0.5000000 -0.2500000
v 0.2000000 -0.1000000 -0.2500000
v 0.1847800 -0.1000000 -0.1734600
v 0.1847800 -0.5000000 -0.1734600
v 0.1847800 -0.5000000 -0.1734600
v 0.1847800 -0.1000000 -0.1734600
v 0.1414200 -0.1000000 -0.1085800
v 0.1414200 -0.5000000 -0.1085800
v 0.1414200 -0.5000000 -0.1085800
v 0.1414200 -0.1000000 -0.1085800
v 0.0765400 -0.1000000 -0.0652200
v 0.0765400 -0.5000000 -0.0652200
v 0.0765400 -0.5000000 -0.0652200
v 0.0765400 -0.1000000 -0.0652200
v 0.0000000 -0.1000000 -0.0500000
v 0.0000000 -0.5000000 -0.0500000
v 0.0000000 -0.5000000 -0.0500000
v 0.0000000 -0.1000000 -0.0500000
v -0.0765400 -0.1000000 -0.0652200
v -0.0765400 -0.5000000 -0.0652200
v -0.0765400 -0.5000000 -0.0652200
v -0.0765400 -0.1000000 -0.0652200
v -0.1414200 -0.1000000 -0.1085800
v -0.1414200 -0.5000000 -0.1085800
v -0.1414200 -0.5000000 -0.1085800
v -0.1414200 -0.1000000 -0.1085800
v -0.1847800 -0.1000000 -0.1734600
v -0.1847800 -0.5000000 -0.1734600
v -0.1847800 -0.5000000 -0.1734600
v -0.1847800 -0.1000000 -0.1734600
v -0.2000000 -0.1000000 -0.2500000
v -0.2000000 -0.5000000 -0.2500000
v 0.1847800 -0.5000000 -0.3265400
v 0.1847800 -0.3000000 -0.3265400
v 0.2000000 -0.3000000 -0.2500000
v 0.2000000 -0.5000000 -0.2500000
v 0.1414200 -0.5000000 -0.3914200
v 0.1414200 -0.3000000 -0.3914200
v 0.1847800 -0.3000000 -0.3265400
v 0.1847800 -0.5000000 -0.3265400
v 0.0765400 -0.5000000 -0.4347800
v 0.0765400 -0.3000000 -0.4347800
v 0.1414200 -0.3000000 -0.3914200
v 0.1414200 -0.5000000 -0.3914200
v 0.0000000 -0.5000000 -0.4500000
v 0.0000000 -0.3000000 -0.4500000
v 0.0765400 -0.3000000 -0.4347800
v 0.0765400 -0.5000000 -0.4347800
v -0.0765400 -0.5000000 -0.4347800
v -0.0765400 -0.3000000 -0.4347800
v 0.0000000 -0.3000000 -0.4500000
v 0.0000000 -0.5000000 -0.4500000
v -0.1414200 -0.5000000 -0.3914200
v -0.1414200 -0.3000000 -0.3914200
v -0.0765400 -0.3000000 -0.4347800
v -0.0765400 -0.5000000 -0.4347800
v -0.1847800 -0.5000000 -0.3265400
v -0.1847800 -0.3000000 -0.3265400
v -0.1414200 -0.3000000 -0.3914200
v -0.1414200 -0.5000000 -0.3914200
v -0.2000000 -0.5000000 -0.2500000
v -0.2000000 -0.3000000 -0.2500000
v -0.1847800 -0.3000000 -0.3265400
v -0.1847800 -0.5000000 -0.3265400
v -1.0000000 -0.6000000 0.2500000
v -0.9000000 -0.6000000 0.1500000
v 0.9000000 -0.6000000 0.1500000
v 1.0000000 -0.6000000 0.2500000
v -1.0000000 -0.6000000 -0.7500000
v -0.9000000 -0.6000000 -0.6500000
v -0.9000000 -0.6000000 0.1500000
v -1.0000000 -0.6000000 0.2500000
v 1.0000000 -0.6000000 -0.7500000
v 0.9000000 -0.6000000 -0.6500000
v -0.9000000 -0.6000000 -0.6500000
v -1.0000000 -0.6000000 -0.7500000
v 1.0000000 -0.6000000 0.2500000
v 0.9000000 -0.6000000 0.1500000
v 0.9000000 -0.6000000 -0.6500000
v 1.0000000 -0.6000000 -0.7500000
v -0.9000000 -0.1000000 0.1500000
v -0.9000000 -0.1000000 -0.2500000
v 0.9000000 -0.1000000 -0.2500000
v 0.9000000 -0.1000000 0.1500000
v 1.0000000 -0.0000000 -0.2500000
v -1.0000000 -0.0000000 -0.2500000
v -1.0000000 -0.0000000 0.2500000
v 1.0000000 -0.0000000 0.2500000
v 1.0000000 -0.0000000 0.2500000
v -1.0000000 -0.0000000 0.2500000
v -1.0000000 -0.6000000 0.2500000
v 1.0000000 -0.6000000 0.2500000
v -0.9000000 -0.6000000 0.1500000
v -0.9000000 -0.1000000 0.1500000
v 0.9000000 -0.1000000 0.1500000
v 0.9000000 -0.6000000 0.1500000
v 0.9000000 -0.5000000 -0.6500000
v -0.9000000 -0.5000000 -0.6500000
v -0.9000000 -0.6000000 -0.6500000
v 0.9000000 -0.6000000 -0.6500000
v -1.0000000 -0.6000000 -0.7500000
v -1.0000000 -0.5000000 -0.7500000
v 1.0000000 -0.5000000 -0.7500000
v 1.0000000 -0.6000000 -0.7500000
v 1.0000000 -0.6000000 -0.7500000
v 1.0000000 -0.5000000 -0.7500000
v 1.0000000 -0.0000000 0.2500000
v 1.0000000 -0.6000000 0.2500000
v 1.0000000 -0.5000000 -0.7500000
v 1.0000000 -0.0000000 -0.2500000
v 1.0000000 -0.0000000 0.2500000
v 0.9000000 -0.1000000 0.1500000
v 0.9000000 -0.5000000 -0.6500000
v 0.9000000 -0.6000000 -0.6500000
v 0.9000000 -0.6000000 0.1500000
v 0.9000000 -0.1000000 -0.2500000
v 0.9000000 -0.5000000 -0.6500000
v 0.9000000 -0.1000000 0.1500000
v -0.9000000 -0.6000000 -0.6500000
v -0.9000000 -0.5000000 -0.6500000
v -0.9000000 -0.1000000 0.1500000
v -0.9000000 -0.6000000 0.1500000
v -0.9000000 -0.5000000 -0.6500000
v -0.9000000 -0.1000000 -0.2500000
v -0.9000000 -0.1000000 0.1500000
v -1.0000000 -0.0000000 0.2500000
v -1.0000000 -0.5000000 -0.7500000
v -1.0000000 -0.6000000 -0.7500000
v -1.0000000 -0.6000000 0.2500000
v -1.0000000 -0.0000000 -0.2500000
v -1.0000000 -0.5000000 -0.7500000
v -1.0000000 -0.0000000 0.2500000
v 0.9000000 -0.1000000 -0.2500000
v -0.9000000 -0.1000000 -0.2500000
v -0.9000000 -0.5000000 -0.6500000
v 0.9000000 -0.5000000 -0.6500000
v -0.6000000 0.1000000 0.0000000
v -0.6114150 0.1000000 0.0574050
v -0.6114150 -0.0000000 0.0574050
v -0.6000000 -0.0000000 0.0000000
v -0.6114150 0.1000000 0.0574050
v -0.6439350 0.1000000 0.1060650
v -0.6439350 -0.0000000 0.1060650
v -0.6114150 -0.0000000 0.0574050
v -0.6439350 0.1000000 0.1060650
v -0.6925950 0.1000000 0.1385850
v -0.6925950 -0.0000000 0.1385850
v -0.6439350 -0.0000000 0.1060650
v -0.6925950 0.1000000 0.1385850
v -0.7500000 0.1000000 0.1500000
v -0.7500000 -0.0000000 0.1500000
v -0.6925950 -0.0000000 0.1385850
v -0.7500000 0.1000000 0.1500000
v -0.8074050 0.1000000 0.1385850
v -0.8074050 -0.0000000 0.1385850
v -0.7500000 -0.0000000 0.1500000
v -0.8074050 0.1000000 0.1385850
v -0.8560650 0.1000000 0.1060650
v -0.8560650 -0.0000000 0.1060650
v -0.8074050 -0.0000000 0.1385850
v -0.8560650 0.1000000 0.1060650
v -0.8885850 0.1000000 0.0574050
v -0.8885850 -0.0000000 0.0574050
v -0.8560650 -0.0000000 0.1060650
v -0.8885850 0.1000000 0.0574050
v -0.9000000 0.1000000 0.0000000
v -0.9000000 -0.0000000 0.0000000
v -0.8885850 -0.0000000 0.0574050
v -0.9000000 0.1000000 0.0000000
v -0.8885850 0.1000000 -0.0574050
v -0.8885850 -0.0000000 -0.0574050
v -0.9000000 -0.0000000 0.0000000
v -0.8885850 0.1000000 -0.0574050
v -0.8560650 0.1000000 -0.1060650
v -0.8560650 -0.0000000 -0.1060650
v -0.8885850 -0.0000000 -0.0574050
v -0.8560650 0.1000000 -0.1060650
v -0.8074050 0.1000000 -0.1385850
v -0.8074050 -0.0000000 -0.1385850
v -0.8560650 -0.0000000 -0.1060650
v -0.8074050 0.1000000 -0.1385850
v -0.7500000 0.1000000 -0.1500000
v -0.7500000 -0.0000000 -0.1500000
v -0.8074050 -0.0000000 -0.1385850
v -0.7500000 0.1000000 -0.1500000
v -0.6925950 0.1000000 -0.1385850
v -0.6925950 -0.0000000 -0.1385850
v -0.7500000 -0.0000000 -0.1500000
v -0.6925950 0.1000000 -0.1385850
v -0.6439350 0.1000000 -0.1060650
v -0.6439350 -0.0000000 -0.1060650
v -0.6925950 -0.0000000 -0.1385850
v -0.6439350 0.1000000 -0.1060650
v -0.6114150 0.1000000 -0.0574050
v -0.6114150 -0.0000000 -0.0574050
v -0.6439350 -0.0000000 -0.1060650
v -0.6114150 0.1000000 -0.0574050
v -0.6000000 0.1000000 0.0000000
v -0.6000000 -0.0000000 0.0000000
v -0.6114150 -0.0000000 -0.0574050
v -0.6114150 0.1000000 0.0574050
v -0.6000000 0.1000000 0.0000000
v -0.7500000 0.1000000 0.0000000
v -0.6439350 0.1000000 0.1060650
v -0.6114150 0.1000000 0.0574050
v -0.7500000 0.1000000 0.0000000
v -0.6925950 0.1000000 0.1385850
v -0.6439350 0.1000000 0.1060650
v -0.7500000 0.1000000 0.0000000
v -0.7500000 0.1000000 0.1500000
v -0.6925950 0.1000000 0.1385850
v -0.7500000 0.1000000 0.0000000
v -0.8074050 0.1000000 0.1385850
v -0.7500000 0.1000000 0.1500000
v -0.7500000 0.1000000 0.0000000
v -0.8560650 0.1000000 0.1060650
v -0.8074050 0.1000000 0.1385850
v -0.7500000 0.1000000 0.0000000
v -0.8885850 0.1000000 0.0574050
v -0.8560650 0.1000000 0.1060650
v -0.7500000 0.1000000 0.0000000
v -0.9000000 0.1000000 0.0000000
v -0.8885850 0.1000000 0.0574050
v -0.7500000 0.1000000 0.0000000
v -0.8885850 0.1000000 -0.0574050
v -0.9000000 0.1000000 0.0000000
v -0.7500000 0.1000000 0.0000000
v -0.8560650 0.1000000 -0.1060650
v -0.8885850 0.1000000 -0.0574050
v -0.7500000 0.1000000 0.0000000
v -0.8074050 0.1000000 -0.1385850
v -0.8560650 0.1000000 -0.1060650
v -0.7500000 0.1000000 0.0000000
v -0.7500000 0.1000000 -0.1500000
v -0.8074050 0.1000000 -0.1385850
v -0.7500000 0.1000000 0.0000000
v -0.6925950 0.1000000 -0.1385850
v -0.7500000 0.1000000 -0.1500000
v -0.7500000 0.1000000 0.0000000
v -0.6439350 0.1000000 -0.1060650
v -0.6925950 0.1000000 -0.1385850
v -0.7500000 0.1000000 0.0000000
v -0.6114150 0.1000000 -0.0574050
v -0.6439350 0.1000000 -0.1060650
v -0.7500000 0.1000000 0.0000000
v -0.6000000 0.1000000 0.0000000
v -0.6114150 0.1000000 -0.0574050
v -0.7500000 0.1000000 0.0000000
v -0.1000000 0.1000000 0.0000000
v -0.1114150 0.1000000 0.0574050
v -0.1114150 -0.0000000 0.0574050
v -0.1000000 -0.0000000 0.0000000
v -0.1114150 0.1000000 0.0574050
v -0.1439350 0.1000000 0.1060650
v -0.1439350 -0.0000000 0.1060650
v -0.1114150 -0.0000000 0.0574050
v -0.1439350 0.1000000 0.1060650
v -0.1925950 0.1000000 0.1385850
v -0.1925950 -0.0000000 0.1385850
v -0.1439350 -0.0000000 0.1060650
v -0.1925950 0.1000000 0.1385850
v -0.2500000 0.1000000 0.1500000
v -0.2500000 -0.0000000 0.1500000
v -0.1925950 -0.0000000 0.1385850
v -0.2500000 0.1000000 0.1500000
v -0.3074050 0.1000000 0.1385850
v -0.3074050 -0.0000000 0.1385850
v -0.2500000 -0.0000000 0.1500000
v -0.3074050 0.1000000 0.1385850
v -0.3560650 0.1000000 0.1060650
v -0.3560650 -0.0000000 0.1060650
v -0.3074050 -0.0000000 0.1385850
v -0.3560650 0.1000000 0.1060650
v -0.3885850 0.1000000 0.0574050
v -0.3885850 -0.0000000 0.0574050
v -0.3560650 -0.0000000 0.1060650
v -0.3885850 0.1000000 0.0574050
v -0.4000000 0.1000000 0.0000000
v -0.4000000 -0.0000000 0.0000000
v -0.3885850 -0.0000000 0.0574050
v -0.4000000 0.1000000 0.0000000
v -0.3885850 0.1000000 -0.0574050
v -0.3885850 -0.0000000 -0.0574050
v -0.4000000 -0.0000000 0.0000000
v -0.3885850 0.1000000 -0.0574050
v -0.3560650 0.1000000 -0.1060650
v -0.3560650 -0.0000000 -0.1060650
v -0.3885850 -0.0000000 -0.0574050
v -0.3560650 0.1000000 -0.1060650
v -0.3074050 0.1000000 -0.1385850
v -0.3074050 -0.0000000 -0.1385850
v -0.3560650 -0.0000000 -0.1060650
v -0.3074050 0.1000000 -0.1385850
v -0.2500000 0.1000000 -0.1500000
v -0.2500000 -0.0000000 -0.1500000
v -0.3074050 -0.0000000 -0.1385850
v -0.2500000 0.1000000 -0.1500000
v -0.1925950 0.1000000 -0.1385850
v -0.1925950 -0.0000000 -0.1385850
v -0.2500000 -0.0000000 -0.1500000
v -0.1925950 0.1000000 -0.1385850
v -0.1439350 0.1000000 -0.1060650
v -0.1439350 -0.0000000 -0.1060650
v -0.1925950 -0.0000000 -0.1385850
v -0.1439350 0.1000000 -0.1060650
v -0.1114150 0.1000000 -0.0574050
v -0.1114150 -0.0000000 -0.0574050
v -0.1439350 -0.0000000 -0.1060650
v -0.1114150 0.1000000 -0.0574050
v -0.1000000 0.1000000 0.0000000
v -0.1000000 -0.0000000 0.0000000
v -0.1114150 -0.0000000 -0.0574050
v -0.1114150 0.1000000 0.0574050
v -0.1000000 0.1000000 0.0000000
v -0.2500000 0.1000000 0.0000000
v -0.1439350 0.1000000 0.1060650
v -0.1114150 0.1000000 0.0574050
v -0.2500000 0.1000000 0.0000000
v -0.1925950 0.1000000 0.1385850
v -0.1439350 0.1000000 0.1060650
v -0.2500000 0.1000000 0.0000000
v -0.2500000 0.1000000 0.1500000
v -0.1925950 0.1000000 0.1385850
v -0.2500000 0.1000000 0.0000000
v -0.3074050 0.1000000 0.1385850
v -0.2500000 0.1000000 0.1500000
v -0.2500000 0.1000000 0.0000000
v -0.3560650 0.1000000 0.1060650
v -0.3074050 0.1000000 0.1385850
v -0.2500000 0.1000000 0.0000000
v -0.3885850 0.1000000 0.0574050
v -0.3560650 0.1000000 0.1060650
v -0.2500000 0.1000000 0.0000000
v -0.4000000 0.1000000 0.0000000
v -0.3885850 0.1000000 0.0574050
v -0.2500000 0.1000000 0.0000000
v -0.3885850 0.1000000 -0.0574050
v -0.4000000 0.1000000 0.0000000
v -0.2500000 0.1000000 0.0000000
v -0.3560650 0.1000000 -0.1060650
v -0.3885850 0.1000000 -0.0574050
v -0.2500000 0.1000000 0.0000000
v -0.3074050 0.1000000 -0.1385850
v -0.3560650 0.1000000 -0.1060650
v -0.2500000 0.1000000 0.0000000
v -0.2500000 0.1000000 -0.1500000
v -0.3074050 0.1000000 -0.1385850
v -0.2500000 0.1000000 0.0000000
v -0.1925950 0.1000000 -0.1385850
v -0.2500000 0.1000000 -0.1500000
v -0.2500000 0.1000000 0.0000000
v -0.1439350 0.1000000 -0.1060650
v -0.1925950 0.1000000 -0.1385850
v -0.2500000 0.1000000 0.0000000
v -0.1114150 0.1000000 -0.0574050
v -0.1439350 0.1000000 -0.1060650
v -0.2500000 0.1000000 0.0000000
v -0.1000000 0.1000000 0.0000000
v -0.1114150 0.1000000 -0.0574050
v -0.2500000 0.1000000 0.0000000
v 0.4000000 0.1000000 0.0000000
v 0.3885850 0.1000000 0.0574050
v 0.3885850 -0.0000000 0.0574050
v 0.4000000 -0.0000000 0.0000000
v 0.3885850 0.1000000 0.0574050
v 0.3560650 0.1000000 0.1060650
v 0.3560650 -0.0000000 0.1060650
v 0.3885850 -0.0000000 0.0574050
v 0.3560650 0.1000000 0.1060650
v 0.3074050 0.1000000 0.1385850
v 0.3074050 -0.0000000 0.1385850
v 0.3560650 -0.0000000 0.1060650
v 0.3074050 0.1000000 0.1385850
v 0.2500000 0.1000000 0.1500000
v 0.2500000 -0.0000000 0.1500000
v 0.3074050 -0.0000000 0.1385850
v 0.2500000 0.1000000 0.1500000
v 0.1925950 0.1000000 0.1385850
v 0.1925950 -0.0000000 0.1385850
v 0.2500000 -0.0000000 0.1500000
v 0.1925950 0.1000000 0.1385850
v 0.1439350 0.1000000 0.1060650
v 0.1439350 -0.0000000 0.1060650
v 0.1925950 -0.0000000 0.1385850
v 0.1439350 0.1000000 0.1060650
v 0.1114150 0.1000000 0.0574050
v 0.1114150 -0.0000000 0.0574050
v 0.1439350 -0.0000000 0.1060650
v 0.1114150 0.1000000 0.0574050
v 0.1000000 0.1000000 0.0000000
v 0.1000000 -0.0000000 0.0000000
v 0.1114150 -0.0000000 0.0574050
v 0.1000000 0.1000000 0.0000000
v 0.1114150 0.1000000 -0.0574050
v 0.1114150 -0.0000000 -0.0574050
v 0.1000000 -0.0000000 0.0000000
v 0.1114150 0.1000000 -0.0574050
v 0.1439350 0.1000000 -0.1060650
v 0.1439350 -0.0000000 -0.1060650
v 0.1114150 -0.0000000 -0.0574050
v 0.1439350 0.1000000 -0.1060650
v 0.1925950 0.1000000 -0.1385850
v 0.1925950 -0.0000000 -0.1385850
v 0.1439350 -0.0000000 -0.1060650
v 0.1925950 0.1000000 -0.1385850
v 0.2500000 0.1000000 -0.1500000
v 0.2500000 -0.0000000 -0.1500000
v 0.1925950 -0.0000000 -0.1385850
v 0.2500000 0.1000000 -0.1500000
v 0.3074050 0.1000000 -0.1385850
v 0.3074050 -0.0000000 -0.1385850
v 0.2500000 -0.0000000 -0.1500000
v 0.3074050 0.1000000 -0.1385850
v 0.3560650 0.1000000 -0.1060650
v 0.3560650 -0.0000000 -0.1060650
v 0.3074050 -0.0000000 -0.1385850
v 0.3560650 0.1000000 -0.1060650
v 0.3885850 0.1000000 -0.0574050
v 0.3885850 -0.0000000 -0.0574050
v 0.3560650 -0.0000000 -0.1060650
v 0.3885850 0.1000000 -0.0574050
v 0.4000000 0.1000000 0.0000000
v 0.4000000 -0.0000000 0.0000000
v 0.3885850 -0.0000000 -0.0574050
v 0.3885850 0.1000000 0.0574050
v 0.4000000 0.1000000 0.0000000
v 0.2500000 0.1000000 0.0000000
v 0.3560650 0.1000000 0.1060650
v 0.3885850 0.1000000 0.0574050
v 0.2500000 0.1000000 0.0000000
v 0.3074050 0.1000000 0.1385850
v 0.3560650 0.1000000 0.1060650
v 0.2500000 0.1000000 0.0000000
v 0.2500000 0.1000000 0.1500000
v 0.3074050 0.1000000 0.1385850
v 0.2500000 0.1000000 0.0000000
v 0.1925950 0.1000000 0.1385850
v 0.2500000 0.1000000 0.1500000
v 0.2500000 0.1000000 0.0000000
v 0.1439350 0.1000000 0.1060650
v 0.1925950 0.1000000 0.1385850
v 0.2500000 0.1000000 0.0000000
v 0.1114150 0.1000000 0.0574050
v 0.1439350 0.1000000 0.1060650
v 0.2500000 0.1000000 0.0000000
v 0.1000000 0.1000000 0.0000000
v 0.1114150 0.1000000 0.0574050
v 0.2500000 0.1000000 0.0000000
v 0.1114150 0.1000000 -0.0574050
v 0.1000000 0.1000000 0.0000000
v 0.2500000 0.1000000 0.0000000
v 0.1439350 0.1000000 -0.1060650
v 0.1114150 0.1000000 -0.0574050
v 0.2500000 0.1000000 0.0000000
v 0.1925950 0.1000000 -0.1385850
v 0.1439350 0.1000000 -0.1060650
v 0.2500000 0.1000000 0.0000000
v 0.2500000 0.1000000 -0.1500000
v 0.1925950 0.1000000 -0.1385850
v 0.2500000 0.1000000 0.0000000
v 0.3074050 0.1000000 -0.1385850
v 0.2500000 0.1000000 -0.1500000
v 0.2500000 0.1000000 0.0000000
v 0.3560650 0.1000000 -0.1060650
v 0.3074050 0.1000000 -0.1385850
v 0.2500000 0.1000000 0.0000000
v 0.3885850 0.1000000 -0.0574050
v 0.3560650 0.1000000 -0.1060650
v 0.2500000 0.1000000 0.0000000
v 0.4000000 0.1000000 0.0000000
v 0.3885850 0.1000000 -0.0574050
v 0.2500000 0.1000000 0.0000000
v 0.9000000 0.1000000 0.0000000
v 0.8885850 0.1000000 0.0574050
v 0.8885850 -0.0000000 0.0574050
v 0.9000000 -0.0000000 0.0000000
v 0.8885850 0.1000000 0.0574050
v 0.8560650 0.1000000 0.1060650
v 0.8560650 -0.0000000 0.1060650
v 0.8885850 -0.0000000 0.0574050
v 0.8560650 0.1000000 0.1060650
v 0.8074050 0.1000000 0.1385850
v 0.8074050 -0.0000000 0.1385850
v 0.8560650 -0.0000000 0.1060650
v 0.8074050 0.1000000 0.1385850
v 0.7500000 0.1000000 0.1500000
v 0.7500000 -0.0000000 0.1500000
v 0.8074050 -0.0000000 0.1385850
v 0.7500000 0.1000000 0.1500000
v 0.6925950 0.1000000 0.1385850
v 0.6925950 -0.0000000 0.1385850
v 0.7500000 -0.0000000 0.1500000
v 0.6925950 0.1000000 0.1385850
v 0.6439350 0.1000000 0.1060650
v 0.6439350 -0.0000000 0.1060650
v 0.6925950 -0.0000000 0.1385850
v 0.6439350 0.1000000 0.1060650
v 0.6114150 0.1000000 0.0574050
v 0.6114150 -0.0000000 0.0574050
v 0.6439350 -0.0000000 0.1060650
v 0.6114150 0.1000000 0.0574050
v 0.6000000 0.1000000 0.0000000
v 0.6000000 -0.0000000 0.0000000
v 0.6114150 -0.0000000 0.0574050
v 0.6000000 0.1000000 0.0000000
v 0.6114150 0.1000000 -0.0574050
v 0.6114150 -0.0000000 -0.0574050
v 0.6000000 -0.0000000 0.0000000
v 0.6114150 0.1000000 -0.0574050
v 0.6439350 0.1000000 -0.1060650
v 0.6439350 -0.0000000 -0.1060650
v 0.6114150 -0.0000000 -0.0574050
v 0.6439350 0.1000000 -0.1060650
v 0.6925950 0.1000000 -0.1385850
v 0.6925950 -0.0000000 -0.1385850
v 0.6439350 -0.0000000 -0.1060650
v 0.6925950 0.1000000 -0.1385850
v 0.7500000 0.1000000 -0.1500000
v 0.7500000 -0.0000000 -0.1500000
v 0.6925950 -0.0000000 -0.1385850
v 0.7500000 0.1000000 -0.1500000
v 0.8074050 0.1000000 -0.1385850
v 0.8074050 -0.0000000 -0.1385850
v 0.7500000 -0.0000000 -0.1500000
v 0.8074050 0.1000000 -0.1385850
v 0.8560650 0.1000000 -0.1060650
v 0.8560650 -0.0000000 -0.1060650
v 0.8074050 -0.0000000 -0.1385850
v 0.8560650 0.1000000 -0.1060650
v 0.8885850 0.1000000 -0.0574050
v 0.8885850 -0.0000000 -0.0574050
v 0.8560650 -0.0000000 -0.1060650
v 0.8885850 0.1000000 -0.0574050
v 0.9000000 0.1000000 0.0000000
v 0.9000000 -0.0000000 0.0000000
v 0.8885850 -0.0000000 -0.0574050
v 0.8885850 0.1000000 0.0574050
v 0.9000000 0.1000000 0.0000000
v 0.7500000 0.1000000 0.0000000
v 0.8560650 0.1000000 0.1060650
v 0.8885850 0.1000000 0.0574050
v 0.7500000 0.1000000 0.0000000
v 0.8074050 0.1000000 0.1385850
v 0.8560650 0.1000000 0.1060650
v 0.7500000 0.1000000 0.0000000
v 0.7500000 0.1000000 0.1500000
v 0.8074050 0.1000000 0.1385850
v 0.7500000 0.1000000 0.0000000
v 0.6925950 0.1000000 0.1385850
v 0.7500000 0.1000000 0.1500000
v 0.7500000 0.1000000 0.0000000
v 0.6439350 0.1000000 0.1060650
v 0.6925950 0.1000000 0.1385850
v 0.7500000 0.1000000 0.0000000
v 0.6114150 0.1000000 0.0574050
v 0.6439350 0.1000000 0.1060650
v 0.7500000 0.1000000 0.0000000
v 0.6000000 0.1000000 0.0000000
v 0.6114150 0.1000000 0.0574050
v 0.7500000 0.1000000 0.0000000
v 0.6114150 0.1000000 -0.0574050
v 0.6000000 0.1000000 0.0000000
v 0.7500000 0.1000000 0.0000000
v 0.6439350 0.1000000 -0.1060650
v 0.6114150 0.1000000 -0.0574050
v 0.7500000 0.1000000 0.0000000
v 0.6925950 0.1000000 -0.1385850
v 0.6439350 0.1000000 -0.1060650
v 0.7500000 0.1000000 0.0000000
v 0.7500000 0.1000000 -0.1500000
v 0.6925950 0.1000000 -0.1385850
v 0.7500000 0.1000000 0.0000000
v 0.8074050 0.1000000 -0.1385850
v 0.7500000 0.1000000 -0.1500000
v 0.7500000 0.1000000 0.0000000
v 0.8560650 0.1000000 -0.1060650
v 0.8074050 0.1000000 -0.1385850
v 0.7500000 0.1000000 0.0000000
v 0.8885850 0.1000000 -0.0574050
v 0.8560650 0.1000000 -0.1060650
v 0.7500000 0.1000000 0.0000000
v 0.9000000 0.1000000 0.0000000
v 0.8885850 0.1000000 -0.0574050
v 0.7500000 0.1000000 0.0000000
v -1.0000000 -0.5000000 -0.7500000
v -1.0000000 -0.0000000 -0.2500000
v 1.0000000 -0.0000000 -0.2500000
v 1.0000000 -0.5000000 -0.7500000
s off
f 1 2 3
f 1 3 4
f 5 6 7
f 5 7 8
f 9 10 11
f 9 11 12
f 13 14 15
f 13 15 16
f 17 18 19
f 17 19 20
f 21 22 23
f 21 23 24
f 25 26 27
f 25 27 28
f 29 30 31
f 29 31 32
f 33 34 35
f 33 35 36
f 37 38 39
f 37 39 40
f 41 42 43
f 41 43 44
f 45 46 47
f 45 47 48
f 49 50 51
f 49 51 52
f 53 54 55
f 53 55 56
f 57 58 59
f 57 59 60
f 61 62 63
f 61 63 64
f 65 66 67
f 65 67 68
f 69 70 71
f 69 71 72
f 73 74 75
f 73 75 76
f 77 78 79
f 77 79 80
f 81 82 83
f 81 83 84
f 85 86 87
f 85 87 88
f 89 90 91
f 89 91 92
f 93 94 95
f 93 95 96
f 97 98 99
f 97 99 100
f 101 102 103
f 101 103 104
f 105 106 107
f 105 107 108
f 109 110 111
f 109 111 112
f 113 114 115
f 113 115 116
f 117 118 119
f 117 119 120
f 121 122 123
f 121 123 124
f 125 126 127
f 125 127 128
f 129 130 131
f 129 131 132
f 133 134 135
f 133 135 136
f 137 138 139
f 137 139 140
f 141 142 143
f 141 143 144
f 145 146 147
f 145 147 148
f 149 150 151
f 149 151 152
f 153 154 155
f 153 155 156
f 157 158 159
f 157 159 160
f 161 162 163
f 161 163 164
f 165 166 167
f 165 167 168
f 169 170 171
f 169 171 172
f 173 174 175
f 173 175 176
f 177 178 179
f 177 179 180
f 181 182 183
f 181 183 184
f 185 186 187
f 185 187 188
f 189 190 191
f 189 191 192
f 193 194 195
f 196 197 198
f 196 198 199
f 200 201 202
f 200 202 203
f 204 205 206
f 204 206 207
f 208 209 210
f 211 212 213
f 211 213 214
f 215 216 217
f 215 217 218
f 219 220 221
f 219 221 222
f 223 224 225
f 223 225 226
f 227 228 229
f 227 229 230
f 231 232 233
f 231 233 234
f 235 236 237
f 235 237 238
f 239 240 241
f 239 241 242
f 243 244 245
f 243 245 246
f 247 248 249
f 247 249 250
f 251 252 253
f 251 253 254
f 255 256 257
f 255 257 258
f 259 260 261
f 259 261 262
f 263 264 265
f 263 265 266
f 267 268 269
f 267 269 270
f 271 272 273
f 271 273 274
f 275 276 277
f 275 277 278
f 279 280 281
f 279 281 282
f 283 284 285
f 283 285 286
f 287 288 289
f 290 291 292
f 290 292 293
f 294 295 296
f 294 296 297
f 298 299 300
f 298 300 301
f 302 303 304
f 305 306 307
f 305 307 308
f 309 310 311
f 309 311 312
f 313 314 315
f 313 315 316
f 317 318 319
f 317 319 320
f 321 322 323
f 321 323 324
f 325 326 327
f 325 327 328
f 329 330 331
f 329 331 332
f 333 334 335
f 333 335 336
f 337 338 339
f 337 339 340
f 341 342 343
f 341 343 344
f 345 346 347
f 345 347 348
f 349 350 351
f 349 351 352
f 353 354 355
f 353 355 356
f 357 358 359
f 357 359 360
f 361 362 363
f 361 363 364
f 365 366 367
f 365 367 368
f 369 370 371
f 369 371 372
f 373 374 375
f 373 375 376
f 377 378 379
f 377 379 380
f 381 382 383
f 381 383 384
f 385 386 387
f 385 387 388
f 389 390 391
f 389 391 392
f 393 394 395
f 393 395 396
f 397 398 399
f 397 399 400
f 401 402 403
f 401 403 404
f 405 406 407
f 405 407 408
f 409 410 411
f 409 411 412
f 413 414 415
f 413 415 416
f 417 418 419
f 417 419 420
f 421 422 423
f 421 423 424
f 425 426 427
f 425 427 428
f 429 430 431
f 429 431 432
f 433 434 435
f 433 435 436
f 437 438 439
f 437 439 440
f 441 442 443
f 441 443 444
f 445 446 447
f 445 447 448
f 449 450 451
f 449 451 452
f 453 454 455
f 453 455 456
f 457 458 459
f 457 459 460
f 461 462 463
f 461 463 464
f 465 466 467
f 465 467 468
f 469 470 471
f 469 471 472
f 473 474 475
f 473 475 476
f 477 478 479
f 477 479 480
f 481 482 483
f 481 483 484
f 485 486 487
f 485 487 488
f 489 490 491
f 489 491 492
f 493 494 495
f 493 495 496
f 497 498 499
f 497 499 500
f 501 502 503
f 501 503 504
f 505 506 507
f 505 507 508
f 509 510 511
f 509 511 512
f 513 514 515
f 513 515 516
f 517 518 519
f 517 519 520
f 521 522 523
f 521 523 524
f 525 526 527
f 525 527 528
f 529 530 531
f 529 531 532
f 533 534 535
f 533 535 536
f 537 538 539
f 537 539 540
f 541 542 543
f 541 543 544
f 545 546 547
f 545 547 548
f 549 550 551
f 549 551 552
f 553 554 555
f 553 555 556
f 557 558 559
f 557 559 560
f 561 562 563
f 561 563 564
f 565 566 567
f 565 567 568
f 569 570 571
f 569 571 572
f 573 574 575
f 576 577 578
f 576 578 579
f 580 581 582
f 580 582 583
f 584 585 586
f 584 586 587
f 588 589 590
f 591 592 593
f 591 593 594
f 595 596 597
f 595 597 598
f 599 600 601
f 599 601 602
f 603 604 605
f 603 605 606
f 607 608 609
f 607 609 610
f 611 612 613
f 611 613 614
f 615 616 617
f 615 617 618
f 619 620 621
f 619 621 622
f 623 624 625
f 623 625 626
f 627 628 629
f 627 629 630
f 631 632 633
f 631 633 634
f 635 636 637
f 635 637 638
f 639 640 641
f 639 641 642
f 643 644 645
f 643 645 646
f 647 648 649
f 647 649 650
f 651 652 653
f 651 653 654
f 655 656 657
f 655 657 658
f 659 660 661
f 659 661 662
f 663 664 665
f 663 665 666
f 667 668 669
f 670 671 672
f 670 672 673
f 674 675 676
f 674 676 677
f 678 679 680
f 678 680 681
f 682 683 684
f 685 686 687
f 685 687 688
f 689 690 691
f 689 691 692
f 693 694 695
f 693 695 696
f 697 698 699
f 697 699 700
f 701 702 703
f 701 703 704
f 705 706 707
f 705 707 708
f 709 710 711
f 709 711 712
f 713 714 715
f 713 715 716
f 717 718 719
f 717 719 720
f 721 722 723
f 721 723 724
f 725 726 727
f 725 727 728
f 729 730 731
f 729 731 732
f 733 734 735
f 733 735 736
f 737 738 739
f 737 739 740
f 741 742 743
f 741 743 744
f 745 746 747
f 745 747 748
f 749 750 751
f 749 751 752
f 753 754 755
f 753 755 756
f 757 758 759
f 757 759 760
f 761 762 763
f 761 763 764
f 765 766 767
f 765 767 768
f 769 770 771
f 769 771 772
f 773 774 775
f 773 775 776
f 777 778 779
f 777 779 780
f 781 782 783
f 781 783 784
f 785 786 787
f 785 787 788
f 789 790 791
f 789 791 792
f 793 794 795
f 793 795 796
f 797 798 799
f 797 799 800
f 801 802 803
f 801 803 804
f 805 806 807
f 805 807 808
f 809 810 811
f 809 811 812
f 813 814 815
f 813 815 816
f 817 818 819
f 817 819 820
f 821 822 823
f 821 823 824
f 825 826 827
f 825 827 828
f 829 830 831
f 829 831 832
f 833 834 835
f 833 835 836
f 837 838 839
f 837 839 840
f 841 842 843
f 841 843 844
f 845 846 847
f 845 847 848
f 849 850 851
f 849 851 852
f 853 854 855
f 853 855 856
f 857 858 859
f 857 859 860
f 861 862 863
f 861 863 864
f 865 866 867
f 865 867 868
f 869 870 871
f 869 871 872
f 873 874 875
f 873 875 876
f 877 878 879
f 877 879 880
f 881 882 883
f 881 883 884
f 885 886 887
f 885 887 888
f 889 890 891
f 889 891 892
f 893 894 895
f 893 895 896
f 897 898 899
f 897 899 900
f 901 902 903
f 901 903 904
f 905 906 907
f 905 907 908
f 909 910 911
f 909 911 912
f 913 914 915
f 913 915 916
f 917 918 919
f 917 919 920
f 921 922 923
f 921 923 924
f 925 926 927
f 925 927 928
f 929 930 931
f 929 931 932
f 933 934 935
f 933 935 936
f 937 938 939
f 937 939 940
f 941 942 943
f 941 943 944
f 945 946 947
f 945 947 948
f 949 950 951
f 949 951 952
f 953 954 955
f 956 957 958
f 956 958 959
f 960 961 962
f 960 962 963
f 964 965 966
f 964 966 967
f 968 969 970
f 971 972 973
f 971 973 974
f 975 976 977
f 975 977 978
f 979 980 981
f 979 981 982
f 983 984 985
f 983 985 986
f 987 988 989
f 987 989 990
f 991 992 993
f 991 993 994
f 995 996 997
f 995 997 998
f 999 1000 1001
f 999 1001 1002
f 1003 1004 1005
f 1003 1005 1006
f 1007 1008 1009
f 1007 1009 1010
f 1011 1012 1013
f 1011 1013 1014
f 1015 1016 1017
f 1015 1017 1018
f 1019 1020 1021
f 1019 1021 1022
f 1023 1024 1025
f 1023 1025 1026
f 1027 1028 1029
f 1027 1029 1030
f 1031 1032 1033
f 1031 1033 1034
f 1035 1036 1037
f 1035 1037 1038
f 1039 1040 1041
f 1039 1041 1042
f 1043 1044 1045
f 1043 1045 1046
f 1047 1048 1049
f 1050 1051 1052
f 1050 1052 1053
f 1054 1055 1056
f 1054 1056 1057
f 1058 1059 1060
f 1058 1060 1061
f 1062 1063 1064
f 1065 1066 1067
f 1065 1067 1068
f 1069 1070 1071
f 1069 1071 1072
f 1073 1074 1075
f 1073 1075 1076
f 1077 1078 1079
f 1077 1079 1080
f 1081 1082 1083
f 1081 1083 1084
f 1085 1086 1087
f 1085 1087 1088
f 1089 1090 1091
f 1089 1091 1092
f 1093 1094 1095
f 1093 1095 1096
f 1097 1098 1099
f 1097 1099 1100
f 1101 1102 1103
f 1101 1103 1104
f 1105 1106 1107
f 1105 1107 1108
f 1109 1110 1111
f 1109 1111 1112
f 1113 1114 1115
f 1113 1115 1116
f 1117 1118 1119
f 1117 1119 1120
f 1121 1122 1123
f 1121 1123 1124
f 1125 1126 1127
f 1125 1127 1128
f 1129 1130 1131
f 1129 1131 1132
f 1133 1134 1135
f 1133 1135 1136
f 1137 1138 1139
f 1137 1139 1140
f 1141 1142 1143
f 1141 1143 1144
f 1145 1146 1147
f 1145 1147 1148
f 1149 1150 1151
f 1149 1151 1152
f 1153 1154 1155
f 1153 1155 1156
f 1157 1158 1159
f 1157 1159 1160
f 1161 1162 1163
f 1161 1163 1164
f 1165 1166 1167
f 1165 1167 1168
f 1169 1170 1171
f 1169 1171 1172
f 1173 1174 1175
f 1173 1175 1176
f 1177 1178 1179
f 1177 1179 1180
f 1181 1182 1183
f 1181 1183 1184
f 1185 1186 1187
f 1188 1189 1190
f 1188 1190 1191
f 1192 1193 1194
f 1195 1196 1197
f 1195 1197 1198
f 1199 1200 1201
f 1202 1203 1204
f 1202 1204 1205
f 1206 1207 1208
f 1209 1210 1211
f 1209 1211 1212
f 1213 1214 1215
f 1213 1215 1216
f 1217 1218 1219
f 1217 1219 1220
f 1221 1222 1223
f 1221 1223 1224
f 1225 1226 1227
f 1225 1227 1228
f 1229 1230 1231
f 1229 1231 1232
f 1233 1234 1235
f 1233 1235 1236
f 1237 1238 1239
f 1237 1239 1240
f 1241 1242 1243
f 1241 1243 1244
f 1245 1246 1247
f 1245 1247 1248
f 1249 1250 1251
f 1249 1251 1252
f 1253 1254 1255
f 1253 1255 1256
f 1257 1258 1259
f 1257 1259 1260
f 1261 1262 1263
f 1261 1263 1264
f 1265 1266 1267
f 1265 1267 1268
f 1269 1270 1271
f 1269 1271 1272
f 1273 1274 1275
f 1273 1275 1276
f 1277 1278 1279
f 1280 1281 1282
f 1283 1284 1285
f 1286 1287 1288
f 1289 1290 1291
f 1292 1293 1294
f 1295 1296 1297
f 1298 1299 1300
f 1301 1302 1303
f 1304 1305 1306
f 1307 1308 1309
f 1310 1311 1312
f 1313 1314 1315
f 1316 1317 1318
f 1319 1320 1321
f 1322 1323 1324
f 1325 1326 1327
f 1325 1327 1328
f 1329 1330 1331
f 1329 1331 1332
f 1333 1334 1335
f 1333 1335 1336
f 1337 1338 1339
f 1337 1339 1340
f 1341 1342 1343
f 1341 1343 1344
f 1345 1346 1347
f 1345 1347 1348
f 1349 1350 1351
f 1349 1351 1352
f 1353 1354 1355
f 1353 1355 1356
f 1357 1358 1359
f 1357 1359 1360
f 1361 1362 1363
f 1361 1363 1364
f 1365 1366 1367
f 1365 1367 1368
f 1369 1370 1371
f 1369 1371 1372
f 1373 1374 1375
f 1373 1375 1376
f 1377 1378 1379
f 1377 1379 1380
f 1381 1382 1383
f 1381 1383 1384
f 1385 1386 1387
f 1385 1387 1388
f 1389 1390 1391
f 1392 1393 1394
f 1395 1396 1397
f 1398 1399 1400
f 1401 1402 1403
f 1404 1405 1406
f 1407 1408 1409
f 1410 1411 1412
f 1413 1414 1415
f 1416 1417 1418
f 1419 1420 1421
f 1422 1423 1424
f 1425 1426 1427
f 1428 1429 1430
f 1431 1432 1433
f 1434 1435 1436
f 1437 1438 1439
f 1437 1439 1440
f 1441 1442 1443
f 1441 1443 1444
f 1445 1446 1447
f 1445 1447 1448
f 1449 1450 1451
f 1449 1451 1452
f 1453 1454 1455
f 1453 1455 1456
f 1457 1458 1459
f 1457 1459 1460
f 1461 1462 1463
f 1461 1463 1464
f 1465 1466 1467
f 1465 1467 1468
f 1469 1470 1471
f 1469 1471 1472
f 1473 1474 1475
f 1473 1475 1476
f 1477 1478 1479
f 1477 1479 1480
f 1481 1482 1483
f 1481 1483 1484
f 1485 1486 1487
f 1485 1487 1488
f 1489 1490 1491
f 1489 1491 1492
f 1493 1494 1495
f 1493 1495 1496
f 1497 1498 1499
f 1497 1499 1500
f 1501 1502 1503
f 1504 1505 1506
f 1507 1508 1509
f 1510 1511 1512
f 1513 1514 1515
f 1516 1517 1518
f 1519 1520 1521
f 1522 1523 1524
f 1525 1526 1527
f 1528 1529 1530
f 1531 1532 1533
f 1534 1535 1536
f 1537 1538 1539
f 1540 1541 1542
f 1543 1544 1545
f 1546 1547 1548
f 1549 1550 1551
f 1549 1551 1552
f 1553 1554 1555
f 1553 1555 1556
f 1557 1558 1559
f 1557 1559 1560
f 1561 1562 1563
f 1561 1563 1564
f 1565 1566 1567
f 1565 1567 1568
f 1569 1570 1571
f 1569 1571 1572
f 1573 1574 1575
f 1573 1575 1576
f 1577 1578 1579
f 1577 1579 1580
f 1581 1582 1583
f 1581 1583 1584
f 1585 1586 1587
f 1585 1587 1588
f 1589 1590 1591
f 1589 1591 1592
f 1593 1594 1595
f 1593 1595 1596
f 1597 1598 1599
f 1597 1599 1600
f 1601 1602 1603
f 1601 1603 1604
f 1605 1606 1607
f 1605 1607 1608
f 1609 1610 1611
f 1609 1611 1612
f 1613 1614 1615
f 1616 1617 1618
f 1619 1620 1621
f 1622 1623 1624
f 1625 1626 1627
f 1628 1629 1630
f 1631 1632 1633
f 1634 1635 1636
f 1637 1638 1639
f 1640 1641 1642
f 1643 1644 1645
f 1646 1647 1648
f 1649 1650 1651
f 1652 1653 1654
f 1655 1656 1657
f 1658 1659 1660
f 1661 1662 1663
f 1661 1663 1664
