# Baked from official LDraw part 3039.dat
o ldraw_3039
v -0.1000000 0.1000000 0.0000000
v -0.1114150 0.1000000 0.0574050
v -0.1114150 -0.0000000 0.0574050
v -0.1000000 -0.0000000 0.0000000
v -0.1114150 0.1000000 0.0574050
v -0.1439350 0.1000000 0.1060650
v -0.1439350 -0.0000000 0.1060650
v -0.1114150 -0.0000000 0.0574050
v -0.1439350 0.1000000 0.1060650
v -0.1925950 0.1000000 0.1385850
v -0.1925950 -0.0000000 0.1385850
v -0.1439350 -0.0000000 0.1060650
v -0.1925950 0.1000000 0.1385850
v -0.2500000 0.1000000 0.1500000
v -0.2500000 -0.0000000 0.1500000
v -0.1925950 -0.0000000 0.1385850
v -0.2500000 0.1000000 0.1500000
v -0.3074050 0.1000000 0.1385850
v -0.3074050 -0.0000000 0.1385850
v -0.2500000 -0.0000000 0.1500000
v -0.3074050 0.1000000 0.1385850
v -0.3560650 0.1000000 0.1060650
v -0.3560650 -0.0000000 0.1060650
v -0.3074050 -0.0000000 0.1385850
v -0.3560650 0.1000000 0.1060650
v -0.3885850 0.1000000 0.0574050
v -0.3885850 -0.0000000 0.0574050
v -0.3560650 -0.0000000 0.1060650
v -0.3885850 0.1000000 0.0574050
v -0.4000000 0.1000000 0.0000000
v -0.4000000 -0.0000000 0.0000000
v -0.3885850 -0.0000000 0.0574050
v -0.4000000 0.1000000 0.0000000
v -0.3885850 0.1000000 -0.0574050
v -0.3885850 -0.0000000 -0.0574050
v -0.4000000 -0.0000000 0.0000000
v -0.3885850 0.1000000 -0.0574050
v -0.3560650 0.1000000 -0.1060650
v -0.3560650 -0.0000000 -0.1060650
v -0.3885850 -0.0000000 -0.0574050
v -0.3560650 0.1000000 -0.1060650
v -0.3074050 0.1000000 -0.1385850
v -0.3074050 -0.0000000 -0.1385850
v -0.3560650 -0.0000000 -0.1060650
v -0.3074050 0.1000000 -0.1385850
v -0.2500000 0.1000000 -0.1500000
v -0.2500000 -0.0000000 -0.1500000
v -0.3074050 -0.0000000 -0.1385850
v -0.2500000 0.1000000 -0.1500000
v -0.1925950 0.1000000 -0.1385850
v -0.1925950 -0.0000000 -0.1385850
v -0.2500000 -0.0000000 -0.1500000
v -0.1925950 0.1000000 -0.1385850
v -0.1439350 0.1000000 -0.1060650
v -0.1439350 -0.0000000 -0.1060650
v -0.1925950 -0.0000000 -0.1385850
v -0.1439350 0.1000000 -0.1060650
v -0.1114150 0.1000000 -0.0574050
v -0.1114150 -0.0000000 -0.0574050
v -0.1439350 -0.0000000 -0.1060650
v -0.1114150 0.1000000 -0.0574050
v -0.1000000 0.1000000 0.0000000
v -0.1000000 -0.0000000 0.0000000
v -0.1114150 -0.0000000 -0.0574050
v -0.1114150 0.1000000 0.0574050
v -0.1000000 0.1000000 0.0000000
v -0.2500000 0.1000000 0.0000000
v -0.1439350 0.1000000 0.1060650
v -0.1114150 0.1000000 0.0574050
v -0.2500000 0.1000000 0.0000000
v -0.1925950 0.1000000 0.1385850
v -0.1439350 0.1000000 0.1060650
v -0.2500000 0.1000000 0.0000000
v -0.2500000 0.1000000 0.1500000
v -0.1925950 0.1000000 0.1385850
v -0.2500000 0.1000000 0.0000000
v -0.3074050 0.1000000 0.1385850
v -0.2500000 0.1000000 0.1500000
v -0.2500000 0.1000000 0.0000000
v -0.3560650 0.1000000 0.1060650
v -0.3074050 0.1000000 0.1385850
v -0.2500000 0.1000000 0.0000000
v -0.3885850 0.1000000 0.0574050
v -0.3560650 0.1000000 0.1060650
v -0.2500000 0.1000000 0.0000000
v -0.4000000 0.1000000 0.0000000
v -0.3885850 0.1000000 0.0574050
v -0.2500000 0.1000000 0.0000000
v -0.3885850 0.1000000 -0.0574050
v -0.4000000 0.1000000 0.0000000
v -0.2500000 0.1000000 0.0000000
v -0.3560650 0.1000000 -0.1060650
v -0.3885850 0.1000000 -0.0574050
v -0.2500000 0.1000000 0.0000000
v -0.3074050 0.1000000 -0.1385850
v -0.3560650 0.1000000 -0.1060650
v -0.2500000 0.1000000 0.0000000
v -0.2500000 0.1000000 -0.1500000
v -0.3074050 0.1000000 -0.1385850
v -0.2500000 0.1000000 0.0000000
v -0.1925950 0.1000000 -0.1385850
v -0.2500000 0.1000000 -0.1500000
v -0.2500000 0.1000000 0.0000000
v -0.1439350 0.1000000 -0.1060650
v -0.1925950 0.1000000 -0.1385850
v -0.2500000 0.1000000 0.0000000
v -0.1114150 0.1000000 -0.0574050
v -0.1439350 0.1000000 -0.1060650
v -0.2500000 0.1000000 0.0000000
v -0.1000000 0.1000000 0.0000000
v -0.1114150 0.1000000 -0.0574050
v -0.2500000 0.1000000 0.0000000
v 0.4000000 0.1000000 0.0000000
v 0.3885850 0.1000000 0.0574050
v 0.3885850 -0.0000000 0.0574050
v 0.4000000 -0.0000000 0.0000000
v 0.3885850 0.1000000 0.0574050
v 0.3560650 0.1000000 0.1060650
v 0.3560650 -0.0000000 0.1060650
v 0.3885850 -0.0000000 0.0574050
v 0.3560650 0.1000000 0.1060650
v 0.3074050 0.1000000 0.1385850
v 0.3074050 -0.0000000 0.1385850
v 0.3560650 -0.0000000 0.1060650
v 0.3074050 0.1000000 0.1385850
v 0.2500000 0.1000000 0.1500000
v 0.2500000 -0.0000000 0.1500000
v 0.3074050 -0.0000000 0.1385850
v 0.2500000 0.1000000 0.1500000
v 0.1925950 0.1000000 0.1385850
v 0.1925950 -0.0000000 0.1385850
v 0.2500000 -0.0000000 0.1500000
v 0.1925950 0.1000000 0.1385850
v 0.1439350 0.1000000 0.1060650
v 0.1439350 -0.0000000 0.1060650
v 0.1925950 -0.0000000 0.1385850
v 0.1439350 0.1000000 0.1060650
v 0.1114150 0.1000000 0.0574050
v 0.1114150 -0.0000000 0.0574050
v 0.1439350 -0.0000000 0.1060650
v 0.1114150 0.1000000 0.0574050
v 0.1000000 0.1000000 0.0000000
v 0.1000000 -0.0000000 0.0000000
v 0.1114150 -0.0000000 0.0574050
v 0.1000000 0.1000000 0.0000000
v 0.1114150 0.1000000 -0.0574050
v 0.1114150 -0.0000000 -0.0574050
v 0.1000000 -0.0000000 0.0000000
v 0.1114150 0.1000000 -0.0574050
v 0.1439350 0.1000000 -0.1060650
v 0.1439350 -0.0000000 -0.1060650
v 0.1114150 -0.0000000 -0.0574050
v 0.1439350 0.1000000 -0.1060650
v 0.1925950 0.1000000 -0.1385850
v 0.1925950 -0.0000000 -0.1385850
v 0.1439350 -0.0000000 -0.1060650
v 0.1925950 0.1000000 -0.1385850
v 0.2500000 0.1000000 -0.1500000
v 0.2500000 -0.0000000 -0.1500000
v 0.1925950 -0.0000000 -0.1385850
v 0.2500000 0.1000000 -0.1500000
v 0.3074050 0.1000000 -0.1385850
v 0.3074050 -0.0000000 -0.1385850
v 0.2500000 -0.0000000 -0.1500000
v 0.3074050 0.1000000 -0.1385850
v 0.3560650 0.1000000 -0.1060650
v 0.3560650 -0.0000000 -0.1060650
v 0.3074050 -0.0000000 -0.1385850
v 0.3560650 0.1000000 -0.1060650
v 0.3885850 0.1000000 -0.0574050
v 0.3885850 -0.0000000 -0.0574050
v 0.3560650 -0.0000000 -0.1060650
v 0.3885850 0.1000000 -0.0574050
v 0.4000000 0.1000000 0.0000000
v 0.4000000 -0.0000000 0.0000000
v 0.3885850 -0.0000000 -0.0574050
v 0.3885850 0.1000000 0.0574050
v 0.4000000 0.1000000 0.0000000
v 0.2500000 0.1000000 0.0000000
v 0.3560650 0.1000000 0.1060650
v 0.3885850 0.1000000 0.0574050
v 0.2500000 0.1000000 0.0000000
v 0.3074050 0.1000000 0.1385850
v 0.3560650 0.1000000 0.1060650
v 0.2500000 0.1000000 0.0000000
v 0.2500000 0.1000000 0.1500000
v 0.3074050 0.1000000 0.1385850
v 0.2500000 0.1000000 0.0000000
v 0.1925950 0.1000000 0.1385850
v 0.2500000 0.1000000 0.1500000
v 0.2500000 0.1000000 0.0000000
v 0.1439350 0.1000000 0.1060650
v 0.1925950 0.1000000 0.1385850
v 0.2500000 0.1000000 0.0000000
v 0.1114150 0.1000000 0.0574050
v 0.1439350 0.1000000 0.1060650
v 0.2500000 0.1000000 0.0000000
v 0.1000000 0.1000000 0.0000000
v 0.1114150 0.1000000 0.0574050
v 0.2500000 0.1000000 0.0000000
v 0.1114150 0.1000000 -0.0574050
v 0.1000000 0.1000000 0.0000000
v 0.2500000 0.1000000 0.0000000
v 0.1439350 0.1000000 -0.1060650
v 0.1114150 0.1000000 -0.0574050
v 0.2500000 0.1000000 0.0000000
v 0.1925950 0.1000000 -0.1385850
v 0.1439350 0.1000000 -0.1060650
v 0.2500000 0.1000000 0.0000000
v 0.2500000 0.1000000 -0.1500000
v 0.1925950 0.1000000 -0.1385850
v 0.2500000 0.1000000 0.0000000
v 0.3074050 0.1000000 -0.1385850
v 0.2500000 0.1000000 -0.1500000
v 0.2500000 0.1000000 0.0000000
v 0.3560650 0.1000000 -0.1060650
v 0.3074050 0.1000000 -0.1385850
v 0.2500000 0.1000000 0.0000000
v 0.3885850 0.1000000 -0.0574050
v 0.3560650 0.1000000 -0.1060650
v 0.2500000 0.1000000 0.0000000
v 0.4000000 0.1000000 0.0000000
v 0.3885850 0.1000000 -0.0574050
v 0.2500000 0.1000000 0.0000000
v -0.1500000 -0.3000000 -0.2500000
v -0.1385850 -0.3000000 -0.1925950
v -0.1385850 -0.6000000 -0.1925950
v -0.1500000 -0.6000000 -0.2500000
v -0.1385850 -0.3000000 -0.1925950
v -0.1060650 -0.3000000 -0.1439350
v -0.1060650 -0.6000000 -0.1439350
v -0.1385850 -0.6000000 -0.1925950
v -0.1060650 -0.3000000 -0.1439350
v -0.0574050 -0.3000000 -0.1114150
v -0.0574050 -0.6000000 -0.1114150
v -0.1060650 -0.6000000 -0.1439350
v -0.0574050 -0.3000000 -0.1114150
v 0.0000000 -0.3000000 -0.1000000
v 0.0000000 -0.6000000 -0.1000000
v -0.0574050 -0.6000000 -0.1114150
v 0.0000000 -0.3000000 -0.1000000
v 0.0574050 -0.3000000 -0.1114150
v 0.0574050 -0.6000000 -0.1114150
v 0.0000000 -0.6000000 -0.1000000
v 0.0574050 -0.3000000 -0.1114150
v 0.1060650 -0.3000000 -0.1439350
v 0.1060650 -0.6000000 -0.1439350
v 0.0574050 -0.6000000 -0.1114150
v 0.1060650 -0.3000000 -0.1439350
v 0.1385850 -0.3000000 -0.1925950
v 0.1385850 -0.6000000 -0.1925950
v 0.1060650 -0.6000000 -0.1439350
v 0.1385850 -0.3000000 -0.1925950
v 0.1500000 -0.3000000 -0.2500000
v 0.1500000 -0.6000000 -0.2500000
v 0.1385850 -0.6000000 -0.1925950
v 0.1500000 -0.3000000 -0.2500000
v 0.1385850 -0.3000000 -0.3074050
v 0.1385850 -0.6000000 -0.3074050
v 0.1500000 -0.6000000 -0.2500000
v 0.1385850 -0.3000000 -0.3074050
v 0.1060650 -0.3000000 -0.3560650
v 0.1060650 -0.6000000 -0.3560650
v 0.1385850 -0.6000000 -0.3074050
v 0.1060650 -0.3000000 -0.3560650
v 0.0574050 -0.3000000 -0.3885850
v 0.0574050 -0.6000000 -0.3885850
v 0.1060650 -0.6000000 -0.3560650
v 0.0574050 -0.3000000 -0.3885850
v 0.0000000 -0.3000000 -0.4000000
v 0.0000000 -0.6000000 -0.4000000
v 0.0574050 -0.6000000 -0.3885850
v 0.0000000 -0.3000000 -0.4000000
v -0.0574050 -0.3000000 -0.3885850
v -0.0574050 -0.6000000 -0.3885850
v 0.0000000 -0.6000000 -0.4000000
v -0.0574050 -0.3000000 -0.3885850
v -0.1060650 -0.3000000 -0.3560650
v -0.1060650 -0.6000000 -0.3560650
v -0.0574050 -0.6000000 -0.3885850
v -0.1060650 -0.3000000 -0.3560650
v -0.1385850 -0.3000000 -0.3074050
v -0.1385850 -0.6000000 -0.3074050
v -0.1060650 -0.6000000 -0.3560650
v -0.1385850 -0.3000000 -0.3074050
v -0.1500000 -0.3000000 -0.2500000
v -0.1500000 -0.6000000 -0.2500000
v -0.1385850 -0.6000000 -0.3074050
v -0.2000000 -0.6000000 -0.2500000
v -0.1847800 -0.6000000 -0.1734600
v -0.1847800 -0.3000000 -0.1734600
v -0.2000000 -0.3000000 -0.2500000
v -0.1847800 -0.6000000 -0.1734600
v -0.1414200 -0.6000000 -0.1085800
v -0.1414200 -0.3000000 -0.1085800
v -0.1847800 -0.3000000 -0.1734600
v -0.1414200 -0.6000000 -0.1085800
v -0.0765400 -0.6000000 -0.0652200
v -0.0765400 -0.3000000 -0.0652200
v -0.1414200 -0.3000000 -0.1085800
v -0.0765400 -0.6000000 -0.0652200
v 0.0000000 -0.6000000 -0.0500000
v 0.0000000 -0.3000000 -0.0500000
v -0.0765400 -0.3000000 -0.0652200
v 0.0000000 -0.6000000 -0.0500000
v 0.0765400 -0.6000000 -0.0652200
v 0.0765400 -0.3000000 -0.0652200
v 0.0000000 -0.3000000 -0.0500000
v 0.0765400 -0.6000000 -0.0652200
v 0.1414200 -0.6000000 -0.1085800
v 0.1414200 -0.3000000 -0.1085800
v 0.0765400 -0.3000000 -0.0652200
v 0.1414200 -0.6000000 -0.1085800
v 0.1847800 -0.6000000 -0.1734600
v 0.1847800 -0.3000000 -0.1734600
v 0.1414200 -0.3000000 -0.1085800
v 0.1847800 -0.6000000 -0.1734600
v 0.2000000 -0.6000000 -0.2500000
v 0.2000000 -0.3000000 -0.2500000
v 0.1847800 -0.3000000 -0.1734600
v 0.2000000 -0.6000000 -0.2500000
v 0.1847800 -0.6000000 -0.3265400
v 0.1847800 -0.3000000 -0.3265400
v 0.2000000 -0.3000000 -0.2500000
v 0.1847800 -0.6000000 -0.3265400
v 0.1414200 -0.6000000 -0.3914200
v 0.1414200 -0.3000000 -0.3914200
v 0.1847800 -0.3000000 -0.3265400
v 0.1414200 -0.6000000 -0.3914200
v 0.0765400 -0.6000000 -0.4347800
v 0.0765400 -0.3000000 -0.4347800
v 0.1414200 -0.3000000 -0.3914200
v 0.0765400 -0.6000000 -0.4347800
v 0.0000000 -0.6000000 -0.4500000
v 0.0000000 -0.3000000 -0.4500000
v 0.0765400 -0.3000000 -0.4347800
v 0.0000000 -0.6000000 -0.4500000
v -0.0765400 -0.6000000 -0.4347800
v -0.0765400 -0.3000000 -0.4347800
v 0.0000000 -0.3000000 -0.4500000
v -0.0765400 -0.6000000 -0.4347800
v -0.1414200 -0.6000000 -0.3914200
v -0.1414200 -0.3000000 -0.3914200
v -0.0765400 -0.3000000 -0.4347800
v -0.1414200 -0.6000000 -0.3914200
v -0.1847800 -0.6000000 -0.3265400
v -0.1847800 -0.3000000 -0.3265400
v -0.1414200 -0.3000000 -0.3914200
v -0.1847800 -0.6000000 -0.3265400
v -0.2000000 -0.6000000 -0.2500000
v -0.2000000 -0.3000000 -0.2500000
v -0.1847800 -0.3000000 -0.3265400
v 0.0000000 -0.6000000 -0.0500000
v 0.0000000 -0.6000000 -0.1000000
v 0.0574050 -0.6000000 -0.1114150
v 0.0765400 -0.6000000 -0.0652200
v 0.0765400 -0.6000000 -0.0652200
v 0.0574050 -0.6000000 -0.1114150
v 0.1060650 -0.6000000 -0.1439350
v 0.1414200 -0.6000000 -0.1085800
v 0.1414200 -0.6000000 -0.1085800
v 0.1060650 -0.6000000 -0.1439350
v 0.1385850 -0.6000000 -0.1925950
v 0.1847800 -0.6000000 -0.1734600
v 0.1847800 -0.6000000 -0.1734600
v 0.1385850 -0.6000000 -0.1925950
v 0.1500000 -0.6000000 -0.2500000
v 0.2000000 -0.6000000 -0.2500000
v 0.2000000 -0.6000000 -0.2500000
v 0.1500000 -0.6000000 -0.2500000
v 0.1385850 -0.6000000 -0.3074050
v 0.1847800 -0.6000000 -0.3265400
v 0.1847800 -0.6000000 -0.3265400
v 0.1385850 -0.6000000 -0.3074050
v 0.1060650 -0.6000000 -0.3560650
v 0.1414200 -0.6000000 -0.3914200
v 0.1414200 -0.6000000 -0.3914200
v 0.1060650 -0.6000000 -0.3560650
v 0.0574050 -0.6000000 -0.3885850
v 0.0765400 -0.6000000 -0.4347800
v 0.0765400 -0.6000000 -0.4347800
v 0.0574050 -0.6000000 -0.3885850
v 0.0000000 -0.6000000 -0.4000000
v 0.0000000 -0.6000000 -0.4500000
v 0.0000000 -0.6000000 -0.4500000
v 0.0000000 -0.6000000 -0.4000000
v -0.0574050 -0.6000000 -0.3885850
v -0.0765400 -0.6000000 -0.4347800
v -0.0765400 -0.6000000 -0.4347800
v -0.0574050 -0.6000000 -0.3885850
v -0.1060650 -0.6000000 -0.3560650
v -0.1414200 -0.6000000 -0.3914200
v -0.1414200 -0.6000000 -0.3914200
v -0.1060650 -0.6000000 -0.3560650
v -0.1385850 -0.6000000 -0.3074050
v -0.1847800 -0.6000000 -0.3265400
v -0.1847800 -0.6000000 -0.3265400
v -0.1385850 -0.6000000 -0.3074050
v -0.1500000 -0.6000000 -0.2500000
v -0.2000000 -0.6000000 -0.2500000
v -0.2000000 -0.6000000 -0.2500000
v -0.1500000 -0.6000000 -0.2500000
v -0.1385850 -0.6000000 -0.1925950
v -0.1847800 -0.6000000 -0.1734600
v -0.1847800 -0.6000000 -0.1734600
v -0.1385850 -0.6000000 -0.1925950
v -0.1060650 -0.6000000 -0.1439350
v -0.1414200 -0.6000000 -0.1085800
v -0.1414200 -0.6000000 -0.1085800
v -0.1060650 -0.6000000 -0.1439350
v -0.0574050 -0.6000000 -0.1114150
v -0.0765400 -0.6000000 -0.0652200
v -0.0765400 -0.6000000 -0.0652200
v -0.0574050 -0.6000000 -0.1114150
v 0.0000000 -0.6000000 -0.1000000
v 0.0000000 -0.6000000 -0.0500000
v 0.1385850 -0.3000000 -0.1925950
v 0.1385850 -0.1000000 -0.1925950
v 0.1500000 -0.1000000 -0.2500000
v 0.1500000 -0.3000000 -0.2500000
v 0.1060650 -0.3000000 -0.1439350
v 0.1060650 -0.1000000 -0.1439350
v 0.1385850 -0.1000000 -0.1925950
v 0.1385850 -0.3000000 -0.1925950
v 0.0574050 -0.3000000 -0.1114150
v 0.0574050 -0.1000000 -0.1114150
v 0.1060650 -0.1000000 -0.1439350
v 0.1060650 -0.3000000 -0.1439350
v 0.0000000 -0.3000000 -0.1000000
v 0.0000000 -0.1000000 -0.1000000
v 0.0574050 -0.1000000 -0.1114150
v 0.0574050 -0.3000000 -0.1114150
v -0.0574050 -0.3000000 -0.1114150
v -0.0574050 -0.1000000 -0.1114150
v 0.0000000 -0.1000000 -0.1000000
v 0.0000000 -0.3000000 -0.1000000
v -0.1060650 -0.3000000 -0.1439350
v -0.1060650 -0.1000000 -0.1439350
v -0.0574050 -0.1000000 -0.1114150
v -0.0574050 -0.3000000 -0.1114150
v -0.1385850 -0.3000000 -0.1925950
v -0.1385850 -0.1000000 -0.1925950
v -0.1060650 -0.1000000 -0.1439350
v -0.1060650 -0.3000000 -0.1439350
v -0.1500000 -0.3000000 -0.2500000
v -0.1500000 -0.1000000 -0.2500000
v -0.1385850 -0.1000000 -0.1925950
v -0.1385850 -0.3000000 -0.1925950
v 0.1500000 -0.3000000 -0.2500000
v 0.1500000 -0.2500000 -0.2500000
v 0.1385850 -0.2500000 -0.3074050
v 0.1385850 -0.3000000 -0.3074050
v 0.1385850 -0.3000000 -0.3074050
v 0.1385850 -0.2500000 -0.3074050
v 0.1060650 -0.2500000 -0.3560650
v 0.1060650 -0.3000000 -0.3560650
v 0.1060650 -0.3000000 -0.3560650
v 0.1060650 -0.2500000 -0.3560650
v 0.0574050 -0.2500000 -0.3885850
v 0.0574050 -0.3000000 -0.3885850
v 0.0574050 -0.3000000 -0.3885850
v 0.0574050 -0.2500000 -0.3885850
v 0.0000000 -0.2500000 -0.4000000
v 0.0000000 -0.3000000 -0.4000000
v 0.0000000 -0.3000000 -0.4000000
v 0.0000000 -0.2500000 -0.4000000
v -0.0574050 -0.2500000 -0.3885850
v -0.0574050 -0.3000000 -0.3885850
v -0.0574050 -0.3000000 -0.3885850
v -0.0574050 -0.2500000 -0.3885850
v -0.1060650 -0.2500000 -0.3560650
v -0.1060650 -0.3000000 -0.3560650
v -0.1060650 -0.3000000 -0.3560650
v -0.1060650 -0.2500000 -0.3560650
v -0.1385850 -0.2500000 -0.3074050
v -0.1385850 -0.3000000 -0.3074050
v -0.1385850 -0.3000000 -0.3074050
v -0.1385850 -0.2500000 -0.3074050
v -0.1500000 -0.2500000 -0.2500000
v -0.1500000 -0.3000000 -0.2500000
v 0.0000000 -0.2500000 -0.4000000
v 0.0574050 -0.2500000 -0.3885850
v 0.0574050 -0.2385850 -0.3885850
v 0.0574050 -0.2500000 -0.3885850
v 0.1060650 -0.2500000 -0.3560650
v 0.1060650 -0.2060650 -0.3560650
v 0.0574050 -0.2385850 -0.3885850
v 0.1060650 -0.2500000 -0.3560650
v 0.1385850 -0.2500000 -0.3074050
v 0.1385850 -0.1574050 -0.3074050
v 0.1060650 -0.2060650 -0.3560650
v 0.1385850 -0.2500000 -0.3074050
v 0.1500000 -0.2500000 -0.2500000
v 0.1500000 -0.1000000 -0.2500000
v 0.1385850 -0.1574050 -0.3074050
v -0.0574050 -0.2385850 -0.3885850
v -0.0574050 -0.2500000 -0.3885850
v 0.0000000 -0.2500000 -0.4000000
v -0.0574050 -0.2385850 -0.3885850
v -0.1060650 -0.2060650 -0.3560650
v -0.1060650 -0.2500000 -0.3560650
v -0.0574050 -0.2500000 -0.3885850
v -0.1060650 -0.2060650 -0.3560650
v -0.1385850 -0.1574050 -0.3074050
v -0.1385850 -0.2500000 -0.3074050
v -0.1060650 -0.2500000 -0.3560650
v -0.1385850 -0.1574050 -0.3074050
v -0.1500000 -0.1000000 -0.2500000
v -0.1500000 -0.2500000 -0.2500000
v -0.1385850 -0.2500000 -0.3074050
v 0.2000000 -0.3000000 -0.2500000
v 0.2000000 -0.1000000 -0.2500000
v 0.1847800 -0.1000000 -0.1734600
v 0.1847800 -0.3000000 -0.1734600
v 0.1847800 -0.3000000 -0.1734600
v 0.1847800 -0.1000000 -0.1734600
v 0.1414200 -0.1000000 -0.1085800
v 0.1414200 -0.3000000 -0.1085800
v 0.1414200 -0.3000000 -0.1085800
v 0.1414200 -0.1000000 -0.1085800
v 0.0765400 -0.1000000 -0.0652200
v 0.0765400 -0.3000000 -0.0652200
v 0.0765400 -0.3000000 -0.0652200
v 0.0765400 -0.1000000 -0.0652200
v 0.0000000 -0.1000000 -0.0500000
v 0.0000000 -0.3000000 -0.0500000
v 0.0000000 -0.3000000 -0.0500000
v 0.0000000 -0.1000000 -0.0500000
v -0.0765400 -0.1000000 -0.0652200
v -0.0765400 -0.3000000 -0.0652200
v -0.0765400 -0.3000000 -0.0652200
v -0.0765400 -0.1000000 -0.0652200
v -0.1414200 -0.1000000 -0.1085800
v -0.1414200 -0.3000000 -0.1085800
v -0.1414200 -0.3000000 -0.1085800
v -0.1414200 -0.1000000 -0.1085800
v -0.1847800 -0.1000000 -0.1734600
v -0.1847800 -0.3000000 -0.1734600
v -0.1847800 -0.3000000 -0.1734600
v -0.1847800 -0.1000000 -0.1734600
v -0.2000000 -0.1000000 -0.2500000
v -0.2000000 -0.3000000 -0.2500000
v 0.0765400 -0.2847800 -0.4347800
v 0.0765400 -0.3000000 -0.4347800
v 0.0000000 -0.3000000 -0.4500000
v 0.0765400 -0.2847800 -0.4347800
v 0.1414200 -0.2414200 -0.3914200
v 0.1414200 -0.3000000 -0.3914200
v 0.0765400 -0.3000000 -0.4347800
v 0.1414200 -0.2414200 -0.3914200
v 0.1847800 -0.1765400 -0.3265400
v 0.1847800 -0.3000000 -0.3265400
v 0.1414200 -0.3000000 -0.3914200
v 0.1847800 -0.1765400 -0.3265400
v 0.2000000 -0.1000000 -0.2500000
v 0.2000000 -0.3000000 -0.2500000
v 0.1847800 -0.3000000 -0.3265400
v 0.0000000 -0.3000000 -0.4500000
v -0.0765400 -0.3000000 -0.4347800
v -0.0765400 -0.2847800 -0.4347800
v -0.0765400 -0.3000000 -0.4347800
v -0.1414200 -0.3000000 -0.3914200
v -0.1414200 -0.2414200 -0.3914200
v -0.0765400 -0.2847800 -0.4347800
v -0.1414200 -0.3000000 -0.3914200
v -0.1847800 -0.3000000 -0.3265400
v -0.1847800 -0.1765400 -0.3265400
v -0.1414200 -0.2414200 -0.3914200
v -0.1847800 -0.3000000 -0.3265400
v -0.2000000 -0.3000000 -0.2500000
v -0.2000000 -0.1000000 -0.2500000
v -0.1847800 -0.1765400 -0.3265400
v 0.1385850 -0.1000000 -0.1925950
v -0.1385850 -0.1000000 -0.1925950
v -0.1500000 -0.1000000 -0.2500000
v 0.1500000 -0.1000000 -0.2500000
v 0.1060650 -0.1000000 -0.1439350
v -0.1060650 -0.1000000 -0.1439350
v -0.1385850 -0.1000000 -0.1925950
v 0.1385850 -0.1000000 -0.1925950
v 0.0574050 -0.1000000 -0.1114150
v -0.0574050 -0.1000000 -0.1114150
v -0.1060650 -0.1000000 -0.1439350
v 0.1060650 -0.1000000 -0.1439350
v 0.0000000 -0.1000000 -0.1000000
v -0.0574050 -0.1000000 -0.1114150
v 0.0574050 -0.1000000 -0.1114150
v 0.1847800 -0.1000000 -0.1734600
v 0.2000000 -0.1000000 -0.2500000
v 0.2000000 -0.1000000 -0.0500000
v 0.1414200 -0.1000000 -0.1085800
v 0.1847800 -0.1000000 -0.1734600
v 0.2000000 -0.1000000 -0.0500000
v 0.0765400 -0.1000000 -0.0652200
v 0.1414200 -0.1000000 -0.1085800
v 0.2000000 -0.1000000 -0.0500000
v 0.0000000 -0.1000000 -0.0500000
v 0.0765400 -0.1000000 -0.0652200
v 0.2000000 -0.1000000 -0.0500000
v -0.0765400 -0.1000000 -0.0652200
v 0.0000000 -0.1000000 -0.0500000
v -0.2000000 -0.1000000 -0.0500000
v -0.1414200 -0.1000000 -0.1085800
v -0.0765400 -0.1000000 -0.0652200
v -0.2000000 -0.1000000 -0.0500000
v -0.1847800 -0.1000000 -0.1734600
v -0.1414200 -0.1000000 -0.1085800
v -0.2000000 -0.1000000 -0.0500000
v -0.2000000 -0.1000000 -0.2500000
v -0.1847800 -0.1000000 -0.1734600
v -0.2000000 -0.1000000 -0.0500000
v 0.1500000 -0.1000000 -0.2500000
v -0.1500000 -0.1000000 -0.2500000
v -0.1385850 -0.1574050 -0.3074050
v 0.1385850 -0.1574050 -0.3074050
v 0.1385850 -0.1574050 -0.3074050
v -0.1385850 -0.1574050 -0.3074050
v -0.1060650 -0.2060650 -0.3560650
v 0.1060650 -0.2060650 -0.3560650
v 0.1060650 -0.2060650 -0.3560650
v -0.1060650 -0.2060650 -0.3560650
v -0.0574050 -0.2385850 -0.3885850
v 0.0574050 -0.2385850 -0.3885850
v 0.0574050 -0.2385850 -0.3885850
v -0.0574050 -0.2385850 -0.3885850
v 0.0000000 -0.2500000 -0.4000000
v 0.2000000 -0.3000000 -0.4500000
v 0.2000000 -0.1000000 -0.2500000
v 0.1847800 -0.1765400 -0.3265400
v 0.2000000 -0.3000000 -0.4500000
v 0.1847800 -0.1765400 -0.3265400
v 0.1414200 -0.2414200 -0.3914200
v 0.2000000 -0.3000000 -0.4500000
v 0.1414200 -0.2414200 -0.3914200
v 0.0765400 -0.2847800 -0.4347800
v 0.2000000 -0.3000000 -0.4500000
v 0.0765400 -0.2847800 -0.4347800
v 0.0000000 -0.3000000 -0.4500000
v -0.2000000 -0.3000000 -0.4500000
v 0.0000000 -0.3000000 -0.4500000
v -0.0765400 -0.2847800 -0.4347800
v -0.2000000 -0.3000000 -0.4500000
v -0.0765400 -0.2847800 -0.4347800
v -0.1414200 -0.2414200 -0.3914200
v -0.2000000 -0.3000000 -0.4500000
v -0.1414200 -0.2414200 -0.3914200
v -0.1847800 -0.1765400 -0.3265400
v -0.2000000 -0.3000000 -0.4500000
v -0.1847800 -0.1765400 -0.3265400
v -0.2000000 -0.1000000 -0.2500000
v -0.4000000 -0.1000000 0.1500000
v 0.4000000 -0.1000000 0.1500000
v 0.4000000 -0.6000000 0.1500000
v -0.4000000 -0.6000000 0.1500000
v 0.4000000 -0.1000000 0.1500000
v 0.4000000 -0.1000000 -0.2500000
v 0.4000000 -0.6000000 -0.2500000
v 0.4000000 -0.6000000 0.1500000
v -0.4000000 -0.6000000 0.1500000
v -0.4000000 -0.6000000 -0.2500000
v -0.4000000 -0.1000000 -0.2500000
v -0.4000000 -0.1000000 0.1500000
v -0.4000000 -0.1000000 0.1500000
v -0.4000000 -0.1000000 -0.2500000
v -0.2000000 -0.1000000 -0.2500000
v -0.2000000 -0.1000000 -0.0500000
v 0.4000000 -0.1000000 -0.2500000
v 0.4000000 -0.1000000 0.1500000
v 0.2000000 -0.1000000 -0.0500000
v 0.2000000 -0.1000000 -0.2500000
v -0.4000000 -0.1000000 0.1500000
v 0.0000000 -0.1000000 -0.0500000
v 0.2000000 -0.1000000 -0.0500000
v 0.4000000 -0.1000000 0.1500000
v 0.0000000 -0.1000000 -0.0500000
v -0.4000000 -0.1000000 0.1500000
v -0.2000000 -0.1000000 -0.0500000
v 0.4000000 -0.5000000 -0.6500000
v -0.4000000 -0.5000000 -0.6500000
v -0.4000000 -0.6000000 -0.6500000
v 0.4000000 -0.6000000 -0.6500000
v 0.4000000 -0.5000000 -0.6500000
v 0.4000000 -0.1000000 -0.2500000
v 0.2000000 -0.1000000 -0.2500000
v 0.2000000 -0.3000000 -0.4500000
v -0.4000000 -0.5000000 -0.6500000
v 0.4000000 -0.5000000 -0.6500000
v 0.2000000 -0.3000000 -0.4500000
v 0.0000000 -0.3000000 -0.4500000
v -0.2000000 -0.3000000 -0.4500000
v -0.4000000 -0.5000000 -0.6500000
v 0.0000000 -0.3000000 -0.4500000
v -0.2000000 -0.3000000 -0.4500000
v -0.2000000 -0.1000000 -0.2500000
v -0.4000000 -0.1000000 -0.2500000
v -0.4000000 -0.5000000 -0.6500000
v 0.4000000 -0.5000000 -0.6500000
v 0.4000000 -0.6000000 -0.6500000
v 0.4000000 -0.6000000 -0.2500000
v 0.4000000 -0.1000000 -0.2500000
v -0.4000000 -0.5000000 -0.6500000
v -0.4000000 -0.1000000 -0.2500000
v -0.4000000 -0.6000000 -0.2500000
v -0.4000000 -0.6000000 -0.6500000
v 0.5000000 -0.0000000 0.2500000
v 0.5000000 -0.0000000 -0.2500000
v -0.5000000 -0.0000000 -0.2500000
v -0.5000000 -0.0000000 0.2500000
v -0.5000000 -0.0000000 0.2500000
v -0.5000000 -0.0000000 -0.2500000
v -0.5000000 -0.6000000 -0.2500000
v -0.5000000 -0.6000000 0.2500000
v 0.5000000 -0.0000000 -0.2500000
v 0.5000000 -0.0000000 0.2500000
v 0.5000000 -0.6000000 0.2500000
v 0.5000000 -0.6000000 -0.2500000
v 0.5000000 -0.0000000 0.2500000
v -0.5000000 -0.0000000 0.2500000
v -0.5000000 -0.6000000 0.2500000
v 0.5000000 -0.6000000 0.2500000
v -0.5000000 -0.5000000 -0.7500000
v 0.5000000 -0.5000000 -0.7500000
v 0.5000000 -0.6000000 -0.7500000
v -0.5000000 -0.6000000 -0.7500000
v 0.5000000 -0.6000000 -0.7500000
v 0.5000000 -0.5000000 -0.7500000
v 0.5000000 -0.0000000 -0.2500000
v 0.5000000 -0.6000000 -0.2500000
v -0.5000000 -0.6000000 -0.7500000
v -0.5000000 -0.6000000 -0.2500000
v -0.5000000 -0.0000000 -0.2500000
v -0.5000000 -0.5000000 -0.7500000
v 0.5000000 -0.6000000 -0.7500000
v 0.4000000 -0.6000000 -0.6500000
v -0.4000000 -0.6000000 -0.6500000
v -0.5000000 -0.6000000 -0.7500000
v 0.5000000 -0.6000000 -0.2500000
v 0.4000000 -0.6000000 -0.2500000
v 0.4000000 -0.6000000 -0.6500000
v 0.5000000 -0.6000000 -0.7500000
v 0.5000000 -0.6000000 0.2500000
v 0.4000000 -0.6000000 0.1500000
v 0.4000000 -0.6000000 -0.2500000
v 0.5000000 -0.6000000 -0.2500000
v -0.5000000 -0.6000000 -0.7500000
v -0.4000000 -0.6000000 -0.6500000
v -0.4000000 -0.6000000 -0.2500000
v -0.5000000 -0.6000000 -0.2500000
v -0.5000000 -0.6000000 0.2500000
v -0.5000000 -0.6000000 -0.2500000
v -0.4000000 -0.6000000 -0.2500000
v -0.4000000 -0.6000000 0.1500000
v 0.5000000 -0.6000000 0.2500000
v -0.5000000 -0.6000000 0.2500000
v -0.4000000 -0.6000000 0.1500000
v 0.4000000 -0.6000000 0.1500000
v -0.5000000 -0.5000000 -0.7500000
v -0.5000000 -0.0000000 -0.2500000
v 0.5000000 -0.0000000 -0.2500000
v 0.5000000 -0.5000000 -0.7500000
s off
f 1 2 3
f 1 3 4
f 5 6 7
f 5 7 8
f 9 10 11
f 9 11 12
f 13 14 15
f 13 15 16
f 17 18 19
f 17 19 20
f 21 22 23
f 21 23 24
f 25 26 27
f 25 27 28
f 29 30 31
f 29 31 32
f 33 34 35
f 33 35 36
f 37 38 39
f 37 39 40
f 41 42 43
f 41 43 44
f 45 46 47
f 45 47 48
f 49 50 51
f 49 51 52
f 53 54 55
f 53 55 56
f 57 58 59
f 57 59 60
f 61 62 63
f 61 63 64
f 65 66 67
f 68 69 70
f 71 72 73
f 74 75 76
f 77 78 79
f 80 81 82
f 83 84 85
f 86 87 88
f 89 90 91
f 92 93 94
f 95 96 97
f 98 99 100
f 101 102 103
f 104 105 106
f 107 108 109
f 110 111 112
f 113 114 115
f 113 115 116
f 117 118 119
f 117 119 120
f 121 122 123
f 121 123 124
f 125 126 127
f 125 127 128
f 129 130 131
f 129 131 132
f 133 134 135
f 133 135 136
f 137 138 139
f 137 139 140
f 141 142 143
f 141 143 144
f 145 146 147
f 145 147 148
f 149 150 151
f 149 151 152
f 153 154 155
f 153 155 156
f 157 158 159
f 157 159 160
f 161 162 163
f 161 163 164
f 165 166 167
f 165 167 168
f 169 170 171
f 169 171 172
f 173 174 175
f 173 175 176
f 177 178 179
f 180 181 182
f 183 184 185
f 186 187 188
f 189 190 191
f 192 193 194
f 195 196 197
f 198 199 200
f 201 202 203
f 204 205 206
f 207 208 209
f 210 211 212
f 213 214 215
f 216 217 218
f 219 220 221
f 222 223 224
f 225 226 227
f 225 227 228
f 229 230 231
f 229 231 232
f 233 234 235
f 233 235 236
f 237 238 239
f 237 239 240
f 241 242 243
f 241 243 244
f 245 246 247
f 245 247 248
f 249 250 251
f 249 251 252
f 253 254 255
f 253 255 256
f 257 258 259
f 257 259 260
f 261 262 263
f 261 263 264
f 265 266 267
f 265 267 268
f 269 270 271
f 269 271 272
f 273 274 275
f 273 275 276
f 277 278 279
f 277 279 280
f 281 282 283
f 281 283 284
f 285 286 287
f 285 287 288
f 289 290 291
f 289 291 292
f 293 294 295
f 293 295 296
f 297 298 299
f 297 299 300
f 301 302 303
f 301 303 304
f 305 306 307
f 305 307 308
f 309 310 311
f 309 311 312
f 313 314 315
f 313 315 316
f 317 318 319
f 317 319 320
f 321 322 323
f 321 323 324
f 325 326 327
f 325 327 328
f 329 330 331
f 329 331 332
f 333 334 335
f 333 335 336
f 337 338 339
f 337 339 340
f 341 342 343
f 341 343 344
f 345 346 347
f 345 347 348
f 349 350 351
f 349 351 352
f 353 354 355
f 353 355 356
f 357 358 359
f 357 359 360
f 361 362 363
f 361 363 364
f 365 366 367
f 365 367 368
f 369 370 371
f 369 371 372
f 373 374 375
f 373 375 376
f 377 378 379
f 377 379 380
f 381 382 383
f 381 383 384
f 385 386 387
f 385 387 388
f 389 390 391
f 389 391 392
f 393 394 395
f 393 395 396
f 397 398 399
f 397 399 400
f 401 402 403
f 401 403 404
f 405 406 407
f 405 407 408
f 409 410 411
f 409 411 412
f 413 414 415
f 413 415 416
f 417 418 419
f 417 419 420
f 421 422 423
f 421 423 424
f 425 426 427
f 425 427 428
f 429 430 431
f 429 431 432
f 433 434 435
f 433 435 436
f 437 438 439
f 437 439 440
f 441 442 443
f 441 443 444
f 445 446 447
f 445 447 448
f 449 450 451
f 449 451 452
f 453 454 455
f 453 455 456
f 457 458 459
f 457 459 460
f 461 462 463
f 461 463 464
f 465 466 467
f 465 467 468
f 469 470 471
f 469 471 472
f 473 474 475
f 473 475 476
f 477 478 479
f 477 479 480
f 481 482 483
f 484 485 486
f 484 486 487
f 488 489 490
f 488 490 491
f 492 493 494
f 492 494 495
f 496 497 498
f 499 500 501
f 499 501 502
f 503 504 505
f 503 505 506
f 507 508 509
f 507 509 510
f 511 512 513
f 511 513 514
f 515 516 517
f 515 517 518
f 519 520 521
f 519 521 522
f 523 524 525
f 523 525 526
f 527 528 529
f 527 529 530
f 531 532 533
f 531 533 534
f 535 536 537
f 535 537 538
f 539 540 541
f 539 541 542
f 543 544 545
f 546 547 548
f 546 548 549
f 550 551 552
f 550 552 553
f 554 555 556
f 554 556 557
f 558 559 560
f 561 562 563
f 561 563 564
f 565 566 567
f 565 567 568
f 569 570 571
f 569 571 572
f 573 574 575
f 573 575 576
f 577 578 579
f 577 579 580
f 581 582 583
f 581 583 584
f 585 586 587
f 588 589 590
f 591 592 593
f 594 595 596
f 597 598 599
f 600 601 602
f 603 604 605
f 606 607 608
f 609 610 611
f 612 613 614
f 612 614 615
f 616 617 618
f 616 618 619
f 620 621 622
f 620 622 623
f 624 625 626
f 627 628 629
f 630 631 632
f 633 634 635
f 636 637 638
f 639 640 641
f 642 643 644
f 645 646 647
f 648 649 650
f 651 652 653
f 651 653 654
f 655 656 657
f 655 657 658
f 659 660 661
f 659 661 662
f 663 664 665
f 663 665 666
f 667 668 669
f 667 669 670
f 671 672 673
f 671 673 674
f 675 676 677
f 678 679 680
f 678 680 681
f 682 683 684
f 682 684 685
f 686 687 688
f 686 688 689
f 690 691 692
f 693 694 695
f 693 695 696
f 697 698 699
f 697 699 700
f 701 702 703
f 701 703 704
f 705 706 707
f 705 707 708
f 709 710 711
f 709 711 712
f 713 714 715
f 713 715 716
f 717 718 719
f 717 719 720
f 721 722 723
f 721 723 724
f 725 726 727
f 725 727 728
f 729 730 731
f 729 731 732
f 733 734 735
f 733 735 736
f 737 738 739
f 737 739 740
f 741 742 743
f 741 743 744
f 745 746 747
f 745 747 748
f 749 750 751
f 749 751 752
f 753 754 755
f 753 755 756
f 757 758 759
f 757 759 760
