# Baked from official LDraw part 3040b.dat
o ldraw_3040b
v 0.0000000 -0.6000000 -0.2500000
v 0.1000000 -0.6000000 -0.2500000
v 0.0923900 -0.6000000 -0.2117300
v 0.0000000 -0.6000000 -0.2500000
v 0.0923900 -0.6000000 -0.2117300
v 0.0707100 -0.6000000 -0.1792900
v 0.0000000 -0.6000000 -0.2500000
v 0.0707100 -0.6000000 -0.1792900
v 0.0382700 -0.6000000 -0.1576100
v 0.0000000 -0.6000000 -0.2500000
v 0.0382700 -0.6000000 -0.1576100
v 0.0000000 -0.6000000 -0.1500000
v 0.0000000 -0.6000000 -0.2500000
v 0.0000000 -0.6000000 -0.1500000
v -0.0382700 -0.6000000 -0.1576100
v 0.0000000 -0.6000000 -0.2500000
v -0.0382700 -0.6000000 -0.1576100
v -0.0707100 -0.6000000 -0.1792900
v 0.0000000 -0.6000000 -0.2500000
v -0.0707100 -0.6000000 -0.1792900
v -0.0923900 -0.6000000 -0.2117300
v 0.0000000 -0.6000000 -0.2500000
v -0.0923900 -0.6000000 -0.2117300
v -0.1000000 -0.6000000 -0.2500000
v 0.0000000 -0.6000000 -0.2500000
v -0.1000000 -0.6000000 -0.2500000
v -0.0923900 -0.6000000 -0.2882700
v 0.0000000 -0.6000000 -0.2500000
v -0.0923900 -0.6000000 -0.2882700
v -0.0707100 -0.6000000 -0.3207100
v 0.0000000 -0.6000000 -0.2500000
v -0.0707100 -0.6000000 -0.3207100
v -0.0382700 -0.6000000 -0.3423900
v 0.0000000 -0.6000000 -0.2500000
v -0.0382700 -0.6000000 -0.3423900
v 0.0000000 -0.6000000 -0.3500000
v 0.0000000 -0.6000000 -0.2500000
v 0.0000000 -0.6000000 -0.3500000
v 0.0382700 -0.6000000 -0.3423900
v 0.0000000 -0.6000000 -0.2500000
v 0.0382700 -0.6000000 -0.3423900
v 0.0707100 -0.6000000 -0.3207100
v 0.0000000 -0.6000000 -0.2500000
v 0.0707100 -0.6000000 -0.3207100
v 0.0923900 -0.6000000 -0.2882700
v 0.0000000 -0.6000000 -0.2500000
v 0.0923900 -0.6000000 -0.2882700
v 0.1000000 -0.6000000 -0.2500000
v 0.1000000 -0.5000000 -0.2500000
v 0.0923900 -0.5000000 -0.2117300
v 0.0923900 -0.6000000 -0.2117300
v 0.1000000 -0.6000000 -0.2500000
v 0.0923900 -0.5000000 -0.2117300
v 0.0707100 -0.5000000 -0.1792900
v 0.0707100 -0.6000000 -0.1792900
v 0.0923900 -0.6000000 -0.2117300
v 0.0707100 -0.5000000 -0.1792900
v 0.0382700 -0.5000000 -0.1576100
v 0.0382700 -0.6000000 -0.1576100
v 0.0707100 -0.6000000 -0.1792900
v 0.0382700 -0.5000000 -0.1576100
v 0.0000000 -0.5000000 -0.1500000
v 0.0000000 -0.6000000 -0.1500000
v 0.0382700 -0.6000000 -0.1576100
v 0.0000000 -0.5000000 -0.1500000
v -0.0382700 -0.5000000 -0.1576100
v -0.0382700 -0.6000000 -0.1576100
v 0.0000000 -0.6000000 -0.1500000
v -0.0382700 -0.5000000 -0.1576100
v -0.0707100 -0.5000000 -0.1792900
v -0.0707100 -0.6000000 -0.1792900
v -0.0382700 -0.6000000 -0.1576100
v -0.0707100 -0.5000000 -0.1792900
v -0.0923900 -0.5000000 -0.2117300
v -0.0923900 -0.6000000 -0.2117300
v -0.0707100 -0.6000000 -0.1792900
v -0.0923900 -0.5000000 -0.2117300
v -0.1000000 -0.5000000 -0.2500000
v -0.1000000 -0.6000000 -0.2500000
v -0.0923900 -0.6000000 -0.2117300
v -0.1000000 -0.5000000 -0.2500000
v -0.0923900 -0.5000000 -0.2882700
v -0.0923900 -0.6000000 -0.2882700
v -0.1000000 -0.6000000 -0.2500000
v -0.0923900 -0.5000000 -0.2882700
v -0.0707100 -0.5000000 -0.3207100
v -0.0707100 -0.6000000 -0.3207100
v -0.0923900 -0.6000000 -0.2882700
v -0.0707100 -0.5000000 -0.3207100
v -0.0382700 -0.5000000 -0.3423900
v -0.0382700 -0.6000000 -0.3423900
v -0.0707100 -0.6000000 -0.3207100
v -0.0382700 -0.5000000 -0.3423900
v 0.0000000 -0.5000000 -0.3500000
v 0.0000000 -0.6000000 -0.3500000
v -0.0382700 -0.6000000 -0.3423900
v 0.0000000 -0.5000000 -0.3500000
v 0.0382700 -0.5000000 -0.3423900
v 0.0382700 -0.6000000 -0.3423900
v 0.0000000 -0.6000000 -0.3500000
v 0.0382700 -0.5000000 -0.3423900
v 0.0707100 -0.5000000 -0.3207100
v 0.0707100 -0.6000000 -0.3207100
v 0.0382700 -0.6000000 -0.3423900
v 0.0707100 -0.5000000 -0.3207100
v 0.0923900 -0.5000000 -0.2882700
v 0.0923900 -0.6000000 -0.2882700
v 0.0707100 -0.6000000 -0.3207100
v 0.0923900 -0.5000000 -0.2882700
v 0.1000000 -0.5000000 -0.2500000
v 0.1000000 -0.6000000 -0.2500000
v 0.0923900 -0.6000000 -0.2882700
v 0.0382700 -0.1923900 -0.3423900
v 0.0382700 -0.2000000 -0.3423900
v 0.0000000 -0.2000000 -0.3500000
v 0.0382700 -0.1923900 -0.3423900
v 0.0707100 -0.1707100 -0.3207100
v 0.0707100 -0.2000000 -0.3207100
v 0.0382700 -0.2000000 -0.3423900
v 0.0707100 -0.1707100 -0.3207100
v 0.0923900 -0.1382700 -0.2882700
v 0.0923900 -0.2000000 -0.2882700
v 0.0707100 -0.2000000 -0.3207100
v 0.0923900 -0.1382700 -0.2882700
v 0.1000000 -0.1000000 -0.2500000
v 0.1000000 -0.2000000 -0.2500000
v 0.0923900 -0.2000000 -0.2882700
v 0.0000000 -0.2000000 -0.3500000
v -0.0382700 -0.2000000 -0.3423900
v -0.0382700 -0.1923900 -0.3423900
v -0.0382700 -0.2000000 -0.3423900
v -0.0707100 -0.2000000 -0.3207100
v -0.0707100 -0.1707100 -0.3207100
v -0.0382700 -0.1923900 -0.3423900
v -0.0707100 -0.2000000 -0.3207100
v -0.0923900 -0.2000000 -0.2882700
v -0.0923900 -0.1382700 -0.2882700
v -0.0707100 -0.1707100 -0.3207100
v -0.0923900 -0.2000000 -0.2882700
v -0.1000000 -0.2000000 -0.2500000
v -0.1000000 -0.1000000 -0.2500000
v -0.0923900 -0.1382700 -0.2882700
v 0.1000000 -0.5000000 -0.2500000
v 0.1000000 -0.1000000 -0.2500000
v 0.0923900 -0.1000000 -0.2117300
v 0.0923900 -0.5000000 -0.2117300
v 0.0923900 -0.5000000 -0.2117300
v 0.0923900 -0.1000000 -0.2117300
v 0.0707100 -0.1000000 -0.1792900
v 0.0707100 -0.5000000 -0.1792900
v 0.0707100 -0.5000000 -0.1792900
v 0.0707100 -0.1000000 -0.1792900
v 0.0382700 -0.1000000 -0.1576100
v 0.0382700 -0.5000000 -0.1576100
v 0.0382700 -0.5000000 -0.1576100
v 0.0382700 -0.1000000 -0.1576100
v 0.0000000 -0.1000000 -0.1500000
v 0.0000000 -0.5000000 -0.1500000
v 0.0000000 -0.5000000 -0.1500000
v 0.0000000 -0.1000000 -0.1500000
v -0.0382700 -0.1000000 -0.1576100
v -0.0382700 -0.5000000 -0.1576100
v -0.0382700 -0.5000000 -0.1576100
v -0.0382700 -0.1000000 -0.1576100
v -0.0707100 -0.1000000 -0.1792900
v -0.0707100 -0.5000000 -0.1792900
v -0.0707100 -0.5000000 -0.1792900
v -0.0707100 -0.1000000 -0.1792900
v -0.0923900 -0.1000000 -0.2117300
v -0.0923900 -0.5000000 -0.2117300
v -0.0923900 -0.5000000 -0.2117300
v -0.0923900 -0.1000000 -0.2117300
v -0.1000000 -0.1000000 -0.2500000
v -0.1000000 -0.5000000 -0.2500000
v 0.0923900 -0.5000000 -0.2882700
v 0.0923900 -0.2000000 -0.2882700
v 0.1000000 -0.2000000 -0.2500000
v 0.1000000 -0.5000000 -0.2500000
v 0.0707100 -0.5000000 -0.3207100
v 0.0707100 -0.2000000 -0.3207100
v 0.0923900 -0.2000000 -0.2882700
v 0.0923900 -0.5000000 -0.2882700
v 0.0382700 -0.5000000 -0.3423900
v 0.0382700 -0.2000000 -0.3423900
v 0.0707100 -0.2000000 -0.3207100
v 0.0707100 -0.5000000 -0.3207100
v 0.0000000 -0.5000000 -0.3500000
v 0.0000000 -0.2000000 -0.3500000
v 0.0382700 -0.2000000 -0.3423900
v 0.0382700 -0.5000000 -0.3423900
v -0.0382700 -0.5000000 -0.3423900
v -0.0382700 -0.2000000 -0.3423900
v 0.0000000 -0.2000000 -0.3500000
v 0.0000000 -0.5000000 -0.3500000
v -0.0707100 -0.5000000 -0.3207100
v -0.0707100 -0.2000000 -0.3207100
v -0.0382700 -0.2000000 -0.3423900
v -0.0382700 -0.5000000 -0.3423900
v -0.0923900 -0.5000000 -0.2882700
v -0.0923900 -0.2000000 -0.2882700
v -0.0707100 -0.2000000 -0.3207100
v -0.0707100 -0.5000000 -0.3207100
v -0.1000000 -0.5000000 -0.2500000
v -0.1000000 -0.2000000 -0.2500000
v -0.0923900 -0.2000000 -0.2882700
v -0.0923900 -0.5000000 -0.2882700
v -0.2500000 -0.6000000 0.2500000
v -0.1500000 -0.6000000 0.1500000
v 0.1500000 -0.6000000 0.1500000
v 0.2500000 -0.6000000 0.2500000
v -0.2500000 -0.6000000 -0.7500000
v -0.1500000 -0.6000000 -0.6500000
v -0.1500000 -0.6000000 0.1500000
v -0.2500000 -0.6000000 0.2500000
v 0.2500000 -0.6000000 -0.7500000
v 0.1500000 -0.6000000 -0.6500000
v -0.1500000 -0.6000000 -0.6500000
v -0.2500000 -0.6000000 -0.7500000
v 0.2500000 -0.6000000 0.2500000
v 0.1500000 -0.6000000 0.1500000
v 0.1500000 -0.6000000 -0.6500000
v 0.2500000 -0.6000000 -0.7500000
v -0.1500000 -0.1000000 0.1500000
v -0.1500000 -0.1000000 -0.2500000
v 0.1500000 -0.1000000 -0.2500000
v 0.1500000 -0.1000000 0.1500000
v -0.2500000 -0.0000000 -0.2500000
v -0.2500000 -0.0000000 0.2500000
v 0.2500000 -0.0000000 0.2500000
v 0.2500000 -0.0000000 -0.2500000
v 0.2500000 -0.6000000 0.2500000
v 0.2500000 -0.0000000 0.2500000
v -0.2500000 -0.0000000 0.2500000
v -0.2500000 -0.6000000 0.2500000
v -0.1500000 -0.6000000 0.1500000
v -0.1500000 -0.1000000 0.1500000
v 0.1500000 -0.1000000 0.1500000
v 0.1500000 -0.6000000 0.1500000
v -0.1500000 -0.5000000 -0.6500000
v -0.1500000 -0.6000000 -0.6500000
v 0.1500000 -0.6000000 -0.6500000
v 0.1500000 -0.5000000 -0.6500000
v -0.2500000 -0.6000000 -0.7500000
v -0.2500000 -0.5000000 -0.7500000
v 0.2500000 -0.5000000 -0.7500000
v 0.2500000 -0.6000000 -0.7500000
v 0.2500000 -0.6000000 -0.7500000
v 0.2500000 -0.5000000 -0.7500000
v 0.2500000 -0.0000000 0.2500000
v 0.2500000 -0.6000000 0.2500000
v 0.2500000 -0.5000000 -0.7500000
v 0.2500000 -0.0000000 -0.2500000
v 0.2500000 -0.0000000 0.2500000
v 0.1500000 -0.6000000 -0.6500000
v 0.1500000 -0.6000000 0.1500000
v 0.1500000 -0.1000000 0.1500000
v 0.1500000 -0.5000000 -0.6500000
v 0.1500000 -0.1000000 0.1500000
v 0.1500000 -0.1000000 -0.2500000
v 0.1500000 -0.5000000 -0.6500000
v -0.1500000 -0.6000000 -0.6500000
v -0.1500000 -0.5000000 -0.6500000
v -0.1500000 -0.1000000 0.1500000
v -0.1500000 -0.6000000 0.1500000
v -0.1500000 -0.5000000 -0.6500000
v -0.1500000 -0.1000000 -0.2500000
v -0.1500000 -0.1000000 0.1500000
v -0.2500000 -0.6000000 -0.7500000
v -0.2500000 -0.6000000 0.2500000
v -0.2500000 -0.0000000 0.2500000
v -0.2500000 -0.5000000 -0.7500000
v -0.2500000 -0.0000000 0.2500000
v -0.2500000 -0.0000000 -0.2500000
v -0.2500000 -0.5000000 -0.7500000
v -0.1500000 -0.5000000 -0.6500000
v 0.1500000 -0.5000000 -0.6500000
v 0.1500000 -0.1000000 -0.2500000
v -0.1500000 -0.1000000 -0.2500000
v 0.1500000 0.1000000 0.0000000
v 0.1385850 0.1000000 0.0574050
v 0.1385850 -0.0000000 0.0574050
v 0.1500000 -0.0000000 0.0000000
v 0.1385850 0.1000000 0.0574050
v 0.1060650 0.1000000 0.1060650
v 0.1060650 -0.0000000 0.1060650
v 0.1385850 -0.0000000 0.0574050
v 0.1060650 0.1000000 0.1060650
v 0.0574050 0.1000000 0.1385850
v 0.0574050 -0.0000000 0.1385850
v 0.1060650 -0.0000000 0.1060650
v 0.0574050 0.1000000 0.1385850
v 0.0000000 0.1000000 0.1500000
v 0.0000000 -0.0000000 0.1500000
v 0.0574050 -0.0000000 0.1385850
v 0.0000000 0.1000000 0.1500000
v -0.0574050 0.1000000 0.1385850
v -0.0574050 -0.0000000 0.1385850
v 0.0000000 -0.0000000 0.1500000
v -0.0574050 0.1000000 0.1385850
v -0.1060650 0.1000000 0.1060650
v -0.1060650 -0.0000000 0.1060650
v -0.0574050 -0.0000000 0.1385850
v -0.1060650 0.1000000 0.1060650
v -0.1385850 0.1000000 0.0574050
v -0.1385850 -0.0000000 0.0574050
v -0.1060650 -0.0000000 0.1060650
v -0.1385850 0.1000000 0.0574050
v -0.1500000 0.1000000 0.0000000
v -0.1500000 -0.0000000 0.0000000
v -0.1385850 -0.0000000 0.0574050
v -0.1500000 0.1000000 0.0000000
v -0.1385850 0.1000000 -0.0574050
v -0.1385850 -0.0000000 -0.0574050
v -0.1500000 -0.0000000 0.0000000
v -0.1385850 0.1000000 -0.0574050
v -0.1060650 0.1000000 -0.1060650
v -0.1060650 -0.0000000 -0.1060650
v -0.1385850 -0.0000000 -0.0574050
v -0.1060650 0.1000000 -0.1060650
v -0.0574050 0.1000000 -0.1385850
v -0.0574050 -0.0000000 -0.1385850
v -0.1060650 -0.0000000 -0.1060650
v -0.0574050 0.1000000 -0.1385850
v 0.0000000 0.1000000 -0.1500000
v 0.0000000 -0.0000000 -0.1500000
v -0.0574050 -0.0000000 -0.1385850
v 0.0000000 0.1000000 -0.1500000
v 0.0574050 0.1000000 -0.1385850
v 0.0574050 -0.0000000 -0.1385850
v 0.0000000 -0.0000000 -0.1500000
v 0.0574050 0.1000000 -0.1385850
v 0.1060650 0.1000000 -0.1060650
v 0.1060650 -0.0000000 -0.1060650
v 0.0574050 -0.0000000 -0.1385850
v 0.1060650 0.1000000 -0.1060650
v 0.1385850 0.1000000 -0.0574050
v 0.1385850 -0.0000000 -0.0574050
v 0.1060650 -0.0000000 -0.1060650
v 0.1385850 0.1000000 -0.0574050
v 0.1500000 0.1000000 0.0000000
v 0.1500000 -0.0000000 0.0000000
v 0.1385850 -0.0000000 -0.0574050
v 0.1385850 0.1000000 0.0574050
v 0.1500000 0.1000000 0.0000000
v 0.0000000 0.1000000 0.0000000
v 0.1060650 0.1000000 0.1060650
v 0.1385850 0.1000000 0.0574050
v 0.0000000 0.1000000 0.0000000
v 0.0574050 0.1000000 0.1385850
v 0.1060650 0.1000000 0.1060650
v 0.0000000 0.1000000 0.0000000
v 0.0000000 0.1000000 0.1500000
v 0.0574050 0.1000000 0.1385850
v 0.0000000 0.1000000 0.0000000
v -0.0574050 0.1000000 0.1385850
v 0.0000000 0.1000000 0.1500000
v 0.0000000 0.1000000 0.0000000
v -0.1060650 0.1000000 0.1060650
v -0.0574050 0.1000000 0.1385850
v 0.0000000 0.1000000 0.0000000
v -0.1385850 0.1000000 0.0574050
v -0.1060650 0.1000000 0.1060650
v 0.0000000 0.1000000 0.0000000
v -0.1500000 0.1000000 0.0000000
v -0.1385850 0.1000000 0.0574050
v 0.0000000 0.1000000 0.0000000
v -0.1385850 0.1000000 -0.0574050
v -0.1500000 0.1000000 0.0000000
v 0.0000000 0.1000000 0.0000000
v -0.1060650 0.1000000 -0.1060650
v -0.1385850 0.1000000 -0.0574050
v 0.0000000 0.1000000 0.0000000
v -0.0574050 0.1000000 -0.1385850
v -0.1060650 0.1000000 -0.1060650
v 0.0000000 0.1000000 0.0000000
v 0.0000000 0.1000000 -0.1500000
v -0.0574050 0.1000000 -0.1385850
v 0.0000000 0.1000000 0.0000000
v 0.0574050 0.1000000 -0.1385850
v 0.0000000 0.1000000 -0.1500000
v 0.0000000 0.1000000 0.0000000
v 0.1060650 0.1000000 -0.1060650
v 0.0574050 0.1000000 -0.1385850
v 0.0000000 0.1000000 0.0000000
v 0.1385850 0.1000000 -0.0574050
v 0.1060650 0.1000000 -0.1060650
v 0.0000000 0.1000000 0.0000000
v 0.1500000 0.1000000 0.0000000
v 0.1385850 0.1000000 -0.0574050
v 0.0000000 0.1000000 0.0000000
v -0.2500000 -0.5000000 -0.7500000
v -0.2500000 -0.0000000 -0.2500000
v 0.2500000 -0.0000000 -0.2500000
v 0.2500000 -0.5000000 -0.7500000
s off
f 1 2 3
f 4 5 6
f 7 8 9
f 10 11 12
f 13 14 15
f 16 17 18
f 19 20 21
f 22 23 24
f 25 26 27
f 28 29 30
f 31 32 33
f 34 35 36
f 37 38 39
f 40 41 42
f 43 44 45
f 46 47 48
f 49 50 51
f 49 51 52
f 53 54 55
f 53 55 56
f 57 58 59
f 57 59 60
f 61 62 63
f 61 63 64
f 65 66 67
f 65 67 68
f 69 70 71
f 69 71 72
f 73 74 75
f 73 75 76
f 77 78 79
f 77 79 80
f 81 82 83
f 81 83 84
f 85 86 87
f 85 87 88
f 89 90 91
f 89 91 92
f 93 94 95
f 93 95 96
f 97 98 99
f 97 99 100
f 101 102 103
f 101 103 104
f 105 106 107
f 105 107 108
f 109 110 111
f 109 111 112
f 113 114 115
f 116 117 118
f 116 118 119
f 120 121 122
f 120 122 123
f 124 125 126
f 124 126 127
f 128 129 130
f 131 132 133
f 131 133 134
f 135 136 137
f 135 137 138
f 139 140 141
f 139 141 142
f 143 144 145
f 143 145 146
f 147 148 149
f 147 149 150
f 151 152 153
f 151 153 154
f 155 156 157
f 155 157 158
f 159 160 161
f 159 161 162
f 163 164 165
f 163 165 166
f 167 168 169
f 167 169 170
f 171 172 173
f 171 173 174
f 175 176 177
f 175 177 178
f 179 180 181
f 179 181 182
f 183 184 185
f 183 185 186
f 187 188 189
f 187 189 190
f 191 192 193
f 191 193 194
f 195 196 197
f 195 197 198
f 199 200 201
f 199 201 202
f 203 204 205
f 203 205 206
f 207 208 209
f 207 209 210
f 211 212 213
f 211 213 214
f 215 216 217
f 215 217 218
f 219 220 221
f 219 221 222
f 223 224 225
f 223 225 226
f 227 228 229
f 227 229 230
f 231 232 233
f 231 233 234
f 235 236 237
f 235 237 238
f 239 240 241
f 239 241 242
f 243 244 245
f 243 245 246
f 247 248 249
f 247 249 250
f 251 252 253
f 254 255 256
f 254 256 257
f 258 259 260
f 261 262 263
f 261 263 264
f 265 266 267
f 268 269 270
f 268 270 271
f 272 273 274
f 275 276 277
f 275 277 278
f 279 280 281
f 279 281 282
f 283 284 285
f 283 285 286
f 287 288 289
f 287 289 290
f 291 292 293
f 291 293 294
f 295 296 297
f 295 297 298
f 299 300 301
f 299 301 302
f 303 304 305
f 303 305 306
f 307 308 309
f 307 309 310
f 311 312 313
f 311 313 314
f 315 316 317
f 315 317 318
f 319 320 321
f 319 321 322
f 323 324 325
f 323 325 326
f 327 328 329
f 327 329 330
f 331 332 333
f 331 333 334
f 335 336 337
f 335 337 338
f 339 340 341
f 339 341 342
f 343 344 345
f 346 347 348
f 349 350 351
f 352 353 354
f 355 356 357
f 358 359 360
f 361 362 363
f 364 365 366
f 367 368 369
f 370 371 372
f 373 374 375
f 376 377 378
f 379 380 381
f 382 383 384
f 385 386 387
f 388 389 390
f 391 392 393
f 391 393 394
