# Baked from official LDraw part 30414.dat
o ldraw_30414
v -1.0000000 -0.0000000 0.2500000
v -1.0000000 -0.6000000 0.2500000
v 1.0000000 -0.6000000 0.2500000
v 1.0000000 -0.0000000 0.2500000
v 0.9000000 -0.1000000 0.1500000
v 0.9000000 -0.6000000 0.1500000
v -0.9000000 -0.6000000 0.1500000
v -0.9000000 -0.1000000 0.1500000
v -1.0000000 -0.6000000 0.2500000
v -0.9000000 -0.6000000 0.1500000
v 0.9000000 -0.6000000 0.1500000
v 1.0000000 -0.6000000 0.2500000
v -0.9000000 -0.1000000 0.1500000
v -0.9000000 -0.6000000 0.1500000
v -0.9000000 -0.6000000 -0.1500000
v -0.9000000 -0.1000000 -0.1500000
v 0.9000000 -0.1000000 -0.1500000
v 0.9000000 -0.6000000 -0.1500000
v 0.9000000 -0.6000000 0.1500000
v 0.9000000 -0.1000000 0.1500000
v 0.9000000 -0.6000000 -0.1500000
v 0.9000000 -0.3500000 -0.1500000
v -0.9000000 -0.3500000 -0.1500000
v -0.9000000 -0.6000000 -0.1500000
v -1.0000000 -0.0000000 -0.2500000
v -1.0000000 -0.6000000 -0.2500000
v -1.0000000 -0.6000000 0.2500000
v -1.0000000 -0.0000000 0.2500000
v -1.0000000 -0.6000000 -0.2500000
v -0.9000000 -0.6000000 -0.1500000
v -0.9000000 -0.6000000 0.1500000
v -1.0000000 -0.6000000 0.2500000
v 1.0000000 -0.6000000 -0.2500000
v 0.9000000 -0.6000000 -0.1500000
v -0.9000000 -0.6000000 -0.1500000
v -1.0000000 -0.6000000 -0.2500000
v 1.0000000 -0.6000000 0.2500000
v 0.9000000 -0.6000000 0.1500000
v 0.9000000 -0.6000000 -0.1500000
v 1.0000000 -0.6000000 -0.2500000
v 1.0000000 -0.0000000 0.2500000
v 1.0000000 -0.6000000 0.2500000
v 1.0000000 -0.6000000 -0.2500000
v 1.0000000 -0.0000000 -0.2500000
v -1.0000000 -0.6000000 -0.2500000
v -1.0000000 -0.4000000 -0.2500000
v 1.0000000 -0.4000000 -0.2500000
v 1.0000000 -0.6000000 -0.2500000
v -0.9000000 -0.4000000 -0.2500000
v -1.0000000 -0.4000000 -0.2500000
v -1.0000000 -0.1000000 -0.2500000
v -0.9000000 -0.1000000 -0.2500000
v -0.4000000 -0.4000000 -0.2500000
v -0.6000000 -0.4000000 -0.2500000
v -0.6000000 -0.1000000 -0.2500000
v -0.4000000 -0.1000000 -0.2500000
v 0.1000000 -0.4000000 -0.2500000
v -0.1000000 -0.4000000 -0.2500000
v -0.1000000 -0.1000000 -0.2500000
v 0.1000000 -0.1000000 -0.2500000
v 0.6000000 -0.4000000 -0.2500000
v 0.4000000 -0.4000000 -0.2500000
v 0.4000000 -0.1000000 -0.2500000
v 0.6000000 -0.1000000 -0.2500000
v 1.0000000 -0.4000000 -0.2500000
v 0.9000000 -0.4000000 -0.2500000
v 0.9000000 -0.1000000 -0.2500000
v 1.0000000 -0.1000000 -0.2500000
v -0.8500000 -0.3500000 -0.1500000
v -0.8500000 -0.1000000 -0.1500000
v -0.9000000 -0.1000000 -0.1500000
v -0.9000000 -0.3500000 -0.1500000
v -0.3500000 -0.1500000 -0.1500000
v -0.6500000 -0.1500000 -0.1500000
v -0.6500000 -0.3500000 -0.1500000
v -0.3500000 -0.3500000 -0.1500000
v 0.1500000 -0.1500000 -0.1500000
v -0.1500000 -0.1500000 -0.1500000
v -0.1500000 -0.3500000 -0.1500000
v 0.1500000 -0.3500000 -0.1500000
v 0.3500000 -0.3500000 -0.1500000
v 0.6500000 -0.3500000 -0.1500000
v 0.6500000 -0.1500000 -0.1500000
v 0.3500000 -0.1500000 -0.1500000
v 0.9000000 -0.3500000 -0.1500000
v 0.9000000 -0.1000000 -0.1500000
v 0.8500000 -0.1000000 -0.1500000
v 0.8500000 -0.3500000 -0.1500000
v -0.6500000 -0.3500000 -0.1500000
v -0.6500000 -0.2500000 -0.1500000
v -0.6576100 -0.2882700 -0.1500000
v -0.6500000 -0.3500000 -0.1500000
v -0.6576100 -0.2882700 -0.1500000
v -0.6792900 -0.3207100 -0.1500000
v -0.6500000 -0.3500000 -0.1500000
v -0.6792900 -0.3207100 -0.1500000
v -0.7117300 -0.3423900 -0.1500000
v -0.6500000 -0.3500000 -0.1500000
v -0.7117300 -0.3423900 -0.1500000
v -0.7500000 -0.3500000 -0.1500000
v -0.8500000 -0.3500000 -0.1500000
v -0.7500000 -0.3500000 -0.1500000
v -0.7882700 -0.3423900 -0.1500000
v -0.8500000 -0.3500000 -0.1500000
v -0.7882700 -0.3423900 -0.1500000
v -0.8207100 -0.3207100 -0.1500000
v -0.8500000 -0.3500000 -0.1500000
v -0.8207100 -0.3207100 -0.1500000
v -0.8423900 -0.2882700 -0.1500000
v -0.8500000 -0.3500000 -0.1500000
v -0.8423900 -0.2882700 -0.1500000
v -0.8500000 -0.2500000 -0.1500000
v -0.8500000 -0.1500000 -0.1500000
v -0.8500000 -0.2500000 -0.1500000
v -0.8423900 -0.2117300 -0.1500000
v -0.8500000 -0.1500000 -0.1500000
v -0.8423900 -0.2117300 -0.1500000
v -0.8207100 -0.1792900 -0.1500000
v -0.8500000 -0.1500000 -0.1500000
v -0.8207100 -0.1792900 -0.1500000
v -0.7882700 -0.1576100 -0.1500000
v -0.8500000 -0.1500000 -0.1500000
v -0.7882700 -0.1576100 -0.1500000
v -0.7500000 -0.1500000 -0.1500000
v -0.6500000 -0.1500000 -0.1500000
v -0.7500000 -0.1500000 -0.1500000
v -0.7117300 -0.1576100 -0.1500000
v -0.6500000 -0.1500000 -0.1500000
v -0.7117300 -0.1576100 -0.1500000
v -0.6792900 -0.1792900 -0.1500000
v -0.6500000 -0.1500000 -0.1500000
v -0.6792900 -0.1792900 -0.1500000
v -0.6576100 -0.2117300 -0.1500000
v -0.6500000 -0.1500000 -0.1500000
v -0.6576100 -0.2117300 -0.1500000
v -0.6500000 -0.2500000 -0.1500000
v -0.1500000 -0.3500000 -0.1500000
v -0.1500000 -0.2500000 -0.1500000
v -0.1576100 -0.2882700 -0.1500000
v -0.1500000 -0.3500000 -0.1500000
v -0.1576100 -0.2882700 -0.1500000
v -0.1792900 -0.3207100 -0.1500000
v -0.1500000 -0.3500000 -0.1500000
v -0.1792900 -0.3207100 -0.1500000
v -0.2117300 -0.3423900 -0.1500000
v -0.1500000 -0.3500000 -0.1500000
v -0.2117300 -0.3423900 -0.1500000
v -0.2500000 -0.3500000 -0.1500000
v -0.3500000 -0.3500000 -0.1500000
v -0.2500000 -0.3500000 -0.1500000
v -0.2882700 -0.3423900 -0.1500000
v -0.3500000 -0.3500000 -0.1500000
v -0.2882700 -0.3423900 -0.1500000
v -0.3207100 -0.3207100 -0.1500000
v -0.3500000 -0.3500000 -0.1500000
v -0.3207100 -0.3207100 -0.1500000
v -0.3423900 -0.2882700 -0.1500000
v -0.3500000 -0.3500000 -0.1500000
v -0.3423900 -0.2882700 -0.1500000
v -0.3500000 -0.2500000 -0.1500000
v -0.3500000 -0.1500000 -0.1500000
v -0.3500000 -0.2500000 -0.1500000
v -0.3423900 -0.2117300 -0.1500000
v -0.3500000 -0.1500000 -0.1500000
v -0.3423900 -0.2117300 -0.1500000
v -0.3207100 -0.1792900 -0.1500000
v -0.3500000 -0.1500000 -0.1500000
v -0.3207100 -0.1792900 -0.1500000
v -0.2882700 -0.1576100 -0.1500000
v -0.3500000 -0.1500000 -0.1500000
v -0.2882700 -0.1576100 -0.1500000
v -0.2500000 -0.1500000 -0.1500000
v -0.1500000 -0.1500000 -0.1500000
v -0.2500000 -0.1500000 -0.1500000
v -0.2117300 -0.1576100 -0.1500000
v -0.1500000 -0.1500000 -0.1500000
v -0.2117300 -0.1576100 -0.1500000
v -0.1792900 -0.1792900 -0.1500000
v -0.1500000 -0.1500000 -0.1500000
v -0.1792900 -0.1792900 -0.1500000
v -0.1576100 -0.2117300 -0.1500000
v -0.1500000 -0.1500000 -0.1500000
v -0.1576100 -0.2117300 -0.1500000
v -0.1500000 -0.2500000 -0.1500000
v 0.3500000 -0.3500000 -0.1500000
v 0.3500000 -0.2500000 -0.1500000
v 0.3423900 -0.2882700 -0.1500000
v 0.3500000 -0.3500000 -0.1500000
v 0.3423900 -0.2882700 -0.1500000
v 0.3207100 -0.3207100 -0.1500000
v 0.3500000 -0.3500000 -0.1500000
v 0.3207100 -0.3207100 -0.1500000
v 0.2882700 -0.3423900 -0.1500000
v 0.3500000 -0.3500000 -0.1500000
v 0.2882700 -0.3423900 -0.1500000
v 0.2500000 -0.3500000 -0.1500000
v 0.1500000 -0.3500000 -0.1500000
v 0.2500000 -0.3500000 -0.1500000
v 0.2117300 -0.3423900 -0.1500000
v 0.1500000 -0.3500000 -0.1500000
v 0.2117300 -0.3423900 -0.1500000
v 0.1792900 -0.3207100 -0.1500000
v 0.1500000 -0.3500000 -0.1500000
v 0.1792900 -0.3207100 -0.1500000
v 0.1576100 -0.2882700 -0.1500000
v 0.1500000 -0.3500000 -0.1500000
v 0.1576100 -0.2882700 -0.1500000
v 0.1500000 -0.2500000 -0.1500000
v 0.1500000 -0.1500000 -0.1500000
v 0.1500000 -0.2500000 -0.1500000
v 0.1576100 -0.2117300 -0.1500000
v 0.1500000 -0.1500000 -0.1500000
v 0.1576100 -0.2117300 -0.1500000
v 0.1792900 -0.1792900 -0.1500000
v 0.1500000 -0.1500000 -0.1500000
v 0.1792900 -0.1792900 -0.1500000
v 0.2117300 -0.1576100 -0.1500000
v 0.1500000 -0.1500000 -0.1500000
v 0.2117300 -0.1576100 -0.1500000
v 0.2500000 -0.1500000 -0.1500000
v 0.3500000 -0.1500000 -0.1500000
v 0.2500000 -0.1500000 -0.1500000
v 0.2882700 -0.1576100 -0.1500000
v 0.3500000 -0.1500000 -0.1500000
v 0.2882700 -0.1576100 -0.1500000
v 0.3207100 -0.1792900 -0.1500000
v 0.3500000 -0.1500000 -0.1500000
v 0.3207100 -0.1792900 -0.1500000
v 0.3423900 -0.2117300 -0.1500000
v 0.3500000 -0.1500000 -0.1500000
v 0.3423900 -0.2117300 -0.1500000
v 0.3500000 -0.2500000 -0.1500000
v 0.8500000 -0.3500000 -0.1500000
v 0.8500000 -0.2500000 -0.1500000
v 0.8423900 -0.2882700 -0.1500000
v 0.8500000 -0.3500000 -0.1500000
v 0.8423900 -0.2882700 -0.1500000
v 0.8207100 -0.3207100 -0.1500000
v 0.8500000 -0.3500000 -0.1500000
v 0.8207100 -0.3207100 -0.1500000
v 0.7882700 -0.3423900 -0.1500000
v 0.8500000 -0.3500000 -0.1500000
v 0.7882700 -0.3423900 -0.1500000
v 0.7500000 -0.3500000 -0.1500000
v 0.6500000 -0.3500000 -0.1500000
v 0.7500000 -0.3500000 -0.1500000
v 0.7117300 -0.3423900 -0.1500000
v 0.6500000 -0.3500000 -0.1500000
v 0.7117300 -0.3423900 -0.1500000
v 0.6792900 -0.3207100 -0.1500000
v 0.6500000 -0.3500000 -0.1500000
v 0.6792900 -0.3207100 -0.1500000
v 0.6576100 -0.2882700 -0.1500000
v 0.6500000 -0.3500000 -0.1500000
v 0.6576100 -0.2882700 -0.1500000
v 0.6500000 -0.2500000 -0.1500000
v 0.6500000 -0.1500000 -0.1500000
v 0.6500000 -0.2500000 -0.1500000
v 0.6576100 -0.2117300 -0.1500000
v 0.6500000 -0.1500000 -0.1500000
v 0.6576100 -0.2117300 -0.1500000
v 0.6792900 -0.1792900 -0.1500000
v 0.6500000 -0.1500000 -0.1500000
v 0.6792900 -0.1792900 -0.1500000
v 0.7117300 -0.1576100 -0.1500000
v 0.6500000 -0.1500000 -0.1500000
v 0.7117300 -0.1576100 -0.1500000
v 0.7500000 -0.1500000 -0.1500000
v 0.8500000 -0.1500000 -0.1500000
v 0.7500000 -0.1500000 -0.1500000
v 0.7882700 -0.1576100 -0.1500000
v 0.8500000 -0.1500000 -0.1500000
v 0.7882700 -0.1576100 -0.1500000
v 0.8207100 -0.1792900 -0.1500000
v 0.8500000 -0.1500000 -0.1500000
v 0.8207100 -0.1792900 -0.1500000
v 0.8423900 -0.2117300 -0.1500000
v 0.8500000 -0.1500000 -0.1500000
v 0.8423900 -0.2117300 -0.1500000
v 0.8500000 -0.2500000 -0.1500000
v -0.6114150 -0.3074050 -0.2500000
v -0.6000000 -0.2500000 -0.2500000
v -0.6000000 -0.4000000 -0.2500000
v -0.6439350 -0.3560650 -0.2500000
v -0.6114150 -0.3074050 -0.2500000
v -0.6000000 -0.4000000 -0.2500000
v -0.6925950 -0.3885850 -0.2500000
v -0.6439350 -0.3560650 -0.2500000
v -0.6000000 -0.4000000 -0.2500000
v -0.7500000 -0.4000000 -0.2500000
v -0.6925950 -0.3885850 -0.2500000
v -0.6000000 -0.4000000 -0.2500000
v -0.8074050 -0.3885850 -0.2500000
v -0.7500000 -0.4000000 -0.2500000
v -0.9000000 -0.4000000 -0.2500000
v -0.8560650 -0.3560650 -0.2500000
v -0.8074050 -0.3885850 -0.2500000
v -0.9000000 -0.4000000 -0.2500000
v -0.8885850 -0.3074050 -0.2500000
v -0.8560650 -0.3560650 -0.2500000
v -0.9000000 -0.4000000 -0.2500000
v -0.9000000 -0.2500000 -0.2500000
v -0.8885850 -0.3074050 -0.2500000
v -0.9000000 -0.4000000 -0.2500000
v -0.8885850 -0.1925950 -0.2500000
v -0.9000000 -0.2500000 -0.2500000
v -0.9000000 -0.1000000 -0.2500000
v -0.8560650 -0.1439350 -0.2500000
v -0.8885850 -0.1925950 -0.2500000
v -0.9000000 -0.1000000 -0.2500000
v -0.8074050 -0.1114150 -0.2500000
v -0.8560650 -0.1439350 -0.2500000
v -0.9000000 -0.1000000 -0.2500000
v -0.7500000 -0.1000000 -0.2500000
v -0.8074050 -0.1114150 -0.2500000
v -0.9000000 -0.1000000 -0.2500000
v -0.6925950 -0.1114150 -0.2500000
v -0.7500000 -0.1000000 -0.2500000
v -0.6000000 -0.1000000 -0.2500000
v -0.6439350 -0.1439350 -0.2500000
v -0.6925950 -0.1114150 -0.2500000
v -0.6000000 -0.1000000 -0.2500000
v -0.6114150 -0.1925950 -0.2500000
v -0.6439350 -0.1439350 -0.2500000
v -0.6000000 -0.1000000 -0.2500000
v -0.6000000 -0.2500000 -0.2500000
v -0.6114150 -0.1925950 -0.2500000
v -0.6000000 -0.1000000 -0.2500000
v -0.6500000 -0.2500000 -0.2500000
v -0.6576100 -0.2882700 -0.2500000
v -0.6576100 -0.2882700 -0.1500000
v -0.6500000 -0.2500000 -0.1500000
v -0.6576100 -0.2882700 -0.2500000
v -0.6792900 -0.3207100 -0.2500000
v -0.6792900 -0.3207100 -0.1500000
v -0.6576100 -0.2882700 -0.1500000
v -0.6792900 -0.3207100 -0.2500000
v -0.7117300 -0.3423900 -0.2500000
v -0.7117300 -0.3423900 -0.1500000
v -0.6792900 -0.3207100 -0.1500000
v -0.7117300 -0.3423900 -0.2500000
v -0.7500000 -0.3500000 -0.2500000
v -0.7500000 -0.3500000 -0.1500000
v -0.7117300 -0.3423900 -0.1500000
v -0.7500000 -0.3500000 -0.2500000
v -0.7882700 -0.3423900 -0.2500000
v -0.7882700 -0.3423900 -0.1500000
v -0.7500000 -0.3500000 -0.1500000
v -0.7882700 -0.3423900 -0.2500000
v -0.8207100 -0.3207100 -0.2500000
v -0.8207100 -0.3207100 -0.1500000
v -0.7882700 -0.3423900 -0.1500000
v -0.8207100 -0.3207100 -0.2500000
v -0.8423900 -0.2882700 -0.2500000
v -0.8423900 -0.2882700 -0.1500000
v -0.8207100 -0.3207100 -0.1500000
v -0.8423900 -0.2882700 -0.2500000
v -0.8500000 -0.2500000 -0.2500000
v -0.8500000 -0.2500000 -0.1500000
v -0.8423900 -0.2882700 -0.1500000
v -0.8500000 -0.2500000 -0.2500000
v -0.8423900 -0.2117300 -0.2500000
v -0.8423900 -0.2117300 -0.1500000
v -0.8500000 -0.2500000 -0.1500000
v -0.8423900 -0.2117300 -0.2500000
v -0.8207100 -0.1792900 -0.2500000
v -0.8207100 -0.1792900 -0.1500000
v -0.8423900 -0.2117300 -0.1500000
v -0.8207100 -0.1792900 -0.2500000
v -0.7882700 -0.1576100 -0.2500000
v -0.7882700 -0.1576100 -0.1500000
v -0.8207100 -0.1792900 -0.1500000
v -0.7882700 -0.1576100 -0.2500000
v -0.7500000 -0.1500000 -0.2500000
v -0.7500000 -0.1500000 -0.1500000
v -0.7882700 -0.1576100 -0.1500000
v -0.7500000 -0.1500000 -0.2500000
v -0.7117300 -0.1576100 -0.2500000
v -0.7117300 -0.1576100 -0.1500000
v -0.7500000 -0.1500000 -0.1500000
v -0.7117300 -0.1576100 -0.2500000
v -0.6792900 -0.1792900 -0.2500000
v -0.6792900 -0.1792900 -0.1500000
v -0.7117300 -0.1576100 -0.1500000
v -0.6792900 -0.1792900 -0.2500000
v -0.6576100 -0.2117300 -0.2500000
v -0.6576100 -0.2117300 -0.1500000
v -0.6792900 -0.1792900 -0.1500000
v -0.6576100 -0.2117300 -0.2500000
v -0.6500000 -0.2500000 -0.2500000
v -0.6500000 -0.2500000 -0.1500000
v -0.6576100 -0.2117300 -0.1500000
v -0.6500000 -0.2500000 -0.3500000
v -0.6576100 -0.2882700 -0.3500000
v -0.6576100 -0.2882700 -0.2500000
v -0.6500000 -0.2500000 -0.2500000
v -0.6576100 -0.2882700 -0.3500000
v -0.6792900 -0.3207100 -0.3500000
v -0.6792900 -0.3207100 -0.2500000
v -0.6576100 -0.2882700 -0.2500000
v -0.6792900 -0.3207100 -0.3500000
v -0.7117300 -0.3423900 -0.3500000
v -0.7117300 -0.3423900 -0.2500000
v -0.6792900 -0.3207100 -0.2500000
v -0.7117300 -0.3423900 -0.3500000
v -0.7500000 -0.3500000 -0.3500000
v -0.7500000 -0.3500000 -0.2500000
v -0.7117300 -0.3423900 -0.2500000
v -0.7500000 -0.3500000 -0.3500000
v -0.7882700 -0.3423900 -0.3500000
v -0.7882700 -0.3423900 -0.2500000
v -0.7500000 -0.3500000 -0.2500000
v -0.7882700 -0.3423900 -0.3500000
v -0.8207100 -0.3207100 -0.3500000
v -0.8207100 -0.3207100 -0.2500000
v -0.7882700 -0.3423900 -0.2500000
v -0.8207100 -0.3207100 -0.3500000
v -0.8423900 -0.2882700 -0.3500000
v -0.8423900 -0.2882700 -0.2500000
v -0.8207100 -0.3207100 -0.2500000
v -0.8423900 -0.2882700 -0.3500000
v -0.8500000 -0.2500000 -0.3500000
v -0.8500000 -0.2500000 -0.2500000
v -0.8423900 -0.2882700 -0.2500000
v -0.8500000 -0.2500000 -0.3500000
v -0.8423900 -0.2117300 -0.3500000
v -0.8423900 -0.2117300 -0.2500000
v -0.8500000 -0.2500000 -0.2500000
v -0.8423900 -0.2117300 -0.3500000
v -0.8207100 -0.1792900 -0.3500000
v -0.8207100 -0.1792900 -0.2500000
v -0.8423900 -0.2117300 -0.2500000
v -0.8207100 -0.1792900 -0.3500000
v -0.7882700 -0.1576100 -0.3500000
v -0.7882700 -0.1576100 -0.2500000
v -0.8207100 -0.1792900 -0.2500000
v -0.7882700 -0.1576100 -0.3500000
v -0.7500000 -0.1500000 -0.3500000
v -0.7500000 -0.1500000 -0.2500000
v -0.7882700 -0.1576100 -0.2500000
v -0.7500000 -0.1500000 -0.3500000
v -0.7117300 -0.1576100 -0.3500000
v -0.7117300 -0.1576100 -0.2500000
v -0.7500000 -0.1500000 -0.2500000
v -0.7117300 -0.1576100 -0.3500000
v -0.6792900 -0.1792900 -0.3500000
v -0.6792900 -0.1792900 -0.2500000
v -0.7117300 -0.1576100 -0.2500000
v -0.6792900 -0.1792900 -0.3500000
v -0.6576100 -0.2117300 -0.3500000
v -0.6576100 -0.2117300 -0.2500000
v -0.6792900 -0.1792900 -0.2500000
v -0.6576100 -0.2117300 -0.3500000
v -0.6500000 -0.2500000 -0.3500000
v -0.6500000 -0.2500000 -0.2500000
v -0.6576100 -0.2117300 -0.2500000
v -0.6000000 -0.2500000 -0.2500000
v -0.6114150 -0.3074050 -0.2500000
v -0.6114150 -0.3074050 -0.3500000
v -0.6000000 -0.2500000 -0.3500000
v -0.6114150 -0.3074050 -0.2500000
v -0.6439350 -0.3560650 -0.2500000
v -0.6439350 -0.3560650 -0.3500000
v -0.6114150 -0.3074050 -0.3500000
v -0.6439350 -0.3560650 -0.2500000
v -0.6925950 -0.3885850 -0.2500000
v -0.6925950 -0.3885850 -0.3500000
v -0.6439350 -0.3560650 -0.3500000
v -0.6925950 -0.3885850 -0.2500000
v -0.7500000 -0.4000000 -0.2500000
v -0.7500000 -0.4000000 -0.3500000
v -0.6925950 -0.3885850 -0.3500000
v -0.7500000 -0.4000000 -0.2500000
v -0.8074050 -0.3885850 -0.2500000
v -0.8074050 -0.3885850 -0.3500000
v -0.7500000 -0.4000000 -0.3500000
v -0.8074050 -0.3885850 -0.2500000
v -0.8560650 -0.3560650 -0.2500000
v -0.8560650 -0.3560650 -0.3500000
v -0.8074050 -0.3885850 -0.3500000
v -0.8560650 -0.3560650 -0.2500000
v -0.8885850 -0.3074050 -0.2500000
v -0.8885850 -0.3074050 -0.3500000
v -0.8560650 -0.3560650 -0.3500000
v -0.8885850 -0.3074050 -0.2500000
v -0.9000000 -0.2500000 -0.2500000
v -0.9000000 -0.2500000 -0.3500000
v -0.8885850 -0.3074050 -0.3500000
v -0.9000000 -0.2500000 -0.2500000
v -0.8885850 -0.1925950 -0.2500000
v -0.8885850 -0.1925950 -0.3500000
v -0.9000000 -0.2500000 -0.3500000
v -0.8885850 -0.1925950 -0.2500000
v -0.8560650 -0.1439350 -0.2500000
v -0.8560650 -0.1439350 -0.3500000
v -0.8885850 -0.1925950 -0.3500000
v -0.8560650 -0.1439350 -0.2500000
v -0.8074050 -0.1114150 -0.2500000
v -0.8074050 -0.1114150 -0.3500000
v -0.8560650 -0.1439350 -0.3500000
v -0.8074050 -0.1114150 -0.2500000
v -0.7500000 -0.1000000 -0.2500000
v -0.7500000 -0.1000000 -0.3500000
v -0.8074050 -0.1114150 -0.3500000
v -0.7500000 -0.1000000 -0.2500000
v -0.6925950 -0.1114150 -0.2500000
v -0.6925950 -0.1114150 -0.3500000
v -0.7500000 -0.1000000 -0.3500000
v -0.6925950 -0.1114150 -0.2500000
v -0.6439350 -0.1439350 -0.2500000
v -0.6439350 -0.1439350 -0.3500000
v -0.6925950 -0.1114150 -0.3500000
v -0.6439350 -0.1439350 -0.2500000
v -0.6114150 -0.1925950 -0.2500000
v -0.6114150 -0.1925950 -0.3500000
v -0.6439350 -0.1439350 -0.3500000
v -0.6114150 -0.1925950 -0.2500000
v -0.6000000 -0.2500000 -0.2500000
v -0.6000000 -0.2500000 -0.3500000
v -0.6114150 -0.1925950 -0.3500000
v -0.8074050 -0.3885850 -0.3500000
v -0.7882700 -0.3423900 -0.3500000
v -0.7500000 -0.3500000 -0.3500000
v -0.7500000 -0.4000000 -0.3500000
v -0.8560650 -0.3560650 -0.3500000
v -0.8207100 -0.3207100 -0.3500000
v -0.7882700 -0.3423900 -0.3500000
v -0.8074050 -0.3885850 -0.3500000
v -0.8885850 -0.3074050 -0.3500000
v -0.8423900 -0.2882700 -0.3500000
v -0.8207100 -0.3207100 -0.3500000
v -0.8560650 -0.3560650 -0.3500000
v -0.9000000 -0.2500000 -0.3500000
v -0.8500000 -0.2500000 -0.3500000
v -0.8423900 -0.2882700 -0.3500000
v -0.8885850 -0.3074050 -0.3500000
v -0.8885850 -0.1925950 -0.3500000
v -0.8423900 -0.2117300 -0.3500000
v -0.8500000 -0.2500000 -0.3500000
v -0.9000000 -0.2500000 -0.3500000
v -0.8560650 -0.1439350 -0.3500000
v -0.8207100 -0.1792900 -0.3500000
v -0.8423900 -0.2117300 -0.3500000
v -0.8885850 -0.1925950 -0.3500000
v -0.8074050 -0.1114150 -0.3500000
v -0.7882700 -0.1576100 -0.3500000
v -0.8207100 -0.1792900 -0.3500000
v -0.8560650 -0.1439350 -0.3500000
v -0.7500000 -0.1000000 -0.3500000
v -0.7500000 -0.1500000 -0.3500000
v -0.7882700 -0.1576100 -0.3500000
v -0.8074050 -0.1114150 -0.3500000
v -0.6925950 -0.1114150 -0.3500000
v -0.7117300 -0.1576100 -0.3500000
v -0.7500000 -0.1500000 -0.3500000
v -0.7500000 -0.1000000 -0.3500000
v -0.6439350 -0.1439350 -0.3500000
v -0.6792900 -0.1792900 -0.3500000
v -0.7117300 -0.1576100 -0.3500000
v -0.6925950 -0.1114150 -0.3500000
v -0.6114150 -0.1925950 -0.3500000
v -0.6576100 -0.2117300 -0.3500000
v -0.6792900 -0.1792900 -0.3500000
v -0.6439350 -0.1439350 -0.3500000
v -0.6000000 -0.2500000 -0.3500000
v -0.6500000 -0.2500000 -0.3500000
v -0.6576100 -0.2117300 -0.3500000
v -0.6114150 -0.1925950 -0.3500000
v -0.6114150 -0.3074050 -0.3500000
v -0.6576100 -0.2882700 -0.3500000
v -0.6500000 -0.2500000 -0.3500000
v -0.6000000 -0.2500000 -0.3500000
v -0.6439350 -0.3560650 -0.3500000
v -0.6792900 -0.3207100 -0.3500000
v -0.6576100 -0.2882700 -0.3500000
v -0.6114150 -0.3074050 -0.3500000
v -0.6925950 -0.3885850 -0.3500000
v -0.7117300 -0.3423900 -0.3500000
v -0.6792900 -0.3207100 -0.3500000
v -0.6439350 -0.3560650 -0.3500000
v -0.7500000 -0.4000000 -0.3500000
v -0.7500000 -0.3500000 -0.3500000
v -0.7117300 -0.3423900 -0.3500000
v -0.6925950 -0.3885850 -0.3500000
v -0.1114150 -0.3074050 -0.2500000
v -0.1000000 -0.2500000 -0.2500000
v -0.1000000 -0.4000000 -0.2500000
v -0.1439350 -0.3560650 -0.2500000
v -0.1114150 -0.3074050 -0.2500000
v -0.1000000 -0.4000000 -0.2500000
v -0.1925950 -0.3885850 -0.2500000
v -0.1439350 -0.3560650 -0.2500000
v -0.1000000 -0.4000000 -0.2500000
v -0.2500000 -0.4000000 -0.2500000
v -0.1925950 -0.3885850 -0.2500000
v -0.1000000 -0.4000000 -0.2500000
v -0.3074050 -0.3885850 -0.2500000
v -0.2500000 -0.4000000 -0.2500000
v -0.4000000 -0.4000000 -0.2500000
v -0.3560650 -0.3560650 -0.2500000
v -0.3074050 -0.3885850 -0.2500000
v -0.4000000 -0.4000000 -0.2500000
v -0.3885850 -0.3074050 -0.2500000
v -0.3560650 -0.3560650 -0.2500000
v -0.4000000 -0.4000000 -0.2500000
v -0.4000000 -0.2500000 -0.2500000
v -0.3885850 -0.3074050 -0.2500000
v -0.4000000 -0.4000000 -0.2500000
v -0.3885850 -0.1925950 -0.2500000
v -0.4000000 -0.2500000 -0.2500000
v -0.4000000 -0.1000000 -0.2500000
v -0.3560650 -0.1439350 -0.2500000
v -0.3885850 -0.1925950 -0.2500000
v -0.4000000 -0.1000000 -0.2500000
v -0.3074050 -0.1114150 -0.2500000
v -0.3560650 -0.1439350 -0.2500000
v -0.4000000 -0.1000000 -0.2500000
v -0.2500000 -0.1000000 -0.2500000
v -0.3074050 -0.1114150 -0.2500000
v -0.4000000 -0.1000000 -0.2500000
v -0.1925950 -0.1114150 -0.2500000
v -0.2500000 -0.1000000 -0.2500000
v -0.1000000 -0.1000000 -0.2500000
v -0.1439350 -0.1439350 -0.2500000
v -0.1925950 -0.1114150 -0.2500000
v -0.1000000 -0.1000000 -0.2500000
v -0.1114150 -0.1925950 -0.2500000
v -0.1439350 -0.1439350 -0.2500000
v -0.1000000 -0.1000000 -0.2500000
v -0.1000000 -0.2500000 -0.2500000
v -0.1114150 -0.1925950 -0.2500000
v -0.1000000 -0.1000000 -0.2500000
v -0.1500000 -0.2500000 -0.2500000
v -0.1576100 -0.2882700 -0.2500000
v -0.1576100 -0.2882700 -0.1500000
v -0.1500000 -0.2500000 -0.1500000
v -0.1576100 -0.2882700 -0.2500000
v -0.1792900 -0.3207100 -0.2500000
v -0.1792900 -0.3207100 -0.1500000
v -0.1576100 -0.2882700 -0.1500000
v -0.1792900 -0.3207100 -0.2500000
v -0.2117300 -0.3423900 -0.2500000
v -0.2117300 -0.3423900 -0.1500000
v -0.1792900 -0.3207100 -0.1500000
v -0.2117300 -0.3423900 -0.2500000
v -0.2500000 -0.3500000 -0.2500000
v -0.2500000 -0.3500000 -0.1500000
v -0.2117300 -0.3423900 -0.1500000
v -0.2500000 -0.3500000 -0.2500000
v -0.2882700 -0.3423900 -0.2500000
v -0.2882700 -0.3423900 -0.1500000
v -0.2500000 -0.3500000 -0.1500000
v -0.2882700 -0.3423900 -0.2500000
v -0.3207100 -0.3207100 -0.2500000
v -0.3207100 -0.3207100 -0.1500000
v -0.2882700 -0.3423900 -0.1500000
v -0.3207100 -0.3207100 -0.2500000
v -0.3423900 -0.2882700 -0.2500000
v -0.3423900 -0.2882700 -0.1500000
v -0.3207100 -0.3207100 -0.1500000
v -0.3423900 -0.2882700 -0.2500000
v -0.3500000 -0.2500000 -0.2500000
v -0.3500000 -0.2500000 -0.1500000
v -0.3423900 -0.2882700 -0.1500000
v -0.3500000 -0.2500000 -0.2500000
v -0.3423900 -0.2117300 -0.2500000
v -0.3423900 -0.2117300 -0.1500000
v -0.3500000 -0.2500000 -0.1500000
v -0.3423900 -0.2117300 -0.2500000
v -0.3207100 -0.1792900 -0.2500000
v -0.3207100 -0.1792900 -0.1500000
v -0.3423900 -0.2117300 -0.1500000
v -0.3207100 -0.1792900 -0.2500000
v -0.2882700 -0.1576100 -0.2500000
v -0.2882700 -0.1576100 -0.1500000
v -0.3207100 -0.1792900 -0.1500000
v -0.2882700 -0.1576100 -0.2500000
v -0.2500000 -0.1500000 -0.2500000
v -0.2500000 -0.1500000 -0.1500000
v -0.2882700 -0.1576100 -0.1500000
v -0.2500000 -0.1500000 -0.2500000
v -0.2117300 -0.1576100 -0.2500000
v -0.2117300 -0.1576100 -0.1500000
v -0.2500000 -0.1500000 -0.1500000
v -0.2117300 -0.1576100 -0.2500000
v -0.1792900 -0.1792900 -0.2500000
v -0.1792900 -0.1792900 -0.1500000
v -0.2117300 -0.1576100 -0.1500000
v -0.1792900 -0.1792900 -0.2500000
v -0.1576100 -0.2117300 -0.2500000
v -0.1576100 -0.2117300 -0.1500000
v -0.1792900 -0.1792900 -0.1500000
v -0.1576100 -0.2117300 -0.2500000
v -0.1500000 -0.2500000 -0.2500000
v -0.1500000 -0.2500000 -0.1500000
v -0.1576100 -0.2117300 -0.1500000
v -0.1500000 -0.2500000 -0.3500000
v -0.1576100 -0.2882700 -0.3500000
v -0.1576100 -0.2882700 -0.2500000
v -0.1500000 -0.2500000 -0.2500000
v -0.1576100 -0.2882700 -0.3500000
v -0.1792900 -0.3207100 -0.3500000
v -0.1792900 -0.3207100 -0.2500000
v -0.1576100 -0.2882700 -0.2500000
v -0.1792900 -0.3207100 -0.3500000
v -0.2117300 -0.3423900 -0.3500000
v -0.2117300 -0.3423900 -0.2500000
v -0.1792900 -0.3207100 -0.2500000
v -0.2117300 -0.3423900 -0.3500000
v -0.2500000 -0.3500000 -0.3500000
v -0.2500000 -0.3500000 -0.2500000
v -0.2117300 -0.3423900 -0.2500000
v -0.2500000 -0.3500000 -0.3500000
v -0.2882700 -0.3423900 -0.3500000
v -0.2882700 -0.3423900 -0.2500000
v -0.2500000 -0.3500000 -0.2500000
v -0.2882700 -0.3423900 -0.3500000
v -0.3207100 -0.3207100 -0.3500000
v -0.3207100 -0.3207100 -0.2500000
v -0.2882700 -0.3423900 -0.2500000
v -0.3207100 -0.3207100 -0.3500000
v -0.3423900 -0.2882700 -0.3500000
v -0.3423900 -0.2882700 -0.2500000
v -0.3207100 -0.3207100 -0.2500000
v -0.3423900 -0.2882700 -0.3500000
v -0.3500000 -0.2500000 -0.3500000
v -0.3500000 -0.2500000 -0.2500000
v -0.3423900 -0.2882700 -0.2500000
v -0.3500000 -0.2500000 -0.3500000
v -0.3423900 -0.2117300 -0.3500000
v -0.3423900 -0.2117300 -0.2500000
v -0.3500000 -0.2500000 -0.2500000
v -0.3423900 -0.2117300 -0.3500000
v -0.3207100 -0.1792900 -0.3500000
v -0.3207100 -0.1792900 -0.2500000
v -0.3423900 -0.2117300 -0.2500000
v -0.3207100 -0.1792900 -0.3500000
v -0.2882700 -0.1576100 -0.3500000
v -0.2882700 -0.1576100 -0.2500000
v -0.3207100 -0.1792900 -0.2500000
v -0.2882700 -0.1576100 -0.3500000
v -0.2500000 -0.1500000 -0.3500000
v -0.2500000 -0.1500000 -0.2500000
v -0.2882700 -0.1576100 -0.2500000
v -0.2500000 -0.1500000 -0.3500000
v -0.2117300 -0.1576100 -0.3500000
v -0.2117300 -0.1576100 -0.2500000
v -0.2500000 -0.1500000 -0.2500000
v -0.2117300 -0.1576100 -0.3500000
v -0.1792900 -0.1792900 -0.3500000
v -0.1792900 -0.1792900 -0.2500000
v -0.2117300 -0.1576100 -0.2500000
v -0.1792900 -0.1792900 -0.3500000
v -0.1576100 -0.2117300 -0.3500000
v -0.1576100 -0.2117300 -0.2500000
v -0.1792900 -0.1792900 -0.2500000
v -0.1576100 -0.2117300 -0.3500000
v -0.1500000 -0.2500000 -0.3500000
v -0.1500000 -0.2500000 -0.2500000
v -0.1576100 -0.2117300 -0.2500000
v -0.1000000 -0.2500000 -0.2500000
v -0.1114150 -0.3074050 -0.2500000
v -0.1114150 -0.3074050 -0.3500000
v -0.1000000 -0.2500000 -0.3500000
v -0.1114150 -0.3074050 -0.2500000
v -0.1439350 -0.3560650 -0.2500000
v -0.1439350 -0.3560650 -0.3500000
v -0.1114150 -0.3074050 -0.3500000
v -0.1439350 -0.3560650 -0.2500000
v -0.1925950 -0.3885850 -0.2500000
v -0.1925950 -0.3885850 -0.3500000
v -0.1439350 -0.3560650 -0.3500000
v -0.1925950 -0.3885850 -0.2500000
v -0.2500000 -0.4000000 -0.2500000
v -0.2500000 -0.4000000 -0.3500000
v -0.1925950 -0.3885850 -0.3500000
v -0.2500000 -0.4000000 -0.2500000
v -0.3074050 -0.3885850 -0.2500000
v -0.3074050 -0.3885850 -0.3500000
v -0.2500000 -0.4000000 -0.3500000
v -0.3074050 -0.3885850 -0.2500000
v -0.3560650 -0.3560650 -0.2500000
v -0.3560650 -0.3560650 -0.3500000
v -0.3074050 -0.3885850 -0.3500000
v -0.3560650 -0.3560650 -0.2500000
v -0.3885850 -0.3074050 -0.2500000
v -0.3885850 -0.3074050 -0.3500000
v -0.3560650 -0.3560650 -0.3500000
v -0.3885850 -0.3074050 -0.2500000
v -0.4000000 -0.2500000 -0.2500000
v -0.4000000 -0.2500000 -0.3500000
v -0.3885850 -0.3074050 -0.3500000
v -0.4000000 -0.2500000 -0.2500000
v -0.3885850 -0.1925950 -0.2500000
v -0.3885850 -0.1925950 -0.3500000
v -0.4000000 -0.2500000 -0.3500000
v -0.3885850 -0.1925950 -0.2500000
v -0.3560650 -0.1439350 -0.2500000
v -0.3560650 -0.1439350 -0.3500000
v -0.3885850 -0.1925950 -0.3500000
v -0.3560650 -0.1439350 -0.2500000
v -0.3074050 -0.1114150 -0.2500000
v -0.3074050 -0.1114150 -0.3500000
v -0.3560650 -0.1439350 -0.3500000
v -0.3074050 -0.1114150 -0.2500000
v -0.2500000 -0.1000000 -0.2500000
v -0.2500000 -0.1000000 -0.3500000
v -0.3074050 -0.1114150 -0.3500000
v -0.2500000 -0.1000000 -0.2500000
v -0.1925950 -0.1114150 -0.2500000
v -0.1925950 -0.1114150 -0.3500000
v -0.2500000 -0.1000000 -0.3500000
v -0.1925950 -0.1114150 -0.2500000
v -0.1439350 -0.1439350 -0.2500000
v -0.1439350 -0.1439350 -0.3500000
v -0.1925950 -0.1114150 -0.3500000
v -0.1439350 -0.1439350 -0.2500000
v -0.1114150 -0.1925950 -0.2500000
v -0.1114150 -0.1925950 -0.3500000
v -0.1439350 -0.1439350 -0.3500000
v -0.1114150 -0.1925950 -0.2500000
v -0.1000000 -0.2500000 -0.2500000
v -0.1000000 -0.2500000 -0.3500000
v -0.1114150 -0.1925950 -0.3500000
v -0.3074050 -0.3885850 -0.3500000
v -0.2882700 -0.3423900 -0.3500000
v -0.2500000 -0.3500000 -0.3500000
v -0.2500000 -0.4000000 -0.3500000
v -0.3560650 -0.3560650 -0.3500000
v -0.3207100 -0.3207100 -0.3500000
v -0.2882700 -0.3423900 -0.3500000
v -0.3074050 -0.3885850 -0.3500000
v -0.3885850 -0.3074050 -0.3500000
v -0.3423900 -0.2882700 -0.3500000
v -0.3207100 -0.3207100 -0.3500000
v -0.3560650 -0.3560650 -0.3500000
v -0.4000000 -0.2500000 -0.3500000
v -0.3500000 -0.2500000 -0.3500000
v -0.3423900 -0.2882700 -0.3500000
v -0.3885850 -0.3074050 -0.3500000
v -0.3885850 -0.1925950 -0.3500000
v -0.3423900 -0.2117300 -0.3500000
v -0.3500000 -0.2500000 -0.3500000
v -0.4000000 -0.2500000 -0.3500000
v -0.3560650 -0.1439350 -0.3500000
v -0.3207100 -0.1792900 -0.3500000
v -0.3423900 -0.2117300 -0.3500000
v -0.3885850 -0.1925950 -0.3500000
v -0.3074050 -0.1114150 -0.3500000
v -0.2882700 -0.1576100 -0.3500000
v -0.3207100 -0.1792900 -0.3500000
v -0.3560650 -0.1439350 -0.3500000
v -0.2500000 -0.1000000 -0.3500000
v -0.2500000 -0.1500000 -0.3500000
v -0.2882700 -0.1576100 -0.3500000
v -0.3074050 -0.1114150 -0.3500000
v -0.1925950 -0.1114150 -0.3500000
v -0.2117300 -0.1576100 -0.3500000
v -0.2500000 -0.1500000 -0.3500000
v -0.2500000 -0.1000000 -0.3500000
v -0.1439350 -0.1439350 -0.3500000
v -0.1792900 -0.1792900 -0.3500000
v -0.2117300 -0.1576100 -0.3500000
v -0.1925950 -0.1114150 -0.3500000
v -0.1114150 -0.1925950 -0.3500000
v -0.1576100 -0.2117300 -0.3500000
v -0.1792900 -0.1792900 -0.3500000
v -0.1439350 -0.1439350 -0.3500000
v -0.1000000 -0.2500000 -0.3500000
v -0.1500000 -0.2500000 -0.3500000
v -0.1576100 -0.2117300 -0.3500000
v -0.1114150 -0.1925950 -0.3500000
v -0.1114150 -0.3074050 -0.3500000
v -0.1576100 -0.2882700 -0.3500000
v -0.1500000 -0.2500000 -0.3500000
v -0.1000000 -0.2500000 -0.3500000
v -0.1439350 -0.3560650 -0.3500000
v -0.1792900 -0.3207100 -0.3500000
v -0.1576100 -0.2882700 -0.3500000
v -0.1114150 -0.3074050 -0.3500000
v -0.1925950 -0.3885850 -0.3500000
v -0.2117300 -0.3423900 -0.3500000
v -0.1792900 -0.3207100 -0.3500000
v -0.1439350 -0.3560650 -0.3500000
v -0.2500000 -0.4000000 -0.3500000
v -0.2500000 -0.3500000 -0.3500000
v -0.2117300 -0.3423900 -0.3500000
v -0.1925950 -0.3885850 -0.3500000
v 0.3885850 -0.3074050 -0.2500000
v 0.4000000 -0.2500000 -0.2500000
v 0.4000000 -0.4000000 -0.2500000
v 0.3560650 -0.3560650 -0.2500000
v 0.3885850 -0.3074050 -0.2500000
v 0.4000000 -0.4000000 -0.2500000
v 0.3074050 -0.3885850 -0.2500000
v 0.3560650 -0.3560650 -0.2500000
v 0.4000000 -0.4000000 -0.2500000
v 0.2500000 -0.4000000 -0.2500000
v 0.3074050 -0.3885850 -0.2500000
v 0.4000000 -0.4000000 -0.2500000
v 0.1925950 -0.3885850 -0.2500000
v 0.2500000 -0.4000000 -0.2500000
v 0.1000000 -0.4000000 -0.2500000
v 0.1439350 -0.3560650 -0.2500000
v 0.1925950 -0.3885850 -0.2500000
v 0.1000000 -0.4000000 -0.2500000
v 0.1114150 -0.3074050 -0.2500000
v 0.1439350 -0.3560650 -0.2500000
v 0.1000000 -0.4000000 -0.2500000
v 0.1000000 -0.2500000 -0.2500000
v 0.1114150 -0.3074050 -0.2500000
v 0.1000000 -0.4000000 -0.2500000
v 0.1114150 -0.1925950 -0.2500000
v 0.1000000 -0.2500000 -0.2500000
v 0.1000000 -0.1000000 -0.2500000
v 0.1439350 -0.1439350 -0.2500000
v 0.1114150 -0.1925950 -0.2500000
v 0.1000000 -0.1000000 -0.2500000
v 0.1925950 -0.1114150 -0.2500000
v 0.1439350 -0.1439350 -0.2500000
v 0.1000000 -0.1000000 -0.2500000
v 0.2500000 -0.1000000 -0.2500000
v 0.1925950 -0.1114150 -0.2500000
v 0.1000000 -0.1000000 -0.2500000
v 0.3074050 -0.1114150 -0.2500000
v 0.2500000 -0.1000000 -0.2500000
v 0.4000000 -0.1000000 -0.2500000
v 0.3560650 -0.1439350 -0.2500000
v 0.3074050 -0.1114150 -0.2500000
v 0.4000000 -0.1000000 -0.2500000
v 0.3885850 -0.1925950 -0.2500000
v 0.3560650 -0.1439350 -0.2500000
v 0.4000000 -0.1000000 -0.2500000
v 0.4000000 -0.2500000 -0.2500000
v 0.3885850 -0.1925950 -0.2500000
v 0.4000000 -0.1000000 -0.2500000
v 0.3500000 -0.2500000 -0.2500000
v 0.3423900 -0.2882700 -0.2500000
v 0.3423900 -0.2882700 -0.1500000
v 0.3500000 -0.2500000 -0.1500000
v 0.3423900 -0.2882700 -0.2500000
v 0.3207100 -0.3207100 -0.2500000
v 0.3207100 -0.3207100 -0.1500000
v 0.3423900 -0.2882700 -0.1500000
v 0.3207100 -0.3207100 -0.2500000
v 0.2882700 -0.3423900 -0.2500000
v 0.2882700 -0.3423900 -0.1500000
v 0.3207100 -0.3207100 -0.1500000
v 0.2882700 -0.3423900 -0.2500000
v 0.2500000 -0.3500000 -0.2500000
v 0.2500000 -0.3500000 -0.1500000
v 0.2882700 -0.3423900 -0.1500000
v 0.2500000 -0.3500000 -0.2500000
v 0.2117300 -0.3423900 -0.2500000
v 0.2117300 -0.3423900 -0.1500000
v 0.2500000 -0.3500000 -0.1500000
v 0.2117300 -0.3423900 -0.2500000
v 0.1792900 -0.3207100 -0.2500000
v 0.1792900 -0.3207100 -0.1500000
v 0.2117300 -0.3423900 -0.1500000
v 0.1792900 -0.3207100 -0.2500000
v 0.1576100 -0.2882700 -0.2500000
v 0.1576100 -0.2882700 -0.1500000
v 0.1792900 -0.3207100 -0.1500000
v 0.1576100 -0.2882700 -0.2500000
v 0.1500000 -0.2500000 -0.2500000
v 0.1500000 -0.2500000 -0.1500000
v 0.1576100 -0.2882700 -0.1500000
v 0.1500000 -0.2500000 -0.2500000
v 0.1576100 -0.2117300 -0.2500000
v 0.1576100 -0.2117300 -0.1500000
v 0.1500000 -0.2500000 -0.1500000
v 0.1576100 -0.2117300 -0.2500000
v 0.1792900 -0.1792900 -0.2500000
v 0.1792900 -0.1792900 -0.1500000
v 0.1576100 -0.2117300 -0.1500000
v 0.1792900 -0.1792900 -0.2500000
v 0.2117300 -0.1576100 -0.2500000
v 0.2117300 -0.1576100 -0.1500000
v 0.1792900 -0.1792900 -0.1500000
v 0.2117300 -0.1576100 -0.2500000
v 0.2500000 -0.1500000 -0.2500000
v 0.2500000 -0.1500000 -0.1500000
v 0.2117300 -0.1576100 -0.1500000
v 0.2500000 -0.1500000 -0.2500000
v 0.2882700 -0.1576100 -0.2500000
v 0.2882700 -0.1576100 -0.1500000
v 0.2500000 -0.1500000 -0.1500000
v 0.2882700 -0.1576100 -0.2500000
v 0.3207100 -0.1792900 -0.2500000
v 0.3207100 -0.1792900 -0.1500000
v 0.2882700 -0.1576100 -0.1500000
v 0.3207100 -0.1792900 -0.2500000
v 0.3423900 -0.2117300 -0.2500000
v 0.3423900 -0.2117300 -0.1500000
v 0.3207100 -0.1792900 -0.1500000
v 0.3423900 -0.2117300 -0.2500000
v 0.3500000 -0.2500000 -0.2500000
v 0.3500000 -0.2500000 -0.1500000
v 0.3423900 -0.2117300 -0.1500000
v 0.3500000 -0.2500000 -0.3500000
v 0.3423900 -0.2882700 -0.3500000
v 0.3423900 -0.2882700 -0.2500000
v 0.3500000 -0.2500000 -0.2500000
v 0.3423900 -0.2882700 -0.3500000
v 0.3207100 -0.3207100 -0.3500000
v 0.3207100 -0.3207100 -0.2500000
v 0.3423900 -0.2882700 -0.2500000
v 0.3207100 -0.3207100 -0.3500000
v 0.2882700 -0.3423900 -0.3500000
v 0.2882700 -0.3423900 -0.2500000
v 0.3207100 -0.3207100 -0.2500000
v 0.2882700 -0.3423900 -0.3500000
v 0.2500000 -0.3500000 -0.3500000
v 0.2500000 -0.3500000 -0.2500000
v 0.2882700 -0.3423900 -0.2500000
v 0.2500000 -0.3500000 -0.3500000
v 0.2117300 -0.3423900 -0.3500000
v 0.2117300 -0.3423900 -0.2500000
v 0.2500000 -0.3500000 -0.2500000
v 0.2117300 -0.3423900 -0.3500000
v 0.1792900 -0.3207100 -0.3500000
v 0.1792900 -0.3207100 -0.2500000
v 0.2117300 -0.3423900 -0.2500000
v 0.1792900 -0.3207100 -0.3500000
v 0.1576100 -0.2882700 -0.3500000
v 0.1576100 -0.2882700 -0.2500000
v 0.1792900 -0.3207100 -0.2500000
v 0.1576100 -0.2882700 -0.3500000
v 0.1500000 -0.2500000 -0.3500000
v 0.1500000 -0.2500000 -0.2500000
v 0.1576100 -0.2882700 -0.2500000
v 0.1500000 -0.2500000 -0.3500000
v 0.1576100 -0.2117300 -0.3500000
v 0.1576100 -0.2117300 -0.2500000
v 0.1500000 -0.2500000 -0.2500000
v 0.1576100 -0.2117300 -0.3500000
v 0.1792900 -0.1792900 -0.3500000
v 0.1792900 -0.1792900 -0.2500000
v 0.1576100 -0.2117300 -0.2500000
v 0.1792900 -0.1792900 -0.3500000
v 0.2117300 -0.1576100 -0.3500000
v 0.2117300 -0.1576100 -0.2500000
v 0.1792900 -0.1792900 -0.2500000
v 0.2117300 -0.1576100 -0.3500000
v 0.2500000 -0.1500000 -0.3500000
v 0.2500000 -0.1500000 -0.2500000
v 0.2117300 -0.1576100 -0.2500000
v 0.2500000 -0.1500000 -0.3500000
v 0.2882700 -0.1576100 -0.3500000
v 0.2882700 -0.1576100 -0.2500000
v 0.2500000 -0.1500000 -0.2500000
v 0.2882700 -0.1576100 -0.3500000
v 0.3207100 -0.1792900 -0.3500000
v 0.3207100 -0.1792900 -0.2500000
v 0.2882700 -0.1576100 -0.2500000
v 0.3207100 -0.1792900 -0.3500000
v 0.3423900 -0.2117300 -0.3500000
v 0.3423900 -0.2117300 -0.2500000
v 0.3207100 -0.1792900 -0.2500000
v 0.3423900 -0.2117300 -0.3500000
v 0.3500000 -0.2500000 -0.3500000
v 0.3500000 -0.2500000 -0.2500000
v 0.3423900 -0.2117300 -0.2500000
v 0.4000000 -0.2500000 -0.2500000
v 0.3885850 -0.3074050 -0.2500000
v 0.3885850 -0.3074050 -0.3500000
v 0.4000000 -0.2500000 -0.3500000
v 0.3885850 -0.3074050 -0.2500000
v 0.3560650 -0.3560650 -0.2500000
v 0.3560650 -0.3560650 -0.3500000
v 0.3885850 -0.3074050 -0.3500000
v 0.3560650 -0.3560650 -0.2500000
v 0.3074050 -0.3885850 -0.2500000
v 0.3074050 -0.3885850 -0.3500000
v 0.3560650 -0.3560650 -0.3500000
v 0.3074050 -0.3885850 -0.2500000
v 0.2500000 -0.4000000 -0.2500000
v 0.2500000 -0.4000000 -0.3500000
v 0.3074050 -0.3885850 -0.3500000
v 0.2500000 -0.4000000 -0.2500000
v 0.1925950 -0.3885850 -0.2500000
v 0.1925950 -0.3885850 -0.3500000
v 0.2500000 -0.4000000 -0.3500000
v 0.1925950 -0.3885850 -0.2500000
v 0.1439350 -0.3560650 -0.2500000
v 0.1439350 -0.3560650 -0.3500000
v 0.1925950 -0.3885850 -0.3500000
v 0.1439350 -0.3560650 -0.2500000
v 0.1114150 -0.3074050 -0.2500000
v 0.1114150 -0.3074050 -0.3500000
v 0.1439350 -0.3560650 -0.3500000
v 0.1114150 -0.3074050 -0.2500000
v 0.1000000 -0.2500000 -0.2500000
v 0.1000000 -0.2500000 -0.3500000
v 0.1114150 -0.3074050 -0.3500000
v 0.1000000 -0.2500000 -0.2500000
v 0.1114150 -0.1925950 -0.2500000
v 0.1114150 -0.1925950 -0.3500000
v 0.1000000 -0.2500000 -0.3500000
v 0.1114150 -0.1925950 -0.2500000
v 0.1439350 -0.1439350 -0.2500000
v 0.1439350 -0.1439350 -0.3500000
v 0.1114150 -0.1925950 -0.3500000
v 0.1439350 -0.1439350 -0.2500000
v 0.1925950 -0.1114150 -0.2500000
v 0.1925950 -0.1114150 -0.3500000
v 0.1439350 -0.1439350 -0.3500000
v 0.1925950 -0.1114150 -0.2500000
v 0.2500000 -0.1000000 -0.2500000
v 0.2500000 -0.1000000 -0.3500000
v 0.1925950 -0.1114150 -0.3500000
v 0.2500000 -0.1000000 -0.2500000
v 0.3074050 -0.1114150 -0.2500000
v 0.3074050 -0.1114150 -0.3500000
v 0.2500000 -0.1000000 -0.3500000
v 0.3074050 -0.1114150 -0.2500000
v 0.3560650 -0.1439350 -0.2500000
v 0.3560650 -0.1439350 -0.3500000
v 0.3074050 -0.1114150 -0.3500000
v 0.3560650 -0.1439350 -0.2500000
v 0.3885850 -0.1925950 -0.2500000
v 0.3885850 -0.1925950 -0.3500000
v 0.3560650 -0.1439350 -0.3500000
v 0.3885850 -0.1925950 -0.2500000
v 0.4000000 -0.2500000 -0.2500000
v 0.4000000 -0.2500000 -0.3500000
v 0.3885850 -0.1925950 -0.3500000
v 0.1925950 -0.3885850 -0.3500000
v 0.2117300 -0.3423900 -0.3500000
v 0.2500000 -0.3500000 -0.3500000
v 0.2500000 -0.4000000 -0.3500000
v 0.1439350 -0.3560650 -0.3500000
v 0.1792900 -0.3207100 -0.3500000
v 0.2117300 -0.3423900 -0.3500000
v 0.1925950 -0.3885850 -0.3500000
v 0.1114150 -0.3074050 -0.3500000
v 0.1576100 -0.2882700 -0.3500000
v 0.1792900 -0.3207100 -0.3500000
v 0.1439350 -0.3560650 -0.3500000
v 0.1000000 -0.2500000 -0.3500000
v 0.1500000 -0.2500000 -0.3500000
v 0.1576100 -0.2882700 -0.3500000
v 0.1114150 -0.3074050 -0.3500000
v 0.1114150 -0.1925950 -0.3500000
v 0.1576100 -0.2117300 -0.3500000
v 0.1500000 -0.2500000 -0.3500000
v 0.1000000 -0.2500000 -0.3500000
v 0.1439350 -0.1439350 -0.3500000
v 0.1792900 -0.1792900 -0.3500000
v 0.1576100 -0.2117300 -0.3500000
v 0.1114150 -0.1925950 -0.3500000
v 0.1925950 -0.1114150 -0.3500000
v 0.2117300 -0.1576100 -0.3500000
v 0.1792900 -0.1792900 -0.3500000
v 0.1439350 -0.1439350 -0.3500000
v 0.2500000 -0.1000000 -0.3500000
v 0.2500000 -0.1500000 -0.3500000
v 0.2117300 -0.1576100 -0.3500000
v 0.1925950 -0.1114150 -0.3500000
v 0.3074050 -0.1114150 -0.3500000
v 0.2882700 -0.1576100 -0.3500000
v 0.2500000 -0.1500000 -0.3500000
v 0.2500000 -0.1000000 -0.3500000
v 0.3560650 -0.1439350 -0.3500000
v 0.3207100 -0.1792900 -0.3500000
v 0.2882700 -0.1576100 -0.3500000
v 0.3074050 -0.1114150 -0.3500000
v 0.3885850 -0.1925950 -0.3500000
v 0.3423900 -0.2117300 -0.3500000
v 0.3207100 -0.1792900 -0.3500000
v 0.3560650 -0.1439350 -0.3500000
v 0.4000000 -0.2500000 -0.3500000
v 0.3500000 -0.2500000 -0.3500000
v 0.3423900 -0.2117300 -0.3500000
v 0.3885850 -0.1925950 -0.3500000
v 0.3885850 -0.3074050 -0.3500000
v 0.3423900 -0.2882700 -0.3500000
v 0.3500000 -0.2500000 -0.3500000
v 0.4000000 -0.2500000 -0.3500000
v 0.3560650 -0.3560650 -0.3500000
v 0.3207100 -0.3207100 -0.3500000
v 0.3423900 -0.2882700 -0.3500000
v 0.3885850 -0.3074050 -0.3500000
v 0.3074050 -0.3885850 -0.3500000
v 0.2882700 -0.3423900 -0.3500000
v 0.3207100 -0.3207100 -0.3500000
v 0.3560650 -0.3560650 -0.3500000
v 0.2500000 -0.4000000 -0.3500000
v 0.2500000 -0.3500000 -0.3500000
v 0.2882700 -0.3423900 -0.3500000
v 0.3074050 -0.3885850 -0.3500000
v 0.8885850 -0.3074050 -0.2500000
v 0.9000000 -0.2500000 -0.2500000
v 0.9000000 -0.4000000 -0.2500000
v 0.8560650 -0.3560650 -0.2500000
v 0.8885850 -0.3074050 -0.2500000
v 0.9000000 -0.4000000 -0.2500000
v 0.8074050 -0.3885850 -0.2500000
v 0.8560650 -0.3560650 -0.2500000
v 0.9000000 -0.4000000 -0.2500000
v 0.7500000 -0.4000000 -0.2500000
v 0.8074050 -0.3885850 -0.2500000
v 0.9000000 -0.4000000 -0.2500000
v 0.6925950 -0.3885850 -0.2500000
v 0.7500000 -0.4000000 -0.2500000
v 0.6000000 -0.4000000 -0.2500000
v 0.6439350 -0.3560650 -0.2500000
v 0.6925950 -0.3885850 -0.2500000
v 0.6000000 -0.4000000 -0.2500000
v 0.6114150 -0.3074050 -0.2500000
v 0.6439350 -0.3560650 -0.2500000
v 0.6000000 -0.4000000 -0.2500000
v 0.6000000 -0.2500000 -0.2500000
v 0.6114150 -0.3074050 -0.2500000
v 0.6000000 -0.4000000 -0.2500000
v 0.6114150 -0.1925950 -0.2500000
v 0.6000000 -0.2500000 -0.2500000
v 0.6000000 -0.1000000 -0.2500000
v 0.6439350 -0.1439350 -0.2500000
v 0.6114150 -0.1925950 -0.2500000
v 0.6000000 -0.1000000 -0.2500000
v 0.6925950 -0.1114150 -0.2500000
v 0.6439350 -0.1439350 -0.2500000
v 0.6000000 -0.1000000 -0.2500000
v 0.7500000 -0.1000000 -0.2500000
v 0.6925950 -0.1114150 -0.2500000
v 0.6000000 -0.1000000 -0.2500000
v 0.8074050 -0.1114150 -0.2500000
v 0.7500000 -0.1000000 -0.2500000
v 0.9000000 -0.1000000 -0.2500000
v 0.8560650 -0.1439350 -0.2500000
v 0.8074050 -0.1114150 -0.2500000
v 0.9000000 -0.1000000 -0.2500000
v 0.8885850 -0.1925950 -0.2500000
v 0.8560650 -0.1439350 -0.2500000
v 0.9000000 -0.1000000 -0.2500000
v 0.9000000 -0.2500000 -0.2500000
v 0.8885850 -0.1925950 -0.2500000
v 0.9000000 -0.1000000 -0.2500000
v 0.8500000 -0.2500000 -0.2500000
v 0.8423900 -0.2882700 -0.2500000
v 0.8423900 -0.2882700 -0.1500000
v 0.8500000 -0.2500000 -0.1500000
v 0.8423900 -0.2882700 -0.2500000
v 0.8207100 -0.3207100 -0.2500000
v 0.8207100 -0.3207100 -0.1500000
v 0.8423900 -0.2882700 -0.1500000
v 0.8207100 -0.3207100 -0.2500000
v 0.7882700 -0.3423900 -0.2500000
v 0.7882700 -0.3423900 -0.1500000
v 0.8207100 -0.3207100 -0.1500000
v 0.7882700 -0.3423900 -0.2500000
v 0.7500000 -0.3500000 -0.2500000
v 0.7500000 -0.3500000 -0.1500000
v 0.7882700 -0.3423900 -0.1500000
v 0.7500000 -0.3500000 -0.2500000
v 0.7117300 -0.3423900 -0.2500000
v 0.7117300 -0.3423900 -0.1500000
v 0.7500000 -0.3500000 -0.1500000
v 0.7117300 -0.3423900 -0.2500000
v 0.6792900 -0.3207100 -0.2500000
v 0.6792900 -0.3207100 -0.1500000
v 0.7117300 -0.3423900 -0.1500000
v 0.6792900 -0.3207100 -0.2500000
v 0.6576100 -0.2882700 -0.2500000
v 0.6576100 -0.2882700 -0.1500000
v 0.6792900 -0.3207100 -0.1500000
v 0.6576100 -0.2882700 -0.2500000
v 0.6500000 -0.2500000 -0.2500000
v 0.6500000 -0.2500000 -0.1500000
v 0.6576100 -0.2882700 -0.1500000
v 0.6500000 -0.2500000 -0.2500000
v 0.6576100 -0.2117300 -0.2500000
v 0.6576100 -0.2117300 -0.1500000
v 0.6500000 -0.2500000 -0.1500000
v 0.6576100 -0.2117300 -0.2500000
v 0.6792900 -0.1792900 -0.2500000
v 0.6792900 -0.1792900 -0.1500000
v 0.6576100 -0.2117300 -0.1500000
v 0.6792900 -0.1792900 -0.2500000
v 0.7117300 -0.1576100 -0.2500000
v 0.7117300 -0.1576100 -0.1500000
v 0.6792900 -0.1792900 -0.1500000
v 0.7117300 -0.1576100 -0.2500000
v 0.7500000 -0.1500000 -0.2500000
v 0.7500000 -0.1500000 -0.1500000
v 0.7117300 -0.1576100 -0.1500000
v 0.7500000 -0.1500000 -0.2500000
v 0.7882700 -0.1576100 -0.2500000
v 0.7882700 -0.1576100 -0.1500000
v 0.7500000 -0.1500000 -0.1500000
v 0.7882700 -0.1576100 -0.2500000
v 0.8207100 -0.1792900 -0.2500000
v 0.8207100 -0.1792900 -0.1500000
v 0.7882700 -0.1576100 -0.1500000
v 0.8207100 -0.1792900 -0.2500000
v 0.8423900 -0.2117300 -0.2500000
v 0.8423900 -0.2117300 -0.1500000
v 0.8207100 -0.1792900 -0.1500000
v 0.8423900 -0.2117300 -0.2500000
v 0.8500000 -0.2500000 -0.2500000
v 0.8500000 -0.2500000 -0.1500000
v 0.8423900 -0.2117300 -0.1500000
v 0.8500000 -0.2500000 -0.3500000
v 0.8423900 -0.2882700 -0.3500000
v 0.8423900 -0.2882700 -0.2500000
v 0.8500000 -0.2500000 -0.2500000
v 0.8423900 -0.2882700 -0.3500000
v 0.8207100 -0.3207100 -0.3500000
v 0.8207100 -0.3207100 -0.2500000
v 0.8423900 -0.2882700 -0.2500000
v 0.8207100 -0.3207100 -0.3500000
v 0.7882700 -0.3423900 -0.3500000
v 0.7882700 -0.3423900 -0.2500000
v 0.8207100 -0.3207100 -0.2500000
v 0.7882700 -0.3423900 -0.3500000
v 0.7500000 -0.3500000 -0.3500000
v 0.7500000 -0.3500000 -0.2500000
v 0.7882700 -0.3423900 -0.2500000
v 0.7500000 -0.3500000 -0.3500000
v 0.7117300 -0.3423900 -0.3500000
v 0.7117300 -0.3423900 -0.2500000
v 0.7500000 -0.3500000 -0.2500000
v 0.7117300 -0.3423900 -0.3500000
v 0.6792900 -0.3207100 -0.3500000
v 0.6792900 -0.3207100 -0.2500000
v 0.7117300 -0.3423900 -0.2500000
v 0.6792900 -0.3207100 -0.3500000
v 0.6576100 -0.2882700 -0.3500000
v 0.6576100 -0.2882700 -0.2500000
v 0.6792900 -0.3207100 -0.2500000
v 0.6576100 -0.2882700 -0.3500000
v 0.6500000 -0.2500000 -0.3500000
v 0.6500000 -0.2500000 -0.2500000
v 0.6576100 -0.2882700 -0.2500000
v 0.6500000 -0.2500000 -0.3500000
v 0.6576100 -0.2117300 -0.3500000
v 0.6576100 -0.2117300 -0.2500000
v 0.6500000 -0.2500000 -0.2500000
v 0.6576100 -0.2117300 -0.3500000
v 0.6792900 -0.1792900 -0.3500000
v 0.6792900 -0.1792900 -0.2500000
v 0.6576100 -0.2117300 -0.2500000
v 0.6792900 -0.1792900 -0.3500000
v 0.7117300 -0.1576100 -0.3500000
v 0.7117300 -0.1576100 -0.2500000
v 0.6792900 -0.1792900 -0.2500000
v 0.7117300 -0.1576100 -0.3500000
v 0.7500000 -0.1500000 -0.3500000
v 0.7500000 -0.1500000 -0.2500000
v 0.7117300 -0.1576100 -0.2500000
v 0.7500000 -0.1500000 -0.3500000
v 0.7882700 -0.1576100 -0.3500000
v 0.7882700 -0.1576100 -0.2500000
v 0.7500000 -0.1500000 -0.2500000
v 0.7882700 -0.1576100 -0.3500000
v 0.8207100 -0.1792900 -0.3500000
v 0.8207100 -0.1792900 -0.2500000
v 0.7882700 -0.1576100 -0.2500000
v 0.8207100 -0.1792900 -0.3500000
v 0.8423900 -0.2117300 -0.3500000
v 0.8423900 -0.2117300 -0.2500000
v 0.8207100 -0.1792900 -0.2500000
v 0.8423900 -0.2117300 -0.3500000
v 0.8500000 -0.2500000 -0.3500000
v 0.8500000 -0.2500000 -0.2500000
v 0.8423900 -0.2117300 -0.2500000
v 0.9000000 -0.2500000 -0.2500000
v 0.8885850 -0.3074050 -0.2500000
v 0.8885850 -0.3074050 -0.3500000
v 0.9000000 -0.2500000 -0.3500000
v 0.8885850 -0.3074050 -0.2500000
v 0.8560650 -0.3560650 -0.2500000
v 0.8560650 -0.3560650 -0.3500000
v 0.8885850 -0.3074050 -0.3500000
v 0.8560650 -0.3560650 -0.2500000
v 0.8074050 -0.3885850 -0.2500000
v 0.8074050 -0.3885850 -0.3500000
v 0.8560650 -0.3560650 -0.3500000
v 0.8074050 -0.3885850 -0.2500000
v 0.7500000 -0.4000000 -0.2500000
v 0.7500000 -0.4000000 -0.3500000
v 0.8074050 -0.3885850 -0.3500000
v 0.7500000 -0.4000000 -0.2500000
v 0.6925950 -0.3885850 -0.2500000
v 0.6925950 -0.3885850 -0.3500000
v 0.7500000 -0.4000000 -0.3500000
v 0.6925950 -0.3885850 -0.2500000
v 0.6439350 -0.3560650 -0.2500000
v 0.6439350 -0.3560650 -0.3500000
v 0.6925950 -0.3885850 -0.3500000
v 0.6439350 -0.3560650 -0.2500000
v 0.6114150 -0.3074050 -0.2500000
v 0.6114150 -0.3074050 -0.3500000
v 0.6439350 -0.3560650 -0.3500000
v 0.6114150 -0.3074050 -0.2500000
v 0.6000000 -0.2500000 -0.2500000
v 0.6000000 -0.2500000 -0.3500000
v 0.6114150 -0.3074050 -0.3500000
v 0.6000000 -0.2500000 -0.2500000
v 0.6114150 -0.1925950 -0.2500000
v 0.6114150 -0.1925950 -0.3500000
v 0.6000000 -0.2500000 -0.3500000
v 0.6114150 -0.1925950 -0.2500000
v 0.6439350 -0.1439350 -0.2500000
v 0.6439350 -0.1439350 -0.3500000
v 0.6114150 -0.1925950 -0.3500000
v 0.6439350 -0.1439350 -0.2500000
v 0.6925950 -0.1114150 -0.2500000
v 0.6925950 -0.1114150 -0.3500000
v 0.6439350 -0.1439350 -0.3500000
v 0.6925950 -0.1114150 -0.2500000
v 0.7500000 -0.1000000 -0.2500000
v 0.7500000 -0.1000000 -0.3500000
v 0.6925950 -0.1114150 -0.3500000
v 0.7500000 -0.1000000 -0.2500000
v 0.8074050 -0.1114150 -0.2500000
v 0.8074050 -0.1114150 -0.3500000
v 0.7500000 -0.1000000 -0.3500000
v 0.8074050 -0.1114150 -0.2500000
v 0.8560650 -0.1439350 -0.2500000
v 0.8560650 -0.1439350 -0.3500000
v 0.8074050 -0.1114150 -0.3500000
v 0.8560650 -0.1439350 -0.2500000
v 0.8885850 -0.1925950 -0.2500000
v 0.8885850 -0.1925950 -0.3500000
v 0.8560650 -0.1439350 -0.3500000
v 0.8885850 -0.1925950 -0.2500000
v 0.9000000 -0.2500000 -0.2500000
v 0.9000000 -0.2500000 -0.3500000
v 0.8885850 -0.1925950 -0.3500000
v 0.6925950 -0.3885850 -0.3500000
v 0.7117300 -0.3423900 -0.3500000
v 0.7500000 -0.3500000 -0.3500000
v 0.7500000 -0.4000000 -0.3500000
v 0.6439350 -0.3560650 -0.3500000
v 0.6792900 -0.3207100 -0.3500000
v 0.7117300 -0.3423900 -0.3500000
v 0.6925950 -0.3885850 -0.3500000
v 0.6114150 -0.3074050 -0.3500000
v 0.6576100 -0.2882700 -0.3500000
v 0.6792900 -0.3207100 -0.3500000
v 0.6439350 -0.3560650 -0.3500000
v 0.6000000 -0.2500000 -0.3500000
v 0.6500000 -0.2500000 -0.3500000
v 0.6576100 -0.2882700 -0.3500000
v 0.6114150 -0.3074050 -0.3500000
v 0.6114150 -0.1925950 -0.3500000
v 0.6576100 -0.2117300 -0.3500000
v 0.6500000 -0.2500000 -0.3500000
v 0.6000000 -0.2500000 -0.3500000
v 0.6439350 -0.1439350 -0.3500000
v 0.6792900 -0.1792900 -0.3500000
v 0.6576100 -0.2117300 -0.3500000
v 0.6114150 -0.1925950 -0.3500000
v 0.6925950 -0.1114150 -0.3500000
v 0.7117300 -0.1576100 -0.3500000
v 0.6792900 -0.1792900 -0.3500000
v 0.6439350 -0.1439350 -0.3500000
v 0.7500000 -0.1000000 -0.3500000
v 0.7500000 -0.1500000 -0.3500000
v 0.7117300 -0.1576100 -0.3500000
v 0.6925950 -0.1114150 -0.3500000
v 0.8074050 -0.1114150 -0.3500000
v 0.7882700 -0.1576100 -0.3500000
v 0.7500000 -0.1500000 -0.3500000
v 0.7500000 -0.1000000 -0.3500000
v 0.8560650 -0.1439350 -0.3500000
v 0.8207100 -0.1792900 -0.3500000
v 0.7882700 -0.1576100 -0.3500000
v 0.8074050 -0.1114150 -0.3500000
v 0.8885850 -0.1925950 -0.3500000
v 0.8423900 -0.2117300 -0.3500000
v 0.8207100 -0.1792900 -0.3500000
v 0.8560650 -0.1439350 -0.3500000
v 0.9000000 -0.2500000 -0.3500000
v 0.8500000 -0.2500000 -0.3500000
v 0.8423900 -0.2117300 -0.3500000
v 0.8885850 -0.1925950 -0.3500000
v 0.8885850 -0.3074050 -0.3500000
v 0.8423900 -0.2882700 -0.3500000
v 0.8500000 -0.2500000 -0.3500000
v 0.9000000 -0.2500000 -0.3500000
v 0.8560650 -0.3560650 -0.3500000
v 0.8207100 -0.3207100 -0.3500000
v 0.8423900 -0.2882700 -0.3500000
v 0.8885850 -0.3074050 -0.3500000
v 0.8074050 -0.3885850 -0.3500000
v 0.7882700 -0.3423900 -0.3500000
v 0.8207100 -0.3207100 -0.3500000
v 0.8560650 -0.3560650 -0.3500000
v 0.7500000 -0.4000000 -0.3500000
v 0.7500000 -0.3500000 -0.3500000
v 0.7882700 -0.3423900 -0.3500000
v 0.8074050 -0.3885850 -0.3500000
v -0.9000000 -0.1000000 -0.1500000
v -0.9000000 -0.1500000 -0.1500000
v 0.9000000 -0.1500000 -0.1500000
v 0.9000000 -0.1000000 -0.1500000
v -0.5000000 -0.6000000 0.0000000
v -0.4000000 -0.6000000 0.0000000
v -0.4076100 -0.6000000 0.0382700
v -0.5000000 -0.6000000 0.0000000
v -0.4076100 -0.6000000 0.0382700
v -0.4292900 -0.6000000 0.0707100
v -0.5000000 -0.6000000 0.0000000
v -0.4292900 -0.6000000 0.0707100
v -0.4617300 -0.6000000 0.0923900
v -0.5000000 -0.6000000 0.0000000
v -0.4617300 -0.6000000 0.0923900
v -0.5000000 -0.6000000 0.1000000
v -0.5000000 -0.6000000 0.0000000
v -0.5000000 -0.6000000 0.1000000
v -0.5382700 -0.6000000 0.0923900
v -0.5000000 -0.6000000 0.0000000
v -0.5382700 -0.6000000 0.0923900
v -0.5707100 -0.6000000 0.0707100
v -0.5000000 -0.6000000 0.0000000
v -0.5707100 -0.6000000 0.0707100
v -0.5923900 -0.6000000 0.0382700
v -0.5000000 -0.6000000 0.0000000
v -0.5923900 -0.6000000 0.0382700
v -0.6000000 -0.6000000 0.0000000
v -0.5000000 -0.6000000 0.0000000
v -0.6000000 -0.6000000 0.0000000
v -0.5923900 -0.6000000 -0.0382700
v -0.5000000 -0.6000000 0.0000000
v -0.5923900 -0.6000000 -0.0382700
v -0.5707100 -0.6000000 -0.0707100
v -0.5000000 -0.6000000 0.0000000
v -0.5707100 -0.6000000 -0.0707100
v -0.5382700 -0.6000000 -0.0923900
v -0.5000000 -0.6000000 0.0000000
v -0.5382700 -0.6000000 -0.0923900
v -0.5000000 -0.6000000 -0.1000000
v -0.5000000 -0.6000000 0.0000000
v -0.5000000 -0.6000000 -0.1000000
v -0.4617300 -0.6000000 -0.0923900
v -0.5000000 -0.6000000 0.0000000
v -0.4617300 -0.6000000 -0.0923900
v -0.4292900 -0.6000000 -0.0707100
v -0.5000000 -0.6000000 0.0000000
v -0.4292900 -0.6000000 -0.0707100
v -0.4076100 -0.6000000 -0.0382700
v -0.5000000 -0.6000000 0.0000000
v -0.4076100 -0.6000000 -0.0382700
v -0.4000000 -0.6000000 0.0000000
v -0.4000000 -0.1000000 0.0000000
v -0.4076100 -0.1000000 0.0382700
v -0.4076100 -0.6000000 0.0382700
v -0.4000000 -0.6000000 0.0000000
v -0.4076100 -0.1000000 0.0382700
v -0.4292900 -0.1000000 0.0707100
v -0.4292900 -0.6000000 0.0707100
v -0.4076100 -0.6000000 0.0382700
v -0.4292900 -0.1000000 0.0707100
v -0.4617300 -0.1000000 0.0923900
v -0.4617300 -0.6000000 0.0923900
v -0.4292900 -0.6000000 0.0707100
v -0.4617300 -0.1000000 0.0923900
v -0.5000000 -0.1000000 0.1000000
v -0.5000000 -0.6000000 0.1000000
v -0.4617300 -0.6000000 0.0923900
v -0.5000000 -0.1000000 0.1000000
v -0.5382700 -0.1000000 0.0923900
v -0.5382700 -0.6000000 0.0923900
v -0.5000000 -0.6000000 0.1000000
v -0.5382700 -0.1000000 0.0923900
v -0.5707100 -0.1000000 0.0707100
v -0.5707100 -0.6000000 0.0707100
v -0.5382700 -0.6000000 0.0923900
v -0.5707100 -0.1000000 0.0707100
v -0.5923900 -0.1000000 0.0382700
v -0.5923900 -0.6000000 0.0382700
v -0.5707100 -0.6000000 0.0707100
v -0.5923900 -0.1000000 0.0382700
v -0.6000000 -0.1000000 0.0000000
v -0.6000000 -0.6000000 0.0000000
v -0.5923900 -0.6000000 0.0382700
v -0.6000000 -0.1000000 0.0000000
v -0.5923900 -0.1000000 -0.0382700
v -0.5923900 -0.6000000 -0.0382700
v -0.6000000 -0.6000000 0.0000000
v -0.5923900 -0.1000000 -0.0382700
v -0.5707100 -0.1000000 -0.0707100
v -0.5707100 -0.6000000 -0.0707100
v -0.5923900 -0.6000000 -0.0382700
v -0.5707100 -0.1000000 -0.0707100
v -0.5382700 -0.1000000 -0.0923900
v -0.5382700 -0.6000000 -0.0923900
v -0.5707100 -0.6000000 -0.0707100
v -0.5382700 -0.1000000 -0.0923900
v -0.5000000 -0.1000000 -0.1000000
v -0.5000000 -0.6000000 -0.1000000
v -0.5382700 -0.6000000 -0.0923900
v -0.5000000 -0.1000000 -0.1000000
v -0.4617300 -0.1000000 -0.0923900
v -0.4617300 -0.6000000 -0.0923900
v -0.5000000 -0.6000000 -0.1000000
v -0.4617300 -0.1000000 -0.0923900
v -0.4292900 -0.1000000 -0.0707100
v -0.4292900 -0.6000000 -0.0707100
v -0.4617300 -0.6000000 -0.0923900
v -0.4292900 -0.1000000 -0.0707100
v -0.4076100 -0.1000000 -0.0382700
v -0.4076100 -0.6000000 -0.0382700
v -0.4292900 -0.6000000 -0.0707100
v -0.4076100 -0.1000000 -0.0382700
v -0.4000000 -0.1000000 0.0000000
v -0.4000000 -0.6000000 0.0000000
v -0.4076100 -0.6000000 -0.0382700
v 0.0000000 -0.6000000 0.0000000
v 0.1000000 -0.6000000 0.0000000
v 0.0923900 -0.6000000 0.0382700
v 0.0000000 -0.6000000 0.0000000
v 0.0923900 -0.6000000 0.0382700
v 0.0707100 -0.6000000 0.0707100
v 0.0000000 -0.6000000 0.0000000
v 0.0707100 -0.6000000 0.0707100
v 0.0382700 -0.6000000 0.0923900
v 0.0000000 -0.6000000 0.0000000
v 0.0382700 -0.6000000 0.0923900
v 0.0000000 -0.6000000 0.1000000
v 0.0000000 -0.6000000 0.0000000
v 0.0000000 -0.6000000 0.1000000
v -0.0382700 -0.6000000 0.0923900
v 0.0000000 -0.6000000 0.0000000
v -0.0382700 -0.6000000 0.0923900
v -0.0707100 -0.6000000 0.0707100
v 0.0000000 -0.6000000 0.0000000
v -0.0707100 -0.6000000 0.0707100
v -0.0923900 -0.6000000 0.0382700
v 0.0000000 -0.6000000 0.0000000
v -0.0923900 -0.6000000 0.0382700
v -0.1000000 -0.6000000 0.0000000
v 0.0000000 -0.6000000 0.0000000
v -0.1000000 -0.6000000 0.0000000
v -0.0923900 -0.6000000 -0.0382700
v 0.0000000 -0.6000000 0.0000000
v -0.0923900 -0.6000000 -0.0382700
v -0.0707100 -0.6000000 -0.0707100
v 0.0000000 -0.6000000 0.0000000
v -0.0707100 -0.6000000 -0.0707100
v -0.0382700 -0.6000000 -0.0923900
v 0.0000000 -0.6000000 0.0000000
v -0.0382700 -0.6000000 -0.0923900
v 0.0000000 -0.6000000 -0.1000000
v 0.0000000 -0.6000000 0.0000000
v 0.0000000 -0.6000000 -0.1000000
v 0.0382700 -0.6000000 -0.0923900
v 0.0000000 -0.6000000 0.0000000
v 0.0382700 -0.6000000 -0.0923900
v 0.0707100 -0.6000000 -0.0707100
v 0.0000000 -0.6000000 0.0000000
v 0.0707100 -0.6000000 -0.0707100
v 0.0923900 -0.6000000 -0.0382700
v 0.0000000 -0.6000000 0.0000000
v 0.0923900 -0.6000000 -0.0382700
v 0.1000000 -0.6000000 0.0000000
v 0.1000000 -0.1000000 0.0000000
v 0.0923900 -0.1000000 0.0382700
v 0.0923900 -0.6000000 0.0382700
v 0.1000000 -0.6000000 0.0000000
v 0.0923900 -0.1000000 0.0382700
v 0.0707100 -0.1000000 0.0707100
v 0.0707100 -0.6000000 0.0707100
v 0.0923900 -0.6000000 0.0382700
v 0.0707100 -0.1000000 0.0707100
v 0.0382700 -0.1000000 0.0923900
v 0.0382700 -0.6000000 0.0923900
v 0.0707100 -0.6000000 0.0707100
v 0.0382700 -0.1000000 0.0923900
v 0.0000000 -0.1000000 0.1000000
v 0.0000000 -0.6000000 0.1000000
v 0.0382700 -0.6000000 0.0923900
v 0.0000000 -0.1000000 0.1000000
v -0.0382700 -0.1000000 0.0923900
v -0.0382700 -0.6000000 0.0923900
v 0.0000000 -0.6000000 0.1000000
v -0.0382700 -0.1000000 0.0923900
v -0.0707100 -0.1000000 0.0707100
v -0.0707100 -0.6000000 0.0707100
v -0.0382700 -0.6000000 0.0923900
v -0.0707100 -0.1000000 0.0707100
v -0.0923900 -0.1000000 0.0382700
v -0.0923900 -0.6000000 0.0382700
v -0.0707100 -0.6000000 0.0707100
v -0.0923900 -0.1000000 0.0382700
v -0.1000000 -0.1000000 0.0000000
v -0.1000000 -0.6000000 0.0000000
v -0.0923900 -0.6000000 0.0382700
v -0.1000000 -0.1000000 0.0000000
v -0.0923900 -0.1000000 -0.0382700
v -0.0923900 -0.6000000 -0.0382700
v -0.1000000 -0.6000000 0.0000000
v -0.0923900 -0.1000000 -0.0382700
v -0.0707100 -0.1000000 -0.0707100
v -0.0707100 -0.6000000 -0.0707100
v -0.0923900 -0.6000000 -0.0382700
v -0.0707100 -0.1000000 -0.0707100
v -0.0382700 -0.1000000 -0.0923900
v -0.0382700 -0.6000000 -0.0923900
v -0.0707100 -0.6000000 -0.0707100
v -0.0382700 -0.1000000 -0.0923900
v 0.0000000 -0.1000000 -0.1000000
v 0.0000000 -0.6000000 -0.1000000
v -0.0382700 -0.6000000 -0.0923900
v 0.0000000 -0.1000000 -0.1000000
v 0.0382700 -0.1000000 -0.0923900
v 0.0382700 -0.6000000 -0.0923900
v 0.0000000 -0.6000000 -0.1000000
v 0.0382700 -0.1000000 -0.0923900
v 0.0707100 -0.1000000 -0.0707100
v 0.0707100 -0.6000000 -0.0707100
v 0.0382700 -0.6000000 -0.0923900
v 0.0707100 -0.1000000 -0.0707100
v 0.0923900 -0.1000000 -0.0382700
v 0.0923900 -0.6000000 -0.0382700
v 0.0707100 -0.6000000 -0.0707100
v 0.0923900 -0.1000000 -0.0382700
v 0.1000000 -0.1000000 0.0000000
v 0.1000000 -0.6000000 0.0000000
v 0.0923900 -0.6000000 -0.0382700
v 0.5000000 -0.6000000 0.0000000
v 0.6000000 -0.6000000 0.0000000
v 0.5923900 -0.6000000 0.0382700
v 0.5000000 -0.6000000 0.0000000
v 0.5923900 -0.6000000 0.0382700
v 0.5707100 -0.6000000 0.0707100
v 0.5000000 -0.6000000 0.0000000
v 0.5707100 -0.6000000 0.0707100
v 0.5382700 -0.6000000 0.0923900
v 0.5000000 -0.6000000 0.0000000
v 0.5382700 -0.6000000 0.0923900
v 0.5000000 -0.6000000 0.1000000
v 0.5000000 -0.6000000 0.0000000
v 0.5000000 -0.6000000 0.1000000
v 0.4617300 -0.6000000 0.0923900
v 0.5000000 -0.6000000 0.0000000
v 0.4617300 -0.6000000 0.0923900
v 0.4292900 -0.6000000 0.0707100
v 0.5000000 -0.6000000 0.0000000
v 0.4292900 -0.6000000 0.0707100
v 0.4076100 -0.6000000 0.0382700
v 0.5000000 -0.6000000 0.0000000
v 0.4076100 -0.6000000 0.0382700
v 0.4000000 -0.6000000 0.0000000
v 0.5000000 -0.6000000 0.0000000
v 0.4000000 -0.6000000 0.0000000
v 0.4076100 -0.6000000 -0.0382700
v 0.5000000 -0.6000000 0.0000000
v 0.4076100 -0.6000000 -0.0382700
v 0.4292900 -0.6000000 -0.0707100
v 0.5000000 -0.6000000 0.0000000
v 0.4292900 -0.6000000 -0.0707100
v 0.4617300 -0.6000000 -0.0923900
v 0.5000000 -0.6000000 0.0000000
v 0.4617300 -0.6000000 -0.0923900
v 0.5000000 -0.6000000 -0.1000000
v 0.5000000 -0.6000000 0.0000000
v 0.5000000 -0.6000000 -0.1000000
v 0.5382700 -0.6000000 -0.0923900
v 0.5000000 -0.6000000 0.0000000
v 0.5382700 -0.6000000 -0.0923900
v 0.5707100 -0.6000000 -0.0707100
v 0.5000000 -0.6000000 0.0000000
v 0.5707100 -0.6000000 -0.0707100
v 0.5923900 -0.6000000 -0.0382700
v 0.5000000 -0.6000000 0.0000000
v 0.5923900 -0.6000000 -0.0382700
v 0.6000000 -0.6000000 0.0000000
v 0.6000000 -0.1000000 0.0000000
v 0.5923900 -0.1000000 0.0382700
v 0.5923900 -0.6000000 0.0382700
v 0.6000000 -0.6000000 0.0000000
v 0.5923900 -0.1000000 0.0382700
v 0.5707100 -0.1000000 0.0707100
v 0.5707100 -0.6000000 0.0707100
v 0.5923900 -0.6000000 0.0382700
v 0.5707100 -0.1000000 0.0707100
v 0.5382700 -0.1000000 0.0923900
v 0.5382700 -0.6000000 0.0923900
v 0.5707100 -0.6000000 0.0707100
v 0.5382700 -0.1000000 0.0923900
v 0.5000000 -0.1000000 0.1000000
v 0.5000000 -0.6000000 0.1000000
v 0.5382700 -0.6000000 0.0923900
v 0.5000000 -0.1000000 0.1000000
v 0.4617300 -0.1000000 0.0923900
v 0.4617300 -0.6000000 0.0923900
v 0.5000000 -0.6000000 0.1000000
v 0.4617300 -0.1000000 0.0923900
v 0.4292900 -0.1000000 0.0707100
v 0.4292900 -0.6000000 0.0707100
v 0.4617300 -0.6000000 0.0923900
v 0.4292900 -0.1000000 0.0707100
v 0.4076100 -0.1000000 0.0382700
v 0.4076100 -0.6000000 0.0382700
v 0.4292900 -0.6000000 0.0707100
v 0.4076100 -0.1000000 0.0382700
v 0.4000000 -0.1000000 0.0000000
v 0.4000000 -0.6000000 0.0000000
v 0.4076100 -0.6000000 0.0382700
v 0.4000000 -0.1000000 0.0000000
v 0.4076100 -0.1000000 -0.0382700
v 0.4076100 -0.6000000 -0.0382700
v 0.4000000 -0.6000000 0.0000000
v 0.4076100 -0.1000000 -0.0382700
v 0.4292900 -0.1000000 -0.0707100
v 0.4292900 -0.6000000 -0.0707100
v 0.4076100 -0.6000000 -0.0382700
v 0.4292900 -0.1000000 -0.0707100
v 0.4617300 -0.1000000 -0.0923900
v 0.4617300 -0.6000000 -0.0923900
v 0.4292900 -0.6000000 -0.0707100
v 0.4617300 -0.1000000 -0.0923900
v 0.5000000 -0.1000000 -0.1000000
v 0.5000000 -0.6000000 -0.1000000
v 0.4617300 -0.6000000 -0.0923900
v 0.5000000 -0.1000000 -0.1000000
v 0.5382700 -0.1000000 -0.0923900
v 0.5382700 -0.6000000 -0.0923900
v 0.5000000 -0.6000000 -0.1000000
v 0.5382700 -0.1000000 -0.0923900
v 0.5707100 -0.1000000 -0.0707100
v 0.5707100 -0.6000000 -0.0707100
v 0.5382700 -0.6000000 -0.0923900
v 0.5707100 -0.1000000 -0.0707100
v 0.5923900 -0.1000000 -0.0382700
v 0.5923900 -0.6000000 -0.0382700
v 0.5707100 -0.6000000 -0.0707100
v 0.5923900 -0.1000000 -0.0382700
v 0.6000000 -0.1000000 0.0000000
v 0.6000000 -0.6000000 0.0000000
v 0.5923900 -0.6000000 -0.0382700
v -0.9000000 -0.1000000 0.1500000
v -0.9000000 -0.1000000 -0.1500000
v 0.9000000 -0.1000000 -0.1500000
v 0.9000000 -0.1000000 0.1500000
v -1.0000000 -0.1000000 -0.2500000
v -1.0000000 -0.0000000 -0.2500000
v 1.0000000 -0.0000000 -0.2500000
v 1.0000000 -0.1000000 -0.2500000
v -0.6000000 0.1000000 0.0000000
v -0.6114150 0.1000000 0.0574050
v -0.6114150 -0.0000000 0.0574050
v -0.6000000 -0.0000000 0.0000000
v -0.6114150 0.1000000 0.0574050
v -0.6439350 0.1000000 0.1060650
v -0.6439350 -0.0000000 0.1060650
v -0.6114150 -0.0000000 0.0574050
v -0.6439350 0.1000000 0.1060650
v -0.6925950 0.1000000 0.1385850
v -0.6925950 -0.0000000 0.1385850
v -0.6439350 -0.0000000 0.1060650
v -0.6925950 0.1000000 0.1385850
v -0.7500000 0.1000000 0.1500000
v -0.7500000 -0.0000000 0.1500000
v -0.6925950 -0.0000000 0.1385850
v -0.7500000 0.1000000 0.1500000
v -0.8074050 0.1000000 0.1385850
v -0.8074050 -0.0000000 0.1385850
v -0.7500000 -0.0000000 0.1500000
v -0.8074050 0.1000000 0.1385850
v -0.8560650 0.1000000 0.1060650
v -0.8560650 -0.0000000 0.1060650
v -0.8074050 -0.0000000 0.1385850
v -0.8560650 0.1000000 0.1060650
v -0.8885850 0.1000000 0.0574050
v -0.8885850 -0.0000000 0.0574050
v -0.8560650 -0.0000000 0.1060650
v -0.8885850 0.1000000 0.0574050
v -0.9000000 0.1000000 0.0000000
v -0.9000000 -0.0000000 0.0000000
v -0.8885850 -0.0000000 0.0574050
v -0.9000000 0.1000000 0.0000000
v -0.8885850 0.1000000 -0.0574050
v -0.8885850 -0.0000000 -0.0574050
v -0.9000000 -0.0000000 0.0000000
v -0.8885850 0.1000000 -0.0574050
v -0.8560650 0.1000000 -0.1060650
v -0.8560650 -0.0000000 -0.1060650
v -0.8885850 -0.0000000 -0.0574050
v -0.8560650 0.1000000 -0.1060650
v -0.8074050 0.1000000 -0.1385850
v -0.8074050 -0.0000000 -0.1385850
v -0.8560650 -0.0000000 -0.1060650
v -0.8074050 0.1000000 -0.1385850
v -0.7500000 0.1000000 -0.1500000
v -0.7500000 -0.0000000 -0.1500000
v -0.8074050 -0.0000000 -0.1385850
v -0.7500000 0.1000000 -0.1500000
v -0.6925950 0.1000000 -0.1385850
v -0.6925950 -0.0000000 -0.1385850
v -0.7500000 -0.0000000 -0.1500000
v -0.6925950 0.1000000 -0.1385850
v -0.6439350 0.1000000 -0.1060650
v -0.6439350 -0.0000000 -0.1060650
v -0.6925950 -0.0000000 -0.1385850
v -0.6439350 0.1000000 -0.1060650
v -0.6114150 0.1000000 -0.0574050
v -0.6114150 -0.0000000 -0.0574050
v -0.6439350 -0.0000000 -0.1060650
v -0.6114150 0.1000000 -0.0574050
v -0.6000000 0.1000000 0.0000000
v -0.6000000 -0.0000000 0.0000000
v -0.6114150 -0.0000000 -0.0574050
v -0.6114150 0.1000000 0.0574050
v -0.6000000 0.1000000 0.0000000
v -0.7500000 0.1000000 0.0000000
v -0.6439350 0.1000000 0.1060650
v -0.6114150 0.1000000 0.0574050
v -0.7500000 0.1000000 0.0000000
v -0.6925950 0.1000000 0.1385850
v -0.6439350 0.1000000 0.1060650
v -0.7500000 0.1000000 0.0000000
v -0.7500000 0.1000000 0.1500000
v -0.6925950 0.1000000 0.1385850
v -0.7500000 0.1000000 0.0000000
v -0.8074050 0.1000000 0.1385850
v -0.7500000 0.1000000 0.1500000
v -0.7500000 0.1000000 0.0000000
v -0.8560650 0.1000000 0.1060650
v -0.8074050 0.1000000 0.1385850
v -0.7500000 0.1000000 0.0000000
v -0.8885850 0.1000000 0.0574050
v -0.8560650 0.1000000 0.1060650
v -0.7500000 0.1000000 0.0000000
v -0.9000000 0.1000000 0.0000000
v -0.8885850 0.1000000 0.0574050
v -0.7500000 0.1000000 0.0000000
v -0.8885850 0.1000000 -0.0574050
v -0.9000000 0.1000000 0.0000000
v -0.7500000 0.1000000 0.0000000
v -0.8560650 0.1000000 -0.1060650
v -0.8885850 0.1000000 -0.0574050
v -0.7500000 0.1000000 0.0000000
v -0.8074050 0.1000000 -0.1385850
v -0.8560650 0.1000000 -0.1060650
v -0.7500000 0.1000000 0.0000000
v -0.7500000 0.1000000 -0.1500000
v -0.8074050 0.1000000 -0.1385850
v -0.7500000 0.1000000 0.0000000
v -0.6925950 0.1000000 -0.1385850
v -0.7500000 0.1000000 -0.1500000
v -0.7500000 0.1000000 0.0000000
v -0.6439350 0.1000000 -0.1060650
v -0.6925950 0.1000000 -0.1385850
v -0.7500000 0.1000000 0.0000000
v -0.6114150 0.1000000 -0.0574050
v -0.6439350 0.1000000 -0.1060650
v -0.7500000 0.1000000 0.0000000
v -0.6000000 0.1000000 0.0000000
v -0.6114150 0.1000000 -0.0574050
v -0.7500000 0.1000000 0.0000000
v -0.1000000 0.1000000 0.0000000
v -0.1114150 0.1000000 0.0574050
v -0.1114150 -0.0000000 0.0574050
v -0.1000000 -0.0000000 0.0000000
v -0.1114150 0.1000000 0.0574050
v -0.1439350 0.1000000 0.1060650
v -0.1439350 -0.0000000 0.1060650
v -0.1114150 -0.0000000 0.0574050
v -0.1439350 0.1000000 0.1060650
v -0.1925950 0.1000000 0.1385850
v -0.1925950 -0.0000000 0.1385850
v -0.1439350 -0.0000000 0.1060650
v -0.1925950 0.1000000 0.1385850
v -0.2500000 0.1000000 0.1500000
v -0.2500000 -0.0000000 0.1500000
v -0.1925950 -0.0000000 0.1385850
v -0.2500000 0.1000000 0.1500000
v -0.3074050 0.1000000 0.1385850
v -0.3074050 -0.0000000 0.1385850
v -0.2500000 -0.0000000 0.1500000
v -0.3074050 0.1000000 0.1385850
v -0.3560650 0.1000000 0.1060650
v -0.3560650 -0.0000000 0.1060650
v -0.3074050 -0.0000000 0.1385850
v -0.3560650 0.1000000 0.1060650
v -0.3885850 0.1000000 0.0574050
v -0.3885850 -0.0000000 0.0574050
v -0.3560650 -0.0000000 0.1060650
v -0.3885850 0.1000000 0.0574050
v -0.4000000 0.1000000 0.0000000
v -0.4000000 -0.0000000 0.0000000
v -0.3885850 -0.0000000 0.0574050
v -0.4000000 0.1000000 0.0000000
v -0.3885850 0.1000000 -0.0574050
v -0.3885850 -0.0000000 -0.0574050
v -0.4000000 -0.0000000 0.0000000
v -0.3885850 0.1000000 -0.0574050
v -0.3560650 0.1000000 -0.1060650
v -0.3560650 -0.0000000 -0.1060650
v -0.3885850 -0.0000000 -0.0574050
v -0.3560650 0.1000000 -0.1060650
v -0.3074050 0.1000000 -0.1385850
v -0.3074050 -0.0000000 -0.1385850
v -0.3560650 -0.0000000 -0.1060650
v -0.3074050 0.1000000 -0.1385850
v -0.2500000 0.1000000 -0.1500000
v -0.2500000 -0.0000000 -0.1500000
v -0.3074050 -0.0000000 -0.1385850
v -0.2500000 0.1000000 -0.1500000
v -0.1925950 0.1000000 -0.1385850
v -0.1925950 -0.0000000 -0.1385850
v -0.2500000 -0.0000000 -0.1500000
v -0.1925950 0.1000000 -0.1385850
v -0.1439350 0.1000000 -0.1060650
v -0.1439350 -0.0000000 -0.1060650
v -0.1925950 -0.0000000 -0.1385850
v -0.1439350 0.1000000 -0.1060650
v -0.1114150 0.1000000 -0.0574050
v -0.1114150 -0.0000000 -0.0574050
v -0.1439350 -0.0000000 -0.1060650
v -0.1114150 0.1000000 -0.0574050
v -0.1000000 0.1000000 0.0000000
v -0.1000000 -0.0000000 0.0000000
v -0.1114150 -0.0000000 -0.0574050
v -0.1114150 0.1000000 0.0574050
v -0.1000000 0.1000000 0.0000000
v -0.2500000 0.1000000 0.0000000
v -0.1439350 0.1000000 0.1060650
v -0.1114150 0.1000000 0.0574050
v -0.2500000 0.1000000 0.0000000
v -0.1925950 0.1000000 0.1385850
v -0.1439350 0.1000000 0.1060650
v -0.2500000 0.1000000 0.0000000
v -0.2500000 0.1000000 0.1500000
v -0.1925950 0.1000000 0.1385850
v -0.2500000 0.1000000 0.0000000
v -0.3074050 0.1000000 0.1385850
v -0.2500000 0.1000000 0.1500000
v -0.2500000 0.1000000 0.0000000
v -0.3560650 0.1000000 0.1060650
v -0.3074050 0.1000000 0.1385850
v -0.2500000 0.1000000 0.0000000
v -0.3885850 0.1000000 0.0574050
v -0.3560650 0.1000000 0.1060650
v -0.2500000 0.1000000 0.0000000
v -0.4000000 0.1000000 0.0000000
v -0.3885850 0.1000000 0.0574050
v -0.2500000 0.1000000 0.0000000
v -0.3885850 0.1000000 -0.0574050
v -0.4000000 0.1000000 0.0000000
v -0.2500000 0.1000000 0.0000000
v -0.3560650 0.1000000 -0.1060650
v -0.3885850 0.1000000 -0.0574050
v -0.2500000 0.1000000 0.0000000
v -0.3074050 0.1000000 -0.1385850
v -0.3560650 0.1000000 -0.1060650
v -0.2500000 0.1000000 0.0000000
v -0.2500000 0.1000000 -0.1500000
v -0.3074050 0.1000000 -0.1385850
v -0.2500000 0.1000000 0.0000000
v -0.1925950 0.1000000 -0.1385850
v -0.2500000 0.1000000 -0.1500000
v -0.2500000 0.1000000 0.0000000
v -0.1439350 0.1000000 -0.1060650
v -0.1925950 0.1000000 -0.1385850
v -0.2500000 0.1000000 0.0000000
v -0.1114150 0.1000000 -0.0574050
v -0.1439350 0.1000000 -0.1060650
v -0.2500000 0.1000000 0.0000000
v -0.1000000 0.1000000 0.0000000
v -0.1114150 0.1000000 -0.0574050
v -0.2500000 0.1000000 0.0000000
v 0.4000000 0.1000000 0.0000000
v 0.3885850 0.1000000 0.0574050
v 0.3885850 -0.0000000 0.0574050
v 0.4000000 -0.0000000 0.0000000
v 0.3885850 0.1000000 0.0574050
v 0.3560650 0.1000000 0.1060650
v 0.3560650 -0.0000000 0.1060650
v 0.3885850 -0.0000000 0.0574050
v 0.3560650 0.1000000 0.1060650
v 0.3074050 0.1000000 0.1385850
v 0.3074050 -0.0000000 0.1385850
v 0.3560650 -0.0000000 0.1060650
v 0.3074050 0.1000000 0.1385850
v 0.2500000 0.1000000 0.1500000
v 0.2500000 -0.0000000 0.1500000
v 0.3074050 -0.0000000 0.1385850
v 0.2500000 0.1000000 0.1500000
v 0.1925950 0.1000000 0.1385850
v 0.1925950 -0.0000000 0.1385850
v 0.2500000 -0.0000000 0.1500000
v 0.1925950 0.1000000 0.1385850
v 0.1439350 0.1000000 0.1060650
v 0.1439350 -0.0000000 0.1060650
v 0.1925950 -0.0000000 0.1385850
v 0.1439350 0.1000000 0.1060650
v 0.1114150 0.1000000 0.0574050
v 0.1114150 -0.0000000 0.0574050
v 0.1439350 -0.0000000 0.1060650
v 0.1114150 0.1000000 0.0574050
v 0.1000000 0.1000000 0.0000000
v 0.1000000 -0.0000000 0.0000000
v 0.1114150 -0.0000000 0.0574050
v 0.1000000 0.1000000 0.0000000
v 0.1114150 0.1000000 -0.0574050
v 0.1114150 -0.0000000 -0.0574050
v 0.1000000 -0.0000000 0.0000000
v 0.1114150 0.1000000 -0.0574050
v 0.1439350 0.1000000 -0.1060650
v 0.1439350 -0.0000000 -0.1060650
v 0.1114150 -0.0000000 -0.0574050
v 0.1439350 0.1000000 -0.1060650
v 0.1925950 0.1000000 -0.1385850
v 0.1925950 -0.0000000 -0.1385850
v 0.1439350 -0.0000000 -0.1060650
v 0.1925950 0.1000000 -0.1385850
v 0.2500000 0.1000000 -0.1500000
v 0.2500000 -0.0000000 -0.1500000
v 0.1925950 -0.0000000 -0.1385850
v 0.2500000 0.1000000 -0.1500000
v 0.3074050 0.1000000 -0.1385850
v 0.3074050 -0.0000000 -0.1385850
v 0.2500000 -0.0000000 -0.1500000
v 0.3074050 0.1000000 -0.1385850
v 0.3560650 0.1000000 -0.1060650
v 0.3560650 -0.0000000 -0.1060650
v 0.3074050 -0.0000000 -0.1385850
v 0.3560650 0.1000000 -0.1060650
v 0.3885850 0.1000000 -0.0574050
v 0.3885850 -0.0000000 -0.0574050
v 0.3560650 -0.0000000 -0.1060650
v 0.3885850 0.1000000 -0.0574050
v 0.4000000 0.1000000 0.0000000
v 0.4000000 -0.0000000 0.0000000
v 0.3885850 -0.0000000 -0.0574050
v 0.3885850 0.1000000 0.0574050
v 0.4000000 0.1000000 0.0000000
v 0.2500000 0.1000000 0.0000000
v 0.3560650 0.1000000 0.1060650
v 0.3885850 0.1000000 0.0574050
v 0.2500000 0.1000000 0.0000000
v 0.3074050 0.1000000 0.1385850
v 0.3560650 0.1000000 0.1060650
v 0.2500000 0.1000000 0.0000000
v 0.2500000 0.1000000 0.1500000
v 0.3074050 0.1000000 0.1385850
v 0.2500000 0.1000000 0.0000000
v 0.1925950 0.1000000 0.1385850
v 0.2500000 0.1000000 0.1500000
v 0.2500000 0.1000000 0.0000000
v 0.1439350 0.1000000 0.1060650
v 0.1925950 0.1000000 0.1385850
v 0.2500000 0.1000000 0.0000000
v 0.1114150 0.1000000 0.0574050
v 0.1439350 0.1000000 0.1060650
v 0.2500000 0.1000000 0.0000000
v 0.1000000 0.1000000 0.0000000
v 0.1114150 0.1000000 0.0574050
v 0.2500000 0.1000000 0.0000000
v 0.1114150 0.1000000 -0.0574050
v 0.1000000 0.1000000 0.0000000
v 0.2500000 0.1000000 0.0000000
v 0.1439350 0.1000000 -0.1060650
v 0.1114150 0.1000000 -0.0574050
v 0.2500000 0.1000000 0.0000000
v 0.1925950 0.1000000 -0.1385850
v 0.1439350 0.1000000 -0.1060650
v 0.2500000 0.1000000 0.0000000
v 0.2500000 0.1000000 -0.1500000
v 0.1925950 0.1000000 -0.1385850
v 0.2500000 0.1000000 0.0000000
v 0.3074050 0.1000000 -0.1385850
v 0.2500000 0.1000000 -0.1500000
v 0.2500000 0.1000000 0.0000000
v 0.3560650 0.1000000 -0.1060650
v 0.3074050 0.1000000 -0.1385850
v 0.2500000 0.1000000 0.0000000
v 0.3885850 0.1000000 -0.0574050
v 0.3560650 0.1000000 -0.1060650
v 0.2500000 0.1000000 0.0000000
v 0.4000000 0.1000000 0.0000000
v 0.3885850 0.1000000 -0.0574050
v 0.2500000 0.1000000 0.0000000
v 0.9000000 0.1000000 0.0000000
v 0.8885850 0.1000000 0.0574050
v 0.8885850 -0.0000000 0.0574050
v 0.9000000 -0.0000000 0.0000000
v 0.8885850 0.1000000 0.0574050
v 0.8560650 0.1000000 0.1060650
v 0.8560650 -0.0000000 0.1060650
v 0.8885850 -0.0000000 0.0574050
v 0.8560650 0.1000000 0.1060650
v 0.8074050 0.1000000 0.1385850
v 0.8074050 -0.0000000 0.1385850
v 0.8560650 -0.0000000 0.1060650
v 0.8074050 0.1000000 0.1385850
v 0.7500000 0.1000000 0.1500000
v 0.7500000 -0.0000000 0.1500000
v 0.8074050 -0.0000000 0.1385850
v 0.7500000 0.1000000 0.1500000
v 0.6925950 0.1000000 0.1385850
v 0.6925950 -0.0000000 0.1385850
v 0.7500000 -0.0000000 0.1500000
v 0.6925950 0.1000000 0.1385850
v 0.6439350 0.1000000 0.1060650
v 0.6439350 -0.0000000 0.1060650
v 0.6925950 -0.0000000 0.1385850
v 0.6439350 0.1000000 0.1060650
v 0.6114150 0.1000000 0.0574050
v 0.6114150 -0.0000000 0.0574050
v 0.6439350 -0.0000000 0.1060650
v 0.6114150 0.1000000 0.0574050
v 0.6000000 0.1000000 0.0000000
v 0.6000000 -0.0000000 0.0000000
v 0.6114150 -0.0000000 0.0574050
v 0.6000000 0.1000000 0.0000000
v 0.6114150 0.1000000 -0.0574050
v 0.6114150 -0.0000000 -0.0574050
v 0.6000000 -0.0000000 0.0000000
v 0.6114150 0.1000000 -0.0574050
v 0.6439350 0.1000000 -0.1060650
v 0.6439350 -0.0000000 -0.1060650
v 0.6114150 -0.0000000 -0.0574050
v 0.6439350 0.1000000 -0.1060650
v 0.6925950 0.1000000 -0.1385850
v 0.6925950 -0.0000000 -0.1385850
v 0.6439350 -0.0000000 -0.1060650
v 0.6925950 0.1000000 -0.1385850
v 0.7500000 0.1000000 -0.1500000
v 0.7500000 -0.0000000 -0.1500000
v 0.6925950 -0.0000000 -0.1385850
v 0.7500000 0.1000000 -0.1500000
v 0.8074050 0.1000000 -0.1385850
v 0.8074050 -0.0000000 -0.1385850
v 0.7500000 -0.0000000 -0.1500000
v 0.8074050 0.1000000 -0.1385850
v 0.8560650 0.1000000 -0.1060650
v 0.8560650 -0.0000000 -0.1060650
v 0.8074050 -0.0000000 -0.1385850
v 0.8560650 0.1000000 -0.1060650
v 0.8885850 0.1000000 -0.0574050
v 0.8885850 -0.0000000 -0.0574050
v 0.8560650 -0.0000000 -0.1060650
v 0.8885850 0.1000000 -0.0574050
v 0.9000000 0.1000000 0.0000000
v 0.9000000 -0.0000000 0.0000000
v 0.8885850 -0.0000000 -0.0574050
v 0.8885850 0.1000000 0.0574050
v 0.9000000 0.1000000 0.0000000
v 0.7500000 0.1000000 0.0000000
v 0.8560650 0.1000000 0.1060650
v 0.8885850 0.1000000 0.0574050
v 0.7500000 0.1000000 0.0000000
v 0.8074050 0.1000000 0.1385850
v 0.8560650 0.1000000 0.1060650
v 0.7500000 0.1000000 0.0000000
v 0.7500000 0.1000000 0.1500000
v 0.8074050 0.1000000 0.1385850
v 0.7500000 0.1000000 0.0000000
v 0.6925950 0.1000000 0.1385850
v 0.7500000 0.1000000 0.1500000
v 0.7500000 0.1000000 0.0000000
v 0.6439350 0.1000000 0.1060650
v 0.6925950 0.1000000 0.1385850
v 0.7500000 0.1000000 0.0000000
v 0.6114150 0.1000000 0.0574050
v 0.6439350 0.1000000 0.1060650
v 0.7500000 0.1000000 0.0000000
v 0.6000000 0.1000000 0.0000000
v 0.6114150 0.1000000 0.0574050
v 0.7500000 0.1000000 0.0000000
v 0.6114150 0.1000000 -0.0574050
v 0.6000000 0.1000000 0.0000000
v 0.7500000 0.1000000 0.0000000
v 0.6439350 0.1000000 -0.1060650
v 0.6114150 0.1000000 -0.0574050
v 0.7500000 0.1000000 0.0000000
v 0.6925950 0.1000000 -0.1385850
v 0.6439350 0.1000000 -0.1060650
v 0.7500000 0.1000000 0.0000000
v 0.7500000 0.1000000 -0.1500000
v 0.6925950 0.1000000 -0.1385850
v 0.7500000 0.1000000 0.0000000
v 0.8074050 0.1000000 -0.1385850
v 0.7500000 0.1000000 -0.1500000
v 0.7500000 0.1000000 0.0000000
v 0.8560650 0.1000000 -0.1060650
v 0.8074050 0.1000000 -0.1385850
v 0.7500000 0.1000000 0.0000000
v 0.8885850 0.1000000 -0.0574050
v 0.8560650 0.1000000 -0.1060650
v 0.7500000 0.1000000 0.0000000
v 0.9000000 0.1000000 0.0000000
v 0.8885850 0.1000000 -0.0574050
v 0.7500000 0.1000000 0.0000000
v 1.0000000 -0.0000000 0.2500000
v 1.0000000 -0.0000000 -0.2500000
v -1.0000000 -0.0000000 -0.2500000
v -1.0000000 -0.0000000 0.2500000
s off
f 1 2 3
f 1 3 4
f 5 6 7
f 5 7 8
f 9 10 11
f 9 11 12
f 13 14 15
f 13 15 16
f 17 18 19
f 17 19 20
f 21 22 23
f 21 23 24
f 25 26 27
f 25 27 28
f 29 30 31
f 29 31 32
f 33 34 35
f 33 35 36
f 37 38 39
f 37 39 40
f 41 42 43
f 41 43 44
f 45 46 47
f 45 47 48
f 49 50 51
f 49 51 52
f 53 54 55
f 53 55 56
f 57 58 59
f 57 59 60
f 61 62 63
f 61 63 64
f 65 66 67
f 65 67 68
f 69 70 71
f 69 71 72
f 73 74 75
f 73 75 76
f 77 78 79
f 77 79 80
f 81 82 83
f 81 83 84
f 85 86 87
f 85 87 88
f 89 90 91
f 92 93 94
f 95 96 97
f 98 99 100
f 101 102 103
f 104 105 106
f 107 108 109
f 110 111 112
f 113 114 115
f 116 117 118
f 119 120 121
f 122 123 124
f 125 126 127
f 128 129 130
f 131 132 133
f 134 135 136
f 137 138 139
f 140 141 142
f 143 144 145
f 146 147 148
f 149 150 151
f 152 153 154
f 155 156 157
f 158 159 160
f 161 162 163
f 164 165 166
f 167 168 169
f 170 171 172
f 173 174 175
f 176 177 178
f 179 180 181
f 182 183 184
f 185 186 187
f 188 189 190
f 191 192 193
f 194 195 196
f 197 198 199
f 200 201 202
f 203 204 205
f 206 207 208
f 209 210 211
f 212 213 214
f 215 216 217
f 218 219 220
f 221 222 223
f 224 225 226
f 227 228 229
f 230 231 232
f 233 234 235
f 236 237 238
f 239 240 241
f 242 243 244
f 245 246 247
f 248 249 250
f 251 252 253
f 254 255 256
f 257 258 259
f 260 261 262
f 263 264 265
f 266 267 268
f 269 270 271
f 272 273 274
f 275 276 277
f 278 279 280
f 281 282 283
f 284 285 286
f 287 288 289
f 290 291 292
f 293 294 295
f 296 297 298
f 299 300 301
f 302 303 304
f 305 306 307
f 308 309 310
f 311 312 313
f 314 315 316
f 317 318 319
f 320 321 322
f 323 324 325
f 326 327 328
f 329 330 331
f 329 331 332
f 333 334 335
f 333 335 336
f 337 338 339
f 337 339 340
f 341 342 343
f 341 343 344
f 345 346 347
f 345 347 348
f 349 350 351
f 349 351 352
f 353 354 355
f 353 355 356
f 357 358 359
f 357 359 360
f 361 362 363
f 361 363 364
f 365 366 367
f 365 367 368
f 369 370 371
f 369 371 372
f 373 374 375
f 373 375 376
f 377 378 379
f 377 379 380
f 381 382 383
f 381 383 384
f 385 386 387
f 385 387 388
f 389 390 391
f 389 391 392
f 393 394 395
f 393 395 396
f 397 398 399
f 397 399 400
f 401 402 403
f 401 403 404
f 405 406 407
f 405 407 408
f 409 410 411
f 409 411 412
f 413 414 415
f 413 415 416
f 417 418 419
f 417 419 420
f 421 422 423
f 421 423 424
f 425 426 427
f 425 427 428
f 429 430 431
f 429 431 432
f 433 434 435
f 433 435 436
f 437 438 439
f 437 439 440
f 441 442 443
f 441 443 444
f 445 446 447
f 445 447 448
f 449 450 451
f 449 451 452
f 453 454 455
f 453 455 456
f 457 458 459
f 457 459 460
f 461 462 463
f 461 463 464
f 465 466 467
f 465 467 468
f 469 470 471
f 469 471 472
f 473 474 475
f 473 475 476
f 477 478 479
f 477 479 480
f 481 482 483
f 481 483 484
f 485 486 487
f 485 487 488
f 489 490 491
f 489 491 492
f 493 494 495
f 493 495 496
f 497 498 499
f 497 499 500
f 501 502 503
f 501 503 504
f 505 506 507
f 505 507 508
f 509 510 511
f 509 511 512
f 513 514 515
f 513 515 516
f 517 518 519
f 517 519 520
f 521 522 523
f 521 523 524
f 525 526 527
f 525 527 528
f 529 530 531
f 529 531 532
f 533 534 535
f 533 535 536
f 537 538 539
f 537 539 540
f 541 542 543
f 541 543 544
f 545 546 547
f 545 547 548
f 549 550 551
f 549 551 552
f 553 554 555
f 553 555 556
f 557 558 559
f 557 559 560
f 561 562 563
f 561 563 564
f 565 566 567
f 565 567 568
f 569 570 571
f 569 571 572
f 573 574 575
f 573 575 576
f 577 578 579
f 577 579 580
f 581 582 583
f 581 583 584
f 585 586 587
f 588 589 590
f 591 592 593
f 594 595 596
f 597 598 599
f 600 601 602
f 603 604 605
f 606 607 608
f 609 610 611
f 612 613 614
f 615 616 617
f 618 619 620
f 621 622 623
f 624 625 626
f 627 628 629
f 630 631 632
f 633 634 635
f 633 635 636
f 637 638 639
f 637 639 640
f 641 642 643
f 641 643 644
f 645 646 647
f 645 647 648
f 649 650 651
f 649 651 652
f 653 654 655
f 653 655 656
f 657 658 659
f 657 659 660
f 661 662 663
f 661 663 664
f 665 666 667
f 665 667 668
f 669 670 671
f 669 671 672
f 673 674 675
f 673 675 676
f 677 678 679
f 677 679 680
f 681 682 683
f 681 683 684
f 685 686 687
f 685 687 688
f 689 690 691
f 689 691 692
f 693 694 695
f 693 695 696
f 697 698 699
f 697 699 700
f 701 702 703
f 701 703 704
f 705 706 707
f 705 707 708
f 709 710 711
f 709 711 712
f 713 714 715
f 713 715 716
f 717 718 719
f 717 719 720
f 721 722 723
f 721 723 724
f 725 726 727
f 725 727 728
f 729 730 731
f 729 731 732
f 733 734 735
f 733 735 736
f 737 738 739
f 737 739 740
f 741 742 743
f 741 743 744
f 745 746 747
f 745 747 748
f 749 750 751
f 749 751 752
f 753 754 755
f 753 755 756
f 757 758 759
f 757 759 760
f 761 762 763
f 761 763 764
f 765 766 767
f 765 767 768
f 769 770 771
f 769 771 772
f 773 774 775
f 773 775 776
f 777 778 779
f 777 779 780
f 781 782 783
f 781 783 784
f 785 786 787
f 785 787 788
f 789 790 791
f 789 791 792
f 793 794 795
f 793 795 796
f 797 798 799
f 797 799 800
f 801 802 803
f 801 803 804
f 805 806 807
f 805 807 808
f 809 810 811
f 809 811 812
f 813 814 815
f 813 815 816
f 817 818 819
f 817 819 820
f 821 822 823
f 821 823 824
f 825 826 827
f 825 827 828
f 829 830 831
f 829 831 832
f 833 834 835
f 833 835 836
f 837 838 839
f 837 839 840
f 841 842 843
f 841 843 844
f 845 846 847
f 845 847 848
f 849 850 851
f 849 851 852
f 853 854 855
f 853 855 856
f 857 858 859
f 857 859 860
f 861 862 863
f 861 863 864
f 865 866 867
f 865 867 868
f 869 870 871
f 869 871 872
f 873 874 875
f 873 875 876
f 877 878 879
f 877 879 880
f 881 882 883
f 881 883 884
f 885 886 887
f 885 887 888
f 889 890 891
f 892 893 894
f 895 896 897
f 898 899 900
f 901 902 903
f 904 905 906
f 907 908 909
f 910 911 912
f 913 914 915
f 916 917 918
f 919 920 921
f 922 923 924
f 925 926 927
f 928 929 930
f 931 932 933
f 934 935 936
f 937 938 939
f 937 939 940
f 941 942 943
f 941 943 944
f 945 946 947
f 945 947 948
f 949 950 951
f 949 951 952
f 953 954 955
f 953 955 956
f 957 958 959
f 957 959 960
f 961 962 963
f 961 963 964
f 965 966 967
f 965 967 968
f 969 970 971
f 969 971 972
f 973 974 975
f 973 975 976
f 977 978 979
f 977 979 980
f 981 982 983
f 981 983 984
f 985 986 987
f 985 987 988
f 989 990 991
f 989 991 992
f 993 994 995
f 993 995 996
f 997 998 999
f 997 999 1000
f 1001 1002 1003
f 1001 1003 1004
f 1005 1006 1007
f 1005 1007 1008
f 1009 1010 1011
f 1009 1011 1012
f 1013 1014 1015
f 1013 1015 1016
f 1017 1018 1019
f 1017 1019 1020
f 1021 1022 1023
f 1021 1023 1024
f 1025 1026 1027
f 1025 1027 1028
f 1029 1030 1031
f 1029 1031 1032
f 1033 1034 1035
f 1033 1035 1036
f 1037 1038 1039
f 1037 1039 1040
f 1041 1042 1043
f 1041 1043 1044
f 1045 1046 1047
f 1045 1047 1048
f 1049 1050 1051
f 1049 1051 1052
f 1053 1054 1055
f 1053 1055 1056
f 1057 1058 1059
f 1057 1059 1060
f 1061 1062 1063
f 1061 1063 1064
f 1065 1066 1067
f 1065 1067 1068
f 1069 1070 1071
f 1069 1071 1072
f 1073 1074 1075
f 1073 1075 1076
f 1077 1078 1079
f 1077 1079 1080
f 1081 1082 1083
f 1081 1083 1084
f 1085 1086 1087
f 1085 1087 1088
f 1089 1090 1091
f 1089 1091 1092
f 1093 1094 1095
f 1093 1095 1096
f 1097 1098 1099
f 1097 1099 1100
f 1101 1102 1103
f 1101 1103 1104
f 1105 1106 1107
f 1105 1107 1108
f 1109 1110 1111
f 1109 1111 1112
f 1113 1114 1115
f 1113 1115 1116
f 1117 1118 1119
f 1117 1119 1120
f 1121 1122 1123
f 1121 1123 1124
f 1125 1126 1127
f 1125 1127 1128
f 1129 1130 1131
f 1129 1131 1132
f 1133 1134 1135
f 1133 1135 1136
f 1137 1138 1139
f 1137 1139 1140
f 1141 1142 1143
f 1141 1143 1144
f 1145 1146 1147
f 1145 1147 1148
f 1149 1150 1151
f 1149 1151 1152
f 1153 1154 1155
f 1153 1155 1156
f 1157 1158 1159
f 1157 1159 1160
f 1161 1162 1163
f 1161 1163 1164
f 1165 1166 1167
f 1165 1167 1168
f 1169 1170 1171
f 1169 1171 1172
f 1173 1174 1175
f 1173 1175 1176
f 1177 1178 1179
f 1177 1179 1180
f 1181 1182 1183
f 1181 1183 1184
f 1185 1186 1187
f 1185 1187 1188
f 1189 1190 1191
f 1189 1191 1192
f 1193 1194 1195
f 1196 1197 1198
f 1199 1200 1201
f 1202 1203 1204
f 1205 1206 1207
f 1208 1209 1210
f 1211 1212 1213
f 1214 1215 1216
f 1217 1218 1219
f 1220 1221 1222
f 1223 1224 1225
f 1226 1227 1228
f 1229 1230 1231
f 1232 1233 1234
f 1235 1236 1237
f 1238 1239 1240
f 1241 1242 1243
f 1241 1243 1244
f 1245 1246 1247
f 1245 1247 1248
f 1249 1250 1251
f 1249 1251 1252
f 1253 1254 1255
f 1253 1255 1256
f 1257 1258 1259
f 1257 1259 1260
f 1261 1262 1263
f 1261 1263 1264
f 1265 1266 1267
f 1265 1267 1268
f 1269 1270 1271
f 1269 1271 1272
f 1273 1274 1275
f 1273 1275 1276
f 1277 1278 1279
f 1277 1279 1280
f 1281 1282 1283
f 1281 1283 1284
f 1285 1286 1287
f 1285 1287 1288
f 1289 1290 1291
f 1289 1291 1292
f 1293 1294 1295
f 1293 1295 1296
f 1297 1298 1299
f 1297 1299 1300
f 1301 1302 1303
f 1301 1303 1304
f 1305 1306 1307
f 1305 1307 1308
f 1309 1310 1311
f 1309 1311 1312
f 1313 1314 1315
f 1313 1315 1316
f 1317 1318 1319
f 1317 1319 1320
f 1321 1322 1323
f 1321 1323 1324
f 1325 1326 1327
f 1325 1327 1328
f 1329 1330 1331
f 1329 1331 1332
f 1333 1334 1335
f 1333 1335 1336
f 1337 1338 1339
f 1337 1339 1340
f 1341 1342 1343
f 1341 1343 1344
f 1345 1346 1347
f 1345 1347 1348
f 1349 1350 1351
f 1349 1351 1352
f 1353 1354 1355
f 1353 1355 1356
f 1357 1358 1359
f 1357 1359 1360
f 1361 1362 1363
f 1361 1363 1364
f 1365 1366 1367
f 1365 1367 1368
f 1369 1370 1371
f 1369 1371 1372
f 1373 1374 1375
f 1373 1375 1376
f 1377 1378 1379
f 1377 1379 1380
f 1381 1382 1383
f 1381 1383 1384
f 1385 1386 1387
f 1385 1387 1388
f 1389 1390 1391
f 1389 1391 1392
f 1393 1394 1395
f 1393 1395 1396
f 1397 1398 1399
f 1397 1399 1400
f 1401 1402 1403
f 1401 1403 1404
f 1405 1406 1407
f 1405 1407 1408
f 1409 1410 1411
f 1409 1411 1412
f 1413 1414 1415
f 1413 1415 1416
f 1417 1418 1419
f 1417 1419 1420
f 1421 1422 1423
f 1421 1423 1424
f 1425 1426 1427
f 1425 1427 1428
f 1429 1430 1431
f 1429 1431 1432
f 1433 1434 1435
f 1433 1435 1436
f 1437 1438 1439
f 1437 1439 1440
f 1441 1442 1443
f 1441 1443 1444
f 1445 1446 1447
f 1445 1447 1448
f 1449 1450 1451
f 1449 1451 1452
f 1453 1454 1455
f 1453 1455 1456
f 1457 1458 1459
f 1457 1459 1460
f 1461 1462 1463
f 1461 1463 1464
f 1465 1466 1467
f 1465 1467 1468
f 1469 1470 1471
f 1469 1471 1472
f 1473 1474 1475
f 1473 1475 1476
f 1477 1478 1479
f 1477 1479 1480
f 1481 1482 1483
f 1481 1483 1484
f 1485 1486 1487
f 1485 1487 1488
f 1489 1490 1491
f 1489 1491 1492
f 1493 1494 1495
f 1493 1495 1496
f 1497 1498 1499
f 1497 1499 1500
f 1501 1502 1503
f 1504 1505 1506
f 1507 1508 1509
f 1510 1511 1512
f 1513 1514 1515
f 1516 1517 1518
f 1519 1520 1521
f 1522 1523 1524
f 1525 1526 1527
f 1528 1529 1530
f 1531 1532 1533
f 1534 1535 1536
f 1537 1538 1539
f 1540 1541 1542
f 1543 1544 1545
f 1546 1547 1548
f 1549 1550 1551
f 1549 1551 1552
f 1553 1554 1555
f 1553 1555 1556
f 1557 1558 1559
f 1557 1559 1560
f 1561 1562 1563
f 1561 1563 1564
f 1565 1566 1567
f 1565 1567 1568
f 1569 1570 1571
f 1569 1571 1572
f 1573 1574 1575
f 1573 1575 1576
f 1577 1578 1579
f 1577 1579 1580
f 1581 1582 1583
f 1581 1583 1584
f 1585 1586 1587
f 1585 1587 1588
f 1589 1590 1591
f 1589 1591 1592
f 1593 1594 1595
f 1593 1595 1596
f 1597 1598 1599
f 1597 1599 1600
f 1601 1602 1603
f 1601 1603 1604
f 1605 1606 1607
f 1605 1607 1608
f 1609 1610 1611
f 1609 1611 1612
f 1613 1614 1615
f 1616 1617 1618
f 1619 1620 1621
f 1622 1623 1624
f 1625 1626 1627
f 1628 1629 1630
f 1631 1632 1633
f 1634 1635 1636
f 1637 1638 1639
f 1640 1641 1642
f 1643 1644 1645
f 1646 1647 1648
f 1649 1650 1651
f 1652 1653 1654
f 1655 1656 1657
f 1658 1659 1660
f 1661 1662 1663
f 1661 1663 1664
f 1665 1666 1667
f 1665 1667 1668
f 1669 1670 1671
f 1669 1671 1672
f 1673 1674 1675
f 1673 1675 1676
f 1677 1678 1679
f 1677 1679 1680
f 1681 1682 1683
f 1681 1683 1684
f 1685 1686 1687
f 1685 1687 1688
f 1689 1690 1691
f 1689 1691 1692
f 1693 1694 1695
f 1693 1695 1696
f 1697 1698 1699
f 1697 1699 1700
f 1701 1702 1703
f 1701 1703 1704
f 1705 1706 1707
f 1705 1707 1708
f 1709 1710 1711
f 1709 1711 1712
f 1713 1714 1715
f 1713 1715 1716
f 1717 1718 1719
f 1717 1719 1720
f 1721 1722 1723
f 1721 1723 1724
f 1725 1726 1727
f 1728 1729 1730
f 1731 1732 1733
f 1734 1735 1736
f 1737 1738 1739
f 1740 1741 1742
f 1743 1744 1745
f 1746 1747 1748
f 1749 1750 1751
f 1752 1753 1754
f 1755 1756 1757
f 1758 1759 1760
f 1761 1762 1763
f 1764 1765 1766
f 1767 1768 1769
f 1770 1771 1772
f 1773 1774 1775
f 1773 1775 1776
f 1777 1778 1779
f 1777 1779 1780
f 1781 1782 1783
f 1781 1783 1784
f 1785 1786 1787
f 1785 1787 1788
f 1789 1790 1791
f 1789 1791 1792
f 1793 1794 1795
f 1793 1795 1796
f 1797 1798 1799
f 1797 1799 1800
f 1801 1802 1803
f 1801 1803 1804
f 1805 1806 1807
f 1805 1807 1808
f 1809 1810 1811
f 1809 1811 1812
f 1813 1814 1815
f 1813 1815 1816
f 1817 1818 1819
f 1817 1819 1820
f 1821 1822 1823
f 1821 1823 1824
f 1825 1826 1827
f 1825 1827 1828
f 1829 1830 1831
f 1829 1831 1832
f 1833 1834 1835
f 1833 1835 1836
f 1837 1838 1839
f 1837 1839 1840
f 1841 1842 1843
f 1841 1843 1844
f 1845 1846 1847
f 1845 1847 1848
f 1849 1850 1851
f 1849 1851 1852
f 1853 1854 1855
f 1853 1855 1856
f 1857 1858 1859
f 1857 1859 1860
f 1861 1862 1863
f 1861 1863 1864
f 1865 1866 1867
f 1865 1867 1868
f 1869 1870 1871
f 1869 1871 1872
f 1873 1874 1875
f 1873 1875 1876
f 1877 1878 1879
f 1877 1879 1880
f 1881 1882 1883
f 1881 1883 1884
f 1885 1886 1887
f 1885 1887 1888
f 1889 1890 1891
f 1889 1891 1892
f 1893 1894 1895
f 1893 1895 1896
f 1897 1898 1899
f 1897 1899 1900
f 1901 1902 1903
f 1901 1903 1904
f 1905 1906 1907
f 1905 1907 1908
f 1909 1910 1911
f 1912 1913 1914
f 1915 1916 1917
f 1918 1919 1920
f 1921 1922 1923
f 1924 1925 1926
f 1927 1928 1929
f 1930 1931 1932
f 1933 1934 1935
f 1936 1937 1938
f 1939 1940 1941
f 1942 1943 1944
f 1945 1946 1947
f 1948 1949 1950
f 1951 1952 1953
f 1954 1955 1956
f 1957 1958 1959
f 1957 1959 1960
f 1961 1962 1963
f 1961 1963 1964
f 1965 1966 1967
f 1965 1967 1968
f 1969 1970 1971
f 1969 1971 1972
f 1973 1974 1975
f 1973 1975 1976
f 1977 1978 1979
f 1977 1979 1980
f 1981 1982 1983
f 1981 1983 1984
f 1985 1986 1987
f 1985 1987 1988
f 1989 1990 1991
f 1989 1991 1992
f 1993 1994 1995
f 1993 1995 1996
f 1997 1998 1999
f 1997 1999 2000
f 2001 2002 2003
f 2001 2003 2004
f 2005 2006 2007
f 2005 2007 2008
f 2009 2010 2011
f 2009 2011 2012
f 2013 2014 2015
f 2013 2015 2016
f 2017 2018 2019
f 2017 2019 2020
f 2021 2022 2023
f 2024 2025 2026
f 2027 2028 2029
f 2030 2031 2032
f 2033 2034 2035
f 2036 2037 2038
f 2039 2040 2041
f 2042 2043 2044
f 2045 2046 2047
f 2048 2049 2050
f 2051 2052 2053
f 2054 2055 2056
f 2057 2058 2059
f 2060 2061 2062
f 2063 2064 2065
f 2066 2067 2068
f 2069 2070 2071
f 2069 2071 2072
f 2073 2074 2075
f 2073 2075 2076
f 2077 2078 2079
f 2077 2079 2080
f 2081 2082 2083
f 2081 2083 2084
f 2085 2086 2087
f 2085 2087 2088
f 2089 2090 2091
f 2089 2091 2092
f 2093 2094 2095
f 2093 2095 2096
f 2097 2098 2099
f 2097 2099 2100
f 2101 2102 2103
f 2101 2103 2104
f 2105 2106 2107
f 2105 2107 2108
f 2109 2110 2111
f 2109 2111 2112
f 2113 2114 2115
f 2113 2115 2116
f 2117 2118 2119
f 2117 2119 2120
f 2121 2122 2123
f 2121 2123 2124
f 2125 2126 2127
f 2125 2127 2128
f 2129 2130 2131
f 2129 2131 2132
f 2133 2134 2135
f 2136 2137 2138
f 2139 2140 2141
f 2142 2143 2144
f 2145 2146 2147
f 2148 2149 2150
f 2151 2152 2153
f 2154 2155 2156
f 2157 2158 2159
f 2160 2161 2162
f 2163 2164 2165
f 2166 2167 2168
f 2169 2170 2171
f 2172 2173 2174
f 2175 2176 2177
f 2178 2179 2180
f 2181 2182 2183
f 2181 2183 2184
f 2185 2186 2187
f 2185 2187 2188
f 2189 2190 2191
f 2189 2191 2192
f 2193 2194 2195
f 2193 2195 2196
f 2197 2198 2199
f 2197 2199 2200
f 2201 2202 2203
f 2201 2203 2204
f 2205 2206 2207
f 2205 2207 2208
f 2209 2210 2211
f 2209 2211 2212
f 2213 2214 2215
f 2213 2215 2216
f 2217 2218 2219
f 2217 2219 2220
f 2221 2222 2223
f 2221 2223 2224
f 2225 2226 2227
f 2225 2227 2228
f 2229 2230 2231
f 2229 2231 2232
f 2233 2234 2235
f 2233 2235 2236
f 2237 2238 2239
f 2237 2239 2240
f 2241 2242 2243
f 2241 2243 2244
f 2245 2246 2247
f 2248 2249 2250
f 2251 2252 2253
f 2254 2255 2256
f 2257 2258 2259
f 2260 2261 2262
f 2263 2264 2265
f 2266 2267 2268
f 2269 2270 2271
f 2272 2273 2274
f 2275 2276 2277
f 2278 2279 2280
f 2281 2282 2283
f 2284 2285 2286
f 2287 2288 2289
f 2290 2291 2292
f 2293 2294 2295
f 2293 2295 2296
