# Baked from official LDraw part 30413.dat
o ldraw_30413
v 0.0000000 -0.6000000 0.0000000
v 0.1000000 -0.6000000 0.0000000
v 0.0923900 -0.6000000 0.0382700
v 0.0000000 -0.6000000 0.0000000
v 0.0923900 -0.6000000 0.0382700
v 0.0707100 -0.6000000 0.0707100
v 0.0000000 -0.6000000 0.0000000
v 0.0707100 -0.6000000 0.0707100
v 0.0382700 -0.6000000 0.0923900
v 0.0000000 -0.6000000 0.0000000
v 0.0382700 -0.6000000 0.0923900
v 0.0000000 -0.6000000 0.1000000
v 0.0000000 -0.6000000 0.0000000
v 0.0000000 -0.6000000 0.1000000
v -0.0382700 -0.6000000 0.0923900
v 0.0000000 -0.6000000 0.0000000
v -0.0382700 -0.6000000 0.0923900
v -0.0707100 -0.6000000 0.0707100
v 0.0000000 -0.6000000 0.0000000
v -0.0707100 -0.6000000 0.0707100
v -0.0923900 -0.6000000 0.0382700
v 0.0000000 -0.6000000 0.0000000
v -0.0923900 -0.6000000 0.0382700
v -0.1000000 -0.6000000 0.0000000
v 0.0000000 -0.6000000 0.0000000
v -0.1000000 -0.6000000 0.0000000
v -0.0923900 -0.6000000 -0.0382700
v 0.0000000 -0.6000000 0.0000000
v -0.0923900 -0.6000000 -0.0382700
v -0.0707100 -0.6000000 -0.0707100
v 0.0000000 -0.6000000 0.0000000
v -0.0707100 -0.6000000 -0.0707100
v -0.0382700 -0.6000000 -0.0923900
v 0.0000000 -0.6000000 0.0000000
v -0.0382700 -0.6000000 -0.0923900
v 0.0000000 -0.6000000 -0.1000000
v 0.0000000 -0.6000000 0.0000000
v 0.0000000 -0.6000000 -0.1000000
v 0.0382700 -0.6000000 -0.0923900
v 0.0000000 -0.6000000 0.0000000
v 0.0382700 -0.6000000 -0.0923900
v 0.0707100 -0.6000000 -0.0707100
v 0.0000000 -0.6000000 0.0000000
v 0.0707100 -0.6000000 -0.0707100
v 0.0923900 -0.6000000 -0.0382700
v 0.0000000 -0.6000000 0.0000000
v 0.0923900 -0.6000000 -0.0382700
v 0.1000000 -0.6000000 0.0000000
v 0.1000000 -0.5000000 0.0000000
v 0.0923900 -0.5000000 0.0382700
v 0.0923900 -0.6000000 0.0382700
v 0.1000000 -0.6000000 0.0000000
v 0.0923900 -0.5000000 0.0382700
v 0.0707100 -0.5000000 0.0707100
v 0.0707100 -0.6000000 0.0707100
v 0.0923900 -0.6000000 0.0382700
v 0.0707100 -0.5000000 0.0707100
v 0.0382700 -0.5000000 0.0923900
v 0.0382700 -0.6000000 0.0923900
v 0.0707100 -0.6000000 0.0707100
v 0.0382700 -0.5000000 0.0923900
v 0.0000000 -0.5000000 0.1000000
v 0.0000000 -0.6000000 0.1000000
v 0.0382700 -0.6000000 0.0923900
v 0.0000000 -0.5000000 0.1000000
v -0.0382700 -0.5000000 0.0923900
v -0.0382700 -0.6000000 0.0923900
v 0.0000000 -0.6000000 0.1000000
v -0.0382700 -0.5000000 0.0923900
v -0.0707100 -0.5000000 0.0707100
v -0.0707100 -0.6000000 0.0707100
v -0.0382700 -0.6000000 0.0923900
v -0.0707100 -0.5000000 0.0707100
v -0.0923900 -0.5000000 0.0382700
v -0.0923900 -0.6000000 0.0382700
v -0.0707100 -0.6000000 0.0707100
v -0.0923900 -0.5000000 0.0382700
v -0.1000000 -0.5000000 0.0000000
v -0.1000000 -0.6000000 0.0000000
v -0.0923900 -0.6000000 0.0382700
v -0.1000000 -0.5000000 0.0000000
v -0.0923900 -0.5000000 -0.0382700
v -0.0923900 -0.6000000 -0.0382700
v -0.1000000 -0.6000000 0.0000000
v -0.0923900 -0.5000000 -0.0382700
v -0.0707100 -0.5000000 -0.0707100
v -0.0707100 -0.6000000 -0.0707100
v -0.0923900 -0.6000000 -0.0382700
v -0.0707100 -0.5000000 -0.0707100
v -0.0382700 -0.5000000 -0.0923900
v -0.0382700 -0.6000000 -0.0923900
v -0.0707100 -0.6000000 -0.0707100
v -0.0382700 -0.5000000 -0.0923900
v 0.0000000 -0.5000000 -0.1000000
v 0.0000000 -0.6000000 -0.1000000
v -0.0382700 -0.6000000 -0.0923900
v 0.0000000 -0.5000000 -0.1000000
v 0.0382700 -0.5000000 -0.0923900
v 0.0382700 -0.6000000 -0.0923900
v 0.0000000 -0.6000000 -0.1000000
v 0.0382700 -0.5000000 -0.0923900
v 0.0707100 -0.5000000 -0.0707100
v 0.0707100 -0.6000000 -0.0707100
v 0.0382700 -0.6000000 -0.0923900
v 0.0707100 -0.5000000 -0.0707100
v 0.0923900 -0.5000000 -0.0382700
v 0.0923900 -0.6000000 -0.0382700
v 0.0707100 -0.6000000 -0.0707100
v 0.0923900 -0.5000000 -0.0382700
v 0.1000000 -0.5000000 0.0000000
v 0.1000000 -0.6000000 0.0000000
v 0.0923900 -0.6000000 -0.0382700
v -0.5000000 -0.6000000 0.0000000
v -0.4000000 -0.6000000 0.0000000
v -0.4076100 -0.6000000 0.0382700
v -0.5000000 -0.6000000 0.0000000
v -0.4076100 -0.6000000 0.0382700
v -0.4292900 -0.6000000 0.0707100
v -0.5000000 -0.6000000 0.0000000
v -0.4292900 -0.6000000 0.0707100
v -0.4617300 -0.6000000 0.0923900
v -0.5000000 -0.6000000 0.0000000
v -0.4617300 -0.6000000 0.0923900
v -0.5000000 -0.6000000 0.1000000
v -0.5000000 -0.6000000 0.0000000
v -0.5000000 -0.6000000 0.1000000
v -0.5382700 -0.6000000 0.0923900
v -0.5000000 -0.6000000 0.0000000
v -0.5382700 -0.6000000 0.0923900
v -0.5707100 -0.6000000 0.0707100
v -0.5000000 -0.6000000 0.0000000
v -0.5707100 -0.6000000 0.0707100
v -0.5923900 -0.6000000 0.0382700
v -0.5000000 -0.6000000 0.0000000
v -0.5923900 -0.6000000 0.0382700
v -0.6000000 -0.6000000 0.0000000
v -0.5000000 -0.6000000 0.0000000
v -0.6000000 -0.6000000 0.0000000
v -0.5923900 -0.6000000 -0.0382700
v -0.5000000 -0.6000000 0.0000000
v -0.5923900 -0.6000000 -0.0382700
v -0.5707100 -0.6000000 -0.0707100
v -0.5000000 -0.6000000 0.0000000
v -0.5707100 -0.6000000 -0.0707100
v -0.5382700 -0.6000000 -0.0923900
v -0.5000000 -0.6000000 0.0000000
v -0.5382700 -0.6000000 -0.0923900
v -0.5000000 -0.6000000 -0.1000000
v -0.5000000 -0.6000000 0.0000000
v -0.5000000 -0.6000000 -0.1000000
v -0.4617300 -0.6000000 -0.0923900
v -0.5000000 -0.6000000 0.0000000
v -0.4617300 -0.6000000 -0.0923900
v -0.4292900 -0.6000000 -0.0707100
v -0.5000000 -0.6000000 0.0000000
v -0.4292900 -0.6000000 -0.0707100
v -0.4076100 -0.6000000 -0.0382700
v -0.5000000 -0.6000000 0.0000000
v -0.4076100 -0.6000000 -0.0382700
v -0.4000000 -0.6000000 0.0000000
v -0.4000000 -0.5000000 0.0000000
v -0.4076100 -0.5000000 0.0382700
v -0.4076100 -0.6000000 0.0382700
v -0.4000000 -0.6000000 0.0000000
v -0.4076100 -0.5000000 0.0382700
v -0.4292900 -0.5000000 0.0707100
v -0.4292900 -0.6000000 0.0707100
v -0.4076100 -0.6000000 0.0382700
v -0.4292900 -0.5000000 0.0707100
v -0.4617300 -0.5000000 0.0923900
v -0.4617300 -0.6000000 0.0923900
v -0.4292900 -0.6000000 0.0707100
v -0.4617300 -0.5000000 0.0923900
v -0.5000000 -0.5000000 0.1000000
v -0.5000000 -0.6000000 0.1000000
v -0.4617300 -0.6000000 0.0923900
v -0.5000000 -0.5000000 0.1000000
v -0.5382700 -0.5000000 0.0923900
v -0.5382700 -0.6000000 0.0923900
v -0.5000000 -0.6000000 0.1000000
v -0.5382700 -0.5000000 0.0923900
v -0.5707100 -0.5000000 0.0707100
v -0.5707100 -0.6000000 0.0707100
v -0.5382700 -0.6000000 0.0923900
v -0.5707100 -0.5000000 0.0707100
v -0.5923900 -0.5000000 0.0382700
v -0.5923900 -0.6000000 0.0382700
v -0.5707100 -0.6000000 0.0707100
v -0.5923900 -0.5000000 0.0382700
v -0.6000000 -0.5000000 0.0000000
v -0.6000000 -0.6000000 0.0000000
v -0.5923900 -0.6000000 0.0382700
v -0.6000000 -0.5000000 0.0000000
v -0.5923900 -0.5000000 -0.0382700
v -0.5923900 -0.6000000 -0.0382700
v -0.6000000 -0.6000000 0.0000000
v -0.5923900 -0.5000000 -0.0382700
v -0.5707100 -0.5000000 -0.0707100
v -0.5707100 -0.6000000 -0.0707100
v -0.5923900 -0.6000000 -0.0382700
v -0.5707100 -0.5000000 -0.0707100
v -0.5382700 -0.5000000 -0.0923900
v -0.5382700 -0.6000000 -0.0923900
v -0.5707100 -0.6000000 -0.0707100
v -0.5382700 -0.5000000 -0.0923900
v -0.5000000 -0.5000000 -0.1000000
v -0.5000000 -0.6000000 -0.1000000
v -0.5382700 -0.6000000 -0.0923900
v -0.5000000 -0.5000000 -0.1000000
v -0.4617300 -0.5000000 -0.0923900
v -0.4617300 -0.6000000 -0.0923900
v -0.5000000 -0.6000000 -0.1000000
v -0.4617300 -0.5000000 -0.0923900
v -0.4292900 -0.5000000 -0.0707100
v -0.4292900 -0.6000000 -0.0707100
v -0.4617300 -0.6000000 -0.0923900
v -0.4292900 -0.5000000 -0.0707100
v -0.4076100 -0.5000000 -0.0382700
v -0.4076100 -0.6000000 -0.0382700
v -0.4292900 -0.6000000 -0.0707100
v -0.4076100 -0.5000000 -0.0382700
v -0.4000000 -0.5000000 0.0000000
v -0.4000000 -0.6000000 0.0000000
v -0.4076100 -0.6000000 -0.0382700
v 0.5000000 -0.6000000 0.0000000
v 0.6000000 -0.6000000 0.0000000
v 0.5923900 -0.6000000 0.0382700
v 0.5000000 -0.6000000 0.0000000
v 0.5923900 -0.6000000 0.0382700
v 0.5707100 -0.6000000 0.0707100
v 0.5000000 -0.6000000 0.0000000
v 0.5707100 -0.6000000 0.0707100
v 0.5382700 -0.6000000 0.0923900
v 0.5000000 -0.6000000 0.0000000
v 0.5382700 -0.6000000 0.0923900
v 0.5000000 -0.6000000 0.1000000
v 0.5000000 -0.6000000 0.0000000
v 0.5000000 -0.6000000 0.1000000
v 0.4617300 -0.6000000 0.0923900
v 0.5000000 -0.6000000 0.0000000
v 0.4617300 -0.6000000 0.0923900
v 0.4292900 -0.6000000 0.0707100
v 0.5000000 -0.6000000 0.0000000
v 0.4292900 -0.6000000 0.0707100
v 0.4076100 -0.6000000 0.0382700
v 0.5000000 -0.6000000 0.0000000
v 0.4076100 -0.6000000 0.0382700
v 0.4000000 -0.6000000 0.0000000
v 0.5000000 -0.6000000 0.0000000
v 0.4000000 -0.6000000 0.0000000
v 0.4076100 -0.6000000 -0.0382700
v 0.5000000 -0.6000000 0.0000000
v 0.4076100 -0.6000000 -0.0382700
v 0.4292900 -0.6000000 -0.0707100
v 0.5000000 -0.6000000 0.0000000
v 0.4292900 -0.6000000 -0.0707100
v 0.4617300 -0.6000000 -0.0923900
v 0.5000000 -0.6000000 0.0000000
v 0.4617300 -0.6000000 -0.0923900
v 0.5000000 -0.6000000 -0.1000000
v 0.5000000 -0.6000000 0.0000000
v 0.5000000 -0.6000000 -0.1000000
v 0.5382700 -0.6000000 -0.0923900
v 0.5000000 -0.6000000 0.0000000
v 0.5382700 -0.6000000 -0.0923900
v 0.5707100 -0.6000000 -0.0707100
v 0.5000000 -0.6000000 0.0000000
v 0.5707100 -0.6000000 -0.0707100
v 0.5923900 -0.6000000 -0.0382700
v 0.5000000 -0.6000000 0.0000000
v 0.5923900 -0.6000000 -0.0382700
v 0.6000000 -0.6000000 0.0000000
v 0.6000000 -0.5000000 0.0000000
v 0.5923900 -0.5000000 0.0382700
v 0.5923900 -0.6000000 0.0382700
v 0.6000000 -0.6000000 0.0000000
v 0.5923900 -0.5000000 0.0382700
v 0.5707100 -0.5000000 0.0707100
v 0.5707100 -0.6000000 0.0707100
v 0.5923900 -0.6000000 0.0382700
v 0.5707100 -0.5000000 0.0707100
v 0.5382700 -0.5000000 0.0923900
v 0.5382700 -0.6000000 0.0923900
v 0.5707100 -0.6000000 0.0707100
v 0.5382700 -0.5000000 0.0923900
v 0.5000000 -0.5000000 0.1000000
v 0.5000000 -0.6000000 0.1000000
v 0.5382700 -0.6000000 0.0923900
v 0.5000000 -0.5000000 0.1000000
v 0.4617300 -0.5000000 0.0923900
v 0.4617300 -0.6000000 0.0923900
v 0.5000000 -0.6000000 0.1000000
v 0.4617300 -0.5000000 0.0923900
v 0.4292900 -0.5000000 0.0707100
v 0.4292900 -0.6000000 0.0707100
v 0.4617300 -0.6000000 0.0923900
v 0.4292900 -0.5000000 0.0707100
v 0.4076100 -0.5000000 0.0382700
v 0.4076100 -0.6000000 0.0382700
v 0.4292900 -0.6000000 0.0707100
v 0.4076100 -0.5000000 0.0382700
v 0.4000000 -0.5000000 0.0000000
v 0.4000000 -0.6000000 0.0000000
v 0.4076100 -0.6000000 0.0382700
v 0.4000000 -0.5000000 0.0000000
v 0.4076100 -0.5000000 -0.0382700
v 0.4076100 -0.6000000 -0.0382700
v 0.4000000 -0.6000000 0.0000000
v 0.4076100 -0.5000000 -0.0382700
v 0.4292900 -0.5000000 -0.0707100
v 0.4292900 -0.6000000 -0.0707100
v 0.4076100 -0.6000000 -0.0382700
v 0.4292900 -0.5000000 -0.0707100
v 0.4617300 -0.5000000 -0.0923900
v 0.4617300 -0.6000000 -0.0923900
v 0.4292900 -0.6000000 -0.0707100
v 0.4617300 -0.5000000 -0.0923900
v 0.5000000 -0.5000000 -0.1000000
v 0.5000000 -0.6000000 -0.1000000
v 0.4617300 -0.6000000 -0.0923900
v 0.5000000 -0.5000000 -0.1000000
v 0.5382700 -0.5000000 -0.0923900
v 0.5382700 -0.6000000 -0.0923900
v 0.5000000 -0.6000000 -0.1000000
v 0.5382700 -0.5000000 -0.0923900
v 0.5707100 -0.5000000 -0.0707100
v 0.5707100 -0.6000000 -0.0707100
v 0.5382700 -0.6000000 -0.0923900
v 0.5707100 -0.5000000 -0.0707100
v 0.5923900 -0.5000000 -0.0382700
v 0.5923900 -0.6000000 -0.0382700
v 0.5707100 -0.6000000 -0.0707100
v 0.5923900 -0.5000000 -0.0382700
v 0.6000000 -0.5000000 0.0000000
v 0.6000000 -0.6000000 0.0000000
v 0.5923900 -0.6000000 -0.0382700
v -0.9000000 -0.5000000 -0.1500000
v 0.9000000 -0.5000000 -0.1500000
v 0.9000000 -0.5000000 0.1500000
v -0.9000000 -0.5000000 0.1500000
v 0.9000000 -0.5000000 0.1500000
v 0.9000000 -0.6000000 0.1500000
v -0.9000000 -0.6000000 0.1500000
v -0.9000000 -0.5000000 0.1500000
v -0.9000000 -0.5000000 0.1500000
v -0.9000000 -0.6000000 0.1500000
v -0.9000000 -0.6000000 -0.1500000
v -0.9000000 -0.5000000 -0.1500000
v -0.9000000 -0.5000000 -0.1500000
v -0.9000000 -0.6000000 -0.1500000
v 0.9000000 -0.6000000 -0.1500000
v 0.9000000 -0.5000000 -0.1500000
v 0.9000000 -0.5000000 -0.1500000
v 0.9000000 -0.6000000 -0.1500000
v 0.9000000 -0.6000000 0.1500000
v 0.9000000 -0.5000000 0.1500000
v -1.0000000 -0.6000000 0.2500000
v -0.9000000 -0.6000000 0.1500000
v 0.9000000 -0.6000000 0.1500000
v 1.0000000 -0.6000000 0.2500000
v -1.0000000 -0.6000000 -0.2500000
v -0.9000000 -0.6000000 -0.1500000
v -0.9000000 -0.6000000 0.1500000
v -1.0000000 -0.6000000 0.2500000
v 1.0000000 -0.6000000 -0.2500000
v 0.9000000 -0.6000000 -0.1500000
v -0.9000000 -0.6000000 -0.1500000
v -1.0000000 -0.6000000 -0.2500000
v 1.0000000 -0.6000000 0.2500000
v 0.9000000 -0.6000000 0.1500000
v 0.9000000 -0.6000000 -0.1500000
v 1.0000000 -0.6000000 -0.2500000
v -1.0000000 -0.4000000 0.1500000
v -1.0000000 -0.4000000 -0.2500000
v -1.0000000 -0.6000000 -0.2500000
v -1.0000000 -0.6000000 0.2500000
v 1.0000000 -0.4000000 -0.2500000
v 1.0000000 -0.4000000 0.1500000
v 1.0000000 -0.6000000 0.2500000
v 1.0000000 -0.6000000 -0.2500000
v -1.0000000 -0.0500000 0.2500000
v -1.0000000 -0.0500000 0.1500000
v -1.0000000 -0.4000000 0.1500000
v -1.0000000 -0.6000000 0.2500000
v 1.0000000 -0.0500000 0.1500000
v 1.0000000 -0.0500000 0.2500000
v 1.0000000 -0.6000000 0.2500000
v 1.0000000 -0.4000000 0.1500000
v 0.9500000 -0.0500000 0.2500000
v -0.9500000 -0.0500000 0.2500000
v -1.0000000 -0.6000000 0.2500000
v 1.0000000 -0.6000000 0.2500000
v 0.9500000 -0.0000000 0.2500000
v -0.9500000 -0.0000000 0.2500000
v -0.9500000 -0.0500000 0.2500000
v 0.9500000 -0.0500000 0.2500000
v 1.0000000 -0.0500000 0.2500000
v 0.9500000 -0.0500000 0.2500000
v 1.0000000 -0.6000000 0.2500000
v -0.9500000 -0.0500000 0.2500000
v -1.0000000 -0.0500000 0.2500000
v -1.0000000 -0.6000000 0.2500000
v -0.9500000 -0.0500000 0.1500000
v 0.9500000 -0.0500000 0.1500000
v 1.0000000 -0.4000000 0.1500000
v -1.0000000 -0.4000000 0.1500000
v -0.9500000 -0.0000000 0.1500000
v 0.9500000 -0.0000000 0.1500000
v 0.9500000 -0.0500000 0.1500000
v -0.9500000 -0.0500000 0.1500000
v 0.9500000 -0.0500000 0.1500000
v 1.0000000 -0.0500000 0.1500000
v 1.0000000 -0.4000000 0.1500000
v -1.0000000 -0.0500000 0.1500000
v -0.9500000 -0.0500000 0.1500000
v -1.0000000 -0.4000000 0.1500000
v -0.9500000 -0.0000000 0.1500000
v -0.9500000 -0.0000000 0.2500000
v 0.9500000 -0.0000000 0.2500000
v 0.9500000 -0.0000000 0.1500000
v 0.9961950 -0.0308650 0.1500000
v 1.0000000 -0.0500000 0.1500000
v 0.9500000 -0.0500000 0.1500000
v 0.9853550 -0.0146450 0.1500000
v 0.9961950 -0.0308650 0.1500000
v 0.9500000 -0.0500000 0.1500000
v 0.9691350 -0.0038050 0.1500000
v 0.9853550 -0.0146450 0.1500000
v 0.9500000 -0.0500000 0.1500000
v 0.9500000 -0.0000000 0.1500000
v 0.9691350 -0.0038050 0.1500000
v 0.9500000 -0.0500000 0.1500000
v 0.9500000 -0.0500000 0.2500000
v 1.0000000 -0.0500000 0.2500000
v 0.9961950 -0.0308650 0.2500000
v 0.9500000 -0.0500000 0.2500000
v 0.9961950 -0.0308650 0.2500000
v 0.9853550 -0.0146450 0.2500000
v 0.9500000 -0.0500000 0.2500000
v 0.9853550 -0.0146450 0.2500000
v 0.9691350 -0.0038050 0.2500000
v 0.9500000 -0.0500000 0.2500000
v 0.9691350 -0.0038050 0.2500000
v 0.9500000 -0.0000000 0.2500000
v -0.9961950 -0.0308650 0.2500000
v -1.0000000 -0.0500000 0.2500000
v -0.9500000 -0.0500000 0.2500000
v -0.9853550 -0.0146450 0.2500000
v -0.9961950 -0.0308650 0.2500000
v -0.9500000 -0.0500000 0.2500000
v -0.9691350 -0.0038050 0.2500000
v -0.9853550 -0.0146450 0.2500000
v -0.9500000 -0.0500000 0.2500000
v -0.9500000 -0.0000000 0.2500000
v -0.9691350 -0.0038050 0.2500000
v -0.9500000 -0.0500000 0.2500000
v -0.9500000 -0.0500000 0.1500000
v -1.0000000 -0.0500000 0.1500000
v -0.9961950 -0.0308650 0.1500000
v -0.9500000 -0.0500000 0.1500000
v -0.9961950 -0.0308650 0.1500000
v -0.9853550 -0.0146450 0.1500000
v -0.9500000 -0.0500000 0.1500000
v -0.9853550 -0.0146450 0.1500000
v -0.9691350 -0.0038050 0.1500000
v -0.9500000 -0.0500000 0.1500000
v -0.9691350 -0.0038050 0.1500000
v -0.9500000 -0.0000000 0.1500000
v 1.0000000 -0.0500000 0.1500000
v 0.9961950 -0.0308650 0.1500000
v 0.9961950 -0.0308650 0.2500000
v 1.0000000 -0.0500000 0.2500000
v 0.9961950 -0.0308650 0.1500000
v 0.9853550 -0.0146450 0.1500000
v 0.9853550 -0.0146450 0.2500000
v 0.9961950 -0.0308650 0.2500000
v 0.9853550 -0.0146450 0.1500000
v 0.9691350 -0.0038050 0.1500000
v 0.9691350 -0.0038050 0.2500000
v 0.9853550 -0.0146450 0.2500000
v 0.9691350 -0.0038050 0.1500000
v 0.9500000 -0.0000000 0.1500000
v 0.9500000 -0.0000000 0.2500000
v 0.9691350 -0.0038050 0.2500000
v -1.0000000 -0.0500000 0.2500000
v -0.9961950 -0.0308650 0.2500000
v -0.9961950 -0.0308650 0.1500000
v -1.0000000 -0.0500000 0.1500000
v -0.9961950 -0.0308650 0.2500000
v -0.9853550 -0.0146450 0.2500000
v -0.9853550 -0.0146450 0.1500000
v -0.9961950 -0.0308650 0.1500000
v -0.9853550 -0.0146450 0.2500000
v -0.9691350 -0.0038050 0.2500000
v -0.9691350 -0.0038050 0.1500000
v -0.9853550 -0.0146450 0.1500000
v -0.9691350 -0.0038050 0.2500000
v -0.9500000 -0.0000000 0.2500000
v -0.9500000 -0.0000000 0.1500000
v -0.9691350 -0.0038050 0.1500000
v -1.0000000 -0.4000000 -0.2500000
v -1.0000000 -0.4000000 0.1500000
v 1.0000000 -0.4000000 0.1500000
v 1.0000000 -0.4000000 -0.2500000
v -1.0000000 -0.4000000 -0.2500000
v 1.0000000 -0.4000000 -0.2500000
v 1.0000000 -0.6000000 -0.2500000
v -1.0000000 -0.6000000 -0.2500000
s off
f 1 2 3
f 4 5 6
f 7 8 9
f 10 11 12
f 13 14 15
f 16 17 18
f 19 20 21
f 22 23 24
f 25 26 27
f 28 29 30
f 31 32 33
f 34 35 36
f 37 38 39
f 40 41 42
f 43 44 45
f 46 47 48
f 49 50 51
f 49 51 52
f 53 54 55
f 53 55 56
f 57 58 59
f 57 59 60
f 61 62 63
f 61 63 64
f 65 66 67
f 65 67 68
f 69 70 71
f 69 71 72
f 73 74 75
f 73 75 76
f 77 78 79
f 77 79 80
f 81 82 83
f 81 83 84
f 85 86 87
f 85 87 88
f 89 90 91
f 89 91 92
f 93 94 95
f 93 95 96
f 97 98 99
f 97 99 100
f 101 102 103
f 101 103 104
f 105 106 107
f 105 107 108
f 109 110 111
f 109 111 112
f 113 114 115
f 116 117 118
f 119 120 121
f 122 123 124
f 125 126 127
f 128 129 130
f 131 132 133
f 134 135 136
f 137 138 139
f 140 141 142
f 143 144 145
f 146 147 148
f 149 150 151
f 152 153 154
f 155 156 157
f 158 159 160
f 161 162 163
f 161 163 164
f 165 166 167
f 165 167 168
f 169 170 171
f 169 171 172
f 173 174 175
f 173 175 176
f 177 178 179
f 177 179 180
f 181 182 183
f 181 183 184
f 185 186 187
f 185 187 188
f 189 190 191
f 189 191 192
f 193 194 195
f 193 195 196
f 197 198 199
f 197 199 200
f 201 202 203
f 201 203 204
f 205 206 207
f 205 207 208
f 209 210 211
f 209 211 212
f 213 214 215
f 213 215 216
f 217 218 219
f 217 219 220
f 221 222 223
f 221 223 224
f 225 226 227
f 228 229 230
f 231 232 233
f 234 235 236
f 237 238 239
f 240 241 242
f 243 244 245
f 246 247 248
f 249 250 251
f 252 253 254
f 255 256 257
f 258 259 260
f 261 262 263
f 264 265 266
f 267 268 269
f 270 271 272
f 273 274 275
f 273 275 276
f 277 278 279
f 277 279 280
f 281 282 283
f 281 283 284
f 285 286 287
f 285 287 288
f 289 290 291
f 289 291 292
f 293 294 295
f 293 295 296
f 297 298 299
f 297 299 300
f 301 302 303
f 301 303 304
f 305 306 307
f 305 307 308
f 309 310 311
f 309 311 312
f 313 314 315
f 313 315 316
f 317 318 319
f 317 319 320
f 321 322 323
f 321 323 324
f 325 326 327
f 325 327 328
f 329 330 331
f 329 331 332
f 333 334 335
f 333 335 336
f 337 338 339
f 337 339 340
f 341 342 343
f 341 343 344
f 345 346 347
f 345 347 348
f 349 350 351
f 349 351 352
f 353 354 355
f 353 355 356
f 357 358 359
f 357 359 360
f 361 362 363
f 361 363 364
f 365 366 367
f 365 367 368
f 369 370 371
f 369 371 372
f 373 374 375
f 373 375 376
f 377 378 379
f 377 379 380
f 381 382 383
f 381 383 384
f 385 386 387
f 385 387 388
f 389 390 391
f 389 391 392
f 393 394 395
f 393 395 396
f 397 398 399
f 400 401 402
f 403 404 405
f 403 405 406
f 407 408 409
f 407 409 410
f 411 412 413
f 414 415 416
f 417 418 419
f 417 419 420
f 421 422 423
f 424 425 426
f 427 428 429
f 430 431 432
f 433 434 435
f 436 437 438
f 439 440 441
f 442 443 444
f 445 446 447
f 448 449 450
f 451 452 453
f 454 455 456
f 457 458 459
f 460 461 462
f 463 464 465
f 466 467 468
f 469 470 471
f 469 471 472
f 473 474 475
f 473 475 476
f 477 478 479
f 477 479 480
f 481 482 483
f 481 483 484
f 485 486 487
f 485 487 488
f 489 490 491
f 489 491 492
f 493 494 495
f 493 495 496
f 497 498 499
f 497 499 500
f 501 502 503
f 501 503 504
f 505 506 507
f 505 507 508
