# Baked from official LDraw part 3044b.dat
o ldraw_3044b
v -0.2500000 -0.6000000 0.5000000
v -0.1500000 -0.6000000 0.4000000
v 0.1500000 -0.6000000 0.4000000
v 0.2500000 -0.6000000 0.5000000
v -0.2500000 -0.6000000 -0.5000000
v -0.1500000 -0.6000000 -0.4000000
v -0.1500000 -0.6000000 0.4000000
v -0.2500000 -0.6000000 0.5000000
v 0.2500000 -0.6000000 -0.5000000
v 0.1500000 -0.6000000 -0.4000000
v -0.1500000 -0.6000000 -0.4000000
v -0.2500000 -0.6000000 -0.5000000
v 0.2500000 -0.6000000 0.5000000
v 0.1500000 -0.6000000 0.4000000
v 0.1500000 -0.6000000 -0.4000000
v 0.2500000 -0.6000000 -0.5000000
v -0.2500000 -0.5000000 0.5000000
v -0.2500000 -0.6000000 0.5000000
v 0.2500000 -0.6000000 0.5000000
v 0.2500000 -0.5000000 0.5000000
v -0.1500000 -0.5000000 0.4000000
v 0.1500000 -0.5000000 0.4000000
v 0.1500000 -0.6000000 0.4000000
v -0.1500000 -0.6000000 0.4000000
v -0.1500000 -0.5000000 -0.4000000
v -0.1500000 -0.6000000 -0.4000000
v 0.1500000 -0.6000000 -0.4000000
v 0.1500000 -0.5000000 -0.4000000
v -0.2500000 -0.5000000 -0.5000000
v 0.2500000 -0.5000000 -0.5000000
v 0.2500000 -0.6000000 -0.5000000
v -0.2500000 -0.6000000 -0.5000000
v 0.2500000 -0.6000000 0.5000000
v 0.2500000 -0.6000000 -0.5000000
v 0.2500000 -0.5000000 -0.5000000
v 0.2500000 -0.5000000 0.5000000
v 0.2500000 -0.5000000 -0.5000000
v 0.2500000 -0.0000000 0.0000000
v 0.2500000 -0.5000000 0.5000000
v 0.1500000 -0.6000000 -0.4000000
v 0.1500000 -0.6000000 0.4000000
v 0.1500000 -0.5000000 0.4000000
v 0.1500000 -0.5000000 -0.4000000
v 0.1500000 -0.1000000 0.0000000
v 0.1500000 -0.5000000 -0.4000000
v 0.1500000 -0.5000000 0.4000000
v -0.1500000 -0.6000000 0.4000000
v -0.1500000 -0.6000000 -0.4000000
v -0.1500000 -0.5000000 -0.4000000
v -0.1500000 -0.5000000 0.4000000
v -0.1500000 -0.5000000 -0.4000000
v -0.1500000 -0.1000000 0.0000000
v -0.1500000 -0.5000000 0.4000000
v -0.2500000 -0.6000000 -0.5000000
v -0.2500000 -0.6000000 0.5000000
v -0.2500000 -0.5000000 0.5000000
v -0.2500000 -0.5000000 -0.5000000
v -0.2500000 -0.0000000 0.0000000
v -0.2500000 -0.5000000 -0.5000000
v -0.2500000 -0.5000000 0.5000000
v 0.1500000 -0.1000000 0.0000000
v 0.1500000 -0.5000000 0.4000000
v -0.1500000 -0.5000000 0.4000000
v -0.1500000 -0.1000000 0.0000000
v 0.1500000 -0.1000000 0.0000000
v -0.1500000 -0.1000000 0.0000000
v -0.1500000 -0.5000000 -0.4000000
v 0.1500000 -0.5000000 -0.4000000
v -0.0375000 -0.6000000 0.0625000
v 0.0375000 -0.6000000 0.0625000
v 0.0346463 -0.6000000 0.0768512
v -0.0346463 -0.6000000 0.0768512
v -0.0346463 -0.6000000 0.0768512
v 0.0346463 -0.6000000 0.0768512
v 0.0265162 -0.6000000 0.0890163
v -0.0265162 -0.6000000 0.0890163
v -0.0265162 -0.6000000 0.0890163
v 0.0265162 -0.6000000 0.0890163
v 0.0143512 -0.6000000 0.0971463
v -0.0143512 -0.6000000 0.0971463
v -0.0143512 -0.6000000 0.0971463
v 0.0143512 -0.6000000 0.0971463
v 0.0000000 -0.6000000 0.1000000
v 0.0375000 -0.6000000 -0.0625000
v -0.0375000 -0.6000000 -0.0625000
v -0.0346463 -0.6000000 -0.0768512
v 0.0346463 -0.6000000 -0.0768512
v 0.0346463 -0.6000000 -0.0768512
v -0.0346463 -0.6000000 -0.0768512
v -0.0265162 -0.6000000 -0.0890163
v 0.0265162 -0.6000000 -0.0890163
v 0.0265162 -0.6000000 -0.0890163
v -0.0265162 -0.6000000 -0.0890163
v -0.0143512 -0.6000000 -0.0971463
v 0.0143512 -0.6000000 -0.0971463
v 0.0143512 -0.6000000 -0.0971463
v -0.0143512 -0.6000000 -0.0971463
v 0.0000000 -0.6000000 -0.1000000
v 0.0375000 -0.6000000 -0.0625000
v 0.0375000 -0.6000000 0.0625000
v -0.0375000 -0.6000000 0.0625000
v -0.0375000 -0.6000000 -0.0625000
v -0.0375000 -0.6000000 -0.0625000
v -0.0375000 -0.6000000 0.0625000
v -0.0375000 -0.1625000 0.0625000
v -0.0375000 -0.1625000 -0.0625000
v -0.0375000 -0.2000000 0.0625000
v -0.0375000 -0.6000000 0.0625000
v -0.0346463 -0.6000000 0.0768512
v -0.0346463 -0.2000000 0.0768512
v -0.0346463 -0.2000000 0.0768512
v -0.0346463 -0.6000000 0.0768512
v -0.0265162 -0.6000000 0.0890163
v -0.0265162 -0.2000000 0.0890163
v -0.0265162 -0.2000000 0.0890163
v -0.0265162 -0.6000000 0.0890163
v -0.0143512 -0.6000000 0.0971463
v -0.0143512 -0.2000000 0.0971463
v -0.0143512 -0.2000000 0.0971463
v -0.0143512 -0.6000000 0.0971463
v 0.0000000 -0.6000000 0.1000000
v 0.0000000 -0.2000000 0.1000000
v 0.0000000 -0.2000000 0.1000000
v 0.0000000 -0.6000000 0.1000000
v 0.0143512 -0.6000000 0.0971463
v 0.0143512 -0.2000000 0.0971463
v 0.0143512 -0.2000000 0.0971463
v 0.0143512 -0.6000000 0.0971463
v 0.0265162 -0.6000000 0.0890163
v 0.0265162 -0.2000000 0.0890163
v 0.0265162 -0.2000000 0.0890163
v 0.0265162 -0.6000000 0.0890163
v 0.0346463 -0.6000000 0.0768512
v 0.0346463 -0.2000000 0.0768512
v 0.0346463 -0.2000000 0.0768512
v 0.0346463 -0.6000000 0.0768512
v 0.0375000 -0.6000000 0.0625000
v 0.0375000 -0.2000000 0.0625000
v 0.0000000 -0.2000000 0.1000000
v 0.0143512 -0.2000000 0.0971463
v 0.0143512 -0.1971462 0.0971463
v 0.0143512 -0.2000000 0.0971463
v 0.0265162 -0.2000000 0.0890163
v 0.0265162 -0.1890162 0.0890163
v 0.0143512 -0.1971462 0.0971463
v 0.0265162 -0.2000000 0.0890163
v 0.0346463 -0.2000000 0.0768512
v 0.0346463 -0.1768513 0.0768512
v 0.0265162 -0.1890162 0.0890163
v 0.0346463 -0.2000000 0.0768512
v 0.0375000 -0.2000000 0.0625000
v 0.0375000 -0.1625000 0.0625000
v 0.0346463 -0.1768513 0.0768512
v -0.0143512 -0.1971462 0.0971463
v -0.0143512 -0.2000000 0.0971463
v 0.0000000 -0.2000000 0.1000000
v -0.0143512 -0.1971462 0.0971463
v -0.0265162 -0.1890162 0.0890163
v -0.0265162 -0.2000000 0.0890163
v -0.0143512 -0.2000000 0.0971463
v -0.0265162 -0.1890162 0.0890163
v -0.0346463 -0.1768513 0.0768512
v -0.0346463 -0.2000000 0.0768512
v -0.0265162 -0.2000000 0.0890163
v -0.0346463 -0.1768513 0.0768512
v -0.0375000 -0.1625000 0.0625000
v -0.0375000 -0.2000000 0.0625000
v -0.0346463 -0.2000000 0.0768512
v -0.0346463 -0.2000000 -0.0768512
v -0.0346463 -0.6000000 -0.0768512
v -0.0375000 -0.6000000 -0.0625000
v -0.0375000 -0.2000000 -0.0625000
v -0.0265162 -0.2000000 -0.0890163
v -0.0265162 -0.6000000 -0.0890163
v -0.0346463 -0.6000000 -0.0768512
v -0.0346463 -0.2000000 -0.0768512
v -0.0143512 -0.2000000 -0.0971463
v -0.0143512 -0.6000000 -0.0971463
v -0.0265162 -0.6000000 -0.0890163
v -0.0265162 -0.2000000 -0.0890163
v 0.0000000 -0.2000000 -0.1000000
v 0.0000000 -0.6000000 -0.1000000
v -0.0143512 -0.6000000 -0.0971463
v -0.0143512 -0.2000000 -0.0971463
v 0.0143512 -0.2000000 -0.0971463
v 0.0143512 -0.6000000 -0.0971463
v 0.0000000 -0.6000000 -0.1000000
v 0.0000000 -0.2000000 -0.1000000
v 0.0265162 -0.2000000 -0.0890163
v 0.0265162 -0.6000000 -0.0890163
v 0.0143512 -0.6000000 -0.0971463
v 0.0143512 -0.2000000 -0.0971463
v 0.0346463 -0.2000000 -0.0768512
v 0.0346463 -0.6000000 -0.0768512
v 0.0265162 -0.6000000 -0.0890163
v 0.0265162 -0.2000000 -0.0890163
v 0.0375000 -0.2000000 -0.0625000
v 0.0375000 -0.6000000 -0.0625000
v 0.0346463 -0.6000000 -0.0768512
v 0.0346463 -0.2000000 -0.0768512
v 0.0143512 -0.1971462 -0.0971463
v 0.0143512 -0.2000000 -0.0971463
v 0.0000000 -0.2000000 -0.1000000
v 0.0143512 -0.1971462 -0.0971463
v 0.0265162 -0.1890162 -0.0890163
v 0.0265162 -0.2000000 -0.0890163
v 0.0143512 -0.2000000 -0.0971463
v 0.0265162 -0.1890162 -0.0890163
v 0.0346463 -0.1768513 -0.0768512
v 0.0346463 -0.2000000 -0.0768512
v 0.0265162 -0.2000000 -0.0890163
v 0.0346463 -0.1768513 -0.0768512
v 0.0375000 -0.1625000 -0.0625000
v 0.0375000 -0.2000000 -0.0625000
v 0.0346463 -0.2000000 -0.0768512
v 0.0000000 -0.2000000 -0.1000000
v -0.0143512 -0.2000000 -0.0971463
v -0.0143512 -0.1971462 -0.0971463
v -0.0143512 -0.2000000 -0.0971463
v -0.0265162 -0.2000000 -0.0890163
v -0.0265162 -0.1890162 -0.0890163
v -0.0143512 -0.1971462 -0.0971463
v -0.0265162 -0.2000000 -0.0890163
v -0.0346463 -0.2000000 -0.0768512
v -0.0346463 -0.1768513 -0.0768512
v -0.0265162 -0.1890162 -0.0890163
v -0.0346463 -0.2000000 -0.0768512
v -0.0375000 -0.2000000 -0.0625000
v -0.0375000 -0.1625000 -0.0625000
v -0.0346463 -0.1768513 -0.0768512
v -0.0375000 -0.1625000 -0.0625000
v -0.0375000 -0.1625000 0.0625000
v -0.0375000 -0.1000000 0.0000000
v -0.1500000 -0.4750000 0.0250000
v -0.1500000 -0.4750000 -0.0250000
v -0.0375000 -0.4750000 -0.0250000
v -0.0375000 -0.4750000 0.0250000
v -0.1500000 -0.4750000 -0.0250000
v -0.1500000 -0.1250000 -0.0250000
v -0.0375000 -0.1250000 -0.0250000
v -0.0375000 -0.4750000 -0.0250000
v -0.0375000 -0.4750000 0.0250000
v -0.0375000 -0.1250000 0.0250000
v -0.1500000 -0.1250000 0.0250000
v -0.1500000 -0.4750000 0.0250000
v 0.0375000 -0.6000000 -0.0625000
v 0.0375000 -0.1625000 -0.0625000
v 0.0375000 -0.1625000 0.0625000
v 0.0375000 -0.6000000 0.0625000
v 0.0375000 -0.1625000 -0.0625000
v 0.0375000 -0.1000000 0.0000000
v 0.0375000 -0.1625000 0.0625000
v 0.0375000 -0.4750000 0.0250000
v 0.0375000 -0.4750000 -0.0250000
v 0.1500000 -0.4750000 -0.0250000
v 0.1500000 -0.4750000 0.0250000
v 0.0375000 -0.4750000 -0.0250000
v 0.0375000 -0.1250000 -0.0250000
v 0.1500000 -0.1250000 -0.0250000
v 0.1500000 -0.4750000 -0.0250000
v 0.1500000 -0.4750000 0.0250000
v 0.1500000 -0.1250000 0.0250000
v 0.0375000 -0.1250000 0.0250000
v 0.0375000 -0.4750000 0.0250000
v 0.2500000 -0.0000000 0.0000000
v -0.2500000 -0.0000000 0.0000000
v -0.2500000 -0.5000000 0.5000000
v 0.2500000 -0.5000000 0.5000000
v -0.2500000 -0.5000000 -0.5000000
v -0.2500000 -0.0000000 0.0000000
v 0.2500000 -0.0000000 0.0000000
v 0.2500000 -0.5000000 -0.5000000
s off
f 1 2 3
f 1 3 4
f 5 6 7
f 5 7 8
f 9 10 11
f 9 11 12
f 13 14 15
f 13 15 16
f 17 18 19
f 17 19 20
f 21 22 23
f 21 23 24
f 25 26 27
f 25 27 28
f 29 30 31
f 29 31 32
f 33 34 35
f 33 35 36
f 37 38 39
f 40 41 42
f 40 42 43
f 44 45 46
f 47 48 49
f 47 49 50
f 51 52 53
f 54 55 56
f 54 56 57
f 58 59 60
f 61 62 63
f 61 63 64
f 65 66 67
f 65 67 68
f 69 70 71
f 69 71 72
f 73 74 75
f 73 75 76
f 77 78 79
f 77 79 80
f 81 82 83
f 84 85 86
f 84 86 87
f 88 89 90
f 88 90 91
f 92 93 94
f 92 94 95
f 96 97 98
f 99 100 101
f 99 101 102
f 103 104 105
f 103 105 106
f 107 108 109
f 107 109 110
f 111 112 113
f 111 113 114
f 115 116 117
f 115 117 118
f 119 120 121
f 119 121 122
f 123 124 125
f 123 125 126
f 127 128 129
f 127 129 130
f 131 132 133
f 131 133 134
f 135 136 137
f 135 137 138
f 139 140 141
f 142 143 144
f 142 144 145
f 146 147 148
f 146 148 149
f 150 151 152
f 150 152 153
f 154 155 156
f 157 158 159
f 157 159 160
f 161 162 163
f 161 163 164
f 165 166 167
f 165 167 168
f 169 170 171
f 169 171 172
f 173 174 175
f 173 175 176
f 177 178 179
f 177 179 180
f 181 182 183
f 181 183 184
f 185 186 187
f 185 187 188
f 189 190 191
f 189 191 192
f 193 194 195
f 193 195 196
f 197 198 199
f 197 199 200
f 201 202 203
f 204 205 206
f 204 206 207
f 208 209 210
f 208 210 211
f 212 213 214
f 212 214 215
f 216 217 218
f 219 220 221
f 219 221 222
f 223 224 225
f 223 225 226
f 227 228 229
f 227 229 230
f 231 232 233
f 234 235 236
f 234 236 237
f 238 239 240
f 238 240 241
f 242 243 244
f 242 244 245
f 246 247 248
f 246 248 249
f 250 251 252
f 253 254 255
f 253 255 256
f 257 258 259
f 257 259 260
f 261 262 263
f 261 263 264
f 265 266 267
f 265 267 268
f 269 270 271
f 269 271 272
