# Baked from official LDraw part 30657.dat
o ldraw_30657
v -0.4113625 -0.0000000 -0.2375000
v -0.4113625 -0.2000000 -0.2375000
v -0.4234550 -0.2000000 -0.2357057
v -0.4234550 -0.0000000 -0.2357057
v -0.4234550 -0.0000000 -0.2357057
v -0.4234550 -0.2000000 -0.2357057
v -0.4413200 -0.2000000 -0.2209630
v -0.4413200 -0.0000000 -0.2209630
v -0.4413200 -0.0000000 -0.2209630
v -0.4413200 -0.2000000 -0.2209630
v -0.4622300 -0.2000000 -0.1955945
v -0.4622300 -0.0000000 -0.1955945
v -0.4622300 -0.0000000 -0.1955945
v -0.4622300 -0.2000000 -0.1955945
v -0.4830125 -0.2000000 -0.1633975
v -0.4830125 -0.0000000 -0.1633975
v -0.4830125 -0.0000000 -0.1633975
v -0.4830125 -0.2000000 -0.1633975
v -0.4920400 -0.2000000 -0.1244130
v -0.4920400 -0.0000000 -0.1244130
v -0.4920400 -0.0000000 -0.1244130
v -0.4920400 -0.2000000 -0.1244130
v -0.4794350 -0.2000000 -0.0796945
v -0.4794350 -0.0000000 -0.0796945
v -0.4794350 -0.0000000 -0.0796945
v -0.4794350 -0.2000000 -0.0796945
v -0.4471575 -0.2000000 -0.0360017
v -0.4471575 -0.0000000 -0.0360017
v -0.4471575 -0.0000000 -0.0360017
v -0.4471575 -0.2000000 -0.0360017
v -0.4000000 -0.2000000 0.0000000
v -0.4000000 -0.0000000 0.0000000
v -0.3350950 -0.1000000 -0.1645995
v -0.3350950 -0.2000000 -0.1645995
v -0.3247600 -0.2000000 -0.1875000
v -0.3247600 -0.1000000 -0.1875000
v -0.3590000 -0.1000000 -0.1581938
v -0.3590000 -0.2000000 -0.1581938
v -0.3350950 -0.2000000 -0.1645995
v -0.3350950 -0.1000000 -0.1645995
v -0.3839100 -0.1000000 -0.1350483
v -0.3839100 -0.2000000 -0.1350483
v -0.3590000 -0.2000000 -0.1581938
v -0.3590000 -0.1000000 -0.1581938
v -0.3895800 -0.1000000 -0.1152275
v -0.3895800 -0.2000000 -0.1152275
v -0.3839100 -0.2000000 -0.1350483
v -0.3839100 -0.1000000 -0.1350483
v -0.3707650 -0.1000000 -0.0928173
v -0.3707650 -0.2000000 -0.0928173
v -0.3895800 -0.2000000 -0.1152275
v -0.3895800 -0.1000000 -0.1152275
v -0.3417025 -0.1000000 -0.0731523
v -0.3417025 -0.2000000 -0.0731523
v -0.3707650 -0.2000000 -0.0928173
v -0.3707650 -0.1000000 -0.0928173
v -0.3037375 -0.1000000 -0.0339120
v -0.3037375 -0.2000000 -0.0339120
v -0.3417025 -0.2000000 -0.0731523
v -0.3417025 -0.1000000 -0.0731523
v -0.2999500 -0.1000000 0.0000000
v -0.2999500 -0.2000000 0.0000000
v -0.3037375 -0.2000000 -0.0339120
v -0.3037375 -0.1000000 -0.0339120
v -0.4234550 -0.0000000 -0.2357057
v -0.4413200 -0.0000000 -0.2209630
v -0.4794350 -0.0000000 -0.0796945
v -0.4471575 -0.0000000 -0.0360017
v -0.4413200 -0.0000000 -0.2209630
v -0.4622300 -0.0000000 -0.1955945
v -0.4920400 -0.0000000 -0.1244130
v -0.4794350 -0.0000000 -0.0796945
v -0.4622300 -0.0000000 -0.1955945
v -0.4830125 -0.0000000 -0.1633975
v -0.4920400 -0.0000000 -0.1244130
v -0.1250000 -0.0000000 0.0000000
v -0.4234550 -0.0000000 -0.2357057
v -0.4471575 -0.0000000 -0.0360017
v -0.4000000 -0.0000000 0.0000000
v -0.1082532 -0.0000000 -0.0625000
v -0.4113625 -0.0000000 -0.2375000
v -0.4234550 -0.0000000 -0.2357057
v -0.1250000 -0.0000000 0.0000000
v -0.1948557 -0.1000000 -0.1125000
v -0.3037375 -0.1000000 -0.0339120
v -0.3350950 -0.1000000 -0.1645995
v -0.3247600 -0.1000000 -0.1875000
v -0.3037375 -0.1000000 -0.0339120
v -0.3417025 -0.1000000 -0.0731523
v -0.3590000 -0.1000000 -0.1581938
v -0.3350950 -0.1000000 -0.1645995
v -0.3417025 -0.1000000 -0.0731523
v -0.3707650 -0.1000000 -0.0928173
v -0.3839100 -0.1000000 -0.1350483
v -0.3590000 -0.1000000 -0.1581938
v -0.3707650 -0.1000000 -0.0928173
v -0.3895800 -0.1000000 -0.1152275
v -0.3839100 -0.1000000 -0.1350483
v -0.2249085 -0.1000000 0.0000000
v -0.2999500 -0.1000000 0.0000000
v -0.3037375 -0.1000000 -0.0339120
v -0.1948557 -0.1000000 -0.1125000
v -0.4113625 -0.2000000 -0.2375000
v -0.3247600 -0.2000000 -0.1875000
v -0.3350950 -0.2000000 -0.1645995
v -0.4234550 -0.2000000 -0.2357057
v -0.4234550 -0.2000000 -0.2357057
v -0.3350950 -0.2000000 -0.1645995
v -0.3590000 -0.2000000 -0.1581938
v -0.4413200 -0.2000000 -0.2209630
v -0.4413200 -0.2000000 -0.2209630
v -0.3590000 -0.2000000 -0.1581938
v -0.3839100 -0.2000000 -0.1350483
v -0.4622300 -0.2000000 -0.1955945
v -0.4622300 -0.2000000 -0.1955945
v -0.3839100 -0.2000000 -0.1350483
v -0.3895800 -0.2000000 -0.1152275
v -0.4830125 -0.2000000 -0.1633975
v -0.4830125 -0.2000000 -0.1633975
v -0.3895800 -0.2000000 -0.1152275
v -0.3707650 -0.2000000 -0.0928173
v -0.4920400 -0.2000000 -0.1244130
v -0.4920400 -0.2000000 -0.1244130
v -0.3707650 -0.2000000 -0.0928173
v -0.3417025 -0.2000000 -0.0731523
v -0.4794350 -0.2000000 -0.0796945
v -0.4794350 -0.2000000 -0.0796945
v -0.3417025 -0.2000000 -0.0731523
v -0.3037375 -0.2000000 -0.0339120
v -0.4471575 -0.2000000 -0.0360017
v -0.4471575 -0.2000000 -0.0360017
v -0.3037375 -0.2000000 -0.0339120
v -0.2999500 -0.2000000 0.0000000
v -0.4000000 -0.2000000 0.0000000
v -0.4234550 -0.0000000 0.2357057
v -0.4234550 -0.2000000 0.2357057
v -0.4113625 -0.2000000 0.2375000
v -0.4113625 -0.0000000 0.2375000
v -0.4413200 -0.0000000 0.2209630
v -0.4413200 -0.2000000 0.2209630
v -0.4234550 -0.2000000 0.2357057
v -0.4234550 -0.0000000 0.2357057
v -0.4622300 -0.0000000 0.1955945
v -0.4622300 -0.2000000 0.1955945
v -0.4413200 -0.2000000 0.2209630
v -0.4413200 -0.0000000 0.2209630
v -0.4830125 -0.0000000 0.1633975
v -0.4830125 -0.2000000 0.1633975
v -0.4622300 -0.2000000 0.1955945
v -0.4622300 -0.0000000 0.1955945
v -0.4920400 -0.0000000 0.1244130
v -0.4920400 -0.2000000 0.1244130
v -0.4830125 -0.2000000 0.1633975
v -0.4830125 -0.0000000 0.1633975
v -0.4794350 -0.0000000 0.0796945
v -0.4794350 -0.2000000 0.0796945
v -0.4920400 -0.2000000 0.1244130
v -0.4920400 -0.0000000 0.1244130
v -0.4471575 -0.0000000 0.0360017
v -0.4471575 -0.2000000 0.0360017
v -0.4794350 -0.2000000 0.0796945
v -0.4794350 -0.0000000 0.0796945
v -0.4000000 -0.0000000 0.0000000
v -0.4000000 -0.2000000 0.0000000
v -0.4471575 -0.2000000 0.0360017
v -0.4471575 -0.0000000 0.0360017
v -0.3247600 -0.1000000 0.1875000
v -0.3247600 -0.2000000 0.1875000
v -0.3350950 -0.2000000 0.1645995
v -0.3350950 -0.1000000 0.1645995
v -0.3350950 -0.1000000 0.1645995
v -0.3350950 -0.2000000 0.1645995
v -0.3590000 -0.2000000 0.1581938
v -0.3590000 -0.1000000 0.1581938
v -0.3590000 -0.1000000 0.1581938
v -0.3590000 -0.2000000 0.1581938
v -0.3839100 -0.2000000 0.1350483
v -0.3839100 -0.1000000 0.1350483
v -0.3839100 -0.1000000 0.1350483
v -0.3839100 -0.2000000 0.1350483
v -0.3895800 -0.2000000 0.1152275
v -0.3895800 -0.1000000 0.1152275
v -0.3895800 -0.1000000 0.1152275
v -0.3895800 -0.2000000 0.1152275
v -0.3707650 -0.2000000 0.0928173
v -0.3707650 -0.1000000 0.0928173
v -0.3707650 -0.1000000 0.0928173
v -0.3707650 -0.2000000 0.0928173
v -0.3417025 -0.2000000 0.0731523
v -0.3417025 -0.1000000 0.0731523
v -0.3417025 -0.1000000 0.0731523
v -0.3417025 -0.2000000 0.0731523
v -0.3037375 -0.2000000 0.0339120
v -0.3037375 -0.1000000 0.0339120
v -0.3037375 -0.1000000 0.0339120
v -0.3037375 -0.2000000 0.0339120
v -0.2999500 -0.2000000 0.0000000
v -0.2999500 -0.1000000 0.0000000
v -0.4471575 -0.0000000 0.0360017
v -0.4794350 -0.0000000 0.0796945
v -0.4413200 -0.0000000 0.2209630
v -0.4234550 -0.0000000 0.2357057
v -0.4794350 -0.0000000 0.0796945
v -0.4920400 -0.0000000 0.1244130
v -0.4622300 -0.0000000 0.1955945
v -0.4413200 -0.0000000 0.2209630
v -0.4920400 -0.0000000 0.1244130
v -0.4830125 -0.0000000 0.1633975
v -0.4622300 -0.0000000 0.1955945
v -0.4000000 -0.0000000 0.0000000
v -0.4471575 -0.0000000 0.0360017
v -0.4234550 -0.0000000 0.2357057
v -0.1250000 -0.0000000 0.0000000
v -0.1250000 -0.0000000 0.0000000
v -0.4234550 -0.0000000 0.2357057
v -0.4113625 -0.0000000 0.2375000
v -0.1082532 -0.0000000 0.0625000
v -0.3247600 -0.1000000 0.1875000
v -0.3350950 -0.1000000 0.1645995
v -0.3037375 -0.1000000 0.0339120
v -0.1948557 -0.1000000 0.1125000
v -0.3350950 -0.1000000 0.1645995
v -0.3590000 -0.1000000 0.1581938
v -0.3417025 -0.1000000 0.0731523
v -0.3037375 -0.1000000 0.0339120
v -0.3590000 -0.1000000 0.1581938
v -0.3839100 -0.1000000 0.1350483
v -0.3707650 -0.1000000 0.0928173
v -0.3417025 -0.1000000 0.0731523
v -0.3839100 -0.1000000 0.1350483
v -0.3895800 -0.1000000 0.1152275
v -0.3707650 -0.1000000 0.0928173
v -0.1948557 -0.1000000 0.1125000
v -0.3037375 -0.1000000 0.0339120
v -0.2999500 -0.1000000 0.0000000
v -0.2249085 -0.1000000 0.0000000
v -0.4234550 -0.2000000 0.2357057
v -0.3350950 -0.2000000 0.1645995
v -0.3247600 -0.2000000 0.1875000
v -0.4113625 -0.2000000 0.2375000
v -0.4413200 -0.2000000 0.2209630
v -0.3590000 -0.2000000 0.1581938
v -0.3350950 -0.2000000 0.1645995
v -0.4234550 -0.2000000 0.2357057
v -0.4622300 -0.2000000 0.1955945
v -0.3839100 -0.2000000 0.1350483
v -0.3590000 -0.2000000 0.1581938
v -0.4413200 -0.2000000 0.2209630
v -0.4830125 -0.2000000 0.1633975
v -0.3895800 -0.2000000 0.1152275
v -0.3839100 -0.2000000 0.1350483
v -0.4622300 -0.2000000 0.1955945
v -0.4920400 -0.2000000 0.1244130
v -0.3707650 -0.2000000 0.0928173
v -0.3895800 -0.2000000 0.1152275
v -0.4830125 -0.2000000 0.1633975
v -0.4794350 -0.2000000 0.0796945
v -0.3417025 -0.2000000 0.0731523
v -0.3707650 -0.2000000 0.0928173
v -0.4920400 -0.2000000 0.1244130
v -0.4471575 -0.2000000 0.0360017
v -0.3037375 -0.2000000 0.0339120
v -0.3417025 -0.2000000 0.0731523
v -0.4794350 -0.2000000 0.0796945
v -0.4000000 -0.2000000 0.0000000
v -0.2999500 -0.2000000 0.0000000
v -0.3037375 -0.2000000 0.0339120
v -0.4471575 -0.2000000 0.0360017
v -0.4113563 -0.0000000 0.2374899
v -0.4113563 -0.2000000 0.2374899
v -0.4158487 -0.2000000 0.2488592
v -0.4158487 -0.0000000 0.2488592
v -0.4158487 -0.0000000 0.2488592
v -0.4158487 -0.2000000 0.2488592
v -0.4120140 -0.2000000 0.2717016
v -0.4120140 -0.0000000 0.2717016
v -0.4120140 -0.0000000 0.2717016
v -0.4120140 -0.2000000 0.2717016
v -0.4004998 -0.2000000 0.3024939
v -0.4004998 -0.0000000 0.3024939
v -0.4004998 -0.0000000 0.3024939
v -0.4004998 -0.2000000 0.3024939
v -0.3830085 -0.2000000 0.3365901
v -0.3830085 -0.0000000 0.3365901
v -0.3830085 -0.0000000 0.3365901
v -0.3830085 -0.2000000 0.3365901
v -0.3537617 -0.2000000 0.3639001
v -0.3537617 -0.0000000 0.3639001
v -0.3537617 -0.0000000 0.3639001
v -0.3537617 -0.2000000 0.3639001
v -0.3087329 -0.2000000 0.3753435
v -0.3087329 -0.0000000 0.3753435
v -0.3087329 -0.0000000 0.3753435
v -0.3087329 -0.2000000 0.3753435
v -0.2547563 -0.2000000 0.3692375
v -0.2547563 -0.0000000 0.3692375
v -0.2547563 -0.0000000 0.3692375
v -0.2547563 -0.2000000 0.3692375
v -0.2000000 -0.2000000 0.3464000
v -0.2000000 -0.0000000 0.3464000
v -0.3100907 -0.1000000 0.2078925
v -0.3100907 -0.2000000 0.2078925
v -0.3247550 -0.2000000 0.1874922
v -0.3247550 -0.1000000 0.1874922
v -0.3164958 -0.1000000 0.2317971
v -0.3164958 -0.2000000 0.2317971
v -0.3100907 -0.2000000 0.2078925
v -0.3100907 -0.1000000 0.2078925
v -0.3089068 -0.1000000 0.2649419
v -0.3089068 -0.2000000 0.2649419
v -0.3164958 -0.2000000 0.2317971
v -0.3164958 -0.1000000 0.2317971
v -0.2945770 -0.1000000 0.2797625
v -0.2945770 -0.2000000 0.2797625
v -0.3089068 -0.2000000 0.2649419
v -0.3089068 -0.1000000 0.2649419
v -0.2657622 -0.1000000 0.2746739
v -0.2657622 -0.2000000 0.2746739
v -0.2945770 -0.2000000 0.2797625
v -0.2945770 -0.1000000 0.2797625
v -0.2342011 -0.1000000 0.2593382
v -0.2342011 -0.2000000 0.2593382
v -0.2657622 -0.2000000 0.2746739
v -0.2657622 -0.1000000 0.2746739
v -0.1812365 -0.1000000 0.2460807
v -0.1812365 -0.2000000 0.2460807
v -0.2342011 -0.2000000 0.2593382
v -0.2342011 -0.1000000 0.2593382
v -0.1499750 -0.1000000 0.2597567
v -0.1499750 -0.2000000 0.2597567
v -0.1812365 -0.2000000 0.2460807
v -0.1812365 -0.1000000 0.2460807
v -0.4158487 -0.0000000 0.2488592
v -0.4120140 -0.0000000 0.2717016
v -0.3087329 -0.0000000 0.3753435
v -0.2547563 -0.0000000 0.3692375
v -0.4120140 -0.0000000 0.2717016
v -0.4004998 -0.0000000 0.3024939
v -0.3537617 -0.0000000 0.3639001
v -0.3087329 -0.0000000 0.3753435
v -0.4004998 -0.0000000 0.3024939
v -0.3830085 -0.0000000 0.3365901
v -0.3537617 -0.0000000 0.3639001
v -0.0625000 -0.0000000 0.1082500
v -0.4158487 -0.0000000 0.2488592
v -0.2547563 -0.0000000 0.3692375
v -0.2000000 -0.0000000 0.3464000
v -0.1082516 -0.0000000 0.0624973
v -0.4113563 -0.0000000 0.2374899
v -0.4158487 -0.0000000 0.2488592
v -0.0625000 -0.0000000 0.1082500
v -0.1948529 -0.1000000 0.1124951
v -0.1812365 -0.1000000 0.2460807
v -0.3100907 -0.1000000 0.2078925
v -0.3247550 -0.1000000 0.1874922
v -0.1812365 -0.1000000 0.2460807
v -0.2342011 -0.1000000 0.2593382
v -0.3164958 -0.1000000 0.2317971
v -0.3100907 -0.1000000 0.2078925
v -0.2342011 -0.1000000 0.2593382
v -0.2657622 -0.1000000 0.2746739
v -0.3089068 -0.1000000 0.2649419
v -0.3164958 -0.1000000 0.2317971
v -0.2657622 -0.1000000 0.2746739
v -0.2945770 -0.1000000 0.2797625
v -0.3089068 -0.1000000 0.2649419
v -0.1124543 -0.1000000 0.1947708
v -0.1499750 -0.1000000 0.2597567
v -0.1812365 -0.1000000 0.2460807
v -0.1948529 -0.1000000 0.1124951
v -0.4113563 -0.2000000 0.2374899
v -0.3247550 -0.2000000 0.1874922
v -0.3100907 -0.2000000 0.2078925
v -0.4158487 -0.2000000 0.2488592
v -0.4158487 -0.2000000 0.2488592
v -0.3100907 -0.2000000 0.2078925
v -0.3164958 -0.2000000 0.2317971
v -0.4120140 -0.2000000 0.2717016
v -0.4120140 -0.2000000 0.2717016
v -0.3164958 -0.2000000 0.2317971
v -0.3089068 -0.2000000 0.2649419
v -0.4004998 -0.2000000 0.3024939
v -0.4004998 -0.2000000 0.3024939
v -0.3089068 -0.2000000 0.2649419
v -0.2945770 -0.2000000 0.2797625
v -0.3830085 -0.2000000 0.3365901
v -0.3830085 -0.2000000 0.3365901
v -0.2945770 -0.2000000 0.2797625
v -0.2657622 -0.2000000 0.2746739
v -0.3537617 -0.2000000 0.3639001
v -0.3537617 -0.2000000 0.3639001
v -0.2657622 -0.2000000 0.2746739
v -0.2342011 -0.2000000 0.2593382
v -0.3087329 -0.2000000 0.3753435
v -0.3087329 -0.2000000 0.3753435
v -0.2342011 -0.2000000 0.2593382
v -0.1812365 -0.2000000 0.2460807
v -0.2547563 -0.2000000 0.3692375
v -0.2547563 -0.2000000 0.3692375
v -0.1812365 -0.2000000 0.2460807
v -0.1499750 -0.2000000 0.2597567
v -0.2000000 -0.2000000 0.3464000
v -0.0076063 -0.0000000 0.4845649
v -0.0076063 -0.2000000 0.4845649
v -0.0000062 -0.2000000 0.4749899
v -0.0000062 -0.0000000 0.4749899
v -0.0293060 -0.0000000 0.4926646
v -0.0293060 -0.2000000 0.4926646
v -0.0076063 -0.2000000 0.4845649
v -0.0076063 -0.0000000 0.4845649
v -0.0617302 -0.0000000 0.4980884
v -0.0617302 -0.2000000 0.4980884
v -0.0293060 -0.2000000 0.4926646
v -0.0293060 -0.0000000 0.4926646
v -0.1000040 -0.0000000 0.4999876
v -0.1000040 -0.2000000 0.4999876
v -0.0617302 -0.2000000 0.4980884
v -0.0617302 -0.0000000 0.4980884
v -0.1382783 -0.0000000 0.4883131
v -0.1382783 -0.2000000 0.4883131
v -0.1000040 -0.2000000 0.4999876
v -0.1000040 -0.0000000 0.4999876
v -0.1707021 -0.0000000 0.4550380
v -0.1707021 -0.2000000 0.4550380
v -0.1382783 -0.2000000 0.4883131
v -0.1382783 -0.0000000 0.4883131
v -0.1924012 -0.0000000 0.4052393
v -0.1924012 -0.2000000 0.4052393
v -0.1707021 -0.2000000 0.4550380
v -0.1707021 -0.0000000 0.4550380
v -0.2000000 -0.0000000 0.3464000
v -0.2000000 -0.2000000 0.3464000
v -0.1924012 -0.2000000 0.4052393
v -0.1924012 -0.0000000 0.4052393
v -0.0000050 -0.1000000 0.3749922
v -0.0000050 -0.2000000 0.3749922
v -0.0250043 -0.2000000 0.3724920
v -0.0250043 -0.1000000 0.3724920
v -0.0250043 -0.1000000 0.3724920
v -0.0250043 -0.2000000 0.3724920
v -0.0425042 -0.2000000 0.3899909
v -0.0425042 -0.1000000 0.3899909
v -0.0425042 -0.1000000 0.3899909
v -0.0425042 -0.2000000 0.3899909
v -0.0750032 -0.2000000 0.3999902
v -0.0750032 -0.1000000 0.3999902
v -0.0750032 -0.1000000 0.3999902
v -0.0750032 -0.2000000 0.3999902
v -0.0950030 -0.2000000 0.3949900
v -0.0950030 -0.1000000 0.3949900
v -0.0950030 -0.1000000 0.3949900
v -0.0950030 -0.2000000 0.3949900
v -0.1050028 -0.2000000 0.3674911
v -0.1050028 -0.1000000 0.3674911
v -0.1050028 -0.1000000 0.3674911
v -0.1050028 -0.2000000 0.3674911
v -0.1075014 -0.2000000 0.3324905
v -0.1075014 -0.1000000 0.3324905
v -0.1075014 -0.1000000 0.3324905
v -0.1075014 -0.2000000 0.3324905
v -0.1225010 -0.2000000 0.2799927
v -0.1225010 -0.1000000 0.2799927
v -0.1225010 -0.1000000 0.2799927
v -0.1225010 -0.2000000 0.2799927
v -0.1499750 -0.2000000 0.2597567
v -0.1499750 -0.1000000 0.2597567
v -0.1924012 -0.0000000 0.4052393
v -0.1707021 -0.0000000 0.4550380
v -0.0293060 -0.0000000 0.4926646
v -0.0076063 -0.0000000 0.4845649
v -0.1707021 -0.0000000 0.4550380
v -0.1382783 -0.0000000 0.4883131
v -0.0617302 -0.0000000 0.4980884
v -0.0293060 -0.0000000 0.4926646
v -0.1382783 -0.0000000 0.4883131
v -0.1000040 -0.0000000 0.4999876
v -0.0617302 -0.0000000 0.4980884
v -0.2000000 -0.0000000 0.3464000
v -0.1924012 -0.0000000 0.4052393
v -0.0076063 -0.0000000 0.4845649
v -0.0625000 -0.0000000 0.1082500
v -0.0625000 -0.0000000 0.1082500
v -0.0076063 -0.0000000 0.4845649
v -0.0000062 -0.0000000 0.4749899
v -0.0000016 -0.0000000 0.1249973
v -0.0000050 -0.1000000 0.3749922
v -0.0250043 -0.1000000 0.3724920
v -0.1225010 -0.1000000 0.2799927
v -0.0000029 -0.1000000 0.2249951
v -0.0250043 -0.1000000 0.3724920
v -0.0425042 -0.1000000 0.3899909
v -0.1075014 -0.1000000 0.3324905
v -0.1225010 -0.1000000 0.2799927
v -0.0425042 -0.1000000 0.3899909
v -0.0750032 -0.1000000 0.3999902
v -0.1050028 -0.1000000 0.3674911
v -0.1075014 -0.1000000 0.3324905
v -0.0750032 -0.1000000 0.3999902
v -0.0950030 -0.1000000 0.3949900
v -0.1050028 -0.1000000 0.3674911
v -0.0000029 -0.1000000 0.2249951
v -0.1225010 -0.1000000 0.2799927
v -0.1499750 -0.1000000 0.2597567
v -0.1124543 -0.1000000 0.1947708
v -0.0076063 -0.2000000 0.4845649
v -0.0250043 -0.2000000 0.3724920
v -0.0000050 -0.2000000 0.3749922
v -0.0000062 -0.2000000 0.4749899
v -0.0293060 -0.2000000 0.4926646
v -0.0425042 -0.2000000 0.3899909
v -0.0250043 -0.2000000 0.3724920
v -0.0076063 -0.2000000 0.4845649
v -0.0617302 -0.2000000 0.4980884
v -0.0750032 -0.2000000 0.3999902
v -0.0425042 -0.2000000 0.3899909
v -0.0293060 -0.2000000 0.4926646
v -0.1000040 -0.2000000 0.4999876
v -0.0950030 -0.2000000 0.3949900
v -0.0750032 -0.2000000 0.3999902
v -0.0617302 -0.2000000 0.4980884
v -0.1382783 -0.2000000 0.4883131
v -0.1050028 -0.2000000 0.3674911
v -0.0950030 -0.2000000 0.3949900
v -0.1000040 -0.2000000 0.4999876
v -0.1707021 -0.2000000 0.4550380
v -0.1075014 -0.2000000 0.3324905
v -0.1050028 -0.2000000 0.3674911
v -0.1382783 -0.2000000 0.4883131
v -0.1924012 -0.2000000 0.4052393
v -0.1225010 -0.2000000 0.2799927
v -0.1075014 -0.2000000 0.3324905
v -0.1707021 -0.2000000 0.4550380
v -0.2000000 -0.2000000 0.3464000
v -0.1499750 -0.2000000 0.2597567
v -0.1225010 -0.2000000 0.2799927
v -0.1924012 -0.2000000 0.4052393
v 0.0000062 -0.0000000 0.4749899
v 0.0000062 -0.2000000 0.4749899
v 0.0076063 -0.2000000 0.4845649
v 0.0076063 -0.0000000 0.4845649
v 0.0076063 -0.0000000 0.4845649
v 0.0076063 -0.2000000 0.4845649
v 0.0293060 -0.2000000 0.4926646
v 0.0293060 -0.0000000 0.4926646
v 0.0293060 -0.0000000 0.4926646
v 0.0293060 -0.2000000 0.4926646
v 0.0617302 -0.2000000 0.4980884
v 0.0617302 -0.0000000 0.4980884
v 0.0617302 -0.0000000 0.4980884
v 0.0617302 -0.2000000 0.4980884
v 0.1000040 -0.2000000 0.4999876
v 0.1000040 -0.0000000 0.4999876
v 0.1000040 -0.0000000 0.4999876
v 0.1000040 -0.2000000 0.4999876
v 0.1382783 -0.2000000 0.4883131
v 0.1382783 -0.0000000 0.4883131
v 0.1382783 -0.0000000 0.4883131
v 0.1382783 -0.2000000 0.4883131
v 0.1707021 -0.2000000 0.4550380
v 0.1707021 -0.0000000 0.4550380
v 0.1707021 -0.0000000 0.4550380
v 0.1707021 -0.2000000 0.4550380
v 0.1924012 -0.2000000 0.4052393
v 0.1924012 -0.0000000 0.4052393
v 0.1924012 -0.0000000 0.4052393
v 0.1924012 -0.2000000 0.4052393
v 0.2000000 -0.2000000 0.3464000
v 0.2000000 -0.0000000 0.3464000
v 0.0250043 -0.1000000 0.3724920
v 0.0250043 -0.2000000 0.3724920
v 0.0000050 -0.2000000 0.3749922
v 0.0000050 -0.1000000 0.3749922
v 0.0425042 -0.1000000 0.3899909
v 0.0425042 -0.2000000 0.3899909
v 0.0250043 -0.2000000 0.3724920
v 0.0250043 -0.1000000 0.3724920
v 0.0750032 -0.1000000 0.3999902
v 0.0750032 -0.2000000 0.3999902
v 0.0425042 -0.2000000 0.3899909
v 0.0425042 -0.1000000 0.3899909
v 0.0950030 -0.1000000 0.3949900
v 0.0950030 -0.2000000 0.3949900
v 0.0750032 -0.2000000 0.3999902
v 0.0750032 -0.1000000 0.3999902
v 0.1050028 -0.1000000 0.3674911
v 0.1050028 -0.2000000 0.3674911
v 0.0950030 -0.2000000 0.3949900
v 0.0950030 -0.1000000 0.3949900
v 0.1075014 -0.1000000 0.3324905
v 0.1075014 -0.2000000 0.3324905
v 0.1050028 -0.2000000 0.3674911
v 0.1050028 -0.1000000 0.3674911
v 0.1225010 -0.1000000 0.2799927
v 0.1225010 -0.2000000 0.2799927
v 0.1075014 -0.2000000 0.3324905
v 0.1075014 -0.1000000 0.3324905
v 0.1499750 -0.1000000 0.2597567
v 0.1499750 -0.2000000 0.2597567
v 0.1225010 -0.2000000 0.2799927
v 0.1225010 -0.1000000 0.2799927
v 0.0076063 -0.0000000 0.4845649
v 0.0293060 -0.0000000 0.4926646
v 0.1707021 -0.0000000 0.4550380
v 0.1924012 -0.0000000 0.4052393
v 0.0293060 -0.0000000 0.4926646
v 0.0617302 -0.0000000 0.4980884
v 0.1382783 -0.0000000 0.4883131
v 0.1707021 -0.0000000 0.4550380
v 0.0617302 -0.0000000 0.4980884
v 0.1000040 -0.0000000 0.4999876
v 0.1382783 -0.0000000 0.4883131
v 0.0625000 -0.0000000 0.1082500
v 0.0076063 -0.0000000 0.4845649
v 0.1924012 -0.0000000 0.4052393
v 0.2000000 -0.0000000 0.3464000
v 0.0000016 -0.0000000 0.1249973
v 0.0000062 -0.0000000 0.4749899
v 0.0076063 -0.0000000 0.4845649
v 0.0625000 -0.0000000 0.1082500
v 0.0000029 -0.1000000 0.2249951
v 0.1225010 -0.1000000 0.2799927
v 0.0250043 -0.1000000 0.3724920
v 0.0000050 -0.1000000 0.3749922
v 0.1225010 -0.1000000 0.2799927
v 0.1075014 -0.1000000 0.3324905
v 0.0425042 -0.1000000 0.3899909
v 0.0250043 -0.1000000 0.3724920
v 0.1075014 -0.1000000 0.3324905
v 0.1050028 -0.1000000 0.3674911
v 0.0750032 -0.1000000 0.3999902
v 0.0425042 -0.1000000 0.3899909
v 0.1050028 -0.1000000 0.3674911
v 0.0950030 -0.1000000 0.3949900
v 0.0750032 -0.1000000 0.3999902
v 0.1124543 -0.1000000 0.1947708
v 0.1499750 -0.1000000 0.2597567
v 0.1225010 -0.1000000 0.2799927
v 0.0000029 -0.1000000 0.2249951
v 0.0000062 -0.2000000 0.4749899
v 0.0000050 -0.2000000 0.3749922
v 0.0250043 -0.2000000 0.3724920
v 0.0076063 -0.2000000 0.4845649
v 0.0076063 -0.2000000 0.4845649
v 0.0250043 -0.2000000 0.3724920
v 0.0425042 -0.2000000 0.3899909
v 0.0293060 -0.2000000 0.4926646
v 0.0293060 -0.2000000 0.4926646
v 0.0425042 -0.2000000 0.3899909
v 0.0750032 -0.2000000 0.3999902
v 0.0617302 -0.2000000 0.4980884
v 0.0617302 -0.2000000 0.4980884
v 0.0750032 -0.2000000 0.3999902
v 0.0950030 -0.2000000 0.3949900
v 0.1000040 -0.2000000 0.4999876
v 0.1000040 -0.2000000 0.4999876
v 0.0950030 -0.2000000 0.3949900
v 0.1050028 -0.2000000 0.3674911
v 0.1382783 -0.2000000 0.4883131
v 0.1382783 -0.2000000 0.4883131
v 0.1050028 -0.2000000 0.3674911
v 0.1075014 -0.2000000 0.3324905
v 0.1707021 -0.2000000 0.4550380
v 0.1707021 -0.2000000 0.4550380
v 0.1075014 -0.2000000 0.3324905
v 0.1225010 -0.2000000 0.2799927
v 0.1924012 -0.2000000 0.4052393
v 0.1924012 -0.2000000 0.4052393
v 0.1225010 -0.2000000 0.2799927
v 0.1499750 -0.2000000 0.2597567
v 0.2000000 -0.2000000 0.3464000
v 0.4158487 -0.0000000 0.2488592
v 0.4158487 -0.2000000 0.2488592
v 0.4113563 -0.2000000 0.2374899
v 0.4113563 -0.0000000 0.2374899
v 0.4120140 -0.0000000 0.2717016
v 0.4120140 -0.2000000 0.2717016
v 0.4158487 -0.2000000 0.2488592
v 0.4158487 -0.0000000 0.2488592
v 0.4004998 -0.0000000 0.3024939
v 0.4004998 -0.2000000 0.3024939
v 0.4120140 -0.2000000 0.2717016
v 0.4120140 -0.0000000 0.2717016
v 0.3830085 -0.0000000 0.3365901
v 0.3830085 -0.2000000 0.3365901
v 0.4004998 -0.2000000 0.3024939
v 0.4004998 -0.0000000 0.3024939
v 0.3537617 -0.0000000 0.3639001
v 0.3537617 -0.2000000 0.3639001
v 0.3830085 -0.2000000 0.3365901
v 0.3830085 -0.0000000 0.3365901
v 0.3087329 -0.0000000 0.3753435
v 0.3087329 -0.2000000 0.3753435
v 0.3537617 -0.2000000 0.3639001
v 0.3537617 -0.0000000 0.3639001
v 0.2547563 -0.0000000 0.3692375
v 0.2547563 -0.2000000 0.3692375
v 0.3087329 -0.2000000 0.3753435
v 0.3087329 -0.0000000 0.3753435
v 0.2000000 -0.0000000 0.3464000
v 0.2000000 -0.2000000 0.3464000
v 0.2547563 -0.2000000 0.3692375
v 0.2547563 -0.0000000 0.3692375
v 0.3247550 -0.1000000 0.1874922
v 0.3247550 -0.2000000 0.1874922
v 0.3100907 -0.2000000 0.2078925
v 0.3100907 -0.1000000 0.2078925
v 0.3100907 -0.1000000 0.2078925
v 0.3100907 -0.2000000 0.2078925
v 0.3164958 -0.2000000 0.2317971
v 0.3164958 -0.1000000 0.2317971
v 0.3164958 -0.1000000 0.2317971
v 0.3164958 -0.2000000 0.2317971
v 0.3089068 -0.2000000 0.2649419
v 0.3089068 -0.1000000 0.2649419
v 0.3089068 -0.1000000 0.2649419
v 0.3089068 -0.2000000 0.2649419
v 0.2945770 -0.2000000 0.2797625
v 0.2945770 -0.1000000 0.2797625
v 0.2945770 -0.1000000 0.2797625
v 0.2945770 -0.2000000 0.2797625
v 0.2657622 -0.2000000 0.2746739
v 0.2657622 -0.1000000 0.2746739
v 0.2657622 -0.1000000 0.2746739
v 0.2657622 -0.2000000 0.2746739
v 0.2342011 -0.2000000 0.2593382
v 0.2342011 -0.1000000 0.2593382
v 0.2342011 -0.1000000 0.2593382
v 0.2342011 -0.2000000 0.2593382
v 0.1812365 -0.2000000 0.2460807
v 0.1812365 -0.1000000 0.2460807
v 0.1812365 -0.1000000 0.2460807
v 0.1812365 -0.2000000 0.2460807
v 0.1499750 -0.2000000 0.2597567
v 0.1499750 -0.1000000 0.2597567
v 0.2547563 -0.0000000 0.3692375
v 0.3087329 -0.0000000 0.3753435
v 0.4120140 -0.0000000 0.2717016
v 0.4158487 -0.0000000 0.2488592
v 0.3087329 -0.0000000 0.3753435
v 0.3537617 -0.0000000 0.3639001
v 0.4004998 -0.0000000 0.3024939
v 0.4120140 -0.0000000 0.2717016
v 0.3537617 -0.0000000 0.3639001
v 0.3830085 -0.0000000 0.3365901
v 0.4004998 -0.0000000 0.3024939
v 0.2000000 -0.0000000 0.3464000
v 0.2547563 -0.0000000 0.3692375
v 0.4158487 -0.0000000 0.2488592
v 0.0625000 -0.0000000 0.1082500
v 0.0625000 -0.0000000 0.1082500
v 0.4158487 -0.0000000 0.2488592
v 0.4113563 -0.0000000 0.2374899
v 0.1082516 -0.0000000 0.0624973
v 0.3247550 -0.1000000 0.1874922
v 0.3100907 -0.1000000 0.2078925
v 0.1812365 -0.1000000 0.2460807
v 0.1948529 -0.1000000 0.1124951
v 0.3100907 -0.1000000 0.2078925
v 0.3164958 -0.1000000 0.2317971
v 0.2342011 -0.1000000 0.2593382
v 0.1812365 -0.1000000 0.2460807
v 0.3164958 -0.1000000 0.2317971
v 0.3089068 -0.1000000 0.2649419
v 0.2657622 -0.1000000 0.2746739
v 0.2342011 -0.1000000 0.2593382
v 0.3089068 -0.1000000 0.2649419
v 0.2945770 -0.1000000 0.2797625
v 0.2657622 -0.1000000 0.2746739
v 0.1948529 -0.1000000 0.1124951
v 0.1812365 -0.1000000 0.2460807
v 0.1499750 -0.1000000 0.2597567
v 0.1124543 -0.1000000 0.1947708
v 0.4158487 -0.2000000 0.2488592
v 0.3100907 -0.2000000 0.2078925
v 0.3247550 -0.2000000 0.1874922
v 0.4113563 -0.2000000 0.2374899
v 0.4120140 -0.2000000 0.2717016
v 0.3164958 -0.2000000 0.2317971
v 0.3100907 -0.2000000 0.2078925
v 0.4158487 -0.2000000 0.2488592
v 0.4004998 -0.2000000 0.3024939
v 0.3089068 -0.2000000 0.2649419
v 0.3164958 -0.2000000 0.2317971
v 0.4120140 -0.2000000 0.2717016
v 0.3830085 -0.2000000 0.3365901
v 0.2945770 -0.2000000 0.2797625
v 0.3089068 -0.2000000 0.2649419
v 0.4004998 -0.2000000 0.3024939
v 0.3537617 -0.2000000 0.3639001
v 0.2657622 -0.2000000 0.2746739
v 0.2945770 -0.2000000 0.2797625
v 0.3830085 -0.2000000 0.3365901
v 0.3087329 -0.2000000 0.3753435
v 0.2342011 -0.2000000 0.2593382
v 0.2657622 -0.2000000 0.2746739
v 0.3537617 -0.2000000 0.3639001
v 0.2547563 -0.2000000 0.3692375
v 0.1812365 -0.2000000 0.2460807
v 0.2342011 -0.2000000 0.2593382
v 0.3087329 -0.2000000 0.3753435
v 0.2000000 -0.2000000 0.3464000
v 0.1499750 -0.2000000 0.2597567
v 0.1812365 -0.2000000 0.2460807
v 0.2547563 -0.2000000 0.3692375
v 0.4113625 -0.0000000 0.2375000
v 0.4113625 -0.2000000 0.2375000
v 0.4234550 -0.2000000 0.2357057
v 0.4234550 -0.0000000 0.2357057
v 0.4234550 -0.0000000 0.2357057
v 0.4234550 -0.2000000 0.2357057
v 0.4413200 -0.2000000 0.2209630
v 0.4413200 -0.0000000 0.2209630
v 0.4413200 -0.0000000 0.2209630
v 0.4413200 -0.2000000 0.2209630
v 0.4622300 -0.2000000 0.1955945
v 0.4622300 -0.0000000 0.1955945
v 0.4622300 -0.0000000 0.1955945
v 0.4622300 -0.2000000 0.1955945
v 0.4830125 -0.2000000 0.1633975
v 0.4830125 -0.0000000 0.1633975
v 0.4830125 -0.0000000 0.1633975
v 0.4830125 -0.2000000 0.1633975
v 0.4920400 -0.2000000 0.1244130
v 0.4920400 -0.0000000 0.1244130
v 0.4920400 -0.0000000 0.1244130
v 0.4920400 -0.2000000 0.1244130
v 0.4794350 -0.2000000 0.0796945
v 0.4794350 -0.0000000 0.0796945
v 0.4794350 -0.0000000 0.0796945
v 0.4794350 -0.2000000 0.0796945
v 0.4471575 -0.2000000 0.0360017
v 0.4471575 -0.0000000 0.0360017
v 0.4471575 -0.0000000 0.0360017
v 0.4471575 -0.2000000 0.0360017
v 0.4000000 -0.2000000 0.0000000
v 0.4000000 -0.0000000 0.0000000
v 0.3350950 -0.1000000 0.1645995
v 0.3350950 -0.2000000 0.1645995
v 0.3247600 -0.2000000 0.1875000
v 0.3247600 -0.1000000 0.1875000
v 0.3590000 -0.1000000 0.1581938
v 0.3590000 -0.2000000 0.1581938
v 0.3350950 -0.2000000 0.1645995
v 0.3350950 -0.1000000 0.1645995
v 0.3839100 -0.1000000 0.1350483
v 0.3839100 -0.2000000 0.1350483
v 0.3590000 -0.2000000 0.1581938
v 0.3590000 -0.1000000 0.1581938
v 0.3895800 -0.1000000 0.1152275
v 0.3895800 -0.2000000 0.1152275
v 0.3839100 -0.2000000 0.1350483
v 0.3839100 -0.1000000 0.1350483
v 0.3707650 -0.1000000 0.0928173
v 0.3707650 -0.2000000 0.0928173
v 0.3895800 -0.2000000 0.1152275
v 0.3895800 -0.1000000 0.1152275
v 0.3417025 -0.1000000 0.0731523
v 0.3417025 -0.2000000 0.0731523
v 0.3707650 -0.2000000 0.0928173
v 0.3707650 -0.1000000 0.0928173
v 0.3037375 -0.1000000 0.0339120
v 0.3037375 -0.2000000 0.0339120
v 0.3417025 -0.2000000 0.0731523
v 0.3417025 -0.1000000 0.0731523
v 0.2999500 -0.1000000 0.0000000
v 0.2999500 -0.2000000 0.0000000
v 0.3037375 -0.2000000 0.0339120
v 0.3037375 -0.1000000 0.0339120
v 0.4234550 -0.0000000 0.2357057
v 0.4413200 -0.0000000 0.2209630
v 0.4794350 -0.0000000 0.0796945
v 0.4471575 -0.0000000 0.0360017
v 0.4413200 -0.0000000 0.2209630
v 0.4622300 -0.0000000 0.1955945
v 0.4920400 -0.0000000 0.1244130
v 0.4794350 -0.0000000 0.0796945
v 0.4622300 -0.0000000 0.1955945
v 0.4830125 -0.0000000 0.1633975
v 0.4920400 -0.0000000 0.1244130
v 0.1250000 -0.0000000 0.0000000
v 0.4234550 -0.0000000 0.2357057
v 0.4471575 -0.0000000 0.0360017
v 0.4000000 -0.0000000 0.0000000
v 0.1082532 -0.0000000 0.0625000
v 0.4113625 -0.0000000 0.2375000
v 0.4234550 -0.0000000 0.2357057
v 0.1250000 -0.0000000 0.0000000
v 0.1948557 -0.1000000 0.1125000
v 0.3037375 -0.1000000 0.0339120
v 0.3350950 -0.1000000 0.1645995
v 0.3247600 -0.1000000 0.1875000
v 0.3037375 -0.1000000 0.0339120
v 0.3417025 -0.1000000 0.0731523
v 0.3590000 -0.1000000 0.1581938
v 0.3350950 -0.1000000 0.1645995
v 0.3417025 -0.1000000 0.0731523
v 0.3707650 -0.1000000 0.0928173
v 0.3839100 -0.1000000 0.1350483
v 0.3590000 -0.1000000 0.1581938
v 0.3707650 -0.1000000 0.0928173
v 0.3895800 -0.1000000 0.1152275
v 0.3839100 -0.1000000 0.1350483
v 0.2249085 -0.1000000 0.0000000
v 0.2999500 -0.1000000 0.0000000
v 0.3037375 -0.1000000 0.0339120
v 0.1948557 -0.1000000 0.1125000
v 0.4113625 -0.2000000 0.2375000
v 0.3247600 -0.2000000 0.1875000
v 0.3350950 -0.2000000 0.1645995
v 0.4234550 -0.2000000 0.2357057
v 0.4234550 -0.2000000 0.2357057
v 0.3350950 -0.2000000 0.1645995
v 0.3590000 -0.2000000 0.1581938
v 0.4413200 -0.2000000 0.2209630
v 0.4413200 -0.2000000 0.2209630
v 0.3590000 -0.2000000 0.1581938
v 0.3839100 -0.2000000 0.1350483
v 0.4622300 -0.2000000 0.1955945
v 0.4622300 -0.2000000 0.1955945
v 0.3839100 -0.2000000 0.1350483
v 0.3895800 -0.2000000 0.1152275
v 0.4830125 -0.2000000 0.1633975
v 0.4830125 -0.2000000 0.1633975
v 0.3895800 -0.2000000 0.1152275
v 0.3707650 -0.2000000 0.0928173
v 0.4920400 -0.2000000 0.1244130
v 0.4920400 -0.2000000 0.1244130
v 0.3707650 -0.2000000 0.0928173
v 0.3417025 -0.2000000 0.0731523
v 0.4794350 -0.2000000 0.0796945
v 0.4794350 -0.2000000 0.0796945
v 0.3417025 -0.2000000 0.0731523
v 0.3037375 -0.2000000 0.0339120
v 0.4471575 -0.2000000 0.0360017
v 0.4471575 -0.2000000 0.0360017
v 0.3037375 -0.2000000 0.0339120
v 0.2999500 -0.2000000 0.0000000
v 0.4000000 -0.2000000 0.0000000
v 0.4234550 -0.0000000 -0.2357057
v 0.4234550 -0.2000000 -0.2357057
v 0.4113625 -0.2000000 -0.2375000
v 0.4113625 -0.0000000 -0.2375000
v 0.4413200 -0.0000000 -0.2209630
v 0.4413200 -0.2000000 -0.2209630
v 0.4234550 -0.2000000 -0.2357057
v 0.4234550 -0.0000000 -0.2357057
v 0.4622300 -0.0000000 -0.1955945
v 0.4622300 -0.2000000 -0.1955945
v 0.4413200 -0.2000000 -0.2209630
v 0.4413200 -0.0000000 -0.2209630
v 0.4830125 -0.0000000 -0.1633975
v 0.4830125 -0.2000000 -0.1633975
v 0.4622300 -0.2000000 -0.1955945
v 0.4622300 -0.0000000 -0.1955945
v 0.4920400 -0.0000000 -0.1244130
v 0.4920400 -0.2000000 -0.1244130
v 0.4830125 -0.2000000 -0.1633975
v 0.4830125 -0.0000000 -0.1633975
v 0.4794350 -0.0000000 -0.0796945
v 0.4794350 -0.2000000 -0.0796945
v 0.4920400 -0.2000000 -0.1244130
v 0.4920400 -0.0000000 -0.1244130
v 0.4471575 -0.0000000 -0.0360017
v 0.4471575 -0.2000000 -0.0360017
v 0.4794350 -0.2000000 -0.0796945
v 0.4794350 -0.0000000 -0.0796945
v 0.4000000 -0.0000000 0.0000000
v 0.4000000 -0.2000000 0.0000000
v 0.4471575 -0.2000000 -0.0360017
v 0.4471575 -0.0000000 -0.0360017
v 0.3247600 -0.1000000 -0.1875000
v 0.3247600 -0.2000000 -0.1875000
v 0.3350950 -0.2000000 -0.1645995
v 0.3350950 -0.1000000 -0.1645995
v 0.3350950 -0.1000000 -0.1645995
v 0.3350950 -0.2000000 -0.1645995
v 0.3590000 -0.2000000 -0.1581938
v 0.3590000 -0.1000000 -0.1581938
v 0.3590000 -0.1000000 -0.1581938
v 0.3590000 -0.2000000 -0.1581938
v 0.3839100 -0.2000000 -0.1350483
v 0.3839100 -0.1000000 -0.1350483
v 0.3839100 -0.1000000 -0.1350483
v 0.3839100 -0.2000000 -0.1350483
v 0.3895800 -0.2000000 -0.1152275
v 0.3895800 -0.1000000 -0.1152275
v 0.3895800 -0.1000000 -0.1152275
v 0.3895800 -0.2000000 -0.1152275
v 0.3707650 -0.2000000 -0.0928173
v 0.3707650 -0.1000000 -0.0928173
v 0.3707650 -0.1000000 -0.0928173
v 0.3707650 -0.2000000 -0.0928173
v 0.3417025 -0.2000000 -0.0731523
v 0.3417025 -0.1000000 -0.0731523
v 0.3417025 -0.1000000 -0.0731523
v 0.3417025 -0.2000000 -0.0731523
v 0.3037375 -0.2000000 -0.0339120
v 0.3037375 -0.1000000 -0.0339120
v 0.3037375 -0.1000000 -0.0339120
v 0.3037375 -0.2000000 -0.0339120
v 0.2999500 -0.2000000 0.0000000
v 0.2999500 -0.1000000 0.0000000
v 0.4471575 -0.0000000 -0.0360017
v 0.4794350 -0.0000000 -0.0796945
v 0.4413200 -0.0000000 -0.2209630
v 0.4234550 -0.0000000 -0.2357057
v 0.4794350 -0.0000000 -0.0796945
v 0.4920400 -0.0000000 -0.1244130
v 0.4622300 -0.0000000 -0.1955945
v 0.4413200 -0.0000000 -0.2209630
v 0.4920400 -0.0000000 -0.1244130
v 0.4830125 -0.0000000 -0.1633975
v 0.4622300 -0.0000000 -0.1955945
v 0.4000000 -0.0000000 0.0000000
v 0.4471575 -0.0000000 -0.0360017
v 0.4234550 -0.0000000 -0.2357057
v 0.1250000 -0.0000000 0.0000000
v 0.1250000 -0.0000000 0.0000000
v 0.4234550 -0.0000000 -0.2357057
v 0.4113625 -0.0000000 -0.2375000
v 0.1082532 -0.0000000 -0.0625000
v 0.3247600 -0.1000000 -0.1875000
v 0.3350950 -0.1000000 -0.1645995
v 0.3037375 -0.1000000 -0.0339120
v 0.1948557 -0.1000000 -0.1125000
v 0.3350950 -0.1000000 -0.1645995
v 0.3590000 -0.1000000 -0.1581938
v 0.3417025 -0.1000000 -0.0731523
v 0.3037375 -0.1000000 -0.0339120
v 0.3590000 -0.1000000 -0.1581938
v 0.3839100 -0.1000000 -0.1350483
v 0.3707650 -0.1000000 -0.0928173
v 0.3417025 -0.1000000 -0.0731523
v 0.3839100 -0.1000000 -0.1350483
v 0.3895800 -0.1000000 -0.1152275
v 0.3707650 -0.1000000 -0.0928173
v 0.1948557 -0.1000000 -0.1125000
v 0.3037375 -0.1000000 -0.0339120
v 0.2999500 -0.1000000 0.0000000
v 0.2249085 -0.1000000 0.0000000
v 0.4234550 -0.2000000 -0.2357057
v 0.3350950 -0.2000000 -0.1645995
v 0.3247600 -0.2000000 -0.1875000
v 0.4113625 -0.2000000 -0.2375000
v 0.4413200 -0.2000000 -0.2209630
v 0.3590000 -0.2000000 -0.1581938
v 0.3350950 -0.2000000 -0.1645995
v 0.4234550 -0.2000000 -0.2357057
v 0.4622300 -0.2000000 -0.1955945
v 0.3839100 -0.2000000 -0.1350483
v 0.3590000 -0.2000000 -0.1581938
v 0.4413200 -0.2000000 -0.2209630
v 0.4830125 -0.2000000 -0.1633975
v 0.3895800 -0.2000000 -0.1152275
v 0.3839100 -0.2000000 -0.1350483
v 0.4622300 -0.2000000 -0.1955945
v 0.4920400 -0.2000000 -0.1244130
v 0.3707650 -0.2000000 -0.0928173
v 0.3895800 -0.2000000 -0.1152275
v 0.4830125 -0.2000000 -0.1633975
v 0.4794350 -0.2000000 -0.0796945
v 0.3417025 -0.2000000 -0.0731523
v 0.3707650 -0.2000000 -0.0928173
v 0.4920400 -0.2000000 -0.1244130
v 0.4471575 -0.2000000 -0.0360017
v 0.3037375 -0.2000000 -0.0339120
v 0.3417025 -0.2000000 -0.0731523
v 0.4794350 -0.2000000 -0.0796945
v 0.4000000 -0.2000000 0.0000000
v 0.2999500 -0.2000000 0.0000000
v 0.3037375 -0.2000000 -0.0339120
v 0.4471575 -0.2000000 -0.0360017
v 0.4113563 -0.0000000 -0.2374899
v 0.4113563 -0.2000000 -0.2374899
v 0.4158487 -0.2000000 -0.2488592
v 0.4158487 -0.0000000 -0.2488592
v 0.4158487 -0.0000000 -0.2488592
v 0.4158487 -0.2000000 -0.2488592
v 0.4120140 -0.2000000 -0.2717016
v 0.4120140 -0.0000000 -0.2717016
v 0.4120140 -0.0000000 -0.2717016
v 0.4120140 -0.2000000 -0.2717016
v 0.4004998 -0.2000000 -0.3024939
v 0.4004998 -0.0000000 -0.3024939
v 0.4004998 -0.0000000 -0.3024939
v 0.4004998 -0.2000000 -0.3024939
v 0.3830085 -0.2000000 -0.3365901
v 0.3830085 -0.0000000 -0.3365901
v 0.3830085 -0.0000000 -0.3365901
v 0.3830085 -0.2000000 -0.3365901
v 0.3537617 -0.2000000 -0.3639001
v 0.3537617 -0.0000000 -0.3639001
v 0.3537617 -0.0000000 -0.3639001
v 0.3537617 -0.2000000 -0.3639001
v 0.3087329 -0.2000000 -0.3753435
v 0.3087329 -0.0000000 -0.3753435
v 0.3087329 -0.0000000 -0.3753435
v 0.3087329 -0.2000000 -0.3753435
v 0.2547563 -0.2000000 -0.3692375
v 0.2547563 -0.0000000 -0.3692375
v 0.2547563 -0.0000000 -0.3692375
v 0.2547563 -0.2000000 -0.3692375
v 0.2000000 -0.2000000 -0.3464000
v 0.2000000 -0.0000000 -0.3464000
v 0.3100907 -0.1000000 -0.2078925
v 0.3100907 -0.2000000 -0.2078925
v 0.3247550 -0.2000000 -0.1874922
v 0.3247550 -0.1000000 -0.1874922
v 0.3164958 -0.1000000 -0.2317971
v 0.3164958 -0.2000000 -0.2317971
v 0.3100907 -0.2000000 -0.2078925
v 0.3100907 -0.1000000 -0.2078925
v 0.3089068 -0.1000000 -0.2649419
v 0.3089068 -0.2000000 -0.2649419
v 0.3164958 -0.2000000 -0.2317971
v 0.3164958 -0.1000000 -0.2317971
v 0.2945770 -0.1000000 -0.2797625
v 0.2945770 -0.2000000 -0.2797625
v 0.3089068 -0.2000000 -0.2649419
v 0.3089068 -0.1000000 -0.2649419
v 0.2657622 -0.1000000 -0.2746739
v 0.2657622 -0.2000000 -0.2746739
v 0.2945770 -0.2000000 -0.2797625
v 0.2945770 -0.1000000 -0.2797625
v 0.2342011 -0.1000000 -0.2593382
v 0.2342011 -0.2000000 -0.2593382
v 0.2657622 -0.2000000 -0.2746739
v 0.2657622 -0.1000000 -0.2746739
v 0.1812365 -0.1000000 -0.2460807
v 0.1812365 -0.2000000 -0.2460807
v 0.2342011 -0.2000000 -0.2593382
v 0.2342011 -0.1000000 -0.2593382
v 0.1499750 -0.1000000 -0.2597567
v 0.1499750 -0.2000000 -0.2597567
v 0.1812365 -0.2000000 -0.2460807
v 0.1812365 -0.1000000 -0.2460807
v 0.4158487 -0.0000000 -0.2488592
v 0.4120140 -0.0000000 -0.2717016
v 0.3087329 -0.0000000 -0.3753435
v 0.2547563 -0.0000000 -0.3692375
v 0.4120140 -0.0000000 -0.2717016
v 0.4004998 -0.0000000 -0.3024939
v 0.3537617 -0.0000000 -0.3639001
v 0.3087329 -0.0000000 -0.3753435
v 0.4004998 -0.0000000 -0.3024939
v 0.3830085 -0.0000000 -0.3365901
v 0.3537617 -0.0000000 -0.3639001
v 0.0625000 -0.0000000 -0.1082500
v 0.4158487 -0.0000000 -0.2488592
v 0.2547563 -0.0000000 -0.3692375
v 0.2000000 -0.0000000 -0.3464000
v 0.1082516 -0.0000000 -0.0624973
v 0.4113563 -0.0000000 -0.2374899
v 0.4158487 -0.0000000 -0.2488592
v 0.0625000 -0.0000000 -0.1082500
v 0.1948529 -0.1000000 -0.1124951
v 0.1812365 -0.1000000 -0.2460807
v 0.3100907 -0.1000000 -0.2078925
v 0.3247550 -0.1000000 -0.1874922
v 0.1812365 -0.1000000 -0.2460807
v 0.2342011 -0.1000000 -0.2593382
v 0.3164958 -0.1000000 -0.2317971
v 0.3100907 -0.1000000 -0.2078925
v 0.2342011 -0.1000000 -0.2593382
v 0.2657622 -0.1000000 -0.2746739
v 0.3089068 -0.1000000 -0.2649419
v 0.3164958 -0.1000000 -0.2317971
v 0.2657622 -0.1000000 -0.2746739
v 0.2945770 -0.1000000 -0.2797625
v 0.3089068 -0.1000000 -0.2649419
v 0.1124543 -0.1000000 -0.1947708
v 0.1499750 -0.1000000 -0.2597567
v 0.1812365 -0.1000000 -0.2460807
v 0.1948529 -0.1000000 -0.1124951
v 0.4113563 -0.2000000 -0.2374899
v 0.3247550 -0.2000000 -0.1874922
v 0.3100907 -0.2000000 -0.2078925
v 0.4158487 -0.2000000 -0.2488592
v 0.4158487 -0.2000000 -0.2488592
v 0.3100907 -0.2000000 -0.2078925
v 0.3164958 -0.2000000 -0.2317971
v 0.4120140 -0.2000000 -0.2717016
v 0.4120140 -0.2000000 -0.2717016
v 0.3164958 -0.2000000 -0.2317971
v 0.3089068 -0.2000000 -0.2649419
v 0.4004998 -0.2000000 -0.3024939
v 0.4004998 -0.2000000 -0.3024939
v 0.3089068 -0.2000000 -0.2649419
v 0.2945770 -0.2000000 -0.2797625
v 0.3830085 -0.2000000 -0.3365901
v 0.3830085 -0.2000000 -0.3365901
v 0.2945770 -0.2000000 -0.2797625
v 0.2657622 -0.2000000 -0.2746739
v 0.3537617 -0.2000000 -0.3639001
v 0.3537617 -0.2000000 -0.3639001
v 0.2657622 -0.2000000 -0.2746739
v 0.2342011 -0.2000000 -0.2593382
v 0.3087329 -0.2000000 -0.3753435
v 0.3087329 -0.2000000 -0.3753435
v 0.2342011 -0.2000000 -0.2593382
v 0.1812365 -0.2000000 -0.2460807
v 0.2547563 -0.2000000 -0.3692375
v 0.2547563 -0.2000000 -0.3692375
v 0.1812365 -0.2000000 -0.2460807
v 0.1499750 -0.2000000 -0.2597567
v 0.2000000 -0.2000000 -0.3464000
v 0.0076063 -0.0000000 -0.4845649
v 0.0076063 -0.2000000 -0.4845649
v 0.0000062 -0.2000000 -0.4749899
v 0.0000062 -0.0000000 -0.4749899
v 0.0293060 -0.0000000 -0.4926646
v 0.0293060 -0.2000000 -0.4926646
v 0.0076063 -0.2000000 -0.4845649
v 0.0076063 -0.0000000 -0.4845649
v 0.0617302 -0.0000000 -0.4980884
v 0.0617302 -0.2000000 -0.4980884
v 0.0293060 -0.2000000 -0.4926646
v 0.0293060 -0.0000000 -0.4926646
v 0.1000040 -0.0000000 -0.4999876
v 0.1000040 -0.2000000 -0.4999876
v 0.0617302 -0.2000000 -0.4980884
v 0.0617302 -0.0000000 -0.4980884
v 0.1382783 -0.0000000 -0.4883131
v 0.1382783 -0.2000000 -0.4883131
v 0.1000040 -0.2000000 -0.4999876
v 0.1000040 -0.0000000 -0.4999876
v 0.1707021 -0.0000000 -0.4550380
v 0.1707021 -0.2000000 -0.4550380
v 0.1382783 -0.2000000 -0.4883131
v 0.1382783 -0.0000000 -0.4883131
v 0.1924012 -0.0000000 -0.4052393
v 0.1924012 -0.2000000 -0.4052393
v 0.1707021 -0.2000000 -0.4550380
v 0.1707021 -0.0000000 -0.4550380
v 0.2000000 -0.0000000 -0.3464000
v 0.2000000 -0.2000000 -0.3464000
v 0.1924012 -0.2000000 -0.4052393
v 0.1924012 -0.0000000 -0.4052393
v 0.0000050 -0.1000000 -0.3749922
v 0.0000050 -0.2000000 -0.3749922
v 0.0250043 -0.2000000 -0.3724920
v 0.0250043 -0.1000000 -0.3724920
v 0.0250043 -0.1000000 -0.3724920
v 0.0250043 -0.2000000 -0.3724920
v 0.0425042 -0.2000000 -0.3899909
v 0.0425042 -0.1000000 -0.3899909
v 0.0425042 -0.1000000 -0.3899909
v 0.0425042 -0.2000000 -0.3899909
v 0.0750032 -0.2000000 -0.3999902
v 0.0750032 -0.1000000 -0.3999902
v 0.0750032 -0.1000000 -0.3999902
v 0.0750032 -0.2000000 -0.3999902
v 0.0950030 -0.2000000 -0.3949900
v 0.0950030 -0.1000000 -0.3949900
v 0.0950030 -0.1000000 -0.3949900
v 0.0950030 -0.2000000 -0.3949900
v 0.1050028 -0.2000000 -0.3674911
v 0.1050028 -0.1000000 -0.3674911
v 0.1050028 -0.1000000 -0.3674911
v 0.1050028 -0.2000000 -0.3674911
v 0.1075014 -0.2000000 -0.3324905
v 0.1075014 -0.1000000 -0.3324905
v 0.1075014 -0.1000000 -0.3324905
v 0.1075014 -0.2000000 -0.3324905
v 0.1225010 -0.2000000 -0.2799927
v 0.1225010 -0.1000000 -0.2799927
v 0.1225010 -0.1000000 -0.2799927
v 0.1225010 -0.2000000 -0.2799927
v 0.1499750 -0.2000000 -0.2597567
v 0.1499750 -0.1000000 -0.2597567
v 0.1924012 -0.0000000 -0.4052393
v 0.1707021 -0.0000000 -0.4550380
v 0.0293060 -0.0000000 -0.4926646
v 0.0076063 -0.0000000 -0.4845649
v 0.1707021 -0.0000000 -0.4550380
v 0.1382783 -0.0000000 -0.4883131
v 0.0617302 -0.0000000 -0.4980884
v 0.0293060 -0.0000000 -0.4926646
v 0.1382783 -0.0000000 -0.4883131
v 0.1000040 -0.0000000 -0.4999876
v 0.0617302 -0.0000000 -0.4980884
v 0.2000000 -0.0000000 -0.3464000
v 0.1924012 -0.0000000 -0.4052393
v 0.0076063 -0.0000000 -0.4845649
v 0.0625000 -0.0000000 -0.1082500
v 0.0625000 -0.0000000 -0.1082500
v 0.0076063 -0.0000000 -0.4845649
v 0.0000062 -0.0000000 -0.4749899
v 0.0000016 -0.0000000 -0.1249973
v 0.0000050 -0.1000000 -0.3749922
v 0.0250043 -0.1000000 -0.3724920
v 0.1225010 -0.1000000 -0.2799927
v 0.0000029 -0.1000000 -0.2249951
v 0.0250043 -0.1000000 -0.3724920
v 0.0425042 -0.1000000 -0.3899909
v 0.1075014 -0.1000000 -0.3324905
v 0.1225010 -0.1000000 -0.2799927
v 0.0425042 -0.1000000 -0.3899909
v 0.0750032 -0.1000000 -0.3999902
v 0.1050028 -0.1000000 -0.3674911
v 0.1075014 -0.1000000 -0.3324905
v 0.0750032 -0.1000000 -0.3999902
v 0.0950030 -0.1000000 -0.3949900
v 0.1050028 -0.1000000 -0.3674911
v 0.0000029 -0.1000000 -0.2249951
v 0.1225010 -0.1000000 -0.2799927
v 0.1499750 -0.1000000 -0.2597567
v 0.1124543 -0.1000000 -0.1947708
v 0.0076063 -0.2000000 -0.4845649
v 0.0250043 -0.2000000 -0.3724920
v 0.0000050 -0.2000000 -0.3749922
v 0.0000062 -0.2000000 -0.4749899
v 0.0293060 -0.2000000 -0.4926646
v 0.0425042 -0.2000000 -0.3899909
v 0.0250043 -0.2000000 -0.3724920
v 0.0076063 -0.2000000 -0.4845649
v 0.0617302 -0.2000000 -0.4980884
v 0.0750032 -0.2000000 -0.3999902
v 0.0425042 -0.2000000 -0.3899909
v 0.0293060 -0.2000000 -0.4926646
v 0.1000040 -0.2000000 -0.4999876
v 0.0950030 -0.2000000 -0.3949900
v 0.0750032 -0.2000000 -0.3999902
v 0.0617302 -0.2000000 -0.4980884
v 0.1382783 -0.2000000 -0.4883131
v 0.1050028 -0.2000000 -0.3674911
v 0.0950030 -0.2000000 -0.3949900
v 0.1000040 -0.2000000 -0.4999876
v 0.1707021 -0.2000000 -0.4550380
v 0.1075014 -0.2000000 -0.3324905
v 0.1050028 -0.2000000 -0.3674911
v 0.1382783 -0.2000000 -0.4883131
v 0.1924012 -0.2000000 -0.4052393
v 0.1225010 -0.2000000 -0.2799927
v 0.1075014 -0.2000000 -0.3324905
v 0.1707021 -0.2000000 -0.4550380
v 0.2000000 -0.2000000 -0.3464000
v 0.1499750 -0.2000000 -0.2597567
v 0.1225010 -0.2000000 -0.2799927
v 0.1924012 -0.2000000 -0.4052393
v -0.0000062 -0.0000000 -0.4749899
v -0.0000062 -0.2000000 -0.4749899
v -0.0076063 -0.2000000 -0.4845649
v -0.0076063 -0.0000000 -0.4845649
v -0.0076063 -0.0000000 -0.4845649
v -0.0076063 -0.2000000 -0.4845649
v -0.0293060 -0.2000000 -0.4926646
v -0.0293060 -0.0000000 -0.4926646
v -0.0293060 -0.0000000 -0.4926646
v -0.0293060 -0.2000000 -0.4926646
v -0.0617302 -0.2000000 -0.4980884
v -0.0617302 -0.0000000 -0.4980884
v -0.0617302 -0.0000000 -0.4980884
v -0.0617302 -0.2000000 -0.4980884
v -0.1000040 -0.2000000 -0.4999876
v -0.1000040 -0.0000000 -0.4999876
v -0.1000040 -0.0000000 -0.4999876
v -0.1000040 -0.2000000 -0.4999876
v -0.1382783 -0.2000000 -0.4883131
v -0.1382783 -0.0000000 -0.4883131
v -0.1382783 -0.0000000 -0.4883131
v -0.1382783 -0.2000000 -0.4883131
v -0.1707021 -0.2000000 -0.4550380
v -0.1707021 -0.0000000 -0.4550380
v -0.1707021 -0.0000000 -0.4550380
v -0.1707021 -0.2000000 -0.4550380
v -0.1924012 -0.2000000 -0.4052393
v -0.1924012 -0.0000000 -0.4052393
v -0.1924012 -0.0000000 -0.4052393
v -0.1924012 -0.2000000 -0.4052393
v -0.2000000 -0.2000000 -0.3464000
v -0.2000000 -0.0000000 -0.3464000
v -0.0250043 -0.1000000 -0.3724920
v -0.0250043 -0.2000000 -0.3724920
v -0.0000050 -0.2000000 -0.3749922
v -0.0000050 -0.1000000 -0.3749922
v -0.0425042 -0.1000000 -0.3899909
v -0.0425042 -0.2000000 -0.3899909
v -0.0250043 -0.2000000 -0.3724920
v -0.0250043 -0.1000000 -0.3724920
v -0.0750032 -0.1000000 -0.3999902
v -0.0750032 -0.2000000 -0.3999902
v -0.0425042 -0.2000000 -0.3899909
v -0.0425042 -0.1000000 -0.3899909
v -0.0950030 -0.1000000 -0.3949900
v -0.0950030 -0.2000000 -0.3949900
v -0.0750032 -0.2000000 -0.3999902
v -0.0750032 -0.1000000 -0.3999902
v -0.1050028 -0.1000000 -0.3674911
v -0.1050028 -0.2000000 -0.3674911
v -0.0950030 -0.2000000 -0.3949900
v -0.0950030 -0.1000000 -0.3949900
v -0.1075014 -0.1000000 -0.3324905
v -0.1075014 -0.2000000 -0.3324905
v -0.1050028 -0.2000000 -0.3674911
v -0.1050028 -0.1000000 -0.3674911
v -0.1225010 -0.1000000 -0.2799927
v -0.1225010 -0.2000000 -0.2799927
v -0.1075014 -0.2000000 -0.3324905
v -0.1075014 -0.1000000 -0.3324905
v -0.1499750 -0.1000000 -0.2597567
v -0.1499750 -0.2000000 -0.2597567
v -0.1225010 -0.2000000 -0.2799927
v -0.1225010 -0.1000000 -0.2799927
v -0.0076063 -0.0000000 -0.4845649
v -0.0293060 -0.0000000 -0.4926646
v -0.1707021 -0.0000000 -0.4550380
v -0.1924012 -0.0000000 -0.4052393
v -0.0293060 -0.0000000 -0.4926646
v -0.0617302 -0.0000000 -0.4980884
v -0.1382783 -0.0000000 -0.4883131
v -0.1707021 -0.0000000 -0.4550380
v -0.0617302 -0.0000000 -0.4980884
v -0.1000040 -0.0000000 -0.4999876
v -0.1382783 -0.0000000 -0.4883131
v -0.0625000 -0.0000000 -0.1082500
v -0.0076063 -0.0000000 -0.4845649
v -0.1924012 -0.0000000 -0.4052393
v -0.2000000 -0.0000000 -0.3464000
v -0.0000016 -0.0000000 -0.1249973
v -0.0000062 -0.0000000 -0.4749899
v -0.0076063 -0.0000000 -0.4845649
v -0.0625000 -0.0000000 -0.1082500
v -0.0000029 -0.1000000 -0.2249951
v -0.1225010 -0.1000000 -0.2799927
v -0.0250043 -0.1000000 -0.3724920
v -0.0000050 -0.1000000 -0.3749922
v -0.1225010 -0.1000000 -0.2799927
v -0.1075014 -0.1000000 -0.3324905
v -0.0425042 -0.1000000 -0.3899909
v -0.0250043 -0.1000000 -0.3724920
v -0.1075014 -0.1000000 -0.3324905
v -0.1050028 -0.1000000 -0.3674911
v -0.0750032 -0.1000000 -0.3999902
v -0.0425042 -0.1000000 -0.3899909
v -0.1050028 -0.1000000 -0.3674911
v -0.0950030 -0.1000000 -0.3949900
v -0.0750032 -0.1000000 -0.3999902
v -0.1124543 -0.1000000 -0.1947708
v -0.1499750 -0.1000000 -0.2597567
v -0.1225010 -0.1000000 -0.2799927
v -0.0000029 -0.1000000 -0.2249951
v -0.0000062 -0.2000000 -0.4749899
v -0.0000050 -0.2000000 -0.3749922
v -0.0250043 -0.2000000 -0.3724920
v -0.0076063 -0.2000000 -0.4845649
v -0.0076063 -0.2000000 -0.4845649
v -0.0250043 -0.2000000 -0.3724920
v -0.0425042 -0.2000000 -0.3899909
v -0.0293060 -0.2000000 -0.4926646
v -0.0293060 -0.2000000 -0.4926646
v -0.0425042 -0.2000000 -0.3899909
v -0.0750032 -0.2000000 -0.3999902
v -0.0617302 -0.2000000 -0.4980884
v -0.0617302 -0.2000000 -0.4980884
v -0.0750032 -0.2000000 -0.3999902
v -0.0950030 -0.2000000 -0.3949900
v -0.1000040 -0.2000000 -0.4999876
v -0.1000040 -0.2000000 -0.4999876
v -0.0950030 -0.2000000 -0.3949900
v -0.1050028 -0.2000000 -0.3674911
v -0.1382783 -0.2000000 -0.4883131
v -0.1382783 -0.2000000 -0.4883131
v -0.1050028 -0.2000000 -0.3674911
v -0.1075014 -0.2000000 -0.3324905
v -0.1707021 -0.2000000 -0.4550380
v -0.1707021 -0.2000000 -0.4550380
v -0.1075014 -0.2000000 -0.3324905
v -0.1225010 -0.2000000 -0.2799927
v -0.1924012 -0.2000000 -0.4052393
v -0.1924012 -0.2000000 -0.4052393
v -0.1225010 -0.2000000 -0.2799927
v -0.1499750 -0.2000000 -0.2597567
v -0.2000000 -0.2000000 -0.3464000
v -0.4158487 -0.0000000 -0.2488592
v -0.4158487 -0.2000000 -0.2488592
v -0.4113563 -0.2000000 -0.2374899
v -0.4113563 -0.0000000 -0.2374899
v -0.4120140 -0.0000000 -0.2717016
v -0.4120140 -0.2000000 -0.2717016
v -0.4158487 -0.2000000 -0.2488592
v -0.4158487 -0.0000000 -0.2488592
v -0.4004998 -0.0000000 -0.3024939
v -0.4004998 -0.2000000 -0.3024939
v -0.4120140 -0.2000000 -0.2717016
v -0.4120140 -0.0000000 -0.2717016
v -0.3830085 -0.0000000 -0.3365901
v -0.3830085 -0.2000000 -0.3365901
v -0.4004998 -0.2000000 -0.3024939
v -0.4004998 -0.0000000 -0.3024939
v -0.3537617 -0.0000000 -0.3639001
v -0.3537617 -0.2000000 -0.3639001
v -0.3830085 -0.2000000 -0.3365901
v -0.3830085 -0.0000000 -0.3365901
v -0.3087329 -0.0000000 -0.3753435
v -0.3087329 -0.2000000 -0.3753435
v -0.3537617 -0.2000000 -0.3639001
v -0.3537617 -0.0000000 -0.3639001
v -0.2547563 -0.0000000 -0.3692375
v -0.2547563 -0.2000000 -0.3692375
v -0.3087329 -0.2000000 -0.3753435
v -0.3087329 -0.0000000 -0.3753435
v -0.2000000 -0.0000000 -0.3464000
v -0.2000000 -0.2000000 -0.3464000
v -0.2547563 -0.2000000 -0.3692375
v -0.2547563 -0.0000000 -0.3692375
v -0.3247550 -0.1000000 -0.1874922
v -0.3247550 -0.2000000 -0.1874922
v -0.3100907 -0.2000000 -0.2078925
v -0.3100907 -0.1000000 -0.2078925
v -0.3100907 -0.1000000 -0.2078925
v -0.3100907 -0.2000000 -0.2078925
v -0.3164958 -0.2000000 -0.2317971
v -0.3164958 -0.1000000 -0.2317971
v -0.3164958 -0.1000000 -0.2317971
v -0.3164958 -0.2000000 -0.2317971
v -0.3089068 -0.2000000 -0.2649419
v -0.3089068 -0.1000000 -0.2649419
v -0.3089068 -0.1000000 -0.2649419
v -0.3089068 -0.2000000 -0.2649419
v -0.2945770 -0.2000000 -0.2797625
v -0.2945770 -0.1000000 -0.2797625
v -0.2945770 -0.1000000 -0.2797625
v -0.2945770 -0.2000000 -0.2797625
v -0.2657622 -0.2000000 -0.2746739
v -0.2657622 -0.1000000 -0.2746739
v -0.2657622 -0.1000000 -0.2746739
v -0.2657622 -0.2000000 -0.2746739
v -0.2342011 -0.2000000 -0.2593382
v -0.2342011 -0.1000000 -0.2593382
v -0.2342011 -0.1000000 -0.2593382
v -0.2342011 -0.2000000 -0.2593382
v -0.1812365 -0.2000000 -0.2460807
v -0.1812365 -0.1000000 -0.2460807
v -0.1812365 -0.1000000 -0.2460807
v -0.1812365 -0.2000000 -0.2460807
v -0.1499750 -0.2000000 -0.2597567
v -0.1499750 -0.1000000 -0.2597567
v -0.2547563 -0.0000000 -0.3692375
v -0.3087329 -0.0000000 -0.3753435
v -0.4120140 -0.0000000 -0.2717016
v -0.4158487 -0.0000000 -0.2488592
v -0.3087329 -0.0000000 -0.3753435
v -0.3537617 -0.0000000 -0.3639001
v -0.4004998 -0.0000000 -0.3024939
v -0.4120140 -0.0000000 -0.2717016
v -0.3537617 -0.0000000 -0.3639001
v -0.3830085 -0.0000000 -0.3365901
v -0.4004998 -0.0000000 -0.3024939
v -0.2000000 -0.0000000 -0.3464000
v -0.2547563 -0.0000000 -0.3692375
v -0.4158487 -0.0000000 -0.2488592
v -0.0625000 -0.0000000 -0.1082500
v -0.0625000 -0.0000000 -0.1082500
v -0.4158487 -0.0000000 -0.2488592
v -0.4113563 -0.0000000 -0.2374899
v -0.1082516 -0.0000000 -0.0624973
v -0.3247550 -0.1000000 -0.1874922
v -0.3100907 -0.1000000 -0.2078925
v -0.1812365 -0.1000000 -0.2460807
v -0.1948529 -0.1000000 -0.1124951
v -0.3100907 -0.1000000 -0.2078925
v -0.3164958 -0.1000000 -0.2317971
v -0.2342011 -0.1000000 -0.2593382
v -0.1812365 -0.1000000 -0.2460807
v -0.3164958 -0.1000000 -0.2317971
v -0.3089068 -0.1000000 -0.2649419
v -0.2657622 -0.1000000 -0.2746739
v -0.2342011 -0.1000000 -0.2593382
v -0.3089068 -0.1000000 -0.2649419
v -0.2945770 -0.1000000 -0.2797625
v -0.2657622 -0.1000000 -0.2746739
v -0.1948529 -0.1000000 -0.1124951
v -0.1812365 -0.1000000 -0.2460807
v -0.1499750 -0.1000000 -0.2597567
v -0.1124543 -0.1000000 -0.1947708
v -0.4158487 -0.2000000 -0.2488592
v -0.3100907 -0.2000000 -0.2078925
v -0.3247550 -0.2000000 -0.1874922
v -0.4113563 -0.2000000 -0.2374899
v -0.4120140 -0.2000000 -0.2717016
v -0.3164958 -0.2000000 -0.2317971
v -0.3100907 -0.2000000 -0.2078925
v -0.4158487 -0.2000000 -0.2488592
v -0.4004998 -0.2000000 -0.3024939
v -0.3089068 -0.2000000 -0.2649419
v -0.3164958 -0.2000000 -0.2317971
v -0.4120140 -0.2000000 -0.2717016
v -0.3830085 -0.2000000 -0.3365901
v -0.2945770 -0.2000000 -0.2797625
v -0.3089068 -0.2000000 -0.2649419
v -0.4004998 -0.2000000 -0.3024939
v -0.3537617 -0.2000000 -0.3639001
v -0.2657622 -0.2000000 -0.2746739
v -0.2945770 -0.2000000 -0.2797625
v -0.3830085 -0.2000000 -0.3365901
v -0.3087329 -0.2000000 -0.3753435
v -0.2342011 -0.2000000 -0.2593382
v -0.2657622 -0.2000000 -0.2746739
v -0.3537617 -0.2000000 -0.3639001
v -0.2547563 -0.2000000 -0.3692375
v -0.1812365 -0.2000000 -0.2460807
v -0.2342011 -0.2000000 -0.2593382
v -0.3087329 -0.2000000 -0.3753435
v -0.2000000 -0.2000000 -0.3464000
v -0.1499750 -0.2000000 -0.2597567
v -0.1812365 -0.2000000 -0.2460807
v -0.2547563 -0.2000000 -0.3692375
v 0.2500000 -0.1000000 0.0000000
v 0.2309750 -0.1000000 0.0956750
v 0.2309750 -0.4750000 0.0956750
v 0.2500000 -0.4750000 0.0000000
v 0.2309750 -0.1000000 0.0956750
v 0.1767750 -0.1000000 0.1767750
v 0.1767750 -0.4750000 0.1767750
v 0.2309750 -0.4750000 0.0956750
v 0.1767750 -0.1000000 0.1767750
v 0.0956750 -0.1000000 0.2309750
v 0.0956750 -0.4750000 0.2309750
v 0.1767750 -0.4750000 0.1767750
v 0.0956750 -0.1000000 0.2309750
v 0.0000000 -0.1000000 0.2500000
v 0.0000000 -0.4750000 0.2500000
v 0.0956750 -0.4750000 0.2309750
v 0.0000000 -0.1000000 0.2500000
v -0.0956750 -0.1000000 0.2309750
v -0.0956750 -0.4750000 0.2309750
v 0.0000000 -0.4750000 0.2500000
v -0.0956750 -0.1000000 0.2309750
v -0.1767750 -0.1000000 0.1767750
v -0.1767750 -0.4750000 0.1767750
v -0.0956750 -0.4750000 0.2309750
v -0.1767750 -0.1000000 0.1767750
v -0.2309750 -0.1000000 0.0956750
v -0.2309750 -0.4750000 0.0956750
v -0.1767750 -0.4750000 0.1767750
v -0.2309750 -0.1000000 0.0956750
v -0.2500000 -0.1000000 0.0000000
v -0.2500000 -0.4750000 0.0000000
v -0.2309750 -0.4750000 0.0956750
v -0.2500000 -0.1000000 0.0000000
v -0.2309750 -0.1000000 -0.0956750
v -0.2309750 -0.4750000 -0.0956750
v -0.2500000 -0.4750000 0.0000000
v -0.2309750 -0.1000000 -0.0956750
v -0.1767750 -0.1000000 -0.1767750
v -0.1767750 -0.4750000 -0.1767750
v -0.2309750 -0.4750000 -0.0956750
v -0.1767750 -0.1000000 -0.1767750
v -0.0956750 -0.1000000 -0.2309750
v -0.0956750 -0.4750000 -0.2309750
v -0.1767750 -0.4750000 -0.1767750
v -0.0956750 -0.1000000 -0.2309750
v 0.0000000 -0.1000000 -0.2500000
v 0.0000000 -0.4750000 -0.2500000
v -0.0956750 -0.4750000 -0.2309750
v 0.0000000 -0.1000000 -0.2500000
v 0.0956750 -0.1000000 -0.2309750
v 0.0956750 -0.4750000 -0.2309750
v 0.0000000 -0.4750000 -0.2500000
v 0.0956750 -0.1000000 -0.2309750
v 0.1767750 -0.1000000 -0.1767750
v 0.1767750 -0.4750000 -0.1767750
v 0.0956750 -0.4750000 -0.2309750
v 0.1767750 -0.1000000 -0.1767750
v 0.2309750 -0.1000000 -0.0956750
v 0.2309750 -0.4750000 -0.0956750
v 0.1767750 -0.4750000 -0.1767750
v 0.2309750 -0.1000000 -0.0956750
v 0.2500000 -0.1000000 0.0000000
v 0.2500000 -0.4750000 0.0000000
v 0.2309750 -0.4750000 -0.0956750
v 0.1500000 -0.5000000 0.0000000
v 0.1385850 -0.5000000 0.0574050
v 0.1385850 -0.1000000 0.0574050
v 0.1500000 -0.1000000 0.0000000
v 0.1385850 -0.5000000 0.0574050
v 0.1060650 -0.5000000 0.1060650
v 0.1060650 -0.1000000 0.1060650
v 0.1385850 -0.1000000 0.0574050
v 0.1060650 -0.5000000 0.1060650
v 0.0574050 -0.5000000 0.1385850
v 0.0574050 -0.1000000 0.1385850
v 0.1060650 -0.1000000 0.1060650
v 0.0574050 -0.5000000 0.1385850
v 0.0000000 -0.5000000 0.1500000
v 0.0000000 -0.1000000 0.1500000
v 0.0574050 -0.1000000 0.1385850
v 0.0000000 -0.5000000 0.1500000
v -0.0574050 -0.5000000 0.1385850
v -0.0574050 -0.1000000 0.1385850
v 0.0000000 -0.1000000 0.1500000
v -0.0574050 -0.5000000 0.1385850
v -0.1060650 -0.5000000 0.1060650
v -0.1060650 -0.1000000 0.1060650
v -0.0574050 -0.1000000 0.1385850
v -0.1060650 -0.5000000 0.1060650
v -0.1385850 -0.5000000 0.0574050
v -0.1385850 -0.1000000 0.0574050
v -0.1060650 -0.1000000 0.1060650
v -0.1385850 -0.5000000 0.0574050
v -0.1500000 -0.5000000 0.0000000
v -0.1500000 -0.1000000 0.0000000
v -0.1385850 -0.1000000 0.0574050
v -0.1500000 -0.5000000 0.0000000
v -0.1385850 -0.5000000 -0.0574050
v -0.1385850 -0.1000000 -0.0574050
v -0.1500000 -0.1000000 0.0000000
v -0.1385850 -0.5000000 -0.0574050
v -0.1060650 -0.5000000 -0.1060650
v -0.1060650 -0.1000000 -0.1060650
v -0.1385850 -0.1000000 -0.0574050
v -0.1060650 -0.5000000 -0.1060650
v -0.0574050 -0.5000000 -0.1385850
v -0.0574050 -0.1000000 -0.1385850
v -0.1060650 -0.1000000 -0.1060650
v -0.0574050 -0.5000000 -0.1385850
v 0.0000000 -0.5000000 -0.1500000
v 0.0000000 -0.1000000 -0.1500000
v -0.0574050 -0.1000000 -0.1385850
v 0.0000000 -0.5000000 -0.1500000
v 0.0574050 -0.5000000 -0.1385850
v 0.0574050 -0.1000000 -0.1385850
v 0.0000000 -0.1000000 -0.1500000
v 0.0574050 -0.5000000 -0.1385850
v 0.1060650 -0.5000000 -0.1060650
v 0.1060650 -0.1000000 -0.1060650
v 0.0574050 -0.1000000 -0.1385850
v 0.1060650 -0.5000000 -0.1060650
v 0.1385850 -0.5000000 -0.0574050
v 0.1385850 -0.1000000 -0.0574050
v 0.1060650 -0.1000000 -0.1060650
v 0.1385850 -0.5000000 -0.0574050
v 0.1500000 -0.5000000 0.0000000
v 0.1500000 -0.1000000 0.0000000
v 0.1385850 -0.1000000 -0.0574050
v -0.0956750 -0.4750000 0.2309750
v -0.0765400 -0.4750000 0.1847800
v 0.0000000 -0.4750000 0.2000000
v 0.0000000 -0.4750000 0.2500000
v -0.1767750 -0.4750000 0.1767750
v -0.1414200 -0.4750000 0.1414200
v -0.0765400 -0.4750000 0.1847800
v -0.0956750 -0.4750000 0.2309750
v -0.2309750 -0.4750000 0.0956750
v -0.1847800 -0.4750000 0.0765400
v -0.1414200 -0.4750000 0.1414200
v -0.1767750 -0.4750000 0.1767750
v -0.2500000 -0.4750000 0.0000000
v -0.2000000 -0.4750000 0.0000000
v -0.1847800 -0.4750000 0.0765400
v -0.2309750 -0.4750000 0.0956750
v -0.2309750 -0.4750000 -0.0956750
v -0.1847800 -0.4750000 -0.0765400
v -0.2000000 -0.4750000 0.0000000
v -0.2500000 -0.4750000 0.0000000
v -0.1767750 -0.4750000 -0.1767750
v -0.1414200 -0.4750000 -0.1414200
v -0.1847800 -0.4750000 -0.0765400
v -0.2309750 -0.4750000 -0.0956750
v -0.0956750 -0.4750000 -0.2309750
v -0.0765400 -0.4750000 -0.1847800
v -0.1414200 -0.4750000 -0.1414200
v -0.1767750 -0.4750000 -0.1767750
v 0.0000000 -0.4750000 -0.2500000
v 0.0000000 -0.4750000 -0.2000000
v -0.0765400 -0.4750000 -0.1847800
v -0.0956750 -0.4750000 -0.2309750
v 0.0956750 -0.4750000 -0.2309750
v 0.0765400 -0.4750000 -0.1847800
v 0.0000000 -0.4750000 -0.2000000
v 0.0000000 -0.4750000 -0.2500000
v 0.1767750 -0.4750000 -0.1767750
v 0.1414200 -0.4750000 -0.1414200
v 0.0765400 -0.4750000 -0.1847800
v 0.0956750 -0.4750000 -0.2309750
v 0.2309750 -0.4750000 -0.0956750
v 0.1847800 -0.4750000 -0.0765400
v 0.1414200 -0.4750000 -0.1414200
v 0.1767750 -0.4750000 -0.1767750
v 0.2500000 -0.4750000 0.0000000
v 0.2000000 -0.4750000 0.0000000
v 0.1847800 -0.4750000 -0.0765400
v 0.2309750 -0.4750000 -0.0956750
v 0.2309750 -0.4750000 0.0956750
v 0.1847800 -0.4750000 0.0765400
v 0.2000000 -0.4750000 0.0000000
v 0.2500000 -0.4750000 0.0000000
v 0.1767750 -0.4750000 0.1767750
v 0.1414200 -0.4750000 0.1414200
v 0.1847800 -0.4750000 0.0765400
v 0.2309750 -0.4750000 0.0956750
v 0.0956750 -0.4750000 0.2309750
v 0.0765400 -0.4750000 0.1847800
v 0.1414200 -0.4750000 0.1414200
v 0.1767750 -0.4750000 0.1767750
v 0.0000000 -0.4750000 0.2500000
v 0.0000000 -0.4750000 0.2000000
v 0.0765400 -0.4750000 0.1847800
v 0.0956750 -0.4750000 0.2309750
v 0.2000000 -0.4750000 0.0000000
v 0.1847800 -0.4750000 0.0765400
v 0.1847800 -0.5000000 0.0765400
v 0.2000000 -0.5000000 0.0000000
v 0.1847800 -0.4750000 0.0765400
v 0.1414200 -0.4750000 0.1414200
v 0.1414200 -0.5000000 0.1414200
v 0.1847800 -0.5000000 0.0765400
v 0.1414200 -0.4750000 0.1414200
v 0.0765400 -0.4750000 0.1847800
v 0.0765400 -0.5000000 0.1847800
v 0.1414200 -0.5000000 0.1414200
v 0.0765400 -0.4750000 0.1847800
v 0.0000000 -0.4750000 0.2000000
v 0.0000000 -0.5000000 0.2000000
v 0.0765400 -0.5000000 0.1847800
v 0.0000000 -0.4750000 0.2000000
v -0.0765400 -0.4750000 0.1847800
v -0.0765400 -0.5000000 0.1847800
v 0.0000000 -0.5000000 0.2000000
v -0.0765400 -0.4750000 0.1847800
v -0.1414200 -0.4750000 0.1414200
v -0.1414200 -0.5000000 0.1414200
v -0.0765400 -0.5000000 0.1847800
v -0.1414200 -0.4750000 0.1414200
v -0.1847800 -0.4750000 0.0765400
v -0.1847800 -0.5000000 0.0765400
v -0.1414200 -0.5000000 0.1414200
v -0.1847800 -0.4750000 0.0765400
v -0.2000000 -0.4750000 0.0000000
v -0.2000000 -0.5000000 0.0000000
v -0.1847800 -0.5000000 0.0765400
v -0.2000000 -0.4750000 0.0000000
v -0.1847800 -0.4750000 -0.0765400
v -0.1847800 -0.5000000 -0.0765400
v -0.2000000 -0.5000000 0.0000000
v -0.1847800 -0.4750000 -0.0765400
v -0.1414200 -0.4750000 -0.1414200
v -0.1414200 -0.5000000 -0.1414200
v -0.1847800 -0.5000000 -0.0765400
v -0.1414200 -0.4750000 -0.1414200
v -0.0765400 -0.4750000 -0.1847800
v -0.0765400 -0.5000000 -0.1847800
v -0.1414200 -0.5000000 -0.1414200
v -0.0765400 -0.4750000 -0.1847800
v 0.0000000 -0.4750000 -0.2000000
v 0.0000000 -0.5000000 -0.2000000
v -0.0765400 -0.5000000 -0.1847800
v 0.0000000 -0.4750000 -0.2000000
v 0.0765400 -0.4750000 -0.1847800
v 0.0765400 -0.5000000 -0.1847800
v 0.0000000 -0.5000000 -0.2000000
v 0.0765400 -0.4750000 -0.1847800
v 0.1414200 -0.4750000 -0.1414200
v 0.1414200 -0.5000000 -0.1414200
v 0.0765400 -0.5000000 -0.1847800
v 0.1414200 -0.4750000 -0.1414200
v 0.1847800 -0.4750000 -0.0765400
v 0.1847800 -0.5000000 -0.0765400
v 0.1414200 -0.5000000 -0.1414200
v 0.1847800 -0.4750000 -0.0765400
v 0.2000000 -0.4750000 0.0000000
v 0.2000000 -0.5000000 0.0000000
v 0.1847800 -0.5000000 -0.0765400
v 0.1500000 -0.5000000 0.0000000
v 0.1385850 -0.5000000 -0.0574050
v 0.1385850 -0.6000000 -0.0574050
v 0.1500000 -0.6000000 0.0000000
v 0.1385850 -0.5000000 -0.0574050
v 0.1060650 -0.5000000 -0.1060650
v 0.1060650 -0.6000000 -0.1060650
v 0.1385850 -0.6000000 -0.0574050
v 0.1060650 -0.5000000 -0.1060650
v 0.0574050 -0.5000000 -0.1385850
v 0.0574050 -0.6000000 -0.1385850
v 0.1060650 -0.6000000 -0.1060650
v 0.0574050 -0.5000000 -0.1385850
v 0.0000000 -0.5000000 -0.1500000
v 0.0000000 -0.6000000 -0.1500000
v 0.0574050 -0.6000000 -0.1385850
v 0.0000000 -0.5000000 -0.1500000
v -0.0574050 -0.5000000 -0.1385850
v -0.0574050 -0.6000000 -0.1385850
v 0.0000000 -0.6000000 -0.1500000
v -0.0574050 -0.5000000 -0.1385850
v -0.1060650 -0.5000000 -0.1060650
v -0.1060650 -0.6000000 -0.1060650
v -0.0574050 -0.6000000 -0.1385850
v -0.1060650 -0.5000000 -0.1060650
v -0.1385850 -0.5000000 -0.0574050
v -0.1385850 -0.6000000 -0.0574050
v -0.1060650 -0.6000000 -0.1060650
v -0.1385850 -0.5000000 -0.0574050
v -0.1500000 -0.5000000 0.0000000
v -0.1500000 -0.6000000 0.0000000
v -0.1385850 -0.6000000 -0.0574050
v -0.1500000 -0.5000000 0.0000000
v -0.1385850 -0.5000000 0.0574050
v -0.1385850 -0.6000000 0.0574050
v -0.1500000 -0.6000000 0.0000000
v -0.1385850 -0.5000000 0.0574050
v -0.1060650 -0.5000000 0.1060650
v -0.1060650 -0.6000000 0.1060650
v -0.1385850 -0.6000000 0.0574050
v -0.1060650 -0.5000000 0.1060650
v -0.0574050 -0.5000000 0.1385850
v -0.0574050 -0.6000000 0.1385850
v -0.1060650 -0.6000000 0.1060650
v -0.0574050 -0.5000000 0.1385850
v 0.0000000 -0.5000000 0.1500000
v 0.0000000 -0.6000000 0.1500000
v -0.0574050 -0.6000000 0.1385850
v 0.0000000 -0.5000000 0.1500000
v 0.0574050 -0.5000000 0.1385850
v 0.0574050 -0.6000000 0.1385850
v 0.0000000 -0.6000000 0.1500000
v 0.0574050 -0.5000000 0.1385850
v 0.1060650 -0.5000000 0.1060650
v 0.1060650 -0.6000000 0.1060650
v 0.0574050 -0.6000000 0.1385850
v 0.1060650 -0.5000000 0.1060650
v 0.1385850 -0.5000000 0.0574050
v 0.1385850 -0.6000000 0.0574050
v 0.1060650 -0.6000000 0.1060650
v 0.1385850 -0.5000000 0.0574050
v 0.1500000 -0.5000000 0.0000000
v 0.1500000 -0.6000000 0.0000000
v 0.1385850 -0.6000000 0.0574050
v 0.2000000 -0.6000000 0.0000000
v 0.1847800 -0.6000000 -0.0765400
v 0.1847800 -0.5000000 -0.0765400
v 0.2000000 -0.5000000 0.0000000
v 0.1847800 -0.6000000 -0.0765400
v 0.1414200 -0.6000000 -0.1414200
v 0.1414200 -0.5000000 -0.1414200
v 0.1847800 -0.5000000 -0.0765400
v 0.1414200 -0.6000000 -0.1414200
v 0.0765400 -0.6000000 -0.1847800
v 0.0765400 -0.5000000 -0.1847800
v 0.1414200 -0.5000000 -0.1414200
v 0.0765400 -0.6000000 -0.1847800
v 0.0000000 -0.6000000 -0.2000000
v 0.0000000 -0.5000000 -0.2000000
v 0.0765400 -0.5000000 -0.1847800
v 0.0000000 -0.6000000 -0.2000000
v -0.0765400 -0.6000000 -0.1847800
v -0.0765400 -0.5000000 -0.1847800
v 0.0000000 -0.5000000 -0.2000000
v -0.0765400 -0.6000000 -0.1847800
v -0.1414200 -0.6000000 -0.1414200
v -0.1414200 -0.5000000 -0.1414200
v -0.0765400 -0.5000000 -0.1847800
v -0.1414200 -0.6000000 -0.1414200
v -0.1847800 -0.6000000 -0.0765400
v -0.1847800 -0.5000000 -0.0765400
v -0.1414200 -0.5000000 -0.1414200
v -0.1847800 -0.6000000 -0.0765400
v -0.2000000 -0.6000000 0.0000000
v -0.2000000 -0.5000000 0.0000000
v -0.1847800 -0.5000000 -0.0765400
v -0.2000000 -0.6000000 0.0000000
v -0.1847800 -0.6000000 0.0765400
v -0.1847800 -0.5000000 0.0765400
v -0.2000000 -0.5000000 0.0000000
v -0.1847800 -0.6000000 0.0765400
v -0.1414200 -0.6000000 0.1414200
v -0.1414200 -0.5000000 0.1414200
v -0.1847800 -0.5000000 0.0765400
v -0.1414200 -0.6000000 0.1414200
v -0.0765400 -0.6000000 0.1847800
v -0.0765400 -0.5000000 0.1847800
v -0.1414200 -0.5000000 0.1414200
v -0.0765400 -0.6000000 0.1847800
v 0.0000000 -0.6000000 0.2000000
v 0.0000000 -0.5000000 0.2000000
v -0.0765400 -0.5000000 0.1847800
v 0.0000000 -0.6000000 0.2000000
v 0.0765400 -0.6000000 0.1847800
v 0.0765400 -0.5000000 0.1847800
v 0.0000000 -0.5000000 0.2000000
v 0.0765400 -0.6000000 0.1847800
v 0.1414200 -0.6000000 0.1414200
v 0.1414200 -0.5000000 0.1414200
v 0.0765400 -0.5000000 0.1847800
v 0.1414200 -0.6000000 0.1414200
v 0.1847800 -0.6000000 0.0765400
v 0.1847800 -0.5000000 0.0765400
v 0.1414200 -0.5000000 0.1414200
v 0.1847800 -0.6000000 0.0765400
v 0.2000000 -0.6000000 0.0000000
v 0.2000000 -0.5000000 0.0000000
v 0.1847800 -0.5000000 0.0765400
v 0.0000000 -0.6000000 -0.2000000
v 0.0000000 -0.6000000 -0.1500000
v -0.0574050 -0.6000000 -0.1385850
v -0.0765400 -0.6000000 -0.1847800
v -0.0765400 -0.6000000 -0.1847800
v -0.0574050 -0.6000000 -0.1385850
v -0.1060650 -0.6000000 -0.1060650
v -0.1414200 -0.6000000 -0.1414200
v -0.1414200 -0.6000000 -0.1414200
v -0.1060650 -0.6000000 -0.1060650
v -0.1385850 -0.6000000 -0.0574050
v -0.1847800 -0.6000000 -0.0765400
v -0.1847800 -0.6000000 -0.0765400
v -0.1385850 -0.6000000 -0.0574050
v -0.1500000 -0.6000000 0.0000000
v -0.2000000 -0.6000000 0.0000000
v -0.2000000 -0.6000000 0.0000000
v -0.1500000 -0.6000000 0.0000000
v -0.1385850 -0.6000000 0.0574050
v -0.1847800 -0.6000000 0.0765400
v -0.1847800 -0.6000000 0.0765400
v -0.1385850 -0.6000000 0.0574050
v -0.1060650 -0.6000000 0.1060650
v -0.1414200 -0.6000000 0.1414200
v -0.1414200 -0.6000000 0.1414200
v -0.1060650 -0.6000000 0.1060650
v -0.0574050 -0.6000000 0.1385850
v -0.0765400 -0.6000000 0.1847800
v -0.0765400 -0.6000000 0.1847800
v -0.0574050 -0.6000000 0.1385850
v 0.0000000 -0.6000000 0.1500000
v 0.0000000 -0.6000000 0.2000000
v 0.0000000 -0.6000000 0.2000000
v 0.0000000 -0.6000000 0.1500000
v 0.0574050 -0.6000000 0.1385850
v 0.0765400 -0.6000000 0.1847800
v 0.0765400 -0.6000000 0.1847800
v 0.0574050 -0.6000000 0.1385850
v 0.1060650 -0.6000000 0.1060650
v 0.1414200 -0.6000000 0.1414200
v 0.1414200 -0.6000000 0.1414200
v 0.1060650 -0.6000000 0.1060650
v 0.1385850 -0.6000000 0.0574050
v 0.1847800 -0.6000000 0.0765400
v 0.1847800 -0.6000000 0.0765400
v 0.1385850 -0.6000000 0.0574050
v 0.1500000 -0.6000000 0.0000000
v 0.2000000 -0.6000000 0.0000000
v 0.2000000 -0.6000000 0.0000000
v 0.1500000 -0.6000000 0.0000000
v 0.1385850 -0.6000000 -0.0574050
v 0.1847800 -0.6000000 -0.0765400
v 0.1847800 -0.6000000 -0.0765400
v 0.1385850 -0.6000000 -0.0574050
v 0.1060650 -0.6000000 -0.1060650
v 0.1414200 -0.6000000 -0.1414200
v 0.1414200 -0.6000000 -0.1414200
v 0.1060650 -0.6000000 -0.1060650
v 0.0574050 -0.6000000 -0.1385850
v 0.0765400 -0.6000000 -0.1847800
v 0.0765400 -0.6000000 -0.1847800
v 0.0574050 -0.6000000 -0.1385850
v 0.0000000 -0.6000000 -0.1500000
v 0.0000000 -0.6000000 -0.2000000
v 0.1000000 -0.0000000 0.0000000
v 0.0923900 -0.0000000 0.0382700
v 0.0923900 0.1000000 0.0382700
v 0.1000000 0.1000000 0.0000000
v 0.0923900 -0.0000000 0.0382700
v 0.0707100 -0.0000000 0.0707100
v 0.0707100 0.1000000 0.0707100
v 0.0923900 0.1000000 0.0382700
v 0.0707100 -0.0000000 0.0707100
v 0.0382700 -0.0000000 0.0923900
v 0.0382700 0.1000000 0.0923900
v 0.0707100 0.1000000 0.0707100
v 0.0382700 -0.0000000 0.0923900
v 0.0000000 -0.0000000 0.1000000
v 0.0000000 0.1000000 0.1000000
v 0.0382700 0.1000000 0.0923900
v 0.0000000 -0.0000000 0.1000000
v -0.0382700 -0.0000000 0.0923900
v -0.0382700 0.1000000 0.0923900
v 0.0000000 0.1000000 0.1000000
v -0.0382700 -0.0000000 0.0923900
v -0.0707100 -0.0000000 0.0707100
v -0.0707100 0.1000000 0.0707100
v -0.0382700 0.1000000 0.0923900
v -0.0707100 -0.0000000 0.0707100
v -0.0923900 -0.0000000 0.0382700
v -0.0923900 0.1000000 0.0382700
v -0.0707100 0.1000000 0.0707100
v -0.0923900 -0.0000000 0.0382700
v -0.1000000 -0.0000000 0.0000000
v -0.1000000 0.1000000 0.0000000
v -0.0923900 0.1000000 0.0382700
v -0.1000000 -0.0000000 0.0000000
v -0.0923900 -0.0000000 -0.0382700
v -0.0923900 0.1000000 -0.0382700
v -0.1000000 0.1000000 0.0000000
v -0.0923900 -0.0000000 -0.0382700
v -0.0707100 -0.0000000 -0.0707100
v -0.0707100 0.1000000 -0.0707100
v -0.0923900 0.1000000 -0.0382700
v -0.0707100 -0.0000000 -0.0707100
v -0.0382700 -0.0000000 -0.0923900
v -0.0382700 0.1000000 -0.0923900
v -0.0707100 0.1000000 -0.0707100
v -0.0382700 -0.0000000 -0.0923900
v 0.0000000 -0.0000000 -0.1000000
v 0.0000000 0.1000000 -0.1000000
v -0.0382700 0.1000000 -0.0923900
v 0.0000000 -0.0000000 -0.1000000
v 0.0382700 -0.0000000 -0.0923900
v 0.0382700 0.1000000 -0.0923900
v 0.0000000 0.1000000 -0.1000000
v 0.0382700 -0.0000000 -0.0923900
v 0.0707100 -0.0000000 -0.0707100
v 0.0707100 0.1000000 -0.0707100
v 0.0382700 0.1000000 -0.0923900
v 0.0707100 -0.0000000 -0.0707100
v 0.0923900 -0.0000000 -0.0382700
v 0.0923900 0.1000000 -0.0382700
v 0.0707100 0.1000000 -0.0707100
v 0.0923900 -0.0000000 -0.0382700
v 0.1000000 -0.0000000 0.0000000
v 0.1000000 0.1000000 0.0000000
v 0.0923900 0.1000000 -0.0382700
v 0.1500000 0.1000000 0.0000000
v 0.1385850 0.1000000 0.0574050
v 0.1385850 -0.0000000 0.0574050
v 0.1500000 -0.0000000 0.0000000
v 0.1385850 0.1000000 0.0574050
v 0.1060650 0.1000000 0.1060650
v 0.1060650 -0.0000000 0.1060650
v 0.1385850 -0.0000000 0.0574050
v 0.1060650 0.1000000 0.1060650
v 0.0574050 0.1000000 0.1385850
v 0.0574050 -0.0000000 0.1385850
v 0.1060650 -0.0000000 0.1060650
v 0.0574050 0.1000000 0.1385850
v 0.0000000 0.1000000 0.1500000
v 0.0000000 -0.0000000 0.1500000
v 0.0574050 -0.0000000 0.1385850
v 0.0000000 0.1000000 0.1500000
v -0.0574050 0.1000000 0.1385850
v -0.0574050 -0.0000000 0.1385850
v 0.0000000 -0.0000000 0.1500000
v -0.0574050 0.1000000 0.1385850
v -0.1060650 0.1000000 0.1060650
v -0.1060650 -0.0000000 0.1060650
v -0.0574050 -0.0000000 0.1385850
v -0.1060650 0.1000000 0.1060650
v -0.1385850 0.1000000 0.0574050
v -0.1385850 -0.0000000 0.0574050
v -0.1060650 -0.0000000 0.1060650
v -0.1385850 0.1000000 0.0574050
v -0.1500000 0.1000000 0.0000000
v -0.1500000 -0.0000000 0.0000000
v -0.1385850 -0.0000000 0.0574050
v -0.1500000 0.1000000 0.0000000
v -0.1385850 0.1000000 -0.0574050
v -0.1385850 -0.0000000 -0.0574050
v -0.1500000 -0.0000000 0.0000000
v -0.1385850 0.1000000 -0.0574050
v -0.1060650 0.1000000 -0.1060650
v -0.1060650 -0.0000000 -0.1060650
v -0.1385850 -0.0000000 -0.0574050
v -0.1060650 0.1000000 -0.1060650
v -0.0574050 0.1000000 -0.1385850
v -0.0574050 -0.0000000 -0.1385850
v -0.1060650 -0.0000000 -0.1060650
v -0.0574050 0.1000000 -0.1385850
v 0.0000000 0.1000000 -0.1500000
v 0.0000000 -0.0000000 -0.1500000
v -0.0574050 -0.0000000 -0.1385850
v 0.0000000 0.1000000 -0.1500000
v 0.0574050 0.1000000 -0.1385850
v 0.0574050 -0.0000000 -0.1385850
v 0.0000000 -0.0000000 -0.1500000
v 0.0574050 0.1000000 -0.1385850
v 0.1060650 0.1000000 -0.1060650
v 0.1060650 -0.0000000 -0.1060650
v 0.0574050 -0.0000000 -0.1385850
v 0.1060650 0.1000000 -0.1060650
v 0.1385850 0.1000000 -0.0574050
v 0.1385850 -0.0000000 -0.0574050
v 0.1060650 -0.0000000 -0.1060650
v 0.1385850 0.1000000 -0.0574050
v 0.1500000 0.1000000 0.0000000
v 0.1500000 -0.0000000 0.0000000
v 0.1385850 -0.0000000 -0.0574050
v 0.0000000 0.1000000 0.1500000
v 0.0000000 0.1000000 0.1000000
v -0.0382700 0.1000000 0.0923900
v -0.0574050 0.1000000 0.1385850
v -0.0574050 0.1000000 0.1385850
v -0.0382700 0.1000000 0.0923900
v -0.0707100 0.1000000 0.0707100
v -0.1060650 0.1000000 0.1060650
v -0.1060650 0.1000000 0.1060650
v -0.0707100 0.1000000 0.0707100
v -0.0923900 0.1000000 0.0382700
v -0.1385850 0.1000000 0.0574050
v -0.1385850 0.1000000 0.0574050
v -0.0923900 0.1000000 0.0382700
v -0.1000000 0.1000000 0.0000000
v -0.1500000 0.1000000 0.0000000
v -0.1500000 0.1000000 0.0000000
v -0.1000000 0.1000000 0.0000000
v -0.0923900 0.1000000 -0.0382700
v -0.1385850 0.1000000 -0.0574050
v -0.1385850 0.1000000 -0.0574050
v -0.0923900 0.1000000 -0.0382700
v -0.0707100 0.1000000 -0.0707100
v -0.1060650 0.1000000 -0.1060650
v -0.1060650 0.1000000 -0.1060650
v -0.0707100 0.1000000 -0.0707100
v -0.0382700 0.1000000 -0.0923900
v -0.0574050 0.1000000 -0.1385850
v -0.0574050 0.1000000 -0.1385850
v -0.0382700 0.1000000 -0.0923900
v 0.0000000 0.1000000 -0.1000000
v 0.0000000 0.1000000 -0.1500000
v 0.0000000 0.1000000 -0.1500000
v 0.0000000 0.1000000 -0.1000000
v 0.0382700 0.1000000 -0.0923900
v 0.0574050 0.1000000 -0.1385850
v 0.0574050 0.1000000 -0.1385850
v 0.0382700 0.1000000 -0.0923900
v 0.0707100 0.1000000 -0.0707100
v 0.1060650 0.1000000 -0.1060650
v 0.1060650 0.1000000 -0.1060650
v 0.0707100 0.1000000 -0.0707100
v 0.0923900 0.1000000 -0.0382700
v 0.1385850 0.1000000 -0.0574050
v 0.1385850 0.1000000 -0.0574050
v 0.0923900 0.1000000 -0.0382700
v 0.1000000 0.1000000 0.0000000
v 0.1500000 0.1000000 0.0000000
v 0.1500000 0.1000000 0.0000000
v 0.1000000 0.1000000 0.0000000
v 0.0923900 0.1000000 0.0382700
v 0.1385850 0.1000000 0.0574050
v 0.1385850 0.1000000 0.0574050
v 0.0923900 0.1000000 0.0382700
v 0.0707100 0.1000000 0.0707100
v 0.1060650 0.1000000 0.1060650
v 0.1060650 0.1000000 0.1060650
v 0.0707100 0.1000000 0.0707100
v 0.0382700 0.1000000 0.0923900
v 0.0574050 0.1000000 0.1385850
v 0.0574050 0.1000000 0.1385850
v 0.0382700 0.1000000 0.0923900
v 0.0000000 0.1000000 0.1000000
v 0.0000000 0.1000000 0.1500000
v -0.0574050 -0.1000000 0.1385850
v -0.0382700 -0.1000000 0.0923900
v 0.0000000 -0.1000000 0.1000000
v 0.0000000 -0.1000000 0.1500000
v -0.1060650 -0.1000000 0.1060650
v -0.0707100 -0.1000000 0.0707100
v -0.0382700 -0.1000000 0.0923900
v -0.0574050 -0.1000000 0.1385850
v -0.1385850 -0.1000000 0.0574050
v -0.0923900 -0.1000000 0.0382700
v -0.0707100 -0.1000000 0.0707100
v -0.1060650 -0.1000000 0.1060650
v -0.1500000 -0.1000000 0.0000000
v -0.1000000 -0.1000000 0.0000000
v -0.0923900 -0.1000000 0.0382700
v -0.1385850 -0.1000000 0.0574050
v -0.1385850 -0.1000000 -0.0574050
v -0.0923900 -0.1000000 -0.0382700
v -0.1000000 -0.1000000 0.0000000
v -0.1500000 -0.1000000 0.0000000
v -0.1060650 -0.1000000 -0.1060650
v -0.0707100 -0.1000000 -0.0707100
v -0.0923900 -0.1000000 -0.0382700
v -0.1385850 -0.1000000 -0.0574050
v -0.0574050 -0.1000000 -0.1385850
v -0.0382700 -0.1000000 -0.0923900
v -0.0707100 -0.1000000 -0.0707100
v -0.1060650 -0.1000000 -0.1060650
v 0.0000000 -0.1000000 -0.1500000
v 0.0000000 -0.1000000 -0.1000000
v -0.0382700 -0.1000000 -0.0923900
v -0.0574050 -0.1000000 -0.1385850
v 0.0574050 -0.1000000 -0.1385850
v 0.0382700 -0.1000000 -0.0923900
v 0.0000000 -0.1000000 -0.1000000
v 0.0000000 -0.1000000 -0.1500000
v 0.1060650 -0.1000000 -0.1060650
v 0.0707100 -0.1000000 -0.0707100
v 0.0382700 -0.1000000 -0.0923900
v 0.0574050 -0.1000000 -0.1385850
v 0.1385850 -0.1000000 -0.0574050
v 0.0923900 -0.1000000 -0.0382700
v 0.0707100 -0.1000000 -0.0707100
v 0.1060650 -0.1000000 -0.1060650
v 0.1500000 -0.1000000 0.0000000
v 0.1000000 -0.1000000 0.0000000
v 0.0923900 -0.1000000 -0.0382700
v 0.1385850 -0.1000000 -0.0574050
v 0.1385850 -0.1000000 0.0574050
v 0.0923900 -0.1000000 0.0382700
v 0.1000000 -0.1000000 0.0000000
v 0.1500000 -0.1000000 0.0000000
v 0.1060650 -0.1000000 0.1060650
v 0.0707100 -0.1000000 0.0707100
v 0.0923900 -0.1000000 0.0382700
v 0.1385850 -0.1000000 0.0574050
v 0.0574050 -0.1000000 0.1385850
v 0.0382700 -0.1000000 0.0923900
v 0.0707100 -0.1000000 0.0707100
v 0.1060650 -0.1000000 0.1060650
v 0.0000000 -0.1000000 0.1500000
v 0.0000000 -0.1000000 0.1000000
v 0.0382700 -0.1000000 0.0923900
v 0.0574050 -0.1000000 0.1385850
v 0.1000000 -0.1000000 0.0000000
v 0.0923900 -0.1000000 0.0382700
v 0.0923900 -0.0000000 0.0382700
v 0.1000000 -0.0000000 0.0000000
v 0.0923900 -0.1000000 0.0382700
v 0.0707100 -0.1000000 0.0707100
v 0.0707100 -0.0000000 0.0707100
v 0.0923900 -0.0000000 0.0382700
v 0.0707100 -0.1000000 0.0707100
v 0.0382700 -0.1000000 0.0923900
v 0.0382700 -0.0000000 0.0923900
v 0.0707100 -0.0000000 0.0707100
v 0.0382700 -0.1000000 0.0923900
v 0.0000000 -0.1000000 0.1000000
v 0.0000000 -0.0000000 0.1000000
v 0.0382700 -0.0000000 0.0923900
v 0.0000000 -0.1000000 0.1000000
v -0.0382700 -0.1000000 0.0923900
v -0.0382700 -0.0000000 0.0923900
v 0.0000000 -0.0000000 0.1000000
v -0.0382700 -0.1000000 0.0923900
v -0.0707100 -0.1000000 0.0707100
v -0.0707100 -0.0000000 0.0707100
v -0.0382700 -0.0000000 0.0923900
v -0.0707100 -0.1000000 0.0707100
v -0.0923900 -0.1000000 0.0382700
v -0.0923900 -0.0000000 0.0382700
v -0.0707100 -0.0000000 0.0707100
v -0.0923900 -0.1000000 0.0382700
v -0.1000000 -0.1000000 0.0000000
v -0.1000000 -0.0000000 0.0000000
v -0.0923900 -0.0000000 0.0382700
v -0.1000000 -0.1000000 0.0000000
v -0.0923900 -0.1000000 -0.0382700
v -0.0923900 -0.0000000 -0.0382700
v -0.1000000 -0.0000000 0.0000000
v -0.0923900 -0.1000000 -0.0382700
v -0.0707100 -0.1000000 -0.0707100
v -0.0707100 -0.0000000 -0.0707100
v -0.0923900 -0.0000000 -0.0382700
v -0.0707100 -0.1000000 -0.0707100
v -0.0382700 -0.1000000 -0.0923900
v -0.0382700 -0.0000000 -0.0923900
v -0.0707100 -0.0000000 -0.0707100
v -0.0382700 -0.1000000 -0.0923900
v 0.0000000 -0.1000000 -0.1000000
v 0.0000000 -0.0000000 -0.1000000
v -0.0382700 -0.0000000 -0.0923900
v 0.0000000 -0.1000000 -0.1000000
v 0.0382700 -0.1000000 -0.0923900
v 0.0382700 -0.0000000 -0.0923900
v 0.0000000 -0.0000000 -0.1000000
v 0.0382700 -0.1000000 -0.0923900
v 0.0707100 -0.1000000 -0.0707100
v 0.0707100 -0.0000000 -0.0707100
v 0.0382700 -0.0000000 -0.0923900
v 0.0707100 -0.1000000 -0.0707100
v 0.0923900 -0.1000000 -0.0382700
v 0.0923900 -0.0000000 -0.0382700
v 0.0707100 -0.0000000 -0.0707100
v 0.0923900 -0.1000000 -0.0382700
v 0.1000000 -0.1000000 0.0000000
v 0.1000000 -0.0000000 0.0000000
v 0.0923900 -0.0000000 -0.0382700
s off
f 1 2 3
f 1 3 4
f 5 6 7
f 5 7 8
f 9 10 11
f 9 11 12
f 13 14 15
f 13 15 16
f 17 18 19
f 17 19 20
f 21 22 23
f 21 23 24
f 25 26 27
f 25 27 28
f 29 30 31
f 29 31 32
f 33 34 35
f 33 35 36
f 37 38 39
f 37 39 40
f 41 42 43
f 41 43 44
f 45 46 47
f 45 47 48
f 49 50 51
f 49 51 52
f 53 54 55
f 53 55 56
f 57 58 59
f 57 59 60
f 61 62 63
f 61 63 64
f 65 66 67
f 65 67 68
f 69 70 71
f 69 71 72
f 73 74 75
f 76 77 78
f 76 78 79
f 80 81 82
f 80 82 83
f 84 85 86
f 84 86 87
f 88 89 90
f 88 90 91
f 92 93 94
f 92 94 95
f 96 97 98
f 99 100 101
f 99 101 102
f 103 104 105
f 103 105 106
f 107 108 109
f 107 109 110
f 111 112 113
f 111 113 114
f 115 116 117
f 115 117 118
f 119 120 121
f 119 121 122
f 123 124 125
f 123 125 126
f 127 128 129
f 127 129 130
f 131 132 133
f 131 133 134
f 135 136 137
f 135 137 138
f 139 140 141
f 139 141 142
f 143 144 145
f 143 145 146
f 147 148 149
f 147 149 150
f 151 152 153
f 151 153 154
f 155 156 157
f 155 157 158
f 159 160 161
f 159 161 162
f 163 164 165
f 163 165 166
f 167 168 169
f 167 169 170
f 171 172 173
f 171 173 174
f 175 176 177
f 175 177 178
f 179 180 181
f 179 181 182
f 183 184 185
f 183 185 186
f 187 188 189
f 187 189 190
f 191 192 193
f 191 193 194
f 195 196 197
f 195 197 198
f 199 200 201
f 199 201 202
f 203 204 205
f 203 205 206
f 207 208 209
f 210 211 212
f 210 212 213
f 214 215 216
f 214 216 217
f 218 219 220
f 218 220 221
f 222 223 224
f 222 224 225
f 226 227 228
f 226 228 229
f 230 231 232
f 233 234 235
f 233 235 236
f 237 238 239
f 237 239 240
f 241 242 243
f 241 243 244
f 245 246 247
f 245 247 248
f 249 250 251
f 249 251 252
f 253 254 255
f 253 255 256
f 257 258 259
f 257 259 260
f 261 262 263
f 261 263 264
f 265 266 267
f 265 267 268
f 269 270 271
f 269 271 272
f 273 274 275
f 273 275 276
f 277 278 279
f 277 279 280
f 281 282 283
f 281 283 284
f 285 286 287
f 285 287 288
f 289 290 291
f 289 291 292
f 293 294 295
f 293 295 296
f 297 298 299
f 297 299 300
f 301 302 303
f 301 303 304
f 305 306 307
f 305 307 308
f 309 310 311
f 309 311 312
f 313 314 315
f 313 315 316
f 317 318 319
f 317 319 320
f 321 322 323
f 321 323 324
f 325 326 327
f 325 327 328
f 329 330 331
f 329 331 332
f 333 334 335
f 333 335 336
f 337 338 339
f 337 339 340
f 341 342 343
f 344 345 346
f 344 346 347
f 348 349 350
f 348 350 351
f 352 353 354
f 352 354 355
f 356 357 358
f 356 358 359
f 360 361 362
f 360 362 363
f 364 365 366
f 367 368 369
f 367 369 370
f 371 372 373
f 371 373 374
f 375 376 377
f 375 377 378
f 379 380 381
f 379 381 382
f 383 384 385
f 383 385 386
f 387 388 389
f 387 389 390
f 391 392 393
f 391 393 394
f 395 396 397
f 395 397 398
f 399 400 401
f 399 401 402
f 403 404 405
f 403 405 406
f 407 408 409
f 407 409 410
f 411 412 413
f 411 413 414
f 415 416 417
f 415 417 418
f 419 420 421
f 419 421 422
f 423 424 425
f 423 425 426
f 427 428 429
f 427 429 430
f 431 432 433
f 431 433 434
f 435 436 437
f 435 437 438
f 439 440 441
f 439 441 442
f 443 444 445
f 443 445 446
f 447 448 449
f 447 449 450
f 451 452 453
f 451 453 454
f 455 456 457
f 455 457 458
f 459 460 461
f 459 461 462
f 463 464 465
f 463 465 466
f 467 468 469
f 467 469 470
f 471 472 473
f 471 473 474
f 475 476 477
f 478 479 480
f 478 480 481
f 482 483 484
f 482 484 485
f 486 487 488
f 486 488 489
f 490 491 492
f 490 492 493
f 494 495 496
f 494 496 497
f 498 499 500
f 501 502 503
f 501 503 504
f 505 506 507
f 505 507 508
f 509 510 511
f 509 511 512
f 513 514 515
f 513 515 516
f 517 518 519
f 517 519 520
f 521 522 523
f 521 523 524
f 525 526 527
f 525 527 528
f 529 530 531
f 529 531 532
f 533 534 535
f 533 535 536
f 537 538 539
f 537 539 540
f 541 542 543
f 541 543 544
f 545 546 547
f 545 547 548
f 549 550 551
f 549 551 552
f 553 554 555
f 553 555 556
f 557 558 559
f 557 559 560
f 561 562 563
f 561 563 564
f 565 566 567
f 565 567 568
f 569 570 571
f 569 571 572
f 573 574 575
f 573 575 576
f 577 578 579
f 577 579 580
f 581 582 583
f 581 583 584
f 585 586 587
f 585 587 588
f 589 590 591
f 589 591 592
f 593 594 595
f 593 595 596
f 597 598 599
f 597 599 600
f 601 602 603
f 601 603 604
f 605 606 607
f 605 607 608
f 609 610 611
f 612 613 614
f 612 614 615
f 616 617 618
f 616 618 619
f 620 621 622
f 620 622 623
f 624 625 626
f 624 626 627
f 628 629 630
f 628 630 631
f 632 633 634
f 635 636 637
f 635 637 638
f 639 640 641
f 639 641 642
f 643 644 645
f 643 645 646
f 647 648 649
f 647 649 650
f 651 652 653
f 651 653 654
f 655 656 657
f 655 657 658
f 659 660 661
f 659 661 662
f 663 664 665
f 663 665 666
f 667 668 669
f 667 669 670
f 671 672 673
f 671 673 674
f 675 676 677
f 675 677 678
f 679 680 681
f 679 681 682
f 683 684 685
f 683 685 686
f 687 688 689
f 687 689 690
f 691 692 693
f 691 693 694
f 695 696 697
f 695 697 698
f 699 700 701
f 699 701 702
f 703 704 705
f 703 705 706
f 707 708 709
f 707 709 710
f 711 712 713
f 711 713 714
f 715 716 717
f 715 717 718
f 719 720 721
f 719 721 722
f 723 724 725
f 723 725 726
f 727 728 729
f 727 729 730
f 731 732 733
f 731 733 734
f 735 736 737
f 735 737 738
f 739 740 741
f 739 741 742
f 743 744 745
f 746 747 748
f 746 748 749
f 750 751 752
f 750 752 753
f 754 755 756
f 754 756 757
f 758 759 760
f 758 760 761
f 762 763 764
f 762 764 765
f 766 767 768
f 769 770 771
f 769 771 772
f 773 774 775
f 773 775 776
f 777 778 779
f 777 779 780
f 781 782 783
f 781 783 784
f 785 786 787
f 785 787 788
f 789 790 791
f 789 791 792
f 793 794 795
f 793 795 796
f 797 798 799
f 797 799 800
f 801 802 803
f 801 803 804
f 805 806 807
f 805 807 808
f 809 810 811
f 809 811 812
f 813 814 815
f 813 815 816
f 817 818 819
f 817 819 820
f 821 822 823
f 821 823 824
f 825 826 827
f 825 827 828
f 829 830 831
f 829 831 832
f 833 834 835
f 833 835 836
f 837 838 839
f 837 839 840
f 841 842 843
f 841 843 844
f 845 846 847
f 845 847 848
f 849 850 851
f 849 851 852
f 853 854 855
f 853 855 856
f 857 858 859
f 857 859 860
f 861 862 863
f 861 863 864
f 865 866 867
f 865 867 868
f 869 870 871
f 869 871 872
f 873 874 875
f 873 875 876
f 877 878 879
f 880 881 882
f 880 882 883
f 884 885 886
f 884 886 887
f 888 889 890
f 888 890 891
f 892 893 894
f 892 894 895
f 896 897 898
f 896 898 899
f 900 901 902
f 903 904 905
f 903 905 906
f 907 908 909
f 907 909 910
f 911 912 913
f 911 913 914
f 915 916 917
f 915 917 918
f 919 920 921
f 919 921 922
f 923 924 925
f 923 925 926
f 927 928 929
f 927 929 930
f 931 932 933
f 931 933 934
f 935 936 937
f 935 937 938
f 939 940 941
f 939 941 942
f 943 944 945
f 943 945 946
f 947 948 949
f 947 949 950
f 951 952 953
f 951 953 954
f 955 956 957
f 955 957 958
f 959 960 961
f 959 961 962
f 963 964 965
f 963 965 966
f 967 968 969
f 967 969 970
f 971 972 973
f 971 973 974
f 975 976 977
f 975 977 978
f 979 980 981
f 979 981 982
f 983 984 985
f 983 985 986
f 987 988 989
f 987 989 990
f 991 992 993
f 991 993 994
f 995 996 997
f 995 997 998
f 999 1000 1001
f 999 1001 1002
f 1003 1004 1005
f 1003 1005 1006
f 1007 1008 1009
f 1007 1009 1010
f 1011 1012 1013
f 1014 1015 1016
f 1014 1016 1017
f 1018 1019 1020
f 1018 1020 1021
f 1022 1023 1024
f 1022 1024 1025
f 1026 1027 1028
f 1026 1028 1029
f 1030 1031 1032
f 1030 1032 1033
f 1034 1035 1036
f 1037 1038 1039
f 1037 1039 1040
f 1041 1042 1043
f 1041 1043 1044
f 1045 1046 1047
f 1045 1047 1048
f 1049 1050 1051
f 1049 1051 1052
f 1053 1054 1055
f 1053 1055 1056
f 1057 1058 1059
f 1057 1059 1060
f 1061 1062 1063
f 1061 1063 1064
f 1065 1066 1067
f 1065 1067 1068
f 1069 1070 1071
f 1069 1071 1072
f 1073 1074 1075
f 1073 1075 1076
f 1077 1078 1079
f 1077 1079 1080
f 1081 1082 1083
f 1081 1083 1084
f 1085 1086 1087
f 1085 1087 1088
f 1089 1090 1091
f 1089 1091 1092
f 1093 1094 1095
f 1093 1095 1096
f 1097 1098 1099
f 1097 1099 1100
f 1101 1102 1103
f 1101 1103 1104
f 1105 1106 1107
f 1105 1107 1108
f 1109 1110 1111
f 1109 1111 1112
f 1113 1114 1115
f 1113 1115 1116
f 1117 1118 1119
f 1117 1119 1120
f 1121 1122 1123
f 1121 1123 1124
f 1125 1126 1127
f 1125 1127 1128
f 1129 1130 1131
f 1129 1131 1132
f 1133 1134 1135
f 1133 1135 1136
f 1137 1138 1139
f 1137 1139 1140
f 1141 1142 1143
f 1141 1143 1144
f 1145 1146 1147
f 1148 1149 1150
f 1148 1150 1151
f 1152 1153 1154
f 1152 1154 1155
f 1156 1157 1158
f 1156 1158 1159
f 1160 1161 1162
f 1160 1162 1163
f 1164 1165 1166
f 1164 1166 1167
f 1168 1169 1170
f 1171 1172 1173
f 1171 1173 1174
f 1175 1176 1177
f 1175 1177 1178
f 1179 1180 1181
f 1179 1181 1182
f 1183 1184 1185
f 1183 1185 1186
f 1187 1188 1189
f 1187 1189 1190
f 1191 1192 1193
f 1191 1193 1194
f 1195 1196 1197
f 1195 1197 1198
f 1199 1200 1201
f 1199 1201 1202
f 1203 1204 1205
f 1203 1205 1206
f 1207 1208 1209
f 1207 1209 1210
f 1211 1212 1213
f 1211 1213 1214
f 1215 1216 1217
f 1215 1217 1218
f 1219 1220 1221
f 1219 1221 1222
f 1223 1224 1225
f 1223 1225 1226
f 1227 1228 1229
f 1227 1229 1230
f 1231 1232 1233
f 1231 1233 1234
f 1235 1236 1237
f 1235 1237 1238
f 1239 1240 1241
f 1239 1241 1242
f 1243 1244 1245
f 1243 1245 1246
f 1247 1248 1249
f 1247 1249 1250
f 1251 1252 1253
f 1251 1253 1254
f 1255 1256 1257
f 1255 1257 1258
f 1259 1260 1261
f 1259 1261 1262
f 1263 1264 1265
f 1263 1265 1266
f 1267 1268 1269
f 1267 1269 1270
f 1271 1272 1273
f 1271 1273 1274
f 1275 1276 1277
f 1275 1277 1278
f 1279 1280 1281
f 1282 1283 1284
f 1282 1284 1285
f 1286 1287 1288
f 1286 1288 1289
f 1290 1291 1292
f 1290 1292 1293
f 1294 1295 1296
f 1294 1296 1297
f 1298 1299 1300
f 1298 1300 1301
f 1302 1303 1304
f 1305 1306 1307
f 1305 1307 1308
f 1309 1310 1311
f 1309 1311 1312
f 1313 1314 1315
f 1313 1315 1316
f 1317 1318 1319
f 1317 1319 1320
f 1321 1322 1323
f 1321 1323 1324
f 1325 1326 1327
f 1325 1327 1328
f 1329 1330 1331
f 1329 1331 1332
f 1333 1334 1335
f 1333 1335 1336
f 1337 1338 1339
f 1337 1339 1340
f 1341 1342 1343
f 1341 1343 1344
f 1345 1346 1347
f 1345 1347 1348
f 1349 1350 1351
f 1349 1351 1352
f 1353 1354 1355
f 1353 1355 1356
f 1357 1358 1359
f 1357 1359 1360
f 1361 1362 1363
f 1361 1363 1364
f 1365 1366 1367
f 1365 1367 1368
f 1369 1370 1371
f 1369 1371 1372
f 1373 1374 1375
f 1373 1375 1376
f 1377 1378 1379
f 1377 1379 1380
f 1381 1382 1383
f 1381 1383 1384
f 1385 1386 1387
f 1385 1387 1388
f 1389 1390 1391
f 1389 1391 1392
f 1393 1394 1395
f 1393 1395 1396
f 1397 1398 1399
f 1397 1399 1400
f 1401 1402 1403
f 1401 1403 1404
f 1405 1406 1407
f 1405 1407 1408
f 1409 1410 1411
f 1409 1411 1412
f 1413 1414 1415
f 1416 1417 1418
f 1416 1418 1419
f 1420 1421 1422
f 1420 1422 1423
f 1424 1425 1426
f 1424 1426 1427
f 1428 1429 1430
f 1428 1430 1431
f 1432 1433 1434
f 1432 1434 1435
f 1436 1437 1438
f 1439 1440 1441
f 1439 1441 1442
f 1443 1444 1445
f 1443 1445 1446
f 1447 1448 1449
f 1447 1449 1450
f 1451 1452 1453
f 1451 1453 1454
f 1455 1456 1457
f 1455 1457 1458
f 1459 1460 1461
f 1459 1461 1462
f 1463 1464 1465
f 1463 1465 1466
f 1467 1468 1469
f 1467 1469 1470
f 1471 1472 1473
f 1471 1473 1474
f 1475 1476 1477
f 1475 1477 1478
f 1479 1480 1481
f 1479 1481 1482
f 1483 1484 1485
f 1483 1485 1486
f 1487 1488 1489
f 1487 1489 1490
f 1491 1492 1493
f 1491 1493 1494
f 1495 1496 1497
f 1495 1497 1498
f 1499 1500 1501
f 1499 1501 1502
f 1503 1504 1505
f 1503 1505 1506
f 1507 1508 1509
f 1507 1509 1510
f 1511 1512 1513
f 1511 1513 1514
f 1515 1516 1517
f 1515 1517 1518
f 1519 1520 1521
f 1519 1521 1522
f 1523 1524 1525
f 1523 1525 1526
f 1527 1528 1529
f 1527 1529 1530
f 1531 1532 1533
f 1531 1533 1534
f 1535 1536 1537
f 1535 1537 1538
f 1539 1540 1541
f 1539 1541 1542
f 1543 1544 1545
f 1543 1545 1546
f 1547 1548 1549
f 1550 1551 1552
f 1550 1552 1553
f 1554 1555 1556
f 1554 1556 1557
f 1558 1559 1560
f 1558 1560 1561
f 1562 1563 1564
f 1562 1564 1565
f 1566 1567 1568
f 1566 1568 1569
f 1570 1571 1572
f 1573 1574 1575
f 1573 1575 1576
f 1577 1578 1579
f 1577 1579 1580
f 1581 1582 1583
f 1581 1583 1584
f 1585 1586 1587
f 1585 1587 1588
f 1589 1590 1591
f 1589 1591 1592
f 1593 1594 1595
f 1593 1595 1596
f 1597 1598 1599
f 1597 1599 1600
f 1601 1602 1603
f 1601 1603 1604
f 1605 1606 1607
f 1605 1607 1608
f 1609 1610 1611
f 1609 1611 1612
f 1613 1614 1615
f 1613 1615 1616
f 1617 1618 1619
f 1617 1619 1620
f 1621 1622 1623
f 1621 1623 1624
f 1625 1626 1627
f 1625 1627 1628
f 1629 1630 1631
f 1629 1631 1632
f 1633 1634 1635
f 1633 1635 1636
f 1637 1638 1639
f 1637 1639 1640
f 1641 1642 1643
f 1641 1643 1644
f 1645 1646 1647
f 1645 1647 1648
f 1649 1650 1651
f 1649 1651 1652
f 1653 1654 1655
f 1653 1655 1656
f 1657 1658 1659
f 1657 1659 1660
f 1661 1662 1663
f 1661 1663 1664
f 1665 1666 1667
f 1665 1667 1668
f 1669 1670 1671
f 1669 1671 1672
f 1673 1674 1675
f 1673 1675 1676
f 1677 1678 1679
f 1677 1679 1680
f 1681 1682 1683
f 1681 1683 1684
f 1685 1686 1687
f 1685 1687 1688
f 1689 1690 1691
f 1689 1691 1692
f 1693 1694 1695
f 1693 1695 1696
f 1697 1698 1699
f 1697 1699 1700
f 1701 1702 1703
f 1701 1703 1704
f 1705 1706 1707
f 1705 1707 1708
f 1709 1710 1711
f 1709 1711 1712
f 1713 1714 1715
f 1713 1715 1716
f 1717 1718 1719
f 1717 1719 1720
f 1721 1722 1723
f 1721 1723 1724
f 1725 1726 1727
f 1725 1727 1728
f 1729 1730 1731
f 1729 1731 1732
f 1733 1734 1735
f 1733 1735 1736
f 1737 1738 1739
f 1737 1739 1740
f 1741 1742 1743
f 1741 1743 1744
f 1745 1746 1747
f 1745 1747 1748
f 1749 1750 1751
f 1749 1751 1752
f 1753 1754 1755
f 1753 1755 1756
f 1757 1758 1759
f 1757 1759 1760
f 1761 1762 1763
f 1761 1763 1764
f 1765 1766 1767
f 1765 1767 1768
f 1769 1770 1771
f 1769 1771 1772
f 1773 1774 1775
f 1773 1775 1776
f 1777 1778 1779
f 1777 1779 1780
f 1781 1782 1783
f 1781 1783 1784
f 1785 1786 1787
f 1785 1787 1788
f 1789 1790 1791
f 1789 1791 1792
f 1793 1794 1795
f 1793 1795 1796
f 1797 1798 1799
f 1797 1799 1800
f 1801 1802 1803
f 1801 1803 1804
f 1805 1806 1807
f 1805 1807 1808
f 1809 1810 1811
f 1809 1811 1812
f 1813 1814 1815
f 1813 1815 1816
f 1817 1818 1819
f 1817 1819 1820
f 1821 1822 1823
f 1821 1823 1824
f 1825 1826 1827
f 1825 1827 1828
f 1829 1830 1831
f 1829 1831 1832
f 1833 1834 1835
f 1833 1835 1836
f 1837 1838 1839
f 1837 1839 1840
f 1841 1842 1843
f 1841 1843 1844
f 1845 1846 1847
f 1845 1847 1848
f 1849 1850 1851
f 1849 1851 1852
f 1853 1854 1855
f 1853 1855 1856
f 1857 1858 1859
f 1857 1859 1860
f 1861 1862 1863
f 1861 1863 1864
f 1865 1866 1867
f 1865 1867 1868
f 1869 1870 1871
f 1869 1871 1872
f 1873 1874 1875
f 1873 1875 1876
f 1877 1878 1879
f 1877 1879 1880
f 1881 1882 1883
f 1881 1883 1884
f 1885 1886 1887
f 1885 1887 1888
f 1889 1890 1891
f 1889 1891 1892
f 1893 1894 1895
f 1893 1895 1896
f 1897 1898 1899
f 1897 1899 1900
f 1901 1902 1903
f 1901 1903 1904
f 1905 1906 1907
f 1905 1907 1908
f 1909 1910 1911
f 1909 1911 1912
f 1913 1914 1915
f 1913 1915 1916
f 1917 1918 1919
f 1917 1919 1920
f 1921 1922 1923
f 1921 1923 1924
f 1925 1926 1927
f 1925 1927 1928
f 1929 1930 1931
f 1929 1931 1932
f 1933 1934 1935
f 1933 1935 1936
f 1937 1938 1939
f 1937 1939 1940
f 1941 1942 1943
f 1941 1943 1944
f 1945 1946 1947
f 1945 1947 1948
f 1949 1950 1951
f 1949 1951 1952
f 1953 1954 1955
f 1953 1955 1956
f 1957 1958 1959
f 1957 1959 1960
f 1961 1962 1963
f 1961 1963 1964
f 1965 1966 1967
f 1965 1967 1968
f 1969 1970 1971
f 1969 1971 1972
f 1973 1974 1975
f 1973 1975 1976
f 1977 1978 1979
f 1977 1979 1980
f 1981 1982 1983
f 1981 1983 1984
f 1985 1986 1987
f 1985 1987 1988
f 1989 1990 1991
f 1989 1991 1992
f 1993 1994 1995
f 1993 1995 1996
f 1997 1998 1999
f 1997 1999 2000
f 2001 2002 2003
f 2001 2003 2004
f 2005 2006 2007
f 2005 2007 2008
f 2009 2010 2011
f 2009 2011 2012
f 2013 2014 2015
f 2013 2015 2016
f 2017 2018 2019
f 2017 2019 2020
f 2021 2022 2023
f 2021 2023 2024
f 2025 2026 2027
f 2025 2027 2028
f 2029 2030 2031
f 2029 2031 2032
f 2033 2034 2035
f 2033 2035 2036
f 2037 2038 2039
f 2037 2039 2040
f 2041 2042 2043
f 2041 2043 2044
f 2045 2046 2047
f 2045 2047 2048
f 2049 2050 2051
f 2049 2051 2052
f 2053 2054 2055
f 2053 2055 2056
f 2057 2058 2059
f 2057 2059 2060
f 2061 2062 2063
f 2061 2063 2064
f 2065 2066 2067
f 2065 2067 2068
f 2069 2070 2071
f 2069 2071 2072
f 2073 2074 2075
f 2073 2075 2076
f 2077 2078 2079
f 2077 2079 2080
f 2081 2082 2083
f 2081 2083 2084
f 2085 2086 2087
f 2085 2087 2088
f 2089 2090 2091
f 2089 2091 2092
f 2093 2094 2095
f 2093 2095 2096
f 2097 2098 2099
f 2097 2099 2100
f 2101 2102 2103
f 2101 2103 2104
f 2105 2106 2107
f 2105 2107 2108
f 2109 2110 2111
f 2109 2111 2112
f 2113 2114 2115
f 2113 2115 2116
f 2117 2118 2119
f 2117 2119 2120
f 2121 2122 2123
f 2121 2123 2124
f 2125 2126 2127
f 2125 2127 2128
f 2129 2130 2131
f 2129 2131 2132
f 2133 2134 2135
f 2133 2135 2136
f 2137 2138 2139
f 2137 2139 2140
f 2141 2142 2143
f 2141 2143 2144
f 2145 2146 2147
f 2145 2147 2148
f 2149 2150 2151
f 2149 2151 2152
f 2153 2154 2155
f 2153 2155 2156
f 2157 2158 2159
f 2157 2159 2160
f 2161 2162 2163
f 2161 2163 2164
f 2165 2166 2167
f 2165 2167 2168
f 2169 2170 2171
f 2169 2171 2172
f 2173 2174 2175
f 2173 2175 2176
f 2177 2178 2179
f 2177 2179 2180
f 2181 2182 2183
f 2181 2183 2184
f 2185 2186 2187
f 2185 2187 2188
f 2189 2190 2191
f 2189 2191 2192
f 2193 2194 2195
f 2193 2195 2196
f 2197 2198 2199
f 2197 2199 2200
f 2201 2202 2203
f 2201 2203 2204
f 2205 2206 2207
f 2205 2207 2208
f 2209 2210 2211
f 2209 2211 2212
f 2213 2214 2215
f 2213 2215 2216
f 2217 2218 2219
f 2217 2219 2220
f 2221 2222 2223
f 2221 2223 2224
f 2225 2226 2227
f 2225 2227 2228
f 2229 2230 2231
f 2229 2231 2232
f 2233 2234 2235
f 2233 2235 2236
f 2237 2238 2239
f 2237 2239 2240
f 2241 2242 2243
f 2241 2243 2244
f 2245 2246 2247
f 2245 2247 2248
f 2249 2250 2251
f 2249 2251 2252
f 2253 2254 2255
f 2253 2255 2256
f 2257 2258 2259
f 2257 2259 2260
f 2261 2262 2263
f 2261 2263 2264
f 2265 2266 2267
f 2265 2267 2268
f 2269 2270 2271
f 2269 2271 2272
f 2273 2274 2275
f 2273 2275 2276
f 2277 2278 2279
f 2277 2279 2280
f 2281 2282 2283
f 2281 2283 2284
f 2285 2286 2287
f 2285 2287 2288
f 2289 2290 2291
f 2289 2291 2292
f 2293 2294 2295
f 2293 2295 2296
f 2297 2298 2299
f 2297 2299 2300
f 2301 2302 2303
f 2301 2303 2304
f 2305 2306 2307
f 2305 2307 2308
f 2309 2310 2311
f 2309 2311 2312
f 2313 2314 2315
f 2313 2315 2316
f 2317 2318 2319
f 2317 2319 2320
f 2321 2322 2323
f 2321 2323 2324
f 2325 2326 2327
f 2325 2327 2328
f 2329 2330 2331
f 2329 2331 2332
f 2333 2334 2335
f 2333 2335 2336
f 2337 2338 2339
f 2337 2339 2340
f 2341 2342 2343
f 2341 2343 2344
f 2345 2346 2347
f 2345 2347 2348
f 2349 2350 2351
f 2349 2351 2352
f 2353 2354 2355
f 2353 2355 2356
f 2357 2358 2359
f 2357 2359 2360
f 2361 2362 2363
f 2361 2363 2364
f 2365 2366 2367
f 2365 2367 2368
f 2369 2370 2371
f 2369 2371 2372
f 2373 2374 2375
f 2373 2375 2376
