# Baked from official LDraw part 3068b.dat
o ldraw_3068b
v 0.5000000 -0.1750000 0.5000000
v 0.5000000 -0.0000000 0.5000000
v -0.5000000 -0.0000000 0.5000000
v -0.5000000 -0.1750000 0.5000000
v -0.5000000 -0.1750000 0.5000000
v -0.5000000 -0.0000000 0.5000000
v -0.5000000 -0.0000000 -0.5000000
v -0.5000000 -0.1750000 -0.5000000
v -0.5000000 -0.1750000 -0.5000000
v -0.5000000 -0.0000000 -0.5000000
v 0.5000000 -0.0000000 -0.5000000
v 0.5000000 -0.1750000 -0.5000000
v 0.5000000 -0.1750000 -0.5000000
v 0.5000000 -0.0000000 -0.5000000
v 0.5000000 -0.0000000 0.5000000
v 0.5000000 -0.1750000 0.5000000
v 0.4750000 -0.2000000 0.4750000
v 0.4750000 -0.1750000 0.4750000
v -0.4750000 -0.1750000 0.4750000
v -0.4750000 -0.2000000 0.4750000
v -0.4750000 -0.2000000 0.4750000
v -0.4750000 -0.1750000 0.4750000
v -0.4750000 -0.1750000 -0.4750000
v -0.4750000 -0.2000000 -0.4750000
v -0.4750000 -0.2000000 -0.4750000
v -0.4750000 -0.1750000 -0.4750000
v 0.4750000 -0.1750000 -0.4750000
v 0.4750000 -0.2000000 -0.4750000
v 0.4750000 -0.2000000 -0.4750000
v 0.4750000 -0.1750000 -0.4750000
v 0.4750000 -0.1750000 0.4750000
v 0.4750000 -0.2000000 0.4750000
v -0.4000000 -0.2000000 0.4000000
v -0.4000000 -0.1000000 0.4000000
v 0.4000000 -0.1000000 0.4000000
v 0.4000000 -0.2000000 0.4000000
v -0.4000000 -0.2000000 -0.4000000
v -0.4000000 -0.1000000 -0.4000000
v -0.4000000 -0.1000000 0.4000000
v -0.4000000 -0.2000000 0.4000000
v 0.4000000 -0.2000000 -0.4000000
v 0.4000000 -0.1000000 -0.4000000
v -0.4000000 -0.1000000 -0.4000000
v -0.4000000 -0.2000000 -0.4000000
v 0.4000000 -0.2000000 0.4000000
v 0.4000000 -0.1000000 0.4000000
v 0.4000000 -0.1000000 -0.4000000
v 0.4000000 -0.2000000 -0.4000000
v 0.1500000 -0.2000000 0.0000000
v 0.1385850 -0.2000000 0.0574050
v 0.1385850 -0.1000000 0.0574050
v 0.1500000 -0.1000000 0.0000000
v 0.1385850 -0.2000000 0.0574050
v 0.1060650 -0.2000000 0.1060650
v 0.1060650 -0.1000000 0.1060650
v 0.1385850 -0.1000000 0.0574050
v 0.1060650 -0.2000000 0.1060650
v 0.0574050 -0.2000000 0.1385850
v 0.0574050 -0.1000000 0.1385850
v 0.1060650 -0.1000000 0.1060650
v 0.0574050 -0.2000000 0.1385850
v 0.0000000 -0.2000000 0.1500000
v 0.0000000 -0.1000000 0.1500000
v 0.0574050 -0.1000000 0.1385850
v 0.0000000 -0.2000000 0.1500000
v -0.0574050 -0.2000000 0.1385850
v -0.0574050 -0.1000000 0.1385850
v 0.0000000 -0.1000000 0.1500000
v -0.0574050 -0.2000000 0.1385850
v -0.1060650 -0.2000000 0.1060650
v -0.1060650 -0.1000000 0.1060650
v -0.0574050 -0.1000000 0.1385850
v -0.1060650 -0.2000000 0.1060650
v -0.1385850 -0.2000000 0.0574050
v -0.1385850 -0.1000000 0.0574050
v -0.1060650 -0.1000000 0.1060650
v -0.1385850 -0.2000000 0.0574050
v -0.1500000 -0.2000000 0.0000000
v -0.1500000 -0.1000000 0.0000000
v -0.1385850 -0.1000000 0.0574050
v -0.1500000 -0.2000000 0.0000000
v -0.1385850 -0.2000000 -0.0574050
v -0.1385850 -0.1000000 -0.0574050
v -0.1500000 -0.1000000 0.0000000
v -0.1385850 -0.2000000 -0.0574050
v -0.1060650 -0.2000000 -0.1060650
v -0.1060650 -0.1000000 -0.1060650
v -0.1385850 -0.1000000 -0.0574050
v -0.1060650 -0.2000000 -0.1060650
v -0.0574050 -0.2000000 -0.1385850
v -0.0574050 -0.1000000 -0.1385850
v -0.1060650 -0.1000000 -0.1060650
v -0.0574050 -0.2000000 -0.1385850
v 0.0000000 -0.2000000 -0.1500000
v 0.0000000 -0.1000000 -0.1500000
v -0.0574050 -0.1000000 -0.1385850
v 0.0000000 -0.2000000 -0.1500000
v 0.0574050 -0.2000000 -0.1385850
v 0.0574050 -0.1000000 -0.1385850
v 0.0000000 -0.1000000 -0.1500000
v 0.0574050 -0.2000000 -0.1385850
v 0.1060650 -0.2000000 -0.1060650
v 0.1060650 -0.1000000 -0.1060650
v 0.0574050 -0.1000000 -0.1385850
v 0.1060650 -0.2000000 -0.1060650
v 0.1385850 -0.2000000 -0.0574050
v 0.1385850 -0.1000000 -0.0574050
v 0.1060650 -0.1000000 -0.1060650
v 0.1385850 -0.2000000 -0.0574050
v 0.1500000 -0.2000000 0.0000000
v 0.1500000 -0.1000000 0.0000000
v 0.1385850 -0.1000000 -0.0574050
v 0.2000000 -0.1000000 0.0000000
v 0.1847800 -0.1000000 0.0765400
v 0.1847800 -0.2000000 0.0765400
v 0.2000000 -0.2000000 0.0000000
v 0.1847800 -0.1000000 0.0765400
v 0.1414200 -0.1000000 0.1414200
v 0.1414200 -0.2000000 0.1414200
v 0.1847800 -0.2000000 0.0765400
v 0.1414200 -0.1000000 0.1414200
v 0.0765400 -0.1000000 0.1847800
v 0.0765400 -0.2000000 0.1847800
v 0.1414200 -0.2000000 0.1414200
v 0.0765400 -0.1000000 0.1847800
v 0.0000000 -0.1000000 0.2000000
v 0.0000000 -0.2000000 0.2000000
v 0.0765400 -0.2000000 0.1847800
v 0.0000000 -0.1000000 0.2000000
v -0.0765400 -0.1000000 0.1847800
v -0.0765400 -0.2000000 0.1847800
v 0.0000000 -0.2000000 0.2000000
v -0.0765400 -0.1000000 0.1847800
v -0.1414200 -0.1000000 0.1414200
v -0.1414200 -0.2000000 0.1414200
v -0.0765400 -0.2000000 0.1847800
v -0.1414200 -0.1000000 0.1414200
v -0.1847800 -0.1000000 0.0765400
v -0.1847800 -0.2000000 0.0765400
v -0.1414200 -0.2000000 0.1414200
v -0.1847800 -0.1000000 0.0765400
v -0.2000000 -0.1000000 0.0000000
v -0.2000000 -0.2000000 0.0000000
v -0.1847800 -0.2000000 0.0765400
v -0.2000000 -0.1000000 0.0000000
v -0.1847800 -0.1000000 -0.0765400
v -0.1847800 -0.2000000 -0.0765400
v -0.2000000 -0.2000000 0.0000000
v -0.1847800 -0.1000000 -0.0765400
v -0.1414200 -0.1000000 -0.1414200
v -0.1414200 -0.2000000 -0.1414200
v -0.1847800 -0.2000000 -0.0765400
v -0.1414200 -0.1000000 -0.1414200
v -0.0765400 -0.1000000 -0.1847800
v -0.0765400 -0.2000000 -0.1847800
v -0.1414200 -0.2000000 -0.1414200
v -0.0765400 -0.1000000 -0.1847800
v 0.0000000 -0.1000000 -0.2000000
v 0.0000000 -0.2000000 -0.2000000
v -0.0765400 -0.2000000 -0.1847800
v 0.0000000 -0.1000000 -0.2000000
v 0.0765400 -0.1000000 -0.1847800
v 0.0765400 -0.2000000 -0.1847800
v 0.0000000 -0.2000000 -0.2000000
v 0.0765400 -0.1000000 -0.1847800
v 0.1414200 -0.1000000 -0.1414200
v 0.1414200 -0.2000000 -0.1414200
v 0.0765400 -0.2000000 -0.1847800
v 0.1414200 -0.1000000 -0.1414200
v 0.1847800 -0.1000000 -0.0765400
v 0.1847800 -0.2000000 -0.0765400
v 0.1414200 -0.2000000 -0.1414200
v 0.1847800 -0.1000000 -0.0765400
v 0.2000000 -0.1000000 0.0000000
v 0.2000000 -0.2000000 0.0000000
v 0.1847800 -0.2000000 -0.0765400
v -0.0765400 -0.2000000 0.1847800
v -0.0574050 -0.2000000 0.1385850
v 0.0000000 -0.2000000 0.1500000
v 0.0000000 -0.2000000 0.2000000
v -0.1414200 -0.2000000 0.1414200
v -0.1060650 -0.2000000 0.1060650
v -0.0574050 -0.2000000 0.1385850
v -0.0765400 -0.2000000 0.1847800
v -0.1847800 -0.2000000 0.0765400
v -0.1385850 -0.2000000 0.0574050
v -0.1060650 -0.2000000 0.1060650
v -0.1414200 -0.2000000 0.1414200
v -0.2000000 -0.2000000 0.0000000
v -0.1500000 -0.2000000 0.0000000
v -0.1385850 -0.2000000 0.0574050
v -0.1847800 -0.2000000 0.0765400
v -0.1847800 -0.2000000 -0.0765400
v -0.1385850 -0.2000000 -0.0574050
v -0.1500000 -0.2000000 0.0000000
v -0.2000000 -0.2000000 0.0000000
v -0.1414200 -0.2000000 -0.1414200
v -0.1060650 -0.2000000 -0.1060650
v -0.1385850 -0.2000000 -0.0574050
v -0.1847800 -0.2000000 -0.0765400
v -0.0765400 -0.2000000 -0.1847800
v -0.0574050 -0.2000000 -0.1385850
v -0.1060650 -0.2000000 -0.1060650
v -0.1414200 -0.2000000 -0.1414200
v 0.0000000 -0.2000000 -0.2000000
v 0.0000000 -0.2000000 -0.1500000
v -0.0574050 -0.2000000 -0.1385850
v -0.0765400 -0.2000000 -0.1847800
v 0.0765400 -0.2000000 -0.1847800
v 0.0574050 -0.2000000 -0.1385850
v 0.0000000 -0.2000000 -0.1500000
v 0.0000000 -0.2000000 -0.2000000
v 0.1414200 -0.2000000 -0.1414200
v 0.1060650 -0.2000000 -0.1060650
v 0.0574050 -0.2000000 -0.1385850
v 0.0765400 -0.2000000 -0.1847800
v 0.1847800 -0.2000000 -0.0765400
v 0.1385850 -0.2000000 -0.0574050
v 0.1060650 -0.2000000 -0.1060650
v 0.1414200 -0.2000000 -0.1414200
v 0.2000000 -0.2000000 0.0000000
v 0.1500000 -0.2000000 0.0000000
v 0.1385850 -0.2000000 -0.0574050
v 0.1847800 -0.2000000 -0.0765400
v 0.1847800 -0.2000000 0.0765400
v 0.1385850 -0.2000000 0.0574050
v 0.1500000 -0.2000000 0.0000000
v 0.2000000 -0.2000000 0.0000000
v 0.1414200 -0.2000000 0.1414200
v 0.1060650 -0.2000000 0.1060650
v 0.1385850 -0.2000000 0.0574050
v 0.1847800 -0.2000000 0.0765400
v 0.0765400 -0.2000000 0.1847800
v 0.0574050 -0.2000000 0.1385850
v 0.1060650 -0.2000000 0.1060650
v 0.1414200 -0.2000000 0.1414200
v 0.0000000 -0.2000000 0.2000000
v 0.0000000 -0.2000000 0.1500000
v 0.0574050 -0.2000000 0.1385850
v 0.0765400 -0.2000000 0.1847800
v 0.0000000 -0.1000000 0.0000000
v 0.1500000 -0.1000000 0.0000000
v 0.1385850 -0.1000000 0.0574050
v 0.0000000 -0.1000000 0.0000000
v 0.1385850 -0.1000000 0.0574050
v 0.1060650 -0.1000000 0.1060650
v 0.0000000 -0.1000000 0.0000000
v 0.1060650 -0.1000000 0.1060650
v 0.0574050 -0.1000000 0.1385850
v 0.0000000 -0.1000000 0.0000000
v 0.0574050 -0.1000000 0.1385850
v 0.0000000 -0.1000000 0.1500000
v 0.0000000 -0.1000000 0.0000000
v 0.0000000 -0.1000000 0.1500000
v -0.0574050 -0.1000000 0.1385850
v 0.0000000 -0.1000000 0.0000000
v -0.0574050 -0.1000000 0.1385850
v -0.1060650 -0.1000000 0.1060650
v 0.0000000 -0.1000000 0.0000000
v -0.1060650 -0.1000000 0.1060650
v -0.1385850 -0.1000000 0.0574050
v 0.0000000 -0.1000000 0.0000000
v -0.1385850 -0.1000000 0.0574050
v -0.1500000 -0.1000000 0.0000000
v 0.0000000 -0.1000000 0.0000000
v -0.1500000 -0.1000000 0.0000000
v -0.1385850 -0.1000000 -0.0574050
v 0.0000000 -0.1000000 0.0000000
v -0.1385850 -0.1000000 -0.0574050
v -0.1060650 -0.1000000 -0.1060650
v 0.0000000 -0.1000000 0.0000000
v -0.1060650 -0.1000000 -0.1060650
v -0.0574050 -0.1000000 -0.1385850
v 0.0000000 -0.1000000 0.0000000
v -0.0574050 -0.1000000 -0.1385850
v 0.0000000 -0.1000000 -0.1500000
v 0.0000000 -0.1000000 0.0000000
v 0.0000000 -0.1000000 -0.1500000
v 0.0574050 -0.1000000 -0.1385850
v 0.0000000 -0.1000000 0.0000000
v 0.0574050 -0.1000000 -0.1385850
v 0.1060650 -0.1000000 -0.1060650
v 0.0000000 -0.1000000 0.0000000
v 0.1060650 -0.1000000 -0.1060650
v 0.1385850 -0.1000000 -0.0574050
v 0.0000000 -0.1000000 0.0000000
v 0.1385850 -0.1000000 -0.0574050
v 0.1500000 -0.1000000 0.0000000
v 0.1847800 -0.1000000 0.0765400
v 0.2000000 -0.1000000 0.0000000
v 0.2000000 -0.1000000 0.2000000
v 0.1414200 -0.1000000 0.1414200
v 0.1847800 -0.1000000 0.0765400
v 0.2000000 -0.1000000 0.2000000
v 0.0765400 -0.1000000 0.1847800
v 0.1414200 -0.1000000 0.1414200
v 0.2000000 -0.1000000 0.2000000
v 0.0000000 -0.1000000 0.2000000
v 0.0765400 -0.1000000 0.1847800
v 0.2000000 -0.1000000 0.2000000
v -0.0765400 -0.1000000 0.1847800
v 0.0000000 -0.1000000 0.2000000
v -0.2000000 -0.1000000 0.2000000
v -0.1414200 -0.1000000 0.1414200
v -0.0765400 -0.1000000 0.1847800
v -0.2000000 -0.1000000 0.2000000
v -0.1847800 -0.1000000 0.0765400
v -0.1414200 -0.1000000 0.1414200
v -0.2000000 -0.1000000 0.2000000
v -0.2000000 -0.1000000 0.0000000
v -0.1847800 -0.1000000 0.0765400
v -0.2000000 -0.1000000 0.2000000
v -0.1847800 -0.1000000 -0.0765400
v -0.2000000 -0.1000000 0.0000000
v -0.2000000 -0.1000000 -0.2000000
v -0.1414200 -0.1000000 -0.1414200
v -0.1847800 -0.1000000 -0.0765400
v -0.2000000 -0.1000000 -0.2000000
v -0.0765400 -0.1000000 -0.1847800
v -0.1414200 -0.1000000 -0.1414200
v -0.2000000 -0.1000000 -0.2000000
v 0.0000000 -0.1000000 -0.2000000
v -0.0765400 -0.1000000 -0.1847800
v -0.2000000 -0.1000000 -0.2000000
v 0.0765400 -0.1000000 -0.1847800
v 0.0000000 -0.1000000 -0.2000000
v 0.2000000 -0.1000000 -0.2000000
v 0.1414200 -0.1000000 -0.1414200
v 0.0765400 -0.1000000 -0.1847800
v 0.2000000 -0.1000000 -0.2000000
v 0.1847800 -0.1000000 -0.0765400
v 0.1414200 -0.1000000 -0.1414200
v 0.2000000 -0.1000000 -0.2000000
v 0.2000000 -0.1000000 0.0000000
v 0.1847800 -0.1000000 -0.0765400
v 0.2000000 -0.1000000 -0.2000000
v -0.5000000 -0.1750000 -0.5000000
v 0.5000000 -0.1750000 -0.5000000
v 0.4750000 -0.1750000 -0.4750000
v -0.4750000 -0.1750000 -0.4750000
v 0.5000000 -0.1750000 0.5000000
v 0.4750000 -0.1750000 0.4750000
v 0.4750000 -0.1750000 -0.4750000
v 0.5000000 -0.1750000 -0.5000000
v -0.5000000 -0.1750000 0.5000000
v -0.4750000 -0.1750000 0.4750000
v 0.4750000 -0.1750000 0.4750000
v 0.5000000 -0.1750000 0.5000000
v -0.5000000 -0.1750000 -0.5000000
v -0.4750000 -0.1750000 -0.4750000
v -0.4750000 -0.1750000 0.4750000
v -0.5000000 -0.1750000 0.5000000
v -0.4750000 -0.2000000 -0.4750000
v 0.4750000 -0.2000000 -0.4750000
v 0.4000000 -0.2000000 -0.4000000
v -0.4000000 -0.2000000 -0.4000000
v 0.4750000 -0.2000000 0.4750000
v 0.4000000 -0.2000000 0.4000000
v 0.4000000 -0.2000000 -0.4000000
v 0.4750000 -0.2000000 -0.4750000
v -0.4750000 -0.2000000 0.4750000
v -0.4000000 -0.2000000 0.4000000
v 0.4000000 -0.2000000 0.4000000
v 0.4750000 -0.2000000 0.4750000
v -0.4750000 -0.2000000 -0.4750000
v -0.4000000 -0.2000000 -0.4000000
v -0.4000000 -0.2000000 0.4000000
v -0.4750000 -0.2000000 0.4750000
v -0.4000000 -0.1000000 -0.4000000
v 0.4000000 -0.1000000 -0.4000000
v 0.2000000 -0.1000000 -0.2000000
v -0.2000000 -0.1000000 -0.2000000
v 0.4000000 -0.1000000 0.4000000
v 0.2000000 -0.1000000 0.2000000
v 0.2000000 -0.1000000 -0.2000000
v 0.4000000 -0.1000000 -0.4000000
v -0.4000000 -0.1000000 0.4000000
v -0.2000000 -0.1000000 0.2000000
v 0.2000000 -0.1000000 0.2000000
v 0.4000000 -0.1000000 0.4000000
v -0.4000000 -0.1000000 -0.4000000
v -0.2000000 -0.1000000 -0.2000000
v -0.2000000 -0.1000000 0.2000000
v -0.4000000 -0.1000000 0.4000000
v -0.5000000 -0.0000000 0.5000000
v 0.5000000 -0.0000000 0.5000000
v 0.5000000 -0.0000000 -0.5000000
v -0.5000000 -0.0000000 -0.5000000
s off
f 1 2 3
f 1 3 4
f 5 6 7
f 5 7 8
f 9 10 11
f 9 11 12
f 13 14 15
f 13 15 16
f 17 18 19
f 17 19 20
f 21 22 23
f 21 23 24
f 25 26 27
f 25 27 28
f 29 30 31
f 29 31 32
f 33 34 35
f 33 35 36
f 37 38 39
f 37 39 40
f 41 42 43
f 41 43 44
f 45 46 47
f 45 47 48
f 49 50 51
f 49 51 52
f 53 54 55
f 53 55 56
f 57 58 59
f 57 59 60
f 61 62 63
f 61 63 64
f 65 66 67
f 65 67 68
f 69 70 71
f 69 71 72
f 73 74 75
f 73 75 76
f 77 78 79
f 77 79 80
f 81 82 83
f 81 83 84
f 85 86 87
f 85 87 88
f 89 90 91
f 89 91 92
f 93 94 95
f 93 95 96
f 97 98 99
f 97 99 100
f 101 102 103
f 101 103 104
f 105 106 107
f 105 107 108
f 109 110 111
f 109 111 112
f 113 114 115
f 113 115 116
f 117 118 119
f 117 119 120
f 121 122 123
f 121 123 124
f 125 126 127
f 125 127 128
f 129 130 131
f 129 131 132
f 133 134 135
f 133 135 136
f 137 138 139
f 137 139 140
f 141 142 143
f 141 143 144
f 145 146 147
f 145 147 148
f 149 150 151
f 149 151 152
f 153 154 155
f 153 155 156
f 157 158 159
f 157 159 160
f 161 162 163
f 161 163 164
f 165 166 167
f 165 167 168
f 169 170 171
f 169 171 172
f 173 174 175
f 173 175 176
f 177 178 179
f 177 179 180
f 181 182 183
f 181 183 184
f 185 186 187
f 185 187 188
f 189 190 191
f 189 191 192
f 193 194 195
f 193 195 196
f 197 198 199
f 197 199 200
f 201 202 203
f 201 203 204
f 205 206 207
f 205 207 208
f 209 210 211
f 209 211 212
f 213 214 215
f 213 215 216
f 217 218 219
f 217 219 220
f 221 222 223
f 221 223 224
f 225 226 227
f 225 227 228
f 229 230 231
f 229 231 232
f 233 234 235
f 233 235 236
f 237 238 239
f 237 239 240
f 241 242 243
f 244 245 246
f 247 248 249
f 250 251 252
f 253 254 255
f 256 257 258
f 259 260 261
f 262 263 264
f 265 266 267
f 268 269 270
f 271 272 273
f 274 275 276
f 277 278 279
f 280 281 282
f 283 284 285
f 286 287 288
f 289 290 291
f 292 293 294
f 295 296 297
f 298 299 300
f 301 302 303
f 304 305 306
f 307 308 309
f 310 311 312
f 313 314 315
f 316 317 318
f 319 320 321
f 322 323 324
f 325 326 327
f 328 329 330
f 331 332 333
f 334 335 336
f 337 338 339
f 337 339 340
f 341 342 343
f 341 343 344
f 345 346 347
f 345 347 348
f 349 350 351
f 349 351 352
f 353 354 355
f 353 355 356
f 357 358 359
f 357 359 360
f 361 362 363
f 361 363 364
f 365 366 367
f 365 367 368
f 369 370 371
f 369 371 372
f 373 374 375
f 373 375 376
f 377 378 379
f 377 379 380
f 381 382 383
f 381 383 384
f 385 386 387
f 385 387 388
