# Baked from official LDraw part 3298.dat
o ldraw_3298
v 0.1500000 -0.6000000 -0.2500000
v 0.1385850 -0.6000000 -0.1925950
v 0.1385850 -0.2000000 -0.1925950
v 0.1500000 -0.2000000 -0.2500000
v 0.1385850 -0.6000000 -0.1925950
v 0.1060650 -0.6000000 -0.1439350
v 0.1060650 -0.2000000 -0.1439350
v 0.1385850 -0.2000000 -0.1925950
v 0.1060650 -0.6000000 -0.1439350
v 0.0574050 -0.6000000 -0.1114150
v 0.0574050 -0.2000000 -0.1114150
v 0.1060650 -0.2000000 -0.1439350
v 0.0574050 -0.6000000 -0.1114150
v 0.0000000 -0.6000000 -0.1000000
v 0.0000000 -0.2000000 -0.1000000
v 0.0574050 -0.2000000 -0.1114150
v 0.0000000 -0.6000000 -0.1000000
v -0.0574050 -0.6000000 -0.1114150
v -0.0574050 -0.2000000 -0.1114150
v 0.0000000 -0.2000000 -0.1000000
v -0.0574050 -0.6000000 -0.1114150
v -0.1060650 -0.6000000 -0.1439350
v -0.1060650 -0.2000000 -0.1439350
v -0.0574050 -0.2000000 -0.1114150
v -0.1060650 -0.6000000 -0.1439350
v -0.1385850 -0.6000000 -0.1925950
v -0.1385850 -0.2000000 -0.1925950
v -0.1060650 -0.2000000 -0.1439350
v -0.1385850 -0.6000000 -0.1925950
v -0.1500000 -0.6000000 -0.2500000
v -0.1500000 -0.2000000 -0.2500000
v -0.1385850 -0.2000000 -0.1925950
v -0.1500000 -0.6000000 -0.2500000
v -0.1385850 -0.6000000 -0.3074050
v -0.1385850 -0.2000000 -0.3074050
v -0.1500000 -0.2000000 -0.2500000
v -0.1385850 -0.6000000 -0.3074050
v -0.1060650 -0.6000000 -0.3560650
v -0.1060650 -0.2000000 -0.3560650
v -0.1385850 -0.2000000 -0.3074050
v -0.1060650 -0.6000000 -0.3560650
v -0.0574050 -0.6000000 -0.3885850
v -0.0574050 -0.2000000 -0.3885850
v -0.1060650 -0.2000000 -0.3560650
v -0.0574050 -0.6000000 -0.3885850
v 0.0000000 -0.6000000 -0.4000000
v 0.0000000 -0.2000000 -0.4000000
v -0.0574050 -0.2000000 -0.3885850
v 0.0000000 -0.6000000 -0.4000000
v 0.0574050 -0.6000000 -0.3885850
v 0.0574050 -0.2000000 -0.3885850
v 0.0000000 -0.2000000 -0.4000000
v 0.0574050 -0.6000000 -0.3885850
v 0.1060650 -0.6000000 -0.3560650
v 0.1060650 -0.2000000 -0.3560650
v 0.0574050 -0.2000000 -0.3885850
v 0.1060650 -0.6000000 -0.3560650
v 0.1385850 -0.6000000 -0.3074050
v 0.1385850 -0.2000000 -0.3074050
v 0.1060650 -0.2000000 -0.3560650
v 0.1385850 -0.6000000 -0.3074050
v 0.1500000 -0.6000000 -0.2500000
v 0.1500000 -0.2000000 -0.2500000
v 0.1385850 -0.2000000 -0.3074050
v 0.2000000 -0.2000000 -0.2500000
v 0.1847800 -0.2000000 -0.1734600
v 0.1847800 -0.6000000 -0.1734600
v 0.2000000 -0.6000000 -0.2500000
v 0.1847800 -0.2000000 -0.1734600
v 0.1414200 -0.2000000 -0.1085800
v 0.1414200 -0.6000000 -0.1085800
v 0.1847800 -0.6000000 -0.1734600
v 0.1414200 -0.2000000 -0.1085800
v 0.0765400 -0.2000000 -0.0652200
v 0.0765400 -0.6000000 -0.0652200
v 0.1414200 -0.6000000 -0.1085800
v 0.0765400 -0.2000000 -0.0652200
v 0.0000000 -0.2000000 -0.0500000
v 0.0000000 -0.6000000 -0.0500000
v 0.0765400 -0.6000000 -0.0652200
v 0.0000000 -0.2000000 -0.0500000
v -0.0765400 -0.2000000 -0.0652200
v -0.0765400 -0.6000000 -0.0652200
v 0.0000000 -0.6000000 -0.0500000
v -0.0765400 -0.2000000 -0.0652200
v -0.1414200 -0.2000000 -0.1085800
v -0.1414200 -0.6000000 -0.1085800
v -0.0765400 -0.6000000 -0.0652200
v -0.1414200 -0.2000000 -0.1085800
v -0.1847800 -0.2000000 -0.1734600
v -0.1847800 -0.6000000 -0.1734600
v -0.1414200 -0.6000000 -0.1085800
v -0.1847800 -0.2000000 -0.1734600
v -0.2000000 -0.2000000 -0.2500000
v -0.2000000 -0.6000000 -0.2500000
v -0.1847800 -0.6000000 -0.1734600
v -0.2000000 -0.2000000 -0.2500000
v -0.1847800 -0.2000000 -0.3265400
v -0.1847800 -0.6000000 -0.3265400
v -0.2000000 -0.6000000 -0.2500000
v -0.1847800 -0.2000000 -0.3265400
v -0.1414200 -0.2000000 -0.3914200
v -0.1414200 -0.6000000 -0.3914200
v -0.1847800 -0.6000000 -0.3265400
v -0.1414200 -0.2000000 -0.3914200
v -0.0765400 -0.2000000 -0.4347800
v -0.0765400 -0.6000000 -0.4347800
v -0.1414200 -0.6000000 -0.3914200
v -0.0765400 -0.2000000 -0.4347800
v 0.0000000 -0.2000000 -0.4500000
v 0.0000000 -0.6000000 -0.4500000
v -0.0765400 -0.6000000 -0.4347800
v 0.0000000 -0.2000000 -0.4500000
v 0.0765400 -0.2000000 -0.4347800
v 0.0765400 -0.6000000 -0.4347800
v 0.0000000 -0.6000000 -0.4500000
v 0.0765400 -0.2000000 -0.4347800
v 0.1414200 -0.2000000 -0.3914200
v 0.1414200 -0.6000000 -0.3914200
v 0.0765400 -0.6000000 -0.4347800
v 0.1414200 -0.2000000 -0.3914200
v 0.1847800 -0.2000000 -0.3265400
v 0.1847800 -0.6000000 -0.3265400
v 0.1414200 -0.6000000 -0.3914200
v 0.1847800 -0.2000000 -0.3265400
v 0.2000000 -0.2000000 -0.2500000
v 0.2000000 -0.6000000 -0.2500000
v 0.1847800 -0.6000000 -0.3265400
v -0.0765400 -0.6000000 -0.0652200
v -0.0574050 -0.6000000 -0.1114150
v 0.0000000 -0.6000000 -0.1000000
v 0.0000000 -0.6000000 -0.0500000
v -0.1414200 -0.6000000 -0.1085800
v -0.1060650 -0.6000000 -0.1439350
v -0.0574050 -0.6000000 -0.1114150
v -0.0765400 -0.6000000 -0.0652200
v -0.1847800 -0.6000000 -0.1734600
v -0.1385850 -0.6000000 -0.1925950
v -0.1060650 -0.6000000 -0.1439350
v -0.1414200 -0.6000000 -0.1085800
v -0.2000000 -0.6000000 -0.2500000
v -0.1500000 -0.6000000 -0.2500000
v -0.1385850 -0.6000000 -0.1925950
v -0.1847800 -0.6000000 -0.1734600
v -0.1847800 -0.6000000 -0.3265400
v -0.1385850 -0.6000000 -0.3074050
v -0.1500000 -0.6000000 -0.2500000
v -0.2000000 -0.6000000 -0.2500000
v -0.1414200 -0.6000000 -0.3914200
v -0.1060650 -0.6000000 -0.3560650
v -0.1385850 -0.6000000 -0.3074050
v -0.1847800 -0.6000000 -0.3265400
v -0.0765400 -0.6000000 -0.4347800
v -0.0574050 -0.6000000 -0.3885850
v -0.1060650 -0.6000000 -0.3560650
v -0.1414200 -0.6000000 -0.3914200
v 0.0000000 -0.6000000 -0.4500000
v 0.0000000 -0.6000000 -0.4000000
v -0.0574050 -0.6000000 -0.3885850
v -0.0765400 -0.6000000 -0.4347800
v 0.0765400 -0.6000000 -0.4347800
v 0.0574050 -0.6000000 -0.3885850
v 0.0000000 -0.6000000 -0.4000000
v 0.0000000 -0.6000000 -0.4500000
v 0.1414200 -0.6000000 -0.3914200
v 0.1060650 -0.6000000 -0.3560650
v 0.0574050 -0.6000000 -0.3885850
v 0.0765400 -0.6000000 -0.4347800
v 0.1847800 -0.6000000 -0.3265400
v 0.1385850 -0.6000000 -0.3074050
v 0.1060650 -0.6000000 -0.3560650
v 0.1414200 -0.6000000 -0.3914200
v 0.2000000 -0.6000000 -0.2500000
v 0.1500000 -0.6000000 -0.2500000
v 0.1385850 -0.6000000 -0.3074050
v 0.1847800 -0.6000000 -0.3265400
v 0.1847800 -0.6000000 -0.1734600
v 0.1385850 -0.6000000 -0.1925950
v 0.1500000 -0.6000000 -0.2500000
v 0.2000000 -0.6000000 -0.2500000
v 0.1414200 -0.6000000 -0.1085800
v 0.1060650 -0.6000000 -0.1439350
v 0.1385850 -0.6000000 -0.1925950
v 0.1847800 -0.6000000 -0.1734600
v 0.0765400 -0.6000000 -0.0652200
v 0.0574050 -0.6000000 -0.1114150
v 0.1060650 -0.6000000 -0.1439350
v 0.1414200 -0.6000000 -0.1085800
v 0.0000000 -0.6000000 -0.0500000
v 0.0000000 -0.6000000 -0.1000000
v 0.0574050 -0.6000000 -0.1114150
v 0.0765400 -0.6000000 -0.0652200
v 0.0765400 -0.1923900 -0.4347800
v 0.0765400 -0.2000000 -0.4347800
v 0.0000000 -0.2000000 -0.4500000
v 0.0765400 -0.1923900 -0.4347800
v 0.1414200 -0.1707100 -0.3914200
v 0.1414200 -0.2000000 -0.3914200
v 0.0765400 -0.2000000 -0.4347800
v 0.1414200 -0.1707100 -0.3914200
v 0.1847800 -0.1382700 -0.3265400
v 0.1847800 -0.2000000 -0.3265400
v 0.1414200 -0.2000000 -0.3914200
v 0.1847800 -0.1382700 -0.3265400
v 0.2000000 -0.1000000 -0.2500000
v 0.2000000 -0.2000000 -0.2500000
v 0.1847800 -0.2000000 -0.3265400
v 0.0000000 -0.2000000 -0.4500000
v -0.0765400 -0.2000000 -0.4347800
v -0.0765400 -0.1923900 -0.4347800
v -0.0765400 -0.2000000 -0.4347800
v -0.1414200 -0.2000000 -0.3914200
v -0.1414200 -0.1707100 -0.3914200
v -0.0765400 -0.1923900 -0.4347800
v -0.1414200 -0.2000000 -0.3914200
v -0.1847800 -0.2000000 -0.3265400
v -0.1847800 -0.1382700 -0.3265400
v -0.1414200 -0.1707100 -0.3914200
v -0.1847800 -0.2000000 -0.3265400
v -0.2000000 -0.2000000 -0.2500000
v -0.2000000 -0.1000000 -0.2500000
v -0.1847800 -0.1382700 -0.3265400
v 0.2000000 -0.2000000 -0.2500000
v 0.2000000 -0.1000000 -0.2500000
v 0.1847800 -0.1000000 -0.1734600
v 0.1847800 -0.2000000 -0.1734600
v 0.1847800 -0.2000000 -0.1734600
v 0.1847800 -0.1000000 -0.1734600
v 0.1414200 -0.1000000 -0.1085800
v 0.1414200 -0.2000000 -0.1085800
v 0.1414200 -0.2000000 -0.1085800
v 0.1414200 -0.1000000 -0.1085800
v 0.0765400 -0.1000000 -0.0652200
v 0.0765400 -0.2000000 -0.0652200
v 0.0765400 -0.2000000 -0.0652200
v 0.0765400 -0.1000000 -0.0652200
v 0.0000000 -0.1000000 -0.0500000
v 0.0000000 -0.2000000 -0.0500000
v 0.0000000 -0.2000000 -0.0500000
v 0.0000000 -0.1000000 -0.0500000
v -0.0765400 -0.1000000 -0.0652200
v -0.0765400 -0.2000000 -0.0652200
v -0.0765400 -0.2000000 -0.0652200
v -0.0765400 -0.1000000 -0.0652200
v -0.1414200 -0.1000000 -0.1085800
v -0.1414200 -0.2000000 -0.1085800
v -0.1414200 -0.2000000 -0.1085800
v -0.1414200 -0.1000000 -0.1085800
v -0.1847800 -0.1000000 -0.1734600
v -0.1847800 -0.2000000 -0.1734600
v -0.1847800 -0.2000000 -0.1734600
v -0.1847800 -0.1000000 -0.1734600
v -0.2000000 -0.1000000 -0.2500000
v -0.2000000 -0.2000000 -0.2500000
v 0.0000000 -0.1750000 -0.4000000
v 0.0574050 -0.1750000 -0.3885850
v 0.0574050 -0.1692925 -0.3885850
v 0.0574050 -0.1750000 -0.3885850
v 0.1060650 -0.1750000 -0.3560650
v 0.1060650 -0.1530325 -0.3560650
v 0.0574050 -0.1692925 -0.3885850
v 0.1060650 -0.1750000 -0.3560650
v 0.1385850 -0.1750000 -0.3074050
v 0.1385850 -0.1287025 -0.3074050
v 0.1060650 -0.1530325 -0.3560650
v 0.1385850 -0.1750000 -0.3074050
v 0.1500000 -0.1750000 -0.2500000
v 0.1500000 -0.1000000 -0.2500000
v 0.1385850 -0.1287025 -0.3074050
v -0.0574050 -0.1692925 -0.3885850
v -0.0574050 -0.1750000 -0.3885850
v 0.0000000 -0.1750000 -0.4000000
v -0.0574050 -0.1692925 -0.3885850
v -0.1060650 -0.1530325 -0.3560650
v -0.1060650 -0.1750000 -0.3560650
v -0.0574050 -0.1750000 -0.3885850
v -0.1060650 -0.1530325 -0.3560650
v -0.1385850 -0.1287025 -0.3074050
v -0.1385850 -0.1750000 -0.3074050
v -0.1060650 -0.1750000 -0.3560650
v -0.1385850 -0.1287025 -0.3074050
v -0.1500000 -0.1000000 -0.2500000
v -0.1500000 -0.1750000 -0.2500000
v -0.1385850 -0.1750000 -0.3074050
v 0.1385850 -0.1750000 -0.1925950
v 0.1385850 -0.1000000 -0.1925950
v 0.1500000 -0.1000000 -0.2500000
v 0.1500000 -0.1750000 -0.2500000
v 0.1060650 -0.1750000 -0.1439350
v 0.1060650 -0.1000000 -0.1439350
v 0.1385850 -0.1000000 -0.1925950
v 0.1385850 -0.1750000 -0.1925950
v 0.0574050 -0.1750000 -0.1114150
v 0.0574050 -0.1000000 -0.1114150
v 0.1060650 -0.1000000 -0.1439350
v 0.1060650 -0.1750000 -0.1439350
v 0.0000000 -0.1750000 -0.1000000
v 0.0000000 -0.1000000 -0.1000000
v 0.0574050 -0.1000000 -0.1114150
v 0.0574050 -0.1750000 -0.1114150
v -0.0574050 -0.1750000 -0.1114150
v -0.0574050 -0.1000000 -0.1114150
v 0.0000000 -0.1000000 -0.1000000
v 0.0000000 -0.1750000 -0.1000000
v -0.1060650 -0.1750000 -0.1439350
v -0.1060650 -0.1000000 -0.1439350
v -0.0574050 -0.1000000 -0.1114150
v -0.0574050 -0.1750000 -0.1114150
v -0.1385850 -0.1750000 -0.1925950
v -0.1385850 -0.1000000 -0.1925950
v -0.1060650 -0.1000000 -0.1439350
v -0.1060650 -0.1750000 -0.1439350
v -0.1500000 -0.1750000 -0.2500000
v -0.1500000 -0.1000000 -0.2500000
v -0.1385850 -0.1000000 -0.1925950
v -0.1385850 -0.1750000 -0.1925950
v 0.1500000 -0.2000000 -0.2500000
v 0.1385850 -0.2000000 -0.1925950
v 0.1385850 -0.1750000 -0.1925950
v 0.1500000 -0.1750000 -0.2500000
v 0.1385850 -0.2000000 -0.1925950
v 0.1060650 -0.2000000 -0.1439350
v 0.1060650 -0.1750000 -0.1439350
v 0.1385850 -0.1750000 -0.1925950
v 0.1060650 -0.2000000 -0.1439350
v 0.0574050 -0.2000000 -0.1114150
v 0.0574050 -0.1750000 -0.1114150
v 0.1060650 -0.1750000 -0.1439350
v 0.0574050 -0.2000000 -0.1114150
v 0.0000000 -0.2000000 -0.1000000
v 0.0000000 -0.1750000 -0.1000000
v 0.0574050 -0.1750000 -0.1114150
v 0.0000000 -0.2000000 -0.1000000
v -0.0574050 -0.2000000 -0.1114150
v -0.0574050 -0.1750000 -0.1114150
v 0.0000000 -0.1750000 -0.1000000
v -0.0574050 -0.2000000 -0.1114150
v -0.1060650 -0.2000000 -0.1439350
v -0.1060650 -0.1750000 -0.1439350
v -0.0574050 -0.1750000 -0.1114150
v -0.1060650 -0.2000000 -0.1439350
v -0.1385850 -0.2000000 -0.1925950
v -0.1385850 -0.1750000 -0.1925950
v -0.1060650 -0.1750000 -0.1439350
v -0.1385850 -0.2000000 -0.1925950
v -0.1500000 -0.2000000 -0.2500000
v -0.1500000 -0.1750000 -0.2500000
v -0.1385850 -0.1750000 -0.1925950
v -0.1500000 -0.2000000 -0.2500000
v -0.1385850 -0.2000000 -0.3074050
v -0.1385850 -0.1750000 -0.3074050
v -0.1500000 -0.1750000 -0.2500000
v -0.1385850 -0.2000000 -0.3074050
v -0.1060650 -0.2000000 -0.3560650
v -0.1060650 -0.1750000 -0.3560650
v -0.1385850 -0.1750000 -0.3074050
v -0.1060650 -0.2000000 -0.3560650
v -0.0574050 -0.2000000 -0.3885850
v -0.0574050 -0.1750000 -0.3885850
v -0.1060650 -0.1750000 -0.3560650
v -0.0574050 -0.2000000 -0.3885850
v 0.0000000 -0.2000000 -0.4000000
v 0.0000000 -0.1750000 -0.4000000
v -0.0574050 -0.1750000 -0.3885850
v 0.0000000 -0.2000000 -0.4000000
v 0.0574050 -0.2000000 -0.3885850
v 0.0574050 -0.1750000 -0.3885850
v 0.0000000 -0.1750000 -0.4000000
v 0.0574050 -0.2000000 -0.3885850
v 0.1060650 -0.2000000 -0.3560650
v 0.1060650 -0.1750000 -0.3560650
v 0.0574050 -0.1750000 -0.3885850
v 0.1060650 -0.2000000 -0.3560650
v 0.1385850 -0.2000000 -0.3074050
v 0.1385850 -0.1750000 -0.3074050
v 0.1060650 -0.1750000 -0.3560650
v 0.1385850 -0.2000000 -0.3074050
v 0.1500000 -0.2000000 -0.2500000
v 0.1500000 -0.1750000 -0.2500000
v 0.1385850 -0.1750000 -0.3074050
v 0.1500000 -0.6000000 -0.7500000
v 0.1385850 -0.6000000 -0.6925950
v 0.1385850 -0.4500000 -0.6925950
v 0.1500000 -0.4500000 -0.7500000
v 0.1385850 -0.6000000 -0.6925950
v 0.1060650 -0.6000000 -0.6439350
v 0.1060650 -0.4500000 -0.6439350
v 0.1385850 -0.4500000 -0.6925950
v 0.1060650 -0.6000000 -0.6439350
v 0.0574050 -0.6000000 -0.6114150
v 0.0574050 -0.4500000 -0.6114150
v 0.1060650 -0.4500000 -0.6439350
v 0.0574050 -0.6000000 -0.6114150
v 0.0000000 -0.6000000 -0.6000000
v 0.0000000 -0.4500000 -0.6000000
v 0.0574050 -0.4500000 -0.6114150
v 0.0000000 -0.6000000 -0.6000000
v -0.0574050 -0.6000000 -0.6114150
v -0.0574050 -0.4500000 -0.6114150
v 0.0000000 -0.4500000 -0.6000000
v -0.0574050 -0.6000000 -0.6114150
v -0.1060650 -0.6000000 -0.6439350
v -0.1060650 -0.4500000 -0.6439350
v -0.0574050 -0.4500000 -0.6114150
v -0.1060650 -0.6000000 -0.6439350
v -0.1385850 -0.6000000 -0.6925950
v -0.1385850 -0.4500000 -0.6925950
v -0.1060650 -0.4500000 -0.6439350
v -0.1385850 -0.6000000 -0.6925950
v -0.1500000 -0.6000000 -0.7500000
v -0.1500000 -0.4500000 -0.7500000
v -0.1385850 -0.4500000 -0.6925950
v -0.1500000 -0.6000000 -0.7500000
v -0.1385850 -0.6000000 -0.8074050
v -0.1385850 -0.4500000 -0.8074050
v -0.1500000 -0.4500000 -0.7500000
v -0.1385850 -0.6000000 -0.8074050
v -0.1060650 -0.6000000 -0.8560650
v -0.1060650 -0.4500000 -0.8560650
v -0.1385850 -0.4500000 -0.8074050
v -0.1060650 -0.6000000 -0.8560650
v -0.0574050 -0.6000000 -0.8885850
v -0.0574050 -0.4500000 -0.8885850
v -0.1060650 -0.4500000 -0.8560650
v -0.0574050 -0.6000000 -0.8885850
v 0.0000000 -0.6000000 -0.9000000
v 0.0000000 -0.4500000 -0.9000000
v -0.0574050 -0.4500000 -0.8885850
v 0.0000000 -0.6000000 -0.9000000
v 0.0574050 -0.6000000 -0.8885850
v 0.0574050 -0.4500000 -0.8885850
v 0.0000000 -0.4500000 -0.9000000
v 0.0574050 -0.6000000 -0.8885850
v 0.1060650 -0.6000000 -0.8560650
v 0.1060650 -0.4500000 -0.8560650
v 0.0574050 -0.4500000 -0.8885850
v 0.1060650 -0.6000000 -0.8560650
v 0.1385850 -0.6000000 -0.8074050
v 0.1385850 -0.4500000 -0.8074050
v 0.1060650 -0.4500000 -0.8560650
v 0.1385850 -0.6000000 -0.8074050
v 0.1500000 -0.6000000 -0.7500000
v 0.1500000 -0.4500000 -0.7500000
v 0.1385850 -0.4500000 -0.8074050
v 0.2000000 -0.4500000 -0.7500000
v 0.1847800 -0.4500000 -0.6734600
v 0.1847800 -0.6000000 -0.6734600
v 0.2000000 -0.6000000 -0.7500000
v 0.1847800 -0.4500000 -0.6734600
v 0.1414200 -0.4500000 -0.6085800
v 0.1414200 -0.6000000 -0.6085800
v 0.1847800 -0.6000000 -0.6734600
v 0.1414200 -0.4500000 -0.6085800
v 0.0765400 -0.4500000 -0.5652200
v 0.0765400 -0.6000000 -0.5652200
v 0.1414200 -0.6000000 -0.6085800
v 0.0765400 -0.4500000 -0.5652200
v 0.0000000 -0.4500000 -0.5500000
v 0.0000000 -0.6000000 -0.5500000
v 0.0765400 -0.6000000 -0.5652200
v 0.0000000 -0.4500000 -0.5500000
v -0.0765400 -0.4500000 -0.5652200
v -0.0765400 -0.6000000 -0.5652200
v 0.0000000 -0.6000000 -0.5500000
v -0.0765400 -0.4500000 -0.5652200
v -0.1414200 -0.4500000 -0.6085800
v -0.1414200 -0.6000000 -0.6085800
v -0.0765400 -0.6000000 -0.5652200
v -0.1414200 -0.4500000 -0.6085800
v -0.1847800 -0.4500000 -0.6734600
v -0.1847800 -0.6000000 -0.6734600
v -0.1414200 -0.6000000 -0.6085800
v -0.1847800 -0.4500000 -0.6734600
v -0.2000000 -0.4500000 -0.7500000
v -0.2000000 -0.6000000 -0.7500000
v -0.1847800 -0.6000000 -0.6734600
v -0.2000000 -0.4500000 -0.7500000
v -0.1847800 -0.4500000 -0.8265400
v -0.1847800 -0.6000000 -0.8265400
v -0.2000000 -0.6000000 -0.7500000
v -0.1847800 -0.4500000 -0.8265400
v -0.1414200 -0.4500000 -0.8914200
v -0.1414200 -0.6000000 -0.8914200
v -0.1847800 -0.6000000 -0.8265400
v -0.1414200 -0.4500000 -0.8914200
v -0.0765400 -0.4500000 -0.9347800
v -0.0765400 -0.6000000 -0.9347800
v -0.1414200 -0.6000000 -0.8914200
v -0.0765400 -0.4500000 -0.9347800
v 0.0000000 -0.4500000 -0.9500000
v 0.0000000 -0.6000000 -0.9500000
v -0.0765400 -0.6000000 -0.9347800
v 0.0000000 -0.4500000 -0.9500000
v 0.0765400 -0.4500000 -0.9347800
v 0.0765400 -0.6000000 -0.9347800
v 0.0000000 -0.6000000 -0.9500000
v 0.0765400 -0.4500000 -0.9347800
v 0.1414200 -0.4500000 -0.8914200
v 0.1414200 -0.6000000 -0.8914200
v 0.0765400 -0.6000000 -0.9347800
v 0.1414200 -0.4500000 -0.8914200
v 0.1847800 -0.4500000 -0.8265400
v 0.1847800 -0.6000000 -0.8265400
v 0.1414200 -0.6000000 -0.8914200
v 0.1847800 -0.4500000 -0.8265400
v 0.2000000 -0.4500000 -0.7500000
v 0.2000000 -0.6000000 -0.7500000
v 0.1847800 -0.6000000 -0.8265400
v -0.0765400 -0.6000000 -0.5652200
v -0.0574050 -0.6000000 -0.6114150
v 0.0000000 -0.6000000 -0.6000000
v 0.0000000 -0.6000000 -0.5500000
v -0.1414200 -0.6000000 -0.6085800
v -0.1060650 -0.6000000 -0.6439350
v -0.0574050 -0.6000000 -0.6114150
v -0.0765400 -0.6000000 -0.5652200
v -0.1847800 -0.6000000 -0.6734600
v -0.1385850 -0.6000000 -0.6925950
v -0.1060650 -0.6000000 -0.6439350
v -0.1414200 -0.6000000 -0.6085800
v -0.2000000 -0.6000000 -0.7500000
v -0.1500000 -0.6000000 -0.7500000
v -0.1385850 -0.6000000 -0.6925950
v -0.1847800 -0.6000000 -0.6734600
v -0.1847800 -0.6000000 -0.8265400
v -0.1385850 -0.6000000 -0.8074050
v -0.1500000 -0.6000000 -0.7500000
v -0.2000000 -0.6000000 -0.7500000
v -0.1414200 -0.6000000 -0.8914200
v -0.1060650 -0.6000000 -0.8560650
v -0.1385850 -0.6000000 -0.8074050
v -0.1847800 -0.6000000 -0.8265400
v -0.0765400 -0.6000000 -0.9347800
v -0.0574050 -0.6000000 -0.8885850
v -0.1060650 -0.6000000 -0.8560650
v -0.1414200 -0.6000000 -0.8914200
v 0.0000000 -0.6000000 -0.9500000
v 0.0000000 -0.6000000 -0.9000000
v -0.0574050 -0.6000000 -0.8885850
v -0.0765400 -0.6000000 -0.9347800
v 0.0765400 -0.6000000 -0.9347800
v 0.0574050 -0.6000000 -0.8885850
v 0.0000000 -0.6000000 -0.9000000
v 0.0000000 -0.6000000 -0.9500000
v 0.1414200 -0.6000000 -0.8914200
v 0.1060650 -0.6000000 -0.8560650
v 0.0574050 -0.6000000 -0.8885850
v 0.0765400 -0.6000000 -0.9347800
v 0.1847800 -0.6000000 -0.8265400
v 0.1385850 -0.6000000 -0.8074050
v 0.1060650 -0.6000000 -0.8560650
v 0.1414200 -0.6000000 -0.8914200
v 0.2000000 -0.6000000 -0.7500000
v 0.1500000 -0.6000000 -0.7500000
v 0.1385850 -0.6000000 -0.8074050
v 0.1847800 -0.6000000 -0.8265400
v 0.1847800 -0.6000000 -0.6734600
v 0.1385850 -0.6000000 -0.6925950
v 0.1500000 -0.6000000 -0.7500000
v 0.2000000 -0.6000000 -0.7500000
v 0.1414200 -0.6000000 -0.6085800
v 0.1060650 -0.6000000 -0.6439350
v 0.1385850 -0.6000000 -0.6925950
v 0.1847800 -0.6000000 -0.6734600
v 0.0765400 -0.6000000 -0.5652200
v 0.0574050 -0.6000000 -0.6114150
v 0.1060650 -0.6000000 -0.6439350
v 0.1414200 -0.6000000 -0.6085800
v 0.0000000 -0.6000000 -0.5500000
v 0.0000000 -0.6000000 -0.6000000
v 0.0574050 -0.6000000 -0.6114150
v 0.0765400 -0.6000000 -0.5652200
v 0.0000000 -0.4500000 -0.9000000
v 0.0574050 -0.4500000 -0.8885850
v 0.0574050 -0.4250000 -0.8885850
v 0.0000000 -0.4250000 -0.9000000
v 0.0574050 -0.4500000 -0.8885850
v 0.1060650 -0.4500000 -0.8560650
v 0.1060650 -0.4250000 -0.8560650
v 0.0574050 -0.4250000 -0.8885850
v 0.1060650 -0.4500000 -0.8560650
v 0.1385850 -0.4500000 -0.8074050
v 0.1385850 -0.4250000 -0.8074050
v 0.1060650 -0.4250000 -0.8560650
v 0.1385850 -0.4500000 -0.8074050
v 0.1500000 -0.4500000 -0.7500000
v 0.1500000 -0.4250000 -0.7500000
v 0.1385850 -0.4250000 -0.8074050
v 0.1500000 -0.4500000 -0.7500000
v 0.1385850 -0.4500000 -0.6925950
v 0.1385850 -0.4250000 -0.6925950
v 0.1500000 -0.4250000 -0.7500000
v 0.1385850 -0.4500000 -0.6925950
v 0.1060650 -0.4500000 -0.6439350
v 0.1060650 -0.4250000 -0.6439350
v 0.1385850 -0.4250000 -0.6925950
v 0.1060650 -0.4500000 -0.6439350
v 0.0574050 -0.4500000 -0.6114150
v 0.0574050 -0.4250000 -0.6114150
v 0.1060650 -0.4250000 -0.6439350
v 0.0574050 -0.4500000 -0.6114150
v 0.0000000 -0.4500000 -0.6000000
v 0.0000000 -0.4250000 -0.6000000
v 0.0574050 -0.4250000 -0.6114150
v 0.0000000 -0.4500000 -0.6000000
v -0.0574050 -0.4500000 -0.6114150
v -0.0574050 -0.4250000 -0.6114150
v 0.0000000 -0.4250000 -0.6000000
v -0.0574050 -0.4500000 -0.6114150
v -0.1060650 -0.4500000 -0.6439350
v -0.1060650 -0.4250000 -0.6439350
v -0.0574050 -0.4250000 -0.6114150
v -0.1060650 -0.4500000 -0.6439350
v -0.1385850 -0.4500000 -0.6925950
v -0.1385850 -0.4250000 -0.6925950
v -0.1060650 -0.4250000 -0.6439350
v -0.1385850 -0.4500000 -0.6925950
v -0.1500000 -0.4500000 -0.7500000
v -0.1500000 -0.4250000 -0.7500000
v -0.1385850 -0.4250000 -0.6925950
v -0.1500000 -0.4500000 -0.7500000
v -0.1385850 -0.4500000 -0.8074050
v -0.1385850 -0.4250000 -0.8074050
v -0.1500000 -0.4250000 -0.7500000
v -0.1385850 -0.4500000 -0.8074050
v -0.1060650 -0.4500000 -0.8560650
v -0.1060650 -0.4250000 -0.8560650
v -0.1385850 -0.4250000 -0.8074050
v -0.1060650 -0.4500000 -0.8560650
v -0.0574050 -0.4500000 -0.8885850
v -0.0574050 -0.4250000 -0.8885850
v -0.1060650 -0.4250000 -0.8560650
v -0.0574050 -0.4500000 -0.8885850
v 0.0000000 -0.4500000 -0.9000000
v 0.0000000 -0.4250000 -0.9000000
v -0.0574050 -0.4250000 -0.8885850
v 0.0000000 -0.4250000 -0.9000000
v 0.0574050 -0.4250000 -0.8885850
v 0.0574050 -0.4192925 -0.8885850
v 0.0574050 -0.4250000 -0.8885850
v 0.1060650 -0.4250000 -0.8560650
v 0.1060650 -0.4030325 -0.8560650
v 0.0574050 -0.4192925 -0.8885850
v 0.1060650 -0.4250000 -0.8560650
v 0.1385850 -0.4250000 -0.8074050
v 0.1385850 -0.3787025 -0.8074050
v 0.1060650 -0.4030325 -0.8560650
v 0.1385850 -0.4250000 -0.8074050
v 0.1500000 -0.4250000 -0.7500000
v 0.1500000 -0.3500000 -0.7500000
v 0.1385850 -0.3787025 -0.8074050
v 0.1500000 -0.4250000 -0.7500000
v 0.1385850 -0.4250000 -0.6925950
v 0.1385850 -0.3212975 -0.6925950
v 0.1500000 -0.3500000 -0.7500000
v 0.1385850 -0.4250000 -0.6925950
v 0.1060650 -0.4250000 -0.6439350
v 0.1060650 -0.2969675 -0.6439350
v 0.1385850 -0.3212975 -0.6925950
v 0.1060650 -0.4250000 -0.6439350
v 0.0574050 -0.4250000 -0.6114150
v 0.0574050 -0.2807075 -0.6114150
v 0.1060650 -0.2969675 -0.6439350
v 0.0574050 -0.4250000 -0.6114150
v 0.0000000 -0.4250000 -0.6000000
v 0.0000000 -0.2750000 -0.6000000
v 0.0574050 -0.2807075 -0.6114150
v 0.0000000 -0.4250000 -0.6000000
v -0.0574050 -0.4250000 -0.6114150
v -0.0574050 -0.2807075 -0.6114150
v 0.0000000 -0.2750000 -0.6000000
v -0.0574050 -0.4250000 -0.6114150
v -0.1060650 -0.4250000 -0.6439350
v -0.1060650 -0.2969675 -0.6439350
v -0.0574050 -0.2807075 -0.6114150
v -0.1060650 -0.4250000 -0.6439350
v -0.1385850 -0.4250000 -0.6925950
v -0.1385850 -0.3212975 -0.6925950
v -0.1060650 -0.2969675 -0.6439350
v -0.1385850 -0.4250000 -0.6925950
v -0.1500000 -0.4250000 -0.7500000
v -0.1500000 -0.3500000 -0.7500000
v -0.1385850 -0.3212975 -0.6925950
v -0.1500000 -0.4250000 -0.7500000
v -0.1385850 -0.4250000 -0.8074050
v -0.1385850 -0.3787025 -0.8074050
v -0.1500000 -0.3500000 -0.7500000
v -0.1385850 -0.4250000 -0.8074050
v -0.1060650 -0.4250000 -0.8560650
v -0.1060650 -0.4030325 -0.8560650
v -0.1385850 -0.3787025 -0.8074050
v -0.1060650 -0.4250000 -0.8560650
v -0.0574050 -0.4250000 -0.8885850
v -0.0574050 -0.4192925 -0.8885850
v -0.1060650 -0.4030325 -0.8560650
v 0.0000000 -0.4250000 -0.9000000
v -0.0574050 -0.4192925 -0.8885850
v -0.0574050 -0.4250000 -0.8885850
v 0.0765400 -0.4423900 -0.9347800
v 0.0765400 -0.4500000 -0.9347800
v 0.0000000 -0.4500000 -0.9500000
v 0.0765400 -0.4423900 -0.9347800
v 0.1414200 -0.4207100 -0.8914200
v 0.1414200 -0.4500000 -0.8914200
v 0.0765400 -0.4500000 -0.9347800
v 0.1414200 -0.4207100 -0.8914200
v 0.1847800 -0.3882700 -0.8265400
v 0.1847800 -0.4500000 -0.8265400
v 0.1414200 -0.4500000 -0.8914200
v 0.1847800 -0.3882700 -0.8265400
v 0.2000000 -0.3500000 -0.7500000
v 0.2000000 -0.4500000 -0.7500000
v 0.1847800 -0.4500000 -0.8265400
v 0.2000000 -0.3500000 -0.7500000
v 0.1847800 -0.3117300 -0.6734600
v 0.1847800 -0.4500000 -0.6734600
v 0.2000000 -0.4500000 -0.7500000
v 0.1847800 -0.3117300 -0.6734600
v 0.1414200 -0.2792900 -0.6085800
v 0.1414200 -0.4500000 -0.6085800
v 0.1847800 -0.4500000 -0.6734600
v 0.1414200 -0.2792900 -0.6085800
v 0.0765400 -0.2576100 -0.5652200
v 0.0765400 -0.4500000 -0.5652200
v 0.1414200 -0.4500000 -0.6085800
v 0.0765400 -0.2576100 -0.5652200
v 0.0000000 -0.2500000 -0.5500000
v 0.0000000 -0.4500000 -0.5500000
v 0.0765400 -0.4500000 -0.5652200
v 0.0000000 -0.2500000 -0.5500000
v -0.0765400 -0.2576100 -0.5652200
v -0.0765400 -0.4500000 -0.5652200
v 0.0000000 -0.4500000 -0.5500000
v -0.0765400 -0.2576100 -0.5652200
v -0.1414200 -0.2792900 -0.6085800
v -0.1414200 -0.4500000 -0.6085800
v -0.0765400 -0.4500000 -0.5652200
v -0.1414200 -0.2792900 -0.6085800
v -0.1847800 -0.3117300 -0.6734600
v -0.1847800 -0.4500000 -0.6734600
v -0.1414200 -0.4500000 -0.6085800
v -0.1847800 -0.3117300 -0.6734600
v -0.2000000 -0.3500000 -0.7500000
v -0.2000000 -0.4500000 -0.7500000
v -0.1847800 -0.4500000 -0.6734600
v -0.2000000 -0.3500000 -0.7500000
v -0.1847800 -0.3882700 -0.8265400
v -0.1847800 -0.4500000 -0.8265400
v -0.2000000 -0.4500000 -0.7500000
v -0.1847800 -0.3882700 -0.8265400
v -0.1414200 -0.4207100 -0.8914200
v -0.1414200 -0.4500000 -0.8914200
v -0.1847800 -0.4500000 -0.8265400
v -0.1414200 -0.4207100 -0.8914200
v -0.0765400 -0.4423900 -0.9347800
v -0.0765400 -0.4500000 -0.9347800
v -0.1414200 -0.4500000 -0.8914200
v -0.0765400 -0.4500000 -0.9347800
v -0.0765400 -0.4423900 -0.9347800
v 0.0000000 -0.4500000 -0.9500000
v -0.4000000 -0.1000000 0.1500000
v -0.4000000 -0.1000000 -0.2500000
v 0.4000000 -0.1000000 -0.2500000
v 0.4000000 -0.1000000 0.1500000
v 0.4000000 -0.6000000 0.1500000
v -0.4000000 -0.6000000 0.1500000
v -0.4000000 -0.1000000 0.1500000
v 0.4000000 -0.1000000 0.1500000
v -0.4000000 -0.5000000 -1.1500000
v 0.4000000 -0.5000000 -1.1500000
v 0.4000000 -0.5000000 -1.0500000
v -0.4000000 -0.5000000 -1.0500000
v -0.4000000 -0.1000000 -0.2500000
v -0.4000000 -0.5000000 -1.0500000
v 0.4000000 -0.5000000 -1.0500000
v 0.4000000 -0.1000000 -0.2500000
v 0.4000000 -0.6000000 -1.1500000
v 0.4000000 -0.5000000 -1.1500000
v -0.4000000 -0.5000000 -1.1500000
v -0.4000000 -0.6000000 -1.1500000
v 0.5000000 -0.0000000 0.2500000
v 0.5000000 -0.0000000 -0.2500000
v -0.5000000 -0.0000000 -0.2500000
v -0.5000000 -0.0000000 0.2500000
v 0.5000000 -0.0000000 0.2500000
v -0.5000000 -0.0000000 0.2500000
v -0.5000000 -0.6000000 0.2500000
v 0.5000000 -0.6000000 0.2500000
v -0.5000000 -0.6000000 -1.2500000
v -0.5000000 -0.5000000 -1.2500000
v 0.5000000 -0.5000000 -1.2500000
v 0.5000000 -0.6000000 -1.2500000
v -0.1000000 0.1000000 0.0000000
v -0.1114150 0.1000000 0.0574050
v -0.1114150 -0.0000000 0.0574050
v -0.1000000 -0.0000000 0.0000000
v -0.1114150 0.1000000 0.0574050
v -0.1439350 0.1000000 0.1060650
v -0.1439350 -0.0000000 0.1060650
v -0.1114150 -0.0000000 0.0574050
v -0.1439350 0.1000000 0.1060650
v -0.1925950 0.1000000 0.1385850
v -0.1925950 -0.0000000 0.1385850
v -0.1439350 -0.0000000 0.1060650
v -0.1925950 0.1000000 0.1385850
v -0.2500000 0.1000000 0.1500000
v -0.2500000 -0.0000000 0.1500000
v -0.1925950 -0.0000000 0.1385850
v -0.2500000 0.1000000 0.1500000
v -0.3074050 0.1000000 0.1385850
v -0.3074050 -0.0000000 0.1385850
v -0.2500000 -0.0000000 0.1500000
v -0.3074050 0.1000000 0.1385850
v -0.3560650 0.1000000 0.1060650
v -0.3560650 -0.0000000 0.1060650
v -0.3074050 -0.0000000 0.1385850
v -0.3560650 0.1000000 0.1060650
v -0.3885850 0.1000000 0.0574050
v -0.3885850 -0.0000000 0.0574050
v -0.3560650 -0.0000000 0.1060650
v -0.3885850 0.1000000 0.0574050
v -0.4000000 0.1000000 0.0000000
v -0.4000000 -0.0000000 0.0000000
v -0.3885850 -0.0000000 0.0574050
v -0.4000000 0.1000000 0.0000000
v -0.3885850 0.1000000 -0.0574050
v -0.3885850 -0.0000000 -0.0574050
v -0.4000000 -0.0000000 0.0000000
v -0.3885850 0.1000000 -0.0574050
v -0.3560650 0.1000000 -0.1060650
v -0.3560650 -0.0000000 -0.1060650
v -0.3885850 -0.0000000 -0.0574050
v -0.3560650 0.1000000 -0.1060650
v -0.3074050 0.1000000 -0.1385850
v -0.3074050 -0.0000000 -0.1385850
v -0.3560650 -0.0000000 -0.1060650
v -0.3074050 0.1000000 -0.1385850
v -0.2500000 0.1000000 -0.1500000
v -0.2500000 -0.0000000 -0.1500000
v -0.3074050 -0.0000000 -0.1385850
v -0.2500000 0.1000000 -0.1500000
v -0.1925950 0.1000000 -0.1385850
v -0.1925950 -0.0000000 -0.1385850
v -0.2500000 -0.0000000 -0.1500000
v -0.1925950 0.1000000 -0.1385850
v -0.1439350 0.1000000 -0.1060650
v -0.1439350 -0.0000000 -0.1060650
v -0.1925950 -0.0000000 -0.1385850
v -0.1439350 0.1000000 -0.1060650
v -0.1114150 0.1000000 -0.0574050
v -0.1114150 -0.0000000 -0.0574050
v -0.1439350 -0.0000000 -0.1060650
v -0.1114150 0.1000000 -0.0574050
v -0.1000000 0.1000000 0.0000000
v -0.1000000 -0.0000000 0.0000000
v -0.1114150 -0.0000000 -0.0574050
v -0.1114150 0.1000000 0.0574050
v -0.1000000 0.1000000 0.0000000
v -0.2500000 0.1000000 0.0000000
v -0.1439350 0.1000000 0.1060650
v -0.1114150 0.1000000 0.0574050
v -0.2500000 0.1000000 0.0000000
v -0.1925950 0.1000000 0.1385850
v -0.1439350 0.1000000 0.1060650
v -0.2500000 0.1000000 0.0000000
v -0.2500000 0.1000000 0.1500000
v -0.1925950 0.1000000 0.1385850
v -0.2500000 0.1000000 0.0000000
v -0.3074050 0.1000000 0.1385850
v -0.2500000 0.1000000 0.1500000
v -0.2500000 0.1000000 0.0000000
v -0.3560650 0.1000000 0.1060650
v -0.3074050 0.1000000 0.1385850
v -0.2500000 0.1000000 0.0000000
v -0.3885850 0.1000000 0.0574050
v -0.3560650 0.1000000 0.1060650
v -0.2500000 0.1000000 0.0000000
v -0.4000000 0.1000000 0.0000000
v -0.3885850 0.1000000 0.0574050
v -0.2500000 0.1000000 0.0000000
v -0.3885850 0.1000000 -0.0574050
v -0.4000000 0.1000000 0.0000000
v -0.2500000 0.1000000 0.0000000
v -0.3560650 0.1000000 -0.1060650
v -0.3885850 0.1000000 -0.0574050
v -0.2500000 0.1000000 0.0000000
v -0.3074050 0.1000000 -0.1385850
v -0.3560650 0.1000000 -0.1060650
v -0.2500000 0.1000000 0.0000000
v -0.2500000 0.1000000 -0.1500000
v -0.3074050 0.1000000 -0.1385850
v -0.2500000 0.1000000 0.0000000
v -0.1925950 0.1000000 -0.1385850
v -0.2500000 0.1000000 -0.1500000
v -0.2500000 0.1000000 0.0000000
v -0.1439350 0.1000000 -0.1060650
v -0.1925950 0.1000000 -0.1385850
v -0.2500000 0.1000000 0.0000000
v -0.1114150 0.1000000 -0.0574050
v -0.1439350 0.1000000 -0.1060650
v -0.2500000 0.1000000 0.0000000
v -0.1000000 0.1000000 0.0000000
v -0.1114150 0.1000000 -0.0574050
v -0.2500000 0.1000000 0.0000000
v 0.4000000 0.1000000 0.0000000
v 0.3885850 0.1000000 0.0574050
v 0.3885850 -0.0000000 0.0574050
v 0.4000000 -0.0000000 0.0000000
v 0.3885850 0.1000000 0.0574050
v 0.3560650 0.1000000 0.1060650
v 0.3560650 -0.0000000 0.1060650
v 0.3885850 -0.0000000 0.0574050
v 0.3560650 0.1000000 0.1060650
v 0.3074050 0.1000000 0.1385850
v 0.3074050 -0.0000000 0.1385850
v 0.3560650 -0.0000000 0.1060650
v 0.3074050 0.1000000 0.1385850
v 0.2500000 0.1000000 0.1500000
v 0.2500000 -0.0000000 0.1500000
v 0.3074050 -0.0000000 0.1385850
v 0.2500000 0.1000000 0.1500000
v 0.1925950 0.1000000 0.1385850
v 0.1925950 -0.0000000 0.1385850
v 0.2500000 -0.0000000 0.1500000
v 0.1925950 0.1000000 0.1385850
v 0.1439350 0.1000000 0.1060650
v 0.1439350 -0.0000000 0.1060650
v 0.1925950 -0.0000000 0.1385850
v 0.1439350 0.1000000 0.1060650
v 0.1114150 0.1000000 0.0574050
v 0.1114150 -0.0000000 0.0574050
v 0.1439350 -0.0000000 0.1060650
v 0.1114150 0.1000000 0.0574050
v 0.1000000 0.1000000 0.0000000
v 0.1000000 -0.0000000 0.0000000
v 0.1114150 -0.0000000 0.0574050
v 0.1000000 0.1000000 0.0000000
v 0.1114150 0.1000000 -0.0574050
v 0.1114150 -0.0000000 -0.0574050
v 0.1000000 -0.0000000 0.0000000
v 0.1114150 0.1000000 -0.0574050
v 0.1439350 0.1000000 -0.1060650
v 0.1439350 -0.0000000 -0.1060650
v 0.1114150 -0.0000000 -0.0574050
v 0.1439350 0.1000000 -0.1060650
v 0.1925950 0.1000000 -0.1385850
v 0.1925950 -0.0000000 -0.1385850
v 0.1439350 -0.0000000 -0.1060650
v 0.1925950 0.1000000 -0.1385850
v 0.2500000 0.1000000 -0.1500000
v 0.2500000 -0.0000000 -0.1500000
v 0.1925950 -0.0000000 -0.1385850
v 0.2500000 0.1000000 -0.1500000
v 0.3074050 0.1000000 -0.1385850
v 0.3074050 -0.0000000 -0.1385850
v 0.2500000 -0.0000000 -0.1500000
v 0.3074050 0.1000000 -0.1385850
v 0.3560650 0.1000000 -0.1060650
v 0.3560650 -0.0000000 -0.1060650
v 0.3074050 -0.0000000 -0.1385850
v 0.3560650 0.1000000 -0.1060650
v 0.3885850 0.1000000 -0.0574050
v 0.3885850 -0.0000000 -0.0574050
v 0.3560650 -0.0000000 -0.1060650
v 0.3885850 0.1000000 -0.0574050
v 0.4000000 0.1000000 0.0000000
v 0.4000000 -0.0000000 0.0000000
v 0.3885850 -0.0000000 -0.0574050
v 0.3885850 0.1000000 0.0574050
v 0.4000000 0.1000000 0.0000000
v 0.2500000 0.1000000 0.0000000
v 0.3560650 0.1000000 0.1060650
v 0.3885850 0.1000000 0.0574050
v 0.2500000 0.1000000 0.0000000
v 0.3074050 0.1000000 0.1385850
v 0.3560650 0.1000000 0.1060650
v 0.2500000 0.1000000 0.0000000
v 0.2500000 0.1000000 0.1500000
v 0.3074050 0.1000000 0.1385850
v 0.2500000 0.1000000 0.0000000
v 0.1925950 0.1000000 0.1385850
v 0.2500000 0.1000000 0.1500000
v 0.2500000 0.1000000 0.0000000
v 0.1439350 0.1000000 0.1060650
v 0.1925950 0.1000000 0.1385850
v 0.2500000 0.1000000 0.0000000
v 0.1114150 0.1000000 0.0574050
v 0.1439350 0.1000000 0.1060650
v 0.2500000 0.1000000 0.0000000
v 0.1000000 0.1000000 0.0000000
v 0.1114150 0.1000000 0.0574050
v 0.2500000 0.1000000 0.0000000
v 0.1114150 0.1000000 -0.0574050
v 0.1000000 0.1000000 0.0000000
v 0.2500000 0.1000000 0.0000000
v 0.1439350 0.1000000 -0.1060650
v 0.1114150 0.1000000 -0.0574050
v 0.2500000 0.1000000 0.0000000
v 0.1925950 0.1000000 -0.1385850
v 0.1439350 0.1000000 -0.1060650
v 0.2500000 0.1000000 0.0000000
v 0.2500000 0.1000000 -0.1500000
v 0.1925950 0.1000000 -0.1385850
v 0.2500000 0.1000000 0.0000000
v 0.3074050 0.1000000 -0.1385850
v 0.2500000 0.1000000 -0.1500000
v 0.2500000 0.1000000 0.0000000
v 0.3560650 0.1000000 -0.1060650
v 0.3074050 0.1000000 -0.1385850
v 0.2500000 0.1000000 0.0000000
v 0.3885850 0.1000000 -0.0574050
v 0.3560650 0.1000000 -0.1060650
v 0.2500000 0.1000000 0.0000000
v 0.4000000 0.1000000 0.0000000
v 0.3885850 0.1000000 -0.0574050
v 0.2500000 0.1000000 0.0000000
v -0.5000000 -0.6000000 0.2500000
v -0.4000000 -0.6000000 0.1500000
v 0.4000000 -0.6000000 0.1500000
v 0.5000000 -0.6000000 0.2500000
v -0.5000000 -0.6000000 -1.2500000
v -0.4000000 -0.6000000 -1.1500000
v -0.4000000 -0.6000000 0.1500000
v -0.5000000 -0.6000000 0.2500000
v 0.5000000 -0.6000000 -1.2500000
v 0.4000000 -0.6000000 -1.1500000
v -0.4000000 -0.6000000 -1.1500000
v -0.5000000 -0.6000000 -1.2500000
v 0.5000000 -0.6000000 0.2500000
v 0.4000000 -0.6000000 0.1500000
v 0.4000000 -0.6000000 -1.1500000
v 0.5000000 -0.6000000 -1.2500000
v 0.5000000 -0.6000000 -1.2500000
v 0.5000000 -0.5000000 -1.2500000
v 0.5000000 -0.0000000 0.2500000
v 0.5000000 -0.6000000 0.2500000
v 0.5000000 -0.5000000 -1.2500000
v 0.5000000 -0.0000000 -0.2500000
v 0.5000000 -0.0000000 0.2500000
v 0.4000000 -0.6000000 0.1500000
v 0.4000000 -0.5000000 -1.0500000
v 0.4000000 -0.5000000 -1.1500000
v 0.4000000 -0.6000000 -1.1500000
v 0.4000000 -0.1000000 0.1500000
v 0.4000000 -0.1000000 -0.2500000
v 0.4000000 -0.5000000 -1.0500000
v 0.4000000 -0.6000000 0.1500000
v -0.4000000 -0.6000000 -1.1500000
v -0.4000000 -0.5000000 -1.1500000
v -0.4000000 -0.5000000 -1.0500000
v -0.4000000 -0.6000000 0.1500000
v -0.4000000 -0.1000000 -0.2500000
v -0.4000000 -0.1000000 0.1500000
v -0.4000000 -0.6000000 0.1500000
v -0.4000000 -0.5000000 -1.0500000
v -0.5000000 -0.6000000 0.2500000
v -0.5000000 -0.0000000 0.2500000
v -0.5000000 -0.5000000 -1.2500000
v -0.5000000 -0.6000000 -1.2500000
v -0.5000000 -0.0000000 0.2500000
v -0.5000000 -0.0000000 -0.2500000
v -0.5000000 -0.5000000 -1.2500000
v -0.5000000 -0.5000000 -1.2500000
v -0.5000000 -0.0000000 -0.2500000
v 0.5000000 -0.0000000 -0.2500000
v 0.5000000 -0.5000000 -1.2500000
s off
f 1 2 3
f 1 3 4
f 5 6 7
f 5 7 8
f 9 10 11
f 9 11 12
f 13 14 15
f 13 15 16
f 17 18 19
f 17 19 20
f 21 22 23
f 21 23 24
f 25 26 27
f 25 27 28
f 29 30 31
f 29 31 32
f 33 34 35
f 33 35 36
f 37 38 39
f 37 39 40
f 41 42 43
f 41 43 44
f 45 46 47
f 45 47 48
f 49 50 51
f 49 51 52
f 53 54 55
f 53 55 56
f 57 58 59
f 57 59 60
f 61 62 63
f 61 63 64
f 65 66 67
f 65 67 68
f 69 70 71
f 69 71 72
f 73 74 75
f 73 75 76
f 77 78 79
f 77 79 80
f 81 82 83
f 81 83 84
f 85 86 87
f 85 87 88
f 89 90 91
f 89 91 92
f 93 94 95
f 93 95 96
f 97 98 99
f 97 99 100
f 101 102 103
f 101 103 104
f 105 106 107
f 105 107 108
f 109 110 111
f 109 111 112
f 113 114 115
f 113 115 116
f 117 118 119
f 117 119 120
f 121 122 123
f 121 123 124
f 125 126 127
f 125 127 128
f 129 130 131
f 129 131 132
f 133 134 135
f 133 135 136
f 137 138 139
f 137 139 140
f 141 142 143
f 141 143 144
f 145 146 147
f 145 147 148
f 149 150 151
f 149 151 152
f 153 154 155
f 153 155 156
f 157 158 159
f 157 159 160
f 161 162 163
f 161 163 164
f 165 166 167
f 165 167 168
f 169 170 171
f 169 171 172
f 173 174 175
f 173 175 176
f 177 178 179
f 177 179 180
f 181 182 183
f 181 183 184
f 185 186 187
f 185 187 188
f 189 190 191
f 189 191 192
f 193 194 195
f 196 197 198
f 196 198 199
f 200 201 202
f 200 202 203
f 204 205 206
f 204 206 207
f 208 209 210
f 211 212 213
f 211 213 214
f 215 216 217
f 215 217 218
f 219 220 221
f 219 221 222
f 223 224 225
f 223 225 226
f 227 228 229
f 227 229 230
f 231 232 233
f 231 233 234
f 235 236 237
f 235 237 238
f 239 240 241
f 239 241 242
f 243 244 245
f 243 245 246
f 247 248 249
f 247 249 250
f 251 252 253
f 251 253 254
f 255 256 257
f 258 259 260
f 258 260 261
f 262 263 264
f 262 264 265
f 266 267 268
f 266 268 269
f 270 271 272
f 273 274 275
f 273 275 276
f 277 278 279
f 277 279 280
f 281 282 283
f 281 283 284
f 285 286 287
f 285 287 288
f 289 290 291
f 289 291 292
f 293 294 295
f 293 295 296
f 297 298 299
f 297 299 300
f 301 302 303
f 301 303 304
f 305 306 307
f 305 307 308
f 309 310 311
f 309 311 312
f 313 314 315
f 313 315 316
f 317 318 319
f 317 319 320
f 321 322 323
f 321 323 324
f 325 326 327
f 325 327 328
f 329 330 331
f 329 331 332
f 333 334 335
f 333 335 336
f 337 338 339
f 337 339 340
f 341 342 343
f 341 343 344
f 345 346 347
f 345 347 348
f 349 350 351
f 349 351 352
f 353 354 355
f 353 355 356
f 357 358 359
f 357 359 360
f 361 362 363
f 361 363 364
f 365 366 367
f 365 367 368
f 369 370 371
f 369 371 372
f 373 374 375
f 373 375 376
f 377 378 379
f 377 379 380
f 381 382 383
f 381 383 384
f 385 386 387
f 385 387 388
f 389 390 391
f 389 391 392
f 393 394 395
f 393 395 396
f 397 398 399
f 397 399 400
f 401 402 403
f 401 403 404
f 405 406 407
f 405 407 408
f 409 410 411
f 409 411 412
f 413 414 415
f 413 415 416
f 417 418 419
f 417 419 420
f 421 422 423
f 421 423 424
f 425 426 427
f 425 427 428
f 429 430 431
f 429 431 432
f 433 434 435
f 433 435 436
f 437 438 439
f 437 439 440
f 441 442 443
f 441 443 444
f 445 446 447
f 445 447 448
f 449 450 451
f 449 451 452
f 453 454 455
f 453 455 456
f 457 458 459
f 457 459 460
f 461 462 463
f 461 463 464
f 465 466 467
f 465 467 468
f 469 470 471
f 469 471 472
f 473 474 475
f 473 475 476
f 477 478 479
f 477 479 480
f 481 482 483
f 481 483 484
f 485 486 487
f 485 487 488
f 489 490 491
f 489 491 492
f 493 494 495
f 493 495 496
f 497 498 499
f 497 499 500
f 501 502 503
f 501 503 504
f 505 506 507
f 505 507 508
f 509 510 511
f 509 511 512
f 513 514 515
f 513 515 516
f 517 518 519
f 517 519 520
f 521 522 523
f 521 523 524
f 525 526 527
f 525 527 528
f 529 530 531
f 529 531 532
f 533 534 535
f 533 535 536
f 537 538 539
f 537 539 540
f 541 542 543
f 541 543 544
f 545 546 547
f 545 547 548
f 549 550 551
f 549 551 552
f 553 554 555
f 553 555 556
f 557 558 559
f 557 559 560
f 561 562 563
f 561 563 564
f 565 566 567
f 565 567 568
f 569 570 571
f 569 571 572
f 573 574 575
f 573 575 576
f 577 578 579
f 577 579 580
f 581 582 583
f 581 583 584
f 585 586 587
f 585 587 588
f 589 590 591
f 589 591 592
f 593 594 595
f 593 595 596
f 597 598 599
f 597 599 600
f 601 602 603
f 601 603 604
f 605 606 607
f 605 607 608
f 609 610 611
f 609 611 612
f 613 614 615
f 613 615 616
f 617 618 619
f 617 619 620
f 621 622 623
f 621 623 624
f 625 626 627
f 625 627 628
f 629 630 631
f 629 631 632
f 633 634 635
f 633 635 636
f 637 638 639
f 640 641 642
f 640 642 643
f 644 645 646
f 644 646 647
f 648 649 650
f 648 650 651
f 652 653 654
f 652 654 655
f 656 657 658
f 656 658 659
f 660 661 662
f 660 662 663
f 664 665 666
f 664 666 667
f 668 669 670
f 668 670 671
f 672 673 674
f 672 674 675
f 676 677 678
f 676 678 679
f 680 681 682
f 680 682 683
f 684 685 686
f 684 686 687
f 688 689 690
f 688 690 691
f 692 693 694
f 692 694 695
f 696 697 698
f 699 700 701
f 702 703 704
f 702 704 705
f 706 707 708
f 706 708 709
f 710 711 712
f 710 712 713
f 714 715 716
f 714 716 717
f 718 719 720
f 718 720 721
f 722 723 724
f 722 724 725
f 726 727 728
f 726 728 729
f 730 731 732
f 730 732 733
f 734 735 736
f 734 736 737
f 738 739 740
f 738 740 741
f 742 743 744
f 742 744 745
f 746 747 748
f 746 748 749
f 750 751 752
f 750 752 753
f 754 755 756
f 754 756 757
f 758 759 760
f 761 762 763
f 761 763 764
f 765 766 767
f 765 767 768
f 769 770 771
f 769 771 772
f 773 774 775
f 773 775 776
f 777 778 779
f 777 779 780
f 781 782 783
f 781 783 784
f 785 786 787
f 785 787 788
f 789 790 791
f 789 791 792
f 793 794 795
f 793 795 796
f 797 798 799
f 797 799 800
f 801 802 803
f 801 803 804
f 805 806 807
f 805 807 808
f 809 810 811
f 809 811 812
f 813 814 815
f 813 815 816
f 817 818 819
f 817 819 820
f 821 822 823
f 821 823 824
f 825 826 827
f 825 827 828
f 829 830 831
f 829 831 832
f 833 834 835
f 833 835 836
f 837 838 839
f 837 839 840
f 841 842 843
f 841 843 844
f 845 846 847
f 845 847 848
f 849 850 851
f 849 851 852
f 853 854 855
f 853 855 856
f 857 858 859
f 860 861 862
f 863 864 865
f 866 867 868
f 869 870 871
f 872 873 874
f 875 876 877
f 878 879 880
f 881 882 883
f 884 885 886
f 887 888 889
f 890 891 892
f 893 894 895
f 896 897 898
f 899 900 901
f 902 903 904
f 905 906 907
f 905 907 908
f 909 910 911
f 909 911 912
f 913 914 915
f 913 915 916
f 917 918 919
f 917 919 920
f 921 922 923
f 921 923 924
f 925 926 927
f 925 927 928
f 929 930 931
f 929 931 932
f 933 934 935
f 933 935 936
f 937 938 939
f 937 939 940
f 941 942 943
f 941 943 944
f 945 946 947
f 945 947 948
f 949 950 951
f 949 951 952
f 953 954 955
f 953 955 956
f 957 958 959
f 957 959 960
f 961 962 963
f 961 963 964
f 965 966 967
f 965 967 968
f 969 970 971
f 972 973 974
f 975 976 977
f 978 979 980
f 981 982 983
f 984 985 986
f 987 988 989
f 990 991 992
f 993 994 995
f 996 997 998
f 999 1000 1001
f 1002 1003 1004
f 1005 1006 1007
f 1008 1009 1010
f 1011 1012 1013
f 1014 1015 1016
f 1017 1018 1019
f 1017 1019 1020
f 1021 1022 1023
f 1021 1023 1024
f 1025 1026 1027
f 1025 1027 1028
f 1029 1030 1031
f 1029 1031 1032
f 1033 1034 1035
f 1033 1035 1036
f 1037 1038 1039
f 1040 1041 1042
f 1040 1042 1043
f 1044 1045 1046
f 1044 1046 1047
f 1048 1049 1050
f 1048 1050 1051
f 1052 1053 1054
f 1052 1054 1055
f 1056 1057 1058
f 1056 1058 1059
f 1060 1061 1062
f 1063 1064 1065
f 1063 1065 1066
