# Baked from official LDraw part 33009-f1.dat
o ldraw_33009-f1
v 0.1250000 -0.6750000 -0.0250000
v 0.1250000 -0.0000000 -0.0250000
v 0.1250000 -0.0000000 0.0000000
v 0.1250000 -0.6750000 0.0000000
v 0.1250000 -0.6750000 -0.0250000
v 0.0000000 -0.6750000 0.0000000
v 0.0000000 -0.6750000 -0.0500000
v 0.0500000 -0.6750000 -0.0500000
v 0.1250000 -0.6750000 0.0000000
v 0.0000000 -0.6750000 0.0000000
v 0.1250000 -0.6750000 -0.0250000
v 0.0000000 -0.0000000 0.0000000
v 0.0000000 -0.6250000 0.0000000
v 0.0250000 -0.6250000 0.0000000
v 0.0250000 -0.0000000 0.0000000
v 0.0750000 -0.0000000 0.0000000
v 0.0750000 -0.6500000 0.0000000
v 0.1250000 -0.6750000 0.0000000
v 0.1250000 -0.0000000 0.0000000
v 0.0000000 -0.6500000 0.0000000
v 0.0000000 -0.6750000 0.0000000
v 0.1250000 -0.6750000 0.0000000
v 0.0750000 -0.6500000 0.0000000
v 0.0500000 -0.3750000 -0.0500000
v 0.0500000 -0.3906250 -0.0750000
v 0.0000000 -0.3906250 -0.0750000
v 0.0000000 -0.3750000 -0.0500000
v 0.0500000 -0.3906250 -0.0750000
v 0.0500000 -0.4093750 -0.0750000
v 0.0000000 -0.4093750 -0.0750000
v 0.0000000 -0.3906250 -0.0750000
v 0.0500000 -0.4093750 -0.0750000
v 0.0500000 -0.4250000 -0.0500000
v 0.0000000 -0.4250000 -0.0500000
v 0.0000000 -0.4093750 -0.0750000
v 0.1250000 -0.3750000 -0.0250000
v 0.1250000 -0.3906250 -0.0500000
v 0.0500000 -0.3906250 -0.0750000
v 0.0500000 -0.3750000 -0.0500000
v 0.1250000 -0.3906250 -0.0500000
v 0.1250000 -0.4093750 -0.0500000
v 0.0500000 -0.4093750 -0.0750000
v 0.0500000 -0.3906250 -0.0750000
v 0.1250000 -0.4093750 -0.0500000
v 0.1250000 -0.4250000 -0.0250000
v 0.0500000 -0.4250000 -0.0500000
v 0.0500000 -0.4093750 -0.0750000
v 0.1250000 -0.3750000 -0.0250000
v 0.1250000 -0.4250000 -0.0250000
v 0.1250000 -0.4093750 -0.0500000
v 0.1250000 -0.3906250 -0.0500000
v 0.0750000 -0.6500000 0.0000000
v 0.0500000 -0.6500000 0.0250000
v 0.0000000 -0.6500000 0.0250000
v 0.0000000 -0.6500000 0.0000000
v 0.0750000 -0.0000000 0.0000000
v 0.0500000 -0.0000000 0.0250000
v 0.0500000 -0.6500000 0.0250000
v 0.0750000 -0.6500000 0.0000000
v 0.0000000 -0.6250000 0.0250000
v 0.0000000 -0.6500000 0.0250000
v 0.0500000 -0.6500000 0.0250000
v 0.0250000 -0.6250000 0.0250000
v 0.0250000 -0.6250000 0.0250000
v 0.0500000 -0.6500000 0.0250000
v 0.0500000 -0.0000000 0.0250000
v 0.0250000 -0.0000000 0.0250000
v 0.0000000 -0.6250000 0.0000000
v 0.0000000 -0.6250000 0.0250000
v 0.0250000 -0.6250000 0.0250000
v 0.0250000 -0.6250000 0.0000000
v 0.0250000 -0.6250000 0.0000000
v 0.0250000 -0.6250000 0.0250000
v 0.0250000 -0.0000000 0.0250000
v 0.0250000 -0.0000000 0.0000000
v -0.1250000 -0.6750000 0.0000000
v -0.1250000 -0.0000000 0.0000000
v -0.1250000 -0.0000000 -0.0250000
v -0.1250000 -0.6750000 -0.0250000
v -0.0500000 -0.6750000 -0.0500000
v 0.0000000 -0.6750000 -0.0500000
v 0.0000000 -0.6750000 0.0000000
v -0.1250000 -0.6750000 -0.0250000
v -0.1250000 -0.6750000 -0.0250000
v 0.0000000 -0.6750000 0.0000000
v -0.1250000 -0.6750000 0.0000000
v -0.0250000 -0.0000000 0.0000000
v -0.0250000 -0.6250000 0.0000000
v 0.0000000 -0.6250000 0.0000000
v 0.0000000 -0.0000000 0.0000000
v -0.1250000 -0.0000000 0.0000000
v -0.1250000 -0.6750000 0.0000000
v -0.0750000 -0.6500000 0.0000000
v -0.0750000 -0.0000000 0.0000000
v -0.0750000 -0.6500000 0.0000000
v -0.1250000 -0.6750000 0.0000000
v 0.0000000 -0.6750000 0.0000000
v 0.0000000 -0.6500000 0.0000000
v 0.0000000 -0.3750000 -0.0500000
v 0.0000000 -0.3906250 -0.0750000
v -0.0500000 -0.3906250 -0.0750000
v -0.0500000 -0.3750000 -0.0500000
v 0.0000000 -0.3906250 -0.0750000
v 0.0000000 -0.4093750 -0.0750000
v -0.0500000 -0.4093750 -0.0750000
v -0.0500000 -0.3906250 -0.0750000
v 0.0000000 -0.4093750 -0.0750000
v 0.0000000 -0.4250000 -0.0500000
v -0.0500000 -0.4250000 -0.0500000
v -0.0500000 -0.4093750 -0.0750000
v -0.0500000 -0.3750000 -0.0500000
v -0.0500000 -0.3906250 -0.0750000
v -0.1250000 -0.3906250 -0.0500000
v -0.1250000 -0.3750000 -0.0250000
v -0.0500000 -0.3906250 -0.0750000
v -0.0500000 -0.4093750 -0.0750000
v -0.1250000 -0.4093750 -0.0500000
v -0.1250000 -0.3906250 -0.0500000
v -0.0500000 -0.4093750 -0.0750000
v -0.0500000 -0.4250000 -0.0500000
v -0.1250000 -0.4250000 -0.0250000
v -0.1250000 -0.4093750 -0.0500000
v -0.1250000 -0.3906250 -0.0500000
v -0.1250000 -0.4093750 -0.0500000
v -0.1250000 -0.4250000 -0.0250000
v -0.1250000 -0.3750000 -0.0250000
v 0.0000000 -0.6500000 0.0000000
v 0.0000000 -0.6500000 0.0250000
v -0.0500000 -0.6500000 0.0250000
v -0.0750000 -0.6500000 0.0000000
v -0.0750000 -0.6500000 0.0000000
v -0.0500000 -0.6500000 0.0250000
v -0.0500000 -0.0000000 0.0250000
v -0.0750000 -0.0000000 0.0000000
v -0.0250000 -0.6250000 0.0250000
v -0.0500000 -0.6500000 0.0250000
v 0.0000000 -0.6500000 0.0250000
v 0.0000000 -0.6250000 0.0250000
v -0.0250000 -0.0000000 0.0250000
v -0.0500000 -0.0000000 0.0250000
v -0.0500000 -0.6500000 0.0250000
v -0.0250000 -0.6250000 0.0250000
v -0.0250000 -0.6250000 0.0000000
v -0.0250000 -0.6250000 0.0250000
v 0.0000000 -0.6250000 0.0250000
v 0.0000000 -0.6250000 0.0000000
v -0.0250000 -0.0000000 0.0000000
v -0.0250000 -0.0000000 0.0250000
v -0.0250000 -0.6250000 0.0250000
v -0.0250000 -0.6250000 0.0000000
v 0.1250000 0.6750000 0.0000000
v 0.1250000 -0.0000000 0.0000000
v 0.1250000 -0.0000000 -0.0250000
v 0.1250000 0.6750000 -0.0250000
v 0.0500000 0.6750000 -0.0500000
v 0.0000000 0.6750000 -0.0500000
v 0.0000000 0.6750000 0.0000000
v 0.1250000 0.6750000 -0.0250000
v 0.1250000 0.6750000 -0.0250000
v 0.0000000 0.6750000 0.0000000
v 0.1250000 0.6750000 0.0000000
v 0.0250000 -0.0000000 0.0000000
v 0.0250000 0.6250000 0.0000000
v 0.0000000 0.6250000 0.0000000
v 0.0000000 -0.0000000 0.0000000
v 0.1250000 -0.0000000 0.0000000
v 0.1250000 0.6750000 0.0000000
v 0.0750000 0.6500000 0.0000000
v 0.0750000 -0.0000000 0.0000000
v 0.0750000 0.6500000 0.0000000
v 0.1250000 0.6750000 0.0000000
v 0.0000000 0.6750000 0.0000000
v 0.0000000 0.6500000 0.0000000
v 0.0000000 0.3750000 -0.0500000
v 0.0000000 0.3906250 -0.0750000
v 0.0500000 0.3906250 -0.0750000
v 0.0500000 0.3750000 -0.0500000
v 0.0000000 0.3906250 -0.0750000
v 0.0000000 0.4093750 -0.0750000
v 0.0500000 0.4093750 -0.0750000
v 0.0500000 0.3906250 -0.0750000
v 0.0000000 0.4093750 -0.0750000
v 0.0000000 0.4250000 -0.0500000
v 0.0500000 0.4250000 -0.0500000
v 0.0500000 0.4093750 -0.0750000
v 0.0500000 0.3750000 -0.0500000
v 0.0500000 0.3906250 -0.0750000
v 0.1250000 0.3906250 -0.0500000
v 0.1250000 0.3750000 -0.0250000
v 0.0500000 0.3906250 -0.0750000
v 0.0500000 0.4093750 -0.0750000
v 0.1250000 0.4093750 -0.0500000
v 0.1250000 0.3906250 -0.0500000
v 0.0500000 0.4093750 -0.0750000
v 0.0500000 0.4250000 -0.0500000
v 0.1250000 0.4250000 -0.0250000
v 0.1250000 0.4093750 -0.0500000
v 0.1250000 0.3906250 -0.0500000
v 0.1250000 0.4093750 -0.0500000
v 0.1250000 0.4250000 -0.0250000
v 0.1250000 0.3750000 -0.0250000
v 0.0000000 0.6500000 0.0000000
v 0.0000000 0.6500000 0.0250000
v 0.0500000 0.6500000 0.0250000
v 0.0750000 0.6500000 0.0000000
v 0.0750000 0.6500000 0.0000000
v 0.0500000 0.6500000 0.0250000
v 0.0500000 -0.0000000 0.0250000
v 0.0750000 -0.0000000 0.0000000
v 0.0250000 0.6250000 0.0250000
v 0.0500000 0.6500000 0.0250000
v 0.0000000 0.6500000 0.0250000
v 0.0000000 0.6250000 0.0250000
v 0.0250000 -0.0000000 0.0250000
v 0.0500000 -0.0000000 0.0250000
v 0.0500000 0.6500000 0.0250000
v 0.0250000 0.6250000 0.0250000
v 0.0250000 0.6250000 0.0000000
v 0.0250000 0.6250000 0.0250000
v 0.0000000 0.6250000 0.0250000
v 0.0000000 0.6250000 0.0000000
v 0.0250000 -0.0000000 0.0000000
v 0.0250000 -0.0000000 0.0250000
v 0.0250000 0.6250000 0.0250000
v 0.0250000 0.6250000 0.0000000
v -0.1250000 0.6750000 -0.0250000
v -0.1250000 -0.0000000 -0.0250000
v -0.1250000 -0.0000000 0.0000000
v -0.1250000 0.6750000 0.0000000
v -0.1250000 0.6750000 -0.0250000
v 0.0000000 0.6750000 0.0000000
v 0.0000000 0.6750000 -0.0500000
v -0.0500000 0.6750000 -0.0500000
v -0.1250000 0.6750000 0.0000000
v 0.0000000 0.6750000 0.0000000
v -0.1250000 0.6750000 -0.0250000
v 0.0000000 -0.0000000 0.0000000
v 0.0000000 0.6250000 0.0000000
v -0.0250000 0.6250000 0.0000000
v -0.0250000 -0.0000000 0.0000000
v -0.0750000 -0.0000000 0.0000000
v -0.0750000 0.6500000 0.0000000
v -0.1250000 0.6750000 0.0000000
v -0.1250000 -0.0000000 0.0000000
v 0.0000000 0.6500000 0.0000000
v 0.0000000 0.6750000 0.0000000
v -0.1250000 0.6750000 0.0000000
v -0.0750000 0.6500000 0.0000000
v -0.0500000 0.3750000 -0.0500000
v -0.0500000 0.3906250 -0.0750000
v 0.0000000 0.3906250 -0.0750000
v 0.0000000 0.3750000 -0.0500000
v -0.0500000 0.3906250 -0.0750000
v -0.0500000 0.4093750 -0.0750000
v 0.0000000 0.4093750 -0.0750000
v 0.0000000 0.3906250 -0.0750000
v -0.0500000 0.4093750 -0.0750000
v -0.0500000 0.4250000 -0.0500000
v 0.0000000 0.4250000 -0.0500000
v 0.0000000 0.4093750 -0.0750000
v -0.1250000 0.3750000 -0.0250000
v -0.1250000 0.3906250 -0.0500000
v -0.0500000 0.3906250 -0.0750000
v -0.0500000 0.3750000 -0.0500000
v -0.1250000 0.3906250 -0.0500000
v -0.1250000 0.4093750 -0.0500000
v -0.0500000 0.4093750 -0.0750000
v -0.0500000 0.3906250 -0.0750000
v -0.1250000 0.4093750 -0.0500000
v -0.1250000 0.4250000 -0.0250000
v -0.0500000 0.4250000 -0.0500000
v -0.0500000 0.4093750 -0.0750000
v -0.1250000 0.3750000 -0.0250000
v -0.1250000 0.4250000 -0.0250000
v -0.1250000 0.4093750 -0.0500000
v -0.1250000 0.3906250 -0.0500000
v -0.0750000 0.6500000 0.0000000
v -0.0500000 0.6500000 0.0250000
v 0.0000000 0.6500000 0.0250000
v 0.0000000 0.6500000 0.0000000
v -0.0750000 -0.0000000 0.0000000
v -0.0500000 -0.0000000 0.0250000
v -0.0500000 0.6500000 0.0250000
v -0.0750000 0.6500000 0.0000000
v 0.0000000 0.6250000 0.0250000
v 0.0000000 0.6500000 0.0250000
v -0.0500000 0.6500000 0.0250000
v -0.0250000 0.6250000 0.0250000
v -0.0250000 0.6250000 0.0250000
v -0.0500000 0.6500000 0.0250000
v -0.0500000 -0.0000000 0.0250000
v -0.0250000 -0.0000000 0.0250000
v 0.0000000 0.6250000 0.0000000
v 0.0000000 0.6250000 0.0250000
v -0.0250000 0.6250000 0.0250000
v -0.0250000 0.6250000 0.0000000
v -0.0250000 0.6250000 0.0000000
v -0.0250000 0.6250000 0.0250000
v -0.0250000 -0.0000000 0.0250000
v -0.0250000 -0.0000000 0.0000000
v -0.0500000 0.6750000 -0.0500000
v 0.0500000 0.6750000 -0.0500000
v 0.0500000 0.4250000 -0.0500000
v -0.0500000 0.4250000 -0.0500000
v -0.1250000 0.4250000 -0.0250000
v -0.1250000 0.6750000 -0.0250000
v -0.0500000 0.6750000 -0.0500000
v -0.0500000 0.4250000 -0.0500000
v 0.0500000 0.4250000 -0.0500000
v 0.0500000 0.6750000 -0.0500000
v 0.1250000 0.6750000 -0.0250000
v 0.1250000 0.4250000 -0.0250000
v -0.0500000 0.3750000 -0.0500000
v 0.0500000 0.3750000 -0.0500000
v 0.0500000 -0.3750000 -0.0500000
v -0.0500000 -0.3750000 -0.0500000
v -0.0500000 0.3750000 -0.0500000
v -0.0500000 -0.3750000 -0.0500000
v -0.1250000 -0.3750000 -0.0250000
v -0.1250000 0.3750000 -0.0250000
v 0.1250000 0.3750000 -0.0250000
v 0.1250000 -0.3750000 -0.0250000
v 0.0500000 -0.3750000 -0.0500000
v 0.0500000 0.3750000 -0.0500000
v -0.0500000 -0.4250000 -0.0500000
v 0.0500000 -0.4250000 -0.0500000
v 0.0500000 -0.6750000 -0.0500000
v -0.0500000 -0.6750000 -0.0500000
v -0.0500000 -0.4250000 -0.0500000
v -0.0500000 -0.6750000 -0.0500000
v -0.1250000 -0.6750000 -0.0250000
v -0.1250000 -0.4250000 -0.0250000
v 0.1250000 -0.4250000 -0.0250000
v 0.1250000 -0.6750000 -0.0250000
v 0.0500000 -0.6750000 -0.0500000
v 0.0500000 -0.4250000 -0.0500000
v 0.1000000 -0.6750000 0.0250000
v 0.1000000 -0.6750000 0.8750000
v 0.1000000 0.6750000 0.8750000
v 0.1000000 0.6750000 0.0250000
v 0.1000000 -0.6750000 0.0250000
v 0.1750000 -0.6750000 0.0250000
v 0.1750000 -0.6750000 0.8750000
v 0.1000000 -0.6750000 0.8750000
v 0.1000000 0.6750000 0.0250000
v 0.1750000 0.6750000 0.0250000
v 0.1750000 -0.6750000 0.0250000
v 0.1000000 -0.6750000 0.0250000
v 0.1000000 0.6750000 0.8750000
v 0.1750000 0.6750000 0.8750000
v 0.1750000 0.6750000 0.0250000
v 0.1000000 0.6750000 0.0250000
v 0.1000000 -0.6750000 0.8750000
v 0.1750000 -0.6750000 0.8750000
v 0.1750000 0.6750000 0.8750000
v 0.1000000 0.6750000 0.8750000
v 0.0500000 0.6500000 0.8500000
v 0.0500000 -0.6500000 0.8500000
v 0.1000000 -0.6500000 0.8500000
v 0.1000000 0.6500000 0.8500000
v 0.0500000 -0.6500000 0.8500000
v 0.0500000 -0.6500000 0.0500000
v 0.1000000 -0.6500000 0.0500000
v 0.1000000 -0.6500000 0.8500000
v 0.1000000 0.6500000 0.8500000
v 0.1000000 0.6500000 0.0500000
v 0.0500000 0.6500000 0.0500000
v 0.0500000 0.6500000 0.8500000
v 0.0500000 0.6000000 0.8000000
v 0.0500000 -0.6000000 0.8000000
v 0.0500000 -0.6500000 0.8500000
v 0.0500000 0.6500000 0.8500000
v 0.1000000 0.5500000 0.7000000
v 0.0500000 0.5500000 0.1000000
v 0.0500000 0.5500000 0.0500000
v 0.1000000 0.5500000 0.0500000
v 0.1000000 -0.5500000 0.0500000
v 0.0500000 -0.5500000 0.0500000
v 0.0500000 -0.5500000 0.1000000
v 0.1000000 -0.5500000 0.7000000
v 0.0500000 0.5500000 0.1000000
v 0.0500000 0.6000000 0.1000000
v 0.0500000 0.6500000 0.0500000
v 0.0500000 0.5500000 0.0500000
v 0.0500000 0.6000000 0.8000000
v 0.0500000 0.6500000 0.8500000
v 0.0500000 0.6500000 0.0500000
v 0.0500000 0.6000000 0.1000000
v 0.0500000 -0.6000000 0.1000000
v 0.0500000 -0.6500000 0.0500000
v 0.0500000 -0.6500000 0.8500000
v 0.0500000 -0.6000000 0.8000000
v 0.0500000 -0.5500000 0.0500000
v 0.0500000 -0.6500000 0.0500000
v 0.0500000 -0.6000000 0.1000000
v 0.0500000 -0.5500000 0.1000000
v 0.0500000 0.5500000 0.0500000
v 0.0500000 0.6500000 0.0500000
v 0.1000000 0.6500000 0.0500000
v 0.1000000 0.5500000 0.0500000
v 0.1000000 -0.5500000 0.0500000
v 0.1000000 -0.6500000 0.0500000
v 0.0500000 -0.6500000 0.0500000
v 0.0500000 -0.5500000 0.0500000
v 0.1000000 0.5500000 0.7000000
v -0.0250000 0.1000000 0.7000000
v -0.0250000 0.5500000 0.7000000
v 0.1000000 0.5500000 0.7000000
v 0.1000000 -0.5500000 0.7000000
v -0.0250000 -0.1000000 0.7000000
v -0.0250000 0.1000000 0.7000000
v -0.0250000 -0.5500000 0.7000000
v -0.0250000 -0.1000000 0.7000000
v 0.1000000 -0.5500000 0.7000000
v 0.1000000 -0.5500000 0.0750000
v 0.1000000 0.5500000 0.0750000
v 0.0952163 0.5500000 0.0740487
v 0.0952163 -0.5500000 0.0740487
v 0.0952163 -0.5500000 0.0740487
v 0.0952163 0.5500000 0.0740487
v 0.0911613 0.5500000 0.0713387
v 0.0911613 -0.5500000 0.0713387
v 0.0911613 -0.5500000 0.0713387
v 0.0911613 0.5500000 0.0713387
v 0.0884513 0.5500000 0.0672838
v 0.0884513 -0.5500000 0.0672838
v 0.0884513 -0.5500000 0.0672838
v 0.0884513 0.5500000 0.0672838
v 0.0875000 0.5500000 0.0625000
v 0.0875000 -0.5500000 0.0625000
v 0.0875000 -0.5500000 0.0625000
v 0.0875000 0.5500000 0.0625000
v 0.0884513 0.5500000 0.0577163
v 0.0884513 -0.5500000 0.0577163
v 0.0884513 -0.5500000 0.0577163
v 0.0884513 0.5500000 0.0577163
v 0.0911613 0.5500000 0.0536613
v 0.0911613 -0.5500000 0.0536613
v 0.0911613 -0.5500000 0.0536613
v 0.0911613 0.5500000 0.0536613
v 0.0952163 0.5500000 0.0509513
v 0.0952163 -0.5500000 0.0509513
v 0.0952163 -0.5500000 0.0509513
v 0.0952163 0.5500000 0.0509513
v 0.1000000 0.5500000 0.0500000
v 0.1000000 -0.5500000 0.0500000
v -0.0250000 0.1000000 0.8000000
v -0.0250000 0.5500000 0.8000000
v -0.0250000 0.5500000 0.7000000
v -0.0250000 0.1000000 0.7000000
v -0.0250000 -0.5500000 0.8000000
v -0.0250000 -0.1000000 0.8000000
v -0.0250000 -0.1000000 0.7000000
v -0.0250000 -0.5500000 0.7000000
v -0.0250000 -0.5500000 0.8000000
v -0.0250000 -0.6000000 0.8000000
v 0.0500000 -0.6000000 0.8000000
v -0.0250000 0.5500000 0.8000000
v -0.0250000 -0.5500000 0.8000000
v 0.0500000 -0.6000000 0.8000000
v 0.0500000 0.6000000 0.8000000
v 0.0500000 0.6000000 0.8000000
v -0.0250000 0.6000000 0.8000000
v -0.0250000 0.5500000 0.8000000
v -0.0750000 0.5500000 0.1000000
v -0.0750000 0.5500000 0.7500000
v -0.0750000 0.6000000 0.7500000
v -0.0750000 0.6000000 0.1000000
v 0.0500000 0.6000000 0.1000000
v 0.0500000 0.5500000 0.1000000
v -0.0750000 0.5500000 0.1000000
v -0.0750000 0.6000000 0.1000000
v -0.0750000 -0.6000000 0.1000000
v -0.0750000 -0.6000000 0.7500000
v -0.0750000 -0.5500000 0.7500000
v -0.0750000 -0.5500000 0.1000000
v 0.0500000 -0.5500000 0.1000000
v 0.0500000 -0.6000000 0.1000000
v -0.0750000 -0.6000000 0.1000000
v -0.0750000 -0.5500000 0.1000000
v -0.0250000 0.6000000 0.8000000
v -0.0750000 0.6000000 0.7500000
v -0.0750000 0.5500000 0.7500000
v -0.0250000 0.5500000 0.8000000
v -0.0250000 -0.5500000 0.8000000
v -0.0750000 -0.5500000 0.7500000
v -0.0750000 -0.6000000 0.7500000
v -0.0250000 -0.6000000 0.8000000
v 0.1000000 0.5500000 0.7000000
v -0.0250000 0.5500000 0.7000000
v -0.0750000 0.5500000 0.1000000
v 0.0500000 0.5500000 0.1000000
v -0.0250000 0.5500000 0.8000000
v -0.0750000 0.5500000 0.7500000
v -0.0750000 0.5500000 0.1000000
v -0.0250000 0.5500000 0.7000000
v -0.0250000 -0.5500000 0.7000000
v 0.1000000 -0.5500000 0.7000000
v 0.0500000 -0.5500000 0.1000000
v -0.0750000 -0.5500000 0.1000000
v -0.0250000 -0.5500000 0.7000000
v -0.0750000 -0.5500000 0.1000000
v -0.0750000 -0.5500000 0.7500000
v -0.0250000 -0.5500000 0.8000000
v 0.0500000 0.6000000 0.1000000
v -0.0750000 0.6000000 0.1000000
v -0.0250000 0.6000000 0.8000000
v 0.0500000 0.6000000 0.8000000
v 0.0500000 -0.6000000 0.8000000
v -0.0250000 -0.6000000 0.8000000
v -0.0750000 -0.6000000 0.1000000
v 0.0500000 -0.6000000 0.1000000
v -0.0750000 0.6000000 0.1000000
v -0.0750000 0.6000000 0.7500000
v -0.0250000 0.6000000 0.8000000
v -0.0250000 -0.6000000 0.8000000
v -0.0750000 -0.6000000 0.7500000
v -0.0750000 -0.6000000 0.1000000
v -0.0250000 0.1000000 0.7000000
v -0.0250000 -0.1000000 0.7000000
v -0.0345675 -0.0923900 0.7000000
v -0.0345675 0.0923900 0.7000000
v -0.0345675 0.0923900 0.7000000
v -0.0345675 -0.0923900 0.7000000
v -0.0426775 -0.0707100 0.7000000
v -0.0426775 0.0707100 0.7000000
v -0.0426775 0.0707100 0.7000000
v -0.0426775 -0.0707100 0.7000000
v -0.0480975 -0.0382700 0.7000000
v -0.0480975 0.0382700 0.7000000
v -0.0480975 0.0382700 0.7000000
v -0.0480975 -0.0382700 0.7000000
v -0.0500000 -0.0000000 0.7000000
v -0.0250000 0.1000000 0.8000000
v -0.0250000 0.1000000 0.7000000
v -0.0345675 0.0923900 0.7000000
v -0.0345675 0.0923900 0.8000000
v -0.0345675 0.0923900 0.8000000
v -0.0345675 0.0923900 0.7000000
v -0.0426775 0.0707100 0.7000000
v -0.0426775 0.0707100 0.8000000
v -0.0426775 0.0707100 0.8000000
v -0.0426775 0.0707100 0.7000000
v -0.0480975 0.0382700 0.7000000
v -0.0480975 0.0382700 0.8000000
v -0.0480975 0.0382700 0.8000000
v -0.0480975 0.0382700 0.7000000
v -0.0500000 -0.0000000 0.7000000
v -0.0500000 -0.0000000 0.8000000
v -0.0500000 -0.0000000 0.8000000
v -0.0500000 -0.0000000 0.7000000
v -0.0480975 -0.0382700 0.7000000
v -0.0480975 -0.0382700 0.8000000
v -0.0480975 -0.0382700 0.8000000
v -0.0480975 -0.0382700 0.7000000
v -0.0426775 -0.0707100 0.7000000
v -0.0426775 -0.0707100 0.8000000
v -0.0426775 -0.0707100 0.8000000
v -0.0426775 -0.0707100 0.7000000
v -0.0345675 -0.0923900 0.7000000
v -0.0345675 -0.0923900 0.8000000
v -0.0345675 -0.0923900 0.8000000
v -0.0345675 -0.0923900 0.7000000
v -0.0250000 -0.1000000 0.7000000
v -0.0250000 -0.1000000 0.8000000
v -0.0345675 0.0923900 0.8000000
v -0.0250000 0.0923900 0.8047838
v -0.0250000 0.1000000 0.8000000
v -0.0345675 0.0923900 0.8000000
v -0.0359825 0.0783600 0.8054913
v -0.0250000 0.0923900 0.8047838
v -0.0426775 0.0707100 0.8000000
v -0.0359825 0.0783600 0.8054913
v -0.0345675 0.0923900 0.8000000
v -0.0426775 0.0707100 0.8000000
v -0.0445900 0.0439300 0.8054913
v -0.0359825 0.0783600 0.8054913
v -0.0480975 0.0382700 0.8000000
v -0.0445900 0.0439300 0.8054913
v -0.0426775 0.0707100 0.8000000
v -0.0480975 0.0382700 0.8000000
v -0.0480975 -0.0000000 0.8047838
v -0.0445900 0.0439300 0.8054913
v -0.0500000 -0.0000000 0.8000000
v -0.0480975 -0.0000000 0.8047838
v -0.0480975 0.0382700 0.8000000
v -0.0359825 0.0783600 0.8054913
v -0.0250000 0.0707100 0.8088388
v -0.0250000 0.0923900 0.8047838
v -0.0359825 0.0783600 0.8054913
v -0.0359825 0.0439300 0.8097950
v -0.0250000 0.0707100 0.8088388
v -0.0445900 0.0439300 0.8054913
v -0.0359825 0.0439300 0.8097950
v -0.0359825 0.0783600 0.8054913
v -0.0445900 0.0439300 0.8054913
v -0.0426775 -0.0000000 0.8088388
v -0.0359825 0.0439300 0.8097950
v -0.0480975 -0.0000000 0.8047838
v -0.0426775 -0.0000000 0.8088388
v -0.0445900 0.0439300 0.8054913
v -0.0359825 0.0439300 0.8097950
v -0.0250000 0.0382700 0.8115488
v -0.0250000 0.0707100 0.8088388
v -0.0359825 0.0439300 0.8097950
v -0.0345675 -0.0000000 0.8115488
v -0.0250000 0.0382700 0.8115488
v -0.0426775 -0.0000000 0.8088388
v -0.0345675 -0.0000000 0.8115488
v -0.0359825 0.0439300 0.8097950
v -0.0345675 -0.0000000 0.8115488
v -0.0250000 -0.0000000 0.8125000
v -0.0250000 0.0382700 0.8115488
v -0.0250000 0.1000000 0.8000000
v -0.0250000 0.0923900 0.8047838
v -0.0154325 0.0923900 0.8000000
v -0.0250000 0.0923900 0.8047838
v -0.0140175 0.0783600 0.8054913
v -0.0154325 0.0923900 0.8000000
v -0.0154325 0.0923900 0.8000000
v -0.0140175 0.0783600 0.8054913
v -0.0073225 0.0707100 0.8000000
v -0.0140175 0.0783600 0.8054913
v -0.0054100 0.0439300 0.8054913
v -0.0073225 0.0707100 0.8000000
v -0.0073225 0.0707100 0.8000000
v -0.0054100 0.0439300 0.8054913
v -0.0019025 0.0382700 0.8000000
v -0.0054100 0.0439300 0.8054913
v -0.0019025 -0.0000000 0.8047838
v -0.0019025 0.0382700 0.8000000
v -0.0019025 0.0382700 0.8000000
v -0.0019025 -0.0000000 0.8047838
v 0.0000000 -0.0000000 0.8000000
v -0.0250000 0.0923900 0.8047838
v -0.0250000 0.0707100 0.8088388
v -0.0140175 0.0783600 0.8054913
v -0.0250000 0.0707100 0.8088388
v -0.0140175 0.0439300 0.8097950
v -0.0140175 0.0783600 0.8054913
v -0.0140175 0.0783600 0.8054913
v -0.0140175 0.0439300 0.8097950
v -0.0054100 0.0439300 0.8054913
v -0.0140175 0.0439300 0.8097950
v -0.0073225 -0.0000000 0.8088388
v -0.0054100 0.0439300 0.8054913
v -0.0054100 0.0439300 0.8054913
v -0.0073225 -0.0000000 0.8088388
v -0.0019025 -0.0000000 0.8047838
v -0.0250000 0.0707100 0.8088388
v -0.0250000 0.0382700 0.8115488
v -0.0140175 0.0439300 0.8097950
v -0.0250000 0.0382700 0.8115488
v -0.0154325 -0.0000000 0.8115488
v -0.0140175 0.0439300 0.8097950
v -0.0140175 0.0439300 0.8097950
v -0.0154325 -0.0000000 0.8115488
v -0.0073225 -0.0000000 0.8088388
v -0.0250000 0.0382700 0.8115488
v -0.0250000 -0.0000000 0.8125000
v -0.0154325 -0.0000000 0.8115488
v -0.0250000 -0.1000000 0.8000000
v -0.0250000 -0.0923900 0.8047838
v -0.0345675 -0.0923900 0.8000000
v -0.0250000 -0.0923900 0.8047838
v -0.0359825 -0.0783600 0.8054913
v -0.0345675 -0.0923900 0.8000000
v -0.0345675 -0.0923900 0.8000000
v -0.0359825 -0.0783600 0.8054913
v -0.0426775 -0.0707100 0.8000000
v -0.0359825 -0.0783600 0.8054913
v -0.0445900 -0.0439300 0.8054913
v -0.0426775 -0.0707100 0.8000000
v -0.0426775 -0.0707100 0.8000000
v -0.0445900 -0.0439300 0.8054913
v -0.0480975 -0.0382700 0.8000000
v -0.0445900 -0.0439300 0.8054913
v -0.0480975 -0.0000000 0.8047838
v -0.0480975 -0.0382700 0.8000000
v -0.0480975 -0.0382700 0.8000000
v -0.0480975 -0.0000000 0.8047838
v -0.0500000 -0.0000000 0.8000000
v -0.0250000 -0.0923900 0.8047838
v -0.0250000 -0.0707100 0.8088388
v -0.0359825 -0.0783600 0.8054913
v -0.0250000 -0.0707100 0.8088388
v -0.0359825 -0.0439300 0.8097950
v -0.0359825 -0.0783600 0.8054913
v -0.0359825 -0.0783600 0.8054913
v -0.0359825 -0.0439300 0.8097950
v -0.0445900 -0.0439300 0.8054913
v -0.0359825 -0.0439300 0.8097950
v -0.0426775 -0.0000000 0.8088388
v -0.0445900 -0.0439300 0.8054913
v -0.0445900 -0.0439300 0.8054913
v -0.0426775 -0.0000000 0.8088388
v -0.0480975 -0.0000000 0.8047838
v -0.0250000 -0.0707100 0.8088388
v -0.0250000 -0.0382700 0.8115488
v -0.0359825 -0.0439300 0.8097950
v -0.0250000 -0.0382700 0.8115488
v -0.0345675 -0.0000000 0.8115488
v -0.0359825 -0.0439300 0.8097950
v -0.0359825 -0.0439300 0.8097950
v -0.0345675 -0.0000000 0.8115488
v -0.0426775 -0.0000000 0.8088388
v -0.0250000 -0.0382700 0.8115488
v -0.0250000 -0.0000000 0.8125000
v -0.0345675 -0.0000000 0.8115488
v -0.0154325 -0.0923900 0.8000000
v -0.0250000 -0.0923900 0.8047838
v -0.0250000 -0.1000000 0.8000000
v -0.0154325 -0.0923900 0.8000000
v -0.0140175 -0.0783600 0.8054913
v -0.0250000 -0.0923900 0.8047838
v -0.0073225 -0.0707100 0.8000000
v -0.0140175 -0.0783600 0.8054913
v -0.0154325 -0.0923900 0.8000000
v -0.0073225 -0.0707100 0.8000000
v -0.0054100 -0.0439300 0.8054913
v -0.0140175 -0.0783600 0.8054913
v -0.0019025 -0.0382700 0.8000000
v -0.0054100 -0.0439300 0.8054913
v -0.0073225 -0.0707100 0.8000000
v -0.0019025 -0.0382700 0.8000000
v -0.0019025 -0.0000000 0.8047838
v -0.0054100 -0.0439300 0.8054913
v 0.0000000 -0.0000000 0.8000000
v -0.0019025 -0.0000000 0.8047838
v -0.0019025 -0.0382700 0.8000000
v -0.0140175 -0.0783600 0.8054913
v -0.0250000 -0.0707100 0.8088388
v -0.0250000 -0.0923900 0.8047838
v -0.0140175 -0.0783600 0.8054913
v -0.0140175 -0.0439300 0.8097950
v -0.0250000 -0.0707100 0.8088388
v -0.0054100 -0.0439300 0.8054913
v -0.0140175 -0.0439300 0.8097950
v -0.0140175 -0.0783600 0.8054913
v -0.0054100 -0.0439300 0.8054913
v -0.0073225 -0.0000000 0.8088388
v -0.0140175 -0.0439300 0.8097950
v -0.0019025 -0.0000000 0.8047838
v -0.0073225 -0.0000000 0.8088388
v -0.0054100 -0.0439300 0.8054913
v -0.0140175 -0.0439300 0.8097950
v -0.0250000 -0.0382700 0.8115488
v -0.0250000 -0.0707100 0.8088388
v -0.0140175 -0.0439300 0.8097950
v -0.0154325 -0.0000000 0.8115488
v -0.0250000 -0.0382700 0.8115488
v -0.0073225 -0.0000000 0.8088388
v -0.0154325 -0.0000000 0.8115488
v -0.0140175 -0.0439300 0.8097950
v -0.0154325 -0.0000000 0.8115488
v -0.0250000 -0.0000000 0.8125000
v -0.0250000 -0.0382700 0.8115488
v 0.1750000 -0.6750000 0.8750000
v 0.1750000 -0.6750000 0.0250000
v 0.1750000 0.6750000 0.0250000
v 0.1750000 0.6750000 0.8750000
v -0.1000000 -0.6750000 0.8750000
v -0.1000000 -0.6750000 0.0250000
v -0.1000000 0.6750000 0.0250000
v -0.1000000 0.6750000 0.8750000
v -0.1000000 -0.6750000 0.8750000
v -0.1750000 -0.6750000 0.8750000
v -0.1750000 -0.6750000 0.0250000
v -0.1000000 -0.6750000 0.0250000
v -0.1000000 0.6750000 0.8750000
v -0.1750000 0.6750000 0.8750000
v -0.1750000 -0.6750000 0.8750000
v -0.1000000 -0.6750000 0.8750000
v -0.1000000 0.6750000 0.0250000
v -0.1750000 0.6750000 0.0250000
v -0.1750000 0.6750000 0.8750000
v -0.1000000 0.6750000 0.8750000
v -0.1000000 -0.6750000 0.0250000
v -0.1750000 -0.6750000 0.0250000
v -0.1750000 0.6750000 0.0250000
v -0.1000000 0.6750000 0.0250000
v 0.0500000 -0.6500000 0.8500000
v -0.1000000 -0.6500000 0.8500000
v -0.1000000 -0.6500000 0.0500000
v 0.0500000 -0.6500000 0.0500000
v 0.0500000 0.6500000 0.8500000
v -0.1000000 0.6500000 0.8500000
v -0.1000000 -0.6500000 0.8500000
v 0.0500000 -0.6500000 0.8500000
v 0.0500000 0.6500000 0.0500000
v -0.1000000 0.6500000 0.0500000
v -0.1000000 0.6500000 0.8500000
v 0.0500000 0.6500000 0.8500000
v 0.0500000 -0.6500000 0.0500000
v -0.1000000 -0.6500000 0.0500000
v -0.1000000 0.6500000 0.0500000
v 0.0500000 0.6500000 0.0500000
v -0.1000000 0.6000000 0.1000000
v -0.1000000 -0.6000000 0.1000000
v 0.0500000 -0.6000000 0.1000000
v 0.0500000 0.6000000 0.1000000
v -0.1000000 -0.6000000 0.1000000
v -0.1000000 -0.6000000 0.8000000
v 0.0500000 -0.6000000 0.8000000
v 0.0500000 -0.6000000 0.1000000
v 0.0500000 0.6000000 0.1000000
v 0.0500000 0.6000000 0.8000000
v -0.1000000 0.6000000 0.8000000
v -0.1000000 0.6000000 0.1000000
v -0.1000000 0.6000000 0.8000000
v 0.0500000 0.6000000 0.8000000
v 0.0000000 0.1000000 0.8000000
v -0.0500000 0.1000000 0.8000000
v -0.0500000 -0.1000000 0.8000000
v 0.0000000 -0.1000000 0.8000000
v 0.0500000 -0.6000000 0.8000000
v -0.1000000 -0.6000000 0.8000000
v -0.0500000 0.1000000 0.8000000
v -0.0500000 -0.1000000 0.8000000
v -0.1000000 -0.6000000 0.8000000
v -0.1000000 0.6000000 0.8000000
v 0.0500000 0.6000000 0.8000000
v 0.0500000 -0.6000000 0.8000000
v 0.0000000 -0.1000000 0.8000000
v 0.0000000 0.1000000 0.8000000
v -0.0154325 0.0923900 0.8000000
v -0.0250000 0.1000000 0.8000000
v 0.0000000 0.1000000 0.8000000
v -0.0073225 0.0707100 0.8000000
v -0.0154325 0.0923900 0.8000000
v 0.0000000 0.1000000 0.8000000
v -0.0019025 0.0382700 0.8000000
v -0.0073225 0.0707100 0.8000000
v 0.0000000 0.1000000 0.8000000
v 0.0000000 -0.0000000 0.8000000
v -0.0019025 0.0382700 0.8000000
v 0.0000000 0.1000000 0.8000000
v -0.0019025 -0.0382700 0.8000000
v 0.0000000 -0.0000000 0.8000000
v 0.0000000 -0.1000000 0.8000000
v -0.0073225 -0.0707100 0.8000000
v -0.0019025 -0.0382700 0.8000000
v 0.0000000 -0.1000000 0.8000000
v -0.0154325 -0.0923900 0.8000000
v -0.0073225 -0.0707100 0.8000000
v 0.0000000 -0.1000000 0.8000000
v -0.0250000 -0.1000000 0.8000000
v -0.0154325 -0.0923900 0.8000000
v 0.0000000 -0.1000000 0.8000000
v -0.0345675 -0.0923900 0.8000000
v -0.0250000 -0.1000000 0.8000000
v -0.0500000 -0.1000000 0.8000000
v -0.0426775 -0.0707100 0.8000000
v -0.0345675 -0.0923900 0.8000000
v -0.0500000 -0.1000000 0.8000000
v -0.0480975 -0.0382700 0.8000000
v -0.0426775 -0.0707100 0.8000000
v -0.0500000 -0.1000000 0.8000000
v -0.0500000 -0.0000000 0.8000000
v -0.0480975 -0.0382700 0.8000000
v -0.0500000 -0.1000000 0.8000000
v -0.0480975 0.0382700 0.8000000
v -0.0500000 -0.0000000 0.8000000
v -0.0500000 0.1000000 0.8000000
v -0.0426775 0.0707100 0.8000000
v -0.0480975 0.0382700 0.8000000
v -0.0500000 0.1000000 0.8000000
v -0.0345675 0.0923900 0.8000000
v -0.0426775 0.0707100 0.8000000
v -0.0500000 0.1000000 0.8000000
v -0.0250000 0.1000000 0.8000000
v -0.0345675 0.0923900 0.8000000
v -0.0500000 0.1000000 0.8000000
v -0.0154325 0.0923900 0.8000000
v -0.0250000 0.0923900 0.8047838
v -0.0250000 0.1000000 0.8000000
v -0.0154325 0.0923900 0.8000000
v -0.0140175 0.0783600 0.8054913
v -0.0250000 0.0923900 0.8047838
v -0.0073225 0.0707100 0.8000000
v -0.0140175 0.0783600 0.8054913
v -0.0154325 0.0923900 0.8000000
v -0.0073225 0.0707100 0.8000000
v -0.0054100 0.0439300 0.8054913
v -0.0140175 0.0783600 0.8054913
v -0.0019025 0.0382700 0.8000000
v -0.0054100 0.0439300 0.8054913
v -0.0073225 0.0707100 0.8000000
v -0.0019025 0.0382700 0.8000000
v -0.0019025 -0.0000000 0.8047838
v -0.0054100 0.0439300 0.8054913
v 0.0000000 -0.0000000 0.8000000
v -0.0019025 -0.0000000 0.8047838
v -0.0019025 0.0382700 0.8000000
v -0.0140175 0.0783600 0.8054913
v -0.0250000 0.0707100 0.8088388
v -0.0250000 0.0923900 0.8047838
v -0.0140175 0.0783600 0.8054913
v -0.0140175 0.0439300 0.8097950
v -0.0250000 0.0707100 0.8088388
v -0.0054100 0.0439300 0.8054913
v -0.0140175 0.0439300 0.8097950
v -0.0140175 0.0783600 0.8054913
v -0.0054100 0.0439300 0.8054913
v -0.0073225 -0.0000000 0.8088388
v -0.0140175 0.0439300 0.8097950
v -0.0019025 -0.0000000 0.8047838
v -0.0073225 -0.0000000 0.8088388
v -0.0054100 0.0439300 0.8054913
v -0.0140175 0.0439300 0.8097950
v -0.0250000 0.0382700 0.8115488
v -0.0250000 0.0707100 0.8088388
v -0.0140175 0.0439300 0.8097950
v -0.0154325 -0.0000000 0.8115488
v -0.0250000 0.0382700 0.8115488
v -0.0073225 -0.0000000 0.8088388
v -0.0154325 -0.0000000 0.8115488
v -0.0140175 0.0439300 0.8097950
v -0.0154325 -0.0000000 0.8115488
v -0.0250000 -0.0000000 0.8125000
v -0.0250000 0.0382700 0.8115488
v -0.0250000 0.1000000 0.8000000
v -0.0250000 0.0923900 0.8047838
v -0.0345675 0.0923900 0.8000000
v -0.0250000 0.0923900 0.8047838
v -0.0359825 0.0783600 0.8054913
v -0.0345675 0.0923900 0.8000000
v -0.0345675 0.0923900 0.8000000
v -0.0359825 0.0783600 0.8054913
v -0.0426775 0.0707100 0.8000000
v -0.0359825 0.0783600 0.8054913
v -0.0445900 0.0439300 0.8054913
v -0.0426775 0.0707100 0.8000000
v -0.0426775 0.0707100 0.8000000
v -0.0445900 0.0439300 0.8054913
v -0.0480975 0.0382700 0.8000000
v -0.0445900 0.0439300 0.8054913
v -0.0480975 -0.0000000 0.8047838
v -0.0480975 0.0382700 0.8000000
v -0.0480975 0.0382700 0.8000000
v -0.0480975 -0.0000000 0.8047838
v -0.0500000 -0.0000000 0.8000000
v -0.0250000 0.0923900 0.8047838
v -0.0250000 0.0707100 0.8088388
v -0.0359825 0.0783600 0.8054913
v -0.0250000 0.0707100 0.8088388
v -0.0359825 0.0439300 0.8097950
v -0.0359825 0.0783600 0.8054913
v -0.0359825 0.0783600 0.8054913
v -0.0359825 0.0439300 0.8097950
v -0.0445900 0.0439300 0.8054913
v -0.0359825 0.0439300 0.8097950
v -0.0426775 -0.0000000 0.8088388
v -0.0445900 0.0439300 0.8054913
v -0.0445900 0.0439300 0.8054913
v -0.0426775 -0.0000000 0.8088388
v -0.0480975 -0.0000000 0.8047838
v -0.0250000 0.0707100 0.8088388
v -0.0250000 0.0382700 0.8115488
v -0.0359825 0.0439300 0.8097950
v -0.0250000 0.0382700 0.8115488
v -0.0345675 -0.0000000 0.8115488
v -0.0359825 0.0439300 0.8097950
v -0.0359825 0.0439300 0.8097950
v -0.0345675 -0.0000000 0.8115488
v -0.0426775 -0.0000000 0.8088388
v -0.0250000 0.0382700 0.8115488
v -0.0250000 -0.0000000 0.8125000
v -0.0345675 -0.0000000 0.8115488
v -0.0250000 -0.1000000 0.8000000
v -0.0250000 -0.0923900 0.8047838
v -0.0154325 -0.0923900 0.8000000
v -0.0250000 -0.0923900 0.8047838
v -0.0140175 -0.0783600 0.8054913
v -0.0154325 -0.0923900 0.8000000
v -0.0154325 -0.0923900 0.8000000
v -0.0140175 -0.0783600 0.8054913
v -0.0073225 -0.0707100 0.8000000
v -0.0140175 -0.0783600 0.8054913
v -0.0054100 -0.0439300 0.8054913
v -0.0073225 -0.0707100 0.8000000
v -0.0073225 -0.0707100 0.8000000
v -0.0054100 -0.0439300 0.8054913
v -0.0019025 -0.0382700 0.8000000
v -0.0054100 -0.0439300 0.8054913
v -0.0019025 -0.0000000 0.8047838
v -0.0019025 -0.0382700 0.8000000
v -0.0019025 -0.0382700 0.8000000
v -0.0019025 -0.0000000 0.8047838
v 0.0000000 -0.0000000 0.8000000
v -0.0250000 -0.0923900 0.8047838
v -0.0250000 -0.0707100 0.8088388
v -0.0140175 -0.0783600 0.8054913
v -0.0250000 -0.0707100 0.8088388
v -0.0140175 -0.0439300 0.8097950
v -0.0140175 -0.0783600 0.8054913
v -0.0140175 -0.0783600 0.8054913
v -0.0140175 -0.0439300 0.8097950
v -0.0054100 -0.0439300 0.8054913
v -0.0140175 -0.0439300 0.8097950
v -0.0073225 -0.0000000 0.8088388
v -0.0054100 -0.0439300 0.8054913
v -0.0054100 -0.0439300 0.8054913
v -0.0073225 -0.0000000 0.8088388
v -0.0019025 -0.0000000 0.8047838
v -0.0250000 -0.0707100 0.8088388
v -0.0250000 -0.0382700 0.8115488
v -0.0140175 -0.0439300 0.8097950
v -0.0250000 -0.0382700 0.8115488
v -0.0154325 -0.0000000 0.8115488
v -0.0140175 -0.0439300 0.8097950
v -0.0140175 -0.0439300 0.8097950
v -0.0154325 -0.0000000 0.8115488
v -0.0073225 -0.0000000 0.8088388
v -0.0250000 -0.0382700 0.8115488
v -0.0250000 -0.0000000 0.8125000
v -0.0154325 -0.0000000 0.8115488
v -0.0345675 -0.0923900 0.8000000
v -0.0250000 -0.0923900 0.8047838
v -0.0250000 -0.1000000 0.8000000
v -0.0345675 -0.0923900 0.8000000
v -0.0359825 -0.0783600 0.8054913
v -0.0250000 -0.0923900 0.8047838
v -0.0426775 -0.0707100 0.8000000
v -0.0359825 -0.0783600 0.8054913
v -0.0345675 -0.0923900 0.8000000
v -0.0426775 -0.0707100 0.8000000
v -0.0445900 -0.0439300 0.8054913
v -0.0359825 -0.0783600 0.8054913
v -0.0480975 -0.0382700 0.8000000
v -0.0445900 -0.0439300 0.8054913
v -0.0426775 -0.0707100 0.8000000
v -0.0480975 -0.0382700 0.8000000
v -0.0480975 -0.0000000 0.8047838
v -0.0445900 -0.0439300 0.8054913
v -0.0500000 -0.0000000 0.8000000
v -0.0480975 -0.0000000 0.8047838
v -0.0480975 -0.0382700 0.8000000
v -0.0359825 -0.0783600 0.8054913
v -0.0250000 -0.0707100 0.8088388
v -0.0250000 -0.0923900 0.8047838
v -0.0359825 -0.0783600 0.8054913
v -0.0359825 -0.0439300 0.8097950
v -0.0250000 -0.0707100 0.8088388
v -0.0445900 -0.0439300 0.8054913
v -0.0359825 -0.0439300 0.8097950
v -0.0359825 -0.0783600 0.8054913
v -0.0445900 -0.0439300 0.8054913
v -0.0426775 -0.0000000 0.8088388
v -0.0359825 -0.0439300 0.8097950
v -0.0480975 -0.0000000 0.8047838
v -0.0426775 -0.0000000 0.8088388
v -0.0445900 -0.0439300 0.8054913
v -0.0359825 -0.0439300 0.8097950
v -0.0250000 -0.0382700 0.8115488
v -0.0250000 -0.0707100 0.8088388
v -0.0359825 -0.0439300 0.8097950
v -0.0345675 -0.0000000 0.8115488
v -0.0250000 -0.0382700 0.8115488
v -0.0426775 -0.0000000 0.8088388
v -0.0345675 -0.0000000 0.8115488
v -0.0359825 -0.0439300 0.8097950
v -0.0345675 -0.0000000 0.8115488
v -0.0250000 -0.0000000 0.8125000
v -0.0250000 -0.0382700 0.8115488
v 0.0500000 0.6000000 0.1000000
v 0.0500000 0.6500000 0.0500000
v 0.0500000 0.6500000 0.8500000
v 0.0500000 0.6000000 0.8000000
v 0.0500000 -0.6000000 0.8000000
v 0.0500000 -0.6500000 0.8500000
v 0.0500000 -0.6500000 0.0500000
v 0.0500000 -0.6000000 0.1000000
v 0.0500000 0.6000000 0.1000000
v 0.0500000 -0.6000000 0.1000000
v 0.0500000 -0.6500000 0.0500000
v 0.0500000 0.6500000 0.0500000
v 0.0500000 0.6500000 0.8500000
v 0.0500000 -0.6500000 0.8500000
v 0.0500000 -0.6000000 0.8000000
v 0.0500000 0.6000000 0.8000000
v -0.1750000 0.6750000 0.8750000
v -0.1750000 0.6750000 0.0250000
v -0.1750000 -0.6750000 0.0250000
v -0.1750000 -0.6750000 0.8750000
v 0.1750000 -0.6750000 0.0250000
v 0.1711950 -0.6750000 0.0058650
v 0.1711950 0.6750000 0.0058650
v 0.1750000 0.6750000 0.0250000
v 0.1711950 -0.6750000 0.0058650
v 0.1603550 -0.6750000 -0.0103550
v 0.1603550 0.6750000 -0.0103550
v 0.1711950 0.6750000 0.0058650
v 0.1603550 -0.6750000 -0.0103550
v 0.1441350 -0.6750000 -0.0211950
v 0.1441350 0.6750000 -0.0211950
v 0.1603550 0.6750000 -0.0103550
v 0.1441350 -0.6750000 -0.0211950
v 0.1250000 -0.6750000 -0.0250000
v 0.1250000 0.6750000 -0.0250000
v 0.1441350 0.6750000 -0.0211950
v 0.1625000 -0.6750000 0.0250000
v 0.1596462 -0.6750000 0.0106488
v 0.1711950 -0.6750000 0.0058650
v 0.1750000 -0.6750000 0.0250000
v 0.1596462 -0.6750000 0.0106488
v 0.1515163 -0.6750000 -0.0015163
v 0.1603550 -0.6750000 -0.0103550
v 0.1711950 -0.6750000 0.0058650
v 0.1515163 -0.6750000 -0.0015163
v 0.1393513 -0.6750000 -0.0096463
v 0.1441350 -0.6750000 -0.0211950
v 0.1603550 -0.6750000 -0.0103550
v 0.1393513 -0.6750000 -0.0096463
v 0.1250000 -0.6750000 -0.0125000
v 0.1250000 -0.6750000 -0.0250000
v 0.1441350 -0.6750000 -0.0211950
v 0.1750000 0.6750000 0.0250000
v 0.1711950 0.6750000 0.0058650
v 0.1596462 0.6750000 0.0106488
v 0.1625000 0.6750000 0.0250000
v 0.1711950 0.6750000 0.0058650
v 0.1603550 0.6750000 -0.0103550
v 0.1515163 0.6750000 -0.0015163
v 0.1596462 0.6750000 0.0106488
v 0.1603550 0.6750000 -0.0103550
v 0.1441350 0.6750000 -0.0211950
v 0.1393513 0.6750000 -0.0096463
v 0.1515163 0.6750000 -0.0015163
v 0.1441350 0.6750000 -0.0211950
v 0.1250000 0.6750000 -0.0250000
v 0.1250000 0.6750000 -0.0125000
v 0.1393513 0.6750000 -0.0096463
v 0.1625000 0.6750000 0.0250000
v 0.1596462 0.6750000 0.0106488
v 0.1596462 -0.6750000 0.0106488
v 0.1625000 -0.6750000 0.0250000
v 0.1596462 0.6750000 0.0106488
v 0.1515163 0.6750000 -0.0015162
v 0.1515163 -0.6750000 -0.0015162
v 0.1596462 -0.6750000 0.0106488
v 0.1515163 0.6750000 -0.0015162
v 0.1393513 0.6750000 -0.0096463
v 0.1393513 -0.6750000 -0.0096463
v 0.1515163 -0.6750000 -0.0015162
v 0.1393513 0.6750000 -0.0096463
v 0.1250000 0.6750000 -0.0125000
v 0.1250000 -0.6750000 -0.0125000
v 0.1393513 -0.6750000 -0.0096463
v -0.1750000 0.6750000 0.0250000
v -0.1711950 0.6750000 0.0058650
v -0.1711950 -0.6750000 0.0058650
v -0.1750000 -0.6750000 0.0250000
v -0.1711950 0.6750000 0.0058650
v -0.1603550 0.6750000 -0.0103550
v -0.1603550 -0.6750000 -0.0103550
v -0.1711950 -0.6750000 0.0058650
v -0.1603550 0.6750000 -0.0103550
v -0.1441350 0.6750000 -0.0211950
v -0.1441350 -0.6750000 -0.0211950
v -0.1603550 -0.6750000 -0.0103550
v -0.1441350 0.6750000 -0.0211950
v -0.1250000 0.6750000 -0.0250000
v -0.1250000 -0.6750000 -0.0250000
v -0.1441350 -0.6750000 -0.0211950
v -0.1625000 0.6750000 0.0250000
v -0.1596462 0.6750000 0.0106488
v -0.1711950 0.6750000 0.0058650
v -0.1750000 0.6750000 0.0250000
v -0.1596462 0.6750000 0.0106488
v -0.1515163 0.6750000 -0.0015163
v -0.1603550 0.6750000 -0.0103550
v -0.1711950 0.6750000 0.0058650
v -0.1515163 0.6750000 -0.0015163
v -0.1393513 0.6750000 -0.0096463
v -0.1441350 0.6750000 -0.0211950
v -0.1603550 0.6750000 -0.0103550
v -0.1393513 0.6750000 -0.0096463
v -0.1250000 0.6750000 -0.0125000
v -0.1250000 0.6750000 -0.0250000
v -0.1441350 0.6750000 -0.0211950
v -0.1750000 -0.6750000 0.0250000
v -0.1711950 -0.6750000 0.0058650
v -0.1596462 -0.6750000 0.0106488
v -0.1625000 -0.6750000 0.0250000
v -0.1711950 -0.6750000 0.0058650
v -0.1603550 -0.6750000 -0.0103550
v -0.1515163 -0.6750000 -0.0015163
v -0.1596462 -0.6750000 0.0106488
v -0.1603550 -0.6750000 -0.0103550
v -0.1441350 -0.6750000 -0.0211950
v -0.1393513 -0.6750000 -0.0096463
v -0.1515163 -0.6750000 -0.0015163
v -0.1441350 -0.6750000 -0.0211950
v -0.1250000 -0.6750000 -0.0250000
v -0.1250000 -0.6750000 -0.0125000
v -0.1393513 -0.6750000 -0.0096463
v -0.1625000 -0.6750000 0.0250000
v -0.1596462 -0.6750000 0.0106488
v -0.1596462 0.6750000 0.0106488
v -0.1625000 0.6750000 0.0250000
v -0.1596462 -0.6750000 0.0106488
v -0.1515163 -0.6750000 -0.0015162
v -0.1515163 0.6750000 -0.0015162
v -0.1596462 0.6750000 0.0106488
v -0.1515163 -0.6750000 -0.0015162
v -0.1393513 -0.6750000 -0.0096463
v -0.1393513 0.6750000 -0.0096463
v -0.1515163 0.6750000 -0.0015162
v -0.1393513 -0.6750000 -0.0096463
v -0.1250000 -0.6750000 -0.0125000
v -0.1250000 0.6750000 -0.0125000
v -0.1393513 0.6750000 -0.0096463
s off
f 1 2 3
f 1 3 4
f 5 6 7
f 5 7 8
f 9 10 11
f 12 13 14
f 12 14 15
f 16 17 18
f 16 18 19
f 20 21 22
f 20 22 23
f 24 25 26
f 24 26 27
f 28 29 30
f 28 30 31
f 32 33 34
f 32 34 35
f 36 37 38
f 36 38 39
f 40 41 42
f 40 42 43
f 44 45 46
f 44 46 47
f 48 49 50
f 48 50 51
f 52 53 54
f 52 54 55
f 56 57 58
f 56 58 59
f 60 61 62
f 60 62 63
f 64 65 66
f 64 66 67
f 68 69 70
f 68 70 71
f 72 73 74
f 72 74 75
f 76 77 78
f 76 78 79
f 80 81 82
f 80 82 83
f 84 85 86
f 87 88 89
f 87 89 90
f 91 92 93
f 91 93 94
f 95 96 97
f 95 97 98
f 99 100 101
f 99 101 102
f 103 104 105
f 103 105 106
f 107 108 109
f 107 109 110
f 111 112 113
f 111 113 114
f 115 116 117
f 115 117 118
f 119 120 121
f 119 121 122
f 123 124 125
f 123 125 126
f 127 128 129
f 127 129 130
f 131 132 133
f 131 133 134
f 135 136 137
f 135 137 138
f 139 140 141
f 139 141 142
f 143 144 145
f 143 145 146
f 147 148 149
f 147 149 150
f 151 152 153
f 151 153 154
f 155 156 157
f 155 157 158
f 159 160 161
f 162 163 164
f 162 164 165
f 166 167 168
f 166 168 169
f 170 171 172
f 170 172 173
f 174 175 176
f 174 176 177
f 178 179 180
f 178 180 181
f 182 183 184
f 182 184 185
f 186 187 188
f 186 188 189
f 190 191 192
f 190 192 193
f 194 195 196
f 194 196 197
f 198 199 200
f 198 200 201
f 202 203 204
f 202 204 205
f 206 207 208
f 206 208 209
f 210 211 212
f 210 212 213
f 214 215 216
f 214 216 217
f 218 219 220
f 218 220 221
f 222 223 224
f 222 224 225
f 226 227 228
f 226 228 229
f 230 231 232
f 230 232 233
f 234 235 236
f 237 238 239
f 237 239 240
f 241 242 243
f 241 243 244
f 245 246 247
f 245 247 248
f 249 250 251
f 249 251 252
f 253 254 255
f 253 255 256
f 257 258 259
f 257 259 260
f 261 262 263
f 261 263 264
f 265 266 267
f 265 267 268
f 269 270 271
f 269 271 272
f 273 274 275
f 273 275 276
f 277 278 279
f 277 279 280
f 281 282 283
f 281 283 284
f 285 286 287
f 285 287 288
f 289 290 291
f 289 291 292
f 293 294 295
f 293 295 296
f 297 298 299
f 297 299 300
f 301 302 303
f 301 303 304
f 305 306 307
f 305 307 308
f 309 310 311
f 309 311 312
f 313 314 315
f 313 315 316
f 317 318 319
f 317 319 320
f 321 322 323
f 321 323 324
f 325 326 327
f 325 327 328
f 329 330 331
f 329 331 332
f 333 334 335
f 333 335 336
f 337 338 339
f 337 339 340
f 341 342 343
f 341 343 344
f 345 346 347
f 345 347 348
f 349 350 351
f 349 351 352
f 353 354 355
f 353 355 356
f 357 358 359
f 357 359 360
f 361 362 363
f 361 363 364
f 365 366 367
f 365 367 368
f 369 370 371
f 369 371 372
f 373 374 375
f 373 375 376
f 377 378 379
f 377 379 380
f 381 382 383
f 381 383 384
f 385 386 387
f 385 387 388
f 389 390 391
f 389 391 392
f 393 394 395
f 393 395 396
f 397 398 399
f 397 399 400
f 401 402 403
f 401 403 404
f 405 406 407
f 408 409 410
f 408 410 411
f 412 413 414
f 415 416 417
f 415 417 418
f 419 420 421
f 419 421 422
f 423 424 425
f 423 425 426
f 427 428 429
f 427 429 430
f 431 432 433
f 431 433 434
f 435 436 437
f 435 437 438
f 439 440 441
f 439 441 442
f 443 444 445
f 443 445 446
f 447 448 449
f 447 449 450
f 451 452 453
f 451 453 454
f 455 456 457
f 458 459 460
f 458 460 461
f 462 463 464
f 465 466 467
f 465 467 468
f 469 470 471
f 469 471 472
f 473 474 475
f 473 475 476
f 477 478 479
f 477 479 480
f 481 482 483
f 481 483 484
f 485 486 487
f 485 487 488
f 489 490 491
f 489 491 492
f 493 494 495
f 493 495 496
f 497 498 499
f 497 499 500
f 501 502 503
f 501 503 504
f 505 506 507
f 505 507 508
f 509 510 511
f 509 511 512
f 513 514 515
f 516 517 518
f 519 520 521
f 519 521 522
f 523 524 525
f 523 525 526
f 527 528 529
f 527 529 530
f 531 532 533
f 534 535 536
f 534 536 537
f 538 539 540
f 538 540 541
f 542 543 544
f 542 544 545
f 546 547 548
f 546 548 549
f 550 551 552
f 550 552 553
f 554 555 556
f 554 556 557
f 558 559 560
f 558 560 561
f 562 563 564
f 562 564 565
f 566 567 568
f 569 570 571
f 572 573 574
f 575 576 577
f 578 579 580
f 581 582 583
f 584 585 586
f 587 588 589
f 590 591 592
f 593 594 595
f 596 597 598
f 599 600 601
f 602 603 604
f 605 606 607
f 608 609 610
f 611 612 613
f 614 615 616
f 617 618 619
f 620 621 622
f 623 624 625
f 626 627 628
f 629 630 631
f 632 633 634
f 635 636 637
f 638 639 640
f 641 642 643
f 644 645 646
f 647 648 649
f 650 651 652
f 653 654 655
f 656 657 658
f 659 660 661
f 662 663 664
f 665 666 667
f 668 669 670
f 671 672 673
f 674 675 676
f 677 678 679
f 680 681 682
f 683 684 685
f 686 687 688
f 689 690 691
f 692 693 694
f 695 696 697
f 698 699 700
f 701 702 703
f 704 705 706
f 707 708 709
f 710 711 712
f 713 714 715
f 716 717 718
f 719 720 721
f 722 723 724
f 725 726 727
f 728 729 730
f 731 732 733
f 734 735 736
f 737 738 739
f 740 741 742
f 743 744 745
f 746 747 748
f 749 750 751
f 752 753 754
f 755 756 757
f 758 759 760
f 758 760 761
f 762 763 764
f 762 764 765
f 766 767 768
f 766 768 769
f 770 771 772
f 770 772 773
f 774 775 776
f 774 776 777
f 778 779 780
f 778 780 781
f 782 783 784
f 782 784 785
f 786 787 788
f 786 788 789
f 790 791 792
f 790 792 793
f 794 795 796
f 794 796 797
f 798 799 800
f 798 800 801
f 802 803 804
f 802 804 805
f 806 807 808
f 806 808 809
f 810 811 812
f 810 812 813
f 814 815 816
f 814 816 817
f 818 819 820
f 818 820 821
f 822 823 824
f 822 824 825
f 826 827 828
f 829 830 831
f 832 833 834
f 835 836 837
f 838 839 840
f 841 842 843
f 844 845 846
f 847 848 849
f 850 851 852
f 853 854 855
f 856 857 858
f 859 860 861
f 862 863 864
f 865 866 867
f 868 869 870
f 871 872 873
f 874 875 876
f 877 878 879
f 880 881 882
f 883 884 885
f 886 887 888
f 889 890 891
f 892 893 894
f 895 896 897
f 898 899 900
f 901 902 903
f 904 905 906
f 907 908 909
f 910 911 912
f 913 914 915
f 916 917 918
f 919 920 921
f 922 923 924
f 925 926 927
f 928 929 930
f 931 932 933
f 934 935 936
f 937 938 939
f 940 941 942
f 943 944 945
f 946 947 948
f 949 950 951
f 952 953 954
f 955 956 957
f 958 959 960
f 961 962 963
f 964 965 966
f 967 968 969
f 970 971 972
f 973 974 975
f 976 977 978
f 979 980 981
f 982 983 984
f 985 986 987
f 988 989 990
f 991 992 993
f 994 995 996
f 997 998 999
f 1000 1001 1002
f 1003 1004 1005
f 1006 1007 1008
f 1009 1010 1011
f 1012 1013 1014
f 1015 1016 1017
f 1018 1019 1020
f 1021 1022 1023
f 1024 1025 1026
f 1027 1028 1029
f 1030 1031 1032
f 1033 1034 1035
f 1036 1037 1038
f 1039 1040 1041
f 1042 1043 1044
f 1045 1046 1047
f 1048 1049 1050
f 1051 1052 1053
f 1054 1055 1056
f 1057 1058 1059
f 1060 1061 1062
f 1063 1064 1065
f 1066 1067 1068
f 1066 1068 1069
f 1070 1071 1072
f 1070 1072 1073
f 1074 1075 1076
f 1074 1076 1077
f 1078 1079 1080
f 1078 1080 1081
f 1082 1083 1084
f 1082 1084 1085
f 1086 1087 1088
f 1086 1088 1089
f 1090 1091 1092
f 1090 1092 1093
f 1094 1095 1096
f 1094 1096 1097
f 1098 1099 1100
f 1098 1100 1101
f 1102 1103 1104
f 1102 1104 1105
f 1106 1107 1108
f 1106 1108 1109
f 1110 1111 1112
f 1110 1112 1113
f 1114 1115 1116
f 1114 1116 1117
f 1118 1119 1120
f 1118 1120 1121
f 1122 1123 1124
f 1122 1124 1125
f 1126 1127 1128
f 1126 1128 1129
f 1130 1131 1132
f 1130 1132 1133
f 1134 1135 1136
f 1134 1136 1137
f 1138 1139 1140
f 1138 1140 1141
f 1142 1143 1144
f 1142 1144 1145
f 1146 1147 1148
f 1146 1148 1149
f 1150 1151 1152
f 1150 1152 1153
f 1154 1155 1156
f 1154 1156 1157
f 1158 1159 1160
f 1158 1160 1161
f 1162 1163 1164
f 1162 1164 1165
f 1166 1167 1168
f 1166 1168 1169
f 1170 1171 1172
f 1170 1172 1173
f 1174 1175 1176
f 1174 1176 1177
f 1178 1179 1180
f 1178 1180 1181
f 1182 1183 1184
f 1182 1184 1185
f 1186 1187 1188
f 1186 1188 1189
f 1190 1191 1192
f 1190 1192 1193
f 1194 1195 1196
f 1194 1196 1197
f 1198 1199 1200
f 1198 1200 1201
f 1202 1203 1204
f 1202 1204 1205
f 1206 1207 1208
f 1206 1208 1209
f 1210 1211 1212
f 1210 1212 1213
