# Baked from official LDraw part 33054.dat
o ldraw_33054
v -0.1847800 -0.6000000 -0.0765400
v -0.1385850 -0.6000000 -0.0574050
v -0.1500000 -0.6000000 0.0000000
v -0.2000000 -0.6000000 0.0000000
v -0.1414200 -0.6000000 -0.1414200
v -0.1060650 -0.6000000 -0.1060650
v -0.1385850 -0.6000000 -0.0574050
v -0.1847800 -0.6000000 -0.0765400
v -0.0765400 -0.6000000 -0.1847800
v -0.0574050 -0.6000000 -0.1385850
v -0.1060650 -0.6000000 -0.1060650
v -0.1414200 -0.6000000 -0.1414200
v 0.0000000 -0.6000000 -0.2000000
v 0.0000000 -0.6000000 -0.1500000
v -0.0574050 -0.6000000 -0.1385850
v -0.0765400 -0.6000000 -0.1847800
v 0.0765400 -0.6000000 -0.1847800
v 0.0574050 -0.6000000 -0.1385850
v 0.0000000 -0.6000000 -0.1500000
v 0.0000000 -0.6000000 -0.2000000
v 0.1414200 -0.6000000 -0.1414200
v 0.1060650 -0.6000000 -0.1060650
v 0.0574050 -0.6000000 -0.1385850
v 0.0765400 -0.6000000 -0.1847800
v 0.1847800 -0.6000000 -0.0765400
v 0.1385850 -0.6000000 -0.0574050
v 0.1060650 -0.6000000 -0.1060650
v 0.1414200 -0.6000000 -0.1414200
v 0.2000000 -0.6000000 0.0000000
v 0.1500000 -0.6000000 0.0000000
v 0.1385850 -0.6000000 -0.0574050
v 0.1847800 -0.6000000 -0.0765400
v 0.1847800 -0.6000000 0.0765400
v 0.1385850 -0.6000000 0.0574050
v 0.1500000 -0.6000000 0.0000000
v 0.2000000 -0.6000000 0.0000000
v 0.1414200 -0.6000000 0.1414200
v 0.1060650 -0.6000000 0.1060650
v 0.1385850 -0.6000000 0.0574050
v 0.1847800 -0.6000000 0.0765400
v 0.0765400 -0.6000000 0.1847800
v 0.0574050 -0.6000000 0.1385850
v 0.1060650 -0.6000000 0.1060650
v 0.1414200 -0.6000000 0.1414200
v 0.0000000 -0.6000000 0.2000000
v 0.0000000 -0.6000000 0.1500000
v 0.0574050 -0.6000000 0.1385850
v 0.0765400 -0.6000000 0.1847800
v -0.0765400 -0.6000000 0.1847800
v -0.0574050 -0.6000000 0.1385850
v 0.0000000 -0.6000000 0.1500000
v 0.0000000 -0.6000000 0.2000000
v -0.1414200 -0.6000000 0.1414200
v -0.1060650 -0.6000000 0.1060650
v -0.0574050 -0.6000000 0.1385850
v -0.0765400 -0.6000000 0.1847800
v -0.1847800 -0.6000000 0.0765400
v -0.1385850 -0.6000000 0.0574050
v -0.1060650 -0.6000000 0.1060650
v -0.1414200 -0.6000000 0.1414200
v -0.2000000 -0.6000000 0.0000000
v -0.1500000 -0.6000000 0.0000000
v -0.1385850 -0.6000000 0.0574050
v -0.1847800 -0.6000000 0.0765400
v 0.0000000 -0.5375000 0.2000000
v -0.0765400 -0.5375000 0.1847800
v -0.0765400 -0.6000000 0.1847800
v 0.0000000 -0.6000000 0.2000000
v -0.0765400 -0.5375000 0.1847800
v -0.1414200 -0.5375000 0.1414200
v -0.1414200 -0.6000000 0.1414200
v -0.0765400 -0.6000000 0.1847800
v -0.1414200 -0.5375000 0.1414200
v -0.1847800 -0.5375000 0.0765400
v -0.1847800 -0.6000000 0.0765400
v -0.1414200 -0.6000000 0.1414200
v -0.1847800 -0.5375000 0.0765400
v -0.2000000 -0.5375000 0.0000000
v -0.2000000 -0.6000000 0.0000000
v -0.1847800 -0.6000000 0.0765400
v -0.2000000 -0.5375000 0.0000000
v -0.1847800 -0.5375000 -0.0765400
v -0.1847800 -0.6000000 -0.0765400
v -0.2000000 -0.6000000 0.0000000
v -0.1847800 -0.5375000 -0.0765400
v -0.1414200 -0.5375000 -0.1414200
v -0.1414200 -0.6000000 -0.1414200
v -0.1847800 -0.6000000 -0.0765400
v -0.1414200 -0.5375000 -0.1414200
v -0.0765400 -0.5375000 -0.1847800
v -0.0765400 -0.6000000 -0.1847800
v -0.1414200 -0.6000000 -0.1414200
v -0.0765400 -0.5375000 -0.1847800
v 0.0000000 -0.5375000 -0.2000000
v 0.0000000 -0.6000000 -0.2000000
v -0.0765400 -0.6000000 -0.1847800
v 0.0000000 -0.5375000 -0.2000000
v 0.0765400 -0.5375000 -0.1847800
v 0.0765400 -0.6000000 -0.1847800
v 0.0000000 -0.6000000 -0.2000000
v 0.0765400 -0.5375000 -0.1847800
v 0.1414200 -0.5375000 -0.1414200
v 0.1414200 -0.6000000 -0.1414200
v 0.0765400 -0.6000000 -0.1847800
v 0.1414200 -0.5375000 -0.1414200
v 0.1847800 -0.5375000 -0.0765400
v 0.1847800 -0.6000000 -0.0765400
v 0.1414200 -0.6000000 -0.1414200
v 0.1847800 -0.5375000 -0.0765400
v 0.2000000 -0.5375000 0.0000000
v 0.2000000 -0.6000000 0.0000000
v 0.1847800 -0.6000000 -0.0765400
v 0.2000000 -0.5375000 0.0000000
v 0.1847800 -0.5375000 0.0765400
v 0.1847800 -0.6000000 0.0765400
v 0.2000000 -0.6000000 0.0000000
v 0.1847800 -0.5375000 0.0765400
v 0.1414200 -0.5375000 0.1414200
v 0.1414200 -0.6000000 0.1414200
v 0.1847800 -0.6000000 0.0765400
v 0.1414200 -0.5375000 0.1414200
v 0.0765400 -0.5375000 0.1847800
v 0.0765400 -0.6000000 0.1847800
v 0.1414200 -0.6000000 0.1414200
v 0.0765400 -0.5375000 0.1847800
v 0.0000000 -0.5375000 0.2000000
v 0.0000000 -0.6000000 0.2000000
v 0.0765400 -0.6000000 0.1847800
v 0.0000000 -0.0250000 0.2750000
v -0.1052425 -0.0250000 0.2540725
v -0.1052425 -0.2250000 0.2540725
v 0.0000000 -0.2250000 0.2750000
v -0.1052425 -0.0250000 0.2540725
v -0.1944525 -0.0250000 0.1944525
v -0.1944525 -0.2250000 0.1944525
v -0.1052425 -0.2250000 0.2540725
v -0.1944525 -0.0250000 0.1944525
v -0.2540725 -0.0250000 0.1052425
v -0.2540725 -0.2250000 0.1052425
v -0.1944525 -0.2250000 0.1944525
v -0.2540725 -0.0250000 0.1052425
v -0.2750000 -0.0250000 0.0000000
v -0.2750000 -0.2250000 0.0000000
v -0.2540725 -0.2250000 0.1052425
v -0.2750000 -0.0250000 0.0000000
v -0.2540725 -0.0250000 -0.1052425
v -0.2540725 -0.2250000 -0.1052425
v -0.2750000 -0.2250000 0.0000000
v -0.2540725 -0.0250000 -0.1052425
v -0.1944525 -0.0250000 -0.1944525
v -0.1944525 -0.2250000 -0.1944525
v -0.2540725 -0.2250000 -0.1052425
v -0.1944525 -0.0250000 -0.1944525
v -0.1052425 -0.0250000 -0.2540725
v -0.1052425 -0.2250000 -0.2540725
v -0.1944525 -0.2250000 -0.1944525
v -0.1052425 -0.0250000 -0.2540725
v 0.0000000 -0.0250000 -0.2750000
v 0.0000000 -0.2250000 -0.2750000
v -0.1052425 -0.2250000 -0.2540725
v 0.0000000 -0.0250000 -0.2750000
v 0.1052425 -0.0250000 -0.2540725
v 0.1052425 -0.2250000 -0.2540725
v 0.0000000 -0.2250000 -0.2750000
v 0.1052425 -0.0250000 -0.2540725
v 0.1944525 -0.0250000 -0.1944525
v 0.1944525 -0.2250000 -0.1944525
v 0.1052425 -0.2250000 -0.2540725
v 0.1944525 -0.0250000 -0.1944525
v 0.2540725 -0.0250000 -0.1052425
v 0.2540725 -0.2250000 -0.1052425
v 0.1944525 -0.2250000 -0.1944525
v 0.2540725 -0.0250000 -0.1052425
v 0.2750000 -0.0250000 0.0000000
v 0.2750000 -0.2250000 0.0000000
v 0.2540725 -0.2250000 -0.1052425
v 0.2750000 -0.0250000 0.0000000
v 0.2540725 -0.0250000 0.1052425
v 0.2540725 -0.2250000 0.1052425
v 0.2750000 -0.2250000 0.0000000
v 0.2540725 -0.0250000 0.1052425
v 0.1944525 -0.0250000 0.1944525
v 0.1944525 -0.2250000 0.1944525
v 0.2540725 -0.2250000 0.1052425
v 0.1944525 -0.0250000 0.1944525
v 0.1052425 -0.0250000 0.2540725
v 0.1052425 -0.2250000 0.2540725
v 0.1944525 -0.2250000 0.1944525
v 0.1052425 -0.0250000 0.2540725
v 0.0000000 -0.0250000 0.2750000
v 0.0000000 -0.2250000 0.2750000
v 0.1052425 -0.2250000 0.2540725
v 0.0000000 -0.1250000 0.2000000
v -0.0765400 -0.1250000 0.1847800
v -0.0765400 -0.0250000 0.1847800
v 0.0000000 -0.0250000 0.2000000
v -0.0765400 -0.1250000 0.1847800
v -0.1414200 -0.1250000 0.1414200
v -0.1414200 -0.0250000 0.1414200
v -0.0765400 -0.0250000 0.1847800
v -0.1414200 -0.1250000 0.1414200
v -0.1847800 -0.1250000 0.0765400
v -0.1847800 -0.0250000 0.0765400
v -0.1414200 -0.0250000 0.1414200
v -0.1847800 -0.1250000 0.0765400
v -0.2000000 -0.1250000 0.0000000
v -0.2000000 -0.0250000 0.0000000
v -0.1847800 -0.0250000 0.0765400
v -0.2000000 -0.1250000 0.0000000
v -0.1847800 -0.1250000 -0.0765400
v -0.1847800 -0.0250000 -0.0765400
v -0.2000000 -0.0250000 0.0000000
v -0.1847800 -0.1250000 -0.0765400
v -0.1414200 -0.1250000 -0.1414200
v -0.1414200 -0.0250000 -0.1414200
v -0.1847800 -0.0250000 -0.0765400
v -0.1414200 -0.1250000 -0.1414200
v -0.0765400 -0.1250000 -0.1847800
v -0.0765400 -0.0250000 -0.1847800
v -0.1414200 -0.0250000 -0.1414200
v -0.0765400 -0.1250000 -0.1847800
v 0.0000000 -0.1250000 -0.2000000
v 0.0000000 -0.0250000 -0.2000000
v -0.0765400 -0.0250000 -0.1847800
v 0.0000000 -0.1250000 -0.2000000
v 0.0765400 -0.1250000 -0.1847800
v 0.0765400 -0.0250000 -0.1847800
v 0.0000000 -0.0250000 -0.2000000
v 0.0765400 -0.1250000 -0.1847800
v 0.1414200 -0.1250000 -0.1414200
v 0.1414200 -0.0250000 -0.1414200
v 0.0765400 -0.0250000 -0.1847800
v 0.1414200 -0.1250000 -0.1414200
v 0.1847800 -0.1250000 -0.0765400
v 0.1847800 -0.0250000 -0.0765400
v 0.1414200 -0.0250000 -0.1414200
v 0.1847800 -0.1250000 -0.0765400
v 0.2000000 -0.1250000 0.0000000
v 0.2000000 -0.0250000 0.0000000
v 0.1847800 -0.0250000 -0.0765400
v 0.2000000 -0.1250000 0.0000000
v 0.1847800 -0.1250000 0.0765400
v 0.1847800 -0.0250000 0.0765400
v 0.2000000 -0.0250000 0.0000000
v 0.1847800 -0.1250000 0.0765400
v 0.1414200 -0.1250000 0.1414200
v 0.1414200 -0.0250000 0.1414200
v 0.1847800 -0.0250000 0.0765400
v 0.1414200 -0.1250000 0.1414200
v 0.0765400 -0.1250000 0.1847800
v 0.0765400 -0.0250000 0.1847800
v 0.1414200 -0.0250000 0.1414200
v 0.0765400 -0.1250000 0.1847800
v 0.0000000 -0.1250000 0.2000000
v 0.0000000 -0.0250000 0.2000000
v 0.0765400 -0.0250000 0.1847800
v 0.0000000 -0.1250000 0.1875000
v -0.0717563 -0.1250000 0.1732313
v -0.0765400 -0.1250000 0.1847800
v 0.0000000 -0.1250000 0.2000000
v -0.0717563 -0.1250000 0.1732313
v -0.1325813 -0.1250000 0.1325813
v -0.1414200 -0.1250000 0.1414200
v -0.0765400 -0.1250000 0.1847800
v -0.1325813 -0.1250000 0.1325813
v -0.1732313 -0.1250000 0.0717563
v -0.1847800 -0.1250000 0.0765400
v -0.1414200 -0.1250000 0.1414200
v -0.1732313 -0.1250000 0.0717563
v -0.1875000 -0.1250000 0.0000000
v -0.2000000 -0.1250000 0.0000000
v -0.1847800 -0.1250000 0.0765400
v -0.1875000 -0.1250000 0.0000000
v -0.1732313 -0.1250000 -0.0717563
v -0.1847800 -0.1250000 -0.0765400
v -0.2000000 -0.1250000 0.0000000
v -0.1732313 -0.1250000 -0.0717563
v -0.1325813 -0.1250000 -0.1325813
v -0.1414200 -0.1250000 -0.1414200
v -0.1847800 -0.1250000 -0.0765400
v -0.1325813 -0.1250000 -0.1325813
v -0.0717563 -0.1250000 -0.1732313
v -0.0765400 -0.1250000 -0.1847800
v -0.1414200 -0.1250000 -0.1414200
v -0.0717563 -0.1250000 -0.1732313
v 0.0000000 -0.1250000 -0.1875000
v 0.0000000 -0.1250000 -0.2000000
v -0.0765400 -0.1250000 -0.1847800
v 0.0000000 -0.1250000 -0.1875000
v 0.0717563 -0.1250000 -0.1732313
v 0.0765400 -0.1250000 -0.1847800
v 0.0000000 -0.1250000 -0.2000000
v 0.0717563 -0.1250000 -0.1732313
v 0.1325813 -0.1250000 -0.1325813
v 0.1414200 -0.1250000 -0.1414200
v 0.0765400 -0.1250000 -0.1847800
v 0.1325813 -0.1250000 -0.1325813
v 0.1732313 -0.1250000 -0.0717563
v 0.1847800 -0.1250000 -0.0765400
v 0.1414200 -0.1250000 -0.1414200
v 0.1732313 -0.1250000 -0.0717563
v 0.1875000 -0.1250000 0.0000000
v 0.2000000 -0.1250000 0.0000000
v 0.1847800 -0.1250000 -0.0765400
v 0.1875000 -0.1250000 0.0000000
v 0.1732313 -0.1250000 0.0717563
v 0.1847800 -0.1250000 0.0765400
v 0.2000000 -0.1250000 0.0000000
v 0.1732313 -0.1250000 0.0717563
v 0.1325813 -0.1250000 0.1325813
v 0.1414200 -0.1250000 0.1414200
v 0.1847800 -0.1250000 0.0765400
v 0.1325813 -0.1250000 0.1325813
v 0.0717563 -0.1250000 0.1732313
v 0.0765400 -0.1250000 0.1847800
v 0.1414200 -0.1250000 0.1414200
v 0.0717563 -0.1250000 0.1732313
v 0.0000000 -0.1250000 0.1875000
v 0.0000000 -0.1250000 0.2000000
v 0.0765400 -0.1250000 0.1847800
v 0.0000000 -0.5137497 0.2287000
v -0.0875200 -0.5137497 0.2113000
v -0.0765400 -0.5374997 0.1847800
v 0.0000000 -0.5374997 0.2000000
v 0.0000000 -0.4459998 0.2530400
v -0.0968400 -0.4459998 0.2337800
v -0.0875200 -0.5137497 0.2113000
v 0.0000000 -0.5137497 0.2287000
v 0.0000000 -0.3445832 0.2693000
v -0.1030600 -0.3445832 0.2488000
v -0.0968400 -0.4459998 0.2337800
v 0.0000000 -0.4459998 0.2530400
v 0.0000000 -0.2250000 0.2750000
v -0.1052400 -0.2250000 0.2540800
v -0.1030600 -0.3445832 0.2488000
v 0.0000000 -0.3445832 0.2693000
v -0.0875200 -0.5137497 0.2113000
v -0.1617200 -0.5137497 0.1617200
v -0.1414200 -0.5374997 0.1414200
v -0.0765400 -0.5374997 0.1847800
v -0.0968400 -0.4459998 0.2337800
v -0.1789200 -0.4459998 0.1789200
v -0.1617200 -0.5137497 0.1617200
v -0.0875200 -0.5137497 0.2113000
v -0.1030600 -0.3445832 0.2488000
v -0.1904200 -0.3445832 0.1904200
v -0.1789200 -0.4459998 0.1789200
v -0.0968400 -0.4459998 0.2337800
v -0.1052400 -0.2250000 0.2540800
v -0.1944600 -0.2250000 0.1944600
v -0.1904200 -0.3445832 0.1904200
v -0.1030600 -0.3445832 0.2488000
v -0.1617200 -0.5137497 0.1617200
v -0.2113000 -0.5137497 0.0875200
v -0.1847800 -0.5374997 0.0765400
v -0.1414200 -0.5374997 0.1414200
v -0.1789200 -0.4459998 0.1789200
v -0.2337800 -0.4459998 0.0968400
v -0.2113000 -0.5137497 0.0875200
v -0.1617200 -0.5137497 0.1617200
v -0.1904200 -0.3445832 0.1904200
v -0.2488000 -0.3445832 0.1030600
v -0.2337800 -0.4459998 0.0968400
v -0.1789200 -0.4459998 0.1789200
v -0.1944600 -0.2250000 0.1944600
v -0.2540800 -0.2250000 0.1052400
v -0.2488000 -0.3445832 0.1030600
v -0.1904200 -0.3445832 0.1904200
v -0.2113000 -0.5137497 0.0875200
v -0.2287000 -0.5137497 0.0000000
v -0.2000000 -0.5374997 0.0000000
v -0.1847800 -0.5374997 0.0765400
v -0.2337800 -0.4459998 0.0968400
v -0.2530400 -0.4459998 0.0000000
v -0.2287000 -0.5137497 0.0000000
v -0.2113000 -0.5137497 0.0875200
v -0.2488000 -0.3445832 0.1030600
v -0.2693000 -0.3445832 0.0000000
v -0.2530400 -0.4459998 0.0000000
v -0.2337800 -0.4459998 0.0968400
v -0.2540800 -0.2250000 0.1052400
v -0.2750000 -0.2250000 0.0000000
v -0.2693000 -0.3445832 0.0000000
v -0.2488000 -0.3445832 0.1030600
v -0.2287000 -0.5137497 0.0000000
v -0.2113000 -0.5137497 -0.0875200
v -0.1847800 -0.5374997 -0.0765400
v -0.2000000 -0.5374997 0.0000000
v -0.2530400 -0.4459998 0.0000000
v -0.2337800 -0.4459998 -0.0968400
v -0.2113000 -0.5137497 -0.0875200
v -0.2287000 -0.5137497 0.0000000
v -0.2693000 -0.3445832 0.0000000
v -0.2488000 -0.3445832 -0.1030600
v -0.2337800 -0.4459998 -0.0968400
v -0.2530400 -0.4459998 0.0000000
v -0.2750000 -0.2250000 0.0000000
v -0.2540800 -0.2250000 -0.1052400
v -0.2488000 -0.3445832 -0.1030600
v -0.2693000 -0.3445832 0.0000000
v -0.2113000 -0.5137497 -0.0875200
v -0.1617200 -0.5137497 -0.1617200
v -0.1414200 -0.5374997 -0.1414200
v -0.1847800 -0.5374997 -0.0765400
v -0.2337800 -0.4459998 -0.0968400
v -0.1789200 -0.4459998 -0.1789200
v -0.1617200 -0.5137497 -0.1617200
v -0.2113000 -0.5137497 -0.0875200
v -0.2488000 -0.3445832 -0.1030600
v -0.1904200 -0.3445832 -0.1904200
v -0.1789200 -0.4459998 -0.1789200
v -0.2337800 -0.4459998 -0.0968400
v -0.2540800 -0.2250000 -0.1052400
v -0.1944600 -0.2250000 -0.1944600
v -0.1904200 -0.3445832 -0.1904200
v -0.2488000 -0.3445832 -0.1030600
v -0.1617200 -0.5137497 -0.1617200
v -0.0875200 -0.5137497 -0.2113000
v -0.0765400 -0.5374997 -0.1847800
v -0.1414200 -0.5374997 -0.1414200
v -0.1789200 -0.4459998 -0.1789200
v -0.0968400 -0.4459998 -0.2337800
v -0.0875200 -0.5137497 -0.2113000
v -0.1617200 -0.5137497 -0.1617200
v -0.1904200 -0.3445832 -0.1904200
v -0.1030600 -0.3445832 -0.2488000
v -0.0968400 -0.4459998 -0.2337800
v -0.1789200 -0.4459998 -0.1789200
v -0.1944600 -0.2250000 -0.1944600
v -0.1052400 -0.2250000 -0.2540800
v -0.1030600 -0.3445832 -0.2488000
v -0.1904200 -0.3445832 -0.1904200
v -0.0875200 -0.5137497 -0.2113000
v 0.0000000 -0.5137497 -0.2287000
v 0.0000000 -0.5374997 -0.2000000
v -0.0765400 -0.5374997 -0.1847800
v -0.0968400 -0.4459998 -0.2337800
v 0.0000000 -0.4459998 -0.2530400
v 0.0000000 -0.5137497 -0.2287000
v -0.0875200 -0.5137497 -0.2113000
v -0.1030600 -0.3445832 -0.2488000
v 0.0000000 -0.3445832 -0.2693000
v 0.0000000 -0.4459998 -0.2530400
v -0.0968400 -0.4459998 -0.2337800
v -0.1052400 -0.2250000 -0.2540800
v 0.0000000 -0.2250000 -0.2750000
v 0.0000000 -0.3445832 -0.2693000
v -0.1030600 -0.3445832 -0.2488000
v 0.0000000 -0.5137497 -0.2287000
v 0.0875200 -0.5137497 -0.2113000
v 0.0765400 -0.5374997 -0.1847800
v 0.0000000 -0.5374997 -0.2000000
v 0.0000000 -0.4459998 -0.2530400
v 0.0968400 -0.4459998 -0.2337800
v 0.0875200 -0.5137497 -0.2113000
v 0.0000000 -0.5137497 -0.2287000
v 0.0000000 -0.3445832 -0.2693000
v 0.1030600 -0.3445832 -0.2488000
v 0.0968400 -0.4459998 -0.2337800
v 0.0000000 -0.4459998 -0.2530400
v 0.0000000 -0.2250000 -0.2750000
v 0.1052400 -0.2250000 -0.2540800
v 0.1030600 -0.3445832 -0.2488000
v 0.0000000 -0.3445832 -0.2693000
v 0.0875200 -0.5137497 -0.2113000
v 0.1617200 -0.5137497 -0.1617200
v 0.1414200 -0.5374997 -0.1414200
v 0.0765400 -0.5374997 -0.1847800
v 0.0968400 -0.4459998 -0.2337800
v 0.1789200 -0.4459998 -0.1789200
v 0.1617200 -0.5137497 -0.1617200
v 0.0875200 -0.5137497 -0.2113000
v 0.1030600 -0.3445832 -0.2488000
v 0.1904200 -0.3445832 -0.1904200
v 0.1789200 -0.4459998 -0.1789200
v 0.0968400 -0.4459998 -0.2337800
v 0.1052400 -0.2250000 -0.2540800
v 0.1944600 -0.2250000 -0.1944600
v 0.1904200 -0.3445832 -0.1904200
v 0.1030600 -0.3445832 -0.2488000
v 0.1617200 -0.5137497 -0.1617200
v 0.2113000 -0.5137497 -0.0875200
v 0.1847800 -0.5374997 -0.0765400
v 0.1414200 -0.5374997 -0.1414200
v 0.1789200 -0.4459998 -0.1789200
v 0.2337800 -0.4459998 -0.0968400
v 0.2113000 -0.5137497 -0.0875200
v 0.1617200 -0.5137497 -0.1617200
v 0.1904200 -0.3445832 -0.1904200
v 0.2488000 -0.3445832 -0.1030600
v 0.2337800 -0.4459998 -0.0968400
v 0.1789200 -0.4459998 -0.1789200
v 0.1944600 -0.2250000 -0.1944600
v 0.2540800 -0.2250000 -0.1052400
v 0.2488000 -0.3445832 -0.1030600
v 0.1904200 -0.3445832 -0.1904200
v 0.2113000 -0.5137497 -0.0875200
v 0.2287000 -0.5137497 0.0000000
v 0.2000000 -0.5374997 0.0000000
v 0.1847800 -0.5374997 -0.0765400
v 0.2337800 -0.4459998 -0.0968400
v 0.2530400 -0.4459998 0.0000000
v 0.2287000 -0.5137497 0.0000000
v 0.2113000 -0.5137497 -0.0875200
v 0.2488000 -0.3445832 -0.1030600
v 0.2693000 -0.3445832 0.0000000
v 0.2530400 -0.4459998 0.0000000
v 0.2337800 -0.4459998 -0.0968400
v 0.2540800 -0.2250000 -0.1052400
v 0.2750000 -0.2250000 0.0000000
v 0.2693000 -0.3445832 0.0000000
v 0.2488000 -0.3445832 -0.1030600
v 0.2287000 -0.5137497 0.0000000
v 0.2113000 -0.5137497 0.0875200
v 0.1847800 -0.5374997 0.0765400
v 0.2000000 -0.5374997 0.0000000
v 0.2530400 -0.4459998 0.0000000
v 0.2337800 -0.4459998 0.0968400
v 0.2113000 -0.5137497 0.0875200
v 0.2287000 -0.5137497 0.0000000
v 0.2693000 -0.3445832 0.0000000
v 0.2488000 -0.3445832 0.1030600
v 0.2337800 -0.4459998 0.0968400
v 0.2530400 -0.4459998 0.0000000
v 0.2750000 -0.2250000 0.0000000
v 0.2540800 -0.2250000 0.1052400
v 0.2488000 -0.3445832 0.1030600
v 0.2693000 -0.3445832 0.0000000
v 0.2113000 -0.5137497 0.0875200
v 0.1617200 -0.5137497 0.1617200
v 0.1414200 -0.5374997 0.1414200
v 0.1847800 -0.5374997 0.0765400
v 0.2337800 -0.4459998 0.0968400
v 0.1789200 -0.4459998 0.1789200
v 0.1617200 -0.5137497 0.1617200
v 0.2113000 -0.5137497 0.0875200
v 0.2488000 -0.3445832 0.1030600
v 0.1904200 -0.3445832 0.1904200
v 0.1789200 -0.4459998 0.1789200
v 0.2337800 -0.4459998 0.0968400
v 0.2540800 -0.2250000 0.1052400
v 0.1944600 -0.2250000 0.1944600
v 0.1904200 -0.3445832 0.1904200
v 0.2488000 -0.3445832 0.1030600
v 0.1617200 -0.5137497 0.1617200
v 0.0875200 -0.5137497 0.2113000
v 0.0765400 -0.5374997 0.1847800
v 0.1414200 -0.5374997 0.1414200
v 0.1789200 -0.4459998 0.1789200
v 0.0968400 -0.4459998 0.2337800
v 0.0875200 -0.5137497 0.2113000
v 0.1617200 -0.5137497 0.1617200
v 0.1904200 -0.3445832 0.1904200
v 0.1030600 -0.3445832 0.2488000
v 0.0968400 -0.4459998 0.2337800
v 0.1789200 -0.4459998 0.1789200
v 0.1944600 -0.2250000 0.1944600
v 0.1052400 -0.2250000 0.2540800
v 0.1030600 -0.3445832 0.2488000
v 0.1904200 -0.3445832 0.1904200
v 0.0875200 -0.5137497 0.2113000
v 0.0000000 -0.5137497 0.2287000
v 0.0000000 -0.5374997 0.2000000
v 0.0765400 -0.5374997 0.1847800
v 0.0968400 -0.4459998 0.2337800
v 0.0000000 -0.4459998 0.2530400
v 0.0000000 -0.5137497 0.2287000
v 0.0875200 -0.5137497 0.2113000
v 0.1030600 -0.3445832 0.2488000
v 0.0000000 -0.3445832 0.2693000
v 0.0000000 -0.4459998 0.2530400
v 0.0968400 -0.4459998 0.2337800
v 0.1052400 -0.2250000 0.2540800
v 0.0000000 -0.2250000 0.2750000
v 0.0000000 -0.3445832 0.2693000
v 0.1030600 -0.3445832 0.2488000
v 0.0000000 -0.4750000 0.0000000
v 0.0000000 -0.4750000 0.1500000
v -0.0574050 -0.4750000 0.1385850
v 0.0000000 -0.4750000 0.0000000
v -0.0574050 -0.4750000 0.1385850
v -0.1060650 -0.4750000 0.1060650
v 0.0000000 -0.4750000 0.0000000
v -0.1060650 -0.4750000 0.1060650
v -0.1385850 -0.4750000 0.0574050
v 0.0000000 -0.4750000 0.0000000
v -0.1385850 -0.4750000 0.0574050
v -0.1500000 -0.4750000 0.0000000
v 0.0000000 -0.4750000 0.0000000
v -0.1500000 -0.4750000 0.0000000
v -0.1385850 -0.4750000 -0.0574050
v 0.0000000 -0.4750000 0.0000000
v -0.1385850 -0.4750000 -0.0574050
v -0.1060650 -0.4750000 -0.1060650
v 0.0000000 -0.4750000 0.0000000
v -0.1060650 -0.4750000 -0.1060650
v -0.0574050 -0.4750000 -0.1385850
v 0.0000000 -0.4750000 0.0000000
v -0.0574050 -0.4750000 -0.1385850
v 0.0000000 -0.4750000 -0.1500000
v 0.0000000 -0.4750000 0.0000000
v 0.0000000 -0.4750000 -0.1500000
v 0.0574050 -0.4750000 -0.1385850
v 0.0000000 -0.4750000 0.0000000
v 0.0574050 -0.4750000 -0.1385850
v 0.1060650 -0.4750000 -0.1060650
v 0.0000000 -0.4750000 0.0000000
v 0.1060650 -0.4750000 -0.1060650
v 0.1385850 -0.4750000 -0.0574050
v 0.0000000 -0.4750000 0.0000000
v 0.1385850 -0.4750000 -0.0574050
v 0.1500000 -0.4750000 0.0000000
v 0.0000000 -0.4750000 0.0000000
v 0.1500000 -0.4750000 0.0000000
v 0.1385850 -0.4750000 0.0574050
v 0.0000000 -0.4750000 0.0000000
v 0.1385850 -0.4750000 0.0574050
v 0.1060650 -0.4750000 0.1060650
v 0.0000000 -0.4750000 0.0000000
v 0.1060650 -0.4750000 0.1060650
v 0.0574050 -0.4750000 0.1385850
v 0.0000000 -0.4750000 0.0000000
v 0.0574050 -0.4750000 0.1385850
v 0.0000000 -0.4750000 0.1500000
v 0.0000000 -0.6000000 0.1500000
v -0.0574050 -0.6000000 0.1385850
v -0.0574050 -0.4750000 0.1385850
v 0.0000000 -0.4750000 0.1500000
v -0.0574050 -0.6000000 0.1385850
v -0.1060650 -0.6000000 0.1060650
v -0.1060650 -0.4750000 0.1060650
v -0.0574050 -0.4750000 0.1385850
v -0.1060650 -0.6000000 0.1060650
v -0.1385850 -0.6000000 0.0574050
v -0.1385850 -0.4750000 0.0574050
v -0.1060650 -0.4750000 0.1060650
v -0.1385850 -0.6000000 0.0574050
v -0.1500000 -0.6000000 0.0000000
v -0.1500000 -0.4750000 0.0000000
v -0.1385850 -0.4750000 0.0574050
v -0.1500000 -0.6000000 0.0000000
v -0.1385850 -0.6000000 -0.0574050
v -0.1385850 -0.4750000 -0.0574050
v -0.1500000 -0.4750000 0.0000000
v -0.1385850 -0.6000000 -0.0574050
v -0.1060650 -0.6000000 -0.1060650
v -0.1060650 -0.4750000 -0.1060650
v -0.1385850 -0.4750000 -0.0574050
v -0.1060650 -0.6000000 -0.1060650
v -0.0574050 -0.6000000 -0.1385850
v -0.0574050 -0.4750000 -0.1385850
v -0.1060650 -0.4750000 -0.1060650
v -0.0574050 -0.6000000 -0.1385850
v 0.0000000 -0.6000000 -0.1500000
v 0.0000000 -0.4750000 -0.1500000
v -0.0574050 -0.4750000 -0.1385850
v 0.0000000 -0.6000000 -0.1500000
v 0.0574050 -0.6000000 -0.1385850
v 0.0574050 -0.4750000 -0.1385850
v 0.0000000 -0.4750000 -0.1500000
v 0.0574050 -0.6000000 -0.1385850
v 0.1060650 -0.6000000 -0.1060650
v 0.1060650 -0.4750000 -0.1060650
v 0.0574050 -0.4750000 -0.1385850
v 0.1060650 -0.6000000 -0.1060650
v 0.1385850 -0.6000000 -0.0574050
v 0.1385850 -0.4750000 -0.0574050
v 0.1060650 -0.4750000 -0.1060650
v 0.1385850 -0.6000000 -0.0574050
v 0.1500000 -0.6000000 0.0000000
v 0.1500000 -0.4750000 0.0000000
v 0.1385850 -0.4750000 -0.0574050
v 0.1500000 -0.6000000 0.0000000
v 0.1385850 -0.6000000 0.0574050
v 0.1385850 -0.4750000 0.0574050
v 0.1500000 -0.4750000 0.0000000
v 0.1385850 -0.6000000 0.0574050
v 0.1060650 -0.6000000 0.1060650
v 0.1060650 -0.4750000 0.1060650
v 0.1385850 -0.4750000 0.0574050
v 0.1060650 -0.6000000 0.1060650
v 0.0574050 -0.6000000 0.1385850
v 0.0574050 -0.4750000 0.1385850
v 0.1060650 -0.4750000 0.1060650
v 0.0574050 -0.6000000 0.1385850
v 0.0000000 -0.6000000 0.1500000
v 0.0000000 -0.4750000 0.1500000
v 0.0574050 -0.4750000 0.1385850
v -0.0717563 -0.4250000 0.1732313
v 0.0000000 -0.4250000 0.1875000
v 0.0000000 -0.4250000 0.0000000
v -0.1325812 -0.4250000 0.1325812
v -0.0717563 -0.4250000 0.1732313
v 0.0000000 -0.4250000 0.0000000
v -0.1732313 -0.4250000 0.0717563
v -0.1325812 -0.4250000 0.1325812
v 0.0000000 -0.4250000 0.0000000
v -0.1875000 -0.4250000 0.0000000
v -0.1732313 -0.4250000 0.0717563
v 0.0000000 -0.4250000 0.0000000
v -0.1732313 -0.4250000 -0.0717563
v -0.1875000 -0.4250000 0.0000000
v 0.0000000 -0.4250000 0.0000000
v -0.1325812 -0.4250000 -0.1325812
v -0.1732313 -0.4250000 -0.0717563
v 0.0000000 -0.4250000 0.0000000
v -0.0717563 -0.4250000 -0.1732313
v -0.1325812 -0.4250000 -0.1325812
v 0.0000000 -0.4250000 0.0000000
v 0.0000000 -0.4250000 -0.1875000
v -0.0717563 -0.4250000 -0.1732313
v 0.0000000 -0.4250000 0.0000000
v 0.0717563 -0.4250000 -0.1732313
v 0.0000000 -0.4250000 -0.1875000
v 0.0000000 -0.4250000 0.0000000
v 0.1325812 -0.4250000 -0.1325812
v 0.0717563 -0.4250000 -0.1732313
v 0.0000000 -0.4250000 0.0000000
v 0.1732313 -0.4250000 -0.0717563
v 0.1325812 -0.4250000 -0.1325812
v 0.0000000 -0.4250000 0.0000000
v 0.1875000 -0.4250000 0.0000000
v 0.1732313 -0.4250000 -0.0717563
v 0.0000000 -0.4250000 0.0000000
v 0.1732313 -0.4250000 0.0717563
v 0.1875000 -0.4250000 0.0000000
v 0.0000000 -0.4250000 0.0000000
v 0.1325812 -0.4250000 0.1325812
v 0.1732313 -0.4250000 0.0717563
v 0.0000000 -0.4250000 0.0000000
v 0.0717563 -0.4250000 0.1732313
v 0.1325812 -0.4250000 0.1325812
v 0.0000000 -0.4250000 0.0000000
v 0.0000000 -0.4250000 0.1875000
v 0.0717563 -0.4250000 0.1732313
v 0.0000000 -0.4250000 0.0000000
v 0.0000000 -0.4250000 0.1875000
v -0.0717563 -0.4250000 0.1732313
v -0.0717563 -0.1250000 0.1732313
v 0.0000000 -0.1250000 0.1875000
v -0.0717563 -0.4250000 0.1732313
v -0.1325812 -0.4250000 0.1325812
v -0.1325812 -0.1250000 0.1325812
v -0.0717563 -0.1250000 0.1732313
v -0.1325812 -0.4250000 0.1325812
v -0.1732313 -0.4250000 0.0717563
v -0.1732313 -0.1250000 0.0717563
v -0.1325812 -0.1250000 0.1325812
v -0.1732313 -0.4250000 0.0717563
v -0.1875000 -0.4250000 0.0000000
v -0.1875000 -0.1250000 0.0000000
v -0.1732313 -0.1250000 0.0717563
v -0.1875000 -0.4250000 0.0000000
v -0.1732313 -0.4250000 -0.0717563
v -0.1732313 -0.1250000 -0.0717563
v -0.1875000 -0.1250000 0.0000000
v -0.1732313 -0.4250000 -0.0717563
v -0.1325812 -0.4250000 -0.1325812
v -0.1325812 -0.1250000 -0.1325812
v -0.1732313 -0.1250000 -0.0717563
v -0.1325812 -0.4250000 -0.1325812
v -0.0717563 -0.4250000 -0.1732313
v -0.0717563 -0.1250000 -0.1732313
v -0.1325812 -0.1250000 -0.1325812
v -0.0717563 -0.4250000 -0.1732313
v 0.0000000 -0.4250000 -0.1875000
v 0.0000000 -0.1250000 -0.1875000
v -0.0717563 -0.1250000 -0.1732313
v 0.0000000 -0.4250000 -0.1875000
v 0.0717563 -0.4250000 -0.1732313
v 0.0717563 -0.1250000 -0.1732313
v 0.0000000 -0.1250000 -0.1875000
v 0.0717563 -0.4250000 -0.1732313
v 0.1325812 -0.4250000 -0.1325812
v 0.1325812 -0.1250000 -0.1325812
v 0.0717563 -0.1250000 -0.1732313
v 0.1325812 -0.4250000 -0.1325812
v 0.1732313 -0.4250000 -0.0717563
v 0.1732313 -0.1250000 -0.0717563
v 0.1325812 -0.1250000 -0.1325812
v 0.1732313 -0.4250000 -0.0717563
v 0.1875000 -0.4250000 0.0000000
v 0.1875000 -0.1250000 0.0000000
v 0.1732313 -0.1250000 -0.0717563
v 0.1875000 -0.4250000 0.0000000
v 0.1732313 -0.4250000 0.0717563
v 0.1732313 -0.1250000 0.0717563
v 0.1875000 -0.1250000 0.0000000
v 0.1732313 -0.4250000 0.0717563
v 0.1325812 -0.4250000 0.1325812
v 0.1325812 -0.1250000 0.1325812
v 0.1732313 -0.1250000 0.0717563
v 0.1325812 -0.4250000 0.1325812
v 0.0717563 -0.4250000 0.1732313
v 0.0717563 -0.1250000 0.1732313
v 0.1325812 -0.1250000 0.1325812
v 0.0717563 -0.4250000 0.1732313
v 0.0000000 -0.4250000 0.1875000
v 0.0000000 -0.1250000 0.1875000
v 0.0717563 -0.1250000 0.1732313
v 0.0000000 -0.0250000 0.1999988
v -0.0765462 -0.0250000 0.1847750
v -0.0776388 -0.0154367 0.1874113
v 0.0000000 -0.0154367 0.2028487
v 0.0000000 -0.0154367 0.2028487
v -0.0776388 -0.0154367 0.1874113
v -0.0807500 -0.0073300 0.1949163
v 0.0000000 -0.0073300 0.2109950
v 0.0000000 -0.0073300 0.2109950
v -0.0807500 -0.0073300 0.1949163
v -0.0854050 -0.0018992 0.2061738
v 0.0000000 -0.0018992 0.2231550
v 0.0000000 -0.0018992 0.2231550
v -0.0854050 -0.0018992 0.2061738
v -0.0908913 0.0000008 0.2194263
v 0.0000000 0.0000008 0.2375000
v -0.0765462 -0.0250000 0.1847750
v -0.1414313 -0.0250000 0.1414313
v -0.1434263 -0.0154367 0.1434263
v -0.0776388 -0.0154367 0.1874113
v -0.0776388 -0.0154367 0.1874113
v -0.1434263 -0.0154367 0.1434263
v -0.1491975 -0.0073300 0.1491975
v -0.0807500 -0.0073300 0.1949163
v -0.0807500 -0.0073300 0.1949163
v -0.1491975 -0.0073300 0.1491975
v -0.1577950 -0.0018992 0.1577950
v -0.0854050 -0.0018992 0.2061738
v -0.0854050 -0.0018992 0.2061738
v -0.1577950 -0.0018992 0.1577950
v -0.1679363 0.0000008 0.1679363
v -0.0908913 0.0000008 0.2194263
v -0.1414313 -0.0250000 0.1414313
v -0.1847750 -0.0250000 0.0765462
v -0.1874113 -0.0154367 0.0776388
v -0.1434263 -0.0154367 0.1434263
v -0.1434263 -0.0154367 0.1434263
v -0.1874113 -0.0154367 0.0776388
v -0.1949163 -0.0073300 0.0807500
v -0.1491975 -0.0073300 0.1491975
v -0.1491975 -0.0073300 0.1491975
v -0.1949163 -0.0073300 0.0807500
v -0.2061738 -0.0018992 0.0854050
v -0.1577950 -0.0018992 0.1577950
v -0.1577950 -0.0018992 0.1577950
v -0.2061738 -0.0018992 0.0854050
v -0.2194263 0.0000008 0.0908913
v -0.1679363 0.0000008 0.1679363
v -0.1847750 -0.0250000 0.0765462
v -0.1999988 -0.0250000 0.0000000
v -0.2028487 -0.0154367 0.0000000
v -0.1874113 -0.0154367 0.0776388
v -0.1874113 -0.0154367 0.0776388
v -0.2028487 -0.0154367 0.0000000
v -0.2109950 -0.0073300 0.0000000
v -0.1949163 -0.0073300 0.0807500
v -0.1949163 -0.0073300 0.0807500
v -0.2109950 -0.0073300 0.0000000
v -0.2231550 -0.0018992 0.0000000
v -0.2061738 -0.0018992 0.0854050
v -0.2061738 -0.0018992 0.0854050
v -0.2231550 -0.0018992 0.0000000
v -0.2375000 0.0000008 0.0000000
v -0.2194263 0.0000008 0.0908913
v -0.1999988 -0.0250000 0.0000000
v -0.1847750 -0.0250000 -0.0765462
v -0.1874113 -0.0154367 -0.0776388
v -0.2028487 -0.0154367 0.0000000
v -0.2028487 -0.0154367 0.0000000
v -0.1874113 -0.0154367 -0.0776388
v -0.1949163 -0.0073300 -0.0807500
v -0.2109950 -0.0073300 0.0000000
v -0.2109950 -0.0073300 0.0000000
v -0.1949163 -0.0073300 -0.0807500
v -0.2061738 -0.0018992 -0.0854050
v -0.2231550 -0.0018992 0.0000000
v -0.2231550 -0.0018992 0.0000000
v -0.2061738 -0.0018992 -0.0854050
v -0.2194263 0.0000008 -0.0908913
v -0.2375000 0.0000008 0.0000000
v -0.1847750 -0.0250000 -0.0765462
v -0.1414313 -0.0250000 -0.1414313
v -0.1434263 -0.0154367 -0.1434263
v -0.1874113 -0.0154367 -0.0776388
v -0.1874113 -0.0154367 -0.0776388
v -0.1434263 -0.0154367 -0.1434263
v -0.1491975 -0.0073300 -0.1491975
v -0.1949163 -0.0073300 -0.0807500
v -0.1949163 -0.0073300 -0.0807500
v -0.1491975 -0.0073300 -0.1491975
v -0.1577950 -0.0018992 -0.1577950
v -0.2061738 -0.0018992 -0.0854050
v -0.2061738 -0.0018992 -0.0854050
v -0.1577950 -0.0018992 -0.1577950
v -0.1679363 0.0000008 -0.1679363
v -0.2194263 0.0000008 -0.0908913
v -0.1414313 -0.0250000 -0.1414313
v -0.0765462 -0.0250000 -0.1847750
v -0.0776388 -0.0154367 -0.1874113
v -0.1434263 -0.0154367 -0.1434263
v -0.1434263 -0.0154367 -0.1434263
v -0.0776388 -0.0154367 -0.1874113
v -0.0807500 -0.0073300 -0.1949163
v -0.1491975 -0.0073300 -0.1491975
v -0.1491975 -0.0073300 -0.1491975
v -0.0807500 -0.0073300 -0.1949163
v -0.0854050 -0.0018992 -0.2061738
v -0.1577950 -0.0018992 -0.1577950
v -0.1577950 -0.0018992 -0.1577950
v -0.0854050 -0.0018992 -0.2061738
v -0.0908913 0.0000008 -0.2194263
v -0.1679363 0.0000008 -0.1679363
v -0.0765462 -0.0250000 -0.1847750
v 0.0000000 -0.0250000 -0.1999988
v 0.0000000 -0.0154367 -0.2028487
v -0.0776388 -0.0154367 -0.1874113
v -0.0776388 -0.0154367 -0.1874113
v 0.0000000 -0.0154367 -0.2028487
v 0.0000000 -0.0073300 -0.2109950
v -0.0807500 -0.0073300 -0.1949163
v -0.0807500 -0.0073300 -0.1949163
v 0.0000000 -0.0073300 -0.2109950
v 0.0000000 -0.0018992 -0.2231550
v -0.0854050 -0.0018992 -0.2061738
v -0.0854050 -0.0018992 -0.2061738
v 0.0000000 -0.0018992 -0.2231550
v 0.0000000 0.0000008 -0.2375000
v -0.0908913 0.0000008 -0.2194263
v 0.0000000 -0.0250000 -0.1999988
v 0.0765462 -0.0250000 -0.1847750
v 0.0776388 -0.0154367 -0.1874113
v 0.0000000 -0.0154367 -0.2028487
v 0.0000000 -0.0154367 -0.2028487
v 0.0776388 -0.0154367 -0.1874113
v 0.0807500 -0.0073300 -0.1949163
v 0.0000000 -0.0073300 -0.2109950
v 0.0000000 -0.0073300 -0.2109950
v 0.0807500 -0.0073300 -0.1949163
v 0.0854050 -0.0018992 -0.2061738
v 0.0000000 -0.0018992 -0.2231550
v 0.0000000 -0.0018992 -0.2231550
v 0.0854050 -0.0018992 -0.2061738
v 0.0908913 0.0000008 -0.2194263
v 0.0000000 0.0000008 -0.2375000
v 0.0765462 -0.0250000 -0.1847750
v 0.1414313 -0.0250000 -0.1414313
v 0.1434263 -0.0154367 -0.1434263
v 0.0776388 -0.0154367 -0.1874113
v 0.0776388 -0.0154367 -0.1874113
v 0.1434263 -0.0154367 -0.1434263
v 0.1491975 -0.0073300 -0.1491975
v 0.0807500 -0.0073300 -0.1949163
v 0.0807500 -0.0073300 -0.1949163
v 0.1491975 -0.0073300 -0.1491975
v 0.1577950 -0.0018992 -0.1577950
v 0.0854050 -0.0018992 -0.2061738
v 0.0854050 -0.0018992 -0.2061738
v 0.1577950 -0.0018992 -0.1577950
v 0.1679363 0.0000008 -0.1679363
v 0.0908913 0.0000008 -0.2194263
v 0.1414313 -0.0250000 -0.1414313
v 0.1847750 -0.0250000 -0.0765462
v 0.1874113 -0.0154367 -0.0776388
v 0.1434263 -0.0154367 -0.1434263
v 0.1434263 -0.0154367 -0.1434263
v 0.1874113 -0.0154367 -0.0776388
v 0.1949163 -0.0073300 -0.0807500
v 0.1491975 -0.0073300 -0.1491975
v 0.1491975 -0.0073300 -0.1491975
v 0.1949163 -0.0073300 -0.0807500
v 0.2061738 -0.0018992 -0.0854050
v 0.1577950 -0.0018992 -0.1577950
v 0.1577950 -0.0018992 -0.1577950
v 0.2061738 -0.0018992 -0.0854050
v 0.2194263 0.0000008 -0.0908913
v 0.1679363 0.0000008 -0.1679363
v 0.1847750 -0.0250000 -0.0765462
v 0.1999988 -0.0250000 0.0000000
v 0.2028487 -0.0154367 0.0000000
v 0.1874113 -0.0154367 -0.0776388
v 0.1874113 -0.0154367 -0.0776388
v 0.2028487 -0.0154367 0.0000000
v 0.2109950 -0.0073300 0.0000000
v 0.1949163 -0.0073300 -0.0807500
v 0.1949163 -0.0073300 -0.0807500
v 0.2109950 -0.0073300 0.0000000
v 0.2231550 -0.0018992 0.0000000
v 0.2061738 -0.0018992 -0.0854050
v 0.2061738 -0.0018992 -0.0854050
v 0.2231550 -0.0018992 0.0000000
v 0.2375000 0.0000008 0.0000000
v 0.2194263 0.0000008 -0.0908913
v 0.1999988 -0.0250000 0.0000000
v 0.1847750 -0.0250000 0.0765462
v 0.1874113 -0.0154367 0.0776388
v 0.2028487 -0.0154367 0.0000000
v 0.2028487 -0.0154367 0.0000000
v 0.1874113 -0.0154367 0.0776388
v 0.1949163 -0.0073300 0.0807500
v 0.2109950 -0.0073300 0.0000000
v 0.2109950 -0.0073300 0.0000000
v 0.1949163 -0.0073300 0.0807500
v 0.2061738 -0.0018992 0.0854050
v 0.2231550 -0.0018992 0.0000000
v 0.2231550 -0.0018992 0.0000000
v 0.2061738 -0.0018992 0.0854050
v 0.2194263 0.0000008 0.0908913
v 0.2375000 0.0000008 0.0000000
v 0.1847750 -0.0250000 0.0765462
v 0.1414313 -0.0250000 0.1414313
v 0.1434263 -0.0154367 0.1434263
v 0.1874113 -0.0154367 0.0776388
v 0.1874113 -0.0154367 0.0776388
v 0.1434263 -0.0154367 0.1434263
v 0.1491975 -0.0073300 0.1491975
v 0.1949163 -0.0073300 0.0807500
v 0.1949163 -0.0073300 0.0807500
v 0.1491975 -0.0073300 0.1491975
v 0.1577950 -0.0018992 0.1577950
v 0.2061738 -0.0018992 0.0854050
v 0.2061738 -0.0018992 0.0854050
v 0.1577950 -0.0018992 0.1577950
v 0.1679363 0.0000008 0.1679363
v 0.2194263 0.0000008 0.0908913
v 0.1414313 -0.0250000 0.1414313
v 0.0765462 -0.0250000 0.1847750
v 0.0776388 -0.0154367 0.1874113
v 0.1434263 -0.0154367 0.1434263
v 0.1434263 -0.0154367 0.1434263
v 0.0776388 -0.0154367 0.1874113
v 0.0807500 -0.0073300 0.1949163
v 0.1491975 -0.0073300 0.1491975
v 0.1491975 -0.0073300 0.1491975
v 0.0807500 -0.0073300 0.1949163
v 0.0854050 -0.0018992 0.2061738
v 0.1577950 -0.0018992 0.1577950
v 0.1577950 -0.0018992 0.1577950
v 0.0854050 -0.0018992 0.2061738
v 0.0908913 0.0000008 0.2194263
v 0.1679363 0.0000008 0.1679363
v 0.0765462 -0.0250000 0.1847750
v 0.0000000 -0.0250000 0.1999988
v 0.0000000 -0.0154367 0.2028487
v 0.0776388 -0.0154367 0.1874113
v 0.0776388 -0.0154367 0.1874113
v 0.0000000 -0.0154367 0.2028487
v 0.0000000 -0.0073300 0.2109950
v 0.0807500 -0.0073300 0.1949163
v 0.0807500 -0.0073300 0.1949163
v 0.0000000 -0.0073300 0.2109950
v 0.0000000 -0.0018992 0.2231550
v 0.0854050 -0.0018992 0.2061738
v 0.0854050 -0.0018992 0.2061738
v 0.0000000 -0.0018992 0.2231550
v 0.0000000 0.0000008 0.2375000
v 0.0908913 0.0000008 0.2194263
v 0.0000000 0.0000008 0.2375000
v -0.0908913 0.0000008 0.2194263
v -0.0963775 -0.0018992 0.2326788
v 0.0000000 -0.0018992 0.2518450
v 0.0000000 -0.0018992 0.2518450
v -0.0963775 -0.0018992 0.2326788
v -0.1010325 -0.0073300 0.2439362
v 0.0000000 -0.0073300 0.2640050
v 0.0000000 -0.0073300 0.2640050
v -0.1010325 -0.0073300 0.2439362
v -0.1041438 -0.0154367 0.2514413
v 0.0000000 -0.0154367 0.2721513
v 0.0000000 -0.0154367 0.2721513
v -0.1041438 -0.0154367 0.2514413
v -0.1052363 -0.0250000 0.2540775
v 0.0000000 -0.0250000 0.2750013
v -0.0908913 0.0000008 0.2194263
v -0.1679363 0.0000008 0.1679363
v -0.1780775 -0.0018992 0.1780775
v -0.0963775 -0.0018992 0.2326788
v -0.0963775 -0.0018992 0.2326788
v -0.1780775 -0.0018992 0.1780775
v -0.1866750 -0.0073300 0.1866750
v -0.1010325 -0.0073300 0.2439362
v -0.1010325 -0.0073300 0.2439362
v -0.1866750 -0.0073300 0.1866750
v -0.1924463 -0.0154367 0.1924463
v -0.1041438 -0.0154367 0.2514413
v -0.1041438 -0.0154367 0.2514413
v -0.1924463 -0.0154367 0.1924463
v -0.1944413 -0.0250000 0.1944413
v -0.1052363 -0.0250000 0.2540775
v -0.1679363 0.0000008 0.1679363
v -0.2194263 0.0000008 0.0908913
v -0.2326788 -0.0018992 0.0963775
v -0.1780775 -0.0018992 0.1780775
v -0.1780775 -0.0018992 0.1780775
v -0.2326788 -0.0018992 0.0963775
v -0.2439362 -0.0073300 0.1010325
v -0.1866750 -0.0073300 0.1866750
v -0.1866750 -0.0073300 0.1866750
v -0.2439362 -0.0073300 0.1010325
v -0.2514413 -0.0154367 0.1041438
v -0.1924463 -0.0154367 0.1924463
v -0.1924463 -0.0154367 0.1924463
v -0.2514413 -0.0154367 0.1041438
v -0.2540775 -0.0250000 0.1052363
v -0.1944413 -0.0250000 0.1944413
v -0.2194263 0.0000008 0.0908913
v -0.2375000 0.0000008 0.0000000
v -0.2518450 -0.0018992 0.0000000
v -0.2326788 -0.0018992 0.0963775
v -0.2326788 -0.0018992 0.0963775
v -0.2518450 -0.0018992 0.0000000
v -0.2640050 -0.0073300 0.0000000
v -0.2439362 -0.0073300 0.1010325
v -0.2439362 -0.0073300 0.1010325
v -0.2640050 -0.0073300 0.0000000
v -0.2721513 -0.0154367 0.0000000
v -0.2514413 -0.0154367 0.1041438
v -0.2514413 -0.0154367 0.1041438
v -0.2721513 -0.0154367 0.0000000
v -0.2750013 -0.0250000 0.0000000
v -0.2540775 -0.0250000 0.1052363
v -0.2375000 0.0000008 0.0000000
v -0.2194263 0.0000008 -0.0908913
v -0.2326788 -0.0018992 -0.0963775
v -0.2518450 -0.0018992 0.0000000
v -0.2518450 -0.0018992 0.0000000
v -0.2326788 -0.0018992 -0.0963775
v -0.2439362 -0.0073300 -0.1010325
v -0.2640050 -0.0073300 0.0000000
v -0.2640050 -0.0073300 0.0000000
v -0.2439362 -0.0073300 -0.1010325
v -0.2514413 -0.0154367 -0.1041438
v -0.2721513 -0.0154367 0.0000000
v -0.2721513 -0.0154367 0.0000000
v -0.2514413 -0.0154367 -0.1041438
v -0.2540775 -0.0250000 -0.1052363
v -0.2750013 -0.0250000 0.0000000
v -0.2194263 0.0000008 -0.0908913
v -0.1679363 0.0000008 -0.1679363
v -0.1780775 -0.0018992 -0.1780775
v -0.2326788 -0.0018992 -0.0963775
v -0.2326788 -0.0018992 -0.0963775
v -0.1780775 -0.0018992 -0.1780775
v -0.1866750 -0.0073300 -0.1866750
v -0.2439362 -0.0073300 -0.1010325
v -0.2439362 -0.0073300 -0.1010325
v -0.1866750 -0.0073300 -0.1866750
v -0.1924463 -0.0154367 -0.1924463
v -0.2514413 -0.0154367 -0.1041438
v -0.2514413 -0.0154367 -0.1041438
v -0.1924463 -0.0154367 -0.1924463
v -0.1944413 -0.0250000 -0.1944413
v -0.2540775 -0.0250000 -0.1052363
v -0.1679363 0.0000008 -0.1679363
v -0.0908913 0.0000008 -0.2194263
v -0.0963775 -0.0018992 -0.2326788
v -0.1780775 -0.0018992 -0.1780775
v -0.1780775 -0.0018992 -0.1780775
v -0.0963775 -0.0018992 -0.2326788
v -0.1010325 -0.0073300 -0.2439362
v -0.1866750 -0.0073300 -0.1866750
v -0.1866750 -0.0073300 -0.1866750
v -0.1010325 -0.0073300 -0.2439362
v -0.1041438 -0.0154367 -0.2514413
v -0.1924463 -0.0154367 -0.1924463
v -0.1924463 -0.0154367 -0.1924463
v -0.1041438 -0.0154367 -0.2514413
v -0.1052363 -0.0250000 -0.2540775
v -0.1944413 -0.0250000 -0.1944413
v -0.0908913 0.0000008 -0.2194263
v 0.0000000 0.0000008 -0.2375000
v 0.0000000 -0.0018992 -0.2518450
v -0.0963775 -0.0018992 -0.2326788
v -0.0963775 -0.0018992 -0.2326788
v 0.0000000 -0.0018992 -0.2518450
v 0.0000000 -0.0073300 -0.2640050
v -0.1010325 -0.0073300 -0.2439362
v -0.1010325 -0.0073300 -0.2439362
v 0.0000000 -0.0073300 -0.2640050
v 0.0000000 -0.0154367 -0.2721513
v -0.1041438 -0.0154367 -0.2514413
v -0.1041438 -0.0154367 -0.2514413
v 0.0000000 -0.0154367 -0.2721513
v 0.0000000 -0.0250000 -0.2750013
v -0.1052363 -0.0250000 -0.2540775
v 0.0000000 0.0000008 -0.2375000
v 0.0908913 0.0000008 -0.2194263
v 0.0963775 -0.0018992 -0.2326788
v 0.0000000 -0.0018992 -0.2518450
v 0.0000000 -0.0018992 -0.2518450
v 0.0963775 -0.0018992 -0.2326788
v 0.1010325 -0.0073300 -0.2439362
v 0.0000000 -0.0073300 -0.2640050
v 0.0000000 -0.0073300 -0.2640050
v 0.1010325 -0.0073300 -0.2439362
v 0.1041438 -0.0154367 -0.2514413
v 0.0000000 -0.0154367 -0.2721513
v 0.0000000 -0.0154367 -0.2721513
v 0.1041438 -0.0154367 -0.2514413
v 0.1052363 -0.0250000 -0.2540775
v 0.0000000 -0.0250000 -0.2750013
v 0.0908913 0.0000008 -0.2194263
v 0.1679363 0.0000008 -0.1679363
v 0.1780775 -0.0018992 -0.1780775
v 0.0963775 -0.0018992 -0.2326788
v 0.0963775 -0.0018992 -0.2326788
v 0.1780775 -0.0018992 -0.1780775
v 0.1866750 -0.0073300 -0.1866750
v 0.1010325 -0.0073300 -0.2439362
v 0.1010325 -0.0073300 -0.2439362
v 0.1866750 -0.0073300 -0.1866750
v 0.1924463 -0.0154367 -0.1924463
v 0.1041438 -0.0154367 -0.2514413
v 0.1041438 -0.0154367 -0.2514413
v 0.1924463 -0.0154367 -0.1924463
v 0.1944413 -0.0250000 -0.1944413
v 0.1052363 -0.0250000 -0.2540775
v 0.1679363 0.0000008 -0.1679363
v 0.2194263 0.0000008 -0.0908913
v 0.2326788 -0.0018992 -0.0963775
v 0.1780775 -0.0018992 -0.1780775
v 0.1780775 -0.0018992 -0.1780775
v 0.2326788 -0.0018992 -0.0963775
v 0.2439362 -0.0073300 -0.1010325
v 0.1866750 -0.0073300 -0.1866750
v 0.1866750 -0.0073300 -0.1866750
v 0.2439362 -0.0073300 -0.1010325
v 0.2514413 -0.0154367 -0.1041438
v 0.1924463 -0.0154367 -0.1924463
v 0.1924463 -0.0154367 -0.1924463
v 0.2514413 -0.0154367 -0.1041438
v 0.2540775 -0.0250000 -0.1052363
v 0.1944413 -0.0250000 -0.1944413
v 0.2194263 0.0000008 -0.0908913
v 0.2375000 0.0000008 0.0000000
v 0.2518450 -0.0018992 0.0000000
v 0.2326788 -0.0018992 -0.0963775
v 0.2326788 -0.0018992 -0.0963775
v 0.2518450 -0.0018992 0.0000000
v 0.2640050 -0.0073300 0.0000000
v 0.2439362 -0.0073300 -0.1010325
v 0.2439362 -0.0073300 -0.1010325
v 0.2640050 -0.0073300 0.0000000
v 0.2721513 -0.0154367 0.0000000
v 0.2514413 -0.0154367 -0.1041438
v 0.2514413 -0.0154367 -0.1041438
v 0.2721513 -0.0154367 0.0000000
v 0.2750013 -0.0250000 0.0000000
v 0.2540775 -0.0250000 -0.1052363
v 0.2375000 0.0000008 0.0000000
v 0.2194263 0.0000008 0.0908913
v 0.2326788 -0.0018992 0.0963775
v 0.2518450 -0.0018992 0.0000000
v 0.2518450 -0.0018992 0.0000000
v 0.2326788 -0.0018992 0.0963775
v 0.2439362 -0.0073300 0.1010325
v 0.2640050 -0.0073300 0.0000000
v 0.2640050 -0.0073300 0.0000000
v 0.2439362 -0.0073300 0.1010325
v 0.2514413 -0.0154367 0.1041438
v 0.2721513 -0.0154367 0.0000000
v 0.2721513 -0.0154367 0.0000000
v 0.2514413 -0.0154367 0.1041438
v 0.2540775 -0.0250000 0.1052363
v 0.2750013 -0.0250000 0.0000000
v 0.2194263 0.0000008 0.0908913
v 0.1679363 0.0000008 0.1679363
v 0.1780775 -0.0018992 0.1780775
v 0.2326788 -0.0018992 0.0963775
v 0.2326788 -0.0018992 0.0963775
v 0.1780775 -0.0018992 0.1780775
v 0.1866750 -0.0073300 0.1866750
v 0.2439362 -0.0073300 0.1010325
v 0.2439362 -0.0073300 0.1010325
v 0.1866750 -0.0073300 0.1866750
v 0.1924463 -0.0154367 0.1924463
v 0.2514413 -0.0154367 0.1041438
v 0.2514413 -0.0154367 0.1041438
v 0.1924463 -0.0154367 0.1924463
v 0.1944413 -0.0250000 0.1944413
v 0.2540775 -0.0250000 0.1052363
v 0.1679363 0.0000008 0.1679363
v 0.0908913 0.0000008 0.2194263
v 0.0963775 -0.0018992 0.2326788
v 0.1780775 -0.0018992 0.1780775
v 0.1780775 -0.0018992 0.1780775
v 0.0963775 -0.0018992 0.2326788
v 0.1010325 -0.0073300 0.2439362
v 0.1866750 -0.0073300 0.1866750
v 0.1866750 -0.0073300 0.1866750
v 0.1010325 -0.0073300 0.2439362
v 0.1041438 -0.0154367 0.2514413
v 0.1924463 -0.0154367 0.1924463
v 0.1924463 -0.0154367 0.1924463
v 0.1041438 -0.0154367 0.2514413
v 0.1052363 -0.0250000 0.2540775
v 0.1944413 -0.0250000 0.1944413
v 0.0908913 0.0000008 0.2194263
v 0.0000000 0.0000008 0.2375000
v 0.0000000 -0.0018992 0.2518450
v 0.0963775 -0.0018992 0.2326788
v 0.0963775 -0.0018992 0.2326788
v 0.0000000 -0.0018992 0.2518450
v 0.0000000 -0.0073300 0.2640050
v 0.1010325 -0.0073300 0.2439362
v 0.1010325 -0.0073300 0.2439362
v 0.0000000 -0.0073300 0.2640050
v 0.0000000 -0.0154367 0.2721513
v 0.1041438 -0.0154367 0.2514413
v 0.1041438 -0.0154367 0.2514413
v 0.0000000 -0.0154367 0.2721513
v 0.0000000 -0.0250000 0.2750013
v 0.1052363 -0.0250000 0.2540775
v 0.0000000 -0.1870000 0.3884000
v -0.0484000 -0.2315000 0.4082000
v -0.0458500 -0.1817500 0.4040500
v 0.0000000 -0.1870000 0.3884000
v 0.0000000 -0.2315000 0.3942000
v -0.0484000 -0.2315000 0.4082000
v 0.0000000 -0.1492500 0.3654250
v -0.0458500 -0.1817500 0.4040500
v -0.0432750 -0.1407500 0.3789000
v 0.0000000 -0.1492500 0.3654250
v 0.0000000 -0.1870000 0.3884000
v -0.0458500 -0.1817500 0.4040500
v 0.0000000 -0.1315000 0.3246500
v -0.0432750 -0.1407500 0.3789000
v -0.0407250 -0.1217500 0.3349250
v 0.0000000 -0.1315000 0.3246500
v 0.0000000 -0.1492500 0.3654250
v -0.0432750 -0.1407500 0.3789000
v -0.0432750 -0.1407500 0.3789000
v -0.0889750 -0.1722500 0.4513000
v -0.0860000 -0.1242500 0.4178500
v -0.0432750 -0.1407500 0.3789000
v -0.0458500 -0.1817500 0.4040500
v -0.0889750 -0.1722500 0.4513000
v -0.0407250 -0.1217500 0.3349250
v -0.0432750 -0.1407500 0.3789000
v -0.0860000 -0.1242500 0.4178500
v -0.0830000 -0.1015000 0.3634500
v -0.0458500 -0.1817500 0.4040500
v -0.0919750 -0.2315000 0.4594500
v -0.0889750 -0.1722500 0.4513000
v -0.0458500 -0.1817500 0.4040500
v -0.0484000 -0.2315000 0.4082000
v -0.0919750 -0.2315000 0.4594500
v 0.0000000 -0.1345000 0.2798250
v -0.0407250 -0.1217500 0.3349250
v -0.0444500 -0.1250000 0.2868250
v 0.0000000 -0.1345000 0.2798250
v 0.0000000 -0.1315000 0.3246500
v -0.0407250 -0.1217500 0.3349250
v 0.0000000 -0.1345000 0.2798250
v -0.0444500 -0.1250000 0.2868250
v -0.0459250 -0.1305000 0.2606750
v 0.0000000 -0.1360000 0.2727750
v -0.0444500 -0.1250000 0.2868250
v -0.0799750 -0.1057500 0.3026000
v -0.0794250 -0.1185000 0.2518000
v -0.0459250 -0.1305000 0.2606750
v -0.0444500 -0.1250000 0.2868250
v -0.0830000 -0.1015000 0.3634500
v -0.0799750 -0.1057500 0.3026000
v -0.0444500 -0.1250000 0.2868250
v -0.0407250 -0.1217500 0.3349250
v -0.0830000 -0.1015000 0.3634500
v -0.0860000 -0.1242500 0.4178500
v -0.0891000 -0.1572500 0.5137000
v -0.0861250 -0.0967500 0.4686000
v -0.0860000 -0.1242500 0.4178500
v -0.0889750 -0.1722500 0.4513000
v -0.0891000 -0.1572500 0.5137000
v -0.0891000 -0.1572500 0.5137000
v -0.0921000 -0.2315000 0.5284500
v -0.0485750 -0.2315000 0.5799500
v -0.0460000 -0.1480000 0.5612000
v -0.0861250 -0.0967500 0.4686000
v -0.0460000 -0.1480000 0.5612000
v -0.0434250 -0.0807500 0.5075250
v -0.0861250 -0.0967500 0.4686000
v -0.0891000 -0.1572500 0.5137000
v -0.0460000 -0.1480000 0.5612000
v -0.0830000 -0.1015000 0.3634500
v -0.0861250 -0.0967500 0.4686000
v -0.0831250 -0.0645000 0.4004500
v -0.0830000 -0.1015000 0.3634500
v -0.0860000 -0.1242500 0.4178500
v -0.0861250 -0.0967500 0.4686000
v -0.0831250 -0.0645000 0.4004500
v -0.0861250 -0.0967500 0.4686000
v -0.0434250 -0.0807500 0.5075250
v -0.0408500 -0.0445000 0.4292500
v -0.0460000 -0.1480000 0.5612000
v 0.0000000 -0.2315000 0.5942000
v 0.0000000 -0.1432500 0.5768250
v -0.0460000 -0.1480000 0.5612000
v -0.0485750 -0.2315000 0.5799500
v 0.0000000 -0.2315000 0.5942000
v -0.0434250 -0.0807500 0.5075250
v 0.0000000 -0.1432500 0.5768250
v 0.0000000 -0.0727500 0.5212250
v -0.0434250 -0.0807500 0.5075250
v -0.0460000 -0.1480000 0.5612000
v 0.0000000 -0.1432500 0.5768250
v -0.0408500 -0.0445000 0.4292500
v -0.0434250 -0.0807500 0.5075250
v 0.0000000 -0.0727500 0.5212250
v 0.0000000 -0.0357500 0.4392250
v -0.0794250 -0.1185000 0.2518000
v -0.0799750 -0.1057500 0.3026000
v -0.0801000 -0.0632500 0.3252500
v -0.0796250 -0.0820000 0.2521750
v -0.0801000 -0.0632500 0.3252500
v -0.0831250 -0.0645000 0.4004500
v -0.0408500 -0.0445000 0.4292500
v -0.0382500 -0.0432500 0.3422750
v -0.0796250 -0.0820000 0.2521750
v -0.0382500 -0.0432500 0.3422750
v -0.0384250 -0.0627500 0.2635000
v -0.0801000 -0.0632500 0.3252500
v -0.0382500 -0.0432500 0.3422750
v -0.0796250 -0.0820000 0.2521750
v -0.0382500 -0.0432500 0.3422750
v 0.0000000 -0.0357500 0.4392250
v 0.0000000 -0.0362500 0.3482250
v -0.0382500 -0.0432500 0.3422750
v -0.0408500 -0.0445000 0.4292500
v 0.0000000 -0.0357500 0.4392250
v 0.0000000 -0.0362500 0.3482250
v -0.0384250 -0.0627500 0.2635000
v -0.0382500 -0.0432500 0.3422750
v 0.0000000 -0.0362500 0.3482250
v 0.0000000 -0.0552500 0.2739500
v -0.0384250 -0.0627500 0.2635000
v -0.0799750 -0.1057500 0.3026000
v -0.0831250 -0.0645000 0.4004500
v -0.0801000 -0.0632500 0.3252500
v -0.0799750 -0.1057500 0.3026000
v -0.0830000 -0.1015000 0.3634500
v -0.0831250 -0.0645000 0.4004500
v -0.0919750 -0.2315000 0.4594500
v -0.0921000 -0.2315000 0.5284500
v -0.0891000 -0.1572500 0.5137000
v -0.0889750 -0.1722500 0.4513000
v -0.0485750 -0.2315000 0.5799500
v 0.0000000 -0.3210000 0.5717750
v 0.0000000 -0.2315000 0.5942000
v -0.0485750 -0.2315000 0.5799500
v -0.0453750 -0.3170000 0.5569000
v 0.0000000 -0.3210000 0.5717750
v -0.0453750 -0.3170000 0.5569000
v -0.0427500 -0.3913000 0.5051250
v 0.0000000 -0.3977250 0.5177000
v 0.0000000 -0.3210000 0.5717750
v -0.0427500 -0.3913000 0.5051250
v 0.0000000 -0.4516250 0.4405000
v 0.0000000 -0.3977250 0.5177000
v -0.0427500 -0.3913000 0.5051250
v -0.0401250 -0.4454250 0.4316750
v 0.0000000 -0.4516250 0.4405000
v -0.0886250 -0.3090000 0.5101000
v -0.0427500 -0.3913000 0.5051250
v -0.0453750 -0.3170000 0.5569000
v -0.0886250 -0.3090000 0.5101000
v -0.0855500 -0.3778000 0.4675000
v -0.0427500 -0.3913000 0.5051250
v -0.0855500 -0.3778000 0.4675000
v -0.0401250 -0.4454250 0.4316750
v -0.0427500 -0.3913000 0.5051250
v -0.0855500 -0.3778000 0.4675000
v -0.0824750 -0.4298500 0.4053500
v -0.0401250 -0.4454250 0.4316750
v -0.0921000 -0.2315000 0.5284500
v -0.0453750 -0.3170000 0.5569000
v -0.0485750 -0.2315000 0.5799500
v -0.0921000 -0.2315000 0.5284500
v -0.0886250 -0.3090000 0.5101000
v -0.0453750 -0.3170000 0.5569000
v -0.0401250 -0.4454250 0.4316750
v 0.0000000 -0.4764500 0.3498250
v 0.0000000 -0.4516250 0.4405000
v -0.0401250 -0.4454250 0.4316750
v -0.0374750 -0.4729250 0.3449250
v 0.0000000 -0.4764500 0.3498250
v -0.0374750 -0.4729250 0.3449250
v 0.0000000 -0.4867500 0.2573000
v 0.0000000 -0.4764500 0.3498250
v -0.0374750 -0.4729250 0.3449250
v -0.0348750 -0.4856250 0.2558500
v 0.0000000 -0.4867500 0.2573000
v 0.0000000 -0.4892500 0.2369250
v 0.0000000 -0.4867500 0.2573000
v -0.0348750 -0.4856250 0.2558500
v -0.0347500 -0.4891750 0.2276250
v -0.0793750 -0.4586250 0.3300750
v -0.0348750 -0.4856250 0.2558500
v -0.0374750 -0.4729250 0.3449250
v -0.0793750 -0.4586250 0.3300750
v -0.0763000 -0.4722750 0.2512000
v -0.0348750 -0.4856250 0.2558500
v -0.0347500 -0.4891750 0.2276250
v -0.0763000 -0.4722750 0.2512000
v -0.0762250 -0.4771750 0.2196250
v -0.0763000 -0.4722750 0.2512000
v -0.0347500 -0.4891750 0.2276250
v -0.0348750 -0.4856250 0.2558500
v -0.0824750 -0.4298500 0.4053500
v -0.0374750 -0.4729250 0.3449250
v -0.0401250 -0.4454250 0.4316750
v -0.0824750 -0.4298500 0.4053500
v -0.0793750 -0.4586250 0.3300750
v -0.0374750 -0.4729250 0.3449250
v -0.0886750 -0.2950000 0.4474750
v -0.0855500 -0.3778000 0.4675000
v -0.0886250 -0.3090000 0.5101000
v -0.0886750 -0.2950000 0.4474750
v -0.0856250 -0.3525000 0.4176750
v -0.0824750 -0.4298500 0.4053500
v -0.0855500 -0.3778000 0.4675000
v -0.0484000 -0.2315000 0.4082000
v -0.0886750 -0.2950000 0.4474750
v -0.0919750 -0.2315000 0.4594500
v -0.0484000 -0.2315000 0.4082000
v -0.0454000 -0.2872500 0.4007000
v -0.0886750 -0.2950000 0.4474750
v -0.0454000 -0.2872500 0.4007000
v -0.0856250 -0.3525000 0.4176750
v -0.0886750 -0.2950000 0.4474750
v -0.0454000 -0.2872500 0.4007000
v -0.0427750 -0.3395000 0.3800250
v -0.0856250 -0.3525000 0.4176750
v -0.0856250 -0.3525000 0.4176750
v -0.0825750 -0.3968000 0.3702250
v -0.0793750 -0.4586250 0.3300750
v -0.0824750 -0.4298500 0.4053500
v -0.0427750 -0.3395000 0.3800250
v -0.0825750 -0.3968000 0.3702250
v -0.0856250 -0.3525000 0.4176750
v -0.0427750 -0.3395000 0.3800250
v -0.0401500 -0.3817750 0.3439000
v -0.0825750 -0.3968000 0.3702250
v 0.0000000 -0.2315000 0.3942000
v -0.0454000 -0.2872500 0.4007000
v -0.0484000 -0.2315000 0.4082000
v 0.0000000 -0.2315000 0.3942000
v 0.0000000 -0.2832500 0.3858000
v -0.0454000 -0.2872500 0.4007000
v 0.0000000 -0.3330000 0.3672000
v -0.0427750 -0.3395000 0.3800250
v -0.0454000 -0.2872500 0.4007000
v 0.0000000 -0.2832500 0.3858000
v 0.0000000 -0.3330000 0.3672000
v -0.0401500 -0.3817750 0.3439000
v -0.0427750 -0.3395000 0.3800250
v 0.0000000 -0.3330000 0.3672000
v 0.0000000 -0.3758000 0.3350500
v -0.0401500 -0.3817750 0.3439000
v -0.0787500 -0.4400250 0.2275750
v -0.0777500 -0.4545250 0.2251000
v -0.0795000 -0.4213750 0.3100750
v -0.0401500 -0.3817750 0.3439000
v -0.0795000 -0.4213750 0.3100750
v -0.0825750 -0.3968000 0.3702250
v -0.0401500 -0.3817750 0.3439000
v -0.0375000 -0.4078500 0.2952000
v -0.0795000 -0.4213750 0.3100750
v -0.0375000 -0.4078500 0.2952000
v -0.0787500 -0.4400250 0.2275750
v -0.0795000 -0.4213750 0.3100750
v -0.0375000 -0.4078500 0.2952000
v -0.0373750 -0.4216500 0.2421500
v -0.0787500 -0.4400250 0.2275750
v 0.0000000 -0.3758000 0.3350500
v -0.0375000 -0.4078500 0.2952000
v -0.0401500 -0.3817750 0.3439000
v 0.0000000 -0.3758000 0.3350500
v 0.0000000 -0.4046250 0.2902750
v -0.0375000 -0.4078500 0.2952000
v 0.0000000 -0.4046250 0.2902750
v -0.0373750 -0.4216500 0.2421500
v -0.0375000 -0.4078500 0.2952000
v 0.0000000 -0.4046250 0.2902750
v 0.0000000 -0.4146500 0.2535000
v -0.0373750 -0.4216500 0.2421500
v -0.0825750 -0.3968000 0.3702250
v -0.0795000 -0.4213750 0.3100750
v -0.0793750 -0.4586250 0.3300750
v -0.0919750 -0.2315000 0.4594500
v -0.0886750 -0.2950000 0.4474750
v -0.0886250 -0.3090000 0.5101000
v -0.0921000 -0.2315000 0.5284500
v 0.0000000 -0.2315000 0.3942000
v 0.0458500 -0.1817500 0.4040500
v 0.0484000 -0.2315000 0.4082000
v 0.0000000 -0.1870000 0.3884000
v 0.0458500 -0.1817500 0.4040500
v 0.0000000 -0.2315000 0.3942000
v 0.0000000 -0.1870000 0.3884000
v 0.0432750 -0.1407500 0.3789000
v 0.0458500 -0.1817500 0.4040500
v 0.0000000 -0.1870000 0.3884000
v 0.0000000 -0.1492500 0.3654250
v 0.0432750 -0.1407500 0.3789000
v 0.0000000 -0.1492500 0.3654250
v 0.0407250 -0.1217500 0.3349250
v 0.0432750 -0.1407500 0.3789000
v 0.0000000 -0.1492500 0.3654250
v 0.0000000 -0.1315000 0.3246500
v 0.0407250 -0.1217500 0.3349250
v 0.0458500 -0.1817500 0.4040500
v 0.0860000 -0.1242500 0.4178500
v 0.0889750 -0.1722500 0.4513000
v 0.0458500 -0.1817500 0.4040500
v 0.0432750 -0.1407500 0.3789000
v 0.0860000 -0.1242500 0.4178500
v 0.0432750 -0.1407500 0.3789000
v 0.0830000 -0.1015000 0.3634500
v 0.0860000 -0.1242500 0.4178500
v 0.0407250 -0.1217500 0.3349250
v 0.0799750 -0.1057500 0.3026000
v 0.0432750 -0.1407500 0.3789000
v 0.0484000 -0.2315000 0.4082000
v 0.0889750 -0.1722500 0.4513000
v 0.0919750 -0.2315000 0.4594500
v 0.0484000 -0.2315000 0.4082000
v 0.0458500 -0.1817500 0.4040500
v 0.0889750 -0.1722500 0.4513000
v 0.0000000 -0.1315000 0.3246500
v 0.0444500 -0.1250000 0.2868250
v 0.0407250 -0.1217500 0.3349250
v 0.0000000 -0.1315000 0.3246500
v 0.0000000 -0.1345000 0.2798250
v 0.0444500 -0.1250000 0.2868250
v 0.0459250 -0.1305000 0.2606750
v 0.0444500 -0.1250000 0.2868250
v 0.0000000 -0.1345000 0.2798250
v 0.0000000 -0.1360000 0.2727750
v 0.0459250 -0.1305000 0.2606750
v 0.0794250 -0.1185000 0.2518000
v 0.0799750 -0.1057500 0.3026000
v 0.0444500 -0.1250000 0.2868250
v 0.0799750 -0.1057500 0.3026000
v 0.0830000 -0.1015000 0.3634500
v 0.0432750 -0.1407500 0.3789000
v 0.0407250 -0.1217500 0.3349250
v 0.0444500 -0.1250000 0.2868250
v 0.0799750 -0.1057500 0.3026000
v 0.0919750 -0.2315000 0.4594500
v 0.0889750 -0.1722500 0.4513000
v 0.0861250 -0.0967500 0.4686000
v 0.0891000 -0.1572500 0.5137000
v 0.0889750 -0.1722500 0.4513000
v 0.0860000 -0.1242500 0.4178500
v 0.0831250 -0.0645000 0.4004500
v 0.0861250 -0.0967500 0.4686000
v 0.0921000 -0.2315000 0.5284500
v 0.0891000 -0.1572500 0.5137000
v 0.0460000 -0.1480000 0.5612000
v 0.0485750 -0.2315000 0.5799500
v 0.0891000 -0.1572500 0.5137000
v 0.0434250 -0.0807500 0.5075250
v 0.0460000 -0.1480000 0.5612000
v 0.0891000 -0.1572500 0.5137000
v 0.0861250 -0.0967500 0.4686000
v 0.0434250 -0.0807500 0.5075250
v 0.0860000 -0.1242500 0.4178500
v 0.0830000 -0.1015000 0.3634500
v 0.0801000 -0.0632500 0.3252500
v 0.0831250 -0.0645000 0.4004500
v 0.0861250 -0.0967500 0.4686000
v 0.0831250 -0.0645000 0.4004500
v 0.0408500 -0.0445000 0.4292500
v 0.0434250 -0.0807500 0.5075250
v 0.0485750 -0.2315000 0.5799500
v 0.0000000 -0.1432500 0.5768250
v 0.0000000 -0.2315000 0.5942000
v 0.0485750 -0.2315000 0.5799500
v 0.0460000 -0.1480000 0.5612000
v 0.0000000 -0.1432500 0.5768250
v 0.0460000 -0.1480000 0.5612000
v 0.0000000 -0.0727500 0.5212250
v 0.0000000 -0.1432500 0.5768250
v 0.0460000 -0.1480000 0.5612000
v 0.0434250 -0.0807500 0.5075250
v 0.0000000 -0.0727500 0.5212250
v 0.0434250 -0.0807500 0.5075250
v 0.0408500 -0.0445000 0.4292500
v 0.0000000 -0.0357500 0.4392250
v 0.0000000 -0.0727500 0.5212250
v 0.0799750 -0.1057500 0.3026000
v 0.0794250 -0.1185000 0.2518000
v 0.0796250 -0.0820000 0.2521750
v 0.0801000 -0.0632500 0.3252500
v 0.0831250 -0.0645000 0.4004500
v 0.0801000 -0.0632500 0.3252500
v 0.0382500 -0.0432500 0.3422750
v 0.0408500 -0.0445000 0.4292500
v 0.0801000 -0.0632500 0.3252500
v 0.0384250 -0.0627500 0.2635000
v 0.0382500 -0.0432500 0.3422750
v 0.0801000 -0.0632500 0.3252500
v 0.0796250 -0.0820000 0.2521750
v 0.0384250 -0.0627500 0.2635000
v 0.0408500 -0.0445000 0.4292500
v 0.0000000 -0.0362500 0.3482250
v 0.0000000 -0.0357500 0.4392250
v 0.0408500 -0.0445000 0.4292500
v 0.0382500 -0.0432500 0.3422750
v 0.0000000 -0.0362500 0.3482250
v 0.0000000 -0.0552500 0.2739500
v 0.0382500 -0.0432500 0.3422750
v 0.0384250 -0.0627500 0.2635000
v 0.0382500 -0.0432500 0.3422750
v 0.0000000 -0.0552500 0.2739500
v 0.0000000 -0.0362500 0.3482250
v 0.0830000 -0.1015000 0.3634500
v 0.0799750 -0.1057500 0.3026000
v 0.0801000 -0.0632500 0.3252500
v 0.0919750 -0.2315000 0.4594500
v 0.0891000 -0.1572500 0.5137000
v 0.0921000 -0.2315000 0.5284500
v 0.0453750 -0.3170000 0.5569000
v 0.0000000 -0.2315000 0.5942000
v 0.0000000 -0.3210000 0.5717750
v 0.0485750 -0.2315000 0.5799500
v 0.0000000 -0.2315000 0.5942000
v 0.0453750 -0.3170000 0.5569000
v 0.0427500 -0.3913000 0.5051250
v 0.0453750 -0.3170000 0.5569000
v 0.0000000 -0.3210000 0.5717750
v 0.0000000 -0.3977250 0.5177000
v 0.0401250 -0.4454250 0.4316750
v 0.0000000 -0.3977250 0.5177000
v 0.0000000 -0.4516250 0.4405000
v 0.0401250 -0.4454250 0.4316750
v 0.0427500 -0.3913000 0.5051250
v 0.0000000 -0.3977250 0.5177000
v 0.0855500 -0.3778000 0.4675000
v 0.0453750 -0.3170000 0.5569000
v 0.0427500 -0.3913000 0.5051250
v 0.0855500 -0.3778000 0.4675000
v 0.0886250 -0.3090000 0.5101000
v 0.0453750 -0.3170000 0.5569000
v 0.0824750 -0.4298500 0.4053500
v 0.0427500 -0.3913000 0.5051250
v 0.0401250 -0.4454250 0.4316750
v 0.0855500 -0.3778000 0.4675000
v 0.0427500 -0.3913000 0.5051250
v 0.0824750 -0.4298500 0.4053500
v 0.0886250 -0.3090000 0.5101000
v 0.0485750 -0.2315000 0.5799500
v 0.0453750 -0.3170000 0.5569000
v 0.0886250 -0.3090000 0.5101000
v 0.0921000 -0.2315000 0.5284500
v 0.0485750 -0.2315000 0.5799500
v 0.0374750 -0.4729250 0.3449250
v 0.0000000 -0.4516250 0.4405000
v 0.0000000 -0.4764500 0.3498250
v 0.0401250 -0.4454250 0.4316750
v 0.0000000 -0.4516250 0.4405000
v 0.0374750 -0.4729250 0.3449250
v 0.0348750 -0.4856250 0.2558500
v 0.0000000 -0.4764500 0.3498250
v 0.0000000 -0.4867500 0.2573000
v 0.0374750 -0.4729250 0.3449250
v 0.0000000 -0.4764500 0.3498250
v 0.0348750 -0.4856250 0.2558500
v 0.0000000 -0.4867500 0.2573000
v 0.0000000 -0.4892500 0.2369250
v 0.0347500 -0.4891750 0.2276250
v 0.0348750 -0.4856250 0.2558500
v 0.0763000 -0.4722750 0.2512000
v 0.0374750 -0.4729250 0.3449250
v 0.0348750 -0.4856250 0.2558500
v 0.0763000 -0.4722750 0.2512000
v 0.0793750 -0.4586250 0.3300750
v 0.0374750 -0.4729250 0.3449250
v 0.0348750 -0.4856250 0.2558500
v 0.0762250 -0.4771750 0.2196250
v 0.0763000 -0.4722750 0.2512000
v 0.0348750 -0.4856250 0.2558500
v 0.0347500 -0.4891750 0.2276250
v 0.0762250 -0.4771750 0.2196250
v 0.0793750 -0.4586250 0.3300750
v 0.0401250 -0.4454250 0.4316750
v 0.0374750 -0.4729250 0.3449250
v 0.0793750 -0.4586250 0.3300750
v 0.0824750 -0.4298500 0.4053500
v 0.0401250 -0.4454250 0.4316750
v 0.0886750 -0.2950000 0.4474750
v 0.0886250 -0.3090000 0.5101000
v 0.0855500 -0.3778000 0.4675000
v 0.0856250 -0.3525000 0.4176750
v 0.0454000 -0.2872500 0.4007000
v 0.0919750 -0.2315000 0.4594500
v 0.0886750 -0.2950000 0.4474750
v 0.0454000 -0.2872500 0.4007000
v 0.0484000 -0.2315000 0.4082000
v 0.0919750 -0.2315000 0.4594500
v 0.0427750 -0.3395000 0.3800250
v 0.0886750 -0.2950000 0.4474750
v 0.0856250 -0.3525000 0.4176750
v 0.0427750 -0.3395000 0.3800250
v 0.0454000 -0.2872500 0.4007000
v 0.0886750 -0.2950000 0.4474750
v 0.0856250 -0.3525000 0.4176750
v 0.0855500 -0.3778000 0.4675000
v 0.0824750 -0.4298500 0.4053500
v 0.0825750 -0.3968000 0.3702250
v 0.0401500 -0.3817750 0.3439000
v 0.0856250 -0.3525000 0.4176750
v 0.0825750 -0.3968000 0.3702250
v 0.0401500 -0.3817750 0.3439000
v 0.0427750 -0.3395000 0.3800250
v 0.0856250 -0.3525000 0.4176750
v 0.0000000 -0.2832500 0.3858000
v 0.0484000 -0.2315000 0.4082000
v 0.0454000 -0.2872500 0.4007000
v 0.0000000 -0.2832500 0.3858000
v 0.0000000 -0.2315000 0.3942000
v 0.0484000 -0.2315000 0.4082000
v 0.0000000 -0.2832500 0.3858000
v 0.0454000 -0.2872500 0.4007000
v 0.0427750 -0.3395000 0.3800250
v 0.0000000 -0.3330000 0.3672000
v 0.0000000 -0.3758000 0.3350500
v 0.0427750 -0.3395000 0.3800250
v 0.0401500 -0.3817750 0.3439000
v 0.0000000 -0.3758000 0.3350500
v 0.0000000 -0.3330000 0.3672000
v 0.0427750 -0.3395000 0.3800250
v 0.0762250 -0.4771750 0.2196250
v 0.0777500 -0.4545250 0.2251000
v 0.0763000 -0.4722750 0.2512000
v 0.0375000 -0.4078500 0.2952000
v 0.0825750 -0.3968000 0.3702250
v 0.0795000 -0.4213750 0.3100750
v 0.0375000 -0.4078500 0.2952000
v 0.0401500 -0.3817750 0.3439000
v 0.0825750 -0.3968000 0.3702250
v 0.0373750 -0.4216500 0.2421500
v 0.0795000 -0.4213750 0.3100750
v 0.0787500 -0.4400250 0.2275750
v 0.0795000 -0.4213750 0.3100750
v 0.0373750 -0.4216500 0.2421500
v 0.0375000 -0.4078500 0.2952000
v 0.0000000 -0.4046250 0.2902750
v 0.0401500 -0.3817750 0.3439000
v 0.0375000 -0.4078500 0.2952000
v 0.0000000 -0.4046250 0.2902750
v 0.0000000 -0.3758000 0.3350500
v 0.0401500 -0.3817750 0.3439000
v 0.0000000 -0.4146500 0.2535000
v 0.0375000 -0.4078500 0.2952000
v 0.0373750 -0.4216500 0.2421500
v 0.0375000 -0.4078500 0.2952000
v 0.0000000 -0.4146500 0.2535000
v 0.0000000 -0.4046250 0.2902750
v 0.0795000 -0.4213750 0.3100750
v 0.0824750 -0.4298500 0.4053500
v 0.0793750 -0.4586250 0.3300750
v 0.0795000 -0.4213750 0.3100750
v 0.0825750 -0.3968000 0.3702250
v 0.0824750 -0.4298500 0.4053500
v 0.0886750 -0.2950000 0.4474750
v 0.0919750 -0.2315000 0.4594500
v 0.0921000 -0.2315000 0.5284500
v 0.0886250 -0.3090000 0.5101000
v -0.0762250 -0.4771750 0.2196250
v -0.0763000 -0.4722750 0.2512000
v -0.0777500 -0.4545250 0.2251000
v 0.0787500 -0.4400250 0.2275750
v 0.0795000 -0.4213750 0.3100750
v 0.0777500 -0.4545250 0.2251000
v 0.0777500 -0.4545250 0.2251000
v 0.0795000 -0.4213750 0.3100750
v 0.0793750 -0.4586250 0.3300750
v 0.0763000 -0.4722750 0.2512000
v 0.0777500 -0.4545250 0.2251000
v 0.0793750 -0.4586250 0.3300750
v -0.0777500 -0.4545250 0.2251000
v -0.0763000 -0.4722750 0.2512000
v -0.0793750 -0.4586250 0.3300750
v -0.0795000 -0.4213750 0.3100750
v -0.0777500 -0.4545250 0.2251000
v -0.0793750 -0.4586250 0.3300750
s off
f 1 2 3
f 1 3 4
f 5 6 7
f 5 7 8
f 9 10 11
f 9 11 12
f 13 14 15
f 13 15 16
f 17 18 19
f 17 19 20
f 21 22 23
f 21 23 24
f 25 26 27
f 25 27 28
f 29 30 31
f 29 31 32
f 33 34 35
f 33 35 36
f 37 38 39
f 37 39 40
f 41 42 43
f 41 43 44
f 45 46 47
f 45 47 48
f 49 50 51
f 49 51 52
f 53 54 55
f 53 55 56
f 57 58 59
f 57 59 60
f 61 62 63
f 61 63 64
f 65 66 67
f 65 67 68
f 69 70 71
f 69 71 72
f 73 74 75
f 73 75 76
f 77 78 79
f 77 79 80
f 81 82 83
f 81 83 84
f 85 86 87
f 85 87 88
f 89 90 91
f 89 91 92
f 93 94 95
f 93 95 96
f 97 98 99
f 97 99 100
f 101 102 103
f 101 103 104
f 105 106 107
f 105 107 108
f 109 110 111
f 109 111 112
f 113 114 115
f 113 115 116
f 117 118 119
f 117 119 120
f 121 122 123
f 121 123 124
f 125 126 127
f 125 127 128
f 129 130 131
f 129 131 132
f 133 134 135
f 133 135 136
f 137 138 139
f 137 139 140
f 141 142 143
f 141 143 144
f 145 146 147
f 145 147 148
f 149 150 151
f 149 151 152
f 153 154 155
f 153 155 156
f 157 158 159
f 157 159 160
f 161 162 163
f 161 163 164
f 165 166 167
f 165 167 168
f 169 170 171
f 169 171 172
f 173 174 175
f 173 175 176
f 177 178 179
f 177 179 180
f 181 182 183
f 181 183 184
f 185 186 187
f 185 187 188
f 189 190 191
f 189 191 192
f 193 194 195
f 193 195 196
f 197 198 199
f 197 199 200
f 201 202 203
f 201 203 204
f 205 206 207
f 205 207 208
f 209 210 211
f 209 211 212
f 213 214 215
f 213 215 216
f 217 218 219
f 217 219 220
f 221 222 223
f 221 223 224
f 225 226 227
f 225 227 228
f 229 230 231
f 229 231 232
f 233 234 235
f 233 235 236
f 237 238 239
f 237 239 240
f 241 242 243
f 241 243 244
f 245 246 247
f 245 247 248
f 249 250 251
f 249 251 252
f 253 254 255
f 253 255 256
f 257 258 259
f 257 259 260
f 261 262 263
f 261 263 264
f 265 266 267
f 265 267 268
f 269 270 271
f 269 271 272
f 273 274 275
f 273 275 276
f 277 278 279
f 277 279 280
f 281 282 283
f 281 283 284
f 285 286 287
f 285 287 288
f 289 290 291
f 289 291 292
f 293 294 295
f 293 295 296
f 297 298 299
f 297 299 300
f 301 302 303
f 301 303 304
f 305 306 307
f 305 307 308
f 309 310 311
f 309 311 312
f 313 314 315
f 313 315 316
f 317 318 319
f 317 319 320
f 321 322 323
f 321 323 324
f 325 326 327
f 325 327 328
f 329 330 331
f 329 331 332
f 333 334 335
f 333 335 336
f 337 338 339
f 337 339 340
f 341 342 343
f 341 343 344
f 345 346 347
f 345 347 348
f 349 350 351
f 349 351 352
f 353 354 355
f 353 355 356
f 357 358 359
f 357 359 360
f 361 362 363
f 361 363 364
f 365 366 367
f 365 367 368
f 369 370 371
f 369 371 372
f 373 374 375
f 373 375 376
f 377 378 379
f 377 379 380
f 381 382 383
f 381 383 384
f 385 386 387
f 385 387 388
f 389 390 391
f 389 391 392
f 393 394 395
f 393 395 396
f 397 398 399
f 397 399 400
f 401 402 403
f 401 403 404
f 405 406 407
f 405 407 408
f 409 410 411
f 409 411 412
f 413 414 415
f 413 415 416
f 417 418 419
f 417 419 420
f 421 422 423
f 421 423 424
f 425 426 427
f 425 427 428
f 429 430 431
f 429 431 432
f 433 434 435
f 433 435 436
f 437 438 439
f 437 439 440
f 441 442 443
f 441 443 444
f 445 446 447
f 445 447 448
f 449 450 451
f 449 451 452
f 453 454 455
f 453 455 456
f 457 458 459
f 457 459 460
f 461 462 463
f 461 463 464
f 465 466 467
f 465 467 468
f 469 470 471
f 469 471 472
f 473 474 475
f 473 475 476
f 477 478 479
f 477 479 480
f 481 482 483
f 481 483 484
f 485 486 487
f 485 487 488
f 489 490 491
f 489 491 492
f 493 494 495
f 493 495 496
f 497 498 499
f 497 499 500
f 501 502 503
f 501 503 504
f 505 506 507
f 505 507 508
f 509 510 511
f 509 511 512
f 513 514 515
f 513 515 516
f 517 518 519
f 517 519 520
f 521 522 523
f 521 523 524
f 525 526 527
f 525 527 528
f 529 530 531
f 529 531 532
f 533 534 535
f 533 535 536
f 537 538 539
f 537 539 540
f 541 542 543
f 541 543 544
f 545 546 547
f 545 547 548
f 549 550 551
f 549 551 552
f 553 554 555
f 553 555 556
f 557 558 559
f 557 559 560
f 561 562 563
f 561 563 564
f 565 566 567
f 565 567 568
f 569 570 571
f 569 571 572
f 573 574 575
f 573 575 576
f 577 578 579
f 580 581 582
f 583 584 585
f 586 587 588
f 589 590 591
f 592 593 594
f 595 596 597
f 598 599 600
f 601 602 603
f 604 605 606
f 607 608 609
f 610 611 612
f 613 614 615
f 616 617 618
f 619 620 621
f 622 623 624
f 625 626 627
f 625 627 628
f 629 630 631
f 629 631 632
f 633 634 635
f 633 635 636
f 637 638 639
f 637 639 640
f 641 642 643
f 641 643 644
f 645 646 647
f 645 647 648
f 649 650 651
f 649 651 652
f 653 654 655
f 653 655 656
f 657 658 659
f 657 659 660
f 661 662 663
f 661 663 664
f 665 666 667
f 665 667 668
f 669 670 671
f 669 671 672
f 673 674 675
f 673 675 676
f 677 678 679
f 677 679 680
f 681 682 683
f 681 683 684
f 685 686 687
f 685 687 688
f 689 690 691
f 692 693 694
f 695 696 697
f 698 699 700
f 701 702 703
f 704 705 706
f 707 708 709
f 710 711 712
f 713 714 715
f 716 717 718
f 719 720 721
f 722 723 724
f 725 726 727
f 728 729 730
f 731 732 733
f 734 735 736
f 737 738 739
f 737 739 740
f 741 742 743
f 741 743 744
f 745 746 747
f 745 747 748
f 749 750 751
f 749 751 752
f 753 754 755
f 753 755 756
f 757 758 759
f 757 759 760
f 761 762 763
f 761 763 764
f 765 766 767
f 765 767 768
f 769 770 771
f 769 771 772
f 773 774 775
f 773 775 776
f 777 778 779
f 777 779 780
f 781 782 783
f 781 783 784
f 785 786 787
f 785 787 788
f 789 790 791
f 789 791 792
f 793 794 795
f 793 795 796
f 797 798 799
f 797 799 800
f 801 802 803
f 801 803 804
f 805 806 807
f 805 807 808
f 809 810 811
f 809 811 812
f 813 814 815
f 813 815 816
f 817 818 819
f 817 819 820
f 821 822 823
f 821 823 824
f 825 826 827
f 825 827 828
f 829 830 831
f 829 831 832
f 833 834 835
f 833 835 836
f 837 838 839
f 837 839 840
f 841 842 843
f 841 843 844
f 845 846 847
f 845 847 848
f 849 850 851
f 849 851 852
f 853 854 855
f 853 855 856
f 857 858 859
f 857 859 860
f 861 862 863
f 861 863 864
f 865 866 867
f 865 867 868
f 869 870 871
f 869 871 872
f 873 874 875
f 873 875 876
f 877 878 879
f 877 879 880
f 881 882 883
f 881 883 884
f 885 886 887
f 885 887 888
f 889 890 891
f 889 891 892
f 893 894 895
f 893 895 896
f 897 898 899
f 897 899 900
f 901 902 903
f 901 903 904
f 905 906 907
f 905 907 908
f 909 910 911
f 909 911 912
f 913 914 915
f 913 915 916
f 917 918 919
f 917 919 920
f 921 922 923
f 921 923 924
f 925 926 927
f 925 927 928
f 929 930 931
f 929 931 932
f 933 934 935
f 933 935 936
f 937 938 939
f 937 939 940
f 941 942 943
f 941 943 944
f 945 946 947
f 945 947 948
f 949 950 951
f 949 951 952
f 953 954 955
f 953 955 956
f 957 958 959
f 957 959 960
f 961 962 963
f 961 963 964
f 965 966 967
f 965 967 968
f 969 970 971
f 969 971 972
f 973 974 975
f 973 975 976
f 977 978 979
f 977 979 980
f 981 982 983
f 981 983 984
f 985 986 987
f 985 987 988
f 989 990 991
f 989 991 992
f 993 994 995
f 993 995 996
f 997 998 999
f 997 999 1000
f 1001 1002 1003
f 1001 1003 1004
f 1005 1006 1007
f 1005 1007 1008
f 1009 1010 1011
f 1009 1011 1012
f 1013 1014 1015
f 1013 1015 1016
f 1017 1018 1019
f 1017 1019 1020
f 1021 1022 1023
f 1021 1023 1024
f 1025 1026 1027
f 1025 1027 1028
f 1029 1030 1031
f 1029 1031 1032
f 1033 1034 1035
f 1033 1035 1036
f 1037 1038 1039
f 1037 1039 1040
f 1041 1042 1043
f 1041 1043 1044
f 1045 1046 1047
f 1045 1047 1048
f 1049 1050 1051
f 1049 1051 1052
f 1053 1054 1055
f 1053 1055 1056
f 1057 1058 1059
f 1057 1059 1060
f 1061 1062 1063
f 1061 1063 1064
f 1065 1066 1067
f 1065 1067 1068
f 1069 1070 1071
f 1069 1071 1072
f 1073 1074 1075
f 1073 1075 1076
f 1077 1078 1079
f 1077 1079 1080
f 1081 1082 1083
f 1081 1083 1084
f 1085 1086 1087
f 1085 1087 1088
f 1089 1090 1091
f 1089 1091 1092
f 1093 1094 1095
f 1093 1095 1096
f 1097 1098 1099
f 1097 1099 1100
f 1101 1102 1103
f 1101 1103 1104
f 1105 1106 1107
f 1105 1107 1108
f 1109 1110 1111
f 1109 1111 1112
f 1113 1114 1115
f 1113 1115 1116
f 1117 1118 1119
f 1117 1119 1120
f 1121 1122 1123
f 1121 1123 1124
f 1125 1126 1127
f 1125 1127 1128
f 1129 1130 1131
f 1129 1131 1132
f 1133 1134 1135
f 1133 1135 1136
f 1137 1138 1139
f 1137 1139 1140
f 1141 1142 1143
f 1141 1143 1144
f 1145 1146 1147
f 1145 1147 1148
f 1149 1150 1151
f 1149 1151 1152
f 1153 1154 1155
f 1153 1155 1156
f 1157 1158 1159
f 1157 1159 1160
f 1161 1162 1163
f 1161 1163 1164
f 1165 1166 1167
f 1165 1167 1168
f 1169 1170 1171
f 1169 1171 1172
f 1173 1174 1175
f 1173 1175 1176
f 1177 1178 1179
f 1177 1179 1180
f 1181 1182 1183
f 1181 1183 1184
f 1185 1186 1187
f 1185 1187 1188
f 1189 1190 1191
f 1189 1191 1192
f 1193 1194 1195
f 1193 1195 1196
f 1197 1198 1199
f 1197 1199 1200
f 1201 1202 1203
f 1201 1203 1204
f 1205 1206 1207
f 1205 1207 1208
f 1209 1210 1211
f 1209 1211 1212
f 1213 1214 1215
f 1213 1215 1216
f 1217 1218 1219
f 1217 1219 1220
f 1221 1222 1223
f 1221 1223 1224
f 1225 1226 1227
f 1225 1227 1228
f 1229 1230 1231
f 1229 1231 1232
f 1233 1234 1235
f 1233 1235 1236
f 1237 1238 1239
f 1237 1239 1240
f 1241 1242 1243
f 1241 1243 1244
f 1245 1246 1247
f 1245 1247 1248
f 1249 1250 1251
f 1249 1251 1252
f 1253 1254 1255
f 1253 1255 1256
f 1257 1258 1259
f 1257 1259 1260
f 1261 1262 1263
f 1261 1263 1264
f 1265 1266 1267
f 1265 1267 1268
f 1269 1270 1271
f 1269 1271 1272
f 1273 1274 1275
f 1273 1275 1276
f 1277 1278 1279
f 1277 1279 1280
f 1281 1282 1283
f 1281 1283 1284
f 1285 1286 1287
f 1285 1287 1288
f 1289 1290 1291
f 1289 1291 1292
f 1293 1294 1295
f 1293 1295 1296
f 1297 1298 1299
f 1297 1299 1300
f 1301 1302 1303
f 1301 1303 1304
f 1305 1306 1307
f 1305 1307 1308
f 1309 1310 1311
f 1309 1311 1312
f 1313 1314 1315
f 1316 1317 1318
f 1319 1320 1321
f 1322 1323 1324
f 1325 1326 1327
f 1328 1329 1330
f 1331 1332 1333
f 1334 1335 1336
f 1337 1338 1339
f 1337 1339 1340
f 1341 1342 1343
f 1344 1345 1346
f 1347 1348 1349
f 1350 1351 1352
f 1353 1354 1355
f 1353 1355 1356
f 1357 1358 1359
f 1357 1359 1360
f 1361 1362 1363
f 1364 1365 1366
f 1367 1368 1369
f 1370 1371 1372
f 1373 1374 1375
f 1373 1375 1376
f 1377 1378 1379
f 1380 1381 1382
f 1383 1384 1385
f 1386 1387 1388
f 1389 1390 1391
f 1389 1391 1392
f 1393 1394 1395
f 1396 1397 1398
f 1399 1400 1401
f 1402 1403 1404
f 1405 1406 1407
f 1405 1407 1408
f 1409 1410 1411
f 1409 1411 1412
f 1413 1414 1415
f 1413 1415 1416
f 1417 1418 1419
f 1420 1421 1422
f 1423 1424 1425
f 1426 1427 1428
f 1429 1430 1431
f 1432 1433 1434
f 1435 1436 1437
f 1438 1439 1440
f 1441 1442 1443
f 1441 1443 1444
f 1445 1446 1447
f 1448 1449 1450
f 1451 1452 1453
f 1451 1453 1454
f 1455 1456 1457
f 1458 1459 1460
f 1461 1462 1463
f 1464 1465 1466
f 1467 1468 1469
f 1470 1471 1472
f 1473 1474 1475
f 1476 1477 1478
f 1479 1480 1481
f 1482 1483 1484
f 1485 1486 1487
f 1488 1489 1490
f 1491 1492 1493
f 1491 1493 1494
f 1495 1496 1497
f 1498 1499 1500
f 1501 1502 1503
f 1504 1505 1506
f 1507 1508 1509
f 1510 1511 1512
f 1513 1514 1515
f 1516 1517 1518
f 1516 1518 1519
f 1520 1521 1522
f 1523 1524 1525
f 1526 1527 1528
f 1529 1530 1531
f 1532 1533 1534
f 1532 1534 1535
f 1536 1537 1538
f 1539 1540 1541
f 1542 1543 1544
f 1545 1546 1547
f 1548 1549 1550
f 1548 1550 1551
f 1552 1553 1554
f 1555 1556 1557
f 1558 1559 1560
f 1561 1562 1563
f 1564 1565 1566
f 1567 1568 1569
f 1570 1571 1572
f 1573 1574 1575
f 1576 1577 1578
f 1579 1580 1581
f 1582 1583 1584
f 1585 1586 1587
f 1588 1589 1590
f 1588 1590 1591
f 1592 1593 1594
f 1595 1596 1597
f 1598 1599 1600
f 1601 1602 1603
f 1604 1605 1606
f 1607 1608 1609
f 1610 1611 1612
f 1613 1614 1615
f 1616 1617 1618
f 1619 1620 1621
f 1622 1623 1624
f 1625 1626 1627
f 1628 1629 1630
f 1631 1632 1633
f 1634 1635 1636
f 1634 1636 1637
f 1638 1639 1640
f 1638 1640 1641
f 1642 1643 1644
f 1645 1646 1647
f 1648 1649 1650
f 1648 1650 1651
f 1652 1653 1654
f 1652 1654 1655
f 1656 1657 1658
f 1656 1658 1659
f 1660 1661 1662
f 1663 1664 1665
f 1666 1667 1668
f 1666 1668 1669
f 1670 1671 1672
f 1670 1672 1673
f 1674 1675 1676
f 1677 1678 1679
f 1680 1681 1682
f 1683 1684 1685
f 1686 1687 1688
f 1686 1688 1689
f 1690 1691 1692
f 1690 1692 1693
f 1694 1695 1696
f 1694 1696 1697
f 1698 1699 1700
f 1701 1702 1703
f 1704 1705 1706
f 1707 1708 1709
f 1710 1711 1712
f 1713 1714 1715
f 1716 1717 1718
f 1719 1720 1721
f 1722 1723 1724
f 1725 1726 1727
f 1728 1729 1730
f 1728 1730 1731
f 1732 1733 1734
f 1735 1736 1737
f 1738 1739 1740
f 1741 1742 1743
f 1744 1745 1746
f 1747 1748 1749
f 1750 1751 1752
f 1753 1754 1755
f 1756 1757 1758
f 1759 1760 1761
f 1762 1763 1764
f 1765 1766 1767
f 1768 1769 1770
f 1768 1770 1771
f 1772 1773 1774
f 1775 1776 1777
f 1778 1779 1780
f 1781 1782 1783
f 1784 1785 1786
f 1787 1788 1789
f 1790 1791 1792
f 1790 1792 1793
f 1794 1795 1796
f 1797 1798 1799
f 1800 1801 1802
f 1803 1804 1805
f 1806 1807 1808
f 1806 1808 1809
f 1810 1811 1812
f 1813 1814 1815
f 1816 1817 1818
f 1819 1820 1821
f 1822 1823 1824
f 1822 1824 1825
f 1826 1827 1828
f 1829 1830 1831
f 1832 1833 1834
f 1835 1836 1837
f 1838 1839 1840
f 1841 1842 1843
f 1844 1845 1846
f 1847 1848 1849
f 1850 1851 1852
f 1853 1854 1855
f 1856 1857 1858
f 1859 1860 1861
f 1862 1863 1864
f 1865 1866 1867
f 1865 1867 1868
f 1869 1870 1871
f 1872 1873 1874
f 1875 1876 1877
f 1878 1879 1880
f 1881 1882 1883
f 1884 1885 1886
