# Baked from official LDraw part 33051.dat
o ldraw_33051
v -0.3190000 0.8782500 -0.0525000
v -0.2970000 0.8195000 -0.0400000
v -0.3612500 0.8830000 -0.0400000
v -0.5260000 0.7015000 0.0000000
v -0.5142500 0.6882500 -0.0475000
v -0.4840000 0.6465000 0.0000000
v -0.5687500 0.7937500 -0.0325000
v -0.5697500 0.7762500 -0.0150000
v -0.5960000 0.8477500 -0.0225000
v -0.5400000 0.7247500 0.0000000
v -0.5492500 0.7377500 -0.0375000
v -0.5142500 0.6882500 -0.0475000
v -0.5400000 0.7247500 0.0000000
v -0.5142500 0.6882500 -0.0475000
v -0.5260000 0.7015000 0.0000000
v -0.3122500 0.6250000 -0.0675000
v -0.3810000 0.6037500 -0.0675000
v -0.3497500 0.6747500 -0.0650000
v -0.4790000 0.6437500 -0.0525000
v -0.4287500 0.6012500 -0.0600000
v -0.4362500 0.5990000 -0.0300000
v -0.2490000 0.5917500 -0.0725000
v -0.3255000 0.5632500 -0.0750000
v -0.3122500 0.6250000 -0.0675000
v -0.4337500 0.5990000 0.0000000
v -0.4362500 0.5990000 -0.0300000
v -0.3757500 0.5607500 0.0000000
v -0.2272500 0.5305000 -0.0775000
v -0.3145000 0.5350000 -0.0375000
v -0.3017500 0.5420000 -0.0725000
v -0.2272500 0.5305000 -0.0775000
v -0.3017500 0.5420000 -0.0725000
v -0.2830000 0.5635000 -0.0775000
v -0.1507500 0.9370000 0.0000000
v -0.1555000 0.9422500 -0.0175000
v -0.1627500 0.9477500 0.0000000
v -0.3757500 0.5607500 0.0000000
v -0.3145000 0.5350000 -0.0375000
v -0.3142500 0.5400000 0.0000000
v -0.1320000 0.9135000 0.0000000
v -0.1555000 0.9422500 -0.0175000
v -0.1507500 0.9370000 0.0000000
v -0.4692500 0.9737500 0.0000000
v -0.4600000 0.9607500 -0.0275000
v -0.4765000 0.9792500 -0.0300000
v -0.4787500 0.9842500 0.0000000
v -0.5212500 0.9840000 0.0000000
v -0.5677500 0.9590000 -0.0200000
v -0.5627500 0.9587500 0.0000000
v -0.4790000 0.6437500 -0.0525000
v -0.5142500 0.6882500 -0.0475000
v -0.4725000 0.7210000 -0.0550000
v -0.3455000 0.7570000 -0.0650000
v -0.4450000 0.6745000 -0.0625000
v -0.4725000 0.7210000 -0.0550000
v -0.1307500 0.8885000 -0.0625000
v -0.2322500 0.8137500 -0.0650000
v -0.2147500 0.8602500 -0.0675000
v -0.3455000 0.7570000 -0.0650000
v -0.3497500 0.6747500 -0.0650000
v -0.4287500 0.6012500 -0.0600000
v -0.5295000 0.7792500 -0.0450000
v -0.4725000 0.7210000 -0.0550000
v -0.5492500 0.7377500 -0.0375000
v -0.5142500 0.6882500 -0.0475000
v -0.5492500 0.7377500 -0.0375000
v -0.4725000 0.7210000 -0.0550000
v -0.0432500 0.7412500 -0.0875000
v 0.0240000 0.7827500 -0.0850000
v -0.0307500 0.6455000 -0.0850000
v -0.3455000 0.7570000 -0.0650000
v -0.4287500 0.6012500 -0.0600000
v -0.4450000 0.6745000 -0.0625000
v -0.0070000 0.8145000 0.0000000
v -0.0097500 0.8095000 -0.0325000
v -0.0220000 0.8127500 0.0000000
v -0.3732500 0.5607500 -0.0650000
v -0.4287500 0.6012500 -0.0600000
v -0.3810000 0.6037500 -0.0675000
v -0.3732500 0.5607500 -0.0650000
v -0.3122500 0.6250000 -0.0675000
v -0.3255000 0.5632500 -0.0750000
v -0.3017500 0.5420000 -0.0725000
v -0.3732500 0.5607500 -0.0650000
v -0.3255000 0.5632500 -0.0750000
v -0.2945000 0.5340000 0.0000000
v -0.3145000 0.5350000 -0.0375000
v -0.2500000 0.5242500 0.0000000
v -0.4902500 0.8147500 -0.0475000
v -0.5295000 0.7792500 -0.0450000
v -0.5610000 0.8460000 -0.0325000
v -0.2402500 0.5212500 -0.0425000
v -0.2500000 0.5242500 0.0000000
v -0.3145000 0.5350000 -0.0375000
v -0.4902500 0.8147500 -0.0475000
v -0.4725000 0.7210000 -0.0550000
v -0.5295000 0.7792500 -0.0450000
v -0.2830000 0.5635000 -0.0775000
v -0.3017500 0.5420000 -0.0725000
v -0.3255000 0.5632500 -0.0750000
v -0.3732500 0.5607500 -0.0650000
v -0.3810000 0.6037500 -0.0675000
v -0.3122500 0.6250000 -0.0675000
v -0.3757500 0.5607500 0.0000000
v -0.3732500 0.5607500 -0.0650000
v -0.3145000 0.5350000 -0.0375000
v -0.3017500 0.5420000 -0.0725000
v -0.3145000 0.5350000 -0.0375000
v -0.3732500 0.5607500 -0.0650000
v -0.4287500 0.6012500 -0.0600000
v -0.3732500 0.5607500 -0.0650000
v -0.4362500 0.5990000 -0.0300000
v -0.3732500 0.5607500 -0.0650000
v -0.3757500 0.5607500 0.0000000
v -0.4362500 0.5990000 -0.0300000
v -0.5762500 0.7942500 0.0000000
v -0.5697500 0.7762500 -0.0150000
v -0.5675000 0.7712500 0.0000000
v -0.5962500 0.8427500 0.0000000
v -0.5960000 0.8477500 -0.0225000
v -0.5762500 0.7942500 0.0000000
v -0.5960000 0.8477500 -0.0225000
v -0.5697500 0.7762500 -0.0150000
v -0.5762500 0.7942500 0.0000000
v -0.5627500 0.9587500 0.0000000
v -0.5677500 0.9590000 -0.0200000
v -0.5960000 0.9430000 0.0000000
v -0.1257500 0.8882500 0.0000000
v -0.1257500 0.8907500 -0.0250000
v -0.1320000 0.9135000 0.0000000
v -0.0722500 0.8602500 0.0000000
v -0.0932500 0.8865000 -0.0275000
v -0.0910000 0.8837500 0.0000000
v -0.6062500 0.8907500 0.0000000
v -0.6037500 0.8907500 -0.0250000
v -0.6025000 0.8657500 0.0000000
v -0.6037500 0.8907500 -0.0250000
v -0.5960000 0.8477500 -0.0225000
v -0.6025000 0.8657500 0.0000000
v -0.3145000 0.5350000 -0.0375000
v -0.2272500 0.5305000 -0.0775000
v -0.2402500 0.5212500 -0.0425000
v -0.3142500 0.5400000 0.0000000
v -0.3145000 0.5350000 -0.0375000
v -0.2945000 0.5340000 0.0000000
v -0.2830000 0.5635000 -0.0775000
v -0.3255000 0.5632500 -0.0750000
v -0.2490000 0.5917500 -0.0725000
v -0.4790000 0.6437500 -0.0525000
v -0.4725000 0.7210000 -0.0550000
v -0.4450000 0.6745000 -0.0625000
v -0.4287500 0.6012500 -0.0600000
v -0.3497500 0.6747500 -0.0650000
v -0.3810000 0.6037500 -0.0675000
v -0.6037500 0.8907500 -0.0250000
v -0.5610000 0.8460000 -0.0325000
v -0.5960000 0.8477500 -0.0225000
v -0.5610000 0.8460000 -0.0325000
v -0.5295000 0.7792500 -0.0450000
v -0.5687500 0.7937500 -0.0325000
v -0.2490000 0.5917500 -0.0725000
v -0.3122500 0.6250000 -0.0675000
v -0.2325000 0.7135000 -0.0700000
v -0.5060000 0.8455000 -0.0375000
v -0.4902500 0.8147500 -0.0475000
v -0.5610000 0.8460000 -0.0325000
v -0.5675000 0.7712500 0.0000000
v -0.5697500 0.7762500 -0.0150000
v -0.5607500 0.7582500 0.0000000
v -0.5492500 0.7377500 -0.0375000
v -0.5687500 0.7937500 -0.0325000
v -0.5295000 0.7792500 -0.0450000
v -0.5492500 0.7377500 -0.0375000
v -0.5697500 0.7762500 -0.0150000
v -0.5687500 0.7937500 -0.0325000
v -0.3612500 0.8830000 -0.0400000
v -0.4032500 0.8977500 -0.0450000
v -0.3442500 0.9697500 -0.0375000
v -0.4790000 0.6437500 -0.0525000
v -0.4840000 0.6465000 0.0000000
v -0.5142500 0.6882500 -0.0475000
v -0.4790000 0.6437500 -0.0525000
v -0.4362500 0.5990000 -0.0300000
v -0.4840000 0.6465000 0.0000000
v -0.4840000 0.6465000 0.0000000
v -0.4362500 0.5990000 -0.0300000
v -0.4337500 0.5990000 0.0000000
v -0.5607500 0.7582500 0.0000000
v -0.5697500 0.7762500 -0.0150000
v -0.5492500 0.7377500 -0.0375000
v -0.5607500 0.7582500 0.0000000
v -0.5492500 0.7377500 -0.0375000
v -0.5400000 0.7247500 0.0000000
v -0.4450000 0.6745000 -0.0625000
v -0.4287500 0.6012500 -0.0600000
v -0.4790000 0.6437500 -0.0525000
v -0.2222500 0.7655000 -0.0450000
v -0.1307500 0.8885000 -0.0625000
v -0.1577500 0.7572500 -0.0750000
v -0.6037500 0.8907500 -0.0250000
v -0.5337500 0.9395000 -0.0375000
v -0.5265000 0.8867500 -0.0175000
v -0.2325000 0.7135000 -0.0700000
v -0.3497500 0.6747500 -0.0650000
v -0.3455000 0.7570000 -0.0650000
v -0.3497500 0.6747500 -0.0650000
v -0.2325000 0.7135000 -0.0700000
v -0.3122500 0.6250000 -0.0675000
v -0.2830000 0.5635000 -0.0775000
v -0.2490000 0.5917500 -0.0725000
v -0.2272500 0.5305000 -0.0775000
v -0.2272500 0.5305000 -0.0775000
v -0.2490000 0.5917500 -0.0725000
v -0.1590000 0.6345000 -0.0775000
v -0.2272500 0.5305000 -0.0775000
v -0.1590000 0.6345000 -0.0775000
v -0.1387500 0.5910000 -0.0800000
v -0.6037500 0.8907500 -0.0250000
v -0.5960000 0.9430000 0.0000000
v -0.5677500 0.9590000 -0.0200000
v -0.5265000 0.8867500 -0.0175000
v -0.4607500 0.8957500 -0.0225000
v -0.4175000 0.8635000 -0.0300000
v -0.5610000 0.8460000 -0.0325000
v -0.6037500 0.8907500 -0.0250000
v -0.5265000 0.8867500 -0.0175000
v -0.5610000 0.8460000 -0.0325000
v -0.5265000 0.8867500 -0.0175000
v -0.5060000 0.8455000 -0.0375000
v -0.5337500 0.9395000 -0.0375000
v -0.6037500 0.8907500 -0.0250000
v -0.5677500 0.9590000 -0.0200000
v -0.4145000 0.8232500 -0.0500000
v -0.5060000 0.8455000 -0.0375000
v -0.4175000 0.8635000 -0.0300000
v -0.5265000 0.8867500 -0.0175000
v -0.5337500 0.9395000 -0.0375000
v -0.4607500 0.8957500 -0.0225000
v -0.4145000 0.8232500 -0.0500000
v -0.4902500 0.8147500 -0.0475000
v -0.5060000 0.8455000 -0.0375000
v -0.5060000 0.8455000 -0.0375000
v -0.5265000 0.8867500 -0.0175000
v -0.4175000 0.8635000 -0.0300000
v -0.4175000 0.8635000 -0.0300000
v -0.2970000 0.8195000 -0.0400000
v -0.4145000 0.8232500 -0.0500000
v -0.4032500 0.8977500 -0.0450000
v -0.3612500 0.8830000 -0.0400000
v -0.4175000 0.8635000 -0.0300000
v -0.2970000 0.8195000 -0.0400000
v -0.4175000 0.8635000 -0.0300000
v -0.3612500 0.8830000 -0.0400000
v -0.3167500 0.7805000 -0.0600000
v -0.4145000 0.8232500 -0.0500000
v -0.2970000 0.8195000 -0.0400000
v -0.4145000 0.8232500 -0.0500000
v -0.3167500 0.7805000 -0.0600000
v -0.3455000 0.7570000 -0.0650000
v -0.3455000 0.7570000 -0.0650000
v -0.4725000 0.7210000 -0.0550000
v -0.4902500 0.8147500 -0.0475000
v -0.4145000 0.8232500 -0.0500000
v -0.3455000 0.7570000 -0.0650000
v -0.4902500 0.8147500 -0.0475000
v -0.3417500 0.9720000 0.0000000
v -0.3442500 0.9697500 -0.0375000
v -0.3487500 0.9800000 0.0000000
v -0.4305000 0.9967500 0.0000000
v -0.4600000 0.9607500 -0.0275000
v -0.4492500 0.9727500 0.0000000
v -0.3080000 0.9930000 0.0000000
v -0.2637500 0.9805000 -0.0575000
v -0.3442500 0.9697500 -0.0375000
v -0.3257500 0.9887500 0.0000000
v -0.2847500 0.8640000 -0.0475000
v -0.2322500 0.8137500 -0.0650000
v -0.2970000 0.8195000 -0.0400000
v -0.3455000 0.7570000 -0.0650000
v -0.3167500 0.7805000 -0.0600000
v -0.2325000 0.7135000 -0.0700000
v -0.2847500 0.8640000 -0.0475000
v -0.2970000 0.8195000 -0.0400000
v -0.3190000 0.8782500 -0.0525000
v -0.2222500 0.7655000 -0.0450000
v -0.2970000 0.8195000 -0.0400000
v -0.2322500 0.8137500 -0.0650000
v -0.2325000 0.7135000 -0.0700000
v -0.2222500 0.7655000 -0.0450000
v -0.1410000 0.6912500 -0.0525000
v -0.2970000 0.8195000 -0.0400000
v -0.2325000 0.7135000 -0.0700000
v -0.3167500 0.7805000 -0.0600000
v -0.2147500 0.8602500 -0.0675000
v -0.2322500 0.8137500 -0.0650000
v -0.2847500 0.8640000 -0.0475000
v -0.2325000 0.7135000 -0.0700000
v -0.1410000 0.6912500 -0.0525000
v -0.1590000 0.6345000 -0.0775000
v -0.1410000 0.6912500 -0.0525000
v -0.2222500 0.7655000 -0.0450000
v -0.1577500 0.7572500 -0.0750000
v -0.1590000 0.6345000 -0.0775000
v -0.0887500 0.5932500 -0.0650000
v -0.1387500 0.5910000 -0.0800000
v -0.1590000 0.6345000 -0.0775000
v -0.2490000 0.5917500 -0.0725000
v -0.2325000 0.7135000 -0.0700000
v -0.0907500 0.6960000 -0.0825000
v -0.0887500 0.5932500 -0.0650000
v -0.1410000 0.6912500 -0.0525000
v -0.0887500 0.5932500 -0.0650000
v -0.0907500 0.6960000 -0.0825000
v -0.0307500 0.6455000 -0.0850000
v -0.0432500 0.7412500 -0.0875000
v -0.0307500 0.6455000 -0.0850000
v -0.0907500 0.6960000 -0.0825000
v -0.1590000 0.6345000 -0.0775000
v -0.1410000 0.6912500 -0.0525000
v -0.0887500 0.5932500 -0.0650000
v -0.0027500 0.8017500 0.0000000
v -0.0097500 0.8095000 -0.0325000
v -0.0070000 0.8145000 0.0000000
v -0.0445000 0.8137500 0.0000000
v -0.0450000 0.8062500 -0.0525000
v -0.0677500 0.8475000 -0.0775000
v -0.0450000 0.8062500 -0.0525000
v -0.0097500 0.8095000 -0.0325000
v 0.0240000 0.7827500 -0.0850000
v -0.0445000 0.8137500 0.0000000
v -0.0677500 0.8475000 -0.0775000
v -0.0557500 0.8395000 0.0000000
v -0.0635000 0.7872500 -0.0700000
v -0.0450000 0.8062500 -0.0525000
v 0.0240000 0.7827500 -0.0850000
v -0.0677500 0.8475000 -0.0775000
v -0.0450000 0.8062500 -0.0525000
v -0.0635000 0.7872500 -0.0700000
v -0.0677500 0.8475000 -0.0775000
v -0.0635000 0.7872500 -0.0700000
v -0.1237500 0.7855000 -0.0750000
v 0.0240000 0.7827500 -0.0850000
v -0.0432500 0.7412500 -0.0875000
v -0.0635000 0.7872500 -0.0700000
v -0.0445000 0.8137500 0.0000000
v -0.0097500 0.8095000 -0.0325000
v -0.0450000 0.8062500 -0.0525000
v -0.1577500 0.7572500 -0.0750000
v -0.0635000 0.7872500 -0.0700000
v -0.1410000 0.6912500 -0.0525000
v -0.1410000 0.6912500 -0.0525000
v -0.0635000 0.7872500 -0.0700000
v -0.0907500 0.6960000 -0.0825000
v -0.1577500 0.7572500 -0.0750000
v -0.1237500 0.7855000 -0.0750000
v -0.0635000 0.7872500 -0.0700000
v -0.0220000 0.8127500 0.0000000
v -0.0097500 0.8095000 -0.0325000
v -0.0445000 0.8137500 0.0000000
v -0.0907500 0.6960000 -0.0825000
v -0.0635000 0.7872500 -0.0700000
v -0.0432500 0.7412500 -0.0875000
v -0.0557500 0.8395000 0.0000000
v -0.0677500 0.8475000 -0.0775000
v -0.0722500 0.8602500 0.0000000
v -0.0677500 0.8475000 -0.0775000
v -0.0932500 0.8865000 -0.0275000
v -0.0722500 0.8602500 0.0000000
v -0.0677500 0.8475000 -0.0775000
v -0.1237500 0.7855000 -0.0750000
v -0.1085000 0.8822500 -0.0675000
v -0.1577500 0.7572500 -0.0750000
v -0.1085000 0.8822500 -0.0675000
v -0.1237500 0.7855000 -0.0750000
v -0.2147500 0.8602500 -0.0675000
v -0.1487500 0.9295000 -0.0650000
v -0.1307500 0.8885000 -0.0625000
v -0.5960000 0.9430000 0.0000000
v -0.6037500 0.8907500 -0.0250000
v -0.6062500 0.8907500 0.0000000
v -0.1307500 0.8885000 -0.0625000
v -0.1320000 0.9135000 0.0000000
v -0.1257500 0.8907500 -0.0250000
v -0.1307500 0.8885000 -0.0625000
v -0.1257500 0.8907500 -0.0250000
v -0.1085000 0.8822500 -0.0675000
v -0.0932500 0.8865000 -0.0275000
v -0.1085000 0.8822500 -0.0675000
v -0.1257500 0.8907500 -0.0250000
v -0.1085000 0.8822500 -0.0675000
v -0.0932500 0.8865000 -0.0275000
v -0.0677500 0.8475000 -0.0775000
v -0.1320000 0.9135000 0.0000000
v -0.1487500 0.9295000 -0.0650000
v -0.1555000 0.9422500 -0.0175000
v -0.1307500 0.8885000 -0.0625000
v -0.1487500 0.9295000 -0.0650000
v -0.1320000 0.9135000 0.0000000
v -0.0910000 0.8837500 0.0000000
v -0.0932500 0.8865000 -0.0275000
v -0.1007500 0.8870000 0.0000000
v -0.1007500 0.8870000 0.0000000
v -0.0932500 0.8865000 -0.0275000
v -0.1257500 0.8907500 -0.0250000
v -0.1007500 0.8870000 0.0000000
v -0.1257500 0.8907500 -0.0250000
v -0.1257500 0.8882500 0.0000000
v -0.2322500 0.8137500 -0.0650000
v -0.1307500 0.8885000 -0.0625000
v -0.2222500 0.7655000 -0.0450000
v -0.2325000 0.7135000 -0.0700000
v -0.2970000 0.8195000 -0.0400000
v -0.2222500 0.7655000 -0.0450000
v -0.1085000 0.8822500 -0.0675000
v -0.1577500 0.7572500 -0.0750000
v -0.1307500 0.8885000 -0.0625000
v -0.2350000 0.9515000 -0.0450000
v -0.3060000 0.9377500 -0.0525000
v -0.2637500 0.9805000 -0.0575000
v -0.1487500 0.9295000 -0.0650000
v -0.2047500 0.9600000 -0.0525000
v -0.1555000 0.9422500 -0.0175000
v -0.1627500 0.9477500 0.0000000
v -0.1555000 0.9422500 -0.0175000
v -0.1897500 0.9567500 0.0000000
v -0.1555000 0.9422500 -0.0175000
v -0.2047500 0.9600000 -0.0525000
v -0.1897500 0.9567500 0.0000000
v -0.2047500 0.9575000 0.0000000
v -0.2047500 0.9600000 -0.0525000
v -0.2225000 0.9532500 0.0000000
v -0.2047500 0.9600000 -0.0525000
v -0.2350000 0.9515000 -0.0450000
v -0.2225000 0.9532500 0.0000000
v -0.2225000 0.9532500 0.0000000
v -0.2350000 0.9515000 -0.0450000
v -0.2352500 0.9490000 0.0000000
v -0.2342500 0.9665000 0.0000000
v -0.2350000 0.9515000 -0.0450000
v -0.2437500 0.9770000 0.0000000
v -0.2350000 0.9515000 -0.0450000
v -0.2637500 0.9805000 -0.0575000
v -0.2437500 0.9770000 0.0000000
v -0.2047500 0.9600000 -0.0525000
v -0.2147500 0.8602500 -0.0675000
v -0.2350000 0.9515000 -0.0450000
v -0.2147500 0.8602500 -0.0675000
v -0.2847500 0.8640000 -0.0475000
v -0.2350000 0.9515000 -0.0450000
v -0.1897500 0.9567500 0.0000000
v -0.2047500 0.9600000 -0.0525000
v -0.2047500 0.9575000 0.0000000
v -0.2437500 0.9770000 0.0000000
v -0.2637500 0.9805000 -0.0575000
v -0.3080000 0.9930000 0.0000000
v -0.3060000 0.9377500 -0.0525000
v -0.3190000 0.8782500 -0.0525000
v -0.3612500 0.8830000 -0.0400000
v -0.2147500 0.8602500 -0.0675000
v -0.2047500 0.9600000 -0.0525000
v -0.1487500 0.9295000 -0.0650000
v -0.2350000 0.9515000 -0.0450000
v -0.2847500 0.8640000 -0.0475000
v -0.3060000 0.9377500 -0.0525000
v -0.2352500 0.9490000 0.0000000
v -0.2350000 0.9515000 -0.0450000
v -0.2342500 0.9665000 0.0000000
v -0.3060000 0.9377500 -0.0525000
v -0.2847500 0.8640000 -0.0475000
v -0.3190000 0.8782500 -0.0525000
v -0.3060000 0.9377500 -0.0525000
v -0.3442500 0.9697500 -0.0375000
v -0.2637500 0.9805000 -0.0575000
v -0.3257500 0.9887500 0.0000000
v -0.3442500 0.9697500 -0.0375000
v -0.3417500 0.9720000 0.0000000
v -0.3487500 0.9800000 0.0000000
v -0.3442500 0.9697500 -0.0375000
v -0.3807500 0.9917500 -0.0425000
v -0.3705000 0.9937500 0.0000000
v -0.3705000 0.9937500 0.0000000
v -0.3807500 0.9917500 -0.0425000
v -0.4305000 0.9967500 0.0000000
v -0.3060000 0.9377500 -0.0525000
v -0.3612500 0.8830000 -0.0400000
v -0.3442500 0.9697500 -0.0375000
v -0.4032500 0.8977500 -0.0450000
v -0.3807500 0.9917500 -0.0425000
v -0.3442500 0.9697500 -0.0375000
v -0.3807500 0.9917500 -0.0425000
v -0.4600000 0.9607500 -0.0275000
v -0.4305000 0.9967500 0.0000000
v -0.4600000 0.9607500 -0.0275000
v -0.5337500 0.9395000 -0.0375000
v -0.4765000 0.9792500 -0.0300000
v -0.5677500 0.9590000 -0.0200000
v -0.5212500 0.9840000 0.0000000
v -0.4765000 0.9792500 -0.0300000
v -0.3807500 0.9917500 -0.0425000
v -0.4032500 0.8977500 -0.0450000
v -0.4600000 0.9607500 -0.0275000
v -0.4607500 0.8957500 -0.0225000
v -0.4032500 0.8977500 -0.0450000
v -0.4175000 0.8635000 -0.0300000
v -0.4765000 0.9792500 -0.0300000
v -0.5337500 0.9395000 -0.0375000
v -0.5677500 0.9590000 -0.0200000
v -0.4492500 0.9727500 0.0000000
v -0.4600000 0.9607500 -0.0275000
v -0.4572500 0.9632500 0.0000000
v -0.4787500 0.9842500 0.0000000
v -0.4765000 0.9792500 -0.0300000
v -0.5212500 0.9840000 0.0000000
v -0.4572500 0.9632500 0.0000000
v -0.4600000 0.9607500 -0.0275000
v -0.4692500 0.9737500 0.0000000
v -0.4600000 0.9607500 -0.0275000
v -0.4607500 0.8957500 -0.0225000
v -0.5337500 0.9395000 -0.0375000
v -0.4607500 0.8957500 -0.0225000
v -0.4600000 0.9607500 -0.0275000
v -0.4032500 0.8977500 -0.0450000
v -0.6025000 0.8657500 0.0000000
v -0.5960000 0.8477500 -0.0225000
v -0.5962500 0.8427500 0.0000000
v -0.5610000 0.8460000 -0.0325000
v -0.5687500 0.7937500 -0.0325000
v -0.5960000 0.8477500 -0.0225000
v -0.0597500 0.7567500 0.0000000
v -0.0055000 0.8790000 0.0000000
v -0.0547500 0.7562500 -0.0272500
v -0.0055000 0.8790000 0.0000000
v 0.0062500 0.8725000 -0.0500000
v -0.0547500 0.7562500 -0.0272500
v -0.0935000 0.6287500 -0.0525000
v -0.0460000 0.7517500 -0.0527500
v -0.0770000 0.6265000 -0.0737500
v 0.0062500 0.8725000 -0.0500000
v 0.0382500 0.8550000 -0.0865000
v -0.0557500 0.6220000 -0.0910000
v -0.0037500 0.6127500 -0.1052500
v -0.0557500 0.6220000 -0.0910000
v 0.0382500 0.8550000 -0.0865000
v 0.0820000 0.8307500 -0.1000000
v 0.0480000 0.6035000 -0.0910000
v -0.0037500 0.6127500 -0.1052500
v 0.0820000 0.8307500 -0.1000000
v 0.1257500 0.8067500 -0.0865000
v 0.0698000 0.8763750 0.0000000
v 0.0645000 0.8797500 -0.0235000
v 0.0592500 0.8830000 0.0000000
v 0.0883000 0.8648250 0.0000000
v 0.0790000 0.8705000 -0.0407500
v 0.0645000 0.8797500 -0.0235000
v 0.0698000 0.8763750 0.0000000
v 0.1097000 0.8515500 0.0000000
v 0.0990000 0.8582500 -0.0470000
v 0.0790000 0.8705000 -0.0407500
v 0.0883000 0.8648250 0.0000000
v 0.1282000 0.8398750 0.0000000
v 0.1190000 0.8457500 -0.0407500
v 0.0990000 0.8582500 -0.0470000
v 0.1097000 0.8515500 0.0000000
v 0.1387500 0.8332500 0.0000000
v 0.1335000 0.8365000 -0.0235000
v 0.1190000 0.8457500 -0.0407500
v 0.1282000 0.8398750 0.0000000
v 0.1637500 1.0387500 -0.0235000
v 0.1250000 1.0630000 -0.0500000
v 0.1135000 1.0702500 0.0000000
v 0.1585000 1.0420000 0.0000000
v 0.1785000 1.0295000 -0.0407500
v 0.1560000 1.0437500 -0.0865000
v 0.1250000 1.0630000 -0.0500000
v 0.1637500 1.0387500 -0.0235000
v 0.1982500 1.0172500 -0.0470000
v 0.1985000 1.0172500 -0.1000000
v 0.1560000 1.0437500 -0.0865000
v 0.1785000 1.0295000 -0.0407500
v 0.2182500 1.0047500 -0.0407500
v 0.2407500 0.9907500 -0.0865000
v 0.1985000 1.0172500 -0.1000000
v 0.1982500 1.0172500 -0.0470000
v 0.2327500 0.9957500 -0.0235000
v 0.2717500 0.9712500 -0.0500000
v 0.2407500 0.9907500 -0.0865000
v 0.2182500 1.0047500 -0.0407500
v 0.2382500 0.9922500 0.0000000
v 0.2832500 0.9642500 0.0000000
v 0.2717500 0.9712500 -0.0500000
v 0.2327500 0.9957500 -0.0235000
v 0.1585000 1.0420000 0.0000000
v 0.0592500 0.8830000 0.0000000
v 0.0645000 0.8797500 -0.0235000
v 0.1637500 1.0387500 -0.0235000
v 0.1637500 1.0387500 -0.0235000
v 0.0645000 0.8797500 -0.0235000
v 0.0790000 0.8705000 -0.0407500
v 0.1785000 1.0295000 -0.0407500
v 0.1785000 1.0295000 -0.0407500
v 0.0790000 0.8705000 -0.0407500
v 0.0990000 0.8582500 -0.0470000
v 0.1982500 1.0172500 -0.0470000
v 0.1982500 1.0172500 -0.0470000
v 0.0990000 0.8582500 -0.0470000
v 0.1190000 0.8457500 -0.0407500
v 0.2182500 1.0047500 -0.0407500
v 0.2182500 1.0047500 -0.0407500
v 0.1190000 0.8457500 -0.0407500
v 0.1335000 0.8365000 -0.0235000
v 0.2327500 0.9957500 -0.0235000
v 0.2327500 0.9957500 -0.0235000
v 0.1335000 0.8365000 -0.0235000
v 0.1387500 0.8332500 0.0000000
v 0.2382500 0.9922500 0.0000000
v -0.1137500 0.5957500 0.0000000
v -0.1072500 0.6145000 -0.0265000
v -0.0995000 0.5952500 -0.0525000
v -0.0995000 0.5952500 -0.0525000
v -0.1072500 0.6145000 -0.0265000
v -0.1035000 0.6312500 -0.0267500
v -0.0995000 0.5952500 -0.0525000
v -0.0935000 0.6287500 -0.0525000
v -0.0800000 0.6130000 -0.0740000
v -0.0800000 0.6130000 -0.0740000
v -0.0935000 0.6287500 -0.0525000
v -0.0770000 0.6265000 -0.0737500
v -0.0070000 0.5947500 -0.1052500
v -0.0605000 0.5950000 -0.0910000
v -0.0557500 0.6220000 -0.0910000
v -0.0037500 0.6127500 -0.1052500
v 0.0462500 0.5947500 -0.0910000
v -0.0070000 0.5947500 -0.1052500
v -0.0037500 0.6127500 -0.1052500
v 0.0480000 0.6035000 -0.0910000
v 0.0855000 0.5950000 -0.0525000
v 0.0462500 0.5947500 -0.0910000
v 0.0480000 0.6035000 -0.0910000
v 0.0855000 0.5950000 -0.0525000
v 0.0480000 0.6035000 -0.0910000
v 0.1257500 0.8067500 -0.0865000
v 0.1577500 0.7890000 -0.0500000
v 0.1000000 0.5950000 0.0000000
v 0.0855000 0.5950000 -0.0525000
v 0.1577500 0.7890000 -0.0500000
v 0.1695000 0.7827500 0.0000000
v 0.0062500 0.8725000 -0.0500000
v -0.0055000 0.8790000 0.0000000
v 0.1135000 1.0702500 0.0000000
v 0.1250000 1.0630000 -0.0500000
v 0.0382500 0.8550000 -0.0865000
v 0.0062500 0.8725000 -0.0500000
v 0.1250000 1.0630000 -0.0500000
v 0.1560000 1.0437500 -0.0865000
v 0.0820000 0.8307500 -0.1000000
v 0.0382500 0.8550000 -0.0865000
v 0.1560000 1.0437500 -0.0865000
v 0.1985000 1.0172500 -0.1000000
v 0.1257500 0.8067500 -0.0865000
v 0.0820000 0.8307500 -0.1000000
v 0.1985000 1.0172500 -0.1000000
v 0.2407500 0.9907500 -0.0865000
v 0.1577500 0.7890000 -0.0500000
v 0.1257500 0.8067500 -0.0865000
v 0.2407500 0.9907500 -0.0865000
v 0.2717500 0.9712500 -0.0500000
v 0.1695000 0.7827500 0.0000000
v 0.1577500 0.7890000 -0.0500000
v 0.2717500 0.9712500 -0.0500000
v 0.2832500 0.9642500 0.0000000
v -0.1075000 0.6312500 0.0000000
v -0.0547500 0.7562500 -0.0272500
v -0.1035000 0.6312500 -0.0267500
v -0.0547500 0.7562500 -0.0272500
v -0.0460000 0.7517500 -0.0527500
v -0.0935000 0.6287500 -0.0525000
v -0.1035000 0.6312500 -0.0267500
v -0.0460000 0.7517500 -0.0527500
v 0.0062500 0.8725000 -0.0500000
v -0.0557500 0.6220000 -0.0910000
v -0.0547500 0.7562500 -0.0272500
v 0.0062500 0.8725000 -0.0500000
v -0.0460000 0.7517500 -0.0527500
v -0.1075000 0.6312500 0.0000000
v -0.0597500 0.7567500 0.0000000
v -0.0547500 0.7562500 -0.0272500
v -0.0995000 0.5952500 -0.0525000
v -0.0800000 0.6130000 -0.0740000
v -0.0605000 0.5950000 -0.0910000
v -0.0605000 0.5950000 -0.0910000
v -0.0800000 0.6130000 -0.0740000
v -0.0557500 0.6220000 -0.0910000
v -0.0995000 0.5952500 -0.0525000
v -0.1035000 0.6312500 -0.0267500
v -0.0935000 0.6287500 -0.0525000
v -0.0770000 0.6265000 -0.0737500
v -0.0460000 0.7517500 -0.0527500
v -0.0557500 0.6220000 -0.0910000
v -0.0800000 0.6130000 -0.0740000
v -0.0770000 0.6265000 -0.0737500
v -0.0557500 0.6220000 -0.0910000
v -0.1137500 0.5957500 0.0000000
v -0.1075000 0.6312500 0.0000000
v -0.1072500 0.6145000 -0.0265000
v -0.1072500 0.6145000 -0.0265000
v -0.1075000 0.6312500 0.0000000
v -0.1035000 0.6312500 -0.0267500
v 0.1500000 0.5975000 -0.0875000
v 0.0850000 0.5975000 -0.0500000
v 0.1000000 0.5975000 0.0000000
v 0.1725000 0.5975000 0.0000000
v 0.2150000 0.5700000 -0.1250000
v 0.1500000 0.5975000 -0.0875000
v 0.1725000 0.5975000 0.0000000
v 0.2475000 0.5700000 0.0000000
v 0.0850000 0.5975000 -0.0500000
v 0.1500000 0.5975000 -0.0875000
v 0.0875000 0.5975000 -0.1500000
v 0.0500000 0.5975000 -0.0850000
v 0.1500000 0.5975000 -0.0875000
v 0.2150000 0.5700000 -0.1250000
v 0.1250000 0.5700000 -0.2150000
v 0.0875000 0.5975000 -0.1500000
v 0.2575000 0.5075000 -0.1500000
v 0.2150000 0.5700000 -0.1250000
v 0.2475000 0.5700000 0.0000000
v 0.2975000 0.5075000 0.0000000
v 0.2150000 0.5700000 -0.1250000
v 0.2575000 0.5075000 -0.1500000
v 0.1500000 0.5075000 -0.2575000
v 0.1250000 0.5700000 -0.2150000
v 0.0500000 0.5975000 -0.0850000
v 0.0875000 0.5975000 -0.1500000
v 0.0000000 0.5975000 -0.1725000
v 0.0000000 0.5975000 -0.1000000
v 0.0875000 0.5975000 -0.1500000
v 0.1250000 0.5700000 -0.2150000
v 0.0000000 0.5700000 -0.2475000
v 0.0000000 0.5975000 -0.1725000
v 0.1250000 0.5700000 -0.2150000
v 0.1500000 0.5075000 -0.2575000
v 0.0000000 0.5075000 -0.2975000
v 0.0000000 0.5700000 -0.2475000
v 0.2775000 0.4300000 -0.1600000
v 0.2575000 0.5075000 -0.1500000
v 0.2975000 0.5075000 0.0000000
v 0.3200000 0.4300000 0.0000000
v 0.2800000 0.3500000 -0.1600000
v 0.2775000 0.4300000 -0.1600000
v 0.3200000 0.4300000 0.0000000
v 0.3225000 0.3500000 0.0000000
v 0.2575000 0.5075000 -0.1500000
v 0.2775000 0.4300000 -0.1600000
v 0.1600000 0.4300000 -0.2775000
v 0.1500000 0.5075000 -0.2575000
v 0.1600000 0.3500000 -0.2775000
v 0.2775000 0.4300000 -0.1600000
v 0.2800000 0.3500000 -0.1600000
v 0.1600000 0.3500000 -0.2775000
v 0.1600000 0.4300000 -0.2775000
v 0.2775000 0.4300000 -0.1600000
v 0.2700000 0.2700000 -0.1550000
v 0.3225000 0.3500000 0.0000000
v 0.3125000 0.2700000 0.0000000
v 0.2700000 0.2700000 -0.1550000
v 0.2800000 0.3500000 -0.1600000
v 0.3225000 0.3500000 0.0000000
v 0.1550000 0.2700000 -0.2700000
v 0.2800000 0.3500000 -0.1600000
v 0.2700000 0.2700000 -0.1550000
v 0.1600000 0.3500000 -0.2775000
v 0.2800000 0.3500000 -0.1600000
v 0.1550000 0.2700000 -0.2700000
v 0.1500000 0.5075000 -0.2575000
v 0.1600000 0.4300000 -0.2775000
v 0.0000000 0.4300000 -0.3200000
v 0.0000000 0.5075000 -0.2975000
v 0.0000000 0.3500000 -0.3225000
v 0.1600000 0.4300000 -0.2775000
v 0.1600000 0.3500000 -0.2775000
v 0.0000000 0.3500000 -0.3225000
v 0.0000000 0.4300000 -0.3200000
v 0.1600000 0.4300000 -0.2775000
v 0.1600000 0.3500000 -0.2775000
v 0.1550000 0.2700000 -0.2700000
v 0.0000000 0.2700000 -0.3125000
v 0.0000000 0.3500000 -0.3225000
v 0.2550000 0.1925000 -0.1475000
v 0.3125000 0.2700000 0.0000000
v 0.2925000 0.1925000 0.0000000
v 0.2550000 0.1925000 -0.1475000
v 0.2700000 0.2700000 -0.1550000
v 0.3125000 0.2700000 0.0000000
v 0.2300000 0.1175000 -0.1325000
v 0.2925000 0.1925000 0.0000000
v 0.2650000 0.1175000 0.0000000
v 0.2300000 0.1175000 -0.1325000
v 0.2550000 0.1925000 -0.1475000
v 0.2925000 0.1925000 0.0000000
v 0.2700000 0.2700000 -0.1550000
v 0.2550000 0.1925000 -0.1475000
v 0.1475000 0.1925000 -0.2550000
v 0.1550000 0.2700000 -0.2700000
v 0.2550000 0.1925000 -0.1475000
v 0.2300000 0.1175000 -0.1325000
v 0.1325000 0.1175000 -0.2300000
v 0.1475000 0.1925000 -0.2550000
v 0.2650000 0.1175000 0.0000000
v 0.2250000 0.0450000 0.0000000
v 0.1950000 0.0450000 -0.1125000
v 0.2300000 0.1175000 -0.1325000
v 0.2300000 0.1175000 -0.1325000
v 0.1950000 0.0450000 -0.1125000
v 0.1125000 0.0450000 -0.1950000
v 0.1325000 0.1175000 -0.2300000
v 0.0000000 0.1925000 -0.2925000
v 0.1550000 0.2700000 -0.2700000
v 0.1475000 0.1925000 -0.2550000
v 0.0000000 0.2700000 -0.3125000
v 0.1550000 0.2700000 -0.2700000
v 0.0000000 0.1925000 -0.2925000
v 0.0000000 0.1175000 -0.2650000
v 0.1475000 0.1925000 -0.2550000
v 0.1325000 0.1175000 -0.2300000
v 0.0000000 0.1925000 -0.2925000
v 0.1475000 0.1925000 -0.2550000
v 0.0000000 0.1175000 -0.2650000
v 0.1325000 0.1175000 -0.2300000
v 0.1125000 0.0450000 -0.1950000
v 0.0000000 0.0450000 -0.2250000
v 0.0000000 0.1175000 -0.2650000
v 0.1400000 0.0075000 -0.0825000
v 0.2250000 0.0450000 0.0000000
v 0.1600000 0.0150000 0.0000000
v 0.1400000 0.0075000 -0.0825000
v 0.1950000 0.0450000 -0.1125000
v 0.2250000 0.0450000 0.0000000
v 0.0675000 0.0350000 -0.0375000
v 0.1600000 0.0150000 0.0000000
v 0.0775000 0.0400000 0.0000000
v 0.0675000 0.0350000 -0.0375000
v 0.1400000 0.0075000 -0.0825000
v 0.1600000 0.0150000 0.0000000
v 0.0800000 0.0050000 -0.1400000
v 0.1950000 0.0450000 -0.1125000
v 0.1400000 0.0075000 -0.0825000
v 0.1125000 0.0450000 -0.1950000
v 0.1950000 0.0450000 -0.1125000
v 0.0800000 0.0050000 -0.1400000
v 0.0375000 0.0300000 -0.0650000
v 0.1400000 0.0075000 -0.0825000
v 0.0675000 0.0350000 -0.0375000
v 0.0800000 0.0050000 -0.1400000
v 0.1400000 0.0075000 -0.0825000
v 0.0375000 0.0300000 -0.0650000
v 0.0000000 0.0650000 0.0000000
v 0.0675000 0.0350000 -0.0375000
v 0.0775000 0.0400000 0.0000000
v 0.0375000 0.0300000 -0.0650000
v 0.0675000 0.0350000 -0.0375000
v 0.0000000 0.0650000 0.0000000
v 0.0000000 0.0025000 -0.1625000
v 0.1125000 0.0450000 -0.1950000
v 0.0800000 0.0050000 -0.1400000
v 0.0000000 0.0450000 -0.2250000
v 0.1125000 0.0450000 -0.1950000
v 0.0000000 0.0025000 -0.1625000
v 0.0000000 0.0275000 -0.0750000
v 0.0800000 0.0050000 -0.1400000
v 0.0375000 0.0300000 -0.0650000
v 0.0000000 0.0025000 -0.1625000
v 0.0800000 0.0050000 -0.1400000
v 0.0000000 0.0275000 -0.0750000
v 0.0000000 0.0275000 -0.0750000
v 0.0375000 0.0300000 -0.0650000
v 0.0000000 0.0650000 0.0000000
v -0.1000000 0.5975000 0.0000000
v -0.0850000 0.5975000 -0.0500000
v -0.1500000 0.5975000 -0.0875000
v -0.1725000 0.5975000 0.0000000
v -0.1725000 0.5975000 0.0000000
v -0.1500000 0.5975000 -0.0875000
v -0.2150000 0.5700000 -0.1250000
v -0.2475000 0.5700000 0.0000000
v -0.0875000 0.5975000 -0.1500000
v -0.1500000 0.5975000 -0.0875000
v -0.0850000 0.5975000 -0.0500000
v -0.0500000 0.5975000 -0.0850000
v -0.1250000 0.5700000 -0.2150000
v -0.2150000 0.5700000 -0.1250000
v -0.1500000 0.5975000 -0.0875000
v -0.0875000 0.5975000 -0.1500000
v -0.2475000 0.5700000 0.0000000
v -0.2150000 0.5700000 -0.1250000
v -0.2575000 0.5075000 -0.1500000
v -0.2975000 0.5075000 0.0000000
v -0.1500000 0.5075000 -0.2575000
v -0.2575000 0.5075000 -0.1500000
v -0.2150000 0.5700000 -0.1250000
v -0.1250000 0.5700000 -0.2150000
v 0.0000000 0.5975000 -0.1725000
v -0.0875000 0.5975000 -0.1500000
v -0.0500000 0.5975000 -0.0850000
v 0.0000000 0.5975000 -0.1000000
v 0.0000000 0.5700000 -0.2475000
v -0.1250000 0.5700000 -0.2150000
v -0.0875000 0.5975000 -0.1500000
v 0.0000000 0.5975000 -0.1725000
v 0.0000000 0.5075000 -0.2975000
v -0.1500000 0.5075000 -0.2575000
v -0.1250000 0.5700000 -0.2150000
v 0.0000000 0.5700000 -0.2475000
v -0.2975000 0.5075000 0.0000000
v -0.2575000 0.5075000 -0.1500000
v -0.2775000 0.4300000 -0.1600000
v -0.3200000 0.4300000 0.0000000
v -0.3200000 0.4300000 0.0000000
v -0.2775000 0.4300000 -0.1600000
v -0.2800000 0.3500000 -0.1600000
v -0.3225000 0.3500000 0.0000000
v -0.1600000 0.4300000 -0.2775000
v -0.2775000 0.4300000 -0.1600000
v -0.2575000 0.5075000 -0.1500000
v -0.1500000 0.5075000 -0.2575000
v -0.2800000 0.3500000 -0.1600000
v -0.2775000 0.4300000 -0.1600000
v -0.1600000 0.3500000 -0.2775000
v -0.2775000 0.4300000 -0.1600000
v -0.1600000 0.4300000 -0.2775000
v -0.1600000 0.3500000 -0.2775000
v -0.3125000 0.2700000 0.0000000
v -0.3225000 0.3500000 0.0000000
v -0.2700000 0.2700000 -0.1550000
v -0.3225000 0.3500000 0.0000000
v -0.2800000 0.3500000 -0.1600000
v -0.2700000 0.2700000 -0.1550000
v -0.2700000 0.2700000 -0.1550000
v -0.2800000 0.3500000 -0.1600000
v -0.1550000 0.2700000 -0.2700000
v -0.1550000 0.2700000 -0.2700000
v -0.2800000 0.3500000 -0.1600000
v -0.1600000 0.3500000 -0.2775000
v 0.0000000 0.4300000 -0.3200000
v -0.1600000 0.4300000 -0.2775000
v -0.1500000 0.5075000 -0.2575000
v 0.0000000 0.5075000 -0.2975000
v -0.1600000 0.3500000 -0.2775000
v -0.1600000 0.4300000 -0.2775000
v 0.0000000 0.3500000 -0.3225000
v -0.1600000 0.4300000 -0.2775000
v 0.0000000 0.4300000 -0.3200000
v 0.0000000 0.3500000 -0.3225000
v 0.0000000 0.2700000 -0.3125000
v -0.1550000 0.2700000 -0.2700000
v -0.1600000 0.3500000 -0.2775000
v 0.0000000 0.3500000 -0.3225000
v -0.2925000 0.1925000 0.0000000
v -0.3125000 0.2700000 0.0000000
v -0.2550000 0.1925000 -0.1475000
v -0.3125000 0.2700000 0.0000000
v -0.2700000 0.2700000 -0.1550000
v -0.2550000 0.1925000 -0.1475000
v -0.2650000 0.1175000 0.0000000
v -0.2925000 0.1925000 0.0000000
v -0.2300000 0.1175000 -0.1325000
v -0.2925000 0.1925000 0.0000000
v -0.2550000 0.1925000 -0.1475000
v -0.2300000 0.1175000 -0.1325000
v -0.1475000 0.1925000 -0.2550000
v -0.2550000 0.1925000 -0.1475000
v -0.2700000 0.2700000 -0.1550000
v -0.1550000 0.2700000 -0.2700000
v -0.1325000 0.1175000 -0.2300000
v -0.2300000 0.1175000 -0.1325000
v -0.2550000 0.1925000 -0.1475000
v -0.1475000 0.1925000 -0.2550000
v -0.1950000 0.0450000 -0.1125000
v -0.2250000 0.0450000 0.0000000
v -0.2650000 0.1175000 0.0000000
v -0.2300000 0.1175000 -0.1325000
v -0.1125000 0.0450000 -0.1950000
v -0.1950000 0.0450000 -0.1125000
v -0.2300000 0.1175000 -0.1325000
v -0.1325000 0.1175000 -0.2300000
v -0.1475000 0.1925000 -0.2550000
v -0.1550000 0.2700000 -0.2700000
v 0.0000000 0.1925000 -0.2925000
v 0.0000000 0.1925000 -0.2925000
v -0.1550000 0.2700000 -0.2700000
v 0.0000000 0.2700000 -0.3125000
v -0.1325000 0.1175000 -0.2300000
v -0.1475000 0.1925000 -0.2550000
v 0.0000000 0.1175000 -0.2650000
v 0.0000000 0.1175000 -0.2650000
v -0.1475000 0.1925000 -0.2550000
v 0.0000000 0.1925000 -0.2925000
v 0.0000000 0.0450000 -0.2250000
v -0.1125000 0.0450000 -0.1950000
v -0.1325000 0.1175000 -0.2300000
v 0.0000000 0.1175000 -0.2650000
v -0.1600000 0.0150000 0.0000000
v -0.2250000 0.0450000 0.0000000
v -0.1400000 0.0075000 -0.0825000
v -0.2250000 0.0450000 0.0000000
v -0.1950000 0.0450000 -0.1125000
v -0.1400000 0.0075000 -0.0825000
v -0.0775000 0.0400000 0.0000000
v -0.1600000 0.0150000 0.0000000
v -0.0675000 0.0350000 -0.0375000
v -0.1600000 0.0150000 0.0000000
v -0.1400000 0.0075000 -0.0825000
v -0.0675000 0.0350000 -0.0375000
v -0.1400000 0.0075000 -0.0825000
v -0.1950000 0.0450000 -0.1125000
v -0.0800000 0.0050000 -0.1400000
v -0.0800000 0.0050000 -0.1400000
v -0.1950000 0.0450000 -0.1125000
v -0.1125000 0.0450000 -0.1950000
v -0.0675000 0.0350000 -0.0375000
v -0.1400000 0.0075000 -0.0825000
v -0.0375000 0.0300000 -0.0650000
v -0.0375000 0.0300000 -0.0650000
v -0.1400000 0.0075000 -0.0825000
v -0.0800000 0.0050000 -0.1400000
v -0.0775000 0.0400000 0.0000000
v -0.0675000 0.0350000 -0.0375000
v 0.0000000 0.0650000 0.0000000
v 0.0000000 0.0650000 0.0000000
v -0.0675000 0.0350000 -0.0375000
v -0.0375000 0.0300000 -0.0650000
v -0.0800000 0.0050000 -0.1400000
v -0.1125000 0.0450000 -0.1950000
v 0.0000000 0.0025000 -0.1625000
v 0.0000000 0.0025000 -0.1625000
v -0.1125000 0.0450000 -0.1950000
v 0.0000000 0.0450000 -0.2250000
v -0.0375000 0.0300000 -0.0650000
v -0.0800000 0.0050000 -0.1400000
v 0.0000000 0.0275000 -0.0750000
v 0.0000000 0.0275000 -0.0750000
v -0.0800000 0.0050000 -0.1400000
v 0.0000000 0.0025000 -0.1625000
v 0.0000000 0.0650000 0.0000000
v -0.0375000 0.0300000 -0.0650000
v 0.0000000 0.0275000 -0.0750000
v -0.3612500 0.8830000 0.0400000
v -0.2970000 0.8195000 0.0400000
v -0.3190000 0.8782500 0.0525000
v -0.4840000 0.6465000 0.0000000
v -0.5142500 0.6882500 0.0475000
v -0.5260000 0.7015000 0.0000000
v -0.5960000 0.8477500 0.0225000
v -0.5697500 0.7762500 0.0150000
v -0.5687500 0.7937500 0.0325000
v -0.5142500 0.6882500 0.0475000
v -0.5492500 0.7377500 0.0375000
v -0.5400000 0.7247500 0.0000000
v -0.5260000 0.7015000 0.0000000
v -0.5142500 0.6882500 0.0475000
v -0.5400000 0.7247500 0.0000000
v -0.3497500 0.6747500 0.0650000
v -0.3810000 0.6037500 0.0675000
v -0.3122500 0.6250000 0.0675000
v -0.4362500 0.5990000 0.0300000
v -0.4287500 0.6012500 0.0600000
v -0.4790000 0.6437500 0.0525000
v -0.3122500 0.6250000 0.0675000
v -0.3255000 0.5632500 0.0750000
v -0.2490000 0.5917500 0.0725000
v -0.3757500 0.5607500 0.0000000
v -0.4362500 0.5990000 0.0300000
v -0.4337500 0.5990000 0.0000000
v -0.3017500 0.5420000 0.0725000
v -0.3145000 0.5350000 0.0375000
v -0.2272500 0.5305000 0.0775000
v -0.2830000 0.5635000 0.0775000
v -0.3017500 0.5420000 0.0725000
v -0.2272500 0.5305000 0.0775000
v -0.1627500 0.9477500 0.0000000
v -0.1555000 0.9422500 0.0175000
v -0.1507500 0.9370000 0.0000000
v -0.3142500 0.5400000 0.0000000
v -0.3145000 0.5350000 0.0375000
v -0.3757500 0.5607500 0.0000000
v -0.1507500 0.9370000 0.0000000
v -0.1555000 0.9422500 0.0175000
v -0.1320000 0.9135000 0.0000000
v -0.4787500 0.9842500 0.0000000
v -0.4765000 0.9792500 0.0300000
v -0.4600000 0.9607500 0.0275000
v -0.4692500 0.9737500 0.0000000
v -0.5627500 0.9587500 0.0000000
v -0.5677500 0.9590000 0.0200000
v -0.5212500 0.9840000 0.0000000
v -0.4725000 0.7210000 0.0550000
v -0.5142500 0.6882500 0.0475000
v -0.4790000 0.6437500 0.0525000
v -0.4725000 0.7210000 0.0550000
v -0.4450000 0.6745000 0.0625000
v -0.3455000 0.7570000 0.0650000
v -0.2147500 0.8602500 0.0675000
v -0.2322500 0.8137500 0.0650000
v -0.1307500 0.8885000 0.0625000
v -0.4287500 0.6012500 0.0600000
v -0.3497500 0.6747500 0.0650000
v -0.3455000 0.7570000 0.0650000
v -0.5492500 0.7377500 0.0375000
v -0.4725000 0.7210000 0.0550000
v -0.5295000 0.7792500 0.0450000
v -0.4725000 0.7210000 0.0550000
v -0.5492500 0.7377500 0.0375000
v -0.5142500 0.6882500 0.0475000
v -0.0307500 0.6455000 0.0850000
v 0.0240000 0.7827500 0.0850000
v -0.0432500 0.7412500 0.0875000
v -0.4450000 0.6745000 0.0625000
v -0.4287500 0.6012500 0.0600000
v -0.3455000 0.7570000 0.0650000
v -0.0220000 0.8127500 0.0000000
v -0.0097500 0.8095000 0.0325000
v -0.0070000 0.8145000 0.0000000
v -0.3810000 0.6037500 0.0675000
v -0.4287500 0.6012500 0.0600000
v -0.3732500 0.5607500 0.0650000
v -0.3255000 0.5632500 0.0750000
v -0.3122500 0.6250000 0.0675000
v -0.3732500 0.5607500 0.0650000
v -0.3255000 0.5632500 0.0750000
v -0.3732500 0.5607500 0.0650000
v -0.3017500 0.5420000 0.0725000
v -0.2500000 0.5242500 0.0000000
v -0.3145000 0.5350000 0.0375000
v -0.2945000 0.5340000 0.0000000
v -0.5610000 0.8460000 0.0325000
v -0.5295000 0.7792500 0.0450000
v -0.4902500 0.8147500 0.0475000
v -0.3145000 0.5350000 0.0375000
v -0.2500000 0.5242500 0.0000000
v -0.2402500 0.5212500 0.0425000
v -0.5295000 0.7792500 0.0450000
v -0.4725000 0.7210000 0.0550000
v -0.4902500 0.8147500 0.0475000
v -0.3255000 0.5632500 0.0750000
v -0.3017500 0.5420000 0.0725000
v -0.2830000 0.5635000 0.0775000
v -0.3122500 0.6250000 0.0675000
v -0.3810000 0.6037500 0.0675000
v -0.3732500 0.5607500 0.0650000
v -0.3145000 0.5350000 0.0375000
v -0.3732500 0.5607500 0.0650000
v -0.3757500 0.5607500 0.0000000
v -0.3732500 0.5607500 0.0650000
v -0.3145000 0.5350000 0.0375000
v -0.3017500 0.5420000 0.0725000
v -0.4362500 0.5990000 0.0300000
v -0.3732500 0.5607500 0.0650000
v -0.4287500 0.6012500 0.0600000
v -0.4362500 0.5990000 0.0300000
v -0.3757500 0.5607500 0.0000000
v -0.3732500 0.5607500 0.0650000
v -0.5675000 0.7712500 0.0000000
v -0.5697500 0.7762500 0.0150000
v -0.5762500 0.7942500 0.0000000
v -0.5762500 0.7942500 0.0000000
v -0.5960000 0.8477500 0.0225000
v -0.5962500 0.8427500 0.0000000
v -0.5762500 0.7942500 0.0000000
v -0.5697500 0.7762500 0.0150000
v -0.5960000 0.8477500 0.0225000
v -0.5960000 0.9430000 0.0000000
v -0.5677500 0.9590000 0.0200000
v -0.5627500 0.9587500 0.0000000
v -0.1320000 0.9135000 0.0000000
v -0.1257500 0.8907500 0.0250000
v -0.1257500 0.8882500 0.0000000
v -0.0910000 0.8837500 0.0000000
v -0.0932500 0.8865000 0.0275000
v -0.0722500 0.8602500 0.0000000
v -0.6025000 0.8657500 0.0000000
v -0.6037500 0.8907500 0.0250000
v -0.6062500 0.8907500 0.0000000
v -0.6025000 0.8657500 0.0000000
v -0.5960000 0.8477500 0.0225000
v -0.6037500 0.8907500 0.0250000
v -0.2402500 0.5212500 0.0425000
v -0.2272500 0.5305000 0.0775000
v -0.3145000 0.5350000 0.0375000
v -0.2945000 0.5340000 0.0000000
v -0.3145000 0.5350000 0.0375000
v -0.3142500 0.5400000 0.0000000
v -0.2490000 0.5917500 0.0725000
v -0.3255000 0.5632500 0.0750000
v -0.2830000 0.5635000 0.0775000
v -0.4450000 0.6745000 0.0625000
v -0.4725000 0.7210000 0.0550000
v -0.4790000 0.6437500 0.0525000
v -0.3810000 0.6037500 0.0675000
v -0.3497500 0.6747500 0.0650000
v -0.4287500 0.6012500 0.0600000
v -0.5960000 0.8477500 0.0225000
v -0.5610000 0.8460000 0.0325000
v -0.6037500 0.8907500 0.0250000
v -0.5687500 0.7937500 0.0325000
v -0.5295000 0.7792500 0.0450000
v -0.5610000 0.8460000 0.0325000
v -0.2325000 0.7135000 0.0700000
v -0.3122500 0.6250000 0.0675000
v -0.2490000 0.5917500 0.0725000
v -0.5610000 0.8460000 0.0325000
v -0.4902500 0.8147500 0.0475000
v -0.5060000 0.8455000 0.0375000
v -0.5607500 0.7582500 0.0000000
v -0.5697500 0.7762500 0.0150000
v -0.5675000 0.7712500 0.0000000
v -0.5295000 0.7792500 0.0450000
v -0.5687500 0.7937500 0.0325000
v -0.5492500 0.7377500 0.0375000
v -0.5687500 0.7937500 0.0325000
v -0.5697500 0.7762500 0.0150000
v -0.5492500 0.7377500 0.0375000
v -0.3442500 0.9697500 0.0375000
v -0.4032500 0.8977500 0.0450000
v -0.3612500 0.8830000 0.0400000
v -0.5142500 0.6882500 0.0475000
v -0.4840000 0.6465000 0.0000000
v -0.4790000 0.6437500 0.0525000
v -0.4840000 0.6465000 0.0000000
v -0.4362500 0.5990000 0.0300000
v -0.4790000 0.6437500 0.0525000
v -0.4337500 0.5990000 0.0000000
v -0.4362500 0.5990000 0.0300000
v -0.4840000 0.6465000 0.0000000
v -0.5492500 0.7377500 0.0375000
v -0.5697500 0.7762500 0.0150000
v -0.5607500 0.7582500 0.0000000
v -0.5400000 0.7247500 0.0000000
v -0.5492500 0.7377500 0.0375000
v -0.5607500 0.7582500 0.0000000
v -0.4790000 0.6437500 0.0525000
v -0.4287500 0.6012500 0.0600000
v -0.4450000 0.6745000 0.0625000
v -0.1577500 0.7572500 0.0750000
v -0.1307500 0.8885000 0.0625000
v -0.2222500 0.7655000 0.0450000
v -0.5265000 0.8867500 0.0175000
v -0.5337500 0.9395000 0.0375000
v -0.6037500 0.8907500 0.0250000
v -0.3455000 0.7570000 0.0650000
v -0.3497500 0.6747500 0.0650000
v -0.2325000 0.7135000 0.0700000
v -0.3122500 0.6250000 0.0675000
v -0.2325000 0.7135000 0.0700000
v -0.3497500 0.6747500 0.0650000
v -0.2272500 0.5305000 0.0775000
v -0.2490000 0.5917500 0.0725000
v -0.2830000 0.5635000 0.0775000
v -0.1590000 0.6345000 0.0775000
v -0.2490000 0.5917500 0.0725000
v -0.2272500 0.5305000 0.0775000
v -0.1387500 0.5910000 0.0800000
v -0.1590000 0.6345000 0.0775000
v -0.2272500 0.5305000 0.0775000
v -0.5677500 0.9590000 0.0200000
v -0.5960000 0.9430000 0.0000000
v -0.6037500 0.8907500 0.0250000
v -0.4175000 0.8635000 0.0300000
v -0.4607500 0.8957500 0.0225000
v -0.5265000 0.8867500 0.0175000
v -0.5265000 0.8867500 0.0175000
v -0.6037500 0.8907500 0.0250000
v -0.5610000 0.8460000 0.0325000
v -0.5060000 0.8455000 0.0375000
v -0.5265000 0.8867500 0.0175000
v -0.5610000 0.8460000 0.0325000
v -0.5677500 0.9590000 0.0200000
v -0.6037500 0.8907500 0.0250000
v -0.5337500 0.9395000 0.0375000
v -0.4175000 0.8635000 0.0300000
v -0.5060000 0.8455000 0.0375000
v -0.4145000 0.8232500 0.0500000
v -0.4607500 0.8957500 0.0225000
v -0.5337500 0.9395000 0.0375000
v -0.5265000 0.8867500 0.0175000
v -0.5060000 0.8455000 0.0375000
v -0.4902500 0.8147500 0.0475000
v -0.4145000 0.8232500 0.0500000
v -0.4175000 0.8635000 0.0300000
v -0.5265000 0.8867500 0.0175000
v -0.5060000 0.8455000 0.0375000
v -0.4145000 0.8232500 0.0500000
v -0.2970000 0.8195000 0.0400000
v -0.4175000 0.8635000 0.0300000
v -0.4175000 0.8635000 0.0300000
v -0.3612500 0.8830000 0.0400000
v -0.4032500 0.8977500 0.0450000
v -0.3612500 0.8830000 0.0400000
v -0.4175000 0.8635000 0.0300000
v -0.2970000 0.8195000 0.0400000
v -0.2970000 0.8195000 0.0400000
v -0.4145000 0.8232500 0.0500000
v -0.3167500 0.7805000 0.0600000
v -0.3455000 0.7570000 0.0650000
v -0.3167500 0.7805000 0.0600000
v -0.4145000 0.8232500 0.0500000
v -0.4902500 0.8147500 0.0475000
v -0.4725000 0.7210000 0.0550000
v -0.3455000 0.7570000 0.0650000
v -0.4902500 0.8147500 0.0475000
v -0.3455000 0.7570000 0.0650000
v -0.4145000 0.8232500 0.0500000
v -0.3487500 0.9800000 0.0000000
v -0.3442500 0.9697500 0.0375000
v -0.3417500 0.9720000 0.0000000
v -0.4492500 0.9727500 0.0000000
v -0.4600000 0.9607500 0.0275000
v -0.4305000 0.9967500 0.0000000
v -0.3257500 0.9887500 0.0000000
v -0.3442500 0.9697500 0.0375000
v -0.2637500 0.9805000 0.0575000
v -0.3080000 0.9930000 0.0000000
v -0.2970000 0.8195000 0.0400000
v -0.2322500 0.8137500 0.0650000
v -0.2847500 0.8640000 0.0475000
v -0.2325000 0.7135000 0.0700000
v -0.3167500 0.7805000 0.0600000
v -0.3455000 0.7570000 0.0650000
v -0.3190000 0.8782500 0.0525000
v -0.2970000 0.8195000 0.0400000
v -0.2847500 0.8640000 0.0475000
v -0.2322500 0.8137500 0.0650000
v -0.2970000 0.8195000 0.0400000
v -0.2222500 0.7655000 0.0450000
v -0.1410000 0.6912500 0.0525000
v -0.2222500 0.7655000 0.0450000
v -0.2325000 0.7135000 0.0700000
v -0.3167500 0.7805000 0.0600000
v -0.2325000 0.7135000 0.0700000
v -0.2970000 0.8195000 0.0400000
v -0.2847500 0.8640000 0.0475000
v -0.2322500 0.8137500 0.0650000
v -0.2147500 0.8602500 0.0675000
v -0.1590000 0.6345000 0.0775000
v -0.1410000 0.6912500 0.0525000
v -0.2325000 0.7135000 0.0700000
v -0.1577500 0.7572500 0.0750000
v -0.2222500 0.7655000 0.0450000
v -0.1410000 0.6912500 0.0525000
v -0.1387500 0.5910000 0.0800000
v -0.0887500 0.5932500 0.0650000
v -0.1590000 0.6345000 0.0775000
v -0.2325000 0.7135000 0.0700000
v -0.2490000 0.5917500 0.0725000
v -0.1590000 0.6345000 0.0775000
v -0.1410000 0.6912500 0.0525000
v -0.0887500 0.5932500 0.0650000
v -0.0907500 0.6960000 0.0825000
v -0.0307500 0.6455000 0.0850000
v -0.0907500 0.6960000 0.0825000
v -0.0887500 0.5932500 0.0650000
v -0.0907500 0.6960000 0.0825000
v -0.0307500 0.6455000 0.0850000
v -0.0432500 0.7412500 0.0875000
v -0.0887500 0.5932500 0.0650000
v -0.1410000 0.6912500 0.0525000
v -0.1590000 0.6345000 0.0775000
v -0.0070000 0.8145000 0.0000000
v -0.0097500 0.8095000 0.0325000
v -0.0027500 0.8017500 0.0000000
v -0.0677500 0.8475000 0.0775000
v -0.0450000 0.8062500 0.0525000
v -0.0445000 0.8137500 0.0000000
v 0.0240000 0.7827500 0.0850000
v -0.0097500 0.8095000 0.0325000
v -0.0450000 0.8062500 0.0525000
v -0.0557500 0.8395000 0.0000000
v -0.0677500 0.8475000 0.0775000
v -0.0445000 0.8137500 0.0000000
v 0.0240000 0.7827500 0.0850000
v -0.0450000 0.8062500 0.0525000
v -0.0635000 0.7872500 0.0700000
v -0.0635000 0.7872500 0.0700000
v -0.0450000 0.8062500 0.0525000
v -0.0677500 0.8475000 0.0775000
v -0.1237500 0.7855000 0.0750000
v -0.0635000 0.7872500 0.0700000
v -0.0677500 0.8475000 0.0775000
v -0.0635000 0.7872500 0.0700000
v -0.0432500 0.7412500 0.0875000
v 0.0240000 0.7827500 0.0850000
v -0.0450000 0.8062500 0.0525000
v -0.0097500 0.8095000 0.0325000
v -0.0445000 0.8137500 0.0000000
v -0.1410000 0.6912500 0.0525000
v -0.0635000 0.7872500 0.0700000
v -0.1577500 0.7572500 0.0750000
v -0.0907500 0.6960000 0.0825000
v -0.0635000 0.7872500 0.0700000
v -0.1410000 0.6912500 0.0525000
v -0.0635000 0.7872500 0.0700000
v -0.1237500 0.7855000 0.0750000
v -0.1577500 0.7572500 0.0750000
v -0.0445000 0.8137500 0.0000000
v -0.0097500 0.8095000 0.0325000
v -0.0220000 0.8127500 0.0000000
v -0.0432500 0.7412500 0.0875000
v -0.0635000 0.7872500 0.0700000
v -0.0907500 0.6960000 0.0825000
v -0.0722500 0.8602500 0.0000000
v -0.0677500 0.8475000 0.0775000
v -0.0557500 0.8395000 0.0000000
v -0.0722500 0.8602500 0.0000000
v -0.0932500 0.8865000 0.0275000
v -0.0677500 0.8475000 0.0775000
v -0.1085000 0.8822500 0.0675000
v -0.1237500 0.7855000 0.0750000
v -0.0677500 0.8475000 0.0775000
v -0.1237500 0.7855000 0.0750000
v -0.1085000 0.8822500 0.0675000
v -0.1577500 0.7572500 0.0750000
v -0.1307500 0.8885000 0.0625000
v -0.1487500 0.9295000 0.0650000
v -0.2147500 0.8602500 0.0675000
v -0.6062500 0.8907500 0.0000000
v -0.6037500 0.8907500 0.0250000
v -0.5960000 0.9430000 0.0000000
v -0.1257500 0.8907500 0.0250000
v -0.1320000 0.9135000 0.0000000
v -0.1307500 0.8885000 0.0625000
v -0.1085000 0.8822500 0.0675000
v -0.1257500 0.8907500 0.0250000
v -0.1307500 0.8885000 0.0625000
v -0.1257500 0.8907500 0.0250000
v -0.1085000 0.8822500 0.0675000
v -0.0932500 0.8865000 0.0275000
v -0.0677500 0.8475000 0.0775000
v -0.0932500 0.8865000 0.0275000
v -0.1085000 0.8822500 0.0675000
v -0.1555000 0.9422500 0.0175000
v -0.1487500 0.9295000 0.0650000
v -0.1320000 0.9135000 0.0000000
v -0.1320000 0.9135000 0.0000000
v -0.1487500 0.9295000 0.0650000
v -0.1307500 0.8885000 0.0625000
v -0.1007500 0.8870000 0.0000000
v -0.0932500 0.8865000 0.0275000
v -0.0910000 0.8837500 0.0000000
v -0.1257500 0.8907500 0.0250000
v -0.0932500 0.8865000 0.0275000
v -0.1007500 0.8870000 0.0000000
v -0.1257500 0.8882500 0.0000000
v -0.1257500 0.8907500 0.0250000
v -0.1007500 0.8870000 0.0000000
v -0.2222500 0.7655000 0.0450000
v -0.1307500 0.8885000 0.0625000
v -0.2322500 0.8137500 0.0650000
v -0.2222500 0.7655000 0.0450000
v -0.2970000 0.8195000 0.0400000
v -0.2325000 0.7135000 0.0700000
v -0.1307500 0.8885000 0.0625000
v -0.1577500 0.7572500 0.0750000
v -0.1085000 0.8822500 0.0675000
v -0.2637500 0.9805000 0.0575000
v -0.3060000 0.9377500 0.0525000
v -0.2350000 0.9515000 0.0450000
v -0.1555000 0.9422500 0.0175000
v -0.2047500 0.9600000 0.0525000
v -0.1487500 0.9295000 0.0650000
v -0.1897500 0.9567500 0.0000000
v -0.1555000 0.9422500 0.0175000
v -0.1627500 0.9477500 0.0000000
v -0.1897500 0.9567500 0.0000000
v -0.2047500 0.9600000 0.0525000
v -0.1555000 0.9422500 0.0175000
v -0.2225000 0.9532500 0.0000000
v -0.2047500 0.9600000 0.0525000
v -0.2047500 0.9575000 0.0000000
v -0.2225000 0.9532500 0.0000000
v -0.2350000 0.9515000 0.0450000
v -0.2047500 0.9600000 0.0525000
v -0.2352500 0.9490000 0.0000000
v -0.2350000 0.9515000 0.0450000
v -0.2225000 0.9532500 0.0000000
v -0.2437500 0.9770000 0.0000000
v -0.2350000 0.9515000 0.0450000
v -0.2342500 0.9665000 0.0000000
v -0.2437500 0.9770000 0.0000000
v -0.2637500 0.9805000 0.0575000
v -0.2350000 0.9515000 0.0450000
v -0.2350000 0.9515000 0.0450000
v -0.2147500 0.8602500 0.0675000
v -0.2047500 0.9600000 0.0525000
v -0.2350000 0.9515000 0.0450000
v -0.2847500 0.8640000 0.0475000
v -0.2147500 0.8602500 0.0675000
v -0.2047500 0.9575000 0.0000000
v -0.2047500 0.9600000 0.0525000
v -0.1897500 0.9567500 0.0000000
v -0.3080000 0.9930000 0.0000000
v -0.2637500 0.9805000 0.0575000
v -0.2437500 0.9770000 0.0000000
v -0.3612500 0.8830000 0.0400000
v -0.3190000 0.8782500 0.0525000
v -0.3060000 0.9377500 0.0525000
v -0.1487500 0.9295000 0.0650000
v -0.2047500 0.9600000 0.0525000
v -0.2147500 0.8602500 0.0675000
v -0.3060000 0.9377500 0.0525000
v -0.2847500 0.8640000 0.0475000
v -0.2350000 0.9515000 0.0450000
v -0.2342500 0.9665000 0.0000000
v -0.2350000 0.9515000 0.0450000
v -0.2352500 0.9490000 0.0000000
v -0.3190000 0.8782500 0.0525000
v -0.2847500 0.8640000 0.0475000
v -0.3060000 0.9377500 0.0525000
v -0.2637500 0.9805000 0.0575000
v -0.3442500 0.9697500 0.0375000
v -0.3060000 0.9377500 0.0525000
v -0.3417500 0.9720000 0.0000000
v -0.3442500 0.9697500 0.0375000
v -0.3257500 0.9887500 0.0000000
v -0.3705000 0.9937500 0.0000000
v -0.3807500 0.9917500 0.0425000
v -0.3442500 0.9697500 0.0375000
v -0.3487500 0.9800000 0.0000000
v -0.4305000 0.9967500 0.0000000
v -0.3807500 0.9917500 0.0425000
v -0.3705000 0.9937500 0.0000000
v -0.3442500 0.9697500 0.0375000
v -0.3612500 0.8830000 0.0400000
v -0.3060000 0.9377500 0.0525000
v -0.3442500 0.9697500 0.0375000
v -0.3807500 0.9917500 0.0425000
v -0.4032500 0.8977500 0.0450000
v -0.4305000 0.9967500 0.0000000
v -0.4600000 0.9607500 0.0275000
v -0.3807500 0.9917500 0.0425000
v -0.4765000 0.9792500 0.0300000
v -0.5337500 0.9395000 0.0375000
v -0.4600000 0.9607500 0.0275000
v -0.4765000 0.9792500 0.0300000
v -0.5212500 0.9840000 0.0000000
v -0.5677500 0.9590000 0.0200000
v -0.4600000 0.9607500 0.0275000
v -0.4032500 0.8977500 0.0450000
v -0.3807500 0.9917500 0.0425000
v -0.4175000 0.8635000 0.0300000
v -0.4032500 0.8977500 0.0450000
v -0.4607500 0.8957500 0.0225000
v -0.5677500 0.9590000 0.0200000
v -0.5337500 0.9395000 0.0375000
v -0.4765000 0.9792500 0.0300000
v -0.4572500 0.9632500 0.0000000
v -0.4600000 0.9607500 0.0275000
v -0.4492500 0.9727500 0.0000000
v -0.5212500 0.9840000 0.0000000
v -0.4765000 0.9792500 0.0300000
v -0.4787500 0.9842500 0.0000000
v -0.4692500 0.9737500 0.0000000
v -0.4600000 0.9607500 0.0275000
v -0.4572500 0.9632500 0.0000000
v -0.5337500 0.9395000 0.0375000
v -0.4607500 0.8957500 0.0225000
v -0.4600000 0.9607500 0.0275000
v -0.4032500 0.8977500 0.0450000
v -0.4600000 0.9607500 0.0275000
v -0.4607500 0.8957500 0.0225000
v -0.5962500 0.8427500 0.0000000
v -0.5960000 0.8477500 0.0225000
v -0.6025000 0.8657500 0.0000000
v -0.5960000 0.8477500 0.0225000
v -0.5687500 0.7937500 0.0325000
v -0.5610000 0.8460000 0.0325000
v -0.0547500 0.7562500 0.0272500
v -0.0055000 0.8790000 0.0000000
v -0.0597500 0.7567500 0.0000000
v -0.0547500 0.7562500 0.0272500
v 0.0062500 0.8725000 0.0500000
v -0.0055000 0.8790000 0.0000000
v -0.0770000 0.6265000 0.0737500
v -0.0460000 0.7517500 0.0527500
v -0.0935000 0.6287500 0.0525000
v -0.0557500 0.6220000 0.0910000
v 0.0382500 0.8550000 0.0865000
v 0.0062500 0.8725000 0.0500000
v 0.0820000 0.8307500 0.1000000
v 0.0382500 0.8550000 0.0865000
v -0.0557500 0.6220000 0.0910000
v -0.0037500 0.6127500 0.1052500
v 0.1257500 0.8067500 0.0865000
v 0.0820000 0.8307500 0.1000000
v -0.0037500 0.6127500 0.1052500
v 0.0480000 0.6035000 0.0910000
v 0.0592500 0.8830000 0.0000000
v 0.0645000 0.8797500 0.0235000
v 0.0698000 0.8763750 0.0000000
v 0.0698000 0.8763750 0.0000000
v 0.0645000 0.8797500 0.0235000
v 0.0790000 0.8705000 0.0407500
v 0.0883000 0.8648250 0.0000000
v 0.0883000 0.8648250 0.0000000
v 0.0790000 0.8705000 0.0407500
v 0.0990000 0.8582500 0.0470000
v 0.1097000 0.8515500 0.0000000
v 0.1097000 0.8515500 0.0000000
v 0.0990000 0.8582500 0.0470000
v 0.1190000 0.8457500 0.0407500
v 0.1282000 0.8398750 0.0000000
v 0.1282000 0.8398750 0.0000000
v 0.1190000 0.8457500 0.0407500
v 0.1335000 0.8365000 0.0235000
v 0.1387500 0.8332500 0.0000000
v 0.1585000 1.0420000 0.0000000
v 0.1135000 1.0702500 0.0000000
v 0.1250000 1.0630000 0.0500000
v 0.1637500 1.0387500 0.0235000
v 0.1637500 1.0387500 0.0235000
v 0.1250000 1.0630000 0.0500000
v 0.1560000 1.0437500 0.0865000
v 0.1785000 1.0295000 0.0407500
v 0.1785000 1.0295000 0.0407500
v 0.1560000 1.0437500 0.0865000
v 0.1985000 1.0172500 0.1000000
v 0.1982500 1.0172500 0.0470000
v 0.1982500 1.0172500 0.0470000
v 0.1985000 1.0172500 0.1000000
v 0.2407500 0.9907500 0.0865000
v 0.2182500 1.0047500 0.0407500
v 0.2182500 1.0047500 0.0407500
v 0.2407500 0.9907500 0.0865000
v 0.2717500 0.9712500 0.0500000
v 0.2327500 0.9957500 0.0235000
v 0.2327500 0.9957500 0.0235000
v 0.2717500 0.9712500 0.0500000
v 0.2832500 0.9642500 0.0000000
v 0.2382500 0.9922500 0.0000000
v 0.1637500 1.0387500 0.0235000
v 0.0645000 0.8797500 0.0235000
v 0.0592500 0.8830000 0.0000000
v 0.1585000 1.0420000 0.0000000
v 0.1785000 1.0295000 0.0407500
v 0.0790000 0.8705000 0.0407500
v 0.0645000 0.8797500 0.0235000
v 0.1637500 1.0387500 0.0235000
v 0.1982500 1.0172500 0.0470000
v 0.0990000 0.8582500 0.0470000
v 0.0790000 0.8705000 0.0407500
v 0.1785000 1.0295000 0.0407500
v 0.2182500 1.0047500 0.0407500
v 0.1190000 0.8457500 0.0407500
v 0.0990000 0.8582500 0.0470000
v 0.1982500 1.0172500 0.0470000
v 0.2327500 0.9957500 0.0235000
v 0.1335000 0.8365000 0.0235000
v 0.1190000 0.8457500 0.0407500
v 0.2182500 1.0047500 0.0407500
v 0.2382500 0.9922500 0.0000000
v 0.1387500 0.8332500 0.0000000
v 0.1335000 0.8365000 0.0235000
v 0.2327500 0.9957500 0.0235000
v -0.0995000 0.5952500 0.0525000
v -0.1072500 0.6145000 0.0265000
v -0.1137500 0.5957500 0.0000000
v -0.1035000 0.6312500 0.0267500
v -0.1072500 0.6145000 0.0265000
v -0.0995000 0.5952500 0.0525000
v -0.0800000 0.6130000 0.0740000
v -0.0935000 0.6287500 0.0525000
v -0.0995000 0.5952500 0.0525000
v -0.0770000 0.6265000 0.0737500
v -0.0935000 0.6287500 0.0525000
v -0.0800000 0.6130000 0.0740000
v -0.0037500 0.6127500 0.1052500
v -0.0557500 0.6220000 0.0910000
v -0.0605000 0.5950000 0.0910000
v -0.0070000 0.5947500 0.1052500
v 0.0480000 0.6035000 0.0910000
v -0.0037500 0.6127500 0.1052500
v -0.0070000 0.5947500 0.1052500
v 0.0462500 0.5947500 0.0910000
v 0.0480000 0.6035000 0.0910000
v 0.0462500 0.5947500 0.0910000
v 0.0855000 0.5950000 0.0525000
v 0.1577500 0.7890000 0.0500000
v 0.1257500 0.8067500 0.0865000
v 0.0480000 0.6035000 0.0910000
v 0.0855000 0.5950000 0.0525000
v 0.1695000 0.7827500 0.0000000
v 0.1577500 0.7890000 0.0500000
v 0.0855000 0.5950000 0.0525000
v 0.1000000 0.5950000 0.0000000
v 0.1250000 1.0630000 0.0500000
v 0.1135000 1.0702500 0.0000000
v -0.0055000 0.8790000 0.0000000
v 0.0062500 0.8725000 0.0500000
v 0.1560000 1.0437500 0.0865000
v 0.1250000 1.0630000 0.0500000
v 0.0062500 0.8725000 0.0500000
v 0.0382500 0.8550000 0.0865000
v 0.1985000 1.0172500 0.1000000
v 0.1560000 1.0437500 0.0865000
v 0.0382500 0.8550000 0.0865000
v 0.0820000 0.8307500 0.1000000
v 0.2407500 0.9907500 0.0865000
v 0.1985000 1.0172500 0.1000000
v 0.0820000 0.8307500 0.1000000
v 0.1257500 0.8067500 0.0865000
v 0.2717500 0.9712500 0.0500000
v 0.2407500 0.9907500 0.0865000
v 0.1257500 0.8067500 0.0865000
v 0.1577500 0.7890000 0.0500000
v 0.2832500 0.9642500 0.0000000
v 0.2717500 0.9712500 0.0500000
v 0.1577500 0.7890000 0.0500000
v 0.1695000 0.7827500 0.0000000
v -0.1035000 0.6312500 0.0267500
v -0.0547500 0.7562500 0.0272500
v -0.1075000 0.6312500 0.0000000
v -0.1035000 0.6312500 0.0267500
v -0.0935000 0.6287500 0.0525000
v -0.0460000 0.7517500 0.0527500
v -0.0547500 0.7562500 0.0272500
v -0.0557500 0.6220000 0.0910000
v 0.0062500 0.8725000 0.0500000
v -0.0460000 0.7517500 0.0527500
v -0.0460000 0.7517500 0.0527500
v 0.0062500 0.8725000 0.0500000
v -0.0547500 0.7562500 0.0272500
v -0.0547500 0.7562500 0.0272500
v -0.0597500 0.7567500 0.0000000
v -0.1075000 0.6312500 0.0000000
v -0.0605000 0.5950000 0.0910000
v -0.0800000 0.6130000 0.0740000
v -0.0995000 0.5952500 0.0525000
v -0.0557500 0.6220000 0.0910000
v -0.0800000 0.6130000 0.0740000
v -0.0605000 0.5950000 0.0910000
v -0.0935000 0.6287500 0.0525000
v -0.1035000 0.6312500 0.0267500
v -0.0995000 0.5952500 0.0525000
v -0.0557500 0.6220000 0.0910000
v -0.0460000 0.7517500 0.0527500
v -0.0770000 0.6265000 0.0737500
v -0.0557500 0.6220000 0.0910000
v -0.0770000 0.6265000 0.0737500
v -0.0800000 0.6130000 0.0740000
v -0.1072500 0.6145000 0.0265000
v -0.1075000 0.6312500 0.0000000
v -0.1137500 0.5957500 0.0000000
v -0.1035000 0.6312500 0.0267500
v -0.1075000 0.6312500 0.0000000
v -0.1072500 0.6145000 0.0265000
v 0.1725000 0.5975000 0.0000000
v 0.1000000 0.5975000 0.0000000
v 0.0850000 0.5975000 0.0500000
v 0.1500000 0.5975000 0.0875000
v 0.2475000 0.5700000 0.0000000
v 0.1725000 0.5975000 0.0000000
v 0.1500000 0.5975000 0.0875000
v 0.2150000 0.5700000 0.1250000
v 0.0500000 0.5975000 0.0850000
v 0.0875000 0.5975000 0.1500000
v 0.1500000 0.5975000 0.0875000
v 0.0850000 0.5975000 0.0500000
v 0.0875000 0.5975000 0.1500000
v 0.1250000 0.5700000 0.2150000
v 0.2150000 0.5700000 0.1250000
v 0.1500000 0.5975000 0.0875000
v 0.2975000 0.5075000 0.0000000
v 0.2475000 0.5700000 0.0000000
v 0.2150000 0.5700000 0.1250000
v 0.2575000 0.5075000 0.1500000
v 0.1250000 0.5700000 0.2150000
v 0.1500000 0.5075000 0.2575000
v 0.2575000 0.5075000 0.1500000
v 0.2150000 0.5700000 0.1250000
v 0.0000000 0.5975000 0.1000000
v 0.0000000 0.5975000 0.1725000
v 0.0875000 0.5975000 0.1500000
v 0.0500000 0.5975000 0.0850000
v 0.0000000 0.5975000 0.1725000
v 0.0000000 0.5700000 0.2475000
v 0.1250000 0.5700000 0.2150000
v 0.0875000 0.5975000 0.1500000
v 0.0000000 0.5700000 0.2475000
v 0.0000000 0.5075000 0.2975000
v 0.1500000 0.5075000 0.2575000
v 0.1250000 0.5700000 0.2150000
v 0.3200000 0.4300000 0.0000000
v 0.2975000 0.5075000 0.0000000
v 0.2575000 0.5075000 0.1500000
v 0.2775000 0.4300000 0.1600000
v 0.3225000 0.3500000 0.0000000
v 0.3200000 0.4300000 0.0000000
v 0.2775000 0.4300000 0.1600000
v 0.2800000 0.3500000 0.1600000
v 0.1500000 0.5075000 0.2575000
v 0.1600000 0.4300000 0.2775000
v 0.2775000 0.4300000 0.1600000
v 0.2575000 0.5075000 0.1500000
v 0.2800000 0.3500000 0.1600000
v 0.2775000 0.4300000 0.1600000
v 0.1600000 0.3500000 0.2775000
v 0.2775000 0.4300000 0.1600000
v 0.1600000 0.4300000 0.2775000
v 0.1600000 0.3500000 0.2775000
v 0.3125000 0.2700000 0.0000000
v 0.3225000 0.3500000 0.0000000
v 0.2700000 0.2700000 0.1550000
v 0.3225000 0.3500000 0.0000000
v 0.2800000 0.3500000 0.1600000
v 0.2700000 0.2700000 0.1550000
v 0.2700000 0.2700000 0.1550000
v 0.2800000 0.3500000 0.1600000
v 0.1550000 0.2700000 0.2700000
v 0.1550000 0.2700000 0.2700000
v 0.2800000 0.3500000 0.1600000
v 0.1600000 0.3500000 0.2775000
v 0.0000000 0.5075000 0.2975000
v 0.0000000 0.4300000 0.3200000
v 0.1600000 0.4300000 0.2775000
v 0.1500000 0.5075000 0.2575000
v 0.1600000 0.3500000 0.2775000
v 0.1600000 0.4300000 0.2775000
v 0.0000000 0.3500000 0.3225000
v 0.1600000 0.4300000 0.2775000
v 0.0000000 0.4300000 0.3200000
v 0.0000000 0.3500000 0.3225000
v 0.0000000 0.3500000 0.3225000
v 0.0000000 0.2700000 0.3125000
v 0.1550000 0.2700000 0.2700000
v 0.1600000 0.3500000 0.2775000
v 0.2925000 0.1925000 0.0000000
v 0.3125000 0.2700000 0.0000000
v 0.2550000 0.1925000 0.1475000
v 0.3125000 0.2700000 0.0000000
v 0.2700000 0.2700000 0.1550000
v 0.2550000 0.1925000 0.1475000
v 0.2650000 0.1175000 0.0000000
v 0.2925000 0.1925000 0.0000000
v 0.2300000 0.1175000 0.1325000
v 0.2925000 0.1925000 0.0000000
v 0.2550000 0.1925000 0.1475000
v 0.2300000 0.1175000 0.1325000
v 0.1550000 0.2700000 0.2700000
v 0.1475000 0.1925000 0.2550000
v 0.2550000 0.1925000 0.1475000
v 0.2700000 0.2700000 0.1550000
v 0.1475000 0.1925000 0.2550000
v 0.1325000 0.1175000 0.2300000
v 0.2300000 0.1175000 0.1325000
v 0.2550000 0.1925000 0.1475000
v 0.2300000 0.1175000 0.1325000
v 0.1950000 0.0450000 0.1125000
v 0.2250000 0.0450000 0.0000000
v 0.2650000 0.1175000 0.0000000
v 0.1325000 0.1175000 0.2300000
v 0.1125000 0.0450000 0.1950000
v 0.1950000 0.0450000 0.1125000
v 0.2300000 0.1175000 0.1325000
v 0.1475000 0.1925000 0.2550000
v 0.1550000 0.2700000 0.2700000
v 0.0000000 0.1925000 0.2925000
v 0.0000000 0.1925000 0.2925000
v 0.1550000 0.2700000 0.2700000
v 0.0000000 0.2700000 0.3125000
v 0.1325000 0.1175000 0.2300000
v 0.1475000 0.1925000 0.2550000
v 0.0000000 0.1175000 0.2650000
v 0.0000000 0.1175000 0.2650000
v 0.1475000 0.1925000 0.2550000
v 0.0000000 0.1925000 0.2925000
v 0.0000000 0.1175000 0.2650000
v 0.0000000 0.0450000 0.2250000
v 0.1125000 0.0450000 0.1950000
v 0.1325000 0.1175000 0.2300000
v 0.1600000 0.0150000 0.0000000
v 0.2250000 0.0450000 0.0000000
v 0.1400000 0.0075000 0.0825000
v 0.2250000 0.0450000 0.0000000
v 0.1950000 0.0450000 0.1125000
v 0.1400000 0.0075000 0.0825000
v 0.0775000 0.0400000 0.0000000
v 0.1600000 0.0150000 0.0000000
v 0.0675000 0.0350000 0.0375000
v 0.1600000 0.0150000 0.0000000
v 0.1400000 0.0075000 0.0825000
v 0.0675000 0.0350000 0.0375000
v 0.1400000 0.0075000 0.0825000
v 0.1950000 0.0450000 0.1125000
v 0.0800000 0.0050000 0.1400000
v 0.0800000 0.0050000 0.1400000
v 0.1950000 0.0450000 0.1125000
v 0.1125000 0.0450000 0.1950000
v 0.0675000 0.0350000 0.0375000
v 0.1400000 0.0075000 0.0825000
v 0.0375000 0.0300000 0.0650000
v 0.0375000 0.0300000 0.0650000
v 0.1400000 0.0075000 0.0825000
v 0.0800000 0.0050000 0.1400000
v 0.0775000 0.0400000 0.0000000
v 0.0675000 0.0350000 0.0375000
v 0.0000000 0.0650000 0.0000000
v 0.0000000 0.0650000 0.0000000
v 0.0675000 0.0350000 0.0375000
v 0.0375000 0.0300000 0.0650000
v 0.0800000 0.0050000 0.1400000
v 0.1125000 0.0450000 0.1950000
v 0.0000000 0.0025000 0.1625000
v 0.0000000 0.0025000 0.1625000
v 0.1125000 0.0450000 0.1950000
v 0.0000000 0.0450000 0.2250000
v 0.0375000 0.0300000 0.0650000
v 0.0800000 0.0050000 0.1400000
v 0.0000000 0.0275000 0.0750000
v 0.0000000 0.0275000 0.0750000
v 0.0800000 0.0050000 0.1400000
v 0.0000000 0.0025000 0.1625000
v 0.0000000 0.0650000 0.0000000
v 0.0375000 0.0300000 0.0650000
v 0.0000000 0.0275000 0.0750000
v -0.1725000 0.5975000 0.0000000
v -0.1500000 0.5975000 0.0875000
v -0.0850000 0.5975000 0.0500000
v -0.1000000 0.5975000 0.0000000
v -0.2475000 0.5700000 0.0000000
v -0.2150000 0.5700000 0.1250000
v -0.1500000 0.5975000 0.0875000
v -0.1725000 0.5975000 0.0000000
v -0.0500000 0.5975000 0.0850000
v -0.0850000 0.5975000 0.0500000
v -0.1500000 0.5975000 0.0875000
v -0.0875000 0.5975000 0.1500000
v -0.0875000 0.5975000 0.1500000
v -0.1500000 0.5975000 0.0875000
v -0.2150000 0.5700000 0.1250000
v -0.1250000 0.5700000 0.2150000
v -0.2975000 0.5075000 0.0000000
v -0.2575000 0.5075000 0.1500000
v -0.2150000 0.5700000 0.1250000
v -0.2475000 0.5700000 0.0000000
v -0.1250000 0.5700000 0.2150000
v -0.2150000 0.5700000 0.1250000
v -0.2575000 0.5075000 0.1500000
v -0.1500000 0.5075000 0.2575000
v 0.0000000 0.5975000 0.1000000
v -0.0500000 0.5975000 0.0850000
v -0.0875000 0.5975000 0.1500000
v 0.0000000 0.5975000 0.1725000
v 0.0000000 0.5975000 0.1725000
v -0.0875000 0.5975000 0.1500000
v -0.1250000 0.5700000 0.2150000
v 0.0000000 0.5700000 0.2475000
v 0.0000000 0.5700000 0.2475000
v -0.1250000 0.5700000 0.2150000
v -0.1500000 0.5075000 0.2575000
v 0.0000000 0.5075000 0.2975000
v -0.3200000 0.4300000 0.0000000
v -0.2775000 0.4300000 0.1600000
v -0.2575000 0.5075000 0.1500000
v -0.2975000 0.5075000 0.0000000
v -0.3225000 0.3500000 0.0000000
v -0.2800000 0.3500000 0.1600000
v -0.2775000 0.4300000 0.1600000
v -0.3200000 0.4300000 0.0000000
v -0.1500000 0.5075000 0.2575000
v -0.2575000 0.5075000 0.1500000
v -0.2775000 0.4300000 0.1600000
v -0.1600000 0.4300000 0.2775000
v -0.1600000 0.3500000 0.2775000
v -0.2775000 0.4300000 0.1600000
v -0.2800000 0.3500000 0.1600000
v -0.1600000 0.3500000 0.2775000
v -0.1600000 0.4300000 0.2775000
v -0.2775000 0.4300000 0.1600000
v -0.2700000 0.2700000 0.1550000
v -0.3225000 0.3500000 0.0000000
v -0.3125000 0.2700000 0.0000000
v -0.2700000 0.2700000 0.1550000
v -0.2800000 0.3500000 0.1600000
v -0.3225000 0.3500000 0.0000000
v -0.1550000 0.2700000 0.2700000
v -0.2800000 0.3500000 0.1600000
v -0.2700000 0.2700000 0.1550000
v -0.1600000 0.3500000 0.2775000
v -0.2800000 0.3500000 0.1600000
v -0.1550000 0.2700000 0.2700000
v 0.0000000 0.5075000 0.2975000
v -0.1500000 0.5075000 0.2575000
v -0.1600000 0.4300000 0.2775000
v 0.0000000 0.4300000 0.3200000
v 0.0000000 0.3500000 0.3225000
v -0.1600000 0.4300000 0.2775000
v -0.1600000 0.3500000 0.2775000
v 0.0000000 0.3500000 0.3225000
v 0.0000000 0.4300000 0.3200000
v -0.1600000 0.4300000 0.2775000
v 0.0000000 0.3500000 0.3225000
v -0.1600000 0.3500000 0.2775000
v -0.1550000 0.2700000 0.2700000
v 0.0000000 0.2700000 0.3125000
v -0.2550000 0.1925000 0.1475000
v -0.3125000 0.2700000 0.0000000
v -0.2925000 0.1925000 0.0000000
v -0.2550000 0.1925000 0.1475000
v -0.2700000 0.2700000 0.1550000
v -0.3125000 0.2700000 0.0000000
v -0.2300000 0.1175000 0.1325000
v -0.2925000 0.1925000 0.0000000
v -0.2650000 0.1175000 0.0000000
v -0.2300000 0.1175000 0.1325000
v -0.2550000 0.1925000 0.1475000
v -0.2925000 0.1925000 0.0000000
v -0.1550000 0.2700000 0.2700000
v -0.2700000 0.2700000 0.1550000
v -0.2550000 0.1925000 0.1475000
v -0.1475000 0.1925000 0.2550000
v -0.1475000 0.1925000 0.2550000
v -0.2550000 0.1925000 0.1475000
v -0.2300000 0.1175000 0.1325000
v -0.1325000 0.1175000 0.2300000
v -0.2300000 0.1175000 0.1325000
v -0.2650000 0.1175000 0.0000000
v -0.2250000 0.0450000 0.0000000
v -0.1950000 0.0450000 0.1125000
v -0.1325000 0.1175000 0.2300000
v -0.2300000 0.1175000 0.1325000
v -0.1950000 0.0450000 0.1125000
v -0.1125000 0.0450000 0.1950000
v 0.0000000 0.1925000 0.2925000
v -0.1550000 0.2700000 0.2700000
v -0.1475000 0.1925000 0.2550000
v 0.0000000 0.2700000 0.3125000
v -0.1550000 0.2700000 0.2700000
v 0.0000000 0.1925000 0.2925000
v 0.0000000 0.1175000 0.2650000
v -0.1475000 0.1925000 0.2550000
v -0.1325000 0.1175000 0.2300000
v 0.0000000 0.1925000 0.2925000
v -0.1475000 0.1925000 0.2550000
v 0.0000000 0.1175000 0.2650000
v 0.0000000 0.1175000 0.2650000
v -0.1325000 0.1175000 0.2300000
v -0.1125000 0.0450000 0.1950000
v 0.0000000 0.0450000 0.2250000
v -0.1400000 0.0075000 0.0825000
v -0.2250000 0.0450000 0.0000000
v -0.1600000 0.0150000 0.0000000
v -0.1400000 0.0075000 0.0825000
v -0.1950000 0.0450000 0.1125000
v -0.2250000 0.0450000 0.0000000
v -0.0675000 0.0350000 0.0375000
v -0.1600000 0.0150000 0.0000000
v -0.0775000 0.0400000 0.0000000
v -0.0675000 0.0350000 0.0375000
v -0.1400000 0.0075000 0.0825000
v -0.1600000 0.0150000 0.0000000
v -0.0800000 0.0050000 0.1400000
v -0.1950000 0.0450000 0.1125000
v -0.1400000 0.0075000 0.0825000
v -0.1125000 0.0450000 0.1950000
v -0.1950000 0.0450000 0.1125000
v -0.0800000 0.0050000 0.1400000
v -0.0375000 0.0300000 0.0650000
v -0.1400000 0.0075000 0.0825000
v -0.0675000 0.0350000 0.0375000
v -0.0800000 0.0050000 0.1400000
v -0.1400000 0.0075000 0.0825000
v -0.0375000 0.0300000 0.0650000
v 0.0000000 0.0650000 0.0000000
v -0.0675000 0.0350000 0.0375000
v -0.0775000 0.0400000 0.0000000
v -0.0375000 0.0300000 0.0650000
v -0.0675000 0.0350000 0.0375000
v 0.0000000 0.0650000 0.0000000
v 0.0000000 0.0025000 0.1625000
v -0.1125000 0.0450000 0.1950000
v -0.0800000 0.0050000 0.1400000
v 0.0000000 0.0450000 0.2250000
v -0.1125000 0.0450000 0.1950000
v 0.0000000 0.0025000 0.1625000
v 0.0000000 0.0275000 0.0750000
v -0.0800000 0.0050000 0.1400000
v -0.0375000 0.0300000 0.0650000
v 0.0000000 0.0025000 0.1625000
v -0.0800000 0.0050000 0.1400000
v 0.0000000 0.0275000 0.0750000
v 0.0000000 0.0275000 0.0750000
v -0.0375000 0.0300000 0.0650000
v 0.0000000 0.0650000 0.0000000
s off
f 1 2 3
f 4 5 6
f 7 8 9
f 10 11 12
f 13 14 15
f 16 17 18
f 19 20 21
f 22 23 24
f 25 26 27
f 28 29 30
f 31 32 33
f 34 35 36
f 37 38 39
f 40 41 42
f 43 44 45
f 43 45 46
f 47 48 49
f 50 51 52
f 53 54 55
f 56 57 58
f 59 60 61
f 62 63 64
f 65 66 67
f 68 69 70
f 71 72 73
f 74 75 76
f 77 78 79
f 80 81 82
f 83 84 85
f 86 87 88
f 89 90 91
f 92 93 94
f 95 96 97
f 98 99 100
f 101 102 103
f 104 105 106
f 107 108 109
f 110 111 112
f 113 114 115
f 116 117 118
f 119 120 121
f 122 123 124
f 125 126 127
f 128 129 130
f 131 132 133
f 134 135 136
f 137 138 139
f 140 141 142
f 143 144 145
f 146 147 148
f 149 150 151
f 152 153 154
f 155 156 157
f 158 159 160
f 161 162 163
f 164 165 166
f 167 168 169
f 170 171 172
f 173 174 175
f 176 177 178
f 179 180 181
f 182 183 184
f 185 186 187
f 188 189 190
f 191 192 193
f 194 195 196
f 197 198 199
f 200 201 202
f 203 204 205
f 206 207 208
f 209 210 211
f 212 213 214
f 215 216 217
f 218 219 220
f 221 222 223
f 224 225 226
f 227 228 229
f 230 231 232
f 233 234 235
f 236 237 238
f 239 240 241
f 242 243 244
f 245 246 247
f 248 249 250
f 251 252 253
f 254 255 256
f 257 258 259
f 260 261 262
f 263 264 265
f 266 267 268
f 269 270 271
f 272 273 274
f 272 274 275
f 276 277 278
f 279 280 281
f 282 283 284
f 285 286 287
f 288 289 290
f 291 292 293
f 294 295 296
f 297 298 299
f 300 301 302
f 303 304 305
f 306 307 308
f 309 310 311
f 312 313 314
f 315 316 317
f 318 319 320
f 321 322 323
f 324 325 326
f 327 328 329
f 330 331 332
f 333 334 335
f 336 337 338
f 339 340 341
f 342 343 344
f 345 346 347
f 348 349 350
f 351 352 353
f 354 355 356
f 357 358 359
f 360 361 362
f 363 364 365
f 366 367 368
f 369 370 371
f 372 373 374
f 375 376 377
f 378 379 380
f 381 382 383
f 384 385 386
f 387 388 389
f 390 391 392
f 393 394 395
f 396 397 398
f 399 400 401
f 402 403 404
f 405 406 407
f 408 409 410
f 411 412 413
f 414 415 416
f 417 418 419
f 420 421 422
f 423 424 425
f 426 427 428
f 429 430 431
f 432 433 434
f 435 436 437
f 438 439 440
f 441 442 443
f 444 445 446
f 447 448 449
f 450 451 452
f 453 454 455
f 456 457 458
f 459 460 461
f 462 463 464
f 465 466 467
f 468 469 470
f 471 472 473
f 474 475 476
f 477 478 479
f 477 479 480
f 481 482 483
f 484 485 486
f 487 488 489
f 490 491 492
f 493 494 495
f 496 497 498
f 499 500 501
f 502 503 504
f 505 506 507
f 508 509 510
f 511 512 513
f 514 515 516
f 517 518 519
f 520 521 522
f 523 524 525
f 526 527 528
f 529 530 531
f 532 533 534
f 535 536 537
f 538 539 540
f 541 542 543
f 541 543 544
f 545 546 547
f 545 547 548
f 549 550 551
f 552 553 554
f 552 554 555
f 556 557 558
f 556 558 559
f 560 561 562
f 560 562 563
f 564 565 566
f 564 566 567
f 568 569 570
f 568 570 571
f 572 573 574
f 572 574 575
f 576 577 578
f 576 578 579
f 580 581 582
f 580 582 583
f 584 585 586
f 584 586 587
f 588 589 590
f 588 590 591
f 592 593 594
f 592 594 595
f 596 597 598
f 596 598 599
f 600 601 602
f 600 602 603
f 604 605 606
f 604 606 607
f 608 609 610
f 608 610 611
f 612 613 614
f 612 614 615
f 616 617 618
f 619 620 621
f 622 623 624
f 625 626 627
f 628 629 630
f 628 630 631
f 632 633 634
f 632 634 635
f 636 637 638
f 639 640 641
f 639 641 642
f 643 644 645
f 643 645 646
f 647 648 649
f 647 649 650
f 651 652 653
f 651 653 654
f 655 656 657
f 655 657 658
f 659 660 661
f 659 661 662
f 663 664 665
f 663 665 666
f 667 668 669
f 667 669 670
f 671 672 673
f 674 675 676
f 674 676 677
f 678 679 680
f 681 682 683
f 684 685 686
f 687 688 689
f 690 691 692
f 693 694 695
f 696 697 698
f 699 700 701
f 702 703 704
f 705 706 707
f 708 709 710
f 708 710 711
f 712 713 714
f 712 714 715
f 716 717 718
f 716 718 719
f 720 721 722
f 720 722 723
f 724 725 726
f 724 726 727
f 728 729 730
f 728 730 731
f 732 733 734
f 732 734 735
f 736 737 738
f 736 738 739
f 740 741 742
f 740 742 743
f 744 745 746
f 744 746 747
f 748 749 750
f 748 750 751
f 752 753 754
f 752 754 755
f 756 757 758
f 759 760 761
f 762 763 764
f 765 766 767
f 768 769 770
f 771 772 773
f 774 775 776
f 774 776 777
f 778 779 780
f 781 782 783
f 784 785 786
f 784 786 787
f 788 789 790
f 791 792 793
f 794 795 796
f 797 798 799
f 800 801 802
f 800 802 803
f 804 805 806
f 804 806 807
f 808 809 810
f 808 810 811
f 812 813 814
f 812 814 815
f 816 817 818
f 819 820 821
f 822 823 824
f 825 826 827
f 828 829 830
f 828 830 831
f 832 833 834
f 835 836 837
f 838 839 840
f 841 842 843
f 844 845 846
f 847 848 849
f 850 851 852
f 853 854 855
f 856 857 858
f 859 860 861
f 862 863 864
f 865 866 867
f 868 869 870
f 871 872 873
f 874 875 876
f 877 878 879
f 877 879 880
f 881 882 883
f 881 883 884
f 885 886 887
f 885 887 888
f 889 890 891
f 889 891 892
f 893 894 895
f 893 895 896
f 897 898 899
f 897 899 900
f 901 902 903
f 901 903 904
f 905 906 907
f 905 907 908
f 909 910 911
f 909 911 912
f 913 914 915
f 913 915 916
f 917 918 919
f 917 919 920
f 921 922 923
f 921 923 924
f 925 926 927
f 928 929 930
f 931 932 933
f 934 935 936
f 937 938 939
f 940 941 942
f 943 944 945
f 943 945 946
f 947 948 949
f 950 951 952
f 953 954 955
f 953 955 956
f 957 958 959
f 960 961 962
f 963 964 965
f 966 967 968
f 969 970 971
f 969 971 972
f 973 974 975
f 973 975 976
f 977 978 979
f 977 979 980
f 981 982 983
f 981 983 984
f 985 986 987
f 988 989 990
f 991 992 993
f 994 995 996
f 997 998 999
f 997 999 1000
f 1001 1002 1003
f 1004 1005 1006
f 1007 1008 1009
f 1010 1011 1012
f 1013 1014 1015
f 1016 1017 1018
f 1019 1020 1021
f 1022 1023 1024
f 1025 1026 1027
f 1028 1029 1030
f 1031 1032 1033
f 1034 1035 1036
f 1037 1038 1039
f 1040 1041 1042
f 1043 1044 1045
f 1046 1047 1048
f 1049 1050 1051
f 1052 1053 1054
f 1055 1056 1057
f 1058 1059 1060
f 1061 1062 1063
f 1064 1065 1066
f 1067 1068 1069
f 1070 1071 1072
f 1073 1074 1075
f 1076 1077 1078
f 1079 1080 1081
f 1082 1083 1084
f 1085 1086 1087
f 1088 1089 1090
f 1088 1090 1091
f 1092 1093 1094
f 1095 1096 1097
f 1098 1099 1100
f 1101 1102 1103
f 1104 1105 1106
f 1107 1108 1109
f 1110 1111 1112
f 1113 1114 1115
f 1116 1117 1118
f 1119 1120 1121
f 1122 1123 1124
f 1125 1126 1127
f 1128 1129 1130
f 1131 1132 1133
f 1134 1135 1136
f 1137 1138 1139
f 1140 1141 1142
f 1143 1144 1145
f 1146 1147 1148
f 1149 1150 1151
f 1152 1153 1154
f 1155 1156 1157
f 1158 1159 1160
f 1161 1162 1163
f 1164 1165 1166
f 1167 1168 1169
f 1170 1171 1172
f 1173 1174 1175
f 1176 1177 1178
f 1179 1180 1181
f 1182 1183 1184
f 1185 1186 1187
f 1188 1189 1190
f 1191 1192 1193
f 1194 1195 1196
f 1197 1198 1199
f 1200 1201 1202
f 1203 1204 1205
f 1206 1207 1208
f 1209 1210 1211
f 1212 1213 1214
f 1215 1216 1217
f 1218 1219 1220
f 1221 1222 1223
f 1224 1225 1226
f 1227 1228 1229
f 1230 1231 1232
f 1233 1234 1235
f 1236 1237 1238
f 1239 1240 1241
f 1242 1243 1244
f 1245 1246 1247
f 1248 1249 1250
f 1251 1252 1253
f 1254 1255 1256
f 1257 1258 1259
f 1260 1261 1262
f 1263 1264 1265
f 1266 1267 1268
f 1269 1270 1271
f 1272 1273 1274
f 1275 1276 1277
f 1278 1279 1280
f 1281 1282 1283
f 1284 1285 1286
f 1287 1288 1289
f 1290 1291 1292
f 1293 1294 1295
f 1296 1297 1298
f 1299 1300 1301
f 1302 1303 1304
f 1305 1306 1307
f 1308 1309 1310
f 1311 1312 1313
f 1314 1315 1316
f 1317 1318 1319
f 1317 1319 1320
f 1321 1322 1323
f 1324 1325 1326
f 1327 1328 1329
f 1330 1331 1332
f 1333 1334 1335
f 1336 1337 1338
f 1339 1340 1341
f 1342 1343 1344
f 1345 1346 1347
f 1348 1349 1350
f 1351 1352 1353
f 1354 1355 1356
f 1357 1358 1359
f 1360 1361 1362
f 1363 1364 1365
f 1366 1367 1368
f 1369 1370 1371
f 1372 1373 1374
f 1375 1376 1377
f 1378 1379 1380
f 1381 1382 1383
f 1384 1385 1386
f 1387 1388 1389
f 1390 1391 1392
f 1393 1394 1395
f 1396 1397 1398
f 1399 1400 1401
f 1402 1403 1404
f 1405 1406 1407
f 1408 1409 1410
f 1411 1412 1413
f 1414 1415 1416
f 1417 1418 1419
f 1420 1421 1422
f 1423 1424 1425
f 1426 1427 1428
f 1429 1430 1431
f 1432 1433 1434
f 1435 1436 1437
f 1438 1439 1440
f 1441 1442 1443
f 1444 1445 1446
f 1447 1448 1449
f 1450 1451 1452
f 1453 1454 1455
f 1456 1457 1458
f 1459 1460 1461
f 1462 1463 1464
f 1465 1466 1467
f 1468 1469 1470
f 1471 1472 1473
f 1474 1475 1476
f 1477 1478 1479
f 1480 1481 1482
f 1483 1484 1485
f 1486 1487 1488
f 1489 1490 1491
f 1492 1493 1494
f 1495 1496 1497
f 1498 1499 1500
f 1501 1502 1503
f 1504 1505 1506
f 1507 1508 1509
f 1510 1511 1512
f 1513 1514 1515
f 1516 1517 1518
f 1519 1520 1521
f 1522 1523 1524
f 1522 1524 1525
f 1526 1527 1528
f 1529 1530 1531
f 1532 1533 1534
f 1535 1536 1537
f 1538 1539 1540
f 1541 1542 1543
f 1544 1545 1546
f 1547 1548 1549
f 1550 1551 1552
f 1553 1554 1555
f 1556 1557 1558
f 1559 1560 1561
f 1562 1563 1564
f 1565 1566 1567
f 1568 1569 1570
f 1571 1572 1573
f 1574 1575 1576
f 1577 1578 1579
f 1580 1581 1582
f 1583 1584 1585
f 1586 1587 1588
f 1586 1588 1589
f 1590 1591 1592
f 1590 1592 1593
f 1594 1595 1596
f 1597 1598 1599
f 1597 1599 1600
f 1601 1602 1603
f 1601 1603 1604
f 1605 1606 1607
f 1605 1607 1608
f 1609 1610 1611
f 1609 1611 1612
f 1613 1614 1615
f 1613 1615 1616
f 1617 1618 1619
f 1617 1619 1620
f 1621 1622 1623
f 1621 1623 1624
f 1625 1626 1627
f 1625 1627 1628
f 1629 1630 1631
f 1629 1631 1632
f 1633 1634 1635
f 1633 1635 1636
f 1637 1638 1639
f 1637 1639 1640
f 1641 1642 1643
f 1641 1643 1644
f 1645 1646 1647
f 1645 1647 1648
f 1649 1650 1651
f 1649 1651 1652
f 1653 1654 1655
f 1653 1655 1656
f 1657 1658 1659
f 1657 1659 1660
f 1661 1662 1663
f 1664 1665 1666
f 1667 1668 1669
f 1670 1671 1672
f 1673 1674 1675
f 1673 1675 1676
f 1677 1678 1679
f 1677 1679 1680
f 1681 1682 1683
f 1684 1685 1686
f 1684 1686 1687
f 1688 1689 1690
f 1688 1690 1691
f 1692 1693 1694
f 1692 1694 1695
f 1696 1697 1698
f 1696 1698 1699
f 1700 1701 1702
f 1700 1702 1703
f 1704 1705 1706
f 1704 1706 1707
f 1708 1709 1710
f 1708 1710 1711
f 1712 1713 1714
f 1712 1714 1715
f 1716 1717 1718
f 1719 1720 1721
f 1719 1721 1722
f 1723 1724 1725
f 1726 1727 1728
f 1729 1730 1731
f 1732 1733 1734
f 1735 1736 1737
f 1738 1739 1740
f 1741 1742 1743
f 1744 1745 1746
f 1747 1748 1749
f 1750 1751 1752
f 1753 1754 1755
f 1753 1755 1756
f 1757 1758 1759
f 1757 1759 1760
f 1761 1762 1763
f 1761 1763 1764
f 1765 1766 1767
f 1765 1767 1768
f 1769 1770 1771
f 1769 1771 1772
f 1773 1774 1775
f 1773 1775 1776
f 1777 1778 1779
f 1777 1779 1780
f 1781 1782 1783
f 1781 1783 1784
f 1785 1786 1787
f 1785 1787 1788
f 1789 1790 1791
f 1789 1791 1792
f 1793 1794 1795
f 1793 1795 1796
f 1797 1798 1799
f 1797 1799 1800
f 1801 1802 1803
f 1804 1805 1806
f 1807 1808 1809
f 1810 1811 1812
f 1813 1814 1815
f 1816 1817 1818
f 1819 1820 1821
f 1819 1821 1822
f 1823 1824 1825
f 1826 1827 1828
f 1829 1830 1831
f 1829 1831 1832
f 1833 1834 1835
f 1836 1837 1838
f 1839 1840 1841
f 1842 1843 1844
f 1845 1846 1847
f 1845 1847 1848
f 1849 1850 1851
f 1849 1851 1852
f 1853 1854 1855
f 1853 1855 1856
f 1857 1858 1859
f 1857 1859 1860
f 1861 1862 1863
f 1864 1865 1866
f 1867 1868 1869
f 1870 1871 1872
f 1873 1874 1875
f 1873 1875 1876
f 1877 1878 1879
f 1880 1881 1882
f 1883 1884 1885
f 1886 1887 1888
f 1889 1890 1891
f 1892 1893 1894
f 1895 1896 1897
f 1898 1899 1900
f 1901 1902 1903
f 1904 1905 1906
f 1907 1908 1909
f 1910 1911 1912
f 1913 1914 1915
f 1916 1917 1918
f 1919 1920 1921
f 1922 1923 1924
f 1922 1924 1925
f 1926 1927 1928
f 1926 1928 1929
f 1930 1931 1932
f 1930 1932 1933
f 1934 1935 1936
f 1934 1936 1937
f 1938 1939 1940
f 1938 1940 1941
f 1942 1943 1944
f 1942 1944 1945
f 1946 1947 1948
f 1946 1948 1949
f 1950 1951 1952
f 1950 1952 1953
f 1954 1955 1956
f 1954 1956 1957
f 1958 1959 1960
f 1958 1960 1961
f 1962 1963 1964
f 1962 1964 1965
f 1966 1967 1968
f 1966 1968 1969
f 1970 1971 1972
f 1973 1974 1975
f 1976 1977 1978
f 1979 1980 1981
f 1982 1983 1984
f 1985 1986 1987
f 1988 1989 1990
f 1988 1990 1991
f 1992 1993 1994
f 1995 1996 1997
f 1998 1999 2000
f 1998 2000 2001
f 2002 2003 2004
f 2005 2006 2007
f 2008 2009 2010
f 2011 2012 2013
f 2014 2015 2016
f 2014 2016 2017
f 2018 2019 2020
f 2018 2020 2021
f 2022 2023 2024
f 2022 2024 2025
f 2026 2027 2028
f 2026 2028 2029
f 2030 2031 2032
f 2033 2034 2035
f 2036 2037 2038
f 2039 2040 2041
f 2042 2043 2044
f 2042 2044 2045
f 2046 2047 2048
f 2049 2050 2051
f 2052 2053 2054
f 2055 2056 2057
f 2058 2059 2060
f 2061 2062 2063
f 2064 2065 2066
f 2067 2068 2069
f 2070 2071 2072
f 2073 2074 2075
f 2076 2077 2078
f 2079 2080 2081
f 2082 2083 2084
f 2085 2086 2087
f 2088 2089 2090
