# Baked from official LDraw part 33303.dat
o ldraw_33303
v 0.5923900 -1.2000000 -0.0382700
v 0.6000000 -1.2000000 0.0000000
v 0.5000000 -1.2000000 0.0000000
v 0.5707100 -1.2000000 -0.0707100
v 0.5923900 -1.2000000 -0.0382700
v 0.5000000 -1.2000000 0.0000000
v 0.5382700 -1.2000000 -0.0923900
v 0.5707100 -1.2000000 -0.0707100
v 0.5000000 -1.2000000 0.0000000
v 0.5000000 -1.2000000 -0.1000000
v 0.5382700 -1.2000000 -0.0923900
v 0.5000000 -1.2000000 0.0000000
v 0.4617300 -1.2000000 -0.0923900
v 0.5000000 -1.2000000 -0.1000000
v 0.5000000 -1.2000000 0.0000000
v 0.4292900 -1.2000000 -0.0707100
v 0.4617300 -1.2000000 -0.0923900
v 0.5000000 -1.2000000 0.0000000
v 0.4076100 -1.2000000 -0.0382700
v 0.4292900 -1.2000000 -0.0707100
v 0.5000000 -1.2000000 0.0000000
v 0.4000000 -1.2000000 0.0000000
v 0.4076100 -1.2000000 -0.0382700
v 0.5000000 -1.2000000 0.0000000
v 0.4076100 -1.2000000 0.0382700
v 0.4000000 -1.2000000 0.0000000
v 0.5000000 -1.2000000 0.0000000
v 0.4292900 -1.2000000 0.0707100
v 0.4076100 -1.2000000 0.0382700
v 0.5000000 -1.2000000 0.0000000
v 0.4617300 -1.2000000 0.0923900
v 0.4292900 -1.2000000 0.0707100
v 0.5000000 -1.2000000 0.0000000
v 0.5000000 -1.2000000 0.1000000
v 0.4617300 -1.2000000 0.0923900
v 0.5000000 -1.2000000 0.0000000
v 0.5382700 -1.2000000 0.0923900
v 0.5000000 -1.2000000 0.1000000
v 0.5000000 -1.2000000 0.0000000
v 0.5707100 -1.2000000 0.0707100
v 0.5382700 -1.2000000 0.0923900
v 0.5000000 -1.2000000 0.0000000
v 0.5923900 -1.2000000 0.0382700
v 0.5707100 -1.2000000 0.0707100
v 0.5000000 -1.2000000 0.0000000
v 0.6000000 -1.2000000 0.0000000
v 0.5923900 -1.2000000 0.0382700
v 0.5000000 -1.2000000 0.0000000
v 0.6000000 -1.2000000 0.0000000
v 0.5923900 -1.2000000 -0.0382700
v 0.5923900 -1.1000000 -0.0382700
v 0.6000000 -1.1000000 0.0000000
v 0.5923900 -1.2000000 -0.0382700
v 0.5707100 -1.2000000 -0.0707100
v 0.5707100 -1.1000000 -0.0707100
v 0.5923900 -1.1000000 -0.0382700
v 0.5707100 -1.2000000 -0.0707100
v 0.5382700 -1.2000000 -0.0923900
v 0.5382700 -1.1000000 -0.0923900
v 0.5707100 -1.1000000 -0.0707100
v 0.5382700 -1.2000000 -0.0923900
v 0.5000000 -1.2000000 -0.1000000
v 0.5000000 -1.1000000 -0.1000000
v 0.5382700 -1.1000000 -0.0923900
v 0.5000000 -1.2000000 -0.1000000
v 0.4617300 -1.2000000 -0.0923900
v 0.4617300 -1.1000000 -0.0923900
v 0.5000000 -1.1000000 -0.1000000
v 0.4617300 -1.2000000 -0.0923900
v 0.4292900 -1.2000000 -0.0707100
v 0.4292900 -1.1000000 -0.0707100
v 0.4617300 -1.1000000 -0.0923900
v 0.4292900 -1.2000000 -0.0707100
v 0.4076100 -1.2000000 -0.0382700
v 0.4076100 -1.1000000 -0.0382700
v 0.4292900 -1.1000000 -0.0707100
v 0.4076100 -1.2000000 -0.0382700
v 0.4000000 -1.2000000 0.0000000
v 0.4000000 -1.1000000 0.0000000
v 0.4076100 -1.1000000 -0.0382700
v 0.4000000 -1.2000000 0.0000000
v 0.4076100 -1.2000000 0.0382700
v 0.4076100 -1.1000000 0.0382700
v 0.4000000 -1.1000000 0.0000000
v 0.4076100 -1.2000000 0.0382700
v 0.4292900 -1.2000000 0.0707100
v 0.4292900 -1.1000000 0.0707100
v 0.4076100 -1.1000000 0.0382700
v 0.4292900 -1.2000000 0.0707100
v 0.4617300 -1.2000000 0.0923900
v 0.4617300 -1.1000000 0.0923900
v 0.4292900 -1.1000000 0.0707100
v 0.4617300 -1.2000000 0.0923900
v 0.5000000 -1.2000000 0.1000000
v 0.5000000 -1.1000000 0.1000000
v 0.4617300 -1.1000000 0.0923900
v 0.5000000 -1.2000000 0.1000000
v 0.5382700 -1.2000000 0.0923900
v 0.5382700 -1.1000000 0.0923900
v 0.5000000 -1.1000000 0.1000000
v 0.5382700 -1.2000000 0.0923900
v 0.5707100 -1.2000000 0.0707100
v 0.5707100 -1.1000000 0.0707100
v 0.5382700 -1.1000000 0.0923900
v 0.5707100 -1.2000000 0.0707100
v 0.5923900 -1.2000000 0.0382700
v 0.5923900 -1.1000000 0.0382700
v 0.5707100 -1.1000000 0.0707100
v 0.5923900 -1.2000000 0.0382700
v 0.6000000 -1.2000000 0.0000000
v 0.6000000 -1.1000000 0.0000000
v 0.5923900 -1.1000000 0.0382700
v 0.0923900 -1.2000000 -0.0382700
v 0.1000000 -1.2000000 0.0000000
v 0.0000000 -1.2000000 0.0000000
v 0.0707100 -1.2000000 -0.0707100
v 0.0923900 -1.2000000 -0.0382700
v 0.0000000 -1.2000000 0.0000000
v 0.0382700 -1.2000000 -0.0923900
v 0.0707100 -1.2000000 -0.0707100
v 0.0000000 -1.2000000 0.0000000
v 0.0000000 -1.2000000 -0.1000000
v 0.0382700 -1.2000000 -0.0923900
v 0.0000000 -1.2000000 0.0000000
v -0.0382700 -1.2000000 -0.0923900
v 0.0000000 -1.2000000 -0.1000000
v 0.0000000 -1.2000000 0.0000000
v -0.0707100 -1.2000000 -0.0707100
v -0.0382700 -1.2000000 -0.0923900
v 0.0000000 -1.2000000 0.0000000
v -0.0923900 -1.2000000 -0.0382700
v -0.0707100 -1.2000000 -0.0707100
v 0.0000000 -1.2000000 0.0000000
v -0.1000000 -1.2000000 0.0000000
v -0.0923900 -1.2000000 -0.0382700
v 0.0000000 -1.2000000 0.0000000
v -0.0923900 -1.2000000 0.0382700
v -0.1000000 -1.2000000 0.0000000
v 0.0000000 -1.2000000 0.0000000
v -0.0707100 -1.2000000 0.0707100
v -0.0923900 -1.2000000 0.0382700
v 0.0000000 -1.2000000 0.0000000
v -0.0382700 -1.2000000 0.0923900
v -0.0707100 -1.2000000 0.0707100
v 0.0000000 -1.2000000 0.0000000
v 0.0000000 -1.2000000 0.1000000
v -0.0382700 -1.2000000 0.0923900
v 0.0000000 -1.2000000 0.0000000
v 0.0382700 -1.2000000 0.0923900
v 0.0000000 -1.2000000 0.1000000
v 0.0000000 -1.2000000 0.0000000
v 0.0707100 -1.2000000 0.0707100
v 0.0382700 -1.2000000 0.0923900
v 0.0000000 -1.2000000 0.0000000
v 0.0923900 -1.2000000 0.0382700
v 0.0707100 -1.2000000 0.0707100
v 0.0000000 -1.2000000 0.0000000
v 0.1000000 -1.2000000 0.0000000
v 0.0923900 -1.2000000 0.0382700
v 0.0000000 -1.2000000 0.0000000
v 0.1000000 -1.2000000 0.0000000
v 0.0923900 -1.2000000 -0.0382700
v 0.0923900 -1.1000000 -0.0382700
v 0.1000000 -1.1000000 0.0000000
v 0.0923900 -1.2000000 -0.0382700
v 0.0707100 -1.2000000 -0.0707100
v 0.0707100 -1.1000000 -0.0707100
v 0.0923900 -1.1000000 -0.0382700
v 0.0707100 -1.2000000 -0.0707100
v 0.0382700 -1.2000000 -0.0923900
v 0.0382700 -1.1000000 -0.0923900
v 0.0707100 -1.1000000 -0.0707100
v 0.0382700 -1.2000000 -0.0923900
v 0.0000000 -1.2000000 -0.1000000
v 0.0000000 -1.1000000 -0.1000000
v 0.0382700 -1.1000000 -0.0923900
v 0.0000000 -1.2000000 -0.1000000
v -0.0382700 -1.2000000 -0.0923900
v -0.0382700 -1.1000000 -0.0923900
v 0.0000000 -1.1000000 -0.1000000
v -0.0382700 -1.2000000 -0.0923900
v -0.0707100 -1.2000000 -0.0707100
v -0.0707100 -1.1000000 -0.0707100
v -0.0382700 -1.1000000 -0.0923900
v -0.0707100 -1.2000000 -0.0707100
v -0.0923900 -1.2000000 -0.0382700
v -0.0923900 -1.1000000 -0.0382700
v -0.0707100 -1.1000000 -0.0707100
v -0.0923900 -1.2000000 -0.0382700
v -0.1000000 -1.2000000 0.0000000
v -0.1000000 -1.1000000 0.0000000
v -0.0923900 -1.1000000 -0.0382700
v -0.1000000 -1.2000000 0.0000000
v -0.0923900 -1.2000000 0.0382700
v -0.0923900 -1.1000000 0.0382700
v -0.1000000 -1.1000000 0.0000000
v -0.0923900 -1.2000000 0.0382700
v -0.0707100 -1.2000000 0.0707100
v -0.0707100 -1.1000000 0.0707100
v -0.0923900 -1.1000000 0.0382700
v -0.0707100 -1.2000000 0.0707100
v -0.0382700 -1.2000000 0.0923900
v -0.0382700 -1.1000000 0.0923900
v -0.0707100 -1.1000000 0.0707100
v -0.0382700 -1.2000000 0.0923900
v 0.0000000 -1.2000000 0.1000000
v 0.0000000 -1.1000000 0.1000000
v -0.0382700 -1.1000000 0.0923900
v 0.0000000 -1.2000000 0.1000000
v 0.0382700 -1.2000000 0.0923900
v 0.0382700 -1.1000000 0.0923900
v 0.0000000 -1.1000000 0.1000000
v 0.0382700 -1.2000000 0.0923900
v 0.0707100 -1.2000000 0.0707100
v 0.0707100 -1.1000000 0.0707100
v 0.0382700 -1.1000000 0.0923900
v 0.0707100 -1.2000000 0.0707100
v 0.0923900 -1.2000000 0.0382700
v 0.0923900 -1.1000000 0.0382700
v 0.0707100 -1.1000000 0.0707100
v 0.0923900 -1.2000000 0.0382700
v 0.1000000 -1.2000000 0.0000000
v 0.1000000 -1.1000000 0.0000000
v 0.0923900 -1.1000000 0.0382700
v -0.4076100 -1.2000000 -0.0382700
v -0.4000000 -1.2000000 0.0000000
v -0.5000000 -1.2000000 0.0000000
v -0.4292900 -1.2000000 -0.0707100
v -0.4076100 -1.2000000 -0.0382700
v -0.5000000 -1.2000000 0.0000000
v -0.4617300 -1.2000000 -0.0923900
v -0.4292900 -1.2000000 -0.0707100
v -0.5000000 -1.2000000 0.0000000
v -0.5000000 -1.2000000 -0.1000000
v -0.4617300 -1.2000000 -0.0923900
v -0.5000000 -1.2000000 0.0000000
v -0.5382700 -1.2000000 -0.0923900
v -0.5000000 -1.2000000 -0.1000000
v -0.5000000 -1.2000000 0.0000000
v -0.5707100 -1.2000000 -0.0707100
v -0.5382700 -1.2000000 -0.0923900
v -0.5000000 -1.2000000 0.0000000
v -0.5923900 -1.2000000 -0.0382700
v -0.5707100 -1.2000000 -0.0707100
v -0.5000000 -1.2000000 0.0000000
v -0.6000000 -1.2000000 0.0000000
v -0.5923900 -1.2000000 -0.0382700
v -0.5000000 -1.2000000 0.0000000
v -0.5923900 -1.2000000 0.0382700
v -0.6000000 -1.2000000 0.0000000
v -0.5000000 -1.2000000 0.0000000
v -0.5707100 -1.2000000 0.0707100
v -0.5923900 -1.2000000 0.0382700
v -0.5000000 -1.2000000 0.0000000
v -0.5382700 -1.2000000 0.0923900
v -0.5707100 -1.2000000 0.0707100
v -0.5000000 -1.2000000 0.0000000
v -0.5000000 -1.2000000 0.1000000
v -0.5382700 -1.2000000 0.0923900
v -0.5000000 -1.2000000 0.0000000
v -0.4617300 -1.2000000 0.0923900
v -0.5000000 -1.2000000 0.1000000
v -0.5000000 -1.2000000 0.0000000
v -0.4292900 -1.2000000 0.0707100
v -0.4617300 -1.2000000 0.0923900
v -0.5000000 -1.2000000 0.0000000
v -0.4076100 -1.2000000 0.0382700
v -0.4292900 -1.2000000 0.0707100
v -0.5000000 -1.2000000 0.0000000
v -0.4000000 -1.2000000 0.0000000
v -0.4076100 -1.2000000 0.0382700
v -0.5000000 -1.2000000 0.0000000
v -0.4000000 -1.2000000 0.0000000
v -0.4076100 -1.2000000 -0.0382700
v -0.4076100 -1.1000000 -0.0382700
v -0.4000000 -1.1000000 0.0000000
v -0.4076100 -1.2000000 -0.0382700
v -0.4292900 -1.2000000 -0.0707100
v -0.4292900 -1.1000000 -0.0707100
v -0.4076100 -1.1000000 -0.0382700
v -0.4292900 -1.2000000 -0.0707100
v -0.4617300 -1.2000000 -0.0923900
v -0.4617300 -1.1000000 -0.0923900
v -0.4292900 -1.1000000 -0.0707100
v -0.4617300 -1.2000000 -0.0923900
v -0.5000000 -1.2000000 -0.1000000
v -0.5000000 -1.1000000 -0.1000000
v -0.4617300 -1.1000000 -0.0923900
v -0.5000000 -1.2000000 -0.1000000
v -0.5382700 -1.2000000 -0.0923900
v -0.5382700 -1.1000000 -0.0923900
v -0.5000000 -1.1000000 -0.1000000
v -0.5382700 -1.2000000 -0.0923900
v -0.5707100 -1.2000000 -0.0707100
v -0.5707100 -1.1000000 -0.0707100
v -0.5382700 -1.1000000 -0.0923900
v -0.5707100 -1.2000000 -0.0707100
v -0.5923900 -1.2000000 -0.0382700
v -0.5923900 -1.1000000 -0.0382700
v -0.5707100 -1.1000000 -0.0707100
v -0.5923900 -1.2000000 -0.0382700
v -0.6000000 -1.2000000 0.0000000
v -0.6000000 -1.1000000 0.0000000
v -0.5923900 -1.1000000 -0.0382700
v -0.6000000 -1.2000000 0.0000000
v -0.5923900 -1.2000000 0.0382700
v -0.5923900 -1.1000000 0.0382700
v -0.6000000 -1.1000000 0.0000000
v -0.5923900 -1.2000000 0.0382700
v -0.5707100 -1.2000000 0.0707100
v -0.5707100 -1.1000000 0.0707100
v -0.5923900 -1.1000000 0.0382700
v -0.5707100 -1.2000000 0.0707100
v -0.5382700 -1.2000000 0.0923900
v -0.5382700 -1.1000000 0.0923900
v -0.5707100 -1.1000000 0.0707100
v -0.5382700 -1.2000000 0.0923900
v -0.5000000 -1.2000000 0.1000000
v -0.5000000 -1.1000000 0.1000000
v -0.5382700 -1.1000000 0.0923900
v -0.5000000 -1.2000000 0.1000000
v -0.4617300 -1.2000000 0.0923900
v -0.4617300 -1.1000000 0.0923900
v -0.5000000 -1.1000000 0.1000000
v -0.4617300 -1.2000000 0.0923900
v -0.4292900 -1.2000000 0.0707100
v -0.4292900 -1.1000000 0.0707100
v -0.4617300 -1.1000000 0.0923900
v -0.4292900 -1.2000000 0.0707100
v -0.4076100 -1.2000000 0.0382700
v -0.4076100 -1.1000000 0.0382700
v -0.4292900 -1.1000000 0.0707100
v -0.4076100 -1.2000000 0.0382700
v -0.4000000 -1.2000000 0.0000000
v -0.4000000 -1.1000000 0.0000000
v -0.4076100 -1.1000000 0.0382700
v -0.9000000 -1.1000000 -0.1500000
v 0.9000000 -1.1000000 -0.1500000
v 0.9000000 -1.1000000 0.1500000
v -0.9000000 -1.1000000 0.1500000
v 0.9000000 -1.1000000 0.1500000
v 0.9000000 -1.2000000 0.1500000
v -0.9000000 -1.2000000 0.1500000
v -0.9000000 -1.1000000 0.1500000
v -0.9000000 -1.1000000 0.1500000
v -0.9000000 -1.2000000 0.1500000
v -0.9000000 -1.2000000 -0.1500000
v -0.9000000 -1.1000000 -0.1500000
v -0.9000000 -1.1000000 -0.1500000
v -0.9000000 -1.2000000 -0.1500000
v 0.9000000 -1.2000000 -0.1500000
v 0.9000000 -1.1000000 -0.1500000
v 0.9000000 -1.1000000 -0.1500000
v 0.9000000 -1.2000000 -0.1500000
v 0.9000000 -1.2000000 0.1500000
v 0.9000000 -1.1000000 0.1500000
v -1.0000000 -1.2000000 0.2500000
v -0.9000000 -1.2000000 0.1500000
v 0.9000000 -1.2000000 0.1500000
v 1.0000000 -1.2000000 0.2500000
v -1.0000000 -1.2000000 -0.2500000
v -0.9000000 -1.2000000 -0.1500000
v -0.9000000 -1.2000000 0.1500000
v -1.0000000 -1.2000000 0.2500000
v 1.0000000 -1.2000000 -0.2500000
v 0.9000000 -1.2000000 -0.1500000
v -0.9000000 -1.2000000 -0.1500000
v -1.0000000 -1.2000000 -0.2500000
v 1.0000000 -1.2000000 0.2500000
v 0.9000000 -1.2000000 0.1500000
v 0.9000000 -1.2000000 -0.1500000
v 1.0000000 -1.2000000 -0.2500000
v -1.0000000 -1.0000000 0.2500000
v 1.0000000 -1.0000000 0.2500000
v 1.0000000 -1.0000000 -0.2500000
v -1.0000000 -1.0000000 -0.2500000
v -1.0000000 -1.0000000 0.2500000
v -1.0000000 -1.2000000 0.2500000
v 1.0000000 -1.2000000 0.2500000
v 1.0000000 -1.0000000 0.2500000
v -1.0000000 -1.0000000 -0.2500000
v -1.0000000 -1.2000000 -0.2500000
v -1.0000000 -1.2000000 0.2500000
v -1.0000000 -1.0000000 0.2500000
v 1.0000000 -1.0000000 -0.2500000
v 1.0000000 -1.2000000 -0.2500000
v -1.0000000 -1.2000000 -0.2500000
v -1.0000000 -1.0000000 -0.2500000
v 1.0000000 -1.0000000 0.2500000
v 1.0000000 -1.2000000 0.2500000
v 1.0000000 -1.2000000 -0.2500000
v 1.0000000 -1.0000000 -0.2500000
v -0.9000000 -0.1500000 -0.0750000
v -0.9000000 -1.0000000 -0.0750000
v -0.9000000 -1.0000000 0.0750000
v -0.9000000 -0.1500000 0.0750000
v -0.9000000 -0.1500000 0.0750000
v -0.9000000 -1.0000000 0.0750000
v -0.6000000 -1.0000000 0.0750000
v -0.6000000 -0.1500000 0.0750000
v -0.6000000 -0.1500000 0.0750000
v -0.6000000 -1.0000000 0.0750000
v -0.6000000 -1.0000000 -0.0750000
v -0.6000000 -0.1500000 -0.0750000
v -0.6000000 -0.1500000 -0.0750000
v -0.6000000 -1.0000000 -0.0750000
v -0.9000000 -1.0000000 -0.0750000
v -0.9000000 -0.1500000 -0.0750000
v -0.6114150 -0.0925950 -0.0750000
v -0.6000000 -0.1500000 -0.0750000
v -0.7500000 -0.1500000 -0.0750000
v -0.6439350 -0.0439350 -0.0750000
v -0.6114150 -0.0925950 -0.0750000
v -0.7500000 -0.1500000 -0.0750000
v -0.6925950 -0.0114150 -0.0750000
v -0.6439350 -0.0439350 -0.0750000
v -0.7500000 -0.1500000 -0.0750000
v -0.7500000 -0.0000000 -0.0750000
v -0.6925950 -0.0114150 -0.0750000
v -0.7500000 -0.1500000 -0.0750000
v -0.8074050 -0.0114150 -0.0750000
v -0.7500000 -0.0000000 -0.0750000
v -0.7500000 -0.1500000 -0.0750000
v -0.8560650 -0.0439350 -0.0750000
v -0.8074050 -0.0114150 -0.0750000
v -0.7500000 -0.1500000 -0.0750000
v -0.8885850 -0.0925950 -0.0750000
v -0.8560650 -0.0439350 -0.0750000
v -0.7500000 -0.1500000 -0.0750000
v -0.9000000 -0.1500000 -0.0750000
v -0.8885850 -0.0925950 -0.0750000
v -0.7500000 -0.1500000 -0.0750000
v -0.8885850 -0.0925950 0.0750000
v -0.9000000 -0.1500000 0.0750000
v -0.7500000 -0.1500000 0.0750000
v -0.8560650 -0.0439350 0.0750000
v -0.8885850 -0.0925950 0.0750000
v -0.7500000 -0.1500000 0.0750000
v -0.8074050 -0.0114150 0.0750000
v -0.8560650 -0.0439350 0.0750000
v -0.7500000 -0.1500000 0.0750000
v -0.7500000 -0.0000000 0.0750000
v -0.8074050 -0.0114150 0.0750000
v -0.7500000 -0.1500000 0.0750000
v -0.6925950 -0.0114150 0.0750000
v -0.7500000 -0.0000000 0.0750000
v -0.7500000 -0.1500000 0.0750000
v -0.6439350 -0.0439350 0.0750000
v -0.6925950 -0.0114150 0.0750000
v -0.7500000 -0.1500000 0.0750000
v -0.6114150 -0.0925950 0.0750000
v -0.6439350 -0.0439350 0.0750000
v -0.7500000 -0.1500000 0.0750000
v -0.6000000 -0.1500000 0.0750000
v -0.6114150 -0.0925950 0.0750000
v -0.7500000 -0.1500000 0.0750000
v -0.6000000 -0.1500000 0.0750000
v -0.6000000 -0.1500000 -0.0750000
v -0.6114150 -0.0925950 -0.0750000
v -0.6114150 -0.0925950 0.0750000
v -0.6114150 -0.0925950 0.0750000
v -0.6114150 -0.0925950 -0.0750000
v -0.6439350 -0.0439350 -0.0750000
v -0.6439350 -0.0439350 0.0750000
v -0.6439350 -0.0439350 0.0750000
v -0.6439350 -0.0439350 -0.0750000
v -0.6925950 -0.0114150 -0.0750000
v -0.6925950 -0.0114150 0.0750000
v -0.6925950 -0.0114150 0.0750000
v -0.6925950 -0.0114150 -0.0750000
v -0.7500000 -0.0000000 -0.0750000
v -0.7500000 -0.0000000 0.0750000
v -0.7500000 -0.0000000 0.0750000
v -0.7500000 -0.0000000 -0.0750000
v -0.8074050 -0.0114150 -0.0750000
v -0.8074050 -0.0114150 0.0750000
v -0.8074050 -0.0114150 0.0750000
v -0.8074050 -0.0114150 -0.0750000
v -0.8560650 -0.0439350 -0.0750000
v -0.8560650 -0.0439350 0.0750000
v -0.8560650 -0.0439350 0.0750000
v -0.8560650 -0.0439350 -0.0750000
v -0.8885850 -0.0925950 -0.0750000
v -0.8885850 -0.0925950 0.0750000
v -0.8885850 -0.0925950 0.0750000
v -0.8885850 -0.0925950 -0.0750000
v -0.9000000 -0.1500000 -0.0750000
v -0.9000000 -0.1500000 0.0750000
v -1.0000000 -0.2250000 -0.0625000
v -0.9000000 -0.2250000 -0.0625000
v -0.9000000 -0.3500000 -0.0625000
v -1.0000000 -0.3500000 -0.0625000
v -1.0000000 -0.3500000 -0.0625000
v -0.9000000 -0.3500000 -0.0625000
v -0.9000000 -0.3500000 0.0625000
v -1.0000000 -0.3500000 0.0625000
v -1.0000000 -0.3500000 0.0625000
v -0.9000000 -0.3500000 0.0625000
v -0.9000000 -0.2250000 0.0625000
v -1.0000000 -0.2250000 0.0625000
v -1.0000000 -0.2250000 0.0625000
v -0.9000000 -0.2250000 0.0625000
v -0.9000000 -0.2250000 -0.0625000
v -1.0000000 -0.2250000 -0.0625000
v -1.0000000 -0.7375000 -0.0625000
v -0.9000000 -0.7375000 -0.0625000
v -0.9000000 -0.8625000 -0.0625000
v -1.0000000 -0.8625000 -0.0625000
v -1.0000000 -0.8625000 -0.0625000
v -0.9000000 -0.8625000 -0.0625000
v -0.9000000 -0.8625000 0.0625000
v -1.0000000 -0.8625000 0.0625000
v -1.0000000 -0.8625000 0.0625000
v -0.9000000 -0.8625000 0.0625000
v -0.9000000 -0.7375000 0.0625000
v -1.0000000 -0.7375000 0.0625000
v -1.0000000 -0.7375000 0.0625000
v -0.9000000 -0.7375000 0.0625000
v -0.9000000 -0.7375000 -0.0625000
v -1.0000000 -0.7375000 -0.0625000
v -0.5000000 -0.2250000 0.0625000
v -0.6000000 -0.2250000 0.0625000
v -0.6000000 -0.3500000 0.0625000
v -0.5000000 -0.3500000 0.0625000
v -0.5000000 -0.3500000 0.0625000
v -0.6000000 -0.3500000 0.0625000
v -0.6000000 -0.3500000 -0.0625000
v -0.5000000 -0.3500000 -0.0625000
v -0.5000000 -0.3500000 -0.0625000
v -0.6000000 -0.3500000 -0.0625000
v -0.6000000 -0.2250000 -0.0625000
v -0.5000000 -0.2250000 -0.0625000
v -0.5000000 -0.2250000 -0.0625000
v -0.6000000 -0.2250000 -0.0625000
v -0.6000000 -0.2250000 0.0625000
v -0.5000000 -0.2250000 0.0625000
v -0.5000000 -0.7375000 0.0625000
v -0.6000000 -0.7375000 0.0625000
v -0.6000000 -0.8625000 0.0625000
v -0.5000000 -0.8625000 0.0625000
v -0.5000000 -0.8625000 0.0625000
v -0.6000000 -0.8625000 0.0625000
v -0.6000000 -0.8625000 -0.0625000
v -0.5000000 -0.8625000 -0.0625000
v -0.5000000 -0.8625000 -0.0625000
v -0.6000000 -0.8625000 -0.0625000
v -0.6000000 -0.7375000 -0.0625000
v -0.5000000 -0.7375000 -0.0625000
v -0.5000000 -0.7375000 -0.0625000
v -0.6000000 -0.7375000 -0.0625000
v -0.6000000 -0.7375000 0.0625000
v -0.5000000 -0.7375000 0.0625000
v -0.4000000 -0.1500000 -0.0750000
v -0.4000000 -1.0000000 -0.0750000
v -0.4000000 -1.0000000 0.0750000
v -0.4000000 -0.1500000 0.0750000
v -0.4000000 -0.1500000 0.0750000
v -0.4000000 -1.0000000 0.0750000
v -0.1000000 -1.0000000 0.0750000
v -0.1000000 -0.1500000 0.0750000
v -0.1000000 -0.1500000 0.0750000
v -0.1000000 -1.0000000 0.0750000
v -0.1000000 -1.0000000 -0.0750000
v -0.1000000 -0.1500000 -0.0750000
v -0.1000000 -0.1500000 -0.0750000
v -0.1000000 -1.0000000 -0.0750000
v -0.4000000 -1.0000000 -0.0750000
v -0.4000000 -0.1500000 -0.0750000
v -0.1114150 -0.0925950 -0.0750000
v -0.1000000 -0.1500000 -0.0750000
v -0.2500000 -0.1500000 -0.0750000
v -0.1439350 -0.0439350 -0.0750000
v -0.1114150 -0.0925950 -0.0750000
v -0.2500000 -0.1500000 -0.0750000
v -0.1925950 -0.0114150 -0.0750000
v -0.1439350 -0.0439350 -0.0750000
v -0.2500000 -0.1500000 -0.0750000
v -0.2500000 -0.0000000 -0.0750000
v -0.1925950 -0.0114150 -0.0750000
v -0.2500000 -0.1500000 -0.0750000
v -0.3074050 -0.0114150 -0.0750000
v -0.2500000 -0.0000000 -0.0750000
v -0.2500000 -0.1500000 -0.0750000
v -0.3560650 -0.0439350 -0.0750000
v -0.3074050 -0.0114150 -0.0750000
v -0.2500000 -0.1500000 -0.0750000
v -0.3885850 -0.0925950 -0.0750000
v -0.3560650 -0.0439350 -0.0750000
v -0.2500000 -0.1500000 -0.0750000
v -0.4000000 -0.1500000 -0.0750000
v -0.3885850 -0.0925950 -0.0750000
v -0.2500000 -0.1500000 -0.0750000
v -0.3885850 -0.0925950 0.0750000
v -0.4000000 -0.1500000 0.0750000
v -0.2500000 -0.1500000 0.0750000
v -0.3560650 -0.0439350 0.0750000
v -0.3885850 -0.0925950 0.0750000
v -0.2500000 -0.1500000 0.0750000
v -0.3074050 -0.0114150 0.0750000
v -0.3560650 -0.0439350 0.0750000
v -0.2500000 -0.1500000 0.0750000
v -0.2500000 -0.0000000 0.0750000
v -0.3074050 -0.0114150 0.0750000
v -0.2500000 -0.1500000 0.0750000
v -0.1925950 -0.0114150 0.0750000
v -0.2500000 -0.0000000 0.0750000
v -0.2500000 -0.1500000 0.0750000
v -0.1439350 -0.0439350 0.0750000
v -0.1925950 -0.0114150 0.0750000
v -0.2500000 -0.1500000 0.0750000
v -0.1114150 -0.0925950 0.0750000
v -0.1439350 -0.0439350 0.0750000
v -0.2500000 -0.1500000 0.0750000
v -0.1000000 -0.1500000 0.0750000
v -0.1114150 -0.0925950 0.0750000
v -0.2500000 -0.1500000 0.0750000
v -0.1000000 -0.1500000 0.0750000
v -0.1000000 -0.1500000 -0.0750000
v -0.1114150 -0.0925950 -0.0750000
v -0.1114150 -0.0925950 0.0750000
v -0.1114150 -0.0925950 0.0750000
v -0.1114150 -0.0925950 -0.0750000
v -0.1439350 -0.0439350 -0.0750000
v -0.1439350 -0.0439350 0.0750000
v -0.1439350 -0.0439350 0.0750000
v -0.1439350 -0.0439350 -0.0750000
v -0.1925950 -0.0114150 -0.0750000
v -0.1925950 -0.0114150 0.0750000
v -0.1925950 -0.0114150 0.0750000
v -0.1925950 -0.0114150 -0.0750000
v -0.2500000 -0.0000000 -0.0750000
v -0.2500000 -0.0000000 0.0750000
v -0.2500000 -0.0000000 0.0750000
v -0.2500000 -0.0000000 -0.0750000
v -0.3074050 -0.0114150 -0.0750000
v -0.3074050 -0.0114150 0.0750000
v -0.3074050 -0.0114150 0.0750000
v -0.3074050 -0.0114150 -0.0750000
v -0.3560650 -0.0439350 -0.0750000
v -0.3560650 -0.0439350 0.0750000
v -0.3560650 -0.0439350 0.0750000
v -0.3560650 -0.0439350 -0.0750000
v -0.3885850 -0.0925950 -0.0750000
v -0.3885850 -0.0925950 0.0750000
v -0.3885850 -0.0925950 0.0750000
v -0.3885850 -0.0925950 -0.0750000
v -0.4000000 -0.1500000 -0.0750000
v -0.4000000 -0.1500000 0.0750000
v -0.5000000 -0.2250000 -0.0625000
v -0.4000000 -0.2250000 -0.0625000
v -0.4000000 -0.3500000 -0.0625000
v -0.5000000 -0.3500000 -0.0625000
v -0.5000000 -0.3500000 -0.0625000
v -0.4000000 -0.3500000 -0.0625000
v -0.4000000 -0.3500000 0.0625000
v -0.5000000 -0.3500000 0.0625000
v -0.5000000 -0.3500000 0.0625000
v -0.4000000 -0.3500000 0.0625000
v -0.4000000 -0.2250000 0.0625000
v -0.5000000 -0.2250000 0.0625000
v -0.5000000 -0.2250000 0.0625000
v -0.4000000 -0.2250000 0.0625000
v -0.4000000 -0.2250000 -0.0625000
v -0.5000000 -0.2250000 -0.0625000
v -0.5000000 -0.7375000 -0.0625000
v -0.4000000 -0.7375000 -0.0625000
v -0.4000000 -0.8625000 -0.0625000
v -0.5000000 -0.8625000 -0.0625000
v -0.5000000 -0.8625000 -0.0625000
v -0.4000000 -0.8625000 -0.0625000
v -0.4000000 -0.8625000 0.0625000
v -0.5000000 -0.8625000 0.0625000
v -0.5000000 -0.8625000 0.0625000
v -0.4000000 -0.8625000 0.0625000
v -0.4000000 -0.7375000 0.0625000
v -0.5000000 -0.7375000 0.0625000
v -0.5000000 -0.7375000 0.0625000
v -0.4000000 -0.7375000 0.0625000
v -0.4000000 -0.7375000 -0.0625000
v -0.5000000 -0.7375000 -0.0625000
v 0.0000000 -0.2250000 0.0625000
v -0.1000000 -0.2250000 0.0625000
v -0.1000000 -0.3500000 0.0625000
v 0.0000000 -0.3500000 0.0625000
v 0.0000000 -0.3500000 0.0625000
v -0.1000000 -0.3500000 0.0625000
v -0.1000000 -0.3500000 -0.0625000
v 0.0000000 -0.3500000 -0.0625000
v 0.0000000 -0.3500000 -0.0625000
v -0.1000000 -0.3500000 -0.0625000
v -0.1000000 -0.2250000 -0.0625000
v 0.0000000 -0.2250000 -0.0625000
v 0.0000000 -0.2250000 -0.0625000
v -0.1000000 -0.2250000 -0.0625000
v -0.1000000 -0.2250000 0.0625000
v 0.0000000 -0.2250000 0.0625000
v 0.0000000 -0.7375000 0.0625000
v -0.1000000 -0.7375000 0.0625000
v -0.1000000 -0.8625000 0.0625000
v 0.0000000 -0.8625000 0.0625000
v 0.0000000 -0.8625000 0.0625000
v -0.1000000 -0.8625000 0.0625000
v -0.1000000 -0.8625000 -0.0625000
v 0.0000000 -0.8625000 -0.0625000
v 0.0000000 -0.8625000 -0.0625000
v -0.1000000 -0.8625000 -0.0625000
v -0.1000000 -0.7375000 -0.0625000
v 0.0000000 -0.7375000 -0.0625000
v 0.0000000 -0.7375000 -0.0625000
v -0.1000000 -0.7375000 -0.0625000
v -0.1000000 -0.7375000 0.0625000
v 0.0000000 -0.7375000 0.0625000
v 0.1000000 -0.1500000 -0.0750000
v 0.1000000 -1.0000000 -0.0750000
v 0.1000000 -1.0000000 0.0750000
v 0.1000000 -0.1500000 0.0750000
v 0.1000000 -0.1500000 0.0750000
v 0.1000000 -1.0000000 0.0750000
v 0.4000000 -1.0000000 0.0750000
v 0.4000000 -0.1500000 0.0750000
v 0.4000000 -0.1500000 0.0750000
v 0.4000000 -1.0000000 0.0750000
v 0.4000000 -1.0000000 -0.0750000
v 0.4000000 -0.1500000 -0.0750000
v 0.4000000 -0.1500000 -0.0750000
v 0.4000000 -1.0000000 -0.0750000
v 0.1000000 -1.0000000 -0.0750000
v 0.1000000 -0.1500000 -0.0750000
v 0.3885850 -0.0925950 -0.0750000
v 0.4000000 -0.1500000 -0.0750000
v 0.2500000 -0.1500000 -0.0750000
v 0.3560650 -0.0439350 -0.0750000
v 0.3885850 -0.0925950 -0.0750000
v 0.2500000 -0.1500000 -0.0750000
v 0.3074050 -0.0114150 -0.0750000
v 0.3560650 -0.0439350 -0.0750000
v 0.2500000 -0.1500000 -0.0750000
v 0.2500000 -0.0000000 -0.0750000
v 0.3074050 -0.0114150 -0.0750000
v 0.2500000 -0.1500000 -0.0750000
v 0.1925950 -0.0114150 -0.0750000
v 0.2500000 -0.0000000 -0.0750000
v 0.2500000 -0.1500000 -0.0750000
v 0.1439350 -0.0439350 -0.0750000
v 0.1925950 -0.0114150 -0.0750000
v 0.2500000 -0.1500000 -0.0750000
v 0.1114150 -0.0925950 -0.0750000
v 0.1439350 -0.0439350 -0.0750000
v 0.2500000 -0.1500000 -0.0750000
v 0.1000000 -0.1500000 -0.0750000
v 0.1114150 -0.0925950 -0.0750000
v 0.2500000 -0.1500000 -0.0750000
v 0.1114150 -0.0925950 0.0750000
v 0.1000000 -0.1500000 0.0750000
v 0.2500000 -0.1500000 0.0750000
v 0.1439350 -0.0439350 0.0750000
v 0.1114150 -0.0925950 0.0750000
v 0.2500000 -0.1500000 0.0750000
v 0.1925950 -0.0114150 0.0750000
v 0.1439350 -0.0439350 0.0750000
v 0.2500000 -0.1500000 0.0750000
v 0.2500000 -0.0000000 0.0750000
v 0.1925950 -0.0114150 0.0750000
v 0.2500000 -0.1500000 0.0750000
v 0.3074050 -0.0114150 0.0750000
v 0.2500000 -0.0000000 0.0750000
v 0.2500000 -0.1500000 0.0750000
v 0.3560650 -0.0439350 0.0750000
v 0.3074050 -0.0114150 0.0750000
v 0.2500000 -0.1500000 0.0750000
v 0.3885850 -0.0925950 0.0750000
v 0.3560650 -0.0439350 0.0750000
v 0.2500000 -0.1500000 0.0750000
v 0.4000000 -0.1500000 0.0750000
v 0.3885850 -0.0925950 0.0750000
v 0.2500000 -0.1500000 0.0750000
v 0.4000000 -0.1500000 0.0750000
v 0.4000000 -0.1500000 -0.0750000
v 0.3885850 -0.0925950 -0.0750000
v 0.3885850 -0.0925950 0.0750000
v 0.3885850 -0.0925950 0.0750000
v 0.3885850 -0.0925950 -0.0750000
v 0.3560650 -0.0439350 -0.0750000
v 0.3560650 -0.0439350 0.0750000
v 0.3560650 -0.0439350 0.0750000
v 0.3560650 -0.0439350 -0.0750000
v 0.3074050 -0.0114150 -0.0750000
v 0.3074050 -0.0114150 0.0750000
v 0.3074050 -0.0114150 0.0750000
v 0.3074050 -0.0114150 -0.0750000
v 0.2500000 -0.0000000 -0.0750000
v 0.2500000 -0.0000000 0.0750000
v 0.2500000 -0.0000000 0.0750000
v 0.2500000 -0.0000000 -0.0750000
v 0.1925950 -0.0114150 -0.0750000
v 0.1925950 -0.0114150 0.0750000
v 0.1925950 -0.0114150 0.0750000
v 0.1925950 -0.0114150 -0.0750000
v 0.1439350 -0.0439350 -0.0750000
v 0.1439350 -0.0439350 0.0750000
v 0.1439350 -0.0439350 0.0750000
v 0.1439350 -0.0439350 -0.0750000
v 0.1114150 -0.0925950 -0.0750000
v 0.1114150 -0.0925950 0.0750000
v 0.1114150 -0.0925950 0.0750000
v 0.1114150 -0.0925950 -0.0750000
v 0.1000000 -0.1500000 -0.0750000
v 0.1000000 -0.1500000 0.0750000
v 0.0000000 -0.2250000 -0.0625000
v 0.1000000 -0.2250000 -0.0625000
v 0.1000000 -0.3500000 -0.0625000
v 0.0000000 -0.3500000 -0.0625000
v 0.0000000 -0.3500000 -0.0625000
v 0.1000000 -0.3500000 -0.0625000
v 0.1000000 -0.3500000 0.0625000
v 0.0000000 -0.3500000 0.0625000
v 0.0000000 -0.3500000 0.0625000
v 0.1000000 -0.3500000 0.0625000
v 0.1000000 -0.2250000 0.0625000
v 0.0000000 -0.2250000 0.0625000
v 0.0000000 -0.2250000 0.0625000
v 0.1000000 -0.2250000 0.0625000
v 0.1000000 -0.2250000 -0.0625000
v 0.0000000 -0.2250000 -0.0625000
v 0.0000000 -0.7375000 -0.0625000
v 0.1000000 -0.7375000 -0.0625000
v 0.1000000 -0.8625000 -0.0625000
v 0.0000000 -0.8625000 -0.0625000
v 0.0000000 -0.8625000 -0.0625000
v 0.1000000 -0.8625000 -0.0625000
v 0.1000000 -0.8625000 0.0625000
v 0.0000000 -0.8625000 0.0625000
v 0.0000000 -0.8625000 0.0625000
v 0.1000000 -0.8625000 0.0625000
v 0.1000000 -0.7375000 0.0625000
v 0.0000000 -0.7375000 0.0625000
v 0.0000000 -0.7375000 0.0625000
v 0.1000000 -0.7375000 0.0625000
v 0.1000000 -0.7375000 -0.0625000
v 0.0000000 -0.7375000 -0.0625000
v 0.5000000 -0.2250000 0.0625000
v 0.4000000 -0.2250000 0.0625000
v 0.4000000 -0.3500000 0.0625000
v 0.5000000 -0.3500000 0.0625000
v 0.5000000 -0.3500000 0.0625000
v 0.4000000 -0.3500000 0.0625000
v 0.4000000 -0.3500000 -0.0625000
v 0.5000000 -0.3500000 -0.0625000
v 0.5000000 -0.3500000 -0.0625000
v 0.4000000 -0.3500000 -0.0625000
v 0.4000000 -0.2250000 -0.0625000
v 0.5000000 -0.2250000 -0.0625000
v 0.5000000 -0.2250000 -0.0625000
v 0.4000000 -0.2250000 -0.0625000
v 0.4000000 -0.2250000 0.0625000
v 0.5000000 -0.2250000 0.0625000
v 0.5000000 -0.7375000 0.0625000
v 0.4000000 -0.7375000 0.0625000
v 0.4000000 -0.8625000 0.0625000
v 0.5000000 -0.8625000 0.0625000
v 0.5000000 -0.8625000 0.0625000
v 0.4000000 -0.8625000 0.0625000
v 0.4000000 -0.8625000 -0.0625000
v 0.5000000 -0.8625000 -0.0625000
v 0.5000000 -0.8625000 -0.0625000
v 0.4000000 -0.8625000 -0.0625000
v 0.4000000 -0.7375000 -0.0625000
v 0.5000000 -0.7375000 -0.0625000
v 0.5000000 -0.7375000 -0.0625000
v 0.4000000 -0.7375000 -0.0625000
v 0.4000000 -0.7375000 0.0625000
v 0.5000000 -0.7375000 0.0625000
v 0.6000000 -0.1500000 -0.0750000
v 0.6000000 -1.0000000 -0.0750000
v 0.6000000 -1.0000000 0.0750000
v 0.6000000 -0.1500000 0.0750000
v 0.6000000 -0.1500000 0.0750000
v 0.6000000 -1.0000000 0.0750000
v 0.9000000 -1.0000000 0.0750000
v 0.9000000 -0.1500000 0.0750000
v 0.9000000 -0.1500000 0.0750000
v 0.9000000 -1.0000000 0.0750000
v 0.9000000 -1.0000000 -0.0750000
v 0.9000000 -0.1500000 -0.0750000
v 0.9000000 -0.1500000 -0.0750000
v 0.9000000 -1.0000000 -0.0750000
v 0.6000000 -1.0000000 -0.0750000
v 0.6000000 -0.1500000 -0.0750000
v 0.8885850 -0.0925950 -0.0750000
v 0.9000000 -0.1500000 -0.0750000
v 0.7500000 -0.1500000 -0.0750000
v 0.8560650 -0.0439350 -0.0750000
v 0.8885850 -0.0925950 -0.0750000
v 0.7500000 -0.1500000 -0.0750000
v 0.8074050 -0.0114150 -0.0750000
v 0.8560650 -0.0439350 -0.0750000
v 0.7500000 -0.1500000 -0.0750000
v 0.7500000 -0.0000000 -0.0750000
v 0.8074050 -0.0114150 -0.0750000
v 0.7500000 -0.1500000 -0.0750000
v 0.6925950 -0.0114150 -0.0750000
v 0.7500000 -0.0000000 -0.0750000
v 0.7500000 -0.1500000 -0.0750000
v 0.6439350 -0.0439350 -0.0750000
v 0.6925950 -0.0114150 -0.0750000
v 0.7500000 -0.1500000 -0.0750000
v 0.6114150 -0.0925950 -0.0750000
v 0.6439350 -0.0439350 -0.0750000
v 0.7500000 -0.1500000 -0.0750000
v 0.6000000 -0.1500000 -0.0750000
v 0.6114150 -0.0925950 -0.0750000
v 0.7500000 -0.1500000 -0.0750000
v 0.6114150 -0.0925950 0.0750000
v 0.6000000 -0.1500000 0.0750000
v 0.7500000 -0.1500000 0.0750000
v 0.6439350 -0.0439350 0.0750000
v 0.6114150 -0.0925950 0.0750000
v 0.7500000 -0.1500000 0.0750000
v 0.6925950 -0.0114150 0.0750000
v 0.6439350 -0.0439350 0.0750000
v 0.7500000 -0.1500000 0.0750000
v 0.7500000 -0.0000000 0.0750000
v 0.6925950 -0.0114150 0.0750000
v 0.7500000 -0.1500000 0.0750000
v 0.8074050 -0.0114150 0.0750000
v 0.7500000 -0.0000000 0.0750000
v 0.7500000 -0.1500000 0.0750000
v 0.8560650 -0.0439350 0.0750000
v 0.8074050 -0.0114150 0.0750000
v 0.7500000 -0.1500000 0.0750000
v 0.8885850 -0.0925950 0.0750000
v 0.8560650 -0.0439350 0.0750000
v 0.7500000 -0.1500000 0.0750000
v 0.9000000 -0.1500000 0.0750000
v 0.8885850 -0.0925950 0.0750000
v 0.7500000 -0.1500000 0.0750000
v 0.9000000 -0.1500000 0.0750000
v 0.9000000 -0.1500000 -0.0750000
v 0.8885850 -0.0925950 -0.0750000
v 0.8885850 -0.0925950 0.0750000
v 0.8885850 -0.0925950 0.0750000
v 0.8885850 -0.0925950 -0.0750000
v 0.8560650 -0.0439350 -0.0750000
v 0.8560650 -0.0439350 0.0750000
v 0.8560650 -0.0439350 0.0750000
v 0.8560650 -0.0439350 -0.0750000
v 0.8074050 -0.0114150 -0.0750000
v 0.8074050 -0.0114150 0.0750000
v 0.8074050 -0.0114150 0.0750000
v 0.8074050 -0.0114150 -0.0750000
v 0.7500000 -0.0000000 -0.0750000
v 0.7500000 -0.0000000 0.0750000
v 0.7500000 -0.0000000 0.0750000
v 0.7500000 -0.0000000 -0.0750000
v 0.6925950 -0.0114150 -0.0750000
v 0.6925950 -0.0114150 0.0750000
v 0.6925950 -0.0114150 0.0750000
v 0.6925950 -0.0114150 -0.0750000
v 0.6439350 -0.0439350 -0.0750000
v 0.6439350 -0.0439350 0.0750000
v 0.6439350 -0.0439350 0.0750000
v 0.6439350 -0.0439350 -0.0750000
v 0.6114150 -0.0925950 -0.0750000
v 0.6114150 -0.0925950 0.0750000
v 0.6114150 -0.0925950 0.0750000
v 0.6114150 -0.0925950 -0.0750000
v 0.6000000 -0.1500000 -0.0750000
v 0.6000000 -0.1500000 0.0750000
v 0.5000000 -0.2250000 -0.0625000
v 0.6000000 -0.2250000 -0.0625000
v 0.6000000 -0.3500000 -0.0625000
v 0.5000000 -0.3500000 -0.0625000
v 0.5000000 -0.3500000 -0.0625000
v 0.6000000 -0.3500000 -0.0625000
v 0.6000000 -0.3500000 0.0625000
v 0.5000000 -0.3500000 0.0625000
v 0.5000000 -0.3500000 0.0625000
v 0.6000000 -0.3500000 0.0625000
v 0.6000000 -0.2250000 0.0625000
v 0.5000000 -0.2250000 0.0625000
v 0.5000000 -0.2250000 0.0625000
v 0.6000000 -0.2250000 0.0625000
v 0.6000000 -0.2250000 -0.0625000
v 0.5000000 -0.2250000 -0.0625000
v 0.5000000 -0.7375000 -0.0625000
v 0.6000000 -0.7375000 -0.0625000
v 0.6000000 -0.8625000 -0.0625000
v 0.5000000 -0.8625000 -0.0625000
v 0.5000000 -0.8625000 -0.0625000
v 0.6000000 -0.8625000 -0.0625000
v 0.6000000 -0.8625000 0.0625000
v 0.5000000 -0.8625000 0.0625000
v 0.5000000 -0.8625000 0.0625000
v 0.6000000 -0.8625000 0.0625000
v 0.6000000 -0.7375000 0.0625000
v 0.5000000 -0.7375000 0.0625000
v 0.5000000 -0.7375000 0.0625000
v 0.6000000 -0.7375000 0.0625000
v 0.6000000 -0.7375000 -0.0625000
v 0.5000000 -0.7375000 -0.0625000
v 1.0000000 -0.2250000 0.0625000
v 0.9000000 -0.2250000 0.0625000
v 0.9000000 -0.3500000 0.0625000
v 1.0000000 -0.3500000 0.0625000
v 1.0000000 -0.3500000 0.0625000
v 0.9000000 -0.3500000 0.0625000
v 0.9000000 -0.3500000 -0.0625000
v 1.0000000 -0.3500000 -0.0625000
v 1.0000000 -0.3500000 -0.0625000
v 0.9000000 -0.3500000 -0.0625000
v 0.9000000 -0.2250000 -0.0625000
v 1.0000000 -0.2250000 -0.0625000
v 1.0000000 -0.2250000 -0.0625000
v 0.9000000 -0.2250000 -0.0625000
v 0.9000000 -0.2250000 0.0625000
v 1.0000000 -0.2250000 0.0625000
v 1.0000000 -0.7375000 0.0625000
v 0.9000000 -0.7375000 0.0625000
v 0.9000000 -0.8625000 0.0625000
v 1.0000000 -0.8625000 0.0625000
v 1.0000000 -0.8625000 0.0625000
v 0.9000000 -0.8625000 0.0625000
v 0.9000000 -0.8625000 -0.0625000
v 1.0000000 -0.8625000 -0.0625000
v 1.0000000 -0.8625000 -0.0625000
v 0.9000000 -0.8625000 -0.0625000
v 0.9000000 -0.7375000 -0.0625000
v 1.0000000 -0.7375000 -0.0625000
v 1.0000000 -0.7375000 -0.0625000
v 0.9000000 -0.7375000 -0.0625000
v 0.9000000 -0.7375000 0.0625000
v 1.0000000 -0.7375000 0.0625000
v -1.0000000 -0.2250000 0.0625000
v -1.0000000 -0.2250000 -0.0625000
v -1.0000000 -0.3500000 -0.0625000
v -1.0000000 -0.3500000 0.0625000
v -1.0000000 -0.7375000 0.0625000
v -1.0000000 -0.7375000 -0.0625000
v -1.0000000 -0.8625000 -0.0625000
v -1.0000000 -0.8625000 0.0625000
v 1.0000000 -0.2250000 -0.0625000
v 1.0000000 -0.2250000 0.0625000
v 1.0000000 -0.3500000 0.0625000
v 1.0000000 -0.3500000 -0.0625000
v 1.0000000 -0.7375000 -0.0625000
v 1.0000000 -0.7375000 0.0625000
v 1.0000000 -0.8625000 0.0625000
v 1.0000000 -0.8625000 -0.0625000
s off
f 1 2 3
f 4 5 6
f 7 8 9
f 10 11 12
f 13 14 15
f 16 17 18
f 19 20 21
f 22 23 24
f 25 26 27
f 28 29 30
f 31 32 33
f 34 35 36
f 37 38 39
f 40 41 42
f 43 44 45
f 46 47 48
f 49 50 51
f 49 51 52
f 53 54 55
f 53 55 56
f 57 58 59
f 57 59 60
f 61 62 63
f 61 63 64
f 65 66 67
f 65 67 68
f 69 70 71
f 69 71 72
f 73 74 75
f 73 75 76
f 77 78 79
f 77 79 80
f 81 82 83
f 81 83 84
f 85 86 87
f 85 87 88
f 89 90 91
f 89 91 92
f 93 94 95
f 93 95 96
f 97 98 99
f 97 99 100
f 101 102 103
f 101 103 104
f 105 106 107
f 105 107 108
f 109 110 111
f 109 111 112
f 113 114 115
f 116 117 118
f 119 120 121
f 122 123 124
f 125 126 127
f 128 129 130
f 131 132 133
f 134 135 136
f 137 138 139
f 140 141 142
f 143 144 145
f 146 147 148
f 149 150 151
f 152 153 154
f 155 156 157
f 158 159 160
f 161 162 163
f 161 163 164
f 165 166 167
f 165 167 168
f 169 170 171
f 169 171 172
f 173 174 175
f 173 175 176
f 177 178 179
f 177 179 180
f 181 182 183
f 181 183 184
f 185 186 187
f 185 187 188
f 189 190 191
f 189 191 192
f 193 194 195
f 193 195 196
f 197 198 199
f 197 199 200
f 201 202 203
f 201 203 204
f 205 206 207
f 205 207 208
f 209 210 211
f 209 211 212
f 213 214 215
f 213 215 216
f 217 218 219
f 217 219 220
f 221 222 223
f 221 223 224
f 225 226 227
f 228 229 230
f 231 232 233
f 234 235 236
f 237 238 239
f 240 241 242
f 243 244 245
f 246 247 248
f 249 250 251
f 252 253 254
f 255 256 257
f 258 259 260
f 261 262 263
f 264 265 266
f 267 268 269
f 270 271 272
f 273 274 275
f 273 275 276
f 277 278 279
f 277 279 280
f 281 282 283
f 281 283 284
f 285 286 287
f 285 287 288
f 289 290 291
f 289 291 292
f 293 294 295
f 293 295 296
f 297 298 299
f 297 299 300
f 301 302 303
f 301 303 304
f 305 306 307
f 305 307 308
f 309 310 311
f 309 311 312
f 313 314 315
f 313 315 316
f 317 318 319
f 317 319 320
f 321 322 323
f 321 323 324
f 325 326 327
f 325 327 328
f 329 330 331
f 329 331 332
f 333 334 335
f 333 335 336
f 337 338 339
f 337 339 340
f 341 342 343
f 341 343 344
f 345 346 347
f 345 347 348
f 349 350 351
f 349 351 352
f 353 354 355
f 353 355 356
f 357 358 359
f 357 359 360
f 361 362 363
f 361 363 364
f 365 366 367
f 365 367 368
f 369 370 371
f 369 371 372
f 373 374 375
f 373 375 376
f 377 378 379
f 377 379 380
f 381 382 383
f 381 383 384
f 385 386 387
f 385 387 388
f 389 390 391
f 389 391 392
f 393 394 395
f 393 395 396
f 397 398 399
f 397 399 400
f 401 402 403
f 401 403 404
f 405 406 407
f 405 407 408
f 409 410 411
f 412 413 414
f 415 416 417
f 418 419 420
f 421 422 423
f 424 425 426
f 427 428 429
f 430 431 432
f 433 434 435
f 436 437 438
f 439 440 441
f 442 443 444
f 445 446 447
f 448 449 450
f 451 452 453
f 454 455 456
f 457 458 459
f 457 459 460
f 461 462 463
f 461 463 464
f 465 466 467
f 465 467 468
f 469 470 471
f 469 471 472
f 473 474 475
f 473 475 476
f 477 478 479
f 477 479 480
f 481 482 483
f 481 483 484
f 485 486 487
f 485 487 488
f 489 490 491
f 489 491 492
f 493 494 495
f 493 495 496
f 497 498 499
f 497 499 500
f 501 502 503
f 501 503 504
f 505 506 507
f 505 507 508
f 509 510 511
f 509 511 512
f 513 514 515
f 513 515 516
f 517 518 519
f 517 519 520
f 521 522 523
f 521 523 524
f 525 526 527
f 525 527 528
f 529 530 531
f 529 531 532
f 533 534 535
f 533 535 536
f 537 538 539
f 537 539 540
f 541 542 543
f 541 543 544
f 545 546 547
f 545 547 548
f 549 550 551
f 549 551 552
f 553 554 555
f 553 555 556
f 557 558 559
f 557 559 560
f 561 562 563
f 561 563 564
f 565 566 567
f 565 567 568
f 569 570 571
f 572 573 574
f 575 576 577
f 578 579 580
f 581 582 583
f 584 585 586
f 587 588 589
f 590 591 592
f 593 594 595
f 596 597 598
f 599 600 601
f 602 603 604
f 605 606 607
f 608 609 610
f 611 612 613
f 614 615 616
f 617 618 619
f 617 619 620
f 621 622 623
f 621 623 624
f 625 626 627
f 625 627 628
f 629 630 631
f 629 631 632
f 633 634 635
f 633 635 636
f 637 638 639
f 637 639 640
f 641 642 643
f 641 643 644
f 645 646 647
f 645 647 648
f 649 650 651
f 649 651 652
f 653 654 655
f 653 655 656
f 657 658 659
f 657 659 660
f 661 662 663
f 661 663 664
f 665 666 667
f 665 667 668
f 669 670 671
f 669 671 672
f 673 674 675
f 673 675 676
f 677 678 679
f 677 679 680
f 681 682 683
f 681 683 684
f 685 686 687
f 685 687 688
f 689 690 691
f 689 691 692
f 693 694 695
f 693 695 696
f 697 698 699
f 697 699 700
f 701 702 703
f 701 703 704
f 705 706 707
f 705 707 708
f 709 710 711
f 709 711 712
f 713 714 715
f 713 715 716
f 717 718 719
f 717 719 720
f 721 722 723
f 721 723 724
f 725 726 727
f 725 727 728
f 729 730 731
f 732 733 734
f 735 736 737
f 738 739 740
f 741 742 743
f 744 745 746
f 747 748 749
f 750 751 752
f 753 754 755
f 756 757 758
f 759 760 761
f 762 763 764
f 765 766 767
f 768 769 770
f 771 772 773
f 774 775 776
f 777 778 779
f 777 779 780
f 781 782 783
f 781 783 784
f 785 786 787
f 785 787 788
f 789 790 791
f 789 791 792
f 793 794 795
f 793 795 796
f 797 798 799
f 797 799 800
f 801 802 803
f 801 803 804
f 805 806 807
f 805 807 808
f 809 810 811
f 809 811 812
f 813 814 815
f 813 815 816
f 817 818 819
f 817 819 820
f 821 822 823
f 821 823 824
f 825 826 827
f 825 827 828
f 829 830 831
f 829 831 832
f 833 834 835
f 833 835 836
f 837 838 839
f 837 839 840
f 841 842 843
f 841 843 844
f 845 846 847
f 845 847 848
f 849 850 851
f 849 851 852
f 853 854 855
f 853 855 856
f 857 858 859
f 857 859 860
f 861 862 863
f 861 863 864
f 865 866 867
f 865 867 868
f 869 870 871
f 869 871 872
f 873 874 875
f 873 875 876
f 877 878 879
f 877 879 880
f 881 882 883
f 881 883 884
f 885 886 887
f 885 887 888
f 889 890 891
f 892 893 894
f 895 896 897
f 898 899 900
f 901 902 903
f 904 905 906
f 907 908 909
f 910 911 912
f 913 914 915
f 916 917 918
f 919 920 921
f 922 923 924
f 925 926 927
f 928 929 930
f 931 932 933
f 934 935 936
f 937 938 939
f 937 939 940
f 941 942 943
f 941 943 944
f 945 946 947
f 945 947 948
f 949 950 951
f 949 951 952
f 953 954 955
f 953 955 956
f 957 958 959
f 957 959 960
f 961 962 963
f 961 963 964
f 965 966 967
f 965 967 968
f 969 970 971
f 969 971 972
f 973 974 975
f 973 975 976
f 977 978 979
f 977 979 980
f 981 982 983
f 981 983 984
f 985 986 987
f 985 987 988
f 989 990 991
f 989 991 992
f 993 994 995
f 993 995 996
f 997 998 999
f 997 999 1000
f 1001 1002 1003
f 1001 1003 1004
f 1005 1006 1007
f 1005 1007 1008
f 1009 1010 1011
f 1009 1011 1012
f 1013 1014 1015
f 1013 1015 1016
f 1017 1018 1019
f 1017 1019 1020
f 1021 1022 1023
f 1021 1023 1024
f 1025 1026 1027
f 1025 1027 1028
f 1029 1030 1031
f 1029 1031 1032
f 1033 1034 1035
f 1033 1035 1036
f 1037 1038 1039
f 1037 1039 1040
f 1041 1042 1043
f 1041 1043 1044
f 1045 1046 1047
f 1045 1047 1048
