# Baked from official LDraw part 3496c01.dat
o ldraw_3496c01
v -0.5000000 -0.2000000 -0.2500000
v 0.5000000 -0.2000000 -0.2500000
v 0.4000000 -0.2000000 -0.1500000
v -0.4000000 -0.2000000 -0.1500000
v -0.4000000 -0.2000000 -0.1500000
v -0.4000000 -0.2000000 0.1500000
v -0.5000000 -0.2000000 0.2500000
v -0.5000000 -0.2000000 -0.2500000
v -0.4000000 -0.2000000 0.1500000
v 0.4000000 -0.2000000 0.1500000
v 0.5000000 -0.2000000 0.2500000
v -0.5000000 -0.2000000 0.2500000
v 0.5000000 -0.2000000 -0.2500000
v 0.5000000 -0.2000000 0.2500000
v 0.4000000 -0.2000000 0.1500000
v 0.4000000 -0.2000000 -0.1500000
v 0.4000000 -0.1000000 0.1500000
v 0.4000000 -0.2000000 0.1500000
v -0.4000000 -0.2000000 0.1500000
v -0.4000000 -0.1000000 0.1500000
v -0.4000000 -0.1000000 0.1500000
v -0.4000000 -0.2000000 0.1500000
v -0.4000000 -0.2000000 -0.1500000
v -0.4000000 -0.1000000 -0.1500000
v -0.4000000 -0.1000000 -0.1500000
v -0.4000000 -0.2000000 -0.1500000
v 0.4000000 -0.2000000 -0.1500000
v 0.4000000 -0.1000000 -0.1500000
v 0.4000000 -0.1000000 -0.1500000
v 0.4000000 -0.2000000 -0.1500000
v 0.4000000 -0.2000000 0.1500000
v 0.4000000 -0.1000000 0.1500000
v -0.4000000 -0.1000000 -0.1500000
v 0.4000000 -0.1000000 -0.1500000
v 0.3500000 -0.0500000 -0.1000000
v -0.3500000 -0.0500000 -0.1000000
v -0.3500000 -0.0500000 -0.1000000
v -0.3500000 -0.0500000 0.1000000
v -0.4000000 -0.1000000 0.1500000
v -0.4000000 -0.1000000 -0.1500000
v -0.3500000 -0.0500000 0.1000000
v 0.3500000 -0.0500000 0.1000000
v 0.4000000 -0.1000000 0.1500000
v -0.4000000 -0.1000000 0.1500000
v 0.4000000 -0.1000000 -0.1500000
v 0.4000000 -0.1000000 0.1500000
v 0.3500000 -0.0500000 0.1000000
v 0.3500000 -0.0500000 -0.1000000
v 0.1000000 -0.0500000 -0.0500000
v -0.1000000 -0.0500000 -0.0500000
v -0.3500000 -0.0500000 -0.1000000
v 0.3500000 -0.0500000 -0.1000000
v -0.3500000 -0.0500000 0.1000000
v -0.3500000 -0.0500000 -0.1000000
v -0.1000000 -0.0500000 -0.0500000
v -0.1000000 -0.0500000 0.0500000
v 0.3500000 -0.0500000 0.1000000
v -0.3500000 -0.0500000 0.1000000
v -0.1000000 -0.0500000 0.0500000
v 0.1000000 -0.0500000 0.0500000
v 0.1000000 -0.0500000 0.0500000
v 0.1000000 -0.0500000 -0.0500000
v 0.3500000 -0.0500000 -0.1000000
v 0.3500000 -0.0500000 0.1000000
v -0.0691350 -0.0500000 0.0461950
v -0.0500000 -0.0500000 0.0500000
v -0.1000000 -0.0500000 0.0500000
v -0.0853550 -0.0500000 0.0353550
v -0.0691350 -0.0500000 0.0461950
v -0.1000000 -0.0500000 0.0500000
v -0.0961950 -0.0500000 0.0191350
v -0.0853550 -0.0500000 0.0353550
v -0.1000000 -0.0500000 0.0500000
v -0.1000000 -0.0500000 0.0000000
v -0.0961950 -0.0500000 0.0191350
v -0.1000000 -0.0500000 0.0500000
v -0.0961950 -0.0500000 -0.0191350
v -0.1000000 -0.0500000 0.0000000
v -0.1000000 -0.0500000 -0.0500000
v -0.0853550 -0.0500000 -0.0353550
v -0.0961950 -0.0500000 -0.0191350
v -0.1000000 -0.0500000 -0.0500000
v -0.0691350 -0.0500000 -0.0461950
v -0.0853550 -0.0500000 -0.0353550
v -0.1000000 -0.0500000 -0.0500000
v -0.0500000 -0.0500000 -0.0500000
v -0.0691350 -0.0500000 -0.0461950
v -0.1000000 -0.0500000 -0.0500000
v 0.1000000 -0.0500000 0.0500000
v 0.0500000 -0.0500000 0.0500000
v 0.0691350 -0.0500000 0.0461950
v 0.1000000 -0.0500000 0.0500000
v 0.0691350 -0.0500000 0.0461950
v 0.0853550 -0.0500000 0.0353550
v 0.1000000 -0.0500000 0.0500000
v 0.0853550 -0.0500000 0.0353550
v 0.0961950 -0.0500000 0.0191350
v 0.1000000 -0.0500000 0.0500000
v 0.0961950 -0.0500000 0.0191350
v 0.1000000 -0.0500000 0.0000000
v 0.1000000 -0.0500000 -0.0500000
v 0.1000000 -0.0500000 0.0000000
v 0.0961950 -0.0500000 -0.0191350
v 0.1000000 -0.0500000 -0.0500000
v 0.0961950 -0.0500000 -0.0191350
v 0.0853550 -0.0500000 -0.0353550
v 0.1000000 -0.0500000 -0.0500000
v 0.0853550 -0.0500000 -0.0353550
v 0.0691350 -0.0500000 -0.0461950
v 0.1000000 -0.0500000 -0.0500000
v 0.0691350 -0.0500000 -0.0461950
v 0.0500000 -0.0500000 -0.0500000
v 0.0500000 -0.0500000 -0.0500000
v 0.0500000 0.1000000 -0.0500000
v -0.0500000 0.1000000 -0.0500000
v -0.0500000 -0.0500000 -0.0500000
v -0.0500000 0.1000000 0.0500000
v -0.0500000 -0.0500000 0.0500000
v -0.0691350 -0.0500000 0.0461950
v -0.0691350 0.1000000 0.0461950
v -0.0691350 0.1000000 0.0461950
v -0.0691350 -0.0500000 0.0461950
v -0.0853550 -0.0500000 0.0353550
v -0.0853550 0.1000000 0.0353550
v -0.0853550 0.1000000 0.0353550
v -0.0853550 -0.0500000 0.0353550
v -0.0961950 -0.0500000 0.0191350
v -0.0961950 0.1000000 0.0191350
v -0.0961950 0.1000000 0.0191350
v -0.0961950 -0.0500000 0.0191350
v -0.1000000 -0.0500000 0.0000000
v -0.1000000 0.1000000 0.0000000
v -0.1000000 0.1000000 0.0000000
v -0.1000000 -0.0500000 0.0000000
v -0.0961950 -0.0500000 -0.0191350
v -0.0961950 0.1000000 -0.0191350
v -0.0961950 0.1000000 -0.0191350
v -0.0961950 -0.0500000 -0.0191350
v -0.0853550 -0.0500000 -0.0353550
v -0.0853550 0.1000000 -0.0353550
v -0.0853550 0.1000000 -0.0353550
v -0.0853550 -0.0500000 -0.0353550
v -0.0691350 -0.0500000 -0.0461950
v -0.0691350 0.1000000 -0.0461950
v -0.0691350 0.1000000 -0.0461950
v -0.0691350 -0.0500000 -0.0461950
v -0.0500000 -0.0500000 -0.0500000
v -0.0500000 0.1000000 -0.0500000
v -0.0500000 -0.0500000 0.0500000
v -0.0500000 0.1000000 0.0500000
v 0.0500000 0.1000000 0.0500000
v 0.0500000 -0.0500000 0.0500000
v 0.0691350 0.1000000 0.0461950
v 0.0691350 -0.0500000 0.0461950
v 0.0500000 -0.0500000 0.0500000
v 0.0500000 0.1000000 0.0500000
v 0.0853550 0.1000000 0.0353550
v 0.0853550 -0.0500000 0.0353550
v 0.0691350 -0.0500000 0.0461950
v 0.0691350 0.1000000 0.0461950
v 0.0961950 0.1000000 0.0191350
v 0.0961950 -0.0500000 0.0191350
v 0.0853550 -0.0500000 0.0353550
v 0.0853550 0.1000000 0.0353550
v 0.1000000 0.1000000 0.0000000
v 0.1000000 -0.0500000 0.0000000
v 0.0961950 -0.0500000 0.0191350
v 0.0961950 0.1000000 0.0191350
v 0.0961950 0.1000000 -0.0191350
v 0.0961950 -0.0500000 -0.0191350
v 0.1000000 -0.0500000 0.0000000
v 0.1000000 0.1000000 0.0000000
v 0.0853550 0.1000000 -0.0353550
v 0.0853550 -0.0500000 -0.0353550
v 0.0961950 -0.0500000 -0.0191350
v 0.0961950 0.1000000 -0.0191350
v 0.0691350 0.1000000 -0.0461950
v 0.0691350 -0.0500000 -0.0461950
v 0.0853550 -0.0500000 -0.0353550
v 0.0853550 0.1000000 -0.0353550
v 0.0500000 0.1000000 -0.0500000
v 0.0500000 -0.0500000 -0.0500000
v 0.0691350 -0.0500000 -0.0461950
v 0.0691350 0.1000000 -0.0461950
v -0.5000000 -0.0000000 0.2500000
v -0.5000000 -0.2000000 0.2500000
v 0.5000000 -0.2000000 0.2500000
v 0.5000000 -0.0000000 0.2500000
v -0.5000000 -0.0000000 -0.2500000
v -0.5000000 -0.2000000 -0.2500000
v -0.5000000 -0.2000000 0.2500000
v -0.5000000 -0.0000000 0.2500000
v 0.5000000 -0.0000000 -0.2500000
v 0.5000000 -0.2000000 -0.2500000
v -0.5000000 -0.2000000 -0.2500000
v -0.5000000 -0.0000000 -0.2500000
v 0.5000000 -0.0000000 0.2500000
v 0.5000000 -0.2000000 0.2500000
v 0.5000000 -0.2000000 -0.2500000
v 0.5000000 -0.0000000 -0.2500000
v -0.3750000 0.1000000 -0.1250000
v 0.3750000 0.1000000 -0.1250000
v 0.5000000 -0.0000000 -0.2500000
v -0.5000000 -0.0000000 -0.2500000
v -0.5000000 -0.0000000 -0.2500000
v -0.5000000 -0.0000000 0.2500000
v -0.3750000 0.1000000 0.1250000
v -0.3750000 0.1000000 -0.1250000
v -0.5000000 -0.0000000 0.2500000
v 0.5000000 -0.0000000 0.2500000
v 0.3750000 0.1000000 0.1250000
v -0.3750000 0.1000000 0.1250000
v 0.3750000 0.1000000 -0.1250000
v 0.3750000 0.1000000 0.1250000
v 0.5000000 -0.0000000 0.2500000
v 0.5000000 -0.0000000 -0.2500000
v 0.3750000 0.1000000 -0.1250000
v -0.3750000 0.1000000 -0.1250000
v -0.1000000 0.1000000 -0.0500000
v 0.1000000 0.1000000 -0.0500000
v -0.1000000 0.1000000 0.0500000
v -0.1000000 0.1000000 -0.0500000
v -0.3750000 0.1000000 -0.1250000
v -0.3750000 0.1000000 0.1250000
v 0.1000000 0.1000000 0.0500000
v -0.1000000 0.1000000 0.0500000
v -0.3750000 0.1000000 0.1250000
v 0.3750000 0.1000000 0.1250000
v 0.3750000 0.1000000 0.1250000
v 0.3750000 0.1000000 -0.1250000
v 0.1000000 0.1000000 -0.0500000
v 0.1000000 0.1000000 0.0500000
v -0.1000000 0.1000000 0.0500000
v -0.0500000 0.1000000 0.0500000
v -0.0691350 0.1000000 0.0461950
v -0.1000000 0.1000000 0.0500000
v -0.0691350 0.1000000 0.0461950
v -0.0853550 0.1000000 0.0353550
v -0.1000000 0.1000000 0.0500000
v -0.0853550 0.1000000 0.0353550
v -0.0961950 0.1000000 0.0191350
v -0.1000000 0.1000000 0.0500000
v -0.0961950 0.1000000 0.0191350
v -0.1000000 0.1000000 0.0000000
v -0.1000000 0.1000000 -0.0500000
v -0.1000000 0.1000000 0.0000000
v -0.0961950 0.1000000 -0.0191350
v -0.1000000 0.1000000 -0.0500000
v -0.0961950 0.1000000 -0.0191350
v -0.0853550 0.1000000 -0.0353550
v -0.1000000 0.1000000 -0.0500000
v -0.0853550 0.1000000 -0.0353550
v -0.0691350 0.1000000 -0.0461950
v -0.1000000 0.1000000 -0.0500000
v -0.0691350 0.1000000 -0.0461950
v -0.0500000 0.1000000 -0.0500000
v 0.0691350 0.1000000 0.0461950
v 0.0500000 0.1000000 0.0500000
v 0.1000000 0.1000000 0.0500000
v 0.0853550 0.1000000 0.0353550
v 0.0691350 0.1000000 0.0461950
v 0.1000000 0.1000000 0.0500000
v 0.0961950 0.1000000 0.0191350
v 0.0853550 0.1000000 0.0353550
v 0.1000000 0.1000000 0.0500000
v 0.1000000 0.1000000 0.0000000
v 0.0961950 0.1000000 0.0191350
v 0.1000000 0.1000000 0.0500000
v 0.0961950 0.1000000 -0.0191350
v 0.1000000 0.1000000 0.0000000
v 0.1000000 0.1000000 -0.0500000
v 0.0853550 0.1000000 -0.0353550
v 0.0961950 0.1000000 -0.0191350
v 0.1000000 0.1000000 -0.0500000
v 0.0691350 0.1000000 -0.0461950
v 0.0853550 0.1000000 -0.0353550
v 0.1000000 0.1000000 -0.0500000
v 0.0500000 0.1000000 -0.0500000
v 0.0691350 0.1000000 -0.0461950
v 0.1000000 0.1000000 -0.0500000
v -0.0500000 -0.0750000 0.0500000
v -0.0500000 -0.0750000 -0.0500000
v 0.0500000 -0.0750000 -0.0500000
v 0.0500000 -0.0750000 0.0500000
v -0.0500000 -0.0750000 0.0000000
v -0.0500000 -0.0750000 0.0500000
v -0.0691350 -0.0750000 0.0461950
v -0.0500000 -0.0750000 0.0000000
v -0.0691350 -0.0750000 0.0461950
v -0.0853550 -0.0750000 0.0353550
v -0.0500000 -0.0750000 0.0000000
v -0.0853550 -0.0750000 0.0353550
v -0.0961950 -0.0750000 0.0191350
v -0.0500000 -0.0750000 0.0000000
v -0.0961950 -0.0750000 0.0191350
v -0.1000000 -0.0750000 0.0000000
v -0.0500000 -0.0750000 0.0000000
v -0.1000000 -0.0750000 0.0000000
v -0.0961950 -0.0750000 -0.0191350
v -0.0500000 -0.0750000 0.0000000
v -0.0961950 -0.0750000 -0.0191350
v -0.0853550 -0.0750000 -0.0353550
v -0.0500000 -0.0750000 0.0000000
v -0.0853550 -0.0750000 -0.0353550
v -0.0691350 -0.0750000 -0.0461950
v -0.0500000 -0.0750000 0.0000000
v -0.0691350 -0.0750000 -0.0461950
v -0.0500000 -0.0750000 -0.0500000
v 0.0691350 -0.0750000 0.0461950
v 0.0500000 -0.0750000 0.0500000
v 0.0500000 -0.0750000 0.0000000
v 0.0853550 -0.0750000 0.0353550
v 0.0691350 -0.0750000 0.0461950
v 0.0500000 -0.0750000 0.0000000
v 0.0961950 -0.0750000 0.0191350
v 0.0853550 -0.0750000 0.0353550
v 0.0500000 -0.0750000 0.0000000
v 0.1000000 -0.0750000 0.0000000
v 0.0961950 -0.0750000 0.0191350
v 0.0500000 -0.0750000 0.0000000
v 0.0961950 -0.0750000 -0.0191350
v 0.1000000 -0.0750000 0.0000000
v 0.0500000 -0.0750000 0.0000000
v 0.0853550 -0.0750000 -0.0353550
v 0.0961950 -0.0750000 -0.0191350
v 0.0500000 -0.0750000 0.0000000
v 0.0691350 -0.0750000 -0.0461950
v 0.0853550 -0.0750000 -0.0353550
v 0.0500000 -0.0750000 0.0000000
v 0.0500000 -0.0750000 -0.0500000
v 0.0691350 -0.0750000 -0.0461950
v 0.0500000 -0.0750000 0.0000000
v -0.0500000 -0.0750000 -0.0500000
v -0.0500000 0.1000000 -0.0500000
v 0.0500000 0.1000000 -0.0500000
v 0.0500000 -0.0750000 -0.0500000
v -0.0691350 0.1000000 0.0461950
v -0.0691350 -0.0750000 0.0461950
v -0.0500000 -0.0750000 0.0500000
v -0.0500000 0.1000000 0.0500000
v -0.0853550 0.1000000 0.0353550
v -0.0853550 -0.0750000 0.0353550
v -0.0691350 -0.0750000 0.0461950
v -0.0691350 0.1000000 0.0461950
v -0.0961950 0.1000000 0.0191350
v -0.0961950 -0.0750000 0.0191350
v -0.0853550 -0.0750000 0.0353550
v -0.0853550 0.1000000 0.0353550
v -0.1000000 0.1000000 0.0000000
v -0.1000000 -0.0750000 0.0000000
v -0.0961950 -0.0750000 0.0191350
v -0.0961950 0.1000000 0.0191350
v -0.0961950 0.1000000 -0.0191350
v -0.0961950 -0.0750000 -0.0191350
v -0.1000000 -0.0750000 0.0000000
v -0.1000000 0.1000000 0.0000000
v -0.0853550 0.1000000 -0.0353550
v -0.0853550 -0.0750000 -0.0353550
v -0.0961950 -0.0750000 -0.0191350
v -0.0961950 0.1000000 -0.0191350
v -0.0691350 0.1000000 -0.0461950
v -0.0691350 -0.0750000 -0.0461950
v -0.0853550 -0.0750000 -0.0353550
v -0.0853550 0.1000000 -0.0353550
v -0.0500000 0.1000000 -0.0500000
v -0.0500000 -0.0750000 -0.0500000
v -0.0691350 -0.0750000 -0.0461950
v -0.0691350 0.1000000 -0.0461950
v 0.0500000 -0.0750000 0.0500000
v 0.0500000 0.1000000 0.0500000
v -0.0500000 0.1000000 0.0500000
v -0.0500000 -0.0750000 0.0500000
v 0.0500000 0.1000000 0.0500000
v 0.0500000 -0.0750000 0.0500000
v 0.0691350 -0.0750000 0.0461950
v 0.0691350 0.1000000 0.0461950
v 0.0691350 0.1000000 0.0461950
v 0.0691350 -0.0750000 0.0461950
v 0.0853550 -0.0750000 0.0353550
v 0.0853550 0.1000000 0.0353550
v 0.0853550 0.1000000 0.0353550
v 0.0853550 -0.0750000 0.0353550
v 0.0961950 -0.0750000 0.0191350
v 0.0961950 0.1000000 0.0191350
v 0.0961950 0.1000000 0.0191350
v 0.0961950 -0.0750000 0.0191350
v 0.1000000 -0.0750000 0.0000000
v 0.1000000 0.1000000 0.0000000
v 0.1000000 0.1000000 0.0000000
v 0.1000000 -0.0750000 0.0000000
v 0.0961950 -0.0750000 -0.0191350
v 0.0961950 0.1000000 -0.0191350
v 0.0961950 0.1000000 -0.0191350
v 0.0961950 -0.0750000 -0.0191350
v 0.0853550 -0.0750000 -0.0353550
v 0.0853550 0.1000000 -0.0353550
v 0.0853550 0.1000000 -0.0353550
v 0.0853550 -0.0750000 -0.0353550
v 0.0691350 -0.0750000 -0.0461950
v 0.0691350 0.1000000 -0.0461950
v 0.0691350 0.1000000 -0.0461950
v 0.0691350 -0.0750000 -0.0461950
v 0.0500000 -0.0750000 -0.0500000
v 0.0500000 0.1000000 -0.0500000
v -0.3750000 0.1000000 -0.1250000
v 0.3750000 0.1000000 -0.1250000
v 0.3750000 0.1000000 0.1250000
v -0.3750000 0.1000000 0.1250000
v -0.3750000 0.1000000 -0.1250000
v -0.3750000 0.1437500 -0.1354500
v 0.3750000 0.1437500 -0.1354500
v 0.3750000 0.1000000 -0.1250000
v -0.3750000 0.1437500 -0.1354500
v -0.3174500 0.1610000 -0.1420500
v 0.3175000 0.1610000 -0.1420500
v 0.3750000 0.1437500 -0.1354500
v -0.2690750 0.1837500 -0.1532750
v 0.2690000 0.1837500 -0.1532750
v 0.3175000 0.1610000 -0.1420500
v -0.3174500 0.1610000 -0.1420500
v 0.2295000 0.2095000 -0.1697000
v 0.2690000 0.1837500 -0.1532750
v -0.2690750 0.1837500 -0.1532750
v -0.2294000 0.2095000 -0.1697000
v 0.1977500 0.2360000 -0.1918750
v 0.2295000 0.2095000 -0.1697000
v -0.2294000 0.2095000 -0.1697000
v -0.1976750 0.2360000 -0.1918750
v 0.1977500 0.2360000 -0.1918750
v -0.1976750 0.2360000 -0.1918750
v -0.1553500 0.2825000 -0.2532500
v 0.1552500 0.2825000 -0.2532500
v -0.1553500 0.2825000 -0.2532500
v -0.1223500 0.3337500 -0.3485000
v 0.1222500 0.3337500 -0.3485000
v 0.1552500 0.2825000 -0.2532500
v -0.0974250 0.3917500 -0.4557500
v 0.0975000 0.3917500 -0.4557500
v 0.1222500 0.3337500 -0.3485000
v -0.1223500 0.3337500 -0.3485000
v 0.0822500 0.4542500 -0.5720000
v -0.0823750 0.4542500 -0.5720000
v -0.0765250 0.4602500 -0.5827500
v 0.0765000 0.4602500 -0.5827500
v 0.0640000 0.4625000 -0.5872500
v 0.0765000 0.4602500 -0.5827500
v -0.0765250 0.4602500 -0.5827500
v -0.0639750 0.4625000 -0.5872500
v 0.0975000 0.3917500 -0.4557500
v -0.0974250 0.3917500 -0.4557500
v 0.0000000 0.3973500 -0.4660750
v 0.0191250 0.3991500 -0.4694250
v 0.0975000 0.3917500 -0.4557500
v 0.0000000 0.3973500 -0.4660750
v 0.0353500 0.4042750 -0.4789750
v 0.0975000 0.3917500 -0.4557500
v 0.0191250 0.3991500 -0.4694250
v 0.0462000 0.4119500 -0.4932750
v 0.0975000 0.3917500 -0.4557500
v 0.0353500 0.4042750 -0.4789750
v 0.0500000 0.4210250 -0.5101250
v 0.0975000 0.3917500 -0.4557500
v 0.0462000 0.4119500 -0.4932750
v 0.0822500 0.4542500 -0.5720000
v 0.0975000 0.3917500 -0.4557500
v 0.0500000 0.4210250 -0.5101250
v 0.0462000 0.4300750 -0.5269750
v 0.0822500 0.4542500 -0.5720000
v 0.0500000 0.4210250 -0.5101250
v 0.0353500 0.4377500 -0.5412750
v 0.0822500 0.4542500 -0.5720000
v 0.0462000 0.4300750 -0.5269750
v 0.0191250 0.4429000 -0.5508250
v 0.0822500 0.4542500 -0.5720000
v 0.0353500 0.4377500 -0.5412750
v 0.0000000 0.4447000 -0.5541750
v 0.0822500 0.4542500 -0.5720000
v 0.0191250 0.4429000 -0.5508250
v -0.0823750 0.4542500 -0.5720000
v 0.0822500 0.4542500 -0.5720000
v 0.0000000 0.4447000 -0.5541750
v -0.0191250 0.4429000 -0.5508250
v -0.0823750 0.4542500 -0.5720000
v 0.0000000 0.4447000 -0.5541750
v -0.0353500 0.4377500 -0.5412750
v -0.0823750 0.4542500 -0.5720000
v -0.0191250 0.4429000 -0.5508250
v -0.0462000 0.4300750 -0.5269750
v -0.0823750 0.4542500 -0.5720000
v -0.0353500 0.4377500 -0.5412750
v -0.0500000 0.4210250 -0.5101250
v -0.0823750 0.4542500 -0.5720000
v -0.0462000 0.4300750 -0.5269750
v -0.0974250 0.3917500 -0.4557500
v -0.0823750 0.4542500 -0.5720000
v -0.0500000 0.4210250 -0.5101250
v -0.0462000 0.4119500 -0.4932750
v -0.0974250 0.3917500 -0.4557500
v -0.0500000 0.4210250 -0.5101250
v -0.0353500 0.4042750 -0.4789750
v -0.0974250 0.3917500 -0.4557500
v -0.0462000 0.4119500 -0.4932750
v -0.0191250 0.3991500 -0.4694250
v -0.0974250 0.3917500 -0.4557500
v -0.0353500 0.4042750 -0.4789750
v 0.0000000 0.3973500 -0.4660750
v -0.0974250 0.3917500 -0.4557500
v -0.0191250 0.3991500 -0.4694250
v -0.3750000 0.1000000 0.1250000
v -0.3750000 0.1290000 0.1189000
v -0.3750000 0.1397500 0.1121500
v -0.3750000 0.1437500 0.1005000
v -0.3750000 0.1000000 0.1250000
v -0.3750000 0.1437500 0.1005000
v -0.3750000 0.1437500 -0.1354500
v -0.3750000 0.1000000 -0.1250000
v 0.3750000 0.1437500 0.1005000
v 0.3750000 0.1397500 0.1121500
v 0.3750000 0.1290000 0.1189000
v 0.3750000 0.1000000 0.1250000
v 0.3750000 0.1437500 -0.1354500
v 0.3750000 0.1437500 0.1005000
v 0.3750000 0.1000000 0.1250000
v 0.3750000 0.1000000 -0.1250000
v -0.0593750 0.5320000 -0.5120000
v -0.0593750 0.5277500 -0.5017500
v 0.0592500 0.5277500 -0.5017500
v 0.0592500 0.5320000 -0.5120000
v 0.0617500 0.4835000 -0.3975000
v 0.0592500 0.5277500 -0.5017500
v -0.0593750 0.5277500 -0.5017500
v -0.0618750 0.4835000 -0.3975000
v -0.0618750 0.4835000 -0.3975000
v -0.0690500 0.4410000 -0.2975000
v 0.0690000 0.4410000 -0.2975000
v 0.0617500 0.4835000 -0.3975000
v 0.0690000 0.4410000 -0.2975000
v -0.0690500 0.4410000 -0.2975000
v -0.0803000 0.4012500 -0.2031750
v 0.0802500 0.4012500 -0.2031750
v -0.0854000 0.3885000 -0.1731500
v 0.0855000 0.3885000 -0.1731500
v 0.0802500 0.4012500 -0.2031750
v -0.0803000 0.4012500 -0.2031750
v -0.0875000 0.3832500 -0.1609250
v -0.0964500 0.3610000 -0.1083750
v -0.0875000 0.3610000 -0.1083750
v -0.0964500 0.3610000 -0.1083750
v -0.1201250 0.3162500 -0.0146250
v -0.0875000 0.3162500 -0.0146250
v -0.0875000 0.3610000 -0.1083750
v -0.1201250 0.3162500 -0.0146250
v -0.1541250 0.2672500 0.0439250
v -0.0875000 0.2672500 0.0439250
v -0.0875000 0.3162500 -0.0146250
v -0.1541250 0.2672500 0.0439250
v -0.1873250 0.2307500 0.0732500
v -0.0875000 0.2307500 0.0732500
v -0.0875000 0.2672500 0.0439250
v -0.1873250 0.2307500 0.0732500
v -0.2298500 0.1947500 0.0945500
v -0.0875000 0.1947500 0.0945500
v -0.0875000 0.2307500 0.0732500
v -0.2298500 0.1947500 0.0945500
v -0.2743250 0.1665000 0.1070250
v -0.0875000 0.1665000 0.1070250
v -0.0875000 0.1947500 0.0945500
v 0.0875000 0.3832500 -0.1609250
v 0.0875000 0.3610000 -0.1083750
v 0.0965000 0.3610000 -0.1083750
v 0.0965000 0.3610000 -0.1083750
v 0.0875000 0.3610000 -0.1083750
v 0.0875000 0.3162500 -0.0146250
v 0.1202500 0.3162500 -0.0146250
v 0.0875000 0.3162500 -0.0146250
v 0.0875000 0.2672500 0.0439250
v 0.1540000 0.2672500 0.0439250
v 0.1202500 0.3162500 -0.0146250
v 0.0875000 0.2672500 0.0439250
v 0.0875000 0.2307500 0.0732500
v 0.1872500 0.2307500 0.0732500
v 0.1540000 0.2672500 0.0439250
v 0.0875000 0.2307500 0.0732500
v 0.0875000 0.1947500 0.0945500
v 0.2297500 0.1947500 0.0945500
v 0.1872500 0.2307500 0.0732500
v 0.2297500 0.1947500 0.0945500
v 0.0875000 0.1947500 0.0945500
v 0.0875000 0.1665000 0.1070250
v 0.2742500 0.1665000 0.1070250
v 0.0875000 0.1665000 0.1070250
v 0.3257500 0.1432500 0.1150250
v 0.2742500 0.1665000 0.1070250
v -0.3257250 0.1432500 0.1150250
v -0.0875000 0.1665000 0.1070250
v -0.2743250 0.1665000 0.1070250
v -0.3257250 0.1432500 0.1150250
v 0.3257500 0.1432500 0.1150250
v 0.0875000 0.1665000 0.1070250
v -0.0875000 0.1665000 0.1070250
v -0.3750000 0.1290000 0.1189000
v 0.3750000 0.1290000 0.1189000
v 0.3257500 0.1432500 0.1150250
v -0.3257250 0.1432500 0.1150250
v -0.3750000 0.1290000 0.1189000
v -0.3750000 0.1000000 0.1250000
v 0.3750000 0.1000000 0.1250000
v 0.3750000 0.1290000 0.1189000
v -0.0639750 0.4625000 -0.5872500
v -0.0593750 0.5225000 -0.5372500
v 0.0592500 0.5225000 -0.5372500
v 0.0640000 0.4625000 -0.5872500
v 0.0592500 0.5225000 -0.5372500
v 0.0722500 0.5190000 -0.5330000
v 0.0640000 0.4625000 -0.5872500
v 0.0722500 0.5190000 -0.5330000
v 0.0765000 0.4602500 -0.5827500
v 0.0640000 0.4625000 -0.5872500
v 0.0722500 0.5190000 -0.5330000
v 0.0822500 0.4542500 -0.5720000
v 0.0765000 0.4602500 -0.5827500
v 0.0722500 0.5190000 -0.5330000
v 0.0782500 0.5105000 -0.5227500
v 0.0822500 0.4542500 -0.5720000
v -0.0593750 0.5225000 -0.5372500
v -0.0639750 0.4625000 -0.5872500
v -0.0765250 0.4602500 -0.5827500
v -0.0722750 0.5190000 -0.5330000
v -0.0593750 0.5225000 -0.5372500
v -0.0765250 0.4602500 -0.5827500
v -0.0823750 0.4542500 -0.5720000
v -0.0722750 0.5190000 -0.5330000
v -0.0765250 0.4602500 -0.5827500
v 0.0782500 0.5105000 -0.5227500
v 0.0782500 0.5105000 -0.5090000
v 0.0822500 0.4542500 -0.5720000
v 0.0822500 0.4542500 -0.5720000
v 0.0782500 0.5105000 -0.5090000
v 0.0975000 0.3917500 -0.4557500
v 0.0805000 0.4692500 -0.4070000
v 0.0975000 0.3917500 -0.4557500
v 0.0782500 0.5105000 -0.5090000
v 0.0805000 0.4692500 -0.4070000
v 0.1222500 0.3337500 -0.3485000
v 0.0975000 0.3917500 -0.4557500
v 0.1222500 0.3337500 -0.3485000
v 0.0805000 0.4692500 -0.4070000
v 0.0870000 0.4292500 -0.3080000
v 0.1222500 0.3337500 -0.3485000
v 0.0870000 0.4292500 -0.3080000
v 0.1552500 0.2825000 -0.2532500
v 0.1552500 0.2825000 -0.2532500
v 0.0870000 0.4292500 -0.3080000
v 0.0980000 0.3905000 -0.2119250
v 0.1552500 0.2825000 -0.2532500
v 0.0980000 0.3905000 -0.2119250
v 0.1130000 0.3522500 -0.1174000
v 0.1130000 0.3522500 -0.1174000
v 0.1977500 0.2360000 -0.1918750
v 0.1552500 0.2825000 -0.2532500
v 0.1130000 0.3522500 -0.1174000
v 0.1360000 0.3102500 -0.0247000
v 0.1977500 0.2360000 -0.1918750
v 0.1360000 0.3102500 -0.0247000
v 0.1680000 0.2667500 0.0298750
v 0.1977500 0.2360000 -0.1918750
v 0.1977500 0.2360000 -0.1918750
v 0.1680000 0.2667500 0.0298750
v 0.1990000 0.2347500 0.0572250
v 0.2295000 0.2095000 -0.1697000
v 0.1977500 0.2360000 -0.1918750
v 0.1990000 0.2347500 0.0572250
v 0.2295000 0.2095000 -0.1697000
v 0.1990000 0.2347500 0.0572250
v 0.2387500 0.2027500 0.0771750
v 0.2690000 0.1837500 -0.1532750
v 0.2295000 0.2095000 -0.1697000
v 0.2387500 0.2027500 0.0771750
v 0.2690000 0.1837500 -0.1532750
v 0.2387500 0.2027500 0.0771750
v 0.2802500 0.1780000 0.0889750
v 0.3175000 0.1610000 -0.1420500
v 0.2690000 0.1837500 -0.1532750
v 0.2802500 0.1780000 0.0889750
v 0.3175000 0.1610000 -0.1420500
v 0.2802500 0.1780000 0.0889750
v 0.3282500 0.1570000 0.0966500
v 0.3750000 0.1437500 -0.1354500
v 0.3175000 0.1610000 -0.1420500
v 0.3282500 0.1570000 0.0966500
v 0.3750000 0.1437500 0.1005000
v -0.0781250 0.5105000 -0.5227500
v -0.0722750 0.5190000 -0.5330000
v -0.0823750 0.4542500 -0.5720000
v -0.0805000 0.4692500 -0.4070000
v -0.0781250 0.5105000 -0.5090000
v -0.0781250 0.5105000 -0.5227500
v -0.0823750 0.4542500 -0.5720000
v -0.0805000 0.4692500 -0.4070000
v -0.0823750 0.4542500 -0.5720000
v -0.0974250 0.3917500 -0.4557500
v -0.0871000 0.4292500 -0.3080000
v -0.0805000 0.4692500 -0.4070000
v -0.0974250 0.3917500 -0.4557500
v -0.0871000 0.4292500 -0.3080000
v -0.0974250 0.3917500 -0.4557500
v -0.1223500 0.3337500 -0.3485000
v -0.0871000 0.4292500 -0.3080000
v -0.1223500 0.3337500 -0.3485000
v -0.0979000 0.3905000 -0.2119250
v -0.0979000 0.3905000 -0.2119250
v -0.1223500 0.3337500 -0.3485000
v -0.1553500 0.2825000 -0.2532500
v -0.1131250 0.3522500 -0.1174000
v -0.0979000 0.3905000 -0.2119250
v -0.1553500 0.2825000 -0.2532500
v -0.1131250 0.3522500 -0.1174000
v -0.1553500 0.2825000 -0.2532500
v -0.1360250 0.3102500 -0.0247000
v -0.1360250 0.3102500 -0.0247000
v -0.1553500 0.2825000 -0.2532500
v -0.1680750 0.2667500 0.0298750
v -0.1553500 0.2825000 -0.2532500
v -0.1976750 0.2360000 -0.1918750
v -0.1680750 0.2667500 0.0298750
v -0.1680750 0.2667500 0.0298750
v -0.1976750 0.2360000 -0.1918750
v -0.1991000 0.2347500 0.0572250
v -0.1976750 0.2360000 -0.1918750
v -0.2294000 0.2095000 -0.1697000
v -0.1991000 0.2347500 0.0572250
v -0.1991000 0.2347500 0.0572250
v -0.2294000 0.2095000 -0.1697000
v -0.2387250 0.2027500 0.0771750
v -0.2294000 0.2095000 -0.1697000
v -0.2690750 0.1837500 -0.1532750
v -0.2387250 0.2027500 0.0771750
v -0.2387250 0.2027500 0.0771750
v -0.2690750 0.1837500 -0.1532750
v -0.2801500 0.1780000 0.0889750
v -0.2690750 0.1837500 -0.1532750
v -0.3174500 0.1610000 -0.1420500
v -0.2801500 0.1780000 0.0889750
v -0.2801500 0.1780000 0.0889750
v -0.3174500 0.1610000 -0.1420500
v -0.3282000 0.1570000 0.0966500
v -0.3750000 0.1437500 -0.1354500
v -0.3750000 0.1437500 0.1005000
v -0.3282000 0.1570000 0.0966500
v -0.3174500 0.1610000 -0.1420500
v -0.1200500 0.5312500 -0.0903000
v -0.1065500 0.5312500 -0.0752000
v -0.1039500 0.6625000 -0.0953750
v -0.1065500 0.5312500 -0.0752000
v -0.0956750 0.6625000 -0.0867500
v -0.1039500 0.6625000 -0.0953750
v -0.1200500 0.5312500 -0.0903000
v -0.1039500 0.6625000 -0.0953750
v -0.1093500 0.6625000 -0.1071750
v -0.1250000 0.5312500 -0.1071750
v -0.1200500 0.5312500 -0.0903000
v -0.1093500 0.6625000 -0.1071750
v 0.0000000 0.5312500 0.0178250
v 0.0000000 0.6625000 0.0021750
v -0.0118000 0.6625000 -0.0032250
v -0.0168750 0.5312500 0.0128750
v -0.0118000 0.6625000 -0.0032250
v -0.0304500 0.6625000 -0.0180500
v -0.0168750 0.5312500 0.0128750
v 0.0000000 0.5312500 0.0178250
v -0.0118000 0.6625000 -0.0032250
v -0.0168750 0.5312500 0.0128750
v -0.0304500 0.6625000 -0.0180500
v -0.0319750 0.5312500 -0.0006250
v -0.0319750 0.5312500 -0.0006250
v -0.0304500 0.6625000 -0.0180500
v -0.0532000 0.6625000 -0.0250750
v -0.0527500 0.5312500 -0.0092250
v -0.0319750 0.5312500 -0.0006250
v -0.0532000 0.6625000 -0.0250750
v -0.0729500 0.5312500 -0.0103500
v -0.0527500 0.5312500 -0.0092250
v -0.0651750 0.6625000 -0.0253250
v -0.0651750 0.6625000 -0.0253250
v -0.0527500 0.5312500 -0.0092250
v -0.0532000 0.6625000 -0.0250750
v -0.0729500 0.5312500 -0.0103500
v -0.0651750 0.6625000 -0.0253250
v -0.0773250 0.6625000 -0.0298500
v -0.0883750 0.5312500 -0.0188000
v -0.0729500 0.5312500 -0.0103500
v -0.0773250 0.6625000 -0.0298500
v -0.0883750 0.5312500 -0.0188000
v -0.0773250 0.6625000 -0.0298500
v -0.0818000 0.6625000 -0.0420000
v -0.0883750 0.5312500 -0.0188000
v -0.0818000 0.6625000 -0.0420000
v -0.0968250 0.5312500 -0.0342250
v -0.0968250 0.5312500 -0.0342250
v -0.0818000 0.6625000 -0.0420000
v -0.0845500 0.6625000 -0.0656750
v -0.0968250 0.5312500 -0.0342250
v -0.0845500 0.6625000 -0.0656750
v -0.0979500 0.5312500 -0.0544250
v -0.0979500 0.5312500 -0.0544250
v -0.0845500 0.6625000 -0.0656750
v -0.0956750 0.6625000 -0.0867500
v -0.1065500 0.5312500 -0.0752000
v -0.0979500 0.5312500 -0.0544250
v -0.0956750 0.6625000 -0.0867500
v -0.0168750 0.5312500 -0.2272250
v -0.0319750 0.5312500 -0.2137500
v -0.0118000 0.6625000 -0.2111250
v -0.0319750 0.5312500 -0.2137500
v -0.0204250 0.6625000 -0.2028500
v -0.0118000 0.6625000 -0.2111250
v -0.0168750 0.5312500 -0.2272250
v -0.0118000 0.6625000 -0.2111250
v 0.0000000 0.6625000 -0.2165250
v 0.0000000 0.5312500 -0.2321750
v -0.0168750 0.5312500 -0.2272250
v 0.0000000 0.6625000 -0.2165250
v -0.1250000 0.5312500 -0.1071750
v -0.1093500 0.6625000 -0.1071750
v -0.1039500 0.6625000 -0.1189750
v -0.1200500 0.5312500 -0.1240500
v -0.1039500 0.6625000 -0.1189750
v -0.0891250 0.6625000 -0.1376250
v -0.1200500 0.5312500 -0.1240500
v -0.1250000 0.5312500 -0.1071750
v -0.1039500 0.6625000 -0.1189750
v -0.1200500 0.5312500 -0.1240500
v -0.0891250 0.6625000 -0.1376250
v -0.1065500 0.5312500 -0.1391500
v -0.1065500 0.5312500 -0.1391500
v -0.0891250 0.6625000 -0.1376250
v -0.0821000 0.6625000 -0.1603750
v -0.0979500 0.5312500 -0.1599250
v -0.1065500 0.5312500 -0.1391500
v -0.0821000 0.6625000 -0.1603750
v -0.0968250 0.5312500 -0.1801500
v -0.0979500 0.5312500 -0.1599250
v -0.0818500 0.6625000 -0.1723500
v -0.0818500 0.6625000 -0.1723500
v -0.0979500 0.5312500 -0.1599250
v -0.0821000 0.6625000 -0.1603750
v -0.0968250 0.5312500 -0.1801500
v -0.0818500 0.6625000 -0.1723500
v -0.0773250 0.6625000 -0.1845000
v -0.0883750 0.5312500 -0.1955750
v -0.0968250 0.5312500 -0.1801500
v -0.0773250 0.6625000 -0.1845000
v -0.0883750 0.5312500 -0.1955750
v -0.0773250 0.6625000 -0.1845000
v -0.0651750 0.6625000 -0.1889750
v -0.0883750 0.5312500 -0.1955750
v -0.0651750 0.6625000 -0.1889750
v -0.0729500 0.5312500 -0.2040000
v -0.0729500 0.5312500 -0.2040000
v -0.0651750 0.6625000 -0.1889750
v -0.0415000 0.6625000 -0.1917250
v -0.0729500 0.5312500 -0.2040000
v -0.0415000 0.6625000 -0.1917250
v -0.0527500 0.5312500 -0.2051250
v -0.0527500 0.5312500 -0.2051250
v -0.0415000 0.6625000 -0.1917250
v -0.0204250 0.6625000 -0.2028500
v -0.0319750 0.5312500 -0.2137500
v -0.0527500 0.5312500 -0.2051250
v -0.0204250 0.6625000 -0.2028500
v 0.1200000 0.5312500 -0.1240500
v 0.1065000 0.5312500 -0.1391500
v 0.1040000 0.6625000 -0.1189750
v 0.1065000 0.5312500 -0.1391500
v 0.0957500 0.6625000 -0.1276000
v 0.1040000 0.6625000 -0.1189750
v 0.1200000 0.5312500 -0.1240500
v 0.1040000 0.6625000 -0.1189750
v 0.1092500 0.6625000 -0.1071750
v 0.1250000 0.5312500 -0.1071750
v 0.1200000 0.5312500 -0.1240500
v 0.1092500 0.6625000 -0.1071750
v 0.0000000 0.5312500 -0.2321750
v 0.0000000 0.6625000 -0.2165250
v 0.0117500 0.6625000 -0.2111250
v 0.0167500 0.5312500 -0.2272250
v 0.0117500 0.6625000 -0.2111250
v 0.0305000 0.6625000 -0.1963250
v 0.0167500 0.5312500 -0.2272250
v 0.0000000 0.5312500 -0.2321750
v 0.0117500 0.6625000 -0.2111250
v 0.0167500 0.5312500 -0.2272250
v 0.0305000 0.6625000 -0.1963250
v 0.0320000 0.5312500 -0.2137500
v 0.0320000 0.5312500 -0.2137500
v 0.0305000 0.6625000 -0.1963250
v 0.0532500 0.6625000 -0.1892750
v 0.0527500 0.5312500 -0.2051250
v 0.0320000 0.5312500 -0.2137500
v 0.0532500 0.6625000 -0.1892750
v 0.0730000 0.5312500 -0.2040000
v 0.0527500 0.5312500 -0.2051250
v 0.0652500 0.6625000 -0.1890250
v 0.0652500 0.6625000 -0.1890250
v 0.0527500 0.5312500 -0.2051250
v 0.0532500 0.6625000 -0.1892750
v 0.0730000 0.5312500 -0.2040000
v 0.0652500 0.6625000 -0.1890250
v 0.0772500 0.6625000 -0.1845000
v 0.0885000 0.5312500 -0.1955750
v 0.0730000 0.5312500 -0.2040000
v 0.0772500 0.6625000 -0.1845000
v 0.0885000 0.5312500 -0.1955750
v 0.0772500 0.6625000 -0.1845000
v 0.0817500 0.6625000 -0.1723500
v 0.0885000 0.5312500 -0.1955750
v 0.0817500 0.6625000 -0.1723500
v 0.0967500 0.5312500 -0.1801500
v 0.0967500 0.5312500 -0.1801500
v 0.0817500 0.6625000 -0.1723500
v 0.0845000 0.6625000 -0.1486750
v 0.0967500 0.5312500 -0.1801500
v 0.0845000 0.6625000 -0.1486750
v 0.0980000 0.5312500 -0.1599250
v 0.0980000 0.5312500 -0.1599250
v 0.0845000 0.6625000 -0.1486750
v 0.0957500 0.6625000 -0.1276000
v 0.1065000 0.5312500 -0.1391500
v 0.0980000 0.5312500 -0.1599250
v 0.0957500 0.6625000 -0.1276000
v 0.0167500 0.5312500 0.0128750
v 0.0320000 0.5312500 -0.0006250
v 0.0117500 0.6625000 -0.0032250
v 0.0320000 0.5312500 -0.0006250
v 0.0205000 0.6625000 -0.0115000
v 0.0117500 0.6625000 -0.0032250
v 0.0167500 0.5312500 0.0128750
v 0.0117500 0.6625000 -0.0032250
v 0.0000000 0.6625000 0.0021750
v 0.0000000 0.5312500 0.0178250
v 0.0167500 0.5312500 0.0128750
v 0.0000000 0.6625000 0.0021750
v 0.1250000 0.5312500 -0.1071750
v 0.1092500 0.6625000 -0.1071750
v 0.1040000 0.6625000 -0.0953750
v 0.1200000 0.5312500 -0.0903000
v 0.1040000 0.6625000 -0.0953750
v 0.0892500 0.6625000 -0.0767250
v 0.1200000 0.5312500 -0.0903000
v 0.1250000 0.5312500 -0.1071750
v 0.1040000 0.6625000 -0.0953750
v 0.1200000 0.5312500 -0.0903000
v 0.0892500 0.6625000 -0.0767250
v 0.1065000 0.5312500 -0.0752000
v 0.1065000 0.5312500 -0.0752000
v 0.0892500 0.6625000 -0.0767250
v 0.0820000 0.6625000 -0.0539750
v 0.0980000 0.5312500 -0.0544250
v 0.1065000 0.5312500 -0.0752000
v 0.0820000 0.6625000 -0.0539750
v 0.0967500 0.5312500 -0.0342250
v 0.0980000 0.5312500 -0.0544250
v 0.0817500 0.6625000 -0.0420000
v 0.0817500 0.6625000 -0.0420000
v 0.0980000 0.5312500 -0.0544250
v 0.0820000 0.6625000 -0.0539750
v 0.0967500 0.5312500 -0.0342250
v 0.0817500 0.6625000 -0.0420000
v 0.0772500 0.6625000 -0.0298500
v 0.0885000 0.5312500 -0.0188000
v 0.0967500 0.5312500 -0.0342250
v 0.0772500 0.6625000 -0.0298500
v 0.0885000 0.5312500 -0.0188000
v 0.0772500 0.6625000 -0.0298500
v 0.0652500 0.6625000 -0.0253750
v 0.0885000 0.5312500 -0.0188000
v 0.0652500 0.6625000 -0.0253750
v 0.0730000 0.5312500 -0.0103500
v 0.0730000 0.5312500 -0.0103500
v 0.0652500 0.6625000 -0.0253750
v 0.0415000 0.6625000 -0.0226250
v 0.0730000 0.5312500 -0.0103500
v 0.0415000 0.6625000 -0.0226250
v 0.0527500 0.5312500 -0.0092250
v 0.0527500 0.5312500 -0.0092250
v 0.0415000 0.6625000 -0.0226250
v 0.0205000 0.6625000 -0.0115000
v 0.0320000 0.5312500 -0.0006250
v 0.0527500 0.5312500 -0.0092250
v 0.0205000 0.6625000 -0.0115000
v 0.0000000 0.6625000 -0.1696750
v 0.0000000 0.6625000 -0.2165250
v -0.0118000 0.6625000 -0.2111250
v -0.0204250 0.6625000 -0.2028500
v -0.0239250 0.6625000 -0.1649250
v 0.0000000 0.6625000 -0.1696750
v -0.0204250 0.6625000 -0.2028500
v -0.0415000 0.6625000 -0.1917250
v -0.0239250 0.6625000 -0.1649250
v -0.0415000 0.6625000 -0.1917250
v -0.0651750 0.6625000 -0.1889750
v -0.0442000 0.6625000 -0.1513750
v -0.0442000 0.6625000 -0.1513750
v -0.0651750 0.6625000 -0.1889750
v -0.0773250 0.6625000 -0.1845000
v -0.0818500 0.6625000 -0.1723500
v -0.0442000 0.6625000 -0.1513750
v -0.0818500 0.6625000 -0.1723500
v -0.0821000 0.6625000 -0.1603750
v -0.0577500 0.6625000 -0.1311000
v -0.0891250 0.6625000 -0.1376250
v -0.0577500 0.6625000 -0.1311000
v -0.0821000 0.6625000 -0.1603750
v -0.1039500 0.6625000 -0.1189750
v -0.0625000 0.6625000 -0.1071750
v -0.0577500 0.6625000 -0.1311000
v -0.0891250 0.6625000 -0.1376250
v -0.0625000 0.6625000 -0.1071750
v -0.1039500 0.6625000 -0.1189750
v -0.1093500 0.6625000 -0.1071750
v -0.1039500 0.6625000 -0.0953750
v -0.0625000 0.6625000 -0.1071750
v -0.1039500 0.6625000 -0.0953750
v -0.0956750 0.6625000 -0.0867500
v -0.0577500 0.6625000 -0.0832500
v -0.0845500 0.6625000 -0.0656750
v -0.0577500 0.6625000 -0.0832500
v -0.0956750 0.6625000 -0.0867500
v -0.0818000 0.6625000 -0.0420000
v -0.0442000 0.6625000 -0.0629750
v -0.0577500 0.6625000 -0.0832500
v -0.0845500 0.6625000 -0.0656750
v -0.0442000 0.6625000 -0.0629750
v -0.0818000 0.6625000 -0.0420000
v -0.0773250 0.6625000 -0.0298500
v -0.0651750 0.6625000 -0.0253250
v -0.0532000 0.6625000 -0.0250750
v -0.0239250 0.6625000 -0.0494250
v -0.0442000 0.6625000 -0.0629750
v -0.0651750 0.6625000 -0.0253250
v -0.0239250 0.6625000 -0.0494250
v -0.0532000 0.6625000 -0.0250750
v -0.0304500 0.6625000 -0.0180500
v 0.0000000 0.6625000 -0.0446750
v -0.0118000 0.6625000 -0.0032250
v 0.0000000 0.6625000 0.0021750
v 0.0000000 0.6625000 -0.0446750
v -0.0304500 0.6625000 -0.0180500
v 0.0000000 0.6625000 -0.0446750
v 0.0000000 0.6625000 0.0021750
v 0.0117500 0.6625000 -0.0032250
v 0.0205000 0.6625000 -0.0115000
v 0.0239250 0.6625000 -0.0494250
v 0.0000000 0.6625000 -0.0446750
v 0.0205000 0.6625000 -0.0115000
v 0.0415000 0.6625000 -0.0226250
v 0.0652500 0.6625000 -0.0253750
v 0.0442000 0.6625000 -0.0629750
v 0.0239250 0.6625000 -0.0494250
v 0.0415000 0.6625000 -0.0226250
v 0.0772500 0.6625000 -0.0298500
v 0.0817500 0.6625000 -0.0420000
v 0.0442000 0.6625000 -0.0629750
v 0.0652500 0.6625000 -0.0253750
v 0.0442000 0.6625000 -0.0629750
v 0.0817500 0.6625000 -0.0420000
v 0.0820000 0.6625000 -0.0539750
v 0.0577500 0.6625000 -0.0832500
v 0.0892500 0.6625000 -0.0767250
v 0.0625000 0.6625000 -0.1071750
v 0.0577500 0.6625000 -0.0832500
v 0.0820000 0.6625000 -0.0539750
v 0.0625000 0.6625000 -0.1071750
v 0.0892500 0.6625000 -0.0767250
v 0.1040000 0.6625000 -0.0953750
v 0.1092500 0.6625000 -0.1071750
v 0.1040000 0.6625000 -0.1189750
v 0.0957500 0.6625000 -0.1276000
v 0.0625000 0.6625000 -0.1071750
v 0.1092500 0.6625000 -0.1071750
v 0.0577500 0.6625000 -0.1311000
v 0.0625000 0.6625000 -0.1071750
v 0.0957500 0.6625000 -0.1276000
v 0.0845000 0.6625000 -0.1486750
v 0.0817500 0.6625000 -0.1723500
v 0.0442000 0.6625000 -0.1513750
v 0.0577500 0.6625000 -0.1311000
v 0.0845000 0.6625000 -0.1486750
v 0.0772500 0.6625000 -0.1845000
v 0.0652500 0.6625000 -0.1890250
v 0.0442000 0.6625000 -0.1513750
v 0.0817500 0.6625000 -0.1723500
v 0.0532500 0.6625000 -0.1892750
v 0.0239250 0.6625000 -0.1649250
v 0.0442000 0.6625000 -0.1513750
v 0.0652500 0.6625000 -0.1890250
v 0.0239250 0.6625000 -0.1649250
v 0.0532500 0.6625000 -0.1892750
v 0.0305000 0.6625000 -0.1963250
v 0.0000000 0.6625000 -0.1696750
v 0.0117500 0.6625000 -0.2111250
v 0.0000000 0.6625000 -0.2165250
v 0.0000000 0.6625000 -0.1696750
v 0.0305000 0.6625000 -0.1963250
v -0.0883750 0.5312500 -0.1955750
v -0.0729500 0.5312500 -0.2040000
v -0.0875000 0.5312500 -0.1864750
v -0.0968250 0.5312500 -0.1801500
v -0.0527500 0.5312500 -0.2051250
v -0.0875000 0.5312500 -0.1864750
v -0.0729500 0.5312500 -0.2040000
v 0.0875000 0.5312500 -0.1864750
v 0.0730000 0.5312500 -0.2040000
v 0.0885000 0.5312500 -0.1955750
v 0.0967500 0.5312500 -0.1801500
v 0.0527500 0.5312500 -0.2051250
v 0.0730000 0.5312500 -0.2040000
v 0.0875000 0.5312500 -0.1864750
v 0.0875000 0.5312500 -0.1864750
v -0.0875000 0.5312500 -0.1864750
v -0.0527500 0.5312500 -0.2051250
v 0.0527500 0.5312500 -0.2051250
v -0.0319750 0.5312500 -0.2137500
v 0.0320000 0.5312500 -0.2137500
v 0.0527500 0.5312500 -0.2051250
v -0.0527500 0.5312500 -0.2051250
v -0.0319750 0.5312500 -0.2137500
v -0.0168750 0.5312500 -0.2272250
v 0.0167500 0.5312500 -0.2272250
v 0.0320000 0.5312500 -0.2137500
v 0.0000000 0.5312500 -0.2321750
v 0.0167500 0.5312500 -0.2272250
v -0.0168750 0.5312500 -0.2272250
v -0.0979500 0.5312500 -0.1599250
v -0.0968250 0.5312500 -0.1801500
v -0.0875000 0.5312500 -0.1864750
v -0.0875000 0.5312500 -0.0278750
v -0.0979500 0.5312500 -0.0544250
v -0.0979500 0.5312500 -0.1599250
v -0.0875000 0.5312500 -0.1864750
v -0.1065500 0.5312500 -0.0752000
v -0.1065500 0.5312500 -0.1391500
v -0.0979500 0.5312500 -0.1599250
v -0.0979500 0.5312500 -0.0544250
v -0.1065500 0.5312500 -0.1391500
v -0.1065500 0.5312500 -0.0752000
v -0.1200500 0.5312500 -0.0903000
v -0.1200500 0.5312500 -0.1240500
v -0.1250000 0.5312500 -0.1071750
v -0.1200500 0.5312500 -0.1240500
v -0.1200500 0.5312500 -0.0903000
v -0.0875000 0.5312500 -0.0278750
v -0.0883750 0.5312500 -0.0188000
v -0.0968250 0.5312500 -0.0342250
v -0.0979500 0.5312500 -0.0544250
v -0.0875000 0.5312500 -0.0278750
v -0.0527500 0.5312500 -0.0092250
v -0.0729500 0.5312500 -0.0103500
v -0.0883750 0.5312500 -0.0188000
v -0.0875000 0.5312500 -0.0278750
v 0.0875000 0.5312500 -0.0278750
v 0.0527500 0.5312500 -0.0092250
v -0.0527500 0.5312500 -0.0092250
v 0.0875000 0.5312500 -0.0278750
v 0.0885000 0.5312500 -0.0188000
v 0.0730000 0.5312500 -0.0103500
v 0.0527500 0.5312500 -0.0092250
v -0.0527500 0.5312500 -0.0092250
v 0.0527500 0.5312500 -0.0092250
v 0.0320000 0.5312500 -0.0006250
v -0.0319750 0.5312500 -0.0006250
v 0.0320000 0.5312500 -0.0006250
v 0.0167500 0.5312500 0.0128750
v -0.0168750 0.5312500 0.0128750
v -0.0319750 0.5312500 -0.0006250
v 0.0000000 0.5312500 0.0178250
v -0.0168750 0.5312500 0.0128750
v 0.0167500 0.5312500 0.0128750
v 0.0875000 0.5312500 -0.0278750
v 0.0980000 0.5312500 -0.0544250
v 0.0967500 0.5312500 -0.0342250
v 0.0885000 0.5312500 -0.0188000
v 0.0875000 0.5312500 -0.1864750
v 0.0980000 0.5312500 -0.1599250
v 0.0980000 0.5312500 -0.0544250
v 0.0875000 0.5312500 -0.0278750
v 0.0967500 0.5312500 -0.1801500
v 0.0980000 0.5312500 -0.1599250
v 0.0875000 0.5312500 -0.1864750
v 0.1065000 0.5312500 -0.1391500
v 0.1065000 0.5312500 -0.0752000
v 0.0980000 0.5312500 -0.0544250
v 0.0980000 0.5312500 -0.1599250
v 0.1065000 0.5312500 -0.0752000
v 0.1065000 0.5312500 -0.1391500
v 0.1200000 0.5312500 -0.1240500
v 0.1200000 0.5312500 -0.0903000
v 0.1250000 0.5312500 -0.1071750
v 0.1200000 0.5312500 -0.0903000
v 0.1200000 0.5312500 -0.1240500
v -0.0875000 0.4492500 -0.1952750
v -0.0854000 0.3885000 -0.1731500
v -0.0875000 0.3877500 -0.1728750
v 0.0855000 0.3885000 -0.1731500
v 0.0875000 0.4492500 -0.1952750
v 0.0875000 0.3877500 -0.1728750
v -0.0854000 0.3885000 -0.1731500
v -0.0875000 0.4492500 -0.1952750
v 0.0875000 0.4492500 -0.1952750
v 0.0855000 0.3885000 -0.1731500
v -0.0875000 0.4492500 -0.1952750
v -0.0875000 0.4742500 -0.2002750
v 0.0875000 0.4742500 -0.2002750
v 0.0875000 0.4492500 -0.1952750
v -0.0875000 0.4742500 -0.2002750
v -0.0875000 0.5077500 -0.1966750
v 0.0875000 0.5077500 -0.1966750
v 0.0875000 0.4742500 -0.2002750
v -0.0875000 0.5077500 -0.1966750
v -0.0875000 0.5312500 -0.1864750
v 0.0875000 0.5312500 -0.1864750
v 0.0875000 0.5077500 -0.1966750
v -0.0875000 0.5312500 -0.0278750
v -0.0875000 0.5225000 -0.0230000
v 0.0875000 0.5225000 -0.0230000
v 0.0875000 0.5312500 -0.0278750
v 0.0875000 0.1665000 0.1070308
v 0.0875000 0.3445000 0.0420193
v -0.0875000 0.3445000 0.0420193
v -0.0875000 0.1665000 0.1070308
v 0.0875000 0.5225000 -0.0230000
v -0.0875000 0.5225000 -0.0230000
v -0.0875000 0.3445000 0.0420250
v 0.0875000 0.3445000 0.0420250
v 0.0875000 0.5225000 -0.0230000
v 0.0875000 0.5077500 -0.1966750
v 0.0875000 0.5312500 -0.1864750
v 0.0875000 0.5312500 -0.0278750
v 0.0875000 0.5225000 -0.0230000
v 0.0875000 0.4492500 -0.1952750
v 0.0875000 0.4742500 -0.2002750
v 0.0875000 0.5077500 -0.1966750
v 0.0875000 0.3877500 -0.1728750
v 0.0875000 0.4492500 -0.1952750
v 0.0875000 0.5225000 -0.0230000
v 0.0875000 0.3832500 -0.1609250
v 0.0875000 0.5225000 -0.0230000
v 0.0875000 0.3610000 -0.1083750
v 0.0875000 0.3832500 -0.1609250
v 0.0875000 0.5225000 -0.0230000
v 0.0875000 0.3162500 -0.0146250
v 0.0875000 0.3610000 -0.1083750
v 0.0875000 0.3162500 -0.0146250
v 0.0875000 0.5225000 -0.0230000
v 0.0875000 0.3445000 0.0420250
v 0.0875000 0.2672500 0.0439250
v 0.0875000 0.2307500 0.0732500
v 0.0875000 0.2672500 0.0439250
v 0.0875000 0.3445000 0.0420250
v 0.0875000 0.1947500 0.0945500
v 0.0875000 0.2307500 0.0732500
v 0.0875000 0.3445000 0.0420250
v 0.0875000 0.1665000 0.1070250
v 0.0875000 0.1947500 0.0945500
v 0.0875000 0.3445000 0.0420250
v -0.0875000 0.5225000 -0.0230000
v -0.0875000 0.5312500 -0.0278750
v -0.0875000 0.5312500 -0.1864750
v -0.0875000 0.5077500 -0.1966750
v -0.0875000 0.5225000 -0.0230000
v -0.0875000 0.5077500 -0.1966750
v -0.0875000 0.4742500 -0.2002750
v -0.0875000 0.4492500 -0.1952750
v -0.0875000 0.3877500 -0.1728750
v -0.0875000 0.3832500 -0.1609250
v -0.0875000 0.5225000 -0.0230000
v -0.0875000 0.4492500 -0.1952750
v -0.0875000 0.5225000 -0.0230000
v -0.0875000 0.3832500 -0.1609250
v -0.0875000 0.3610000 -0.1083750
v -0.0875000 0.5225000 -0.0230000
v -0.0875000 0.3610000 -0.1083750
v -0.0875000 0.3162500 -0.0146250
v -0.0875000 0.3162500 -0.0146250
v -0.0875000 0.2672500 0.0439250
v -0.0875000 0.3445000 0.0420250
v -0.0875000 0.5225000 -0.0230000
v -0.0875000 0.2307500 0.0732500
v -0.0875000 0.3445000 0.0420250
v -0.0875000 0.2672500 0.0439250
v -0.0875000 0.1947500 0.0945500
v -0.0875000 0.3445000 0.0420250
v -0.0875000 0.2307500 0.0732500
v -0.0875000 0.1665000 0.1070250
v -0.0875000 0.3445000 0.0420250
v -0.0875000 0.1947500 0.0945500
v -0.3750000 0.1290000 0.1189000
v -0.3249750 0.1540000 0.1077750
v -0.3750000 0.1397500 0.1121500
v -0.3257250 0.1432500 0.1150250
v -0.3249750 0.1540000 0.1077750
v -0.3750000 0.1290000 0.1189000
v -0.2774750 0.1752500 0.0999000
v -0.3249750 0.1540000 0.1077750
v -0.3257250 0.1432500 0.1150250
v -0.2743250 0.1665000 0.1070250
v -0.2774750 0.1752500 0.0999000
v -0.3257250 0.1432500 0.1150250
v -0.2342250 0.2020000 0.0871500
v -0.2774750 0.1752500 0.0999000
v -0.2743250 0.1665000 0.1070250
v -0.2342250 0.2020000 0.0871500
v -0.2743250 0.1665000 0.1070250
v -0.2298500 0.1947500 0.0945500
v -0.2298500 0.1947500 0.0945500
v -0.1956750 0.2337500 0.0675500
v -0.2342250 0.2020000 0.0871500
v -0.2298500 0.1947500 0.0945500
v -0.1873250 0.2307500 0.0732500
v -0.1956750 0.2337500 0.0675500
v -0.1873250 0.2307500 0.0732500
v -0.1639000 0.2675000 0.0398500
v -0.1956750 0.2337500 0.0675500
v -0.1873250 0.2307500 0.0732500
v -0.1541250 0.2672500 0.0439250
v -0.1639000 0.2675000 0.0398500
v -0.1541250 0.2672500 0.0439250
v -0.1299500 0.3147500 -0.0175250
v -0.1639000 0.2675000 0.0398500
v -0.1541250 0.2672500 0.0439250
v -0.1201250 0.3162500 -0.0146250
v -0.1299500 0.3147500 -0.0175250
v -0.1068250 0.3585000 -0.1103250
v -0.1299500 0.3147500 -0.0175250
v -0.1201250 0.3162500 -0.0146250
v -0.0964500 0.3610000 -0.1083750
v -0.1068250 0.3585000 -0.1103250
v -0.1201250 0.3162500 -0.0146250
v -0.1068250 0.3585000 -0.1103250
v -0.0964500 0.3610000 -0.1083750
v -0.0875000 0.3832500 -0.1609250
v -0.0875000 0.3877500 -0.1728750
v -0.1068250 0.3585000 -0.1103250
v -0.0875000 0.3832500 -0.1609250
v -0.0915750 0.3975000 -0.2040000
v -0.1068250 0.3585000 -0.1103250
v -0.0875000 0.3877500 -0.1728750
v -0.0803000 0.4012500 -0.2031750
v -0.0915750 0.3975000 -0.2040000
v -0.0875000 0.3877500 -0.1728750
v -0.0854000 0.3885000 -0.1731500
v -0.0803000 0.4012500 -0.2031750
v -0.0875000 0.3877500 -0.1728750
v -0.0803000 0.4012500 -0.2031750
v -0.0690500 0.4410000 -0.2975000
v -0.0807000 0.4382500 -0.3015000
v -0.0915750 0.3975000 -0.2040000
v -0.0807000 0.4382500 -0.3015000
v -0.0690500 0.4410000 -0.2975000
v -0.0743250 0.4800000 -0.4017500
v -0.0743250 0.4800000 -0.4017500
v -0.0690500 0.4410000 -0.2975000
v -0.0618750 0.4835000 -0.3975000
v -0.0743250 0.4800000 -0.4017500
v -0.0618750 0.4835000 -0.3975000
v -0.0726500 0.5227500 -0.5040000
v -0.0726500 0.5227500 -0.5040000
v -0.0618750 0.4835000 -0.3975000
v -0.0593750 0.5277500 -0.5017500
v -0.0726500 0.5227500 -0.5040000
v -0.0593750 0.5277500 -0.5017500
v -0.0593750 0.5320000 -0.5120000
v -0.0726250 0.5270000 -0.5140000
v -0.0690500 0.5305000 -0.5230000
v -0.0726250 0.5270000 -0.5140000
v -0.0593750 0.5320000 -0.5120000
v -0.0593750 0.5317500 -0.5262500
v -0.0690500 0.5305000 -0.5230000
v -0.0593750 0.5320000 -0.5120000
v -0.3282000 0.1570000 0.0966500
v -0.3750000 0.1437500 0.1005000
v -0.3750000 0.1397500 0.1121500
v -0.3249750 0.1540000 0.1077750
v -0.3282000 0.1570000 0.0966500
v -0.3249750 0.1540000 0.1077750
v -0.2801500 0.1780000 0.0889750
v -0.2801500 0.1780000 0.0889750
v -0.3249750 0.1540000 0.1077750
v -0.2774750 0.1752500 0.0999000
v -0.2801500 0.1780000 0.0889750
v -0.2774750 0.1752500 0.0999000
v -0.2387250 0.2027500 0.0771750
v -0.2387250 0.2027500 0.0771750
v -0.2774750 0.1752500 0.0999000
v -0.2342250 0.2020000 0.0871500
v -0.2387250 0.2027500 0.0771750
v -0.2342250 0.2020000 0.0871500
v -0.1991000 0.2347500 0.0572250
v -0.1991000 0.2347500 0.0572250
v -0.2342250 0.2020000 0.0871500
v -0.1956750 0.2337500 0.0675500
v -0.1991000 0.2347500 0.0572250
v -0.1956750 0.2337500 0.0675500
v -0.1680750 0.2667500 0.0298750
v -0.1680750 0.2667500 0.0298750
v -0.1956750 0.2337500 0.0675500
v -0.1639000 0.2675000 0.0398500
v -0.1680750 0.2667500 0.0298750
v -0.1639000 0.2675000 0.0398500
v -0.1360250 0.3102500 -0.0247000
v -0.1360250 0.3102500 -0.0247000
v -0.1639000 0.2675000 0.0398500
v -0.1299500 0.3147500 -0.0175250
v -0.1131250 0.3522500 -0.1174000
v -0.1360250 0.3102500 -0.0247000
v -0.1299500 0.3147500 -0.0175250
v -0.1131250 0.3522500 -0.1174000
v -0.1299500 0.3147500 -0.0175250
v -0.1068250 0.3585000 -0.1103250
v -0.1068250 0.3585000 -0.1103250
v -0.0979000 0.3905000 -0.2119250
v -0.1131250 0.3522500 -0.1174000
v -0.0915750 0.3975000 -0.2040000
v -0.0979000 0.3905000 -0.2119250
v -0.1068250 0.3585000 -0.1103250
v -0.0915750 0.3975000 -0.2040000
v -0.0871000 0.4292500 -0.3080000
v -0.0979000 0.3905000 -0.2119250
v -0.0807000 0.4382500 -0.3015000
v -0.0871000 0.4292500 -0.3080000
v -0.0915750 0.3975000 -0.2040000
v -0.0807000 0.4382500 -0.3015000
v -0.0805000 0.4692500 -0.4070000
v -0.0871000 0.4292500 -0.3080000
v -0.0743250 0.4800000 -0.4017500
v -0.0805000 0.4692500 -0.4070000
v -0.0807000 0.4382500 -0.3015000
v -0.0743250 0.4800000 -0.4017500
v -0.0781250 0.5105000 -0.5090000
v -0.0805000 0.4692500 -0.4070000
v -0.0726500 0.5227500 -0.5040000
v -0.0781250 0.5105000 -0.5090000
v -0.0743250 0.4800000 -0.4017500
v -0.0781250 0.5105000 -0.5090000
v -0.0726500 0.5227500 -0.5040000
v -0.0781250 0.5105000 -0.5227500
v -0.0726500 0.5227500 -0.5040000
v -0.0726250 0.5270000 -0.5140000
v -0.0781250 0.5105000 -0.5227500
v -0.0726250 0.5270000 -0.5140000
v -0.0690500 0.5305000 -0.5230000
v -0.0781250 0.5105000 -0.5227500
v -0.0781250 0.5105000 -0.5227500
v -0.0690500 0.5305000 -0.5230000
v -0.0722750 0.5190000 -0.5330000
v -0.0690500 0.5305000 -0.5230000
v -0.0593750 0.5317500 -0.5262500
v -0.0722750 0.5190000 -0.5330000
v -0.0722750 0.5190000 -0.5330000
v -0.0593750 0.5317500 -0.5262500
v -0.0593750 0.5225000 -0.5372500
v 0.3257500 0.1432500 0.1150250
v 0.3750000 0.1290000 0.1189000
v 0.3750000 0.1397500 0.1121500
v 0.3257500 0.1432500 0.1150250
v 0.3750000 0.1397500 0.1121500
v 0.3250000 0.1540000 0.1077750
v 0.2742500 0.1665000 0.1070250
v 0.3257500 0.1432500 0.1150250
v 0.3250000 0.1540000 0.1077750
v 0.2775000 0.1752500 0.0999000
v 0.2742500 0.1665000 0.1070250
v 0.3250000 0.1540000 0.1077750
v 0.2297500 0.1947500 0.0945500
v 0.2742500 0.1665000 0.1070250
v 0.2775000 0.1752500 0.0999000
v 0.2342500 0.2020000 0.0871500
v 0.2297500 0.1947500 0.0945500
v 0.2775000 0.1752500 0.0999000
v 0.2297500 0.1947500 0.0945500
v 0.2342500 0.2020000 0.0871500
v 0.1872500 0.2307500 0.0732500
v 0.1872500 0.2307500 0.0732500
v 0.2342500 0.2020000 0.0871500
v 0.1957500 0.2337500 0.0675500
v 0.1872500 0.2307500 0.0732500
v 0.1957500 0.2337500 0.0675500
v 0.1540000 0.2672500 0.0439250
v 0.1540000 0.2672500 0.0439250
v 0.1957500 0.2337500 0.0675500
v 0.1640000 0.2675000 0.0398500
v 0.1540000 0.2672500 0.0439250
v 0.1640000 0.2675000 0.0398500
v 0.1202500 0.3162500 -0.0146250
v 0.1202500 0.3162500 -0.0146250
v 0.1640000 0.2675000 0.0398500
v 0.1300000 0.3147500 -0.0175250
v 0.0965000 0.3610000 -0.1083750
v 0.1202500 0.3162500 -0.0146250
v 0.1300000 0.3147500 -0.0175250
v 0.1067500 0.3585000 -0.1103250
v 0.0965000 0.3610000 -0.1083750
v 0.1300000 0.3147500 -0.0175250
v 0.0875000 0.3832500 -0.1609250
v 0.0965000 0.3610000 -0.1083750
v 0.1067500 0.3585000 -0.1103250
v 0.0875000 0.3877500 -0.1728750
v 0.0875000 0.3832500 -0.1609250
v 0.1067500 0.3585000 -0.1103250
v 0.0915000 0.3975000 -0.2040000
v 0.0875000 0.3877500 -0.1728750
v 0.1067500 0.3585000 -0.1103250
v 0.0855000 0.3885000 -0.1731500
v 0.0875000 0.3877500 -0.1728750
v 0.0915000 0.3975000 -0.2040000
v 0.0802500 0.4012500 -0.2031750
v 0.0855000 0.3885000 -0.1731500
v 0.0915000 0.3975000 -0.2040000
v 0.0690000 0.4410000 -0.2975000
v 0.0802500 0.4012500 -0.2031750
v 0.0915000 0.3975000 -0.2040000
v 0.0807500 0.4382500 -0.3015000
v 0.0807500 0.4382500 -0.3015000
v 0.0617500 0.4835000 -0.3975000
v 0.0690000 0.4410000 -0.2975000
v 0.0807500 0.4382500 -0.3015000
v 0.0742500 0.4800000 -0.4017500
v 0.0617500 0.4835000 -0.3975000
v 0.0592500 0.5277500 -0.5017500
v 0.0617500 0.4835000 -0.3975000
v 0.0742500 0.4800000 -0.4017500
v 0.0727500 0.5227500 -0.5040000
v 0.0592500 0.5320000 -0.5120000
v 0.0592500 0.5277500 -0.5017500
v 0.0727500 0.5227500 -0.5040000
v 0.0727500 0.5270000 -0.5140000
v 0.0727500 0.5270000 -0.5140000
v 0.0690000 0.5305000 -0.5230000
v 0.0592500 0.5320000 -0.5120000
v 0.0690000 0.5305000 -0.5230000
v 0.0592500 0.5317500 -0.5262500
v 0.0592500 0.5320000 -0.5120000
v 0.3750000 0.1437500 0.1005000
v 0.3282500 0.1570000 0.0966500
v 0.3250000 0.1540000 0.1077750
v 0.3750000 0.1397500 0.1121500
v 0.3282500 0.1570000 0.0966500
v 0.2775000 0.1752500 0.0999000
v 0.3250000 0.1540000 0.1077750
v 0.3282500 0.1570000 0.0966500
v 0.2802500 0.1780000 0.0889750
v 0.2775000 0.1752500 0.0999000
v 0.2802500 0.1780000 0.0889750
v 0.2342500 0.2020000 0.0871500
v 0.2775000 0.1752500 0.0999000
v 0.2802500 0.1780000 0.0889750
v 0.2387500 0.2027500 0.0771750
v 0.2342500 0.2020000 0.0871500
v 0.2387500 0.2027500 0.0771750
v 0.1957500 0.2337500 0.0675500
v 0.2342500 0.2020000 0.0871500
v 0.2387500 0.2027500 0.0771750
v 0.1990000 0.2347500 0.0572250
v 0.1957500 0.2337500 0.0675500
v 0.1990000 0.2347500 0.0572250
v 0.1640000 0.2675000 0.0398500
v 0.1957500 0.2337500 0.0675500
v 0.1990000 0.2347500 0.0572250
v 0.1680000 0.2667500 0.0298750
v 0.1640000 0.2675000 0.0398500
v 0.1680000 0.2667500 0.0298750
v 0.1300000 0.3147500 -0.0175250
v 0.1640000 0.2675000 0.0398500
v 0.1680000 0.2667500 0.0298750
v 0.1360000 0.3102500 -0.0247000
v 0.1300000 0.3147500 -0.0175250
v 0.1360000 0.3102500 -0.0247000
v 0.1067500 0.3585000 -0.1103250
v 0.1300000 0.3147500 -0.0175250
v 0.1130000 0.3522500 -0.1174000
v 0.1067500 0.3585000 -0.1103250
v 0.1360000 0.3102500 -0.0247000
v 0.0915000 0.3975000 -0.2040000
v 0.1067500 0.3585000 -0.1103250
v 0.1130000 0.3522500 -0.1174000
v 0.0915000 0.3975000 -0.2040000
v 0.1130000 0.3522500 -0.1174000
v 0.0980000 0.3905000 -0.2119250
v 0.0807500 0.4382500 -0.3015000
v 0.0915000 0.3975000 -0.2040000
v 0.0980000 0.3905000 -0.2119250
v 0.0807500 0.4382500 -0.3015000
v 0.0980000 0.3905000 -0.2119250
v 0.0870000 0.4292500 -0.3080000
v 0.0742500 0.4800000 -0.4017500
v 0.0807500 0.4382500 -0.3015000
v 0.0870000 0.4292500 -0.3080000
v 0.0742500 0.4800000 -0.4017500
v 0.0870000 0.4292500 -0.3080000
v 0.0805000 0.4692500 -0.4070000
v 0.0727500 0.5227500 -0.5040000
v 0.0742500 0.4800000 -0.4017500
v 0.0805000 0.4692500 -0.4070000
v 0.0727500 0.5227500 -0.5040000
v 0.0805000 0.4692500 -0.4070000
v 0.0782500 0.5105000 -0.5090000
v 0.0782500 0.5105000 -0.5090000
v 0.0782500 0.5105000 -0.5227500
v 0.0727500 0.5227500 -0.5040000
v 0.0782500 0.5105000 -0.5227500
v 0.0727500 0.5270000 -0.5140000
v 0.0727500 0.5227500 -0.5040000
v 0.0727500 0.5270000 -0.5140000
v 0.0782500 0.5105000 -0.5227500
v 0.0722500 0.5190000 -0.5330000
v 0.0727500 0.5270000 -0.5140000
v 0.0722500 0.5190000 -0.5330000
v 0.0690000 0.5305000 -0.5230000
v 0.0690000 0.5305000 -0.5230000
v 0.0722500 0.5190000 -0.5330000
v 0.0592500 0.5225000 -0.5372500
v 0.0690000 0.5305000 -0.5230000
v 0.0592500 0.5225000 -0.5372500
v 0.0592500 0.5317500 -0.5262500
v 0.0592500 0.5225000 -0.5372500
v -0.0593750 0.5225000 -0.5372500
v -0.0593750 0.5317500 -0.5262500
v 0.0592500 0.5317500 -0.5262500
v -0.0593750 0.5317500 -0.5262500
v -0.0593750 0.5320000 -0.5120000
v 0.0592500 0.5320000 -0.5120000
v 0.0592500 0.5317500 -0.5262500
v 0.0577438 0.6750000 -0.0832563
v 0.0625000 0.6750000 -0.1071750
v 0.0000000 0.6750000 -0.1071750
v 0.0441938 0.6750000 -0.0629813
v 0.0577438 0.6750000 -0.0832563
v 0.0000000 0.6750000 -0.1071750
v 0.0239188 0.6750000 -0.0494312
v 0.0441938 0.6750000 -0.0629813
v 0.0000000 0.6750000 -0.1071750
v 0.0000000 0.6750000 -0.0446750
v 0.0239188 0.6750000 -0.0494312
v 0.0000000 0.6750000 -0.1071750
v -0.0239188 0.6750000 -0.0494312
v 0.0000000 0.6750000 -0.0446750
v 0.0000000 0.6750000 -0.1071750
v -0.0441938 0.6750000 -0.0629813
v -0.0239188 0.6750000 -0.0494312
v 0.0000000 0.6750000 -0.1071750
v -0.0577438 0.6750000 -0.0832563
v -0.0441938 0.6750000 -0.0629813
v 0.0000000 0.6750000 -0.1071750
v -0.0625000 0.6750000 -0.1071750
v -0.0577438 0.6750000 -0.0832563
v 0.0000000 0.6750000 -0.1071750
v -0.0577438 0.6750000 -0.1310938
v -0.0625000 0.6750000 -0.1071750
v 0.0000000 0.6750000 -0.1071750
v -0.0441938 0.6750000 -0.1513688
v -0.0577438 0.6750000 -0.1310938
v 0.0000000 0.6750000 -0.1071750
v -0.0239188 0.6750000 -0.1649188
v -0.0441938 0.6750000 -0.1513688
v 0.0000000 0.6750000 -0.1071750
v 0.0000000 0.6750000 -0.1696750
v -0.0239188 0.6750000 -0.1649188
v 0.0000000 0.6750000 -0.1071750
v 0.0239188 0.6750000 -0.1649188
v 0.0000000 0.6750000 -0.1696750
v 0.0000000 0.6750000 -0.1071750
v 0.0441938 0.6750000 -0.1513688
v 0.0239188 0.6750000 -0.1649188
v 0.0000000 0.6750000 -0.1071750
v 0.0577438 0.6750000 -0.1310938
v 0.0441938 0.6750000 -0.1513688
v 0.0000000 0.6750000 -0.1071750
v 0.0625000 0.6750000 -0.1071750
v 0.0577438 0.6750000 -0.1310938
v 0.0000000 0.6750000 -0.1071750
v 0.0625000 0.6750000 -0.1071750
v 0.0577438 0.6750000 -0.0832563
v 0.0577438 0.6625000 -0.0832563
v 0.0625000 0.6625000 -0.1071750
v 0.0577438 0.6750000 -0.0832563
v 0.0441938 0.6750000 -0.0629813
v 0.0441938 0.6625000 -0.0629813
v 0.0577438 0.6625000 -0.0832563
v 0.0441938 0.6750000 -0.0629813
v 0.0239188 0.6750000 -0.0494312
v 0.0239188 0.6625000 -0.0494312
v 0.0441938 0.6625000 -0.0629813
v 0.0239188 0.6750000 -0.0494312
v 0.0000000 0.6750000 -0.0446750
v 0.0000000 0.6625000 -0.0446750
v 0.0239188 0.6625000 -0.0494312
v 0.0000000 0.6750000 -0.0446750
v -0.0239188 0.6750000 -0.0494312
v -0.0239188 0.6625000 -0.0494312
v 0.0000000 0.6625000 -0.0446750
v -0.0239188 0.6750000 -0.0494312
v -0.0441938 0.6750000 -0.0629813
v -0.0441938 0.6625000 -0.0629813
v -0.0239188 0.6625000 -0.0494312
v -0.0441938 0.6750000 -0.0629813
v -0.0577438 0.6750000 -0.0832563
v -0.0577438 0.6625000 -0.0832563
v -0.0441938 0.6625000 -0.0629813
v -0.0577438 0.6750000 -0.0832563
v -0.0625000 0.6750000 -0.1071750
v -0.0625000 0.6625000 -0.1071750
v -0.0577438 0.6625000 -0.0832563
v -0.0625000 0.6750000 -0.1071750
v -0.0577438 0.6750000 -0.1310938
v -0.0577438 0.6625000 -0.1310938
v -0.0625000 0.6625000 -0.1071750
v -0.0577438 0.6750000 -0.1310938
v -0.0441938 0.6750000 -0.1513688
v -0.0441938 0.6625000 -0.1513688
v -0.0577438 0.6625000 -0.1310938
v -0.0441938 0.6750000 -0.1513688
v -0.0239188 0.6750000 -0.1649188
v -0.0239188 0.6625000 -0.1649188
v -0.0441938 0.6625000 -0.1513688
v -0.0239188 0.6750000 -0.1649188
v 0.0000000 0.6750000 -0.1696750
v 0.0000000 0.6625000 -0.1696750
v -0.0239188 0.6625000 -0.1649188
v 0.0000000 0.6750000 -0.1696750
v 0.0239188 0.6750000 -0.1649188
v 0.0239188 0.6625000 -0.1649188
v 0.0000000 0.6625000 -0.1696750
v 0.0239188 0.6750000 -0.1649188
v 0.0441938 0.6750000 -0.1513688
v 0.0441938 0.6625000 -0.1513688
v 0.0239188 0.6625000 -0.1649188
v 0.0441938 0.6750000 -0.1513688
v 0.0577438 0.6750000 -0.1310938
v 0.0577438 0.6625000 -0.1310938
v 0.0441938 0.6625000 -0.1513688
v 0.0577438 0.6750000 -0.1310938
v 0.0625000 0.6750000 -0.1071750
v 0.0625000 0.6625000 -0.1071750
v 0.0577438 0.6625000 -0.1310938
v -0.0461950 0.3954401 -0.5021457
v -0.0500000 0.4045000 -0.5190000
v 0.0000000 0.4045000 -0.5190000
v -0.0353550 0.3877603 -0.4878590
v -0.0461950 0.3954401 -0.5021457
v 0.0000000 0.4045000 -0.5190000
v -0.0191350 0.3826278 -0.4783110
v -0.0353550 0.3877603 -0.4878590
v 0.0000000 0.4045000 -0.5190000
v 0.0000000 0.3808263 -0.4749595
v -0.0191350 0.3826278 -0.4783110
v 0.0000000 0.4045000 -0.5190000
v 0.0191350 0.3826278 -0.4783110
v 0.0000000 0.3808263 -0.4749595
v 0.0000000 0.4045000 -0.5190000
v 0.0353550 0.3877603 -0.4878590
v 0.0191350 0.3826278 -0.4783110
v 0.0000000 0.4045000 -0.5190000
v 0.0461950 0.3954401 -0.5021457
v 0.0353550 0.3877603 -0.4878590
v 0.0000000 0.4045000 -0.5190000
v 0.0500000 0.4045000 -0.5190000
v 0.0461950 0.3954401 -0.5021457
v 0.0000000 0.4045000 -0.5190000
v 0.0461950 0.4135599 -0.5358543
v 0.0500000 0.4045000 -0.5190000
v 0.0000000 0.4045000 -0.5190000
v 0.0353550 0.4212397 -0.5501410
v 0.0461950 0.4135599 -0.5358543
v 0.0000000 0.4045000 -0.5190000
v 0.0191350 0.4263722 -0.5596890
v 0.0353550 0.4212397 -0.5501410
v 0.0000000 0.4045000 -0.5190000
v 0.0000000 0.4281738 -0.5630405
v 0.0191350 0.4263722 -0.5596890
v 0.0000000 0.4045000 -0.5190000
v -0.0191350 0.4263722 -0.5596890
v 0.0000000 0.4281738 -0.5630405
v 0.0000000 0.4045000 -0.5190000
v -0.0353550 0.4212397 -0.5501410
v -0.0191350 0.4263722 -0.5596890
v 0.0000000 0.4045000 -0.5190000
v -0.0461950 0.4135599 -0.5358543
v -0.0353550 0.4212397 -0.5501410
v 0.0000000 0.4045000 -0.5190000
v -0.0500000 0.4045000 -0.5190000
v -0.0461950 0.4135599 -0.5358543
v 0.0000000 0.4045000 -0.5190000
v -0.0500000 0.4045000 -0.5190000
v -0.0461950 0.3954401 -0.5021457
v -0.0461950 0.4119553 -0.4932680
v -0.0500000 0.4210152 -0.5101223
v -0.0461950 0.3954401 -0.5021457
v -0.0353550 0.3877603 -0.4878590
v -0.0353550 0.4042755 -0.4789812
v -0.0461950 0.4119553 -0.4932680
v -0.0353550 0.3877603 -0.4878590
v -0.0191350 0.3826278 -0.4783110
v -0.0191350 0.3991431 -0.4694332
v -0.0353550 0.4042755 -0.4789812
v -0.0191350 0.3826278 -0.4783110
v 0.0000000 0.3808263 -0.4749595
v 0.0000000 0.3973415 -0.4660818
v -0.0191350 0.3991431 -0.4694332
v 0.0000000 0.3808263 -0.4749595
v 0.0191350 0.3826278 -0.4783110
v 0.0191350 0.3991431 -0.4694332
v 0.0000000 0.3973415 -0.4660818
v 0.0191350 0.3826278 -0.4783110
v 0.0353550 0.3877603 -0.4878590
v 0.0353550 0.4042755 -0.4789812
v 0.0191350 0.3991431 -0.4694332
v 0.0353550 0.3877603 -0.4878590
v 0.0461950 0.3954401 -0.5021457
v 0.0461950 0.4119553 -0.4932680
v 0.0353550 0.4042755 -0.4789812
v 0.0461950 0.3954401 -0.5021457
v 0.0500000 0.4045000 -0.5190000
v 0.0500000 0.4210152 -0.5101223
v 0.0461950 0.4119553 -0.4932680
v 0.0500000 0.4045000 -0.5190000
v 0.0461950 0.4135599 -0.5358543
v 0.0461950 0.4300752 -0.5269765
v 0.0500000 0.4210152 -0.5101223
v 0.0461950 0.4135599 -0.5358543
v 0.0353550 0.4212397 -0.5501410
v 0.0353550 0.4377550 -0.5412633
v 0.0461950 0.4300752 -0.5269765
v 0.0353550 0.4212397 -0.5501410
v 0.0191350 0.4263722 -0.5596890
v 0.0191350 0.4428874 -0.5508113
v 0.0353550 0.4377550 -0.5412633
v 0.0191350 0.4263722 -0.5596890
v 0.0000000 0.4281738 -0.5630405
v 0.0000000 0.4446890 -0.5541628
v 0.0191350 0.4428874 -0.5508113
v 0.0000000 0.4281738 -0.5630405
v -0.0191350 0.4263722 -0.5596890
v -0.0191350 0.4428874 -0.5508113
v 0.0000000 0.4446890 -0.5541628
v -0.0191350 0.4263722 -0.5596890
v -0.0353550 0.4212397 -0.5501410
v -0.0353550 0.4377550 -0.5412633
v -0.0191350 0.4428874 -0.5508113
v -0.0353550 0.4212397 -0.5501410
v -0.0461950 0.4135599 -0.5358543
v -0.0461950 0.4300752 -0.5269765
v -0.0353550 0.4377550 -0.5412633
v -0.0461950 0.4135599 -0.5358543
v -0.0500000 0.4045000 -0.5190000
v -0.0500000 0.4210152 -0.5101223
v -0.0461950 0.4300752 -0.5269765
s off
f 1 2 3
f 1 3 4
f 5 6 7
f 5 7 8
f 9 10 11
f 9 11 12
f 13 14 15
f 13 15 16
f 17 18 19
f 17 19 20
f 21 22 23
f 21 23 24
f 25 26 27
f 25 27 28
f 29 30 31
f 29 31 32
f 33 34 35
f 33 35 36
f 37 38 39
f 37 39 40
f 41 42 43
f 41 43 44
f 45 46 47
f 45 47 48
f 49 50 51
f 49 51 52
f 53 54 55
f 53 55 56
f 57 58 59
f 57 59 60
f 61 62 63
f 61 63 64
f 65 66 67
f 68 69 70
f 71 72 73
f 74 75 76
f 77 78 79
f 80 81 82
f 83 84 85
f 86 87 88
f 89 90 91
f 92 93 94
f 95 96 97
f 98 99 100
f 101 102 103
f 104 105 106
f 107 108 109
f 110 111 112
f 113 114 115
f 113 115 116
f 117 118 119
f 117 119 120
f 121 122 123
f 121 123 124
f 125 126 127
f 125 127 128
f 129 130 131
f 129 131 132
f 133 134 135
f 133 135 136
f 137 138 139
f 137 139 140
f 141 142 143
f 141 143 144
f 145 146 147
f 145 147 148
f 149 150 151
f 149 151 152
f 153 154 155
f 153 155 156
f 157 158 159
f 157 159 160
f 161 162 163
f 161 163 164
f 165 166 167
f 165 167 168
f 169 170 171
f 169 171 172
f 173 174 175
f 173 175 176
f 177 178 179
f 177 179 180
f 181 182 183
f 181 183 184
f 185 186 187
f 185 187 188
f 189 190 191
f 189 191 192
f 193 194 195
f 193 195 196
f 197 198 199
f 197 199 200
f 201 202 203
f 201 203 204
f 205 206 207
f 205 207 208
f 209 210 211
f 209 211 212
f 213 214 215
f 213 215 216
f 217 218 219
f 217 219 220
f 221 222 223
f 221 223 224
f 225 226 227
f 225 227 228
f 229 230 231
f 229 231 232
f 233 234 235
f 236 237 238
f 239 240 241
f 242 243 244
f 245 246 247
f 248 249 250
f 251 252 253
f 254 255 256
f 257 258 259
f 260 261 262
f 263 264 265
f 266 267 268
f 269 270 271
f 272 273 274
f 275 276 277
f 278 279 280
f 281 282 283
f 281 283 284
f 285 286 287
f 288 289 290
f 291 292 293
f 294 295 296
f 297 298 299
f 300 301 302
f 303 304 305
f 306 307 308
f 309 310 311
f 312 313 314
f 315 316 317
f 318 319 320
f 321 322 323
f 324 325 326
f 327 328 329
f 330 331 332
f 333 334 335
f 333 335 336
f 337 338 339
f 337 339 340
f 341 342 343
f 341 343 344
f 345 346 347
f 345 347 348
f 349 350 351
f 349 351 352
f 353 354 355
f 353 355 356
f 357 358 359
f 357 359 360
f 361 362 363
f 361 363 364
f 365 366 367
f 365 367 368
f 369 370 371
f 369 371 372
f 373 374 375
f 373 375 376
f 377 378 379
f 377 379 380
f 381 382 383
f 381 383 384
f 385 386 387
f 385 387 388
f 389 390 391
f 389 391 392
f 393 394 395
f 393 395 396
f 397 398 399
f 397 399 400
f 401 402 403
f 401 403 404
f 405 406 407
f 405 407 408
f 409 410 411
f 409 411 412
f 413 414 415
f 413 415 416
f 417 418 419
f 417 419 420
f 421 422 423
f 421 423 424
f 425 426 427
f 425 427 428
f 429 430 431
f 429 431 432
f 433 434 435
f 433 435 436
f 437 438 439
f 437 439 440
f 441 442 443
f 441 443 444
f 445 446 447
f 445 447 448
f 449 450 451
f 452 453 454
f 455 456 457
f 458 459 460
f 461 462 463
f 464 465 466
f 467 468 469
f 470 471 472
f 473 474 475
f 476 477 478
f 479 480 481
f 482 483 484
f 485 486 487
f 488 489 490
f 491 492 493
f 494 495 496
f 497 498 499
f 500 501 502
f 503 504 505
f 506 507 508
f 509 510 511
f 509 511 512
f 513 514 515
f 513 515 516
f 517 518 519
f 517 519 520
f 521 522 523
f 521 523 524
f 525 526 527
f 525 527 528
f 529 530 531
f 529 531 532
f 533 534 535
f 533 535 536
f 537 538 539
f 537 539 540
f 541 542 543
f 541 543 544
f 545 546 547
f 548 549 550
f 548 550 551
f 552 553 554
f 552 554 555
f 556 557 558
f 556 558 559
f 560 561 562
f 560 562 563
f 564 565 566
f 564 566 567
f 568 569 570
f 571 572 573
f 571 573 574
f 575 576 577
f 575 577 578
f 579 580 581
f 579 581 582
f 583 584 585
f 583 585 586
f 587 588 589
f 587 589 590
f 591 592 593
f 594 595 596
f 597 598 599
f 597 599 600
f 601 602 603
f 601 603 604
f 605 606 607
f 605 607 608
f 609 610 611
f 609 611 612
f 613 614 615
f 616 617 618
f 619 620 621
f 622 623 624
f 625 626 627
f 628 629 630
f 631 632 633
f 634 635 636
f 637 638 639
f 640 641 642
f 643 644 645
f 646 647 648
f 649 650 651
f 652 653 654
f 655 656 657
f 658 659 660
f 661 662 663
f 664 665 666
f 667 668 669
f 670 671 672
f 673 674 675
f 676 677 678
f 679 680 681
f 682 683 684
f 685 686 687
f 688 689 690
f 688 690 691
f 692 693 694
f 695 696 697
f 695 697 698
f 699 700 701
f 702 703 704
f 705 706 707
f 708 709 710
f 711 712 713
f 714 715 716
f 717 718 719
f 720 721 722
f 723 724 725
f 726 727 728
f 729 730 731
f 732 733 734
f 735 736 737
f 738 739 740
f 741 742 743
f 744 745 746
f 747 748 749
f 747 749 750
f 751 752 753
f 754 755 756
f 757 758 759
f 760 761 762
f 763 764 765
f 766 767 768
f 769 770 771
f 772 773 774
f 775 776 777
f 778 779 780
f 781 782 783
f 784 785 786
f 787 788 789
f 790 791 792
f 793 794 795
f 796 797 798
f 799 800 801
f 802 803 804
f 805 806 807
f 808 809 810
f 811 812 813
f 814 815 816
f 817 818 819
f 820 821 822
f 823 824 825
f 826 827 828
f 829 830 831
f 832 833 834
f 835 836 837
f 838 839 840
f 841 842 843
f 844 845 846
f 847 848 849
f 850 851 852
f 853 854 855
f 856 857 858
f 859 860 861
f 862 863 864
f 865 866 867
f 868 869 870
f 871 872 873
f 874 875 876
f 877 878 879
f 880 881 882
f 883 884 885
f 886 887 888
f 889 890 891
f 892 893 894
f 895 896 897
f 898 899 900
f 901 902 903
f 904 905 906
f 907 908 909
f 910 911 912
f 913 914 915
f 916 917 918
f 919 920 921
f 922 923 924
f 925 926 927
f 928 929 930
f 931 932 933
f 934 935 936
f 937 938 939
f 940 941 942
f 943 944 945
f 946 947 948
f 949 950 951
f 952 953 954
f 955 956 957
f 958 959 960
f 961 962 963
f 964 965 966
f 967 968 969
f 970 971 972
f 973 974 975
f 976 977 978
f 979 980 981
f 982 983 984
f 985 986 987
f 988 989 990
f 991 992 993
f 991 993 994
f 995 996 997
f 995 997 998
f 999 1000 1001
f 999 1001 1002
f 1003 1004 1005
f 1003 1005 1006
f 1007 1008 1009
f 1007 1009 1010
f 1011 1012 1013
f 1014 1015 1016
f 1014 1016 1017
f 1018 1019 1020
f 1018 1020 1021
f 1022 1023 1024
f 1022 1024 1025
f 1026 1027 1028
f 1029 1030 1031
f 1029 1031 1032
f 1033 1034 1035
f 1033 1035 1036
f 1037 1038 1039
f 1037 1039 1040
f 1041 1042 1043
f 1041 1043 1044
f 1045 1046 1047
f 1045 1047 1048
f 1049 1050 1051
f 1049 1051 1052
f 1053 1054 1055
f 1053 1055 1056
f 1057 1058 1059
f 1057 1059 1060
f 1061 1062 1063
f 1061 1063 1064
f 1065 1066 1067
f 1065 1067 1068
f 1069 1070 1071
f 1069 1071 1072
f 1073 1074 1075
f 1073 1075 1076
f 1077 1078 1079
f 1077 1079 1080
f 1081 1082 1083
f 1081 1083 1084
f 1085 1086 1087
f 1085 1087 1088
f 1089 1090 1091
f 1089 1091 1092
f 1093 1094 1095
f 1093 1095 1096
f 1097 1098 1099
f 1097 1099 1100
f 1101 1102 1103
f 1101 1103 1104
f 1105 1106 1107
f 1105 1107 1108
f 1109 1110 1111
f 1112 1113 1114
f 1112 1114 1115
f 1116 1117 1118
f 1119 1120 1121
f 1119 1121 1122
f 1123 1124 1125
f 1123 1125 1126
f 1127 1128 1129
f 1127 1129 1130
f 1131 1132 1133
f 1134 1135 1136
f 1137 1138 1139
f 1137 1139 1140
f 1141 1142 1143
f 1141 1143 1144
f 1145 1146 1147
f 1145 1147 1148
f 1149 1150 1151
f 1152 1153 1154
f 1152 1154 1155
f 1156 1157 1158
f 1156 1158 1159
f 1160 1161 1162
f 1160 1162 1163
f 1164 1165 1166
f 1164 1166 1167
f 1168 1169 1170
f 1168 1170 1171
f 1172 1173 1174
f 1172 1174 1175
f 1176 1177 1178
f 1179 1180 1181
f 1179 1181 1182
f 1183 1184 1185
f 1183 1185 1186
f 1187 1188 1189
f 1190 1191 1192
f 1190 1192 1193
f 1194 1195 1196
f 1194 1196 1197
f 1198 1199 1200
f 1201 1202 1203
f 1204 1205 1206
f 1207 1208 1209
f 1207 1209 1210
f 1211 1212 1213
f 1211 1213 1214
f 1215 1216 1217
f 1215 1217 1218
f 1219 1220 1221
f 1219 1221 1222
f 1223 1224 1225
f 1223 1225 1226
f 1227 1228 1229
f 1227 1229 1230
f 1231 1232 1233
f 1231 1233 1234
f 1235 1236 1237
f 1235 1237 1238
f 1239 1240 1241
f 1239 1241 1242
f 1243 1244 1245
f 1243 1245 1246
f 1247 1248 1249
f 1250 1251 1252
f 1253 1254 1255
f 1253 1255 1256
f 1257 1258 1259
f 1260 1261 1262
f 1263 1264 1265
f 1266 1267 1268
f 1266 1268 1269
f 1270 1271 1272
f 1270 1272 1273
f 1274 1275 1276
f 1274 1276 1277
f 1278 1279 1280
f 1281 1282 1283
f 1284 1285 1286
f 1284 1286 1287
f 1288 1289 1290
f 1291 1292 1293
f 1294 1295 1296
f 1297 1298 1299
f 1300 1301 1302
f 1303 1304 1305
f 1306 1307 1308
f 1309 1310 1311
f 1312 1313 1314
f 1315 1316 1317
f 1318 1319 1320
f 1321 1322 1323
f 1324 1325 1326
f 1327 1328 1329
f 1330 1331 1332
f 1333 1334 1335
f 1336 1337 1338
f 1339 1340 1341
f 1342 1343 1344
f 1345 1346 1347
f 1348 1349 1350
f 1351 1352 1353
f 1354 1355 1356
f 1354 1356 1357
f 1358 1359 1360
f 1361 1362 1363
f 1364 1365 1366
f 1367 1368 1369
f 1370 1371 1372
f 1370 1372 1373
f 1374 1375 1376
f 1377 1378 1379
f 1380 1381 1382
f 1380 1382 1383
f 1384 1385 1386
f 1387 1388 1389
f 1390 1391 1392
f 1393 1394 1395
f 1396 1397 1398
f 1399 1400 1401
f 1402 1403 1404
f 1405 1406 1407
f 1408 1409 1410
f 1411 1412 1413
f 1414 1415 1416
f 1417 1418 1419
f 1420 1421 1422
f 1423 1424 1425
f 1426 1427 1428
f 1429 1430 1431
f 1432 1433 1434
f 1435 1436 1437
f 1438 1439 1440
f 1441 1442 1443
f 1444 1445 1446
f 1447 1448 1449
f 1450 1451 1452
f 1453 1454 1455
f 1456 1457 1458
f 1459 1460 1461
f 1462 1463 1464
f 1465 1466 1467
f 1468 1469 1470
f 1471 1472 1473
f 1474 1475 1476
f 1477 1478 1479
f 1480 1481 1482
f 1483 1484 1485
f 1486 1487 1488
f 1489 1490 1491
f 1492 1493 1494
f 1495 1496 1497
f 1498 1499 1500
f 1501 1502 1503
f 1504 1505 1506
f 1507 1508 1509
f 1510 1511 1512
f 1513 1514 1515
f 1516 1517 1518
f 1519 1520 1521
f 1519 1521 1522
f 1523 1524 1525
f 1526 1527 1528
f 1529 1530 1531
f 1529 1531 1532
f 1533 1534 1535
f 1533 1535 1536
f 1537 1538 1539
f 1540 1541 1542
f 1543 1544 1545
f 1543 1545 1546
f 1547 1548 1549
f 1550 1551 1552
f 1553 1554 1555
f 1556 1557 1558
f 1559 1560 1561
f 1562 1563 1564
f 1565 1566 1567
f 1568 1569 1570
f 1571 1572 1573
f 1574 1575 1576
f 1577 1578 1579
f 1580 1581 1582
f 1583 1584 1585
f 1586 1587 1588
f 1589 1590 1591
f 1592 1593 1594
f 1595 1596 1597
f 1598 1599 1600
f 1601 1602 1603
f 1604 1605 1606
f 1607 1608 1609
f 1610 1611 1612
f 1613 1614 1615
f 1616 1617 1618
f 1619 1620 1621
f 1622 1623 1624
f 1625 1626 1627
f 1625 1627 1628
f 1629 1630 1631
f 1629 1631 1632
f 1633 1634 1635
f 1636 1637 1638
f 1639 1640 1641
f 1642 1643 1644
f 1645 1646 1647
f 1648 1649 1650
f 1651 1652 1653
f 1654 1655 1656
f 1657 1658 1659
f 1660 1661 1662
f 1663 1664 1665
f 1666 1667 1668
f 1669 1670 1671
f 1672 1673 1674
f 1675 1676 1677
f 1678 1679 1680
f 1681 1682 1683
f 1681 1683 1684
f 1685 1686 1687
f 1685 1687 1688
f 1689 1690 1691
f 1689 1691 1692
f 1693 1694 1695
f 1693 1695 1696
f 1697 1698 1699
f 1697 1699 1700
f 1701 1702 1703
f 1701 1703 1704
f 1705 1706 1707
f 1705 1707 1708
f 1709 1710 1711
f 1709 1711 1712
f 1713 1714 1715
f 1713 1715 1716
f 1717 1718 1719
f 1717 1719 1720
f 1721 1722 1723
f 1721 1723 1724
f 1725 1726 1727
f 1725 1727 1728
f 1729 1730 1731
f 1729 1731 1732
f 1733 1734 1735
f 1733 1735 1736
f 1737 1738 1739
f 1737 1739 1740
f 1741 1742 1743
f 1741 1743 1744
f 1745 1746 1747
f 1748 1749 1750
f 1751 1752 1753
f 1754 1755 1756
f 1757 1758 1759
f 1760 1761 1762
f 1763 1764 1765
f 1766 1767 1768
f 1769 1770 1771
f 1772 1773 1774
f 1775 1776 1777
f 1778 1779 1780
f 1781 1782 1783
f 1784 1785 1786
f 1787 1788 1789
f 1790 1791 1792
f 1793 1794 1795
f 1793 1795 1796
f 1797 1798 1799
f 1797 1799 1800
f 1801 1802 1803
f 1801 1803 1804
f 1805 1806 1807
f 1805 1807 1808
f 1809 1810 1811
f 1809 1811 1812
f 1813 1814 1815
f 1813 1815 1816
f 1817 1818 1819
f 1817 1819 1820
f 1821 1822 1823
f 1821 1823 1824
f 1825 1826 1827
f 1825 1827 1828
f 1829 1830 1831
f 1829 1831 1832
f 1833 1834 1835
f 1833 1835 1836
f 1837 1838 1839
f 1837 1839 1840
f 1841 1842 1843
f 1841 1843 1844
f 1845 1846 1847
f 1845 1847 1848
f 1849 1850 1851
f 1849 1851 1852
f 1853 1854 1855
f 1853 1855 1856
