# Baked from official LDraw part 3665a.dat
o ldraw_3665a
v -0.1500000 -0.1000000 -0.1500000
v 0.1500000 -0.1000000 -0.1500000
v 0.1500000 -0.1000000 0.1500000
v -0.1500000 -0.1000000 0.1500000
v 0.1500000 -0.1000000 0.1500000
v 0.1500000 -0.6000000 0.1500000
v -0.1500000 -0.6000000 0.1500000
v -0.1500000 -0.1000000 0.1500000
v -0.1500000 -0.1000000 0.1500000
v -0.1500000 -0.6000000 0.1500000
v -0.1500000 -0.6000000 -0.1500000
v -0.1500000 -0.1000000 -0.1500000
v -0.1500000 -0.1000000 -0.1500000
v -0.1500000 -0.6000000 -0.1500000
v 0.1500000 -0.6000000 -0.1500000
v 0.1500000 -0.1000000 -0.1500000
v 0.1500000 -0.1000000 -0.1500000
v 0.1500000 -0.6000000 -0.1500000
v 0.1500000 -0.6000000 0.1500000
v 0.1500000 -0.1000000 0.1500000
v -0.2500000 -0.6000000 0.2500000
v -0.1500000 -0.6000000 0.1500000
v 0.1500000 -0.6000000 0.1500000
v 0.2500000 -0.6000000 0.2500000
v -0.2500000 -0.6000000 -0.2500000
v -0.1500000 -0.6000000 -0.1500000
v -0.1500000 -0.6000000 0.1500000
v -0.2500000 -0.6000000 0.2500000
v 0.2500000 -0.6000000 -0.2500000
v 0.1500000 -0.6000000 -0.1500000
v -0.1500000 -0.6000000 -0.1500000
v -0.2500000 -0.6000000 -0.2500000
v 0.2500000 -0.6000000 0.2500000
v 0.1500000 -0.6000000 0.1500000
v 0.1500000 -0.6000000 -0.1500000
v 0.2500000 -0.6000000 -0.2500000
v -0.2000000 -0.1000000 -0.6500000
v -0.2000000 -0.5000000 -0.2500000
v 0.2000000 -0.5000000 -0.2500000
v 0.2000000 -0.1000000 -0.6500000
v 0.2000000 -0.0000000 -0.6500000
v -0.2000000 -0.0000000 -0.6500000
v -0.2000000 -0.1000000 -0.6500000
v 0.2000000 -0.1000000 -0.6500000
v 0.2500000 -0.6000000 0.2500000
v 0.2500000 -0.6000000 -0.2500000
v 0.2500000 -0.1000000 -0.7500000
v 0.2500000 -0.0000000 0.2500000
v 0.2500000 -0.0000000 0.2500000
v 0.2500000 -0.1000000 -0.7500000
v 0.2500000 -0.0000000 -0.7500000
v 0.2500000 -0.6000000 0.2500000
v 0.2500000 -0.0000000 0.2500000
v -0.2500000 -0.0000000 0.2500000
v -0.2500000 -0.6000000 0.2500000
v -0.2500000 -0.6000000 0.2500000
v -0.2500000 -0.0000000 0.2500000
v -0.2500000 -0.1000000 -0.7500000
v -0.2500000 -0.6000000 -0.2500000
v -0.2500000 -0.0000000 -0.7500000
v -0.2500000 -0.1000000 -0.7500000
v -0.2500000 -0.0000000 0.2500000
v -0.2500000 -0.1000000 -0.7500000
v -0.2500000 -0.0000000 -0.7500000
v 0.2500000 -0.0000000 -0.7500000
v 0.2500000 -0.1000000 -0.7500000
v 0.2000000 -0.1000000 -0.6500000
v 0.2000000 -0.5000000 -0.2500000
v 0.2000000 -0.0000000 -0.2500000
v 0.2000000 -0.0000000 -0.6500000
v -0.2000000 -0.1000000 -0.6500000
v -0.2000000 -0.0000000 -0.6500000
v -0.2000000 -0.0000000 -0.2500000
v -0.2000000 -0.5000000 -0.2500000
v 0.2000000 -0.0000000 -0.2500000
v 0.2000000 -0.5000000 -0.2500000
v -0.2000000 -0.5000000 -0.2500000
v -0.2000000 -0.0000000 -0.2500000
v -0.2500000 -0.0000000 0.2500000
v 0.2500000 -0.0000000 0.2500000
v 0.2000000 -0.0000000 -0.2500000
v -0.2000000 -0.0000000 -0.2500000
v -0.2500000 -0.0000000 -0.7500000
v -0.2500000 -0.0000000 0.2500000
v -0.2000000 -0.0000000 -0.2500000
v -0.2000000 -0.0000000 -0.6500000
v 0.2500000 -0.0000000 -0.7500000
v -0.2500000 -0.0000000 -0.7500000
v -0.2000000 -0.0000000 -0.6500000
v 0.2000000 -0.0000000 -0.6500000
v 0.2500000 -0.0000000 0.2500000
v 0.2500000 -0.0000000 -0.7500000
v 0.2000000 -0.0000000 -0.6500000
v 0.2000000 -0.0000000 -0.2500000
v 0.0000000 0.1000000 -0.1500000
v 0.0574050 0.1000000 -0.1385850
v 0.0574050 -0.0000000 -0.1385850
v 0.0000000 -0.0000000 -0.1500000
v 0.0574050 0.1000000 -0.1385850
v 0.1060650 0.1000000 -0.1060650
v 0.1060650 -0.0000000 -0.1060650
v 0.0574050 -0.0000000 -0.1385850
v 0.1060650 0.1000000 -0.1060650
v 0.1385850 0.1000000 -0.0574050
v 0.1385850 -0.0000000 -0.0574050
v 0.1060650 -0.0000000 -0.1060650
v 0.1385850 0.1000000 -0.0574050
v 0.1500000 0.1000000 0.0000000
v 0.1500000 -0.0000000 0.0000000
v 0.1385850 -0.0000000 -0.0574050
v 0.1500000 0.1000000 0.0000000
v 0.1385850 0.1000000 0.0574050
v 0.1385850 -0.0000000 0.0574050
v 0.1500000 -0.0000000 0.0000000
v 0.1385850 0.1000000 0.0574050
v 0.1060650 0.1000000 0.1060650
v 0.1060650 -0.0000000 0.1060650
v 0.1385850 -0.0000000 0.0574050
v 0.1060650 0.1000000 0.1060650
v 0.0574050 0.1000000 0.1385850
v 0.0574050 -0.0000000 0.1385850
v 0.1060650 -0.0000000 0.1060650
v 0.0574050 0.1000000 0.1385850
v 0.0000000 0.1000000 0.1500000
v 0.0000000 -0.0000000 0.1500000
v 0.0574050 -0.0000000 0.1385850
v 0.0000000 0.1000000 0.1500000
v -0.0574050 0.1000000 0.1385850
v -0.0574050 -0.0000000 0.1385850
v 0.0000000 -0.0000000 0.1500000
v -0.0574050 0.1000000 0.1385850
v -0.1060650 0.1000000 0.1060650
v -0.1060650 -0.0000000 0.1060650
v -0.0574050 -0.0000000 0.1385850
v -0.1060650 0.1000000 0.1060650
v -0.1385850 0.1000000 0.0574050
v -0.1385850 -0.0000000 0.0574050
v -0.1060650 -0.0000000 0.1060650
v -0.1385850 0.1000000 0.0574050
v -0.1500000 0.1000000 0.0000000
v -0.1500000 -0.0000000 0.0000000
v -0.1385850 -0.0000000 0.0574050
v -0.1500000 0.1000000 0.0000000
v -0.1385850 0.1000000 -0.0574050
v -0.1385850 -0.0000000 -0.0574050
v -0.1500000 -0.0000000 0.0000000
v -0.1385850 0.1000000 -0.0574050
v -0.1060650 0.1000000 -0.1060650
v -0.1060650 -0.0000000 -0.1060650
v -0.1385850 -0.0000000 -0.0574050
v -0.1060650 0.1000000 -0.1060650
v -0.0574050 0.1000000 -0.1385850
v -0.0574050 -0.0000000 -0.1385850
v -0.1060650 -0.0000000 -0.1060650
v -0.0574050 0.1000000 -0.1385850
v 0.0000000 0.1000000 -0.1500000
v 0.0000000 -0.0000000 -0.1500000
v -0.0574050 -0.0000000 -0.1385850
v 0.0574050 0.1000000 -0.1385850
v 0.0000000 0.1000000 -0.1500000
v 0.0000000 0.1000000 0.0000000
v 0.1060650 0.1000000 -0.1060650
v 0.0574050 0.1000000 -0.1385850
v 0.0000000 0.1000000 0.0000000
v 0.1385850 0.1000000 -0.0574050
v 0.1060650 0.1000000 -0.1060650
v 0.0000000 0.1000000 0.0000000
v 0.1500000 0.1000000 0.0000000
v 0.1385850 0.1000000 -0.0574050
v 0.0000000 0.1000000 0.0000000
v 0.1385850 0.1000000 0.0574050
v 0.1500000 0.1000000 0.0000000
v 0.0000000 0.1000000 0.0000000
v 0.1060650 0.1000000 0.1060650
v 0.1385850 0.1000000 0.0574050
v 0.0000000 0.1000000 0.0000000
v 0.0574050 0.1000000 0.1385850
v 0.1060650 0.1000000 0.1060650
v 0.0000000 0.1000000 0.0000000
v 0.0000000 0.1000000 0.1500000
v 0.0574050 0.1000000 0.1385850
v 0.0000000 0.1000000 0.0000000
v -0.0574050 0.1000000 0.1385850
v 0.0000000 0.1000000 0.1500000
v 0.0000000 0.1000000 0.0000000
v -0.1060650 0.1000000 0.1060650
v -0.0574050 0.1000000 0.1385850
v 0.0000000 0.1000000 0.0000000
v -0.1385850 0.1000000 0.0574050
v -0.1060650 0.1000000 0.1060650
v 0.0000000 0.1000000 0.0000000
v -0.1500000 0.1000000 0.0000000
v -0.1385850 0.1000000 0.0574050
v 0.0000000 0.1000000 0.0000000
v -0.1385850 0.1000000 -0.0574050
v -0.1500000 0.1000000 0.0000000
v 0.0000000 0.1000000 0.0000000
v -0.1060650 0.1000000 -0.1060650
v -0.1385850 0.1000000 -0.0574050
v 0.0000000 0.1000000 0.0000000
v -0.0574050 0.1000000 -0.1385850
v -0.1060650 0.1000000 -0.1060650
v 0.0000000 0.1000000 0.0000000
v 0.0000000 0.1000000 -0.1500000
v -0.0574050 0.1000000 -0.1385850
v 0.0000000 0.1000000 0.0000000
v 0.1000000 -0.1000000 -0.5000000
v 0.0923900 -0.1000000 -0.4617300
v 0.0923900 0.1000000 -0.4617300
v 0.1000000 0.1000000 -0.5000000
v 0.0923900 -0.1000000 -0.4617300
v 0.0707100 -0.1000000 -0.4292900
v 0.0707100 0.1000000 -0.4292900
v 0.0923900 0.1000000 -0.4617300
v 0.0707100 -0.1000000 -0.4292900
v 0.0382700 -0.1000000 -0.4076100
v 0.0382700 0.1000000 -0.4076100
v 0.0707100 0.1000000 -0.4292900
v 0.0382700 -0.1000000 -0.4076100
v 0.0000000 -0.1000000 -0.4000000
v 0.0000000 0.1000000 -0.4000000
v 0.0382700 0.1000000 -0.4076100
v 0.0000000 -0.1000000 -0.4000000
v -0.0382700 -0.1000000 -0.4076100
v -0.0382700 0.1000000 -0.4076100
v 0.0000000 0.1000000 -0.4000000
v -0.0382700 -0.1000000 -0.4076100
v -0.0707100 -0.1000000 -0.4292900
v -0.0707100 0.1000000 -0.4292900
v -0.0382700 0.1000000 -0.4076100
v -0.0707100 -0.1000000 -0.4292900
v -0.0923900 -0.1000000 -0.4617300
v -0.0923900 0.1000000 -0.4617300
v -0.0707100 0.1000000 -0.4292900
v -0.0923900 -0.1000000 -0.4617300
v -0.1000000 -0.1000000 -0.5000000
v -0.1000000 0.1000000 -0.5000000
v -0.0923900 0.1000000 -0.4617300
v -0.1000000 -0.1000000 -0.5000000
v -0.0923900 -0.1000000 -0.5382700
v -0.0923900 0.1000000 -0.5382700
v -0.1000000 0.1000000 -0.5000000
v -0.0923900 -0.1000000 -0.5382700
v -0.0707100 -0.1000000 -0.5707100
v -0.0707100 0.1000000 -0.5707100
v -0.0923900 0.1000000 -0.5382700
v -0.0707100 -0.1000000 -0.5707100
v -0.0382700 -0.1000000 -0.5923900
v -0.0382700 0.1000000 -0.5923900
v -0.0707100 0.1000000 -0.5707100
v -0.0382700 -0.1000000 -0.5923900
v 0.0000000 -0.1000000 -0.6000000
v 0.0000000 0.1000000 -0.6000000
v -0.0382700 0.1000000 -0.5923900
v 0.0000000 -0.1000000 -0.6000000
v 0.0382700 -0.1000000 -0.5923900
v 0.0382700 0.1000000 -0.5923900
v 0.0000000 0.1000000 -0.6000000
v 0.0382700 -0.1000000 -0.5923900
v 0.0707100 -0.1000000 -0.5707100
v 0.0707100 0.1000000 -0.5707100
v 0.0382700 0.1000000 -0.5923900
v 0.0707100 -0.1000000 -0.5707100
v 0.0923900 -0.1000000 -0.5382700
v 0.0923900 0.1000000 -0.5382700
v 0.0707100 0.1000000 -0.5707100
v 0.0923900 -0.1000000 -0.5382700
v 0.1000000 -0.1000000 -0.5000000
v 0.1000000 0.1000000 -0.5000000
v 0.0923900 0.1000000 -0.5382700
v 0.1500000 0.1000000 -0.5000000
v 0.1385850 0.1000000 -0.4425950
v 0.1385850 -0.1000000 -0.4425950
v 0.1500000 -0.1000000 -0.5000000
v 0.1385850 0.1000000 -0.4425950
v 0.1060650 0.1000000 -0.3939350
v 0.1060650 -0.1000000 -0.3939350
v 0.1385850 -0.1000000 -0.4425950
v 0.1060650 0.1000000 -0.3939350
v 0.0574050 0.1000000 -0.3614150
v 0.0574050 -0.1000000 -0.3614150
v 0.1060650 -0.1000000 -0.3939350
v 0.0574050 0.1000000 -0.3614150
v 0.0000000 0.1000000 -0.3500000
v 0.0000000 -0.1000000 -0.3500000
v 0.0574050 -0.1000000 -0.3614150
v 0.0000000 0.1000000 -0.3500000
v -0.0574050 0.1000000 -0.3614150
v -0.0574050 -0.1000000 -0.3614150
v 0.0000000 -0.1000000 -0.3500000
v -0.0574050 0.1000000 -0.3614150
v -0.1060650 0.1000000 -0.3939350
v -0.1060650 -0.1000000 -0.3939350
v -0.0574050 -0.1000000 -0.3614150
v -0.1060650 0.1000000 -0.3939350
v -0.1385850 0.1000000 -0.4425950
v -0.1385850 -0.1000000 -0.4425950
v -0.1060650 -0.1000000 -0.3939350
v -0.1385850 0.1000000 -0.4425950
v -0.1500000 0.1000000 -0.5000000
v -0.1500000 -0.1000000 -0.5000000
v -0.1385850 -0.1000000 -0.4425950
v -0.1500000 0.1000000 -0.5000000
v -0.1385850 0.1000000 -0.5574050
v -0.1385850 -0.1000000 -0.5574050
v -0.1500000 -0.1000000 -0.5000000
v -0.1385850 0.1000000 -0.5574050
v -0.1060650 0.1000000 -0.6060650
v -0.1060650 -0.1000000 -0.6060650
v -0.1385850 -0.1000000 -0.5574050
v -0.1060650 0.1000000 -0.6060650
v -0.0574050 0.1000000 -0.6385850
v -0.0574050 -0.1000000 -0.6385850
v -0.1060650 -0.1000000 -0.6060650
v -0.0574050 0.1000000 -0.6385850
v 0.0000000 0.1000000 -0.6500000
v 0.0000000 -0.1000000 -0.6500000
v -0.0574050 -0.1000000 -0.6385850
v 0.0000000 0.1000000 -0.6500000
v 0.0574050 0.1000000 -0.6385850
v 0.0574050 -0.1000000 -0.6385850
v 0.0000000 -0.1000000 -0.6500000
v 0.0574050 0.1000000 -0.6385850
v 0.1060650 0.1000000 -0.6060650
v 0.1060650 -0.1000000 -0.6060650
v 0.0574050 -0.1000000 -0.6385850
v 0.1060650 0.1000000 -0.6060650
v 0.1385850 0.1000000 -0.5574050
v 0.1385850 -0.1000000 -0.5574050
v 0.1060650 -0.1000000 -0.6060650
v 0.1385850 0.1000000 -0.5574050
v 0.1500000 0.1000000 -0.5000000
v 0.1500000 -0.1000000 -0.5000000
v 0.1385850 -0.1000000 -0.5574050
v 0.0000000 0.1000000 -0.3500000
v 0.0000000 0.1000000 -0.4000000
v -0.0382700 0.1000000 -0.4076100
v -0.0574050 0.1000000 -0.3614150
v -0.0574050 0.1000000 -0.3614150
v -0.0382700 0.1000000 -0.4076100
v -0.0707100 0.1000000 -0.4292900
v -0.1060650 0.1000000 -0.3939350
v -0.1060650 0.1000000 -0.3939350
v -0.0707100 0.1000000 -0.4292900
v -0.0923900 0.1000000 -0.4617300
v -0.1385850 0.1000000 -0.4425950
v -0.1385850 0.1000000 -0.4425950
v -0.0923900 0.1000000 -0.4617300
v -0.1000000 0.1000000 -0.5000000
v -0.1500000 0.1000000 -0.5000000
v -0.1500000 0.1000000 -0.5000000
v -0.1000000 0.1000000 -0.5000000
v -0.0923900 0.1000000 -0.5382700
v -0.1385850 0.1000000 -0.5574050
v -0.1385850 0.1000000 -0.5574050
v -0.0923900 0.1000000 -0.5382700
v -0.0707100 0.1000000 -0.5707100
v -0.1060650 0.1000000 -0.6060650
v -0.1060650 0.1000000 -0.6060650
v -0.0707100 0.1000000 -0.5707100
v -0.0382700 0.1000000 -0.5923900
v -0.0574050 0.1000000 -0.6385850
v -0.0574050 0.1000000 -0.6385850
v -0.0382700 0.1000000 -0.5923900
v 0.0000000 0.1000000 -0.6000000
v 0.0000000 0.1000000 -0.6500000
v 0.0000000 0.1000000 -0.6500000
v 0.0000000 0.1000000 -0.6000000
v 0.0382700 0.1000000 -0.5923900
v 0.0574050 0.1000000 -0.6385850
v 0.0574050 0.1000000 -0.6385850
v 0.0382700 0.1000000 -0.5923900
v 0.0707100 0.1000000 -0.5707100
v 0.1060650 0.1000000 -0.6060650
v 0.1060650 0.1000000 -0.6060650
v 0.0707100 0.1000000 -0.5707100
v 0.0923900 0.1000000 -0.5382700
v 0.1385850 0.1000000 -0.5574050
v 0.1385850 0.1000000 -0.5574050
v 0.0923900 0.1000000 -0.5382700
v 0.1000000 0.1000000 -0.5000000
v 0.1500000 0.1000000 -0.5000000
v 0.1500000 0.1000000 -0.5000000
v 0.1000000 0.1000000 -0.5000000
v 0.0923900 0.1000000 -0.4617300
v 0.1385850 0.1000000 -0.4425950
v 0.1385850 0.1000000 -0.4425950
v 0.0923900 0.1000000 -0.4617300
v 0.0707100 0.1000000 -0.4292900
v 0.1060650 0.1000000 -0.3939350
v 0.1060650 0.1000000 -0.3939350
v 0.0707100 0.1000000 -0.4292900
v 0.0382700 0.1000000 -0.4076100
v 0.0574050 0.1000000 -0.3614150
v 0.0574050 0.1000000 -0.3614150
v 0.0382700 0.1000000 -0.4076100
v 0.0000000 0.1000000 -0.4000000
v 0.0000000 0.1000000 -0.3500000
v 0.0000000 -0.1499500 -0.6000000
v 0.0382700 -0.1499500 -0.5923900
v 0.0382700 -0.1000000 -0.5923900
v 0.0000000 -0.1000000 -0.6000000
v 0.0382700 -0.1499500 -0.5923900
v 0.0707100 -0.1499500 -0.5707100
v 0.0707100 -0.1000000 -0.5707100
v 0.0382700 -0.1000000 -0.5923900
v 0.0707100 -0.1499500 -0.5707100
v 0.0923900 -0.1499500 -0.5382700
v 0.0923900 -0.1000000 -0.5382700
v 0.0707100 -0.1000000 -0.5707100
v 0.0923900 -0.1499500 -0.5382700
v 0.1000000 -0.1499500 -0.5000000
v 0.1000000 -0.1000000 -0.5000000
v 0.0923900 -0.1000000 -0.5382700
v 0.1000000 -0.1499500 -0.5000000
v 0.0923900 -0.1499500 -0.4617300
v 0.0923900 -0.1000000 -0.4617300
v 0.1000000 -0.1000000 -0.5000000
v 0.0923900 -0.1499500 -0.4617300
v 0.0707100 -0.1499500 -0.4292900
v 0.0707100 -0.1000000 -0.4292900
v 0.0923900 -0.1000000 -0.4617300
v 0.0707100 -0.1499500 -0.4292900
v 0.0382700 -0.1499500 -0.4076100
v 0.0382700 -0.1000000 -0.4076100
v 0.0707100 -0.1000000 -0.4292900
v 0.0382700 -0.1499500 -0.4076100
v 0.0000000 -0.1499500 -0.4000000
v 0.0000000 -0.1000000 -0.4000000
v 0.0382700 -0.1000000 -0.4076100
v 0.0000000 -0.1499500 -0.4000000
v -0.0382700 -0.1499500 -0.4076100
v -0.0382700 -0.1000000 -0.4076100
v 0.0000000 -0.1000000 -0.4000000
v -0.0382700 -0.1499500 -0.4076100
v -0.0707100 -0.1499500 -0.4292900
v -0.0707100 -0.1000000 -0.4292900
v -0.0382700 -0.1000000 -0.4076100
v -0.0707100 -0.1499500 -0.4292900
v -0.0923900 -0.1499500 -0.4617300
v -0.0923900 -0.1000000 -0.4617300
v -0.0707100 -0.1000000 -0.4292900
v -0.0923900 -0.1499500 -0.4617300
v -0.1000000 -0.1499500 -0.5000000
v -0.1000000 -0.1000000 -0.5000000
v -0.0923900 -0.1000000 -0.4617300
v -0.1000000 -0.1499500 -0.5000000
v -0.0923900 -0.1499500 -0.5382700
v -0.0923900 -0.1000000 -0.5382700
v -0.1000000 -0.1000000 -0.5000000
v -0.0923900 -0.1499500 -0.5382700
v -0.0707100 -0.1499500 -0.5707100
v -0.0707100 -0.1000000 -0.5707100
v -0.0923900 -0.1000000 -0.5382700
v -0.0707100 -0.1499500 -0.5707100
v -0.0382700 -0.1499500 -0.5923900
v -0.0382700 -0.1000000 -0.5923900
v -0.0707100 -0.1000000 -0.5707100
v -0.0382700 -0.1499500 -0.5923900
v 0.0000000 -0.1499500 -0.6000000
v 0.0000000 -0.1000000 -0.6000000
v -0.0382700 -0.1000000 -0.5923900
v 0.0382700 -0.1575638 -0.5923900
v 0.0382700 -0.1499500 -0.5923900
v 0.0000000 -0.1499500 -0.6000000
v 0.0382700 -0.1575638 -0.5923900
v 0.0707100 -0.1792546 -0.5707100
v 0.0707100 -0.1499500 -0.5707100
v 0.0382700 -0.1499500 -0.5923900
v 0.0707100 -0.1792546 -0.5707100
v 0.0923900 -0.2117109 -0.5382700
v 0.0923900 -0.1499500 -0.5382700
v 0.0707100 -0.1499500 -0.5707100
v 0.0923900 -0.2117109 -0.5382700
v 0.1000000 -0.2500000 -0.5000000
v 0.1000000 -0.1499500 -0.5000000
v 0.0923900 -0.1499500 -0.5382700
v 0.1000000 -0.2500000 -0.5000000
v 0.0923900 -0.2882891 -0.4617300
v 0.0923900 -0.1499500 -0.4617300
v 0.1000000 -0.1499500 -0.5000000
v 0.0923900 -0.2882891 -0.4617300
v 0.0707100 -0.3207454 -0.4292900
v 0.0707100 -0.1499500 -0.4292900
v 0.0923900 -0.1499500 -0.4617300
v 0.0707100 -0.3207454 -0.4292900
v 0.0382700 -0.3424362 -0.4076100
v 0.0382700 -0.1499500 -0.4076100
v 0.0707100 -0.1499500 -0.4292900
v 0.0382700 -0.3424362 -0.4076100
v 0.0000000 -0.3500500 -0.4000000
v 0.0000000 -0.1499500 -0.4000000
v 0.0382700 -0.1499500 -0.4076100
v 0.0000000 -0.3500500 -0.4000000
v -0.0382700 -0.3424362 -0.4076100
v -0.0382700 -0.1499500 -0.4076100
v 0.0000000 -0.1499500 -0.4000000
v -0.0382700 -0.3424362 -0.4076100
v -0.0707100 -0.3207454 -0.4292900
v -0.0707100 -0.1499500 -0.4292900
v -0.0382700 -0.1499500 -0.4076100
v -0.0707100 -0.3207454 -0.4292900
v -0.0923900 -0.2882891 -0.4617300
v -0.0923900 -0.1499500 -0.4617300
v -0.0707100 -0.1499500 -0.4292900
v -0.0923900 -0.2882891 -0.4617300
v -0.1000000 -0.2500000 -0.5000000
v -0.1000000 -0.1499500 -0.5000000
v -0.0923900 -0.1499500 -0.4617300
v -0.1000000 -0.2500000 -0.5000000
v -0.0923900 -0.2117109 -0.5382700
v -0.0923900 -0.1499500 -0.5382700
v -0.1000000 -0.1499500 -0.5000000
v -0.0923900 -0.2117109 -0.5382700
v -0.0707100 -0.1792546 -0.5707100
v -0.0707100 -0.1499500 -0.5707100
v -0.0923900 -0.1499500 -0.5382700
v -0.0707100 -0.1792546 -0.5707100
v -0.0382700 -0.1575638 -0.5923900
v -0.0382700 -0.1499500 -0.5923900
v -0.0707100 -0.1499500 -0.5707100
v -0.0382700 -0.1499500 -0.5923900
v -0.0382700 -0.1575638 -0.5923900
v 0.0000000 -0.1499500 -0.6000000
v 0.0000000 -0.1000000 -0.6500000
v 0.0574050 -0.1000000 -0.6385850
v 0.0574050 -0.1114150 -0.6385850
v 0.0574050 -0.1000000 -0.6385850
v 0.1060650 -0.1000000 -0.6060650
v 0.1060650 -0.1439350 -0.6060650
v 0.0574050 -0.1114150 -0.6385850
v 0.1060650 -0.1000000 -0.6060650
v 0.1385850 -0.1000000 -0.5574050
v 0.1385850 -0.1925950 -0.5574050
v 0.1060650 -0.1439350 -0.6060650
v 0.1385850 -0.1000000 -0.5574050
v 0.1500000 -0.1000000 -0.5000000
v 0.1500000 -0.2500000 -0.5000000
v 0.1385850 -0.1925950 -0.5574050
v 0.1500000 -0.1000000 -0.5000000
v 0.1385850 -0.1000000 -0.4425950
v 0.1385850 -0.3074050 -0.4425950
v 0.1500000 -0.2500000 -0.5000000
v 0.1385850 -0.1000000 -0.4425950
v 0.1060650 -0.1000000 -0.3939350
v 0.1060650 -0.3560650 -0.3939350
v 0.1385850 -0.3074050 -0.4425950
v 0.1060650 -0.1000000 -0.3939350
v 0.0574050 -0.1000000 -0.3614150
v 0.0574050 -0.3885850 -0.3614150
v 0.1060650 -0.3560650 -0.3939350
v 0.0574050 -0.1000000 -0.3614150
v 0.0000000 -0.1000000 -0.3500000
v 0.0000000 -0.4000000 -0.3500000
v 0.0574050 -0.3885850 -0.3614150
v 0.0000000 -0.1000000 -0.3500000
v -0.0574050 -0.1000000 -0.3614150
v -0.0574050 -0.3885850 -0.3614150
v 0.0000000 -0.4000000 -0.3500000
v -0.0574050 -0.1000000 -0.3614150
v -0.1060650 -0.1000000 -0.3939350
v -0.1060650 -0.3560650 -0.3939350
v -0.0574050 -0.3885850 -0.3614150
v -0.1060650 -0.1000000 -0.3939350
v -0.1385850 -0.1000000 -0.4425950
v -0.1385850 -0.3074050 -0.4425950
v -0.1060650 -0.3560650 -0.3939350
v -0.1385850 -0.1000000 -0.4425950
v -0.1500000 -0.1000000 -0.5000000
v -0.1500000 -0.2500000 -0.5000000
v -0.1385850 -0.3074050 -0.4425950
v -0.1500000 -0.1000000 -0.5000000
v -0.1385850 -0.1000000 -0.5574050
v -0.1385850 -0.1925950 -0.5574050
v -0.1500000 -0.2500000 -0.5000000
v -0.1385850 -0.1000000 -0.5574050
v -0.1060650 -0.1000000 -0.6060650
v -0.1060650 -0.1439350 -0.6060650
v -0.1385850 -0.1925950 -0.5574050
v -0.1060650 -0.1000000 -0.6060650
v -0.0574050 -0.1000000 -0.6385850
v -0.0574050 -0.1114150 -0.6385850
v -0.1060650 -0.1439350 -0.6060650
v 0.0000000 -0.1000000 -0.6500000
v -0.0574050 -0.1114150 -0.6385850
v -0.0574050 -0.1000000 -0.6385850
v -0.2500000 -0.6000000 -0.2500000
v -0.2500000 -0.1000000 -0.7500000
v 0.2500000 -0.1000000 -0.7500000
v 0.2500000 -0.6000000 -0.2500000
s off
f 1 2 3
f 1 3 4
f 5 6 7
f 5 7 8
f 9 10 11
f 9 11 12
f 13 14 15
f 13 15 16
f 17 18 19
f 17 19 20
f 21 22 23
f 21 23 24
f 25 26 27
f 25 27 28
f 29 30 31
f 29 31 32
f 33 34 35
f 33 35 36
f 37 38 39
f 37 39 40
f 41 42 43
f 41 43 44
f 45 46 47
f 45 47 48
f 49 50 51
f 52 53 54
f 52 54 55
f 56 57 58
f 56 58 59
f 60 61 62
f 63 64 65
f 63 65 66
f 67 68 69
f 67 69 70
f 71 72 73
f 71 73 74
f 75 76 77
f 75 77 78
f 79 80 81
f 79 81 82
f 83 84 85
f 83 85 86
f 87 88 89
f 87 89 90
f 91 92 93
f 91 93 94
f 95 96 97
f 95 97 98
f 99 100 101
f 99 101 102
f 103 104 105
f 103 105 106
f 107 108 109
f 107 109 110
f 111 112 113
f 111 113 114
f 115 116 117
f 115 117 118
f 119 120 121
f 119 121 122
f 123 124 125
f 123 125 126
f 127 128 129
f 127 129 130
f 131 132 133
f 131 133 134
f 135 136 137
f 135 137 138
f 139 140 141
f 139 141 142
f 143 144 145
f 143 145 146
f 147 148 149
f 147 149 150
f 151 152 153
f 151 153 154
f 155 156 157
f 155 157 158
f 159 160 161
f 162 163 164
f 165 166 167
f 168 169 170
f 171 172 173
f 174 175 176
f 177 178 179
f 180 181 182
f 183 184 185
f 186 187 188
f 189 190 191
f 192 193 194
f 195 196 197
f 198 199 200
f 201 202 203
f 204 205 206
f 207 208 209
f 207 209 210
f 211 212 213
f 211 213 214
f 215 216 217
f 215 217 218
f 219 220 221
f 219 221 222
f 223 224 225
f 223 225 226
f 227 228 229
f 227 229 230
f 231 232 233
f 231 233 234
f 235 236 237
f 235 237 238
f 239 240 241
f 239 241 242
f 243 244 245
f 243 245 246
f 247 248 249
f 247 249 250
f 251 252 253
f 251 253 254
f 255 256 257
f 255 257 258
f 259 260 261
f 259 261 262
f 263 264 265
f 263 265 266
f 267 268 269
f 267 269 270
f 271 272 273
f 271 273 274
f 275 276 277
f 275 277 278
f 279 280 281
f 279 281 282
f 283 284 285
f 283 285 286
f 287 288 289
f 287 289 290
f 291 292 293
f 291 293 294
f 295 296 297
f 295 297 298
f 299 300 301
f 299 301 302
f 303 304 305
f 303 305 306
f 307 308 309
f 307 309 310
f 311 312 313
f 311 313 314
f 315 316 317
f 315 317 318
f 319 320 321
f 319 321 322
f 323 324 325
f 323 325 326
f 327 328 329
f 327 329 330
f 331 332 333
f 331 333 334
f 335 336 337
f 335 337 338
f 339 340 341
f 339 341 342
f 343 344 345
f 343 345 346
f 347 348 349
f 347 349 350
f 351 352 353
f 351 353 354
f 355 356 357
f 355 357 358
f 359 360 361
f 359 361 362
f 363 364 365
f 363 365 366
f 367 368 369
f 367 369 370
f 371 372 373
f 371 373 374
f 375 376 377
f 375 377 378
f 379 380 381
f 379 381 382
f 383 384 385
f 383 385 386
f 387 388 389
f 387 389 390
f 391 392 393
f 391 393 394
f 395 396 397
f 395 397 398
f 399 400 401
f 399 401 402
f 403 404 405
f 403 405 406
f 407 408 409
f 407 409 410
f 411 412 413
f 411 413 414
f 415 416 417
f 415 417 418
f 419 420 421
f 419 421 422
f 423 424 425
f 423 425 426
f 427 428 429
f 427 429 430
f 431 432 433
f 431 433 434
f 435 436 437
f 435 437 438
f 439 440 441
f 439 441 442
f 443 444 445
f 443 445 446
f 447 448 449
f 447 449 450
f 451 452 453
f 451 453 454
f 455 456 457
f 455 457 458
f 459 460 461
f 459 461 462
f 463 464 465
f 466 467 468
f 466 468 469
f 470 471 472
f 470 472 473
f 474 475 476
f 474 476 477
f 478 479 480
f 478 480 481
f 482 483 484
f 482 484 485
f 486 487 488
f 486 488 489
f 490 491 492
f 490 492 493
f 494 495 496
f 494 496 497
f 498 499 500
f 498 500 501
f 502 503 504
f 502 504 505
f 506 507 508
f 506 508 509
f 510 511 512
f 510 512 513
f 514 515 516
f 514 516 517
f 518 519 520
f 518 520 521
f 522 523 524
f 525 526 527
f 528 529 530
f 528 530 531
f 532 533 534
f 532 534 535
f 536 537 538
f 536 538 539
f 540 541 542
f 540 542 543
f 544 545 546
f 544 546 547
f 548 549 550
f 548 550 551
f 552 553 554
f 552 554 555
f 556 557 558
f 556 558 559
f 560 561 562
f 560 562 563
f 564 565 566
f 564 566 567
f 568 569 570
f 568 570 571
f 572 573 574
f 572 574 575
f 576 577 578
f 576 578 579
f 580 581 582
f 580 582 583
f 584 585 586
f 587 588 589
f 587 589 590
