# Baked from official LDraw part 3710.dat
o ldraw_3710
v -0.5000000 -0.2000000 0.0000000
v -0.4000000 -0.2000000 0.0000000
v -0.4076100 -0.2000000 0.0382700
v -0.5000000 -0.2000000 0.0000000
v -0.4076100 -0.2000000 0.0382700
v -0.4292900 -0.2000000 0.0707100
v -0.5000000 -0.2000000 0.0000000
v -0.4292900 -0.2000000 0.0707100
v -0.4617300 -0.2000000 0.0923900
v -0.5000000 -0.2000000 0.0000000
v -0.4617300 -0.2000000 0.0923900
v -0.5000000 -0.2000000 0.1000000
v -0.5000000 -0.2000000 0.0000000
v -0.5000000 -0.2000000 0.1000000
v -0.5382700 -0.2000000 0.0923900
v -0.5000000 -0.2000000 0.0000000
v -0.5382700 -0.2000000 0.0923900
v -0.5707100 -0.2000000 0.0707100
v -0.5000000 -0.2000000 0.0000000
v -0.5707100 -0.2000000 0.0707100
v -0.5923900 -0.2000000 0.0382700
v -0.5000000 -0.2000000 0.0000000
v -0.5923900 -0.2000000 0.0382700
v -0.6000000 -0.2000000 0.0000000
v -0.5000000 -0.2000000 0.0000000
v -0.6000000 -0.2000000 0.0000000
v -0.5923900 -0.2000000 -0.0382700
v -0.5000000 -0.2000000 0.0000000
v -0.5923900 -0.2000000 -0.0382700
v -0.5707100 -0.2000000 -0.0707100
v -0.5000000 -0.2000000 0.0000000
v -0.5707100 -0.2000000 -0.0707100
v -0.5382700 -0.2000000 -0.0923900
v -0.5000000 -0.2000000 0.0000000
v -0.5382700 -0.2000000 -0.0923900
v -0.5000000 -0.2000000 -0.1000000
v -0.5000000 -0.2000000 0.0000000
v -0.5000000 -0.2000000 -0.1000000
v -0.4617300 -0.2000000 -0.0923900
v -0.5000000 -0.2000000 0.0000000
v -0.4617300 -0.2000000 -0.0923900
v -0.4292900 -0.2000000 -0.0707100
v -0.5000000 -0.2000000 0.0000000
v -0.4292900 -0.2000000 -0.0707100
v -0.4076100 -0.2000000 -0.0382700
v -0.5000000 -0.2000000 0.0000000
v -0.4076100 -0.2000000 -0.0382700
v -0.4000000 -0.2000000 0.0000000
v -0.4000000 -0.1000000 0.0000000
v -0.4076100 -0.1000000 0.0382700
v -0.4076100 -0.2000000 0.0382700
v -0.4000000 -0.2000000 0.0000000
v -0.4076100 -0.1000000 0.0382700
v -0.4292900 -0.1000000 0.0707100
v -0.4292900 -0.2000000 0.0707100
v -0.4076100 -0.2000000 0.0382700
v -0.4292900 -0.1000000 0.0707100
v -0.4617300 -0.1000000 0.0923900
v -0.4617300 -0.2000000 0.0923900
v -0.4292900 -0.2000000 0.0707100
v -0.4617300 -0.1000000 0.0923900
v -0.5000000 -0.1000000 0.1000000
v -0.5000000 -0.2000000 0.1000000
v -0.4617300 -0.2000000 0.0923900
v -0.5000000 -0.1000000 0.1000000
v -0.5382700 -0.1000000 0.0923900
v -0.5382700 -0.2000000 0.0923900
v -0.5000000 -0.2000000 0.1000000
v -0.5382700 -0.1000000 0.0923900
v -0.5707100 -0.1000000 0.0707100
v -0.5707100 -0.2000000 0.0707100
v -0.5382700 -0.2000000 0.0923900
v -0.5707100 -0.1000000 0.0707100
v -0.5923900 -0.1000000 0.0382700
v -0.5923900 -0.2000000 0.0382700
v -0.5707100 -0.2000000 0.0707100
v -0.5923900 -0.1000000 0.0382700
v -0.6000000 -0.1000000 0.0000000
v -0.6000000 -0.2000000 0.0000000
v -0.5923900 -0.2000000 0.0382700
v -0.6000000 -0.1000000 0.0000000
v -0.5923900 -0.1000000 -0.0382700
v -0.5923900 -0.2000000 -0.0382700
v -0.6000000 -0.2000000 0.0000000
v -0.5923900 -0.1000000 -0.0382700
v -0.5707100 -0.1000000 -0.0707100
v -0.5707100 -0.2000000 -0.0707100
v -0.5923900 -0.2000000 -0.0382700
v -0.5707100 -0.1000000 -0.0707100
v -0.5382700 -0.1000000 -0.0923900
v -0.5382700 -0.2000000 -0.0923900
v -0.5707100 -0.2000000 -0.0707100
v -0.5382700 -0.1000000 -0.0923900
v -0.5000000 -0.1000000 -0.1000000
v -0.5000000 -0.2000000 -0.1000000
v -0.5382700 -0.2000000 -0.0923900
v -0.5000000 -0.1000000 -0.1000000
v -0.4617300 -0.1000000 -0.0923900
v -0.4617300 -0.2000000 -0.0923900
v -0.5000000 -0.2000000 -0.1000000
v -0.4617300 -0.1000000 -0.0923900
v -0.4292900 -0.1000000 -0.0707100
v -0.4292900 -0.2000000 -0.0707100
v -0.4617300 -0.2000000 -0.0923900
v -0.4292900 -0.1000000 -0.0707100
v -0.4076100 -0.1000000 -0.0382700
v -0.4076100 -0.2000000 -0.0382700
v -0.4292900 -0.2000000 -0.0707100
v -0.4076100 -0.1000000 -0.0382700
v -0.4000000 -0.1000000 0.0000000
v -0.4000000 -0.2000000 0.0000000
v -0.4076100 -0.2000000 -0.0382700
v 0.0000000 -0.2000000 0.0000000
v 0.1000000 -0.2000000 0.0000000
v 0.0923900 -0.2000000 0.0382700
v 0.0000000 -0.2000000 0.0000000
v 0.0923900 -0.2000000 0.0382700
v 0.0707100 -0.2000000 0.0707100
v 0.0000000 -0.2000000 0.0000000
v 0.0707100 -0.2000000 0.0707100
v 0.0382700 -0.2000000 0.0923900
v 0.0000000 -0.2000000 0.0000000
v 0.0382700 -0.2000000 0.0923900
v 0.0000000 -0.2000000 0.1000000
v 0.0000000 -0.2000000 0.0000000
v 0.0000000 -0.2000000 0.1000000
v -0.0382700 -0.2000000 0.0923900
v 0.0000000 -0.2000000 0.0000000
v -0.0382700 -0.2000000 0.0923900
v -0.0707100 -0.2000000 0.0707100
v 0.0000000 -0.2000000 0.0000000
v -0.0707100 -0.2000000 0.0707100
v -0.0923900 -0.2000000 0.0382700
v 0.0000000 -0.2000000 0.0000000
v -0.0923900 -0.2000000 0.0382700
v -0.1000000 -0.2000000 0.0000000
v 0.0000000 -0.2000000 0.0000000
v -0.1000000 -0.2000000 0.0000000
v -0.0923900 -0.2000000 -0.0382700
v 0.0000000 -0.2000000 0.0000000
v -0.0923900 -0.2000000 -0.0382700
v -0.0707100 -0.2000000 -0.0707100
v 0.0000000 -0.2000000 0.0000000
v -0.0707100 -0.2000000 -0.0707100
v -0.0382700 -0.2000000 -0.0923900
v 0.0000000 -0.2000000 0.0000000
v -0.0382700 -0.2000000 -0.0923900
v 0.0000000 -0.2000000 -0.1000000
v 0.0000000 -0.2000000 0.0000000
v 0.0000000 -0.2000000 -0.1000000
v 0.0382700 -0.2000000 -0.0923900
v 0.0000000 -0.2000000 0.0000000
v 0.0382700 -0.2000000 -0.0923900
v 0.0707100 -0.2000000 -0.0707100
v 0.0000000 -0.2000000 0.0000000
v 0.0707100 -0.2000000 -0.0707100
v 0.0923900 -0.2000000 -0.0382700
v 0.0000000 -0.2000000 0.0000000
v 0.0923900 -0.2000000 -0.0382700
v 0.1000000 -0.2000000 0.0000000
v 0.1000000 -0.1000000 0.0000000
v 0.0923900 -0.1000000 0.0382700
v 0.0923900 -0.2000000 0.0382700
v 0.1000000 -0.2000000 0.0000000
v 0.0923900 -0.1000000 0.0382700
v 0.0707100 -0.1000000 0.0707100
v 0.0707100 -0.2000000 0.0707100
v 0.0923900 -0.2000000 0.0382700
v 0.0707100 -0.1000000 0.0707100
v 0.0382700 -0.1000000 0.0923900
v 0.0382700 -0.2000000 0.0923900
v 0.0707100 -0.2000000 0.0707100
v 0.0382700 -0.1000000 0.0923900
v 0.0000000 -0.1000000 0.1000000
v 0.0000000 -0.2000000 0.1000000
v 0.0382700 -0.2000000 0.0923900
v 0.0000000 -0.1000000 0.1000000
v -0.0382700 -0.1000000 0.0923900
v -0.0382700 -0.2000000 0.0923900
v 0.0000000 -0.2000000 0.1000000
v -0.0382700 -0.1000000 0.0923900
v -0.0707100 -0.1000000 0.0707100
v -0.0707100 -0.2000000 0.0707100
v -0.0382700 -0.2000000 0.0923900
v -0.0707100 -0.1000000 0.0707100
v -0.0923900 -0.1000000 0.0382700
v -0.0923900 -0.2000000 0.0382700
v -0.0707100 -0.2000000 0.0707100
v -0.0923900 -0.1000000 0.0382700
v -0.1000000 -0.1000000 0.0000000
v -0.1000000 -0.2000000 0.0000000
v -0.0923900 -0.2000000 0.0382700
v -0.1000000 -0.1000000 0.0000000
v -0.0923900 -0.1000000 -0.0382700
v -0.0923900 -0.2000000 -0.0382700
v -0.1000000 -0.2000000 0.0000000
v -0.0923900 -0.1000000 -0.0382700
v -0.0707100 -0.1000000 -0.0707100
v -0.0707100 -0.2000000 -0.0707100
v -0.0923900 -0.2000000 -0.0382700
v -0.0707100 -0.1000000 -0.0707100
v -0.0382700 -0.1000000 -0.0923900
v -0.0382700 -0.2000000 -0.0923900
v -0.0707100 -0.2000000 -0.0707100
v -0.0382700 -0.1000000 -0.0923900
v 0.0000000 -0.1000000 -0.1000000
v 0.0000000 -0.2000000 -0.1000000
v -0.0382700 -0.2000000 -0.0923900
v 0.0000000 -0.1000000 -0.1000000
v 0.0382700 -0.1000000 -0.0923900
v 0.0382700 -0.2000000 -0.0923900
v 0.0000000 -0.2000000 -0.1000000
v 0.0382700 -0.1000000 -0.0923900
v 0.0707100 -0.1000000 -0.0707100
v 0.0707100 -0.2000000 -0.0707100
v 0.0382700 -0.2000000 -0.0923900
v 0.0707100 -0.1000000 -0.0707100
v 0.0923900 -0.1000000 -0.0382700
v 0.0923900 -0.2000000 -0.0382700
v 0.0707100 -0.2000000 -0.0707100
v 0.0923900 -0.1000000 -0.0382700
v 0.1000000 -0.1000000 0.0000000
v 0.1000000 -0.2000000 0.0000000
v 0.0923900 -0.2000000 -0.0382700
v 0.5000000 -0.2000000 0.0000000
v 0.6000000 -0.2000000 0.0000000
v 0.5923900 -0.2000000 0.0382700
v 0.5000000 -0.2000000 0.0000000
v 0.5923900 -0.2000000 0.0382700
v 0.5707100 -0.2000000 0.0707100
v 0.5000000 -0.2000000 0.0000000
v 0.5707100 -0.2000000 0.0707100
v 0.5382700 -0.2000000 0.0923900
v 0.5000000 -0.2000000 0.0000000
v 0.5382700 -0.2000000 0.0923900
v 0.5000000 -0.2000000 0.1000000
v 0.5000000 -0.2000000 0.0000000
v 0.5000000 -0.2000000 0.1000000
v 0.4617300 -0.2000000 0.0923900
v 0.5000000 -0.2000000 0.0000000
v 0.4617300 -0.2000000 0.0923900
v 0.4292900 -0.2000000 0.0707100
v 0.5000000 -0.2000000 0.0000000
v 0.4292900 -0.2000000 0.0707100
v 0.4076100 -0.2000000 0.0382700
v 0.5000000 -0.2000000 0.0000000
v 0.4076100 -0.2000000 0.0382700
v 0.4000000 -0.2000000 0.0000000
v 0.5000000 -0.2000000 0.0000000
v 0.4000000 -0.2000000 0.0000000
v 0.4076100 -0.2000000 -0.0382700
v 0.5000000 -0.2000000 0.0000000
v 0.4076100 -0.2000000 -0.0382700
v 0.4292900 -0.2000000 -0.0707100
v 0.5000000 -0.2000000 0.0000000
v 0.4292900 -0.2000000 -0.0707100
v 0.4617300 -0.2000000 -0.0923900
v 0.5000000 -0.2000000 0.0000000
v 0.4617300 -0.2000000 -0.0923900
v 0.5000000 -0.2000000 -0.1000000
v 0.5000000 -0.2000000 0.0000000
v 0.5000000 -0.2000000 -0.1000000
v 0.5382700 -0.2000000 -0.0923900
v 0.5000000 -0.2000000 0.0000000
v 0.5382700 -0.2000000 -0.0923900
v 0.5707100 -0.2000000 -0.0707100
v 0.5000000 -0.2000000 0.0000000
v 0.5707100 -0.2000000 -0.0707100
v 0.5923900 -0.2000000 -0.0382700
v 0.5000000 -0.2000000 0.0000000
v 0.5923900 -0.2000000 -0.0382700
v 0.6000000 -0.2000000 0.0000000
v 0.6000000 -0.1000000 0.0000000
v 0.5923900 -0.1000000 0.0382700
v 0.5923900 -0.2000000 0.0382700
v 0.6000000 -0.2000000 0.0000000
v 0.5923900 -0.1000000 0.0382700
v 0.5707100 -0.1000000 0.0707100
v 0.5707100 -0.2000000 0.0707100
v 0.5923900 -0.2000000 0.0382700
v 0.5707100 -0.1000000 0.0707100
v 0.5382700 -0.1000000 0.0923900
v 0.5382700 -0.2000000 0.0923900
v 0.5707100 -0.2000000 0.0707100
v 0.5382700 -0.1000000 0.0923900
v 0.5000000 -0.1000000 0.1000000
v 0.5000000 -0.2000000 0.1000000
v 0.5382700 -0.2000000 0.0923900
v 0.5000000 -0.1000000 0.1000000
v 0.4617300 -0.1000000 0.0923900
v 0.4617300 -0.2000000 0.0923900
v 0.5000000 -0.2000000 0.1000000
v 0.4617300 -0.1000000 0.0923900
v 0.4292900 -0.1000000 0.0707100
v 0.4292900 -0.2000000 0.0707100
v 0.4617300 -0.2000000 0.0923900
v 0.4292900 -0.1000000 0.0707100
v 0.4076100 -0.1000000 0.0382700
v 0.4076100 -0.2000000 0.0382700
v 0.4292900 -0.2000000 0.0707100
v 0.4076100 -0.1000000 0.0382700
v 0.4000000 -0.1000000 0.0000000
v 0.4000000 -0.2000000 0.0000000
v 0.4076100 -0.2000000 0.0382700
v 0.4000000 -0.1000000 0.0000000
v 0.4076100 -0.1000000 -0.0382700
v 0.4076100 -0.2000000 -0.0382700
v 0.4000000 -0.2000000 0.0000000
v 0.4076100 -0.1000000 -0.0382700
v 0.4292900 -0.1000000 -0.0707100
v 0.4292900 -0.2000000 -0.0707100
v 0.4076100 -0.2000000 -0.0382700
v 0.4292900 -0.1000000 -0.0707100
v 0.4617300 -0.1000000 -0.0923900
v 0.4617300 -0.2000000 -0.0923900
v 0.4292900 -0.2000000 -0.0707100
v 0.4617300 -0.1000000 -0.0923900
v 0.5000000 -0.1000000 -0.1000000
v 0.5000000 -0.2000000 -0.1000000
v 0.4617300 -0.2000000 -0.0923900
v 0.5000000 -0.1000000 -0.1000000
v 0.5382700 -0.1000000 -0.0923900
v 0.5382700 -0.2000000 -0.0923900
v 0.5000000 -0.2000000 -0.1000000
v 0.5382700 -0.1000000 -0.0923900
v 0.5707100 -0.1000000 -0.0707100
v 0.5707100 -0.2000000 -0.0707100
v 0.5382700 -0.2000000 -0.0923900
v 0.5707100 -0.1000000 -0.0707100
v 0.5923900 -0.1000000 -0.0382700
v 0.5923900 -0.2000000 -0.0382700
v 0.5707100 -0.2000000 -0.0707100
v 0.5923900 -0.1000000 -0.0382700
v 0.6000000 -0.1000000 0.0000000
v 0.6000000 -0.2000000 0.0000000
v 0.5923900 -0.2000000 -0.0382700
v -0.9000000 -0.1000000 -0.1500000
v 0.9000000 -0.1000000 -0.1500000
v 0.9000000 -0.1000000 0.1500000
v -0.9000000 -0.1000000 0.1500000
v 0.9000000 -0.1000000 0.1500000
v 0.9000000 -0.2000000 0.1500000
v -0.9000000 -0.2000000 0.1500000
v -0.9000000 -0.1000000 0.1500000
v -0.9000000 -0.1000000 0.1500000
v -0.9000000 -0.2000000 0.1500000
v -0.9000000 -0.2000000 -0.1500000
v -0.9000000 -0.1000000 -0.1500000
v -0.9000000 -0.1000000 -0.1500000
v -0.9000000 -0.2000000 -0.1500000
v 0.9000000 -0.2000000 -0.1500000
v 0.9000000 -0.1000000 -0.1500000
v 0.9000000 -0.1000000 -0.1500000
v 0.9000000 -0.2000000 -0.1500000
v 0.9000000 -0.2000000 0.1500000
v 0.9000000 -0.1000000 0.1500000
v -1.0000000 -0.2000000 0.2500000
v -0.9000000 -0.2000000 0.1500000
v 0.9000000 -0.2000000 0.1500000
v 1.0000000 -0.2000000 0.2500000
v -1.0000000 -0.2000000 -0.2500000
v -0.9000000 -0.2000000 -0.1500000
v -0.9000000 -0.2000000 0.1500000
v -1.0000000 -0.2000000 0.2500000
v 1.0000000 -0.2000000 -0.2500000
v 0.9000000 -0.2000000 -0.1500000
v -0.9000000 -0.2000000 -0.1500000
v -1.0000000 -0.2000000 -0.2500000
v 1.0000000 -0.2000000 0.2500000
v 0.9000000 -0.2000000 0.1500000
v 0.9000000 -0.2000000 -0.1500000
v 1.0000000 -0.2000000 -0.2500000
v 1.0000000 -0.0000000 0.2500000
v 1.0000000 -0.0000000 -0.2500000
v -1.0000000 -0.0000000 -0.2500000
v -1.0000000 -0.0000000 0.2500000
v 1.0000000 -0.0000000 0.2500000
v -1.0000000 -0.0000000 0.2500000
v -1.0000000 -0.2000000 0.2500000
v 1.0000000 -0.2000000 0.2500000
v -1.0000000 -0.0000000 0.2500000
v -1.0000000 -0.0000000 -0.2500000
v -1.0000000 -0.2000000 -0.2500000
v -1.0000000 -0.2000000 0.2500000
v 1.0000000 -0.0000000 -0.2500000
v 1.0000000 -0.0000000 0.2500000
v 1.0000000 -0.2000000 0.2500000
v 1.0000000 -0.2000000 -0.2500000
v -0.6000000 0.1000000 0.0000000
v -0.6114150 0.1000000 0.0574050
v -0.6114150 -0.0000000 0.0574050
v -0.6000000 -0.0000000 0.0000000
v -0.6114150 0.1000000 0.0574050
v -0.6439350 0.1000000 0.1060650
v -0.6439350 -0.0000000 0.1060650
v -0.6114150 -0.0000000 0.0574050
v -0.6439350 0.1000000 0.1060650
v -0.6925950 0.1000000 0.1385850
v -0.6925950 -0.0000000 0.1385850
v -0.6439350 -0.0000000 0.1060650
v -0.6925950 0.1000000 0.1385850
v -0.7500000 0.1000000 0.1500000
v -0.7500000 -0.0000000 0.1500000
v -0.6925950 -0.0000000 0.1385850
v -0.7500000 0.1000000 0.1500000
v -0.8074050 0.1000000 0.1385850
v -0.8074050 -0.0000000 0.1385850
v -0.7500000 -0.0000000 0.1500000
v -0.8074050 0.1000000 0.1385850
v -0.8560650 0.1000000 0.1060650
v -0.8560650 -0.0000000 0.1060650
v -0.8074050 -0.0000000 0.1385850
v -0.8560650 0.1000000 0.1060650
v -0.8885850 0.1000000 0.0574050
v -0.8885850 -0.0000000 0.0574050
v -0.8560650 -0.0000000 0.1060650
v -0.8885850 0.1000000 0.0574050
v -0.9000000 0.1000000 0.0000000
v -0.9000000 -0.0000000 0.0000000
v -0.8885850 -0.0000000 0.0574050
v -0.9000000 0.1000000 0.0000000
v -0.8885850 0.1000000 -0.0574050
v -0.8885850 -0.0000000 -0.0574050
v -0.9000000 -0.0000000 0.0000000
v -0.8885850 0.1000000 -0.0574050
v -0.8560650 0.1000000 -0.1060650
v -0.8560650 -0.0000000 -0.1060650
v -0.8885850 -0.0000000 -0.0574050
v -0.8560650 0.1000000 -0.1060650
v -0.8074050 0.1000000 -0.1385850
v -0.8074050 -0.0000000 -0.1385850
v -0.8560650 -0.0000000 -0.1060650
v -0.8074050 0.1000000 -0.1385850
v -0.7500000 0.1000000 -0.1500000
v -0.7500000 -0.0000000 -0.1500000
v -0.8074050 -0.0000000 -0.1385850
v -0.7500000 0.1000000 -0.1500000
v -0.6925950 0.1000000 -0.1385850
v -0.6925950 -0.0000000 -0.1385850
v -0.7500000 -0.0000000 -0.1500000
v -0.6925950 0.1000000 -0.1385850
v -0.6439350 0.1000000 -0.1060650
v -0.6439350 -0.0000000 -0.1060650
v -0.6925950 -0.0000000 -0.1385850
v -0.6439350 0.1000000 -0.1060650
v -0.6114150 0.1000000 -0.0574050
v -0.6114150 -0.0000000 -0.0574050
v -0.6439350 -0.0000000 -0.1060650
v -0.6114150 0.1000000 -0.0574050
v -0.6000000 0.1000000 0.0000000
v -0.6000000 -0.0000000 0.0000000
v -0.6114150 -0.0000000 -0.0574050
v -0.6114150 0.1000000 0.0574050
v -0.6000000 0.1000000 0.0000000
v -0.7500000 0.1000000 0.0000000
v -0.6439350 0.1000000 0.1060650
v -0.6114150 0.1000000 0.0574050
v -0.7500000 0.1000000 0.0000000
v -0.6925950 0.1000000 0.1385850
v -0.6439350 0.1000000 0.1060650
v -0.7500000 0.1000000 0.0000000
v -0.7500000 0.1000000 0.1500000
v -0.6925950 0.1000000 0.1385850
v -0.7500000 0.1000000 0.0000000
v -0.8074050 0.1000000 0.1385850
v -0.7500000 0.1000000 0.1500000
v -0.7500000 0.1000000 0.0000000
v -0.8560650 0.1000000 0.1060650
v -0.8074050 0.1000000 0.1385850
v -0.7500000 0.1000000 0.0000000
v -0.8885850 0.1000000 0.0574050
v -0.8560650 0.1000000 0.1060650
v -0.7500000 0.1000000 0.0000000
v -0.9000000 0.1000000 0.0000000
v -0.8885850 0.1000000 0.0574050
v -0.7500000 0.1000000 0.0000000
v -0.8885850 0.1000000 -0.0574050
v -0.9000000 0.1000000 0.0000000
v -0.7500000 0.1000000 0.0000000
v -0.8560650 0.1000000 -0.1060650
v -0.8885850 0.1000000 -0.0574050
v -0.7500000 0.1000000 0.0000000
v -0.8074050 0.1000000 -0.1385850
v -0.8560650 0.1000000 -0.1060650
v -0.7500000 0.1000000 0.0000000
v -0.7500000 0.1000000 -0.1500000
v -0.8074050 0.1000000 -0.1385850
v -0.7500000 0.1000000 0.0000000
v -0.6925950 0.1000000 -0.1385850
v -0.7500000 0.1000000 -0.1500000
v -0.7500000 0.1000000 0.0000000
v -0.6439350 0.1000000 -0.1060650
v -0.6925950 0.1000000 -0.1385850
v -0.7500000 0.1000000 0.0000000
v -0.6114150 0.1000000 -0.0574050
v -0.6439350 0.1000000 -0.1060650
v -0.7500000 0.1000000 0.0000000
v -0.6000000 0.1000000 0.0000000
v -0.6114150 0.1000000 -0.0574050
v -0.7500000 0.1000000 0.0000000
v -0.1000000 0.1000000 0.0000000
v -0.1114150 0.1000000 0.0574050
v -0.1114150 -0.0000000 0.0574050
v -0.1000000 -0.0000000 0.0000000
v -0.1114150 0.1000000 0.0574050
v -0.1439350 0.1000000 0.1060650
v -0.1439350 -0.0000000 0.1060650
v -0.1114150 -0.0000000 0.0574050
v -0.1439350 0.1000000 0.1060650
v -0.1925950 0.1000000 0.1385850
v -0.1925950 -0.0000000 0.1385850
v -0.1439350 -0.0000000 0.1060650
v -0.1925950 0.1000000 0.1385850
v -0.2500000 0.1000000 0.1500000
v -0.2500000 -0.0000000 0.1500000
v -0.1925950 -0.0000000 0.1385850
v -0.2500000 0.1000000 0.1500000
v -0.3074050 0.1000000 0.1385850
v -0.3074050 -0.0000000 0.1385850
v -0.2500000 -0.0000000 0.1500000
v -0.3074050 0.1000000 0.1385850
v -0.3560650 0.1000000 0.1060650
v -0.3560650 -0.0000000 0.1060650
v -0.3074050 -0.0000000 0.1385850
v -0.3560650 0.1000000 0.1060650
v -0.3885850 0.1000000 0.0574050
v -0.3885850 -0.0000000 0.0574050
v -0.3560650 -0.0000000 0.1060650
v -0.3885850 0.1000000 0.0574050
v -0.4000000 0.1000000 0.0000000
v -0.4000000 -0.0000000 0.0000000
v -0.3885850 -0.0000000 0.0574050
v -0.4000000 0.1000000 0.0000000
v -0.3885850 0.1000000 -0.0574050
v -0.3885850 -0.0000000 -0.0574050
v -0.4000000 -0.0000000 0.0000000
v -0.3885850 0.1000000 -0.0574050
v -0.3560650 0.1000000 -0.1060650
v -0.3560650 -0.0000000 -0.1060650
v -0.3885850 -0.0000000 -0.0574050
v -0.3560650 0.1000000 -0.1060650
v -0.3074050 0.1000000 -0.1385850
v -0.3074050 -0.0000000 -0.1385850
v -0.3560650 -0.0000000 -0.1060650
v -0.3074050 0.1000000 -0.1385850
v -0.2500000 0.1000000 -0.1500000
v -0.2500000 -0.0000000 -0.1500000
v -0.3074050 -0.0000000 -0.1385850
v -0.2500000 0.1000000 -0.1500000
v -0.1925950 0.1000000 -0.1385850
v -0.1925950 -0.0000000 -0.1385850
v -0.2500000 -0.0000000 -0.1500000
v -0.1925950 0.1000000 -0.1385850
v -0.1439350 0.1000000 -0.1060650
v -0.1439350 -0.0000000 -0.1060650
v -0.1925950 -0.0000000 -0.1385850
v -0.1439350 0.1000000 -0.1060650
v -0.1114150 0.1000000 -0.0574050
v -0.1114150 -0.0000000 -0.0574050
v -0.1439350 -0.0000000 -0.1060650
v -0.1114150 0.1000000 -0.0574050
v -0.1000000 0.1000000 0.0000000
v -0.1000000 -0.0000000 0.0000000
v -0.1114150 -0.0000000 -0.0574050
v -0.1114150 0.1000000 0.0574050
v -0.1000000 0.1000000 0.0000000
v -0.2500000 0.1000000 0.0000000
v -0.1439350 0.1000000 0.1060650
v -0.1114150 0.1000000 0.0574050
v -0.2500000 0.1000000 0.0000000
v -0.1925950 0.1000000 0.1385850
v -0.1439350 0.1000000 0.1060650
v -0.2500000 0.1000000 0.0000000
v -0.2500000 0.1000000 0.1500000
v -0.1925950 0.1000000 0.1385850
v -0.2500000 0.1000000 0.0000000
v -0.3074050 0.1000000 0.1385850
v -0.2500000 0.1000000 0.1500000
v -0.2500000 0.1000000 0.0000000
v -0.3560650 0.1000000 0.1060650
v -0.3074050 0.1000000 0.1385850
v -0.2500000 0.1000000 0.0000000
v -0.3885850 0.1000000 0.0574050
v -0.3560650 0.1000000 0.1060650
v -0.2500000 0.1000000 0.0000000
v -0.4000000 0.1000000 0.0000000
v -0.3885850 0.1000000 0.0574050
v -0.2500000 0.1000000 0.0000000
v -0.3885850 0.1000000 -0.0574050
v -0.4000000 0.1000000 0.0000000
v -0.2500000 0.1000000 0.0000000
v -0.3560650 0.1000000 -0.1060650
v -0.3885850 0.1000000 -0.0574050
v -0.2500000 0.1000000 0.0000000
v -0.3074050 0.1000000 -0.1385850
v -0.3560650 0.1000000 -0.1060650
v -0.2500000 0.1000000 0.0000000
v -0.2500000 0.1000000 -0.1500000
v -0.3074050 0.1000000 -0.1385850
v -0.2500000 0.1000000 0.0000000
v -0.1925950 0.1000000 -0.1385850
v -0.2500000 0.1000000 -0.1500000
v -0.2500000 0.1000000 0.0000000
v -0.1439350 0.1000000 -0.1060650
v -0.1925950 0.1000000 -0.1385850
v -0.2500000 0.1000000 0.0000000
v -0.1114150 0.1000000 -0.0574050
v -0.1439350 0.1000000 -0.1060650
v -0.2500000 0.1000000 0.0000000
v -0.1000000 0.1000000 0.0000000
v -0.1114150 0.1000000 -0.0574050
v -0.2500000 0.1000000 0.0000000
v 0.4000000 0.1000000 0.0000000
v 0.3885850 0.1000000 0.0574050
v 0.3885850 -0.0000000 0.0574050
v 0.4000000 -0.0000000 0.0000000
v 0.3885850 0.1000000 0.0574050
v 0.3560650 0.1000000 0.1060650
v 0.3560650 -0.0000000 0.1060650
v 0.3885850 -0.0000000 0.0574050
v 0.3560650 0.1000000 0.1060650
v 0.3074050 0.1000000 0.1385850
v 0.3074050 -0.0000000 0.1385850
v 0.3560650 -0.0000000 0.1060650
v 0.3074050 0.1000000 0.1385850
v 0.2500000 0.1000000 0.1500000
v 0.2500000 -0.0000000 0.1500000
v 0.3074050 -0.0000000 0.1385850
v 0.2500000 0.1000000 0.1500000
v 0.1925950 0.1000000 0.1385850
v 0.1925950 -0.0000000 0.1385850
v 0.2500000 -0.0000000 0.1500000
v 0.1925950 0.1000000 0.1385850
v 0.1439350 0.1000000 0.1060650
v 0.1439350 -0.0000000 0.1060650
v 0.1925950 -0.0000000 0.1385850
v 0.1439350 0.1000000 0.1060650
v 0.1114150 0.1000000 0.0574050
v 0.1114150 -0.0000000 0.0574050
v 0.1439350 -0.0000000 0.1060650
v 0.1114150 0.1000000 0.0574050
v 0.1000000 0.1000000 0.0000000
v 0.1000000 -0.0000000 0.0000000
v 0.1114150 -0.0000000 0.0574050
v 0.1000000 0.1000000 0.0000000
v 0.1114150 0.1000000 -0.0574050
v 0.1114150 -0.0000000 -0.0574050
v 0.1000000 -0.0000000 0.0000000
v 0.1114150 0.1000000 -0.0574050
v 0.1439350 0.1000000 -0.1060650
v 0.1439350 -0.0000000 -0.1060650
v 0.1114150 -0.0000000 -0.0574050
v 0.1439350 0.1000000 -0.1060650
v 0.1925950 0.1000000 -0.1385850
v 0.1925950 -0.0000000 -0.1385850
v 0.1439350 -0.0000000 -0.1060650
v 0.1925950 0.1000000 -0.1385850
v 0.2500000 0.1000000 -0.1500000
v 0.2500000 -0.0000000 -0.1500000
v 0.1925950 -0.0000000 -0.1385850
v 0.2500000 0.1000000 -0.1500000
v 0.3074050 0.1000000 -0.1385850
v 0.3074050 -0.0000000 -0.1385850
v 0.2500000 -0.0000000 -0.1500000
v 0.3074050 0.1000000 -0.1385850
v 0.3560650 0.1000000 -0.1060650
v 0.3560650 -0.0000000 -0.1060650
v 0.3074050 -0.0000000 -0.1385850
v 0.3560650 0.1000000 -0.1060650
v 0.3885850 0.1000000 -0.0574050
v 0.3885850 -0.0000000 -0.0574050
v 0.3560650 -0.0000000 -0.1060650
v 0.3885850 0.1000000 -0.0574050
v 0.4000000 0.1000000 0.0000000
v 0.4000000 -0.0000000 0.0000000
v 0.3885850 -0.0000000 -0.0574050
v 0.3885850 0.1000000 0.0574050
v 0.4000000 0.1000000 0.0000000
v 0.2500000 0.1000000 0.0000000
v 0.3560650 0.1000000 0.1060650
v 0.3885850 0.1000000 0.0574050
v 0.2500000 0.1000000 0.0000000
v 0.3074050 0.1000000 0.1385850
v 0.3560650 0.1000000 0.1060650
v 0.2500000 0.1000000 0.0000000
v 0.2500000 0.1000000 0.1500000
v 0.3074050 0.1000000 0.1385850
v 0.2500000 0.1000000 0.0000000
v 0.1925950 0.1000000 0.1385850
v 0.2500000 0.1000000 0.1500000
v 0.2500000 0.1000000 0.0000000
v 0.1439350 0.1000000 0.1060650
v 0.1925950 0.1000000 0.1385850
v 0.2500000 0.1000000 0.0000000
v 0.1114150 0.1000000 0.0574050
v 0.1439350 0.1000000 0.1060650
v 0.2500000 0.1000000 0.0000000
v 0.1000000 0.1000000 0.0000000
v 0.1114150 0.1000000 0.0574050
v 0.2500000 0.1000000 0.0000000
v 0.1114150 0.1000000 -0.0574050
v 0.1000000 0.1000000 0.0000000
v 0.2500000 0.1000000 0.0000000
v 0.1439350 0.1000000 -0.1060650
v 0.1114150 0.1000000 -0.0574050
v 0.2500000 0.1000000 0.0000000
v 0.1925950 0.1000000 -0.1385850
v 0.1439350 0.1000000 -0.1060650
v 0.2500000 0.1000000 0.0000000
v 0.2500000 0.1000000 -0.1500000
v 0.1925950 0.1000000 -0.1385850
v 0.2500000 0.1000000 0.0000000
v 0.3074050 0.1000000 -0.1385850
v 0.2500000 0.1000000 -0.1500000
v 0.2500000 0.1000000 0.0000000
v 0.3560650 0.1000000 -0.1060650
v 0.3074050 0.1000000 -0.1385850
v 0.2500000 0.1000000 0.0000000
v 0.3885850 0.1000000 -0.0574050
v 0.3560650 0.1000000 -0.1060650
v 0.2500000 0.1000000 0.0000000
v 0.4000000 0.1000000 0.0000000
v 0.3885850 0.1000000 -0.0574050
v 0.2500000 0.1000000 0.0000000
v 0.9000000 0.1000000 0.0000000
v 0.8885850 0.1000000 0.0574050
v 0.8885850 -0.0000000 0.0574050
v 0.9000000 -0.0000000 0.0000000
v 0.8885850 0.1000000 0.0574050
v 0.8560650 0.1000000 0.1060650
v 0.8560650 -0.0000000 0.1060650
v 0.8885850 -0.0000000 0.0574050
v 0.8560650 0.1000000 0.1060650
v 0.8074050 0.1000000 0.1385850
v 0.8074050 -0.0000000 0.1385850
v 0.8560650 -0.0000000 0.1060650
v 0.8074050 0.1000000 0.1385850
v 0.7500000 0.1000000 0.1500000
v 0.7500000 -0.0000000 0.1500000
v 0.8074050 -0.0000000 0.1385850
v 0.7500000 0.1000000 0.1500000
v 0.6925950 0.1000000 0.1385850
v 0.6925950 -0.0000000 0.1385850
v 0.7500000 -0.0000000 0.1500000
v 0.6925950 0.1000000 0.1385850
v 0.6439350 0.1000000 0.1060650
v 0.6439350 -0.0000000 0.1060650
v 0.6925950 -0.0000000 0.1385850
v 0.6439350 0.1000000 0.1060650
v 0.6114150 0.1000000 0.0574050
v 0.6114150 -0.0000000 0.0574050
v 0.6439350 -0.0000000 0.1060650
v 0.6114150 0.1000000 0.0574050
v 0.6000000 0.1000000 0.0000000
v 0.6000000 -0.0000000 0.0000000
v 0.6114150 -0.0000000 0.0574050
v 0.6000000 0.1000000 0.0000000
v 0.6114150 0.1000000 -0.0574050
v 0.6114150 -0.0000000 -0.0574050
v 0.6000000 -0.0000000 0.0000000
v 0.6114150 0.1000000 -0.0574050
v 0.6439350 0.1000000 -0.1060650
v 0.6439350 -0.0000000 -0.1060650
v 0.6114150 -0.0000000 -0.0574050
v 0.6439350 0.1000000 -0.1060650
v 0.6925950 0.1000000 -0.1385850
v 0.6925950 -0.0000000 -0.1385850
v 0.6439350 -0.0000000 -0.1060650
v 0.6925950 0.1000000 -0.1385850
v 0.7500000 0.1000000 -0.1500000
v 0.7500000 -0.0000000 -0.1500000
v 0.6925950 -0.0000000 -0.1385850
v 0.7500000 0.1000000 -0.1500000
v 0.8074050 0.1000000 -0.1385850
v 0.8074050 -0.0000000 -0.1385850
v 0.7500000 -0.0000000 -0.1500000
v 0.8074050 0.1000000 -0.1385850
v 0.8560650 0.1000000 -0.1060650
v 0.8560650 -0.0000000 -0.1060650
v 0.8074050 -0.0000000 -0.1385850
v 0.8560650 0.1000000 -0.1060650
v 0.8885850 0.1000000 -0.0574050
v 0.8885850 -0.0000000 -0.0574050
v 0.8560650 -0.0000000 -0.1060650
v 0.8885850 0.1000000 -0.0574050
v 0.9000000 0.1000000 0.0000000
v 0.9000000 -0.0000000 0.0000000
v 0.8885850 -0.0000000 -0.0574050
v 0.8885850 0.1000000 0.0574050
v 0.9000000 0.1000000 0.0000000
v 0.7500000 0.1000000 0.0000000
v 0.8560650 0.1000000 0.1060650
v 0.8885850 0.1000000 0.0574050
v 0.7500000 0.1000000 0.0000000
v 0.8074050 0.1000000 0.1385850
v 0.8560650 0.1000000 0.1060650
v 0.7500000 0.1000000 0.0000000
v 0.7500000 0.1000000 0.1500000
v 0.8074050 0.1000000 0.1385850
v 0.7500000 0.1000000 0.0000000
v 0.6925950 0.1000000 0.1385850
v 0.7500000 0.1000000 0.1500000
v 0.7500000 0.1000000 0.0000000
v 0.6439350 0.1000000 0.1060650
v 0.6925950 0.1000000 0.1385850
v 0.7500000 0.1000000 0.0000000
v 0.6114150 0.1000000 0.0574050
v 0.6439350 0.1000000 0.1060650
v 0.7500000 0.1000000 0.0000000
v 0.6000000 0.1000000 0.0000000
v 0.6114150 0.1000000 0.0574050
v 0.7500000 0.1000000 0.0000000
v 0.6114150 0.1000000 -0.0574050
v 0.6000000 0.1000000 0.0000000
v 0.7500000 0.1000000 0.0000000
v 0.6439350 0.1000000 -0.1060650
v 0.6114150 0.1000000 -0.0574050
v 0.7500000 0.1000000 0.0000000
v 0.6925950 0.1000000 -0.1385850
v 0.6439350 0.1000000 -0.1060650
v 0.7500000 0.1000000 0.0000000
v 0.7500000 0.1000000 -0.1500000
v 0.6925950 0.1000000 -0.1385850
v 0.7500000 0.1000000 0.0000000
v 0.8074050 0.1000000 -0.1385850
v 0.7500000 0.1000000 -0.1500000
v 0.7500000 0.1000000 0.0000000
v 0.8560650 0.1000000 -0.1060650
v 0.8074050 0.1000000 -0.1385850
v 0.7500000 0.1000000 0.0000000
v 0.8885850 0.1000000 -0.0574050
v 0.8560650 0.1000000 -0.1060650
v 0.7500000 0.1000000 0.0000000
v 0.9000000 0.1000000 0.0000000
v 0.8885850 0.1000000 -0.0574050
v 0.7500000 0.1000000 0.0000000
v 1.0000000 -0.0000000 -0.2500000
v 1.0000000 -0.2000000 -0.2500000
v -1.0000000 -0.2000000 -0.2500000
v -1.0000000 -0.0000000 -0.2500000
s off
f 1 2 3
f 4 5 6
f 7 8 9
f 10 11 12
f 13 14 15
f 16 17 18
f 19 20 21
f 22 23 24
f 25 26 27
f 28 29 30
f 31 32 33
f 34 35 36
f 37 38 39
f 40 41 42
f 43 44 45
f 46 47 48
f 49 50 51
f 49 51 52
f 53 54 55
f 53 55 56
f 57 58 59
f 57 59 60
f 61 62 63
f 61 63 64
f 65 66 67
f 65 67 68
f 69 70 71
f 69 71 72
f 73 74 75
f 73 75 76
f 77 78 79
f 77 79 80
f 81 82 83
f 81 83 84
f 85 86 87
f 85 87 88
f 89 90 91
f 89 91 92
f 93 94 95
f 93 95 96
f 97 98 99
f 97 99 100
f 101 102 103
f 101 103 104
f 105 106 107
f 105 107 108
f 109 110 111
f 109 111 112
f 113 114 115
f 116 117 118
f 119 120 121
f 122 123 124
f 125 126 127
f 128 129 130
f 131 132 133
f 134 135 136
f 137 138 139
f 140 141 142
f 143 144 145
f 146 147 148
f 149 150 151
f 152 153 154
f 155 156 157
f 158 159 160
f 161 162 163
f 161 163 164
f 165 166 167
f 165 167 168
f 169 170 171
f 169 171 172
f 173 174 175
f 173 175 176
f 177 178 179
f 177 179 180
f 181 182 183
f 181 183 184
f 185 186 187
f 185 187 188
f 189 190 191
f 189 191 192
f 193 194 195
f 193 195 196
f 197 198 199
f 197 199 200
f 201 202 203
f 201 203 204
f 205 206 207
f 205 207 208
f 209 210 211
f 209 211 212
f 213 214 215
f 213 215 216
f 217 218 219
f 217 219 220
f 221 222 223
f 221 223 224
f 225 226 227
f 228 229 230
f 231 232 233
f 234 235 236
f 237 238 239
f 240 241 242
f 243 244 245
f 246 247 248
f 249 250 251
f 252 253 254
f 255 256 257
f 258 259 260
f 261 262 263
f 264 265 266
f 267 268 269
f 270 271 272
f 273 274 275
f 273 275 276
f 277 278 279
f 277 279 280
f 281 282 283
f 281 283 284
f 285 286 287
f 285 287 288
f 289 290 291
f 289 291 292
f 293 294 295
f 293 295 296
f 297 298 299
f 297 299 300
f 301 302 303
f 301 303 304
f 305 306 307
f 305 307 308
f 309 310 311
f 309 311 312
f 313 314 315
f 313 315 316
f 317 318 319
f 317 319 320
f 321 322 323
f 321 323 324
f 325 326 327
f 325 327 328
f 329 330 331
f 329 331 332
f 333 334 335
f 333 335 336
f 337 338 339
f 337 339 340
f 341 342 343
f 341 343 344
f 345 346 347
f 345 347 348
f 349 350 351
f 349 351 352
f 353 354 355
f 353 355 356
f 357 358 359
f 357 359 360
f 361 362 363
f 361 363 364
f 365 366 367
f 365 367 368
f 369 370 371
f 369 371 372
f 373 374 375
f 373 375 376
f 377 378 379
f 377 379 380
f 381 382 383
f 381 383 384
f 385 386 387
f 385 387 388
f 389 390 391
f 389 391 392
f 393 394 395
f 393 395 396
f 397 398 399
f 397 399 400
f 401 402 403
f 401 403 404
f 405 406 407
f 405 407 408
f 409 410 411
f 409 411 412
f 413 414 415
f 413 415 416
f 417 418 419
f 417 419 420
f 421 422 423
f 421 423 424
f 425 426 427
f 425 427 428
f 429 430 431
f 429 431 432
f 433 434 435
f 433 435 436
f 437 438 439
f 437 439 440
f 441 442 443
f 441 443 444
f 445 446 447
f 445 447 448
f 449 450 451
f 449 451 452
f 453 454 455
f 456 457 458
f 459 460 461
f 462 463 464
f 465 466 467
f 468 469 470
f 471 472 473
f 474 475 476
f 477 478 479
f 480 481 482
f 483 484 485
f 486 487 488
f 489 490 491
f 492 493 494
f 495 496 497
f 498 499 500
f 501 502 503
f 501 503 504
f 505 506 507
f 505 507 508
f 509 510 511
f 509 511 512
f 513 514 515
f 513 515 516
f 517 518 519
f 517 519 520
f 521 522 523
f 521 523 524
f 525 526 527
f 525 527 528
f 529 530 531
f 529 531 532
f 533 534 535
f 533 535 536
f 537 538 539
f 537 539 540
f 541 542 543
f 541 543 544
f 545 546 547
f 545 547 548
f 549 550 551
f 549 551 552
f 553 554 555
f 553 555 556
f 557 558 559
f 557 559 560
f 561 562 563
f 561 563 564
f 565 566 567
f 568 569 570
f 571 572 573
f 574 575 576
f 577 578 579
f 580 581 582
f 583 584 585
f 586 587 588
f 589 590 591
f 592 593 594
f 595 596 597
f 598 599 600
f 601 602 603
f 604 605 606
f 607 608 609
f 610 611 612
f 613 614 615
f 613 615 616
f 617 618 619
f 617 619 620
f 621 622 623
f 621 623 624
f 625 626 627
f 625 627 628
f 629 630 631
f 629 631 632
f 633 634 635
f 633 635 636
f 637 638 639
f 637 639 640
f 641 642 643
f 641 643 644
f 645 646 647
f 645 647 648
f 649 650 651
f 649 651 652
f 653 654 655
f 653 655 656
f 657 658 659
f 657 659 660
f 661 662 663
f 661 663 664
f 665 666 667
f 665 667 668
f 669 670 671
f 669 671 672
f 673 674 675
f 673 675 676
f 677 678 679
f 680 681 682
f 683 684 685
f 686 687 688
f 689 690 691
f 692 693 694
f 695 696 697
f 698 699 700
f 701 702 703
f 704 705 706
f 707 708 709
f 710 711 712
f 713 714 715
f 716 717 718
f 719 720 721
f 722 723 724
f 725 726 727
f 725 727 728
f 729 730 731
f 729 731 732
f 733 734 735
f 733 735 736
f 737 738 739
f 737 739 740
f 741 742 743
f 741 743 744
f 745 746 747
f 745 747 748
f 749 750 751
f 749 751 752
f 753 754 755
f 753 755 756
f 757 758 759
f 757 759 760
f 761 762 763
f 761 763 764
f 765 766 767
f 765 767 768
f 769 770 771
f 769 771 772
f 773 774 775
f 773 775 776
f 777 778 779
f 777 779 780
f 781 782 783
f 781 783 784
f 785 786 787
f 785 787 788
f 789 790 791
f 792 793 794
f 795 796 797
f 798 799 800
f 801 802 803
f 804 805 806
f 807 808 809
f 810 811 812
f 813 814 815
f 816 817 818
f 819 820 821
f 822 823 824
f 825 826 827
f 828 829 830
f 831 832 833
f 834 835 836
f 837 838 839
f 837 839 840
