# Baked from official LDraw part 3815b.dat
o ldraw_3815b
v 0.3365000 -0.0000000 0.1500000
v 0.3365000 0.2750000 0.1500000
v 0.1635000 0.2750000 0.1500000
v 0.1635000 -0.0000000 0.1500000
v 0.1000000 -0.0000000 0.0865000
v 0.1000000 0.2750000 0.0865000
v 0.1000000 0.2750000 -0.0865000
v 0.1000000 -0.0000000 -0.0865000
v 0.3365000 0.2750000 -0.1500000
v 0.3365000 -0.0000000 -0.1500000
v 0.1635000 -0.0000000 -0.1500000
v 0.1635000 0.2750000 -0.1500000
v 0.4000000 -0.0000000 -0.0865000
v 0.4000000 0.1000000 -0.0865000
v 0.4000000 0.1000000 0.0865000
v 0.4000000 -0.0000000 0.0865000
v 0.3200000 -0.0000000 0.0700000
v 0.3200000 0.2750000 0.0700000
v 0.3200000 0.2750000 -0.0700000
v 0.3200000 -0.0000000 -0.0700000
v 0.3620000 0.2750000 -0.1120000
v 0.3620000 -0.0000000 -0.1120000
v 0.3365000 -0.0000000 -0.1500000
v 0.3365000 0.2750000 -0.1500000
v 0.1635000 0.2750000 -0.1500000
v 0.1635000 -0.0000000 -0.1500000
v 0.1380000 -0.0000000 -0.1120000
v 0.1380000 0.2750000 -0.1120000
v 0.1380000 0.2750000 -0.1120000
v 0.1380000 -0.0000000 -0.1120000
v 0.1000000 -0.0000000 -0.0865000
v 0.1000000 0.2750000 -0.0865000
v 0.1000000 0.2750000 0.0865000
v 0.1000000 -0.0000000 0.0865000
v 0.1380000 -0.0000000 0.1120000
v 0.1380000 0.2750000 0.1120000
v 0.1380000 0.2750000 0.1120000
v 0.1380000 -0.0000000 0.1120000
v 0.1635000 -0.0000000 0.1500000
v 0.1635000 0.2750000 0.1500000
v 0.3365000 0.2750000 0.1500000
v 0.3365000 -0.0000000 0.1500000
v 0.3620000 -0.0000000 0.1120000
v 0.3620000 0.2750000 0.1120000
v 0.3620000 0.2750000 0.1120000
v 0.3620000 -0.0000000 0.1120000
v 0.4000000 -0.0000000 0.0865000
v 0.4000000 0.1000000 0.0865000
v 0.3620000 0.2750000 -0.1120000
v 0.3620000 0.2750000 0.1120000
v 0.4000000 0.1000000 0.0865000
v 0.4000000 0.1000000 -0.0865000
v 0.4000000 0.1000000 -0.0865000
v 0.4000000 -0.0000000 -0.0865000
v 0.3620000 -0.0000000 -0.1120000
v 0.3620000 0.2750000 -0.1120000
v 0.3620000 0.2750000 0.1120000
v 0.3620000 0.2750000 -0.1120000
v 0.3200000 0.2750000 -0.0700000
v 0.3200000 0.2750000 0.0700000
v 0.3620000 0.2750000 0.1120000
v 0.3200000 0.2750000 0.0700000
v 0.2500000 0.2750000 0.1400000
v 0.3365000 0.2750000 0.1500000
v 0.3365000 0.2750000 0.1500000
v 0.2500000 0.2750000 0.1400000
v 0.1635000 0.2750000 0.1500000
v 0.1635000 0.2750000 0.1500000
v 0.2500000 0.2750000 0.1400000
v 0.1800000 0.2750000 0.0700000
v 0.1380000 0.2750000 0.1120000
v 0.1380000 0.2750000 0.1120000
v 0.1800000 0.2750000 0.0700000
v 0.1100000 0.2750000 0.0000000
v 0.1000000 0.2750000 0.0865000
v 0.1000000 0.2750000 0.0865000
v 0.1100000 0.2750000 0.0000000
v 0.1000000 0.2750000 -0.0865000
v 0.1000000 0.2750000 -0.0865000
v 0.1100000 0.2750000 0.0000000
v 0.1800000 0.2750000 -0.0700000
v 0.1380000 0.2750000 -0.1120000
v 0.1380000 0.2750000 -0.1120000
v 0.1800000 0.2750000 -0.0700000
v 0.2500000 0.2750000 -0.1400000
v 0.1635000 0.2750000 -0.1500000
v 0.1635000 0.2750000 -0.1500000
v 0.2500000 0.2750000 -0.1400000
v 0.3365000 0.2750000 -0.1500000
v 0.3365000 0.2750000 -0.1500000
v 0.2500000 0.2750000 -0.1400000
v 0.3200000 0.2750000 -0.0700000
v 0.3620000 0.2750000 -0.1120000
v 0.3200000 -0.0000000 -0.0700000
v 0.3200000 0.2750000 -0.0700000
v 0.2878840 0.2750000 -0.0914620
v 0.2878840 -0.0000000 -0.0914620
v 0.2878840 -0.0000000 -0.0914620
v 0.2878840 0.2750000 -0.0914620
v 0.2500000 0.2750000 -0.0989940
v 0.2500000 -0.0000000 -0.0989940
v 0.2500000 -0.0000000 -0.0989940
v 0.2500000 0.2750000 -0.0989940
v 0.2121160 0.2750000 -0.0914620
v 0.2121160 -0.0000000 -0.0914620
v 0.2121160 -0.0000000 -0.0914620
v 0.2121160 0.2750000 -0.0914620
v 0.1800000 0.2750000 -0.0700000
v 0.1800000 -0.0000000 -0.0700000
v 0.1800000 -0.0000000 -0.0700000
v 0.1800000 0.2750000 -0.0700000
v 0.1585380 0.2750000 -0.0378840
v 0.1585380 -0.0000000 -0.0378840
v 0.1585380 -0.0000000 -0.0378840
v 0.1585380 0.2750000 -0.0378840
v 0.1510060 0.2750000 0.0000000
v 0.1510060 -0.0000000 0.0000000
v 0.1510060 -0.0000000 0.0000000
v 0.1510060 0.2750000 0.0000000
v 0.1585380 0.2750000 0.0378840
v 0.1585380 -0.0000000 0.0378840
v 0.1585380 -0.0000000 0.0378840
v 0.1585380 0.2750000 0.0378840
v 0.1800000 0.2750000 0.0700000
v 0.1800000 -0.0000000 0.0700000
v 0.1800000 -0.0000000 0.0700000
v 0.1800000 0.2750000 0.0700000
v 0.2121160 0.2750000 0.0914620
v 0.2121160 -0.0000000 0.0914620
v 0.2121160 -0.0000000 0.0914620
v 0.2121160 0.2750000 0.0914620
v 0.2500000 0.2750000 0.0989940
v 0.2500000 -0.0000000 0.0989940
v 0.2500000 -0.0000000 0.0989940
v 0.2500000 0.2750000 0.0989940
v 0.2878840 0.2750000 0.0914620
v 0.2878840 -0.0000000 0.0914620
v 0.2878840 -0.0000000 0.0914620
v 0.2878840 0.2750000 0.0914620
v 0.3200000 0.2750000 0.0700000
v 0.3200000 -0.0000000 0.0700000
v 0.2878840 0.2750000 -0.0914620
v 0.3200000 0.2750000 -0.0700000
v 0.2500000 0.2750000 -0.1400000
v 0.2500000 0.2750000 -0.0989940
v 0.2878840 0.2750000 -0.0914620
v 0.2500000 0.2750000 -0.1400000
v 0.2121160 0.2750000 -0.0914620
v 0.2500000 0.2750000 -0.0989940
v 0.2500000 0.2750000 -0.1400000
v 0.1800000 0.2750000 -0.0700000
v 0.2121160 0.2750000 -0.0914620
v 0.2500000 0.2750000 -0.1400000
v 0.1585380 0.2750000 -0.0378840
v 0.1800000 0.2750000 -0.0700000
v 0.1100000 0.2750000 0.0000000
v 0.1510060 0.2750000 0.0000000
v 0.1585380 0.2750000 -0.0378840
v 0.1100000 0.2750000 0.0000000
v 0.1585380 0.2750000 0.0378840
v 0.1510060 0.2750000 0.0000000
v 0.1100000 0.2750000 0.0000000
v 0.1800000 0.2750000 0.0700000
v 0.1585380 0.2750000 0.0378840
v 0.1100000 0.2750000 0.0000000
v 0.2121160 0.2750000 0.0914620
v 0.1800000 0.2750000 0.0700000
v 0.2500000 0.2750000 0.1400000
v 0.2500000 0.2750000 0.0989940
v 0.2121160 0.2750000 0.0914620
v 0.2500000 0.2750000 0.1400000
v 0.2878840 0.2750000 0.0914620
v 0.2500000 0.2750000 0.0989940
v 0.2500000 0.2750000 0.1400000
v 0.3200000 0.2750000 0.0700000
v 0.2878840 0.2750000 0.0914620
v 0.2500000 0.2750000 0.1400000
v -0.3365000 -0.0000000 -0.1500000
v -0.3365000 0.2750000 -0.1500000
v -0.1635000 0.2750000 -0.1500000
v -0.1635000 -0.0000000 -0.1500000
v -0.1000000 -0.0000000 -0.0865000
v -0.1000000 0.2750000 -0.0865000
v -0.1000000 0.2750000 0.0865000
v -0.1000000 -0.0000000 0.0865000
v -0.3365000 0.2750000 0.1500000
v -0.3365000 -0.0000000 0.1500000
v -0.1635000 -0.0000000 0.1500000
v -0.1635000 0.2750000 0.1500000
v -0.4000000 -0.0000000 0.0865000
v -0.4000000 0.1000000 0.0865000
v -0.4000000 0.1000000 -0.0865000
v -0.4000000 -0.0000000 -0.0865000
v -0.3200000 -0.0000000 -0.0700000
v -0.3200000 0.2750000 -0.0700000
v -0.3200000 0.2750000 0.0700000
v -0.3200000 -0.0000000 0.0700000
v -0.3620000 0.2750000 0.1120000
v -0.3620000 -0.0000000 0.1120000
v -0.3365000 -0.0000000 0.1500000
v -0.3365000 0.2750000 0.1500000
v -0.1635000 0.2750000 0.1500000
v -0.1635000 -0.0000000 0.1500000
v -0.1380000 -0.0000000 0.1120000
v -0.1380000 0.2750000 0.1120000
v -0.1380000 0.2750000 0.1120000
v -0.1380000 -0.0000000 0.1120000
v -0.1000000 -0.0000000 0.0865000
v -0.1000000 0.2750000 0.0865000
v -0.1000000 0.2750000 -0.0865000
v -0.1000000 -0.0000000 -0.0865000
v -0.1380000 -0.0000000 -0.1120000
v -0.1380000 0.2750000 -0.1120000
v -0.1380000 0.2750000 -0.1120000
v -0.1380000 -0.0000000 -0.1120000
v -0.1635000 -0.0000000 -0.1500000
v -0.1635000 0.2750000 -0.1500000
v -0.3365000 0.2750000 -0.1500000
v -0.3365000 -0.0000000 -0.1500000
v -0.3620000 -0.0000000 -0.1120000
v -0.3620000 0.2750000 -0.1120000
v -0.3620000 0.2750000 -0.1120000
v -0.3620000 -0.0000000 -0.1120000
v -0.4000000 -0.0000000 -0.0865000
v -0.4000000 0.1000000 -0.0865000
v -0.3620000 0.2750000 0.1120000
v -0.3620000 0.2750000 -0.1120000
v -0.4000000 0.1000000 -0.0865000
v -0.4000000 0.1000000 0.0865000
v -0.4000000 0.1000000 0.0865000
v -0.4000000 -0.0000000 0.0865000
v -0.3620000 -0.0000000 0.1120000
v -0.3620000 0.2750000 0.1120000
v -0.3620000 0.2750000 -0.1120000
v -0.3620000 0.2750000 0.1120000
v -0.3200000 0.2750000 0.0700000
v -0.3200000 0.2750000 -0.0700000
v -0.3620000 0.2750000 -0.1120000
v -0.3200000 0.2750000 -0.0700000
v -0.2500000 0.2750000 -0.1400000
v -0.3365000 0.2750000 -0.1500000
v -0.3365000 0.2750000 -0.1500000
v -0.2500000 0.2750000 -0.1400000
v -0.1635000 0.2750000 -0.1500000
v -0.1635000 0.2750000 -0.1500000
v -0.2500000 0.2750000 -0.1400000
v -0.1800000 0.2750000 -0.0700000
v -0.1380000 0.2750000 -0.1120000
v -0.1380000 0.2750000 -0.1120000
v -0.1800000 0.2750000 -0.0700000
v -0.1100000 0.2750000 0.0000000
v -0.1000000 0.2750000 -0.0865000
v -0.1000000 0.2750000 -0.0865000
v -0.1100000 0.2750000 0.0000000
v -0.1000000 0.2750000 0.0865000
v -0.1000000 0.2750000 0.0865000
v -0.1100000 0.2750000 0.0000000
v -0.1800000 0.2750000 0.0700000
v -0.1380000 0.2750000 0.1120000
v -0.1380000 0.2750000 0.1120000
v -0.1800000 0.2750000 0.0700000
v -0.2500000 0.2750000 0.1400000
v -0.1635000 0.2750000 0.1500000
v -0.1635000 0.2750000 0.1500000
v -0.2500000 0.2750000 0.1400000
v -0.3365000 0.2750000 0.1500000
v -0.3365000 0.2750000 0.1500000
v -0.2500000 0.2750000 0.1400000
v -0.3200000 0.2750000 0.0700000
v -0.3620000 0.2750000 0.1120000
v -0.3200000 -0.0000000 0.0700000
v -0.3200000 0.2750000 0.0700000
v -0.2878840 0.2750000 0.0914620
v -0.2878840 -0.0000000 0.0914620
v -0.2878840 -0.0000000 0.0914620
v -0.2878840 0.2750000 0.0914620
v -0.2500000 0.2750000 0.0989940
v -0.2500000 -0.0000000 0.0989940
v -0.2500000 -0.0000000 0.0989940
v -0.2500000 0.2750000 0.0989940
v -0.2121160 0.2750000 0.0914620
v -0.2121160 -0.0000000 0.0914620
v -0.2121160 -0.0000000 0.0914620
v -0.2121160 0.2750000 0.0914620
v -0.1800000 0.2750000 0.0700000
v -0.1800000 -0.0000000 0.0700000
v -0.1800000 -0.0000000 0.0700000
v -0.1800000 0.2750000 0.0700000
v -0.1585380 0.2750000 0.0378840
v -0.1585380 -0.0000000 0.0378840
v -0.1585380 -0.0000000 0.0378840
v -0.1585380 0.2750000 0.0378840
v -0.1510060 0.2750000 0.0000000
v -0.1510060 -0.0000000 0.0000000
v -0.1510060 -0.0000000 0.0000000
v -0.1510060 0.2750000 0.0000000
v -0.1585380 0.2750000 -0.0378840
v -0.1585380 -0.0000000 -0.0378840
v -0.1585380 -0.0000000 -0.0378840
v -0.1585380 0.2750000 -0.0378840
v -0.1800000 0.2750000 -0.0700000
v -0.1800000 -0.0000000 -0.0700000
v -0.1800000 -0.0000000 -0.0700000
v -0.1800000 0.2750000 -0.0700000
v -0.2121160 0.2750000 -0.0914620
v -0.2121160 -0.0000000 -0.0914620
v -0.2121160 -0.0000000 -0.0914620
v -0.2121160 0.2750000 -0.0914620
v -0.2500000 0.2750000 -0.0989940
v -0.2500000 -0.0000000 -0.0989940
v -0.2500000 -0.0000000 -0.0989940
v -0.2500000 0.2750000 -0.0989940
v -0.2878840 0.2750000 -0.0914620
v -0.2878840 -0.0000000 -0.0914620
v -0.2878840 -0.0000000 -0.0914620
v -0.2878840 0.2750000 -0.0914620
v -0.3200000 0.2750000 -0.0700000
v -0.3200000 -0.0000000 -0.0700000
v -0.2878840 0.2750000 0.0914620
v -0.3200000 0.2750000 0.0700000
v -0.2500000 0.2750000 0.1400000
v -0.2500000 0.2750000 0.0989940
v -0.2878840 0.2750000 0.0914620
v -0.2500000 0.2750000 0.1400000
v -0.2121160 0.2750000 0.0914620
v -0.2500000 0.2750000 0.0989940
v -0.2500000 0.2750000 0.1400000
v -0.1800000 0.2750000 0.0700000
v -0.2121160 0.2750000 0.0914620
v -0.2500000 0.2750000 0.1400000
v -0.1585380 0.2750000 0.0378840
v -0.1800000 0.2750000 0.0700000
v -0.1100000 0.2750000 0.0000000
v -0.1510060 0.2750000 0.0000000
v -0.1585380 0.2750000 0.0378840
v -0.1100000 0.2750000 0.0000000
v -0.1585380 0.2750000 -0.0378840
v -0.1510060 0.2750000 0.0000000
v -0.1100000 0.2750000 0.0000000
v -0.1800000 0.2750000 -0.0700000
v -0.1585380 0.2750000 -0.0378840
v -0.1100000 0.2750000 0.0000000
v -0.2121160 0.2750000 -0.0914620
v -0.1800000 0.2750000 -0.0700000
v -0.2500000 0.2750000 -0.1400000
v -0.2500000 0.2750000 -0.0989940
v -0.2121160 0.2750000 -0.0914620
v -0.2500000 0.2750000 -0.1400000
v -0.2878840 0.2750000 -0.0914620
v -0.2500000 0.2750000 -0.0989940
v -0.2500000 0.2750000 -0.1400000
v -0.3200000 0.2750000 -0.0700000
v -0.2878840 0.2750000 -0.0914620
v -0.2500000 0.2750000 -0.1400000
v 0.4500000 -0.0000000 0.2500000
v 0.4500000 -0.0000000 -0.2500000
v -0.4500000 -0.0000000 -0.2500000
v -0.4500000 -0.0000000 0.2500000
v -0.4500000 -0.1500000 0.2500000
v 0.4500000 -0.1500000 0.2500000
v 0.4500000 -0.0000000 0.2500000
v -0.4500000 -0.0000000 0.2500000
v -0.4500000 -0.1453205 0.1546795
v -0.4500000 -0.0978958 0.0837125
v 0.4500000 -0.0978958 0.0837125
v 0.4500000 -0.1453205 0.1546795
v -0.4500000 -0.0978958 0.0837125
v -0.4500000 -0.0812523 0.0000000
v 0.4500000 -0.0812523 0.0000000
v 0.4500000 -0.0978958 0.0837125
v -0.4500000 -0.0812523 0.0000000
v -0.4500000 -0.0978958 -0.0837125
v 0.4500000 -0.0978958 -0.0837125
v 0.4500000 -0.0812523 0.0000000
v -0.4500000 -0.0978958 -0.0837125
v -0.4500000 -0.1453205 -0.1546795
v 0.4500000 -0.1453205 -0.1546795
v 0.4500000 -0.0978958 -0.0837125
v 0.4500000 -0.0812500 -0.2187500
v 0.4500000 -0.0812500 0.0000000
v 0.4500000 -0.0978969 -0.0837156
v 0.4500000 -0.0812500 -0.2187500
v 0.4500000 -0.0978969 -0.0837156
v 0.4500000 -0.1453219 -0.1546781
v 0.4500000 -0.0978969 0.0837156
v 0.4500000 -0.0812500 0.0000000
v 0.4500000 -0.0812500 0.2187500
v 0.4500000 -0.1453219 0.1546781
v 0.4500000 -0.0978969 0.0837156
v 0.4500000 -0.0812500 0.2187500
v -0.4500000 -0.0978969 -0.0837156
v -0.4500000 -0.0812500 0.0000000
v -0.4500000 -0.0812500 -0.2187500
v -0.4500000 -0.1453219 -0.1546781
v -0.4500000 -0.0978969 -0.0837156
v -0.4500000 -0.0812500 -0.2187500
v -0.4500000 -0.0812500 0.2187500
v -0.4500000 -0.0812500 0.0000000
v -0.4500000 -0.0978969 0.0837156
v -0.4500000 -0.0812500 0.2187500
v -0.4500000 -0.0978969 0.0837156
v -0.4500000 -0.1453219 0.1546781
v -0.2480000 -0.3000000 0.0000000
v -0.2480000 -0.3750000 0.0000000
v -0.2480000 -0.3692925 0.0287025
v -0.2480000 -0.3000000 0.0000000
v -0.2480000 -0.3692925 0.0287025
v -0.2480000 -0.3530325 0.0530325
v -0.2480000 -0.3000000 0.0000000
v -0.2480000 -0.3530325 0.0530325
v -0.2480000 -0.3287025 0.0692925
v -0.2480000 -0.3000000 0.0000000
v -0.2480000 -0.3287025 0.0692925
v -0.2480000 -0.3000000 0.0750000
v -0.2480000 -0.3000000 0.0000000
v -0.2480000 -0.3000000 0.0750000
v -0.2480000 -0.2712975 0.0692925
v -0.2480000 -0.3000000 0.0000000
v -0.2480000 -0.2712975 0.0692925
v -0.2480000 -0.2469675 0.0530325
v -0.2480000 -0.3000000 0.0000000
v -0.2480000 -0.2469675 0.0530325
v -0.2480000 -0.2307075 0.0287025
v -0.2480000 -0.3000000 0.0000000
v -0.2480000 -0.2307075 0.0287025
v -0.2480000 -0.2250000 0.0000000
v -0.2480000 -0.3000000 0.0000000
v -0.2480000 -0.2250000 0.0000000
v -0.2480000 -0.2307075 -0.0287025
v -0.2480000 -0.3000000 0.0000000
v -0.2480000 -0.2307075 -0.0287025
v -0.2480000 -0.2469675 -0.0530325
v -0.2480000 -0.3000000 0.0000000
v -0.2480000 -0.2469675 -0.0530325
v -0.2480000 -0.2712975 -0.0692925
v -0.2480000 -0.3000000 0.0000000
v -0.2480000 -0.2712975 -0.0692925
v -0.2480000 -0.3000000 -0.0750000
v -0.2480000 -0.3000000 0.0000000
v -0.2480000 -0.3000000 -0.0750000
v -0.2480000 -0.3287025 -0.0692925
v -0.2480000 -0.3000000 0.0000000
v -0.2480000 -0.3287025 -0.0692925
v -0.2480000 -0.3530325 -0.0530325
v -0.2480000 -0.3000000 0.0000000
v -0.2480000 -0.3530325 -0.0530325
v -0.2480000 -0.3692925 -0.0287025
v -0.2480000 -0.3000000 0.0000000
v -0.2480000 -0.3692925 -0.0287025
v -0.2480000 -0.3750000 0.0000000
v 0.2480000 -0.3750000 0.0000000
v 0.2480000 -0.3692925 0.0287025
v -0.2480000 -0.3692925 0.0287025
v -0.2480000 -0.3750000 0.0000000
v 0.2480000 -0.3692925 0.0287025
v 0.2480000 -0.3530325 0.0530325
v -0.2480000 -0.3530325 0.0530325
v -0.2480000 -0.3692925 0.0287025
v 0.2480000 -0.3530325 0.0530325
v 0.2480000 -0.3287025 0.0692925
v -0.2480000 -0.3287025 0.0692925
v -0.2480000 -0.3530325 0.0530325
v 0.2480000 -0.3287025 0.0692925
v 0.2480000 -0.3000000 0.0750000
v -0.2480000 -0.3000000 0.0750000
v -0.2480000 -0.3287025 0.0692925
v 0.2480000 -0.3000000 0.0750000
v 0.2480000 -0.2712975 0.0692925
v -0.2480000 -0.2712975 0.0692925
v -0.2480000 -0.3000000 0.0750000
v 0.2480000 -0.2712975 0.0692925
v 0.2480000 -0.2469675 0.0530325
v -0.2480000 -0.2469675 0.0530325
v -0.2480000 -0.2712975 0.0692925
v 0.2480000 -0.2469675 0.0530325
v 0.2480000 -0.2307075 0.0287025
v -0.2480000 -0.2307075 0.0287025
v -0.2480000 -0.2469675 0.0530325
v 0.2480000 -0.2307075 0.0287025
v 0.2480000 -0.2250000 0.0000000
v -0.2480000 -0.2250000 0.0000000
v -0.2480000 -0.2307075 0.0287025
v 0.2480000 -0.2250000 0.0000000
v 0.2480000 -0.2307075 -0.0287025
v -0.2480000 -0.2307075 -0.0287025
v -0.2480000 -0.2250000 0.0000000
v 0.2480000 -0.2307075 -0.0287025
v 0.2480000 -0.2469675 -0.0530325
v -0.2480000 -0.2469675 -0.0530325
v -0.2480000 -0.2307075 -0.0287025
v 0.2480000 -0.2469675 -0.0530325
v 0.2480000 -0.2712975 -0.0692925
v -0.2480000 -0.2712975 -0.0692925
v -0.2480000 -0.2469675 -0.0530325
v 0.2480000 -0.2712975 -0.0692925
v 0.2480000 -0.3000000 -0.0750000
v -0.2480000 -0.3000000 -0.0750000
v -0.2480000 -0.2712975 -0.0692925
v 0.2480000 -0.3000000 -0.0750000
v 0.2480000 -0.3287025 -0.0692925
v -0.2480000 -0.3287025 -0.0692925
v -0.2480000 -0.3000000 -0.0750000
v 0.2480000 -0.3287025 -0.0692925
v 0.2480000 -0.3530325 -0.0530325
v -0.2480000 -0.3530325 -0.0530325
v -0.2480000 -0.3287025 -0.0692925
v 0.2480000 -0.3530325 -0.0530325
v 0.2480000 -0.3692925 -0.0287025
v -0.2480000 -0.3692925 -0.0287025
v -0.2480000 -0.3530325 -0.0530325
v 0.2480000 -0.3692925 -0.0287025
v 0.2480000 -0.3750000 0.0000000
v -0.2480000 -0.3750000 0.0000000
v -0.2480000 -0.3692925 -0.0287025
v 0.2480000 -0.3692925 0.0287025
v 0.2480000 -0.3750000 0.0000000
v 0.2480000 -0.3000000 0.0000000
v 0.2480000 -0.3530325 0.0530325
v 0.2480000 -0.3692925 0.0287025
v 0.2480000 -0.3000000 0.0000000
v 0.2480000 -0.3287025 0.0692925
v 0.2480000 -0.3530325 0.0530325
v 0.2480000 -0.3000000 0.0000000
v 0.2480000 -0.3000000 0.0750000
v 0.2480000 -0.3287025 0.0692925
v 0.2480000 -0.3000000 0.0000000
v 0.2480000 -0.2712975 0.0692925
v 0.2480000 -0.3000000 0.0750000
v 0.2480000 -0.3000000 0.0000000
v 0.2480000 -0.2469675 0.0530325
v 0.2480000 -0.2712975 0.0692925
v 0.2480000 -0.3000000 0.0000000
v 0.2480000 -0.2307075 0.0287025
v 0.2480000 -0.2469675 0.0530325
v 0.2480000 -0.3000000 0.0000000
v 0.2480000 -0.2250000 0.0000000
v 0.2480000 -0.2307075 0.0287025
v 0.2480000 -0.3000000 0.0000000
v 0.2480000 -0.2307075 -0.0287025
v 0.2480000 -0.2250000 0.0000000
v 0.2480000 -0.3000000 0.0000000
v 0.2480000 -0.2469675 -0.0530325
v 0.2480000 -0.2307075 -0.0287025
v 0.2480000 -0.3000000 0.0000000
v 0.2480000 -0.2712975 -0.0692925
v 0.2480000 -0.2469675 -0.0530325
v 0.2480000 -0.3000000 0.0000000
v 0.2480000 -0.3000000 -0.0750000
v 0.2480000 -0.2712975 -0.0692925
v 0.2480000 -0.3000000 0.0000000
v 0.2480000 -0.3287025 -0.0692925
v 0.2480000 -0.3000000 -0.0750000
v 0.2480000 -0.3000000 0.0000000
v 0.2480000 -0.3530325 -0.0530325
v 0.2480000 -0.3287025 -0.0692925
v 0.2480000 -0.3000000 0.0000000
v 0.2480000 -0.3692925 -0.0287025
v 0.2480000 -0.3530325 -0.0530325
v 0.2480000 -0.3000000 0.0000000
v 0.2480000 -0.3750000 0.0000000
v 0.2480000 -0.3692925 -0.0287025
v 0.2480000 -0.3000000 0.0000000
v -0.4500000 -0.1500000 -0.1577500
v -0.4500000 -0.1500000 -0.2500000
v 0.4500000 -0.1500000 -0.2500000
v 0.4500000 -0.1500000 -0.1577500
v 0.4500000 -0.1453200 -0.1546800
v -0.4500000 -0.1453200 -0.1546800
v -0.4500000 -0.1500000 -0.1577500
v 0.4500000 -0.1500000 -0.1577500
v 0.4500000 -0.1500000 0.1577500
v 0.4500000 -0.1500000 0.2500000
v -0.4500000 -0.1500000 0.2500000
v -0.4500000 -0.1500000 0.1577500
v 0.4500000 -0.1500000 0.1577500
v -0.4500000 -0.1500000 0.1577500
v -0.4500000 -0.1453200 0.1546800
v 0.4500000 -0.1453200 0.1546800
v 0.4500000 -0.1453200 -0.1546800
v 0.4500000 -0.1500000 -0.1577500
v 0.4500000 -0.1500000 -0.2500000
v 0.4500000 -0.0812500 -0.2187500
v 0.4500000 -0.1500000 -0.2500000
v 0.4500000 -0.0000000 -0.2500000
v 0.4500000 -0.0812500 -0.2187500
v 0.4500000 -0.0812525 0.0000000
v 0.4500000 -0.0812500 -0.2187500
v 0.4500000 -0.0000000 -0.2500000
v 0.4500000 -0.0812500 0.2187500
v 0.4500000 -0.0812525 0.0000000
v 0.4500000 -0.0000000 -0.2500000
v 0.4500000 -0.0000000 0.2500000
v 0.4500000 -0.0812500 0.2187500
v 0.4500000 -0.0000000 0.2500000
v 0.4500000 -0.1500000 0.2500000
v 0.4500000 -0.1500000 0.2500000
v 0.4500000 -0.1500000 0.1577500
v 0.4500000 -0.1453200 0.1546800
v 0.4500000 -0.0812500 0.2187500
v -0.4500000 -0.1453200 0.1546800
v -0.4500000 -0.1500000 0.1577500
v -0.4500000 -0.1500000 0.2500000
v -0.4500000 -0.0812500 0.2187500
v -0.4500000 -0.1500000 0.2500000
v -0.4500000 -0.0000000 0.2500000
v -0.4500000 -0.0812500 0.2187500
v -0.4500000 -0.0812525 0.0000000
v -0.4500000 -0.0812500 0.2187500
v -0.4500000 -0.0000000 0.2500000
v -0.4500000 -0.0000000 -0.2500000
v -0.4500000 -0.0000000 -0.2500000
v -0.4500000 -0.0812500 -0.2187500
v -0.4500000 -0.0812525 0.0000000
v -0.4500000 -0.0812500 -0.2187500
v -0.4500000 -0.0000000 -0.2500000
v -0.4500000 -0.1500000 -0.2500000
v -0.4500000 -0.1500000 -0.2500000
v -0.4500000 -0.1500000 -0.1577500
v -0.4500000 -0.1453200 -0.1546800
v -0.4500000 -0.0812500 -0.2187500
v 0.0500000 -0.5021031 0.0837156
v 0.0500000 -0.5187500 0.0000000
v 0.0500000 -0.3000000 0.0000000
v 0.0500000 -0.4546781 0.1546781
v 0.0500000 -0.5021031 0.0837156
v 0.0500000 -0.3000000 0.0000000
v 0.0500000 -0.3837156 0.2021031
v 0.0500000 -0.4546781 0.1546781
v 0.0500000 -0.3000000 0.0000000
v 0.0500000 -0.3000000 0.2187500
v 0.0500000 -0.3837156 0.2021031
v 0.0500000 -0.3000000 0.0000000
v 0.0500000 -0.2162844 0.2021031
v 0.0500000 -0.3000000 0.2187500
v 0.0500000 -0.3000000 0.0000000
v 0.0500000 -0.1453219 0.1546781
v 0.0500000 -0.2162844 0.2021031
v 0.0500000 -0.3000000 0.0000000
v 0.0500000 -0.0978969 0.0837156
v 0.0500000 -0.1453219 0.1546781
v 0.0500000 -0.3000000 0.0000000
v 0.0500000 -0.0812500 0.0000000
v 0.0500000 -0.0978969 0.0837156
v 0.0500000 -0.3000000 0.0000000
v 0.0500000 -0.0978969 -0.0837156
v 0.0500000 -0.0812500 0.0000000
v 0.0500000 -0.3000000 0.0000000
v 0.0500000 -0.1453219 -0.1546781
v 0.0500000 -0.0978969 -0.0837156
v 0.0500000 -0.3000000 0.0000000
v 0.0500000 -0.2162844 -0.2021031
v 0.0500000 -0.1453219 -0.1546781
v 0.0500000 -0.3000000 0.0000000
v 0.0500000 -0.3000000 -0.2187500
v 0.0500000 -0.2162844 -0.2021031
v 0.0500000 -0.3000000 0.0000000
v 0.0500000 -0.3837156 -0.2021031
v 0.0500000 -0.3000000 -0.2187500
v 0.0500000 -0.3000000 0.0000000
v 0.0500000 -0.4546781 -0.1546781
v 0.0500000 -0.3837156 -0.2021031
v 0.0500000 -0.3000000 0.0000000
v 0.0500000 -0.5021031 -0.0837156
v 0.0500000 -0.4546781 -0.1546781
v 0.0500000 -0.3000000 0.0000000
v 0.0500000 -0.5187500 0.0000000
v 0.0500000 -0.5021031 -0.0837156
v 0.0500000 -0.3000000 0.0000000
v -0.0500000 -0.3000000 0.0000000
v -0.0500000 -0.5187500 0.0000000
v -0.0500000 -0.5021031 0.0837156
v -0.0500000 -0.3000000 0.0000000
v -0.0500000 -0.5021031 0.0837156
v -0.0500000 -0.4546781 0.1546781
v -0.0500000 -0.3000000 0.0000000
v -0.0500000 -0.4546781 0.1546781
v -0.0500000 -0.3837156 0.2021031
v -0.0500000 -0.3000000 0.0000000
v -0.0500000 -0.3837156 0.2021031
v -0.0500000 -0.3000000 0.2187500
v -0.0500000 -0.3000000 0.0000000
v -0.0500000 -0.3000000 0.2187500
v -0.0500000 -0.2162844 0.2021031
v -0.0500000 -0.3000000 0.0000000
v -0.0500000 -0.2162844 0.2021031
v -0.0500000 -0.1453219 0.1546781
v -0.0500000 -0.3000000 0.0000000
v -0.0500000 -0.1453219 0.1546781
v -0.0500000 -0.0978969 0.0837156
v -0.0500000 -0.3000000 0.0000000
v -0.0500000 -0.0978969 0.0837156
v -0.0500000 -0.0812500 0.0000000
v -0.0500000 -0.3000000 0.0000000
v -0.0500000 -0.0812500 0.0000000
v -0.0500000 -0.0978969 -0.0837156
v -0.0500000 -0.3000000 0.0000000
v -0.0500000 -0.0978969 -0.0837156
v -0.0500000 -0.1453219 -0.1546781
v -0.0500000 -0.3000000 0.0000000
v -0.0500000 -0.1453219 -0.1546781
v -0.0500000 -0.2162844 -0.2021031
v -0.0500000 -0.3000000 0.0000000
v -0.0500000 -0.2162844 -0.2021031
v -0.0500000 -0.3000000 -0.2187500
v -0.0500000 -0.3000000 0.0000000
v -0.0500000 -0.3000000 -0.2187500
v -0.0500000 -0.3837156 -0.2021031
v -0.0500000 -0.3000000 0.0000000
v -0.0500000 -0.3837156 -0.2021031
v -0.0500000 -0.4546781 -0.1546781
v -0.0500000 -0.3000000 0.0000000
v -0.0500000 -0.4546781 -0.1546781
v -0.0500000 -0.5021031 -0.0837156
v -0.0500000 -0.3000000 0.0000000
v -0.0500000 -0.5021031 -0.0837156
v -0.0500000 -0.5187500 0.0000000
v -0.0500000 -0.5187556 0.0000017
v -0.0500000 -0.5020988 -0.0837120
v 0.0500000 -0.5020988 -0.0837120
v 0.0500000 -0.5187556 0.0000017
v -0.0500000 -0.5020968 0.0837113
v -0.0500000 -0.5187556 0.0000017
v 0.0500000 -0.5187556 0.0000017
v 0.0500000 -0.5020968 0.0837113
v -0.0500000 -0.4546847 0.1546825
v -0.0500000 -0.5020968 0.0837113
v 0.0500000 -0.5020968 0.0837113
v 0.0500000 -0.4546847 0.1546825
v -0.0500000 -0.3837120 0.2020987
v -0.0500000 -0.4546847 0.1546825
v 0.0500000 -0.4546847 0.1546825
v 0.0500000 -0.3837120 0.2020987
v -0.0500000 -0.2999983 0.2187556
v -0.0500000 -0.3837120 0.2020987
v 0.0500000 -0.3837120 0.2020987
v 0.0500000 -0.2999983 0.2187556
v -0.0500000 -0.2162887 0.2020968
v -0.0500000 -0.2999983 0.2187556
v 0.0500000 -0.2999983 0.2187556
v 0.0500000 -0.2162887 0.2020968
v -0.0500000 -0.1453175 0.1546847
v -0.0500000 -0.2162887 0.2020968
v 0.0500000 -0.2162887 0.2020968
v 0.0500000 -0.1453175 0.1546847
v -0.4500000 -0.0000000 -0.2500000
v 0.4500000 -0.0000000 -0.2500000
v 0.4500000 -0.1500000 -0.2500000
v -0.4500000 -0.1500000 -0.2500000
v 0.0500000 -0.4546825 -0.1546847
v 0.0500000 -0.5020988 -0.0837120
v -0.0500000 -0.5020988 -0.0837120
v -0.0500000 -0.4546825 -0.1546847
v 0.0500000 -0.3837113 -0.2020968
v 0.0500000 -0.4546825 -0.1546847
v -0.0500000 -0.4546825 -0.1546847
v -0.0500000 -0.3837113 -0.2020968
v 0.0500000 -0.3000017 -0.2187556
v 0.0500000 -0.3837113 -0.2020968
v -0.0500000 -0.3837113 -0.2020968
v -0.0500000 -0.3000017 -0.2187556
v 0.0500000 -0.2162880 -0.2020987
v 0.0500000 -0.3000017 -0.2187556
v -0.0500000 -0.3000017 -0.2187556
v -0.0500000 -0.2162880 -0.2020987
v 0.0500000 -0.1453153 -0.1546825
v 0.0500000 -0.2162880 -0.2020987
v -0.0500000 -0.2162880 -0.2020987
v -0.0500000 -0.1453153 -0.1546825
s off
f 1 2 3
f 1 3 4
f 5 6 7
f 5 7 8
f 9 10 11
f 9 11 12
f 13 14 15
f 13 15 16
f 17 18 19
f 17 19 20
f 21 22 23
f 21 23 24
f 25 26 27
f 25 27 28
f 29 30 31
f 29 31 32
f 33 34 35
f 33 35 36
f 37 38 39
f 37 39 40
f 41 42 43
f 41 43 44
f 45 46 47
f 45 47 48
f 49 50 51
f 49 51 52
f 53 54 55
f 53 55 56
f 57 58 59
f 57 59 60
f 61 62 63
f 61 63 64
f 65 66 67
f 68 69 70
f 68 70 71
f 72 73 74
f 72 74 75
f 76 77 78
f 79 80 81
f 79 81 82
f 83 84 85
f 83 85 86
f 87 88 89
f 90 91 92
f 90 92 93
f 94 95 96
f 94 96 97
f 98 99 100
f 98 100 101
f 102 103 104
f 102 104 105
f 106 107 108
f 106 108 109
f 110 111 112
f 110 112 113
f 114 115 116
f 114 116 117
f 118 119 120
f 118 120 121
f 122 123 124
f 122 124 125
f 126 127 128
f 126 128 129
f 130 131 132
f 130 132 133
f 134 135 136
f 134 136 137
f 138 139 140
f 138 140 141
f 142 143 144
f 145 146 147
f 148 149 150
f 151 152 153
f 154 155 156
f 157 158 159
f 160 161 162
f 163 164 165
f 166 167 168
f 169 170 171
f 172 173 174
f 175 176 177
f 178 179 180
f 178 180 181
f 182 183 184
f 182 184 185
f 186 187 188
f 186 188 189
f 190 191 192
f 190 192 193
f 194 195 196
f 194 196 197
f 198 199 200
f 198 200 201
f 202 203 204
f 202 204 205
f 206 207 208
f 206 208 209
f 210 211 212
f 210 212 213
f 214 215 216
f 214 216 217
f 218 219 220
f 218 220 221
f 222 223 224
f 222 224 225
f 226 227 228
f 226 228 229
f 230 231 232
f 230 232 233
f 234 235 236
f 234 236 237
f 238 239 240
f 238 240 241
f 242 243 244
f 245 246 247
f 245 247 248
f 249 250 251
f 249 251 252
f 253 254 255
f 256 257 258
f 256 258 259
f 260 261 262
f 260 262 263
f 264 265 266
f 267 268 269
f 267 269 270
f 271 272 273
f 271 273 274
f 275 276 277
f 275 277 278
f 279 280 281
f 279 281 282
f 283 284 285
f 283 285 286
f 287 288 289
f 287 289 290
f 291 292 293
f 291 293 294
f 295 296 297
f 295 297 298
f 299 300 301
f 299 301 302
f 303 304 305
f 303 305 306
f 307 308 309
f 307 309 310
f 311 312 313
f 311 313 314
f 315 316 317
f 315 317 318
f 319 320 321
f 322 323 324
f 325 326 327
f 328 329 330
f 331 332 333
f 334 335 336
f 337 338 339
f 340 341 342
f 343 344 345
f 346 347 348
f 349 350 351
f 352 353 354
f 355 356 357
f 355 357 358
f 359 360 361
f 359 361 362
f 363 364 365
f 363 365 366
f 367 368 369
f 367 369 370
f 371 372 373
f 371 373 374
f 375 376 377
f 375 377 378
f 379 380 381
f 382 383 384
f 385 386 387
f 388 389 390
f 391 392 393
f 394 395 396
f 397 398 399
f 400 401 402
f 403 404 405
f 406 407 408
f 409 410 411
f 412 413 414
f 415 416 417
f 418 419 420
f 421 422 423
f 424 425 426
f 427 428 429
f 430 431 432
f 433 434 435
f 436 437 438
f 439 440 441
f 442 443 444
f 445 446 447
f 448 449 450
f 451 452 453
f 451 453 454
f 455 456 457
f 455 457 458
f 459 460 461
f 459 461 462
f 463 464 465
f 463 465 466
f 467 468 469
f 467 469 470
f 471 472 473
f 471 473 474
f 475 476 477
f 475 477 478
f 479 480 481
f 479 481 482
f 483 484 485
f 483 485 486
f 487 488 489
f 487 489 490
f 491 492 493
f 491 493 494
f 495 496 497
f 495 497 498
f 499 500 501
f 499 501 502
f 503 504 505
f 503 505 506
f 507 508 509
f 507 509 510
f 511 512 513
f 511 513 514
f 515 516 517
f 518 519 520
f 521 522 523
f 524 525 526
f 527 528 529
f 530 531 532
f 533 534 535
f 536 537 538
f 539 540 541
f 542 543 544
f 545 546 547
f 548 549 550
f 551 552 553
f 554 555 556
f 557 558 559
f 560 561 562
f 563 564 565
f 563 565 566
f 567 568 569
f 567 569 570
f 571 572 573
f 571 573 574
f 575 576 577
f 575 577 578
f 579 580 581
f 579 581 582
f 583 584 585
f 586 587 588
f 589 590 591
f 589 591 592
f 593 594 595
f 596 597 598
f 596 598 599
f 600 601 602
f 600 602 603
f 604 605 606
f 607 608 609
f 607 609 610
f 611 612 613
f 614 615 616
f 617 618 619
f 617 619 620
f 621 622 623
f 624 625 626
f 627 628 629
f 630 631 632
f 633 634 635
f 636 637 638
f 639 640 641
f 642 643 644
f 645 646 647
f 648 649 650
f 651 652 653
f 654 655 656
f 657 658 659
f 660 661 662
f 663 664 665
f 666 667 668
f 669 670 671
f 672 673 674
f 675 676 677
f 678 679 680
f 681 682 683
f 684 685 686
f 687 688 689
f 690 691 692
f 693 694 695
f 696 697 698
f 699 700 701
f 702 703 704
f 705 706 707
f 708 709 710
f 711 712 713
f 714 715 716
f 717 718 719
f 717 719 720
f 721 722 723
f 721 723 724
f 725 726 727
f 725 727 728
f 729 730 731
f 729 731 732
f 733 734 735
f 733 735 736
f 737 738 739
f 737 739 740
f 741 742 743
f 741 743 744
f 745 746 747
f 745 747 748
f 749 750 751
f 749 751 752
f 753 754 755
f 753 755 756
f 757 758 759
f 757 759 760
f 761 762 763
f 761 763 764
f 765 766 767
f 765 767 768
