# Baked from official LDraw part 3817b.dat
o ldraw_3817b
v 0.0500000 -0.0750000 0.0000000
v 0.0500000 -0.0692925 0.0287025
v 0.1812500 -0.0692925 0.0287025
v 0.1812500 -0.0750000 0.0000000
v 0.0500000 -0.0692925 0.0287025
v 0.0500000 -0.0530325 0.0530325
v 0.1812500 -0.0530325 0.0530325
v 0.1812500 -0.0692925 0.0287025
v 0.0500000 -0.0530325 0.0530325
v 0.0500000 -0.0287025 0.0692925
v 0.1812500 -0.0287025 0.0692925
v 0.1812500 -0.0530325 0.0530325
v 0.0500000 -0.0287025 0.0692925
v 0.0500000 -0.0000000 0.0750000
v 0.1812500 -0.0000000 0.0750000
v 0.1812500 -0.0287025 0.0692925
v 0.0500000 -0.0000000 0.0750000
v 0.0500000 0.0287025 0.0692925
v 0.1812500 0.0287025 0.0692925
v 0.1812500 -0.0000000 0.0750000
v 0.0500000 0.0287025 0.0692925
v 0.0500000 0.0530325 0.0530325
v 0.1812500 0.0530325 0.0530325
v 0.1812500 0.0287025 0.0692925
v 0.0500000 0.0530325 0.0530325
v 0.0500000 0.0692925 0.0287025
v 0.1812500 0.0692925 0.0287025
v 0.1812500 0.0530325 0.0530325
v 0.0500000 0.0692925 0.0287025
v 0.0500000 0.0750000 0.0000000
v 0.1812500 0.0750000 0.0000000
v 0.1812500 0.0692925 0.0287025
v 0.0500000 0.0750000 0.0000000
v 0.0500000 0.0692925 -0.0287025
v 0.1812500 0.0692925 -0.0287025
v 0.1812500 0.0750000 0.0000000
v 0.0500000 0.0692925 -0.0287025
v 0.0500000 0.0530325 -0.0530325
v 0.1812500 0.0530325 -0.0530325
v 0.1812500 0.0692925 -0.0287025
v 0.0500000 0.0530325 -0.0530325
v 0.0500000 0.0287025 -0.0692925
v 0.1812500 0.0287025 -0.0692925
v 0.1812500 0.0530325 -0.0530325
v 0.0500000 0.0287025 -0.0692925
v 0.0500000 -0.0000000 -0.0750000
v 0.1812500 -0.0000000 -0.0750000
v 0.1812500 0.0287025 -0.0692925
v 0.0500000 -0.0000000 -0.0750000
v 0.0500000 -0.0287025 -0.0692925
v 0.1812500 -0.0287025 -0.0692925
v 0.1812500 -0.0000000 -0.0750000
v 0.0500000 -0.0287025 -0.0692925
v 0.0500000 -0.0530325 -0.0530325
v 0.1812500 -0.0530325 -0.0530325
v 0.1812500 -0.0287025 -0.0692925
v 0.0500000 -0.0530325 -0.0530325
v 0.0500000 -0.0692925 -0.0287025
v 0.1812500 -0.0692925 -0.0287025
v 0.1812500 -0.0530325 -0.0530325
v 0.0500000 -0.0692925 -0.0287025
v 0.0500000 -0.0750000 0.0000000
v 0.1812500 -0.0750000 0.0000000
v 0.1812500 -0.0692925 -0.0287025
v 0.0500000 -0.0692925 0.0287025
v 0.0500000 -0.0750000 0.0000000
v 0.0500000 -0.0750000 0.0750000
v 0.0500000 -0.0530325 0.0530325
v 0.0500000 -0.0692925 0.0287025
v 0.0500000 -0.0750000 0.0750000
v 0.0500000 -0.0287025 0.0692925
v 0.0500000 -0.0530325 0.0530325
v 0.0500000 -0.0750000 0.0750000
v 0.0500000 -0.0000000 0.0750000
v 0.0500000 -0.0287025 0.0692925
v 0.0500000 -0.0750000 0.0750000
v 0.0500000 0.0287025 0.0692925
v 0.0500000 -0.0000000 0.0750000
v 0.0500000 0.0750000 0.0750000
v 0.0500000 0.0530325 0.0530325
v 0.0500000 0.0287025 0.0692925
v 0.0500000 0.0750000 0.0750000
v 0.0500000 0.0692925 0.0287025
v 0.0500000 0.0530325 0.0530325
v 0.0500000 0.0750000 0.0750000
v 0.0500000 0.0750000 0.0000000
v 0.0500000 0.0692925 0.0287025
v 0.0500000 0.0750000 0.0750000
v 0.0500000 0.0692925 -0.0287025
v 0.0500000 0.0750000 0.0000000
v 0.0500000 0.0750000 -0.0750000
v 0.0500000 0.0530325 -0.0530325
v 0.0500000 0.0692925 -0.0287025
v 0.0500000 0.0750000 -0.0750000
v 0.0500000 0.0287025 -0.0692925
v 0.0500000 0.0530325 -0.0530325
v 0.0500000 0.0750000 -0.0750000
v 0.0500000 -0.0000000 -0.0750000
v 0.0500000 0.0287025 -0.0692925
v 0.0500000 0.0750000 -0.0750000
v 0.0500000 -0.0287025 -0.0692925
v 0.0500000 -0.0000000 -0.0750000
v 0.0500000 -0.0750000 -0.0750000
v 0.0500000 -0.0530325 -0.0530325
v 0.0500000 -0.0287025 -0.0692925
v 0.0500000 -0.0750000 -0.0750000
v 0.0500000 -0.0692925 -0.0287025
v 0.0500000 -0.0530325 -0.0530325
v 0.0500000 -0.0750000 -0.0750000
v 0.0500000 -0.0750000 0.0000000
v 0.0500000 -0.0692925 -0.0287025
v 0.0500000 -0.0750000 -0.0750000
v 0.1812500 -0.0750000 0.0750000
v 0.1812500 -0.0750000 0.0000000
v 0.1812500 -0.0692925 0.0287025
v 0.1812500 -0.0750000 0.0750000
v 0.1812500 -0.0692925 0.0287025
v 0.1812500 -0.0530325 0.0530325
v 0.1812500 -0.0750000 0.0750000
v 0.1812500 -0.0530325 0.0530325
v 0.1812500 -0.0287025 0.0692925
v 0.1812500 -0.0750000 0.0750000
v 0.1812500 -0.0287025 0.0692925
v 0.1812500 -0.0000000 0.0750000
v 0.1812500 0.0750000 0.0750000
v 0.1812500 -0.0000000 0.0750000
v 0.1812500 0.0287025 0.0692925
v 0.1812500 0.0750000 0.0750000
v 0.1812500 0.0287025 0.0692925
v 0.1812500 0.0530325 0.0530325
v 0.1812500 0.0750000 0.0750000
v 0.1812500 0.0530325 0.0530325
v 0.1812500 0.0692925 0.0287025
v 0.1812500 0.0750000 0.0750000
v 0.1812500 0.0692925 0.0287025
v 0.1812500 0.0750000 0.0000000
v 0.1812500 0.0750000 -0.0750000
v 0.1812500 0.0750000 0.0000000
v 0.1812500 0.0692925 -0.0287025
v 0.1812500 0.0750000 -0.0750000
v 0.1812500 0.0692925 -0.0287025
v 0.1812500 0.0530325 -0.0530325
v 0.1812500 0.0750000 -0.0750000
v 0.1812500 0.0530325 -0.0530325
v 0.1812500 0.0287025 -0.0692925
v 0.1812500 0.0750000 -0.0750000
v 0.1812500 0.0287025 -0.0692925
v 0.1812500 -0.0000000 -0.0750000
v 0.1812500 -0.0750000 -0.0750000
v 0.1812500 -0.0000000 -0.0750000
v 0.1812500 -0.0287025 -0.0692925
v 0.1812500 -0.0750000 -0.0750000
v 0.1812500 -0.0287025 -0.0692925
v 0.1812500 -0.0530325 -0.0530325
v 0.1812500 -0.0750000 -0.0750000
v 0.1812500 -0.0530325 -0.0530325
v 0.1812500 -0.0692925 -0.0287025
v 0.1812500 -0.0750000 -0.0750000
v 0.1812500 -0.0692925 -0.0287025
v 0.1812500 -0.0750000 0.0000000
v 0.4000000 -0.6000000 0.1500000
v 0.2500000 -0.6000000 0.1500000
v 0.3074050 -0.5885850 0.1500000
v 0.4000000 -0.6000000 0.1500000
v 0.3074050 -0.5885850 0.1500000
v 0.3560650 -0.5560650 0.1500000
v 0.4000000 -0.6000000 0.1500000
v 0.3560650 -0.5560650 0.1500000
v 0.3885850 -0.5074050 0.1500000
v 0.4000000 -0.6000000 0.1500000
v 0.3885850 -0.5074050 0.1500000
v 0.4000000 -0.4500000 0.1500000
v 0.4000000 -0.3000000 0.1500000
v 0.4000000 -0.4500000 0.1500000
v 0.3885850 -0.3925950 0.1500000
v 0.4000000 -0.3000000 0.1500000
v 0.3885850 -0.3925950 0.1500000
v 0.3560650 -0.3439350 0.1500000
v 0.4000000 -0.3000000 0.1500000
v 0.3560650 -0.3439350 0.1500000
v 0.3074050 -0.3114150 0.1500000
v 0.4000000 -0.3000000 0.1500000
v 0.3074050 -0.3114150 0.1500000
v 0.2500000 -0.3000000 0.1500000
v 0.1000000 -0.3000000 0.1500000
v 0.2500000 -0.3000000 0.1500000
v 0.1925950 -0.3114150 0.1500000
v 0.1000000 -0.3000000 0.1500000
v 0.1925950 -0.3114150 0.1500000
v 0.1439350 -0.3439350 0.1500000
v 0.1000000 -0.3000000 0.1500000
v 0.1439350 -0.3439350 0.1500000
v 0.1114150 -0.3925950 0.1500000
v 0.1000000 -0.3000000 0.1500000
v 0.1114150 -0.3925950 0.1500000
v 0.1000000 -0.4500000 0.1500000
v 0.1000000 -0.6000000 0.1500000
v 0.1000000 -0.4500000 0.1500000
v 0.1114150 -0.5074050 0.1500000
v 0.1000000 -0.6000000 0.1500000
v 0.1114150 -0.5074050 0.1500000
v 0.1439350 -0.5560650 0.1500000
v 0.1000000 -0.6000000 0.1500000
v 0.1439350 -0.5560650 0.1500000
v 0.1925950 -0.5885850 0.1500000
v 0.1000000 -0.6000000 0.1500000
v 0.1925950 -0.5885850 0.1500000
v 0.2500000 -0.6000000 0.1500000
v 0.1000000 -0.1375000 0.1500000
v 0.1000000 -0.1375000 -0.0500000
v 0.4000000 -0.1375000 -0.0500000
v 0.4000000 -0.1375000 0.1500000
v 0.1000000 -0.5625000 -0.0500000
v 0.4000000 -0.5625000 -0.0500000
v 0.4000000 -0.1375000 -0.0500000
v 0.1000000 -0.1375000 -0.0500000
v 0.0375000 -0.0837250 0.2224875
v 0.0500000 -0.0837250 0.2224875
v 0.0500000 -0.0837250 0.2021000
v 0.0375000 -0.0837250 0.2021000
v 0.4000000 -0.5625000 -0.1500000
v 0.1000000 -0.5625000 -0.1500000
v 0.1000000 -0.7000000 -0.1500000
v 0.4000000 -0.7000000 -0.1500000
v 0.1114250 0.1074000 0.1500000
v 0.1451250 0.1577500 0.1500000
v 0.1430500 0.1546750 0.1546750
v 0.1114250 0.1074000 0.1862250
v 0.1926000 -0.0885750 0.2227050
v 0.1812500 -0.0810000 0.1500000
v 0.1439250 -0.0560750 0.1500000
v 0.1439250 -0.0560750 0.2212550
v 0.1926000 -0.0885750 -0.0500000
v 0.1926000 -0.0885750 0.2227050
v 0.2500000 -0.1000000 0.2232150
v 0.2500000 -0.1000000 -0.0500000
v 0.1067250 0.0837250 0.2021000
v 0.0500000 0.0837250 0.2021000
v 0.0500000 -0.0000000 0.2187500
v 0.1000000 0.0497500 0.2088500
v 0.1000000 0.0500000 0.1500000
v 0.1000000 0.0497500 0.2088500
v 0.1099500 -0.0000000 0.2187500
v 0.1099500 -0.0000000 0.2187500
v 0.1114250 -0.0074000 0.2190800
v 0.1114250 -0.0074000 0.1500000
v 0.1000000 0.0500000 0.1500000
v 0.1439250 -0.0560750 0.1500000
v 0.1114250 -0.0074000 0.1500000
v 0.1114250 -0.0074000 0.2190800
v 0.1439250 -0.0560750 0.2212550
v 0.0500000 -0.0837250 0.2224875
v 0.0375000 -0.0837250 0.2224875
v 0.0375000 -0.7000000 0.2500000
v 0.1000000 -0.4500000 0.2388400
v 0.1000000 -0.5625000 -0.0500000
v 0.1000000 -0.1375000 -0.0500000
v 0.1000000 -0.3000000 0.1500000
v 0.1000000 -0.4500000 0.1500000
v 0.1000000 -0.1375000 -0.0500000
v 0.1000000 -0.1375000 0.1500000
v 0.1000000 -0.3000000 0.1500000
v 0.1000000 -0.4500000 0.1500000
v 0.1000000 -0.6000000 0.1500000
v 0.1000000 -0.5625000 -0.0500000
v 0.1000000 -0.5625000 -0.0500000
v 0.1000000 -0.5625000 -0.1500000
v 0.4000000 -0.5625000 -0.1500000
v 0.4000000 -0.5625000 -0.0500000
v 0.4000000 -0.4500000 0.1500000
v 0.4000000 -0.3000000 0.1500000
v 0.4000000 -0.1375000 -0.0500000
v 0.4000000 -0.5625000 -0.0500000
v 0.4000000 -0.3000000 0.1500000
v 0.4000000 -0.1375000 0.1500000
v 0.4000000 -0.1375000 -0.0500000
v 0.1000000 -0.5625000 -0.1500000
v 0.1000000 -0.5625000 -0.0500000
v 0.1000000 -0.7000000 0.1500000
v 0.1000000 -0.7000000 -0.1500000
v 0.1000000 -0.6000000 0.1500000
v 0.1000000 -0.7000000 0.1500000
v 0.1000000 -0.5625000 -0.0500000
v 0.4000000 -0.7000000 -0.1500000
v 0.4000000 -0.7000000 0.1500000
v 0.4000000 -0.6000000 0.1500000
v 0.4000000 -0.5625000 -0.0500000
v 0.4000000 -0.6000000 0.1500000
v 0.4000000 -0.4500000 0.1500000
v 0.4000000 -0.5625000 -0.0500000
v 0.4000000 -0.5625000 -0.1500000
v 0.4000000 -0.7000000 -0.1500000
v 0.4000000 -0.6000000 0.1500000
v 0.4000000 -0.7000000 0.1500000
v 0.1000000 -0.7000000 0.1500000
v 0.1000000 -0.6000000 0.1500000
v 0.2500000 -0.6000000 0.1500000
v 0.1067250 0.0837250 0.2021000
v 0.1000000 0.0497500 0.2088500
v 0.1000000 0.0500000 0.1500000
v 0.1114250 0.1074000 0.1500000
v 0.1114250 0.1074000 0.1862250
v 0.1067250 0.0837250 0.2021000
v 0.1114250 0.1074000 0.1500000
v 0.4000000 0.0500000 0.1500000
v 0.4000000 0.0497500 0.2088500
v 0.3932750 0.0837250 0.2021000
v 0.3885750 0.1074000 0.1500000
v 0.4000000 0.0500000 0.1500000
v 0.3932750 0.0837250 0.2021000
v 0.3885750 0.1074000 0.1862250
v 0.0375000 -0.2187500 0.0000000
v 0.0375000 -0.2021000 -0.0837250
v 0.0375000 -0.5000000 -0.1000000
v 0.0375000 -0.1914250 -0.1000000
v 0.0375000 -0.5000000 -0.1000000
v 0.0375000 -0.2021000 -0.0837250
v 0.0375000 -0.2021000 -0.0837250
v 0.0375000 -0.2187500 0.0000000
v 0.0500000 -0.2187500 0.0000000
v 0.0500000 -0.2021000 -0.0837250
v 0.0500000 -0.1914250 -0.1000000
v 0.0375000 -0.1914250 -0.1000000
v 0.0375000 -0.2021000 -0.0837250
v 0.0500000 -0.2021000 -0.0837250
v 0.0375000 -0.2187500 0.0000000
v 0.0375000 -0.2021000 0.0837250
v 0.0500000 -0.2021000 0.0837250
v 0.0500000 -0.2187500 0.0000000
v 0.0375000 -0.2021000 0.0837250
v 0.0375000 -0.1546750 0.1546750
v 0.0500000 -0.1546750 0.1546750
v 0.0500000 -0.2021000 0.0837250
v 0.0375000 -0.1546750 0.1546750
v 0.0375000 -0.0837250 0.2021000
v 0.0500000 -0.0837250 0.2021000
v 0.0500000 -0.1546750 0.1546750
v 0.1114250 0.1074000 0.1862250
v 0.0500000 0.1546750 0.1546750
v 0.0500000 0.0837250 0.2021000
v 0.1067250 0.0837250 0.2021000
v 0.1114250 0.1074000 0.1862250
v 0.1430500 0.1546750 0.1546750
v 0.0500000 0.1546750 0.1546750
v 0.1114250 -0.0074000 0.1500000
v 0.1439250 -0.0560750 0.1500000
v 0.1812500 -0.0810000 0.1500000
v 0.1812500 0.1375000 0.1500000
v 0.1451250 0.1577500 0.1500000
v 0.1114250 0.1074000 0.1500000
v 0.1000000 0.0500000 0.1500000
v 0.4000000 0.0500000 0.1500000
v 0.3687500 -0.0370750 0.1500000
v 0.3885750 -0.0074000 0.1500000
v 0.3687500 -0.0370750 0.1500000
v 0.4000000 0.0500000 0.1500000
v 0.3885750 0.1074000 0.1500000
v 0.3687500 0.1375000 0.1500000
v 0.1812500 -0.0810000 0.1500000
v 0.1812500 0.1375000 0.1500000
v 0.1000000 0.0500000 0.1500000
v 0.1114250 -0.0074000 0.1500000
v 0.3687500 0.1375000 0.1500000
v 0.3553500 0.1578000 0.1500000
v 0.1451250 0.1577500 0.1500000
v 0.1812500 0.1375000 0.1500000
v 0.3553500 0.1578000 0.1500000
v 0.3687500 0.1375000 0.1500000
v 0.3574500 0.1546750 0.1546750
v 0.3687500 0.1375000 0.1500000
v 0.3885750 0.1074000 0.1500000
v 0.3885750 0.1074000 0.1862250
v 0.3574500 0.1546750 0.1546750
v 0.3074000 -0.0885750 0.2227050
v 0.3560750 -0.0560750 0.2212550
v 0.3560750 -0.0560750 -0.1000000
v 0.3074000 -0.0885750 -0.1000000
v 0.3687500 -0.0370750 0.1500000
v 0.3687500 -0.0370750 -0.1000000
v 0.3560750 -0.0560750 -0.1000000
v 0.3560750 -0.0560750 0.2212550
v 0.1926000 -0.0885750 -0.0500000
v 0.1812500 -0.0810000 -0.1000000
v 0.1812500 -0.0810000 0.1500000
v 0.1926000 -0.0885750 0.2227050
v 0.3687500 0.1375000 0.0250000
v 0.3687500 0.1375000 0.1500000
v 0.1812500 0.1375000 0.1500000
v 0.1812500 0.1375000 0.0250000
v 0.3687500 0.1375000 0.1500000
v 0.3687500 0.1375000 0.0250000
v 0.3687500 0.1279750 -0.0228250
v 0.3687500 0.1009000 -0.0634000
v 0.3687500 -0.0370750 -0.1000000
v 0.3687500 -0.0370750 0.1500000
v 0.3687500 0.1375000 0.1500000
v 0.3687500 0.0603250 -0.0904750
v 0.3687500 -0.0370750 -0.1000000
v 0.3687500 0.1375000 0.1500000
v 0.3687500 0.1009000 -0.0634000
v 0.1812500 0.0603250 -0.0904750
v 0.1812500 -0.0370750 -0.1000000
v 0.3687500 -0.0370750 -0.1000000
v 0.3687500 0.0603250 -0.0904750
v 0.1812500 0.1009000 -0.0634000
v 0.1812500 0.0603250 -0.0904750
v 0.3687500 0.0603250 -0.0904750
v 0.3687500 0.1009000 -0.0634000
v 0.1812500 0.1279750 -0.0228250
v 0.1812500 0.1009000 -0.0634000
v 0.3687500 0.1009000 -0.0634000
v 0.3687500 0.1279750 -0.0228250
v 0.1812500 0.1279750 -0.0228250
v 0.3687500 0.1279750 -0.0228250
v 0.3687500 0.1375000 0.0250000
v 0.1812500 0.1375000 0.0250000
v 0.4000000 -0.7000000 -0.1500000
v 0.1000000 -0.7000000 -0.1500000
v 0.0375000 -0.7000000 -0.2500000
v 0.4875000 -0.7000000 -0.2500000
v 0.4562500 0.2187500 0.0000000
v 0.4568250 0.2021000 -0.0837250
v 0.0500000 0.2021000 -0.0837250
v 0.0500000 0.2187500 0.0000000
v 0.0500000 0.1546750 -0.1546750
v 0.0500000 0.2021000 -0.0837250
v 0.4568250 0.2021000 -0.0837250
v 0.4584250 0.1546750 -0.1546750
v 0.0500000 0.2187500 0.0000000
v 0.0500000 0.2021000 0.0837250
v 0.4568250 0.2021000 0.0837250
v 0.4562500 0.2187500 0.0000000
v 0.0375000 -0.2021000 0.0837250
v 0.0375000 -0.2187500 0.0000000
v 0.0375000 -0.5000000 -0.1000000
v 0.0375000 -0.7000000 0.2500000
v 0.0375000 -0.5000000 -0.1000000
v 0.0375000 -0.5000000 -0.2500000
v 0.0375000 -0.7000000 -0.2500000
v 0.0375000 -0.7000000 0.2500000
v 0.0375000 -0.0837250 0.2224875
v 0.0375000 -0.0837250 0.2021000
v 0.0375000 -0.1546750 0.1546750
v 0.0375000 -0.7000000 0.2500000
v 0.0375000 -0.1546750 0.1546750
v 0.0375000 -0.2021000 0.0837250
v 0.0375000 -0.7000000 0.2500000
v 0.1114150 -0.3925950 0.2362775
v 0.1000000 -0.4500000 0.2388400
v 0.1000000 -0.4500000 0.1500000
v 0.1114150 -0.3925950 0.1500000
v 0.4875000 -0.7000000 -0.2500000
v 0.4875000 -0.7000000 0.2500000
v 0.4000000 -0.7000000 0.1500000
v 0.4000000 -0.7000000 -0.1500000
v 0.1000000 -0.7000000 -0.1500000
v 0.1000000 -0.7000000 0.1500000
v 0.0375000 -0.7000000 0.2500000
v 0.0375000 -0.7000000 -0.2500000
v 0.1000000 -0.7000000 0.1500000
v 0.4000000 -0.7000000 0.1500000
v 0.4875000 -0.7000000 0.2500000
v 0.0375000 -0.7000000 0.2500000
v 0.2500000 -0.3000000 0.2321425
v 0.1925950 -0.3114150 0.2326525
v 0.1925950 -0.3114150 0.1500000
v 0.2500000 -0.3000000 0.1500000
v 0.2500000 -0.3000000 0.1500000
v 0.3074050 -0.3114150 0.1500000
v 0.3074050 -0.3114150 0.2326525
v 0.2500000 -0.3000000 0.2321425
v 0.1439350 -0.3439350 0.2341050
v 0.1114150 -0.3925950 0.2362775
v 0.1114150 -0.3925950 0.1500000
v 0.1439350 -0.3439350 0.1500000
v 0.1925950 -0.3114150 0.2326525
v 0.1439350 -0.3439350 0.2341050
v 0.1439350 -0.3439350 0.1500000
v 0.1925950 -0.3114150 0.1500000
v 0.3885850 -0.5074050 0.1500000
v 0.3560650 -0.5560650 0.1500000
v 0.3560650 -0.5560650 0.2435750
v 0.3885850 -0.5074050 0.2414025
v 0.4000000 -0.4500000 0.2388400
v 0.3885850 -0.3925950 0.2362775
v 0.3885850 -0.3925950 0.1500000
v 0.4000000 -0.4500000 0.1500000
v 0.4000000 -0.4500000 0.1500000
v 0.3885850 -0.5074050 0.1500000
v 0.3885850 -0.5074050 0.2414025
v 0.4000000 -0.4500000 0.2388400
v 0.3885850 -0.3925950 0.2362775
v 0.3560650 -0.3439350 0.2341050
v 0.3560650 -0.3439350 0.1500000
v 0.3885850 -0.3925950 0.1500000
v 0.3560650 -0.3439350 0.2341050
v 0.3074050 -0.3114150 0.2326525
v 0.3074050 -0.3114150 0.1500000
v 0.3560650 -0.3439350 0.1500000
v 0.2500000 -0.6000000 0.1500000
v 0.1925950 -0.5885850 0.1500000
v 0.1925950 -0.5885850 0.2450250
v 0.2500000 -0.6000000 0.2455350
v 0.3074050 -0.5885850 0.1500000
v 0.2500000 -0.6000000 0.1500000
v 0.2500000 -0.6000000 0.2455350
v 0.3074050 -0.5885850 0.2450250
v 0.3560650 -0.5560650 0.1500000
v 0.3074050 -0.5885850 0.1500000
v 0.3074050 -0.5885850 0.2450250
v 0.3560650 -0.5560650 0.2435750
v 0.1114150 -0.5074050 0.2414025
v 0.0375000 -0.7000000 0.2500000
v 0.1439350 -0.5560650 0.2435750
v 0.1000000 -0.4500000 0.2388400
v 0.1114150 -0.5074050 0.2414025
v 0.1114150 -0.5074050 0.1500000
v 0.1000000 -0.4500000 0.1500000
v 0.0375000 -0.7000000 0.2500000
v 0.1114150 -0.5074050 0.2414025
v 0.1000000 -0.4500000 0.2388400
v 0.1925950 -0.5885850 0.1500000
v 0.1439350 -0.5560650 0.1500000
v 0.1439350 -0.5560650 0.2435750
v 0.1925950 -0.5885850 0.2450250
v 0.1439350 -0.5560650 0.1500000
v 0.1114150 -0.5074050 0.1500000
v 0.1114150 -0.5074050 0.2414025
v 0.1439350 -0.5560650 0.2435750
v 0.3885850 -0.5074050 0.2414025
v 0.3560650 -0.5560650 0.2435750
v 0.4875000 -0.7000000 0.2500000
v 0.4000000 -0.4500000 0.2388400
v 0.3885850 -0.5074050 0.2414025
v 0.4875000 -0.7000000 0.2500000
v 0.3932750 0.0837250 0.2021000
v 0.4000000 0.0497500 0.2088500
v 0.4636500 -0.0000000 0.2187500
v 0.4608250 0.0837250 0.2021000
v 0.3885750 -0.0074000 0.2190800
v 0.3900500 -0.0000000 0.2187500
v 0.3885750 -0.0074000 0.1500000
v 0.3900500 -0.0000000 0.2187500
v 0.4000000 0.0497500 0.2088500
v 0.4000000 0.0500000 0.1500000
v 0.3885750 -0.0074000 0.1500000
v 0.3885750 -0.0074000 0.1500000
v 0.3687500 -0.0370750 0.1500000
v 0.3560750 -0.0560750 0.2212550
v 0.3885750 -0.0074000 0.2190800
v 0.0500000 -0.0000000 0.2187500
v 0.0500000 0.0837250 0.2021000
v 0.0500000 0.0750000 0.0750000
v 0.0500000 -0.0000000 0.0750000
v 0.0500000 -0.0837250 0.2021000
v 0.0500000 -0.0837250 0.2224875
v 0.0500000 -0.0000000 0.2187500
v 0.0500000 -0.0750000 0.0750000
v 0.0500000 -0.0837250 0.2021000
v 0.0500000 -0.0000000 0.2187500
v 0.0500000 -0.0000000 0.0750000
v 0.0500000 -0.2021000 0.0837250
v 0.0500000 -0.1546750 0.1546750
v 0.0500000 -0.0837250 0.2021000
v 0.0500000 -0.0750000 0.0750000
v 0.0500000 -0.0750000 0.0000000
v 0.0500000 -0.2187500 0.0000000
v 0.0500000 -0.2021000 0.0837250
v 0.0500000 -0.0750000 0.0750000
v 0.0500000 0.2021000 0.0837250
v 0.0500000 0.0750000 0.0750000
v 0.0500000 0.0837250 0.2021000
v 0.0500000 0.1546750 0.1546750
v 0.0500000 0.2187500 0.0000000
v 0.0500000 0.0750000 0.0000000
v 0.0500000 0.0750000 0.0750000
v 0.0500000 0.2021000 0.0837250
v 0.0500000 0.0750000 -0.0750000
v 0.0500000 0.0750000 0.0000000
v 0.0500000 0.2187500 0.0000000
v 0.0500000 0.2021000 -0.0837250
v 0.0500000 0.0837250 -0.2021000
v 0.0500000 0.0750000 -0.0750000
v 0.0500000 0.2021000 -0.0837250
v 0.0500000 0.1546750 -0.1546750
v 0.0500000 -0.0000000 -0.0750000
v 0.0500000 0.0750000 -0.0750000
v 0.0500000 0.0837250 -0.2021000
v 0.0500000 -0.0000000 -0.2187500
v 0.0500000 -0.0750000 -0.0750000
v 0.0500000 -0.0000000 -0.0750000
v 0.0500000 -0.0000000 -0.2187500
v 0.0500000 -0.0837250 -0.2021000
v 0.0500000 -0.2021000 -0.0837250
v 0.0500000 -0.2187500 0.0000000
v 0.0500000 -0.0750000 0.0000000
v 0.0500000 -0.0750000 -0.0750000
v 0.0500000 -0.1849750 -0.1000000
v 0.0500000 -0.0750000 -0.0750000
v 0.0500000 -0.0837250 -0.2021000
v 0.0500000 -0.1546750 -0.1546750
v 0.0500000 -0.1914250 -0.1000000
v 0.0500000 -0.2021000 -0.0837250
v 0.0500000 -0.0750000 -0.0750000
v 0.0500000 -0.1849750 -0.1000000
v 0.4000000 -0.7000000 0.1500000
v 0.2500000 -0.6000000 0.1500000
v 0.4000000 -0.6000000 0.1500000
v 0.2500000 -0.3000000 0.1500000
v 0.1000000 -0.1375000 0.1500000
v 0.4000000 -0.1375000 0.1500000
v 0.4000000 -0.3000000 0.1500000
v 0.1000000 -0.1375000 0.1500000
v 0.2500000 -0.3000000 0.1500000
v 0.1000000 -0.3000000 0.1500000
v 0.1812500 -0.0810000 -0.1000000
v 0.1812500 -0.0560750 -0.1000000
v 0.1812500 -0.0750000 -0.0750000
v 0.1812500 -0.0750000 -0.0750000
v 0.1812500 -0.0560750 -0.1000000
v 0.1812500 -0.0370750 -0.1000000
v 0.1812500 -0.0000000 -0.0750000
v 0.1812500 -0.0810000 -0.1000000
v 0.1812500 -0.0750000 -0.0750000
v 0.1812500 -0.0750000 0.0000000
v 0.1812500 -0.0750000 0.0000000
v 0.1812500 -0.0750000 0.0750000
v 0.1812500 -0.0810000 0.1500000
v 0.1812500 -0.0810000 -0.1000000
v 0.1812500 -0.0000000 -0.0750000
v 0.1812500 -0.0370750 -0.1000000
v 0.1812500 0.0603250 -0.0904750
v 0.1812500 0.0750000 -0.0750000
v 0.1812500 0.0750000 0.0000000
v 0.1812500 0.0750000 -0.0750000
v 0.1812500 0.1009000 -0.0634000
v 0.1812500 0.1279750 -0.0228250
v 0.1812500 0.0750000 0.0000000
v 0.1812500 0.1279750 -0.0228250
v 0.1812500 0.1375000 0.0250000
v 0.1812500 0.0750000 0.0750000
v 0.1812500 0.0750000 0.0000000
v 0.1812500 0.1375000 0.0250000
v 0.1812500 0.1375000 0.1500000
v 0.1812500 0.1009000 -0.0634000
v 0.1812500 0.0750000 -0.0750000
v 0.1812500 0.0603250 -0.0904750
v 0.1812500 -0.0810000 0.1500000
v 0.1812500 -0.0000000 0.0750000
v 0.1812500 0.0750000 0.0750000
v 0.1812500 0.1375000 0.1500000
v 0.1812500 -0.0750000 0.0750000
v 0.1812500 -0.0000000 0.0750000
v 0.1812500 -0.0810000 0.1500000
v 0.2500000 -0.3000000 0.2321425
v 0.3074050 -0.3114150 0.2326525
v 0.3074000 -0.0885750 0.2227050
v 0.2500000 -0.1000000 0.2232150
v 0.1925950 -0.3114150 0.2326525
v 0.2500000 -0.3000000 0.2321425
v 0.2500000 -0.1000000 0.2232150
v 0.1926000 -0.0885750 0.2227050
v 0.3074050 -0.3114150 0.2326525
v 0.3560650 -0.3439350 0.2341050
v 0.3560750 -0.0560750 0.2212550
v 0.3074000 -0.0885750 0.2227050
v 0.1439350 -0.3439350 0.2341050
v 0.1925950 -0.3114150 0.2326525
v 0.1926000 -0.0885750 0.2227050
v 0.1439250 -0.0560750 0.2212550
v 0.1114250 -0.0074000 0.2190800
v 0.1114150 -0.3925950 0.2362775
v 0.1439350 -0.3439350 0.2341050
v 0.1439250 -0.0560750 0.2212550
v 0.3885850 -0.3925950 0.2362775
v 0.3885750 -0.0074000 0.2190800
v 0.3560750 -0.0560750 0.2212550
v 0.3560650 -0.3439350 0.2341050
v 0.2500000 -0.6000000 0.2455350
v 0.0375000 -0.7000000 0.2500000
v 0.4875000 -0.7000000 0.2500000
v 0.3074050 -0.5885850 0.2450250
v 0.0375000 -0.7000000 0.2500000
v 0.2500000 -0.6000000 0.2455350
v 0.1925950 -0.5885850 0.2450250
v 0.1925950 -0.5885850 0.2450250
v 0.1439350 -0.5560650 0.2435750
v 0.0375000 -0.7000000 0.2500000
v 0.3074050 -0.5885850 0.2450250
v 0.4875000 -0.7000000 0.2500000
v 0.3560650 -0.5560650 0.2435750
v 0.4000000 -0.4500000 0.2388400
v 0.4636500 -0.0000000 0.2187500
v 0.3885750 -0.0074000 0.2190800
v 0.3885850 -0.3925950 0.2362775
v 0.1000000 -0.4500000 0.2388400
v 0.1114150 -0.3925950 0.2362775
v 0.1114250 -0.0074000 0.2190800
v 0.0500000 -0.0000000 0.2187500
v 0.4636500 -0.0000000 0.2187500
v 0.4000000 -0.4500000 0.2388400
v 0.4875000 -0.7000000 0.2500000
v 0.4000000 0.0497500 0.2088500
v 0.3900500 -0.0000000 0.2187500
v 0.4636500 -0.0000000 0.2187500
v 0.3900500 -0.0000000 0.2187500
v 0.3885750 -0.0074000 0.2190800
v 0.4636500 -0.0000000 0.2187500
v 0.1114250 -0.0074000 0.2190800
v 0.1099500 -0.0000000 0.2187500
v 0.0500000 -0.0000000 0.2187500
v 0.1099500 -0.0000000 0.2187500
v 0.1000000 0.0497500 0.2088500
v 0.0500000 -0.0000000 0.2187500
v 0.0500000 -0.0000000 0.2187500
v 0.0500000 -0.0837250 0.2224875
v 0.1000000 -0.4500000 0.2388400
v 0.1812500 -0.0560750 -0.1000000
v 0.1812500 -0.0810000 -0.1000000
v 0.3074000 -0.0885750 -0.1000000
v 0.3560750 -0.0560750 -0.1000000
v 0.1812500 -0.0370750 -0.1000000
v 0.1812500 -0.0560750 -0.1000000
v 0.3560750 -0.0560750 -0.1000000
v 0.3687500 -0.0370750 -0.1000000
v 0.1926000 -0.0885750 -0.0500000
v 0.2500000 -0.1000000 -0.0500000
v 0.1812500 -0.0810000 -0.1000000
v 0.1812500 -0.0810000 -0.1000000
v 0.2500000 -0.1000000 -0.0500000
v 0.3074000 -0.0885750 -0.1000000
v 0.3932750 0.0837250 0.2021000
v 0.4608250 0.0837250 0.2021000
v 0.4584250 0.1546750 0.1546750
v 0.3885750 0.1074000 0.1862250
v 0.3574500 0.1546750 0.1546750
v 0.3885750 0.1074000 0.1862250
v 0.4584250 0.1546750 0.1546750
v 0.1430500 0.1546750 0.1546750
v 0.1451250 0.1577500 0.1500000
v 0.0500000 0.2021000 0.0837250
v 0.0500000 0.1546750 0.1546750
v 0.3574500 0.1546750 0.1546750
v 0.4584250 0.1546750 0.1546750
v 0.4568250 0.2021000 0.0837250
v 0.3553500 0.1578000 0.1500000
v 0.0500000 0.2021000 0.0837250
v 0.1451250 0.1577500 0.1500000
v 0.3553500 0.1578000 0.1500000
v 0.4568250 0.2021000 0.0837250
v 0.3074000 -0.0885750 0.2227050
v 0.3074000 -0.0885750 -0.1000000
v 0.2500000 -0.1000000 -0.0500000
v 0.2500000 -0.1000000 0.2232150
v 0.4568250 0.2021000 0.0837250
v 0.4568250 0.2021000 -0.0837250
v 0.4562500 0.2187500 0.0000000
v 0.4584250 0.1546750 0.1546750
v 0.4584250 0.1546750 -0.1546750
v 0.4568250 0.2021000 -0.0837250
v 0.4568250 0.2021000 0.0837250
v 0.4608250 0.0837250 0.2021000
v 0.4608250 0.0837250 -0.2021000
v 0.4584250 0.1546750 -0.1546750
v 0.4584250 0.1546750 0.1546750
v 0.4636500 -0.0000000 0.2187500
v 0.4636500 -0.0000000 -0.2187500
v 0.4608250 0.0837250 -0.2021000
v 0.4608250 0.0837250 0.2021000
v 0.4636500 -0.0000000 0.2187500
v 0.4688750 -0.1546750 -0.1546750
v 0.4664750 -0.0837250 -0.2021000
v 0.4636500 -0.0000000 -0.2187500
v 0.4636500 -0.0000000 0.2187500
v 0.4701000 -0.1849750 -0.1000000
v 0.4688750 -0.1546750 -0.1546750
v 0.4807500 -0.5000000 -0.2500000
v 0.4807500 -0.5000000 -0.1000000
v 0.4875000 -0.7000000 0.2500000
v 0.4875000 -0.7000000 -0.2500000
v 0.4807500 -0.5000000 -0.1000000
v 0.4701000 -0.1849750 -0.1000000
v 0.4636500 -0.0000000 0.2187500
v 0.4875000 -0.7000000 0.2500000
v 0.4701000 -0.1849750 -0.1000000
v 0.0500000 -0.1849750 -0.1000000
v 0.0500000 -0.1546750 -0.1546750
v 0.4688750 -0.1546750 -0.1546750
v 0.0500000 -0.0837250 -0.2021000
v 0.0500000 -0.0000000 -0.2187500
v 0.4636500 -0.0000000 -0.2187500
v 0.4664750 -0.0837250 -0.2021000
v 0.0500000 -0.0000000 -0.2187500
v 0.0500000 0.0837250 -0.2021000
v 0.4608250 0.0837250 -0.2021000
v 0.4636500 -0.0000000 -0.2187500
v 0.0500000 0.0837250 -0.2021000
v 0.0500000 0.1546750 -0.1546750
v 0.4584250 0.1546750 -0.1546750
v 0.4608250 0.0837250 -0.2021000
v 0.4664750 -0.0837250 -0.2021000
v 0.4688750 -0.1546750 -0.1546750
v 0.0500000 -0.1546750 -0.1546750
v 0.0500000 -0.0837250 -0.2021000
v 0.4701000 -0.1849750 -0.1000000
v 0.4807500 -0.5000000 -0.1000000
v 0.0375000 -0.5000000 -0.1000000
v 0.0500000 -0.1914250 -0.1000000
v 0.4701000 -0.1849750 -0.1000000
v 0.0500000 -0.1914250 -0.1000000
v 0.0500000 -0.1849750 -0.1000000
v 0.0500000 -0.1914250 -0.1000000
v 0.0375000 -0.5000000 -0.1000000
v 0.0375000 -0.1914250 -0.1000000
v 0.0375000 -0.7000000 -0.2500000
v 0.0375000 -0.5000000 -0.2500000
v 0.4807500 -0.5000000 -0.2500000
v 0.4875000 -0.7000000 -0.2500000
v 0.4807500 -0.5000000 -0.1000000
v 0.4807500 -0.5000000 -0.2500000
v 0.0375000 -0.5000000 -0.2500000
v 0.0375000 -0.5000000 -0.1000000
s off
f 1 2 3
f 1 3 4
f 5 6 7
f 5 7 8
f 9 10 11
f 9 11 12
f 13 14 15
f 13 15 16
f 17 18 19
f 17 19 20
f 21 22 23
f 21 23 24
f 25 26 27
f 25 27 28
f 29 30 31
f 29 31 32
f 33 34 35
f 33 35 36
f 37 38 39
f 37 39 40
f 41 42 43
f 41 43 44
f 45 46 47
f 45 47 48
f 49 50 51
f 49 51 52
f 53 54 55
f 53 55 56
f 57 58 59
f 57 59 60
f 61 62 63
f 61 63 64
f 65 66 67
f 68 69 70
f 71 72 73
f 74 75 76
f 77 78 79
f 80 81 82
f 83 84 85
f 86 87 88
f 89 90 91
f 92 93 94
f 95 96 97
f 98 99 100
f 101 102 103
f 104 105 106
f 107 108 109
f 110 111 112
f 113 114 115
f 116 117 118
f 119 120 121
f 122 123 124
f 125 126 127
f 128 129 130
f 131 132 133
f 134 135 136
f 137 138 139
f 140 141 142
f 143 144 145
f 146 147 148
f 149 150 151
f 152 153 154
f 155 156 157
f 158 159 160
f 161 162 163
f 164 165 166
f 167 168 169
f 170 171 172
f 173 174 175
f 176 177 178
f 179 180 181
f 182 183 184
f 185 186 187
f 188 189 190
f 191 192 193
f 194 195 196
f 197 198 199
f 200 201 202
f 203 204 205
f 206 207 208
f 209 210 211
f 209 211 212
f 213 214 215
f 213 215 216
f 217 218 219
f 217 219 220
f 221 222 223
f 221 223 224
f 225 226 227
f 225 227 228
f 229 230 231
f 229 231 232
f 233 234 235
f 233 235 236
f 237 238 239
f 237 239 240
f 241 242 243
f 244 245 246
f 244 246 247
f 248 249 250
f 248 250 251
f 252 253 254
f 252 254 255
f 256 257 258
f 256 258 259
f 260 261 262
f 263 264 265
f 266 267 268
f 266 268 269
f 270 271 272
f 270 272 273
f 274 275 276
f 277 278 279
f 277 279 280
f 281 282 283
f 284 285 286
f 287 288 289
f 290 291 292
f 290 292 293
f 294 295 296
f 294 296 297
f 298 299 300
f 298 300 301
f 302 303 304
f 305 306 307
f 308 309 310
f 308 310 311
f 312 313 314
f 315 316 317
f 318 319 320
f 318 320 321
f 322 323 324
f 322 324 325
f 326 327 328
f 326 328 329
f 330 331 332
f 330 332 333
f 334 335 336
f 334 336 337
f 338 339 340
f 338 340 341
f 342 343 344
f 345 346 347
f 348 349 350
f 348 350 351
f 352 353 354
f 355 356 357
f 355 357 358
f 359 360 361
f 359 361 362
f 363 364 365
f 363 365 366
f 367 368 369
f 370 371 372
f 370 372 373
f 374 375 376
f 374 376 377
f 378 379 380
f 378 380 381
f 382 383 384
f 382 384 385
f 386 387 388
f 386 388 389
f 390 391 392
f 390 392 393
f 394 395 396
f 397 398 399
f 397 399 400
f 401 402 403
f 401 403 404
f 405 406 407
f 405 407 408
f 409 410 411
f 409 411 412
f 413 414 415
f 413 415 416
f 417 418 419
f 417 419 420
f 421 422 423
f 421 423 424
f 425 426 427
f 425 427 428
f 429 430 431
f 429 431 432
f 433 434 435
f 433 435 436
f 437 438 439
f 437 439 440
f 441 442 443
f 441 443 444
f 445 446 447
f 448 449 450
f 448 450 451
f 452 453 454
f 452 454 455
f 456 457 458
f 456 458 459
f 460 461 462
f 460 462 463
f 464 465 466
f 464 466 467
f 468 469 470
f 468 470 471
f 472 473 474
f 472 474 475
f 476 477 478
f 476 478 479
f 480 481 482
f 480 482 483
f 484 485 486
f 484 486 487
f 488 489 490
f 488 490 491
f 492 493 494
f 492 494 495
f 496 497 498
f 496 498 499
f 500 501 502
f 500 502 503
f 504 505 506
f 504 506 507
f 508 509 510
f 508 510 511
f 512 513 514
f 515 516 517
f 515 517 518
f 519 520 521
f 522 523 524
f 522 524 525
f 526 527 528
f 526 528 529
f 530 531 532
f 533 534 535
f 536 537 538
f 536 538 539
f 540 541 542
f 543 544 545
f 543 545 546
f 547 548 549
f 547 549 550
f 551 552 553
f 551 553 554
f 555 556 557
f 558 559 560
f 558 560 561
f 562 563 564
f 562 564 565
f 566 567 568
f 566 568 569
f 570 571 572
f 570 572 573
f 574 575 576
f 574 576 577
f 578 579 580
f 578 580 581
f 582 583 584
f 582 584 585
f 586 587 588
f 586 588 589
f 590 591 592
f 590 592 593
f 594 595 596
f 594 596 597
f 598 599 600
f 598 600 601
f 602 603 604
f 602 604 605
f 606 607 608
f 609 610 611
f 609 611 612
f 613 614 615
f 616 617 618
f 619 620 621
f 619 621 622
f 623 624 625
f 626 627 628
f 626 628 629
f 630 631 632
f 630 632 633
f 634 635 636
f 634 636 637
f 638 639 640
f 641 642 643
f 641 643 644
f 645 646 647
f 648 649 650
f 648 650 651
f 652 653 654
f 655 656 657
f 655 657 658
f 659 660 661
f 659 661 662
f 663 664 665
f 663 665 666
f 667 668 669
f 667 669 670
f 671 672 673
f 671 673 674
f 675 676 677
f 675 677 678
f 679 680 681
f 679 681 682
f 683 684 685
f 686 687 688
f 689 690 691
f 692 693 694
f 692 694 695
f 696 697 698
f 696 698 699
f 700 701 702
f 703 704 705
f 706 707 708
f 709 710 711
f 712 713 714
f 715 716 717
f 718 719 720
f 718 720 721
f 722 723 724
f 722 724 725
f 726 727 728
f 729 730 731
f 732 733 734
f 732 734 735
f 736 737 738
f 739 740 741
f 739 741 742
f 743 744 745
f 743 745 746
f 747 748 749
f 747 749 750
f 751 752 753
f 751 753 754
f 755 756 757
f 758 759 760
f 758 760 761
f 762 763 764
f 762 764 765
f 766 767 768
f 766 768 769
f 770 771 772
f 770 772 773
f 774 775 776
f 777 778 779
f 777 779 780
f 781 782 783
f 781 783 784
f 785 786 787
f 785 787 788
f 789 790 791
f 789 791 792
f 793 794 795
f 793 795 796
f 797 798 799
f 797 799 800
f 801 802 803
f 801 803 804
f 805 806 807
f 805 807 808
f 809 810 811
f 812 813 814
f 815 816 817
f 815 817 818
f 819 820 821
f 819 821 822
