# Baked from official LDraw part 3818.dat
o ldraw_3818
v -0.0750000 -0.0000000 0.0000000
v -0.0750000 -0.0500000 0.0000000
v -0.0750000 -0.0461950 -0.0191350
v -0.0750000 -0.0000000 0.0000000
v -0.0750000 -0.0461950 -0.0191350
v -0.0750000 -0.0353550 -0.0353550
v -0.0750000 -0.0000000 0.0000000
v -0.0750000 -0.0353550 -0.0353550
v -0.0750000 -0.0191350 -0.0461950
v -0.0750000 -0.0000000 0.0000000
v -0.0750000 -0.0191350 -0.0461950
v -0.0750000 -0.0000000 -0.0500000
v -0.0750000 -0.0000000 0.0000000
v -0.0750000 -0.0000000 -0.0500000
v -0.0750000 0.0191350 -0.0461950
v -0.0750000 -0.0000000 0.0000000
v -0.0750000 0.0191350 -0.0461950
v -0.0750000 0.0353550 -0.0353550
v -0.0750000 -0.0000000 0.0000000
v -0.0750000 0.0353550 -0.0353550
v -0.0750000 0.0461950 -0.0191350
v -0.0750000 -0.0000000 0.0000000
v -0.0750000 0.0461950 -0.0191350
v -0.0750000 0.0500000 0.0000000
v -0.0750000 -0.0000000 0.0000000
v -0.0750000 0.0500000 0.0000000
v -0.0750000 0.0461950 0.0191350
v -0.0750000 -0.0000000 0.0000000
v -0.0750000 0.0461950 0.0191350
v -0.0750000 0.0353550 0.0353550
v -0.0750000 -0.0000000 0.0000000
v -0.0750000 0.0353550 0.0353550
v -0.0750000 0.0191350 0.0461950
v -0.0750000 -0.0000000 0.0000000
v -0.0750000 0.0191350 0.0461950
v -0.0750000 -0.0000000 0.0500000
v -0.0750000 -0.0000000 0.0000000
v -0.0750000 -0.0000000 0.0500000
v -0.0750000 -0.0191350 0.0461950
v -0.0750000 -0.0000000 0.0000000
v -0.0750000 -0.0191350 0.0461950
v -0.0750000 -0.0353550 0.0353550
v -0.0750000 -0.0000000 0.0000000
v -0.0750000 -0.0353550 0.0353550
v -0.0750000 -0.0461950 0.0191350
v -0.0750000 -0.0000000 0.0000000
v -0.0750000 -0.0461950 0.0191350
v -0.0750000 -0.0500000 0.0000000
v 0.0500000 -0.0500000 0.0000000
v 0.0500000 -0.0461950 -0.0191350
v -0.0750000 -0.0461950 -0.0191350
v -0.0750000 -0.0500000 0.0000000
v 0.0500000 -0.0461950 -0.0191350
v 0.0500000 -0.0353550 -0.0353550
v -0.0750000 -0.0353550 -0.0353550
v -0.0750000 -0.0461950 -0.0191350
v 0.0500000 -0.0353550 -0.0353550
v 0.0500000 -0.0191350 -0.0461950
v -0.0750000 -0.0191350 -0.0461950
v -0.0750000 -0.0353550 -0.0353550
v 0.0500000 -0.0191350 -0.0461950
v 0.0500000 -0.0000000 -0.0500000
v -0.0750000 -0.0000000 -0.0500000
v -0.0750000 -0.0191350 -0.0461950
v 0.0500000 -0.0000000 -0.0500000
v 0.0500000 0.0191350 -0.0461950
v -0.0750000 0.0191350 -0.0461950
v -0.0750000 -0.0000000 -0.0500000
v 0.0500000 0.0191350 -0.0461950
v 0.0500000 0.0353550 -0.0353550
v -0.0750000 0.0353550 -0.0353550
v -0.0750000 0.0191350 -0.0461950
v 0.0500000 0.0353550 -0.0353550
v 0.0500000 0.0461950 -0.0191350
v -0.0750000 0.0461950 -0.0191350
v -0.0750000 0.0353550 -0.0353550
v 0.0500000 0.0461950 -0.0191350
v 0.0500000 0.0500000 0.0000000
v -0.0750000 0.0500000 0.0000000
v -0.0750000 0.0461950 -0.0191350
v 0.0500000 0.0500000 0.0000000
v 0.0500000 0.0461950 0.0191350
v -0.0750000 0.0461950 0.0191350
v -0.0750000 0.0500000 0.0000000
v 0.0500000 0.0461950 0.0191350
v 0.0500000 0.0353550 0.0353550
v -0.0750000 0.0353550 0.0353550
v -0.0750000 0.0461950 0.0191350
v 0.0500000 0.0353550 0.0353550
v 0.0500000 0.0191350 0.0461950
v -0.0750000 0.0191350 0.0461950
v -0.0750000 0.0353550 0.0353550
v 0.0500000 0.0191350 0.0461950
v 0.0500000 -0.0000000 0.0500000
v -0.0750000 -0.0000000 0.0500000
v -0.0750000 0.0191350 0.0461950
v 0.0500000 -0.0000000 0.0500000
v 0.0500000 -0.0191350 0.0461950
v -0.0750000 -0.0191350 0.0461950
v -0.0750000 -0.0000000 0.0500000
v 0.0500000 -0.0191350 0.0461950
v 0.0500000 -0.0353550 0.0353550
v -0.0750000 -0.0353550 0.0353550
v -0.0750000 -0.0191350 0.0461950
v 0.0500000 -0.0353550 0.0353550
v 0.0500000 -0.0461950 0.0191350
v -0.0750000 -0.0461950 0.0191350
v -0.0750000 -0.0353550 0.0353550
v 0.0500000 -0.0461950 0.0191350
v 0.0500000 -0.0500000 0.0000000
v -0.0750000 -0.0500000 0.0000000
v -0.0750000 -0.0461950 0.0191350
v 0.0500000 -0.0461950 0.0191350
v 0.1750000 -0.0461950 0.0191350
v 0.1750000 -0.0500000 0.0000000
v 0.0500000 -0.0500000 0.0000000
v 0.0500000 -0.0353550 0.0353550
v 0.1750000 -0.0353550 0.0353550
v 0.1750000 -0.0461950 0.0191350
v 0.0500000 -0.0461950 0.0191350
v 0.0500000 -0.0191350 0.0461950
v 0.1750000 -0.0191350 0.0461950
v 0.1750000 -0.0353550 0.0353550
v 0.0500000 -0.0353550 0.0353550
v 0.0500000 -0.0000000 0.0500000
v 0.1750000 -0.0000000 0.0500000
v 0.1750000 -0.0191350 0.0461950
v 0.0500000 -0.0191350 0.0461950
v 0.0500000 0.0191350 0.0461950
v 0.1750000 0.0191350 0.0461950
v 0.1750000 -0.0000000 0.0500000
v 0.0500000 -0.0000000 0.0500000
v 0.0500000 0.0353550 0.0353550
v 0.1750000 0.0353550 0.0353550
v 0.1750000 0.0191350 0.0461950
v 0.0500000 0.0191350 0.0461950
v 0.0500000 0.0461950 0.0191350
v 0.1750000 0.0461950 0.0191350
v 0.1750000 0.0353550 0.0353550
v 0.0500000 0.0353550 0.0353550
v 0.0500000 0.0500000 0.0000000
v 0.1750000 0.0500000 0.0000000
v 0.1750000 0.0461950 0.0191350
v 0.0500000 0.0461950 0.0191350
v 0.0500000 0.0461950 -0.0191350
v 0.1750000 0.0461950 -0.0191350
v 0.1750000 0.0500000 0.0000000
v 0.0500000 0.0500000 0.0000000
v 0.0500000 0.0353550 -0.0353550
v 0.1750000 0.0353550 -0.0353550
v 0.1750000 0.0461950 -0.0191350
v 0.0500000 0.0461950 -0.0191350
v 0.0500000 0.0191350 -0.0461950
v 0.1750000 0.0191350 -0.0461950
v 0.1750000 0.0353550 -0.0353550
v 0.0500000 0.0353550 -0.0353550
v 0.0500000 -0.0000000 -0.0500000
v 0.1750000 -0.0000000 -0.0500000
v 0.1750000 0.0191350 -0.0461950
v 0.0500000 0.0191350 -0.0461950
v 0.1750000 -0.0500000 0.0000000
v 0.1750000 -0.0461950 0.0191350
v 0.1750000 -0.0923900 0.0382700
v 0.1750000 -0.1000000 0.0000000
v 0.1750000 -0.0461950 0.0191350
v 0.1750000 -0.0353550 0.0353550
v 0.1750000 -0.0707100 0.0707100
v 0.1750000 -0.0923900 0.0382700
v 0.1750000 -0.0353550 0.0353550
v 0.1750000 -0.0191350 0.0461950
v 0.1750000 -0.0382700 0.0923900
v 0.1750000 -0.0707100 0.0707100
v 0.1750000 -0.0191350 0.0461950
v 0.1750000 -0.0000000 0.0500000
v 0.1750000 -0.0000000 0.1000000
v 0.1750000 -0.0382700 0.0923900
v 0.1750000 -0.0000000 0.0500000
v 0.1750000 0.0191350 0.0461950
v 0.1750000 0.0382700 0.0923900
v 0.1750000 -0.0000000 0.1000000
v 0.1750000 0.0191350 0.0461950
v 0.1750000 0.0353550 0.0353550
v 0.1750000 0.0707100 0.0707100
v 0.1750000 0.0382700 0.0923900
v 0.1750000 0.0353550 0.0353550
v 0.1750000 0.0461950 0.0191350
v 0.1750000 0.0923900 0.0382700
v 0.1750000 0.0707100 0.0707100
v 0.1750000 0.0461950 0.0191350
v 0.1750000 0.0500000 0.0000000
v 0.1750000 0.1000000 0.0000000
v 0.1750000 0.0923900 0.0382700
v 0.1750000 0.0500000 0.0000000
v 0.1750000 0.0461950 -0.0191350
v 0.1750000 0.0923900 -0.0382700
v 0.1750000 0.1000000 0.0000000
v 0.1750000 0.0461950 -0.0191350
v 0.1750000 0.0353550 -0.0353550
v 0.1750000 0.0707100 -0.0707100
v 0.1750000 0.0923900 -0.0382700
v 0.1750000 0.0353550 -0.0353550
v 0.1750000 0.0191350 -0.0461950
v 0.1750000 0.0382700 -0.0923900
v 0.1750000 0.0707100 -0.0707100
v 0.1750000 0.0191350 -0.0461950
v 0.1750000 -0.0000000 -0.0500000
v 0.1750000 -0.0000000 -0.1000000
v 0.1750000 0.0382700 -0.0923900
v 0.0000000 -0.1250000 0.0000000
v 0.0000000 -0.1154875 -0.0478375
v 0.0500000 -0.1154875 -0.0478375
v 0.0500000 -0.1250000 0.0000000
v 0.0000000 -0.1154875 -0.0478375
v 0.0000000 -0.0883875 -0.0883875
v 0.0500000 -0.0883875 -0.0883875
v 0.0500000 -0.1154875 -0.0478375
v 0.0000000 -0.0883875 -0.0883875
v 0.0000000 -0.0478375 -0.1154875
v 0.0500000 -0.0478375 -0.1154875
v 0.0500000 -0.0883875 -0.0883875
v 0.0000000 -0.0478375 -0.1154875
v 0.0000000 -0.0000000 -0.1250000
v 0.0500000 -0.0000000 -0.1250000
v 0.0500000 -0.0478375 -0.1154875
v 0.0000000 -0.0000000 -0.1250000
v 0.0000000 0.0478375 -0.1154875
v 0.0500000 0.0478375 -0.1154875
v 0.0500000 -0.0000000 -0.1250000
v 0.0000000 0.0478375 -0.1154875
v 0.0000000 0.0883875 -0.0883875
v 0.0500000 0.0883875 -0.0883875
v 0.0500000 0.0478375 -0.1154875
v 0.0000000 0.0883875 -0.0883875
v 0.0000000 0.1154875 -0.0478375
v 0.0500000 0.1154875 -0.0478375
v 0.0500000 0.0883875 -0.0883875
v 0.0000000 0.1154875 -0.0478375
v 0.0000000 0.1250000 0.0000000
v 0.0500000 0.1250000 0.0000000
v 0.0500000 0.1154875 -0.0478375
v 0.0000000 0.1250000 0.0000000
v 0.0000000 0.1154875 0.0478375
v 0.0500000 0.1154875 0.0478375
v 0.0500000 0.1250000 0.0000000
v 0.0000000 0.1154875 0.0478375
v 0.0000000 0.0883875 0.0883875
v 0.0500000 0.0883875 0.0883875
v 0.0500000 0.1154875 0.0478375
v 0.0000000 0.0883875 0.0883875
v 0.0000000 0.0478375 0.1154875
v 0.0500000 0.0478375 0.1154875
v 0.0500000 0.0883875 0.0883875
v 0.0000000 0.0478375 0.1154875
v 0.0000000 -0.0000000 0.1250000
v 0.0500000 -0.0000000 0.1250000
v 0.0500000 0.0478375 0.1154875
v 0.0000000 -0.0000000 0.1250000
v 0.0000000 -0.0478375 0.1154875
v 0.0500000 -0.0478375 0.1154875
v 0.0500000 -0.0000000 0.1250000
v 0.0000000 -0.0478375 0.1154875
v 0.0000000 -0.0883875 0.0883875
v 0.0500000 -0.0883875 0.0883875
v 0.0500000 -0.0478375 0.1154875
v 0.0000000 -0.0883875 0.0883875
v 0.0000000 -0.1154875 0.0478375
v 0.0500000 -0.1154875 0.0478375
v 0.0500000 -0.0883875 0.0883875
v 0.0000000 -0.1154875 0.0478375
v 0.0000000 -0.1250000 0.0000000
v 0.0500000 -0.1250000 0.0000000
v 0.0500000 -0.1154875 0.0478375
v 0.0875000 -0.1375000 0.0000000
v 0.0875000 -0.1270363 0.0526213
v 0.0500000 -0.1154875 0.0478375
v 0.0500000 -0.1250000 0.0000000
v 0.0875000 -0.1270363 0.0526213
v 0.0875000 -0.0972263 0.0972263
v 0.0500000 -0.0883875 0.0883875
v 0.0500000 -0.1154875 0.0478375
v 0.0875000 -0.0972263 0.0972263
v 0.0875000 -0.0526213 0.1270363
v 0.0500000 -0.0478375 0.1154875
v 0.0500000 -0.0883875 0.0883875
v 0.0875000 -0.0526213 0.1270363
v 0.0875000 -0.0000000 0.1375000
v 0.0500000 -0.0000000 0.1250000
v 0.0500000 -0.0478375 0.1154875
v 0.0875000 -0.0000000 0.1375000
v 0.0875000 0.0526213 0.1270363
v 0.0500000 0.0478375 0.1154875
v 0.0500000 -0.0000000 0.1250000
v 0.0875000 0.0526213 0.1270363
v 0.0875000 0.0972263 0.0972263
v 0.0500000 0.0883875 0.0883875
v 0.0500000 0.0478375 0.1154875
v 0.0875000 0.0972263 0.0972263
v 0.0875000 0.1270363 0.0526213
v 0.0500000 0.1154875 0.0478375
v 0.0500000 0.0883875 0.0883875
v 0.0875000 0.1270363 0.0526213
v 0.0875000 0.1375000 0.0000000
v 0.0500000 0.1250000 0.0000000
v 0.0500000 0.1154875 0.0478375
v 0.1500000 -0.1250000 0.0000000
v 0.1500000 -0.1154875 0.0478375
v 0.1250000 -0.1270363 0.0526213
v 0.1250000 -0.1375000 0.0000000
v 0.1500000 -0.1154875 0.0478375
v 0.1500000 -0.0883875 0.0883875
v 0.1250000 -0.0972263 0.0972263
v 0.1250000 -0.1270363 0.0526213
v 0.1500000 -0.0883875 0.0883875
v 0.1500000 -0.0478375 0.1154875
v 0.1250000 -0.0526213 0.1270363
v 0.1250000 -0.0972263 0.0972263
v 0.1500000 -0.0478375 0.1154875
v 0.1500000 -0.0000000 0.1250000
v 0.1250000 -0.0000000 0.1375000
v 0.1250000 -0.0526213 0.1270363
v 0.1500000 -0.0000000 0.1250000
v 0.1500000 0.0478375 0.1154875
v 0.1250000 0.0526213 0.1270363
v 0.1250000 -0.0000000 0.1375000
v 0.1500000 0.0478375 0.1154875
v 0.1500000 0.0883875 0.0883875
v 0.1250000 0.0972263 0.0972263
v 0.1250000 0.0526213 0.1270363
v 0.1500000 0.0883875 0.0883875
v 0.1500000 0.1154875 0.0478375
v 0.1250000 0.1270363 0.0526213
v 0.1250000 0.0972263 0.0972263
v 0.1500000 0.1154875 0.0478375
v 0.1500000 0.1250000 0.0000000
v 0.1250000 0.1375000 0.0000000
v 0.1250000 0.1270363 0.0526213
v 0.1750000 -0.1000000 0.0000000
v 0.1750000 -0.0923900 0.0382700
v 0.1500000 -0.1154875 0.0478375
v 0.1500000 -0.1250000 0.0000000
v 0.1750000 -0.0923900 0.0382700
v 0.1750000 -0.0707100 0.0707100
v 0.1500000 -0.0883875 0.0883875
v 0.1500000 -0.1154875 0.0478375
v 0.1750000 -0.0707100 0.0707100
v 0.1750000 -0.0382700 0.0923900
v 0.1500000 -0.0478375 0.1154875
v 0.1500000 -0.0883875 0.0883875
v 0.1750000 -0.0382700 0.0923900
v 0.1750000 -0.0000000 0.1000000
v 0.1500000 -0.0000000 0.1250000
v 0.1500000 -0.0478375 0.1154875
v 0.1750000 -0.0000000 0.1000000
v 0.1750000 0.0382700 0.0923900
v 0.1500000 0.0478375 0.1154875
v 0.1500000 -0.0000000 0.1250000
v 0.1750000 0.0382700 0.0923900
v 0.1750000 0.0707100 0.0707100
v 0.1500000 0.0883875 0.0883875
v 0.1500000 0.0478375 0.1154875
v 0.1750000 0.0707100 0.0707100
v 0.1750000 0.0923900 0.0382700
v 0.1500000 0.1154875 0.0478375
v 0.1500000 0.0883875 0.0883875
v 0.1750000 0.0923900 0.0382700
v 0.1750000 0.1000000 0.0000000
v 0.1500000 0.1250000 0.0000000
v 0.1500000 0.1154875 0.0478375
v 0.0875000 0.1375000 0.0000000
v 0.0875000 0.1270363 -0.0526213
v 0.0500000 0.1154875 -0.0478375
v 0.0500000 0.1250000 0.0000000
v 0.0875000 0.1270363 -0.0526213
v 0.0875000 0.0972263 -0.0972263
v 0.0500000 0.0883875 -0.0883875
v 0.0500000 0.1154875 -0.0478375
v 0.0875000 0.0972263 -0.0972263
v 0.0875000 0.0526213 -0.1270363
v 0.0500000 0.0478375 -0.1154875
v 0.0500000 0.0883875 -0.0883875
v 0.0875000 0.0526213 -0.1270363
v 0.0875000 -0.0000000 -0.1375000
v 0.0500000 -0.0000000 -0.1250000
v 0.0500000 0.0478375 -0.1154875
v 0.1500000 0.1250000 0.0000000
v 0.1500000 0.1154875 -0.0478375
v 0.1250000 0.1270363 -0.0526213
v 0.1250000 0.1375000 0.0000000
v 0.1500000 0.1154875 -0.0478375
v 0.1500000 0.0883875 -0.0883875
v 0.1250000 0.0972263 -0.0972263
v 0.1250000 0.1270363 -0.0526213
v 0.1500000 0.0883875 -0.0883875
v 0.1500000 0.0478375 -0.1154875
v 0.1250000 0.0526213 -0.1270363
v 0.1250000 0.0972263 -0.0972263
v 0.1500000 0.0478375 -0.1154875
v 0.1500000 -0.0000000 -0.1250000
v 0.1250000 -0.0000000 -0.1375000
v 0.1250000 0.0526213 -0.1270363
v 0.1750000 0.1000000 0.0000000
v 0.1750000 0.0923900 -0.0382700
v 0.1500000 0.1154875 -0.0478375
v 0.1500000 0.1250000 0.0000000
v 0.1750000 0.0923900 -0.0382700
v 0.1750000 0.0707100 -0.0707100
v 0.1500000 0.0883875 -0.0883875
v 0.1500000 0.1154875 -0.0478375
v 0.1750000 0.0707100 -0.0707100
v 0.1750000 0.0382700 -0.0923900
v 0.1500000 0.0478375 -0.1154875
v 0.1500000 0.0883875 -0.0883875
v 0.1750000 0.0382700 -0.0923900
v 0.1750000 -0.0000000 -0.1000000
v 0.1500000 -0.0000000 -0.1250000
v 0.1500000 0.0478375 -0.1154875
v 0.1250000 -0.1270363 0.0526213
v 0.0875000 -0.1270363 0.0526213
v 0.0875000 -0.1375000 0.0000000
v 0.1250000 -0.1375000 0.0000000
v 0.1250000 -0.0972263 0.0972263
v 0.0875000 -0.0972263 0.0972263
v 0.0875000 -0.1270363 0.0526213
v 0.1250000 -0.1270363 0.0526213
v 0.1250000 -0.0526213 0.1270363
v 0.0875000 -0.0526213 0.1270363
v 0.0875000 -0.0972263 0.0972263
v 0.1250000 -0.0972263 0.0972263
v 0.1250000 -0.0000000 0.1375000
v 0.0875000 -0.0000000 0.1375000
v 0.0875000 -0.0526213 0.1270363
v 0.1250000 -0.0526213 0.1270363
v 0.1250000 0.0526213 0.1270363
v 0.0875000 0.0526213 0.1270363
v 0.0875000 -0.0000000 0.1375000
v 0.1250000 -0.0000000 0.1375000
v 0.1250000 0.0972263 0.0972263
v 0.0875000 0.0972263 0.0972263
v 0.0875000 0.0526213 0.1270363
v 0.1250000 0.0526213 0.1270363
v 0.1250000 0.1270363 0.0526213
v 0.0875000 0.1270363 0.0526213
v 0.0875000 0.0972263 0.0972263
v 0.1250000 0.0972263 0.0972263
v 0.1250000 0.1375000 0.0000000
v 0.0875000 0.1375000 0.0000000
v 0.0875000 0.1270363 0.0526213
v 0.1250000 0.1270363 0.0526213
v 0.1250000 0.1270363 -0.0526213
v 0.0875000 0.1270363 -0.0526213
v 0.0875000 0.1375000 0.0000000
v 0.1250000 0.1375000 0.0000000
v 0.1250000 0.0972263 -0.0972263
v 0.0875000 0.0972263 -0.0972263
v 0.0875000 0.1270363 -0.0526213
v 0.1250000 0.1270363 -0.0526213
v 0.1250000 0.0526213 -0.1270363
v 0.0875000 0.0526213 -0.1270363
v 0.0875000 0.0972263 -0.0972263
v 0.1250000 0.0972263 -0.0972263
v 0.1250000 -0.0000000 -0.1375000
v 0.0875000 -0.0000000 -0.1375000
v 0.0875000 0.0526213 -0.1270363
v 0.1250000 0.0526213 -0.1270363
v 0.0500000 -0.1154850 -0.0478350
v 0.0875000 -0.1270325 -0.0526075
v 0.0875000 -0.1375000 0.0000000
v 0.0500000 -0.1250000 0.0000000
v 0.0875000 -0.1270325 -0.0526075
v 0.1250000 -0.1270325 -0.0526075
v 0.1250000 -0.1375000 0.0000000
v 0.0875000 -0.1375000 0.0000000
v 0.1250000 -0.1270325 -0.0526075
v 0.1500000 -0.1154700 -0.0478350
v 0.1500000 -0.1250000 0.0000000
v 0.1250000 -0.1375000 0.0000000
v 0.1500000 -0.1154700 -0.0478350
v 0.1750000 -0.0924000 -0.0382725
v 0.1750000 -0.1000000 0.0000000
v 0.1500000 -0.1250000 0.0000000
v 0.1500000 -0.1154700 -0.0478350
v 0.1250000 -0.1270325 -0.0526075
v 0.0875000 -0.1270325 -0.0526075
v 0.0500000 -0.1154850 -0.0478350
v 0.0500000 -0.0923900 -0.0382675
v 0.1750000 -0.0924000 -0.0382725
v 0.1500000 -0.1154700 -0.0478350
v 0.0500000 -0.1154850 -0.0478350
v 0.1750000 -0.0500000 0.0000000
v 0.1750000 -0.0924000 -0.0382725
v 0.0500000 -0.0923900 -0.0382675
v 0.0500000 -0.0500000 0.0000000
v 0.1750000 -0.1000000 0.0000000
v 0.1750000 -0.0924000 -0.0382725
v 0.1750000 -0.0500000 0.0000000
v 0.0500000 -0.0478350 -0.1154850
v 0.0500000 -0.0000000 -0.1250000
v 0.0875000 -0.0000000 -0.1375000
v 0.0875000 -0.0526075 -0.1270325
v 0.0875000 -0.0526075 -0.1270325
v 0.0875000 -0.0000000 -0.1375000
v 0.1250000 -0.0000000 -0.1375000
v 0.1250000 -0.0526075 -0.1270325
v 0.1250000 -0.0526075 -0.1270325
v 0.1250000 -0.0000000 -0.1375000
v 0.1500000 -0.0000000 -0.1250000
v 0.1500000 -0.0478350 -0.1154700
v 0.1500000 -0.0478350 -0.1154700
v 0.1500000 -0.0000000 -0.1250000
v 0.1750000 -0.0000000 -0.1000000
v 0.1750000 -0.0382725 -0.0924000
v 0.1500000 -0.0478350 -0.1154700
v 0.0500000 -0.0478350 -0.1154850
v 0.0875000 -0.0526075 -0.1270325
v 0.1250000 -0.0526075 -0.1270325
v 0.0500000 -0.0382675 -0.0923900
v 0.0500000 -0.0478350 -0.1154850
v 0.1500000 -0.0478350 -0.1154700
v 0.1750000 -0.0382725 -0.0924000
v 0.1750000 -0.0000000 -0.0500000
v 0.0500000 -0.0000000 -0.0500000
v 0.0500000 -0.0382675 -0.0923900
v 0.1750000 -0.0382725 -0.0924000
v 0.1750000 -0.0000000 -0.1000000
v 0.1750000 -0.0000000 -0.0500000
v 0.1750000 -0.0382725 -0.0924000
v 0.0500000 -0.0500000 -0.0500000
v 0.0500000 -0.0000000 -0.0500000
v 0.0500000 -0.0191350 -0.0461950
v 0.0500000 -0.0500000 -0.0500000
v 0.0500000 -0.0191350 -0.0461950
v 0.0500000 -0.0353550 -0.0353550
v 0.0500000 -0.0500000 -0.0500000
v 0.0500000 -0.0353550 -0.0353550
v 0.0500000 -0.0461950 -0.0191350
v 0.0500000 -0.0500000 -0.0500000
v 0.0500000 -0.0461950 -0.0191350
v 0.0500000 -0.0500000 0.0000000
v 0.0500000 -0.1154850 -0.0478350
v 0.0500000 -0.0883901 -0.0883909
v 0.0500000 -0.0478353 -0.1154836
v 0.0500000 -0.0478350 -0.1154850
v 0.0500000 -0.0382675 -0.0923900
v 0.0500000 -0.0923900 -0.0382675
v 0.0500000 -0.1154850 -0.0478350
v 0.0500000 -0.0923900 -0.0382675
v 0.0500000 -0.0382675 -0.0923900
v 0.0500000 -0.0500000 -0.0500000
v 0.0500000 -0.0500000 0.0000000
v 0.0500000 -0.0923900 -0.0382675
v 0.0500000 -0.0500000 -0.0500000
v 0.0500000 -0.0000000 -0.0500000
v 0.0500000 -0.0500000 -0.0500000
v 0.0500000 -0.0382675 -0.0923900
v 0.0000000 0.0622000 -0.1501250
v 0.0000000 -0.0000000 -0.0812500
v 0.0000000 -0.0621750 -0.1501250
v 0.0000000 -0.0000000 -0.1625000
v 0.0000000 0.1501350 -0.0621900
v 0.0000000 -0.0000000 -0.0812500
v 0.0000000 0.0622000 -0.1501250
v 0.0000000 0.1149050 -0.1149050
v 0.0000000 0.0812500 0.0000000
v 0.0000000 -0.0000000 -0.0812500
v 0.0000000 0.1501350 -0.0621900
v 0.0000000 0.1625000 0.0000000
v 0.0000000 -0.0000000 0.0812500
v 0.0000000 0.0812500 0.0000000
v 0.0000000 0.1625000 0.0000000
v 0.0000000 0.1501350 0.0621900
v 0.0000000 0.0622000 0.1501250
v 0.0000000 -0.0000000 0.0812500
v 0.0000000 0.1501350 0.0621900
v 0.0000000 0.1149050 0.1149050
v 0.0000000 -0.0625000 0.1625000
v 0.0000000 -0.0000000 0.0812500
v 0.0000000 0.0622000 0.1501250
v 0.0000000 -0.0000000 0.1625000
v 0.0000000 -0.1149000 -0.1149000
v 0.0000000 -0.0621750 -0.1501250
v 0.0000000 -0.0000000 -0.0812500
v 0.0000000 -0.0812500 0.0000000
v 0.0000000 -0.0000000 0.0812500
v 0.0000000 -0.0625000 0.1625000
v 0.0000000 -0.2257000 -0.0007000
v 0.0000000 -0.0812500 0.0000000
v 0.0000000 -0.0812500 0.0000000
v 0.0000000 -0.2257000 -0.0007000
v 0.0000000 -0.1149000 -0.1149000
v -0.0625000 -0.4283050 -0.2916950
v -0.0625000 -0.4725000 -0.2475000
v -0.0672563 -0.4555866 -0.2644134
v -0.0625000 -0.4283050 -0.2916950
v -0.0672563 -0.4555866 -0.2644134
v -0.0808063 -0.4412497 -0.2787503
v -0.0625000 -0.4283050 -0.2916950
v -0.0808063 -0.4412497 -0.2787503
v -0.1010813 -0.4316682 -0.2883318
v -0.0625000 -0.4283050 -0.2916950
v -0.1010813 -0.4316682 -0.2883318
v -0.1250000 -0.4283050 -0.2916950
v -0.1875000 -0.4283050 -0.2916950
v -0.1250000 -0.4283050 -0.2916950
v -0.1489187 -0.4316682 -0.2883318
v -0.1875000 -0.4283050 -0.2916950
v -0.1489187 -0.4316682 -0.2883318
v -0.1691938 -0.4412497 -0.2787503
v -0.1875000 -0.4283050 -0.2916950
v -0.1691938 -0.4412497 -0.2787503
v -0.1827438 -0.4555866 -0.2644134
v -0.1875000 -0.4283050 -0.2916950
v -0.1827438 -0.4555866 -0.2644134
v -0.1875000 -0.4725000 -0.2475000
v -0.1875000 -0.5166950 -0.2033050
v -0.1875000 -0.4725000 -0.2475000
v -0.1827438 -0.4894134 -0.2305866
v -0.1875000 -0.5166950 -0.2033050
v -0.1827438 -0.4894134 -0.2305866
v -0.1691938 -0.5037503 -0.2162497
v -0.1875000 -0.5166950 -0.2033050
v -0.1691938 -0.5037503 -0.2162497
v -0.1489187 -0.5133318 -0.2066682
v -0.1875000 -0.5166950 -0.2033050
v -0.1489187 -0.5133318 -0.2066682
v -0.1250000 -0.5166950 -0.2033050
v -0.0625000 -0.5166950 -0.2033050
v -0.1250000 -0.5166950 -0.2033050
v -0.1010813 -0.5133318 -0.2066682
v -0.0625000 -0.5166950 -0.2033050
v -0.1010813 -0.5133318 -0.2066682
v -0.0808063 -0.5037503 -0.2162497
v -0.0625000 -0.5166950 -0.2033050
v -0.0808063 -0.5037503 -0.2162497
v -0.0672563 -0.4894134 -0.2305866
v -0.0625000 -0.5166950 -0.2033050
v -0.0672563 -0.4894134 -0.2305866
v -0.0625000 -0.4725000 -0.2475000
v -0.0672563 -0.1904369 0.0007619
v -0.0625000 -0.2073500 0.0176750
v -0.1250000 -0.2073500 0.0176750
v -0.0808063 -0.1761002 -0.0135748
v -0.0672563 -0.1904369 0.0007619
v -0.1250000 -0.2073500 0.0176750
v -0.1010813 -0.1665189 -0.0231561
v -0.0808063 -0.1761002 -0.0135748
v -0.1250000 -0.2073500 0.0176750
v -0.1250000 -0.1631558 -0.0265193
v -0.1010813 -0.1665189 -0.0231561
v -0.1250000 -0.2073500 0.0176750
v -0.1489187 -0.1665189 -0.0231561
v -0.1250000 -0.1631558 -0.0265193
v -0.1250000 -0.2073500 0.0176750
v -0.1691938 -0.1761002 -0.0135748
v -0.1489187 -0.1665189 -0.0231561
v -0.1250000 -0.2073500 0.0176750
v -0.1827438 -0.1904369 0.0007619
v -0.1691938 -0.1761002 -0.0135748
v -0.1250000 -0.2073500 0.0176750
v -0.1875000 -0.2073500 0.0176750
v -0.1827438 -0.1904369 0.0007619
v -0.1250000 -0.2073500 0.0176750
v -0.1827438 -0.2242631 0.0345881
v -0.1875000 -0.2073500 0.0176750
v -0.1250000 -0.2073500 0.0176750
v -0.1691938 -0.2385998 0.0489248
v -0.1827438 -0.2242631 0.0345881
v -0.1250000 -0.2073500 0.0176750
v -0.1489187 -0.2481811 0.0585061
v -0.1691938 -0.2385998 0.0489248
v -0.1250000 -0.2073500 0.0176750
v -0.1250000 -0.2515443 0.0618693
v -0.1489187 -0.2481811 0.0585061
v -0.1250000 -0.2073500 0.0176750
v -0.1010813 -0.2481811 0.0585061
v -0.1250000 -0.2515443 0.0618693
v -0.1250000 -0.2073500 0.0176750
v -0.0808063 -0.2385998 0.0489248
v -0.1010813 -0.2481811 0.0585061
v -0.1250000 -0.2073500 0.0176750
v -0.0672563 -0.2242631 0.0345881
v -0.0808063 -0.2385998 0.0489248
v -0.1250000 -0.2073500 0.0176750
v -0.0625000 -0.2073500 0.0176750
v -0.0672563 -0.2242631 0.0345881
v -0.1250000 -0.2073500 0.0176750
v -0.0625000 -0.2073500 0.0176750
v -0.0672563 -0.1904369 0.0007619
v -0.0672563 -0.4556019 -0.2644031
v -0.0625000 -0.4725150 -0.2474900
v -0.0672563 -0.1904369 0.0007619
v -0.0808063 -0.1761002 -0.0135748
v -0.0808063 -0.4412652 -0.2787398
v -0.0672563 -0.4556019 -0.2644031
v -0.0808063 -0.1761002 -0.0135748
v -0.1010813 -0.1665189 -0.0231561
v -0.1010813 -0.4316839 -0.2883211
v -0.0808063 -0.4412652 -0.2787398
v -0.1010813 -0.1665189 -0.0231561
v -0.1250000 -0.1631558 -0.0265193
v -0.1250000 -0.4283207 -0.2916843
v -0.1010813 -0.4316839 -0.2883211
v -0.1250000 -0.1631558 -0.0265193
v -0.1489187 -0.1665189 -0.0231561
v -0.1489187 -0.4316839 -0.2883211
v -0.1250000 -0.4283207 -0.2916843
v -0.1489187 -0.1665189 -0.0231561
v -0.1691938 -0.1761002 -0.0135748
v -0.1691938 -0.4412652 -0.2787398
v -0.1489187 -0.4316839 -0.2883211
v -0.1691938 -0.1761002 -0.0135748
v -0.1827438 -0.1904369 0.0007619
v -0.1827438 -0.4556019 -0.2644031
v -0.1691938 -0.4412652 -0.2787398
v -0.1827438 -0.1904369 0.0007619
v -0.1875000 -0.2073500 0.0176750
v -0.1875000 -0.4725150 -0.2474900
v -0.1827438 -0.4556019 -0.2644031
v -0.1875000 -0.2073500 0.0176750
v -0.1827438 -0.2242631 0.0345881
v -0.1827438 -0.4894281 -0.2305769
v -0.1875000 -0.4725150 -0.2474900
v -0.1827438 -0.2242631 0.0345881
v -0.1691938 -0.2385998 0.0489248
v -0.1691938 -0.5037648 -0.2162402
v -0.1827438 -0.4894281 -0.2305769
v -0.1691938 -0.2385998 0.0489248
v -0.1489187 -0.2481811 0.0585061
v -0.1489187 -0.5133461 -0.2066589
v -0.1691938 -0.5037648 -0.2162402
v -0.1489187 -0.2481811 0.0585061
v -0.1250000 -0.2515443 0.0618693
v -0.1250000 -0.5167093 -0.2032957
v -0.1489187 -0.5133461 -0.2066589
v -0.1250000 -0.2515443 0.0618693
v -0.1010813 -0.2481811 0.0585061
v -0.1010813 -0.5133461 -0.2066589
v -0.1250000 -0.5167093 -0.2032957
v -0.1010813 -0.2481811 0.0585061
v -0.0808063 -0.2385998 0.0489248
v -0.0808063 -0.5037648 -0.2162402
v -0.1010813 -0.5133461 -0.2066589
v -0.0808063 -0.2385998 0.0489248
v -0.0672563 -0.2242631 0.0345881
v -0.0672563 -0.4894281 -0.2305769
v -0.0808063 -0.5037648 -0.2162402
v -0.0672563 -0.2242631 0.0345881
v -0.0625000 -0.2073500 0.0176750
v -0.0625000 -0.4725150 -0.2474900
v -0.0672563 -0.4894281 -0.2305769
v -0.0625000 -0.4283050 -0.2916950
v -0.1250000 -0.4283050 -0.2916950
v -0.1250000 -0.3841000 -0.3359000
v -0.0771625 -0.3908275 -0.3291725
v -0.0095125 -0.4386700 -0.2813300
v -0.0625000 -0.4283050 -0.2916950
v -0.0771625 -0.3908275 -0.3291725
v -0.0366125 -0.4099925 -0.3100075
v 0.0000000 -0.4725000 -0.2475000
v -0.0625000 -0.4725000 -0.2475000
v -0.0625000 -0.4283050 -0.2916950
v -0.0095125 -0.4386700 -0.2813300
v -0.0625000 -0.5166950 -0.2033050
v -0.0625000 -0.4725000 -0.2475000
v 0.0000000 -0.4725000 -0.2475000
v -0.0095125 -0.5063300 -0.2136700
v -0.0771625 -0.5541725 -0.1658275
v -0.0625000 -0.5166950 -0.2033050
v -0.0095125 -0.5063300 -0.2136700
v -0.0366125 -0.5350075 -0.1849925
v -0.1250000 -0.5609000 -0.1591000
v -0.1250000 -0.5166950 -0.2033050
v -0.0625000 -0.5166950 -0.2033050
v -0.0771625 -0.5541725 -0.1658275
v -0.1875000 -0.5166950 -0.2033050
v -0.1250000 -0.5166950 -0.2033050
v -0.1250000 -0.5609000 -0.1591000
v -0.1728375 -0.5541725 -0.1658275
v -0.2404875 -0.5063300 -0.2136700
v -0.1875000 -0.5166950 -0.2033050
v -0.1728375 -0.5541725 -0.1658275
v -0.2133875 -0.5350075 -0.1849925
v -0.2500000 -0.4725000 -0.2475000
v -0.1875000 -0.4725000 -0.2475000
v -0.1875000 -0.5166950 -0.2033050
v -0.2404875 -0.5063300 -0.2136700
v -0.1875000 -0.4283050 -0.2916950
v -0.1875000 -0.4725000 -0.2475000
v -0.2500000 -0.4725000 -0.2475000
v -0.2442350 -0.4387775 -0.2813300
v -0.1728375 -0.3908275 -0.3291725
v -0.1875000 -0.4283050 -0.2916950
v -0.2442350 -0.4387775 -0.2813300
v -0.2153875 -0.4100500 -0.3100075
v -0.1250000 -0.3841000 -0.3359000
v -0.1250000 -0.4283050 -0.2916950
v -0.1875000 -0.4283050 -0.2916950
v -0.1728375 -0.3908275 -0.3291725
v -0.0366125 -0.2150925 -0.1151100
v -0.0366125 -0.4099925 -0.3100075
v -0.0771625 -0.3908275 -0.3291725
v -0.0771625 -0.2118425 -0.1501875
v -0.0095125 -0.2199600 -0.0626200
v -0.0095125 -0.4386700 -0.2813300
v -0.0366125 -0.4099925 -0.3100075
v -0.0366125 -0.2150925 -0.1151100
v 0.0000000 -0.2257000 -0.0007000
v 0.0000000 -0.4725000 -0.2475000
v -0.0095125 -0.4386700 -0.2813300
v -0.0095125 -0.2199600 -0.0626200
v -0.0771750 -0.2258500 0.1625000
v -0.1250000 -0.2661775 0.1356225
v -0.1250000 -0.5609000 -0.1591000
v -0.0771625 -0.5541725 -0.1658275
v -0.0366250 -0.1875000 0.1625000
v -0.0771750 -0.2258500 0.1625000
v -0.0771625 -0.5541725 -0.1658275
v -0.0366125 -0.5350075 -0.1849925
v -0.0366250 -0.1875000 0.1625000
v -0.0366125 -0.5350075 -0.1849925
v -0.0095125 -0.5063300 -0.2136700
v -0.0095250 -0.1301500 0.1625000
v -0.0095250 -0.1301500 0.1625000
v -0.0095125 -0.5063300 -0.2136700
v 0.0000000 -0.4725000 -0.2475000
v 0.0000000 -0.2257000 -0.0007000
v -0.1255000 -0.2105225 -0.1633850
v -0.0771625 -0.2118425 -0.1501875
v -0.0771625 -0.3908275 -0.3291725
v -0.1250000 -0.3841000 -0.3359000
v 0.0000000 -0.0625000 0.1625000
v -0.0095250 -0.1301500 0.1625000
v 0.0000000 -0.2257000 -0.0007000
v 0.0000000 -0.0625000 0.1625000
v -0.1230600 -0.1953850 0.1625000
v -0.0366250 -0.1875000 0.1625000
v -0.0095250 -0.1301500 0.1625000
v -0.0416500 -0.0000000 0.1625000
v -0.1230600 -0.1953850 0.1625000
v 0.0000000 -0.0625000 0.1625000
v 0.0000000 -0.0000000 0.1625000
v -0.1249925 -0.2330900 0.1565600
v -0.0771750 -0.2258500 0.1625000
v -0.1230600 -0.1953850 0.1625000
v -0.1250000 -0.2661775 0.1356225
v -0.0771750 -0.2258500 0.1625000
v -0.1249925 -0.2330900 0.1565600
v -0.0771750 -0.2258500 0.1625000
v -0.0366250 -0.1875000 0.1625000
v -0.1230600 -0.1953850 0.1625000
v -0.0416500 -0.0000000 0.1625000
v 0.0000000 -0.0000000 0.1625000
v 0.0000000 0.0622000 0.1501250
v 0.0000000 0.0622000 -0.1501250
v 0.0000000 -0.0000000 -0.1625000
v -0.0416500 -0.0000000 -0.1625000
v -0.1255000 -0.2105225 -0.1633850
v 0.0000000 -0.0000000 -0.1625000
v -0.0771625 -0.2118425 -0.1501875
v 0.0000000 -0.0000000 -0.1625000
v -0.1255000 -0.2105225 -0.1633850
v -0.0416500 -0.0000000 -0.1625000
v 0.0000000 -0.0000000 -0.1625000
v 0.0000000 -0.0621750 -0.1501250
v -0.0771625 -0.2118425 -0.1501875
v 0.0000000 -0.0621750 -0.1501250
v -0.0366125 -0.2150925 -0.1151100
v -0.0771625 -0.2118425 -0.1501875
v -0.0095125 -0.2199600 -0.0626200
v -0.0366125 -0.2150925 -0.1151100
v 0.0000000 -0.0621750 -0.1501250
v 0.0000000 -0.1149000 -0.1149000
v -0.0095125 -0.2199600 -0.0626200
v 0.0000000 -0.1149000 -0.1149000
v 0.0000000 -0.2257000 -0.0007000
v 0.0000000 0.0622000 0.1501250
v -0.0239250 0.0550000 0.1501250
v -0.0416500 -0.0000000 0.1625000
v -0.0735500 0.0382500 0.1501250
v -0.0416500 -0.0000000 0.1625000
v -0.0239250 0.0550000 0.1501250
v -0.0442000 0.1016500 -0.1149000
v -0.0239250 0.0550000 -0.1501250
v -0.0735500 0.0382500 -0.1501250
v -0.1006000 0.0707250 -0.1149000
v -0.0442000 0.1016500 -0.1149000
v -0.0735500 0.0382500 -0.1501250
v -0.0735500 0.0382500 -0.1501250
v -0.0239250 0.0550000 -0.1501250
v -0.0416500 -0.0000000 -0.1625000
v -0.1006000 0.0707250 0.1149000
v -0.0442000 0.1016500 0.1149000
v -0.0577500 0.1328000 0.0621750
v -0.1186500 0.0923750 0.0621750
v -0.1006000 0.0707250 0.1149000
v -0.0577500 0.1328000 0.0621750
v -0.0442000 0.1016500 0.1149000
v -0.1006000 0.0707250 0.1149000
v -0.0735500 0.0382500 0.1501250
v -0.0442000 0.1016500 0.1149000
v -0.0735500 0.0382500 0.1501250
v -0.0239250 0.0550000 0.1501250
v -0.1186500 0.0923750 0.0621750
v -0.0577500 0.1328000 0.0621750
v -0.0625000 0.1437500 0.0000000
v -0.0625000 0.1437500 0.0000000
v -0.1250000 0.1000000 0.0000000
v -0.1186500 0.0923750 0.0621750
v -0.0577500 0.1328000 -0.0621750
v -0.0442000 0.1016500 -0.1149000
v -0.1006000 0.0707250 -0.1149000
v -0.0625000 0.1437500 0.0000000
v -0.0577500 0.1328000 -0.0621750
v -0.1186500 0.0923750 -0.0621750
v -0.0416500 -0.0000000 -0.1625000
v -0.0239250 0.0550000 -0.1501250
v 0.0000000 0.0622000 -0.1501250
v -0.1006000 0.0707250 -0.1149000
v -0.1186500 0.0923750 -0.0621750
v -0.0577500 0.1328000 -0.0621750
v -0.1186500 0.0923750 -0.0621750
v -0.1250000 0.1000000 0.0000000
v -0.0625000 0.1437500 0.0000000
v 0.0000000 0.1149000 0.1149000
v -0.0442000 0.1016500 0.1149000
v -0.0239250 0.0550000 0.1501250
v 0.0000000 0.0622000 0.1501250
v -0.0442000 0.1016500 -0.1149000
v 0.0000000 0.1149000 -0.1149000
v 0.0000000 0.0622000 -0.1501250
v -0.0239250 0.0550000 -0.1501250
v -0.0625000 0.1437500 0.0000000
v 0.0000000 0.1625000 0.0000000
v 0.0000000 0.1501250 -0.0622000
v -0.0577500 0.1328000 -0.0621750
v -0.0577500 0.1328000 -0.0621750
v 0.0000000 0.1501250 -0.0622000
v 0.0000000 0.1149000 -0.1149000
v -0.0442000 0.1016500 -0.1149000
v 0.0000000 0.1625000 0.0000000
v -0.0625000 0.1437500 0.0000000
v -0.0577500 0.1328000 0.0621750
v 0.0000000 0.1501250 0.0622000
v 0.0000000 0.1501250 0.0622000
v -0.0577500 0.1328000 0.0621750
v -0.0442000 0.1016500 0.1149000
v 0.0000000 0.1149000 0.1149000
v -0.1186500 0.0923750 -0.0621750
v -0.1006000 0.0707250 -0.1149000
v -0.2188425 -0.2131550 -0.1149050
v -0.2463875 -0.2153025 -0.0619025
v -0.0735500 0.0382500 -0.1501250
v -0.0416500 -0.0000000 -0.1625000
v -0.1255000 -0.2105225 -0.1633850
v -0.1771325 -0.2110050 -0.1506075
v -0.2188425 -0.2131550 -0.1149050
v -0.1006000 0.0707250 -0.1149000
v -0.0735500 0.0382500 -0.1501250
v -0.1771325 -0.2110050 -0.1506075
v -0.1250000 0.1000000 0.0000000
v -0.1186500 0.0923750 -0.0621750
v -0.2463875 -0.2153025 -0.0619025
v -0.2509800 -0.2036550 0.0000000
v -0.2395000 -0.1976925 0.0621900
v -0.1186500 0.0923750 0.0621750
v -0.1250000 0.1000000 0.0000000
v -0.2509800 -0.2036550 0.0000000
v -0.1006000 0.0707250 0.1149000
v -0.1186500 0.0923750 0.0621750
v -0.2395000 -0.1976925 0.0621900
v -0.2115350 -0.1956150 0.1149050
v -0.1708900 -0.1953850 0.1501350
v -0.0735500 0.0382500 0.1501250
v -0.1006000 0.0707250 0.1149000
v -0.2115350 -0.1956150 0.1149050
v -0.0416500 -0.0000000 0.1625000
v -0.0735500 0.0382500 0.1501250
v -0.1708900 -0.1953850 0.1501350
v -0.1230600 -0.1953850 0.1625000
v -0.2516300 -0.2273725 -0.0088075
v -0.2509800 -0.2036550 0.0000000
v -0.2463875 -0.2153025 -0.0619025
v -0.2509800 -0.2036550 0.0000000
v -0.2516300 -0.2273725 -0.0088075
v -0.2417250 -0.2245275 0.0578975
v -0.2417250 -0.2245275 0.0578975
v -0.2395000 -0.1976925 0.0621900
v -0.2509800 -0.2036550 0.0000000
v -0.2404875 -0.2402150 0.0524450
v -0.2417250 -0.2245275 0.0578975
v -0.2516300 -0.2273725 -0.0088075
v -0.2404875 -0.2402150 0.0524450
v -0.2133875 -0.2545175 0.0954975
v -0.2133750 -0.2290275 0.1084325
v -0.2417250 -0.2245275 0.0578975
v -0.2133750 -0.2290275 0.1084325
v -0.2115350 -0.1956150 0.1149050
v -0.2395000 -0.1976925 0.0621900
v -0.2395000 -0.1976925 0.0621900
v -0.2417250 -0.2245275 0.0578975
v -0.2133750 -0.2290275 0.1084325
v -0.2133750 -0.2290275 0.1084325
v -0.1728250 -0.2320325 0.1422075
v -0.1708900 -0.1953850 0.1501350
v -0.1708900 -0.1953850 0.1501350
v -0.2115350 -0.1956150 0.1149050
v -0.2133750 -0.2290275 0.1084325
v -0.1728250 -0.2320325 0.1422075
v -0.2133750 -0.2290275 0.1084325
v -0.2133875 -0.2545175 0.0954975
v -0.2133875 -0.2545175 0.0954975
v -0.1728375 -0.2640675 0.1242800
v -0.1728250 -0.2320325 0.1422075
v -0.1708900 -0.1953850 0.1501350
v -0.1728250 -0.2320325 0.1422075
v -0.1249925 -0.2330900 0.1565600
v -0.1249925 -0.2330900 0.1565600
v -0.1230600 -0.1953850 0.1625000
v -0.1708900 -0.1953850 0.1501350
v -0.1249925 -0.2330900 0.1565600
v -0.1728250 -0.2320325 0.1422075
v -0.1728375 -0.2640675 0.1242800
v -0.1728375 -0.2640675 0.1242800
v -0.1250000 -0.2661775 0.1356225
v -0.1249925 -0.2330900 0.1565600
v -0.2463875 -0.2153025 -0.0619025
v -0.2442350 -0.4387775 -0.2813300
v -0.2500000 -0.4725000 -0.2475000
v -0.2516300 -0.2273725 -0.0088075
v -0.2463875 -0.2153025 -0.0619025
v -0.2188425 -0.2131550 -0.1149050
v -0.2153875 -0.4100500 -0.3100075
v -0.2442350 -0.4387775 -0.2813300
v -0.1250000 -0.3841000 -0.3359000
v -0.1728375 -0.3908275 -0.3291725
v -0.1771325 -0.2110050 -0.1506075
v -0.1255000 -0.2105225 -0.1633850
v -0.2188425 -0.2131550 -0.1149050
v -0.1771325 -0.2110050 -0.1506075
v -0.1728375 -0.3908275 -0.3291725
v -0.2153875 -0.4100500 -0.3100075
v -0.2404875 -0.2402150 0.0524450
v -0.2516300 -0.2273725 -0.0088075
v -0.2500000 -0.4725000 -0.2475000
v -0.2404875 -0.5063300 -0.2136700
v -0.2133875 -0.2545175 0.0954975
v -0.2404875 -0.2402150 0.0524450
v -0.2404875 -0.5063300 -0.2136700
v -0.2133875 -0.5350075 -0.1849925
v -0.1728375 -0.5541725 -0.1658275
v -0.1728375 -0.2640675 0.1242800
v -0.2133875 -0.2545175 0.0954975
v -0.2133875 -0.5350075 -0.1849925
v -0.1250000 -0.2661775 0.1356225
v -0.1728375 -0.2640675 0.1242800
v -0.1728375 -0.5541725 -0.1658275
v -0.1250000 -0.5609000 -0.1591000
s off
f 1 2 3
f 4 5 6
f 7 8 9
f 10 11 12
f 13 14 15
f 16 17 18
f 19 20 21
f 22 23 24
f 25 26 27
f 28 29 30
f 31 32 33
f 34 35 36
f 37 38 39
f 40 41 42
f 43 44 45
f 46 47 48
f 49 50 51
f 49 51 52
f 53 54 55
f 53 55 56
f 57 58 59
f 57 59 60
f 61 62 63
f 61 63 64
f 65 66 67
f 65 67 68
f 69 70 71
f 69 71 72
f 73 74 75
f 73 75 76
f 77 78 79
f 77 79 80
f 81 82 83
f 81 83 84
f 85 86 87
f 85 87 88
f 89 90 91
f 89 91 92
f 93 94 95
f 93 95 96
f 97 98 99
f 97 99 100
f 101 102 103
f 101 103 104
f 105 106 107
f 105 107 108
f 109 110 111
f 109 111 112
f 113 114 115
f 113 115 116
f 117 118 119
f 117 119 120
f 121 122 123
f 121 123 124
f 125 126 127
f 125 127 128
f 129 130 131
f 129 131 132
f 133 134 135
f 133 135 136
f 137 138 139
f 137 139 140
f 141 142 143
f 141 143 144
f 145 146 147
f 145 147 148
f 149 150 151
f 149 151 152
f 153 154 155
f 153 155 156
f 157 158 159
f 157 159 160
f 161 162 163
f 161 163 164
f 165 166 167
f 165 167 168
f 169 170 171
f 169 171 172
f 173 174 175
f 173 175 176
f 177 178 179
f 177 179 180
f 181 182 183
f 181 183 184
f 185 186 187
f 185 187 188
f 189 190 191
f 189 191 192
f 193 194 195
f 193 195 196
f 197 198 199
f 197 199 200
f 201 202 203
f 201 203 204
f 205 206 207
f 205 207 208
f 209 210 211
f 209 211 212
f 213 214 215
f 213 215 216
f 217 218 219
f 217 219 220
f 221 222 223
f 221 223 224
f 225 226 227
f 225 227 228
f 229 230 231
f 229 231 232
f 233 234 235
f 233 235 236
f 237 238 239
f 237 239 240
f 241 242 243
f 241 243 244
f 245 246 247
f 245 247 248
f 249 250 251
f 249 251 252
f 253 254 255
f 253 255 256
f 257 258 259
f 257 259 260
f 261 262 263
f 261 263 264
f 265 266 267
f 265 267 268
f 269 270 271
f 269 271 272
f 273 274 275
f 273 275 276
f 277 278 279
f 277 279 280
f 281 282 283
f 281 283 284
f 285 286 287
f 285 287 288
f 289 290 291
f 289 291 292
f 293 294 295
f 293 295 296
f 297 298 299
f 297 299 300
f 301 302 303
f 301 303 304
f 305 306 307
f 305 307 308
f 309 310 311
f 309 311 312
f 313 314 315
f 313 315 316
f 317 318 319
f 317 319 320
f 321 322 323
f 321 323 324
f 325 326 327
f 325 327 328
f 329 330 331
f 329 331 332
f 333 334 335
f 333 335 336
f 337 338 339
f 337 339 340
f 341 342 343
f 341 343 344
f 345 346 347
f 345 347 348
f 349 350 351
f 349 351 352
f 353 354 355
f 353 355 356
f 357 358 359
f 357 359 360
f 361 362 363
f 361 363 364
f 365 366 367
f 365 367 368
f 369 370 371
f 369 371 372
f 373 374 375
f 373 375 376
f 377 378 379
f 377 379 380
f 381 382 383
f 381 383 384
f 385 386 387
f 385 387 388
f 389 390 391
f 389 391 392
f 393 394 395
f 393 395 396
f 397 398 399
f 397 399 400
f 401 402 403
f 401 403 404
f 405 406 407
f 405 407 408
f 409 410 411
f 409 411 412
f 413 414 415
f 413 415 416
f 417 418 419
f 417 419 420
f 421 422 423
f 421 423 424
f 425 426 427
f 425 427 428
f 429 430 431
f 429 431 432
f 433 434 435
f 433 435 436
f 437 438 439
f 437 439 440
f 441 442 443
f 441 443 444
f 445 446 447
f 445 447 448
f 449 450 451
f 449 451 452
f 453 454 455
f 453 455 456
f 457 458 459
f 457 459 460
f 461 462 463
f 461 463 464
f 465 466 467
f 465 467 468
f 469 470 471
f 469 471 472
f 473 474 475
f 473 475 476
f 477 478 479
f 477 479 480
f 481 482 483
f 481 483 484
f 485 486 487
f 485 487 488
f 489 490 491
f 489 491 492
f 493 494 495
f 496 497 498
f 496 498 499
f 500 501 502
f 500 502 503
f 504 505 506
f 504 506 507
f 508 509 510
f 508 510 511
f 512 513 514
f 512 514 515
f 516 517 518
f 516 518 519
f 520 521 522
f 520 522 523
f 524 525 526
f 527 528 529
f 530 531 532
f 533 534 535
f 536 537 538
f 539 540 541
f 542 543 544
f 542 544 545
f 546 547 548
f 549 550 551
f 552 553 554
f 555 556 557
f 555 557 558
f 559 560 561
f 559 561 562
f 563 564 565
f 563 565 566
f 567 568 569
f 567 569 570
f 571 572 573
f 571 573 574
f 575 576 577
f 575 577 578
f 579 580 581
f 579 581 582
f 583 584 585
f 583 585 586
f 587 588 589
f 590 591 592
f 593 594 595
f 596 597 598
f 599 600 601
f 602 603 604
f 605 606 607
f 608 609 610
f 611 612 613
f 614 615 616
f 617 618 619
f 620 621 622
f 623 624 625
f 626 627 628
f 629 630 631
f 632 633 634
f 635 636 637
f 638 639 640
f 641 642 643
f 644 645 646
f 647 648 649
f 650 651 652
f 653 654 655
f 656 657 658
f 659 660 661
f 662 663 664
f 665 666 667
f 668 669 670
f 671 672 673
f 674 675 676
f 677 678 679
f 680 681 682
f 683 684 685
f 686 687 688
f 686 688 689
f 690 691 692
f 690 692 693
f 694 695 696
f 694 696 697
f 698 699 700
f 698 700 701
f 702 703 704
f 702 704 705
f 706 707 708
f 706 708 709
f 710 711 712
f 710 712 713
f 714 715 716
f 714 716 717
f 718 719 720
f 718 720 721
f 722 723 724
f 722 724 725
f 726 727 728
f 726 728 729
f 730 731 732
f 730 732 733
f 734 735 736
f 734 736 737
f 738 739 740
f 738 740 741
f 742 743 744
f 742 744 745
f 746 747 748
f 746 748 749
f 750 751 752
f 750 752 753
f 754 755 756
f 754 756 757
f 758 759 760
f 758 760 761
f 762 763 764
f 762 764 765
f 766 767 768
f 766 768 769
f 770 771 772
f 770 772 773
f 774 775 776
f 774 776 777
f 778 779 780
f 778 780 781
f 782 783 784
f 782 784 785
f 786 787 788
f 786 788 789
f 790 791 792
f 790 792 793
f 794 795 796
f 794 796 797
f 798 799 800
f 798 800 801
f 802 803 804
f 802 804 805
f 806 807 808
f 806 808 809
f 810 811 812
f 810 812 813
f 814 815 816
f 814 816 817
f 818 819 820
f 818 820 821
f 822 823 824
f 822 824 825
f 826 827 828
f 826 828 829
f 830 831 832
f 833 834 835
f 833 835 836
f 837 838 839
f 837 839 840
f 841 842 843
f 844 845 846
f 847 848 849
f 850 851 852
f 853 854 855
f 856 857 858
f 859 860 861
f 862 863 864
f 865 866 867
f 868 869 870
f 868 870 871
f 872 873 874
f 875 876 877
f 878 879 880
f 881 882 883
f 884 885 886
f 887 888 889
f 890 891 892
f 893 894 895
f 896 897 898
f 899 900 901
f 902 903 904
f 905 906 907
f 908 909 910
f 911 912 913
f 914 915 916
f 917 918 919
f 920 921 922
f 923 924 925
f 923 925 926
f 927 928 929
f 927 929 930
f 931 932 933
f 931 933 934
f 935 936 937
f 935 937 938
f 939 940 941
f 939 941 942
f 943 944 945
f 943 945 946
f 947 948 949
f 947 949 950
f 951 952 953
f 951 953 954
f 955 956 957
f 955 957 958
f 959 960 961
f 959 961 962
f 963 964 965
f 963 965 966
f 967 968 969
f 967 969 970
f 971 972 973
f 971 973 974
f 975 976 977
f 975 977 978
f 979 980 981
f 982 983 984
f 985 986 987
f 988 989 990
f 991 992 993
f 991 993 994
f 995 996 997
f 998 999 1000
f 1001 1002 1003
f 1004 1005 1006
f 1007 1008 1009
f 1010 1011 1012
f 1013 1014 1015
f 1016 1017 1018
f 1019 1020 1021
f 1022 1023 1024
f 1025 1026 1027
f 1025 1027 1028
f 1029 1030 1031
f 1029 1031 1032
f 1033 1034 1035
f 1033 1035 1036
f 1037 1038 1039
f 1037 1039 1040
f 1041 1042 1043
f 1041 1043 1044
f 1045 1046 1047
f 1045 1047 1048
f 1049 1050 1051
f 1049 1051 1052
f 1053 1054 1055
f 1053 1055 1056
