# Baked from official LDraw part 3820.dat
o ldraw_3820
v 0.0000000 -0.0000000 0.3250000
v 0.0625000 -0.0000000 0.3250000
v 0.0577438 0.0239188 0.3250000
v 0.0000000 -0.0000000 0.3250000
v 0.0577438 0.0239188 0.3250000
v 0.0441938 0.0441938 0.3250000
v 0.0000000 -0.0000000 0.3250000
v 0.0441938 0.0441938 0.3250000
v 0.0239188 0.0577438 0.3250000
v 0.0000000 -0.0000000 0.3250000
v 0.0239188 0.0577438 0.3250000
v 0.0000000 0.0625000 0.3250000
v 0.0000000 -0.0000000 0.3250000
v 0.0000000 0.0625000 0.3250000
v -0.0239188 0.0577438 0.3250000
v 0.0000000 -0.0000000 0.3250000
v -0.0239188 0.0577438 0.3250000
v -0.0441938 0.0441938 0.3250000
v 0.0000000 -0.0000000 0.3250000
v -0.0441938 0.0441938 0.3250000
v -0.0577438 0.0239188 0.3250000
v 0.0000000 -0.0000000 0.3250000
v -0.0577438 0.0239188 0.3250000
v -0.0625000 -0.0000000 0.3250000
v 0.0000000 -0.0000000 0.3250000
v -0.0625000 -0.0000000 0.3250000
v -0.0577438 -0.0239188 0.3250000
v 0.0000000 -0.0000000 0.3250000
v -0.0577438 -0.0239188 0.3250000
v -0.0441938 -0.0441938 0.3250000
v 0.0000000 -0.0000000 0.3250000
v -0.0441938 -0.0441938 0.3250000
v -0.0239188 -0.0577438 0.3250000
v 0.0000000 -0.0000000 0.3250000
v -0.0239188 -0.0577438 0.3250000
v 0.0000000 -0.0625000 0.3250000
v 0.0000000 -0.0000000 0.3250000
v 0.0000000 -0.0625000 0.3250000
v 0.0239188 -0.0577438 0.3250000
v 0.0000000 -0.0000000 0.3250000
v 0.0239188 -0.0577438 0.3250000
v 0.0441938 -0.0441938 0.3250000
v 0.0000000 -0.0000000 0.3250000
v 0.0441938 -0.0441938 0.3250000
v 0.0577438 -0.0239188 0.3250000
v 0.0000000 -0.0000000 0.3250000
v 0.0577438 -0.0239188 0.3250000
v 0.0625000 -0.0000000 0.3250000
v 0.0625000 -0.0000000 0.0000000
v 0.0577438 0.0239188 0.0000000
v 0.0577438 0.0239188 0.3250000
v 0.0625000 -0.0000000 0.3250000
v 0.0577438 0.0239188 0.0000000
v 0.0441938 0.0441938 0.0000000
v 0.0441938 0.0441938 0.3250000
v 0.0577438 0.0239188 0.3250000
v 0.0441938 0.0441938 0.0000000
v 0.0239188 0.0577438 0.0000000
v 0.0239188 0.0577438 0.3250000
v 0.0441938 0.0441938 0.3250000
v 0.0239188 0.0577438 0.0000000
v 0.0000000 0.0625000 0.0000000
v 0.0000000 0.0625000 0.3250000
v 0.0239188 0.0577438 0.3250000
v 0.0000000 0.0625000 0.0000000
v -0.0239188 0.0577438 0.0000000
v -0.0239188 0.0577438 0.3250000
v 0.0000000 0.0625000 0.3250000
v -0.0239188 0.0577438 0.0000000
v -0.0441938 0.0441938 0.0000000
v -0.0441938 0.0441938 0.3250000
v -0.0239188 0.0577438 0.3250000
v -0.0441938 0.0441938 0.0000000
v -0.0577438 0.0239188 0.0000000
v -0.0577438 0.0239188 0.3250000
v -0.0441938 0.0441938 0.3250000
v -0.0577438 0.0239188 0.0000000
v -0.0625000 -0.0000000 0.0000000
v -0.0625000 -0.0000000 0.3250000
v -0.0577438 0.0239188 0.3250000
v -0.0625000 -0.0000000 0.0000000
v -0.0577438 -0.0239188 0.0000000
v -0.0577438 -0.0239188 0.3250000
v -0.0625000 -0.0000000 0.3250000
v -0.0577438 -0.0239188 0.0000000
v -0.0441938 -0.0441938 0.0000000
v -0.0441938 -0.0441938 0.3250000
v -0.0577438 -0.0239188 0.3250000
v -0.0441938 -0.0441938 0.0000000
v -0.0239188 -0.0577438 0.0000000
v -0.0239188 -0.0577438 0.3250000
v -0.0441938 -0.0441938 0.3250000
v -0.0239188 -0.0577438 0.0000000
v 0.0000000 -0.0625000 0.0000000
v 0.0000000 -0.0625000 0.3250000
v -0.0239188 -0.0577438 0.3250000
v 0.0000000 -0.0625000 0.0000000
v 0.0239188 -0.0577438 0.0000000
v 0.0239188 -0.0577438 0.3250000
v 0.0000000 -0.0625000 0.3250000
v 0.0239188 -0.0577438 0.0000000
v 0.0441938 -0.0441938 0.0000000
v 0.0441938 -0.0441938 0.3250000
v 0.0239188 -0.0577438 0.3250000
v 0.0441938 -0.0441938 0.0000000
v 0.0577438 -0.0239188 0.0000000
v 0.0577438 -0.0239188 0.3250000
v 0.0441938 -0.0441938 0.3250000
v 0.0577438 -0.0239188 0.0000000
v 0.0625000 -0.0000000 0.0000000
v 0.0625000 -0.0000000 0.3250000
v 0.0577438 -0.0239188 0.3250000
v 0.0530325 0.0530325 -0.0366025
v 0.0388650 0.0625000 0.0000000
v 0.0530325 0.0530325 0.0000000
v 0.0530325 0.0530325 -0.0366025
v 0.0530325 0.0530325 0.0000000
v 0.0692925 0.0287025 0.0000000
v 0.0692925 0.0287025 -0.1145425
v 0.0530325 0.0530325 -0.0366025
v 0.0692925 0.0287025 -0.1145425
v 0.0665050 0.0328725 -0.1136950
v 0.0692925 0.0287025 -0.1145425
v 0.0692925 0.0287025 0.0000000
v 0.0750000 -0.0000000 0.0000000
v 0.0750000 -0.0000000 -0.1110575
v 0.0750000 -0.0000000 -0.1110575
v 0.0750000 -0.0000000 0.0000000
v 0.0692925 -0.0287025 0.0000000
v 0.0692925 -0.0287025 -0.0996925
v 0.0692925 -0.0287025 -0.0996925
v 0.0692925 -0.0287025 0.0000000
v 0.0574050 -0.0464900 0.0000000
v 0.0574050 -0.0464900 -0.0868900
v 0.0530325 -0.0530300 -0.0843000
v 0.0574050 -0.0464900 -0.0868900
v 0.0574050 -0.0464900 0.0000000
v 0.0530325 -0.0530325 0.0000000
v 0.0530325 -0.0530300 -0.0843000
v 0.0530325 -0.0530325 0.0000000
v 0.0287025 -0.0692925 0.0000000
v 0.0287025 -0.0692925 -0.0750975
v 0.0287025 -0.0692925 -0.0750975
v 0.0287025 -0.0692925 0.0000000
v 0.0000000 -0.0749975 0.0000000
v 0.0000000 -0.0750000 -0.0677350
v -0.0530325 0.0530325 0.0000000
v -0.0388650 0.0625000 0.0000000
v -0.0530325 0.0530325 -0.0366025
v -0.0530325 0.0530325 -0.0366025
v -0.0692925 0.0287025 -0.1145425
v -0.0692925 0.0287025 0.0000000
v -0.0530325 0.0530325 0.0000000
v -0.0665050 0.0328725 -0.1136950
v -0.0692925 0.0287025 -0.1145425
v -0.0530325 0.0530325 -0.0366025
v -0.0692925 0.0287025 -0.1145425
v -0.0750000 -0.0000000 -0.1110575
v -0.0750000 -0.0000000 0.0000000
v -0.0692925 0.0287025 0.0000000
v -0.0750000 -0.0000000 -0.1110575
v -0.0692925 -0.0287025 -0.0996925
v -0.0692925 -0.0287025 0.0000000
v -0.0750000 -0.0000000 0.0000000
v -0.0692925 -0.0287025 -0.0996925
v -0.0574050 -0.0464900 -0.0868900
v -0.0574050 -0.0464900 0.0000000
v -0.0692925 -0.0287025 0.0000000
v -0.0530325 -0.0530300 -0.0843000
v -0.0530325 -0.0530325 0.0000000
v -0.0574050 -0.0464900 0.0000000
v -0.0574050 -0.0464900 -0.0868900
v -0.0530325 -0.0530300 -0.0843000
v -0.0287025 -0.0692925 -0.0750975
v -0.0287025 -0.0692925 0.0000000
v -0.0530325 -0.0530325 0.0000000
v -0.0287025 -0.0692925 -0.0750975
v 0.0000000 -0.0750000 -0.0677350
v 0.0000000 -0.0749975 0.0000000
v -0.0287025 -0.0692925 0.0000000
v 0.0000000 0.0625000 0.0000000
v -0.0530325 0.0530325 -0.0366025
v -0.0388650 0.0625000 0.0000000
v 0.0530325 0.0530325 -0.0366025
v 0.0000000 0.0625000 0.0000000
v 0.0388650 0.0625000 0.0000000
v 0.0000000 0.0372850 -0.0967650
v -0.0574050 0.0344050 -0.1078100
v -0.0530325 0.0530325 -0.0366025
v 0.0000000 0.0625000 0.0000000
v -0.0574050 0.0344050 -0.1078100
v -0.0665050 0.0328725 -0.1136950
v -0.0530325 0.0530325 -0.0366025
v 0.0000000 0.0372850 -0.0967650
v 0.0000000 0.0625000 0.0000000
v 0.0530325 0.0530325 -0.0366025
v 0.0574050 0.0344050 -0.1078100
v 0.0530325 0.0530325 -0.0366025
v 0.0665050 0.0328725 -0.1136950
v 0.0574050 0.0344050 -0.1078100
v -0.0388650 0.0625000 0.0000000
v -0.0239175 0.0577450 0.0000000
v 0.0000000 0.0625000 0.0000000
v 0.0000000 0.0625000 0.0000000
v 0.0239175 0.0577450 0.0000000
v 0.0388650 0.0625000 0.0000000
v 0.0750000 -0.0000000 0.0000000
v 0.0692925 0.0287000 0.0000000
v 0.0577450 0.0239175 0.0000000
v 0.0625000 -0.0000000 0.0000000
v 0.0692925 0.0287000 0.0000000
v 0.0530325 0.0530325 0.0000000
v 0.0441950 0.0441950 0.0000000
v 0.0577450 0.0239175 0.0000000
v 0.0530325 0.0530325 0.0000000
v 0.0388650 0.0625000 0.0000000
v 0.0239175 0.0577450 0.0000000
v 0.0441950 0.0441950 0.0000000
v -0.0388650 0.0625000 0.0000000
v -0.0530325 0.0530325 0.0000000
v -0.0441950 0.0441950 0.0000000
v -0.0239175 0.0577450 0.0000000
v -0.0530325 0.0530325 0.0000000
v -0.0692925 0.0287000 0.0000000
v -0.0577450 0.0239175 0.0000000
v -0.0441950 0.0441950 0.0000000
v -0.0692925 0.0287000 0.0000000
v -0.0750000 -0.0000000 0.0000000
v -0.0625000 -0.0000000 0.0000000
v -0.0577450 0.0239175 0.0000000
v -0.0750000 -0.0000000 0.0000000
v -0.0692925 -0.0287000 0.0000000
v -0.0577450 -0.0239175 0.0000000
v -0.0625000 -0.0000000 0.0000000
v -0.0692925 -0.0287000 0.0000000
v -0.0530325 -0.0530325 0.0000000
v -0.0441950 -0.0441925 0.0000000
v -0.0577450 -0.0239175 0.0000000
v -0.0530325 -0.0530325 0.0000000
v -0.0287000 -0.0692925 0.0000000
v -0.0239175 -0.0577450 0.0000000
v -0.0441950 -0.0441925 0.0000000
v -0.0287000 -0.0692925 0.0000000
v 0.0000000 -0.0749975 0.0000000
v 0.0000000 -0.0625000 0.0000000
v -0.0239175 -0.0577450 0.0000000
v 0.0000000 -0.0749975 0.0000000
v 0.0287000 -0.0692925 0.0000000
v 0.0239175 -0.0577450 0.0000000
v 0.0000000 -0.0625000 0.0000000
v 0.0287000 -0.0692925 0.0000000
v 0.0530325 -0.0530325 0.0000000
v 0.0441950 -0.0441925 0.0000000
v 0.0239175 -0.0577450 0.0000000
v 0.0530325 -0.0530325 0.0000000
v 0.0692925 -0.0287000 0.0000000
v 0.0577450 -0.0239175 0.0000000
v 0.0441950 -0.0441925 0.0000000
v 0.0692925 -0.0287000 0.0000000
v 0.0750000 -0.0000000 0.0000000
v 0.0625000 -0.0000000 0.0000000
v 0.0577450 -0.0239175 0.0000000
v -0.1500000 0.1536915 -0.2818055
v -0.1500000 -0.1125500 -0.2129500
v -0.1385850 -0.0981767 -0.1573733
v -0.1385850 0.1680648 -0.2262288
v -0.1385850 0.1680648 -0.2262288
v -0.1385850 -0.0981767 -0.1573733
v -0.1060650 -0.0859931 -0.1102632
v -0.1060650 0.1802484 -0.1791187
v -0.1060650 0.1802484 -0.1791187
v -0.1060650 -0.0859931 -0.1102632
v -0.0574050 -0.0778506 -0.0787789
v -0.0574050 0.1883909 -0.1476344
v -0.0574050 0.1883909 -0.1476344
v -0.0574050 -0.0778506 -0.0787789
v 0.0000000 -0.0749925 -0.0677275
v 0.0000000 0.1912490 -0.1365830
v 0.0000000 0.1912490 -0.1365830
v 0.0000000 -0.0749925 -0.0677275
v 0.0574050 -0.0778506 -0.0787789
v 0.0574050 0.1883909 -0.1476344
v 0.0574050 0.1883909 -0.1476344
v 0.0574050 -0.0778506 -0.0787789
v 0.1060650 -0.0859931 -0.1102632
v 0.1060650 0.1802484 -0.1791187
v 0.1060650 0.1802484 -0.1791187
v 0.1060650 -0.0859931 -0.1102632
v 0.1385850 -0.0981767 -0.1573733
v 0.1385850 0.1680648 -0.2262288
v 0.1385850 0.1680648 -0.2262288
v 0.1385850 -0.0981767 -0.1573733
v 0.1500000 -0.1125500 -0.2129500
v 0.1500000 0.1536915 -0.2818055
v -0.0923900 0.1632734 -0.2447544
v -0.0923900 -0.1029681 -0.1758989
v -0.1000000 -0.1125500 -0.2129500
v -0.1000000 0.1536915 -0.2818055
v -0.0707100 0.1713955 -0.2133476
v -0.0707100 -0.0948460 -0.1444921
v -0.0923900 -0.1029681 -0.1758989
v -0.0923900 0.1632734 -0.2447544
v -0.0382700 0.1768236 -0.1923581
v -0.0382700 -0.0894179 -0.1235026
v -0.0707100 -0.0948460 -0.1444921
v -0.0707100 0.1713955 -0.2133476
v 0.0000000 0.1787290 -0.1849905
v 0.0000000 -0.0875125 -0.1161350
v -0.0382700 -0.0894179 -0.1235026
v -0.0382700 0.1768236 -0.1923581
v 0.0382700 0.1768236 -0.1923581
v 0.0382700 -0.0894179 -0.1235026
v 0.0000000 -0.0875125 -0.1161350
v 0.0000000 0.1787290 -0.1849905
v 0.0707100 0.1713955 -0.2133476
v 0.0707100 -0.0948460 -0.1444921
v 0.0382700 -0.0894179 -0.1235026
v 0.0382700 0.1768236 -0.1923581
v 0.0923900 0.1632734 -0.2447544
v 0.0923900 -0.1029681 -0.1758989
v 0.0707100 -0.0948460 -0.1444921
v 0.0707100 0.1713955 -0.2133476
v 0.1000000 0.1536915 -0.2818055
v 0.1000000 -0.1125500 -0.2129500
v 0.0923900 -0.1029681 -0.1758989
v 0.0923900 0.1632734 -0.2447544
v -0.1000000 -0.1125500 -0.2129500
v -0.0923900 -0.1029672 -0.1758991
v -0.1385850 -0.0981758 -0.1573736
v -0.1500000 -0.1125500 -0.2129500
v -0.0923900 -0.1029672 -0.1758991
v -0.0707100 -0.0948442 -0.1444925
v -0.1060650 -0.0859913 -0.1102637
v -0.1385850 -0.0981758 -0.1573736
v -0.0707100 -0.0948442 -0.1444925
v -0.0382700 -0.0894155 -0.1235031
v -0.0574050 -0.0778483 -0.0787796
v -0.1060650 -0.0859913 -0.1102637
v -0.0382700 -0.0894155 -0.1235031
v 0.0000000 -0.0875100 -0.1161355
v 0.0000000 -0.0749900 -0.0677283
v -0.0574050 -0.0778483 -0.0787796
v 0.0000000 -0.0875100 -0.1161355
v 0.0382700 -0.0894155 -0.1235031
v 0.0574050 -0.0778483 -0.0787796
v 0.0000000 -0.0749900 -0.0677283
v 0.0382700 -0.0894155 -0.1235031
v 0.0707100 -0.0948442 -0.1444925
v 0.1060650 -0.0859913 -0.1102637
v 0.0574050 -0.0778483 -0.0787796
v 0.0707100 -0.0948442 -0.1444925
v 0.0923900 -0.1029672 -0.1758991
v 0.1385850 -0.0981758 -0.1573736
v 0.1060650 -0.0859913 -0.1102637
v 0.0923900 -0.1029672 -0.1758991
v 0.1000000 -0.1125500 -0.2129500
v 0.1500000 -0.1125500 -0.2129500
v 0.1385850 -0.0981758 -0.1573736
v -0.1500000 0.1536950 -0.2817900
v -0.1385850 0.1680692 -0.2262136
v -0.0923900 0.1632778 -0.2447391
v -0.1000000 0.1536950 -0.2817900
v -0.1385850 0.1680692 -0.2262136
v -0.1060650 0.1802537 -0.1791037
v -0.0707100 0.1714008 -0.2133325
v -0.0923900 0.1632778 -0.2447391
v -0.1060650 0.1802537 -0.1791037
v -0.0574050 0.1883967 -0.1476196
v -0.0382700 0.1768295 -0.1923431
v -0.0707100 0.1714008 -0.2133325
v -0.0574050 0.1883967 -0.1476196
v 0.0000000 0.1912550 -0.1365682
v 0.0000000 0.1787350 -0.1849755
v -0.0382700 0.1768295 -0.1923431
v 0.0000000 0.1912550 -0.1365682
v 0.0574050 0.1883967 -0.1476196
v 0.0382700 0.1768295 -0.1923431
v 0.0000000 0.1787350 -0.1849755
v 0.0574050 0.1883967 -0.1476196
v 0.1060650 0.1802537 -0.1791037
v 0.0707100 0.1714008 -0.2133325
v 0.0382700 0.1768295 -0.1923431
v 0.1060650 0.1802537 -0.1791037
v 0.1385850 0.1680692 -0.2262136
v 0.0923900 0.1632778 -0.2447391
v 0.0707100 0.1714008 -0.2133325
v 0.1385850 0.1680692 -0.2262136
v 0.1500000 0.1536950 -0.2817900
v 0.1000000 0.1536950 -0.2817900
v 0.0923900 0.1632778 -0.2447391
v -0.0875000 0.1334180 -0.3601993
v -0.0875000 0.0877233 -0.3871155
v -0.0875000 0.1023319 -0.3879459
v -0.0875000 0.1270619 -0.3733788
v -0.0875000 0.1270619 -0.3733788
v -0.0875000 0.1023319 -0.3879459
v -0.0875000 0.1161450 -0.3831208
v -0.1500000 -0.1125500 -0.2129500
v -0.1385850 -0.1115225 -0.2725100
v -0.1404875 -0.1153200 -0.2616450
v -0.1385850 0.1393225 -0.3373650
v -0.1385850 -0.1115225 -0.2725100
v -0.1500000 -0.1125500 -0.2129500
v -0.1500000 0.1536915 -0.2818055
v -0.1060650 0.1174225 -0.3819800
v -0.1385850 0.1393225 -0.3373650
v -0.1228350 0.1334175 -0.3601975
v -0.1132450 0.1270625 -0.3733775
v -0.1385850 -0.1115225 -0.2725100
v -0.1385850 0.1393225 -0.3373650
v -0.1060650 0.1174225 -0.3819800
v -0.1060650 -0.0780500 -0.3314275
v -0.1385850 -0.1115225 -0.2725100
v -0.1060650 -0.0780500 -0.3314275
v -0.1178800 -0.0992350 -0.3076900
v -0.1060650 0.1174225 -0.3819800
v -0.0917700 0.1023325 -0.3879450
v -0.0919675 -0.0667625 -0.3440800
v -0.1060650 -0.0780500 -0.3314275
v -0.0917700 0.1023325 -0.3879450
v -0.0875000 0.0877225 -0.3871150
v -0.0875000 -0.0529750 -0.3507275
v -0.0919675 -0.0667625 -0.3440800
v -0.0917700 0.1023325 -0.3879450
v -0.1060650 0.1174225 -0.3819800
v -0.0875000 0.1161475 -0.3831200
v -0.0875000 0.1161475 -0.3831200
v -0.0875000 0.1023325 -0.3879450
v -0.0917700 0.1023325 -0.3879450
v -0.0875000 0.1023325 -0.3879450
v -0.0875000 0.0877225 -0.3871150
v -0.0917700 0.1023325 -0.3879450
v -0.0875000 0.1270625 -0.3733775
v -0.0875000 0.1161475 -0.3831200
v -0.1060650 0.1174225 -0.3819800
v -0.1132450 0.1270625 -0.3733775
v -0.0875000 0.1270625 -0.3733775
v -0.1132450 0.1270625 -0.3733775
v -0.1228350 0.1334175 -0.3601975
v -0.0875000 0.1334175 -0.3601975
v -0.0875000 0.1422750 -0.3259400
v -0.0875000 0.1334175 -0.3601975
v -0.1228350 0.1334175 -0.3601975
v -0.1385850 0.1393225 -0.3373650
v -0.0924000 0.1441025 -0.3188600
v -0.1385850 0.1393225 -0.3373650
v -0.1500000 0.1536915 -0.2818055
v -0.1000000 0.1536975 -0.2817900
v -0.1385850 0.1393225 -0.3373650
v -0.0924000 0.1441025 -0.3188600
v -0.0875000 0.1422750 -0.3259400
v -0.0875000 -0.0667625 -0.3440800
v -0.0919675 -0.0667625 -0.3440800
v -0.0875000 -0.0529750 -0.3507275
v -0.0875000 -0.0992350 -0.3076900
v -0.1178800 -0.0992350 -0.3076900
v -0.1060650 -0.0780500 -0.3314275
v -0.0875000 -0.0667625 -0.3440800
v -0.0875000 -0.0992350 -0.3076900
v -0.1060650 -0.0780500 -0.3314275
v -0.0919675 -0.0667625 -0.3440800
v -0.0923900 -0.1147650 -0.2519075
v -0.1404875 -0.1153200 -0.2616450
v -0.0875000 -0.1151900 -0.2593550
v -0.1404875 -0.1153200 -0.2616450
v -0.0923900 -0.1147650 -0.2519075
v -0.1000000 -0.1125500 -0.2129500
v -0.1500000 -0.1125500 -0.2129500
v -0.0875000 -0.0992350 -0.3076900
v -0.0875000 -0.1151900 -0.2593550
v -0.1385850 -0.1115225 -0.2725100
v -0.1178800 -0.0992350 -0.3076900
v -0.1385850 -0.1115225 -0.2725100
v -0.0875000 -0.1151900 -0.2593550
v -0.1404875 -0.1153200 -0.2616450
v -0.0924000 0.1441025 -0.3188600
v -0.1000000 0.1536975 -0.2817900
v -0.1000000 -0.1125500 -0.2129500
v -0.0923900 -0.1147650 -0.2519075
v -0.0875000 0.1422750 -0.3259400
v -0.0924000 0.1441025 -0.3188600
v -0.0923900 -0.1147650 -0.2519075
v -0.0875000 -0.1151900 -0.2593550
v -0.0875000 -0.0992350 -0.3076900
v -0.0875000 0.1334175 -0.3601975
v -0.0875000 0.1422750 -0.3259400
v -0.0875000 -0.1151900 -0.2593550
v -0.0875000 -0.0529750 -0.3507275
v -0.0875000 -0.0992350 -0.3076900
v -0.0875000 -0.0667625 -0.3440800
v -0.0875000 -0.0992350 -0.3076900
v -0.0875000 -0.0529750 -0.3507275
v -0.0875000 0.0877225 -0.3871150
v -0.0875000 0.1334175 -0.3601975
v 0.0875000 0.1270619 -0.3733788
v 0.0875000 0.1023319 -0.3879459
v 0.0875000 0.0877233 -0.3871155
v 0.0875000 0.1334180 -0.3601993
v 0.0875000 0.1161450 -0.3831208
v 0.0875000 0.1023319 -0.3879459
v 0.0875000 0.1270619 -0.3733788
v 0.1500000 -0.1125500 -0.2129500
v 0.1404875 -0.1153200 -0.2616450
v 0.1385850 -0.1115225 -0.2725100
v 0.1385850 -0.1115225 -0.2725100
v 0.1385850 0.1393225 -0.3373650
v 0.1499995 0.1536928 -0.2817885
v 0.1500000 -0.1125500 -0.2129500
v 0.1385850 0.1393225 -0.3373650
v 0.1060650 0.1174225 -0.3819800
v 0.1132450 0.1270625 -0.3733775
v 0.1228350 0.1334175 -0.3601975
v 0.1385850 -0.1115225 -0.2725100
v 0.1178800 -0.0992350 -0.3076900
v 0.1060650 -0.0780500 -0.3314275
v 0.1385850 0.1393225 -0.3373650
v 0.1385850 -0.1115225 -0.2725100
v 0.1060650 -0.0780500 -0.3314275
v 0.1060650 0.1174225 -0.3819800
v 0.1060650 0.1174225 -0.3819800
v 0.1060650 -0.0780500 -0.3314275
v 0.0919675 -0.0667625 -0.3440800
v 0.0917700 0.1023325 -0.3879450
v 0.0917700 0.1023325 -0.3879450
v 0.0919675 -0.0667625 -0.3440800
v 0.0875000 -0.0529750 -0.3507275
v 0.0875000 0.0877225 -0.3871150
v 0.0875000 0.1161475 -0.3831200
v 0.1060650 0.1174225 -0.3819800
v 0.0917700 0.1023325 -0.3879450
v 0.0917700 0.1023325 -0.3879450
v 0.0875000 0.1023325 -0.3879450
v 0.0875000 0.1161475 -0.3831200
v 0.0875000 0.1023325 -0.3879450
v 0.0917700 0.1023325 -0.3879450
v 0.0875000 0.0877225 -0.3871150
v 0.0875000 0.1270625 -0.3733775
v 0.1132450 0.1270625 -0.3733775
v 0.1060650 0.1174225 -0.3819800
v 0.0875000 0.1161475 -0.3831200
v 0.0875000 0.1270625 -0.3733775
v 0.0875000 0.1334175 -0.3601975
v 0.1228350 0.1334175 -0.3601975
v 0.1132450 0.1270625 -0.3733775
v 0.0875000 0.1422750 -0.3259400
v 0.1385850 0.1393225 -0.3373650
v 0.1228350 0.1334175 -0.3601975
v 0.0875000 0.1334175 -0.3601975
v 0.0924000 0.1441025 -0.3188600
v 0.1000000 0.1536975 -0.2817900
v 0.1500000 0.1536975 -0.2817900
v 0.1385850 0.1393225 -0.3373650
v 0.1385850 0.1393225 -0.3373650
v 0.0875000 0.1422750 -0.3259400
v 0.0924000 0.1441025 -0.3188600
v 0.0875000 -0.0667625 -0.3440800
v 0.0875000 -0.0529750 -0.3507275
v 0.0919675 -0.0667625 -0.3440800
v 0.0875000 -0.0992350 -0.3076900
v 0.1060650 -0.0780500 -0.3314275
v 0.1178800 -0.0992350 -0.3076900
v 0.0875000 -0.0667625 -0.3440800
v 0.0919675 -0.0667625 -0.3440800
v 0.1060650 -0.0780500 -0.3314275
v 0.0875000 -0.0992350 -0.3076900
v 0.0923900 -0.1147650 -0.2519075
v 0.0875000 -0.1151900 -0.2593550
v 0.1404875 -0.1153200 -0.2616450
v 0.1404875 -0.1153200 -0.2616450
v 0.1500000 -0.1125500 -0.2129500
v 0.1000000 -0.1125500 -0.2129500
v 0.0923900 -0.1147650 -0.2519075
v 0.0875000 -0.0992350 -0.3076900
v 0.1178800 -0.0992350 -0.3076900
v 0.1385850 -0.1115225 -0.2725100
v 0.0875000 -0.1151900 -0.2593550
v 0.1385850 -0.1115225 -0.2725100
v 0.1404875 -0.1153200 -0.2616450
v 0.0875000 -0.1151900 -0.2593550
v 0.0924000 0.1441025 -0.3188600
v 0.0923900 -0.1147650 -0.2519075
v 0.1000000 -0.1125500 -0.2129500
v 0.1000000 0.1536975 -0.2817900
v 0.0875000 0.1422750 -0.3259400
v 0.0875000 -0.1151900 -0.2593550
v 0.0923900 -0.1147650 -0.2519075
v 0.0924000 0.1441025 -0.3188600
v 0.0875000 -0.0992350 -0.3076900
v 0.0875000 -0.1151900 -0.2593550
v 0.0875000 0.1422750 -0.3259400
v 0.0875000 0.1334175 -0.3601975
v 0.0875000 -0.0529750 -0.3507275
v 0.0875000 -0.0667625 -0.3440800
v 0.0875000 -0.0992350 -0.3076900
v 0.0875000 -0.0992350 -0.3076900
v 0.0875000 0.1334175 -0.3601975
v 0.0875000 0.0877225 -0.3871150
v 0.0875000 -0.0529750 -0.3507275
s off
f 1 2 3
f 4 5 6
f 7 8 9
f 10 11 12
f 13 14 15
f 16 17 18
f 19 20 21
f 22 23 24
f 25 26 27
f 28 29 30
f 31 32 33
f 34 35 36
f 37 38 39
f 40 41 42
f 43 44 45
f 46 47 48
f 49 50 51
f 49 51 52
f 53 54 55
f 53 55 56
f 57 58 59
f 57 59 60
f 61 62 63
f 61 63 64
f 65 66 67
f 65 67 68
f 69 70 71
f 69 71 72
f 73 74 75
f 73 75 76
f 77 78 79
f 77 79 80
f 81 82 83
f 81 83 84
f 85 86 87
f 85 87 88
f 89 90 91
f 89 91 92
f 93 94 95
f 93 95 96
f 97 98 99
f 97 99 100
f 101 102 103
f 101 103 104
f 105 106 107
f 105 107 108
f 109 110 111
f 109 111 112
f 113 114 115
f 116 117 118
f 116 118 119
f 120 121 122
f 123 124 125
f 123 125 126
f 127 128 129
f 127 129 130
f 131 132 133
f 131 133 134
f 135 136 137
f 135 137 138
f 139 140 141
f 139 141 142
f 143 144 145
f 143 145 146
f 147 148 149
f 150 151 152
f 150 152 153
f 154 155 156
f 157 158 159
f 157 159 160
f 161 162 163
f 161 163 164
f 165 166 167
f 165 167 168
f 169 170 171
f 169 171 172
f 173 174 175
f 173 175 176
f 177 178 179
f 177 179 180
f 181 182 183
f 184 185 186
f 187 188 189
f 187 189 190
f 191 192 193
f 194 195 196
f 194 196 197
f 198 199 200
f 201 202 203
f 204 205 206
f 207 208 209
f 207 209 210
f 211 212 213
f 211 213 214
f 215 216 217
f 215 217 218
f 219 220 221
f 219 221 222
f 223 224 225
f 223 225 226
f 227 228 229
f 227 229 230
f 231 232 233
f 231 233 234
f 235 236 237
f 235 237 238
f 239 240 241
f 239 241 242
f 243 244 245
f 243 245 246
f 247 248 249
f 247 249 250
f 251 252 253
f 251 253 254
f 255 256 257
f 255 257 258
f 259 260 261
f 259 261 262
f 263 264 265
f 263 265 266
f 267 268 269
f 267 269 270
f 271 272 273
f 271 273 274
f 275 276 277
f 275 277 278
f 279 280 281
f 279 281 282
f 283 284 285
f 283 285 286
f 287 288 289
f 287 289 290
f 291 292 293
f 291 293 294
f 295 296 297
f 295 297 298
f 299 300 301
f 299 301 302
f 303 304 305
f 303 305 306
f 307 308 309
f 307 309 310
f 311 312 313
f 311 313 314
f 315 316 317
f 315 317 318
f 319 320 321
f 319 321 322
f 323 324 325
f 323 325 326
f 327 328 329
f 327 329 330
f 331 332 333
f 331 333 334
f 335 336 337
f 335 337 338
f 339 340 341
f 339 341 342
f 343 344 345
f 343 345 346
f 347 348 349
f 347 349 350
f 351 352 353
f 351 353 354
f 355 356 357
f 355 357 358
f 359 360 361
f 359 361 362
f 363 364 365
f 363 365 366
f 367 368 369
f 367 369 370
f 371 372 373
f 371 373 374
f 375 376 377
f 375 377 378
f 379 380 381
f 379 381 382
f 383 384 385
f 383 385 386
f 387 388 389
f 387 389 390
f 391 392 393
f 391 393 394
f 395 396 397
f 398 399 400
f 401 402 403
f 401 403 404
f 405 406 407
f 405 407 408
f 409 410 411
f 409 411 412
f 413 414 415
f 416 417 418
f 416 418 419
f 420 421 422
f 420 422 423
f 424 425 426
f 427 428 429
f 430 431 432
f 433 434 435
f 433 435 436
f 437 438 439
f 437 439 440
f 441 442 443
f 441 443 444
f 445 446 447
f 445 447 448
f 449 450 451
f 452 453 454
f 455 456 457
f 458 459 460
f 458 460 461
f 462 463 464
f 465 466 467
f 465 467 468
f 469 470 471
f 469 471 472
f 473 474 475
f 476 477 478
f 476 478 479
f 480 481 482
f 480 482 483
f 484 485 486
f 484 486 487
f 488 489 490
f 491 492 493
f 491 493 494
f 495 496 497
f 495 497 498
f 499 500 501
f 502 503 504
f 505 506 507
f 505 507 508
f 509 510 511
f 509 511 512
f 513 514 515
f 516 517 518
f 516 518 519
f 520 521 522
f 520 522 523
f 524 525 526
f 524 526 527
f 528 529 530
f 531 532 533
f 534 535 536
f 537 538 539
f 537 539 540
f 541 542 543
f 541 543 544
f 545 546 547
f 545 547 548
f 549 550 551
f 549 551 552
f 553 554 555
f 556 557 558
f 559 560 561
f 562 563 564
f 562 564 565
f 566 567 568
f 569 570 571
f 569 571 572
f 573 574 575
f 573 575 576
f 577 578 579
f 580 581 582
f 580 582 583
f 584 585 586
f 584 586 587
f 588 589 590
f 588 590 591
f 592 593 594
f 595 596 597
f 595 597 598
