# Baked from official LDraw part 4032a.dat
o ldraw_4032a
v 0.2000000 -0.1000000 -0.2000000
v 0.4000000 -0.1000000 -0.2840000
v 0.4000000 -0.1000000 0.2840000
v 0.2000000 -0.1000000 0.2000000
v 0.2000000 -0.1000000 -0.2000000
v 0.2840000 -0.1000000 -0.4000000
v 0.3535500 -0.1000000 -0.3535500
v 0.4000000 -0.1000000 -0.2840000
v 0.4000000 -0.1000000 -0.2840000
v 0.4000000 -0.2000000 -0.2840000
v 0.4000000 -0.2000000 0.2840000
v 0.4000000 -0.1000000 0.2840000
v 0.4000000 -0.2000000 0.2840000
v 0.4000000 -0.2000000 -0.2840000
v 0.4619400 -0.2000000 -0.1913425
v 0.4619350 -0.2000000 0.1913400
v 0.4619400 -0.2000000 -0.1913425
v 0.5000131 -0.2000000 0.0000031
v 0.4619361 -0.2000000 0.1913395
v 0.5000131 -0.0000000 0.0000031
v 0.5000131 -0.2000000 0.0000031
v 0.4619400 -0.2000000 -0.1913425
v 0.4619400 -0.0000000 -0.1913425
v 0.4619361 -0.0000000 0.1913395
v 0.4619361 -0.2000000 0.1913395
v 0.5000131 -0.2000000 0.0000031
v 0.5000131 -0.0000000 0.0000031
v 0.4619361 -0.0000000 0.1913395
v 0.5000131 -0.0000000 0.0000031
v 0.4619400 -0.0000000 -0.1913425
v 0.4000000 -0.1000000 0.2840000
v 0.4000000 -0.2000000 0.2840000
v 0.4619350 -0.2000000 0.1913400
v 0.4619350 -0.0000000 0.1913400
v 0.4000000 -0.2000000 -0.2840000
v 0.4000000 -0.1000000 -0.2840000
v 0.4619400 -0.0000000 -0.1913425
v 0.4619400 -0.2000000 -0.1913425
v 0.1500000 -0.0000000 -0.1500000
v 0.1500000 -0.0000000 0.1500000
v 0.3903625 -0.0000000 0.2984925
v 0.3903625 -0.0000000 -0.2984675
v 0.3903625 -0.0000000 0.2984925
v 0.4619350 -0.0000000 0.1913400
v 0.4619400 -0.0000000 -0.1913425
v 0.3903625 -0.0000000 -0.2984675
v 0.4000000 -0.1000000 -0.2840000
v 0.3535500 -0.1000000 -0.3535500
v 0.3535500 -0.0000000 -0.3535500
v 0.3903625 -0.0000000 -0.2984675
v 0.4619400 -0.0000000 -0.1913425
v 0.4000000 -0.1000000 -0.2840000
v 0.3903625 -0.0000000 -0.2984675
v 0.3903625 -0.0000000 0.2984925
v 0.4000000 -0.1000000 0.2840000
v 0.4619350 -0.0000000 0.1913400
v 0.3903625 -0.0000000 0.2984925
v 0.3535500 -0.0000000 0.3535500
v 0.3535500 -0.1000000 0.3535500
v 0.4000000 -0.1000000 0.2840000
v -0.2000000 -0.1000000 -0.2000000
v -0.2840000 -0.1000000 -0.4000000
v 0.2840000 -0.1000000 -0.4000000
v 0.2000000 -0.1000000 -0.2000000
v -0.2000000 -0.1000000 -0.2000000
v -0.4000000 -0.1000000 -0.2840000
v -0.3535500 -0.1000000 -0.3535500
v -0.2840000 -0.1000000 -0.4000000
v -0.2840000 -0.1000000 -0.4000000
v -0.2840000 -0.2000000 -0.4000000
v 0.2840000 -0.2000000 -0.4000000
v 0.2840000 -0.1000000 -0.4000000
v 0.2840000 -0.2000000 -0.4000000
v -0.2840000 -0.2000000 -0.4000000
v -0.1913425 -0.2000000 -0.4619400
v 0.1913400 -0.2000000 -0.4619350
v -0.1913425 -0.2000000 -0.4619400
v 0.0000031 -0.2000000 -0.5000131
v 0.1913395 -0.2000000 -0.4619361
v 0.0000031 -0.0000000 -0.5000131
v 0.0000031 -0.2000000 -0.5000131
v -0.1913425 -0.2000000 -0.4619400
v -0.1913425 -0.0000000 -0.4619400
v 0.1913395 -0.0000000 -0.4619361
v 0.1913395 -0.2000000 -0.4619361
v 0.0000031 -0.2000000 -0.5000131
v 0.0000031 -0.0000000 -0.5000131
v 0.1913395 -0.0000000 -0.4619361
v 0.0000031 -0.0000000 -0.5000131
v -0.1913425 -0.0000000 -0.4619400
v 0.2840000 -0.1000000 -0.4000000
v 0.2840000 -0.2000000 -0.4000000
v 0.1913400 -0.2000000 -0.4619350
v 0.1913400 -0.0000000 -0.4619350
v -0.2840000 -0.2000000 -0.4000000
v -0.2840000 -0.1000000 -0.4000000
v -0.1913425 -0.0000000 -0.4619400
v -0.1913425 -0.2000000 -0.4619400
v -0.1500000 -0.0000000 -0.1500000
v 0.1500000 -0.0000000 -0.1500000
v 0.2984925 -0.0000000 -0.3903625
v -0.2984675 -0.0000000 -0.3903625
v 0.2984925 -0.0000000 -0.3903625
v 0.1913400 -0.0000000 -0.4619350
v -0.1913425 -0.0000000 -0.4619400
v -0.2984675 -0.0000000 -0.3903625
v -0.2840000 -0.1000000 -0.4000000
v -0.3535500 -0.1000000 -0.3535500
v -0.3535500 -0.0000000 -0.3535500
v -0.2984675 -0.0000000 -0.3903625
v -0.1913425 -0.0000000 -0.4619400
v -0.2840000 -0.1000000 -0.4000000
v -0.2984675 -0.0000000 -0.3903625
v 0.2984925 -0.0000000 -0.3903625
v 0.2840000 -0.1000000 -0.4000000
v 0.1913400 -0.0000000 -0.4619350
v 0.2984925 -0.0000000 -0.3903625
v 0.3535500 -0.0000000 -0.3535500
v 0.3535500 -0.1000000 -0.3535500
v 0.2840000 -0.1000000 -0.4000000
v -0.2000000 -0.1000000 0.2000000
v -0.4000000 -0.1000000 0.2840000
v -0.4000000 -0.1000000 -0.2840000
v -0.2000000 -0.1000000 -0.2000000
v -0.2000000 -0.1000000 0.2000000
v -0.2840000 -0.1000000 0.4000000
v -0.3535500 -0.1000000 0.3535500
v -0.4000000 -0.1000000 0.2840000
v -0.4000000 -0.1000000 0.2840000
v -0.4000000 -0.2000000 0.2840000
v -0.4000000 -0.2000000 -0.2840000
v -0.4000000 -0.1000000 -0.2840000
v -0.4000000 -0.2000000 -0.2840000
v -0.4000000 -0.2000000 0.2840000
v -0.4619400 -0.2000000 0.1913425
v -0.4619350 -0.2000000 -0.1913400
v -0.4619400 -0.2000000 0.1913425
v -0.5000131 -0.2000000 -0.0000031
v -0.4619361 -0.2000000 -0.1913395
v -0.5000131 -0.0000000 -0.0000031
v -0.5000131 -0.2000000 -0.0000031
v -0.4619400 -0.2000000 0.1913425
v -0.4619400 -0.0000000 0.1913425
v -0.4619361 -0.0000000 -0.1913395
v -0.4619361 -0.2000000 -0.1913395
v -0.5000131 -0.2000000 -0.0000031
v -0.5000131 -0.0000000 -0.0000031
v -0.4619361 -0.0000000 -0.1913395
v -0.5000131 -0.0000000 -0.0000031
v -0.4619400 -0.0000000 0.1913425
v -0.4000000 -0.1000000 -0.2840000
v -0.4000000 -0.2000000 -0.2840000
v -0.4619350 -0.2000000 -0.1913400
v -0.4619350 -0.0000000 -0.1913400
v -0.4000000 -0.2000000 0.2840000
v -0.4000000 -0.1000000 0.2840000
v -0.4619400 -0.0000000 0.1913425
v -0.4619400 -0.2000000 0.1913425
v -0.1500000 -0.0000000 0.1500000
v -0.1500000 -0.0000000 -0.1500000
v -0.3903625 -0.0000000 -0.2984925
v -0.3903625 -0.0000000 0.2984675
v -0.3903625 -0.0000000 -0.2984925
v -0.4619350 -0.0000000 -0.1913400
v -0.4619400 -0.0000000 0.1913425
v -0.3903625 -0.0000000 0.2984675
v -0.4000000 -0.1000000 0.2840000
v -0.3535500 -0.1000000 0.3535500
v -0.3535500 -0.0000000 0.3535500
v -0.3903625 -0.0000000 0.2984675
v -0.4619400 -0.0000000 0.1913425
v -0.4000000 -0.1000000 0.2840000
v -0.3903625 -0.0000000 0.2984675
v -0.3903625 -0.0000000 -0.2984925
v -0.4000000 -0.1000000 -0.2840000
v -0.4619350 -0.0000000 -0.1913400
v -0.3903625 -0.0000000 -0.2984925
v -0.3535500 -0.0000000 -0.3535500
v -0.3535500 -0.1000000 -0.3535500
v -0.4000000 -0.1000000 -0.2840000
v 0.2000000 -0.1000000 0.2000000
v 0.2840000 -0.1000000 0.4000000
v -0.2840000 -0.1000000 0.4000000
v -0.2000000 -0.1000000 0.2000000
v 0.2000000 -0.1000000 0.2000000
v 0.4000000 -0.1000000 0.2840000
v 0.3535500 -0.1000000 0.3535500
v 0.2840000 -0.1000000 0.4000000
v 0.2840000 -0.1000000 0.4000000
v 0.2840000 -0.2000000 0.4000000
v -0.2840000 -0.2000000 0.4000000
v -0.2840000 -0.1000000 0.4000000
v -0.2840000 -0.2000000 0.4000000
v 0.2840000 -0.2000000 0.4000000
v 0.1913425 -0.2000000 0.4619400
v -0.1913400 -0.2000000 0.4619350
v 0.1913425 -0.2000000 0.4619400
v -0.0000031 -0.2000000 0.5000131
v -0.1913395 -0.2000000 0.4619361
v -0.0000031 -0.0000000 0.5000131
v -0.0000031 -0.2000000 0.5000131
v 0.1913425 -0.2000000 0.4619400
v 0.1913425 -0.0000000 0.4619400
v -0.1913395 -0.0000000 0.4619361
v -0.1913395 -0.2000000 0.4619361
v -0.0000031 -0.2000000 0.5000131
v -0.0000031 -0.0000000 0.5000131
v -0.1913395 -0.0000000 0.4619361
v -0.0000031 -0.0000000 0.5000131
v 0.1913425 -0.0000000 0.4619400
v -0.2840000 -0.1000000 0.4000000
v -0.2840000 -0.2000000 0.4000000
v -0.1913400 -0.2000000 0.4619350
v -0.1913400 -0.0000000 0.4619350
v 0.2840000 -0.2000000 0.4000000
v 0.2840000 -0.1000000 0.4000000
v 0.1913425 -0.0000000 0.4619400
v 0.1913425 -0.2000000 0.4619400
v 0.1500000 -0.0000000 0.1500000
v -0.1500000 -0.0000000 0.1500000
v -0.2984925 -0.0000000 0.3903625
v 0.2984675 -0.0000000 0.3903625
v -0.2984925 -0.0000000 0.3903625
v -0.1913400 -0.0000000 0.4619350
v 0.1913425 -0.0000000 0.4619400
v 0.2984675 -0.0000000 0.3903625
v 0.2840000 -0.1000000 0.4000000
v 0.3535500 -0.1000000 0.3535500
v 0.3535500 -0.0000000 0.3535500
v 0.2984675 -0.0000000 0.3903625
v 0.1913425 -0.0000000 0.4619400
v 0.2840000 -0.1000000 0.4000000
v 0.2984675 -0.0000000 0.3903625
v -0.2984925 -0.0000000 0.3903625
v -0.2840000 -0.1000000 0.4000000
v -0.1913400 -0.0000000 0.4619350
v -0.2984925 -0.0000000 0.3903625
v -0.3535500 -0.0000000 0.3535500
v -0.3535500 -0.1000000 0.3535500
v -0.2840000 -0.1000000 0.4000000
v 0.1500000 -0.2000000 0.0000000
v 0.1385850 -0.2000000 0.0574050
v 0.1385850 -0.1000000 0.0574050
v 0.1500000 -0.1000000 0.0000000
v 0.1385850 -0.2000000 0.0574050
v 0.1060650 -0.2000000 0.1060650
v 0.1060650 -0.1000000 0.1060650
v 0.1385850 -0.1000000 0.0574050
v 0.1060650 -0.2000000 0.1060650
v 0.0574050 -0.2000000 0.1385850
v 0.0574050 -0.1000000 0.1385850
v 0.1060650 -0.1000000 0.1060650
v 0.0574050 -0.2000000 0.1385850
v 0.0000000 -0.2000000 0.1500000
v 0.0000000 -0.1000000 0.1500000
v 0.0574050 -0.1000000 0.1385850
v 0.0000000 -0.2000000 0.1500000
v -0.0574050 -0.2000000 0.1385850
v -0.0574050 -0.1000000 0.1385850
v 0.0000000 -0.1000000 0.1500000
v -0.0574050 -0.2000000 0.1385850
v -0.1060650 -0.2000000 0.1060650
v -0.1060650 -0.1000000 0.1060650
v -0.0574050 -0.1000000 0.1385850
v -0.1060650 -0.2000000 0.1060650
v -0.1385850 -0.2000000 0.0574050
v -0.1385850 -0.1000000 0.0574050
v -0.1060650 -0.1000000 0.1060650
v -0.1385850 -0.2000000 0.0574050
v -0.1500000 -0.2000000 0.0000000
v -0.1500000 -0.1000000 0.0000000
v -0.1385850 -0.1000000 0.0574050
v -0.1500000 -0.2000000 0.0000000
v -0.1385850 -0.2000000 -0.0574050
v -0.1385850 -0.1000000 -0.0574050
v -0.1500000 -0.1000000 0.0000000
v -0.1385850 -0.2000000 -0.0574050
v -0.1060650 -0.2000000 -0.1060650
v -0.1060650 -0.1000000 -0.1060650
v -0.1385850 -0.1000000 -0.0574050
v -0.1060650 -0.2000000 -0.1060650
v -0.0574050 -0.2000000 -0.1385850
v -0.0574050 -0.1000000 -0.1385850
v -0.1060650 -0.1000000 -0.1060650
v -0.0574050 -0.2000000 -0.1385850
v 0.0000000 -0.2000000 -0.1500000
v 0.0000000 -0.1000000 -0.1500000
v -0.0574050 -0.1000000 -0.1385850
v 0.0000000 -0.2000000 -0.1500000
v 0.0574050 -0.2000000 -0.1385850
v 0.0574050 -0.1000000 -0.1385850
v 0.0000000 -0.1000000 -0.1500000
v 0.0574050 -0.2000000 -0.1385850
v 0.1060650 -0.2000000 -0.1060650
v 0.1060650 -0.1000000 -0.1060650
v 0.0574050 -0.1000000 -0.1385850
v 0.1060650 -0.2000000 -0.1060650
v 0.1385850 -0.2000000 -0.0574050
v 0.1385850 -0.1000000 -0.0574050
v 0.1060650 -0.1000000 -0.1060650
v 0.1385850 -0.2000000 -0.0574050
v 0.1500000 -0.2000000 0.0000000
v 0.1500000 -0.1000000 0.0000000
v 0.1385850 -0.1000000 -0.0574050
v 0.2000000 -0.1000000 0.0000000
v 0.1847800 -0.1000000 0.0765400
v 0.1847800 -0.2000000 0.0765400
v 0.2000000 -0.2000000 0.0000000
v 0.1847800 -0.1000000 0.0765400
v 0.1414200 -0.1000000 0.1414200
v 0.1414200 -0.2000000 0.1414200
v 0.1847800 -0.2000000 0.0765400
v 0.1414200 -0.1000000 0.1414200
v 0.0765400 -0.1000000 0.1847800
v 0.0765400 -0.2000000 0.1847800
v 0.1414200 -0.2000000 0.1414200
v 0.0765400 -0.1000000 0.1847800
v 0.0000000 -0.1000000 0.2000000
v 0.0000000 -0.2000000 0.2000000
v 0.0765400 -0.2000000 0.1847800
v 0.0000000 -0.1000000 0.2000000
v -0.0765400 -0.1000000 0.1847800
v -0.0765400 -0.2000000 0.1847800
v 0.0000000 -0.2000000 0.2000000
v -0.0765400 -0.1000000 0.1847800
v -0.1414200 -0.1000000 0.1414200
v -0.1414200 -0.2000000 0.1414200
v -0.0765400 -0.2000000 0.1847800
v -0.1414200 -0.1000000 0.1414200
v -0.1847800 -0.1000000 0.0765400
v -0.1847800 -0.2000000 0.0765400
v -0.1414200 -0.2000000 0.1414200
v -0.1847800 -0.1000000 0.0765400
v -0.2000000 -0.1000000 0.0000000
v -0.2000000 -0.2000000 0.0000000
v -0.1847800 -0.2000000 0.0765400
v -0.2000000 -0.1000000 0.0000000
v -0.1847800 -0.1000000 -0.0765400
v -0.1847800 -0.2000000 -0.0765400
v -0.2000000 -0.2000000 0.0000000
v -0.1847800 -0.1000000 -0.0765400
v -0.1414200 -0.1000000 -0.1414200
v -0.1414200 -0.2000000 -0.1414200
v -0.1847800 -0.2000000 -0.0765400
v -0.1414200 -0.1000000 -0.1414200
v -0.0765400 -0.1000000 -0.1847800
v -0.0765400 -0.2000000 -0.1847800
v -0.1414200 -0.2000000 -0.1414200
v -0.0765400 -0.1000000 -0.1847800
v 0.0000000 -0.1000000 -0.2000000
v 0.0000000 -0.2000000 -0.2000000
v -0.0765400 -0.2000000 -0.1847800
v 0.0000000 -0.1000000 -0.2000000
v 0.0765400 -0.1000000 -0.1847800
v 0.0765400 -0.2000000 -0.1847800
v 0.0000000 -0.2000000 -0.2000000
v 0.0765400 -0.1000000 -0.1847800
v 0.1414200 -0.1000000 -0.1414200
v 0.1414200 -0.2000000 -0.1414200
v 0.0765400 -0.2000000 -0.1847800
v 0.1414200 -0.1000000 -0.1414200
v 0.1847800 -0.1000000 -0.0765400
v 0.1847800 -0.2000000 -0.0765400
v 0.1414200 -0.2000000 -0.1414200
v 0.1847800 -0.1000000 -0.0765400
v 0.2000000 -0.1000000 0.0000000
v 0.2000000 -0.2000000 0.0000000
v 0.1847800 -0.2000000 -0.0765400
v -0.0765400 -0.2000000 0.1847800
v -0.0574050 -0.2000000 0.1385850
v 0.0000000 -0.2000000 0.1500000
v 0.0000000 -0.2000000 0.2000000
v -0.1414200 -0.2000000 0.1414200
v -0.1060650 -0.2000000 0.1060650
v -0.0574050 -0.2000000 0.1385850
v -0.0765400 -0.2000000 0.1847800
v -0.1847800 -0.2000000 0.0765400
v -0.1385850 -0.2000000 0.0574050
v -0.1060650 -0.2000000 0.1060650
v -0.1414200 -0.2000000 0.1414200
v -0.2000000 -0.2000000 0.0000000
v -0.1500000 -0.2000000 0.0000000
v -0.1385850 -0.2000000 0.0574050
v -0.1847800 -0.2000000 0.0765400
v -0.1847800 -0.2000000 -0.0765400
v -0.1385850 -0.2000000 -0.0574050
v -0.1500000 -0.2000000 0.0000000
v -0.2000000 -0.2000000 0.0000000
v -0.1414200 -0.2000000 -0.1414200
v -0.1060650 -0.2000000 -0.1060650
v -0.1385850 -0.2000000 -0.0574050
v -0.1847800 -0.2000000 -0.0765400
v -0.0765400 -0.2000000 -0.1847800
v -0.0574050 -0.2000000 -0.1385850
v -0.1060650 -0.2000000 -0.1060650
v -0.1414200 -0.2000000 -0.1414200
v 0.0000000 -0.2000000 -0.2000000
v 0.0000000 -0.2000000 -0.1500000
v -0.0574050 -0.2000000 -0.1385850
v -0.0765400 -0.2000000 -0.1847800
v 0.0765400 -0.2000000 -0.1847800
v 0.0574050 -0.2000000 -0.1385850
v 0.0000000 -0.2000000 -0.1500000
v 0.0000000 -0.2000000 -0.2000000
v 0.1414200 -0.2000000 -0.1414200
v 0.1060650 -0.2000000 -0.1060650
v 0.0574050 -0.2000000 -0.1385850
v 0.0765400 -0.2000000 -0.1847800
v 0.1847800 -0.2000000 -0.0765400
v 0.1385850 -0.2000000 -0.0574050
v 0.1060650 -0.2000000 -0.1060650
v 0.1414200 -0.2000000 -0.1414200
v 0.2000000 -0.2000000 0.0000000
v 0.1500000 -0.2000000 0.0000000
v 0.1385850 -0.2000000 -0.0574050
v 0.1847800 -0.2000000 -0.0765400
v 0.1847800 -0.2000000 0.0765400
v 0.1385850 -0.2000000 0.0574050
v 0.1500000 -0.2000000 0.0000000
v 0.2000000 -0.2000000 0.0000000
v 0.1414200 -0.2000000 0.1414200
v 0.1060650 -0.2000000 0.1060650
v 0.1385850 -0.2000000 0.0574050
v 0.1847800 -0.2000000 0.0765400
v 0.0765400 -0.2000000 0.1847800
v 0.0574050 -0.2000000 0.1385850
v 0.1060650 -0.2000000 0.1060650
v 0.1414200 -0.2000000 0.1414200
v 0.0000000 -0.2000000 0.2000000
v 0.0000000 -0.2000000 0.1500000
v 0.0574050 -0.2000000 0.1385850
v 0.0765400 -0.2000000 0.1847800
v 0.1847800 -0.1000000 0.0765400
v 0.2000000 -0.1000000 0.0000000
v 0.2000000 -0.1000000 0.2000000
v 0.1414200 -0.1000000 0.1414200
v 0.1847800 -0.1000000 0.0765400
v 0.2000000 -0.1000000 0.2000000
v 0.0765400 -0.1000000 0.1847800
v 0.1414200 -0.1000000 0.1414200
v 0.2000000 -0.1000000 0.2000000
v 0.0000000 -0.1000000 0.2000000
v 0.0765400 -0.1000000 0.1847800
v 0.2000000 -0.1000000 0.2000000
v -0.0765400 -0.1000000 0.1847800
v 0.0000000 -0.1000000 0.2000000
v -0.2000000 -0.1000000 0.2000000
v -0.1414200 -0.1000000 0.1414200
v -0.0765400 -0.1000000 0.1847800
v -0.2000000 -0.1000000 0.2000000
v -0.1847800 -0.1000000 0.0765400
v -0.1414200 -0.1000000 0.1414200
v -0.2000000 -0.1000000 0.2000000
v -0.2000000 -0.1000000 0.0000000
v -0.1847800 -0.1000000 0.0765400
v -0.2000000 -0.1000000 0.2000000
v -0.1847800 -0.1000000 -0.0765400
v -0.2000000 -0.1000000 0.0000000
v -0.2000000 -0.1000000 -0.2000000
v -0.1414200 -0.1000000 -0.1414200
v -0.1847800 -0.1000000 -0.0765400
v -0.2000000 -0.1000000 -0.2000000
v -0.0765400 -0.1000000 -0.1847800
v -0.1414200 -0.1000000 -0.1414200
v -0.2000000 -0.1000000 -0.2000000
v 0.0000000 -0.1000000 -0.2000000
v -0.0765400 -0.1000000 -0.1847800
v -0.2000000 -0.1000000 -0.2000000
v 0.0765400 -0.1000000 -0.1847800
v 0.0000000 -0.1000000 -0.2000000
v 0.2000000 -0.1000000 -0.2000000
v 0.1414200 -0.1000000 -0.1414200
v 0.0765400 -0.1000000 -0.1847800
v 0.2000000 -0.1000000 -0.2000000
v 0.1847800 -0.1000000 -0.0765400
v 0.1414200 -0.1000000 -0.1414200
v 0.2000000 -0.1000000 -0.2000000
v 0.2000000 -0.1000000 0.0000000
v 0.1847800 -0.1000000 -0.0765400
v 0.2000000 -0.1000000 -0.2000000
v 0.1400575 -0.1000000 0.0500000
v 0.1400575 -0.0000000 0.0500000
v 0.1500000 -0.0000000 0.0000000
v 0.1500000 -0.1000000 0.0000000
v 0.1000000 -0.0000000 0.0500000
v 0.1400575 -0.0000000 0.0500000
v 0.1400575 -0.1000000 0.0500000
v 0.1000000 -0.1000000 0.0500000
v 0.0625000 -0.1000000 0.0625000
v 0.0625000 -0.0000000 0.0625000
v 0.1000000 -0.0000000 0.0500000
v 0.1000000 -0.1000000 0.0500000
v 0.0500000 -0.1000000 0.1000000
v 0.0500000 -0.0000000 0.1000000
v 0.0625000 -0.0000000 0.0625000
v 0.0625000 -0.1000000 0.0625000
v 0.0500000 -0.1000000 0.1400575
v 0.0500000 -0.0000000 0.1400575
v 0.0500000 -0.0000000 0.1000000
v 0.0500000 -0.1000000 0.1000000
v 0.0500000 -0.1000000 0.1400575
v 0.0000000 -0.1000000 0.1500000
v 0.0000000 -0.0000000 0.1500000
v 0.0500000 -0.0000000 0.1400575
v -0.0500000 -0.1000000 0.1400575
v -0.0500000 -0.0000000 0.1400575
v 0.0000000 -0.0000000 0.1500000
v 0.0000000 -0.1000000 0.1500000
v -0.0500000 -0.0000000 0.1000000
v -0.0500000 -0.0000000 0.1400575
v -0.0500000 -0.1000000 0.1400575
v -0.0500000 -0.1000000 0.1000000
v -0.0625000 -0.1000000 0.0625000
v -0.0625000 -0.0000000 0.0625000
v -0.0500000 -0.0000000 0.1000000
v -0.0500000 -0.1000000 0.1000000
v -0.1000000 -0.1000000 0.0500000
v -0.1000000 -0.0000000 0.0500000
v -0.0625000 -0.0000000 0.0625000
v -0.0625000 -0.1000000 0.0625000
v -0.1400575 -0.1000000 0.0500000
v -0.1400575 -0.0000000 0.0500000
v -0.1000000 -0.0000000 0.0500000
v -0.1000000 -0.1000000 0.0500000
v -0.1500000 -0.1000000 0.0000000
v -0.1500000 -0.0000000 0.0000000
v -0.1400575 -0.0000000 0.0500000
v -0.1400575 -0.1000000 0.0500000
v -0.1400575 -0.1000000 -0.0500000
v -0.1400575 -0.0000000 -0.0500000
v -0.1500000 -0.0000000 0.0000000
v -0.1500000 -0.1000000 0.0000000
v -0.1000000 -0.1000000 -0.0500000
v -0.1000000 -0.0000000 -0.0500000
v -0.1400575 -0.0000000 -0.0500000
v -0.1400575 -0.1000000 -0.0500000
v -0.0625000 -0.1000000 -0.0625000
v -0.0625000 -0.0000000 -0.0625000
v -0.1000000 -0.0000000 -0.0500000
v -0.1000000 -0.1000000 -0.0500000
v -0.0500000 -0.1000000 -0.1000000
v -0.0500000 -0.0000000 -0.1000000
v -0.0625000 -0.0000000 -0.0625000
v -0.0625000 -0.1000000 -0.0625000
v -0.0500000 -0.1000000 -0.1400575
v -0.0500000 -0.0000000 -0.1400575
v -0.0500000 -0.0000000 -0.1000000
v -0.0500000 -0.1000000 -0.1000000
v -0.0500000 -0.1000000 -0.1400575
v 0.0000000 -0.1000000 -0.1500000
v 0.0000000 -0.0000000 -0.1500000
v -0.0500000 -0.0000000 -0.1400575
v 0.0500000 -0.1000000 -0.1400575
v 0.0500000 -0.0000000 -0.1400575
v 0.0000000 -0.0000000 -0.1500000
v 0.0000000 -0.1000000 -0.1500000
v 0.0500000 -0.1000000 -0.1000000
v 0.0500000 -0.0000000 -0.1000000
v 0.0500000 -0.0000000 -0.1400575
v 0.0500000 -0.1000000 -0.1400575
v 0.0625000 -0.1000000 -0.0625000
v 0.0625000 -0.0000000 -0.0625000
v 0.0500000 -0.0000000 -0.1000000
v 0.0500000 -0.1000000 -0.1000000
v 0.1000000 -0.1000000 -0.0500000
v 0.1000000 -0.0000000 -0.0500000
v 0.0625000 -0.0000000 -0.0625000
v 0.0625000 -0.1000000 -0.0625000
v 0.1400575 -0.1000000 -0.0500000
v 0.1400575 -0.0000000 -0.0500000
v 0.1000000 -0.0000000 -0.0500000
v 0.1000000 -0.1000000 -0.0500000
v 0.1500000 -0.1000000 0.0000000
v 0.1500000 -0.0000000 0.0000000
v 0.1400575 -0.0000000 -0.0500000
v 0.1400575 -0.1000000 -0.0500000
v 0.0574020 -0.0000000 0.1385806
v 0.1060680 -0.0000000 0.1060695
v 0.1385820 -0.0000000 0.0574025
v -0.1385806 -0.0000000 0.0574020
v -0.1060695 -0.0000000 0.1060680
v -0.0574025 -0.0000000 0.1385820
v -0.0574020 -0.0000000 -0.1385806
v -0.1060680 -0.0000000 -0.1060695
v -0.1385820 -0.0000000 -0.0574025
v 0.1385806 -0.0000000 -0.0574020
v 0.1060695 -0.0000000 -0.1060680
v 0.0574025 -0.0000000 -0.1385820
v 0.0625000 -0.0000000 0.0625000
v 0.0574025 -0.0000000 0.1385825
v 0.1385825 -0.0000000 0.0574025
v 0.1385825 -0.0000000 0.0574025
v 0.1400575 -0.0000000 0.0500000
v 0.1000000 -0.0000000 0.0500000
v 0.0625000 -0.0000000 0.0625000
v 0.0500000 -0.0000000 0.1400575
v 0.0574025 -0.0000000 0.1385825
v 0.0625000 -0.0000000 0.0625000
v 0.0500000 -0.0000000 0.1000000
v -0.1385825 -0.0000000 0.0574025
v -0.0574025 -0.0000000 0.1385825
v -0.0625000 -0.0000000 0.0625000
v -0.0574025 -0.0000000 0.1385825
v -0.0500000 -0.0000000 0.1400575
v -0.0500000 -0.0000000 0.1000000
v -0.0625000 -0.0000000 0.0625000
v -0.1385825 -0.0000000 0.0574025
v -0.0625000 -0.0000000 0.0625000
v -0.1000000 -0.0000000 0.0500000
v -0.1400575 -0.0000000 0.0500000
v -0.0625000 -0.0000000 -0.0625000
v -0.1385825 -0.0000000 -0.0574025
v -0.1400575 -0.0000000 -0.0500000
v -0.1000000 -0.0000000 -0.0500000
v -0.0625000 -0.0000000 -0.0625000
v -0.0574025 -0.0000000 -0.1385825
v -0.1385825 -0.0000000 -0.0574025
v -0.0625000 -0.0000000 -0.0625000
v -0.0500000 -0.0000000 -0.1000000
v -0.0500000 -0.0000000 -0.1400575
v -0.0574025 -0.0000000 -0.1385825
v 0.0625000 -0.0000000 -0.0625000
v 0.1385825 -0.0000000 -0.0574025
v 0.0574025 -0.0000000 -0.1385825
v 0.0500000 -0.0000000 -0.1000000
v 0.0625000 -0.0000000 -0.0625000
v 0.0574025 -0.0000000 -0.1385825
v 0.0500000 -0.0000000 -0.1400575
v 0.1400575 -0.0000000 -0.0500000
v 0.1385825 -0.0000000 -0.0574025
v 0.0625000 -0.0000000 -0.0625000
v 0.1000000 -0.0000000 -0.0500000
v 0.1385806 -0.1000000 0.0574020
v 0.1060695 -0.1000000 0.1060680
v 0.0574025 -0.1000000 0.1385820
v 0.0574020 -0.1000000 -0.1385806
v 0.1060680 -0.1000000 -0.1060695
v 0.1385820 -0.1000000 -0.0574025
v -0.1385806 -0.1000000 -0.0574020
v -0.1060695 -0.1000000 -0.1060680
v -0.0574025 -0.1000000 -0.1385820
v -0.0574020 -0.1000000 0.1385806
v -0.1060680 -0.1000000 0.1060695
v -0.1385820 -0.1000000 0.0574025
v 0.0625000 -0.1000000 0.0625000
v 0.1385825 -0.1000000 0.0574025
v 0.0574025 -0.1000000 0.1385825
v 0.0574025 -0.1000000 0.1385825
v 0.0500000 -0.1000000 0.1400575
v 0.0500000 -0.1000000 0.1000000
v 0.0625000 -0.1000000 0.0625000
v 0.1400575 -0.1000000 0.0500000
v 0.1385825 -0.1000000 0.0574025
v 0.0625000 -0.1000000 0.0625000
v 0.1000000 -0.1000000 0.0500000
v 0.0574025 -0.1000000 -0.1385825
v 0.1385825 -0.1000000 -0.0574025
v 0.0625000 -0.1000000 -0.0625000
v 0.1385825 -0.1000000 -0.0574025
v 0.1400575 -0.1000000 -0.0500000
v 0.1000000 -0.1000000 -0.0500000
v 0.0625000 -0.1000000 -0.0625000
v 0.0574025 -0.1000000 -0.1385825
v 0.0625000 -0.1000000 -0.0625000
v 0.0500000 -0.1000000 -0.1000000
v 0.0500000 -0.1000000 -0.1400575
v -0.0625000 -0.1000000 -0.0625000
v -0.0574025 -0.1000000 -0.1385825
v -0.0500000 -0.1000000 -0.1400575
v -0.0500000 -0.1000000 -0.1000000
v -0.0625000 -0.1000000 -0.0625000
v -0.1385825 -0.1000000 -0.0574025
v -0.0574025 -0.1000000 -0.1385825
v -0.0625000 -0.1000000 -0.0625000
v -0.1000000 -0.1000000 -0.0500000
v -0.1400575 -0.1000000 -0.0500000
v -0.1385825 -0.1000000 -0.0574025
v -0.0625000 -0.1000000 0.0625000
v -0.0574025 -0.1000000 0.1385825
v -0.1385825 -0.1000000 0.0574025
v -0.1000000 -0.1000000 0.0500000
v -0.0625000 -0.1000000 0.0625000
v -0.1385825 -0.1000000 0.0574025
v -0.1400575 -0.1000000 0.0500000
v -0.0500000 -0.1000000 0.1400575
v -0.0574025 -0.1000000 0.1385825
v -0.0625000 -0.1000000 0.0625000
v -0.0500000 -0.1000000 0.1000000
v 0.1500000 -0.0000000 0.1500000
v 0.1500000 -0.0000000 0.0000000
v 0.1385850 -0.0000000 0.0574050
v 0.1500000 -0.0000000 0.1500000
v 0.1385850 -0.0000000 0.0574050
v 0.1060650 -0.0000000 0.1060650
v 0.1500000 -0.0000000 0.1500000
v 0.1060650 -0.0000000 0.1060650
v 0.0574050 -0.0000000 0.1385850
v 0.1500000 -0.0000000 0.1500000
v 0.0574050 -0.0000000 0.1385850
v 0.0000000 -0.0000000 0.1500000
v -0.1500000 -0.0000000 0.1500000
v 0.0000000 -0.0000000 0.1500000
v -0.0574050 -0.0000000 0.1385850
v -0.1500000 -0.0000000 0.1500000
v -0.0574050 -0.0000000 0.1385850
v -0.1060650 -0.0000000 0.1060650
v -0.1500000 -0.0000000 0.1500000
v -0.1060650 -0.0000000 0.1060650
v -0.1385850 -0.0000000 0.0574050
v -0.1500000 -0.0000000 0.1500000
v -0.1385850 -0.0000000 0.0574050
v -0.1500000 -0.0000000 0.0000000
v -0.1500000 -0.0000000 -0.1500000
v -0.1500000 -0.0000000 0.0000000
v -0.1385850 -0.0000000 -0.0574050
v -0.1500000 -0.0000000 -0.1500000
v -0.1385850 -0.0000000 -0.0574050
v -0.1060650 -0.0000000 -0.1060650
v -0.1500000 -0.0000000 -0.1500000
v -0.1060650 -0.0000000 -0.1060650
v -0.0574050 -0.0000000 -0.1385850
v -0.1500000 -0.0000000 -0.1500000
v -0.0574050 -0.0000000 -0.1385850
v 0.0000000 -0.0000000 -0.1500000
v 0.1500000 -0.0000000 -0.1500000
v 0.0000000 -0.0000000 -0.1500000
v 0.0574050 -0.0000000 -0.1385850
v 0.1500000 -0.0000000 -0.1500000
v 0.0574050 -0.0000000 -0.1385850
v 0.1060650 -0.0000000 -0.1060650
v 0.1500000 -0.0000000 -0.1500000
v 0.1060650 -0.0000000 -0.1060650
v 0.1385850 -0.0000000 -0.0574050
v 0.1500000 -0.0000000 -0.1500000
v 0.1385850 -0.0000000 -0.0574050
v 0.1500000 -0.0000000 0.0000000
v 0.2500000 -0.0000000 0.4000000
v 0.2500000 0.1000000 0.4000000
v 0.1925950 0.1000000 0.3885850
v 0.1925950 -0.0000000 0.3885850
v 0.1925950 -0.0000000 0.3885850
v 0.1925950 0.1000000 0.3885850
v 0.1439350 0.1000000 0.3560650
v 0.1439350 -0.0000000 0.3560650
v 0.1439350 -0.0000000 0.3560650
v 0.1439350 0.1000000 0.3560650
v 0.1114150 0.1000000 0.3074050
v 0.1114150 -0.0000000 0.3074050
v 0.1114150 -0.0000000 0.3074050
v 0.1114150 0.1000000 0.3074050
v 0.1000000 0.1000000 0.2500000
v 0.1000000 -0.0000000 0.2500000
v 0.1000000 -0.0000000 0.2500000
v 0.1000000 0.1000000 0.2500000
v 0.1114150 0.1000000 0.1925950
v 0.1114150 -0.0000000 0.1925950
v 0.1114150 -0.0000000 0.1925950
v 0.1114150 0.1000000 0.1925950
v 0.1439350 0.1000000 0.1439350
v 0.1439350 -0.0000000 0.1439350
v 0.1439350 -0.0000000 0.1439350
v 0.1439350 0.1000000 0.1439350
v 0.1925950 0.1000000 0.1114150
v 0.1925950 -0.0000000 0.1114150
v 0.1925950 -0.0000000 0.1114150
v 0.1925950 0.1000000 0.1114150
v 0.2500000 0.1000000 0.1000000
v 0.2500000 -0.0000000 0.1000000
v 0.2500000 -0.0000000 0.1000000
v 0.2500000 0.1000000 0.1000000
v 0.3074050 0.1000000 0.1114150
v 0.3074050 -0.0000000 0.1114150
v 0.3074050 -0.0000000 0.1114150
v 0.3074050 0.1000000 0.1114150
v 0.3560650 0.1000000 0.1439350
v 0.3560650 -0.0000000 0.1439350
v 0.3560650 -0.0000000 0.1439350
v 0.3560650 0.1000000 0.1439350
v 0.3885850 0.1000000 0.1925950
v 0.3885850 -0.0000000 0.1925950
v 0.3885850 -0.0000000 0.1925950
v 0.3885850 0.1000000 0.1925950
v 0.4000000 0.1000000 0.2500000
v 0.4000000 -0.0000000 0.2500000
v 0.1925950 0.1000000 0.3885850
v 0.2500000 0.1000000 0.4000000
v 0.2500000 0.1000000 0.2500000
v 0.1439350 0.1000000 0.3560650
v 0.1925950 0.1000000 0.3885850
v 0.2500000 0.1000000 0.2500000
v 0.1114150 0.1000000 0.3074050
v 0.1439350 0.1000000 0.3560650
v 0.2500000 0.1000000 0.2500000
v 0.1000000 0.1000000 0.2500000
v 0.1114150 0.1000000 0.3074050
v 0.2500000 0.1000000 0.2500000
v 0.1114150 0.1000000 0.1925950
v 0.1000000 0.1000000 0.2500000
v 0.2500000 0.1000000 0.2500000
v 0.1439350 0.1000000 0.1439350
v 0.1114150 0.1000000 0.1925950
v 0.2500000 0.1000000 0.2500000
v 0.1925950 0.1000000 0.1114150
v 0.1439350 0.1000000 0.1439350
v 0.2500000 0.1000000 0.2500000
v 0.2500000 0.1000000 0.1000000
v 0.1925950 0.1000000 0.1114150
v 0.2500000 0.1000000 0.2500000
v 0.3074050 0.1000000 0.1114150
v 0.2500000 0.1000000 0.1000000
v 0.2500000 0.1000000 0.2500000
v 0.3560650 0.1000000 0.1439350
v 0.3074050 0.1000000 0.1114150
v 0.2500000 0.1000000 0.2500000
v 0.3885850 0.1000000 0.1925950
v 0.3560650 0.1000000 0.1439350
v 0.2500000 0.1000000 0.2500000
v 0.4000000 0.1000000 0.2500000
v 0.3885850 0.1000000 0.1925950
v 0.2500000 0.1000000 0.2500000
v 0.2500000 0.1000000 0.2500000
v 0.3903625 0.1000000 0.2984925
v 0.4000000 0.1000000 0.2500000
v 0.2500000 0.1000000 0.2500000
v 0.3535500 0.1000000 0.3535500
v 0.3903625 0.1000000 0.2984925
v 0.2500000 0.1000000 0.2500000
v 0.2984925 0.1000000 0.3903625
v 0.3535500 0.1000000 0.3535500
v 0.2500000 0.1000000 0.2500000
v 0.2500000 0.1000000 0.4000000
v 0.2984925 0.1000000 0.3903625
v 0.4000000 0.1000000 0.2500000
v 0.3903625 0.1000000 0.2984925
v 0.3903625 -0.0000000 0.2984925
v 0.4000000 -0.0000000 0.2500000
v 0.3903625 0.1000000 0.2984925
v 0.3535500 0.1000000 0.3535500
v 0.3535500 -0.0000000 0.3535500
v 0.3903625 -0.0000000 0.2984925
v 0.3535500 0.1000000 0.3535500
v 0.2984925 0.1000000 0.3903625
v 0.2984675 -0.0000000 0.3903625
v 0.3535500 -0.0000000 0.3535500
v 0.2984925 0.1000000 0.3903625
v 0.2500000 0.1000000 0.4000000
v 0.2500000 -0.0000000 0.4000000
v 0.2984675 -0.0000000 0.3903625
v -0.4000000 -0.0000000 0.2500000
v -0.4000000 0.1000000 0.2500000
v -0.3885850 0.1000000 0.1925950
v -0.3885850 -0.0000000 0.1925950
v -0.3885850 -0.0000000 0.1925950
v -0.3885850 0.1000000 0.1925950
v -0.3560650 0.1000000 0.1439350
v -0.3560650 -0.0000000 0.1439350
v -0.3560650 -0.0000000 0.1439350
v -0.3560650 0.1000000 0.1439350
v -0.3074050 0.1000000 0.1114150
v -0.3074050 -0.0000000 0.1114150
v -0.3074050 -0.0000000 0.1114150
v -0.3074050 0.1000000 0.1114150
v -0.2500000 0.1000000 0.1000000
v -0.2500000 -0.0000000 0.1000000
v -0.2500000 -0.0000000 0.1000000
v -0.2500000 0.1000000 0.1000000
v -0.1925950 0.1000000 0.1114150
v -0.1925950 -0.0000000 0.1114150
v -0.1925950 -0.0000000 0.1114150
v -0.1925950 0.1000000 0.1114150
v -0.1439350 0.1000000 0.1439350
v -0.1439350 -0.0000000 0.1439350
v -0.1439350 -0.0000000 0.1439350
v -0.1439350 0.1000000 0.1439350
v -0.1114150 0.1000000 0.1925950
v -0.1114150 -0.0000000 0.1925950
v -0.1114150 -0.0000000 0.1925950
v -0.1114150 0.1000000 0.1925950
v -0.1000000 0.1000000 0.2500000
v -0.1000000 -0.0000000 0.2500000
v -0.1000000 -0.0000000 0.2500000
v -0.1000000 0.1000000 0.2500000
v -0.1114150 0.1000000 0.3074050
v -0.1114150 -0.0000000 0.3074050
v -0.1114150 -0.0000000 0.3074050
v -0.1114150 0.1000000 0.3074050
v -0.1439350 0.1000000 0.3560650
v -0.1439350 -0.0000000 0.3560650
v -0.1439350 -0.0000000 0.3560650
v -0.1439350 0.1000000 0.3560650
v -0.1925950 0.1000000 0.3885850
v -0.1925950 -0.0000000 0.3885850
v -0.1925950 -0.0000000 0.3885850
v -0.1925950 0.1000000 0.3885850
v -0.2500000 0.1000000 0.4000000
v -0.2500000 -0.0000000 0.4000000
v -0.3885850 0.1000000 0.1925950
v -0.4000000 0.1000000 0.2500000
v -0.2500000 0.1000000 0.2500000
v -0.3560650 0.1000000 0.1439350
v -0.3885850 0.1000000 0.1925950
v -0.2500000 0.1000000 0.2500000
v -0.3074050 0.1000000 0.1114150
v -0.3560650 0.1000000 0.1439350
v -0.2500000 0.1000000 0.2500000
v -0.2500000 0.1000000 0.1000000
v -0.3074050 0.1000000 0.1114150
v -0.2500000 0.1000000 0.2500000
v -0.1925950 0.1000000 0.1114150
v -0.2500000 0.1000000 0.1000000
v -0.2500000 0.1000000 0.2500000
v -0.1439350 0.1000000 0.1439350
v -0.1925950 0.1000000 0.1114150
v -0.2500000 0.1000000 0.2500000
v -0.1114150 0.1000000 0.1925950
v -0.1439350 0.1000000 0.1439350
v -0.2500000 0.1000000 0.2500000
v -0.1000000 0.1000000 0.2500000
v -0.1114150 0.1000000 0.1925950
v -0.2500000 0.1000000 0.2500000
v -0.1114150 0.1000000 0.3074050
v -0.1000000 0.1000000 0.2500000
v -0.2500000 0.1000000 0.2500000
v -0.1439350 0.1000000 0.3560650
v -0.1114150 0.1000000 0.3074050
v -0.2500000 0.1000000 0.2500000
v -0.1925950 0.1000000 0.3885850
v -0.1439350 0.1000000 0.3560650
v -0.2500000 0.1000000 0.2500000
v -0.2500000 0.1000000 0.4000000
v -0.1925950 0.1000000 0.3885850
v -0.2500000 0.1000000 0.2500000
v -0.2500000 0.1000000 0.2500000
v -0.2984925 0.1000000 0.3903625
v -0.2500000 0.1000000 0.4000000
v -0.2500000 0.1000000 0.2500000
v -0.3535500 0.1000000 0.3535500
v -0.2984925 0.1000000 0.3903625
v -0.2500000 0.1000000 0.2500000
v -0.3903625 0.1000000 0.2984925
v -0.3535500 0.1000000 0.3535500
v -0.2500000 0.1000000 0.2500000
v -0.4000000 0.1000000 0.2500000
v -0.3903625 0.1000000 0.2984925
v -0.2500000 0.1000000 0.4000000
v -0.2984925 0.1000000 0.3903625
v -0.2984925 -0.0000000 0.3903625
v -0.2500000 -0.0000000 0.4000000
v -0.2984925 0.1000000 0.3903625
v -0.3535500 0.1000000 0.3535500
v -0.3535500 -0.0000000 0.3535500
v -0.2984925 -0.0000000 0.3903625
v -0.3535500 0.1000000 0.3535500
v -0.3903625 0.1000000 0.2984925
v -0.3903625 -0.0000000 0.2984675
v -0.3535500 -0.0000000 0.3535500
v -0.3903625 0.1000000 0.2984925
v -0.4000000 0.1000000 0.2500000
v -0.4000000 -0.0000000 0.2500000
v -0.3903625 -0.0000000 0.2984675
v 0.4000000 -0.0000000 -0.2500000
v 0.4000000 0.1000000 -0.2500000
v 0.3885850 0.1000000 -0.1925950
v 0.3885850 -0.0000000 -0.1925950
v 0.3885850 -0.0000000 -0.1925950
v 0.3885850 0.1000000 -0.1925950
v 0.3560650 0.1000000 -0.1439350
v 0.3560650 -0.0000000 -0.1439350
v 0.3560650 -0.0000000 -0.1439350
v 0.3560650 0.1000000 -0.1439350
v 0.3074050 0.1000000 -0.1114150
v 0.3074050 -0.0000000 -0.1114150
v 0.3074050 -0.0000000 -0.1114150
v 0.3074050 0.1000000 -0.1114150
v 0.2500000 0.1000000 -0.1000000
v 0.2500000 -0.0000000 -0.1000000
v 0.2500000 -0.0000000 -0.1000000
v 0.2500000 0.1000000 -0.1000000
v 0.1925950 0.1000000 -0.1114150
v 0.1925950 -0.0000000 -0.1114150
v 0.1925950 -0.0000000 -0.1114150
v 0.1925950 0.1000000 -0.1114150
v 0.1439350 0.1000000 -0.1439350
v 0.1439350 -0.0000000 -0.1439350
v 0.1439350 -0.0000000 -0.1439350
v 0.1439350 0.1000000 -0.1439350
v 0.1114150 0.1000000 -0.1925950
v 0.1114150 -0.0000000 -0.1925950
v 0.1114150 -0.0000000 -0.1925950
v 0.1114150 0.1000000 -0.1925950
v 0.1000000 0.1000000 -0.2500000
v 0.1000000 -0.0000000 -0.2500000
v 0.1000000 -0.0000000 -0.2500000
v 0.1000000 0.1000000 -0.2500000
v 0.1114150 0.1000000 -0.3074050
v 0.1114150 -0.0000000 -0.3074050
v 0.1114150 -0.0000000 -0.3074050
v 0.1114150 0.1000000 -0.3074050
v 0.1439350 0.1000000 -0.3560650
v 0.1439350 -0.0000000 -0.3560650
v 0.1439350 -0.0000000 -0.3560650
v 0.1439350 0.1000000 -0.3560650
v 0.1925950 0.1000000 -0.3885850
v 0.1925950 -0.0000000 -0.3885850
v 0.1925950 -0.0000000 -0.3885850
v 0.1925950 0.1000000 -0.3885850
v 0.2500000 0.1000000 -0.4000000
v 0.2500000 -0.0000000 -0.4000000
v 0.3885850 0.1000000 -0.1925950
v 0.4000000 0.1000000 -0.2500000
v 0.2500000 0.1000000 -0.2500000
v 0.3560650 0.1000000 -0.1439350
v 0.3885850 0.1000000 -0.1925950
v 0.2500000 0.1000000 -0.2500000
v 0.3074050 0.1000000 -0.1114150
v 0.3560650 0.1000000 -0.1439350
v 0.2500000 0.1000000 -0.2500000
v 0.2500000 0.1000000 -0.1000000
v 0.3074050 0.1000000 -0.1114150
v 0.2500000 0.1000000 -0.2500000
v 0.1925950 0.1000000 -0.1114150
v 0.2500000 0.1000000 -0.1000000
v 0.2500000 0.1000000 -0.2500000
v 0.1439350 0.1000000 -0.1439350
v 0.1925950 0.1000000 -0.1114150
v 0.2500000 0.1000000 -0.2500000
v 0.1114150 0.1000000 -0.1925950
v 0.1439350 0.1000000 -0.1439350
v 0.2500000 0.1000000 -0.2500000
v 0.1000000 0.1000000 -0.2500000
v 0.1114150 0.1000000 -0.1925950
v 0.2500000 0.1000000 -0.2500000
v 0.1114150 0.1000000 -0.3074050
v 0.1000000 0.1000000 -0.2500000
v 0.2500000 0.1000000 -0.2500000
v 0.1439350 0.1000000 -0.3560650
v 0.1114150 0.1000000 -0.3074050
v 0.2500000 0.1000000 -0.2500000
v 0.1925950 0.1000000 -0.3885850
v 0.1439350 0.1000000 -0.3560650
v 0.2500000 0.1000000 -0.2500000
v 0.2500000 0.1000000 -0.4000000
v 0.1925950 0.1000000 -0.3885850
v 0.2500000 0.1000000 -0.2500000
v 0.2500000 0.1000000 -0.2500000
v 0.2984925 0.1000000 -0.3903625
v 0.2500000 0.1000000 -0.4000000
v 0.2500000 0.1000000 -0.2500000
v 0.3535500 0.1000000 -0.3535500
v 0.2984925 0.1000000 -0.3903625
v 0.2500000 0.1000000 -0.2500000
v 0.3903625 0.1000000 -0.2984925
v 0.3535500 0.1000000 -0.3535500
v 0.2500000 0.1000000 -0.2500000
v 0.4000000 0.1000000 -0.2500000
v 0.3903625 0.1000000 -0.2984925
v 0.2500000 0.1000000 -0.4000000
v 0.2984925 0.1000000 -0.3903625
v 0.2984925 -0.0000000 -0.3903625
v 0.2500000 -0.0000000 -0.4000000
v 0.2984925 0.1000000 -0.3903625
v 0.3535500 0.1000000 -0.3535500
v 0.3535500 -0.0000000 -0.3535500
v 0.2984925 -0.0000000 -0.3903625
v 0.3535500 0.1000000 -0.3535500
v 0.3903625 0.1000000 -0.2984925
v 0.3903625 -0.0000000 -0.2984675
v 0.3535500 -0.0000000 -0.3535500
v 0.3903625 0.1000000 -0.2984925
v 0.4000000 0.1000000 -0.2500000
v 0.4000000 -0.0000000 -0.2500000
v 0.3903625 -0.0000000 -0.2984675
v -0.2500000 -0.0000000 -0.4000000
v -0.2500000 0.1000000 -0.4000000
v -0.1925950 0.1000000 -0.3885850
v -0.1925950 -0.0000000 -0.3885850
v -0.1925950 -0.0000000 -0.3885850
v -0.1925950 0.1000000 -0.3885850
v -0.1439350 0.1000000 -0.3560650
v -0.1439350 -0.0000000 -0.3560650
v -0.1439350 -0.0000000 -0.3560650
v -0.1439350 0.1000000 -0.3560650
v -0.1114150 0.1000000 -0.3074050
v -0.1114150 -0.0000000 -0.3074050
v -0.1114150 -0.0000000 -0.3074050
v -0.1114150 0.1000000 -0.3074050
v -0.1000000 0.1000000 -0.2500000
v -0.1000000 -0.0000000 -0.2500000
v -0.1000000 -0.0000000 -0.2500000
v -0.1000000 0.1000000 -0.2500000
v -0.1114150 0.1000000 -0.1925950
v -0.1114150 -0.0000000 -0.1925950
v -0.1114150 -0.0000000 -0.1925950
v -0.1114150 0.1000000 -0.1925950
v -0.1439350 0.1000000 -0.1439350
v -0.1439350 -0.0000000 -0.1439350
v -0.1439350 -0.0000000 -0.1439350
v -0.1439350 0.1000000 -0.1439350
v -0.1925950 0.1000000 -0.1114150
v -0.1925950 -0.0000000 -0.1114150
v -0.1925950 -0.0000000 -0.1114150
v -0.1925950 0.1000000 -0.1114150
v -0.2500000 0.1000000 -0.1000000
v -0.2500000 -0.0000000 -0.1000000
v -0.2500000 -0.0000000 -0.1000000
v -0.2500000 0.1000000 -0.1000000
v -0.3074050 0.1000000 -0.1114150
v -0.3074050 -0.0000000 -0.1114150
v -0.3074050 -0.0000000 -0.1114150
v -0.3074050 0.1000000 -0.1114150
v -0.3560650 0.1000000 -0.1439350
v -0.3560650 -0.0000000 -0.1439350
v -0.3560650 -0.0000000 -0.1439350
v -0.3560650 0.1000000 -0.1439350
v -0.3885850 0.1000000 -0.1925950
v -0.3885850 -0.0000000 -0.1925950
v -0.3885850 -0.0000000 -0.1925950
v -0.3885850 0.1000000 -0.1925950
v -0.4000000 0.1000000 -0.2500000
v -0.4000000 -0.0000000 -0.2500000
v -0.1925950 0.1000000 -0.3885850
v -0.2500000 0.1000000 -0.4000000
v -0.2500000 0.1000000 -0.2500000
v -0.1439350 0.1000000 -0.3560650
v -0.1925950 0.1000000 -0.3885850
v -0.2500000 0.1000000 -0.2500000
v -0.1114150 0.1000000 -0.3074050
v -0.1439350 0.1000000 -0.3560650
v -0.2500000 0.1000000 -0.2500000
v -0.1000000 0.1000000 -0.2500000
v -0.1114150 0.1000000 -0.3074050
v -0.2500000 0.1000000 -0.2500000
v -0.1114150 0.1000000 -0.1925950
v -0.1000000 0.1000000 -0.2500000
v -0.2500000 0.1000000 -0.2500000
v -0.1439350 0.1000000 -0.1439350
v -0.1114150 0.1000000 -0.1925950
v -0.2500000 0.1000000 -0.2500000
v -0.1925950 0.1000000 -0.1114150
v -0.1439350 0.1000000 -0.1439350
v -0.2500000 0.1000000 -0.2500000
v -0.2500000 0.1000000 -0.1000000
v -0.1925950 0.1000000 -0.1114150
v -0.2500000 0.1000000 -0.2500000
v -0.3074050 0.1000000 -0.1114150
v -0.2500000 0.1000000 -0.1000000
v -0.2500000 0.1000000 -0.2500000
v -0.3560650 0.1000000 -0.1439350
v -0.3074050 0.1000000 -0.1114150
v -0.2500000 0.1000000 -0.2500000
v -0.3885850 0.1000000 -0.1925950
v -0.3560650 0.1000000 -0.1439350
v -0.2500000 0.1000000 -0.2500000
v -0.4000000 0.1000000 -0.2500000
v -0.3885850 0.1000000 -0.1925950
v -0.2500000 0.1000000 -0.2500000
v -0.2500000 0.1000000 -0.2500000
v -0.3903625 0.1000000 -0.2984925
v -0.4000000 0.1000000 -0.2500000
v -0.2500000 0.1000000 -0.2500000
v -0.3535500 0.1000000 -0.3535500
v -0.3903625 0.1000000 -0.2984925
v -0.2500000 0.1000000 -0.2500000
v -0.2984925 0.1000000 -0.3903625
v -0.3535500 0.1000000 -0.3535500
v -0.2500000 0.1000000 -0.2500000
v -0.2500000 0.1000000 -0.4000000
v -0.2984925 0.1000000 -0.3903625
v -0.4000000 0.1000000 -0.2500000
v -0.3903625 0.1000000 -0.2984925
v -0.3903625 -0.0000000 -0.2984925
v -0.4000000 -0.0000000 -0.2500000
v -0.3903625 0.1000000 -0.2984925
v -0.3535500 0.1000000 -0.3535500
v -0.3535500 -0.0000000 -0.3535500
v -0.3903625 -0.0000000 -0.2984925
v -0.3535500 0.1000000 -0.3535500
v -0.2984925 0.1000000 -0.3903625
v -0.2984675 -0.0000000 -0.3903625
v -0.3535500 -0.0000000 -0.3535500
v -0.2984925 0.1000000 -0.3903625
v -0.2500000 0.1000000 -0.4000000
v -0.2500000 -0.0000000 -0.4000000
v -0.2984675 -0.0000000 -0.3903625
s off
f 1 2 3
f 1 3 4
f 5 6 7
f 5 7 8
f 9 10 11
f 9 11 12
f 13 14 15
f 13 15 16
f 17 18 19
f 20 21 22
f 20 22 23
f 24 25 26
f 24 26 27
f 28 29 30
f 31 32 33
f 31 33 34
f 35 36 37
f 35 37 38
f 39 40 41
f 39 41 42
f 43 44 45
f 43 45 46
f 47 48 49
f 47 49 50
f 51 52 53
f 54 55 56
f 57 58 59
f 57 59 60
f 61 62 63
f 61 63 64
f 65 66 67
f 65 67 68
f 69 70 71
f 69 71 72
f 73 74 75
f 73 75 76
f 77 78 79
f 80 81 82
f 80 82 83
f 84 85 86
f 84 86 87
f 88 89 90
f 91 92 93
f 91 93 94
f 95 96 97
f 95 97 98
f 99 100 101
f 99 101 102
f 103 104 105
f 103 105 106
f 107 108 109
f 107 109 110
f 111 112 113
f 114 115 116
f 117 118 119
f 117 119 120
f 121 122 123
f 121 123 124
f 125 126 127
f 125 127 128
f 129 130 131
f 129 131 132
f 133 134 135
f 133 135 136
f 137 138 139
f 140 141 142
f 140 142 143
f 144 145 146
f 144 146 147
f 148 149 150
f 151 152 153
f 151 153 154
f 155 156 157
f 155 157 158
f 159 160 161
f 159 161 162
f 163 164 165
f 163 165 166
f 167 168 169
f 167 169 170
f 171 172 173
f 174 175 176
f 177 178 179
f 177 179 180
f 181 182 183
f 181 183 184
f 185 186 187
f 185 187 188
f 189 190 191
f 189 191 192
f 193 194 195
f 193 195 196
f 197 198 199
f 200 201 202
f 200 202 203
f 204 205 206
f 204 206 207
f 208 209 210
f 211 212 213
f 211 213 214
f 215 216 217
f 215 217 218
f 219 220 221
f 219 221 222
f 223 224 225
f 223 225 226
f 227 228 229
f 227 229 230
f 231 232 233
f 234 235 236
f 237 238 239
f 237 239 240
f 241 242 243
f 241 243 244
f 245 246 247
f 245 247 248
f 249 250 251
f 249 251 252
f 253 254 255
f 253 255 256
f 257 258 259
f 257 259 260
f 261 262 263
f 261 263 264
f 265 266 267
f 265 267 268
f 269 270 271
f 269 271 272
f 273 274 275
f 273 275 276
f 277 278 279
f 277 279 280
f 281 282 283
f 281 283 284
f 285 286 287
f 285 287 288
f 289 290 291
f 289 291 292
f 293 294 295
f 293 295 296
f 297 298 299
f 297 299 300
f 301 302 303
f 301 303 304
f 305 306 307
f 305 307 308
f 309 310 311
f 309 311 312
f 313 314 315
f 313 315 316
f 317 318 319
f 317 319 320
f 321 322 323
f 321 323 324
f 325 326 327
f 325 327 328
f 329 330 331
f 329 331 332
f 333 334 335
f 333 335 336
f 337 338 339
f 337 339 340
f 341 342 343
f 341 343 344
f 345 346 347
f 345 347 348
f 349 350 351
f 349 351 352
f 353 354 355
f 353 355 356
f 357 358 359
f 357 359 360
f 361 362 363
f 361 363 364
f 365 366 367
f 365 367 368
f 369 370 371
f 369 371 372
f 373 374 375
f 373 375 376
f 377 378 379
f 377 379 380
f 381 382 383
f 381 383 384
f 385 386 387
f 385 387 388
f 389 390 391
f 389 391 392
f 393 394 395
f 393 395 396
f 397 398 399
f 397 399 400
f 401 402 403
f 401 403 404
f 405 406 407
f 405 407 408
f 409 410 411
f 409 411 412
f 413 414 415
f 413 415 416
f 417 418 419
f 417 419 420
f 421 422 423
f 421 423 424
f 425 426 427
f 425 427 428
f 429 430 431
f 429 431 432
f 433 434 435
f 436 437 438
f 439 440 441
f 442 443 444
f 445 446 447
f 448 449 450
f 451 452 453
f 454 455 456
f 457 458 459
f 460 461 462
f 463 464 465
f 466 467 468
f 469 470 471
f 472 473 474
f 475 476 477
f 478 479 480
f 481 482 483
f 481 483 484
f 485 486 487
f 485 487 488
f 489 490 491
f 489 491 492
f 493 494 495
f 493 495 496
f 497 498 499
f 497 499 500
f 501 502 503
f 501 503 504
f 505 506 507
f 505 507 508
f 509 510 511
f 509 511 512
f 513 514 515
f 513 515 516
f 517 518 519
f 517 519 520
f 521 522 523
f 521 523 524
f 525 526 527
f 525 527 528
f 529 530 531
f 529 531 532
f 533 534 535
f 533 535 536
f 537 538 539
f 537 539 540
f 541 542 543
f 541 543 544
f 545 546 547
f 545 547 548
f 549 550 551
f 549 551 552
f 553 554 555
f 553 555 556
f 557 558 559
f 557 559 560
f 561 562 563
f 561 563 564
f 565 566 567
f 565 567 568
f 569 570 571
f 569 571 572
f 573 574 575
f 573 575 576
f 577 578 579
f 580 581 582
f 583 584 585
f 586 587 588
f 589 590 591
f 592 593 594
f 592 594 595
f 596 597 598
f 596 598 599
f 600 601 602
f 603 604 605
f 603 605 606
f 607 608 609
f 607 609 610
f 611 612 613
f 611 613 614
f 615 616 617
f 618 619 620
f 618 620 621
f 622 623 624
f 625 626 627
f 625 627 628
f 629 630 631
f 629 631 632
f 633 634 635
f 636 637 638
f 639 640 641
f 642 643 644
f 645 646 647
f 648 649 650
f 648 650 651
f 652 653 654
f 652 654 655
f 656 657 658
f 659 660 661
f 659 661 662
f 663 664 665
f 663 665 666
f 667 668 669
f 667 669 670
f 671 672 673
f 674 675 676
f 674 676 677
f 678 679 680
f 681 682 683
f 681 683 684
f 685 686 687
f 685 687 688
f 689 690 691
f 692 693 694
f 695 696 697
f 698 699 700
f 701 702 703
f 704 705 706
f 707 708 709
f 710 711 712
f 713 714 715
f 716 717 718
f 719 720 721
f 722 723 724
f 725 726 727
f 728 729 730
f 731 732 733
f 734 735 736
f 737 738 739
f 737 739 740
f 741 742 743
f 741 743 744
f 745 746 747
f 745 747 748
f 749 750 751
f 749 751 752
f 753 754 755
f 753 755 756
f 757 758 759
f 757 759 760
f 761 762 763
f 761 763 764
f 765 766 767
f 765 767 768
f 769 770 771
f 769 771 772
f 773 774 775
f 773 775 776
f 777 778 779
f 777 779 780
f 781 782 783
f 781 783 784
f 785 786 787
f 788 789 790
f 791 792 793
f 794 795 796
f 797 798 799
f 800 801 802
f 803 804 805
f 806 807 808
f 809 810 811
f 812 813 814
f 815 816 817
f 818 819 820
f 821 822 823
f 824 825 826
f 827 828 829
f 830 831 832
f 833 834 835
f 833 835 836
f 837 838 839
f 837 839 840
f 841 842 843
f 841 843 844
f 845 846 847
f 845 847 848
f 849 850 851
f 849 851 852
f 853 854 855
f 853 855 856
f 857 858 859
f 857 859 860
f 861 862 863
f 861 863 864
f 865 866 867
f 865 867 868
f 869 870 871
f 869 871 872
f 873 874 875
f 873 875 876
f 877 878 879
f 877 879 880
f 881 882 883
f 881 883 884
f 885 886 887
f 885 887 888
f 889 890 891
f 889 891 892
f 893 894 895
f 893 895 896
f 897 898 899
f 900 901 902
f 903 904 905
f 906 907 908
f 909 910 911
f 912 913 914
f 915 916 917
f 918 919 920
f 921 922 923
f 924 925 926
f 927 928 929
f 930 931 932
f 933 934 935
f 936 937 938
f 939 940 941
f 942 943 944
f 945 946 947
f 945 947 948
f 949 950 951
f 949 951 952
f 953 954 955
f 953 955 956
f 957 958 959
f 957 959 960
f 961 962 963
f 961 963 964
f 965 966 967
f 965 967 968
f 969 970 971
f 969 971 972
f 973 974 975
f 973 975 976
f 977 978 979
f 977 979 980
f 981 982 983
f 981 983 984
f 985 986 987
f 985 987 988
f 989 990 991
f 989 991 992
f 993 994 995
f 993 995 996
f 997 998 999
f 997 999 1000
f 1001 1002 1003
f 1001 1003 1004
f 1005 1006 1007
f 1005 1007 1008
f 1009 1010 1011
f 1012 1013 1014
f 1015 1016 1017
f 1018 1019 1020
f 1021 1022 1023
f 1024 1025 1026
f 1027 1028 1029
f 1030 1031 1032
f 1033 1034 1035
f 1036 1037 1038
f 1039 1040 1041
f 1042 1043 1044
f 1045 1046 1047
f 1048 1049 1050
f 1051 1052 1053
f 1054 1055 1056
f 1057 1058 1059
f 1057 1059 1060
f 1061 1062 1063
f 1061 1063 1064
f 1065 1066 1067
f 1065 1067 1068
f 1069 1070 1071
f 1069 1071 1072
f 1073 1074 1075
f 1073 1075 1076
f 1077 1078 1079
f 1077 1079 1080
f 1081 1082 1083
f 1081 1083 1084
f 1085 1086 1087
f 1085 1087 1088
f 1089 1090 1091
f 1089 1091 1092
f 1093 1094 1095
f 1093 1095 1096
f 1097 1098 1099
f 1097 1099 1100
f 1101 1102 1103
f 1101 1103 1104
f 1105 1106 1107
f 1105 1107 1108
f 1109 1110 1111
f 1109 1111 1112
f 1113 1114 1115
f 1113 1115 1116
f 1117 1118 1119
f 1117 1119 1120
f 1121 1122 1123
f 1124 1125 1126
f 1127 1128 1129
f 1130 1131 1132
f 1133 1134 1135
f 1136 1137 1138
f 1139 1140 1141
f 1142 1143 1144
f 1145 1146 1147
f 1148 1149 1150
f 1151 1152 1153
f 1154 1155 1156
f 1157 1158 1159
f 1160 1161 1162
f 1163 1164 1165
f 1166 1167 1168
f 1169 1170 1171
f 1169 1171 1172
f 1173 1174 1175
f 1173 1175 1176
f 1177 1178 1179
f 1177 1179 1180
f 1181 1182 1183
f 1181 1183 1184
