# Baked from official LDraw part 40598a.dat
o ldraw_40598a
v 0.4000000 -0.2000000 0.0795600
v 0.3965600 -0.2000000 0.0522000
v 0.4000000 -0.2000000 0.0000000
v 0.3863600 -0.2000000 0.1035200
v 0.3965600 -0.2000000 0.0522000
v 0.4000000 -0.2000000 0.0795600
v 0.3695600 -0.2000000 0.1530800
v 0.3863600 -0.2000000 0.1035200
v 0.4000000 -0.2000000 0.0795600
v 0.3664225 -0.2000000 0.1594350
v 0.3695600 -0.2000000 0.1530800
v 0.4388375 -0.2000000 0.1817750
v 0.3885850 -0.2000000 0.1925950
v 0.3885850 -0.2000000 0.1925950
v 0.4388375 -0.2000000 0.1817750
v 0.3984563 -0.2000000 0.2422302
v 0.4000000 -0.2000000 0.0795600
v 0.4388375 -0.2000000 0.1817750
v 0.3695600 -0.2000000 0.1530800
v 0.4000000 -0.2000000 0.0000000
v 0.4388375 -0.2000000 0.1817750
v 0.4000000 -0.2000000 0.0795600
v 0.3965600 -0.0625000 0.0522000
v 0.4000000 -0.0625000 0.0000000
v 0.4000000 -0.2000000 0.0000000
v 0.3965600 -0.2000000 0.0522000
v 0.3863600 -0.0625000 0.1035200
v 0.3965600 -0.0625000 0.0522000
v 0.3965600 -0.2000000 0.0522000
v 0.3863600 -0.2000000 0.1035200
v 0.3695600 -0.0625000 0.1530800
v 0.3863600 -0.0625000 0.1035200
v 0.3863600 -0.2000000 0.1035200
v 0.3695600 -0.2000000 0.1530800
v 0.3664225 -0.2000000 0.1594350
v 0.3664225 -0.0625000 0.1594350
v 0.3695600 -0.0625000 0.1530800
v 0.3695600 -0.2000000 0.1530800
v 0.3885850 -0.2000000 0.1925950
v 0.3885850 -0.0625000 0.1925950
v 0.3664225 -0.0625000 0.1594350
v 0.3664225 -0.2000000 0.1594350
v 0.3885850 -0.0625000 0.1925950
v 0.3885850 -0.2000000 0.1925950
v 0.3984563 -0.2000000 0.2422302
v 0.3984563 -0.1750000 0.2422302
v 0.4000000 -0.1750000 0.2500000
v 0.4000000 -0.0625000 0.2500000
v 0.3885850 -0.0625000 0.1925950
v 0.3984563 -0.1750000 0.2422302
v 0.3962275 -0.1750000 0.2689775
v 0.3962275 -0.0625000 0.2689775
v 0.4000000 -0.0625000 0.2500000
v 0.4000000 -0.1750000 0.2500000
v 0.4045225 -0.0625000 0.2772725
v 0.3962275 -0.0625000 0.2689775
v 0.3962275 -0.1750000 0.2689775
v 0.4045225 -0.1750000 0.2772725
v 0.3984562 -0.2000000 0.2422302
v 0.4388387 -0.2000000 0.1817748
v 0.4388387 -0.1750000 0.1817748
v 0.3984562 -0.1750000 0.2422302
v 0.4000000 -0.1750000 0.2500000
v 0.3984563 -0.1750000 0.2422302
v 0.4388388 -0.1750000 0.1817748
v 0.4619350 -0.1750000 0.1913425
v 0.3962275 -0.1750000 0.2689775
v 0.4000000 -0.1750000 0.2500000
v 0.4619350 -0.1750000 0.1913425
v 0.4045225 -0.1750000 0.2772725
v 0.4045225 -0.0625000 0.2772725
v 0.4045225 -0.1750000 0.2772725
v 0.4619350 -0.1750000 0.1913425
v 0.4619525 -0.0000000 0.1913425
v 0.3535500 -0.0625000 0.3535500
v 0.4045225 -0.0625000 0.2772725
v 0.4619525 -0.0000000 0.1913425
v 0.3535500 -0.0000000 0.3535500
v 0.3885850 -0.0625000 0.1925950
v 0.4000000 -0.0625000 0.2500000
v 0.3962275 -0.0625000 0.2689775
v 0.3664225 -0.0625000 0.1594350
v 0.3535500 -0.0625000 0.3535500
v 0.2828400 -0.0625000 0.2828400
v 0.3962275 -0.0625000 0.2689775
v 0.4045225 -0.0625000 0.2772725
v 0.3535500 -0.0000000 0.3535500
v 0.4619500 -0.0000000 0.1913500
v 0.5000000 -0.0000000 0.0000000
v 0.3391200 -0.0000000 0.2266000
v 0.2828400 -0.0000000 0.2828400
v 0.3535500 -0.0000000 0.3535500
v 0.3695600 -0.0000000 0.1530800
v 0.3391200 -0.0000000 0.2266000
v 0.3535500 -0.0000000 0.3535500
v 0.4999950 -0.0000000 0.0000000
v 0.3695600 -0.0000000 0.1530800
v 0.3535500 -0.0000000 0.3535500
v 0.4000000 -0.0000000 0.0795600
v 0.3695600 -0.0000000 0.1530800
v 0.4999950 -0.0000000 0.0000000
v 0.4000000 -0.0000000 0.0000000
v 0.4000000 -0.0000000 0.0795600
v 0.4999950 -0.0000000 0.0000000
v 0.3965600 -0.0000000 0.0522000
v 0.4000000 -0.0000000 0.0795600
v 0.4000000 -0.0000000 0.0000000
v 0.3863600 -0.0000000 0.1035200
v 0.4000000 -0.0000000 0.0795600
v 0.3965600 -0.0000000 0.0522000
v 0.4000000 -0.0000000 0.0795600
v 0.3863600 -0.0000000 0.1035200
v 0.3695600 -0.0000000 0.1530800
v 0.3464000 -0.0000000 0.2000000
v 0.3391200 -0.0000000 0.2266000
v 0.3695600 -0.0000000 0.1530800
v 0.3173600 -0.0000000 0.2435200
v 0.3391200 -0.0000000 0.2266000
v 0.3464000 -0.0000000 0.2000000
v 0.3391200 -0.0000000 0.2266000
v 0.3173600 -0.0000000 0.2435200
v 0.2828400 -0.0000000 0.2828400
v 0.4000000 -0.2000000 0.0000000
v 0.3965600 -0.2000000 -0.0522000
v 0.4000000 -0.2000000 -0.0795600
v 0.4000000 -0.2000000 -0.0795600
v 0.3965600 -0.2000000 -0.0522000
v 0.3863600 -0.2000000 -0.1035200
v 0.4000000 -0.2000000 -0.0795600
v 0.3863600 -0.2000000 -0.1035200
v 0.3695600 -0.2000000 -0.1530800
v 0.3885850 -0.2000000 -0.1925950
v 0.4388375 -0.2000000 -0.1817750
v 0.3695600 -0.2000000 -0.1530800
v 0.3664225 -0.2000000 -0.1594350
v 0.3984563 -0.2000000 -0.2422302
v 0.4388375 -0.2000000 -0.1817750
v 0.3885850 -0.2000000 -0.1925950
v 0.3695600 -0.2000000 -0.1530800
v 0.4388375 -0.2000000 -0.1817750
v 0.4000000 -0.2000000 -0.0795600
v 0.4000000 -0.2000000 -0.0795600
v 0.4388375 -0.2000000 -0.1817750
v 0.4000000 -0.2000000 0.0000000
v 0.3965600 -0.2000000 -0.0522000
v 0.4000000 -0.2000000 0.0000000
v 0.4000000 -0.0625000 0.0000000
v 0.3965600 -0.0625000 -0.0522000
v 0.3863600 -0.2000000 -0.1035200
v 0.3965600 -0.2000000 -0.0522000
v 0.3965600 -0.0625000 -0.0522000
v 0.3863600 -0.0625000 -0.1035200
v 0.3695600 -0.2000000 -0.1530800
v 0.3863600 -0.2000000 -0.1035200
v 0.3863600 -0.0625000 -0.1035200
v 0.3695600 -0.0625000 -0.1530800
v 0.3695600 -0.2000000 -0.1530800
v 0.3695600 -0.0625000 -0.1530800
v 0.3664225 -0.0625000 -0.1594350
v 0.3664225 -0.2000000 -0.1594350
v 0.3664225 -0.2000000 -0.1594350
v 0.3664225 -0.0625000 -0.1594350
v 0.3885850 -0.0625000 -0.1925950
v 0.3885850 -0.2000000 -0.1925950
v 0.3984563 -0.1750000 -0.2422302
v 0.3984563 -0.2000000 -0.2422302
v 0.3885850 -0.2000000 -0.1925950
v 0.3885850 -0.0625000 -0.1925950
v 0.3984563 -0.1750000 -0.2422302
v 0.3885850 -0.0625000 -0.1925950
v 0.4000000 -0.0625000 -0.2500000
v 0.4000000 -0.1750000 -0.2500000
v 0.4000000 -0.1750000 -0.2500000
v 0.4000000 -0.0625000 -0.2500000
v 0.3962275 -0.0625000 -0.2689775
v 0.3962275 -0.1750000 -0.2689775
v 0.4045225 -0.1750000 -0.2772725
v 0.3962275 -0.1750000 -0.2689775
v 0.3962275 -0.0625000 -0.2689775
v 0.4045225 -0.0625000 -0.2772725
v 0.3984562 -0.1750000 -0.2422302
v 0.4388387 -0.1750000 -0.1817748
v 0.4388387 -0.2000000 -0.1817748
v 0.3984562 -0.2000000 -0.2422302
v 0.4619350 -0.1750000 -0.1913425
v 0.4388388 -0.1750000 -0.1817748
v 0.3984563 -0.1750000 -0.2422302
v 0.4000000 -0.1750000 -0.2500000
v 0.4045225 -0.1750000 -0.2772725
v 0.4619350 -0.1750000 -0.1913425
v 0.4000000 -0.1750000 -0.2500000
v 0.3962275 -0.1750000 -0.2689775
v 0.4619525 -0.0000000 -0.1913425
v 0.4619350 -0.1750000 -0.1913425
v 0.4045225 -0.1750000 -0.2772725
v 0.4045225 -0.0625000 -0.2772725
v 0.3535500 -0.0000000 -0.3535500
v 0.4619525 -0.0000000 -0.1913425
v 0.4045225 -0.0625000 -0.2772725
v 0.3535500 -0.0625000 -0.3535500
v 0.3664225 -0.0625000 -0.1594350
v 0.3962275 -0.0625000 -0.2689775
v 0.4000000 -0.0625000 -0.2500000
v 0.3885850 -0.0625000 -0.1925950
v 0.4045225 -0.0625000 -0.2772725
v 0.3962275 -0.0625000 -0.2689775
v 0.2828400 -0.0625000 -0.2828400
v 0.3535500 -0.0625000 -0.3535500
v 0.5000000 -0.0000000 0.0000000
v 0.4619500 -0.0000000 -0.1913500
v 0.3535500 -0.0000000 -0.3535500
v 0.3535500 -0.0000000 -0.3535500
v 0.2828400 -0.0000000 -0.2828400
v 0.3391200 -0.0000000 -0.2266000
v 0.3535500 -0.0000000 -0.3535500
v 0.3391200 -0.0000000 -0.2266000
v 0.3695600 -0.0000000 -0.1530800
v 0.3535500 -0.0000000 -0.3535500
v 0.3695600 -0.0000000 -0.1530800
v 0.4999950 -0.0000000 0.0000000
v 0.4999950 -0.0000000 0.0000000
v 0.3695600 -0.0000000 -0.1530800
v 0.4000000 -0.0000000 -0.0795600
v 0.4999950 -0.0000000 0.0000000
v 0.4000000 -0.0000000 -0.0795600
v 0.4000000 -0.0000000 0.0000000
v 0.4000000 -0.0000000 0.0000000
v 0.4000000 -0.0000000 -0.0795600
v 0.3965600 -0.0000000 -0.0522000
v 0.3965600 -0.0000000 -0.0522000
v 0.4000000 -0.0000000 -0.0795600
v 0.3863600 -0.0000000 -0.1035200
v 0.3695600 -0.0000000 -0.1530800
v 0.3863600 -0.0000000 -0.1035200
v 0.4000000 -0.0000000 -0.0795600
v 0.3695600 -0.0000000 -0.1530800
v 0.3391200 -0.0000000 -0.2266000
v 0.3464000 -0.0000000 -0.2000000
v 0.3464000 -0.0000000 -0.2000000
v 0.3391200 -0.0000000 -0.2266000
v 0.3173600 -0.0000000 -0.2435200
v 0.2828400 -0.0000000 -0.2828400
v 0.3173600 -0.0000000 -0.2435200
v 0.3391200 -0.0000000 -0.2266000
v 0.4388428 -0.2000000 -0.1817748
v 0.4750120 -0.2000000 0.0000034
v 0.4388386 -0.2000000 0.1817728
v 0.4388428 -0.2000000 -0.1817748
v 0.4388428 -0.1750000 -0.1817748
v 0.4750120 -0.1750000 0.0000034
v 0.4750120 -0.2000000 0.0000034
v 0.4750120 -0.2000000 0.0000034
v 0.4750120 -0.1750000 0.0000034
v 0.4388386 -0.1750000 0.1817728
v 0.4388386 -0.2000000 0.1817728
v 0.4619400 -0.1750000 -0.1913400
v 0.5000122 -0.1750000 0.0000054
v 0.4750116 -0.1750000 0.0000051
v 0.4388430 -0.1750000 -0.1817730
v 0.5000122 -0.1750000 0.0000054
v 0.4619343 -0.1750000 0.1913413
v 0.4388376 -0.1750000 0.1817742
v 0.4750116 -0.1750000 0.0000051
v 0.4619397 -0.1750000 -0.1913418
v 0.4619397 -0.0000000 -0.1913418
v 0.5000126 -0.0000000 0.0000037
v 0.5000126 -0.1750000 0.0000037
v 0.5000126 -0.1750000 0.0000037
v 0.5000126 -0.0000000 0.0000037
v 0.4619353 -0.0000000 0.1913398
v 0.4619353 -0.1750000 0.1913398
v 0.4388375 -0.2000000 -0.1817750
v 0.4388375 -0.2000000 0.1817750
v 0.4000000 -0.2000000 0.0000000
v 0.3965600 -0.0625000 0.0522000
v 0.3965600 -0.0125000 0.0522000
v 0.4000000 -0.0125000 0.0000000
v 0.4000000 -0.0625000 0.0000000
v 0.3863600 -0.0625000 0.1035200
v 0.3863600 -0.0125000 0.1035200
v 0.3965600 -0.0125000 0.0522000
v 0.3965600 -0.0625000 0.0522000
v 0.3695600 -0.0625000 0.1530800
v 0.3695600 -0.0125000 0.1530800
v 0.3863600 -0.0125000 0.1035200
v 0.3863600 -0.0625000 0.1035200
v 0.3464000 -0.0625000 0.2000000
v 0.3464000 -0.0125000 0.2000000
v 0.3695600 -0.0125000 0.1530800
v 0.3695600 -0.0625000 0.1530800
v 0.3173600 -0.0625000 0.2435200
v 0.3173600 -0.0125000 0.2435200
v 0.3464000 -0.0125000 0.2000000
v 0.3464000 -0.0625000 0.2000000
v 0.2828400 -0.0625000 0.2828400
v 0.2828400 -0.0125000 0.2828400
v 0.3173600 -0.0125000 0.2435200
v 0.3173600 -0.0625000 0.2435200
v 0.4000000 -0.0125000 0.0000000
v 0.3965600 -0.0125000 -0.0522000
v 0.3965600 -0.0625000 -0.0522000
v 0.4000000 -0.0625000 0.0000000
v 0.3965600 -0.0125000 -0.0522000
v 0.3863600 -0.0125000 -0.1035200
v 0.3863600 -0.0625000 -0.1035200
v 0.3965600 -0.0625000 -0.0522000
v 0.1922725 -0.1875000 0.0388650
v 0.3863600 -0.1875000 0.1035200
v 0.3779600 -0.1875000 0.1283000
v 0.1873525 -0.1875000 0.0635975
v 0.3779600 -0.1875000 0.1283000
v 0.3779600 -0.1250000 0.1283000
v 0.1873525 -0.1250000 0.0635975
v 0.1873525 -0.1875000 0.0635975
v 0.3779603 -0.1250000 0.1282993
v 0.3863600 -0.1250000 0.1035200
v 0.2880475 -0.1250000 0.0775750
v 0.3779603 -0.1250000 0.1282993
v 0.2880475 -0.1250000 0.0775750
v 0.1873525 -0.1250000 0.0635975
v 0.1873525 -0.1250000 0.0635975
v 0.2880475 -0.1250000 0.0775750
v 0.1897325 -0.1250000 0.0516300
v 0.2957131 -0.0943944 0.0390075
v 0.4000000 -0.0625000 0.0000000
v 0.3000000 -0.0625388 0.0000000
v 0.1948663 -0.0937888 0.0258150
v 0.3000000 -0.0625388 0.0000000
v 0.2000000 -0.0625775 0.0000000
v 0.2880475 -0.1250000 0.0775750
v 0.3863600 -0.1250000 0.1035200
v 0.3965600 -0.0950000 0.0522000
v 0.1897325 -0.1250000 0.0516300
v 0.2957131 -0.0943944 0.0390075
v 0.1948663 -0.0937888 0.0258150
v 0.2957131 -0.0943944 0.0390075
v 0.1897325 -0.1250000 0.0516300
v 0.2880475 -0.1250000 0.0775750
v 0.3965600 -0.0950000 0.0522000
v 0.2957131 -0.0943944 0.0390075
v 0.2880475 -0.1250000 0.0775750
v 0.3000000 -0.0625388 0.0000000
v 0.1948663 -0.0937888 0.0258150
v 0.2957131 -0.0943944 0.0390075
v 0.4000000 -0.0625000 0.0000000
v 0.2957131 -0.0943944 0.0390075
v 0.3965600 -0.0950000 0.0522000
v 0.3914750 -0.0125000 -0.0778700
v 0.2919325 -0.0125000 -0.0580700
v 0.2944750 -0.0206250 -0.0452350
v 0.3965600 -0.0287500 -0.0522000
v 0.2944750 -0.0206250 -0.0452350
v 0.2919325 -0.0125000 -0.0580700
v 0.1923900 -0.0125000 -0.0382700
v 0.2944750 -0.0206250 -0.0452350
v 0.1923900 -0.0125000 -0.0382700
v 0.2000000 -0.0625775 0.0000000
v 0.3965600 -0.0287500 -0.0522000
v 0.2944750 -0.0206250 -0.0452350
v 0.3000000 -0.0625388 0.0000000
v 0.3000000 -0.0625388 0.0000000
v 0.4000000 -0.0625000 0.0000000
v 0.3965600 -0.0287500 -0.0522000
v 0.2000000 -0.0625775 0.0000000
v 0.3000000 -0.0625388 0.0000000
v 0.2944750 -0.0206250 -0.0452350
v 0.1961375 -0.1575000 0.0194325
v 0.2000000 -0.1325000 0.0000000
v 0.3965600 -0.1529850 0.0522000
v 0.3863600 -0.1875000 0.1035200
v 0.1922725 -0.1875000 0.0388650
v 0.1961375 -0.1575000 0.0194325
v 0.3965600 -0.1529850 0.0522000
v 0.3863600 -0.1875000 0.1035200
v 0.1961375 -0.1575000 0.0194325
v 0.2000000 -0.1325000 0.0000000
v 0.1937575 -0.0900000 -0.0313950
v 0.4000000 -0.1237350 0.0000000
v 0.4000000 -0.1237350 0.0000000
v 0.3965600 -0.1529850 0.0522000
v 0.2000000 -0.1325000 0.0000000
v 0.1937575 -0.0900000 -0.0313950
v 0.3965600 -0.0936600 -0.0522000
v 0.4000000 -0.1237350 0.0000000
v 0.1937575 -0.0900000 -0.0313950
v 0.1875125 -0.0625000 -0.0627900
v 0.3863600 -0.0625000 -0.1035200
v 0.3863600 -0.0625000 -0.1035200
v 0.3965600 -0.0936600 -0.0522000
v 0.1937575 -0.0900000 -0.0313950
v 0.1875125 -0.0625000 -0.0627900
v 0.3664225 -0.0625000 -0.1594350
v 0.3695600 -0.0625000 -0.1530800
v 0.3863600 -0.0625000 -0.1035200
v 0.1487500 -0.0625000 -0.1304500
v 0.3000925 -0.0625000 -0.2631750
v 0.3664225 -0.0625000 -0.1594350
v 0.1875125 -0.0625000 -0.0627900
v 0.3664225 -0.0625000 -0.1594350
v 0.3000925 -0.0625000 -0.2631750
v 0.3962275 -0.0625000 -0.2689775
v 0.3000925 -0.0625000 -0.2631750
v 0.2828400 -0.0625000 -0.2828400
v 0.3962275 -0.0625000 -0.2689775
v 0.1487500 -0.0125000 -0.1304500
v 0.3000925 -0.0125000 -0.2631750
v 0.3000925 -0.0625000 -0.2631750
v 0.1487500 -0.0625000 -0.1304500
v 0.3000925 -0.0625000 -0.2631750
v 0.3000925 -0.0125000 -0.2631750
v 0.2828400 -0.0125000 -0.2828400
v 0.2828400 -0.0625000 -0.2828400
v 0.3695600 -0.0125000 -0.1530800
v 0.2919325 -0.0125000 -0.0580700
v 0.3914750 -0.0125000 -0.0778700
v 0.3863600 -0.0125000 -0.1035200
v 0.3695600 -0.0125000 -0.1530800
v 0.1923900 -0.0125000 -0.0382700
v 0.2919325 -0.0125000 -0.0580700
v 0.3464000 -0.0125000 -0.2000000
v 0.1487500 -0.0125000 -0.1304500
v 0.1923900 -0.0125000 -0.0382700
v 0.3695600 -0.0125000 -0.1530800
v 0.3173600 -0.0125000 -0.2435200
v 0.3000925 -0.0125000 -0.2631750
v 0.1487500 -0.0125000 -0.1304500
v 0.3464000 -0.0125000 -0.2000000
v 0.3962275 -0.0625000 0.2689775
v 0.3464000 -0.0625000 0.2000000
v 0.3664225 -0.0625000 0.1594350
v 0.3962275 -0.0625000 0.2689775
v 0.3173600 -0.0625000 0.2435200
v 0.3464000 -0.0625000 0.2000000
v 0.3173600 -0.0625000 0.2435200
v 0.3962275 -0.0625000 0.2689775
v 0.2828400 -0.0625000 0.2828400
v -0.0795600 -0.2000000 0.4000000
v -0.0522000 -0.2000000 0.3965600
v 0.0000000 -0.2000000 0.4000000
v -0.1035200 -0.2000000 0.3863600
v -0.0522000 -0.2000000 0.3965600
v -0.0795600 -0.2000000 0.4000000
v -0.1530800 -0.2000000 0.3695600
v -0.1035200 -0.2000000 0.3863600
v -0.0795600 -0.2000000 0.4000000
v -0.1594350 -0.2000000 0.3664225
v -0.1530800 -0.2000000 0.3695600
v -0.1817750 -0.2000000 0.4388375
v -0.1925950 -0.2000000 0.3885850
v -0.1925950 -0.2000000 0.3885850
v -0.1817750 -0.2000000 0.4388375
v -0.2422302 -0.2000000 0.3984563
v -0.0795600 -0.2000000 0.4000000
v -0.1817750 -0.2000000 0.4388375
v -0.1530800 -0.2000000 0.3695600
v 0.0000000 -0.2000000 0.4000000
v -0.1817750 -0.2000000 0.4388375
v -0.0795600 -0.2000000 0.4000000
v -0.0522000 -0.0625000 0.3965600
v 0.0000000 -0.0625000 0.4000000
v 0.0000000 -0.2000000 0.4000000
v -0.0522000 -0.2000000 0.3965600
v -0.1035200 -0.0625000 0.3863600
v -0.0522000 -0.0625000 0.3965600
v -0.0522000 -0.2000000 0.3965600
v -0.1035200 -0.2000000 0.3863600
v -0.1530800 -0.0625000 0.3695600
v -0.1035200 -0.0625000 0.3863600
v -0.1035200 -0.2000000 0.3863600
v -0.1530800 -0.2000000 0.3695600
v -0.1594350 -0.2000000 0.3664225
v -0.1594350 -0.0625000 0.3664225
v -0.1530800 -0.0625000 0.3695600
v -0.1530800 -0.2000000 0.3695600
v -0.1925950 -0.2000000 0.3885850
v -0.1925950 -0.0625000 0.3885850
v -0.1594350 -0.0625000 0.3664225
v -0.1594350 -0.2000000 0.3664225
v -0.1925950 -0.0625000 0.3885850
v -0.1925950 -0.2000000 0.3885850
v -0.2422302 -0.2000000 0.3984563
v -0.2422302 -0.1750000 0.3984563
v -0.2500000 -0.1750000 0.4000000
v -0.2500000 -0.0625000 0.4000000
v -0.1925950 -0.0625000 0.3885850
v -0.2422302 -0.1750000 0.3984563
v -0.2689775 -0.1750000 0.3962275
v -0.2689775 -0.0625000 0.3962275
v -0.2500000 -0.0625000 0.4000000
v -0.2500000 -0.1750000 0.4000000
v -0.2772725 -0.0625000 0.4045225
v -0.2689775 -0.0625000 0.3962275
v -0.2689775 -0.1750000 0.3962275
v -0.2772725 -0.1750000 0.4045225
v -0.2422302 -0.2000000 0.3984562
v -0.1817748 -0.2000000 0.4388387
v -0.1817748 -0.1750000 0.4388387
v -0.2422302 -0.1750000 0.3984562
v -0.2500000 -0.1750000 0.4000000
v -0.2422302 -0.1750000 0.3984563
v -0.1817748 -0.1750000 0.4388388
v -0.1913425 -0.1750000 0.4619350
v -0.2689775 -0.1750000 0.3962275
v -0.2500000 -0.1750000 0.4000000
v -0.1913425 -0.1750000 0.4619350
v -0.2772725 -0.1750000 0.4045225
v -0.2772725 -0.0625000 0.4045225
v -0.2772725 -0.1750000 0.4045225
v -0.1913425 -0.1750000 0.4619350
v -0.1913425 -0.0000000 0.4619525
v -0.3535500 -0.0625000 0.3535500
v -0.2772725 -0.0625000 0.4045225
v -0.1913425 -0.0000000 0.4619525
v -0.3535500 -0.0000000 0.3535500
v -0.1925950 -0.0625000 0.3885850
v -0.2500000 -0.0625000 0.4000000
v -0.2689775 -0.0625000 0.3962275
v -0.1594350 -0.0625000 0.3664225
v -0.3535500 -0.0625000 0.3535500
v -0.2828400 -0.0625000 0.2828400
v -0.2689775 -0.0625000 0.3962275
v -0.2772725 -0.0625000 0.4045225
v -0.3535500 -0.0000000 0.3535500
v -0.1913500 -0.0000000 0.4619500
v 0.0000000 -0.0000000 0.5000000
v -0.2266000 -0.0000000 0.3391200
v -0.2828400 -0.0000000 0.2828400
v -0.3535500 -0.0000000 0.3535500
v -0.1530800 -0.0000000 0.3695600
v -0.2266000 -0.0000000 0.3391200
v -0.3535500 -0.0000000 0.3535500
v 0.0000000 -0.0000000 0.4999950
v -0.1530800 -0.0000000 0.3695600
v -0.3535500 -0.0000000 0.3535500
v -0.0795600 -0.0000000 0.4000000
v -0.1530800 -0.0000000 0.3695600
v 0.0000000 -0.0000000 0.4999950
v 0.0000000 -0.0000000 0.4000000
v -0.0795600 -0.0000000 0.4000000
v 0.0000000 -0.0000000 0.4999950
v -0.0522000 -0.0000000 0.3965600
v -0.0795600 -0.0000000 0.4000000
v 0.0000000 -0.0000000 0.4000000
v -0.1035200 -0.0000000 0.3863600
v -0.0795600 -0.0000000 0.4000000
v -0.0522000 -0.0000000 0.3965600
v -0.0795600 -0.0000000 0.4000000
v -0.1035200 -0.0000000 0.3863600
v -0.1530800 -0.0000000 0.3695600
v -0.2000000 -0.0000000 0.3464000
v -0.2266000 -0.0000000 0.3391200
v -0.1530800 -0.0000000 0.3695600
v -0.2435200 -0.0000000 0.3173600
v -0.2266000 -0.0000000 0.3391200
v -0.2000000 -0.0000000 0.3464000
v -0.2266000 -0.0000000 0.3391200
v -0.2435200 -0.0000000 0.3173600
v -0.2828400 -0.0000000 0.2828400
v 0.0000000 -0.2000000 0.4000000
v 0.0522000 -0.2000000 0.3965600
v 0.0795600 -0.2000000 0.4000000
v 0.0795600 -0.2000000 0.4000000
v 0.0522000 -0.2000000 0.3965600
v 0.1035200 -0.2000000 0.3863600
v 0.0795600 -0.2000000 0.4000000
v 0.1035200 -0.2000000 0.3863600
v 0.1530800 -0.2000000 0.3695600
v 0.1925950 -0.2000000 0.3885850
v 0.1817750 -0.2000000 0.4388375
v 0.1530800 -0.2000000 0.3695600
v 0.1594350 -0.2000000 0.3664225
v 0.2422302 -0.2000000 0.3984563
v 0.1817750 -0.2000000 0.4388375
v 0.1925950 -0.2000000 0.3885850
v 0.1530800 -0.2000000 0.3695600
v 0.1817750 -0.2000000 0.4388375
v 0.0795600 -0.2000000 0.4000000
v 0.0795600 -0.2000000 0.4000000
v 0.1817750 -0.2000000 0.4388375
v 0.0000000 -0.2000000 0.4000000
v 0.0522000 -0.2000000 0.3965600
v 0.0000000 -0.2000000 0.4000000
v 0.0000000 -0.0625000 0.4000000
v 0.0522000 -0.0625000 0.3965600
v 0.1035200 -0.2000000 0.3863600
v 0.0522000 -0.2000000 0.3965600
v 0.0522000 -0.0625000 0.3965600
v 0.1035200 -0.0625000 0.3863600
v 0.1530800 -0.2000000 0.3695600
v 0.1035200 -0.2000000 0.3863600
v 0.1035200 -0.0625000 0.3863600
v 0.1530800 -0.0625000 0.3695600
v 0.1530800 -0.2000000 0.3695600
v 0.1530800 -0.0625000 0.3695600
v 0.1594350 -0.0625000 0.3664225
v 0.1594350 -0.2000000 0.3664225
v 0.1594350 -0.2000000 0.3664225
v 0.1594350 -0.0625000 0.3664225
v 0.1925950 -0.0625000 0.3885850
v 0.1925950 -0.2000000 0.3885850
v 0.2422302 -0.1750000 0.3984563
v 0.2422302 -0.2000000 0.3984563
v 0.1925950 -0.2000000 0.3885850
v 0.1925950 -0.0625000 0.3885850
v 0.2422302 -0.1750000 0.3984563
v 0.1925950 -0.0625000 0.3885850
v 0.2500000 -0.0625000 0.4000000
v 0.2500000 -0.1750000 0.4000000
v 0.2500000 -0.1750000 0.4000000
v 0.2500000 -0.0625000 0.4000000
v 0.2689775 -0.0625000 0.3962275
v 0.2689775 -0.1750000 0.3962275
v 0.2772725 -0.1750000 0.4045225
v 0.2689775 -0.1750000 0.3962275
v 0.2689775 -0.0625000 0.3962275
v 0.2772725 -0.0625000 0.4045225
v 0.2422302 -0.1750000 0.3984562
v 0.1817748 -0.1750000 0.4388387
v 0.1817748 -0.2000000 0.4388387
v 0.2422302 -0.2000000 0.3984562
v 0.1913425 -0.1750000 0.4619350
v 0.1817748 -0.1750000 0.4388388
v 0.2422302 -0.1750000 0.3984563
v 0.2500000 -0.1750000 0.4000000
v 0.2772725 -0.1750000 0.4045225
v 0.1913425 -0.1750000 0.4619350
v 0.2500000 -0.1750000 0.4000000
v 0.2689775 -0.1750000 0.3962275
v 0.1913425 -0.0000000 0.4619525
v 0.1913425 -0.1750000 0.4619350
v 0.2772725 -0.1750000 0.4045225
v 0.2772725 -0.0625000 0.4045225
v 0.3535500 -0.0000000 0.3535500
v 0.1913425 -0.0000000 0.4619525
v 0.2772725 -0.0625000 0.4045225
v 0.3535500 -0.0625000 0.3535500
v 0.1594350 -0.0625000 0.3664225
v 0.2689775 -0.0625000 0.3962275
v 0.2500000 -0.0625000 0.4000000
v 0.1925950 -0.0625000 0.3885850
v 0.2772725 -0.0625000 0.4045225
v 0.2689775 -0.0625000 0.3962275
v 0.2828400 -0.0625000 0.2828400
v 0.3535500 -0.0625000 0.3535500
v 0.0000000 -0.0000000 0.5000000
v 0.1913500 -0.0000000 0.4619500
v 0.3535500 -0.0000000 0.3535500
v 0.3535500 -0.0000000 0.3535500
v 0.2828400 -0.0000000 0.2828400
v 0.2266000 -0.0000000 0.3391200
v 0.3535500 -0.0000000 0.3535500
v 0.2266000 -0.0000000 0.3391200
v 0.1530800 -0.0000000 0.3695600
v 0.3535500 -0.0000000 0.3535500
v 0.1530800 -0.0000000 0.3695600
v 0.0000000 -0.0000000 0.4999950
v 0.0000000 -0.0000000 0.4999950
v 0.1530800 -0.0000000 0.3695600
v 0.0795600 -0.0000000 0.4000000
v 0.0000000 -0.0000000 0.4999950
v 0.0795600 -0.0000000 0.4000000
v 0.0000000 -0.0000000 0.4000000
v 0.0000000 -0.0000000 0.4000000
v 0.0795600 -0.0000000 0.4000000
v 0.0522000 -0.0000000 0.3965600
v 0.0522000 -0.0000000 0.3965600
v 0.0795600 -0.0000000 0.4000000
v 0.1035200 -0.0000000 0.3863600
v 0.1530800 -0.0000000 0.3695600
v 0.1035200 -0.0000000 0.3863600
v 0.0795600 -0.0000000 0.4000000
v 0.1530800 -0.0000000 0.3695600
v 0.2266000 -0.0000000 0.3391200
v 0.2000000 -0.0000000 0.3464000
v 0.2000000 -0.0000000 0.3464000
v 0.2266000 -0.0000000 0.3391200
v 0.2435200 -0.0000000 0.3173600
v 0.2828400 -0.0000000 0.2828400
v 0.2435200 -0.0000000 0.3173600
v 0.2266000 -0.0000000 0.3391200
v 0.1817748 -0.2000000 0.4388428
v -0.0000034 -0.2000000 0.4750120
v -0.1817728 -0.2000000 0.4388386
v 0.1817748 -0.2000000 0.4388428
v 0.1817748 -0.1750000 0.4388428
v -0.0000034 -0.1750000 0.4750120
v -0.0000034 -0.2000000 0.4750120
v -0.0000034 -0.2000000 0.4750120
v -0.0000034 -0.1750000 0.4750120
v -0.1817728 -0.1750000 0.4388386
v -0.1817728 -0.2000000 0.4388386
v 0.1913400 -0.1750000 0.4619400
v -0.0000054 -0.1750000 0.5000122
v -0.0000051 -0.1750000 0.4750116
v 0.1817730 -0.1750000 0.4388430
v -0.0000054 -0.1750000 0.5000122
v -0.1913413 -0.1750000 0.4619343
v -0.1817742 -0.1750000 0.4388376
v -0.0000051 -0.1750000 0.4750116
v 0.1913418 -0.1750000 0.4619397
v 0.1913418 -0.0000000 0.4619397
v -0.0000037 -0.0000000 0.5000126
v -0.0000037 -0.1750000 0.5000126
v -0.0000037 -0.1750000 0.5000126
v -0.0000037 -0.0000000 0.5000126
v -0.1913398 -0.0000000 0.4619353
v -0.1913398 -0.1750000 0.4619353
v 0.1817750 -0.2000000 0.4388375
v -0.1817750 -0.2000000 0.4388375
v 0.0000000 -0.2000000 0.4000000
v -0.0522000 -0.0625000 0.3965600
v -0.0522000 -0.0125000 0.3965600
v 0.0000000 -0.0125000 0.4000000
v 0.0000000 -0.0625000 0.4000000
v -0.1035200 -0.0625000 0.3863600
v -0.1035200 -0.0125000 0.3863600
v -0.0522000 -0.0125000 0.3965600
v -0.0522000 -0.0625000 0.3965600
v -0.1530800 -0.0625000 0.3695600
v -0.1530800 -0.0125000 0.3695600
v -0.1035200 -0.0125000 0.3863600
v -0.1035200 -0.0625000 0.3863600
v -0.2000000 -0.0625000 0.3464000
v -0.2000000 -0.0125000 0.3464000
v -0.1530800 -0.0125000 0.3695600
v -0.1530800 -0.0625000 0.3695600
v -0.2435200 -0.0625000 0.3173600
v -0.2435200 -0.0125000 0.3173600
v -0.2000000 -0.0125000 0.3464000
v -0.2000000 -0.0625000 0.3464000
v -0.2828400 -0.0625000 0.2828400
v -0.2828400 -0.0125000 0.2828400
v -0.2435200 -0.0125000 0.3173600
v -0.2435200 -0.0625000 0.3173600
v 0.0000000 -0.0125000 0.4000000
v 0.0522000 -0.0125000 0.3965600
v 0.0522000 -0.0625000 0.3965600
v 0.0000000 -0.0625000 0.4000000
v 0.0522000 -0.0125000 0.3965600
v 0.1035200 -0.0125000 0.3863600
v 0.1035200 -0.0625000 0.3863600
v 0.0522000 -0.0625000 0.3965600
v -0.0388650 -0.1875000 0.1922725
v -0.1035200 -0.1875000 0.3863600
v -0.1283000 -0.1875000 0.3779600
v -0.0635975 -0.1875000 0.1873525
v -0.1283000 -0.1875000 0.3779600
v -0.1283000 -0.1250000 0.3779600
v -0.0635975 -0.1250000 0.1873525
v -0.0635975 -0.1875000 0.1873525
v -0.1282993 -0.1250000 0.3779603
v -0.1035200 -0.1250000 0.3863600
v -0.0775750 -0.1250000 0.2880475
v -0.1282993 -0.1250000 0.3779603
v -0.0775750 -0.1250000 0.2880475
v -0.0635975 -0.1250000 0.1873525
v -0.0635975 -0.1250000 0.1873525
v -0.0775750 -0.1250000 0.2880475
v -0.0516300 -0.1250000 0.1897325
v -0.0390075 -0.0943944 0.2957131
v 0.0000000 -0.0625000 0.4000000
v 0.0000000 -0.0625388 0.3000000
v -0.0258150 -0.0937888 0.1948663
v 0.0000000 -0.0625388 0.3000000
v 0.0000000 -0.0625775 0.2000000
v -0.0775750 -0.1250000 0.2880475
v -0.1035200 -0.1250000 0.3863600
v -0.0522000 -0.0950000 0.3965600
v -0.0516300 -0.1250000 0.1897325
v -0.0390075 -0.0943944 0.2957131
v -0.0258150 -0.0937888 0.1948663
v -0.0390075 -0.0943944 0.2957131
v -0.0516300 -0.1250000 0.1897325
v -0.0775750 -0.1250000 0.2880475
v -0.0522000 -0.0950000 0.3965600
v -0.0390075 -0.0943944 0.2957131
v -0.0775750 -0.1250000 0.2880475
v 0.0000000 -0.0625388 0.3000000
v -0.0258150 -0.0937888 0.1948663
v -0.0390075 -0.0943944 0.2957131
v 0.0000000 -0.0625000 0.4000000
v -0.0390075 -0.0943944 0.2957131
v -0.0522000 -0.0950000 0.3965600
v 0.0778700 -0.0125000 0.3914750
v 0.0580700 -0.0125000 0.2919325
v 0.0452350 -0.0206250 0.2944750
v 0.0522000 -0.0287500 0.3965600
v 0.0452350 -0.0206250 0.2944750
v 0.0580700 -0.0125000 0.2919325
v 0.0382700 -0.0125000 0.1923900
v 0.0452350 -0.0206250 0.2944750
v 0.0382700 -0.0125000 0.1923900
v 0.0000000 -0.0625775 0.2000000
v 0.0522000 -0.0287500 0.3965600
v 0.0452350 -0.0206250 0.2944750
v 0.0000000 -0.0625388 0.3000000
v 0.0000000 -0.0625388 0.3000000
v 0.0000000 -0.0625000 0.4000000
v 0.0522000 -0.0287500 0.3965600
v 0.0000000 -0.0625775 0.2000000
v 0.0000000 -0.0625388 0.3000000
v 0.0452350 -0.0206250 0.2944750
v -0.0194325 -0.1575000 0.1961375
v 0.0000000 -0.1325000 0.2000000
v -0.0522000 -0.1529850 0.3965600
v -0.1035200 -0.1875000 0.3863600
v -0.0388650 -0.1875000 0.1922725
v -0.0194325 -0.1575000 0.1961375
v -0.0522000 -0.1529850 0.3965600
v -0.1035200 -0.1875000 0.3863600
v -0.0194325 -0.1575000 0.1961375
v 0.0000000 -0.1325000 0.2000000
v 0.0313950 -0.0900000 0.1937575
v 0.0000000 -0.1237350 0.4000000
v 0.0000000 -0.1237350 0.4000000
v -0.0522000 -0.1529850 0.3965600
v 0.0000000 -0.1325000 0.2000000
v 0.0313950 -0.0900000 0.1937575
v 0.0522000 -0.0936600 0.3965600
v 0.0000000 -0.1237350 0.4000000
v 0.0313950 -0.0900000 0.1937575
v 0.0627900 -0.0625000 0.1875125
v 0.1035200 -0.0625000 0.3863600
v 0.1035200 -0.0625000 0.3863600
v 0.0522000 -0.0936600 0.3965600
v 0.0313950 -0.0900000 0.1937575
v 0.0627900 -0.0625000 0.1875125
v 0.1594350 -0.0625000 0.3664225
v 0.1530800 -0.0625000 0.3695600
v 0.1035200 -0.0625000 0.3863600
v 0.1304500 -0.0625000 0.1487500
v 0.2631750 -0.0625000 0.3000925
v 0.1594350 -0.0625000 0.3664225
v 0.0627900 -0.0625000 0.1875125
v 0.1594350 -0.0625000 0.3664225
v 0.2631750 -0.0625000 0.3000925
v 0.2689775 -0.0625000 0.3962275
v 0.2631750 -0.0625000 0.3000925
v 0.2828400 -0.0625000 0.2828400
v 0.2689775 -0.0625000 0.3962275
v 0.1304500 -0.0125000 0.1487500
v 0.2631750 -0.0125000 0.3000925
v 0.2631750 -0.0625000 0.3000925
v 0.1304500 -0.0625000 0.1487500
v 0.2631750 -0.0625000 0.3000925
v 0.2631750 -0.0125000 0.3000925
v 0.2828400 -0.0125000 0.2828400
v 0.2828400 -0.0625000 0.2828400
v 0.1530800 -0.0125000 0.3695600
v 0.0580700 -0.0125000 0.2919325
v 0.0778700 -0.0125000 0.3914750
v 0.1035200 -0.0125000 0.3863600
v 0.1530800 -0.0125000 0.3695600
v 0.0382700 -0.0125000 0.1923900
v 0.0580700 -0.0125000 0.2919325
v 0.2000000 -0.0125000 0.3464000
v 0.1304500 -0.0125000 0.1487500
v 0.0382700 -0.0125000 0.1923900
v 0.1530800 -0.0125000 0.3695600
v 0.2435200 -0.0125000 0.3173600
v 0.2631750 -0.0125000 0.3000925
v 0.1304500 -0.0125000 0.1487500
v 0.2000000 -0.0125000 0.3464000
v -0.2689775 -0.0625000 0.3962275
v -0.2000000 -0.0625000 0.3464000
v -0.1594350 -0.0625000 0.3664225
v -0.2689775 -0.0625000 0.3962275
v -0.2435200 -0.0625000 0.3173600
v -0.2000000 -0.0625000 0.3464000
v -0.2435200 -0.0625000 0.3173600
v -0.2689775 -0.0625000 0.3962275
v -0.2828400 -0.0625000 0.2828400
v -0.4000000 -0.2000000 -0.0795600
v -0.3965600 -0.2000000 -0.0522000
v -0.4000000 -0.2000000 0.0000000
v -0.3863600 -0.2000000 -0.1035200
v -0.3965600 -0.2000000 -0.0522000
v -0.4000000 -0.2000000 -0.0795600
v -0.3695600 -0.2000000 -0.1530800
v -0.3863600 -0.2000000 -0.1035200
v -0.4000000 -0.2000000 -0.0795600
v -0.3664225 -0.2000000 -0.1594350
v -0.3695600 -0.2000000 -0.1530800
v -0.4388375 -0.2000000 -0.1817750
v -0.3885850 -0.2000000 -0.1925950
v -0.3885850 -0.2000000 -0.1925950
v -0.4388375 -0.2000000 -0.1817750
v -0.3984563 -0.2000000 -0.2422302
v -0.4000000 -0.2000000 -0.0795600
v -0.4388375 -0.2000000 -0.1817750
v -0.3695600 -0.2000000 -0.1530800
v -0.4000000 -0.2000000 0.0000000
v -0.4388375 -0.2000000 -0.1817750
v -0.4000000 -0.2000000 -0.0795600
v -0.3965600 -0.0625000 -0.0522000
v -0.4000000 -0.0625000 0.0000000
v -0.4000000 -0.2000000 0.0000000
v -0.3965600 -0.2000000 -0.0522000
v -0.3863600 -0.0625000 -0.1035200
v -0.3965600 -0.0625000 -0.0522000
v -0.3965600 -0.2000000 -0.0522000
v -0.3863600 -0.2000000 -0.1035200
v -0.3695600 -0.0625000 -0.1530800
v -0.3863600 -0.0625000 -0.1035200
v -0.3863600 -0.2000000 -0.1035200
v -0.3695600 -0.2000000 -0.1530800
v -0.3664225 -0.2000000 -0.1594350
v -0.3664225 -0.0625000 -0.1594350
v -0.3695600 -0.0625000 -0.1530800
v -0.3695600 -0.2000000 -0.1530800
v -0.3885850 -0.2000000 -0.1925950
v -0.3885850 -0.0625000 -0.1925950
v -0.3664225 -0.0625000 -0.1594350
v -0.3664225 -0.2000000 -0.1594350
v -0.3885850 -0.0625000 -0.1925950
v -0.3885850 -0.2000000 -0.1925950
v -0.3984563 -0.2000000 -0.2422302
v -0.3984563 -0.1750000 -0.2422302
v -0.4000000 -0.1750000 -0.2500000
v -0.4000000 -0.0625000 -0.2500000
v -0.3885850 -0.0625000 -0.1925950
v -0.3984563 -0.1750000 -0.2422302
v -0.3962275 -0.1750000 -0.2689775
v -0.3962275 -0.0625000 -0.2689775
v -0.4000000 -0.0625000 -0.2500000
v -0.4000000 -0.1750000 -0.2500000
v -0.4045225 -0.0625000 -0.2772725
v -0.3962275 -0.0625000 -0.2689775
v -0.3962275 -0.1750000 -0.2689775
v -0.4045225 -0.1750000 -0.2772725
v -0.3984562 -0.2000000 -0.2422302
v -0.4388387 -0.2000000 -0.1817748
v -0.4388387 -0.1750000 -0.1817748
v -0.3984562 -0.1750000 -0.2422302
v -0.4000000 -0.1750000 -0.2500000
v -0.3984563 -0.1750000 -0.2422302
v -0.4388388 -0.1750000 -0.1817748
v -0.4619350 -0.1750000 -0.1913425
v -0.3962275 -0.1750000 -0.2689775
v -0.4000000 -0.1750000 -0.2500000
v -0.4619350 -0.1750000 -0.1913425
v -0.4045225 -0.1750000 -0.2772725
v -0.4045225 -0.0625000 -0.2772725
v -0.4045225 -0.1750000 -0.2772725
v -0.4619350 -0.1750000 -0.1913425
v -0.4619525 -0.0000000 -0.1913425
v -0.3535500 -0.0625000 -0.3535500
v -0.4045225 -0.0625000 -0.2772725
v -0.4619525 -0.0000000 -0.1913425
v -0.3535500 -0.0000000 -0.3535500
v -0.3885850 -0.0625000 -0.1925950
v -0.4000000 -0.0625000 -0.2500000
v -0.3962275 -0.0625000 -0.2689775
v -0.3664225 -0.0625000 -0.1594350
v -0.3535500 -0.0625000 -0.3535500
v -0.2828400 -0.0625000 -0.2828400
v -0.3962275 -0.0625000 -0.2689775
v -0.4045225 -0.0625000 -0.2772725
v -0.3535500 -0.0000000 -0.3535500
v -0.4619500 -0.0000000 -0.1913500
v -0.5000000 -0.0000000 0.0000000
v -0.3391200 -0.0000000 -0.2266000
v -0.2828400 -0.0000000 -0.2828400
v -0.3535500 -0.0000000 -0.3535500
v -0.3695600 -0.0000000 -0.1530800
v -0.3391200 -0.0000000 -0.2266000
v -0.3535500 -0.0000000 -0.3535500
v -0.4999950 -0.0000000 0.0000000
v -0.3695600 -0.0000000 -0.1530800
v -0.3535500 -0.0000000 -0.3535500
v -0.4000000 -0.0000000 -0.0795600
v -0.3695600 -0.0000000 -0.1530800
v -0.4999950 -0.0000000 0.0000000
v -0.4000000 -0.0000000 0.0000000
v -0.4000000 -0.0000000 -0.0795600
v -0.4999950 -0.0000000 0.0000000
v -0.3965600 -0.0000000 -0.0522000
v -0.4000000 -0.0000000 -0.0795600
v -0.4000000 -0.0000000 0.0000000
v -0.3863600 -0.0000000 -0.1035200
v -0.4000000 -0.0000000 -0.0795600
v -0.3965600 -0.0000000 -0.0522000
v -0.4000000 -0.0000000 -0.0795600
v -0.3863600 -0.0000000 -0.1035200
v -0.3695600 -0.0000000 -0.1530800
v -0.3464000 -0.0000000 -0.2000000
v -0.3391200 -0.0000000 -0.2266000
v -0.3695600 -0.0000000 -0.1530800
v -0.3173600 -0.0000000 -0.2435200
v -0.3391200 -0.0000000 -0.2266000
v -0.3464000 -0.0000000 -0.2000000
v -0.3391200 -0.0000000 -0.2266000
v -0.3173600 -0.0000000 -0.2435200
v -0.2828400 -0.0000000 -0.2828400
v -0.4000000 -0.2000000 0.0000000
v -0.3965600 -0.2000000 0.0522000
v -0.4000000 -0.2000000 0.0795600
v -0.4000000 -0.2000000 0.0795600
v -0.3965600 -0.2000000 0.0522000
v -0.3863600 -0.2000000 0.1035200
v -0.4000000 -0.2000000 0.0795600
v -0.3863600 -0.2000000 0.1035200
v -0.3695600 -0.2000000 0.1530800
v -0.3885850 -0.2000000 0.1925950
v -0.4388375 -0.2000000 0.1817750
v -0.3695600 -0.2000000 0.1530800
v -0.3664225 -0.2000000 0.1594350
v -0.3984563 -0.2000000 0.2422302
v -0.4388375 -0.2000000 0.1817750
v -0.3885850 -0.2000000 0.1925950
v -0.3695600 -0.2000000 0.1530800
v -0.4388375 -0.2000000 0.1817750
v -0.4000000 -0.2000000 0.0795600
v -0.4000000 -0.2000000 0.0795600
v -0.4388375 -0.2000000 0.1817750
v -0.4000000 -0.2000000 0.0000000
v -0.3965600 -0.2000000 0.0522000
v -0.4000000 -0.2000000 0.0000000
v -0.4000000 -0.0625000 0.0000000
v -0.3965600 -0.0625000 0.0522000
v -0.3863600 -0.2000000 0.1035200
v -0.3965600 -0.2000000 0.0522000
v -0.3965600 -0.0625000 0.0522000
v -0.3863600 -0.0625000 0.1035200
v -0.3695600 -0.2000000 0.1530800
v -0.3863600 -0.2000000 0.1035200
v -0.3863600 -0.0625000 0.1035200
v -0.3695600 -0.0625000 0.1530800
v -0.3695600 -0.2000000 0.1530800
v -0.3695600 -0.0625000 0.1530800
v -0.3664225 -0.0625000 0.1594350
v -0.3664225 -0.2000000 0.1594350
v -0.3664225 -0.2000000 0.1594350
v -0.3664225 -0.0625000 0.1594350
v -0.3885850 -0.0625000 0.1925950
v -0.3885850 -0.2000000 0.1925950
v -0.3984563 -0.1750000 0.2422302
v -0.3984563 -0.2000000 0.2422302
v -0.3885850 -0.2000000 0.1925950
v -0.3885850 -0.0625000 0.1925950
v -0.3984563 -0.1750000 0.2422302
v -0.3885850 -0.0625000 0.1925950
v -0.4000000 -0.0625000 0.2500000
v -0.4000000 -0.1750000 0.2500000
v -0.4000000 -0.1750000 0.2500000
v -0.4000000 -0.0625000 0.2500000
v -0.3962275 -0.0625000 0.2689775
v -0.3962275 -0.1750000 0.2689775
v -0.4045225 -0.1750000 0.2772725
v -0.3962275 -0.1750000 0.2689775
v -0.3962275 -0.0625000 0.2689775
v -0.4045225 -0.0625000 0.2772725
v -0.3984562 -0.1750000 0.2422302
v -0.4388387 -0.1750000 0.1817748
v -0.4388387 -0.2000000 0.1817748
v -0.3984562 -0.2000000 0.2422302
v -0.4619350 -0.1750000 0.1913425
v -0.4388388 -0.1750000 0.1817748
v -0.3984563 -0.1750000 0.2422302
v -0.4000000 -0.1750000 0.2500000
v -0.4045225 -0.1750000 0.2772725
v -0.4619350 -0.1750000 0.1913425
v -0.4000000 -0.1750000 0.2500000
v -0.3962275 -0.1750000 0.2689775
v -0.4619525 -0.0000000 0.1913425
v -0.4619350 -0.1750000 0.1913425
v -0.4045225 -0.1750000 0.2772725
v -0.4045225 -0.0625000 0.2772725
v -0.3535500 -0.0000000 0.3535500
v -0.4619525 -0.0000000 0.1913425
v -0.4045225 -0.0625000 0.2772725
v -0.3535500 -0.0625000 0.3535500
v -0.3664225 -0.0625000 0.1594350
v -0.3962275 -0.0625000 0.2689775
v -0.4000000 -0.0625000 0.2500000
v -0.3885850 -0.0625000 0.1925950
v -0.4045225 -0.0625000 0.2772725
v -0.3962275 -0.0625000 0.2689775
v -0.2828400 -0.0625000 0.2828400
v -0.3535500 -0.0625000 0.3535500
v -0.5000000 -0.0000000 0.0000000
v -0.4619500 -0.0000000 0.1913500
v -0.3535500 -0.0000000 0.3535500
v -0.3535500 -0.0000000 0.3535500
v -0.2828400 -0.0000000 0.2828400
v -0.3391200 -0.0000000 0.2266000
v -0.3535500 -0.0000000 0.3535500
v -0.3391200 -0.0000000 0.2266000
v -0.3695600 -0.0000000 0.1530800
v -0.3535500 -0.0000000 0.3535500
v -0.3695600 -0.0000000 0.1530800
v -0.4999950 -0.0000000 0.0000000
v -0.4999950 -0.0000000 0.0000000
v -0.3695600 -0.0000000 0.1530800
v -0.4000000 -0.0000000 0.0795600
v -0.4999950 -0.0000000 0.0000000
v -0.4000000 -0.0000000 0.0795600
v -0.4000000 -0.0000000 0.0000000
v -0.4000000 -0.0000000 0.0000000
v -0.4000000 -0.0000000 0.0795600
v -0.3965600 -0.0000000 0.0522000
v -0.3965600 -0.0000000 0.0522000
v -0.4000000 -0.0000000 0.0795600
v -0.3863600 -0.0000000 0.1035200
v -0.3695600 -0.0000000 0.1530800
v -0.3863600 -0.0000000 0.1035200
v -0.4000000 -0.0000000 0.0795600
v -0.3695600 -0.0000000 0.1530800
v -0.3391200 -0.0000000 0.2266000
v -0.3464000 -0.0000000 0.2000000
v -0.3464000 -0.0000000 0.2000000
v -0.3391200 -0.0000000 0.2266000
v -0.3173600 -0.0000000 0.2435200
v -0.2828400 -0.0000000 0.2828400
v -0.3173600 -0.0000000 0.2435200
v -0.3391200 -0.0000000 0.2266000
v -0.4388428 -0.2000000 0.1817748
v -0.4750120 -0.2000000 -0.0000034
v -0.4388386 -0.2000000 -0.1817728
v -0.4388428 -0.2000000 0.1817748
v -0.4388428 -0.1750000 0.1817748
v -0.4750120 -0.1750000 -0.0000034
v -0.4750120 -0.2000000 -0.0000034
v -0.4750120 -0.2000000 -0.0000034
v -0.4750120 -0.1750000 -0.0000034
v -0.4388386 -0.1750000 -0.1817728
v -0.4388386 -0.2000000 -0.1817728
v -0.4619400 -0.1750000 0.1913400
v -0.5000122 -0.1750000 -0.0000054
v -0.4750116 -0.1750000 -0.0000051
v -0.4388430 -0.1750000 0.1817730
v -0.5000122 -0.1750000 -0.0000054
v -0.4619343 -0.1750000 -0.1913413
v -0.4388376 -0.1750000 -0.1817742
v -0.4750116 -0.1750000 -0.0000051
v -0.4619397 -0.1750000 0.1913418
v -0.4619397 -0.0000000 0.1913418
v -0.5000126 -0.0000000 -0.0000037
v -0.5000126 -0.1750000 -0.0000037
v -0.5000126 -0.1750000 -0.0000037
v -0.5000126 -0.0000000 -0.0000037
v -0.4619353 -0.0000000 -0.1913398
v -0.4619353 -0.1750000 -0.1913398
v -0.4388375 -0.2000000 0.1817750
v -0.4388375 -0.2000000 -0.1817750
v -0.4000000 -0.2000000 0.0000000
v -0.3965600 -0.0625000 -0.0522000
v -0.3965600 -0.0125000 -0.0522000
v -0.4000000 -0.0125000 0.0000000
v -0.4000000 -0.0625000 0.0000000
v -0.3863600 -0.0625000 -0.1035200
v -0.3863600 -0.0125000 -0.1035200
v -0.3965600 -0.0125000 -0.0522000
v -0.3965600 -0.0625000 -0.0522000
v -0.3695600 -0.0625000 -0.1530800
v -0.3695600 -0.0125000 -0.1530800
v -0.3863600 -0.0125000 -0.1035200
v -0.3863600 -0.0625000 -0.1035200
v -0.3464000 -0.0625000 -0.2000000
v -0.3464000 -0.0125000 -0.2000000
v -0.3695600 -0.0125000 -0.1530800
v -0.3695600 -0.0625000 -0.1530800
v -0.3173600 -0.0625000 -0.2435200
v -0.3173600 -0.0125000 -0.2435200
v -0.3464000 -0.0125000 -0.2000000
v -0.3464000 -0.0625000 -0.2000000
v -0.2828400 -0.0625000 -0.2828400
v -0.2828400 -0.0125000 -0.2828400
v -0.3173600 -0.0125000 -0.2435200
v -0.3173600 -0.0625000 -0.2435200
v -0.4000000 -0.0125000 0.0000000
v -0.3965600 -0.0125000 0.0522000
v -0.3965600 -0.0625000 0.0522000
v -0.4000000 -0.0625000 0.0000000
v -0.3965600 -0.0125000 0.0522000
v -0.3863600 -0.0125000 0.1035200
v -0.3863600 -0.0625000 0.1035200
v -0.3965600 -0.0625000 0.0522000
v -0.1922725 -0.1875000 -0.0388650
v -0.3863600 -0.1875000 -0.1035200
v -0.3779600 -0.1875000 -0.1283000
v -0.1873525 -0.1875000 -0.0635975
v -0.3779600 -0.1875000 -0.1283000
v -0.3779600 -0.1250000 -0.1283000
v -0.1873525 -0.1250000 -0.0635975
v -0.1873525 -0.1875000 -0.0635975
v -0.3779603 -0.1250000 -0.1282993
v -0.3863600 -0.1250000 -0.1035200
v -0.2880475 -0.1250000 -0.0775750
v -0.3779603 -0.1250000 -0.1282993
v -0.2880475 -0.1250000 -0.0775750
v -0.1873525 -0.1250000 -0.0635975
v -0.1873525 -0.1250000 -0.0635975
v -0.2880475 -0.1250000 -0.0775750
v -0.1897325 -0.1250000 -0.0516300
v -0.2957131 -0.0943944 -0.0390075
v -0.4000000 -0.0625000 0.0000000
v -0.3000000 -0.0625388 0.0000000
v -0.1948663 -0.0937888 -0.0258150
v -0.3000000 -0.0625388 0.0000000
v -0.2000000 -0.0625775 0.0000000
v -0.2880475 -0.1250000 -0.0775750
v -0.3863600 -0.1250000 -0.1035200
v -0.3965600 -0.0950000 -0.0522000
v -0.1897325 -0.1250000 -0.0516300
v -0.2957131 -0.0943944 -0.0390075
v -0.1948663 -0.0937888 -0.0258150
v -0.2957131 -0.0943944 -0.0390075
v -0.1897325 -0.1250000 -0.0516300
v -0.2880475 -0.1250000 -0.0775750
v -0.3965600 -0.0950000 -0.0522000
v -0.2957131 -0.0943944 -0.0390075
v -0.2880475 -0.1250000 -0.0775750
v -0.3000000 -0.0625388 0.0000000
v -0.1948663 -0.0937888 -0.0258150
v -0.2957131 -0.0943944 -0.0390075
v -0.4000000 -0.0625000 0.0000000
v -0.2957131 -0.0943944 -0.0390075
v -0.3965600 -0.0950000 -0.0522000
v -0.3914750 -0.0125000 0.0778700
v -0.2919325 -0.0125000 0.0580700
v -0.2944750 -0.0206250 0.0452350
v -0.3965600 -0.0287500 0.0522000
v -0.2944750 -0.0206250 0.0452350
v -0.2919325 -0.0125000 0.0580700
v -0.1923900 -0.0125000 0.0382700
v -0.2944750 -0.0206250 0.0452350
v -0.1923900 -0.0125000 0.0382700
v -0.2000000 -0.0625775 0.0000000
v -0.3965600 -0.0287500 0.0522000
v -0.2944750 -0.0206250 0.0452350
v -0.3000000 -0.0625388 0.0000000
v -0.3000000 -0.0625388 0.0000000
v -0.4000000 -0.0625000 0.0000000
v -0.3965600 -0.0287500 0.0522000
v -0.2000000 -0.0625775 0.0000000
v -0.3000000 -0.0625388 0.0000000
v -0.2944750 -0.0206250 0.0452350
v -0.1961375 -0.1575000 -0.0194325
v -0.2000000 -0.1325000 0.0000000
v -0.3965600 -0.1529850 -0.0522000
v -0.3863600 -0.1875000 -0.1035200
v -0.1922725 -0.1875000 -0.0388650
v -0.1961375 -0.1575000 -0.0194325
v -0.3965600 -0.1529850 -0.0522000
v -0.3863600 -0.1875000 -0.1035200
v -0.1961375 -0.1575000 -0.0194325
v -0.2000000 -0.1325000 0.0000000
v -0.1937575 -0.0900000 0.0313950
v -0.4000000 -0.1237350 0.0000000
v -0.4000000 -0.1237350 0.0000000
v -0.3965600 -0.1529850 -0.0522000
v -0.2000000 -0.1325000 0.0000000
v -0.1937575 -0.0900000 0.0313950
v -0.3965600 -0.0936600 0.0522000
v -0.4000000 -0.1237350 0.0000000
v -0.1937575 -0.0900000 0.0313950
v -0.1875125 -0.0625000 0.0627900
v -0.3863600 -0.0625000 0.1035200
v -0.3863600 -0.0625000 0.1035200
v -0.3965600 -0.0936600 0.0522000
v -0.1937575 -0.0900000 0.0313950
v -0.1875125 -0.0625000 0.0627900
v -0.3664225 -0.0625000 0.1594350
v -0.3695600 -0.0625000 0.1530800
v -0.3863600 -0.0625000 0.1035200
v -0.1487500 -0.0625000 0.1304500
v -0.3000925 -0.0625000 0.2631750
v -0.3664225 -0.0625000 0.1594350
v -0.1875125 -0.0625000 0.0627900
v -0.3664225 -0.0625000 0.1594350
v -0.3000925 -0.0625000 0.2631750
v -0.3962275 -0.0625000 0.2689775
v -0.3000925 -0.0625000 0.2631750
v -0.2828400 -0.0625000 0.2828400
v -0.3962275 -0.0625000 0.2689775
v -0.1487500 -0.0125000 0.1304500
v -0.3000925 -0.0125000 0.2631750
v -0.3000925 -0.0625000 0.2631750
v -0.1487500 -0.0625000 0.1304500
v -0.3000925 -0.0625000 0.2631750
v -0.3000925 -0.0125000 0.2631750
v -0.2828400 -0.0125000 0.2828400
v -0.2828400 -0.0625000 0.2828400
v -0.3695600 -0.0125000 0.1530800
v -0.2919325 -0.0125000 0.0580700
v -0.3914750 -0.0125000 0.0778700
v -0.3863600 -0.0125000 0.1035200
v -0.3695600 -0.0125000 0.1530800
v -0.1923900 -0.0125000 0.0382700
v -0.2919325 -0.0125000 0.0580700
v -0.3464000 -0.0125000 0.2000000
v -0.1487500 -0.0125000 0.1304500
v -0.1923900 -0.0125000 0.0382700
v -0.3695600 -0.0125000 0.1530800
v -0.3173600 -0.0125000 0.2435200
v -0.3000925 -0.0125000 0.2631750
v -0.1487500 -0.0125000 0.1304500
v -0.3464000 -0.0125000 0.2000000
v -0.3962275 -0.0625000 -0.2689775
v -0.3464000 -0.0625000 -0.2000000
v -0.3664225 -0.0625000 -0.1594350
v -0.3962275 -0.0625000 -0.2689775
v -0.3173600 -0.0625000 -0.2435200
v -0.3464000 -0.0625000 -0.2000000
v -0.3173600 -0.0625000 -0.2435200
v -0.3962275 -0.0625000 -0.2689775
v -0.2828400 -0.0625000 -0.2828400
v 0.0795600 -0.2000000 -0.4000000
v 0.0522000 -0.2000000 -0.3965600
v 0.0000000 -0.2000000 -0.4000000
v 0.1035200 -0.2000000 -0.3863600
v 0.0522000 -0.2000000 -0.3965600
v 0.0795600 -0.2000000 -0.4000000
v 0.1530800 -0.2000000 -0.3695600
v 0.1035200 -0.2000000 -0.3863600
v 0.0795600 -0.2000000 -0.4000000
v 0.1594350 -0.2000000 -0.3664225
v 0.1530800 -0.2000000 -0.3695600
v 0.1817750 -0.2000000 -0.4388375
v 0.1925950 -0.2000000 -0.3885850
v 0.1925950 -0.2000000 -0.3885850
v 0.1817750 -0.2000000 -0.4388375
v 0.2422302 -0.2000000 -0.3984563
v 0.0795600 -0.2000000 -0.4000000
v 0.1817750 -0.2000000 -0.4388375
v 0.1530800 -0.2000000 -0.3695600
v 0.0000000 -0.2000000 -0.4000000
v 0.1817750 -0.2000000 -0.4388375
v 0.0795600 -0.2000000 -0.4000000
v 0.0522000 -0.0625000 -0.3965600
v 0.0000000 -0.0625000 -0.4000000
v 0.0000000 -0.2000000 -0.4000000
v 0.0522000 -0.2000000 -0.3965600
v 0.1035200 -0.0625000 -0.3863600
v 0.0522000 -0.0625000 -0.3965600
v 0.0522000 -0.2000000 -0.3965600
v 0.1035200 -0.2000000 -0.3863600
v 0.1530800 -0.0625000 -0.3695600
v 0.1035200 -0.0625000 -0.3863600
v 0.1035200 -0.2000000 -0.3863600
v 0.1530800 -0.2000000 -0.3695600
v 0.1594350 -0.2000000 -0.3664225
v 0.1594350 -0.0625000 -0.3664225
v 0.1530800 -0.0625000 -0.3695600
v 0.1530800 -0.2000000 -0.3695600
v 0.1925950 -0.2000000 -0.3885850
v 0.1925950 -0.0625000 -0.3885850
v 0.1594350 -0.0625000 -0.3664225
v 0.1594350 -0.2000000 -0.3664225
v 0.1925950 -0.0625000 -0.3885850
v 0.1925950 -0.2000000 -0.3885850
v 0.2422302 -0.2000000 -0.3984563
v 0.2422302 -0.1750000 -0.3984563
v 0.2500000 -0.1750000 -0.4000000
v 0.2500000 -0.0625000 -0.4000000
v 0.1925950 -0.0625000 -0.3885850
v 0.2422302 -0.1750000 -0.3984563
v 0.2689775 -0.1750000 -0.3962275
v 0.2689775 -0.0625000 -0.3962275
v 0.2500000 -0.0625000 -0.4000000
v 0.2500000 -0.1750000 -0.4000000
v 0.2772725 -0.0625000 -0.4045225
v 0.2689775 -0.0625000 -0.3962275
v 0.2689775 -0.1750000 -0.3962275
v 0.2772725 -0.1750000 -0.4045225
v 0.2422302 -0.2000000 -0.3984562
v 0.1817748 -0.2000000 -0.4388387
v 0.1817748 -0.1750000 -0.4388387
v 0.2422302 -0.1750000 -0.3984562
v 0.2500000 -0.1750000 -0.4000000
v 0.2422302 -0.1750000 -0.3984563
v 0.1817748 -0.1750000 -0.4388388
v 0.1913425 -0.1750000 -0.4619350
v 0.2689775 -0.1750000 -0.3962275
v 0.2500000 -0.1750000 -0.4000000
v 0.1913425 -0.1750000 -0.4619350
v 0.2772725 -0.1750000 -0.4045225
v 0.2772725 -0.0625000 -0.4045225
v 0.2772725 -0.1750000 -0.4045225
v 0.1913425 -0.1750000 -0.4619350
v 0.1913425 -0.0000000 -0.4619525
v 0.3535500 -0.0625000 -0.3535500
v 0.2772725 -0.0625000 -0.4045225
v 0.1913425 -0.0000000 -0.4619525
v 0.3535500 -0.0000000 -0.3535500
v 0.1925950 -0.0625000 -0.3885850
v 0.2500000 -0.0625000 -0.4000000
v 0.2689775 -0.0625000 -0.3962275
v 0.1594350 -0.0625000 -0.3664225
v 0.3535500 -0.0625000 -0.3535500
v 0.2828400 -0.0625000 -0.2828400
v 0.2689775 -0.0625000 -0.3962275
v 0.2772725 -0.0625000 -0.4045225
v 0.3535500 -0.0000000 -0.3535500
v 0.1913500 -0.0000000 -0.4619500
v 0.0000000 -0.0000000 -0.5000000
v 0.2266000 -0.0000000 -0.3391200
v 0.2828400 -0.0000000 -0.2828400
v 0.3535500 -0.0000000 -0.3535500
v 0.1530800 -0.0000000 -0.3695600
v 0.2266000 -0.0000000 -0.3391200
v 0.3535500 -0.0000000 -0.3535500
v 0.0000000 -0.0000000 -0.4999950
v 0.1530800 -0.0000000 -0.3695600
v 0.3535500 -0.0000000 -0.3535500
v 0.0795600 -0.0000000 -0.4000000
v 0.1530800 -0.0000000 -0.3695600
v 0.0000000 -0.0000000 -0.4999950
v 0.0000000 -0.0000000 -0.4000000
v 0.0795600 -0.0000000 -0.4000000
v 0.0000000 -0.0000000 -0.4999950
v 0.0522000 -0.0000000 -0.3965600
v 0.0795600 -0.0000000 -0.4000000
v 0.0000000 -0.0000000 -0.4000000
v 0.1035200 -0.0000000 -0.3863600
v 0.0795600 -0.0000000 -0.4000000
v 0.0522000 -0.0000000 -0.3965600
v 0.0795600 -0.0000000 -0.4000000
v 0.1035200 -0.0000000 -0.3863600
v 0.1530800 -0.0000000 -0.3695600
v 0.2000000 -0.0000000 -0.3464000
v 0.2266000 -0.0000000 -0.3391200
v 0.1530800 -0.0000000 -0.3695600
v 0.2435200 -0.0000000 -0.3173600
v 0.2266000 -0.0000000 -0.3391200
v 0.2000000 -0.0000000 -0.3464000
v 0.2266000 -0.0000000 -0.3391200
v 0.2435200 -0.0000000 -0.3173600
v 0.2828400 -0.0000000 -0.2828400
v 0.0000000 -0.2000000 -0.4000000
v -0.0522000 -0.2000000 -0.3965600
v -0.0795600 -0.2000000 -0.4000000
v -0.0795600 -0.2000000 -0.4000000
v -0.0522000 -0.2000000 -0.3965600
v -0.1035200 -0.2000000 -0.3863600
v -0.0795600 -0.2000000 -0.4000000
v -0.1035200 -0.2000000 -0.3863600
v -0.1530800 -0.2000000 -0.3695600
v -0.1925950 -0.2000000 -0.3885850
v -0.1817750 -0.2000000 -0.4388375
v -0.1530800 -0.2000000 -0.3695600
v -0.1594350 -0.2000000 -0.3664225
v -0.2422302 -0.2000000 -0.3984563
v -0.1817750 -0.2000000 -0.4388375
v -0.1925950 -0.2000000 -0.3885850
v -0.1530800 -0.2000000 -0.3695600
v -0.1817750 -0.2000000 -0.4388375
v -0.0795600 -0.2000000 -0.4000000
v -0.0795600 -0.2000000 -0.4000000
v -0.1817750 -0.2000000 -0.4388375
v 0.0000000 -0.2000000 -0.4000000
v -0.0522000 -0.2000000 -0.3965600
v 0.0000000 -0.2000000 -0.4000000
v 0.0000000 -0.0625000 -0.4000000
v -0.0522000 -0.0625000 -0.3965600
v -0.1035200 -0.2000000 -0.3863600
v -0.0522000 -0.2000000 -0.3965600
v -0.0522000 -0.0625000 -0.3965600
v -0.1035200 -0.0625000 -0.3863600
v -0.1530800 -0.2000000 -0.3695600
v -0.1035200 -0.2000000 -0.3863600
v -0.1035200 -0.0625000 -0.3863600
v -0.1530800 -0.0625000 -0.3695600
v -0.1530800 -0.2000000 -0.3695600
v -0.1530800 -0.0625000 -0.3695600
v -0.1594350 -0.0625000 -0.3664225
v -0.1594350 -0.2000000 -0.3664225
v -0.1594350 -0.2000000 -0.3664225
v -0.1594350 -0.0625000 -0.3664225
v -0.1925950 -0.0625000 -0.3885850
v -0.1925950 -0.2000000 -0.3885850
v -0.2422302 -0.1750000 -0.3984563
v -0.2422302 -0.2000000 -0.3984563
v -0.1925950 -0.2000000 -0.3885850
v -0.1925950 -0.0625000 -0.3885850
v -0.2422302 -0.1750000 -0.3984563
v -0.1925950 -0.0625000 -0.3885850
v -0.2500000 -0.0625000 -0.4000000
v -0.2500000 -0.1750000 -0.4000000
v -0.2500000 -0.1750000 -0.4000000
v -0.2500000 -0.0625000 -0.4000000
v -0.2689775 -0.0625000 -0.3962275
v -0.2689775 -0.1750000 -0.3962275
v -0.2772725 -0.1750000 -0.4045225
v -0.2689775 -0.1750000 -0.3962275
v -0.2689775 -0.0625000 -0.3962275
v -0.2772725 -0.0625000 -0.4045225
v -0.2422302 -0.1750000 -0.3984562
v -0.1817748 -0.1750000 -0.4388387
v -0.1817748 -0.2000000 -0.4388387
v -0.2422302 -0.2000000 -0.3984562
v -0.1913425 -0.1750000 -0.4619350
v -0.1817748 -0.1750000 -0.4388388
v -0.2422302 -0.1750000 -0.3984563
v -0.2500000 -0.1750000 -0.4000000
v -0.2772725 -0.1750000 -0.4045225
v -0.1913425 -0.1750000 -0.4619350
v -0.2500000 -0.1750000 -0.4000000
v -0.2689775 -0.1750000 -0.3962275
v -0.1913425 -0.0000000 -0.4619525
v -0.1913425 -0.1750000 -0.4619350
v -0.2772725 -0.1750000 -0.4045225
v -0.2772725 -0.0625000 -0.4045225
v -0.3535500 -0.0000000 -0.3535500
v -0.1913425 -0.0000000 -0.4619525
v -0.2772725 -0.0625000 -0.4045225
v -0.3535500 -0.0625000 -0.3535500
v -0.1594350 -0.0625000 -0.3664225
v -0.2689775 -0.0625000 -0.3962275
v -0.2500000 -0.0625000 -0.4000000
v -0.1925950 -0.0625000 -0.3885850
v -0.2772725 -0.0625000 -0.4045225
v -0.2689775 -0.0625000 -0.3962275
v -0.2828400 -0.0625000 -0.2828400
v -0.3535500 -0.0625000 -0.3535500
v 0.0000000 -0.0000000 -0.5000000
v -0.1913500 -0.0000000 -0.4619500
v -0.3535500 -0.0000000 -0.3535500
v -0.3535500 -0.0000000 -0.3535500
v -0.2828400 -0.0000000 -0.2828400
v -0.2266000 -0.0000000 -0.3391200
v -0.3535500 -0.0000000 -0.3535500
v -0.2266000 -0.0000000 -0.3391200
v -0.1530800 -0.0000000 -0.3695600
v -0.3535500 -0.0000000 -0.3535500
v -0.1530800 -0.0000000 -0.3695600
v 0.0000000 -0.0000000 -0.4999950
v 0.0000000 -0.0000000 -0.4999950
v -0.1530800 -0.0000000 -0.3695600
v -0.0795600 -0.0000000 -0.4000000
v 0.0000000 -0.0000000 -0.4999950
v -0.0795600 -0.0000000 -0.4000000
v 0.0000000 -0.0000000 -0.4000000
v 0.0000000 -0.0000000 -0.4000000
v -0.0795600 -0.0000000 -0.4000000
v -0.0522000 -0.0000000 -0.3965600
v -0.0522000 -0.0000000 -0.3965600
v -0.0795600 -0.0000000 -0.4000000
v -0.1035200 -0.0000000 -0.3863600
v -0.1530800 -0.0000000 -0.3695600
v -0.1035200 -0.0000000 -0.3863600
v -0.0795600 -0.0000000 -0.4000000
v -0.1530800 -0.0000000 -0.3695600
v -0.2266000 -0.0000000 -0.3391200
v -0.2000000 -0.0000000 -0.3464000
v -0.2000000 -0.0000000 -0.3464000
v -0.2266000 -0.0000000 -0.3391200
v -0.2435200 -0.0000000 -0.3173600
v -0.2828400 -0.0000000 -0.2828400
v -0.2435200 -0.0000000 -0.3173600
v -0.2266000 -0.0000000 -0.3391200
v -0.1817748 -0.2000000 -0.4388428
v 0.0000034 -0.2000000 -0.4750120
v 0.1817728 -0.2000000 -0.4388386
v -0.1817748 -0.2000000 -0.4388428
v -0.1817748 -0.1750000 -0.4388428
v 0.0000034 -0.1750000 -0.4750120
v 0.0000034 -0.2000000 -0.4750120
v 0.0000034 -0.2000000 -0.4750120
v 0.0000034 -0.1750000 -0.4750120
v 0.1817728 -0.1750000 -0.4388386
v 0.1817728 -0.2000000 -0.4388386
v -0.1913400 -0.1750000 -0.4619400
v 0.0000054 -0.1750000 -0.5000122
v 0.0000051 -0.1750000 -0.4750116
v -0.1817730 -0.1750000 -0.4388430
v 0.0000054 -0.1750000 -0.5000122
v 0.1913413 -0.1750000 -0.4619343
v 0.1817742 -0.1750000 -0.4388376
v 0.0000051 -0.1750000 -0.4750116
v -0.1913418 -0.1750000 -0.4619397
v -0.1913418 -0.0000000 -0.4619397
v 0.0000037 -0.0000000 -0.5000126
v 0.0000037 -0.1750000 -0.5000126
v 0.0000037 -0.1750000 -0.5000126
v 0.0000037 -0.0000000 -0.5000126
v 0.1913398 -0.0000000 -0.4619353
v 0.1913398 -0.1750000 -0.4619353
v -0.1817750 -0.2000000 -0.4388375
v 0.1817750 -0.2000000 -0.4388375
v 0.0000000 -0.2000000 -0.4000000
v 0.0522000 -0.0625000 -0.3965600
v 0.0522000 -0.0125000 -0.3965600
v 0.0000000 -0.0125000 -0.4000000
v 0.0000000 -0.0625000 -0.4000000
v 0.1035200 -0.0625000 -0.3863600
v 0.1035200 -0.0125000 -0.3863600
v 0.0522000 -0.0125000 -0.3965600
v 0.0522000 -0.0625000 -0.3965600
v 0.1530800 -0.0625000 -0.3695600
v 0.1530800 -0.0125000 -0.3695600
v 0.1035200 -0.0125000 -0.3863600
v 0.1035200 -0.0625000 -0.3863600
v 0.2000000 -0.0625000 -0.3464000
v 0.2000000 -0.0125000 -0.3464000
v 0.1530800 -0.0125000 -0.3695600
v 0.1530800 -0.0625000 -0.3695600
v 0.2435200 -0.0625000 -0.3173600
v 0.2435200 -0.0125000 -0.3173600
v 0.2000000 -0.0125000 -0.3464000
v 0.2000000 -0.0625000 -0.3464000
v 0.2828400 -0.0625000 -0.2828400
v 0.2828400 -0.0125000 -0.2828400
v 0.2435200 -0.0125000 -0.3173600
v 0.2435200 -0.0625000 -0.3173600
v 0.0000000 -0.0125000 -0.4000000
v -0.0522000 -0.0125000 -0.3965600
v -0.0522000 -0.0625000 -0.3965600
v 0.0000000 -0.0625000 -0.4000000
v -0.0522000 -0.0125000 -0.3965600
v -0.1035200 -0.0125000 -0.3863600
v -0.1035200 -0.0625000 -0.3863600
v -0.0522000 -0.0625000 -0.3965600
v 0.0388650 -0.1875000 -0.1922725
v 0.1035200 -0.1875000 -0.3863600
v 0.1283000 -0.1875000 -0.3779600
v 0.0635975 -0.1875000 -0.1873525
v 0.1283000 -0.1875000 -0.3779600
v 0.1283000 -0.1250000 -0.3779600
v 0.0635975 -0.1250000 -0.1873525
v 0.0635975 -0.1875000 -0.1873525
v 0.1282993 -0.1250000 -0.3779603
v 0.1035200 -0.1250000 -0.3863600
v 0.0775750 -0.1250000 -0.2880475
v 0.1282993 -0.1250000 -0.3779603
v 0.0775750 -0.1250000 -0.2880475
v 0.0635975 -0.1250000 -0.1873525
v 0.0635975 -0.1250000 -0.1873525
v 0.0775750 -0.1250000 -0.2880475
v 0.0516300 -0.1250000 -0.1897325
v 0.0390075 -0.0943944 -0.2957131
v 0.0000000 -0.0625000 -0.4000000
v 0.0000000 -0.0625388 -0.3000000
v 0.0258150 -0.0937888 -0.1948663
v 0.0000000 -0.0625388 -0.3000000
v 0.0000000 -0.0625775 -0.2000000
v 0.0775750 -0.1250000 -0.2880475
v 0.1035200 -0.1250000 -0.3863600
v 0.0522000 -0.0950000 -0.3965600
v 0.0516300 -0.1250000 -0.1897325
v 0.0390075 -0.0943944 -0.2957131
v 0.0258150 -0.0937888 -0.1948663
v 0.0390075 -0.0943944 -0.2957131
v 0.0516300 -0.1250000 -0.1897325
v 0.0775750 -0.1250000 -0.2880475
v 0.0522000 -0.0950000 -0.3965600
v 0.0390075 -0.0943944 -0.2957131
v 0.0775750 -0.1250000 -0.2880475
v 0.0000000 -0.0625388 -0.3000000
v 0.0258150 -0.0937888 -0.1948663
v 0.0390075 -0.0943944 -0.2957131
v 0.0000000 -0.0625000 -0.4000000
v 0.0390075 -0.0943944 -0.2957131
v 0.0522000 -0.0950000 -0.3965600
v -0.0778700 -0.0125000 -0.3914750
v -0.0580700 -0.0125000 -0.2919325
v -0.0452350 -0.0206250 -0.2944750
v -0.0522000 -0.0287500 -0.3965600
v -0.0452350 -0.0206250 -0.2944750
v -0.0580700 -0.0125000 -0.2919325
v -0.0382700 -0.0125000 -0.1923900
v -0.0452350 -0.0206250 -0.2944750
v -0.0382700 -0.0125000 -0.1923900
v 0.0000000 -0.0625775 -0.2000000
v -0.0522000 -0.0287500 -0.3965600
v -0.0452350 -0.0206250 -0.2944750
v 0.0000000 -0.0625388 -0.3000000
v 0.0000000 -0.0625388 -0.3000000
v 0.0000000 -0.0625000 -0.4000000
v -0.0522000 -0.0287500 -0.3965600
v 0.0000000 -0.0625775 -0.2000000
v 0.0000000 -0.0625388 -0.3000000
v -0.0452350 -0.0206250 -0.2944750
v 0.0194325 -0.1575000 -0.1961375
v 0.0000000 -0.1325000 -0.2000000
v 0.0522000 -0.1529850 -0.3965600
v 0.1035200 -0.1875000 -0.3863600
v 0.0388650 -0.1875000 -0.1922725
v 0.0194325 -0.1575000 -0.1961375
v 0.0522000 -0.1529850 -0.3965600
v 0.1035200 -0.1875000 -0.3863600
v 0.0194325 -0.1575000 -0.1961375
v 0.0000000 -0.1325000 -0.2000000
v -0.0313950 -0.0900000 -0.1937575
v 0.0000000 -0.1237350 -0.4000000
v 0.0000000 -0.1237350 -0.4000000
v 0.0522000 -0.1529850 -0.3965600
v 0.0000000 -0.1325000 -0.2000000
v -0.0313950 -0.0900000 -0.1937575
v -0.0522000 -0.0936600 -0.3965600
v 0.0000000 -0.1237350 -0.4000000
v -0.0313950 -0.0900000 -0.1937575
v -0.0627900 -0.0625000 -0.1875125
v -0.1035200 -0.0625000 -0.3863600
v -0.1035200 -0.0625000 -0.3863600
v -0.0522000 -0.0936600 -0.3965600
v -0.0313950 -0.0900000 -0.1937575
v -0.0627900 -0.0625000 -0.1875125
v -0.1594350 -0.0625000 -0.3664225
v -0.1530800 -0.0625000 -0.3695600
v -0.1035200 -0.0625000 -0.3863600
v -0.1304500 -0.0625000 -0.1487500
v -0.2631750 -0.0625000 -0.3000925
v -0.1594350 -0.0625000 -0.3664225
v -0.0627900 -0.0625000 -0.1875125
v -0.1594350 -0.0625000 -0.3664225
v -0.2631750 -0.0625000 -0.3000925
v -0.2689775 -0.0625000 -0.3962275
v -0.2631750 -0.0625000 -0.3000925
v -0.2828400 -0.0625000 -0.2828400
v -0.2689775 -0.0625000 -0.3962275
v -0.1304500 -0.0125000 -0.1487500
v -0.2631750 -0.0125000 -0.3000925
v -0.2631750 -0.0625000 -0.3000925
v -0.1304500 -0.0625000 -0.1487500
v -0.2631750 -0.0625000 -0.3000925
v -0.2631750 -0.0125000 -0.3000925
v -0.2828400 -0.0125000 -0.2828400
v -0.2828400 -0.0625000 -0.2828400
v -0.1530800 -0.0125000 -0.3695600
v -0.0580700 -0.0125000 -0.2919325
v -0.0778700 -0.0125000 -0.3914750
v -0.1035200 -0.0125000 -0.3863600
v -0.1530800 -0.0125000 -0.3695600
v -0.0382700 -0.0125000 -0.1923900
v -0.0580700 -0.0125000 -0.2919325
v -0.2000000 -0.0125000 -0.3464000
v -0.1304500 -0.0125000 -0.1487500
v -0.0382700 -0.0125000 -0.1923900
v -0.1530800 -0.0125000 -0.3695600
v -0.2435200 -0.0125000 -0.3173600
v -0.2631750 -0.0125000 -0.3000925
v -0.1304500 -0.0125000 -0.1487500
v -0.2000000 -0.0125000 -0.3464000
v 0.2689775 -0.0625000 -0.3962275
v 0.2000000 -0.0625000 -0.3464000
v 0.1594350 -0.0625000 -0.3664225
v 0.2689775 -0.0625000 -0.3962275
v 0.2435200 -0.0625000 -0.3173600
v 0.2000000 -0.0625000 -0.3464000
v 0.2435200 -0.0625000 -0.3173600
v 0.2689775 -0.0625000 -0.3962275
v 0.2828400 -0.0625000 -0.2828400
v 0.3965600 -0.0125000 -0.0522000
v 0.4000000 -0.0125000 0.0000000
v 0.4000000 -0.0000000 0.0000000
v 0.3965600 -0.0000000 -0.0522000
v 0.3863600 -0.0125000 -0.1035200
v 0.3965600 -0.0125000 -0.0522000
v 0.3965600 -0.0000000 -0.0522000
v 0.3863600 -0.0000000 -0.1035200
v 0.3695600 -0.0125000 -0.1530800
v 0.3863600 -0.0125000 -0.1035200
v 0.3863600 -0.0000000 -0.1035200
v 0.3695600 -0.0000000 -0.1530800
v 0.3464000 -0.0125000 -0.2000000
v 0.3695600 -0.0125000 -0.1530800
v 0.3695600 -0.0000000 -0.1530800
v 0.3464000 -0.0000000 -0.2000000
v 0.3173600 -0.0125000 -0.2435200
v 0.3464000 -0.0125000 -0.2000000
v 0.3464000 -0.0000000 -0.2000000
v 0.3173600 -0.0000000 -0.2435200
v 0.2828400 -0.0125000 -0.2828400
v 0.3173600 -0.0125000 -0.2435200
v 0.3173600 -0.0000000 -0.2435200
v 0.2828400 -0.0000000 -0.2828400
v 0.2435200 -0.0125000 -0.3173600
v 0.2828400 -0.0125000 -0.2828400
v 0.2828400 -0.0000000 -0.2828400
v 0.2435200 -0.0000000 -0.3173600
v 0.2000000 -0.0125000 -0.3464000
v 0.2435200 -0.0125000 -0.3173600
v 0.2435200 -0.0000000 -0.3173600
v 0.2000000 -0.0000000 -0.3464000
v 0.1530800 -0.0125000 -0.3695600
v 0.2000000 -0.0125000 -0.3464000
v 0.2000000 -0.0000000 -0.3464000
v 0.1530800 -0.0000000 -0.3695600
v 0.1035200 -0.0125000 -0.3863600
v 0.1530800 -0.0125000 -0.3695600
v 0.1530800 -0.0000000 -0.3695600
v 0.1035200 -0.0000000 -0.3863600
v 0.0522000 -0.0125000 -0.3965600
v 0.1035200 -0.0125000 -0.3863600
v 0.1035200 -0.0000000 -0.3863600
v 0.0522000 -0.0000000 -0.3965600
v 0.0000000 -0.0125000 -0.4000000
v 0.0522000 -0.0125000 -0.3965600
v 0.0522000 -0.0000000 -0.3965600
v 0.0000000 -0.0000000 -0.4000000
v -0.0522000 -0.0125000 -0.3965600
v 0.0000000 -0.0125000 -0.4000000
v 0.0000000 -0.0000000 -0.4000000
v -0.0522000 -0.0000000 -0.3965600
v -0.1035200 -0.0125000 -0.3863600
v -0.0522000 -0.0125000 -0.3965600
v -0.0522000 -0.0000000 -0.3965600
v -0.1035200 -0.0000000 -0.3863600
v -0.1530800 -0.0125000 -0.3695600
v -0.1035200 -0.0125000 -0.3863600
v -0.1035200 -0.0000000 -0.3863600
v -0.1530800 -0.0000000 -0.3695600
v -0.2000000 -0.0125000 -0.3464000
v -0.1530800 -0.0125000 -0.3695600
v -0.1530800 -0.0000000 -0.3695600
v -0.2000000 -0.0000000 -0.3464000
v -0.2435200 -0.0125000 -0.3173600
v -0.2000000 -0.0125000 -0.3464000
v -0.2000000 -0.0000000 -0.3464000
v -0.2435200 -0.0000000 -0.3173600
v -0.2828400 -0.0125000 -0.2828400
v -0.2435200 -0.0125000 -0.3173600
v -0.2435200 -0.0000000 -0.3173600
v -0.2828400 -0.0000000 -0.2828400
v -0.3173600 -0.0125000 -0.2435200
v -0.2828400 -0.0125000 -0.2828400
v -0.2828400 -0.0000000 -0.2828400
v -0.3173600 -0.0000000 -0.2435200
v -0.3464000 -0.0125000 -0.2000000
v -0.3173600 -0.0125000 -0.2435200
v -0.3173600 -0.0000000 -0.2435200
v -0.3464000 -0.0000000 -0.2000000
v -0.3695600 -0.0125000 -0.1530800
v -0.3464000 -0.0125000 -0.2000000
v -0.3464000 -0.0000000 -0.2000000
v -0.3695600 -0.0000000 -0.1530800
v -0.3863600 -0.0125000 -0.1035200
v -0.3695600 -0.0125000 -0.1530800
v -0.3695600 -0.0000000 -0.1530800
v -0.3863600 -0.0000000 -0.1035200
v -0.3965600 -0.0125000 -0.0522000
v -0.3863600 -0.0125000 -0.1035200
v -0.3863600 -0.0000000 -0.1035200
v -0.3965600 -0.0000000 -0.0522000
v -0.4000000 -0.0125000 0.0000000
v -0.3965600 -0.0125000 -0.0522000
v -0.3965600 -0.0000000 -0.0522000
v -0.4000000 -0.0000000 0.0000000
v -0.3965600 -0.0125000 0.0522000
v -0.4000000 -0.0125000 0.0000000
v -0.4000000 -0.0000000 0.0000000
v -0.3965600 -0.0000000 0.0522000
v -0.3863600 -0.0125000 0.1035200
v -0.3965600 -0.0125000 0.0522000
v -0.3965600 -0.0000000 0.0522000
v -0.3863600 -0.0000000 0.1035200
v -0.3695600 -0.0125000 0.1530800
v -0.3863600 -0.0125000 0.1035200
v -0.3863600 -0.0000000 0.1035200
v -0.3695600 -0.0000000 0.1530800
v -0.3464000 -0.0125000 0.2000000
v -0.3695600 -0.0125000 0.1530800
v -0.3695600 -0.0000000 0.1530800
v -0.3464000 -0.0000000 0.2000000
v -0.3173600 -0.0125000 0.2435200
v -0.3464000 -0.0125000 0.2000000
v -0.3464000 -0.0000000 0.2000000
v -0.3173600 -0.0000000 0.2435200
v -0.2828400 -0.0125000 0.2828400
v -0.3173600 -0.0125000 0.2435200
v -0.3173600 -0.0000000 0.2435200
v -0.2828400 -0.0000000 0.2828400
v -0.2435200 -0.0125000 0.3173600
v -0.2828400 -0.0125000 0.2828400
v -0.2828400 -0.0000000 0.2828400
v -0.2435200 -0.0000000 0.3173600
v -0.2000000 -0.0125000 0.3464000
v -0.2435200 -0.0125000 0.3173600
v -0.2435200 -0.0000000 0.3173600
v -0.2000000 -0.0000000 0.3464000
v -0.1530800 -0.0125000 0.3695600
v -0.2000000 -0.0125000 0.3464000
v -0.2000000 -0.0000000 0.3464000
v -0.1530800 -0.0000000 0.3695600
v -0.1035200 -0.0125000 0.3863600
v -0.1530800 -0.0125000 0.3695600
v -0.1530800 -0.0000000 0.3695600
v -0.1035200 -0.0000000 0.3863600
v -0.0522000 -0.0125000 0.3965600
v -0.1035200 -0.0125000 0.3863600
v -0.1035200 -0.0000000 0.3863600
v -0.0522000 -0.0000000 0.3965600
v 0.0000000 -0.0125000 0.4000000
v -0.0522000 -0.0125000 0.3965600
v -0.0522000 -0.0000000 0.3965600
v 0.0000000 -0.0000000 0.4000000
v 0.0522000 -0.0125000 0.3965600
v 0.0000000 -0.0125000 0.4000000
v 0.0000000 -0.0000000 0.4000000
v 0.0522000 -0.0000000 0.3965600
v 0.1035200 -0.0125000 0.3863600
v 0.0522000 -0.0125000 0.3965600
v 0.0522000 -0.0000000 0.3965600
v 0.1035200 -0.0000000 0.3863600
v 0.1530800 -0.0125000 0.3695600
v 0.1035200 -0.0125000 0.3863600
v 0.1035200 -0.0000000 0.3863600
v 0.1530800 -0.0000000 0.3695600
v 0.2000000 -0.0125000 0.3464000
v 0.1530800 -0.0125000 0.3695600
v 0.1530800 -0.0000000 0.3695600
v 0.2000000 -0.0000000 0.3464000
v 0.2435200 -0.0125000 0.3173600
v 0.2000000 -0.0125000 0.3464000
v 0.2000000 -0.0000000 0.3464000
v 0.2435200 -0.0000000 0.3173600
v 0.2828400 -0.0125000 0.2828400
v 0.2435200 -0.0125000 0.3173600
v 0.2435200 -0.0000000 0.3173600
v 0.2828400 -0.0000000 0.2828400
v 0.3173600 -0.0125000 0.2435200
v 0.2828400 -0.0125000 0.2828400
v 0.2828400 -0.0000000 0.2828400
v 0.3173600 -0.0000000 0.2435200
v 0.3464000 -0.0125000 0.2000000
v 0.3173600 -0.0125000 0.2435200
v 0.3173600 -0.0000000 0.2435200
v 0.3464000 -0.0000000 0.2000000
v 0.3695600 -0.0125000 0.1530800
v 0.3464000 -0.0125000 0.2000000
v 0.3464000 -0.0000000 0.2000000
v 0.3695600 -0.0000000 0.1530800
v 0.3863600 -0.0125000 0.1035200
v 0.3695600 -0.0125000 0.1530800
v 0.3695600 -0.0000000 0.1530800
v 0.3863600 -0.0000000 0.1035200
v 0.3965600 -0.0125000 0.0522000
v 0.3863600 -0.0125000 0.1035200
v 0.3863600 -0.0000000 0.1035200
v 0.3965600 -0.0000000 0.0522000
v 0.4000000 -0.0125000 0.0000000
v 0.3965600 -0.0125000 0.0522000
v 0.3965600 -0.0000000 0.0522000
v 0.4000000 -0.0000000 0.0000000
v -0.0765400 -0.2000000 0.1847800
v -0.0574050 -0.2000000 0.1385850
v 0.0000000 -0.2000000 0.1500000
v 0.0000000 -0.2000000 0.2000000
v -0.1414200 -0.2000000 0.1414200
v -0.1060650 -0.2000000 0.1060650
v -0.0574050 -0.2000000 0.1385850
v -0.0765400 -0.2000000 0.1847800
v -0.1847800 -0.2000000 0.0765400
v -0.1385850 -0.2000000 0.0574050
v -0.1060650 -0.2000000 0.1060650
v -0.1414200 -0.2000000 0.1414200
v -0.2000000 -0.2000000 0.0000000
v -0.1500000 -0.2000000 0.0000000
v -0.1385850 -0.2000000 0.0574050
v -0.1847800 -0.2000000 0.0765400
v -0.1847800 -0.2000000 -0.0765400
v -0.1385850 -0.2000000 -0.0574050
v -0.1500000 -0.2000000 0.0000000
v -0.2000000 -0.2000000 0.0000000
v -0.1414200 -0.2000000 -0.1414200
v -0.1060650 -0.2000000 -0.1060650
v -0.1385850 -0.2000000 -0.0574050
v -0.1847800 -0.2000000 -0.0765400
v -0.0765400 -0.2000000 -0.1847800
v -0.0574050 -0.2000000 -0.1385850
v -0.1060650 -0.2000000 -0.1060650
v -0.1414200 -0.2000000 -0.1414200
v 0.0000000 -0.2000000 -0.2000000
v 0.0000000 -0.2000000 -0.1500000
v -0.0574050 -0.2000000 -0.1385850
v -0.0765400 -0.2000000 -0.1847800
v 0.0765400 -0.2000000 -0.1847800
v 0.0574050 -0.2000000 -0.1385850
v 0.0000000 -0.2000000 -0.1500000
v 0.0000000 -0.2000000 -0.2000000
v 0.1414200 -0.2000000 -0.1414200
v 0.1060650 -0.2000000 -0.1060650
v 0.0574050 -0.2000000 -0.1385850
v 0.0765400 -0.2000000 -0.1847800
v 0.1847800 -0.2000000 -0.0765400
v 0.1385850 -0.2000000 -0.0574050
v 0.1060650 -0.2000000 -0.1060650
v 0.1414200 -0.2000000 -0.1414200
v 0.2000000 -0.2000000 0.0000000
v 0.1500000 -0.2000000 0.0000000
v 0.1385850 -0.2000000 -0.0574050
v 0.1847800 -0.2000000 -0.0765400
v 0.1847800 -0.2000000 0.0765400
v 0.1385850 -0.2000000 0.0574050
v 0.1500000 -0.2000000 0.0000000
v 0.2000000 -0.2000000 0.0000000
v 0.1414200 -0.2000000 0.1414200
v 0.1060650 -0.2000000 0.1060650
v 0.1385850 -0.2000000 0.0574050
v 0.1847800 -0.2000000 0.0765400
v 0.0765400 -0.2000000 0.1847800
v 0.0574050 -0.2000000 0.1385850
v 0.1060650 -0.2000000 0.1060650
v 0.1414200 -0.2000000 0.1414200
v 0.0000000 -0.2000000 0.2000000
v 0.0000000 -0.2000000 0.1500000
v 0.0574050 -0.2000000 0.1385850
v 0.0765400 -0.2000000 0.1847800
v -0.1385850 -0.1000000 0.0574050
v -0.1500000 -0.1000000 0.0000000
v 0.0000000 -0.1000000 0.0000000
v -0.1060650 -0.1000000 0.1060650
v -0.1385850 -0.1000000 0.0574050
v 0.0000000 -0.1000000 0.0000000
v -0.0574050 -0.1000000 0.1385850
v -0.1060650 -0.1000000 0.1060650
v 0.0000000 -0.1000000 0.0000000
v 0.0000000 -0.1000000 0.1500000
v -0.0574050 -0.1000000 0.1385850
v 0.0000000 -0.1000000 0.0000000
v 0.0574050 -0.1000000 0.1385850
v 0.0000000 -0.1000000 0.1500000
v 0.0000000 -0.1000000 0.0000000
v 0.1060650 -0.1000000 0.1060650
v 0.0574050 -0.1000000 0.1385850
v 0.0000000 -0.1000000 0.0000000
v 0.1385850 -0.1000000 0.0574050
v 0.1060650 -0.1000000 0.1060650
v 0.0000000 -0.1000000 0.0000000
v 0.1500000 -0.1000000 0.0000000
v 0.1385850 -0.1000000 0.0574050
v 0.0000000 -0.1000000 0.0000000
v 0.1385850 -0.1000000 -0.0574050
v 0.1500000 -0.1000000 0.0000000
v 0.0000000 -0.1000000 0.0000000
v 0.1060650 -0.1000000 -0.1060650
v 0.1385850 -0.1000000 -0.0574050
v 0.0000000 -0.1000000 0.0000000
v 0.0574050 -0.1000000 -0.1385850
v 0.1060650 -0.1000000 -0.1060650
v 0.0000000 -0.1000000 0.0000000
v 0.0000000 -0.1000000 -0.1500000
v 0.0574050 -0.1000000 -0.1385850
v 0.0000000 -0.1000000 0.0000000
v -0.0574050 -0.1000000 -0.1385850
v 0.0000000 -0.1000000 -0.1500000
v 0.0000000 -0.1000000 0.0000000
v -0.1060650 -0.1000000 -0.1060650
v -0.0574050 -0.1000000 -0.1385850
v 0.0000000 -0.1000000 0.0000000
v -0.1385850 -0.1000000 -0.0574050
v -0.1060650 -0.1000000 -0.1060650
v 0.0000000 -0.1000000 0.0000000
v -0.1500000 -0.1000000 0.0000000
v -0.1385850 -0.1000000 -0.0574050
v 0.0000000 -0.1000000 0.0000000
v -0.1500000 -0.1000000 0.0000000
v -0.1385850 -0.1000000 0.0574050
v -0.1385850 -0.2000000 0.0574050
v -0.1500000 -0.2000000 0.0000000
v -0.1385850 -0.1000000 0.0574050
v -0.1060650 -0.1000000 0.1060650
v -0.1060650 -0.2000000 0.1060650
v -0.1385850 -0.2000000 0.0574050
v -0.1060650 -0.1000000 0.1060650
v -0.0574050 -0.1000000 0.1385850
v -0.0574050 -0.2000000 0.1385850
v -0.1060650 -0.2000000 0.1060650
v -0.0574050 -0.1000000 0.1385850
v 0.0000000 -0.1000000 0.1500000
v 0.0000000 -0.2000000 0.1500000
v -0.0574050 -0.2000000 0.1385850
v 0.0000000 -0.1000000 0.1500000
v 0.0574050 -0.1000000 0.1385850
v 0.0574050 -0.2000000 0.1385850
v 0.0000000 -0.2000000 0.1500000
v 0.0574050 -0.1000000 0.1385850
v 0.1060650 -0.1000000 0.1060650
v 0.1060650 -0.2000000 0.1060650
v 0.0574050 -0.2000000 0.1385850
v 0.1060650 -0.1000000 0.1060650
v 0.1385850 -0.1000000 0.0574050
v 0.1385850 -0.2000000 0.0574050
v 0.1060650 -0.2000000 0.1060650
v 0.1385850 -0.1000000 0.0574050
v 0.1500000 -0.1000000 0.0000000
v 0.1500000 -0.2000000 0.0000000
v 0.1385850 -0.2000000 0.0574050
v 0.1500000 -0.1000000 0.0000000
v 0.1385850 -0.1000000 -0.0574050
v 0.1385850 -0.2000000 -0.0574050
v 0.1500000 -0.2000000 0.0000000
v 0.1385850 -0.1000000 -0.0574050
v 0.1060650 -0.1000000 -0.1060650
v 0.1060650 -0.2000000 -0.1060650
v 0.1385850 -0.2000000 -0.0574050
v 0.1060650 -0.1000000 -0.1060650
v 0.0574050 -0.1000000 -0.1385850
v 0.0574050 -0.2000000 -0.1385850
v 0.1060650 -0.2000000 -0.1060650
v 0.0574050 -0.1000000 -0.1385850
v 0.0000000 -0.1000000 -0.1500000
v 0.0000000 -0.2000000 -0.1500000
v 0.0574050 -0.2000000 -0.1385850
v 0.0000000 -0.1000000 -0.1500000
v -0.0574050 -0.1000000 -0.1385850
v -0.0574050 -0.2000000 -0.1385850
v 0.0000000 -0.2000000 -0.1500000
v -0.0574050 -0.1000000 -0.1385850
v -0.1060650 -0.1000000 -0.1060650
v -0.1060650 -0.2000000 -0.1060650
v -0.0574050 -0.2000000 -0.1385850
v -0.1060650 -0.1000000 -0.1060650
v -0.1385850 -0.1000000 -0.0574050
v -0.1385850 -0.2000000 -0.0574050
v -0.1060650 -0.2000000 -0.1060650
v -0.1385850 -0.1000000 -0.0574050
v -0.1500000 -0.1000000 0.0000000
v -0.1500000 -0.2000000 0.0000000
v -0.1385850 -0.2000000 -0.0574050
v 0.2000000 -0.0000000 0.0000000
v 0.1847800 -0.0000000 0.0765400
v 0.1847800 -0.2000000 0.0765400
v 0.2000000 -0.2000000 0.0000000
v 0.1847800 -0.0000000 0.0765400
v 0.1414200 -0.0000000 0.1414200
v 0.1414200 -0.2000000 0.1414200
v 0.1847800 -0.2000000 0.0765400
v 0.1414200 -0.0000000 0.1414200
v 0.0765400 -0.0000000 0.1847800
v 0.0765400 -0.2000000 0.1847800
v 0.1414200 -0.2000000 0.1414200
v 0.0765400 -0.0000000 0.1847800
v 0.0000000 -0.0000000 0.2000000
v 0.0000000 -0.2000000 0.2000000
v 0.0765400 -0.2000000 0.1847800
v 0.0000000 -0.0000000 0.2000000
v -0.0765400 -0.0000000 0.1847800
v -0.0765400 -0.2000000 0.1847800
v 0.0000000 -0.2000000 0.2000000
v -0.0765400 -0.0000000 0.1847800
v -0.1414200 -0.0000000 0.1414200
v -0.1414200 -0.2000000 0.1414200
v -0.0765400 -0.2000000 0.1847800
v -0.1414200 -0.0000000 0.1414200
v -0.1847800 -0.0000000 0.0765400
v -0.1847800 -0.2000000 0.0765400
v -0.1414200 -0.2000000 0.1414200
v -0.1847800 -0.0000000 0.0765400
v -0.2000000 -0.0000000 0.0000000
v -0.2000000 -0.2000000 0.0000000
v -0.1847800 -0.2000000 0.0765400
v -0.2000000 -0.0000000 0.0000000
v -0.1847800 -0.0000000 -0.0765400
v -0.1847800 -0.2000000 -0.0765400
v -0.2000000 -0.2000000 0.0000000
v -0.1847800 -0.0000000 -0.0765400
v -0.1414200 -0.0000000 -0.1414200
v -0.1414200 -0.2000000 -0.1414200
v -0.1847800 -0.2000000 -0.0765400
v -0.1414200 -0.0000000 -0.1414200
v -0.0765400 -0.0000000 -0.1847800
v -0.0765400 -0.2000000 -0.1847800
v -0.1414200 -0.2000000 -0.1414200
v -0.0765400 -0.0000000 -0.1847800
v 0.0000000 -0.0000000 -0.2000000
v 0.0000000 -0.2000000 -0.2000000
v -0.0765400 -0.2000000 -0.1847800
v 0.0000000 -0.0000000 -0.2000000
v 0.0765400 -0.0000000 -0.1847800
v 0.0765400 -0.2000000 -0.1847800
v 0.0000000 -0.2000000 -0.2000000
v 0.0765400 -0.0000000 -0.1847800
v 0.1414200 -0.0000000 -0.1414200
v 0.1414200 -0.2000000 -0.1414200
v 0.0765400 -0.2000000 -0.1847800
v 0.1414200 -0.0000000 -0.1414200
v 0.1847800 -0.0000000 -0.0765400
v 0.1847800 -0.2000000 -0.0765400
v 0.1414200 -0.2000000 -0.1414200
v 0.1847800 -0.0000000 -0.0765400
v 0.2000000 -0.0000000 0.0000000
v 0.2000000 -0.2000000 0.0000000
v 0.1847800 -0.2000000 -0.0765400
v 0.0923900 -0.0125000 0.0382700
v 0.1000000 -0.0125000 0.0000000
v 0.0000000 -0.0125000 0.0000000
v 0.0707100 -0.0125000 0.0707100
v 0.0923900 -0.0125000 0.0382700
v 0.0000000 -0.0125000 0.0000000
v 0.0382700 -0.0125000 0.0923900
v 0.0707100 -0.0125000 0.0707100
v 0.0000000 -0.0125000 0.0000000
v 0.0000000 -0.0125000 0.1000000
v 0.0382700 -0.0125000 0.0923900
v 0.0000000 -0.0125000 0.0000000
v -0.0382700 -0.0125000 0.0923900
v 0.0000000 -0.0125000 0.1000000
v 0.0000000 -0.0125000 0.0000000
v -0.0707100 -0.0125000 0.0707100
v -0.0382700 -0.0125000 0.0923900
v 0.0000000 -0.0125000 0.0000000
v -0.0923900 -0.0125000 0.0382700
v -0.0707100 -0.0125000 0.0707100
v 0.0000000 -0.0125000 0.0000000
v -0.1000000 -0.0125000 0.0000000
v -0.0923900 -0.0125000 0.0382700
v 0.0000000 -0.0125000 0.0000000
v -0.0923900 -0.0125000 -0.0382700
v -0.1000000 -0.0125000 0.0000000
v 0.0000000 -0.0125000 0.0000000
v -0.0707100 -0.0125000 -0.0707100
v -0.0923900 -0.0125000 -0.0382700
v 0.0000000 -0.0125000 0.0000000
v -0.0382700 -0.0125000 -0.0923900
v -0.0707100 -0.0125000 -0.0707100
v 0.0000000 -0.0125000 0.0000000
v 0.0000000 -0.0125000 -0.1000000
v -0.0382700 -0.0125000 -0.0923900
v 0.0000000 -0.0125000 0.0000000
v 0.0382700 -0.0125000 -0.0923900
v 0.0000000 -0.0125000 -0.1000000
v 0.0000000 -0.0125000 0.0000000
v 0.0707100 -0.0125000 -0.0707100
v 0.0382700 -0.0125000 -0.0923900
v 0.0000000 -0.0125000 0.0000000
v 0.0923900 -0.0125000 -0.0382700
v 0.0707100 -0.0125000 -0.0707100
v 0.0000000 -0.0125000 0.0000000
v 0.1000000 -0.0125000 0.0000000
v 0.0923900 -0.0125000 -0.0382700
v 0.0000000 -0.0125000 0.0000000
v 0.1000000 -0.0125000 0.0000000
v 0.0923900 -0.0125000 0.0382700
v 0.0923900 -0.0000000 0.0382700
v 0.1000000 -0.0000000 0.0000000
v 0.0923900 -0.0125000 0.0382700
v 0.0707100 -0.0125000 0.0707100
v 0.0707100 -0.0000000 0.0707100
v 0.0923900 -0.0000000 0.0382700
v 0.0707100 -0.0125000 0.0707100
v 0.0382700 -0.0125000 0.0923900
v 0.0382700 -0.0000000 0.0923900
v 0.0707100 -0.0000000 0.0707100
v 0.0382700 -0.0125000 0.0923900
v 0.0000000 -0.0125000 0.1000000
v 0.0000000 -0.0000000 0.1000000
v 0.0382700 -0.0000000 0.0923900
v 0.0000000 -0.0125000 0.1000000
v -0.0382700 -0.0125000 0.0923900
v -0.0382700 -0.0000000 0.0923900
v 0.0000000 -0.0000000 0.1000000
v -0.0382700 -0.0125000 0.0923900
v -0.0707100 -0.0125000 0.0707100
v -0.0707100 -0.0000000 0.0707100
v -0.0382700 -0.0000000 0.0923900
v -0.0707100 -0.0125000 0.0707100
v -0.0923900 -0.0125000 0.0382700
v -0.0923900 -0.0000000 0.0382700
v -0.0707100 -0.0000000 0.0707100
v -0.0923900 -0.0125000 0.0382700
v -0.1000000 -0.0125000 0.0000000
v -0.1000000 -0.0000000 0.0000000
v -0.0923900 -0.0000000 0.0382700
v -0.1000000 -0.0125000 0.0000000
v -0.0923900 -0.0125000 -0.0382700
v -0.0923900 -0.0000000 -0.0382700
v -0.1000000 -0.0000000 0.0000000
v -0.0923900 -0.0125000 -0.0382700
v -0.0707100 -0.0125000 -0.0707100
v -0.0707100 -0.0000000 -0.0707100
v -0.0923900 -0.0000000 -0.0382700
v -0.0707100 -0.0125000 -0.0707100
v -0.0382700 -0.0125000 -0.0923900
v -0.0382700 -0.0000000 -0.0923900
v -0.0707100 -0.0000000 -0.0707100
v -0.0382700 -0.0125000 -0.0923900
v 0.0000000 -0.0125000 -0.1000000
v 0.0000000 -0.0000000 -0.1000000
v -0.0382700 -0.0000000 -0.0923900
v 0.0000000 -0.0125000 -0.1000000
v 0.0382700 -0.0125000 -0.0923900
v 0.0382700 -0.0000000 -0.0923900
v 0.0000000 -0.0000000 -0.1000000
v 0.0382700 -0.0125000 -0.0923900
v 0.0707100 -0.0125000 -0.0707100
v 0.0707100 -0.0000000 -0.0707100
v 0.0382700 -0.0000000 -0.0923900
v 0.0707100 -0.0125000 -0.0707100
v 0.0923900 -0.0125000 -0.0382700
v 0.0923900 -0.0000000 -0.0382700
v 0.0707100 -0.0000000 -0.0707100
v 0.0923900 -0.0125000 -0.0382700
v 0.1000000 -0.0125000 0.0000000
v 0.1000000 -0.0000000 0.0000000
v 0.0923900 -0.0000000 -0.0382700
v 0.0000000 -0.0000000 0.2000000
v 0.0000000 -0.0000000 0.1000000
v -0.0382700 -0.0000000 0.0923900
v -0.0765400 -0.0000000 0.1847800
v -0.0765400 -0.0000000 0.1847800
v -0.0382700 -0.0000000 0.0923900
v -0.0707100 -0.0000000 0.0707100
v -0.1414200 -0.0000000 0.1414200
v -0.1414200 -0.0000000 0.1414200
v -0.0707100 -0.0000000 0.0707100
v -0.0923900 -0.0000000 0.0382700
v -0.1847800 -0.0000000 0.0765400
v -0.1847800 -0.0000000 0.0765400
v -0.0923900 -0.0000000 0.0382700
v -0.1000000 -0.0000000 0.0000000
v -0.2000000 -0.0000000 0.0000000
v -0.2000000 -0.0000000 0.0000000
v -0.1000000 -0.0000000 0.0000000
v -0.0923900 -0.0000000 -0.0382700
v -0.1847800 -0.0000000 -0.0765400
v -0.1847800 -0.0000000 -0.0765400
v -0.0923900 -0.0000000 -0.0382700
v -0.0707100 -0.0000000 -0.0707100
v -0.1414200 -0.0000000 -0.1414200
v -0.1414200 -0.0000000 -0.1414200
v -0.0707100 -0.0000000 -0.0707100
v -0.0382700 -0.0000000 -0.0923900
v -0.0765400 -0.0000000 -0.1847800
v -0.0765400 -0.0000000 -0.1847800
v -0.0382700 -0.0000000 -0.0923900
v 0.0000000 -0.0000000 -0.1000000
v 0.0000000 -0.0000000 -0.2000000
v 0.0000000 -0.0000000 -0.2000000
v 0.0000000 -0.0000000 -0.1000000
v 0.0382700 -0.0000000 -0.0923900
v 0.0765400 -0.0000000 -0.1847800
v 0.0765400 -0.0000000 -0.1847800
v 0.0382700 -0.0000000 -0.0923900
v 0.0707100 -0.0000000 -0.0707100
v 0.1414200 -0.0000000 -0.1414200
v 0.1414200 -0.0000000 -0.1414200
v 0.0707100 -0.0000000 -0.0707100
v 0.0923900 -0.0000000 -0.0382700
v 0.1847800 -0.0000000 -0.0765400
v 0.1847800 -0.0000000 -0.0765400
v 0.0923900 -0.0000000 -0.0382700
v 0.1000000 -0.0000000 0.0000000
v 0.2000000 -0.0000000 0.0000000
v 0.2000000 -0.0000000 0.0000000
v 0.1000000 -0.0000000 0.0000000
v 0.0923900 -0.0000000 0.0382700
v 0.1847800 -0.0000000 0.0765400
v 0.1847800 -0.0000000 0.0765400
v 0.0923900 -0.0000000 0.0382700
v 0.0707100 -0.0000000 0.0707100
v 0.1414200 -0.0000000 0.1414200
v 0.1414200 -0.0000000 0.1414200
v 0.0707100 -0.0000000 0.0707100
v 0.0382700 -0.0000000 0.0923900
v 0.0765400 -0.0000000 0.1847800
v 0.0765400 -0.0000000 0.1847800
v 0.0382700 -0.0000000 0.0923900
v 0.0000000 -0.0000000 0.1000000
v 0.0000000 -0.0000000 0.2000000
s off
f 1 2 3
f 4 5 6
f 7 8 9
f 10 11 12
f 10 12 13
f 14 15 16
f 17 18 19
f 20 21 22
f 23 24 25
f 23 25 26
f 27 28 29
f 27 29 30
f 31 32 33
f 31 33 34
f 35 36 37
f 35 37 38
f 39 40 41
f 39 41 42
f 43 44 45
f 43 45 46
f 47 48 49
f 47 49 50
f 51 52 53
f 51 53 54
f 55 56 57
f 55 57 58
f 59 60 61
f 59 61 62
f 63 64 65
f 63 65 66
f 67 68 69
f 67 69 70
f 71 72 73
f 71 73 74
f 75 76 77
f 75 77 78
f 79 80 81
f 79 81 82
f 83 84 85
f 83 85 86
f 87 88 89
f 90 91 92
f 93 94 95
f 96 97 98
f 99 100 101
f 102 103 104
f 105 106 107
f 108 109 110
f 111 112 113
f 114 115 116
f 117 118 119
f 120 121 122
f 123 124 125
f 126 127 128
f 129 130 131
f 132 133 134
f 132 134 135
f 136 137 138
f 139 140 141
f 142 143 144
f 145 146 147
f 145 147 148
f 149 150 151
f 149 151 152
f 153 154 155
f 153 155 156
f 157 158 159
f 157 159 160
f 161 162 163
f 161 163 164
f 165 166 167
f 165 167 168
f 169 170 171
f 169 171 172
f 173 174 175
f 173 175 176
f 177 178 179
f 177 179 180
f 181 182 183
f 181 183 184
f 185 186 187
f 185 187 188
f 189 190 191
f 189 191 192
f 193 194 195
f 193 195 196
f 197 198 199
f 197 199 200
f 201 202 203
f 201 203 204
f 205 206 207
f 205 207 208
f 209 210 211
f 212 213 214
f 215 216 217
f 218 219 220
f 221 222 223
f 224 225 226
f 227 228 229
f 230 231 232
f 233 234 235
f 236 237 238
f 239 240 241
f 242 243 244
f 245 246 247
f 248 249 250
f 248 250 251
f 252 253 254
f 252 254 255
f 256 257 258
f 256 258 259
f 260 261 262
f 260 262 263
f 264 265 266
f 264 266 267
f 268 269 270
f 268 270 271
f 272 273 274
f 275 276 277
f 275 277 278
f 279 280 281
f 279 281 282
f 283 284 285
f 283 285 286
f 287 288 289
f 287 289 290
f 291 292 293
f 291 293 294
f 295 296 297
f 295 297 298
f 299 300 301
f 299 301 302
f 303 304 305
f 303 305 306
f 307 308 309
f 307 309 310
f 311 312 313
f 311 313 314
f 315 316 317
f 318 319 320
f 321 322 323
f 324 325 326
f 327 328 329
f 330 331 332
f 333 334 335
f 336 337 338
f 339 340 341
f 342 343 344
f 345 346 347
f 348 349 350
f 348 350 351
f 352 353 354
f 355 356 357
f 358 359 360
f 361 362 363
f 364 365 366
f 367 368 369
f 370 371 372
f 373 374 375
f 376 377 378
f 379 380 381
f 382 383 384
f 385 386 387
f 388 389 390
f 391 392 393
f 391 393 394
f 395 396 397
f 395 397 398
f 399 400 401
f 402 403 404
f 405 406 407
f 405 407 408
f 409 410 411
f 409 411 412
f 413 414 415
f 413 415 416
f 417 418 419
f 420 421 422
f 420 422 423
f 424 425 426
f 424 426 427
f 428 429 430
f 431 432 433
f 434 435 436
f 437 438 439
f 440 441 442
f 443 444 445
f 446 447 448
f 446 448 449
f 450 451 452
f 453 454 455
f 456 457 458
f 459 460 461
f 459 461 462
f 463 464 465
f 463 465 466
f 467 468 469
f 467 469 470
f 471 472 473
f 471 473 474
f 475 476 477
f 475 477 478
f 479 480 481
f 479 481 482
f 483 484 485
f 483 485 486
f 487 488 489
f 487 489 490
f 491 492 493
f 491 493 494
f 495 496 497
f 495 497 498
f 499 500 501
f 499 501 502
f 503 504 505
f 503 505 506
f 507 508 509
f 507 509 510
f 511 512 513
f 511 513 514
f 515 516 517
f 515 517 518
f 519 520 521
f 519 521 522
f 523 524 525
f 526 527 528
f 529 530 531
f 532 533 534
f 535 536 537
f 538 539 540
f 541 542 543
f 544 545 546
f 547 548 549
f 550 551 552
f 553 554 555
f 556 557 558
f 559 560 561
f 562 563 564
f 565 566 567
f 568 569 570
f 568 570 571
f 572 573 574
f 575 576 577
f 578 579 580
f 581 582 583
f 581 583 584
f 585 586 587
f 585 587 588
f 589 590 591
f 589 591 592
f 593 594 595
f 593 595 596
f 597 598 599
f 597 599 600
f 601 602 603
f 601 603 604
f 605 606 607
f 605 607 608
f 609 610 611
f 609 611 612
f 613 614 615
f 613 615 616
f 617 618 619
f 617 619 620
f 621 622 623
f 621 623 624
f 625 626 627
f 625 627 628
f 629 630 631
f 629 631 632
f 633 634 635
f 633 635 636
f 637 638 639
f 637 639 640
f 641 642 643
f 641 643 644
f 645 646 647
f 648 649 650
f 651 652 653
f 654 655 656
f 657 658 659
f 660 661 662
f 663 664 665
f 666 667 668
f 669 670 671
f 672 673 674
f 675 676 677
f 678 679 680
f 681 682 683
f 684 685 686
f 684 686 687
f 688 689 690
f 688 690 691
f 692 693 694
f 692 694 695
f 696 697 698
f 696 698 699
f 700 701 702
f 700 702 703
f 704 705 706
f 704 706 707
f 708 709 710
f 711 712 713
f 711 713 714
f 715 716 717
f 715 717 718
f 719 720 721
f 719 721 722
f 723 724 725
f 723 725 726
f 727 728 729
f 727 729 730
f 731 732 733
f 731 733 734
f 735 736 737
f 735 737 738
f 739 740 741
f 739 741 742
f 743 744 745
f 743 745 746
f 747 748 749
f 747 749 750
f 751 752 753
f 754 755 756
f 757 758 759
f 760 761 762
f 763 764 765
f 766 767 768
f 769 770 771
f 772 773 774
f 775 776 777
f 778 779 780
f 781 782 783
f 784 785 786
f 784 786 787
f 788 789 790
f 791 792 793
f 794 795 796
f 797 798 799
f 800 801 802
f 803 804 805
f 806 807 808
f 809 810 811
f 812 813 814
f 815 816 817
f 818 819 820
f 821 822 823
f 824 825 826
f 827 828 829
f 827 829 830
f 831 832 833
f 831 833 834
f 835 836 837
f 838 839 840
f 841 842 843
f 841 843 844
f 845 846 847
f 845 847 848
f 849 850 851
f 849 851 852
f 853 854 855
f 856 857 858
f 856 858 859
f 860 861 862
f 860 862 863
f 864 865 866
f 867 868 869
f 870 871 872
f 873 874 875
f 876 877 878
f 879 880 881
f 882 883 884
f 882 884 885
f 886 887 888
f 889 890 891
f 892 893 894
f 895 896 897
f 895 897 898
f 899 900 901
f 899 901 902
f 903 904 905
f 903 905 906
f 907 908 909
f 907 909 910
f 911 912 913
f 911 913 914
f 915 916 917
f 915 917 918
f 919 920 921
f 919 921 922
f 923 924 925
f 923 925 926
f 927 928 929
f 927 929 930
f 931 932 933
f 931 933 934
f 935 936 937
f 935 937 938
f 939 940 941
f 939 941 942
f 943 944 945
f 943 945 946
f 947 948 949
f 947 949 950
f 951 952 953
f 951 953 954
f 955 956 957
f 955 957 958
f 959 960 961
f 962 963 964
f 965 966 967
f 968 969 970
f 971 972 973
f 974 975 976
f 977 978 979
f 980 981 982
f 983 984 985
f 986 987 988
f 989 990 991
f 992 993 994
f 995 996 997
f 998 999 1000
f 1001 1002 1003
f 1004 1005 1006
f 1004 1006 1007
f 1008 1009 1010
f 1011 1012 1013
f 1014 1015 1016
f 1017 1018 1019
f 1017 1019 1020
f 1021 1022 1023
f 1021 1023 1024
f 1025 1026 1027
f 1025 1027 1028
f 1029 1030 1031
f 1029 1031 1032
f 1033 1034 1035
f 1033 1035 1036
f 1037 1038 1039
f 1037 1039 1040
f 1041 1042 1043
f 1041 1043 1044
f 1045 1046 1047
f 1045 1047 1048
f 1049 1050 1051
f 1049 1051 1052
f 1053 1054 1055
f 1053 1055 1056
f 1057 1058 1059
f 1057 1059 1060
f 1061 1062 1063
f 1061 1063 1064
f 1065 1066 1067
f 1065 1067 1068
f 1069 1070 1071
f 1069 1071 1072
f 1073 1074 1075
f 1073 1075 1076
f 1077 1078 1079
f 1077 1079 1080
f 1081 1082 1083
f 1084 1085 1086
f 1087 1088 1089
f 1090 1091 1092
f 1093 1094 1095
f 1096 1097 1098
f 1099 1100 1101
f 1102 1103 1104
f 1105 1106 1107
f 1108 1109 1110
f 1111 1112 1113
f 1114 1115 1116
f 1117 1118 1119
f 1120 1121 1122
f 1120 1122 1123
f 1124 1125 1126
f 1124 1126 1127
f 1128 1129 1130
f 1128 1130 1131
f 1132 1133 1134
f 1132 1134 1135
f 1136 1137 1138
f 1136 1138 1139
f 1140 1141 1142
f 1140 1142 1143
f 1144 1145 1146
f 1147 1148 1149
f 1147 1149 1150
f 1151 1152 1153
f 1151 1153 1154
f 1155 1156 1157
f 1155 1157 1158
f 1159 1160 1161
f 1159 1161 1162
f 1163 1164 1165
f 1163 1165 1166
f 1167 1168 1169
f 1167 1169 1170
f 1171 1172 1173
f 1171 1173 1174
f 1175 1176 1177
f 1175 1177 1178
f 1179 1180 1181
f 1179 1181 1182
f 1183 1184 1185
f 1183 1185 1186
f 1187 1188 1189
f 1190 1191 1192
f 1193 1194 1195
f 1196 1197 1198
f 1199 1200 1201
f 1202 1203 1204
f 1205 1206 1207
f 1208 1209 1210
f 1211 1212 1213
f 1214 1215 1216
f 1217 1218 1219
f 1220 1221 1222
f 1220 1222 1223
f 1224 1225 1226
f 1227 1228 1229
f 1230 1231 1232
f 1233 1234 1235
f 1236 1237 1238
f 1239 1240 1241
f 1242 1243 1244
f 1245 1246 1247
f 1248 1249 1250
f 1251 1252 1253
f 1254 1255 1256
f 1257 1258 1259
f 1260 1261 1262
f 1263 1264 1265
f 1263 1265 1266
f 1267 1268 1269
f 1267 1269 1270
f 1271 1272 1273
f 1274 1275 1276
f 1277 1278 1279
f 1277 1279 1280
f 1281 1282 1283
f 1281 1283 1284
f 1285 1286 1287
f 1285 1287 1288
f 1289 1290 1291
f 1292 1293 1294
f 1292 1294 1295
f 1296 1297 1298
f 1296 1298 1299
f 1300 1301 1302
f 1303 1304 1305
f 1306 1307 1308
f 1309 1310 1311
f 1312 1313 1314
f 1315 1316 1317
f 1318 1319 1320
f 1318 1320 1321
f 1322 1323 1324
f 1325 1326 1327
f 1328 1329 1330
f 1331 1332 1333
f 1331 1333 1334
f 1335 1336 1337
f 1335 1337 1338
f 1339 1340 1341
f 1339 1341 1342
f 1343 1344 1345
f 1343 1345 1346
f 1347 1348 1349
f 1347 1349 1350
f 1351 1352 1353
f 1351 1353 1354
f 1355 1356 1357
f 1355 1357 1358
f 1359 1360 1361
f 1359 1361 1362
f 1363 1364 1365
f 1363 1365 1366
f 1367 1368 1369
f 1367 1369 1370
f 1371 1372 1373
f 1371 1373 1374
f 1375 1376 1377
f 1375 1377 1378
f 1379 1380 1381
f 1379 1381 1382
f 1383 1384 1385
f 1383 1385 1386
f 1387 1388 1389
f 1387 1389 1390
f 1391 1392 1393
f 1391 1393 1394
f 1395 1396 1397
f 1398 1399 1400
f 1401 1402 1403
f 1404 1405 1406
f 1407 1408 1409
f 1410 1411 1412
f 1413 1414 1415
f 1416 1417 1418
f 1419 1420 1421
f 1422 1423 1424
f 1425 1426 1427
f 1428 1429 1430
f 1431 1432 1433
f 1434 1435 1436
f 1437 1438 1439
f 1440 1441 1442
f 1440 1442 1443
f 1444 1445 1446
f 1447 1448 1449
f 1450 1451 1452
f 1453 1454 1455
f 1453 1455 1456
f 1457 1458 1459
f 1457 1459 1460
f 1461 1462 1463
f 1461 1463 1464
f 1465 1466 1467
f 1465 1467 1468
f 1469 1470 1471
f 1469 1471 1472
f 1473 1474 1475
f 1473 1475 1476
f 1477 1478 1479
f 1477 1479 1480
f 1481 1482 1483
f 1481 1483 1484
f 1485 1486 1487
f 1485 1487 1488
f 1489 1490 1491
f 1489 1491 1492
f 1493 1494 1495
f 1493 1495 1496
f 1497 1498 1499
f 1497 1499 1500
f 1501 1502 1503
f 1501 1503 1504
f 1505 1506 1507
f 1505 1507 1508
f 1509 1510 1511
f 1509 1511 1512
f 1513 1514 1515
f 1513 1515 1516
f 1517 1518 1519
f 1520 1521 1522
f 1523 1524 1525
f 1526 1527 1528
f 1529 1530 1531
f 1532 1533 1534
f 1535 1536 1537
f 1538 1539 1540
f 1541 1542 1543
f 1544 1545 1546
f 1547 1548 1549
f 1550 1551 1552
f 1553 1554 1555
f 1556 1557 1558
f 1556 1558 1559
f 1560 1561 1562
f 1560 1562 1563
f 1564 1565 1566
f 1564 1566 1567
f 1568 1569 1570
f 1568 1570 1571
f 1572 1573 1574
f 1572 1574 1575
f 1576 1577 1578
f 1576 1578 1579
f 1580 1581 1582
f 1583 1584 1585
f 1583 1585 1586
f 1587 1588 1589
f 1587 1589 1590
f 1591 1592 1593
f 1591 1593 1594
f 1595 1596 1597
f 1595 1597 1598
f 1599 1600 1601
f 1599 1601 1602
f 1603 1604 1605
f 1603 1605 1606
f 1607 1608 1609
f 1607 1609 1610
f 1611 1612 1613
f 1611 1613 1614
f 1615 1616 1617
f 1615 1617 1618
f 1619 1620 1621
f 1619 1621 1622
f 1623 1624 1625
f 1626 1627 1628
f 1629 1630 1631
f 1632 1633 1634
f 1635 1636 1637
f 1638 1639 1640
f 1641 1642 1643
f 1644 1645 1646
f 1647 1648 1649
f 1650 1651 1652
f 1653 1654 1655
f 1656 1657 1658
f 1656 1658 1659
f 1660 1661 1662
f 1663 1664 1665
f 1666 1667 1668
f 1669 1670 1671
f 1672 1673 1674
f 1675 1676 1677
f 1678 1679 1680
f 1681 1682 1683
f 1684 1685 1686
f 1687 1688 1689
f 1690 1691 1692
f 1693 1694 1695
f 1696 1697 1698
f 1699 1700 1701
f 1699 1701 1702
f 1703 1704 1705
f 1703 1705 1706
f 1707 1708 1709
f 1710 1711 1712
f 1713 1714 1715
f 1713 1715 1716
f 1717 1718 1719
f 1717 1719 1720
f 1721 1722 1723
f 1721 1723 1724
f 1725 1726 1727
f 1728 1729 1730
f 1728 1730 1731
f 1732 1733 1734
f 1732 1734 1735
f 1736 1737 1738
f 1739 1740 1741
f 1742 1743 1744
f 1745 1746 1747
f 1745 1747 1748
f 1749 1750 1751
f 1749 1751 1752
f 1753 1754 1755
f 1753 1755 1756
f 1757 1758 1759
f 1757 1759 1760
f 1761 1762 1763
f 1761 1763 1764
f 1765 1766 1767
f 1765 1767 1768
f 1769 1770 1771
f 1769 1771 1772
f 1773 1774 1775
f 1773 1775 1776
f 1777 1778 1779
f 1777 1779 1780
f 1781 1782 1783
f 1781 1783 1784
f 1785 1786 1787
f 1785 1787 1788
f 1789 1790 1791
f 1789 1791 1792
f 1793 1794 1795
f 1793 1795 1796
f 1797 1798 1799
f 1797 1799 1800
f 1801 1802 1803
f 1801 1803 1804
f 1805 1806 1807
f 1805 1807 1808
f 1809 1810 1811
f 1809 1811 1812
f 1813 1814 1815
f 1813 1815 1816
f 1817 1818 1819
f 1817 1819 1820
f 1821 1822 1823
f 1821 1823 1824
f 1825 1826 1827
f 1825 1827 1828
f 1829 1830 1831
f 1829 1831 1832
f 1833 1834 1835
f 1833 1835 1836
f 1837 1838 1839
f 1837 1839 1840
f 1841 1842 1843
f 1841 1843 1844
f 1845 1846 1847
f 1845 1847 1848
f 1849 1850 1851
f 1849 1851 1852
f 1853 1854 1855
f 1853 1855 1856
f 1857 1858 1859
f 1857 1859 1860
f 1861 1862 1863
f 1861 1863 1864
f 1865 1866 1867
f 1865 1867 1868
f 1869 1870 1871
f 1869 1871 1872
f 1873 1874 1875
f 1873 1875 1876
f 1877 1878 1879
f 1877 1879 1880
f 1881 1882 1883
f 1881 1883 1884
f 1885 1886 1887
f 1885 1887 1888
f 1889 1890 1891
f 1889 1891 1892
f 1893 1894 1895
f 1893 1895 1896
f 1897 1898 1899
f 1897 1899 1900
f 1901 1902 1903
f 1901 1903 1904
f 1905 1906 1907
f 1905 1907 1908
f 1909 1910 1911
f 1909 1911 1912
f 1913 1914 1915
f 1913 1915 1916
f 1917 1918 1919
f 1917 1919 1920
f 1921 1922 1923
f 1921 1923 1924
f 1925 1926 1927
f 1925 1927 1928
f 1929 1930 1931
f 1929 1931 1932
f 1933 1934 1935
f 1933 1935 1936
f 1937 1938 1939
f 1937 1939 1940
f 1941 1942 1943
f 1941 1943 1944
f 1945 1946 1947
f 1945 1947 1948
f 1949 1950 1951
f 1949 1951 1952
f 1953 1954 1955
f 1953 1955 1956
f 1957 1958 1959
f 1957 1959 1960
f 1961 1962 1963
f 1961 1963 1964
f 1965 1966 1967
f 1965 1967 1968
f 1969 1970 1971
f 1969 1971 1972
f 1973 1974 1975
f 1973 1975 1976
f 1977 1978 1979
f 1977 1979 1980
f 1981 1982 1983
f 1981 1983 1984
f 1985 1986 1987
f 1985 1987 1988
f 1989 1990 1991
f 1989 1991 1992
f 1993 1994 1995
f 1993 1995 1996
f 1997 1998 1999
f 1997 1999 2000
f 2001 2002 2003
f 2004 2005 2006
f 2007 2008 2009
f 2010 2011 2012
f 2013 2014 2015
f 2016 2017 2018
f 2019 2020 2021
f 2022 2023 2024
f 2025 2026 2027
f 2028 2029 2030
f 2031 2032 2033
f 2034 2035 2036
f 2037 2038 2039
f 2040 2041 2042
f 2043 2044 2045
f 2046 2047 2048
f 2049 2050 2051
f 2049 2051 2052
f 2053 2054 2055
f 2053 2055 2056
f 2057 2058 2059
f 2057 2059 2060
f 2061 2062 2063
f 2061 2063 2064
f 2065 2066 2067
f 2065 2067 2068
f 2069 2070 2071
f 2069 2071 2072
f 2073 2074 2075
f 2073 2075 2076
f 2077 2078 2079
f 2077 2079 2080
f 2081 2082 2083
f 2081 2083 2084
f 2085 2086 2087
f 2085 2087 2088
f 2089 2090 2091
f 2089 2091 2092
f 2093 2094 2095
f 2093 2095 2096
f 2097 2098 2099
f 2097 2099 2100
f 2101 2102 2103
f 2101 2103 2104
f 2105 2106 2107
f 2105 2107 2108
f 2109 2110 2111
f 2109 2111 2112
f 2113 2114 2115
f 2113 2115 2116
f 2117 2118 2119
f 2117 2119 2120
f 2121 2122 2123
f 2121 2123 2124
f 2125 2126 2127
f 2125 2127 2128
f 2129 2130 2131
f 2129 2131 2132
f 2133 2134 2135
f 2133 2135 2136
f 2137 2138 2139
f 2137 2139 2140
f 2141 2142 2143
f 2141 2143 2144
f 2145 2146 2147
f 2145 2147 2148
f 2149 2150 2151
f 2149 2151 2152
f 2153 2154 2155
f 2153 2155 2156
f 2157 2158 2159
f 2157 2159 2160
f 2161 2162 2163
f 2161 2163 2164
f 2165 2166 2167
f 2165 2167 2168
f 2169 2170 2171
f 2169 2171 2172
f 2173 2174 2175
f 2173 2175 2176
f 2177 2178 2179
f 2180 2181 2182
f 2183 2184 2185
f 2186 2187 2188
f 2189 2190 2191
f 2192 2193 2194
f 2195 2196 2197
f 2198 2199 2200
f 2201 2202 2203
f 2204 2205 2206
f 2207 2208 2209
f 2210 2211 2212
f 2213 2214 2215
f 2216 2217 2218
f 2219 2220 2221
f 2222 2223 2224
f 2225 2226 2227
f 2225 2227 2228
f 2229 2230 2231
f 2229 2231 2232
f 2233 2234 2235
f 2233 2235 2236
f 2237 2238 2239
f 2237 2239 2240
f 2241 2242 2243
f 2241 2243 2244
f 2245 2246 2247
f 2245 2247 2248
f 2249 2250 2251
f 2249 2251 2252
f 2253 2254 2255
f 2253 2255 2256
f 2257 2258 2259
f 2257 2259 2260
f 2261 2262 2263
f 2261 2263 2264
f 2265 2266 2267
f 2265 2267 2268
f 2269 2270 2271
f 2269 2271 2272
f 2273 2274 2275
f 2273 2275 2276
f 2277 2278 2279
f 2277 2279 2280
f 2281 2282 2283
f 2281 2283 2284
f 2285 2286 2287
f 2285 2287 2288
f 2289 2290 2291
f 2289 2291 2292
f 2293 2294 2295
f 2293 2295 2296
f 2297 2298 2299
f 2297 2299 2300
f 2301 2302 2303
f 2301 2303 2304
f 2305 2306 2307
f 2305 2307 2308
f 2309 2310 2311
f 2309 2311 2312
f 2313 2314 2315
f 2313 2315 2316
f 2317 2318 2319
f 2317 2319 2320
f 2321 2322 2323
f 2321 2323 2324
f 2325 2326 2327
f 2325 2327 2328
f 2329 2330 2331
f 2329 2331 2332
f 2333 2334 2335
f 2333 2335 2336
f 2337 2338 2339
f 2337 2339 2340
f 2341 2342 2343
f 2341 2343 2344
f 2345 2346 2347
f 2345 2347 2348
f 2349 2350 2351
f 2349 2351 2352
