# Baked from official LDraw part 4070.dat
o ldraw_4070
v -0.2500000 -0.6000000 0.2500000
v -0.1500000 -0.6000000 0.1500000
v 0.1500000 -0.6000000 0.1500000
v 0.2500000 -0.6000000 0.2500000
v -0.2500000 -0.6000000 -0.2500000
v -0.1500000 -0.6000000 -0.1500000
v -0.1500000 -0.6000000 0.1500000
v -0.2500000 -0.6000000 0.2500000
v 0.2500000 -0.6000000 -0.2500000
v 0.1500000 -0.6000000 -0.1500000
v -0.1500000 -0.6000000 -0.1500000
v -0.2500000 -0.6000000 -0.2500000
v 0.2500000 -0.6000000 0.2500000
v 0.1500000 -0.6000000 0.1500000
v 0.1500000 -0.6000000 -0.1500000
v 0.2500000 -0.6000000 -0.2500000
v 0.2500000 -0.5000000 -0.1500000
v 0.2500000 -0.5000000 -0.2500000
v -0.2500000 -0.5000000 -0.2500000
v -0.2500000 -0.5000000 -0.1500000
v -0.1500000 -0.5000000 -0.0500000
v -0.1500000 -0.5000000 -0.1500000
v 0.1500000 -0.5000000 -0.1500000
v 0.1500000 -0.5000000 -0.0500000
v 0.1500000 -0.4000000 0.2500000
v 0.1500000 -0.4000000 0.1500000
v -0.1500000 -0.4000000 0.1500000
v -0.1500000 -0.4000000 0.2500000
v -0.1500000 -0.1000000 0.2500000
v -0.1500000 -0.1000000 -0.0500000
v 0.1500000 -0.1000000 -0.0500000
v 0.1500000 -0.1000000 0.2500000
v 0.2500000 -0.0000000 0.2500000
v 0.2500000 -0.0000000 -0.1500000
v -0.2500000 -0.0000000 -0.1500000
v -0.2500000 -0.0000000 0.2500000
v 0.0923900 -0.2117300 -0.0500000
v 0.1000000 -0.2500000 -0.0500000
v 0.1000000 -0.1500000 -0.0500000
v 0.0707100 -0.1792900 -0.0500000
v 0.0923900 -0.2117300 -0.0500000
v 0.1000000 -0.1500000 -0.0500000
v 0.0382700 -0.1576100 -0.0500000
v 0.0707100 -0.1792900 -0.0500000
v 0.1000000 -0.1500000 -0.0500000
v 0.0000000 -0.1500000 -0.0500000
v 0.0382700 -0.1576100 -0.0500000
v 0.1000000 -0.1500000 -0.0500000
v -0.0382700 -0.1576100 -0.0500000
v 0.0000000 -0.1500000 -0.0500000
v -0.1000000 -0.1500000 -0.0500000
v -0.0707100 -0.1792900 -0.0500000
v -0.0382700 -0.1576100 -0.0500000
v -0.1000000 -0.1500000 -0.0500000
v -0.0923900 -0.2117300 -0.0500000
v -0.0707100 -0.1792900 -0.0500000
v -0.1000000 -0.1500000 -0.0500000
v -0.1000000 -0.2500000 -0.0500000
v -0.0923900 -0.2117300 -0.0500000
v -0.1000000 -0.1500000 -0.0500000
v -0.0923900 -0.2882700 -0.0500000
v -0.1000000 -0.2500000 -0.0500000
v -0.1000000 -0.3500000 -0.0500000
v -0.0707100 -0.3207100 -0.0500000
v -0.0923900 -0.2882700 -0.0500000
v -0.1000000 -0.3500000 -0.0500000
v -0.0382700 -0.3423900 -0.0500000
v -0.0707100 -0.3207100 -0.0500000
v -0.1000000 -0.3500000 -0.0500000
v 0.0000000 -0.3500000 -0.0500000
v -0.0382700 -0.3423900 -0.0500000
v -0.1000000 -0.3500000 -0.0500000
v 0.0382700 -0.3423900 -0.0500000
v 0.0000000 -0.3500000 -0.0500000
v 0.1000000 -0.3500000 -0.0500000
v 0.0707100 -0.3207100 -0.0500000
v 0.0382700 -0.3423900 -0.0500000
v 0.1000000 -0.3500000 -0.0500000
v 0.0923900 -0.2882700 -0.0500000
v 0.0707100 -0.3207100 -0.0500000
v 0.1000000 -0.3500000 -0.0500000
v 0.1000000 -0.2500000 -0.0500000
v 0.0923900 -0.2882700 -0.0500000
v 0.1000000 -0.3500000 -0.0500000
v 0.1000000 -0.2500000 -0.1500000
v 0.0923900 -0.2882700 -0.1500000
v 0.0923900 -0.2882700 -0.0500000
v 0.1000000 -0.2500000 -0.0500000
v 0.0923900 -0.2882700 -0.1500000
v 0.0707100 -0.3207100 -0.1500000
v 0.0707100 -0.3207100 -0.0500000
v 0.0923900 -0.2882700 -0.0500000
v 0.0707100 -0.3207100 -0.1500000
v 0.0382700 -0.3423900 -0.1500000
v 0.0382700 -0.3423900 -0.0500000
v 0.0707100 -0.3207100 -0.0500000
v 0.0382700 -0.3423900 -0.1500000
v 0.0000000 -0.3500000 -0.1500000
v 0.0000000 -0.3500000 -0.0500000
v 0.0382700 -0.3423900 -0.0500000
v 0.0000000 -0.3500000 -0.1500000
v -0.0382700 -0.3423900 -0.1500000
v -0.0382700 -0.3423900 -0.0500000
v 0.0000000 -0.3500000 -0.0500000
v -0.0382700 -0.3423900 -0.1500000
v -0.0707100 -0.3207100 -0.1500000
v -0.0707100 -0.3207100 -0.0500000
v -0.0382700 -0.3423900 -0.0500000
v -0.0707100 -0.3207100 -0.1500000
v -0.0923900 -0.2882700 -0.1500000
v -0.0923900 -0.2882700 -0.0500000
v -0.0707100 -0.3207100 -0.0500000
v -0.0923900 -0.2882700 -0.1500000
v -0.1000000 -0.2500000 -0.1500000
v -0.1000000 -0.2500000 -0.0500000
v -0.0923900 -0.2882700 -0.0500000
v -0.1000000 -0.2500000 -0.1500000
v -0.0923900 -0.2117300 -0.1500000
v -0.0923900 -0.2117300 -0.0500000
v -0.1000000 -0.2500000 -0.0500000
v -0.0923900 -0.2117300 -0.1500000
v -0.0707100 -0.1792900 -0.1500000
v -0.0707100 -0.1792900 -0.0500000
v -0.0923900 -0.2117300 -0.0500000
v -0.0707100 -0.1792900 -0.1500000
v -0.0382700 -0.1576100 -0.1500000
v -0.0382700 -0.1576100 -0.0500000
v -0.0707100 -0.1792900 -0.0500000
v -0.0382700 -0.1576100 -0.1500000
v 0.0000000 -0.1500000 -0.1500000
v 0.0000000 -0.1500000 -0.0500000
v -0.0382700 -0.1576100 -0.0500000
v 0.0000000 -0.1500000 -0.1500000
v 0.0382700 -0.1576100 -0.1500000
v 0.0382700 -0.1576100 -0.0500000
v 0.0000000 -0.1500000 -0.0500000
v 0.0382700 -0.1576100 -0.1500000
v 0.0707100 -0.1792900 -0.1500000
v 0.0707100 -0.1792900 -0.0500000
v 0.0382700 -0.1576100 -0.0500000
v 0.0707100 -0.1792900 -0.1500000
v 0.0923900 -0.2117300 -0.1500000
v 0.0923900 -0.2117300 -0.0500000
v 0.0707100 -0.1792900 -0.0500000
v 0.0923900 -0.2117300 -0.1500000
v 0.1000000 -0.2500000 -0.1500000
v 0.1000000 -0.2500000 -0.0500000
v 0.0923900 -0.2117300 -0.0500000
v 0.1385850 -0.3074050 -0.1500000
v 0.1500000 -0.2500000 -0.1500000
v 0.1500000 -0.4000000 -0.1500000
v 0.1060650 -0.3560650 -0.1500000
v 0.1385850 -0.3074050 -0.1500000
v 0.1500000 -0.4000000 -0.1500000
v 0.0574050 -0.3885850 -0.1500000
v 0.1060650 -0.3560650 -0.1500000
v 0.1500000 -0.4000000 -0.1500000
v 0.0000000 -0.4000000 -0.1500000
v 0.0574050 -0.3885850 -0.1500000
v 0.1500000 -0.4000000 -0.1500000
v -0.0574050 -0.3885850 -0.1500000
v 0.0000000 -0.4000000 -0.1500000
v -0.1500000 -0.4000000 -0.1500000
v -0.1060650 -0.3560650 -0.1500000
v -0.0574050 -0.3885850 -0.1500000
v -0.1500000 -0.4000000 -0.1500000
v -0.1385850 -0.3074050 -0.1500000
v -0.1060650 -0.3560650 -0.1500000
v -0.1500000 -0.4000000 -0.1500000
v -0.1500000 -0.2500000 -0.1500000
v -0.1385850 -0.3074050 -0.1500000
v -0.1500000 -0.4000000 -0.1500000
v -0.1385850 -0.1925950 -0.1500000
v -0.1500000 -0.2500000 -0.1500000
v -0.1500000 -0.1000000 -0.1500000
v -0.1060650 -0.1439350 -0.1500000
v -0.1385850 -0.1925950 -0.1500000
v -0.1500000 -0.1000000 -0.1500000
v -0.0574050 -0.1114150 -0.1500000
v -0.1060650 -0.1439350 -0.1500000
v -0.1500000 -0.1000000 -0.1500000
v 0.0000000 -0.1000000 -0.1500000
v -0.0574050 -0.1114150 -0.1500000
v -0.1500000 -0.1000000 -0.1500000
v 0.0574050 -0.1114150 -0.1500000
v 0.0000000 -0.1000000 -0.1500000
v 0.1500000 -0.1000000 -0.1500000
v 0.1060650 -0.1439350 -0.1500000
v 0.0574050 -0.1114150 -0.1500000
v 0.1500000 -0.1000000 -0.1500000
v 0.1385850 -0.1925950 -0.1500000
v 0.1060650 -0.1439350 -0.1500000
v 0.1500000 -0.1000000 -0.1500000
v 0.1500000 -0.2500000 -0.1500000
v 0.1385850 -0.1925950 -0.1500000
v 0.1500000 -0.1000000 -0.1500000
v -0.2500000 -0.6000000 0.2500000
v 0.2500000 -0.6000000 0.2500000
v 0.1500000 -0.4000000 0.2500000
v -0.1500000 -0.4000000 0.2500000
v -0.2500000 -0.0000000 0.2500000
v -0.2500000 -0.6000000 0.2500000
v -0.1500000 -0.4000000 0.2500000
v -0.1500000 -0.1000000 0.2500000
v 0.2500000 -0.0000000 0.2500000
v -0.2500000 -0.0000000 0.2500000
v -0.1500000 -0.1000000 0.2500000
v 0.1500000 -0.1000000 0.2500000
v 0.2500000 -0.6000000 0.2500000
v 0.2500000 -0.0000000 0.2500000
v 0.1500000 -0.1000000 0.2500000
v 0.1500000 -0.4000000 0.2500000
v -0.1500000 -0.6000000 0.1500000
v -0.1500000 -0.4000000 0.1500000
v 0.1500000 -0.4000000 0.1500000
v 0.1500000 -0.6000000 0.1500000
v -0.1500000 -0.5000000 -0.0500000
v 0.1500000 -0.5000000 -0.0500000
v 0.1000000 -0.3500000 -0.0500000
v -0.1000000 -0.3500000 -0.0500000
v -0.1500000 -0.1000000 -0.0500000
v -0.1500000 -0.5000000 -0.0500000
v -0.1000000 -0.3500000 -0.0500000
v -0.1000000 -0.1500000 -0.0500000
v 0.1500000 -0.1000000 -0.0500000
v -0.1500000 -0.1000000 -0.0500000
v -0.1000000 -0.1500000 -0.0500000
v 0.1000000 -0.1500000 -0.0500000
v 0.1500000 -0.5000000 -0.0500000
v 0.1500000 -0.1000000 -0.0500000
v 0.1000000 -0.1500000 -0.0500000
v 0.1000000 -0.3500000 -0.0500000
v -0.2500000 -0.5000000 -0.1500000
v -0.1500000 -0.4000000 -0.1500000
v 0.1500000 -0.4000000 -0.1500000
v 0.2500000 -0.5000000 -0.1500000
v -0.2500000 -0.0000000 -0.1500000
v -0.1500000 -0.1000000 -0.1500000
v -0.1500000 -0.4000000 -0.1500000
v -0.2500000 -0.5000000 -0.1500000
v 0.2500000 -0.0000000 -0.1500000
v 0.1500000 -0.1000000 -0.1500000
v -0.1500000 -0.1000000 -0.1500000
v -0.2500000 -0.0000000 -0.1500000
v 0.2500000 -0.5000000 -0.1500000
v 0.1500000 -0.4000000 -0.1500000
v 0.1500000 -0.1000000 -0.1500000
v 0.2500000 -0.0000000 -0.1500000
v -0.1500000 -0.6000000 -0.1500000
v 0.1500000 -0.6000000 -0.1500000
v 0.1500000 -0.5000000 -0.1500000
v -0.1500000 -0.5000000 -0.1500000
v -0.2500000 -0.6000000 -0.2500000
v -0.2500000 -0.5000000 -0.2500000
v 0.2500000 -0.5000000 -0.2500000
v 0.2500000 -0.6000000 -0.2500000
v 0.2500000 -0.6000000 -0.2500000
v 0.2500000 -0.5000000 -0.2500000
v 0.2500000 -0.5000000 -0.1500000
v 0.2500000 -0.6000000 0.2500000
v 0.2500000 -0.5000000 -0.1500000
v 0.2500000 -0.0000000 -0.1500000
v 0.2500000 -0.0000000 0.2500000
v 0.2500000 -0.6000000 0.2500000
v 0.1500000 -0.6000000 -0.1500000
v 0.1500000 -0.6000000 0.1500000
v 0.1500000 -0.5000000 -0.0500000
v 0.1500000 -0.5000000 -0.1500000
v 0.1500000 -0.4000000 0.1500000
v 0.1500000 -0.1000000 -0.0500000
v 0.1500000 -0.5000000 -0.0500000
v 0.1500000 -0.6000000 0.1500000
v 0.1500000 -0.4000000 0.1500000
v 0.1500000 -0.4000000 0.2500000
v 0.1500000 -0.1000000 0.2500000
v 0.1500000 -0.1000000 -0.0500000
v -0.1500000 -0.6000000 -0.1500000
v -0.1500000 -0.5000000 -0.1500000
v -0.1500000 -0.5000000 -0.0500000
v -0.1500000 -0.6000000 0.1500000
v -0.1500000 -0.4000000 0.1500000
v -0.1500000 -0.6000000 0.1500000
v -0.1500000 -0.5000000 -0.0500000
v -0.1500000 -0.1000000 -0.0500000
v -0.1500000 -0.4000000 0.1500000
v -0.1500000 -0.1000000 -0.0500000
v -0.1500000 -0.1000000 0.2500000
v -0.1500000 -0.4000000 0.2500000
v -0.2500000 -0.6000000 -0.2500000
v -0.2500000 -0.6000000 0.2500000
v -0.2500000 -0.5000000 -0.1500000
v -0.2500000 -0.5000000 -0.2500000
v -0.2500000 -0.5000000 -0.1500000
v -0.2500000 -0.6000000 0.2500000
v -0.2500000 -0.0000000 0.2500000
v -0.2500000 -0.0000000 -0.1500000
v 0.1500000 0.1000000 0.0000000
v 0.1385850 0.1000000 0.0574050
v 0.1385850 -0.0000000 0.0574050
v 0.1500000 -0.0000000 0.0000000
v 0.1385850 0.1000000 0.0574050
v 0.1060650 0.1000000 0.1060650
v 0.1060650 -0.0000000 0.1060650
v 0.1385850 -0.0000000 0.0574050
v 0.1060650 0.1000000 0.1060650
v 0.0574050 0.1000000 0.1385850
v 0.0574050 -0.0000000 0.1385850
v 0.1060650 -0.0000000 0.1060650
v 0.0574050 0.1000000 0.1385850
v 0.0000000 0.1000000 0.1500000
v 0.0000000 -0.0000000 0.1500000
v 0.0574050 -0.0000000 0.1385850
v 0.0000000 0.1000000 0.1500000
v -0.0574050 0.1000000 0.1385850
v -0.0574050 -0.0000000 0.1385850
v 0.0000000 -0.0000000 0.1500000
v -0.0574050 0.1000000 0.1385850
v -0.1060650 0.1000000 0.1060650
v -0.1060650 -0.0000000 0.1060650
v -0.0574050 -0.0000000 0.1385850
v -0.1060650 0.1000000 0.1060650
v -0.1385850 0.1000000 0.0574050
v -0.1385850 -0.0000000 0.0574050
v -0.1060650 -0.0000000 0.1060650
v -0.1385850 0.1000000 0.0574050
v -0.1500000 0.1000000 0.0000000
v -0.1500000 -0.0000000 0.0000000
v -0.1385850 -0.0000000 0.0574050
v -0.1500000 0.1000000 0.0000000
v -0.1385850 0.1000000 -0.0574050
v -0.1385850 -0.0000000 -0.0574050
v -0.1500000 -0.0000000 0.0000000
v -0.1385850 0.1000000 -0.0574050
v -0.1060650 0.1000000 -0.1060650
v -0.1060650 -0.0000000 -0.1060650
v -0.1385850 -0.0000000 -0.0574050
v -0.1060650 0.1000000 -0.1060650
v -0.0574050 0.1000000 -0.1385850
v -0.0574050 -0.0000000 -0.1385850
v -0.1060650 -0.0000000 -0.1060650
v -0.0574050 0.1000000 -0.1385850
v 0.0000000 0.1000000 -0.1500000
v 0.0000000 -0.0000000 -0.1500000
v -0.0574050 -0.0000000 -0.1385850
v 0.0000000 0.1000000 -0.1500000
v 0.0574050 0.1000000 -0.1385850
v 0.0574050 -0.0000000 -0.1385850
v 0.0000000 -0.0000000 -0.1500000
v 0.0574050 0.1000000 -0.1385850
v 0.1060650 0.1000000 -0.1060650
v 0.1060650 -0.0000000 -0.1060650
v 0.0574050 -0.0000000 -0.1385850
v 0.1060650 0.1000000 -0.1060650
v 0.1385850 0.1000000 -0.0574050
v 0.1385850 -0.0000000 -0.0574050
v 0.1060650 -0.0000000 -0.1060650
v 0.1385850 0.1000000 -0.0574050
v 0.1500000 0.1000000 0.0000000
v 0.1500000 -0.0000000 0.0000000
v 0.1385850 -0.0000000 -0.0574050
v 0.1385850 0.1000000 0.0574050
v 0.1500000 0.1000000 0.0000000
v 0.0000000 0.1000000 0.0000000
v 0.1060650 0.1000000 0.1060650
v 0.1385850 0.1000000 0.0574050
v 0.0000000 0.1000000 0.0000000
v 0.0574050 0.1000000 0.1385850
v 0.1060650 0.1000000 0.1060650
v 0.0000000 0.1000000 0.0000000
v 0.0000000 0.1000000 0.1500000
v 0.0574050 0.1000000 0.1385850
v 0.0000000 0.1000000 0.0000000
v -0.0574050 0.1000000 0.1385850
v 0.0000000 0.1000000 0.1500000
v 0.0000000 0.1000000 0.0000000
v -0.1060650 0.1000000 0.1060650
v -0.0574050 0.1000000 0.1385850
v 0.0000000 0.1000000 0.0000000
v -0.1385850 0.1000000 0.0574050
v -0.1060650 0.1000000 0.1060650
v 0.0000000 0.1000000 0.0000000
v -0.1500000 0.1000000 0.0000000
v -0.1385850 0.1000000 0.0574050
v 0.0000000 0.1000000 0.0000000
v -0.1385850 0.1000000 -0.0574050
v -0.1500000 0.1000000 0.0000000
v 0.0000000 0.1000000 0.0000000
v -0.1060650 0.1000000 -0.1060650
v -0.1385850 0.1000000 -0.0574050
v 0.0000000 0.1000000 0.0000000
v -0.0574050 0.1000000 -0.1385850
v -0.1060650 0.1000000 -0.1060650
v 0.0000000 0.1000000 0.0000000
v 0.0000000 0.1000000 -0.1500000
v -0.0574050 0.1000000 -0.1385850
v 0.0000000 0.1000000 0.0000000
v 0.0574050 0.1000000 -0.1385850
v 0.0000000 0.1000000 -0.1500000
v 0.0000000 0.1000000 0.0000000
v 0.1060650 0.1000000 -0.1060650
v 0.0574050 0.1000000 -0.1385850
v 0.0000000 0.1000000 0.0000000
v 0.1385850 0.1000000 -0.0574050
v 0.1060650 0.1000000 -0.1060650
v 0.0000000 0.1000000 0.0000000
v 0.1500000 0.1000000 0.0000000
v 0.1385850 0.1000000 -0.0574050
v 0.0000000 0.1000000 0.0000000
v 0.1000000 -0.2500000 -0.2500000
v 0.0923900 -0.2882700 -0.2500000
v 0.0923900 -0.2882700 -0.1500000
v 0.1000000 -0.2500000 -0.1500000
v 0.0923900 -0.2882700 -0.2500000
v 0.0707100 -0.3207100 -0.2500000
v 0.0707100 -0.3207100 -0.1500000
v 0.0923900 -0.2882700 -0.1500000
v 0.0707100 -0.3207100 -0.2500000
v 0.0382700 -0.3423900 -0.2500000
v 0.0382700 -0.3423900 -0.1500000
v 0.0707100 -0.3207100 -0.1500000
v 0.0382700 -0.3423900 -0.2500000
v 0.0000000 -0.3500000 -0.2500000
v 0.0000000 -0.3500000 -0.1500000
v 0.0382700 -0.3423900 -0.1500000
v 0.0000000 -0.3500000 -0.2500000
v -0.0382700 -0.3423900 -0.2500000
v -0.0382700 -0.3423900 -0.1500000
v 0.0000000 -0.3500000 -0.1500000
v -0.0382700 -0.3423900 -0.2500000
v -0.0707100 -0.3207100 -0.2500000
v -0.0707100 -0.3207100 -0.1500000
v -0.0382700 -0.3423900 -0.1500000
v -0.0707100 -0.3207100 -0.2500000
v -0.0923900 -0.2882700 -0.2500000
v -0.0923900 -0.2882700 -0.1500000
v -0.0707100 -0.3207100 -0.1500000
v -0.0923900 -0.2882700 -0.2500000
v -0.1000000 -0.2500000 -0.2500000
v -0.1000000 -0.2500000 -0.1500000
v -0.0923900 -0.2882700 -0.1500000
v -0.1000000 -0.2500000 -0.2500000
v -0.0923900 -0.2117300 -0.2500000
v -0.0923900 -0.2117300 -0.1500000
v -0.1000000 -0.2500000 -0.1500000
v -0.0923900 -0.2117300 -0.2500000
v -0.0707100 -0.1792900 -0.2500000
v -0.0707100 -0.1792900 -0.1500000
v -0.0923900 -0.2117300 -0.1500000
v -0.0707100 -0.1792900 -0.2500000
v -0.0382700 -0.1576100 -0.2500000
v -0.0382700 -0.1576100 -0.1500000
v -0.0707100 -0.1792900 -0.1500000
v -0.0382700 -0.1576100 -0.2500000
v 0.0000000 -0.1500000 -0.2500000
v 0.0000000 -0.1500000 -0.1500000
v -0.0382700 -0.1576100 -0.1500000
v 0.0000000 -0.1500000 -0.2500000
v 0.0382700 -0.1576100 -0.2500000
v 0.0382700 -0.1576100 -0.1500000
v 0.0000000 -0.1500000 -0.1500000
v 0.0382700 -0.1576100 -0.2500000
v 0.0707100 -0.1792900 -0.2500000
v 0.0707100 -0.1792900 -0.1500000
v 0.0382700 -0.1576100 -0.1500000
v 0.0707100 -0.1792900 -0.2500000
v 0.0923900 -0.2117300 -0.2500000
v 0.0923900 -0.2117300 -0.1500000
v 0.0707100 -0.1792900 -0.1500000
v 0.0923900 -0.2117300 -0.2500000
v 0.1000000 -0.2500000 -0.2500000
v 0.1000000 -0.2500000 -0.1500000
v 0.0923900 -0.2117300 -0.1500000
v 0.1500000 -0.2500000 -0.1500000
v 0.1385850 -0.3074050 -0.1500000
v 0.1385850 -0.3074050 -0.2500000
v 0.1500000 -0.2500000 -0.2500000
v 0.1385850 -0.3074050 -0.1500000
v 0.1060650 -0.3560650 -0.1500000
v 0.1060650 -0.3560650 -0.2500000
v 0.1385850 -0.3074050 -0.2500000
v 0.1060650 -0.3560650 -0.1500000
v 0.0574050 -0.3885850 -0.1500000
v 0.0574050 -0.3885850 -0.2500000
v 0.1060650 -0.3560650 -0.2500000
v 0.0574050 -0.3885850 -0.1500000
v 0.0000000 -0.4000000 -0.1500000
v 0.0000000 -0.4000000 -0.2500000
v 0.0574050 -0.3885850 -0.2500000
v 0.0000000 -0.4000000 -0.1500000
v -0.0574050 -0.3885850 -0.1500000
v -0.0574050 -0.3885850 -0.2500000
v 0.0000000 -0.4000000 -0.2500000
v -0.0574050 -0.3885850 -0.1500000
v -0.1060650 -0.3560650 -0.1500000
v -0.1060650 -0.3560650 -0.2500000
v -0.0574050 -0.3885850 -0.2500000
v -0.1060650 -0.3560650 -0.1500000
v -0.1385850 -0.3074050 -0.1500000
v -0.1385850 -0.3074050 -0.2500000
v -0.1060650 -0.3560650 -0.2500000
v -0.1385850 -0.3074050 -0.1500000
v -0.1500000 -0.2500000 -0.1500000
v -0.1500000 -0.2500000 -0.2500000
v -0.1385850 -0.3074050 -0.2500000
v -0.1500000 -0.2500000 -0.1500000
v -0.1385850 -0.1925950 -0.1500000
v -0.1385850 -0.1925950 -0.2500000
v -0.1500000 -0.2500000 -0.2500000
v -0.1385850 -0.1925950 -0.1500000
v -0.1060650 -0.1439350 -0.1500000
v -0.1060650 -0.1439350 -0.2500000
v -0.1385850 -0.1925950 -0.2500000
v -0.1060650 -0.1439350 -0.1500000
v -0.0574050 -0.1114150 -0.1500000
v -0.0574050 -0.1114150 -0.2500000
v -0.1060650 -0.1439350 -0.2500000
v -0.0574050 -0.1114150 -0.1500000
v 0.0000000 -0.1000000 -0.1500000
v 0.0000000 -0.1000000 -0.2500000
v -0.0574050 -0.1114150 -0.2500000
v 0.0000000 -0.1000000 -0.1500000
v 0.0574050 -0.1114150 -0.1500000
v 0.0574050 -0.1114150 -0.2500000
v 0.0000000 -0.1000000 -0.2500000
v 0.0574050 -0.1114150 -0.1500000
v 0.1060650 -0.1439350 -0.1500000
v 0.1060650 -0.1439350 -0.2500000
v 0.0574050 -0.1114150 -0.2500000
v 0.1060650 -0.1439350 -0.1500000
v 0.1385850 -0.1925950 -0.1500000
v 0.1385850 -0.1925950 -0.2500000
v 0.1060650 -0.1439350 -0.2500000
v 0.1385850 -0.1925950 -0.1500000
v 0.1500000 -0.2500000 -0.1500000
v 0.1500000 -0.2500000 -0.2500000
v 0.1385850 -0.1925950 -0.2500000
v -0.0574050 -0.3885850 -0.2500000
v -0.0382700 -0.3423900 -0.2500000
v 0.0000000 -0.3500000 -0.2500000
v 0.0000000 -0.4000000 -0.2500000
v -0.1060650 -0.3560650 -0.2500000
v -0.0707100 -0.3207100 -0.2500000
v -0.0382700 -0.3423900 -0.2500000
v -0.0574050 -0.3885850 -0.2500000
v -0.1385850 -0.3074050 -0.2500000
v -0.0923900 -0.2882700 -0.2500000
v -0.0707100 -0.3207100 -0.2500000
v -0.1060650 -0.3560650 -0.2500000
v -0.1500000 -0.2500000 -0.2500000
v -0.1000000 -0.2500000 -0.2500000
v -0.0923900 -0.2882700 -0.2500000
v -0.1385850 -0.3074050 -0.2500000
v -0.1385850 -0.1925950 -0.2500000
v -0.0923900 -0.2117300 -0.2500000
v -0.1000000 -0.2500000 -0.2500000
v -0.1500000 -0.2500000 -0.2500000
v -0.1060650 -0.1439350 -0.2500000
v -0.0707100 -0.1792900 -0.2500000
v -0.0923900 -0.2117300 -0.2500000
v -0.1385850 -0.1925950 -0.2500000
v -0.0574050 -0.1114150 -0.2500000
v -0.0382700 -0.1576100 -0.2500000
v -0.0707100 -0.1792900 -0.2500000
v -0.1060650 -0.1439350 -0.2500000
v 0.0000000 -0.1000000 -0.2500000
v 0.0000000 -0.1500000 -0.2500000
v -0.0382700 -0.1576100 -0.2500000
v -0.0574050 -0.1114150 -0.2500000
v 0.0574050 -0.1114150 -0.2500000
v 0.0382700 -0.1576100 -0.2500000
v 0.0000000 -0.1500000 -0.2500000
v 0.0000000 -0.1000000 -0.2500000
v 0.1060650 -0.1439350 -0.2500000
v 0.0707100 -0.1792900 -0.2500000
v 0.0382700 -0.1576100 -0.2500000
v 0.0574050 -0.1114150 -0.2500000
v 0.1385850 -0.1925950 -0.2500000
v 0.0923900 -0.2117300 -0.2500000
v 0.0707100 -0.1792900 -0.2500000
v 0.1060650 -0.1439350 -0.2500000
v 0.1500000 -0.2500000 -0.2500000
v 0.1000000 -0.2500000 -0.2500000
v 0.0923900 -0.2117300 -0.2500000
v 0.1385850 -0.1925950 -0.2500000
v 0.1385850 -0.3074050 -0.2500000
v 0.0923900 -0.2882700 -0.2500000
v 0.1000000 -0.2500000 -0.2500000
v 0.1500000 -0.2500000 -0.2500000
v 0.1060650 -0.3560650 -0.2500000
v 0.0707100 -0.3207100 -0.2500000
v 0.0923900 -0.2882700 -0.2500000
v 0.1385850 -0.3074050 -0.2500000
v 0.0574050 -0.3885850 -0.2500000
v 0.0382700 -0.3423900 -0.2500000
v 0.0707100 -0.3207100 -0.2500000
v 0.1060650 -0.3560650 -0.2500000
v 0.0000000 -0.4000000 -0.2500000
v 0.0000000 -0.3500000 -0.2500000
v 0.0382700 -0.3423900 -0.2500000
v 0.0574050 -0.3885850 -0.2500000
s off
f 1 2 3
f 1 3 4
f 5 6 7
f 5 7 8
f 9 10 11
f 9 11 12
f 13 14 15
f 13 15 16
f 17 18 19
f 17 19 20
f 21 22 23
f 21 23 24
f 25 26 27
f 25 27 28
f 29 30 31
f 29 31 32
f 33 34 35
f 33 35 36
f 37 38 39
f 40 41 42
f 43 44 45
f 46 47 48
f 49 50 51
f 52 53 54
f 55 56 57
f 58 59 60
f 61 62 63
f 64 65 66
f 67 68 69
f 70 71 72
f 73 74 75
f 76 77 78
f 79 80 81
f 82 83 84
f 85 86 87
f 85 87 88
f 89 90 91
f 89 91 92
f 93 94 95
f 93 95 96
f 97 98 99
f 97 99 100
f 101 102 103
f 101 103 104
f 105 106 107
f 105 107 108
f 109 110 111
f 109 111 112
f 113 114 115
f 113 115 116
f 117 118 119
f 117 119 120
f 121 122 123
f 121 123 124
f 125 126 127
f 125 127 128
f 129 130 131
f 129 131 132
f 133 134 135
f 133 135 136
f 137 138 139
f 137 139 140
f 141 142 143
f 141 143 144
f 145 146 147
f 145 147 148
f 149 150 151
f 152 153 154
f 155 156 157
f 158 159 160
f 161 162 163
f 164 165 166
f 167 168 169
f 170 171 172
f 173 174 175
f 176 177 178
f 179 180 181
f 182 183 184
f 185 186 187
f 188 189 190
f 191 192 193
f 194 195 196
f 197 198 199
f 197 199 200
f 201 202 203
f 201 203 204
f 205 206 207
f 205 207 208
f 209 210 211
f 209 211 212
f 213 214 215
f 213 215 216
f 217 218 219
f 217 219 220
f 221 222 223
f 221 223 224
f 225 226 227
f 225 227 228
f 229 230 231
f 229 231 232
f 233 234 235
f 233 235 236
f 237 238 239
f 237 239 240
f 241 242 243
f 241 243 244
f 245 246 247
f 245 247 248
f 249 250 251
f 249 251 252
f 253 254 255
f 253 255 256
f 257 258 259
f 257 259 260
f 261 262 263
f 261 263 264
f 265 266 267
f 265 267 268
f 269 270 271
f 269 271 272
f 273 274 275
f 273 275 276
f 277 278 279
f 277 279 280
f 281 282 283
f 281 283 284
f 285 286 287
f 285 287 288
f 289 290 291
f 289 291 292
f 293 294 295
f 293 295 296
f 297 298 299
f 297 299 300
f 301 302 303
f 301 303 304
f 305 306 307
f 305 307 308
f 309 310 311
f 309 311 312
f 313 314 315
f 313 315 316
f 317 318 319
f 317 319 320
f 321 322 323
f 321 323 324
f 325 326 327
f 325 327 328
f 329 330 331
f 329 331 332
f 333 334 335
f 333 335 336
f 337 338 339
f 337 339 340
f 341 342 343
f 341 343 344
f 345 346 347
f 345 347 348
f 349 350 351
f 349 351 352
f 353 354 355
f 353 355 356
f 357 358 359
f 357 359 360
f 361 362 363
f 364 365 366
f 367 368 369
f 370 371 372
f 373 374 375
f 376 377 378
f 379 380 381
f 382 383 384
f 385 386 387
f 388 389 390
f 391 392 393
f 394 395 396
f 397 398 399
f 400 401 402
f 403 404 405
f 406 407 408
f 409 410 411
f 409 411 412
f 413 414 415
f 413 415 416
f 417 418 419
f 417 419 420
f 421 422 423
f 421 423 424
f 425 426 427
f 425 427 428
f 429 430 431
f 429 431 432
f 433 434 435
f 433 435 436
f 437 438 439
f 437 439 440
f 441 442 443
f 441 443 444
f 445 446 447
f 445 447 448
f 449 450 451
f 449 451 452
f 453 454 455
f 453 455 456
f 457 458 459
f 457 459 460
f 461 462 463
f 461 463 464
f 465 466 467
f 465 467 468
f 469 470 471
f 469 471 472
f 473 474 475
f 473 475 476
f 477 478 479
f 477 479 480
f 481 482 483
f 481 483 484
f 485 486 487
f 485 487 488
f 489 490 491
f 489 491 492
f 493 494 495
f 493 495 496
f 497 498 499
f 497 499 500
f 501 502 503
f 501 503 504
f 505 506 507
f 505 507 508
f 509 510 511
f 509 511 512
f 513 514 515
f 513 515 516
f 517 518 519
f 517 519 520
f 521 522 523
f 521 523 524
f 525 526 527
f 525 527 528
f 529 530 531
f 529 531 532
f 533 534 535
f 533 535 536
f 537 538 539
f 537 539 540
f 541 542 543
f 541 543 544
f 545 546 547
f 545 547 548
f 549 550 551
f 549 551 552
f 553 554 555
f 553 555 556
f 557 558 559
f 557 559 560
f 561 562 563
f 561 563 564
f 565 566 567
f 565 567 568
f 569 570 571
f 569 571 572
f 573 574 575
f 573 575 576
f 577 578 579
f 577 579 580
f 581 582 583
f 581 583 584
f 585 586 587
f 585 587 588
f 589 590 591
f 589 591 592
f 593 594 595
f 593 595 596
f 597 598 599
f 597 599 600
