# Baked from official LDraw part 4079.dat
o ldraw_4079
v 0.1500000 -0.2000000 0.0000000
v 0.1385850 -0.2000000 0.0574050
v 0.1385850 -0.1000000 0.0574050
v 0.1500000 -0.1000000 0.0000000
v 0.1385850 -0.2000000 0.0574050
v 0.1060650 -0.2000000 0.1060650
v 0.1060650 -0.1000000 0.1060650
v 0.1385850 -0.1000000 0.0574050
v 0.1060650 -0.2000000 0.1060650
v 0.0574050 -0.2000000 0.1385850
v 0.0574050 -0.1000000 0.1385850
v 0.1060650 -0.1000000 0.1060650
v 0.0574050 -0.2000000 0.1385850
v 0.0000000 -0.2000000 0.1500000
v 0.0000000 -0.1000000 0.1500000
v 0.0574050 -0.1000000 0.1385850
v 0.0000000 -0.2000000 0.1500000
v -0.0574050 -0.2000000 0.1385850
v -0.0574050 -0.1000000 0.1385850
v 0.0000000 -0.1000000 0.1500000
v -0.0574050 -0.2000000 0.1385850
v -0.1060650 -0.2000000 0.1060650
v -0.1060650 -0.1000000 0.1060650
v -0.0574050 -0.1000000 0.1385850
v -0.1060650 -0.2000000 0.1060650
v -0.1385850 -0.2000000 0.0574050
v -0.1385850 -0.1000000 0.0574050
v -0.1060650 -0.1000000 0.1060650
v -0.1385850 -0.2000000 0.0574050
v -0.1500000 -0.2000000 0.0000000
v -0.1500000 -0.1000000 0.0000000
v -0.1385850 -0.1000000 0.0574050
v -0.1500000 -0.2000000 0.0000000
v -0.1385850 -0.2000000 -0.0574050
v -0.1385850 -0.1000000 -0.0574050
v -0.1500000 -0.1000000 0.0000000
v -0.1385850 -0.2000000 -0.0574050
v -0.1060650 -0.2000000 -0.1060650
v -0.1060650 -0.1000000 -0.1060650
v -0.1385850 -0.1000000 -0.0574050
v -0.1060650 -0.2000000 -0.1060650
v -0.0574050 -0.2000000 -0.1385850
v -0.0574050 -0.1000000 -0.1385850
v -0.1060650 -0.1000000 -0.1060650
v -0.0574050 -0.2000000 -0.1385850
v 0.0000000 -0.2000000 -0.1500000
v 0.0000000 -0.1000000 -0.1500000
v -0.0574050 -0.1000000 -0.1385850
v 0.0000000 -0.2000000 -0.1500000
v 0.0574050 -0.2000000 -0.1385850
v 0.0574050 -0.1000000 -0.1385850
v 0.0000000 -0.1000000 -0.1500000
v 0.0574050 -0.2000000 -0.1385850
v 0.1060650 -0.2000000 -0.1060650
v 0.1060650 -0.1000000 -0.1060650
v 0.0574050 -0.1000000 -0.1385850
v 0.1060650 -0.2000000 -0.1060650
v 0.1385850 -0.2000000 -0.0574050
v 0.1385850 -0.1000000 -0.0574050
v 0.1060650 -0.1000000 -0.1060650
v 0.1385850 -0.2000000 -0.0574050
v 0.1500000 -0.2000000 0.0000000
v 0.1500000 -0.1000000 0.0000000
v 0.1385850 -0.1000000 -0.0574050
v 0.2000000 -0.1000000 0.0000000
v 0.1847800 -0.1000000 0.0765400
v 0.1847800 -0.2000000 0.0765400
v 0.2000000 -0.2000000 0.0000000
v 0.1847800 -0.1000000 0.0765400
v 0.1414200 -0.1000000 0.1414200
v 0.1414200 -0.2000000 0.1414200
v 0.1847800 -0.2000000 0.0765400
v 0.1414200 -0.1000000 0.1414200
v 0.0765400 -0.1000000 0.1847800
v 0.0765400 -0.2000000 0.1847800
v 0.1414200 -0.2000000 0.1414200
v 0.0765400 -0.1000000 0.1847800
v 0.0000000 -0.1000000 0.2000000
v 0.0000000 -0.2000000 0.2000000
v 0.0765400 -0.2000000 0.1847800
v 0.0000000 -0.1000000 0.2000000
v -0.0765400 -0.1000000 0.1847800
v -0.0765400 -0.2000000 0.1847800
v 0.0000000 -0.2000000 0.2000000
v -0.0765400 -0.1000000 0.1847800
v -0.1414200 -0.1000000 0.1414200
v -0.1414200 -0.2000000 0.1414200
v -0.0765400 -0.2000000 0.1847800
v -0.1414200 -0.1000000 0.1414200
v -0.1847800 -0.1000000 0.0765400
v -0.1847800 -0.2000000 0.0765400
v -0.1414200 -0.2000000 0.1414200
v -0.1847800 -0.1000000 0.0765400
v -0.2000000 -0.1000000 0.0000000
v -0.2000000 -0.2000000 0.0000000
v -0.1847800 -0.2000000 0.0765400
v -0.2000000 -0.1000000 0.0000000
v -0.1847800 -0.1000000 -0.0765400
v -0.1847800 -0.2000000 -0.0765400
v -0.2000000 -0.2000000 0.0000000
v -0.1847800 -0.1000000 -0.0765400
v -0.1414200 -0.1000000 -0.1414200
v -0.1414200 -0.2000000 -0.1414200
v -0.1847800 -0.2000000 -0.0765400
v -0.1414200 -0.1000000 -0.1414200
v -0.0765400 -0.1000000 -0.1847800
v -0.0765400 -0.2000000 -0.1847800
v -0.1414200 -0.2000000 -0.1414200
v -0.0765400 -0.1000000 -0.1847800
v 0.0000000 -0.1000000 -0.2000000
v 0.0000000 -0.2000000 -0.2000000
v -0.0765400 -0.2000000 -0.1847800
v 0.0000000 -0.1000000 -0.2000000
v 0.0765400 -0.1000000 -0.1847800
v 0.0765400 -0.2000000 -0.1847800
v 0.0000000 -0.2000000 -0.2000000
v 0.0765400 -0.1000000 -0.1847800
v 0.1414200 -0.1000000 -0.1414200
v 0.1414200 -0.2000000 -0.1414200
v 0.0765400 -0.2000000 -0.1847800
v 0.1414200 -0.1000000 -0.1414200
v 0.1847800 -0.1000000 -0.0765400
v 0.1847800 -0.2000000 -0.0765400
v 0.1414200 -0.2000000 -0.1414200
v 0.1847800 -0.1000000 -0.0765400
v 0.2000000 -0.1000000 0.0000000
v 0.2000000 -0.2000000 0.0000000
v 0.1847800 -0.2000000 -0.0765400
v -0.0765400 -0.2000000 0.1847800
v -0.0574050 -0.2000000 0.1385850
v 0.0000000 -0.2000000 0.1500000
v 0.0000000 -0.2000000 0.2000000
v -0.1414200 -0.2000000 0.1414200
v -0.1060650 -0.2000000 0.1060650
v -0.0574050 -0.2000000 0.1385850
v -0.0765400 -0.2000000 0.1847800
v -0.1847800 -0.2000000 0.0765400
v -0.1385850 -0.2000000 0.0574050
v -0.1060650 -0.2000000 0.1060650
v -0.1414200 -0.2000000 0.1414200
v -0.2000000 -0.2000000 0.0000000
v -0.1500000 -0.2000000 0.0000000
v -0.1385850 -0.2000000 0.0574050
v -0.1847800 -0.2000000 0.0765400
v -0.1847800 -0.2000000 -0.0765400
v -0.1385850 -0.2000000 -0.0574050
v -0.1500000 -0.2000000 0.0000000
v -0.2000000 -0.2000000 0.0000000
v -0.1414200 -0.2000000 -0.1414200
v -0.1060650 -0.2000000 -0.1060650
v -0.1385850 -0.2000000 -0.0574050
v -0.1847800 -0.2000000 -0.0765400
v -0.0765400 -0.2000000 -0.1847800
v -0.0574050 -0.2000000 -0.1385850
v -0.1060650 -0.2000000 -0.1060650
v -0.1414200 -0.2000000 -0.1414200
v 0.0000000 -0.2000000 -0.2000000
v 0.0000000 -0.2000000 -0.1500000
v -0.0574050 -0.2000000 -0.1385850
v -0.0765400 -0.2000000 -0.1847800
v 0.0765400 -0.2000000 -0.1847800
v 0.0574050 -0.2000000 -0.1385850
v 0.0000000 -0.2000000 -0.1500000
v 0.0000000 -0.2000000 -0.2000000
v 0.1414200 -0.2000000 -0.1414200
v 0.1060650 -0.2000000 -0.1060650
v 0.0574050 -0.2000000 -0.1385850
v 0.0765400 -0.2000000 -0.1847800
v 0.1847800 -0.2000000 -0.0765400
v 0.1385850 -0.2000000 -0.0574050
v 0.1060650 -0.2000000 -0.1060650
v 0.1414200 -0.2000000 -0.1414200
v 0.2000000 -0.2000000 0.0000000
v 0.1500000 -0.2000000 0.0000000
v 0.1385850 -0.2000000 -0.0574050
v 0.1847800 -0.2000000 -0.0765400
v 0.1847800 -0.2000000 0.0765400
v 0.1385850 -0.2000000 0.0574050
v 0.1500000 -0.2000000 0.0000000
v 0.2000000 -0.2000000 0.0000000
v 0.1414200 -0.2000000 0.1414200
v 0.1060650 -0.2000000 0.1060650
v 0.1385850 -0.2000000 0.0574050
v 0.1847800 -0.2000000 0.0765400
v 0.0765400 -0.2000000 0.1847800
v 0.0574050 -0.2000000 0.1385850
v 0.1060650 -0.2000000 0.1060650
v 0.1414200 -0.2000000 0.1414200
v 0.0000000 -0.2000000 0.2000000
v 0.0000000 -0.2000000 0.1500000
v 0.0574050 -0.2000000 0.1385850
v 0.0765400 -0.2000000 0.1847800
v -0.4000000 -0.1000000 -0.4000000
v 0.4000000 -0.1000000 -0.4000000
v 0.4000000 -0.1000000 0.4000000
v -0.4000000 -0.1000000 0.4000000
v 0.4000000 -0.1000000 0.4000000
v 0.4000000 -0.2000000 0.4000000
v -0.4000000 -0.2000000 0.4000000
v -0.4000000 -0.1000000 0.4000000
v -0.4000000 -0.1000000 0.4000000
v -0.4000000 -0.2000000 0.4000000
v -0.4000000 -0.2000000 -0.4000000
v -0.4000000 -0.1000000 -0.4000000
v -0.4000000 -0.1000000 -0.4000000
v -0.4000000 -0.2000000 -0.4000000
v 0.4000000 -0.2000000 -0.4000000
v 0.4000000 -0.1000000 -0.4000000
v 0.4000000 -0.1000000 -0.4000000
v 0.4000000 -0.2000000 -0.4000000
v 0.4000000 -0.2000000 0.4000000
v 0.4000000 -0.1000000 0.4000000
v -0.5000000 -0.2000000 0.5000000
v -0.4000000 -0.2000000 0.4000000
v 0.4000000 -0.2000000 0.4000000
v 0.5000000 -0.2000000 0.5000000
v 0.4000000 -0.2000000 -0.5000000
v 0.4000000 -0.2000000 -0.4000000
v -0.4000000 -0.2000000 -0.4000000
v -0.4000000 -0.2000000 -0.5000000
v 0.5000000 -0.2000000 0.5000000
v 0.4000000 -0.2000000 0.4000000
v 0.4000000 -0.2000000 -0.4000000
v 0.5000000 -0.2000000 -0.4000000
v -0.4000000 -0.2000000 0.4000000
v -0.5000000 -0.2000000 0.5000000
v -0.5000000 -0.2000000 -0.4000000
v -0.4000000 -0.2000000 -0.4000000
v 0.4923900 -0.2000000 -0.4382700
v 0.5000000 -0.2000000 -0.4000000
v 0.4000000 -0.2000000 -0.4000000
v 0.4707100 -0.2000000 -0.4707100
v 0.4923900 -0.2000000 -0.4382700
v 0.4000000 -0.2000000 -0.4000000
v 0.4382700 -0.2000000 -0.4923900
v 0.4707100 -0.2000000 -0.4707100
v 0.4000000 -0.2000000 -0.4000000
v 0.4000000 -0.2000000 -0.5000000
v 0.4382700 -0.2000000 -0.4923900
v 0.4000000 -0.2000000 -0.4000000
v -0.4000000 -0.2000000 -0.4000000
v -0.5000000 -0.2000000 -0.4000000
v -0.4923900 -0.2000000 -0.4382700
v -0.4000000 -0.2000000 -0.4000000
v -0.4923900 -0.2000000 -0.4382700
v -0.4707100 -0.2000000 -0.4707100
v -0.4000000 -0.2000000 -0.4000000
v -0.4707100 -0.2000000 -0.4707100
v -0.4382700 -0.2000000 -0.4923900
v -0.4000000 -0.2000000 -0.4000000
v -0.4382700 -0.2000000 -0.4923900
v -0.4000000 -0.2000000 -0.5000000
v 0.5000000 -0.2000000 0.5000000
v 0.5000000 -0.0000000 0.5000000
v -0.5000000 -0.0000000 0.5000000
v -0.5000000 -0.2000000 0.5000000
v 0.5000000 -0.0000000 0.5000000
v 0.5000000 0.0765000 0.5490000
v -0.5000000 0.0765000 0.5490000
v -0.5000000 -0.0000000 0.5000000
v 0.5000000 0.0765000 0.5490000
v 0.5000000 0.2000000 0.5750000
v -0.5000000 0.2000000 0.5750000
v -0.5000000 0.0765000 0.5490000
v 0.5000000 0.2000000 0.5750000
v 0.5000000 0.9000000 0.6187500
v -0.5000000 0.9000000 0.6187500
v -0.5000000 0.2000000 0.5750000
v 0.4000000 0.9000000 0.6187500
v 0.4000000 1.0000000 0.6250000
v -0.4000000 1.0000000 0.6250000
v -0.4000000 0.9000000 0.6187500
v 0.4000000 0.9000000 0.6187500
v 0.5000000 0.9000000 0.6187500
v 0.4923900 0.9382700 0.6211419
v 0.4000000 0.9000000 0.6187500
v 0.4923900 0.9382700 0.6211419
v 0.4707100 0.9707100 0.6231694
v 0.4000000 0.9000000 0.6187500
v 0.4707100 0.9707100 0.6231694
v 0.4382700 0.9923900 0.6245244
v 0.4000000 0.9000000 0.6187500
v 0.4382700 0.9923900 0.6245244
v 0.4000000 1.0000000 0.6250000
v -0.4923900 0.9382700 0.6211419
v -0.5000000 0.9000000 0.6187500
v -0.4000000 0.9000000 0.6187500
v -0.4707100 0.9707100 0.6231694
v -0.4923900 0.9382700 0.6211419
v -0.4000000 0.9000000 0.6187500
v -0.4382700 0.9923900 0.6245244
v -0.4707100 0.9707100 0.6231694
v -0.4000000 0.9000000 0.6187500
v -0.4000000 1.0000000 0.6250000
v -0.4382700 0.9923900 0.6245244
v -0.4000000 0.9000000 0.6187500
v 0.4000000 -0.0000000 -0.4000000
v 0.4000000 -0.0000000 -0.5000000
v -0.4000000 -0.0000000 -0.5000000
v -0.4000000 -0.0000000 -0.4000000
v 0.4000000 -0.0000000 -0.4000000
v 0.5000000 -0.0000000 -0.4000000
v 0.4923900 -0.0000000 -0.4382700
v 0.4000000 -0.0000000 -0.4000000
v 0.4923900 -0.0000000 -0.4382700
v 0.4707100 -0.0000000 -0.4707100
v 0.4000000 -0.0000000 -0.4000000
v 0.4707100 -0.0000000 -0.4707100
v 0.4382700 -0.0000000 -0.4923900
v 0.4000000 -0.0000000 -0.4000000
v 0.4382700 -0.0000000 -0.4923900
v 0.4000000 -0.0000000 -0.5000000
v -0.4923900 -0.0000000 -0.4382700
v -0.5000000 -0.0000000 -0.4000000
v -0.4000000 -0.0000000 -0.4000000
v -0.4707100 -0.0000000 -0.4707100
v -0.4923900 -0.0000000 -0.4382700
v -0.4000000 -0.0000000 -0.4000000
v -0.4382700 -0.0000000 -0.4923900
v -0.4707100 -0.0000000 -0.4707100
v -0.4000000 -0.0000000 -0.4000000
v -0.4000000 -0.0000000 -0.5000000
v -0.4382700 -0.0000000 -0.4923900
v -0.4000000 -0.0000000 -0.4000000
v 0.5000000 -0.0000000 0.2500000
v 0.5000000 -0.0000000 -0.4000000
v -0.5000000 -0.0000000 -0.4000000
v -0.5000000 -0.0000000 0.2500000
v 0.3500000 -0.0000000 0.3887500
v 0.3500000 -0.0000000 0.2500000
v -0.3500000 -0.0000000 0.2500000
v -0.3500000 -0.0000000 0.3887500
v 0.3500000 -0.0000000 0.2500000
v 0.3500000 0.0152200 0.3265400
v 0.5000000 0.0152200 0.3265400
v 0.5000000 -0.0000000 0.2500000
v 0.3500000 0.0152200 0.3265400
v 0.3500000 0.0585800 0.3914200
v 0.5000000 0.0585800 0.3914200
v 0.5000000 0.0152200 0.3265400
v 0.3500000 0.0585800 0.3914200
v 0.3500000 0.1234600 0.4347800
v 0.5000000 0.1234600 0.4347800
v 0.5000000 0.0585800 0.3914200
v 0.3500000 0.1234600 0.4347800
v 0.3500000 0.2000000 0.4500000
v 0.5000000 0.2000000 0.4500000
v 0.5000000 0.1234600 0.4347800
v -0.5000000 -0.0000000 0.2500000
v -0.5000000 0.0152200 0.3265400
v -0.3500000 0.0152200 0.3265400
v -0.3500000 -0.0000000 0.2500000
v -0.5000000 0.0152200 0.3265400
v -0.5000000 0.0585800 0.3914200
v -0.3500000 0.0585800 0.3914200
v -0.3500000 0.0152200 0.3265400
v -0.5000000 0.0585800 0.3914200
v -0.5000000 0.1234600 0.4347800
v -0.3500000 0.1234600 0.4347800
v -0.3500000 0.0585800 0.3914200
v -0.5000000 0.1234600 0.4347800
v -0.5000000 0.2000000 0.4500000
v -0.3500000 0.2000000 0.4500000
v -0.3500000 0.1234600 0.4347800
v 0.4000000 0.9000000 0.4937500
v 0.5000000 0.9000000 0.4937500
v 0.5000000 0.2000000 0.4500000
v 0.3500000 0.2000000 0.4500000
v -0.5000000 0.2000000 0.4500000
v -0.5000000 0.9000000 0.4937500
v -0.4000000 0.9000000 0.4937500
v -0.3500000 0.2000000 0.4500000
v 0.4000000 1.0000000 0.5000000
v 0.4000000 0.9000000 0.4937500
v 0.3500000 0.2000000 0.4500000
v 0.3500000 1.0000000 0.5000000
v -0.3500000 0.2000000 0.4500000
v -0.4000000 0.9000000 0.4937500
v -0.4000000 1.0000000 0.5000000
v -0.3500000 1.0000000 0.5000000
v 0.4923900 0.9382700 0.4961419
v 0.5000000 0.9000000 0.4937500
v 0.4000000 0.9000000 0.4937500
v 0.4707100 0.9707100 0.4981694
v 0.4923900 0.9382700 0.4961419
v 0.4000000 0.9000000 0.4937500
v 0.4382700 0.9923900 0.4995244
v 0.4707100 0.9707100 0.4981694
v 0.4000000 0.9000000 0.4937500
v 0.4000000 1.0000000 0.5000000
v 0.4382700 0.9923900 0.4995244
v 0.4000000 0.9000000 0.4937500
v -0.4000000 0.9000000 0.4937500
v -0.5000000 0.9000000 0.4937500
v -0.4923900 0.9382700 0.4961419
v -0.4000000 0.9000000 0.4937500
v -0.4923900 0.9382700 0.4961419
v -0.4707100 0.9707100 0.4981694
v -0.4000000 0.9000000 0.4937500
v -0.4707100 0.9707100 0.4981694
v -0.4382700 0.9923900 0.4995244
v -0.4000000 0.9000000 0.4937500
v -0.4382700 0.9923900 0.4995244
v -0.4000000 1.0000000 0.5000000
v 0.3500000 0.0250000 0.4250000
v 0.3500000 -0.0000000 0.3887500
v -0.3500000 -0.0000000 0.3887500
v -0.3500000 0.0250000 0.4250000
v -0.3500000 0.2000000 0.5000000
v 0.3500000 0.2000000 0.5000000
v 0.3500000 0.1043250 0.4809750
v -0.3500000 0.1043250 0.4809750
v -0.3500000 0.1043250 0.4809750
v 0.3500000 0.1043250 0.4809750
v 0.3500000 0.0232250 0.4267750
v -0.3500000 0.0232250 0.4267750
v 0.3500000 1.0000000 0.5000000
v 0.3500000 0.2000000 0.5000000
v -0.3500000 0.2000000 0.5000000
v -0.3500000 1.0000000 0.5000000
v 0.4000000 -0.0000000 -0.5000000
v 0.4000000 -0.2000000 -0.5000000
v -0.4000000 -0.2000000 -0.5000000
v -0.4000000 -0.0000000 -0.5000000
v 0.5000000 -0.2000000 -0.4000000
v 0.4923900 -0.2000000 -0.4382700
v 0.4923900 -0.0000000 -0.4382700
v 0.5000000 -0.0000000 -0.4000000
v 0.4923900 -0.2000000 -0.4382700
v 0.4707100 -0.2000000 -0.4707100
v 0.4707100 -0.0000000 -0.4707100
v 0.4923900 -0.0000000 -0.4382700
v 0.4707100 -0.2000000 -0.4707100
v 0.4382700 -0.2000000 -0.4923900
v 0.4382700 -0.0000000 -0.4923900
v 0.4707100 -0.0000000 -0.4707100
v 0.4382700 -0.2000000 -0.4923900
v 0.4000000 -0.2000000 -0.5000000
v 0.4000000 -0.0000000 -0.5000000
v 0.4382700 -0.0000000 -0.4923900
v -0.5000000 -0.0000000 -0.4000000
v -0.4923900 -0.0000000 -0.4382700
v -0.4923900 -0.2000000 -0.4382700
v -0.5000000 -0.2000000 -0.4000000
v -0.4923900 -0.0000000 -0.4382700
v -0.4707100 -0.0000000 -0.4707100
v -0.4707100 -0.2000000 -0.4707100
v -0.4923900 -0.2000000 -0.4382700
v -0.4707100 -0.0000000 -0.4707100
v -0.4382700 -0.0000000 -0.4923900
v -0.4382700 -0.2000000 -0.4923900
v -0.4707100 -0.2000000 -0.4707100
v -0.4382700 -0.0000000 -0.4923900
v -0.4000000 -0.0000000 -0.5000000
v -0.4000000 -0.2000000 -0.5000000
v -0.4382700 -0.2000000 -0.4923900
v 0.5000000 -0.2000000 -0.4000000
v 0.5000000 -0.0000000 -0.4000000
v 0.5000000 -0.0000000 0.5000000
v 0.5000000 -0.2000000 0.5000000
v -0.5000000 -0.0000000 -0.4000000
v -0.5000000 -0.2000000 -0.4000000
v -0.5000000 -0.2000000 0.5000000
v -0.5000000 -0.0000000 0.5000000
v 0.5000000 -0.0000000 0.4500000
v 0.5000000 -0.0000000 0.2500000
v 0.5000000 0.0152200 0.3265400
v 0.5000000 -0.0000000 0.4500000
v 0.5000000 0.0152200 0.3265400
v 0.5000000 0.0585800 0.3914200
v 0.5000000 -0.0000000 0.4500000
v 0.5000000 0.0585800 0.3914200
v 0.5000000 0.1234600 0.4347800
v 0.5000000 -0.0000000 0.4500000
v 0.5000000 0.1234600 0.4347800
v 0.5000000 0.2000000 0.4500000
v -0.5000000 0.0152200 0.3265400
v -0.5000000 -0.0000000 0.2500000
v -0.5000000 -0.0000000 0.4500000
v -0.5000000 0.0585800 0.3914200
v -0.5000000 0.0152200 0.3265400
v -0.5000000 -0.0000000 0.4500000
v -0.5000000 0.1234600 0.4347800
v -0.5000000 0.0585800 0.3914200
v -0.5000000 -0.0000000 0.4500000
v -0.5000000 0.2000000 0.4500000
v -0.5000000 0.1234600 0.4347800
v -0.5000000 -0.0000000 0.4500000
v 0.5000000 0.2000000 0.5750000
v 0.5000000 0.0765000 0.5490000
v 0.5000000 -0.0000000 0.5000000
v 0.5000000 -0.0000000 0.4375000
v -0.5000000 -0.0000000 0.5000000
v -0.5000000 0.0765000 0.5490000
v -0.5000000 0.2000000 0.5750000
v -0.5000000 -0.0000000 0.4375000
v 0.5000000 0.9000000 0.4937500
v 0.5000000 0.9000000 0.6187500
v 0.5000000 0.2000000 0.5750000
v 0.5000000 -0.0000000 0.4375000
v -0.5000000 0.2000000 0.5750000
v -0.5000000 0.9000000 0.6187500
v -0.5000000 0.9000000 0.4937500
v -0.5000000 -0.0000000 0.4375000
v 0.5000000 0.9000000 0.4937500
v 0.4923900 0.9382700 0.4961419
v 0.4923900 0.9382700 0.6211419
v 0.5000000 0.9000000 0.6187500
v 0.4923900 0.9382700 0.4961419
v 0.4707100 0.9707100 0.4981694
v 0.4707100 0.9707100 0.6231694
v 0.4923900 0.9382700 0.6211419
v 0.4707100 0.9707100 0.4981694
v 0.4382700 0.9923900 0.4995244
v 0.4382700 0.9923900 0.6245244
v 0.4707100 0.9707100 0.6231694
v 0.4382700 0.9923900 0.4995244
v 0.4000000 1.0000000 0.5000000
v 0.4000000 1.0000000 0.6250000
v 0.4382700 0.9923900 0.6245244
v -0.5000000 0.9000000 0.6187500
v -0.4923900 0.9382700 0.6211419
v -0.4923900 0.9382700 0.4961419
v -0.5000000 0.9000000 0.4937500
v -0.4923900 0.9382700 0.6211419
v -0.4707100 0.9707100 0.6231694
v -0.4707100 0.9707100 0.4981694
v -0.4923900 0.9382700 0.4961419
v -0.4707100 0.9707100 0.6231694
v -0.4382700 0.9923900 0.6245244
v -0.4382700 0.9923900 0.4995244
v -0.4707100 0.9707100 0.4981694
v -0.4382700 0.9923900 0.6245244
v -0.4000000 1.0000000 0.6250000
v -0.4000000 1.0000000 0.5000000
v -0.4382700 0.9923900 0.4995244
v 0.4000000 1.0000000 0.6250000
v 0.4000000 1.0000000 0.5000000
v -0.4000000 1.0000000 0.5000000
v -0.4000000 1.0000000 0.6250000
v 0.3500000 0.0152200 0.3265400
v 0.3500000 -0.0000000 0.2500000
v 0.3500000 -0.0000000 0.4500000
v 0.3500000 0.0585800 0.3914200
v 0.3500000 0.0152200 0.3265400
v 0.3500000 -0.0000000 0.4500000
v 0.3500000 0.1234600 0.4347800
v 0.3500000 0.0585800 0.3914200
v 0.3500000 -0.0000000 0.4500000
v 0.3500000 0.2000000 0.4500000
v 0.3500000 0.1234600 0.4347800
v 0.3500000 -0.0000000 0.4500000
v -0.3500000 -0.0000000 0.4500000
v -0.3500000 -0.0000000 0.2500000
v -0.3500000 0.0152200 0.3265400
v -0.3500000 -0.0000000 0.4500000
v -0.3500000 0.0152200 0.3265400
v -0.3500000 0.0585800 0.3914200
v -0.3500000 -0.0000000 0.4500000
v -0.3500000 0.0585800 0.3914200
v -0.3500000 0.1234600 0.4347800
v -0.3500000 -0.0000000 0.4500000
v -0.3500000 0.1234600 0.4347800
v -0.3500000 0.2000000 0.4500000
v 0.3500000 -0.0000000 0.5000000
v 0.3500000 1.0000000 0.5000000
v 0.3500000 0.2000000 0.4500000
v 0.3500000 -0.0000000 0.4500000
v -0.3500000 0.2000000 0.4500000
v -0.3500000 1.0000000 0.5000000
v -0.3500000 -0.0000000 0.5000000
v -0.3500000 -0.0000000 0.4500000
v 0.4000000 0.1000000 -0.2500000
v 0.3885850 0.1000000 -0.1925950
v 0.3885850 -0.0000000 -0.1925950
v 0.4000000 -0.0000000 -0.2500000
v 0.3885850 0.1000000 -0.1925950
v 0.3560650 0.1000000 -0.1439350
v 0.3560650 -0.0000000 -0.1439350
v 0.3885850 -0.0000000 -0.1925950
v 0.3560650 0.1000000 -0.1439350
v 0.3074050 0.1000000 -0.1114150
v 0.3074050 -0.0000000 -0.1114150
v 0.3560650 -0.0000000 -0.1439350
v 0.3074050 0.1000000 -0.1114150
v 0.2500000 0.1000000 -0.1000000
v 0.2500000 -0.0000000 -0.1000000
v 0.3074050 -0.0000000 -0.1114150
v 0.2500000 0.1000000 -0.1000000
v 0.1925950 0.1000000 -0.1114150
v 0.1925950 -0.0000000 -0.1114150
v 0.2500000 -0.0000000 -0.1000000
v 0.1925950 0.1000000 -0.1114150
v 0.1439350 0.1000000 -0.1439350
v 0.1439350 -0.0000000 -0.1439350
v 0.1925950 -0.0000000 -0.1114150
v 0.1439350 0.1000000 -0.1439350
v 0.1114150 0.1000000 -0.1925950
v 0.1114150 -0.0000000 -0.1925950
v 0.1439350 -0.0000000 -0.1439350
v 0.1114150 0.1000000 -0.1925950
v 0.1000000 0.1000000 -0.2500000
v 0.1000000 -0.0000000 -0.2500000
v 0.1114150 -0.0000000 -0.1925950
v 0.1000000 0.1000000 -0.2500000
v 0.1114150 0.1000000 -0.3074050
v 0.1114150 -0.0000000 -0.3074050
v 0.1000000 -0.0000000 -0.2500000
v 0.1114150 0.1000000 -0.3074050
v 0.1439350 0.1000000 -0.3560650
v 0.1439350 -0.0000000 -0.3560650
v 0.1114150 -0.0000000 -0.3074050
v 0.1439350 0.1000000 -0.3560650
v 0.1925950 0.1000000 -0.3885850
v 0.1925950 -0.0000000 -0.3885850
v 0.1439350 -0.0000000 -0.3560650
v 0.1925950 0.1000000 -0.3885850
v 0.2500000 0.1000000 -0.4000000
v 0.2500000 -0.0000000 -0.4000000
v 0.1925950 -0.0000000 -0.3885850
v 0.2500000 0.1000000 -0.4000000
v 0.3074050 0.1000000 -0.3885850
v 0.3074050 -0.0000000 -0.3885850
v 0.2500000 -0.0000000 -0.4000000
v 0.3074050 0.1000000 -0.3885850
v 0.3560650 0.1000000 -0.3560650
v 0.3560650 -0.0000000 -0.3560650
v 0.3074050 -0.0000000 -0.3885850
v 0.3560650 0.1000000 -0.3560650
v 0.3885850 0.1000000 -0.3074050
v 0.3885850 -0.0000000 -0.3074050
v 0.3560650 -0.0000000 -0.3560650
v 0.3885850 0.1000000 -0.3074050
v 0.4000000 0.1000000 -0.2500000
v 0.4000000 -0.0000000 -0.2500000
v 0.3885850 -0.0000000 -0.3074050
v 0.3885850 0.1000000 -0.1925950
v 0.4000000 0.1000000 -0.2500000
v 0.2500000 0.1000000 -0.2500000
v 0.3560650 0.1000000 -0.1439350
v 0.3885850 0.1000000 -0.1925950
v 0.2500000 0.1000000 -0.2500000
v 0.3074050 0.1000000 -0.1114150
v 0.3560650 0.1000000 -0.1439350
v 0.2500000 0.1000000 -0.2500000
v 0.2500000 0.1000000 -0.1000000
v 0.3074050 0.1000000 -0.1114150
v 0.2500000 0.1000000 -0.2500000
v 0.1925950 0.1000000 -0.1114150
v 0.2500000 0.1000000 -0.1000000
v 0.2500000 0.1000000 -0.2500000
v 0.1439350 0.1000000 -0.1439350
v 0.1925950 0.1000000 -0.1114150
v 0.2500000 0.1000000 -0.2500000
v 0.1114150 0.1000000 -0.1925950
v 0.1439350 0.1000000 -0.1439350
v 0.2500000 0.1000000 -0.2500000
v 0.1000000 0.1000000 -0.2500000
v 0.1114150 0.1000000 -0.1925950
v 0.2500000 0.1000000 -0.2500000
v 0.1114150 0.1000000 -0.3074050
v 0.1000000 0.1000000 -0.2500000
v 0.2500000 0.1000000 -0.2500000
v 0.1439350 0.1000000 -0.3560650
v 0.1114150 0.1000000 -0.3074050
v 0.2500000 0.1000000 -0.2500000
v 0.1925950 0.1000000 -0.3885850
v 0.1439350 0.1000000 -0.3560650
v 0.2500000 0.1000000 -0.2500000
v 0.2500000 0.1000000 -0.4000000
v 0.1925950 0.1000000 -0.3885850
v 0.2500000 0.1000000 -0.2500000
v 0.3074050 0.1000000 -0.3885850
v 0.2500000 0.1000000 -0.4000000
v 0.2500000 0.1000000 -0.2500000
v 0.3560650 0.1000000 -0.3560650
v 0.3074050 0.1000000 -0.3885850
v 0.2500000 0.1000000 -0.2500000
v 0.3885850 0.1000000 -0.3074050
v 0.3560650 0.1000000 -0.3560650
v 0.2500000 0.1000000 -0.2500000
v 0.4000000 0.1000000 -0.2500000
v 0.3885850 0.1000000 -0.3074050
v 0.2500000 0.1000000 -0.2500000
v -0.1000000 0.1000000 -0.2500000
v -0.1114150 0.1000000 -0.1925950
v -0.1114150 -0.0000000 -0.1925950
v -0.1000000 -0.0000000 -0.2500000
v -0.1114150 0.1000000 -0.1925950
v -0.1439350 0.1000000 -0.1439350
v -0.1439350 -0.0000000 -0.1439350
v -0.1114150 -0.0000000 -0.1925950
v -0.1439350 0.1000000 -0.1439350
v -0.1925950 0.1000000 -0.1114150
v -0.1925950 -0.0000000 -0.1114150
v -0.1439350 -0.0000000 -0.1439350
v -0.1925950 0.1000000 -0.1114150
v -0.2500000 0.1000000 -0.1000000
v -0.2500000 -0.0000000 -0.1000000
v -0.1925950 -0.0000000 -0.1114150
v -0.2500000 0.1000000 -0.1000000
v -0.3074050 0.1000000 -0.1114150
v -0.3074050 -0.0000000 -0.1114150
v -0.2500000 -0.0000000 -0.1000000
v -0.3074050 0.1000000 -0.1114150
v -0.3560650 0.1000000 -0.1439350
v -0.3560650 -0.0000000 -0.1439350
v -0.3074050 -0.0000000 -0.1114150
v -0.3560650 0.1000000 -0.1439350
v -0.3885850 0.1000000 -0.1925950
v -0.3885850 -0.0000000 -0.1925950
v -0.3560650 -0.0000000 -0.1439350
v -0.3885850 0.1000000 -0.1925950
v -0.4000000 0.1000000 -0.2500000
v -0.4000000 -0.0000000 -0.2500000
v -0.3885850 -0.0000000 -0.1925950
v -0.4000000 0.1000000 -0.2500000
v -0.3885850 0.1000000 -0.3074050
v -0.3885850 -0.0000000 -0.3074050
v -0.4000000 -0.0000000 -0.2500000
v -0.3885850 0.1000000 -0.3074050
v -0.3560650 0.1000000 -0.3560650
v -0.3560650 -0.0000000 -0.3560650
v -0.3885850 -0.0000000 -0.3074050
v -0.3560650 0.1000000 -0.3560650
v -0.3074050 0.1000000 -0.3885850
v -0.3074050 -0.0000000 -0.3885850
v -0.3560650 -0.0000000 -0.3560650
v -0.3074050 0.1000000 -0.3885850
v -0.2500000 0.1000000 -0.4000000
v -0.2500000 -0.0000000 -0.4000000
v -0.3074050 -0.0000000 -0.3885850
v -0.2500000 0.1000000 -0.4000000
v -0.1925950 0.1000000 -0.3885850
v -0.1925950 -0.0000000 -0.3885850
v -0.2500000 -0.0000000 -0.4000000
v -0.1925950 0.1000000 -0.3885850
v -0.1439350 0.1000000 -0.3560650
v -0.1439350 -0.0000000 -0.3560650
v -0.1925950 -0.0000000 -0.3885850
v -0.1439350 0.1000000 -0.3560650
v -0.1114150 0.1000000 -0.3074050
v -0.1114150 -0.0000000 -0.3074050
v -0.1439350 -0.0000000 -0.3560650
v -0.1114150 0.1000000 -0.3074050
v -0.1000000 0.1000000 -0.2500000
v -0.1000000 -0.0000000 -0.2500000
v -0.1114150 -0.0000000 -0.3074050
v -0.1114150 0.1000000 -0.1925950
v -0.1000000 0.1000000 -0.2500000
v -0.2500000 0.1000000 -0.2500000
v -0.1439350 0.1000000 -0.1439350
v -0.1114150 0.1000000 -0.1925950
v -0.2500000 0.1000000 -0.2500000
v -0.1925950 0.1000000 -0.1114150
v -0.1439350 0.1000000 -0.1439350
v -0.2500000 0.1000000 -0.2500000
v -0.2500000 0.1000000 -0.1000000
v -0.1925950 0.1000000 -0.1114150
v -0.2500000 0.1000000 -0.2500000
v -0.3074050 0.1000000 -0.1114150
v -0.2500000 0.1000000 -0.1000000
v -0.2500000 0.1000000 -0.2500000
v -0.3560650 0.1000000 -0.1439350
v -0.3074050 0.1000000 -0.1114150
v -0.2500000 0.1000000 -0.2500000
v -0.3885850 0.1000000 -0.1925950
v -0.3560650 0.1000000 -0.1439350
v -0.2500000 0.1000000 -0.2500000
v -0.4000000 0.1000000 -0.2500000
v -0.3885850 0.1000000 -0.1925950
v -0.2500000 0.1000000 -0.2500000
v -0.3885850 0.1000000 -0.3074050
v -0.4000000 0.1000000 -0.2500000
v -0.2500000 0.1000000 -0.2500000
v -0.3560650 0.1000000 -0.3560650
v -0.3885850 0.1000000 -0.3074050
v -0.2500000 0.1000000 -0.2500000
v -0.3074050 0.1000000 -0.3885850
v -0.3560650 0.1000000 -0.3560650
v -0.2500000 0.1000000 -0.2500000
v -0.2500000 0.1000000 -0.4000000
v -0.3074050 0.1000000 -0.3885850
v -0.2500000 0.1000000 -0.2500000
v -0.1925950 0.1000000 -0.3885850
v -0.2500000 0.1000000 -0.4000000
v -0.2500000 0.1000000 -0.2500000
v -0.1439350 0.1000000 -0.3560650
v -0.1925950 0.1000000 -0.3885850
v -0.2500000 0.1000000 -0.2500000
v -0.1114150 0.1000000 -0.3074050
v -0.1439350 0.1000000 -0.3560650
v -0.2500000 0.1000000 -0.2500000
v -0.1000000 0.1000000 -0.2500000
v -0.1114150 0.1000000 -0.3074050
v -0.2500000 0.1000000 -0.2500000
s off
f 1 2 3
f 1 3 4
f 5 6 7
f 5 7 8
f 9 10 11
f 9 11 12
f 13 14 15
f 13 15 16
f 17 18 19
f 17 19 20
f 21 22 23
f 21 23 24
f 25 26 27
f 25 27 28
f 29 30 31
f 29 31 32
f 33 34 35
f 33 35 36
f 37 38 39
f 37 39 40
f 41 42 43
f 41 43 44
f 45 46 47
f 45 47 48
f 49 50 51
f 49 51 52
f 53 54 55
f 53 55 56
f 57 58 59
f 57 59 60
f 61 62 63
f 61 63 64
f 65 66 67
f 65 67 68
f 69 70 71
f 69 71 72
f 73 74 75
f 73 75 76
f 77 78 79
f 77 79 80
f 81 82 83
f 81 83 84
f 85 86 87
f 85 87 88
f 89 90 91
f 89 91 92
f 93 94 95
f 93 95 96
f 97 98 99
f 97 99 100
f 101 102 103
f 101 103 104
f 105 106 107
f 105 107 108
f 109 110 111
f 109 111 112
f 113 114 115
f 113 115 116
f 117 118 119
f 117 119 120
f 121 122 123
f 121 123 124
f 125 126 127
f 125 127 128
f 129 130 131
f 129 131 132
f 133 134 135
f 133 135 136
f 137 138 139
f 137 139 140
f 141 142 143
f 141 143 144
f 145 146 147
f 145 147 148
f 149 150 151
f 149 151 152
f 153 154 155
f 153 155 156
f 157 158 159
f 157 159 160
f 161 162 163
f 161 163 164
f 165 166 167
f 165 167 168
f 169 170 171
f 169 171 172
f 173 174 175
f 173 175 176
f 177 178 179
f 177 179 180
f 181 182 183
f 181 183 184
f 185 186 187
f 185 187 188
f 189 190 191
f 189 191 192
f 193 194 195
f 193 195 196
f 197 198 199
f 197 199 200
f 201 202 203
f 201 203 204
f 205 206 207
f 205 207 208
f 209 210 211
f 209 211 212
f 213 214 215
f 213 215 216
f 217 218 219
f 217 219 220
f 221 222 223
f 221 223 224
f 225 226 227
f 225 227 228
f 229 230 231
f 232 233 234
f 235 236 237
f 238 239 240
f 241 242 243
f 244 245 246
f 247 248 249
f 250 251 252
f 253 254 255
f 253 255 256
f 257 258 259
f 257 259 260
f 261 262 263
f 261 263 264
f 265 266 267
f 265 267 268
f 269 270 271
f 269 271 272
f 273 274 275
f 276 277 278
f 279 280 281
f 282 283 284
f 285 286 287
f 288 289 290
f 291 292 293
f 294 295 296
f 297 298 299
f 297 299 300
f 301 302 303
f 304 305 306
f 307 308 309
f 310 311 312
f 313 314 315
f 316 317 318
f 319 320 321
f 322 323 324
f 325 326 327
f 325 327 328
f 329 330 331
f 329 331 332
f 333 334 335
f 333 335 336
f 337 338 339
f 337 339 340
f 341 342 343
f 341 343 344
f 345 346 347
f 345 347 348
f 349 350 351
f 349 351 352
f 353 354 355
f 353 355 356
f 357 358 359
f 357 359 360
f 361 362 363
f 361 363 364
f 365 366 367
f 365 367 368
f 369 370 371
f 369 371 372
f 373 374 375
f 373 375 376
f 377 378 379
f 377 379 380
f 381 382 383
f 384 385 386
f 387 388 389
f 390 391 392
f 393 394 395
f 396 397 398
f 399 400 401
f 402 403 404
f 405 406 407
f 405 407 408
f 409 410 411
f 409 411 412
f 413 414 415
f 413 415 416
f 417 418 419
f 417 419 420
f 421 422 423
f 421 423 424
f 425 426 427
f 425 427 428
f 429 430 431
f 429 431 432
f 433 434 435
f 433 435 436
f 437 438 439
f 437 439 440
f 441 442 443
f 441 443 444
f 445 446 447
f 445 447 448
f 449 450 451
f 449 451 452
f 453 454 455
f 453 455 456
f 457 458 459
f 457 459 460
f 461 462 463
f 461 463 464
f 465 466 467
f 468 469 470
f 471 472 473
f 474 475 476
f 477 478 479
f 480 481 482
f 483 484 485
f 486 487 488
f 489 490 491
f 489 491 492
f 493 494 495
f 493 495 496
f 497 498 499
f 497 499 500
f 501 502 503
f 501 503 504
f 505 506 507
f 505 507 508
f 509 510 511
f 509 511 512
f 513 514 515
f 513 515 516
f 517 518 519
f 517 519 520
f 521 522 523
f 521 523 524
f 525 526 527
f 525 527 528
f 529 530 531
f 529 531 532
f 533 534 535
f 533 535 536
f 537 538 539
f 537 539 540
f 541 542 543
f 544 545 546
f 547 548 549
f 550 551 552
f 553 554 555
f 556 557 558
f 559 560 561
f 562 563 564
f 565 566 567
f 565 567 568
f 569 570 571
f 569 571 572
f 573 574 575
f 573 575 576
f 577 578 579
f 577 579 580
f 581 582 583
f 581 583 584
f 585 586 587
f 585 587 588
f 589 590 591
f 589 591 592
f 593 594 595
f 593 595 596
f 597 598 599
f 597 599 600
f 601 602 603
f 601 603 604
f 605 606 607
f 605 607 608
f 609 610 611
f 609 611 612
f 613 614 615
f 613 615 616
f 617 618 619
f 617 619 620
f 621 622 623
f 621 623 624
f 625 626 627
f 625 627 628
f 629 630 631
f 629 631 632
f 633 634 635
f 633 635 636
f 637 638 639
f 640 641 642
f 643 644 645
f 646 647 648
f 649 650 651
f 652 653 654
f 655 656 657
f 658 659 660
f 661 662 663
f 664 665 666
f 667 668 669
f 670 671 672
f 673 674 675
f 676 677 678
f 679 680 681
f 682 683 684
f 685 686 687
f 685 687 688
f 689 690 691
f 689 691 692
f 693 694 695
f 693 695 696
f 697 698 699
f 697 699 700
f 701 702 703
f 701 703 704
f 705 706 707
f 705 707 708
f 709 710 711
f 709 711 712
f 713 714 715
f 713 715 716
f 717 718 719
f 717 719 720
f 721 722 723
f 721 723 724
f 725 726 727
f 725 727 728
f 729 730 731
f 729 731 732
f 733 734 735
f 733 735 736
f 737 738 739
f 737 739 740
f 741 742 743
f 741 743 744
f 745 746 747
f 745 747 748
f 749 750 751
f 752 753 754
f 755 756 757
f 758 759 760
f 761 762 763
f 764 765 766
f 767 768 769
f 770 771 772
f 773 774 775
f 776 777 778
f 779 780 781
f 782 783 784
f 785 786 787
f 788 789 790
f 791 792 793
f 794 795 796
