# Baked from official LDraw part 4162.dat
o ldraw_4162
v -2.0000000 -0.0000000 0.2500000
v 2.0000000 -0.0000000 0.2500000
v 2.0000000 -0.0000000 -0.2500000
v -2.0000000 -0.0000000 -0.2500000
v -2.0000000 -0.0000000 0.2500000
v -2.0000000 -0.1750000 0.2500000
v 2.0000000 -0.1750000 0.2500000
v 2.0000000 -0.0000000 0.2500000
v -2.0000000 -0.0000000 -0.2500000
v -2.0000000 -0.1750000 -0.2500000
v -2.0000000 -0.1750000 0.2500000
v -2.0000000 -0.0000000 0.2500000
v 2.0000000 -0.0000000 -0.2500000
v 2.0000000 -0.1750000 -0.2500000
v -2.0000000 -0.1750000 -0.2500000
v -2.0000000 -0.0000000 -0.2500000
v 2.0000000 -0.0000000 0.2500000
v 2.0000000 -0.1750000 0.2500000
v 2.0000000 -0.1750000 -0.2500000
v 2.0000000 -0.0000000 -0.2500000
v -1.9000000 -0.1000000 -0.1500000
v 1.9000000 -0.1000000 -0.1500000
v 1.9000000 -0.1000000 0.1500000
v -1.9000000 -0.1000000 0.1500000
v 1.9000000 -0.1000000 0.1500000
v 1.9000000 -0.2000000 0.1500000
v -1.9000000 -0.2000000 0.1500000
v -1.9000000 -0.1000000 0.1500000
v -1.9000000 -0.1000000 0.1500000
v -1.9000000 -0.2000000 0.1500000
v -1.9000000 -0.2000000 -0.1500000
v -1.9000000 -0.1000000 -0.1500000
v -1.9000000 -0.1000000 -0.1500000
v -1.9000000 -0.2000000 -0.1500000
v 1.9000000 -0.2000000 -0.1500000
v 1.9000000 -0.1000000 -0.1500000
v 1.9000000 -0.1000000 -0.1500000
v 1.9000000 -0.2000000 -0.1500000
v 1.9000000 -0.2000000 0.1500000
v 1.9000000 -0.1000000 0.1500000
v -1.9750000 -0.2000000 0.2250000
v -1.9000000 -0.2000000 0.1500000
v 1.9000000 -0.2000000 0.1500000
v 1.9750000 -0.2000000 0.2250000
v -1.9750000 -0.2000000 -0.2250000
v -1.9000000 -0.2000000 -0.1500000
v -1.9000000 -0.2000000 0.1500000
v -1.9750000 -0.2000000 0.2250000
v 1.9750000 -0.2000000 -0.2250000
v 1.9000000 -0.2000000 -0.1500000
v -1.9000000 -0.2000000 -0.1500000
v -1.9750000 -0.2000000 -0.2250000
v 1.9750000 -0.2000000 0.2250000
v 1.9000000 -0.2000000 0.1500000
v 1.9000000 -0.2000000 -0.1500000
v 1.9750000 -0.2000000 -0.2250000
v -1.9750000 -0.1750000 0.2250000
v -1.9750000 -0.2000000 0.2250000
v 1.9750000 -0.2000000 0.2250000
v 1.9750000 -0.1750000 0.2250000
v -1.9750000 -0.1750000 -0.2250000
v -1.9750000 -0.2000000 -0.2250000
v -1.9750000 -0.2000000 0.2250000
v -1.9750000 -0.1750000 0.2250000
v 1.9750000 -0.1750000 -0.2250000
v 1.9750000 -0.2000000 -0.2250000
v -1.9750000 -0.2000000 -0.2250000
v -1.9750000 -0.1750000 -0.2250000
v 1.9750000 -0.1750000 0.2250000
v 1.9750000 -0.2000000 0.2250000
v 1.9750000 -0.2000000 -0.2250000
v 1.9750000 -0.1750000 -0.2250000
v -2.0000000 -0.1750000 0.2500000
v -1.9750000 -0.1750000 0.2250000
v 1.9750000 -0.1750000 0.2250000
v 2.0000000 -0.1750000 0.2500000
v -2.0000000 -0.1750000 -0.2500000
v -1.9750000 -0.1750000 -0.2250000
v -1.9750000 -0.1750000 0.2250000
v -2.0000000 -0.1750000 0.2500000
v 2.0000000 -0.1750000 -0.2500000
v 1.9750000 -0.1750000 -0.2250000
v -1.9750000 -0.1750000 -0.2250000
v -2.0000000 -0.1750000 -0.2500000
v 2.0000000 -0.1750000 0.2500000
v 1.9750000 -0.1750000 0.2250000
v 1.9750000 -0.1750000 -0.2250000
v 2.0000000 -0.1750000 -0.2500000
v -1.5000000 -0.2000000 0.0000000
v -1.4000000 -0.2000000 0.0000000
v -1.4076100 -0.2000000 0.0382700
v -1.5000000 -0.2000000 0.0000000
v -1.4076100 -0.2000000 0.0382700
v -1.4292900 -0.2000000 0.0707100
v -1.5000000 -0.2000000 0.0000000
v -1.4292900 -0.2000000 0.0707100
v -1.4617300 -0.2000000 0.0923900
v -1.5000000 -0.2000000 0.0000000
v -1.4617300 -0.2000000 0.0923900
v -1.5000000 -0.2000000 0.1000000
v -1.5000000 -0.2000000 0.0000000
v -1.5000000 -0.2000000 0.1000000
v -1.5382700 -0.2000000 0.0923900
v -1.5000000 -0.2000000 0.0000000
v -1.5382700 -0.2000000 0.0923900
v -1.5707100 -0.2000000 0.0707100
v -1.5000000 -0.2000000 0.0000000
v -1.5707100 -0.2000000 0.0707100
v -1.5923900 -0.2000000 0.0382700
v -1.5000000 -0.2000000 0.0000000
v -1.5923900 -0.2000000 0.0382700
v -1.6000000 -0.2000000 0.0000000
v -1.5000000 -0.2000000 0.0000000
v -1.6000000 -0.2000000 0.0000000
v -1.5923900 -0.2000000 -0.0382700
v -1.5000000 -0.2000000 0.0000000
v -1.5923900 -0.2000000 -0.0382700
v -1.5707100 -0.2000000 -0.0707100
v -1.5000000 -0.2000000 0.0000000
v -1.5707100 -0.2000000 -0.0707100
v -1.5382700 -0.2000000 -0.0923900
v -1.5000000 -0.2000000 0.0000000
v -1.5382700 -0.2000000 -0.0923900
v -1.5000000 -0.2000000 -0.1000000
v -1.5000000 -0.2000000 0.0000000
v -1.5000000 -0.2000000 -0.1000000
v -1.4617300 -0.2000000 -0.0923900
v -1.5000000 -0.2000000 0.0000000
v -1.4617300 -0.2000000 -0.0923900
v -1.4292900 -0.2000000 -0.0707100
v -1.5000000 -0.2000000 0.0000000
v -1.4292900 -0.2000000 -0.0707100
v -1.4076100 -0.2000000 -0.0382700
v -1.5000000 -0.2000000 0.0000000
v -1.4076100 -0.2000000 -0.0382700
v -1.4000000 -0.2000000 0.0000000
v -1.4000000 -0.1000000 0.0000000
v -1.4076100 -0.1000000 0.0382700
v -1.4076100 -0.2000000 0.0382700
v -1.4000000 -0.2000000 0.0000000
v -1.4076100 -0.1000000 0.0382700
v -1.4292900 -0.1000000 0.0707100
v -1.4292900 -0.2000000 0.0707100
v -1.4076100 -0.2000000 0.0382700
v -1.4292900 -0.1000000 0.0707100
v -1.4617300 -0.1000000 0.0923900
v -1.4617300 -0.2000000 0.0923900
v -1.4292900 -0.2000000 0.0707100
v -1.4617300 -0.1000000 0.0923900
v -1.5000000 -0.1000000 0.1000000
v -1.5000000 -0.2000000 0.1000000
v -1.4617300 -0.2000000 0.0923900
v -1.5000000 -0.1000000 0.1000000
v -1.5382700 -0.1000000 0.0923900
v -1.5382700 -0.2000000 0.0923900
v -1.5000000 -0.2000000 0.1000000
v -1.5382700 -0.1000000 0.0923900
v -1.5707100 -0.1000000 0.0707100
v -1.5707100 -0.2000000 0.0707100
v -1.5382700 -0.2000000 0.0923900
v -1.5707100 -0.1000000 0.0707100
v -1.5923900 -0.1000000 0.0382700
v -1.5923900 -0.2000000 0.0382700
v -1.5707100 -0.2000000 0.0707100
v -1.5923900 -0.1000000 0.0382700
v -1.6000000 -0.1000000 0.0000000
v -1.6000000 -0.2000000 0.0000000
v -1.5923900 -0.2000000 0.0382700
v -1.6000000 -0.1000000 0.0000000
v -1.5923900 -0.1000000 -0.0382700
v -1.5923900 -0.2000000 -0.0382700
v -1.6000000 -0.2000000 0.0000000
v -1.5923900 -0.1000000 -0.0382700
v -1.5707100 -0.1000000 -0.0707100
v -1.5707100 -0.2000000 -0.0707100
v -1.5923900 -0.2000000 -0.0382700
v -1.5707100 -0.1000000 -0.0707100
v -1.5382700 -0.1000000 -0.0923900
v -1.5382700 -0.2000000 -0.0923900
v -1.5707100 -0.2000000 -0.0707100
v -1.5382700 -0.1000000 -0.0923900
v -1.5000000 -0.1000000 -0.1000000
v -1.5000000 -0.2000000 -0.1000000
v -1.5382700 -0.2000000 -0.0923900
v -1.5000000 -0.1000000 -0.1000000
v -1.4617300 -0.1000000 -0.0923900
v -1.4617300 -0.2000000 -0.0923900
v -1.5000000 -0.2000000 -0.1000000
v -1.4617300 -0.1000000 -0.0923900
v -1.4292900 -0.1000000 -0.0707100
v -1.4292900 -0.2000000 -0.0707100
v -1.4617300 -0.2000000 -0.0923900
v -1.4292900 -0.1000000 -0.0707100
v -1.4076100 -0.1000000 -0.0382700
v -1.4076100 -0.2000000 -0.0382700
v -1.4292900 -0.2000000 -0.0707100
v -1.4076100 -0.1000000 -0.0382700
v -1.4000000 -0.1000000 0.0000000
v -1.4000000 -0.2000000 0.0000000
v -1.4076100 -0.2000000 -0.0382700
v -1.0000000 -0.2000000 0.0000000
v -0.9000000 -0.2000000 0.0000000
v -0.9076100 -0.2000000 0.0382700
v -1.0000000 -0.2000000 0.0000000
v -0.9076100 -0.2000000 0.0382700
v -0.9292900 -0.2000000 0.0707100
v -1.0000000 -0.2000000 0.0000000
v -0.9292900 -0.2000000 0.0707100
v -0.9617300 -0.2000000 0.0923900
v -1.0000000 -0.2000000 0.0000000
v -0.9617300 -0.2000000 0.0923900
v -1.0000000 -0.2000000 0.1000000
v -1.0000000 -0.2000000 0.0000000
v -1.0000000 -0.2000000 0.1000000
v -1.0382700 -0.2000000 0.0923900
v -1.0000000 -0.2000000 0.0000000
v -1.0382700 -0.2000000 0.0923900
v -1.0707100 -0.2000000 0.0707100
v -1.0000000 -0.2000000 0.0000000
v -1.0707100 -0.2000000 0.0707100
v -1.0923900 -0.2000000 0.0382700
v -1.0000000 -0.2000000 0.0000000
v -1.0923900 -0.2000000 0.0382700
v -1.1000000 -0.2000000 0.0000000
v -1.0000000 -0.2000000 0.0000000
v -1.1000000 -0.2000000 0.0000000
v -1.0923900 -0.2000000 -0.0382700
v -1.0000000 -0.2000000 0.0000000
v -1.0923900 -0.2000000 -0.0382700
v -1.0707100 -0.2000000 -0.0707100
v -1.0000000 -0.2000000 0.0000000
v -1.0707100 -0.2000000 -0.0707100
v -1.0382700 -0.2000000 -0.0923900
v -1.0000000 -0.2000000 0.0000000
v -1.0382700 -0.2000000 -0.0923900
v -1.0000000 -0.2000000 -0.1000000
v -1.0000000 -0.2000000 0.0000000
v -1.0000000 -0.2000000 -0.1000000
v -0.9617300 -0.2000000 -0.0923900
v -1.0000000 -0.2000000 0.0000000
v -0.9617300 -0.2000000 -0.0923900
v -0.9292900 -0.2000000 -0.0707100
v -1.0000000 -0.2000000 0.0000000
v -0.9292900 -0.2000000 -0.0707100
v -0.9076100 -0.2000000 -0.0382700
v -1.0000000 -0.2000000 0.0000000
v -0.9076100 -0.2000000 -0.0382700
v -0.9000000 -0.2000000 0.0000000
v -0.9000000 -0.1000000 0.0000000
v -0.9076100 -0.1000000 0.0382700
v -0.9076100 -0.2000000 0.0382700
v -0.9000000 -0.2000000 0.0000000
v -0.9076100 -0.1000000 0.0382700
v -0.9292900 -0.1000000 0.0707100
v -0.9292900 -0.2000000 0.0707100
v -0.9076100 -0.2000000 0.0382700
v -0.9292900 -0.1000000 0.0707100
v -0.9617300 -0.1000000 0.0923900
v -0.9617300 -0.2000000 0.0923900
v -0.9292900 -0.2000000 0.0707100
v -0.9617300 -0.1000000 0.0923900
v -1.0000000 -0.1000000 0.1000000
v -1.0000000 -0.2000000 0.1000000
v -0.9617300 -0.2000000 0.0923900
v -1.0000000 -0.1000000 0.1000000
v -1.0382700 -0.1000000 0.0923900
v -1.0382700 -0.2000000 0.0923900
v -1.0000000 -0.2000000 0.1000000
v -1.0382700 -0.1000000 0.0923900
v -1.0707100 -0.1000000 0.0707100
v -1.0707100 -0.2000000 0.0707100
v -1.0382700 -0.2000000 0.0923900
v -1.0707100 -0.1000000 0.0707100
v -1.0923900 -0.1000000 0.0382700
v -1.0923900 -0.2000000 0.0382700
v -1.0707100 -0.2000000 0.0707100
v -1.0923900 -0.1000000 0.0382700
v -1.1000000 -0.1000000 0.0000000
v -1.1000000 -0.2000000 0.0000000
v -1.0923900 -0.2000000 0.0382700
v -1.1000000 -0.1000000 0.0000000
v -1.0923900 -0.1000000 -0.0382700
v -1.0923900 -0.2000000 -0.0382700
v -1.1000000 -0.2000000 0.0000000
v -1.0923900 -0.1000000 -0.0382700
v -1.0707100 -0.1000000 -0.0707100
v -1.0707100 -0.2000000 -0.0707100
v -1.0923900 -0.2000000 -0.0382700
v -1.0707100 -0.1000000 -0.0707100
v -1.0382700 -0.1000000 -0.0923900
v -1.0382700 -0.2000000 -0.0923900
v -1.0707100 -0.2000000 -0.0707100
v -1.0382700 -0.1000000 -0.0923900
v -1.0000000 -0.1000000 -0.1000000
v -1.0000000 -0.2000000 -0.1000000
v -1.0382700 -0.2000000 -0.0923900
v -1.0000000 -0.1000000 -0.1000000
v -0.9617300 -0.1000000 -0.0923900
v -0.9617300 -0.2000000 -0.0923900
v -1.0000000 -0.2000000 -0.1000000
v -0.9617300 -0.1000000 -0.0923900
v -0.9292900 -0.1000000 -0.0707100
v -0.9292900 -0.2000000 -0.0707100
v -0.9617300 -0.2000000 -0.0923900
v -0.9292900 -0.1000000 -0.0707100
v -0.9076100 -0.1000000 -0.0382700
v -0.9076100 -0.2000000 -0.0382700
v -0.9292900 -0.2000000 -0.0707100
v -0.9076100 -0.1000000 -0.0382700
v -0.9000000 -0.1000000 0.0000000
v -0.9000000 -0.2000000 0.0000000
v -0.9076100 -0.2000000 -0.0382700
v -0.5000000 -0.2000000 0.0000000
v -0.4000000 -0.2000000 0.0000000
v -0.4076100 -0.2000000 0.0382700
v -0.5000000 -0.2000000 0.0000000
v -0.4076100 -0.2000000 0.0382700
v -0.4292900 -0.2000000 0.0707100
v -0.5000000 -0.2000000 0.0000000
v -0.4292900 -0.2000000 0.0707100
v -0.4617300 -0.2000000 0.0923900
v -0.5000000 -0.2000000 0.0000000
v -0.4617300 -0.2000000 0.0923900
v -0.5000000 -0.2000000 0.1000000
v -0.5000000 -0.2000000 0.0000000
v -0.5000000 -0.2000000 0.1000000
v -0.5382700 -0.2000000 0.0923900
v -0.5000000 -0.2000000 0.0000000
v -0.5382700 -0.2000000 0.0923900
v -0.5707100 -0.2000000 0.0707100
v -0.5000000 -0.2000000 0.0000000
v -0.5707100 -0.2000000 0.0707100
v -0.5923900 -0.2000000 0.0382700
v -0.5000000 -0.2000000 0.0000000
v -0.5923900 -0.2000000 0.0382700
v -0.6000000 -0.2000000 0.0000000
v -0.5000000 -0.2000000 0.0000000
v -0.6000000 -0.2000000 0.0000000
v -0.5923900 -0.2000000 -0.0382700
v -0.5000000 -0.2000000 0.0000000
v -0.5923900 -0.2000000 -0.0382700
v -0.5707100 -0.2000000 -0.0707100
v -0.5000000 -0.2000000 0.0000000
v -0.5707100 -0.2000000 -0.0707100
v -0.5382700 -0.2000000 -0.0923900
v -0.5000000 -0.2000000 0.0000000
v -0.5382700 -0.2000000 -0.0923900
v -0.5000000 -0.2000000 -0.1000000
v -0.5000000 -0.2000000 0.0000000
v -0.5000000 -0.2000000 -0.1000000
v -0.4617300 -0.2000000 -0.0923900
v -0.5000000 -0.2000000 0.0000000
v -0.4617300 -0.2000000 -0.0923900
v -0.4292900 -0.2000000 -0.0707100
v -0.5000000 -0.2000000 0.0000000
v -0.4292900 -0.2000000 -0.0707100
v -0.4076100 -0.2000000 -0.0382700
v -0.5000000 -0.2000000 0.0000000
v -0.4076100 -0.2000000 -0.0382700
v -0.4000000 -0.2000000 0.0000000
v -0.4000000 -0.1000000 0.0000000
v -0.4076100 -0.1000000 0.0382700
v -0.4076100 -0.2000000 0.0382700
v -0.4000000 -0.2000000 0.0000000
v -0.4076100 -0.1000000 0.0382700
v -0.4292900 -0.1000000 0.0707100
v -0.4292900 -0.2000000 0.0707100
v -0.4076100 -0.2000000 0.0382700
v -0.4292900 -0.1000000 0.0707100
v -0.4617300 -0.1000000 0.0923900
v -0.4617300 -0.2000000 0.0923900
v -0.4292900 -0.2000000 0.0707100
v -0.4617300 -0.1000000 0.0923900
v -0.5000000 -0.1000000 0.1000000
v -0.5000000 -0.2000000 0.1000000
v -0.4617300 -0.2000000 0.0923900
v -0.5000000 -0.1000000 0.1000000
v -0.5382700 -0.1000000 0.0923900
v -0.5382700 -0.2000000 0.0923900
v -0.5000000 -0.2000000 0.1000000
v -0.5382700 -0.1000000 0.0923900
v -0.5707100 -0.1000000 0.0707100
v -0.5707100 -0.2000000 0.0707100
v -0.5382700 -0.2000000 0.0923900
v -0.5707100 -0.1000000 0.0707100
v -0.5923900 -0.1000000 0.0382700
v -0.5923900 -0.2000000 0.0382700
v -0.5707100 -0.2000000 0.0707100
v -0.5923900 -0.1000000 0.0382700
v -0.6000000 -0.1000000 0.0000000
v -0.6000000 -0.2000000 0.0000000
v -0.5923900 -0.2000000 0.0382700
v -0.6000000 -0.1000000 0.0000000
v -0.5923900 -0.1000000 -0.0382700
v -0.5923900 -0.2000000 -0.0382700
v -0.6000000 -0.2000000 0.0000000
v -0.5923900 -0.1000000 -0.0382700
v -0.5707100 -0.1000000 -0.0707100
v -0.5707100 -0.2000000 -0.0707100
v -0.5923900 -0.2000000 -0.0382700
v -0.5707100 -0.1000000 -0.0707100
v -0.5382700 -0.1000000 -0.0923900
v -0.5382700 -0.2000000 -0.0923900
v -0.5707100 -0.2000000 -0.0707100
v -0.5382700 -0.1000000 -0.0923900
v -0.5000000 -0.1000000 -0.1000000
v -0.5000000 -0.2000000 -0.1000000
v -0.5382700 -0.2000000 -0.0923900
v -0.5000000 -0.1000000 -0.1000000
v -0.4617300 -0.1000000 -0.0923900
v -0.4617300 -0.2000000 -0.0923900
v -0.5000000 -0.2000000 -0.1000000
v -0.4617300 -0.1000000 -0.0923900
v -0.4292900 -0.1000000 -0.0707100
v -0.4292900 -0.2000000 -0.0707100
v -0.4617300 -0.2000000 -0.0923900
v -0.4292900 -0.1000000 -0.0707100
v -0.4076100 -0.1000000 -0.0382700
v -0.4076100 -0.2000000 -0.0382700
v -0.4292900 -0.2000000 -0.0707100
v -0.4076100 -0.1000000 -0.0382700
v -0.4000000 -0.1000000 0.0000000
v -0.4000000 -0.2000000 0.0000000
v -0.4076100 -0.2000000 -0.0382700
v 0.0000000 -0.2000000 0.0000000
v 0.1000000 -0.2000000 0.0000000
v 0.0923900 -0.2000000 0.0382700
v 0.0000000 -0.2000000 0.0000000
v 0.0923900 -0.2000000 0.0382700
v 0.0707100 -0.2000000 0.0707100
v 0.0000000 -0.2000000 0.0000000
v 0.0707100 -0.2000000 0.0707100
v 0.0382700 -0.2000000 0.0923900
v 0.0000000 -0.2000000 0.0000000
v 0.0382700 -0.2000000 0.0923900
v 0.0000000 -0.2000000 0.1000000
v 0.0000000 -0.2000000 0.0000000
v 0.0000000 -0.2000000 0.1000000
v -0.0382700 -0.2000000 0.0923900
v 0.0000000 -0.2000000 0.0000000
v -0.0382700 -0.2000000 0.0923900
v -0.0707100 -0.2000000 0.0707100
v 0.0000000 -0.2000000 0.0000000
v -0.0707100 -0.2000000 0.0707100
v -0.0923900 -0.2000000 0.0382700
v 0.0000000 -0.2000000 0.0000000
v -0.0923900 -0.2000000 0.0382700
v -0.1000000 -0.2000000 0.0000000
v 0.0000000 -0.2000000 0.0000000
v -0.1000000 -0.2000000 0.0000000
v -0.0923900 -0.2000000 -0.0382700
v 0.0000000 -0.2000000 0.0000000
v -0.0923900 -0.2000000 -0.0382700
v -0.0707100 -0.2000000 -0.0707100
v 0.0000000 -0.2000000 0.0000000
v -0.0707100 -0.2000000 -0.0707100
v -0.0382700 -0.2000000 -0.0923900
v 0.0000000 -0.2000000 0.0000000
v -0.0382700 -0.2000000 -0.0923900
v 0.0000000 -0.2000000 -0.1000000
v 0.0000000 -0.2000000 0.0000000
v 0.0000000 -0.2000000 -0.1000000
v 0.0382700 -0.2000000 -0.0923900
v 0.0000000 -0.2000000 0.0000000
v 0.0382700 -0.2000000 -0.0923900
v 0.0707100 -0.2000000 -0.0707100
v 0.0000000 -0.2000000 0.0000000
v 0.0707100 -0.2000000 -0.0707100
v 0.0923900 -0.2000000 -0.0382700
v 0.0000000 -0.2000000 0.0000000
v 0.0923900 -0.2000000 -0.0382700
v 0.1000000 -0.2000000 0.0000000
v 0.1000000 -0.1000000 0.0000000
v 0.0923900 -0.1000000 0.0382700
v 0.0923900 -0.2000000 0.0382700
v 0.1000000 -0.2000000 0.0000000
v 0.0923900 -0.1000000 0.0382700
v 0.0707100 -0.1000000 0.0707100
v 0.0707100 -0.2000000 0.0707100
v 0.0923900 -0.2000000 0.0382700
v 0.0707100 -0.1000000 0.0707100
v 0.0382700 -0.1000000 0.0923900
v 0.0382700 -0.2000000 0.0923900
v 0.0707100 -0.2000000 0.0707100
v 0.0382700 -0.1000000 0.0923900
v 0.0000000 -0.1000000 0.1000000
v 0.0000000 -0.2000000 0.1000000
v 0.0382700 -0.2000000 0.0923900
v 0.0000000 -0.1000000 0.1000000
v -0.0382700 -0.1000000 0.0923900
v -0.0382700 -0.2000000 0.0923900
v 0.0000000 -0.2000000 0.1000000
v -0.0382700 -0.1000000 0.0923900
v -0.0707100 -0.1000000 0.0707100
v -0.0707100 -0.2000000 0.0707100
v -0.0382700 -0.2000000 0.0923900
v -0.0707100 -0.1000000 0.0707100
v -0.0923900 -0.1000000 0.0382700
v -0.0923900 -0.2000000 0.0382700
v -0.0707100 -0.2000000 0.0707100
v -0.0923900 -0.1000000 0.0382700
v -0.1000000 -0.1000000 0.0000000
v -0.1000000 -0.2000000 0.0000000
v -0.0923900 -0.2000000 0.0382700
v -0.1000000 -0.1000000 0.0000000
v -0.0923900 -0.1000000 -0.0382700
v -0.0923900 -0.2000000 -0.0382700
v -0.1000000 -0.2000000 0.0000000
v -0.0923900 -0.1000000 -0.0382700
v -0.0707100 -0.1000000 -0.0707100
v -0.0707100 -0.2000000 -0.0707100
v -0.0923900 -0.2000000 -0.0382700
v -0.0707100 -0.1000000 -0.0707100
v -0.0382700 -0.1000000 -0.0923900
v -0.0382700 -0.2000000 -0.0923900
v -0.0707100 -0.2000000 -0.0707100
v -0.0382700 -0.1000000 -0.0923900
v 0.0000000 -0.1000000 -0.1000000
v 0.0000000 -0.2000000 -0.1000000
v -0.0382700 -0.2000000 -0.0923900
v 0.0000000 -0.1000000 -0.1000000
v 0.0382700 -0.1000000 -0.0923900
v 0.0382700 -0.2000000 -0.0923900
v 0.0000000 -0.2000000 -0.1000000
v 0.0382700 -0.1000000 -0.0923900
v 0.0707100 -0.1000000 -0.0707100
v 0.0707100 -0.2000000 -0.0707100
v 0.0382700 -0.2000000 -0.0923900
v 0.0707100 -0.1000000 -0.0707100
v 0.0923900 -0.1000000 -0.0382700
v 0.0923900 -0.2000000 -0.0382700
v 0.0707100 -0.2000000 -0.0707100
v 0.0923900 -0.1000000 -0.0382700
v 0.1000000 -0.1000000 0.0000000
v 0.1000000 -0.2000000 0.0000000
v 0.0923900 -0.2000000 -0.0382700
v 0.5000000 -0.2000000 0.0000000
v 0.6000000 -0.2000000 0.0000000
v 0.5923900 -0.2000000 0.0382700
v 0.5000000 -0.2000000 0.0000000
v 0.5923900 -0.2000000 0.0382700
v 0.5707100 -0.2000000 0.0707100
v 0.5000000 -0.2000000 0.0000000
v 0.5707100 -0.2000000 0.0707100
v 0.5382700 -0.2000000 0.0923900
v 0.5000000 -0.2000000 0.0000000
v 0.5382700 -0.2000000 0.0923900
v 0.5000000 -0.2000000 0.1000000
v 0.5000000 -0.2000000 0.0000000
v 0.5000000 -0.2000000 0.1000000
v 0.4617300 -0.2000000 0.0923900
v 0.5000000 -0.2000000 0.0000000
v 0.4617300 -0.2000000 0.0923900
v 0.4292900 -0.2000000 0.0707100
v 0.5000000 -0.2000000 0.0000000
v 0.4292900 -0.2000000 0.0707100
v 0.4076100 -0.2000000 0.0382700
v 0.5000000 -0.2000000 0.0000000
v 0.4076100 -0.2000000 0.0382700
v 0.4000000 -0.2000000 0.0000000
v 0.5000000 -0.2000000 0.0000000
v 0.4000000 -0.2000000 0.0000000
v 0.4076100 -0.2000000 -0.0382700
v 0.5000000 -0.2000000 0.0000000
v 0.4076100 -0.2000000 -0.0382700
v 0.4292900 -0.2000000 -0.0707100
v 0.5000000 -0.2000000 0.0000000
v 0.4292900 -0.2000000 -0.0707100
v 0.4617300 -0.2000000 -0.0923900
v 0.5000000 -0.2000000 0.0000000
v 0.4617300 -0.2000000 -0.0923900
v 0.5000000 -0.2000000 -0.1000000
v 0.5000000 -0.2000000 0.0000000
v 0.5000000 -0.2000000 -0.1000000
v 0.5382700 -0.2000000 -0.0923900
v 0.5000000 -0.2000000 0.0000000
v 0.5382700 -0.2000000 -0.0923900
v 0.5707100 -0.2000000 -0.0707100
v 0.5000000 -0.2000000 0.0000000
v 0.5707100 -0.2000000 -0.0707100
v 0.5923900 -0.2000000 -0.0382700
v 0.5000000 -0.2000000 0.0000000
v 0.5923900 -0.2000000 -0.0382700
v 0.6000000 -0.2000000 0.0000000
v 0.6000000 -0.1000000 0.0000000
v 0.5923900 -0.1000000 0.0382700
v 0.5923900 -0.2000000 0.0382700
v 0.6000000 -0.2000000 0.0000000
v 0.5923900 -0.1000000 0.0382700
v 0.5707100 -0.1000000 0.0707100
v 0.5707100 -0.2000000 0.0707100
v 0.5923900 -0.2000000 0.0382700
v 0.5707100 -0.1000000 0.0707100
v 0.5382700 -0.1000000 0.0923900
v 0.5382700 -0.2000000 0.0923900
v 0.5707100 -0.2000000 0.0707100
v 0.5382700 -0.1000000 0.0923900
v 0.5000000 -0.1000000 0.1000000
v 0.5000000 -0.2000000 0.1000000
v 0.5382700 -0.2000000 0.0923900
v 0.5000000 -0.1000000 0.1000000
v 0.4617300 -0.1000000 0.0923900
v 0.4617300 -0.2000000 0.0923900
v 0.5000000 -0.2000000 0.1000000
v 0.4617300 -0.1000000 0.0923900
v 0.4292900 -0.1000000 0.0707100
v 0.4292900 -0.2000000 0.0707100
v 0.4617300 -0.2000000 0.0923900
v 0.4292900 -0.1000000 0.0707100
v 0.4076100 -0.1000000 0.0382700
v 0.4076100 -0.2000000 0.0382700
v 0.4292900 -0.2000000 0.0707100
v 0.4076100 -0.1000000 0.0382700
v 0.4000000 -0.1000000 0.0000000
v 0.4000000 -0.2000000 0.0000000
v 0.4076100 -0.2000000 0.0382700
v 0.4000000 -0.1000000 0.0000000
v 0.4076100 -0.1000000 -0.0382700
v 0.4076100 -0.2000000 -0.0382700
v 0.4000000 -0.2000000 0.0000000
v 0.4076100 -0.1000000 -0.0382700
v 0.4292900 -0.1000000 -0.0707100
v 0.4292900 -0.2000000 -0.0707100
v 0.4076100 -0.2000000 -0.0382700
v 0.4292900 -0.1000000 -0.0707100
v 0.4617300 -0.1000000 -0.0923900
v 0.4617300 -0.2000000 -0.0923900
v 0.4292900 -0.2000000 -0.0707100
v 0.4617300 -0.1000000 -0.0923900
v 0.5000000 -0.1000000 -0.1000000
v 0.5000000 -0.2000000 -0.1000000
v 0.4617300 -0.2000000 -0.0923900
v 0.5000000 -0.1000000 -0.1000000
v 0.5382700 -0.1000000 -0.0923900
v 0.5382700 -0.2000000 -0.0923900
v 0.5000000 -0.2000000 -0.1000000
v 0.5382700 -0.1000000 -0.0923900
v 0.5707100 -0.1000000 -0.0707100
v 0.5707100 -0.2000000 -0.0707100
v 0.5382700 -0.2000000 -0.0923900
v 0.5707100 -0.1000000 -0.0707100
v 0.5923900 -0.1000000 -0.0382700
v 0.5923900 -0.2000000 -0.0382700
v 0.5707100 -0.2000000 -0.0707100
v 0.5923900 -0.1000000 -0.0382700
v 0.6000000 -0.1000000 0.0000000
v 0.6000000 -0.2000000 0.0000000
v 0.5923900 -0.2000000 -0.0382700
v 1.0000000 -0.2000000 0.0000000
v 1.1000000 -0.2000000 0.0000000
v 1.0923900 -0.2000000 0.0382700
v 1.0000000 -0.2000000 0.0000000
v 1.0923900 -0.2000000 0.0382700
v 1.0707100 -0.2000000 0.0707100
v 1.0000000 -0.2000000 0.0000000
v 1.0707100 -0.2000000 0.0707100
v 1.0382700 -0.2000000 0.0923900
v 1.0000000 -0.2000000 0.0000000
v 1.0382700 -0.2000000 0.0923900
v 1.0000000 -0.2000000 0.1000000
v 1.0000000 -0.2000000 0.0000000
v 1.0000000 -0.2000000 0.1000000
v 0.9617300 -0.2000000 0.0923900
v 1.0000000 -0.2000000 0.0000000
v 0.9617300 -0.2000000 0.0923900
v 0.9292900 -0.2000000 0.0707100
v 1.0000000 -0.2000000 0.0000000
v 0.9292900 -0.2000000 0.0707100
v 0.9076100 -0.2000000 0.0382700
v 1.0000000 -0.2000000 0.0000000
v 0.9076100 -0.2000000 0.0382700
v 0.9000000 -0.2000000 0.0000000
v 1.0000000 -0.2000000 0.0000000
v 0.9000000 -0.2000000 0.0000000
v 0.9076100 -0.2000000 -0.0382700
v 1.0000000 -0.2000000 0.0000000
v 0.9076100 -0.2000000 -0.0382700
v 0.9292900 -0.2000000 -0.0707100
v 1.0000000 -0.2000000 0.0000000
v 0.9292900 -0.2000000 -0.0707100
v 0.9617300 -0.2000000 -0.0923900
v 1.0000000 -0.2000000 0.0000000
v 0.9617300 -0.2000000 -0.0923900
v 1.0000000 -0.2000000 -0.1000000
v 1.0000000 -0.2000000 0.0000000
v 1.0000000 -0.2000000 -0.1000000
v 1.0382700 -0.2000000 -0.0923900
v 1.0000000 -0.2000000 0.0000000
v 1.0382700 -0.2000000 -0.0923900
v 1.0707100 -0.2000000 -0.0707100
v 1.0000000 -0.2000000 0.0000000
v 1.0707100 -0.2000000 -0.0707100
v 1.0923900 -0.2000000 -0.0382700
v 1.0000000 -0.2000000 0.0000000
v 1.0923900 -0.2000000 -0.0382700
v 1.1000000 -0.2000000 0.0000000
v 1.1000000 -0.1000000 0.0000000
v 1.0923900 -0.1000000 0.0382700
v 1.0923900 -0.2000000 0.0382700
v 1.1000000 -0.2000000 0.0000000
v 1.0923900 -0.1000000 0.0382700
v 1.0707100 -0.1000000 0.0707100
v 1.0707100 -0.2000000 0.0707100
v 1.0923900 -0.2000000 0.0382700
v 1.0707100 -0.1000000 0.0707100
v 1.0382700 -0.1000000 0.0923900
v 1.0382700 -0.2000000 0.0923900
v 1.0707100 -0.2000000 0.0707100
v 1.0382700 -0.1000000 0.0923900
v 1.0000000 -0.1000000 0.1000000
v 1.0000000 -0.2000000 0.1000000
v 1.0382700 -0.2000000 0.0923900
v 1.0000000 -0.1000000 0.1000000
v 0.9617300 -0.1000000 0.0923900
v 0.9617300 -0.2000000 0.0923900
v 1.0000000 -0.2000000 0.1000000
v 0.9617300 -0.1000000 0.0923900
v 0.9292900 -0.1000000 0.0707100
v 0.9292900 -0.2000000 0.0707100
v 0.9617300 -0.2000000 0.0923900
v 0.9292900 -0.1000000 0.0707100
v 0.9076100 -0.1000000 0.0382700
v 0.9076100 -0.2000000 0.0382700
v 0.9292900 -0.2000000 0.0707100
v 0.9076100 -0.1000000 0.0382700
v 0.9000000 -0.1000000 0.0000000
v 0.9000000 -0.2000000 0.0000000
v 0.9076100 -0.2000000 0.0382700
v 0.9000000 -0.1000000 0.0000000
v 0.9076100 -0.1000000 -0.0382700
v 0.9076100 -0.2000000 -0.0382700
v 0.9000000 -0.2000000 0.0000000
v 0.9076100 -0.1000000 -0.0382700
v 0.9292900 -0.1000000 -0.0707100
v 0.9292900 -0.2000000 -0.0707100
v 0.9076100 -0.2000000 -0.0382700
v 0.9292900 -0.1000000 -0.0707100
v 0.9617300 -0.1000000 -0.0923900
v 0.9617300 -0.2000000 -0.0923900
v 0.9292900 -0.2000000 -0.0707100
v 0.9617300 -0.1000000 -0.0923900
v 1.0000000 -0.1000000 -0.1000000
v 1.0000000 -0.2000000 -0.1000000
v 0.9617300 -0.2000000 -0.0923900
v 1.0000000 -0.1000000 -0.1000000
v 1.0382700 -0.1000000 -0.0923900
v 1.0382700 -0.2000000 -0.0923900
v 1.0000000 -0.2000000 -0.1000000
v 1.0382700 -0.1000000 -0.0923900
v 1.0707100 -0.1000000 -0.0707100
v 1.0707100 -0.2000000 -0.0707100
v 1.0382700 -0.2000000 -0.0923900
v 1.0707100 -0.1000000 -0.0707100
v 1.0923900 -0.1000000 -0.0382700
v 1.0923900 -0.2000000 -0.0382700
v 1.0707100 -0.2000000 -0.0707100
v 1.0923900 -0.1000000 -0.0382700
v 1.1000000 -0.1000000 0.0000000
v 1.1000000 -0.2000000 0.0000000
v 1.0923900 -0.2000000 -0.0382700
v 1.5000000 -0.2000000 0.0000000
v 1.6000000 -0.2000000 0.0000000
v 1.5923900 -0.2000000 0.0382700
v 1.5000000 -0.2000000 0.0000000
v 1.5923900 -0.2000000 0.0382700
v 1.5707100 -0.2000000 0.0707100
v 1.5000000 -0.2000000 0.0000000
v 1.5707100 -0.2000000 0.0707100
v 1.5382700 -0.2000000 0.0923900
v 1.5000000 -0.2000000 0.0000000
v 1.5382700 -0.2000000 0.0923900
v 1.5000000 -0.2000000 0.1000000
v 1.5000000 -0.2000000 0.0000000
v 1.5000000 -0.2000000 0.1000000
v 1.4617300 -0.2000000 0.0923900
v 1.5000000 -0.2000000 0.0000000
v 1.4617300 -0.2000000 0.0923900
v 1.4292900 -0.2000000 0.0707100
v 1.5000000 -0.2000000 0.0000000
v 1.4292900 -0.2000000 0.0707100
v 1.4076100 -0.2000000 0.0382700
v 1.5000000 -0.2000000 0.0000000
v 1.4076100 -0.2000000 0.0382700
v 1.4000000 -0.2000000 0.0000000
v 1.5000000 -0.2000000 0.0000000
v 1.4000000 -0.2000000 0.0000000
v 1.4076100 -0.2000000 -0.0382700
v 1.5000000 -0.2000000 0.0000000
v 1.4076100 -0.2000000 -0.0382700
v 1.4292900 -0.2000000 -0.0707100
v 1.5000000 -0.2000000 0.0000000
v 1.4292900 -0.2000000 -0.0707100
v 1.4617300 -0.2000000 -0.0923900
v 1.5000000 -0.2000000 0.0000000
v 1.4617300 -0.2000000 -0.0923900
v 1.5000000 -0.2000000 -0.1000000
v 1.5000000 -0.2000000 0.0000000
v 1.5000000 -0.2000000 -0.1000000
v 1.5382700 -0.2000000 -0.0923900
v 1.5000000 -0.2000000 0.0000000
v 1.5382700 -0.2000000 -0.0923900
v 1.5707100 -0.2000000 -0.0707100
v 1.5000000 -0.2000000 0.0000000
v 1.5707100 -0.2000000 -0.0707100
v 1.5923900 -0.2000000 -0.0382700
v 1.5000000 -0.2000000 0.0000000
v 1.5923900 -0.2000000 -0.0382700
v 1.6000000 -0.2000000 0.0000000
v 1.6000000 -0.1000000 0.0000000
v 1.5923900 -0.1000000 0.0382700
v 1.5923900 -0.2000000 0.0382700
v 1.6000000 -0.2000000 0.0000000
v 1.5923900 -0.1000000 0.0382700
v 1.5707100 -0.1000000 0.0707100
v 1.5707100 -0.2000000 0.0707100
v 1.5923900 -0.2000000 0.0382700
v 1.5707100 -0.1000000 0.0707100
v 1.5382700 -0.1000000 0.0923900
v 1.5382700 -0.2000000 0.0923900
v 1.5707100 -0.2000000 0.0707100
v 1.5382700 -0.1000000 0.0923900
v 1.5000000 -0.1000000 0.1000000
v 1.5000000 -0.2000000 0.1000000
v 1.5382700 -0.2000000 0.0923900
v 1.5000000 -0.1000000 0.1000000
v 1.4617300 -0.1000000 0.0923900
v 1.4617300 -0.2000000 0.0923900
v 1.5000000 -0.2000000 0.1000000
v 1.4617300 -0.1000000 0.0923900
v 1.4292900 -0.1000000 0.0707100
v 1.4292900 -0.2000000 0.0707100
v 1.4617300 -0.2000000 0.0923900
v 1.4292900 -0.1000000 0.0707100
v 1.4076100 -0.1000000 0.0382700
v 1.4076100 -0.2000000 0.0382700
v 1.4292900 -0.2000000 0.0707100
v 1.4076100 -0.1000000 0.0382700
v 1.4000000 -0.1000000 0.0000000
v 1.4000000 -0.2000000 0.0000000
v 1.4076100 -0.2000000 0.0382700
v 1.4000000 -0.1000000 0.0000000
v 1.4076100 -0.1000000 -0.0382700
v 1.4076100 -0.2000000 -0.0382700
v 1.4000000 -0.2000000 0.0000000
v 1.4076100 -0.1000000 -0.0382700
v 1.4292900 -0.1000000 -0.0707100
v 1.4292900 -0.2000000 -0.0707100
v 1.4076100 -0.2000000 -0.0382700
v 1.4292900 -0.1000000 -0.0707100
v 1.4617300 -0.1000000 -0.0923900
v 1.4617300 -0.2000000 -0.0923900
v 1.4292900 -0.2000000 -0.0707100
v 1.4617300 -0.1000000 -0.0923900
v 1.5000000 -0.1000000 -0.1000000
v 1.5000000 -0.2000000 -0.1000000
v 1.4617300 -0.2000000 -0.0923900
v 1.5000000 -0.1000000 -0.1000000
v 1.5382700 -0.1000000 -0.0923900
v 1.5382700 -0.2000000 -0.0923900
v 1.5000000 -0.2000000 -0.1000000
v 1.5382700 -0.1000000 -0.0923900
v 1.5707100 -0.1000000 -0.0707100
v 1.5707100 -0.2000000 -0.0707100
v 1.5382700 -0.2000000 -0.0923900
v 1.5707100 -0.1000000 -0.0707100
v 1.5923900 -0.1000000 -0.0382700
v 1.5923900 -0.2000000 -0.0382700
v 1.5707100 -0.2000000 -0.0707100
v 1.5923900 -0.1000000 -0.0382700
v 1.6000000 -0.1000000 0.0000000
v 1.6000000 -0.2000000 0.0000000
v 1.5923900 -0.2000000 -0.0382700
s off
f 1 2 3
f 1 3 4
f 5 6 7
f 5 7 8
f 9 10 11
f 9 11 12
f 13 14 15
f 13 15 16
f 17 18 19
f 17 19 20
f 21 22 23
f 21 23 24
f 25 26 27
f 25 27 28
f 29 30 31
f 29 31 32
f 33 34 35
f 33 35 36
f 37 38 39
f 37 39 40
f 41 42 43
f 41 43 44
f 45 46 47
f 45 47 48
f 49 50 51
f 49 51 52
f 53 54 55
f 53 55 56
f 57 58 59
f 57 59 60
f 61 62 63
f 61 63 64
f 65 66 67
f 65 67 68
f 69 70 71
f 69 71 72
f 73 74 75
f 73 75 76
f 77 78 79
f 77 79 80
f 81 82 83
f 81 83 84
f 85 86 87
f 85 87 88
f 89 90 91
f 92 93 94
f 95 96 97
f 98 99 100
f 101 102 103
f 104 105 106
f 107 108 109
f 110 111 112
f 113 114 115
f 116 117 118
f 119 120 121
f 122 123 124
f 125 126 127
f 128 129 130
f 131 132 133
f 134 135 136
f 137 138 139
f 137 139 140
f 141 142 143
f 141 143 144
f 145 146 147
f 145 147 148
f 149 150 151
f 149 151 152
f 153 154 155
f 153 155 156
f 157 158 159
f 157 159 160
f 161 162 163
f 161 163 164
f 165 166 167
f 165 167 168
f 169 170 171
f 169 171 172
f 173 174 175
f 173 175 176
f 177 178 179
f 177 179 180
f 181 182 183
f 181 183 184
f 185 186 187
f 185 187 188
f 189 190 191
f 189 191 192
f 193 194 195
f 193 195 196
f 197 198 199
f 197 199 200
f 201 202 203
f 204 205 206
f 207 208 209
f 210 211 212
f 213 214 215
f 216 217 218
f 219 220 221
f 222 223 224
f 225 226 227
f 228 229 230
f 231 232 233
f 234 235 236
f 237 238 239
f 240 241 242
f 243 244 245
f 246 247 248
f 249 250 251
f 249 251 252
f 253 254 255
f 253 255 256
f 257 258 259
f 257 259 260
f 261 262 263
f 261 263 264
f 265 266 267
f 265 267 268
f 269 270 271
f 269 271 272
f 273 274 275
f 273 275 276
f 277 278 279
f 277 279 280
f 281 282 283
f 281 283 284
f 285 286 287
f 285 287 288
f 289 290 291
f 289 291 292
f 293 294 295
f 293 295 296
f 297 298 299
f 297 299 300
f 301 302 303
f 301 303 304
f 305 306 307
f 305 307 308
f 309 310 311
f 309 311 312
f 313 314 315
f 316 317 318
f 319 320 321
f 322 323 324
f 325 326 327
f 328 329 330
f 331 332 333
f 334 335 336
f 337 338 339
f 340 341 342
f 343 344 345
f 346 347 348
f 349 350 351
f 352 353 354
f 355 356 357
f 358 359 360
f 361 362 363
f 361 363 364
f 365 366 367
f 365 367 368
f 369 370 371
f 369 371 372
f 373 374 375
f 373 375 376
f 377 378 379
f 377 379 380
f 381 382 383
f 381 383 384
f 385 386 387
f 385 387 388
f 389 390 391
f 389 391 392
f 393 394 395
f 393 395 396
f 397 398 399
f 397 399 400
f 401 402 403
f 401 403 404
f 405 406 407
f 405 407 408
f 409 410 411
f 409 411 412
f 413 414 415
f 413 415 416
f 417 418 419
f 417 419 420
f 421 422 423
f 421 423 424
f 425 426 427
f 428 429 430
f 431 432 433
f 434 435 436
f 437 438 439
f 440 441 442
f 443 444 445
f 446 447 448
f 449 450 451
f 452 453 454
f 455 456 457
f 458 459 460
f 461 462 463
f 464 465 466
f 467 468 469
f 470 471 472
f 473 474 475
f 473 475 476
f 477 478 479
f 477 479 480
f 481 482 483
f 481 483 484
f 485 486 487
f 485 487 488
f 489 490 491
f 489 491 492
f 493 494 495
f 493 495 496
f 497 498 499
f 497 499 500
f 501 502 503
f 501 503 504
f 505 506 507
f 505 507 508
f 509 510 511
f 509 511 512
f 513 514 515
f 513 515 516
f 517 518 519
f 517 519 520
f 521 522 523
f 521 523 524
f 525 526 527
f 525 527 528
f 529 530 531
f 529 531 532
f 533 534 535
f 533 535 536
f 537 538 539
f 540 541 542
f 543 544 545
f 546 547 548
f 549 550 551
f 552 553 554
f 555 556 557
f 558 559 560
f 561 562 563
f 564 565 566
f 567 568 569
f 570 571 572
f 573 574 575
f 576 577 578
f 579 580 581
f 582 583 584
f 585 586 587
f 585 587 588
f 589 590 591
f 589 591 592
f 593 594 595
f 593 595 596
f 597 598 599
f 597 599 600
f 601 602 603
f 601 603 604
f 605 606 607
f 605 607 608
f 609 610 611
f 609 611 612
f 613 614 615
f 613 615 616
f 617 618 619
f 617 619 620
f 621 622 623
f 621 623 624
f 625 626 627
f 625 627 628
f 629 630 631
f 629 631 632
f 633 634 635
f 633 635 636
f 637 638 639
f 637 639 640
f 641 642 643
f 641 643 644
f 645 646 647
f 645 647 648
f 649 650 651
f 652 653 654
f 655 656 657
f 658 659 660
f 661 662 663
f 664 665 666
f 667 668 669
f 670 671 672
f 673 674 675
f 676 677 678
f 679 680 681
f 682 683 684
f 685 686 687
f 688 689 690
f 691 692 693
f 694 695 696
f 697 698 699
f 697 699 700
f 701 702 703
f 701 703 704
f 705 706 707
f 705 707 708
f 709 710 711
f 709 711 712
f 713 714 715
f 713 715 716
f 717 718 719
f 717 719 720
f 721 722 723
f 721 723 724
f 725 726 727
f 725 727 728
f 729 730 731
f 729 731 732
f 733 734 735
f 733 735 736
f 737 738 739
f 737 739 740
f 741 742 743
f 741 743 744
f 745 746 747
f 745 747 748
f 749 750 751
f 749 751 752
f 753 754 755
f 753 755 756
f 757 758 759
f 757 759 760
f 761 762 763
f 764 765 766
f 767 768 769
f 770 771 772
f 773 774 775
f 776 777 778
f 779 780 781
f 782 783 784
f 785 786 787
f 788 789 790
f 791 792 793
f 794 795 796
f 797 798 799
f 800 801 802
f 803 804 805
f 806 807 808
f 809 810 811
f 809 811 812
f 813 814 815
f 813 815 816
f 817 818 819
f 817 819 820
f 821 822 823
f 821 823 824
f 825 826 827
f 825 827 828
f 829 830 831
f 829 831 832
f 833 834 835
f 833 835 836
f 837 838 839
f 837 839 840
f 841 842 843
f 841 843 844
f 845 846 847
f 845 847 848
f 849 850 851
f 849 851 852
f 853 854 855
f 853 855 856
f 857 858 859
f 857 859 860
f 861 862 863
f 861 863 864
f 865 866 867
f 865 867 868
f 869 870 871
f 869 871 872
