# Baked from official LDraw part 4286.dat
o ldraw_4286
v 0.1500000 0.1000000 0.0000000
v 0.1385850 0.1000000 0.0574050
v 0.1385850 -0.0000000 0.0574050
v 0.1500000 -0.0000000 0.0000000
v 0.1385850 0.1000000 0.0574050
v 0.1060650 0.1000000 0.1060650
v 0.1060650 -0.0000000 0.1060650
v 0.1385850 -0.0000000 0.0574050
v 0.1060650 0.1000000 0.1060650
v 0.0574050 0.1000000 0.1385850
v 0.0574050 -0.0000000 0.1385850
v 0.1060650 -0.0000000 0.1060650
v 0.0574050 0.1000000 0.1385850
v 0.0000000 0.1000000 0.1500000
v 0.0000000 -0.0000000 0.1500000
v 0.0574050 -0.0000000 0.1385850
v 0.0000000 0.1000000 0.1500000
v -0.0574050 0.1000000 0.1385850
v -0.0574050 -0.0000000 0.1385850
v 0.0000000 -0.0000000 0.1500000
v -0.0574050 0.1000000 0.1385850
v -0.1060650 0.1000000 0.1060650
v -0.1060650 -0.0000000 0.1060650
v -0.0574050 -0.0000000 0.1385850
v -0.1060650 0.1000000 0.1060650
v -0.1385850 0.1000000 0.0574050
v -0.1385850 -0.0000000 0.0574050
v -0.1060650 -0.0000000 0.1060650
v -0.1385850 0.1000000 0.0574050
v -0.1500000 0.1000000 0.0000000
v -0.1500000 -0.0000000 0.0000000
v -0.1385850 -0.0000000 0.0574050
v -0.1500000 0.1000000 0.0000000
v -0.1385850 0.1000000 -0.0574050
v -0.1385850 -0.0000000 -0.0574050
v -0.1500000 -0.0000000 0.0000000
v -0.1385850 0.1000000 -0.0574050
v -0.1060650 0.1000000 -0.1060650
v -0.1060650 -0.0000000 -0.1060650
v -0.1385850 -0.0000000 -0.0574050
v -0.1060650 0.1000000 -0.1060650
v -0.0574050 0.1000000 -0.1385850
v -0.0574050 -0.0000000 -0.1385850
v -0.1060650 -0.0000000 -0.1060650
v -0.0574050 0.1000000 -0.1385850
v 0.0000000 0.1000000 -0.1500000
v 0.0000000 -0.0000000 -0.1500000
v -0.0574050 -0.0000000 -0.1385850
v 0.0000000 0.1000000 -0.1500000
v 0.0574050 0.1000000 -0.1385850
v 0.0574050 -0.0000000 -0.1385850
v 0.0000000 -0.0000000 -0.1500000
v 0.0574050 0.1000000 -0.1385850
v 0.1060650 0.1000000 -0.1060650
v 0.1060650 -0.0000000 -0.1060650
v 0.0574050 -0.0000000 -0.1385850
v 0.1060650 0.1000000 -0.1060650
v 0.1385850 0.1000000 -0.0574050
v 0.1385850 -0.0000000 -0.0574050
v 0.1060650 -0.0000000 -0.1060650
v 0.1385850 0.1000000 -0.0574050
v 0.1500000 0.1000000 0.0000000
v 0.1500000 -0.0000000 0.0000000
v 0.1385850 -0.0000000 -0.0574050
v 0.1385850 0.1000000 0.0574050
v 0.1500000 0.1000000 0.0000000
v 0.0000000 0.1000000 0.0000000
v 0.1060650 0.1000000 0.1060650
v 0.1385850 0.1000000 0.0574050
v 0.0000000 0.1000000 0.0000000
v 0.0574050 0.1000000 0.1385850
v 0.1060650 0.1000000 0.1060650
v 0.0000000 0.1000000 0.0000000
v 0.0000000 0.1000000 0.1500000
v 0.0574050 0.1000000 0.1385850
v 0.0000000 0.1000000 0.0000000
v -0.0574050 0.1000000 0.1385850
v 0.0000000 0.1000000 0.1500000
v 0.0000000 0.1000000 0.0000000
v -0.1060650 0.1000000 0.1060650
v -0.0574050 0.1000000 0.1385850
v 0.0000000 0.1000000 0.0000000
v -0.1385850 0.1000000 0.0574050
v -0.1060650 0.1000000 0.1060650
v 0.0000000 0.1000000 0.0000000
v -0.1500000 0.1000000 0.0000000
v -0.1385850 0.1000000 0.0574050
v 0.0000000 0.1000000 0.0000000
v -0.1385850 0.1000000 -0.0574050
v -0.1500000 0.1000000 0.0000000
v 0.0000000 0.1000000 0.0000000
v -0.1060650 0.1000000 -0.1060650
v -0.1385850 0.1000000 -0.0574050
v 0.0000000 0.1000000 0.0000000
v -0.0574050 0.1000000 -0.1385850
v -0.1060650 0.1000000 -0.1060650
v 0.0000000 0.1000000 0.0000000
v 0.0000000 0.1000000 -0.1500000
v -0.0574050 0.1000000 -0.1385850
v 0.0000000 0.1000000 0.0000000
v 0.0574050 0.1000000 -0.1385850
v 0.0000000 0.1000000 -0.1500000
v 0.0000000 0.1000000 0.0000000
v 0.1060650 0.1000000 -0.1060650
v 0.0574050 0.1000000 -0.1385850
v 0.0000000 0.1000000 0.0000000
v 0.1385850 0.1000000 -0.0574050
v 0.1060650 0.1000000 -0.1060650
v 0.0000000 0.1000000 0.0000000
v 0.1500000 0.1000000 0.0000000
v 0.1385850 0.1000000 -0.0574050
v 0.0000000 0.1000000 0.0000000
v 0.2500000 -0.0000000 0.2500000
v 0.2500000 -0.0000000 -0.2500000
v -0.2500000 -0.0000000 -0.2500000
v -0.2500000 -0.0000000 0.2500000
v 0.2500000 -0.0000000 0.2500000
v -0.2500000 -0.0000000 0.2500000
v -0.2500000 -0.6000000 0.2500000
v 0.2500000 -0.6000000 0.2500000
v -0.2500000 -0.5000000 -1.2500000
v 0.2500000 -0.5000000 -1.2500000
v 0.2500000 -0.6000000 -1.2500000
v -0.2500000 -0.6000000 -1.2500000
v -0.2500000 -0.6000000 0.2500000
v -0.1500000 -0.6000000 -0.1500000
v -0.1500000 -0.6000000 0.1500000
v -0.1500000 -0.6000000 -0.2500000
v -0.1500000 -0.6000000 -0.1500000
v -0.2500000 -0.6000000 0.2500000
v 0.2500000 -0.6000000 0.2500000
v 0.1500000 -0.6000000 0.1500000
v 0.1500000 -0.6000000 -0.1500000
v 0.1500000 -0.6000000 -0.2500000
v 0.2500000 -0.6000000 0.2500000
v 0.1500000 -0.6000000 -0.1500000
v -0.0500000 -0.6000000 -0.2500000
v -0.1500000 -0.6000000 -0.1500000
v -0.1500000 -0.6000000 -0.2500000
v 0.1500000 -0.6000000 -0.2500000
v 0.1500000 -0.6000000 -0.1500000
v 0.0500000 -0.6000000 -0.2500000
v -0.2500000 -0.6000000 -1.2500000
v -0.1500000 -0.6000000 -1.1500000
v -0.1500000 -0.6000000 -0.2500000
v -0.2500000 -0.6000000 0.2500000
v 0.2500000 -0.6000000 -1.2500000
v 0.2500000 -0.6000000 0.2500000
v 0.1500000 -0.6000000 -0.2500000
v 0.1500000 -0.6000000 -1.1500000
v -0.1500000 -0.6000000 -0.1500000
v -0.0500000 -0.6000000 -0.2500000
v 0.0500000 -0.6000000 -0.2500000
v 0.1500000 -0.6000000 -0.1500000
v -0.2500000 -0.6000000 0.2500000
v -0.1500000 -0.6000000 0.1500000
v 0.1500000 -0.6000000 0.1500000
v 0.2500000 -0.6000000 0.2500000
v 0.2500000 -0.6000000 -1.2500000
v 0.1500000 -0.6000000 -1.1500000
v -0.1500000 -0.6000000 -1.1500000
v -0.2500000 -0.6000000 -1.2500000
v 0.1500000 -0.1000000 0.1500000
v -0.1500000 -0.1000000 0.1500000
v -0.1500000 -0.1000000 -0.1500000
v 0.1500000 -0.1000000 -0.1500000
v 0.1500000 -0.1000000 0.1500000
v 0.1500000 -0.6000000 0.1500000
v -0.1500000 -0.6000000 0.1500000
v -0.1500000 -0.1000000 0.1500000
v 0.1500000 -0.1000000 -0.1500000
v 0.1500000 -0.6000000 -0.1500000
v 0.1500000 -0.6000000 0.1500000
v 0.1500000 -0.1000000 0.1500000
v -0.1500000 -0.1000000 -0.1500000
v -0.1500000 -0.6000000 -0.1500000
v 0.1500000 -0.6000000 -0.1500000
v 0.1500000 -0.1000000 -0.1500000
v -0.1500000 -0.1000000 0.1500000
v -0.1500000 -0.6000000 0.1500000
v -0.1500000 -0.6000000 -0.1500000
v -0.1500000 -0.1000000 -0.1500000
v 0.1500000 -0.5000000 -1.1500000
v 0.1500000 -0.5000000 -1.0500000
v -0.1500000 -0.5000000 -1.0500000
v -0.1500000 -0.5000000 -1.1500000
v -0.1500000 -0.6000000 -1.1500000
v 0.1500000 -0.6000000 -1.1500000
v 0.1500000 -0.5000000 -1.1500000
v -0.1500000 -0.5000000 -1.1500000
v 0.0500000 -0.1000000 -0.2500000
v 0.1500000 -0.1000000 -0.2500000
v 0.1500000 -0.6000000 -0.2500000
v 0.0500000 -0.6000000 -0.2500000
v -0.1500000 -0.6000000 -0.2500000
v -0.1500000 -0.1000000 -0.2500000
v -0.0500000 -0.1000000 -0.2500000
v -0.0500000 -0.6000000 -0.2500000
v -0.0500000 -0.1500000 -0.3500000
v 0.0500000 -0.1500000 -0.3500000
v 0.0500000 -0.6000000 -0.3500000
v -0.0500000 -0.6000000 -0.3500000
v -0.0500000 -0.6000000 -0.2500000
v -0.0500000 -0.6000000 -0.3500000
v 0.0500000 -0.6000000 -0.3500000
v 0.0500000 -0.6000000 -0.2500000
v 0.1500000 -0.5000000 -1.1500000
v 0.1500000 -0.6000000 -1.1500000
v 0.1500000 -0.5000000 -1.0500000
v -0.1500000 -0.5000000 -1.1500000
v -0.1500000 -0.5000000 -1.0500000
v -0.1500000 -0.6000000 -1.1500000
v 0.0500000 -0.6000000 -0.3500000
v 0.0500000 -0.1500000 -0.3500000
v 0.0500000 -0.1000000 -0.2500000
v 0.0500000 -0.6000000 -0.2500000
v -0.0500000 -0.6000000 -0.3500000
v -0.0500000 -0.6000000 -0.2500000
v -0.0500000 -0.1000000 -0.2500000
v -0.0500000 -0.1500000 -0.3500000
v 0.1500000 -0.6000000 -0.2500000
v 0.1500000 -0.1000000 -0.2500000
v 0.1500000 -0.5000000 -1.0500000
v 0.1500000 -0.6000000 -1.1500000
v -0.1500000 -0.5000000 -1.0500000
v -0.1500000 -0.1000000 -0.2500000
v -0.1500000 -0.6000000 -0.2500000
v -0.1500000 -0.6000000 -1.1500000
v 0.1500000 -0.1000000 -0.2500000
v 0.0500000 -0.1000000 -0.2500000
v 0.0500000 -0.1500000 -0.3500000
v 0.1500000 -0.5000000 -1.0500000
v 0.0500000 -0.1500000 -0.3500000
v -0.0500000 -0.1500000 -0.3500000
v -0.1500000 -0.5000000 -1.0500000
v 0.1500000 -0.5000000 -1.0500000
v -0.0500000 -0.1500000 -0.3500000
v -0.0500000 -0.1000000 -0.2500000
v -0.1500000 -0.1000000 -0.2500000
v -0.1500000 -0.5000000 -1.0500000
v 0.0000000 -0.4000000 -0.8500000
v -0.0382700 -0.4000000 -0.8423900
v -0.0382700 -0.3961950 -0.8423900
v -0.0382700 -0.4000000 -0.8423900
v -0.0707100 -0.4000000 -0.8207100
v -0.0707100 -0.3853550 -0.8207100
v -0.0382700 -0.3961950 -0.8423900
v -0.0707100 -0.4000000 -0.8207100
v -0.0923900 -0.4000000 -0.7882700
v -0.0923900 -0.3691350 -0.7882700
v -0.0707100 -0.3853550 -0.8207100
v -0.0923900 -0.4000000 -0.7882700
v -0.1000000 -0.4000000 -0.7500000
v -0.1000000 -0.3500000 -0.7500000
v -0.0923900 -0.3691350 -0.7882700
v -0.1000000 -0.4000000 -0.7500000
v -0.0923900 -0.4000000 -0.7117300
v -0.0923900 -0.3308650 -0.7117300
v -0.1000000 -0.3500000 -0.7500000
v -0.0923900 -0.4000000 -0.7117300
v -0.0707100 -0.4000000 -0.6792900
v -0.0707100 -0.3146450 -0.6792900
v -0.0923900 -0.3308650 -0.7117300
v -0.0707100 -0.4000000 -0.6792900
v -0.0382700 -0.4000000 -0.6576100
v -0.0382700 -0.3038050 -0.6576100
v -0.0707100 -0.3146450 -0.6792900
v -0.0382700 -0.4000000 -0.6576100
v 0.0000000 -0.4000000 -0.6500000
v 0.0000000 -0.3000000 -0.6500000
v -0.0382700 -0.3038050 -0.6576100
v 0.0000000 -0.4000000 -0.6500000
v 0.0382700 -0.4000000 -0.6576100
v 0.0382700 -0.3038050 -0.6576100
v 0.0000000 -0.3000000 -0.6500000
v 0.0382700 -0.4000000 -0.6576100
v 0.0707100 -0.4000000 -0.6792900
v 0.0707100 -0.3146450 -0.6792900
v 0.0382700 -0.3038050 -0.6576100
v 0.0707100 -0.4000000 -0.6792900
v 0.0923900 -0.4000000 -0.7117300
v 0.0923900 -0.3308650 -0.7117300
v 0.0707100 -0.3146450 -0.6792900
v 0.0923900 -0.4000000 -0.7117300
v 0.1000000 -0.4000000 -0.7500000
v 0.1000000 -0.3500000 -0.7500000
v 0.0923900 -0.3308650 -0.7117300
v 0.1000000 -0.4000000 -0.7500000
v 0.0923900 -0.4000000 -0.7882700
v 0.0923900 -0.3691350 -0.7882700
v 0.1000000 -0.3500000 -0.7500000
v 0.0923900 -0.4000000 -0.7882700
v 0.0707100 -0.4000000 -0.8207100
v 0.0707100 -0.3853550 -0.8207100
v 0.0923900 -0.3691350 -0.7882700
v 0.0707100 -0.4000000 -0.8207100
v 0.0382700 -0.4000000 -0.8423900
v 0.0382700 -0.3961950 -0.8423900
v 0.0707100 -0.3853550 -0.8207100
v 0.0000000 -0.4000000 -0.8500000
v 0.0382700 -0.3961950 -0.8423900
v 0.0382700 -0.4000000 -0.8423900
v 0.0000000 -0.5000000 -0.8500000
v -0.0382700 -0.5000000 -0.8423900
v -0.0382700 -0.4000000 -0.8423900
v 0.0000000 -0.4000000 -0.8500000
v -0.0382700 -0.5000000 -0.8423900
v -0.0707100 -0.5000000 -0.8207100
v -0.0707100 -0.4000000 -0.8207100
v -0.0382700 -0.4000000 -0.8423900
v -0.0707100 -0.5000000 -0.8207100
v -0.0923900 -0.5000000 -0.7882700
v -0.0923900 -0.4000000 -0.7882700
v -0.0707100 -0.4000000 -0.8207100
v -0.0923900 -0.5000000 -0.7882700
v -0.1000000 -0.5000000 -0.7500000
v -0.1000000 -0.4000000 -0.7500000
v -0.0923900 -0.4000000 -0.7882700
v -0.1000000 -0.5000000 -0.7500000
v -0.0923900 -0.5000000 -0.7117300
v -0.0923900 -0.4000000 -0.7117300
v -0.1000000 -0.4000000 -0.7500000
v -0.0923900 -0.5000000 -0.7117300
v -0.0707100 -0.5000000 -0.6792900
v -0.0707100 -0.4000000 -0.6792900
v -0.0923900 -0.4000000 -0.7117300
v -0.0707100 -0.5000000 -0.6792900
v -0.0382700 -0.5000000 -0.6576100
v -0.0382700 -0.4000000 -0.6576100
v -0.0707100 -0.4000000 -0.6792900
v -0.0382700 -0.5000000 -0.6576100
v 0.0000000 -0.5000000 -0.6500000
v 0.0000000 -0.4000000 -0.6500000
v -0.0382700 -0.4000000 -0.6576100
v 0.0000000 -0.5000000 -0.6500000
v 0.0382700 -0.5000000 -0.6576100
v 0.0382700 -0.4000000 -0.6576100
v 0.0000000 -0.4000000 -0.6500000
v 0.0382700 -0.5000000 -0.6576100
v 0.0707100 -0.5000000 -0.6792900
v 0.0707100 -0.4000000 -0.6792900
v 0.0382700 -0.4000000 -0.6576100
v 0.0707100 -0.5000000 -0.6792900
v 0.0923900 -0.5000000 -0.7117300
v 0.0923900 -0.4000000 -0.7117300
v 0.0707100 -0.4000000 -0.6792900
v 0.0923900 -0.5000000 -0.7117300
v 0.1000000 -0.5000000 -0.7500000
v 0.1000000 -0.4000000 -0.7500000
v 0.0923900 -0.4000000 -0.7117300
v 0.1000000 -0.5000000 -0.7500000
v 0.0923900 -0.5000000 -0.7882700
v 0.0923900 -0.4000000 -0.7882700
v 0.1000000 -0.4000000 -0.7500000
v 0.0923900 -0.5000000 -0.7882700
v 0.0707100 -0.5000000 -0.8207100
v 0.0707100 -0.4000000 -0.8207100
v 0.0923900 -0.4000000 -0.7882700
v 0.0707100 -0.5000000 -0.8207100
v 0.0382700 -0.5000000 -0.8423900
v 0.0382700 -0.4000000 -0.8423900
v 0.0707100 -0.4000000 -0.8207100
v 0.0382700 -0.5000000 -0.8423900
v 0.0000000 -0.5000000 -0.8500000
v 0.0000000 -0.4000000 -0.8500000
v 0.0382700 -0.4000000 -0.8423900
v -0.0923900 -0.6000000 -0.7117300
v -0.1000000 -0.6000000 -0.7500000
v 0.0000000 -0.6000000 -0.7500000
v -0.0707100 -0.6000000 -0.6792900
v -0.0923900 -0.6000000 -0.7117300
v 0.0000000 -0.6000000 -0.7500000
v -0.0382700 -0.6000000 -0.6576100
v -0.0707100 -0.6000000 -0.6792900
v 0.0000000 -0.6000000 -0.7500000
v 0.0000000 -0.6000000 -0.6500000
v -0.0382700 -0.6000000 -0.6576100
v 0.0000000 -0.6000000 -0.7500000
v 0.0382700 -0.6000000 -0.6576100
v 0.0000000 -0.6000000 -0.6500000
v 0.0000000 -0.6000000 -0.7500000
v 0.0707100 -0.6000000 -0.6792900
v 0.0382700 -0.6000000 -0.6576100
v 0.0000000 -0.6000000 -0.7500000
v 0.0923900 -0.6000000 -0.7117300
v 0.0707100 -0.6000000 -0.6792900
v 0.0000000 -0.6000000 -0.7500000
v 0.1000000 -0.6000000 -0.7500000
v 0.0923900 -0.6000000 -0.7117300
v 0.0000000 -0.6000000 -0.7500000
v 0.0923900 -0.6000000 -0.7882700
v 0.1000000 -0.6000000 -0.7500000
v 0.0000000 -0.6000000 -0.7500000
v 0.0707100 -0.6000000 -0.8207100
v 0.0923900 -0.6000000 -0.7882700
v 0.0000000 -0.6000000 -0.7500000
v 0.0382700 -0.6000000 -0.8423900
v 0.0707100 -0.6000000 -0.8207100
v 0.0000000 -0.6000000 -0.7500000
v 0.0000000 -0.6000000 -0.8500000
v 0.0382700 -0.6000000 -0.8423900
v 0.0000000 -0.6000000 -0.7500000
v -0.0382700 -0.6000000 -0.8423900
v 0.0000000 -0.6000000 -0.8500000
v 0.0000000 -0.6000000 -0.7500000
v -0.0707100 -0.6000000 -0.8207100
v -0.0382700 -0.6000000 -0.8423900
v 0.0000000 -0.6000000 -0.7500000
v -0.0923900 -0.6000000 -0.7882700
v -0.0707100 -0.6000000 -0.8207100
v 0.0000000 -0.6000000 -0.7500000
v -0.1000000 -0.6000000 -0.7500000
v -0.0923900 -0.6000000 -0.7882700
v 0.0000000 -0.6000000 -0.7500000
v -0.1000000 -0.6000000 -0.7500000
v -0.0923900 -0.6000000 -0.7117300
v -0.0923900 -0.5000000 -0.7117300
v -0.1000000 -0.5000000 -0.7500000
v -0.0923900 -0.6000000 -0.7117300
v -0.0707100 -0.6000000 -0.6792900
v -0.0707100 -0.5000000 -0.6792900
v -0.0923900 -0.5000000 -0.7117300
v -0.0707100 -0.6000000 -0.6792900
v -0.0382700 -0.6000000 -0.6576100
v -0.0382700 -0.5000000 -0.6576100
v -0.0707100 -0.5000000 -0.6792900
v -0.0382700 -0.6000000 -0.6576100
v 0.0000000 -0.6000000 -0.6500000
v 0.0000000 -0.5000000 -0.6500000
v -0.0382700 -0.5000000 -0.6576100
v 0.0000000 -0.6000000 -0.6500000
v 0.0382700 -0.6000000 -0.6576100
v 0.0382700 -0.5000000 -0.6576100
v 0.0000000 -0.5000000 -0.6500000
v 0.0382700 -0.6000000 -0.6576100
v 0.0707100 -0.6000000 -0.6792900
v 0.0707100 -0.5000000 -0.6792900
v 0.0382700 -0.5000000 -0.6576100
v 0.0707100 -0.6000000 -0.6792900
v 0.0923900 -0.6000000 -0.7117300
v 0.0923900 -0.5000000 -0.7117300
v 0.0707100 -0.5000000 -0.6792900
v 0.0923900 -0.6000000 -0.7117300
v 0.1000000 -0.6000000 -0.7500000
v 0.1000000 -0.5000000 -0.7500000
v 0.0923900 -0.5000000 -0.7117300
v 0.1000000 -0.6000000 -0.7500000
v 0.0923900 -0.6000000 -0.7882700
v 0.0923900 -0.5000000 -0.7882700
v 0.1000000 -0.5000000 -0.7500000
v 0.0923900 -0.6000000 -0.7882700
v 0.0707100 -0.6000000 -0.8207100
v 0.0707100 -0.5000000 -0.8207100
v 0.0923900 -0.5000000 -0.7882700
v 0.0707100 -0.6000000 -0.8207100
v 0.0382700 -0.6000000 -0.8423900
v 0.0382700 -0.5000000 -0.8423900
v 0.0707100 -0.5000000 -0.8207100
v 0.0382700 -0.6000000 -0.8423900
v 0.0000000 -0.6000000 -0.8500000
v 0.0000000 -0.5000000 -0.8500000
v 0.0382700 -0.5000000 -0.8423900
v 0.0000000 -0.6000000 -0.8500000
v -0.0382700 -0.6000000 -0.8423900
v -0.0382700 -0.5000000 -0.8423900
v 0.0000000 -0.5000000 -0.8500000
v -0.0382700 -0.6000000 -0.8423900
v -0.0707100 -0.6000000 -0.8207100
v -0.0707100 -0.5000000 -0.8207100
v -0.0382700 -0.5000000 -0.8423900
v -0.0707100 -0.6000000 -0.8207100
v -0.0923900 -0.6000000 -0.7882700
v -0.0923900 -0.5000000 -0.7882700
v -0.0707100 -0.5000000 -0.8207100
v -0.0923900 -0.6000000 -0.7882700
v -0.1000000 -0.6000000 -0.7500000
v -0.1000000 -0.5000000 -0.7500000
v -0.0923900 -0.5000000 -0.7882700
v -0.2500000 -0.5000000 -1.2500000
v -0.2500000 -0.0000000 -0.2500000
v 0.2500000 -0.0000000 -0.2500000
v 0.2500000 -0.5000000 -1.2500000
v 0.2500000 -0.5000000 -1.2500000
v 0.2500000 -0.0000000 -0.2500000
v 0.2500000 -0.0000000 0.2500000
v 0.2500000 -0.6000000 -1.2500000
v 0.2500000 -0.5000000 -1.2500000
v 0.2500000 -0.0000000 0.2500000
v 0.2500000 -0.6000000 0.2500000
v -0.2500000 -0.0000000 0.2500000
v -0.2500000 -0.0000000 -0.2500000
v -0.2500000 -0.5000000 -1.2500000
v -0.2500000 -0.6000000 -1.2500000
v -0.2500000 -0.6000000 0.2500000
v -0.2500000 -0.0000000 0.2500000
v -0.2500000 -0.5000000 -1.2500000
s off
f 1 2 3
f 1 3 4
f 5 6 7
f 5 7 8
f 9 10 11
f 9 11 12
f 13 14 15
f 13 15 16
f 17 18 19
f 17 19 20
f 21 22 23
f 21 23 24
f 25 26 27
f 25 27 28
f 29 30 31
f 29 31 32
f 33 34 35
f 33 35 36
f 37 38 39
f 37 39 40
f 41 42 43
f 41 43 44
f 45 46 47
f 45 47 48
f 49 50 51
f 49 51 52
f 53 54 55
f 53 55 56
f 57 58 59
f 57 59 60
f 61 62 63
f 61 63 64
f 65 66 67
f 68 69 70
f 71 72 73
f 74 75 76
f 77 78 79
f 80 81 82
f 83 84 85
f 86 87 88
f 89 90 91
f 92 93 94
f 95 96 97
f 98 99 100
f 101 102 103
f 104 105 106
f 107 108 109
f 110 111 112
f 113 114 115
f 113 115 116
f 117 118 119
f 117 119 120
f 121 122 123
f 121 123 124
f 125 126 127
f 128 129 130
f 131 132 133
f 134 135 136
f 137 138 139
f 140 141 142
f 143 144 145
f 143 145 146
f 147 148 149
f 147 149 150
f 151 152 153
f 151 153 154
f 155 156 157
f 155 157 158
f 159 160 161
f 159 161 162
f 163 164 165
f 163 165 166
f 167 168 169
f 167 169 170
f 171 172 173
f 171 173 174
f 175 176 177
f 175 177 178
f 179 180 181
f 179 181 182
f 183 184 185
f 183 185 186
f 187 188 189
f 187 189 190
f 191 192 193
f 191 193 194
f 195 196 197
f 195 197 198
f 199 200 201
f 199 201 202
f 203 204 205
f 203 205 206
f 207 208 209
f 210 211 212
f 213 214 215
f 213 215 216
f 217 218 219
f 217 219 220
f 221 222 223
f 221 223 224
f 225 226 227
f 225 227 228
f 229 230 231
f 229 231 232
f 233 234 235
f 233 235 236
f 237 238 239
f 237 239 240
f 241 242 243
f 244 245 246
f 244 246 247
f 248 249 250
f 248 250 251
f 252 253 254
f 252 254 255
f 256 257 258
f 256 258 259
f 260 261 262
f 260 262 263
f 264 265 266
f 264 266 267
f 268 269 270
f 268 270 271
f 272 273 274
f 272 274 275
f 276 277 278
f 276 278 279
f 280 281 282
f 280 282 283
f 284 285 286
f 284 286 287
f 288 289 290
f 288 290 291
f 292 293 294
f 292 294 295
f 296 297 298
f 296 298 299
f 300 301 302
f 303 304 305
f 303 305 306
f 307 308 309
f 307 309 310
f 311 312 313
f 311 313 314
f 315 316 317
f 315 317 318
f 319 320 321
f 319 321 322
f 323 324 325
f 323 325 326
f 327 328 329
f 327 329 330
f 331 332 333
f 331 333 334
f 335 336 337
f 335 337 338
f 339 340 341
f 339 341 342
f 343 344 345
f 343 345 346
f 347 348 349
f 347 349 350
f 351 352 353
f 351 353 354
f 355 356 357
f 355 357 358
f 359 360 361
f 359 361 362
f 363 364 365
f 363 365 366
f 367 368 369
f 370 371 372
f 373 374 375
f 376 377 378
f 379 380 381
f 382 383 384
f 385 386 387
f 388 389 390
f 391 392 393
f 394 395 396
f 397 398 399
f 400 401 402
f 403 404 405
f 406 407 408
f 409 410 411
f 412 413 414
f 415 416 417
f 415 417 418
f 419 420 421
f 419 421 422
f 423 424 425
f 423 425 426
f 427 428 429
f 427 429 430
f 431 432 433
f 431 433 434
f 435 436 437
f 435 437 438
f 439 440 441
f 439 441 442
f 443 444 445
f 443 445 446
f 447 448 449
f 447 449 450
f 451 452 453
f 451 453 454
f 455 456 457
f 455 457 458
f 459 460 461
f 459 461 462
f 463 464 465
f 463 465 466
f 467 468 469
f 467 469 470
f 471 472 473
f 471 473 474
f 475 476 477
f 475 477 478
f 479 480 481
f 479 481 482
f 483 484 485
f 486 487 488
f 486 488 489
f 490 491 492
f 493 494 495
f 493 495 496
