# Baked from official LDraw part 4532.dat
o ldraw_4532
v -0.6500000 -1.1000000 0.4000000
v -0.6500000 -1.2000000 0.4000000
v -0.6500000 -1.2000000 -0.4250000
v -0.6500000 -1.1000000 -0.4250000
v 0.0000000 -1.2000000 0.4000000
v -0.6500000 -1.2000000 0.4000000
v -0.6500000 -1.1000000 0.4000000
v 0.0000000 -1.1000000 0.4000000
v -0.7500000 -1.2000000 0.5000000
v -0.6500000 -1.2000000 0.4000000
v 0.0000000 -1.2000000 0.4000000
v 0.0000000 -1.2000000 0.5000000
v -0.6500000 -1.2000000 -0.4750000
v -0.7500000 -1.2000000 -0.5000000
v -0.6000000 -1.2000000 -0.4750000
v 0.0000000 -1.2000000 -0.5000000
v -0.5500000 -1.2000000 -0.4750000
v -0.6000000 -1.2000000 -0.4750000
v -0.7500000 -1.2000000 -0.5000000
v -0.5500000 -1.2000000 -0.4750000
v 0.0000000 -1.2000000 -0.5000000
v -0.5500000 -1.2000000 -0.4250000
v 0.0000000 -1.2000000 -0.5000000
v 0.0000000 -1.2000000 -0.4000000
v -0.5500000 -1.2000000 -0.4000000
v -0.5500000 -1.2000000 -0.4250000
v -0.7500000 -1.2000000 -0.5000000
v -0.6500000 -1.2000000 -0.4750000
v -0.6500000 -1.2000000 0.4000000
v -0.7500000 -1.2000000 0.5000000
v -0.5500000 -1.1000000 -0.4250000
v -0.5500000 -1.2000000 -0.4250000
v -0.5500000 -1.2000000 -0.4000000
v -0.5500000 -1.1000000 -0.4000000
v 0.0000000 -1.1000000 -0.4000000
v -0.5500000 -1.1000000 -0.4000000
v -0.5500000 -1.2000000 -0.4000000
v 0.0000000 -1.2000000 -0.4000000
v -0.6000000 -1.1000000 -0.3750000
v -0.6500000 -1.1000000 0.4000000
v -0.6500000 -1.1000000 -0.3750000
v 0.0000000 -1.1000000 0.4000000
v -0.6500000 -1.1000000 0.4000000
v -0.6000000 -1.1000000 -0.3750000
v -0.5500000 -1.1000000 -0.3750000
v -0.5500000 -1.1000000 -0.4000000
v 0.0000000 -1.1000000 -0.4000000
v 0.0000000 -1.1000000 0.4000000
v -0.5500000 -1.1000000 -0.3750000
v -0.7500000 -0.0000000 0.5000000
v -0.6500000 -0.0000000 -0.3750000
v -0.6500000 -0.0000000 -0.4250000
v -0.7500000 -0.0000000 -0.5000000
v -0.6500000 -0.0000000 -0.4250000
v -0.6500000 -0.0000000 -0.4750000
v -0.7500000 -0.0000000 -0.5000000
v -0.7500000 -0.0000000 -0.5000000
v -0.6500000 -0.0000000 -0.4750000
v -0.6000000 -0.0000000 -0.4750000
v -0.7500000 -0.0000000 -0.5000000
v -0.6000000 -0.0000000 -0.4750000
v -0.5500000 -0.0000000 -0.4750000
v 0.0000000 -0.0000000 -0.5000000
v -0.5500000 -0.0000000 -0.4250000
v 0.0000000 -0.0000000 -0.5000000
v -0.5500000 -0.0000000 -0.4750000
v -0.5500000 -0.0000000 -0.4250000
v -0.5500000 -0.0000000 -0.3750000
v 0.0000000 -0.0000000 0.5000000
v 0.0000000 -0.0000000 -0.5000000
v -0.5500000 -0.0000000 -0.3750000
v -0.6000000 -0.0000000 -0.3750000
v -0.7500000 -0.0000000 0.5000000
v 0.0000000 -0.0000000 0.5000000
v -0.6000000 -0.0000000 -0.3750000
v -0.6500000 -0.0000000 -0.3750000
v -0.7500000 -0.0000000 0.5000000
v -0.6000000 -0.1000000 -0.3750000
v -0.6500000 -0.1000000 0.4000000
v -0.6500000 -0.1000000 -0.3750000
v -0.6500000 -0.1000000 -0.5000000
v -0.6000000 -0.1000000 -0.4750000
v -0.6500000 -0.1000000 -0.4750000
v -0.6500000 -0.1000000 -0.5000000
v 0.0000000 -0.1000000 -0.5000000
v -0.5500000 -0.1000000 -0.4750000
v -0.6000000 -0.1000000 -0.4750000
v -0.5500000 -0.1000000 -0.4750000
v 0.0000000 -0.1000000 -0.5000000
v -0.5500000 -0.1000000 -0.4250000
v 0.0000000 -0.1000000 0.4000000
v -0.5500000 -0.1000000 -0.3750000
v -0.5500000 -0.1000000 -0.4250000
v 0.0000000 -0.1000000 -0.5000000
v -0.6500000 -0.1000000 0.4000000
v -0.6000000 -0.1000000 -0.3750000
v -0.5500000 -0.1000000 -0.3750000
v 0.0000000 -0.1000000 0.4000000
v -0.7500000 -0.0000000 0.5000000
v -0.7500000 -1.2000000 0.5000000
v 0.0000000 -1.2000000 0.5000000
v 0.0000000 -0.0000000 0.5000000
v -0.7500000 -0.0000000 -0.5000000
v -0.7500000 -1.2000000 -0.5000000
v -0.7500000 -1.2000000 0.5000000
v -0.7500000 -0.0000000 0.5000000
v -0.6000000 -1.0000000 -0.3750000
v -0.6500000 -1.0000000 -0.3750000
v -0.6500000 -1.0000000 0.4000000
v -0.6500000 -1.0000000 -0.5000000
v -0.6500000 -1.0000000 -0.4750000
v -0.6000000 -1.0000000 -0.4750000
v -0.6000000 -1.0000000 -0.4750000
v -0.5500000 -1.0000000 -0.4750000
v 0.0000000 -1.0000000 -0.5000000
v -0.6500000 -1.0000000 -0.5000000
v -0.5500000 -1.0000000 -0.4750000
v -0.5500000 -1.0000000 -0.4250000
v 0.0000000 -1.0000000 -0.5000000
v 0.0000000 -1.0000000 -0.5000000
v -0.5500000 -1.0000000 -0.4250000
v -0.5500000 -1.0000000 -0.3750000
v 0.0000000 -1.0000000 0.4000000
v 0.0000000 -1.0000000 0.4000000
v -0.5500000 -1.0000000 -0.3750000
v -0.6000000 -1.0000000 -0.3750000
v -0.6500000 -1.0000000 0.4000000
v -0.6500000 -1.0000000 0.4000000
v -0.6500000 -0.1000000 0.4000000
v 0.0000000 -0.1000000 0.4000000
v 0.0000000 -1.0000000 0.4000000
v -0.6500000 -0.1000000 -0.5000000
v -0.6500000 -0.1000000 0.4000000
v -0.6500000 -1.0000000 0.4000000
v -0.6500000 -1.0000000 -0.5000000
v -0.5500000 -0.5500000 0.4000000
v -0.5500000 -0.6500000 0.4000000
v -0.5500000 -0.6500000 -0.3500000
v -0.5500000 -0.5500000 -0.3500000
v -0.5500000 -0.6500000 -0.3500000
v -0.6500000 -0.6500000 -0.3500000
v -0.6500000 -0.5500000 -0.3500000
v -0.5500000 -0.5500000 -0.3500000
v -0.5500000 -0.5500000 -0.3500000
v -0.6500000 -0.5500000 -0.3500000
v -0.6500000 -0.5500000 0.4000000
v -0.5500000 -0.5500000 0.4000000
v -0.5500000 -0.6500000 0.4000000
v -0.6500000 -0.6500000 0.4000000
v -0.6500000 -0.6500000 -0.3500000
v -0.5500000 -0.6500000 -0.3500000
v -0.6000000 -0.1000000 -0.3500000
v -0.6000000 -0.1000000 0.4000000
v -0.6000000 -0.2000000 0.4000000
v -0.6000000 -0.2000000 -0.3500000
v -0.6000000 -0.2000000 0.4000000
v -0.6500000 -0.2000000 0.4000000
v -0.6500000 -0.2000000 -0.3500000
v -0.6000000 -0.2000000 -0.3500000
v -0.6500000 -0.2000000 -0.3500000
v -0.6500000 -0.1000000 -0.3500000
v -0.6000000 -0.1000000 -0.3500000
v -0.6000000 -0.2000000 -0.3500000
v -0.7500000 -0.0000000 -0.5000000
v -0.6500000 -0.1000000 -0.5000000
v -0.6500000 -1.0000000 -0.5000000
v -0.7500000 -1.2000000 -0.5000000
v -0.7500000 -1.2000000 -0.5000000
v -0.6500000 -1.0000000 -0.5000000
v 0.0000000 -1.0000000 -0.5000000
v 0.0000000 -1.2000000 -0.5000000
v 0.0000000 -0.0000000 -0.5000000
v 0.0000000 -0.1000000 -0.5000000
v -0.6500000 -0.1000000 -0.5000000
v -0.7500000 -0.0000000 -0.5000000
v -0.5500000 -0.1000000 -0.4250000
v -0.5538050 -0.1000000 -0.4058650
v -0.5538050 -0.0000000 -0.4058650
v -0.5500000 -0.0000000 -0.4250000
v -0.5538050 -0.1000000 -0.4058650
v -0.5646450 -0.1000000 -0.3896450
v -0.5646450 -0.0000000 -0.3896450
v -0.5538050 -0.0000000 -0.4058650
v -0.5646450 -0.1000000 -0.3896450
v -0.5808650 -0.1000000 -0.3788050
v -0.5808650 -0.0000000 -0.3788050
v -0.5646450 -0.0000000 -0.3896450
v -0.5808650 -0.1000000 -0.3788050
v -0.6000000 -0.1000000 -0.3750000
v -0.6000000 -0.0000000 -0.3750000
v -0.5808650 -0.0000000 -0.3788050
v -0.6000000 -0.1000000 -0.3750000
v -0.6191350 -0.1000000 -0.3788050
v -0.6191350 -0.0000000 -0.3788050
v -0.6000000 -0.0000000 -0.3750000
v -0.6191350 -0.1000000 -0.3788050
v -0.6353550 -0.1000000 -0.3896450
v -0.6353550 -0.0000000 -0.3896450
v -0.6191350 -0.0000000 -0.3788050
v -0.6353550 -0.1000000 -0.3896450
v -0.6461950 -0.1000000 -0.4058650
v -0.6461950 -0.0000000 -0.4058650
v -0.6353550 -0.0000000 -0.3896450
v -0.6461950 -0.1000000 -0.4058650
v -0.6500000 -0.1000000 -0.4250000
v -0.6500000 -0.0000000 -0.4250000
v -0.6461950 -0.0000000 -0.4058650
v -0.6500000 -0.1000000 -0.4250000
v -0.6461950 -0.1000000 -0.4441350
v -0.6461950 -0.0000000 -0.4441350
v -0.6500000 -0.0000000 -0.4250000
v -0.6461950 -0.1000000 -0.4441350
v -0.6353550 -0.1000000 -0.4603550
v -0.6353550 -0.0000000 -0.4603550
v -0.6461950 -0.0000000 -0.4441350
v -0.6353550 -0.1000000 -0.4603550
v -0.6191350 -0.1000000 -0.4711950
v -0.6191350 -0.0000000 -0.4711950
v -0.6353550 -0.0000000 -0.4603550
v -0.6191350 -0.1000000 -0.4711950
v -0.6000000 -0.1000000 -0.4750000
v -0.6000000 -0.0000000 -0.4750000
v -0.6191350 -0.0000000 -0.4711950
v -0.6000000 -0.1000000 -0.4750000
v -0.5808650 -0.1000000 -0.4711950
v -0.5808650 -0.0000000 -0.4711950
v -0.6000000 -0.0000000 -0.4750000
v -0.5808650 -0.1000000 -0.4711950
v -0.5646450 -0.1000000 -0.4603550
v -0.5646450 -0.0000000 -0.4603550
v -0.5808650 -0.0000000 -0.4711950
v -0.5646450 -0.1000000 -0.4603550
v -0.5538050 -0.1000000 -0.4441350
v -0.5538050 -0.0000000 -0.4441350
v -0.5646450 -0.0000000 -0.4603550
v -0.5538050 -0.1000000 -0.4441350
v -0.5500000 -0.1000000 -0.4250000
v -0.5500000 -0.0000000 -0.4250000
v -0.5538050 -0.0000000 -0.4441350
v -0.5500000 -0.0000000 -0.3750000
v -0.5500000 -0.0000000 -0.4250000
v -0.5538050 -0.0000000 -0.4058650
v -0.5500000 -0.0000000 -0.3750000
v -0.5538050 -0.0000000 -0.4058650
v -0.5646450 -0.0000000 -0.3896450
v -0.5500000 -0.0000000 -0.3750000
v -0.5646450 -0.0000000 -0.3896450
v -0.5808650 -0.0000000 -0.3788050
v -0.5500000 -0.0000000 -0.3750000
v -0.5808650 -0.0000000 -0.3788050
v -0.6000000 -0.0000000 -0.3750000
v -0.6500000 -0.0000000 -0.3750000
v -0.6000000 -0.0000000 -0.3750000
v -0.6191350 -0.0000000 -0.3788050
v -0.6500000 -0.0000000 -0.3750000
v -0.6191350 -0.0000000 -0.3788050
v -0.6353550 -0.0000000 -0.3896450
v -0.6500000 -0.0000000 -0.3750000
v -0.6353550 -0.0000000 -0.3896450
v -0.6461950 -0.0000000 -0.4058650
v -0.6500000 -0.0000000 -0.3750000
v -0.6461950 -0.0000000 -0.4058650
v -0.6500000 -0.0000000 -0.4250000
v -0.6500000 -0.0000000 -0.4750000
v -0.6500000 -0.0000000 -0.4250000
v -0.6461950 -0.0000000 -0.4441350
v -0.6500000 -0.0000000 -0.4750000
v -0.6461950 -0.0000000 -0.4441350
v -0.6353550 -0.0000000 -0.4603550
v -0.6500000 -0.0000000 -0.4750000
v -0.6353550 -0.0000000 -0.4603550
v -0.6191350 -0.0000000 -0.4711950
v -0.6500000 -0.0000000 -0.4750000
v -0.6191350 -0.0000000 -0.4711950
v -0.6000000 -0.0000000 -0.4750000
v -0.5500000 -0.0000000 -0.4750000
v -0.6000000 -0.0000000 -0.4750000
v -0.5808650 -0.0000000 -0.4711950
v -0.5500000 -0.0000000 -0.4750000
v -0.5808650 -0.0000000 -0.4711950
v -0.5646450 -0.0000000 -0.4603550
v -0.5500000 -0.0000000 -0.4750000
v -0.5646450 -0.0000000 -0.4603550
v -0.5538050 -0.0000000 -0.4441350
v -0.5500000 -0.0000000 -0.4750000
v -0.5538050 -0.0000000 -0.4441350
v -0.5500000 -0.0000000 -0.4250000
v -0.5500000 -0.1000000 -0.4750000
v -0.5500000 -0.1000000 -0.4250000
v -0.5538050 -0.1000000 -0.4441350
v -0.5500000 -0.1000000 -0.4750000
v -0.5538050 -0.1000000 -0.4441350
v -0.5646450 -0.1000000 -0.4603550
v -0.5500000 -0.1000000 -0.4750000
v -0.5646450 -0.1000000 -0.4603550
v -0.5808650 -0.1000000 -0.4711950
v -0.5500000 -0.1000000 -0.4750000
v -0.5808650 -0.1000000 -0.4711950
v -0.6000000 -0.1000000 -0.4750000
v -0.6500000 -0.1000000 -0.4750000
v -0.6000000 -0.1000000 -0.4750000
v -0.6191350 -0.1000000 -0.4711950
v -0.6500000 -0.1000000 -0.4750000
v -0.6191350 -0.1000000 -0.4711950
v -0.6353550 -0.1000000 -0.4603550
v -0.6500000 -0.1000000 -0.4750000
v -0.6353550 -0.1000000 -0.4603550
v -0.6461950 -0.1000000 -0.4441350
v -0.6500000 -0.1000000 -0.4750000
v -0.6461950 -0.1000000 -0.4441350
v -0.6500000 -0.1000000 -0.4250000
v -0.6500000 -0.1000000 -0.3750000
v -0.6500000 -0.1000000 -0.4250000
v -0.6461950 -0.1000000 -0.4058650
v -0.6500000 -0.1000000 -0.3750000
v -0.6461950 -0.1000000 -0.4058650
v -0.6353550 -0.1000000 -0.3896450
v -0.6500000 -0.1000000 -0.3750000
v -0.6353550 -0.1000000 -0.3896450
v -0.6191350 -0.1000000 -0.3788050
v -0.6500000 -0.1000000 -0.3750000
v -0.6191350 -0.1000000 -0.3788050
v -0.6000000 -0.1000000 -0.3750000
v -0.5500000 -0.1000000 -0.3750000
v -0.6000000 -0.1000000 -0.3750000
v -0.5808650 -0.1000000 -0.3788050
v -0.5500000 -0.1000000 -0.3750000
v -0.5808650 -0.1000000 -0.3788050
v -0.5646450 -0.1000000 -0.3896450
v -0.5500000 -0.1000000 -0.3750000
v -0.5646450 -0.1000000 -0.3896450
v -0.5538050 -0.1000000 -0.4058650
v -0.5500000 -0.1000000 -0.3750000
v -0.5538050 -0.1000000 -0.4058650
v -0.5500000 -0.1000000 -0.4250000
v -0.5500000 -1.1000000 -0.4250000
v -0.5538050 -1.1000000 -0.4058650
v -0.5538050 -1.0000000 -0.4058650
v -0.5500000 -1.0000000 -0.4250000
v -0.5538050 -1.1000000 -0.4058650
v -0.5646450 -1.1000000 -0.3896450
v -0.5646450 -1.0000000 -0.3896450
v -0.5538050 -1.0000000 -0.4058650
v -0.5646450 -1.1000000 -0.3896450
v -0.5808650 -1.1000000 -0.3788050
v -0.5808650 -1.0000000 -0.3788050
v -0.5646450 -1.0000000 -0.3896450
v -0.5808650 -1.1000000 -0.3788050
v -0.6000000 -1.1000000 -0.3750000
v -0.6000000 -1.0000000 -0.3750000
v -0.5808650 -1.0000000 -0.3788050
v -0.6000000 -1.1000000 -0.3750000
v -0.6191350 -1.1000000 -0.3788050
v -0.6191350 -1.0000000 -0.3788050
v -0.6000000 -1.0000000 -0.3750000
v -0.6191350 -1.1000000 -0.3788050
v -0.6353550 -1.1000000 -0.3896450
v -0.6353550 -1.0000000 -0.3896450
v -0.6191350 -1.0000000 -0.3788050
v -0.6353550 -1.1000000 -0.3896450
v -0.6461950 -1.1000000 -0.4058650
v -0.6461950 -1.0000000 -0.4058650
v -0.6353550 -1.0000000 -0.3896450
v -0.6461950 -1.1000000 -0.4058650
v -0.6500000 -1.1000000 -0.4250000
v -0.6500000 -1.0000000 -0.4250000
v -0.6461950 -1.0000000 -0.4058650
v -0.6500000 -1.1000000 -0.4250000
v -0.6461950 -1.1000000 -0.4441350
v -0.6461950 -1.0000000 -0.4441350
v -0.6500000 -1.0000000 -0.4250000
v -0.6461950 -1.1000000 -0.4441350
v -0.6353550 -1.1000000 -0.4603550
v -0.6353550 -1.0000000 -0.4603550
v -0.6461950 -1.0000000 -0.4441350
v -0.6353550 -1.1000000 -0.4603550
v -0.6191350 -1.1000000 -0.4711950
v -0.6191350 -1.0000000 -0.4711950
v -0.6353550 -1.0000000 -0.4603550
v -0.6191350 -1.1000000 -0.4711950
v -0.6000000 -1.1000000 -0.4750000
v -0.6000000 -1.0000000 -0.4750000
v -0.6191350 -1.0000000 -0.4711950
v -0.6000000 -1.1000000 -0.4750000
v -0.5808650 -1.1000000 -0.4711950
v -0.5808650 -1.0000000 -0.4711950
v -0.6000000 -1.0000000 -0.4750000
v -0.5808650 -1.1000000 -0.4711950
v -0.5646450 -1.1000000 -0.4603550
v -0.5646450 -1.0000000 -0.4603550
v -0.5808650 -1.0000000 -0.4711950
v -0.5646450 -1.1000000 -0.4603550
v -0.5538050 -1.1000000 -0.4441350
v -0.5538050 -1.0000000 -0.4441350
v -0.5646450 -1.0000000 -0.4603550
v -0.5538050 -1.1000000 -0.4441350
v -0.5500000 -1.1000000 -0.4250000
v -0.5500000 -1.0000000 -0.4250000
v -0.5538050 -1.0000000 -0.4441350
v -0.6461950 -1.2000000 -0.4441350
v -0.6461950 -1.1000000 -0.4441350
v -0.6500000 -1.1000000 -0.4250000
v -0.6500000 -1.2000000 -0.4250000
v -0.6353550 -1.2000000 -0.4603550
v -0.6353550 -1.1000000 -0.4603550
v -0.6461950 -1.1000000 -0.4441350
v -0.6461950 -1.2000000 -0.4441350
v -0.6191350 -1.2000000 -0.4711950
v -0.6191350 -1.1000000 -0.4711950
v -0.6353550 -1.1000000 -0.4603550
v -0.6353550 -1.2000000 -0.4603550
v -0.6000000 -1.2000000 -0.4750000
v -0.6000000 -1.1000000 -0.4750000
v -0.6191350 -1.1000000 -0.4711950
v -0.6191350 -1.2000000 -0.4711950
v -0.5808650 -1.2000000 -0.4711950
v -0.5808650 -1.1000000 -0.4711950
v -0.6000000 -1.1000000 -0.4750000
v -0.6000000 -1.2000000 -0.4750000
v -0.5646450 -1.2000000 -0.4603550
v -0.5646450 -1.1000000 -0.4603550
v -0.5808650 -1.1000000 -0.4711950
v -0.5808650 -1.2000000 -0.4711950
v -0.5538050 -1.2000000 -0.4441350
v -0.5538050 -1.1000000 -0.4441350
v -0.5646450 -1.1000000 -0.4603550
v -0.5646450 -1.2000000 -0.4603550
v -0.5500000 -1.2000000 -0.4250000
v -0.5500000 -1.1000000 -0.4250000
v -0.5538050 -1.1000000 -0.4441350
v -0.5538050 -1.2000000 -0.4441350
v -0.5500000 -1.2000000 -0.4750000
v -0.5500000 -1.2000000 -0.4250000
v -0.5538050 -1.2000000 -0.4441350
v -0.5500000 -1.2000000 -0.4750000
v -0.5538050 -1.2000000 -0.4441350
v -0.5646450 -1.2000000 -0.4603550
v -0.5500000 -1.2000000 -0.4750000
v -0.5646450 -1.2000000 -0.4603550
v -0.5808650 -1.2000000 -0.4711950
v -0.5500000 -1.2000000 -0.4750000
v -0.5808650 -1.2000000 -0.4711950
v -0.6000000 -1.2000000 -0.4750000
v -0.6500000 -1.2000000 -0.4750000
v -0.6000000 -1.2000000 -0.4750000
v -0.6191350 -1.2000000 -0.4711950
v -0.6500000 -1.2000000 -0.4750000
v -0.6191350 -1.2000000 -0.4711950
v -0.6353550 -1.2000000 -0.4603550
v -0.6500000 -1.2000000 -0.4750000
v -0.6353550 -1.2000000 -0.4603550
v -0.6461950 -1.2000000 -0.4441350
v -0.6500000 -1.2000000 -0.4750000
v -0.6461950 -1.2000000 -0.4441350
v -0.6500000 -1.2000000 -0.4250000
v -0.5500000 -1.0000000 -0.3750000
v -0.5500000 -1.0000000 -0.4250000
v -0.5538050 -1.0000000 -0.4058650
v -0.5500000 -1.0000000 -0.3750000
v -0.5538050 -1.0000000 -0.4058650
v -0.5646450 -1.0000000 -0.3896450
v -0.5500000 -1.0000000 -0.3750000
v -0.5646450 -1.0000000 -0.3896450
v -0.5808650 -1.0000000 -0.3788050
v -0.5500000 -1.0000000 -0.3750000
v -0.5808650 -1.0000000 -0.3788050
v -0.6000000 -1.0000000 -0.3750000
v -0.6500000 -1.0000000 -0.3750000
v -0.6000000 -1.0000000 -0.3750000
v -0.6191350 -1.0000000 -0.3788050
v -0.6500000 -1.0000000 -0.3750000
v -0.6191350 -1.0000000 -0.3788050
v -0.6353550 -1.0000000 -0.3896450
v -0.6500000 -1.0000000 -0.3750000
v -0.6353550 -1.0000000 -0.3896450
v -0.6461950 -1.0000000 -0.4058650
v -0.6500000 -1.0000000 -0.3750000
v -0.6461950 -1.0000000 -0.4058650
v -0.6500000 -1.0000000 -0.4250000
v -0.6500000 -1.0000000 -0.4750000
v -0.6500000 -1.0000000 -0.4250000
v -0.6461950 -1.0000000 -0.4441350
v -0.6500000 -1.0000000 -0.4750000
v -0.6461950 -1.0000000 -0.4441350
v -0.6353550 -1.0000000 -0.4603550
v -0.6500000 -1.0000000 -0.4750000
v -0.6353550 -1.0000000 -0.4603550
v -0.6191350 -1.0000000 -0.4711950
v -0.6500000 -1.0000000 -0.4750000
v -0.6191350 -1.0000000 -0.4711950
v -0.6000000 -1.0000000 -0.4750000
v -0.5500000 -1.0000000 -0.4750000
v -0.6000000 -1.0000000 -0.4750000
v -0.5808650 -1.0000000 -0.4711950
v -0.5500000 -1.0000000 -0.4750000
v -0.5808650 -1.0000000 -0.4711950
v -0.5646450 -1.0000000 -0.4603550
v -0.5500000 -1.0000000 -0.4750000
v -0.5646450 -1.0000000 -0.4603550
v -0.5538050 -1.0000000 -0.4441350
v -0.5500000 -1.0000000 -0.4750000
v -0.5538050 -1.0000000 -0.4441350
v -0.5500000 -1.0000000 -0.4250000
v -0.6500000 -1.1000000 -0.3750000
v -0.6500000 -1.1000000 -0.4250000
v -0.6461950 -1.1000000 -0.4058650
v -0.6500000 -1.1000000 -0.3750000
v -0.6461950 -1.1000000 -0.4058650
v -0.6353550 -1.1000000 -0.3896450
v -0.6500000 -1.1000000 -0.3750000
v -0.6353550 -1.1000000 -0.3896450
v -0.6191350 -1.1000000 -0.3788050
v -0.6500000 -1.1000000 -0.3750000
v -0.6191350 -1.1000000 -0.3788050
v -0.6000000 -1.1000000 -0.3750000
v -0.5500000 -1.1000000 -0.3750000
v -0.6000000 -1.1000000 -0.3750000
v -0.5808650 -1.1000000 -0.3788050
v -0.5500000 -1.1000000 -0.3750000
v -0.5808650 -1.1000000 -0.3788050
v -0.5646450 -1.1000000 -0.3896450
v -0.5500000 -1.1000000 -0.3750000
v -0.5646450 -1.1000000 -0.3896450
v -0.5538050 -1.1000000 -0.4058650
v -0.5500000 -1.1000000 -0.3750000
v -0.5538050 -1.1000000 -0.4058650
v -0.5500000 -1.1000000 -0.4250000
v 0.6500000 -1.1000000 -0.4250000
v 0.6500000 -1.2000000 -0.4250000
v 0.6500000 -1.2000000 0.4000000
v 0.6500000 -1.1000000 0.4000000
v 0.0000000 -1.1000000 0.4000000
v 0.6500000 -1.1000000 0.4000000
v 0.6500000 -1.2000000 0.4000000
v 0.0000000 -1.2000000 0.4000000
v 0.0000000 -1.2000000 0.5000000
v 0.0000000 -1.2000000 0.4000000
v 0.6500000 -1.2000000 0.4000000
v 0.7500000 -1.2000000 0.5000000
v 0.6000000 -1.2000000 -0.4750000
v 0.7500000 -1.2000000 -0.5000000
v 0.6500000 -1.2000000 -0.4750000
v 0.7500000 -1.2000000 -0.5000000
v 0.6000000 -1.2000000 -0.4750000
v 0.5500000 -1.2000000 -0.4750000
v 0.0000000 -1.2000000 -0.5000000
v 0.5500000 -1.2000000 -0.4250000
v 0.0000000 -1.2000000 -0.5000000
v 0.5500000 -1.2000000 -0.4750000
v 0.5500000 -1.2000000 -0.4250000
v 0.5500000 -1.2000000 -0.4000000
v 0.0000000 -1.2000000 -0.4000000
v 0.0000000 -1.2000000 -0.5000000
v 0.7500000 -1.2000000 0.5000000
v 0.6500000 -1.2000000 0.4000000
v 0.6500000 -1.2000000 -0.4750000
v 0.7500000 -1.2000000 -0.5000000
v 0.5500000 -1.1000000 -0.4000000
v 0.5500000 -1.2000000 -0.4000000
v 0.5500000 -1.2000000 -0.4250000
v 0.5500000 -1.1000000 -0.4250000
v 0.0000000 -1.2000000 -0.4000000
v 0.5500000 -1.2000000 -0.4000000
v 0.5500000 -1.1000000 -0.4000000
v 0.0000000 -1.1000000 -0.4000000
v 0.6500000 -1.1000000 -0.3750000
v 0.6500000 -1.1000000 0.4000000
v 0.6000000 -1.1000000 -0.3750000
v 0.5500000 -1.1000000 -0.3750000
v 0.6000000 -1.1000000 -0.3750000
v 0.6500000 -1.1000000 0.4000000
v 0.0000000 -1.1000000 0.4000000
v 0.5500000 -1.1000000 -0.3750000
v 0.0000000 -1.1000000 0.4000000
v 0.0000000 -1.1000000 -0.4000000
v 0.5500000 -1.1000000 -0.4000000
v 0.7500000 -0.0000000 -0.5000000
v 0.6500000 -0.0000000 -0.4250000
v 0.6500000 -0.0000000 -0.3750000
v 0.7500000 -0.0000000 0.5000000
v 0.7500000 -0.0000000 -0.5000000
v 0.6500000 -0.0000000 -0.4750000
v 0.6500000 -0.0000000 -0.4250000
v 0.6000000 -0.0000000 -0.4750000
v 0.6500000 -0.0000000 -0.4750000
v 0.7500000 -0.0000000 -0.5000000
v 0.0000000 -0.0000000 -0.5000000
v 0.5500000 -0.0000000 -0.4750000
v 0.6000000 -0.0000000 -0.4750000
v 0.7500000 -0.0000000 -0.5000000
v 0.5500000 -0.0000000 -0.4750000
v 0.0000000 -0.0000000 -0.5000000
v 0.5500000 -0.0000000 -0.4250000
v 0.0000000 -0.0000000 -0.5000000
v 0.0000000 -0.0000000 0.5000000
v 0.5500000 -0.0000000 -0.3750000
v 0.5500000 -0.0000000 -0.4250000
v 0.0000000 -0.0000000 0.5000000
v 0.7500000 -0.0000000 0.5000000
v 0.6000000 -0.0000000 -0.3750000
v 0.5500000 -0.0000000 -0.3750000
v 0.7500000 -0.0000000 0.5000000
v 0.6500000 -0.0000000 -0.3750000
v 0.6000000 -0.0000000 -0.3750000
v 0.6500000 -0.1000000 -0.3750000
v 0.6500000 -0.1000000 0.4000000
v 0.6000000 -0.1000000 -0.3750000
v 0.6500000 -0.1000000 -0.4750000
v 0.6000000 -0.1000000 -0.4750000
v 0.6500000 -0.1000000 -0.5000000
v 0.6000000 -0.1000000 -0.4750000
v 0.5500000 -0.1000000 -0.4750000
v 0.0000000 -0.1000000 -0.5000000
v 0.6500000 -0.1000000 -0.5000000
v 0.5500000 -0.1000000 -0.4250000
v 0.0000000 -0.1000000 -0.5000000
v 0.5500000 -0.1000000 -0.4750000
v 0.0000000 -0.1000000 -0.5000000
v 0.5500000 -0.1000000 -0.4250000
v 0.5500000 -0.1000000 -0.3750000
v 0.0000000 -0.1000000 0.4000000
v 0.0000000 -0.1000000 0.4000000
v 0.5500000 -0.1000000 -0.3750000
v 0.6000000 -0.1000000 -0.3750000
v 0.6500000 -0.1000000 0.4000000
v 0.0000000 -0.0000000 0.5000000
v 0.0000000 -1.2000000 0.5000000
v 0.7500000 -1.2000000 0.5000000
v 0.7500000 -0.0000000 0.5000000
v 0.7500000 -0.0000000 0.5000000
v 0.7500000 -1.2000000 0.5000000
v 0.7500000 -1.2000000 -0.5000000
v 0.7500000 -0.0000000 -0.5000000
v 0.6500000 -1.0000000 0.4000000
v 0.6500000 -1.0000000 -0.3750000
v 0.6000000 -1.0000000 -0.3750000
v 0.6000000 -1.0000000 -0.4750000
v 0.6500000 -1.0000000 -0.4750000
v 0.6500000 -1.0000000 -0.5000000
v 0.6500000 -1.0000000 -0.5000000
v 0.0000000 -1.0000000 -0.5000000
v 0.5500000 -1.0000000 -0.4750000
v 0.6000000 -1.0000000 -0.4750000
v 0.0000000 -1.0000000 -0.5000000
v 0.5500000 -1.0000000 -0.4250000
v 0.5500000 -1.0000000 -0.4750000
v 0.0000000 -1.0000000 0.4000000
v 0.5500000 -1.0000000 -0.3750000
v 0.5500000 -1.0000000 -0.4250000
v 0.0000000 -1.0000000 -0.5000000
v 0.6500000 -1.0000000 0.4000000
v 0.6000000 -1.0000000 -0.3750000
v 0.5500000 -1.0000000 -0.3750000
v 0.0000000 -1.0000000 0.4000000
v 0.0000000 -1.0000000 0.4000000
v 0.0000000 -0.1000000 0.4000000
v 0.6500000 -0.1000000 0.4000000
v 0.6500000 -1.0000000 0.4000000
v 0.6500000 -1.0000000 -0.5000000
v 0.6500000 -1.0000000 0.4000000
v 0.6500000 -0.1000000 0.4000000
v 0.6500000 -0.1000000 -0.5000000
v 0.5500000 -0.5500000 -0.3500000
v 0.5500000 -0.6500000 -0.3500000
v 0.5500000 -0.6500000 0.4000000
v 0.5500000 -0.5500000 0.4000000
v 0.5500000 -0.5500000 -0.3500000
v 0.6500000 -0.5500000 -0.3500000
v 0.6500000 -0.6500000 -0.3500000
v 0.5500000 -0.6500000 -0.3500000
v 0.5500000 -0.5500000 0.4000000
v 0.6500000 -0.5500000 0.4000000
v 0.6500000 -0.5500000 -0.3500000
v 0.5500000 -0.5500000 -0.3500000
v 0.5500000 -0.6500000 -0.3500000
v 0.6500000 -0.6500000 -0.3500000
v 0.6500000 -0.6500000 0.4000000
v 0.5500000 -0.6500000 0.4000000
v 0.6000000 -0.2000000 -0.3500000
v 0.6000000 -0.2000000 0.4000000
v 0.6000000 -0.1000000 0.4000000
v 0.6000000 -0.1000000 -0.3500000
v 0.6000000 -0.2000000 -0.3500000
v 0.6500000 -0.2000000 -0.3500000
v 0.6500000 -0.2000000 0.4000000
v 0.6000000 -0.2000000 0.4000000
v 0.6000000 -0.2000000 -0.3500000
v 0.6000000 -0.1000000 -0.3500000
v 0.6500000 -0.1000000 -0.3500000
v 0.6500000 -0.2000000 -0.3500000
v 0.7500000 -1.2000000 -0.5000000
v 0.6500000 -1.0000000 -0.5000000
v 0.6500000 -0.1000000 -0.5000000
v 0.7500000 -0.0000000 -0.5000000
v 0.0000000 -1.2000000 -0.5000000
v 0.0000000 -1.0000000 -0.5000000
v 0.6500000 -1.0000000 -0.5000000
v 0.7500000 -1.2000000 -0.5000000
v 0.7500000 -0.0000000 -0.5000000
v 0.6500000 -0.1000000 -0.5000000
v 0.0000000 -0.1000000 -0.5000000
v 0.0000000 -0.0000000 -0.5000000
v 0.5500000 -0.0000000 -0.4250000
v 0.5538050 -0.0000000 -0.4058650
v 0.5538050 -0.1000000 -0.4058650
v 0.5500000 -0.1000000 -0.4250000
v 0.5538050 -0.0000000 -0.4058650
v 0.5646450 -0.0000000 -0.3896450
v 0.5646450 -0.1000000 -0.3896450
v 0.5538050 -0.1000000 -0.4058650
v 0.5646450 -0.0000000 -0.3896450
v 0.5808650 -0.0000000 -0.3788050
v 0.5808650 -0.1000000 -0.3788050
v 0.5646450 -0.1000000 -0.3896450
v 0.5808650 -0.0000000 -0.3788050
v 0.6000000 -0.0000000 -0.3750000
v 0.6000000 -0.1000000 -0.3750000
v 0.5808650 -0.1000000 -0.3788050
v 0.6000000 -0.0000000 -0.3750000
v 0.6191350 -0.0000000 -0.3788050
v 0.6191350 -0.1000000 -0.3788050
v 0.6000000 -0.1000000 -0.3750000
v 0.6191350 -0.0000000 -0.3788050
v 0.6353550 -0.0000000 -0.3896450
v 0.6353550 -0.1000000 -0.3896450
v 0.6191350 -0.1000000 -0.3788050
v 0.6353550 -0.0000000 -0.3896450
v 0.6461950 -0.0000000 -0.4058650
v 0.6461950 -0.1000000 -0.4058650
v 0.6353550 -0.1000000 -0.3896450
v 0.6461950 -0.0000000 -0.4058650
v 0.6500000 -0.0000000 -0.4250000
v 0.6500000 -0.1000000 -0.4250000
v 0.6461950 -0.1000000 -0.4058650
v 0.6500000 -0.0000000 -0.4250000
v 0.6461950 -0.0000000 -0.4441350
v 0.6461950 -0.1000000 -0.4441350
v 0.6500000 -0.1000000 -0.4250000
v 0.6461950 -0.0000000 -0.4441350
v 0.6353550 -0.0000000 -0.4603550
v 0.6353550 -0.1000000 -0.4603550
v 0.6461950 -0.1000000 -0.4441350
v 0.6353550 -0.0000000 -0.4603550
v 0.6191350 -0.0000000 -0.4711950
v 0.6191350 -0.1000000 -0.4711950
v 0.6353550 -0.1000000 -0.4603550
v 0.6191350 -0.0000000 -0.4711950
v 0.6000000 -0.0000000 -0.4750000
v 0.6000000 -0.1000000 -0.4750000
v 0.6191350 -0.1000000 -0.4711950
v 0.6000000 -0.0000000 -0.4750000
v 0.5808650 -0.0000000 -0.4711950
v 0.5808650 -0.1000000 -0.4711950
v 0.6000000 -0.1000000 -0.4750000
v 0.5808650 -0.0000000 -0.4711950
v 0.5646450 -0.0000000 -0.4603550
v 0.5646450 -0.1000000 -0.4603550
v 0.5808650 -0.1000000 -0.4711950
v 0.5646450 -0.0000000 -0.4603550
v 0.5538050 -0.0000000 -0.4441350
v 0.5538050 -0.1000000 -0.4441350
v 0.5646450 -0.1000000 -0.4603550
v 0.5538050 -0.0000000 -0.4441350
v 0.5500000 -0.0000000 -0.4250000
v 0.5500000 -0.1000000 -0.4250000
v 0.5538050 -0.1000000 -0.4441350
v 0.5538050 -0.0000000 -0.4058650
v 0.5500000 -0.0000000 -0.4250000
v 0.5500000 -0.0000000 -0.3750000
v 0.5646450 -0.0000000 -0.3896450
v 0.5538050 -0.0000000 -0.4058650
v 0.5500000 -0.0000000 -0.3750000
v 0.5808650 -0.0000000 -0.3788050
v 0.5646450 -0.0000000 -0.3896450
v 0.5500000 -0.0000000 -0.3750000
v 0.6000000 -0.0000000 -0.3750000
v 0.5808650 -0.0000000 -0.3788050
v 0.5500000 -0.0000000 -0.3750000
v 0.6191350 -0.0000000 -0.3788050
v 0.6000000 -0.0000000 -0.3750000
v 0.6500000 -0.0000000 -0.3750000
v 0.6353550 -0.0000000 -0.3896450
v 0.6191350 -0.0000000 -0.3788050
v 0.6500000 -0.0000000 -0.3750000
v 0.6461950 -0.0000000 -0.4058650
v 0.6353550 -0.0000000 -0.3896450
v 0.6500000 -0.0000000 -0.3750000
v 0.6500000 -0.0000000 -0.4250000
v 0.6461950 -0.0000000 -0.4058650
v 0.6500000 -0.0000000 -0.3750000
v 0.6461950 -0.0000000 -0.4441350
v 0.6500000 -0.0000000 -0.4250000
v 0.6500000 -0.0000000 -0.4750000
v 0.6353550 -0.0000000 -0.4603550
v 0.6461950 -0.0000000 -0.4441350
v 0.6500000 -0.0000000 -0.4750000
v 0.6191350 -0.0000000 -0.4711950
v 0.6353550 -0.0000000 -0.4603550
v 0.6500000 -0.0000000 -0.4750000
v 0.6000000 -0.0000000 -0.4750000
v 0.6191350 -0.0000000 -0.4711950
v 0.6500000 -0.0000000 -0.4750000
v 0.5808650 -0.0000000 -0.4711950
v 0.6000000 -0.0000000 -0.4750000
v 0.5500000 -0.0000000 -0.4750000
v 0.5646450 -0.0000000 -0.4603550
v 0.5808650 -0.0000000 -0.4711950
v 0.5500000 -0.0000000 -0.4750000
v 0.5538050 -0.0000000 -0.4441350
v 0.5646450 -0.0000000 -0.4603550
v 0.5500000 -0.0000000 -0.4750000
v 0.5500000 -0.0000000 -0.4250000
v 0.5538050 -0.0000000 -0.4441350
v 0.5500000 -0.0000000 -0.4750000
v 0.5538050 -0.1000000 -0.4441350
v 0.5500000 -0.1000000 -0.4250000
v 0.5500000 -0.1000000 -0.4750000
v 0.5646450 -0.1000000 -0.4603550
v 0.5538050 -0.1000000 -0.4441350
v 0.5500000 -0.1000000 -0.4750000
v 0.5808650 -0.1000000 -0.4711950
v 0.5646450 -0.1000000 -0.4603550
v 0.5500000 -0.1000000 -0.4750000
v 0.6000000 -0.1000000 -0.4750000
v 0.5808650 -0.1000000 -0.4711950
v 0.5500000 -0.1000000 -0.4750000
v 0.6191350 -0.1000000 -0.4711950
v 0.6000000 -0.1000000 -0.4750000
v 0.6500000 -0.1000000 -0.4750000
v 0.6353550 -0.1000000 -0.4603550
v 0.6191350 -0.1000000 -0.4711950
v 0.6500000 -0.1000000 -0.4750000
v 0.6461950 -0.1000000 -0.4441350
v 0.6353550 -0.1000000 -0.4603550
v 0.6500000 -0.1000000 -0.4750000
v 0.6500000 -0.1000000 -0.4250000
v 0.6461950 -0.1000000 -0.4441350
v 0.6500000 -0.1000000 -0.4750000
v 0.6461950 -0.1000000 -0.4058650
v 0.6500000 -0.1000000 -0.4250000
v 0.6500000 -0.1000000 -0.3750000
v 0.6353550 -0.1000000 -0.3896450
v 0.6461950 -0.1000000 -0.4058650
v 0.6500000 -0.1000000 -0.3750000
v 0.6191350 -0.1000000 -0.3788050
v 0.6353550 -0.1000000 -0.3896450
v 0.6500000 -0.1000000 -0.3750000
v 0.6000000 -0.1000000 -0.3750000
v 0.6191350 -0.1000000 -0.3788050
v 0.6500000 -0.1000000 -0.3750000
v 0.5808650 -0.1000000 -0.3788050
v 0.6000000 -0.1000000 -0.3750000
v 0.5500000 -0.1000000 -0.3750000
v 0.5646450 -0.1000000 -0.3896450
v 0.5808650 -0.1000000 -0.3788050
v 0.5500000 -0.1000000 -0.3750000
v 0.5538050 -0.1000000 -0.4058650
v 0.5646450 -0.1000000 -0.3896450
v 0.5500000 -0.1000000 -0.3750000
v 0.5500000 -0.1000000 -0.4250000
v 0.5538050 -0.1000000 -0.4058650
v 0.5500000 -0.1000000 -0.3750000
v 0.5500000 -1.0000000 -0.4250000
v 0.5538050 -1.0000000 -0.4058650
v 0.5538050 -1.1000000 -0.4058650
v 0.5500000 -1.1000000 -0.4250000
v 0.5538050 -1.0000000 -0.4058650
v 0.5646450 -1.0000000 -0.3896450
v 0.5646450 -1.1000000 -0.3896450
v 0.5538050 -1.1000000 -0.4058650
v 0.5646450 -1.0000000 -0.3896450
v 0.5808650 -1.0000000 -0.3788050
v 0.5808650 -1.1000000 -0.3788050
v 0.5646450 -1.1000000 -0.3896450
v 0.5808650 -1.0000000 -0.3788050
v 0.6000000 -1.0000000 -0.3750000
v 0.6000000 -1.1000000 -0.3750000
v 0.5808650 -1.1000000 -0.3788050
v 0.6000000 -1.0000000 -0.3750000
v 0.6191350 -1.0000000 -0.3788050
v 0.6191350 -1.1000000 -0.3788050
v 0.6000000 -1.1000000 -0.3750000
v 0.6191350 -1.0000000 -0.3788050
v 0.6353550 -1.0000000 -0.3896450
v 0.6353550 -1.1000000 -0.3896450
v 0.6191350 -1.1000000 -0.3788050
v 0.6353550 -1.0000000 -0.3896450
v 0.6461950 -1.0000000 -0.4058650
v 0.6461950 -1.1000000 -0.4058650
v 0.6353550 -1.1000000 -0.3896450
v 0.6461950 -1.0000000 -0.4058650
v 0.6500000 -1.0000000 -0.4250000
v 0.6500000 -1.1000000 -0.4250000
v 0.6461950 -1.1000000 -0.4058650
v 0.6500000 -1.0000000 -0.4250000
v 0.6461950 -1.0000000 -0.4441350
v 0.6461950 -1.1000000 -0.4441350
v 0.6500000 -1.1000000 -0.4250000
v 0.6461950 -1.0000000 -0.4441350
v 0.6353550 -1.0000000 -0.4603550
v 0.6353550 -1.1000000 -0.4603550
v 0.6461950 -1.1000000 -0.4441350
v 0.6353550 -1.0000000 -0.4603550
v 0.6191350 -1.0000000 -0.4711950
v 0.6191350 -1.1000000 -0.4711950
v 0.6353550 -1.1000000 -0.4603550
v 0.6191350 -1.0000000 -0.4711950
v 0.6000000 -1.0000000 -0.4750000
v 0.6000000 -1.1000000 -0.4750000
v 0.6191350 -1.1000000 -0.4711950
v 0.6000000 -1.0000000 -0.4750000
v 0.5808650 -1.0000000 -0.4711950
v 0.5808650 -1.1000000 -0.4711950
v 0.6000000 -1.1000000 -0.4750000
v 0.5808650 -1.0000000 -0.4711950
v 0.5646450 -1.0000000 -0.4603550
v 0.5646450 -1.1000000 -0.4603550
v 0.5808650 -1.1000000 -0.4711950
v 0.5646450 -1.0000000 -0.4603550
v 0.5538050 -1.0000000 -0.4441350
v 0.5538050 -1.1000000 -0.4441350
v 0.5646450 -1.1000000 -0.4603550
v 0.5538050 -1.0000000 -0.4441350
v 0.5500000 -1.0000000 -0.4250000
v 0.5500000 -1.1000000 -0.4250000
v 0.5538050 -1.1000000 -0.4441350
v 0.6500000 -1.2000000 -0.4250000
v 0.6500000 -1.1000000 -0.4250000
v 0.6461950 -1.1000000 -0.4441350
v 0.6461950 -1.2000000 -0.4441350
v 0.6461950 -1.2000000 -0.4441350
v 0.6461950 -1.1000000 -0.4441350
v 0.6353550 -1.1000000 -0.4603550
v 0.6353550 -1.2000000 -0.4603550
v 0.6353550 -1.2000000 -0.4603550
v 0.6353550 -1.1000000 -0.4603550
v 0.6191350 -1.1000000 -0.4711950
v 0.6191350 -1.2000000 -0.4711950
v 0.6191350 -1.2000000 -0.4711950
v 0.6191350 -1.1000000 -0.4711950
v 0.6000000 -1.1000000 -0.4750000
v 0.6000000 -1.2000000 -0.4750000
v 0.6000000 -1.2000000 -0.4750000
v 0.6000000 -1.1000000 -0.4750000
v 0.5808650 -1.1000000 -0.4711950
v 0.5808650 -1.2000000 -0.4711950
v 0.5808650 -1.2000000 -0.4711950
v 0.5808650 -1.1000000 -0.4711950
v 0.5646450 -1.1000000 -0.4603550
v 0.5646450 -1.2000000 -0.4603550
v 0.5646450 -1.2000000 -0.4603550
v 0.5646450 -1.1000000 -0.4603550
v 0.5538050 -1.1000000 -0.4441350
v 0.5538050 -1.2000000 -0.4441350
v 0.5538050 -1.2000000 -0.4441350
v 0.5538050 -1.1000000 -0.4441350
v 0.5500000 -1.1000000 -0.4250000
v 0.5500000 -1.2000000 -0.4250000
v 0.5538050 -1.2000000 -0.4441350
v 0.5500000 -1.2000000 -0.4250000
v 0.5500000 -1.2000000 -0.4750000
v 0.5646450 -1.2000000 -0.4603550
v 0.5538050 -1.2000000 -0.4441350
v 0.5500000 -1.2000000 -0.4750000
v 0.5808650 -1.2000000 -0.4711950
v 0.5646450 -1.2000000 -0.4603550
v 0.5500000 -1.2000000 -0.4750000
v 0.6000000 -1.2000000 -0.4750000
v 0.5808650 -1.2000000 -0.4711950
v 0.5500000 -1.2000000 -0.4750000
v 0.6191350 -1.2000000 -0.4711950
v 0.6000000 -1.2000000 -0.4750000
v 0.6500000 -1.2000000 -0.4750000
v 0.6353550 -1.2000000 -0.4603550
v 0.6191350 -1.2000000 -0.4711950
v 0.6500000 -1.2000000 -0.4750000
v 0.6461950 -1.2000000 -0.4441350
v 0.6353550 -1.2000000 -0.4603550
v 0.6500000 -1.2000000 -0.4750000
v 0.6500000 -1.2000000 -0.4250000
v 0.6461950 -1.2000000 -0.4441350
v 0.6500000 -1.2000000 -0.4750000
v 0.5538050 -1.0000000 -0.4058650
v 0.5500000 -1.0000000 -0.4250000
v 0.5500000 -1.0000000 -0.3750000
v 0.5646450 -1.0000000 -0.3896450
v 0.5538050 -1.0000000 -0.4058650
v 0.5500000 -1.0000000 -0.3750000
v 0.5808650 -1.0000000 -0.3788050
v 0.5646450 -1.0000000 -0.3896450
v 0.5500000 -1.0000000 -0.3750000
v 0.6000000 -1.0000000 -0.3750000
v 0.5808650 -1.0000000 -0.3788050
v 0.5500000 -1.0000000 -0.3750000
v 0.6191350 -1.0000000 -0.3788050
v 0.6000000 -1.0000000 -0.3750000
v 0.6500000 -1.0000000 -0.3750000
v 0.6353550 -1.0000000 -0.3896450
v 0.6191350 -1.0000000 -0.3788050
v 0.6500000 -1.0000000 -0.3750000
v 0.6461950 -1.0000000 -0.4058650
v 0.6353550 -1.0000000 -0.3896450
v 0.6500000 -1.0000000 -0.3750000
v 0.6500000 -1.0000000 -0.4250000
v 0.6461950 -1.0000000 -0.4058650
v 0.6500000 -1.0000000 -0.3750000
v 0.6461950 -1.0000000 -0.4441350
v 0.6500000 -1.0000000 -0.4250000
v 0.6500000 -1.0000000 -0.4750000
v 0.6353550 -1.0000000 -0.4603550
v 0.6461950 -1.0000000 -0.4441350
v 0.6500000 -1.0000000 -0.4750000
v 0.6191350 -1.0000000 -0.4711950
v 0.6353550 -1.0000000 -0.4603550
v 0.6500000 -1.0000000 -0.4750000
v 0.6000000 -1.0000000 -0.4750000
v 0.6191350 -1.0000000 -0.4711950
v 0.6500000 -1.0000000 -0.4750000
v 0.5808650 -1.0000000 -0.4711950
v 0.6000000 -1.0000000 -0.4750000
v 0.5500000 -1.0000000 -0.4750000
v 0.5646450 -1.0000000 -0.4603550
v 0.5808650 -1.0000000 -0.4711950
v 0.5500000 -1.0000000 -0.4750000
v 0.5538050 -1.0000000 -0.4441350
v 0.5646450 -1.0000000 -0.4603550
v 0.5500000 -1.0000000 -0.4750000
v 0.5500000 -1.0000000 -0.4250000
v 0.5538050 -1.0000000 -0.4441350
v 0.5500000 -1.0000000 -0.4750000
v 0.6461950 -1.1000000 -0.4058650
v 0.6500000 -1.1000000 -0.4250000
v 0.6500000 -1.1000000 -0.3750000
v 0.6353550 -1.1000000 -0.3896450
v 0.6461950 -1.1000000 -0.4058650
v 0.6500000 -1.1000000 -0.3750000
v 0.6191350 -1.1000000 -0.3788050
v 0.6353550 -1.1000000 -0.3896450
v 0.6500000 -1.1000000 -0.3750000
v 0.6000000 -1.1000000 -0.3750000
v 0.6191350 -1.1000000 -0.3788050
v 0.6500000 -1.1000000 -0.3750000
v 0.5808650 -1.1000000 -0.3788050
v 0.6000000 -1.1000000 -0.3750000
v 0.5500000 -1.1000000 -0.3750000
v 0.5646450 -1.1000000 -0.3896450
v 0.5808650 -1.1000000 -0.3788050
v 0.5500000 -1.1000000 -0.3750000
v 0.5538050 -1.1000000 -0.4058650
v 0.5646450 -1.1000000 -0.3896450
v 0.5500000 -1.1000000 -0.3750000
v 0.5500000 -1.1000000 -0.4250000
v 0.5538050 -1.1000000 -0.4058650
v 0.5500000 -1.1000000 -0.3750000
v -0.1000000 -1.2000000 0.0000000
v -0.1114150 -1.2000000 0.0574050
v -0.1114150 -1.1000000 0.0574050
v -0.1000000 -1.1000000 0.0000000
v -0.1114150 -1.2000000 0.0574050
v -0.1439350 -1.2000000 0.1060650
v -0.1439350 -1.1000000 0.1060650
v -0.1114150 -1.1000000 0.0574050
v -0.1439350 -1.2000000 0.1060650
v -0.1925950 -1.2000000 0.1385850
v -0.1925950 -1.1000000 0.1385850
v -0.1439350 -1.1000000 0.1060650
v -0.1925950 -1.2000000 0.1385850
v -0.2500000 -1.2000000 0.1500000
v -0.2500000 -1.1000000 0.1500000
v -0.1925950 -1.1000000 0.1385850
v -0.2500000 -1.2000000 0.1500000
v -0.3074050 -1.2000000 0.1385850
v -0.3074050 -1.1000000 0.1385850
v -0.2500000 -1.1000000 0.1500000
v -0.3074050 -1.2000000 0.1385850
v -0.3560650 -1.2000000 0.1060650
v -0.3560650 -1.1000000 0.1060650
v -0.3074050 -1.1000000 0.1385850
v -0.3560650 -1.2000000 0.1060650
v -0.3885850 -1.2000000 0.0574050
v -0.3885850 -1.1000000 0.0574050
v -0.3560650 -1.1000000 0.1060650
v -0.3885850 -1.2000000 0.0574050
v -0.4000000 -1.2000000 0.0000000
v -0.4000000 -1.1000000 0.0000000
v -0.3885850 -1.1000000 0.0574050
v -0.4000000 -1.2000000 0.0000000
v -0.3885850 -1.2000000 -0.0574050
v -0.3885850 -1.1000000 -0.0574050
v -0.4000000 -1.1000000 0.0000000
v -0.3885850 -1.2000000 -0.0574050
v -0.3560650 -1.2000000 -0.1060650
v -0.3560650 -1.1000000 -0.1060650
v -0.3885850 -1.1000000 -0.0574050
v -0.3560650 -1.2000000 -0.1060650
v -0.3074050 -1.2000000 -0.1385850
v -0.3074050 -1.1000000 -0.1385850
v -0.3560650 -1.1000000 -0.1060650
v -0.3074050 -1.2000000 -0.1385850
v -0.2500000 -1.2000000 -0.1500000
v -0.2500000 -1.1000000 -0.1500000
v -0.3074050 -1.1000000 -0.1385850
v -0.2500000 -1.2000000 -0.1500000
v -0.1925950 -1.2000000 -0.1385850
v -0.1925950 -1.1000000 -0.1385850
v -0.2500000 -1.1000000 -0.1500000
v -0.1925950 -1.2000000 -0.1385850
v -0.1439350 -1.2000000 -0.1060650
v -0.1439350 -1.1000000 -0.1060650
v -0.1925950 -1.1000000 -0.1385850
v -0.1439350 -1.2000000 -0.1060650
v -0.1114150 -1.2000000 -0.0574050
v -0.1114150 -1.1000000 -0.0574050
v -0.1439350 -1.1000000 -0.1060650
v -0.1114150 -1.2000000 -0.0574050
v -0.1000000 -1.2000000 0.0000000
v -0.1000000 -1.1000000 0.0000000
v -0.1114150 -1.1000000 -0.0574050
v -0.0500000 -1.1000000 0.0000000
v -0.0652200 -1.1000000 0.0765400
v -0.0652200 -1.2000000 0.0765400
v -0.0500000 -1.2000000 0.0000000
v -0.0652200 -1.1000000 0.0765400
v -0.1085800 -1.1000000 0.1414200
v -0.1085800 -1.2000000 0.1414200
v -0.0652200 -1.2000000 0.0765400
v -0.1085800 -1.1000000 0.1414200
v -0.1734600 -1.1000000 0.1847800
v -0.1734600 -1.2000000 0.1847800
v -0.1085800 -1.2000000 0.1414200
v -0.1734600 -1.1000000 0.1847800
v -0.2500000 -1.1000000 0.2000000
v -0.2500000 -1.2000000 0.2000000
v -0.1734600 -1.2000000 0.1847800
v -0.2500000 -1.1000000 0.2000000
v -0.3265400 -1.1000000 0.1847800
v -0.3265400 -1.2000000 0.1847800
v -0.2500000 -1.2000000 0.2000000
v -0.3265400 -1.1000000 0.1847800
v -0.3914200 -1.1000000 0.1414200
v -0.3914200 -1.2000000 0.1414200
v -0.3265400 -1.2000000 0.1847800
v -0.3914200 -1.1000000 0.1414200
v -0.4347800 -1.1000000 0.0765400
v -0.4347800 -1.2000000 0.0765400
v -0.3914200 -1.2000000 0.1414200
v -0.4347800 -1.1000000 0.0765400
v -0.4500000 -1.1000000 0.0000000
v -0.4500000 -1.2000000 0.0000000
v -0.4347800 -1.2000000 0.0765400
v -0.4500000 -1.1000000 0.0000000
v -0.4347800 -1.1000000 -0.0765400
v -0.4347800 -1.2000000 -0.0765400
v -0.4500000 -1.2000000 0.0000000
v -0.4347800 -1.1000000 -0.0765400
v -0.3914200 -1.1000000 -0.1414200
v -0.3914200 -1.2000000 -0.1414200
v -0.4347800 -1.2000000 -0.0765400
v -0.3914200 -1.1000000 -0.1414200
v -0.3265400 -1.1000000 -0.1847800
v -0.3265400 -1.2000000 -0.1847800
v -0.3914200 -1.2000000 -0.1414200
v -0.3265400 -1.1000000 -0.1847800
v -0.2500000 -1.1000000 -0.2000000
v -0.2500000 -1.2000000 -0.2000000
v -0.3265400 -1.2000000 -0.1847800
v -0.2500000 -1.1000000 -0.2000000
v -0.1734600 -1.1000000 -0.1847800
v -0.1734600 -1.2000000 -0.1847800
v -0.2500000 -1.2000000 -0.2000000
v -0.1734600 -1.1000000 -0.1847800
v -0.1085800 -1.1000000 -0.1414200
v -0.1085800 -1.2000000 -0.1414200
v -0.1734600 -1.2000000 -0.1847800
v -0.1085800 -1.1000000 -0.1414200
v -0.0652200 -1.1000000 -0.0765400
v -0.0652200 -1.2000000 -0.0765400
v -0.1085800 -1.2000000 -0.1414200
v -0.0652200 -1.1000000 -0.0765400
v -0.0500000 -1.1000000 0.0000000
v -0.0500000 -1.2000000 0.0000000
v -0.0652200 -1.2000000 -0.0765400
v -0.3265400 -1.2000000 0.1847800
v -0.3074050 -1.2000000 0.1385850
v -0.2500000 -1.2000000 0.1500000
v -0.2500000 -1.2000000 0.2000000
v -0.3914200 -1.2000000 0.1414200
v -0.3560650 -1.2000000 0.1060650
v -0.3074050 -1.2000000 0.1385850
v -0.3265400 -1.2000000 0.1847800
v -0.4347800 -1.2000000 0.0765400
v -0.3885850 -1.2000000 0.0574050
v -0.3560650 -1.2000000 0.1060650
v -0.3914200 -1.2000000 0.1414200
v -0.4500000 -1.2000000 0.0000000
v -0.4000000 -1.2000000 0.0000000
v -0.3885850 -1.2000000 0.0574050
v -0.4347800 -1.2000000 0.0765400
v -0.4347800 -1.2000000 -0.0765400
v -0.3885850 -1.2000000 -0.0574050
v -0.4000000 -1.2000000 0.0000000
v -0.4500000 -1.2000000 0.0000000
v -0.3914200 -1.2000000 -0.1414200
v -0.3560650 -1.2000000 -0.1060650
v -0.3885850 -1.2000000 -0.0574050
v -0.4347800 -1.2000000 -0.0765400
v -0.3265400 -1.2000000 -0.1847800
v -0.3074050 -1.2000000 -0.1385850
v -0.3560650 -1.2000000 -0.1060650
v -0.3914200 -1.2000000 -0.1414200
v -0.2500000 -1.2000000 -0.2000000
v -0.2500000 -1.2000000 -0.1500000
v -0.3074050 -1.2000000 -0.1385850
v -0.3265400 -1.2000000 -0.1847800
v -0.1734600 -1.2000000 -0.1847800
v -0.1925950 -1.2000000 -0.1385850
v -0.2500000 -1.2000000 -0.1500000
v -0.2500000 -1.2000000 -0.2000000
v -0.1085800 -1.2000000 -0.1414200
v -0.1439350 -1.2000000 -0.1060650
v -0.1925950 -1.2000000 -0.1385850
v -0.1734600 -1.2000000 -0.1847800
v -0.0652200 -1.2000000 -0.0765400
v -0.1114150 -1.2000000 -0.0574050
v -0.1439350 -1.2000000 -0.1060650
v -0.1085800 -1.2000000 -0.1414200
v -0.0500000 -1.2000000 0.0000000
v -0.1000000 -1.2000000 0.0000000
v -0.1114150 -1.2000000 -0.0574050
v -0.0652200 -1.2000000 -0.0765400
v -0.0652200 -1.2000000 0.0765400
v -0.1114150 -1.2000000 0.0574050
v -0.1000000 -1.2000000 0.0000000
v -0.0500000 -1.2000000 0.0000000
v -0.1085800 -1.2000000 0.1414200
v -0.1439350 -1.2000000 0.1060650
v -0.1114150 -1.2000000 0.0574050
v -0.0652200 -1.2000000 0.0765400
v -0.1734600 -1.2000000 0.1847800
v -0.1925950 -1.2000000 0.1385850
v -0.1439350 -1.2000000 0.1060650
v -0.1085800 -1.2000000 0.1414200
v -0.2500000 -1.2000000 0.2000000
v -0.2500000 -1.2000000 0.1500000
v -0.1925950 -1.2000000 0.1385850
v -0.1734600 -1.2000000 0.1847800
v 0.4000000 -1.2000000 0.0000000
v 0.3885850 -1.2000000 0.0574050
v 0.3885850 -1.1000000 0.0574050
v 0.4000000 -1.1000000 0.0000000
v 0.3885850 -1.2000000 0.0574050
v 0.3560650 -1.2000000 0.1060650
v 0.3560650 -1.1000000 0.1060650
v 0.3885850 -1.1000000 0.0574050
v 0.3560650 -1.2000000 0.1060650
v 0.3074050 -1.2000000 0.1385850
v 0.3074050 -1.1000000 0.1385850
v 0.3560650 -1.1000000 0.1060650
v 0.3074050 -1.2000000 0.1385850
v 0.2500000 -1.2000000 0.1500000
v 0.2500000 -1.1000000 0.1500000
v 0.3074050 -1.1000000 0.1385850
v 0.2500000 -1.2000000 0.1500000
v 0.1925950 -1.2000000 0.1385850
v 0.1925950 -1.1000000 0.1385850
v 0.2500000 -1.1000000 0.1500000
v 0.1925950 -1.2000000 0.1385850
v 0.1439350 -1.2000000 0.1060650
v 0.1439350 -1.1000000 0.1060650
v 0.1925950 -1.1000000 0.1385850
v 0.1439350 -1.2000000 0.1060650
v 0.1114150 -1.2000000 0.0574050
v 0.1114150 -1.1000000 0.0574050
v 0.1439350 -1.1000000 0.1060650
v 0.1114150 -1.2000000 0.0574050
v 0.1000000 -1.2000000 0.0000000
v 0.1000000 -1.1000000 0.0000000
v 0.1114150 -1.1000000 0.0574050
v 0.1000000 -1.2000000 0.0000000
v 0.1114150 -1.2000000 -0.0574050
v 0.1114150 -1.1000000 -0.0574050
v 0.1000000 -1.1000000 0.0000000
v 0.1114150 -1.2000000 -0.0574050
v 0.1439350 -1.2000000 -0.1060650
v 0.1439350 -1.1000000 -0.1060650
v 0.1114150 -1.1000000 -0.0574050
v 0.1439350 -1.2000000 -0.1060650
v 0.1925950 -1.2000000 -0.1385850
v 0.1925950 -1.1000000 -0.1385850
v 0.1439350 -1.1000000 -0.1060650
v 0.1925950 -1.2000000 -0.1385850
v 0.2500000 -1.2000000 -0.1500000
v 0.2500000 -1.1000000 -0.1500000
v 0.1925950 -1.1000000 -0.1385850
v 0.2500000 -1.2000000 -0.1500000
v 0.3074050 -1.2000000 -0.1385850
v 0.3074050 -1.1000000 -0.1385850
v 0.2500000 -1.1000000 -0.1500000
v 0.3074050 -1.2000000 -0.1385850
v 0.3560650 -1.2000000 -0.1060650
v 0.3560650 -1.1000000 -0.1060650
v 0.3074050 -1.1000000 -0.1385850
v 0.3560650 -1.2000000 -0.1060650
v 0.3885850 -1.2000000 -0.0574050
v 0.3885850 -1.1000000 -0.0574050
v 0.3560650 -1.1000000 -0.1060650
v 0.3885850 -1.2000000 -0.0574050
v 0.4000000 -1.2000000 0.0000000
v 0.4000000 -1.1000000 0.0000000
v 0.3885850 -1.1000000 -0.0574050
v 0.4500000 -1.1000000 0.0000000
v 0.4347800 -1.1000000 0.0765400
v 0.4347800 -1.2000000 0.0765400
v 0.4500000 -1.2000000 0.0000000
v 0.4347800 -1.1000000 0.0765400
v 0.3914200 -1.1000000 0.1414200
v 0.3914200 -1.2000000 0.1414200
v 0.4347800 -1.2000000 0.0765400
v 0.3914200 -1.1000000 0.1414200
v 0.3265400 -1.1000000 0.1847800
v 0.3265400 -1.2000000 0.1847800
v 0.3914200 -1.2000000 0.1414200
v 0.3265400 -1.1000000 0.1847800
v 0.2500000 -1.1000000 0.2000000
v 0.2500000 -1.2000000 0.2000000
v 0.3265400 -1.2000000 0.1847800
v 0.2500000 -1.1000000 0.2000000
v 0.1734600 -1.1000000 0.1847800
v 0.1734600 -1.2000000 0.1847800
v 0.2500000 -1.2000000 0.2000000
v 0.1734600 -1.1000000 0.1847800
v 0.1085800 -1.1000000 0.1414200
v 0.1085800 -1.2000000 0.1414200
v 0.1734600 -1.2000000 0.1847800
v 0.1085800 -1.1000000 0.1414200
v 0.0652200 -1.1000000 0.0765400
v 0.0652200 -1.2000000 0.0765400
v 0.1085800 -1.2000000 0.1414200
v 0.0652200 -1.1000000 0.0765400
v 0.0500000 -1.1000000 0.0000000
v 0.0500000 -1.2000000 0.0000000
v 0.0652200 -1.2000000 0.0765400
v 0.0500000 -1.1000000 0.0000000
v 0.0652200 -1.1000000 -0.0765400
v 0.0652200 -1.2000000 -0.0765400
v 0.0500000 -1.2000000 0.0000000
v 0.0652200 -1.1000000 -0.0765400
v 0.1085800 -1.1000000 -0.1414200
v 0.1085800 -1.2000000 -0.1414200
v 0.0652200 -1.2000000 -0.0765400
v 0.1085800 -1.1000000 -0.1414200
v 0.1734600 -1.1000000 -0.1847800
v 0.1734600 -1.2000000 -0.1847800
v 0.1085800 -1.2000000 -0.1414200
v 0.1734600 -1.1000000 -0.1847800
v 0.2500000 -1.1000000 -0.2000000
v 0.2500000 -1.2000000 -0.2000000
v 0.1734600 -1.2000000 -0.1847800
v 0.2500000 -1.1000000 -0.2000000
v 0.3265400 -1.1000000 -0.1847800
v 0.3265400 -1.2000000 -0.1847800
v 0.2500000 -1.2000000 -0.2000000
v 0.3265400 -1.1000000 -0.1847800
v 0.3914200 -1.1000000 -0.1414200
v 0.3914200 -1.2000000 -0.1414200
v 0.3265400 -1.2000000 -0.1847800
v 0.3914200 -1.1000000 -0.1414200
v 0.4347800 -1.1000000 -0.0765400
v 0.4347800 -1.2000000 -0.0765400
v 0.3914200 -1.2000000 -0.1414200
v 0.4347800 -1.1000000 -0.0765400
v 0.4500000 -1.1000000 0.0000000
v 0.4500000 -1.2000000 0.0000000
v 0.4347800 -1.2000000 -0.0765400
v 0.1734600 -1.2000000 0.1847800
v 0.1925950 -1.2000000 0.1385850
v 0.2500000 -1.2000000 0.1500000
v 0.2500000 -1.2000000 0.2000000
v 0.1085800 -1.2000000 0.1414200
v 0.1439350 -1.2000000 0.1060650
v 0.1925950 -1.2000000 0.1385850
v 0.1734600 -1.2000000 0.1847800
v 0.0652200 -1.2000000 0.0765400
v 0.1114150 -1.2000000 0.0574050
v 0.1439350 -1.2000000 0.1060650
v 0.1085800 -1.2000000 0.1414200
v 0.0500000 -1.2000000 0.0000000
v 0.1000000 -1.2000000 0.0000000
v 0.1114150 -1.2000000 0.0574050
v 0.0652200 -1.2000000 0.0765400
v 0.0652200 -1.2000000 -0.0765400
v 0.1114150 -1.2000000 -0.0574050
v 0.1000000 -1.2000000 0.0000000
v 0.0500000 -1.2000000 0.0000000
v 0.1085800 -1.2000000 -0.1414200
v 0.1439350 -1.2000000 -0.1060650
v 0.1114150 -1.2000000 -0.0574050
v 0.0652200 -1.2000000 -0.0765400
v 0.1734600 -1.2000000 -0.1847800
v 0.1925950 -1.2000000 -0.1385850
v 0.1439350 -1.2000000 -0.1060650
v 0.1085800 -1.2000000 -0.1414200
v 0.2500000 -1.2000000 -0.2000000
v 0.2500000 -1.2000000 -0.1500000
v 0.1925950 -1.2000000 -0.1385850
v 0.1734600 -1.2000000 -0.1847800
v 0.3265400 -1.2000000 -0.1847800
v 0.3074050 -1.2000000 -0.1385850
v 0.2500000 -1.2000000 -0.1500000
v 0.2500000 -1.2000000 -0.2000000
v 0.3914200 -1.2000000 -0.1414200
v 0.3560650 -1.2000000 -0.1060650
v 0.3074050 -1.2000000 -0.1385850
v 0.3265400 -1.2000000 -0.1847800
v 0.4347800 -1.2000000 -0.0765400
v 0.3885850 -1.2000000 -0.0574050
v 0.3560650 -1.2000000 -0.1060650
v 0.3914200 -1.2000000 -0.1414200
v 0.4500000 -1.2000000 0.0000000
v 0.4000000 -1.2000000 0.0000000
v 0.3885850 -1.2000000 -0.0574050
v 0.4347800 -1.2000000 -0.0765400
v 0.4347800 -1.2000000 0.0765400
v 0.3885850 -1.2000000 0.0574050
v 0.4000000 -1.2000000 0.0000000
v 0.4500000 -1.2000000 0.0000000
v 0.3914200 -1.2000000 0.1414200
v 0.3560650 -1.2000000 0.1060650
v 0.3885850 -1.2000000 0.0574050
v 0.4347800 -1.2000000 0.0765400
v 0.3265400 -1.2000000 0.1847800
v 0.3074050 -1.2000000 0.1385850
v 0.3560650 -1.2000000 0.1060650
v 0.3914200 -1.2000000 0.1414200
v 0.2500000 -1.2000000 0.2000000
v 0.2500000 -1.2000000 0.1500000
v 0.3074050 -1.2000000 0.1385850
v 0.3265400 -1.2000000 0.1847800
v -0.3500000 0.1000000 0.2500000
v -0.3614150 0.1000000 0.3074050
v -0.3614150 -0.0000000 0.3074050
v -0.3500000 -0.0000000 0.2500000
v -0.3614150 0.1000000 0.3074050
v -0.3939350 0.1000000 0.3560650
v -0.3939350 -0.0000000 0.3560650
v -0.3614150 -0.0000000 0.3074050
v -0.3939350 0.1000000 0.3560650
v -0.4425950 0.1000000 0.3885850
v -0.4425950 -0.0000000 0.3885850
v -0.3939350 -0.0000000 0.3560650
v -0.4425950 0.1000000 0.3885850
v -0.5000000 0.1000000 0.4000000
v -0.5000000 -0.0000000 0.4000000
v -0.4425950 -0.0000000 0.3885850
v -0.5000000 0.1000000 0.4000000
v -0.5574050 0.1000000 0.3885850
v -0.5574050 -0.0000000 0.3885850
v -0.5000000 -0.0000000 0.4000000
v -0.5574050 0.1000000 0.3885850
v -0.6060650 0.1000000 0.3560650
v -0.6060650 -0.0000000 0.3560650
v -0.5574050 -0.0000000 0.3885850
v -0.6060650 0.1000000 0.3560650
v -0.6385850 0.1000000 0.3074050
v -0.6385850 -0.0000000 0.3074050
v -0.6060650 -0.0000000 0.3560650
v -0.6385850 0.1000000 0.3074050
v -0.6500000 0.1000000 0.2500000
v -0.6500000 -0.0000000 0.2500000
v -0.6385850 -0.0000000 0.3074050
v -0.6500000 0.1000000 0.2500000
v -0.6385850 0.1000000 0.1925950
v -0.6385850 -0.0000000 0.1925950
v -0.6500000 -0.0000000 0.2500000
v -0.6385850 0.1000000 0.1925950
v -0.6060650 0.1000000 0.1439350
v -0.6060650 -0.0000000 0.1439350
v -0.6385850 -0.0000000 0.1925950
v -0.6060650 0.1000000 0.1439350
v -0.5574050 0.1000000 0.1114150
v -0.5574050 -0.0000000 0.1114150
v -0.6060650 -0.0000000 0.1439350
v -0.5574050 0.1000000 0.1114150
v -0.5000000 0.1000000 0.1000000
v -0.5000000 -0.0000000 0.1000000
v -0.5574050 -0.0000000 0.1114150
v -0.5000000 0.1000000 0.1000000
v -0.4425950 0.1000000 0.1114150
v -0.4425950 -0.0000000 0.1114150
v -0.5000000 -0.0000000 0.1000000
v -0.4425950 0.1000000 0.1114150
v -0.3939350 0.1000000 0.1439350
v -0.3939350 -0.0000000 0.1439350
v -0.4425950 -0.0000000 0.1114150
v -0.3939350 0.1000000 0.1439350
v -0.3614150 0.1000000 0.1925950
v -0.3614150 -0.0000000 0.1925950
v -0.3939350 -0.0000000 0.1439350
v -0.3614150 0.1000000 0.1925950
v -0.3500000 0.1000000 0.2500000
v -0.3500000 -0.0000000 0.2500000
v -0.3614150 -0.0000000 0.1925950
v -0.3614150 0.1000000 0.3074050
v -0.3500000 0.1000000 0.2500000
v -0.5000000 0.1000000 0.2500000
v -0.3939350 0.1000000 0.3560650
v -0.3614150 0.1000000 0.3074050
v -0.5000000 0.1000000 0.2500000
v -0.4425950 0.1000000 0.3885850
v -0.3939350 0.1000000 0.3560650
v -0.5000000 0.1000000 0.2500000
v -0.5000000 0.1000000 0.4000000
v -0.4425950 0.1000000 0.3885850
v -0.5000000 0.1000000 0.2500000
v -0.5574050 0.1000000 0.3885850
v -0.5000000 0.1000000 0.4000000
v -0.5000000 0.1000000 0.2500000
v -0.6060650 0.1000000 0.3560650
v -0.5574050 0.1000000 0.3885850
v -0.5000000 0.1000000 0.2500000
v -0.6385850 0.1000000 0.3074050
v -0.6060650 0.1000000 0.3560650
v -0.5000000 0.1000000 0.2500000
v -0.6500000 0.1000000 0.2500000
v -0.6385850 0.1000000 0.3074050
v -0.5000000 0.1000000 0.2500000
v -0.6385850 0.1000000 0.1925950
v -0.6500000 0.1000000 0.2500000
v -0.5000000 0.1000000 0.2500000
v -0.6060650 0.1000000 0.1439350
v -0.6385850 0.1000000 0.1925950
v -0.5000000 0.1000000 0.2500000
v -0.5574050 0.1000000 0.1114150
v -0.6060650 0.1000000 0.1439350
v -0.5000000 0.1000000 0.2500000
v -0.5000000 0.1000000 0.1000000
v -0.5574050 0.1000000 0.1114150
v -0.5000000 0.1000000 0.2500000
v -0.4425950 0.1000000 0.1114150
v -0.5000000 0.1000000 0.1000000
v -0.5000000 0.1000000 0.2500000
v -0.3939350 0.1000000 0.1439350
v -0.4425950 0.1000000 0.1114150
v -0.5000000 0.1000000 0.2500000
v -0.3614150 0.1000000 0.1925950
v -0.3939350 0.1000000 0.1439350
v -0.5000000 0.1000000 0.2500000
v -0.3500000 0.1000000 0.2500000
v -0.3614150 0.1000000 0.1925950
v -0.5000000 0.1000000 0.2500000
v 0.1500000 0.1000000 0.2500000
v 0.1385850 0.1000000 0.3074050
v 0.1385850 -0.0000000 0.3074050
v 0.1500000 -0.0000000 0.2500000
v 0.1385850 0.1000000 0.3074050
v 0.1060650 0.1000000 0.3560650
v 0.1060650 -0.0000000 0.3560650
v 0.1385850 -0.0000000 0.3074050
v 0.1060650 0.1000000 0.3560650
v 0.0574050 0.1000000 0.3885850
v 0.0574050 -0.0000000 0.3885850
v 0.1060650 -0.0000000 0.3560650
v 0.0574050 0.1000000 0.3885850
v 0.0000000 0.1000000 0.4000000
v 0.0000000 -0.0000000 0.4000000
v 0.0574050 -0.0000000 0.3885850
v 0.0000000 0.1000000 0.4000000
v -0.0574050 0.1000000 0.3885850
v -0.0574050 -0.0000000 0.3885850
v 0.0000000 -0.0000000 0.4000000
v -0.0574050 0.1000000 0.3885850
v -0.1060650 0.1000000 0.3560650
v -0.1060650 -0.0000000 0.3560650
v -0.0574050 -0.0000000 0.3885850
v -0.1060650 0.1000000 0.3560650
v -0.1385850 0.1000000 0.3074050
v -0.1385850 -0.0000000 0.3074050
v -0.1060650 -0.0000000 0.3560650
v -0.1385850 0.1000000 0.3074050
v -0.1500000 0.1000000 0.2500000
v -0.1500000 -0.0000000 0.2500000
v -0.1385850 -0.0000000 0.3074050
v -0.1500000 0.1000000 0.2500000
v -0.1385850 0.1000000 0.1925950
v -0.1385850 -0.0000000 0.1925950
v -0.1500000 -0.0000000 0.2500000
v -0.1385850 0.1000000 0.1925950
v -0.1060650 0.1000000 0.1439350
v -0.1060650 -0.0000000 0.1439350
v -0.1385850 -0.0000000 0.1925950
v -0.1060650 0.1000000 0.1439350
v -0.0574050 0.1000000 0.1114150
v -0.0574050 -0.0000000 0.1114150
v -0.1060650 -0.0000000 0.1439350
v -0.0574050 0.1000000 0.1114150
v 0.0000000 0.1000000 0.1000000
v 0.0000000 -0.0000000 0.1000000
v -0.0574050 -0.0000000 0.1114150
v 0.0000000 0.1000000 0.1000000
v 0.0574050 0.1000000 0.1114150
v 0.0574050 -0.0000000 0.1114150
v 0.0000000 -0.0000000 0.1000000
v 0.0574050 0.1000000 0.1114150
v 0.1060650 0.1000000 0.1439350
v 0.1060650 -0.0000000 0.1439350
v 0.0574050 -0.0000000 0.1114150
v 0.1060650 0.1000000 0.1439350
v 0.1385850 0.1000000 0.1925950
v 0.1385850 -0.0000000 0.1925950
v 0.1060650 -0.0000000 0.1439350
v 0.1385850 0.1000000 0.1925950
v 0.1500000 0.1000000 0.2500000
v 0.1500000 -0.0000000 0.2500000
v 0.1385850 -0.0000000 0.1925950
v 0.1385850 0.1000000 0.3074050
v 0.1500000 0.1000000 0.2500000
v 0.0000000 0.1000000 0.2500000
v 0.1060650 0.1000000 0.3560650
v 0.1385850 0.1000000 0.3074050
v 0.0000000 0.1000000 0.2500000
v 0.0574050 0.1000000 0.3885850
v 0.1060650 0.1000000 0.3560650
v 0.0000000 0.1000000 0.2500000
v 0.0000000 0.1000000 0.4000000
v 0.0574050 0.1000000 0.3885850
v 0.0000000 0.1000000 0.2500000
v -0.0574050 0.1000000 0.3885850
v 0.0000000 0.1000000 0.4000000
v 0.0000000 0.1000000 0.2500000
v -0.1060650 0.1000000 0.3560650
v -0.0574050 0.1000000 0.3885850
v 0.0000000 0.1000000 0.2500000
v -0.1385850 0.1000000 0.3074050
v -0.1060650 0.1000000 0.3560650
v 0.0000000 0.1000000 0.2500000
v -0.1500000 0.1000000 0.2500000
v -0.1385850 0.1000000 0.3074050
v 0.0000000 0.1000000 0.2500000
v -0.1385850 0.1000000 0.1925950
v -0.1500000 0.1000000 0.2500000
v 0.0000000 0.1000000 0.2500000
v -0.1060650 0.1000000 0.1439350
v -0.1385850 0.1000000 0.1925950
v 0.0000000 0.1000000 0.2500000
v -0.0574050 0.1000000 0.1114150
v -0.1060650 0.1000000 0.1439350
v 0.0000000 0.1000000 0.2500000
v 0.0000000 0.1000000 0.1000000
v -0.0574050 0.1000000 0.1114150
v 0.0000000 0.1000000 0.2500000
v 0.0574050 0.1000000 0.1114150
v 0.0000000 0.1000000 0.1000000
v 0.0000000 0.1000000 0.2500000
v 0.1060650 0.1000000 0.1439350
v 0.0574050 0.1000000 0.1114150
v 0.0000000 0.1000000 0.2500000
v 0.1385850 0.1000000 0.1925950
v 0.1060650 0.1000000 0.1439350
v 0.0000000 0.1000000 0.2500000
v 0.1500000 0.1000000 0.2500000
v 0.1385850 0.1000000 0.1925950
v 0.0000000 0.1000000 0.2500000
v 0.6500000 0.1000000 0.2500000
v 0.6385850 0.1000000 0.3074050
v 0.6385850 -0.0000000 0.3074050
v 0.6500000 -0.0000000 0.2500000
v 0.6385850 0.1000000 0.3074050
v 0.6060650 0.1000000 0.3560650
v 0.6060650 -0.0000000 0.3560650
v 0.6385850 -0.0000000 0.3074050
v 0.6060650 0.1000000 0.3560650
v 0.5574050 0.1000000 0.3885850
v 0.5574050 -0.0000000 0.3885850
v 0.6060650 -0.0000000 0.3560650
v 0.5574050 0.1000000 0.3885850
v 0.5000000 0.1000000 0.4000000
v 0.5000000 -0.0000000 0.4000000
v 0.5574050 -0.0000000 0.3885850
v 0.5000000 0.1000000 0.4000000
v 0.4425950 0.1000000 0.3885850
v 0.4425950 -0.0000000 0.3885850
v 0.5000000 -0.0000000 0.4000000
v 0.4425950 0.1000000 0.3885850
v 0.3939350 0.1000000 0.3560650
v 0.3939350 -0.0000000 0.3560650
v 0.4425950 -0.0000000 0.3885850
v 0.3939350 0.1000000 0.3560650
v 0.3614150 0.1000000 0.3074050
v 0.3614150 -0.0000000 0.3074050
v 0.3939350 -0.0000000 0.3560650
v 0.3614150 0.1000000 0.3074050
v 0.3500000 0.1000000 0.2500000
v 0.3500000 -0.0000000 0.2500000
v 0.3614150 -0.0000000 0.3074050
v 0.3500000 0.1000000 0.2500000
v 0.3614150 0.1000000 0.1925950
v 0.3614150 -0.0000000 0.1925950
v 0.3500000 -0.0000000 0.2500000
v 0.3614150 0.1000000 0.1925950
v 0.3939350 0.1000000 0.1439350
v 0.3939350 -0.0000000 0.1439350
v 0.3614150 -0.0000000 0.1925950
v 0.3939350 0.1000000 0.1439350
v 0.4425950 0.1000000 0.1114150
v 0.4425950 -0.0000000 0.1114150
v 0.3939350 -0.0000000 0.1439350
v 0.4425950 0.1000000 0.1114150
v 0.5000000 0.1000000 0.1000000
v 0.5000000 -0.0000000 0.1000000
v 0.4425950 -0.0000000 0.1114150
v 0.5000000 0.1000000 0.1000000
v 0.5574050 0.1000000 0.1114150
v 0.5574050 -0.0000000 0.1114150
v 0.5000000 -0.0000000 0.1000000
v 0.5574050 0.1000000 0.1114150
v 0.6060650 0.1000000 0.1439350
v 0.6060650 -0.0000000 0.1439350
v 0.5574050 -0.0000000 0.1114150
v 0.6060650 0.1000000 0.1439350
v 0.6385850 0.1000000 0.1925950
v 0.6385850 -0.0000000 0.1925950
v 0.6060650 -0.0000000 0.1439350
v 0.6385850 0.1000000 0.1925950
v 0.6500000 0.1000000 0.2500000
v 0.6500000 -0.0000000 0.2500000
v 0.6385850 -0.0000000 0.1925950
v 0.6385850 0.1000000 0.3074050
v 0.6500000 0.1000000 0.2500000
v 0.5000000 0.1000000 0.2500000
v 0.6060650 0.1000000 0.3560650
v 0.6385850 0.1000000 0.3074050
v 0.5000000 0.1000000 0.2500000
v 0.5574050 0.1000000 0.3885850
v 0.6060650 0.1000000 0.3560650
v 0.5000000 0.1000000 0.2500000
v 0.5000000 0.1000000 0.4000000
v 0.5574050 0.1000000 0.3885850
v 0.5000000 0.1000000 0.2500000
v 0.4425950 0.1000000 0.3885850
v 0.5000000 0.1000000 0.4000000
v 0.5000000 0.1000000 0.2500000
v 0.3939350 0.1000000 0.3560650
v 0.4425950 0.1000000 0.3885850
v 0.5000000 0.1000000 0.2500000
v 0.3614150 0.1000000 0.3074050
v 0.3939350 0.1000000 0.3560650
v 0.5000000 0.1000000 0.2500000
v 0.3500000 0.1000000 0.2500000
v 0.3614150 0.1000000 0.3074050
v 0.5000000 0.1000000 0.2500000
v 0.3614150 0.1000000 0.1925950
v 0.3500000 0.1000000 0.2500000
v 0.5000000 0.1000000 0.2500000
v 0.3939350 0.1000000 0.1439350
v 0.3614150 0.1000000 0.1925950
v 0.5000000 0.1000000 0.2500000
v 0.4425950 0.1000000 0.1114150
v 0.3939350 0.1000000 0.1439350
v 0.5000000 0.1000000 0.2500000
v 0.5000000 0.1000000 0.1000000
v 0.4425950 0.1000000 0.1114150
v 0.5000000 0.1000000 0.2500000
v 0.5574050 0.1000000 0.1114150
v 0.5000000 0.1000000 0.1000000
v 0.5000000 0.1000000 0.2500000
v 0.6060650 0.1000000 0.1439350
v 0.5574050 0.1000000 0.1114150
v 0.5000000 0.1000000 0.2500000
v 0.6385850 0.1000000 0.1925950
v 0.6060650 0.1000000 0.1439350
v 0.5000000 0.1000000 0.2500000
v 0.6500000 0.1000000 0.2500000
v 0.6385850 0.1000000 0.1925950
v 0.5000000 0.1000000 0.2500000
v -0.3500000 0.1000000 -0.2500000
v -0.3614150 0.1000000 -0.1925950
v -0.3614150 -0.0000000 -0.1925950
v -0.3500000 -0.0000000 -0.2500000
v -0.3614150 0.1000000 -0.1925950
v -0.3939350 0.1000000 -0.1439350
v -0.3939350 -0.0000000 -0.1439350
v -0.3614150 -0.0000000 -0.1925950
v -0.3939350 0.1000000 -0.1439350
v -0.4425950 0.1000000 -0.1114150
v -0.4425950 -0.0000000 -0.1114150
v -0.3939350 -0.0000000 -0.1439350
v -0.4425950 0.1000000 -0.1114150
v -0.5000000 0.1000000 -0.1000000
v -0.5000000 -0.0000000 -0.1000000
v -0.4425950 -0.0000000 -0.1114150
v -0.5000000 0.1000000 -0.1000000
v -0.5574050 0.1000000 -0.1114150
v -0.5574050 -0.0000000 -0.1114150
v -0.5000000 -0.0000000 -0.1000000
v -0.5574050 0.1000000 -0.1114150
v -0.6060650 0.1000000 -0.1439350
v -0.6060650 -0.0000000 -0.1439350
v -0.5574050 -0.0000000 -0.1114150
v -0.6060650 0.1000000 -0.1439350
v -0.6385850 0.1000000 -0.1925950
v -0.6385850 -0.0000000 -0.1925950
v -0.6060650 -0.0000000 -0.1439350
v -0.6385850 0.1000000 -0.1925950
v -0.6500000 0.1000000 -0.2500000
v -0.6500000 -0.0000000 -0.2500000
v -0.6385850 -0.0000000 -0.1925950
v -0.6500000 0.1000000 -0.2500000
v -0.6385850 0.1000000 -0.3074050
v -0.6385850 -0.0000000 -0.3074050
v -0.6500000 -0.0000000 -0.2500000
v -0.6385850 0.1000000 -0.3074050
v -0.6060650 0.1000000 -0.3560650
v -0.6060650 -0.0000000 -0.3560650
v -0.6385850 -0.0000000 -0.3074050
v -0.6060650 0.1000000 -0.3560650
v -0.5574050 0.1000000 -0.3885850
v -0.5574050 -0.0000000 -0.3885850
v -0.6060650 -0.0000000 -0.3560650
v -0.5574050 0.1000000 -0.3885850
v -0.5000000 0.1000000 -0.4000000
v -0.5000000 -0.0000000 -0.4000000
v -0.5574050 -0.0000000 -0.3885850
v -0.5000000 0.1000000 -0.4000000
v -0.4425950 0.1000000 -0.3885850
v -0.4425950 -0.0000000 -0.3885850
v -0.5000000 -0.0000000 -0.4000000
v -0.4425950 0.1000000 -0.3885850
v -0.3939350 0.1000000 -0.3560650
v -0.3939350 -0.0000000 -0.3560650
v -0.4425950 -0.0000000 -0.3885850
v -0.3939350 0.1000000 -0.3560650
v -0.3614150 0.1000000 -0.3074050
v -0.3614150 -0.0000000 -0.3074050
v -0.3939350 -0.0000000 -0.3560650
v -0.3614150 0.1000000 -0.3074050
v -0.3500000 0.1000000 -0.2500000
v -0.3500000 -0.0000000 -0.2500000
v -0.3614150 -0.0000000 -0.3074050
v -0.3614150 0.1000000 -0.1925950
v -0.3500000 0.1000000 -0.2500000
v -0.5000000 0.1000000 -0.2500000
v -0.3939350 0.1000000 -0.1439350
v -0.3614150 0.1000000 -0.1925950
v -0.5000000 0.1000000 -0.2500000
v -0.4425950 0.1000000 -0.1114150
v -0.3939350 0.1000000 -0.1439350
v -0.5000000 0.1000000 -0.2500000
v -0.5000000 0.1000000 -0.1000000
v -0.4425950 0.1000000 -0.1114150
v -0.5000000 0.1000000 -0.2500000
v -0.5574050 0.1000000 -0.1114150
v -0.5000000 0.1000000 -0.1000000
v -0.5000000 0.1000000 -0.2500000
v -0.6060650 0.1000000 -0.1439350
v -0.5574050 0.1000000 -0.1114150
v -0.5000000 0.1000000 -0.2500000
v -0.6385850 0.1000000 -0.1925950
v -0.6060650 0.1000000 -0.1439350
v -0.5000000 0.1000000 -0.2500000
v -0.6500000 0.1000000 -0.2500000
v -0.6385850 0.1000000 -0.1925950
v -0.5000000 0.1000000 -0.2500000
v -0.6385850 0.1000000 -0.3074050
v -0.6500000 0.1000000 -0.2500000
v -0.5000000 0.1000000 -0.2500000
v -0.6060650 0.1000000 -0.3560650
v -0.6385850 0.1000000 -0.3074050
v -0.5000000 0.1000000 -0.2500000
v -0.5574050 0.1000000 -0.3885850
v -0.6060650 0.1000000 -0.3560650
v -0.5000000 0.1000000 -0.2500000
v -0.5000000 0.1000000 -0.4000000
v -0.5574050 0.1000000 -0.3885850
v -0.5000000 0.1000000 -0.2500000
v -0.4425950 0.1000000 -0.3885850
v -0.5000000 0.1000000 -0.4000000
v -0.5000000 0.1000000 -0.2500000
v -0.3939350 0.1000000 -0.3560650
v -0.4425950 0.1000000 -0.3885850
v -0.5000000 0.1000000 -0.2500000
v -0.3614150 0.1000000 -0.3074050
v -0.3939350 0.1000000 -0.3560650
v -0.5000000 0.1000000 -0.2500000
v -0.3500000 0.1000000 -0.2500000
v -0.3614150 0.1000000 -0.3074050
v -0.5000000 0.1000000 -0.2500000
v 0.1500000 0.1000000 -0.2500000
v 0.1385850 0.1000000 -0.1925950
v 0.1385850 -0.0000000 -0.1925950
v 0.1500000 -0.0000000 -0.2500000
v 0.1385850 0.1000000 -0.1925950
v 0.1060650 0.1000000 -0.1439350
v 0.1060650 -0.0000000 -0.1439350
v 0.1385850 -0.0000000 -0.1925950
v 0.1060650 0.1000000 -0.1439350
v 0.0574050 0.1000000 -0.1114150
v 0.0574050 -0.0000000 -0.1114150
v 0.1060650 -0.0000000 -0.1439350
v 0.0574050 0.1000000 -0.1114150
v 0.0000000 0.1000000 -0.1000000
v 0.0000000 -0.0000000 -0.1000000
v 0.0574050 -0.0000000 -0.1114150
v 0.0000000 0.1000000 -0.1000000
v -0.0574050 0.1000000 -0.1114150
v -0.0574050 -0.0000000 -0.1114150
v 0.0000000 -0.0000000 -0.1000000
v -0.0574050 0.1000000 -0.1114150
v -0.1060650 0.1000000 -0.1439350
v -0.1060650 -0.0000000 -0.1439350
v -0.0574050 -0.0000000 -0.1114150
v -0.1060650 0.1000000 -0.1439350
v -0.1385850 0.1000000 -0.1925950
v -0.1385850 -0.0000000 -0.1925950
v -0.1060650 -0.0000000 -0.1439350
v -0.1385850 0.1000000 -0.1925950
v -0.1500000 0.1000000 -0.2500000
v -0.1500000 -0.0000000 -0.2500000
v -0.1385850 -0.0000000 -0.1925950
v -0.1500000 0.1000000 -0.2500000
v -0.1385850 0.1000000 -0.3074050
v -0.1385850 -0.0000000 -0.3074050
v -0.1500000 -0.0000000 -0.2500000
v -0.1385850 0.1000000 -0.3074050
v -0.1060650 0.1000000 -0.3560650
v -0.1060650 -0.0000000 -0.3560650
v -0.1385850 -0.0000000 -0.3074050
v -0.1060650 0.1000000 -0.3560650
v -0.0574050 0.1000000 -0.3885850
v -0.0574050 -0.0000000 -0.3885850
v -0.1060650 -0.0000000 -0.3560650
v -0.0574050 0.1000000 -0.3885850
v 0.0000000 0.1000000 -0.4000000
v 0.0000000 -0.0000000 -0.4000000
v -0.0574050 -0.0000000 -0.3885850
v 0.0000000 0.1000000 -0.4000000
v 0.0574050 0.1000000 -0.3885850
v 0.0574050 -0.0000000 -0.3885850
v 0.0000000 -0.0000000 -0.4000000
v 0.0574050 0.1000000 -0.3885850
v 0.1060650 0.1000000 -0.3560650
v 0.1060650 -0.0000000 -0.3560650
v 0.0574050 -0.0000000 -0.3885850
v 0.1060650 0.1000000 -0.3560650
v 0.1385850 0.1000000 -0.3074050
v 0.1385850 -0.0000000 -0.3074050
v 0.1060650 -0.0000000 -0.3560650
v 0.1385850 0.1000000 -0.3074050
v 0.1500000 0.1000000 -0.2500000
v 0.1500000 -0.0000000 -0.2500000
v 0.1385850 -0.0000000 -0.3074050
v 0.1385850 0.1000000 -0.1925950
v 0.1500000 0.1000000 -0.2500000
v 0.0000000 0.1000000 -0.2500000
v 0.1060650 0.1000000 -0.1439350
v 0.1385850 0.1000000 -0.1925950
v 0.0000000 0.1000000 -0.2500000
v 0.0574050 0.1000000 -0.1114150
v 0.1060650 0.1000000 -0.1439350
v 0.0000000 0.1000000 -0.2500000
v 0.0000000 0.1000000 -0.1000000
v 0.0574050 0.1000000 -0.1114150
v 0.0000000 0.1000000 -0.2500000
v -0.0574050 0.1000000 -0.1114150
v 0.0000000 0.1000000 -0.1000000
v 0.0000000 0.1000000 -0.2500000
v -0.1060650 0.1000000 -0.1439350
v -0.0574050 0.1000000 -0.1114150
v 0.0000000 0.1000000 -0.2500000
v -0.1385850 0.1000000 -0.1925950
v -0.1060650 0.1000000 -0.1439350
v 0.0000000 0.1000000 -0.2500000
v -0.1500000 0.1000000 -0.2500000
v -0.1385850 0.1000000 -0.1925950
v 0.0000000 0.1000000 -0.2500000
v -0.1385850 0.1000000 -0.3074050
v -0.1500000 0.1000000 -0.2500000
v 0.0000000 0.1000000 -0.2500000
v -0.1060650 0.1000000 -0.3560650
v -0.1385850 0.1000000 -0.3074050
v 0.0000000 0.1000000 -0.2500000
v -0.0574050 0.1000000 -0.3885850
v -0.1060650 0.1000000 -0.3560650
v 0.0000000 0.1000000 -0.2500000
v 0.0000000 0.1000000 -0.4000000
v -0.0574050 0.1000000 -0.3885850
v 0.0000000 0.1000000 -0.2500000
v 0.0574050 0.1000000 -0.3885850
v 0.0000000 0.1000000 -0.4000000
v 0.0000000 0.1000000 -0.2500000
v 0.1060650 0.1000000 -0.3560650
v 0.0574050 0.1000000 -0.3885850
v 0.0000000 0.1000000 -0.2500000
v 0.1385850 0.1000000 -0.3074050
v 0.1060650 0.1000000 -0.3560650
v 0.0000000 0.1000000 -0.2500000
v 0.1500000 0.1000000 -0.2500000
v 0.1385850 0.1000000 -0.3074050
v 0.0000000 0.1000000 -0.2500000
v 0.6500000 0.1000000 -0.2500000
v 0.6385850 0.1000000 -0.1925950
v 0.6385850 -0.0000000 -0.1925950
v 0.6500000 -0.0000000 -0.2500000
v 0.6385850 0.1000000 -0.1925950
v 0.6060650 0.1000000 -0.1439350
v 0.6060650 -0.0000000 -0.1439350
v 0.6385850 -0.0000000 -0.1925950
v 0.6060650 0.1000000 -0.1439350
v 0.5574050 0.1000000 -0.1114150
v 0.5574050 -0.0000000 -0.1114150
v 0.6060650 -0.0000000 -0.1439350
v 0.5574050 0.1000000 -0.1114150
v 0.5000000 0.1000000 -0.1000000
v 0.5000000 -0.0000000 -0.1000000
v 0.5574050 -0.0000000 -0.1114150
v 0.5000000 0.1000000 -0.1000000
v 0.4425950 0.1000000 -0.1114150
v 0.4425950 -0.0000000 -0.1114150
v 0.5000000 -0.0000000 -0.1000000
v 0.4425950 0.1000000 -0.1114150
v 0.3939350 0.1000000 -0.1439350
v 0.3939350 -0.0000000 -0.1439350
v 0.4425950 -0.0000000 -0.1114150
v 0.3939350 0.1000000 -0.1439350
v 0.3614150 0.1000000 -0.1925950
v 0.3614150 -0.0000000 -0.1925950
v 0.3939350 -0.0000000 -0.1439350
v 0.3614150 0.1000000 -0.1925950
v 0.3500000 0.1000000 -0.2500000
v 0.3500000 -0.0000000 -0.2500000
v 0.3614150 -0.0000000 -0.1925950
v 0.3500000 0.1000000 -0.2500000
v 0.3614150 0.1000000 -0.3074050
v 0.3614150 -0.0000000 -0.3074050
v 0.3500000 -0.0000000 -0.2500000
v 0.3614150 0.1000000 -0.3074050
v 0.3939350 0.1000000 -0.3560650
v 0.3939350 -0.0000000 -0.3560650
v 0.3614150 -0.0000000 -0.3074050
v 0.3939350 0.1000000 -0.3560650
v 0.4425950 0.1000000 -0.3885850
v 0.4425950 -0.0000000 -0.3885850
v 0.3939350 -0.0000000 -0.3560650
v 0.4425950 0.1000000 -0.3885850
v 0.5000000 0.1000000 -0.4000000
v 0.5000000 -0.0000000 -0.4000000
v 0.4425950 -0.0000000 -0.3885850
v 0.5000000 0.1000000 -0.4000000
v 0.5574050 0.1000000 -0.3885850
v 0.5574050 -0.0000000 -0.3885850
v 0.5000000 -0.0000000 -0.4000000
v 0.5574050 0.1000000 -0.3885850
v 0.6060650 0.1000000 -0.3560650
v 0.6060650 -0.0000000 -0.3560650
v 0.5574050 -0.0000000 -0.3885850
v 0.6060650 0.1000000 -0.3560650
v 0.6385850 0.1000000 -0.3074050
v 0.6385850 -0.0000000 -0.3074050
v 0.6060650 -0.0000000 -0.3560650
v 0.6385850 0.1000000 -0.3074050
v 0.6500000 0.1000000 -0.2500000
v 0.6500000 -0.0000000 -0.2500000
v 0.6385850 -0.0000000 -0.3074050
v 0.6385850 0.1000000 -0.1925950
v 0.6500000 0.1000000 -0.2500000
v 0.5000000 0.1000000 -0.2500000
v 0.6060650 0.1000000 -0.1439350
v 0.6385850 0.1000000 -0.1925950
v 0.5000000 0.1000000 -0.2500000
v 0.5574050 0.1000000 -0.1114150
v 0.6060650 0.1000000 -0.1439350
v 0.5000000 0.1000000 -0.2500000
v 0.5000000 0.1000000 -0.1000000
v 0.5574050 0.1000000 -0.1114150
v 0.5000000 0.1000000 -0.2500000
v 0.4425950 0.1000000 -0.1114150
v 0.5000000 0.1000000 -0.1000000
v 0.5000000 0.1000000 -0.2500000
v 0.3939350 0.1000000 -0.1439350
v 0.4425950 0.1000000 -0.1114150
v 0.5000000 0.1000000 -0.2500000
v 0.3614150 0.1000000 -0.1925950
v 0.3939350 0.1000000 -0.1439350
v 0.5000000 0.1000000 -0.2500000
v 0.3500000 0.1000000 -0.2500000
v 0.3614150 0.1000000 -0.1925950
v 0.5000000 0.1000000 -0.2500000
v 0.3614150 0.1000000 -0.3074050
v 0.3500000 0.1000000 -0.2500000
v 0.5000000 0.1000000 -0.2500000
v 0.3939350 0.1000000 -0.3560650
v 0.3614150 0.1000000 -0.3074050
v 0.5000000 0.1000000 -0.2500000
v 0.4425950 0.1000000 -0.3885850
v 0.3939350 0.1000000 -0.3560650
v 0.5000000 0.1000000 -0.2500000
v 0.5000000 0.1000000 -0.4000000
v 0.4425950 0.1000000 -0.3885850
v 0.5000000 0.1000000 -0.2500000
v 0.5574050 0.1000000 -0.3885850
v 0.5000000 0.1000000 -0.4000000
v 0.5000000 0.1000000 -0.2500000
v 0.6060650 0.1000000 -0.3560650
v 0.5574050 0.1000000 -0.3885850
v 0.5000000 0.1000000 -0.2500000
v 0.6385850 0.1000000 -0.3074050
v 0.6060650 0.1000000 -0.3560650
v 0.5000000 0.1000000 -0.2500000
v 0.6500000 0.1000000 -0.2500000
v 0.6385850 0.1000000 -0.3074050
v 0.5000000 0.1000000 -0.2500000
s off
f 1 2 3
f 1 3 4
f 5 6 7
f 5 7 8
f 9 10 11
f 9 11 12
f 13 14 15
f 16 17 18
f 16 18 19
f 20 21 22
f 23 24 25
f 23 25 26
f 27 28 29
f 27 29 30
f 31 32 33
f 31 33 34
f 35 36 37
f 35 37 38
f 39 40 41
f 42 43 44
f 42 44 45
f 46 47 48
f 46 48 49
f 50 51 52
f 50 52 53
f 54 55 56
f 57 58 59
f 60 61 62
f 60 62 63
f 64 65 66
f 67 68 69
f 67 69 70
f 71 72 73
f 71 73 74
f 75 76 77
f 78 79 80
f 81 82 83
f 84 85 86
f 84 86 87
f 88 89 90
f 91 92 93
f 91 93 94
f 95 96 97
f 95 97 98
f 99 100 101
f 99 101 102
f 103 104 105
f 103 105 106
f 107 108 109
f 110 111 112
f 113 114 115
f 113 115 116
f 117 118 119
f 120 121 122
f 120 122 123
f 124 125 126
f 124 126 127
f 128 129 130
f 128 130 131
f 132 133 134
f 132 134 135
f 136 137 138
f 136 138 139
f 140 141 142
f 140 142 143
f 144 145 146
f 144 146 147
f 148 149 150
f 148 150 151
f 152 153 154
f 152 154 155
f 156 157 158
f 156 158 159
f 160 161 162
f 160 162 163
f 164 165 166
f 164 166 167
f 168 169 170
f 168 170 171
f 172 173 174
f 172 174 175
f 176 177 178
f 176 178 179
f 180 181 182
f 180 182 183
f 184 185 186
f 184 186 187
f 188 189 190
f 188 190 191
f 192 193 194
f 192 194 195
f 196 197 198
f 196 198 199
f 200 201 202
f 200 202 203
f 204 205 206
f 204 206 207
f 208 209 210
f 208 210 211
f 212 213 214
f 212 214 215
f 216 217 218
f 216 218 219
f 220 221 222
f 220 222 223
f 224 225 226
f 224 226 227
f 228 229 230
f 228 230 231
f 232 233 234
f 232 234 235
f 236 237 238
f 236 238 239
f 240 241 242
f 243 244 245
f 246 247 248
f 249 250 251
f 252 253 254
f 255 256 257
f 258 259 260
f 261 262 263
f 264 265 266
f 267 268 269
f 270 271 272
f 273 274 275
f 276 277 278
f 279 280 281
f 282 283 284
f 285 286 287
f 288 289 290
f 291 292 293
f 294 295 296
f 297 298 299
f 300 301 302
f 303 304 305
f 306 307 308
f 309 310 311
f 312 313 314
f 315 316 317
f 318 319 320
f 321 322 323
f 324 325 326
f 327 328 329
f 330 331 332
f 333 334 335
f 336 337 338
f 336 338 339
f 340 341 342
f 340 342 343
f 344 345 346
f 344 346 347
f 348 349 350
f 348 350 351
f 352 353 354
f 352 354 355
f 356 357 358
f 356 358 359
f 360 361 362
f 360 362 363
f 364 365 366
f 364 366 367
f 368 369 370
f 368 370 371
f 372 373 374
f 372 374 375
f 376 377 378
f 376 378 379
f 380 381 382
f 380 382 383
f 384 385 386
f 384 386 387
f 388 389 390
f 388 390 391
f 392 393 394
f 392 394 395
f 396 397 398
f 396 398 399
f 400 401 402
f 400 402 403
f 404 405 406
f 404 406 407
f 408 409 410
f 408 410 411
f 412 413 414
f 412 414 415
f 416 417 418
f 416 418 419
f 420 421 422
f 420 422 423
f 424 425 426
f 424 426 427
f 428 429 430
f 428 430 431
f 432 433 434
f 435 436 437
f 438 439 440
f 441 442 443
f 444 445 446
f 447 448 449
f 450 451 452
f 453 454 455
f 456 457 458
f 459 460 461
f 462 463 464
f 465 466 467
f 468 469 470
f 471 472 473
f 474 475 476
f 477 478 479
f 480 481 482
f 483 484 485
f 486 487 488
f 489 490 491
f 492 493 494
f 495 496 497
f 498 499 500
f 501 502 503
f 504 505 506
f 507 508 509
f 510 511 512
f 513 514 515
f 516 517 518
f 519 520 521
f 522 523 524
f 525 526 527
f 528 529 530
f 528 530 531
f 532 533 534
f 532 534 535
f 536 537 538
f 536 538 539
f 540 541 542
f 543 544 545
f 543 545 546
f 547 548 549
f 550 551 552
f 550 552 553
f 554 555 556
f 554 556 557
f 558 559 560
f 558 560 561
f 562 563 564
f 562 564 565
f 566 567 568
f 569 570 571
f 569 571 572
f 573 574 575
f 573 575 576
f 577 578 579
f 577 579 580
f 581 582 583
f 584 585 586
f 587 588 589
f 587 589 590
f 591 592 593
f 594 595 596
f 594 596 597
f 598 599 600
f 598 600 601
f 602 603 604
f 605 606 607
f 608 609 610
f 611 612 613
f 611 613 614
f 615 616 617
f 618 619 620
f 618 620 621
f 622 623 624
f 622 624 625
f 626 627 628
f 626 628 629
f 630 631 632
f 630 632 633
f 634 635 636
f 637 638 639
f 640 641 642
f 640 642 643
f 644 645 646
f 647 648 649
f 647 649 650
f 651 652 653
f 651 653 654
f 655 656 657
f 655 657 658
f 659 660 661
f 659 661 662
f 663 664 665
f 663 665 666
f 667 668 669
f 667 669 670
f 671 672 673
f 671 673 674
f 675 676 677
f 675 677 678
f 679 680 681
f 679 681 682
f 683 684 685
f 683 685 686
f 687 688 689
f 687 689 690
f 691 692 693
f 691 693 694
f 695 696 697
f 695 697 698
f 699 700 701
f 699 701 702
f 703 704 705
f 703 705 706
f 707 708 709
f 707 709 710
f 711 712 713
f 711 713 714
f 715 716 717
f 715 717 718
f 719 720 721
f 719 721 722
f 723 724 725
f 723 725 726
f 727 728 729
f 727 729 730
f 731 732 733
f 731 733 734
f 735 736 737
f 735 737 738
f 739 740 741
f 739 741 742
f 743 744 745
f 743 745 746
f 747 748 749
f 747 749 750
f 751 752 753
f 751 753 754
f 755 756 757
f 755 757 758
f 759 760 761
f 759 761 762
f 763 764 765
f 763 765 766
f 767 768 769
f 770 771 772
f 773 774 775
f 776 777 778
f 779 780 781
f 782 783 784
f 785 786 787
f 788 789 790
f 791 792 793
f 794 795 796
f 797 798 799
f 800 801 802
f 803 804 805
f 806 807 808
f 809 810 811
f 812 813 814
f 815 816 817
f 818 819 820
f 821 822 823
f 824 825 826
f 827 828 829
f 830 831 832
f 833 834 835
f 836 837 838
f 839 840 841
f 842 843 844
f 845 846 847
f 848 849 850
f 851 852 853
f 854 855 856
f 857 858 859
f 860 861 862
f 863 864 865
f 863 865 866
f 867 868 869
f 867 869 870
f 871 872 873
f 871 873 874
f 875 876 877
f 875 877 878
f 879 880 881
f 879 881 882
f 883 884 885
f 883 885 886
f 887 888 889
f 887 889 890
f 891 892 893
f 891 893 894
f 895 896 897
f 895 897 898
f 899 900 901
f 899 901 902
f 903 904 905
f 903 905 906
f 907 908 909
f 907 909 910
f 911 912 913
f 911 913 914
f 915 916 917
f 915 917 918
f 919 920 921
f 919 921 922
f 923 924 925
f 923 925 926
f 927 928 929
f 927 929 930
f 931 932 933
f 931 933 934
f 935 936 937
f 935 937 938
f 939 940 941
f 939 941 942
f 943 944 945
f 943 945 946
f 947 948 949
f 947 949 950
f 951 952 953
f 951 953 954
f 955 956 957
f 955 957 958
f 959 960 961
f 962 963 964
f 965 966 967
f 968 969 970
f 971 972 973
f 974 975 976
f 977 978 979
f 980 981 982
f 983 984 985
f 986 987 988
f 989 990 991
f 992 993 994
f 995 996 997
f 998 999 1000
f 1001 1002 1003
f 1004 1005 1006
f 1007 1008 1009
f 1010 1011 1012
f 1013 1014 1015
f 1016 1017 1018
f 1019 1020 1021
f 1022 1023 1024
f 1025 1026 1027
f 1028 1029 1030
f 1031 1032 1033
f 1034 1035 1036
f 1037 1038 1039
f 1040 1041 1042
f 1043 1044 1045
f 1046 1047 1048
f 1049 1050 1051
f 1052 1053 1054
f 1055 1056 1057
f 1055 1057 1058
f 1059 1060 1061
f 1059 1061 1062
f 1063 1064 1065
f 1063 1065 1066
f 1067 1068 1069
f 1067 1069 1070
f 1071 1072 1073
f 1071 1073 1074
f 1075 1076 1077
f 1075 1077 1078
f 1079 1080 1081
f 1079 1081 1082
f 1083 1084 1085
f 1083 1085 1086
f 1087 1088 1089
f 1087 1089 1090
f 1091 1092 1093
f 1091 1093 1094
f 1095 1096 1097
f 1095 1097 1098
f 1099 1100 1101
f 1099 1101 1102
f 1103 1104 1105
f 1103 1105 1106
f 1107 1108 1109
f 1107 1109 1110
f 1111 1112 1113
f 1111 1113 1114
f 1115 1116 1117
f 1115 1117 1118
f 1119 1120 1121
f 1119 1121 1122
f 1123 1124 1125
f 1123 1125 1126
f 1127 1128 1129
f 1127 1129 1130
f 1131 1132 1133
f 1131 1133 1134
f 1135 1136 1137
f 1135 1137 1138
f 1139 1140 1141
f 1139 1141 1142
f 1143 1144 1145
f 1143 1145 1146
f 1147 1148 1149
f 1147 1149 1150
f 1151 1152 1153
f 1151 1153 1154
f 1155 1156 1157
f 1155 1157 1158
f 1159 1160 1161
f 1159 1161 1162
f 1163 1164 1165
f 1163 1165 1166
f 1167 1168 1169
f 1167 1169 1170
f 1171 1172 1173
f 1171 1173 1174
f 1175 1176 1177
f 1175 1177 1178
f 1179 1180 1181
f 1179 1181 1182
f 1183 1184 1185
f 1183 1185 1186
f 1187 1188 1189
f 1187 1189 1190
f 1191 1192 1193
f 1191 1193 1194
f 1195 1196 1197
f 1195 1197 1198
f 1199 1200 1201
f 1199 1201 1202
f 1203 1204 1205
f 1203 1205 1206
f 1207 1208 1209
f 1207 1209 1210
f 1211 1212 1213
f 1211 1213 1214
f 1215 1216 1217
f 1215 1217 1218
f 1219 1220 1221
f 1219 1221 1222
f 1223 1224 1225
f 1223 1225 1226
f 1227 1228 1229
f 1227 1229 1230
f 1231 1232 1233
f 1231 1233 1234
f 1235 1236 1237
f 1235 1237 1238
f 1239 1240 1241
f 1239 1241 1242
f 1243 1244 1245
f 1243 1245 1246
f 1247 1248 1249
f 1247 1249 1250
f 1251 1252 1253
f 1251 1253 1254
f 1255 1256 1257
f 1255 1257 1258
f 1259 1260 1261
f 1259 1261 1262
f 1263 1264 1265
f 1263 1265 1266
f 1267 1268 1269
f 1267 1269 1270
f 1271 1272 1273
f 1271 1273 1274
f 1275 1276 1277
f 1275 1277 1278
f 1279 1280 1281
f 1279 1281 1282
f 1283 1284 1285
f 1283 1285 1286
f 1287 1288 1289
f 1287 1289 1290
f 1291 1292 1293
f 1291 1293 1294
f 1295 1296 1297
f 1295 1297 1298
f 1299 1300 1301
f 1299 1301 1302
f 1303 1304 1305
f 1303 1305 1306
f 1307 1308 1309
f 1307 1309 1310
f 1311 1312 1313
f 1311 1313 1314
f 1315 1316 1317
f 1315 1317 1318
f 1319 1320 1321
f 1319 1321 1322
f 1323 1324 1325
f 1323 1325 1326
f 1327 1328 1329
f 1327 1329 1330
f 1331 1332 1333
f 1331 1333 1334
f 1335 1336 1337
f 1335 1337 1338
f 1339 1340 1341
f 1339 1341 1342
f 1343 1344 1345
f 1343 1345 1346
f 1347 1348 1349
f 1347 1349 1350
f 1351 1352 1353
f 1351 1353 1354
f 1355 1356 1357
f 1355 1357 1358
f 1359 1360 1361
f 1359 1361 1362
f 1363 1364 1365
f 1363 1365 1366
f 1367 1368 1369
f 1367 1369 1370
f 1371 1372 1373
f 1371 1373 1374
f 1375 1376 1377
f 1375 1377 1378
f 1379 1380 1381
f 1379 1381 1382
f 1383 1384 1385
f 1383 1385 1386
f 1387 1388 1389
f 1387 1389 1390
f 1391 1392 1393
f 1391 1393 1394
f 1395 1396 1397
f 1395 1397 1398
f 1399 1400 1401
f 1399 1401 1402
f 1403 1404 1405
f 1403 1405 1406
f 1407 1408 1409
f 1407 1409 1410
f 1411 1412 1413
f 1411 1413 1414
f 1415 1416 1417
f 1415 1417 1418
f 1419 1420 1421
f 1419 1421 1422
f 1423 1424 1425
f 1423 1425 1426
f 1427 1428 1429
f 1427 1429 1430
f 1431 1432 1433
f 1431 1433 1434
f 1435 1436 1437
f 1435 1437 1438
f 1439 1440 1441
f 1439 1441 1442
f 1443 1444 1445
f 1443 1445 1446
f 1447 1448 1449
f 1447 1449 1450
f 1451 1452 1453
f 1451 1453 1454
f 1455 1456 1457
f 1455 1457 1458
f 1459 1460 1461
f 1459 1461 1462
f 1463 1464 1465
f 1463 1465 1466
f 1467 1468 1469
f 1467 1469 1470
f 1471 1472 1473
f 1471 1473 1474
f 1475 1476 1477
f 1475 1477 1478
f 1479 1480 1481
f 1479 1481 1482
f 1483 1484 1485
f 1483 1485 1486
f 1487 1488 1489
f 1487 1489 1490
f 1491 1492 1493
f 1491 1493 1494
f 1495 1496 1497
f 1495 1497 1498
f 1499 1500 1501
f 1499 1501 1502
f 1503 1504 1505
f 1506 1507 1508
f 1509 1510 1511
f 1512 1513 1514
f 1515 1516 1517
f 1518 1519 1520
f 1521 1522 1523
f 1524 1525 1526
f 1527 1528 1529
f 1530 1531 1532
f 1533 1534 1535
f 1536 1537 1538
f 1539 1540 1541
f 1542 1543 1544
f 1545 1546 1547
f 1548 1549 1550
f 1551 1552 1553
f 1551 1553 1554
f 1555 1556 1557
f 1555 1557 1558
f 1559 1560 1561
f 1559 1561 1562
f 1563 1564 1565
f 1563 1565 1566
f 1567 1568 1569
f 1567 1569 1570
f 1571 1572 1573
f 1571 1573 1574
f 1575 1576 1577
f 1575 1577 1578
f 1579 1580 1581
f 1579 1581 1582
f 1583 1584 1585
f 1583 1585 1586
f 1587 1588 1589
f 1587 1589 1590
f 1591 1592 1593
f 1591 1593 1594
f 1595 1596 1597
f 1595 1597 1598
f 1599 1600 1601
f 1599 1601 1602
f 1603 1604 1605
f 1603 1605 1606
f 1607 1608 1609
f 1607 1609 1610
f 1611 1612 1613
f 1611 1613 1614
f 1615 1616 1617
f 1618 1619 1620
f 1621 1622 1623
f 1624 1625 1626
f 1627 1628 1629
f 1630 1631 1632
f 1633 1634 1635
f 1636 1637 1638
f 1639 1640 1641
f 1642 1643 1644
f 1645 1646 1647
f 1648 1649 1650
f 1651 1652 1653
f 1654 1655 1656
f 1657 1658 1659
f 1660 1661 1662
f 1663 1664 1665
f 1663 1665 1666
f 1667 1668 1669
f 1667 1669 1670
f 1671 1672 1673
f 1671 1673 1674
f 1675 1676 1677
f 1675 1677 1678
f 1679 1680 1681
f 1679 1681 1682
f 1683 1684 1685
f 1683 1685 1686
f 1687 1688 1689
f 1687 1689 1690
f 1691 1692 1693
f 1691 1693 1694
f 1695 1696 1697
f 1695 1697 1698
f 1699 1700 1701
f 1699 1701 1702
f 1703 1704 1705
f 1703 1705 1706
f 1707 1708 1709
f 1707 1709 1710
f 1711 1712 1713
f 1711 1713 1714
f 1715 1716 1717
f 1715 1717 1718
f 1719 1720 1721
f 1719 1721 1722
f 1723 1724 1725
f 1723 1725 1726
f 1727 1728 1729
f 1730 1731 1732
f 1733 1734 1735
f 1736 1737 1738
f 1739 1740 1741
f 1742 1743 1744
f 1745 1746 1747
f 1748 1749 1750
f 1751 1752 1753
f 1754 1755 1756
f 1757 1758 1759
f 1760 1761 1762
f 1763 1764 1765
f 1766 1767 1768
f 1769 1770 1771
f 1772 1773 1774
f 1775 1776 1777
f 1775 1777 1778
f 1779 1780 1781
f 1779 1781 1782
f 1783 1784 1785
f 1783 1785 1786
f 1787 1788 1789
f 1787 1789 1790
f 1791 1792 1793
f 1791 1793 1794
f 1795 1796 1797
f 1795 1797 1798
f 1799 1800 1801
f 1799 1801 1802
f 1803 1804 1805
f 1803 1805 1806
f 1807 1808 1809
f 1807 1809 1810
f 1811 1812 1813
f 1811 1813 1814
f 1815 1816 1817
f 1815 1817 1818
f 1819 1820 1821
f 1819 1821 1822
f 1823 1824 1825
f 1823 1825 1826
f 1827 1828 1829
f 1827 1829 1830
f 1831 1832 1833
f 1831 1833 1834
f 1835 1836 1837
f 1835 1837 1838
f 1839 1840 1841
f 1842 1843 1844
f 1845 1846 1847
f 1848 1849 1850
f 1851 1852 1853
f 1854 1855 1856
f 1857 1858 1859
f 1860 1861 1862
f 1863 1864 1865
f 1866 1867 1868
f 1869 1870 1871
f 1872 1873 1874
f 1875 1876 1877
f 1878 1879 1880
f 1881 1882 1883
f 1884 1885 1886
f 1887 1888 1889
f 1887 1889 1890
f 1891 1892 1893
f 1891 1893 1894
f 1895 1896 1897
f 1895 1897 1898
f 1899 1900 1901
f 1899 1901 1902
f 1903 1904 1905
f 1903 1905 1906
f 1907 1908 1909
f 1907 1909 1910
f 1911 1912 1913
f 1911 1913 1914
f 1915 1916 1917
f 1915 1917 1918
f 1919 1920 1921
f 1919 1921 1922
f 1923 1924 1925
f 1923 1925 1926
f 1927 1928 1929
f 1927 1929 1930
f 1931 1932 1933
f 1931 1933 1934
f 1935 1936 1937
f 1935 1937 1938
f 1939 1940 1941
f 1939 1941 1942
f 1943 1944 1945
f 1943 1945 1946
f 1947 1948 1949
f 1947 1949 1950
f 1951 1952 1953
f 1954 1955 1956
f 1957 1958 1959
f 1960 1961 1962
f 1963 1964 1965
f 1966 1967 1968
f 1969 1970 1971
f 1972 1973 1974
f 1975 1976 1977
f 1978 1979 1980
f 1981 1982 1983
f 1984 1985 1986
f 1987 1988 1989
f 1990 1991 1992
f 1993 1994 1995
f 1996 1997 1998
f 1999 2000 2001
f 1999 2001 2002
f 2003 2004 2005
f 2003 2005 2006
f 2007 2008 2009
f 2007 2009 2010
f 2011 2012 2013
f 2011 2013 2014
f 2015 2016 2017
f 2015 2017 2018
f 2019 2020 2021
f 2019 2021 2022
f 2023 2024 2025
f 2023 2025 2026
f 2027 2028 2029
f 2027 2029 2030
f 2031 2032 2033
f 2031 2033 2034
f 2035 2036 2037
f 2035 2037 2038
f 2039 2040 2041
f 2039 2041 2042
f 2043 2044 2045
f 2043 2045 2046
f 2047 2048 2049
f 2047 2049 2050
f 2051 2052 2053
f 2051 2053 2054
f 2055 2056 2057
f 2055 2057 2058
f 2059 2060 2061
f 2059 2061 2062
f 2063 2064 2065
f 2066 2067 2068
f 2069 2070 2071
f 2072 2073 2074
f 2075 2076 2077
f 2078 2079 2080
f 2081 2082 2083
f 2084 2085 2086
f 2087 2088 2089
f 2090 2091 2092
f 2093 2094 2095
f 2096 2097 2098
f 2099 2100 2101
f 2102 2103 2104
f 2105 2106 2107
f 2108 2109 2110
