# Baked from official LDraw part 4533.dat
o ldraw_4533
v 0.1000000 -0.3500000 1.1000000
v 0.1000000 -0.4000000 1.1000000
v 0.1000000 -0.3961950 1.1191350
v 0.1000000 -0.3500000 1.1000000
v 0.1000000 -0.3961950 1.1191350
v 0.1000000 -0.3853550 1.1353550
v 0.1000000 -0.3500000 1.1000000
v 0.1000000 -0.3853550 1.1353550
v 0.1000000 -0.3691350 1.1461950
v 0.1000000 -0.3500000 1.1000000
v 0.1000000 -0.3691350 1.1461950
v 0.1000000 -0.3500000 1.1500000
v 0.1000000 -0.3500000 1.1000000
v 0.1000000 -0.3500000 1.1500000
v 0.1000000 -0.3308650 1.1461950
v 0.1000000 -0.3500000 1.1000000
v 0.1000000 -0.3308650 1.1461950
v 0.1000000 -0.3146450 1.1353550
v 0.1000000 -0.3500000 1.1000000
v 0.1000000 -0.3146450 1.1353550
v 0.1000000 -0.3038050 1.1191350
v 0.1000000 -0.3500000 1.1000000
v 0.1000000 -0.3038050 1.1191350
v 0.1000000 -0.3000000 1.1000000
v 0.1000000 -0.3500000 1.1000000
v 0.1000000 -0.3000000 1.1000000
v 0.1000000 -0.3038050 1.0808650
v 0.1000000 -0.3500000 1.1000000
v 0.1000000 -0.3038050 1.0808650
v 0.1000000 -0.3146450 1.0646450
v 0.1000000 -0.3500000 1.1000000
v 0.1000000 -0.3146450 1.0646450
v 0.1000000 -0.3308650 1.0538050
v 0.1000000 -0.3500000 1.1000000
v 0.1000000 -0.3308650 1.0538050
v 0.1000000 -0.3500000 1.0500000
v 0.1000000 -0.3500000 1.1000000
v 0.1000000 -0.3500000 1.0500000
v 0.1000000 -0.3691350 1.0538050
v 0.1000000 -0.3500000 1.1000000
v 0.1000000 -0.3691350 1.0538050
v 0.1000000 -0.3853550 1.0646450
v 0.1000000 -0.3500000 1.1000000
v 0.1000000 -0.3853550 1.0646450
v 0.1000000 -0.3961950 1.0808650
v 0.1000000 -0.3500000 1.1000000
v 0.1000000 -0.3961950 1.0808650
v 0.1000000 -0.4000000 1.1000000
v 0.1000000 -0.5500000 1.1000000
v 0.1000000 -0.6000000 1.1000000
v 0.1000000 -0.5961950 1.1191350
v 0.1000000 -0.5500000 1.1000000
v 0.1000000 -0.5961950 1.1191350
v 0.1000000 -0.5853550 1.1353550
v 0.1000000 -0.5500000 1.1000000
v 0.1000000 -0.5853550 1.1353550
v 0.1000000 -0.5691350 1.1461950
v 0.1000000 -0.5500000 1.1000000
v 0.1000000 -0.5691350 1.1461950
v 0.1000000 -0.5500000 1.1500000
v 0.1000000 -0.5500000 1.1000000
v 0.1000000 -0.5500000 1.1500000
v 0.1000000 -0.5308650 1.1461950
v 0.1000000 -0.5500000 1.1000000
v 0.1000000 -0.5308650 1.1461950
v 0.1000000 -0.5146450 1.1353550
v 0.1000000 -0.5500000 1.1000000
v 0.1000000 -0.5146450 1.1353550
v 0.1000000 -0.5038050 1.1191350
v 0.1000000 -0.5500000 1.1000000
v 0.1000000 -0.5038050 1.1191350
v 0.1000000 -0.5000000 1.1000000
v 0.1000000 -0.5500000 1.1000000
v 0.1000000 -0.5000000 1.1000000
v 0.1000000 -0.5038050 1.0808650
v 0.1000000 -0.5500000 1.1000000
v 0.1000000 -0.5038050 1.0808650
v 0.1000000 -0.5146450 1.0646450
v 0.1000000 -0.5500000 1.1000000
v 0.1000000 -0.5146450 1.0646450
v 0.1000000 -0.5308650 1.0538050
v 0.1000000 -0.5500000 1.1000000
v 0.1000000 -0.5308650 1.0538050
v 0.1000000 -0.5500000 1.0500000
v 0.1000000 -0.5500000 1.1000000
v 0.1000000 -0.5500000 1.0500000
v 0.1000000 -0.5691350 1.0538050
v 0.1000000 -0.5500000 1.1000000
v 0.1000000 -0.5691350 1.0538050
v 0.1000000 -0.5853550 1.0646450
v 0.1000000 -0.5500000 1.1000000
v 0.1000000 -0.5853550 1.0646450
v 0.1000000 -0.5961950 1.0808650
v 0.1000000 -0.5500000 1.1000000
v 0.1000000 -0.5961950 1.0808650
v 0.1000000 -0.6000000 1.1000000
v 0.0500000 -0.3308650 1.0538050
v 0.0500000 -0.3500000 1.0500000
v 0.0500000 -0.3000000 1.0500000
v 0.0500000 -0.3146450 1.0646450
v 0.0500000 -0.3308650 1.0538050
v 0.0500000 -0.3000000 1.0500000
v 0.0500000 -0.3038050 1.0808650
v 0.0500000 -0.3146450 1.0646450
v 0.0500000 -0.3000000 1.0500000
v 0.0500000 -0.3000000 1.1000000
v 0.0500000 -0.3038050 1.0808650
v 0.0500000 -0.3000000 1.0500000
v 0.0500000 -0.3038050 1.1191350
v 0.0500000 -0.3000000 1.1000000
v 0.0500000 -0.3000000 1.1500000
v 0.0500000 -0.3146450 1.1353550
v 0.0500000 -0.3038050 1.1191350
v 0.0500000 -0.3000000 1.1500000
v 0.0500000 -0.3308650 1.1461950
v 0.0500000 -0.3146450 1.1353550
v 0.0500000 -0.3000000 1.1500000
v 0.0500000 -0.3500000 1.1500000
v 0.0500000 -0.3308650 1.1461950
v 0.0500000 -0.3000000 1.1500000
v 0.0500000 -0.5691350 1.1461950
v 0.0500000 -0.5500000 1.1500000
v 0.0500000 -0.6000000 1.1500000
v 0.0500000 -0.5853550 1.1353550
v 0.0500000 -0.5691350 1.1461950
v 0.0500000 -0.6000000 1.1500000
v 0.0500000 -0.5961950 1.1191350
v 0.0500000 -0.5853550 1.1353550
v 0.0500000 -0.6000000 1.1500000
v 0.0500000 -0.6000000 1.1000000
v 0.0500000 -0.5961950 1.1191350
v 0.0500000 -0.6000000 1.1500000
v 0.0500000 -0.5961950 1.0808650
v 0.0500000 -0.6000000 1.1000000
v 0.0500000 -0.6000000 1.0500000
v 0.0500000 -0.5853550 1.0646450
v 0.0500000 -0.5961950 1.0808650
v 0.0500000 -0.6000000 1.0500000
v 0.0500000 -0.5691350 1.0538050
v 0.0500000 -0.5853550 1.0646450
v 0.0500000 -0.6000000 1.0500000
v 0.0500000 -0.5500000 1.0500000
v 0.0500000 -0.5691350 1.0538050
v 0.0500000 -0.6000000 1.0500000
v -0.0500000 -0.3961950 1.1191350
v -0.0500000 -0.4000000 1.1000000
v -0.0500000 -0.4000000 1.1500000
v -0.0500000 -0.3853550 1.1353550
v -0.0500000 -0.3961950 1.1191350
v -0.0500000 -0.4000000 1.1500000
v -0.0500000 -0.3691350 1.1461950
v -0.0500000 -0.3853550 1.1353550
v -0.0500000 -0.4000000 1.1500000
v -0.0500000 -0.3500000 1.1500000
v -0.0500000 -0.3691350 1.1461950
v -0.0500000 -0.4000000 1.1500000
v -0.0500000 -0.3308650 1.1461950
v -0.0500000 -0.3500000 1.1500000
v -0.0500000 -0.3000000 1.1500000
v -0.0500000 -0.3146450 1.1353550
v -0.0500000 -0.3308650 1.1461950
v -0.0500000 -0.3000000 1.1500000
v -0.0500000 -0.3038050 1.1191350
v -0.0500000 -0.3146450 1.1353550
v -0.0500000 -0.3000000 1.1500000
v -0.0500000 -0.3000000 1.1000000
v -0.0500000 -0.3038050 1.1191350
v -0.0500000 -0.3000000 1.1500000
v -0.0500000 -0.3038050 1.0808650
v -0.0500000 -0.3000000 1.1000000
v -0.0500000 -0.3000000 1.0500000
v -0.0500000 -0.3146450 1.0646450
v -0.0500000 -0.3038050 1.0808650
v -0.0500000 -0.3000000 1.0500000
v -0.0500000 -0.3308650 1.0538050
v -0.0500000 -0.3146450 1.0646450
v -0.0500000 -0.3000000 1.0500000
v -0.0500000 -0.3500000 1.0500000
v -0.0500000 -0.3308650 1.0538050
v -0.0500000 -0.3000000 1.0500000
v -0.0500000 -0.3691350 1.0538050
v -0.0500000 -0.3500000 1.0500000
v -0.0500000 -0.4000000 1.0500000
v -0.0500000 -0.3853550 1.0646450
v -0.0500000 -0.3691350 1.0538050
v -0.0500000 -0.4000000 1.0500000
v -0.0500000 -0.3961950 1.0808650
v -0.0500000 -0.3853550 1.0646450
v -0.0500000 -0.4000000 1.0500000
v -0.0500000 -0.4000000 1.1000000
v -0.0500000 -0.3961950 1.0808650
v -0.0500000 -0.4000000 1.0500000
v -0.0500000 -0.5961950 1.1191350
v -0.0500000 -0.6000000 1.1000000
v -0.0500000 -0.6000000 1.1500000
v -0.0500000 -0.5853550 1.1353550
v -0.0500000 -0.5961950 1.1191350
v -0.0500000 -0.6000000 1.1500000
v -0.0500000 -0.5691350 1.1461950
v -0.0500000 -0.5853550 1.1353550
v -0.0500000 -0.6000000 1.1500000
v -0.0500000 -0.5500000 1.1500000
v -0.0500000 -0.5691350 1.1461950
v -0.0500000 -0.6000000 1.1500000
v -0.0500000 -0.5308650 1.1461950
v -0.0500000 -0.5500000 1.1500000
v -0.0500000 -0.5000000 1.1500000
v -0.0500000 -0.5146450 1.1353550
v -0.0500000 -0.5308650 1.1461950
v -0.0500000 -0.5000000 1.1500000
v -0.0500000 -0.5038050 1.1191350
v -0.0500000 -0.5146450 1.1353550
v -0.0500000 -0.5000000 1.1500000
v -0.0500000 -0.5000000 1.1000000
v -0.0500000 -0.5038050 1.1191350
v -0.0500000 -0.5000000 1.1500000
v -0.0500000 -0.5038050 1.0808650
v -0.0500000 -0.5000000 1.1000000
v -0.0500000 -0.5000000 1.0500000
v -0.0500000 -0.5146450 1.0646450
v -0.0500000 -0.5038050 1.0808650
v -0.0500000 -0.5000000 1.0500000
v -0.0500000 -0.5308650 1.0538050
v -0.0500000 -0.5146450 1.0646450
v -0.0500000 -0.5000000 1.0500000
v -0.0500000 -0.5500000 1.0500000
v -0.0500000 -0.5308650 1.0538050
v -0.0500000 -0.5000000 1.0500000
v -0.0500000 -0.5691350 1.0538050
v -0.0500000 -0.5500000 1.0500000
v -0.0500000 -0.6000000 1.0500000
v -0.0500000 -0.5853550 1.0646450
v -0.0500000 -0.5691350 1.0538050
v -0.0500000 -0.6000000 1.0500000
v -0.0500000 -0.5961950 1.0808650
v -0.0500000 -0.5853550 1.0646450
v -0.0500000 -0.6000000 1.0500000
v -0.0500000 -0.6000000 1.1000000
v -0.0500000 -0.5961950 1.0808650
v -0.0500000 -0.6000000 1.0500000
v -0.0500000 -0.3500000 1.1500000
v 0.1000000 -0.3500000 1.1500000
v 0.1000000 -0.3691350 1.1461950
v -0.0500000 -0.3691350 1.1461950
v -0.0500000 -0.3691350 1.1461950
v 0.1000000 -0.3691350 1.1461950
v 0.1000000 -0.3853550 1.1353550
v -0.0500000 -0.3853550 1.1353550
v -0.0500000 -0.3853550 1.1353550
v 0.1000000 -0.3853550 1.1353550
v 0.1000000 -0.3961950 1.1191350
v -0.0500000 -0.3961950 1.1191350
v -0.0500000 -0.3961950 1.1191350
v 0.1000000 -0.3961950 1.1191350
v 0.1000000 -0.4000000 1.1000000
v -0.0500000 -0.4000000 1.1000000
v -0.0500000 -0.4000000 1.1000000
v 0.1000000 -0.4000000 1.1000000
v 0.1000000 -0.3961950 1.0808650
v -0.0500000 -0.3961950 1.0808650
v -0.0500000 -0.3961950 1.0808650
v 0.1000000 -0.3961950 1.0808650
v 0.1000000 -0.3853550 1.0646450
v -0.0500000 -0.3853550 1.0646450
v -0.0500000 -0.3853550 1.0646450
v 0.1000000 -0.3853550 1.0646450
v 0.1000000 -0.3691350 1.0538050
v -0.0500000 -0.3691350 1.0538050
v -0.0500000 -0.3691350 1.0538050
v 0.1000000 -0.3691350 1.0538050
v 0.1000000 -0.3500000 1.0500000
v -0.0500000 -0.3500000 1.0500000
v -0.0500000 -0.5308650 1.1461950
v 0.1000000 -0.5308650 1.1461950
v 0.1000000 -0.5500000 1.1500000
v -0.0500000 -0.5500000 1.1500000
v -0.0500000 -0.5146450 1.1353550
v 0.1000000 -0.5146450 1.1353550
v 0.1000000 -0.5308650 1.1461950
v -0.0500000 -0.5308650 1.1461950
v -0.0500000 -0.5038050 1.1191350
v 0.1000000 -0.5038050 1.1191350
v 0.1000000 -0.5146450 1.1353550
v -0.0500000 -0.5146450 1.1353550
v -0.0500000 -0.5000000 1.1000000
v 0.1000000 -0.5000000 1.1000000
v 0.1000000 -0.5038050 1.1191350
v -0.0500000 -0.5038050 1.1191350
v -0.0500000 -0.5038050 1.0808650
v 0.1000000 -0.5038050 1.0808650
v 0.1000000 -0.5000000 1.1000000
v -0.0500000 -0.5000000 1.1000000
v -0.0500000 -0.5146450 1.0646450
v 0.1000000 -0.5146450 1.0646450
v 0.1000000 -0.5038050 1.0808650
v -0.0500000 -0.5038050 1.0808650
v -0.0500000 -0.5308650 1.0538050
v 0.1000000 -0.5308650 1.0538050
v 0.1000000 -0.5146450 1.0646450
v -0.0500000 -0.5146450 1.0646450
v -0.0500000 -0.5500000 1.0500000
v 0.1000000 -0.5500000 1.0500000
v 0.1000000 -0.5308650 1.0538050
v -0.0500000 -0.5308650 1.0538050
v -0.0500000 -0.3308650 1.1461950
v 0.0500000 -0.3308650 1.1461950
v 0.0500000 -0.3500000 1.1500000
v -0.0500000 -0.3500000 1.1500000
v -0.0500000 -0.3146450 1.1353550
v 0.0500000 -0.3146450 1.1353550
v 0.0500000 -0.3308650 1.1461950
v -0.0500000 -0.3308650 1.1461950
v -0.0500000 -0.3038050 1.1191350
v 0.0500000 -0.3038050 1.1191350
v 0.0500000 -0.3146450 1.1353550
v -0.0500000 -0.3146450 1.1353550
v -0.0500000 -0.3000000 1.1000000
v 0.0500000 -0.3000000 1.1000000
v 0.0500000 -0.3038050 1.1191350
v -0.0500000 -0.3038050 1.1191350
v -0.0500000 -0.3038050 1.0808650
v 0.0500000 -0.3038050 1.0808650
v 0.0500000 -0.3000000 1.1000000
v -0.0500000 -0.3000000 1.1000000
v -0.0500000 -0.3146450 1.0646450
v 0.0500000 -0.3146450 1.0646450
v 0.0500000 -0.3038050 1.0808650
v -0.0500000 -0.3038050 1.0808650
v -0.0500000 -0.3308650 1.0538050
v 0.0500000 -0.3308650 1.0538050
v 0.0500000 -0.3146450 1.0646450
v -0.0500000 -0.3146450 1.0646450
v -0.0500000 -0.3500000 1.0500000
v 0.0500000 -0.3500000 1.0500000
v 0.0500000 -0.3308650 1.0538050
v -0.0500000 -0.3308650 1.0538050
v -0.0500000 -0.5500000 1.1500000
v 0.0500000 -0.5500000 1.1500000
v 0.0500000 -0.5691350 1.1461950
v -0.0500000 -0.5691350 1.1461950
v -0.0500000 -0.5691350 1.1461950
v 0.0500000 -0.5691350 1.1461950
v 0.0500000 -0.5853550 1.1353550
v -0.0500000 -0.5853550 1.1353550
v -0.0500000 -0.5853550 1.1353550
v 0.0500000 -0.5853550 1.1353550
v 0.0500000 -0.5961950 1.1191350
v -0.0500000 -0.5961950 1.1191350
v -0.0500000 -0.5961950 1.1191350
v 0.0500000 -0.5961950 1.1191350
v 0.0500000 -0.6000000 1.1000000
v -0.0500000 -0.6000000 1.1000000
v -0.0500000 -0.6000000 1.1000000
v 0.0500000 -0.6000000 1.1000000
v 0.0500000 -0.5961950 1.0808650
v -0.0500000 -0.5961950 1.0808650
v -0.0500000 -0.5961950 1.0808650
v 0.0500000 -0.5961950 1.0808650
v 0.0500000 -0.5853550 1.0646450
v -0.0500000 -0.5853550 1.0646450
v -0.0500000 -0.5853550 1.0646450
v 0.0500000 -0.5853550 1.0646450
v 0.0500000 -0.5691350 1.0538050
v -0.0500000 -0.5691350 1.0538050
v -0.0500000 -0.5691350 1.0538050
v 0.0500000 -0.5691350 1.0538050
v 0.0500000 -0.5500000 1.0500000
v -0.0500000 -0.5500000 1.0500000
v -0.0500000 -0.4000000 1.0500000
v -0.0500000 -0.5000000 1.0500000
v -0.0500000 -0.5000000 1.1500000
v -0.0500000 -0.4000000 1.1500000
v 0.0500000 -0.9000000 0.0000000
v 0.0500000 -0.6000000 1.0500000
v 0.0500000 -0.6000000 1.1500000
v 0.0500000 -0.9000000 1.2500000
v 0.0500000 -0.0000000 0.0000000
v 0.0500000 -0.3000000 1.0500000
v 0.0500000 -0.6000000 1.0500000
v 0.0500000 -0.9000000 0.0000000
v 0.0500000 -0.0000000 1.2500000
v 0.0500000 -0.3000000 1.1500000
v 0.0500000 -0.3000000 1.0500000
v 0.0500000 -0.0000000 0.0000000
v 0.0500000 -0.9000000 1.2500000
v 0.0500000 -0.6000000 1.1500000
v 0.0500000 -0.3000000 1.1500000
v 0.0500000 -0.0000000 1.2500000
v -0.0500000 -0.9000000 1.2500000
v -0.0500000 -0.6000000 1.1500000
v -0.0500000 -0.6000000 1.0500000
v -0.0500000 -0.9000000 0.0000000
v -0.0500000 -0.9000000 0.0000000
v -0.0500000 -0.6000000 1.0500000
v -0.0500000 -0.3000000 1.0500000
v -0.0500000 -0.0000000 0.0000000
v -0.0500000 -0.0000000 0.0000000
v -0.0500000 -0.3000000 1.0500000
v -0.0500000 -0.3000000 1.1500000
v -0.0500000 -0.0000000 1.2500000
v -0.0500000 -0.0000000 1.2500000
v -0.0500000 -0.3000000 1.1500000
v -0.0500000 -0.6000000 1.1500000
v -0.0500000 -0.9000000 1.2500000
v 0.0461950 -0.9000000 0.0191350
v 0.0500000 -0.9000000 0.0000000
v 0.0500000 -0.9000000 0.0500000
v 0.0353550 -0.9000000 0.0353550
v 0.0461950 -0.9000000 0.0191350
v 0.0500000 -0.9000000 0.0500000
v 0.0191350 -0.9000000 0.0461950
v 0.0353550 -0.9000000 0.0353550
v 0.0500000 -0.9000000 0.0500000
v 0.0000000 -0.9000000 0.0500000
v 0.0191350 -0.9000000 0.0461950
v 0.0500000 -0.9000000 0.0500000
v -0.0191350 -0.9000000 0.0461950
v 0.0000000 -0.9000000 0.0500000
v -0.0500000 -0.9000000 0.0500000
v -0.0353550 -0.9000000 0.0353550
v -0.0191350 -0.9000000 0.0461950
v -0.0500000 -0.9000000 0.0500000
v -0.0461950 -0.9000000 0.0191350
v -0.0353550 -0.9000000 0.0353550
v -0.0500000 -0.9000000 0.0500000
v -0.0500000 -0.9000000 0.0000000
v -0.0461950 -0.9000000 0.0191350
v -0.0500000 -0.9000000 0.0500000
v -0.0500000 -0.0000000 0.0000000
v -0.0461950 0.0095675 0.0000000
v -0.0461950 -0.0000000 -0.0191350
v -0.0461950 0.0095675 0.0000000
v -0.0391800 0.0109825 -0.0219650
v -0.0461950 -0.0000000 -0.0191350
v -0.0461950 -0.0000000 -0.0191350
v -0.0391800 0.0109825 -0.0219650
v -0.0353550 -0.0000000 -0.0353550
v -0.0391800 0.0109825 -0.0219650
v -0.0219650 0.0109825 -0.0391800
v -0.0353550 -0.0000000 -0.0353550
v -0.0353550 -0.0000000 -0.0353550
v -0.0219650 0.0109825 -0.0391800
v -0.0191350 -0.0000000 -0.0461950
v -0.0219650 0.0109825 -0.0391800
v 0.0000000 0.0095675 -0.0461950
v -0.0191350 -0.0000000 -0.0461950
v -0.0191350 -0.0000000 -0.0461950
v 0.0000000 0.0095675 -0.0461950
v 0.0000000 -0.0000000 -0.0500000
v -0.0461950 0.0095675 0.0000000
v -0.0353550 0.0176775 0.0000000
v -0.0391800 0.0109825 -0.0219650
v -0.0353550 0.0176775 0.0000000
v -0.0219650 0.0195900 -0.0219650
v -0.0391800 0.0109825 -0.0219650
v -0.0391800 0.0109825 -0.0219650
v -0.0219650 0.0195900 -0.0219650
v -0.0219650 0.0109825 -0.0391800
v -0.0219650 0.0195900 -0.0219650
v 0.0000000 0.0176775 -0.0353550
v -0.0219650 0.0109825 -0.0391800
v -0.0219650 0.0109825 -0.0391800
v 0.0000000 0.0176775 -0.0353550
v 0.0000000 0.0095675 -0.0461950
v -0.0353550 0.0176775 0.0000000
v -0.0191350 0.0230975 0.0000000
v -0.0219650 0.0195900 -0.0219650
v -0.0191350 0.0230975 0.0000000
v 0.0000000 0.0230975 -0.0191350
v -0.0219650 0.0195900 -0.0219650
v -0.0219650 0.0195900 -0.0219650
v 0.0000000 0.0230975 -0.0191350
v 0.0000000 0.0176775 -0.0353550
v -0.0191350 0.0230975 0.0000000
v 0.0000000 0.0250000 0.0000000
v 0.0000000 0.0230975 -0.0191350
v -0.0461950 -0.0000000 0.0191350
v -0.0461950 0.0095675 0.0000000
v -0.0500000 -0.0000000 0.0000000
v -0.0461950 -0.0000000 0.0191350
v -0.0391800 0.0109825 0.0219650
v -0.0461950 0.0095675 0.0000000
v -0.0353550 -0.0000000 0.0353550
v -0.0391800 0.0109825 0.0219650
v -0.0461950 -0.0000000 0.0191350
v -0.0353550 -0.0000000 0.0353550
v -0.0219650 0.0109825 0.0391800
v -0.0391800 0.0109825 0.0219650
v -0.0191350 -0.0000000 0.0461950
v -0.0219650 0.0109825 0.0391800
v -0.0353550 -0.0000000 0.0353550
v -0.0191350 -0.0000000 0.0461950
v 0.0000000 0.0095675 0.0461950
v -0.0219650 0.0109825 0.0391800
v 0.0000000 -0.0000000 0.0500000
v 0.0000000 0.0095675 0.0461950
v -0.0191350 -0.0000000 0.0461950
v -0.0391800 0.0109825 0.0219650
v -0.0353550 0.0176775 0.0000000
v -0.0461950 0.0095675 0.0000000
v -0.0391800 0.0109825 0.0219650
v -0.0219650 0.0195900 0.0219650
v -0.0353550 0.0176775 0.0000000
v -0.0219650 0.0109825 0.0391800
v -0.0219650 0.0195900 0.0219650
v -0.0391800 0.0109825 0.0219650
v -0.0219650 0.0109825 0.0391800
v 0.0000000 0.0176775 0.0353550
v -0.0219650 0.0195900 0.0219650
v 0.0000000 0.0095675 0.0461950
v 0.0000000 0.0176775 0.0353550
v -0.0219650 0.0109825 0.0391800
v -0.0219650 0.0195900 0.0219650
v -0.0191350 0.0230975 0.0000000
v -0.0353550 0.0176775 0.0000000
v -0.0219650 0.0195900 0.0219650
v 0.0000000 0.0230975 0.0191350
v -0.0191350 0.0230975 0.0000000
v 0.0000000 0.0176775 0.0353550
v 0.0000000 0.0230975 0.0191350
v -0.0219650 0.0195900 0.0219650
v 0.0000000 0.0230975 0.0191350
v 0.0000000 0.0250000 0.0000000
v -0.0191350 0.0230975 0.0000000
v 0.0461950 -0.0000000 -0.0191350
v 0.0461950 0.0095675 0.0000000
v 0.0500000 -0.0000000 0.0000000
v 0.0461950 -0.0000000 -0.0191350
v 0.0391800 0.0109825 -0.0219650
v 0.0461950 0.0095675 0.0000000
v 0.0353550 -0.0000000 -0.0353550
v 0.0391800 0.0109825 -0.0219650
v 0.0461950 -0.0000000 -0.0191350
v 0.0353550 -0.0000000 -0.0353550
v 0.0219650 0.0109825 -0.0391800
v 0.0391800 0.0109825 -0.0219650
v 0.0191350 -0.0000000 -0.0461950
v 0.0219650 0.0109825 -0.0391800
v 0.0353550 -0.0000000 -0.0353550
v 0.0191350 -0.0000000 -0.0461950
v 0.0000000 0.0095675 -0.0461950
v 0.0219650 0.0109825 -0.0391800
v 0.0000000 -0.0000000 -0.0500000
v 0.0000000 0.0095675 -0.0461950
v 0.0191350 -0.0000000 -0.0461950
v 0.0391800 0.0109825 -0.0219650
v 0.0353550 0.0176775 0.0000000
v 0.0461950 0.0095675 0.0000000
v 0.0391800 0.0109825 -0.0219650
v 0.0219650 0.0195900 -0.0219650
v 0.0353550 0.0176775 0.0000000
v 0.0219650 0.0109825 -0.0391800
v 0.0219650 0.0195900 -0.0219650
v 0.0391800 0.0109825 -0.0219650
v 0.0219650 0.0109825 -0.0391800
v 0.0000000 0.0176775 -0.0353550
v 0.0219650 0.0195900 -0.0219650
v 0.0000000 0.0095675 -0.0461950
v 0.0000000 0.0176775 -0.0353550
v 0.0219650 0.0109825 -0.0391800
v 0.0219650 0.0195900 -0.0219650
v 0.0191350 0.0230975 0.0000000
v 0.0353550 0.0176775 0.0000000
v 0.0219650 0.0195900 -0.0219650
v 0.0000000 0.0230975 -0.0191350
v 0.0191350 0.0230975 0.0000000
v 0.0000000 0.0176775 -0.0353550
v 0.0000000 0.0230975 -0.0191350
v 0.0219650 0.0195900 -0.0219650
v 0.0000000 0.0230975 -0.0191350
v 0.0000000 0.0250000 0.0000000
v 0.0191350 0.0230975 0.0000000
v 0.0500000 -0.0000000 0.0000000
v 0.0461950 0.0095675 0.0000000
v 0.0461950 -0.0000000 0.0191350
v 0.0461950 0.0095675 0.0000000
v 0.0391800 0.0109825 0.0219650
v 0.0461950 -0.0000000 0.0191350
v 0.0461950 -0.0000000 0.0191350
v 0.0391800 0.0109825 0.0219650
v 0.0353550 -0.0000000 0.0353550
v 0.0391800 0.0109825 0.0219650
v 0.0219650 0.0109825 0.0391800
v 0.0353550 -0.0000000 0.0353550
v 0.0353550 -0.0000000 0.0353550
v 0.0219650 0.0109825 0.0391800
v 0.0191350 -0.0000000 0.0461950
v 0.0219650 0.0109825 0.0391800
v 0.0000000 0.0095675 0.0461950
v 0.0191350 -0.0000000 0.0461950
v 0.0191350 -0.0000000 0.0461950
v 0.0000000 0.0095675 0.0461950
v 0.0000000 -0.0000000 0.0500000
v 0.0461950 0.0095675 0.0000000
v 0.0353550 0.0176775 0.0000000
v 0.0391800 0.0109825 0.0219650
v 0.0353550 0.0176775 0.0000000
v 0.0219650 0.0195900 0.0219650
v 0.0391800 0.0109825 0.0219650
v 0.0391800 0.0109825 0.0219650
v 0.0219650 0.0195900 0.0219650
v 0.0219650 0.0109825 0.0391800
v 0.0219650 0.0195900 0.0219650
v 0.0000000 0.0176775 0.0353550
v 0.0219650 0.0109825 0.0391800
v 0.0219650 0.0109825 0.0391800
v 0.0000000 0.0176775 0.0353550
v 0.0000000 0.0095675 0.0461950
v 0.0353550 0.0176775 0.0000000
v 0.0191350 0.0230975 0.0000000
v 0.0219650 0.0195900 0.0219650
v 0.0191350 0.0230975 0.0000000
v 0.0000000 0.0230975 0.0191350
v 0.0219650 0.0195900 0.0219650
v 0.0219650 0.0195900 0.0219650
v 0.0000000 0.0230975 0.0191350
v 0.0000000 0.0176775 0.0353550
v 0.0191350 0.0230975 0.0000000
v 0.0000000 0.0250000 0.0000000
v 0.0000000 0.0230975 0.0191350
v -0.0500000 -0.9000000 0.0000000
v -0.0461950 -0.9095675 0.0000000
v -0.0461950 -0.9000000 0.0191350
v -0.0461950 -0.9095675 0.0000000
v -0.0391800 -0.9109825 0.0219650
v -0.0461950 -0.9000000 0.0191350
v -0.0461950 -0.9000000 0.0191350
v -0.0391800 -0.9109825 0.0219650
v -0.0353550 -0.9000000 0.0353550
v -0.0391800 -0.9109825 0.0219650
v -0.0219650 -0.9109825 0.0391800
v -0.0353550 -0.9000000 0.0353550
v -0.0353550 -0.9000000 0.0353550
v -0.0219650 -0.9109825 0.0391800
v -0.0191350 -0.9000000 0.0461950
v -0.0219650 -0.9109825 0.0391800
v 0.0000000 -0.9095675 0.0461950
v -0.0191350 -0.9000000 0.0461950
v -0.0191350 -0.9000000 0.0461950
v 0.0000000 -0.9095675 0.0461950
v 0.0000000 -0.9000000 0.0500000
v -0.0461950 -0.9095675 0.0000000
v -0.0353550 -0.9176775 0.0000000
v -0.0391800 -0.9109825 0.0219650
v -0.0353550 -0.9176775 0.0000000
v -0.0219650 -0.9195900 0.0219650
v -0.0391800 -0.9109825 0.0219650
v -0.0391800 -0.9109825 0.0219650
v -0.0219650 -0.9195900 0.0219650
v -0.0219650 -0.9109825 0.0391800
v -0.0219650 -0.9195900 0.0219650
v 0.0000000 -0.9176775 0.0353550
v -0.0219650 -0.9109825 0.0391800
v -0.0219650 -0.9109825 0.0391800
v 0.0000000 -0.9176775 0.0353550
v 0.0000000 -0.9095675 0.0461950
v -0.0353550 -0.9176775 0.0000000
v -0.0191350 -0.9230975 0.0000000
v -0.0219650 -0.9195900 0.0219650
v -0.0191350 -0.9230975 0.0000000
v 0.0000000 -0.9230975 0.0191350
v -0.0219650 -0.9195900 0.0219650
v -0.0219650 -0.9195900 0.0219650
v 0.0000000 -0.9230975 0.0191350
v 0.0000000 -0.9176775 0.0353550
v -0.0191350 -0.9230975 0.0000000
v 0.0000000 -0.9250000 0.0000000
v 0.0000000 -0.9230975 0.0191350
v -0.0461950 -0.9000000 -0.0191350
v -0.0461950 -0.9095675 0.0000000
v -0.0500000 -0.9000000 0.0000000
v -0.0461950 -0.9000000 -0.0191350
v -0.0391800 -0.9109825 -0.0219650
v -0.0461950 -0.9095675 0.0000000
v -0.0353550 -0.9000000 -0.0353550
v -0.0391800 -0.9109825 -0.0219650
v -0.0461950 -0.9000000 -0.0191350
v -0.0353550 -0.9000000 -0.0353550
v -0.0219650 -0.9109825 -0.0391800
v -0.0391800 -0.9109825 -0.0219650
v -0.0191350 -0.9000000 -0.0461950
v -0.0219650 -0.9109825 -0.0391800
v -0.0353550 -0.9000000 -0.0353550
v -0.0191350 -0.9000000 -0.0461950
v 0.0000000 -0.9095675 -0.0461950
v -0.0219650 -0.9109825 -0.0391800
v 0.0000000 -0.9000000 -0.0500000
v 0.0000000 -0.9095675 -0.0461950
v -0.0191350 -0.9000000 -0.0461950
v -0.0391800 -0.9109825 -0.0219650
v -0.0353550 -0.9176775 0.0000000
v -0.0461950 -0.9095675 0.0000000
v -0.0391800 -0.9109825 -0.0219650
v -0.0219650 -0.9195900 -0.0219650
v -0.0353550 -0.9176775 0.0000000
v -0.0219650 -0.9109825 -0.0391800
v -0.0219650 -0.9195900 -0.0219650
v -0.0391800 -0.9109825 -0.0219650
v -0.0219650 -0.9109825 -0.0391800
v 0.0000000 -0.9176775 -0.0353550
v -0.0219650 -0.9195900 -0.0219650
v 0.0000000 -0.9095675 -0.0461950
v 0.0000000 -0.9176775 -0.0353550
v -0.0219650 -0.9109825 -0.0391800
v -0.0219650 -0.9195900 -0.0219650
v -0.0191350 -0.9230975 0.0000000
v -0.0353550 -0.9176775 0.0000000
v -0.0219650 -0.9195900 -0.0219650
v 0.0000000 -0.9230975 -0.0191350
v -0.0191350 -0.9230975 0.0000000
v 0.0000000 -0.9176775 -0.0353550
v 0.0000000 -0.9230975 -0.0191350
v -0.0219650 -0.9195900 -0.0219650
v 0.0000000 -0.9230975 -0.0191350
v 0.0000000 -0.9250000 0.0000000
v -0.0191350 -0.9230975 0.0000000
v 0.0461950 -0.9000000 0.0191350
v 0.0461950 -0.9095675 0.0000000
v 0.0500000 -0.9000000 0.0000000
v 0.0461950 -0.9000000 0.0191350
v 0.0391800 -0.9109825 0.0219650
v 0.0461950 -0.9095675 0.0000000
v 0.0353550 -0.9000000 0.0353550
v 0.0391800 -0.9109825 0.0219650
v 0.0461950 -0.9000000 0.0191350
v 0.0353550 -0.9000000 0.0353550
v 0.0219650 -0.9109825 0.0391800
v 0.0391800 -0.9109825 0.0219650
v 0.0191350 -0.9000000 0.0461950
v 0.0219650 -0.9109825 0.0391800
v 0.0353550 -0.9000000 0.0353550
v 0.0191350 -0.9000000 0.0461950
v 0.0000000 -0.9095675 0.0461950
v 0.0219650 -0.9109825 0.0391800
v 0.0000000 -0.9000000 0.0500000
v 0.0000000 -0.9095675 0.0461950
v 0.0191350 -0.9000000 0.0461950
v 0.0391800 -0.9109825 0.0219650
v 0.0353550 -0.9176775 0.0000000
v 0.0461950 -0.9095675 0.0000000
v 0.0391800 -0.9109825 0.0219650
v 0.0219650 -0.9195900 0.0219650
v 0.0353550 -0.9176775 0.0000000
v 0.0219650 -0.9109825 0.0391800
v 0.0219650 -0.9195900 0.0219650
v 0.0391800 -0.9109825 0.0219650
v 0.0219650 -0.9109825 0.0391800
v 0.0000000 -0.9176775 0.0353550
v 0.0219650 -0.9195900 0.0219650
v 0.0000000 -0.9095675 0.0461950
v 0.0000000 -0.9176775 0.0353550
v 0.0219650 -0.9109825 0.0391800
v 0.0219650 -0.9195900 0.0219650
v 0.0191350 -0.9230975 0.0000000
v 0.0353550 -0.9176775 0.0000000
v 0.0219650 -0.9195900 0.0219650
v 0.0000000 -0.9230975 0.0191350
v 0.0191350 -0.9230975 0.0000000
v 0.0000000 -0.9176775 0.0353550
v 0.0000000 -0.9230975 0.0191350
v 0.0219650 -0.9195900 0.0219650
v 0.0000000 -0.9230975 0.0191350
v 0.0000000 -0.9250000 0.0000000
v 0.0191350 -0.9230975 0.0000000
v 0.0500000 -0.9000000 0.0000000
v 0.0461950 -0.9095675 0.0000000
v 0.0461950 -0.9000000 -0.0191350
v 0.0461950 -0.9095675 0.0000000
v 0.0391800 -0.9109825 -0.0219650
v 0.0461950 -0.9000000 -0.0191350
v 0.0461950 -0.9000000 -0.0191350
v 0.0391800 -0.9109825 -0.0219650
v 0.0353550 -0.9000000 -0.0353550
v 0.0391800 -0.9109825 -0.0219650
v 0.0219650 -0.9109825 -0.0391800
v 0.0353550 -0.9000000 -0.0353550
v 0.0353550 -0.9000000 -0.0353550
v 0.0219650 -0.9109825 -0.0391800
v 0.0191350 -0.9000000 -0.0461950
v 0.0219650 -0.9109825 -0.0391800
v 0.0000000 -0.9095675 -0.0461950
v 0.0191350 -0.9000000 -0.0461950
v 0.0191350 -0.9000000 -0.0461950
v 0.0000000 -0.9095675 -0.0461950
v 0.0000000 -0.9000000 -0.0500000
v 0.0461950 -0.9095675 0.0000000
v 0.0353550 -0.9176775 0.0000000
v 0.0391800 -0.9109825 -0.0219650
v 0.0353550 -0.9176775 0.0000000
v 0.0219650 -0.9195900 -0.0219650
v 0.0391800 -0.9109825 -0.0219650
v 0.0391800 -0.9109825 -0.0219650
v 0.0219650 -0.9195900 -0.0219650
v 0.0219650 -0.9109825 -0.0391800
v 0.0219650 -0.9195900 -0.0219650
v 0.0000000 -0.9176775 -0.0353550
v 0.0219650 -0.9109825 -0.0391800
v 0.0219650 -0.9109825 -0.0391800
v 0.0000000 -0.9176775 -0.0353550
v 0.0000000 -0.9095675 -0.0461950
v 0.0353550 -0.9176775 0.0000000
v 0.0191350 -0.9230975 0.0000000
v 0.0219650 -0.9195900 -0.0219650
v 0.0191350 -0.9230975 0.0000000
v 0.0000000 -0.9230975 -0.0191350
v 0.0219650 -0.9195900 -0.0219650
v 0.0219650 -0.9195900 -0.0219650
v 0.0000000 -0.9230975 -0.0191350
v 0.0000000 -0.9176775 -0.0353550
v 0.0191350 -0.9230975 0.0000000
v 0.0000000 -0.9250000 0.0000000
v 0.0000000 -0.9230975 -0.0191350
v -0.0461950 -0.0000000 0.0191350
v -0.0500000 -0.0000000 0.0000000
v -0.0500000 -0.0000000 0.0500000
v -0.0353550 -0.0000000 0.0353550
v -0.0461950 -0.0000000 0.0191350
v -0.0500000 -0.0000000 0.0500000
v -0.0191350 -0.0000000 0.0461950
v -0.0353550 -0.0000000 0.0353550
v -0.0500000 -0.0000000 0.0500000
v 0.0000000 -0.0000000 0.0500000
v -0.0191350 -0.0000000 0.0461950
v -0.0500000 -0.0000000 0.0500000
v 0.0191350 -0.0000000 0.0461950
v 0.0000000 -0.0000000 0.0500000
v 0.0500000 -0.0000000 0.0500000
v 0.0353550 -0.0000000 0.0353550
v 0.0191350 -0.0000000 0.0461950
v 0.0500000 -0.0000000 0.0500000
v 0.0461950 -0.0000000 0.0191350
v 0.0353550 -0.0000000 0.0353550
v 0.0500000 -0.0000000 0.0500000
v 0.0500000 -0.0000000 0.0000000
v 0.0461950 -0.0000000 0.0191350
v 0.0500000 -0.0000000 0.0500000
v 0.0461950 -0.9000000 -0.0191350
v 0.0461950 -0.0000000 -0.0191350
v 0.0500000 -0.0000000 0.0000000
v 0.0500000 -0.9000000 0.0000000
v 0.0353550 -0.9000000 -0.0353550
v 0.0353550 -0.0000000 -0.0353550
v 0.0461950 -0.0000000 -0.0191350
v 0.0461950 -0.9000000 -0.0191350
v 0.0191350 -0.9000000 -0.0461950
v 0.0191350 -0.0000000 -0.0461950
v 0.0353550 -0.0000000 -0.0353550
v 0.0353550 -0.9000000 -0.0353550
v 0.0000000 -0.9000000 -0.0500000
v 0.0000000 -0.0000000 -0.0500000
v 0.0191350 -0.0000000 -0.0461950
v 0.0191350 -0.9000000 -0.0461950
v -0.0191350 -0.9000000 -0.0461950
v -0.0191350 -0.0000000 -0.0461950
v 0.0000000 -0.0000000 -0.0500000
v 0.0000000 -0.9000000 -0.0500000
v -0.0353550 -0.9000000 -0.0353550
v -0.0353550 -0.0000000 -0.0353550
v -0.0191350 -0.0000000 -0.0461950
v -0.0191350 -0.9000000 -0.0461950
v -0.0461950 -0.9000000 -0.0191350
v -0.0461950 -0.0000000 -0.0191350
v -0.0353550 -0.0000000 -0.0353550
v -0.0353550 -0.9000000 -0.0353550
v -0.0500000 -0.9000000 0.0000000
v -0.0500000 -0.0000000 0.0000000
v -0.0461950 -0.0000000 -0.0191350
v -0.0461950 -0.9000000 -0.0191350
v 0.1500000 -0.3500000 1.1500000
v 0.1500000 -0.5500000 1.1500000
v 0.1500000 -0.5500000 1.0500000
v 0.1500000 -0.3500000 1.0500000
v 0.1500000 -0.3500000 1.1500000
v 0.0500000 -0.3500000 1.1500000
v 0.0500000 -0.5500000 1.1500000
v 0.1500000 -0.5500000 1.1500000
v 0.1500000 -0.5500000 1.0500000
v 0.0500000 -0.5500000 1.0500000
v 0.0500000 -0.3500000 1.0500000
v 0.1500000 -0.3500000 1.0500000
v 0.1500000 -0.3308650 1.1461950
v 0.1500000 -0.3500000 1.1500000
v 0.1500000 -0.3500000 1.1000000
v 0.1500000 -0.3146450 1.1353550
v 0.1500000 -0.3308650 1.1461950
v 0.1500000 -0.3500000 1.1000000
v 0.1500000 -0.3038050 1.1191350
v 0.1500000 -0.3146450 1.1353550
v 0.1500000 -0.3500000 1.1000000
v 0.1500000 -0.3000000 1.1000000
v 0.1500000 -0.3038050 1.1191350
v 0.1500000 -0.3500000 1.1000000
v 0.1500000 -0.3038050 1.0808650
v 0.1500000 -0.3000000 1.1000000
v 0.1500000 -0.3500000 1.1000000
v 0.1500000 -0.3146450 1.0646450
v 0.1500000 -0.3038050 1.0808650
v 0.1500000 -0.3500000 1.1000000
v 0.1500000 -0.3308650 1.0538050
v 0.1500000 -0.3146450 1.0646450
v 0.1500000 -0.3500000 1.1000000
v 0.1500000 -0.3500000 1.0500000
v 0.1500000 -0.3308650 1.0538050
v 0.1500000 -0.3500000 1.1000000
v 0.1000000 -0.3500000 1.1500000
v 0.1500000 -0.3500000 1.1500000
v 0.1500000 -0.3308650 1.1461950
v 0.1000000 -0.3308650 1.1461950
v 0.1000000 -0.3308650 1.1461950
v 0.1500000 -0.3308650 1.1461950
v 0.1500000 -0.3146450 1.1353550
v 0.1000000 -0.3146450 1.1353550
v 0.1000000 -0.3146450 1.1353550
v 0.1500000 -0.3146450 1.1353550
v 0.1500000 -0.3038050 1.1191350
v 0.1000000 -0.3038050 1.1191350
v 0.1000000 -0.3038050 1.1191350
v 0.1500000 -0.3038050 1.1191350
v 0.1500000 -0.3000000 1.1000000
v 0.1000000 -0.3000000 1.1000000
v 0.1000000 -0.3000000 1.1000000
v 0.1500000 -0.3000000 1.1000000
v 0.1500000 -0.3038050 1.0808650
v 0.1000000 -0.3038050 1.0808650
v 0.1000000 -0.3038050 1.0808650
v 0.1500000 -0.3038050 1.0808650
v 0.1500000 -0.3146450 1.0646450
v 0.1000000 -0.3146450 1.0646450
v 0.1000000 -0.3146450 1.0646450
v 0.1500000 -0.3146450 1.0646450
v 0.1500000 -0.3308650 1.0538050
v 0.1000000 -0.3308650 1.0538050
v 0.1000000 -0.3308650 1.0538050
v 0.1500000 -0.3308650 1.0538050
v 0.1500000 -0.3500000 1.0500000
v 0.1000000 -0.3500000 1.0500000
v 0.1500000 -0.5691350 1.0538050
v 0.1500000 -0.5500000 1.0500000
v 0.1500000 -0.5500000 1.1000000
v 0.1500000 -0.5853550 1.0646450
v 0.1500000 -0.5691350 1.0538050
v 0.1500000 -0.5500000 1.1000000
v 0.1500000 -0.5961950 1.0808650
v 0.1500000 -0.5853550 1.0646450
v 0.1500000 -0.5500000 1.1000000
v 0.1500000 -0.6000000 1.1000000
v 0.1500000 -0.5961950 1.0808650
v 0.1500000 -0.5500000 1.1000000
v 0.1500000 -0.5961950 1.1191350
v 0.1500000 -0.6000000 1.1000000
v 0.1500000 -0.5500000 1.1000000
v 0.1500000 -0.5853550 1.1353550
v 0.1500000 -0.5961950 1.1191350
v 0.1500000 -0.5500000 1.1000000
v 0.1500000 -0.5691350 1.1461950
v 0.1500000 -0.5853550 1.1353550
v 0.1500000 -0.5500000 1.1000000
v 0.1500000 -0.5500000 1.1500000
v 0.1500000 -0.5691350 1.1461950
v 0.1500000 -0.5500000 1.1000000
v 0.1000000 -0.5500000 1.0500000
v 0.1500000 -0.5500000 1.0500000
v 0.1500000 -0.5691350 1.0538050
v 0.1000000 -0.5691350 1.0538050
v 0.1000000 -0.5691350 1.0538050
v 0.1500000 -0.5691350 1.0538050
v 0.1500000 -0.5853550 1.0646450
v 0.1000000 -0.5853550 1.0646450
v 0.1000000 -0.5853550 1.0646450
v 0.1500000 -0.5853550 1.0646450
v 0.1500000 -0.5961950 1.0808650
v 0.1000000 -0.5961950 1.0808650
v 0.1000000 -0.5961950 1.0808650
v 0.1500000 -0.5961950 1.0808650
v 0.1500000 -0.6000000 1.1000000
v 0.1000000 -0.6000000 1.1000000
v 0.1000000 -0.6000000 1.1000000
v 0.1500000 -0.6000000 1.1000000
v 0.1500000 -0.5961950 1.1191350
v 0.1000000 -0.5961950 1.1191350
v 0.1000000 -0.5961950 1.1191350
v 0.1500000 -0.5961950 1.1191350
v 0.1500000 -0.5853550 1.1353550
v 0.1000000 -0.5853550 1.1353550
v 0.1000000 -0.5853550 1.1353550
v 0.1500000 -0.5853550 1.1353550
v 0.1500000 -0.5691350 1.1461950
v 0.1000000 -0.5691350 1.1461950
v 0.1000000 -0.5691350 1.1461950
v 0.1500000 -0.5691350 1.1461950
v 0.1500000 -0.5500000 1.1500000
v 0.1000000 -0.5500000 1.1500000
v -0.0500000 -0.0000000 1.2500000
v -0.0500000 -0.9000000 1.2500000
v 0.0500000 -0.9000000 1.2500000
v 0.0500000 -0.0000000 1.2500000
v -0.0500000 -0.9000000 1.2500000
v -0.0500000 -0.9000000 0.0500000
v 0.0500000 -0.9000000 0.0500000
v 0.0500000 -0.9000000 1.2500000
v 0.0500000 -0.0000000 1.2500000
v 0.0500000 -0.0000000 0.0500000
v -0.0500000 -0.0000000 0.0500000
v -0.0500000 -0.0000000 1.2500000
s off
f 1 2 3
f 4 5 6
f 7 8 9
f 10 11 12
f 13 14 15
f 16 17 18
f 19 20 21
f 22 23 24
f 25 26 27
f 28 29 30
f 31 32 33
f 34 35 36
f 37 38 39
f 40 41 42
f 43 44 45
f 46 47 48
f 49 50 51
f 52 53 54
f 55 56 57
f 58 59 60
f 61 62 63
f 64 65 66
f 67 68 69
f 70 71 72
f 73 74 75
f 76 77 78
f 79 80 81
f 82 83 84
f 85 86 87
f 88 89 90
f 91 92 93
f 94 95 96
f 97 98 99
f 100 101 102
f 103 104 105
f 106 107 108
f 109 110 111
f 112 113 114
f 115 116 117
f 118 119 120
f 121 122 123
f 124 125 126
f 127 128 129
f 130 131 132
f 133 134 135
f 136 137 138
f 139 140 141
f 142 143 144
f 145 146 147
f 148 149 150
f 151 152 153
f 154 155 156
f 157 158 159
f 160 161 162
f 163 164 165
f 166 167 168
f 169 170 171
f 172 173 174
f 175 176 177
f 178 179 180
f 181 182 183
f 184 185 186
f 187 188 189
f 190 191 192
f 193 194 195
f 196 197 198
f 199 200 201
f 202 203 204
f 205 206 207
f 208 209 210
f 211 212 213
f 214 215 216
f 217 218 219
f 220 221 222
f 223 224 225
f 226 227 228
f 229 230 231
f 232 233 234
f 235 236 237
f 238 239 240
f 241 242 243
f 241 243 244
f 245 246 247
f 245 247 248
f 249 250 251
f 249 251 252
f 253 254 255
f 253 255 256
f 257 258 259
f 257 259 260
f 261 262 263
f 261 263 264
f 265 266 267
f 265 267 268
f 269 270 271
f 269 271 272
f 273 274 275
f 273 275 276
f 277 278 279
f 277 279 280
f 281 282 283
f 281 283 284
f 285 286 287
f 285 287 288
f 289 290 291
f 289 291 292
f 293 294 295
f 293 295 296
f 297 298 299
f 297 299 300
f 301 302 303
f 301 303 304
f 305 306 307
f 305 307 308
f 309 310 311
f 309 311 312
f 313 314 315
f 313 315 316
f 317 318 319
f 317 319 320
f 321 322 323
f 321 323 324
f 325 326 327
f 325 327 328
f 329 330 331
f 329 331 332
f 333 334 335
f 333 335 336
f 337 338 339
f 337 339 340
f 341 342 343
f 341 343 344
f 345 346 347
f 345 347 348
f 349 350 351
f 349 351 352
f 353 354 355
f 353 355 356
f 357 358 359
f 357 359 360
f 361 362 363
f 361 363 364
f 365 366 367
f 365 367 368
f 369 370 371
f 369 371 372
f 373 374 375
f 373 375 376
f 377 378 379
f 377 379 380
f 381 382 383
f 381 383 384
f 385 386 387
f 385 387 388
f 389 390 391
f 389 391 392
f 393 394 395
f 393 395 396
f 397 398 399
f 397 399 400
f 401 402 403
f 401 403 404
f 405 406 407
f 408 409 410
f 411 412 413
f 414 415 416
f 417 418 419
f 420 421 422
f 423 424 425
f 426 427 428
f 429 430 431
f 432 433 434
f 435 436 437
f 438 439 440
f 441 442 443
f 444 445 446
f 447 448 449
f 450 451 452
f 453 454 455
f 456 457 458
f 459 460 461
f 462 463 464
f 465 466 467
f 468 469 470
f 471 472 473
f 474 475 476
f 477 478 479
f 480 481 482
f 483 484 485
f 486 487 488
f 489 490 491
f 492 493 494
f 495 496 497
f 498 499 500
f 501 502 503
f 504 505 506
f 507 508 509
f 510 511 512
f 513 514 515
f 516 517 518
f 519 520 521
f 522 523 524
f 525 526 527
f 528 529 530
f 531 532 533
f 534 535 536
f 537 538 539
f 540 541 542
f 543 544 545
f 546 547 548
f 549 550 551
f 552 553 554
f 555 556 557
f 558 559 560
f 561 562 563
f 564 565 566
f 567 568 569
f 570 571 572
f 573 574 575
f 576 577 578
f 579 580 581
f 582 583 584
f 585 586 587
f 588 589 590
f 591 592 593
f 594 595 596
f 597 598 599
f 600 601 602
f 603 604 605
f 606 607 608
f 609 610 611
f 612 613 614
f 615 616 617
f 618 619 620
f 621 622 623
f 624 625 626
f 627 628 629
f 630 631 632
f 633 634 635
f 636 637 638
f 639 640 641
f 642 643 644
f 645 646 647
f 648 649 650
f 651 652 653
f 654 655 656
f 657 658 659
f 660 661 662
f 663 664 665
f 666 667 668
f 669 670 671
f 672 673 674
f 675 676 677
f 678 679 680
f 681 682 683
f 684 685 686
f 687 688 689
f 690 691 692
f 693 694 695
f 696 697 698
f 699 700 701
f 702 703 704
f 705 706 707
f 708 709 710
f 711 712 713
f 714 715 716
f 717 718 719
f 720 721 722
f 723 724 725
f 726 727 728
f 729 730 731
f 732 733 734
f 735 736 737
f 738 739 740
f 741 742 743
f 744 745 746
f 747 748 749
f 750 751 752
f 753 754 755
f 756 757 758
f 759 760 761
f 762 763 764
f 765 766 767
f 768 769 770
f 771 772 773
f 774 775 776
f 777 778 779
f 780 781 782
f 783 784 785
f 786 787 788
f 789 790 791
f 792 793 794
f 795 796 797
f 798 799 800
f 801 802 803
f 804 805 806
f 807 808 809
f 810 811 812
f 813 814 815
f 816 817 818
f 819 820 821
f 822 823 824
f 825 826 827
f 828 829 830
f 831 832 833
f 834 835 836
f 837 838 839
f 837 839 840
f 841 842 843
f 841 843 844
f 845 846 847
f 845 847 848
f 849 850 851
f 849 851 852
f 853 854 855
f 853 855 856
f 857 858 859
f 857 859 860
f 861 862 863
f 861 863 864
f 865 866 867
f 865 867 868
f 869 870 871
f 869 871 872
f 873 874 875
f 873 875 876
f 877 878 879
f 877 879 880
f 881 882 883
f 884 885 886
f 887 888 889
f 890 891 892
f 893 894 895
f 896 897 898
f 899 900 901
f 902 903 904
f 905 906 907
f 905 907 908
f 909 910 911
f 909 911 912
f 913 914 915
f 913 915 916
f 917 918 919
f 917 919 920
f 921 922 923
f 921 923 924
f 925 926 927
f 925 927 928
f 929 930 931
f 929 931 932
f 933 934 935
f 933 935 936
f 937 938 939
f 940 941 942
f 943 944 945
f 946 947 948
f 949 950 951
f 952 953 954
f 955 956 957
f 958 959 960
f 961 962 963
f 961 963 964
f 965 966 967
f 965 967 968
f 969 970 971
f 969 971 972
f 973 974 975
f 973 975 976
f 977 978 979
f 977 979 980
f 981 982 983
f 981 983 984
f 985 986 987
f 985 987 988
f 989 990 991
f 989 991 992
f 993 994 995
f 993 995 996
f 997 998 999
f 997 999 1000
f 1001 1002 1003
f 1001 1003 1004
