# Baked from official LDraw part 4534.dat
o ldraw_4534
v 0.4000000 -2.4000000 0.0000000
v 0.3885850 -2.4000000 0.0574050
v 0.3885850 -2.3000000 0.0574050
v 0.4000000 -2.3000000 0.0000000
v 0.3885850 -2.4000000 0.0574050
v 0.3560650 -2.4000000 0.1060650
v 0.3560650 -2.3000000 0.1060650
v 0.3885850 -2.3000000 0.0574050
v 0.3560650 -2.4000000 0.1060650
v 0.3074050 -2.4000000 0.1385850
v 0.3074050 -2.3000000 0.1385850
v 0.3560650 -2.3000000 0.1060650
v 0.3074050 -2.4000000 0.1385850
v 0.2500000 -2.4000000 0.1500000
v 0.2500000 -2.3000000 0.1500000
v 0.3074050 -2.3000000 0.1385850
v 0.2500000 -2.4000000 0.1500000
v 0.1925950 -2.4000000 0.1385850
v 0.1925950 -2.3000000 0.1385850
v 0.2500000 -2.3000000 0.1500000
v 0.1925950 -2.4000000 0.1385850
v 0.1439350 -2.4000000 0.1060650
v 0.1439350 -2.3000000 0.1060650
v 0.1925950 -2.3000000 0.1385850
v 0.1439350 -2.4000000 0.1060650
v 0.1114150 -2.4000000 0.0574050
v 0.1114150 -2.3000000 0.0574050
v 0.1439350 -2.3000000 0.1060650
v 0.1114150 -2.4000000 0.0574050
v 0.1000000 -2.4000000 0.0000000
v 0.1000000 -2.3000000 0.0000000
v 0.1114150 -2.3000000 0.0574050
v 0.1000000 -2.4000000 0.0000000
v 0.1114150 -2.4000000 -0.0574050
v 0.1114150 -2.3000000 -0.0574050
v 0.1000000 -2.3000000 0.0000000
v 0.1114150 -2.4000000 -0.0574050
v 0.1439350 -2.4000000 -0.1060650
v 0.1439350 -2.3000000 -0.1060650
v 0.1114150 -2.3000000 -0.0574050
v 0.1439350 -2.4000000 -0.1060650
v 0.1925950 -2.4000000 -0.1385850
v 0.1925950 -2.3000000 -0.1385850
v 0.1439350 -2.3000000 -0.1060650
v 0.1925950 -2.4000000 -0.1385850
v 0.2500000 -2.4000000 -0.1500000
v 0.2500000 -2.3000000 -0.1500000
v 0.1925950 -2.3000000 -0.1385850
v 0.2500000 -2.4000000 -0.1500000
v 0.3074050 -2.4000000 -0.1385850
v 0.3074050 -2.3000000 -0.1385850
v 0.2500000 -2.3000000 -0.1500000
v 0.3074050 -2.4000000 -0.1385850
v 0.3560650 -2.4000000 -0.1060650
v 0.3560650 -2.3000000 -0.1060650
v 0.3074050 -2.3000000 -0.1385850
v 0.3560650 -2.4000000 -0.1060650
v 0.3885850 -2.4000000 -0.0574050
v 0.3885850 -2.3000000 -0.0574050
v 0.3560650 -2.3000000 -0.1060650
v 0.3885850 -2.4000000 -0.0574050
v 0.4000000 -2.4000000 0.0000000
v 0.4000000 -2.3000000 0.0000000
v 0.3885850 -2.3000000 -0.0574050
v 0.4500000 -2.3000000 0.0000000
v 0.4347800 -2.3000000 0.0765400
v 0.4347800 -2.4000000 0.0765400
v 0.4500000 -2.4000000 0.0000000
v 0.4347800 -2.3000000 0.0765400
v 0.3914200 -2.3000000 0.1414200
v 0.3914200 -2.4000000 0.1414200
v 0.4347800 -2.4000000 0.0765400
v 0.3914200 -2.3000000 0.1414200
v 0.3265400 -2.3000000 0.1847800
v 0.3265400 -2.4000000 0.1847800
v 0.3914200 -2.4000000 0.1414200
v 0.3265400 -2.3000000 0.1847800
v 0.2500000 -2.3000000 0.2000000
v 0.2500000 -2.4000000 0.2000000
v 0.3265400 -2.4000000 0.1847800
v 0.2500000 -2.3000000 0.2000000
v 0.1734600 -2.3000000 0.1847800
v 0.1734600 -2.4000000 0.1847800
v 0.2500000 -2.4000000 0.2000000
v 0.1734600 -2.3000000 0.1847800
v 0.1085800 -2.3000000 0.1414200
v 0.1085800 -2.4000000 0.1414200
v 0.1734600 -2.4000000 0.1847800
v 0.1085800 -2.3000000 0.1414200
v 0.0652200 -2.3000000 0.0765400
v 0.0652200 -2.4000000 0.0765400
v 0.1085800 -2.4000000 0.1414200
v 0.0652200 -2.3000000 0.0765400
v 0.0500000 -2.3000000 0.0000000
v 0.0500000 -2.4000000 0.0000000
v 0.0652200 -2.4000000 0.0765400
v 0.0500000 -2.3000000 0.0000000
v 0.0652200 -2.3000000 -0.0765400
v 0.0652200 -2.4000000 -0.0765400
v 0.0500000 -2.4000000 0.0000000
v 0.0652200 -2.3000000 -0.0765400
v 0.1085800 -2.3000000 -0.1414200
v 0.1085800 -2.4000000 -0.1414200
v 0.0652200 -2.4000000 -0.0765400
v 0.1085800 -2.3000000 -0.1414200
v 0.1734600 -2.3000000 -0.1847800
v 0.1734600 -2.4000000 -0.1847800
v 0.1085800 -2.4000000 -0.1414200
v 0.1734600 -2.3000000 -0.1847800
v 0.2500000 -2.3000000 -0.2000000
v 0.2500000 -2.4000000 -0.2000000
v 0.1734600 -2.4000000 -0.1847800
v 0.2500000 -2.3000000 -0.2000000
v 0.3265400 -2.3000000 -0.1847800
v 0.3265400 -2.4000000 -0.1847800
v 0.2500000 -2.4000000 -0.2000000
v 0.3265400 -2.3000000 -0.1847800
v 0.3914200 -2.3000000 -0.1414200
v 0.3914200 -2.4000000 -0.1414200
v 0.3265400 -2.4000000 -0.1847800
v 0.3914200 -2.3000000 -0.1414200
v 0.4347800 -2.3000000 -0.0765400
v 0.4347800 -2.4000000 -0.0765400
v 0.3914200 -2.4000000 -0.1414200
v 0.4347800 -2.3000000 -0.0765400
v 0.4500000 -2.3000000 0.0000000
v 0.4500000 -2.4000000 0.0000000
v 0.4347800 -2.4000000 -0.0765400
v 0.1734600 -2.4000000 0.1847800
v 0.1925950 -2.4000000 0.1385850
v 0.2500000 -2.4000000 0.1500000
v 0.2500000 -2.4000000 0.2000000
v 0.1085800 -2.4000000 0.1414200
v 0.1439350 -2.4000000 0.1060650
v 0.1925950 -2.4000000 0.1385850
v 0.1734600 -2.4000000 0.1847800
v 0.0652200 -2.4000000 0.0765400
v 0.1114150 -2.4000000 0.0574050
v 0.1439350 -2.4000000 0.1060650
v 0.1085800 -2.4000000 0.1414200
v 0.0500000 -2.4000000 0.0000000
v 0.1000000 -2.4000000 0.0000000
v 0.1114150 -2.4000000 0.0574050
v 0.0652200 -2.4000000 0.0765400
v 0.0652200 -2.4000000 -0.0765400
v 0.1114150 -2.4000000 -0.0574050
v 0.1000000 -2.4000000 0.0000000
v 0.0500000 -2.4000000 0.0000000
v 0.1085800 -2.4000000 -0.1414200
v 0.1439350 -2.4000000 -0.1060650
v 0.1114150 -2.4000000 -0.0574050
v 0.0652200 -2.4000000 -0.0765400
v 0.1734600 -2.4000000 -0.1847800
v 0.1925950 -2.4000000 -0.1385850
v 0.1439350 -2.4000000 -0.1060650
v 0.1085800 -2.4000000 -0.1414200
v 0.2500000 -2.4000000 -0.2000000
v 0.2500000 -2.4000000 -0.1500000
v 0.1925950 -2.4000000 -0.1385850
v 0.1734600 -2.4000000 -0.1847800
v 0.3265400 -2.4000000 -0.1847800
v 0.3074050 -2.4000000 -0.1385850
v 0.2500000 -2.4000000 -0.1500000
v 0.2500000 -2.4000000 -0.2000000
v 0.3914200 -2.4000000 -0.1414200
v 0.3560650 -2.4000000 -0.1060650
v 0.3074050 -2.4000000 -0.1385850
v 0.3265400 -2.4000000 -0.1847800
v 0.4347800 -2.4000000 -0.0765400
v 0.3885850 -2.4000000 -0.0574050
v 0.3560650 -2.4000000 -0.1060650
v 0.3914200 -2.4000000 -0.1414200
v 0.4500000 -2.4000000 0.0000000
v 0.4000000 -2.4000000 0.0000000
v 0.3885850 -2.4000000 -0.0574050
v 0.4347800 -2.4000000 -0.0765400
v 0.4347800 -2.4000000 0.0765400
v 0.3885850 -2.4000000 0.0574050
v 0.4000000 -2.4000000 0.0000000
v 0.4500000 -2.4000000 0.0000000
v 0.3914200 -2.4000000 0.1414200
v 0.3560650 -2.4000000 0.1060650
v 0.3885850 -2.4000000 0.0574050
v 0.4347800 -2.4000000 0.0765400
v 0.3265400 -2.4000000 0.1847800
v 0.3074050 -2.4000000 0.1385850
v 0.3560650 -2.4000000 0.1060650
v 0.3914200 -2.4000000 0.1414200
v 0.2500000 -2.4000000 0.2000000
v 0.2500000 -2.4000000 0.1500000
v 0.3074050 -2.4000000 0.1385850
v 0.3265400 -2.4000000 0.1847800
v -0.1000000 -2.4000000 0.0000000
v -0.1114150 -2.4000000 0.0574050
v -0.1114150 -2.3000000 0.0574050
v -0.1000000 -2.3000000 0.0000000
v -0.1114150 -2.4000000 0.0574050
v -0.1439350 -2.4000000 0.1060650
v -0.1439350 -2.3000000 0.1060650
v -0.1114150 -2.3000000 0.0574050
v -0.1439350 -2.4000000 0.1060650
v -0.1925950 -2.4000000 0.1385850
v -0.1925950 -2.3000000 0.1385850
v -0.1439350 -2.3000000 0.1060650
v -0.1925950 -2.4000000 0.1385850
v -0.2500000 -2.4000000 0.1500000
v -0.2500000 -2.3000000 0.1500000
v -0.1925950 -2.3000000 0.1385850
v -0.2500000 -2.4000000 0.1500000
v -0.3074050 -2.4000000 0.1385850
v -0.3074050 -2.3000000 0.1385850
v -0.2500000 -2.3000000 0.1500000
v -0.3074050 -2.4000000 0.1385850
v -0.3560650 -2.4000000 0.1060650
v -0.3560650 -2.3000000 0.1060650
v -0.3074050 -2.3000000 0.1385850
v -0.3560650 -2.4000000 0.1060650
v -0.3885850 -2.4000000 0.0574050
v -0.3885850 -2.3000000 0.0574050
v -0.3560650 -2.3000000 0.1060650
v -0.3885850 -2.4000000 0.0574050
v -0.4000000 -2.4000000 0.0000000
v -0.4000000 -2.3000000 0.0000000
v -0.3885850 -2.3000000 0.0574050
v -0.4000000 -2.4000000 0.0000000
v -0.3885850 -2.4000000 -0.0574050
v -0.3885850 -2.3000000 -0.0574050
v -0.4000000 -2.3000000 0.0000000
v -0.3885850 -2.4000000 -0.0574050
v -0.3560650 -2.4000000 -0.1060650
v -0.3560650 -2.3000000 -0.1060650
v -0.3885850 -2.3000000 -0.0574050
v -0.3560650 -2.4000000 -0.1060650
v -0.3074050 -2.4000000 -0.1385850
v -0.3074050 -2.3000000 -0.1385850
v -0.3560650 -2.3000000 -0.1060650
v -0.3074050 -2.4000000 -0.1385850
v -0.2500000 -2.4000000 -0.1500000
v -0.2500000 -2.3000000 -0.1500000
v -0.3074050 -2.3000000 -0.1385850
v -0.2500000 -2.4000000 -0.1500000
v -0.1925950 -2.4000000 -0.1385850
v -0.1925950 -2.3000000 -0.1385850
v -0.2500000 -2.3000000 -0.1500000
v -0.1925950 -2.4000000 -0.1385850
v -0.1439350 -2.4000000 -0.1060650
v -0.1439350 -2.3000000 -0.1060650
v -0.1925950 -2.3000000 -0.1385850
v -0.1439350 -2.4000000 -0.1060650
v -0.1114150 -2.4000000 -0.0574050
v -0.1114150 -2.3000000 -0.0574050
v -0.1439350 -2.3000000 -0.1060650
v -0.1114150 -2.4000000 -0.0574050
v -0.1000000 -2.4000000 0.0000000
v -0.1000000 -2.3000000 0.0000000
v -0.1114150 -2.3000000 -0.0574050
v -0.0500000 -2.3000000 0.0000000
v -0.0652200 -2.3000000 0.0765400
v -0.0652200 -2.4000000 0.0765400
v -0.0500000 -2.4000000 0.0000000
v -0.0652200 -2.3000000 0.0765400
v -0.1085800 -2.3000000 0.1414200
v -0.1085800 -2.4000000 0.1414200
v -0.0652200 -2.4000000 0.0765400
v -0.1085800 -2.3000000 0.1414200
v -0.1734600 -2.3000000 0.1847800
v -0.1734600 -2.4000000 0.1847800
v -0.1085800 -2.4000000 0.1414200
v -0.1734600 -2.3000000 0.1847800
v -0.2500000 -2.3000000 0.2000000
v -0.2500000 -2.4000000 0.2000000
v -0.1734600 -2.4000000 0.1847800
v -0.2500000 -2.3000000 0.2000000
v -0.3265400 -2.3000000 0.1847800
v -0.3265400 -2.4000000 0.1847800
v -0.2500000 -2.4000000 0.2000000
v -0.3265400 -2.3000000 0.1847800
v -0.3914200 -2.3000000 0.1414200
v -0.3914200 -2.4000000 0.1414200
v -0.3265400 -2.4000000 0.1847800
v -0.3914200 -2.3000000 0.1414200
v -0.4347800 -2.3000000 0.0765400
v -0.4347800 -2.4000000 0.0765400
v -0.3914200 -2.4000000 0.1414200
v -0.4347800 -2.3000000 0.0765400
v -0.4500000 -2.3000000 0.0000000
v -0.4500000 -2.4000000 0.0000000
v -0.4347800 -2.4000000 0.0765400
v -0.4500000 -2.3000000 0.0000000
v -0.4347800 -2.3000000 -0.0765400
v -0.4347800 -2.4000000 -0.0765400
v -0.4500000 -2.4000000 0.0000000
v -0.4347800 -2.3000000 -0.0765400
v -0.3914200 -2.3000000 -0.1414200
v -0.3914200 -2.4000000 -0.1414200
v -0.4347800 -2.4000000 -0.0765400
v -0.3914200 -2.3000000 -0.1414200
v -0.3265400 -2.3000000 -0.1847800
v -0.3265400 -2.4000000 -0.1847800
v -0.3914200 -2.4000000 -0.1414200
v -0.3265400 -2.3000000 -0.1847800
v -0.2500000 -2.3000000 -0.2000000
v -0.2500000 -2.4000000 -0.2000000
v -0.3265400 -2.4000000 -0.1847800
v -0.2500000 -2.3000000 -0.2000000
v -0.1734600 -2.3000000 -0.1847800
v -0.1734600 -2.4000000 -0.1847800
v -0.2500000 -2.4000000 -0.2000000
v -0.1734600 -2.3000000 -0.1847800
v -0.1085800 -2.3000000 -0.1414200
v -0.1085800 -2.4000000 -0.1414200
v -0.1734600 -2.4000000 -0.1847800
v -0.1085800 -2.3000000 -0.1414200
v -0.0652200 -2.3000000 -0.0765400
v -0.0652200 -2.4000000 -0.0765400
v -0.1085800 -2.4000000 -0.1414200
v -0.0652200 -2.3000000 -0.0765400
v -0.0500000 -2.3000000 0.0000000
v -0.0500000 -2.4000000 0.0000000
v -0.0652200 -2.4000000 -0.0765400
v -0.3265400 -2.4000000 0.1847800
v -0.3074050 -2.4000000 0.1385850
v -0.2500000 -2.4000000 0.1500000
v -0.2500000 -2.4000000 0.2000000
v -0.3914200 -2.4000000 0.1414200
v -0.3560650 -2.4000000 0.1060650
v -0.3074050 -2.4000000 0.1385850
v -0.3265400 -2.4000000 0.1847800
v -0.4347800 -2.4000000 0.0765400
v -0.3885850 -2.4000000 0.0574050
v -0.3560650 -2.4000000 0.1060650
v -0.3914200 -2.4000000 0.1414200
v -0.4500000 -2.4000000 0.0000000
v -0.4000000 -2.4000000 0.0000000
v -0.3885850 -2.4000000 0.0574050
v -0.4347800 -2.4000000 0.0765400
v -0.4347800 -2.4000000 -0.0765400
v -0.3885850 -2.4000000 -0.0574050
v -0.4000000 -2.4000000 0.0000000
v -0.4500000 -2.4000000 0.0000000
v -0.3914200 -2.4000000 -0.1414200
v -0.3560650 -2.4000000 -0.1060650
v -0.3885850 -2.4000000 -0.0574050
v -0.4347800 -2.4000000 -0.0765400
v -0.3265400 -2.4000000 -0.1847800
v -0.3074050 -2.4000000 -0.1385850
v -0.3560650 -2.4000000 -0.1060650
v -0.3914200 -2.4000000 -0.1414200
v -0.2500000 -2.4000000 -0.2000000
v -0.2500000 -2.4000000 -0.1500000
v -0.3074050 -2.4000000 -0.1385850
v -0.3265400 -2.4000000 -0.1847800
v -0.1734600 -2.4000000 -0.1847800
v -0.1925950 -2.4000000 -0.1385850
v -0.2500000 -2.4000000 -0.1500000
v -0.2500000 -2.4000000 -0.2000000
v -0.1085800 -2.4000000 -0.1414200
v -0.1439350 -2.4000000 -0.1060650
v -0.1925950 -2.4000000 -0.1385850
v -0.1734600 -2.4000000 -0.1847800
v -0.0652200 -2.4000000 -0.0765400
v -0.1114150 -2.4000000 -0.0574050
v -0.1439350 -2.4000000 -0.1060650
v -0.1085800 -2.4000000 -0.1414200
v -0.0500000 -2.4000000 0.0000000
v -0.1000000 -2.4000000 0.0000000
v -0.1114150 -2.4000000 -0.0574050
v -0.0652200 -2.4000000 -0.0765400
v -0.0652200 -2.4000000 0.0765400
v -0.1114150 -2.4000000 0.0574050
v -0.1000000 -2.4000000 0.0000000
v -0.0500000 -2.4000000 0.0000000
v -0.1085800 -2.4000000 0.1414200
v -0.1439350 -2.4000000 0.1060650
v -0.1114150 -2.4000000 0.0574050
v -0.0652200 -2.4000000 0.0765400
v -0.1734600 -2.4000000 0.1847800
v -0.1925950 -2.4000000 0.1385850
v -0.1439350 -2.4000000 0.1060650
v -0.1085800 -2.4000000 0.1414200
v -0.2500000 -2.4000000 0.2000000
v -0.2500000 -2.4000000 0.1500000
v -0.1925950 -2.4000000 0.1385850
v -0.1734600 -2.4000000 0.1847800
v -0.6500000 -2.3000000 0.4000000
v 0.6500000 -2.3000000 0.4000000
v 0.6500000 -2.4000000 0.4000000
v -0.6500000 -2.4000000 0.4000000
v 0.6500000 -2.3000000 0.4000000
v 0.6500000 -2.3000000 -0.4250000
v 0.6500000 -2.4000000 -0.4250000
v 0.6500000 -2.4000000 0.4000000
v -0.6500000 -2.4000000 0.4000000
v -0.6500000 -2.4000000 -0.4250000
v -0.6500000 -2.3000000 -0.4250000
v -0.6500000 -2.3000000 0.4000000
v -0.7500000 -2.4000000 0.5000000
v -0.6500000 -2.4000000 0.4000000
v 0.6500000 -2.4000000 0.4000000
v 0.7500000 -2.4000000 0.5000000
v 0.7500000 -2.4000000 0.5000000
v 0.6500000 -2.4000000 0.4000000
v 0.6500000 -2.4000000 -0.4750000
v 0.7500000 -2.4000000 -0.5000000
v 0.7500000 -2.4000000 -0.5000000
v 0.6500000 -2.4000000 -0.4750000
v -0.6500000 -2.4000000 -0.4750000
v -0.7500000 -2.4000000 -0.5000000
v -0.7500000 -2.4000000 -0.5000000
v -0.6500000 -2.4000000 -0.4750000
v -0.6500000 -2.4000000 0.4000000
v -0.7500000 -2.4000000 0.5000000
v -0.5500000 -2.4000000 -0.4000000
v 0.5500000 -2.4000000 -0.4000000
v 0.5500000 -2.3000000 -0.4000000
v -0.5500000 -2.3000000 -0.4000000
v 0.5500000 -2.4000000 -0.4000000
v 0.5500000 -2.4000000 -0.4250000
v 0.5500000 -2.3000000 -0.4250000
v 0.5500000 -2.3000000 -0.4000000
v -0.5500000 -2.3000000 -0.4000000
v -0.5500000 -2.3000000 -0.4250000
v -0.5500000 -2.4000000 -0.4250000
v -0.5500000 -2.4000000 -0.4000000
v -0.6500000 -2.3000000 -0.3750000
v 0.6500000 -2.3000000 -0.3750000
v 0.6500000 -2.3000000 0.4000000
v -0.6500000 -2.3000000 0.4000000
v -0.5500000 -2.3000000 -0.4000000
v 0.5500000 -2.3000000 -0.4000000
v 0.5500000 -2.3000000 -0.3750000
v -0.5500000 -2.3000000 -0.3750000
v -0.5500000 -2.4000000 -0.4750000
v 0.5500000 -2.4000000 -0.4750000
v 0.5500000 -2.4000000 -0.4000000
v -0.5500000 -2.4000000 -0.4000000
v -0.5500000 -2.2000000 -0.4750000
v -0.5500000 -2.2000000 -0.3750000
v 0.5500000 -2.2000000 -0.3750000
v 0.5500000 -2.2000000 -0.4750000
v 0.5500000 -0.1000000 -0.4750000
v 0.5500000 -0.1000000 -0.3750000
v -0.5500000 -0.1000000 -0.3750000
v -0.5500000 -0.1000000 -0.4750000
v -0.5500000 -0.0000000 -0.4750000
v -0.5500000 -0.0000000 -0.3750000
v 0.5500000 -0.0000000 -0.3750000
v 0.5500000 -0.0000000 -0.4750000
v 0.7500000 -0.0000000 0.5000000
v 0.6500000 -0.0000000 -0.3750000
v -0.6500000 -0.0000000 -0.3750000
v -0.7500000 -0.0000000 0.5000000
v -0.7500000 -0.0000000 0.5000000
v -0.6500000 -0.0000000 -0.3750000
v -0.6500000 -0.0000000 -0.5000000
v -0.7500000 -0.0000000 -0.5000000
v 0.7500000 -0.0000000 -0.5000000
v 0.6500000 -0.0000000 -0.5000000
v 0.6500000 -0.0000000 -0.3750000
v 0.7500000 -0.0000000 0.5000000
v -0.6500000 -0.1000000 -0.3500000
v -0.6500000 -0.1000000 -0.3750000
v 0.6500000 -0.1000000 -0.3750000
v 0.6500000 -0.1000000 -0.3500000
v -0.6500000 -0.1000000 -0.5000000
v 0.6500000 -0.1000000 -0.5000000
v 0.6500000 -0.1000000 -0.4750000
v -0.6500000 -0.1000000 -0.4750000
v 0.7500000 -0.0000000 -0.5000000
v -0.7500000 -0.0000000 -0.5000000
v -0.7500000 -0.0000000 -0.4750000
v 0.7500000 -0.0000000 -0.4750000
v 0.7500000 -0.0000000 0.5000000
v -0.7500000 -0.0000000 0.5000000
v -0.7500000 -2.4000000 0.5000000
v 0.7500000 -2.4000000 0.5000000
v -0.7500000 -0.0000000 0.5000000
v -0.7500000 -0.0000000 -0.5000000
v -0.7500000 -2.4000000 -0.5000000
v -0.7500000 -2.4000000 0.5000000
v 0.7500000 -2.4000000 0.5000000
v 0.7500000 -2.4000000 -0.5000000
v 0.7500000 -0.0000000 -0.5000000
v 0.7500000 -0.0000000 0.5000000
v 0.6500000 -2.2000000 -0.5000000
v -0.6500000 -2.2000000 -0.5000000
v -0.6500000 -2.2000000 -0.4750000
v 0.6500000 -2.2000000 -0.4750000
v -0.6500000 -0.4000000 0.4000000
v -0.6500000 -0.4000000 -0.3500000
v -0.6500000 -0.1000000 -0.3500000
v -0.6500000 -0.1000000 0.4000000
v -0.6500000 -0.1000000 -0.5000000
v -0.6500000 -0.1000000 -0.3500000
v -0.6500000 -2.2000000 -0.3500000
v -0.6500000 -2.2000000 -0.5000000
v 0.6500000 -0.5000000 0.4000000
v 0.6500000 -0.5000000 -0.3500000
v 0.6500000 -0.8500000 -0.3500000
v 0.6500000 -0.8500000 0.4000000
v 0.6500000 -0.1000000 0.4000000
v 0.6500000 -0.1000000 -0.3500000
v 0.6500000 -0.4000000 -0.3500000
v 0.6500000 -0.4000000 0.4000000
v 0.6500000 -0.9500000 0.4000000
v 0.6500000 -0.9500000 -0.3500000
v 0.6500000 -1.3000000 -0.3500000
v 0.6500000 -1.3000000 0.4000000
v 0.6500000 -2.2000000 -0.5000000
v 0.6500000 -2.2000000 -0.3500000
v 0.6500000 -0.1000000 -0.3500000
v 0.6500000 -0.1000000 -0.5000000
v 0.7500000 -2.4000000 -0.5000000
v 0.6500000 -2.2000000 -0.5000000
v 0.6500000 -0.1000000 -0.5000000
v 0.7500000 -0.0000000 -0.5000000
v 0.6500000 -0.8500000 0.4000000
v -0.6500000 -0.8500000 0.4000000
v -0.6500000 -0.5000000 0.4000000
v 0.6500000 -0.5000000 0.4000000
v 0.6500000 -0.4000000 0.4000000
v -0.6500000 -0.4000000 0.4000000
v -0.6500000 -0.1000000 0.4000000
v 0.6500000 -0.1000000 0.4000000
v 0.5500000 -0.5000000 0.4000000
v -0.5500000 -0.5000000 0.4000000
v -0.5500000 -0.4000000 0.4000000
v 0.5500000 -0.4000000 0.4000000
v 0.6500000 -1.3000000 0.4000000
v -0.6500000 -1.3000000 0.4000000
v -0.6500000 -0.9500000 0.4000000
v 0.6500000 -0.9500000 0.4000000
v 0.5500000 -0.9500000 0.4000000
v -0.5500000 -0.9500000 0.4000000
v -0.5500000 -0.8500000 0.4000000
v 0.5500000 -0.8500000 0.4000000
v 0.6500000 -1.7500000 0.4000000
v -0.6500000 -1.7500000 0.4000000
v -0.6500000 -1.4000000 0.4000000
v 0.6500000 -1.4000000 0.4000000
v 0.5500000 -1.4000000 0.4000000
v -0.5500000 -1.4000000 0.4000000
v -0.5500000 -1.3000000 0.4000000
v 0.5500000 -1.3000000 0.4000000
v 0.6500000 -2.2000000 0.4000000
v -0.6500000 -2.2000000 0.4000000
v -0.6500000 -1.8500000 0.4000000
v 0.6500000 -1.8500000 0.4000000
v 0.5500000 -1.8500000 0.4000000
v -0.5500000 -1.8500000 0.4000000
v -0.5500000 -1.7500000 0.4000000
v 0.5500000 -1.7500000 0.4000000
v 0.5500000 -0.9500000 0.4000000
v 0.5500000 -0.8500000 0.4000000
v 0.5500000 -0.8500000 -0.3500000
v 0.5500000 -0.9500000 -0.3500000
v 0.5500000 -0.8500000 -0.3500000
v 0.6500000 -0.8500000 -0.3500000
v 0.6500000 -0.9500000 -0.3500000
v 0.5500000 -0.9500000 -0.3500000
v 0.5500000 -0.9500000 -0.3500000
v 0.6500000 -0.9500000 -0.3500000
v 0.6500000 -0.9500000 0.4000000
v 0.5500000 -0.9500000 0.4000000
v 0.5500000 -0.8500000 0.4000000
v 0.6500000 -0.8500000 0.4000000
v 0.6500000 -0.8500000 -0.3500000
v 0.5500000 -0.8500000 -0.3500000
v 0.5500000 -0.5000000 0.4000000
v 0.5500000 -0.4000000 0.4000000
v 0.5500000 -0.4000000 -0.3500000
v 0.5500000 -0.5000000 -0.3500000
v 0.5500000 -0.4000000 -0.3500000
v 0.6500000 -0.4000000 -0.3500000
v 0.6500000 -0.5000000 -0.3500000
v 0.5500000 -0.5000000 -0.3500000
v 0.5500000 -0.5000000 -0.3500000
v 0.6500000 -0.5000000 -0.3500000
v 0.6500000 -0.5000000 0.4000000
v 0.5500000 -0.5000000 0.4000000
v 0.5500000 -0.4000000 0.4000000
v 0.6500000 -0.4000000 0.4000000
v 0.6500000 -0.4000000 -0.3500000
v 0.5500000 -0.4000000 -0.3500000
v 0.6500000 -1.4000000 0.4000000
v 0.6500000 -1.4000000 -0.3500000
v 0.6500000 -1.7500000 -0.3500000
v 0.6500000 -1.7500000 0.4000000
v 0.5500000 -1.4000000 0.4000000
v 0.5500000 -1.3000000 0.4000000
v 0.5500000 -1.3000000 -0.3500000
v 0.5500000 -1.4000000 -0.3500000
v 0.5500000 -1.3000000 -0.3500000
v 0.6500000 -1.3000000 -0.3500000
v 0.6500000 -1.4000000 -0.3500000
v 0.5500000 -1.4000000 -0.3500000
v 0.5500000 -1.4000000 -0.3500000
v 0.6500000 -1.4000000 -0.3500000
v 0.6500000 -1.4000000 0.4000000
v 0.5500000 -1.4000000 0.4000000
v 0.5500000 -1.3000000 0.4000000
v 0.6500000 -1.3000000 0.4000000
v 0.6500000 -1.3000000 -0.3500000
v 0.5500000 -1.3000000 -0.3500000
v 0.6500000 -1.8500000 0.4000000
v 0.6500000 -1.8500000 -0.3500000
v 0.6500000 -2.2000000 -0.3500000
v 0.6500000 -2.2000000 0.4000000
v 0.5500000 -1.8500000 0.4000000
v 0.5500000 -1.7500000 0.4000000
v 0.5500000 -1.7500000 -0.3500000
v 0.5500000 -1.8500000 -0.3500000
v 0.5500000 -1.7500000 -0.3500000
v 0.6500000 -1.7500000 -0.3500000
v 0.6500000 -1.8500000 -0.3500000
v 0.5500000 -1.8500000 -0.3500000
v 0.5500000 -1.8500000 -0.3500000
v 0.6500000 -1.8500000 -0.3500000
v 0.6500000 -1.8500000 0.4000000
v 0.5500000 -1.8500000 0.4000000
v 0.5500000 -1.7500000 0.4000000
v 0.6500000 -1.7500000 0.4000000
v 0.6500000 -1.7500000 -0.3500000
v 0.5500000 -1.7500000 -0.3500000
v -0.5500000 -0.4000000 0.4000000
v -0.5500000 -0.5000000 0.4000000
v -0.5500000 -0.5000000 -0.3500000
v -0.5500000 -0.4000000 -0.3500000
v -0.5500000 -0.5000000 -0.3500000
v -0.6500000 -0.5000000 -0.3500000
v -0.6500000 -0.4000000 -0.3500000
v -0.5500000 -0.4000000 -0.3500000
v -0.5500000 -0.4000000 -0.3500000
v -0.6500000 -0.4000000 -0.3500000
v -0.6500000 -0.4000000 0.4000000
v -0.5500000 -0.4000000 0.4000000
v -0.5500000 -0.5000000 0.4000000
v -0.6500000 -0.5000000 0.4000000
v -0.6500000 -0.5000000 -0.3500000
v -0.5500000 -0.5000000 -0.3500000
v -0.6500000 -0.8500000 0.4000000
v -0.6500000 -0.8500000 -0.3500000
v -0.6500000 -0.5000000 -0.3500000
v -0.6500000 -0.5000000 0.4000000
v -0.5500000 -0.8500000 0.4000000
v -0.5500000 -0.9500000 0.4000000
v -0.5500000 -0.9500000 -0.3500000
v -0.5500000 -0.8500000 -0.3500000
v -0.5500000 -0.9500000 -0.3500000
v -0.6500000 -0.9500000 -0.3500000
v -0.6500000 -0.8500000 -0.3500000
v -0.5500000 -0.8500000 -0.3500000
v -0.5500000 -0.8500000 -0.3500000
v -0.6500000 -0.8500000 -0.3500000
v -0.6500000 -0.8500000 0.4000000
v -0.5500000 -0.8500000 0.4000000
v -0.5500000 -0.9500000 0.4000000
v -0.6500000 -0.9500000 0.4000000
v -0.6500000 -0.9500000 -0.3500000
v -0.5500000 -0.9500000 -0.3500000
v -0.6500000 -1.3000000 0.4000000
v -0.6500000 -1.3000000 -0.3500000
v -0.6500000 -0.9500000 -0.3500000
v -0.6500000 -0.9500000 0.4000000
v -0.5500000 -1.3000000 0.4000000
v -0.5500000 -1.4000000 0.4000000
v -0.5500000 -1.4000000 -0.3500000
v -0.5500000 -1.3000000 -0.3500000
v -0.5500000 -1.4000000 -0.3500000
v -0.6500000 -1.4000000 -0.3500000
v -0.6500000 -1.3000000 -0.3500000
v -0.5500000 -1.3000000 -0.3500000
v -0.5500000 -1.3000000 -0.3500000
v -0.6500000 -1.3000000 -0.3500000
v -0.6500000 -1.3000000 0.4000000
v -0.5500000 -1.3000000 0.4000000
v -0.5500000 -1.4000000 0.4000000
v -0.6500000 -1.4000000 0.4000000
v -0.6500000 -1.4000000 -0.3500000
v -0.5500000 -1.4000000 -0.3500000
v -0.6500000 -1.7500000 0.4000000
v -0.6500000 -1.7500000 -0.3500000
v -0.6500000 -1.4000000 -0.3500000
v -0.6500000 -1.4000000 0.4000000
v -0.6500000 -2.2000000 0.4000000
v -0.6500000 -2.2000000 -0.3500000
v -0.6500000 -1.8500000 -0.3500000
v -0.6500000 -1.8500000 0.4000000
v -0.5500000 -1.7500000 0.4000000
v -0.5500000 -1.8500000 0.4000000
v -0.5500000 -1.8500000 -0.3500000
v -0.5500000 -1.7500000 -0.3500000
v -0.5500000 -1.8500000 -0.3500000
v -0.6500000 -1.8500000 -0.3500000
v -0.6500000 -1.7500000 -0.3500000
v -0.5500000 -1.7500000 -0.3500000
v -0.5500000 -1.7500000 -0.3500000
v -0.6500000 -1.7500000 -0.3500000
v -0.6500000 -1.7500000 0.4000000
v -0.5500000 -1.7500000 0.4000000
v -0.5500000 -1.8500000 0.4000000
v -0.6500000 -1.8500000 0.4000000
v -0.6500000 -1.8500000 -0.3500000
v -0.5500000 -1.8500000 -0.3500000
v -0.7500000 -0.0000000 -0.5000000
v -0.6500000 -0.1000000 -0.5000000
v -0.6500000 -2.2000000 -0.5000000
v -0.7500000 -2.4000000 -0.5000000
v -0.7500000 -2.4000000 -0.5000000
v -0.6500000 -2.2000000 -0.5000000
v 0.6500000 -2.2000000 -0.5000000
v 0.7500000 -2.4000000 -0.5000000
v 0.7500000 -0.0000000 -0.5000000
v 0.6500000 -0.1000000 -0.5000000
v -0.6500000 -0.1000000 -0.5000000
v -0.7500000 -0.0000000 -0.5000000
v 0.6500000 0.1000000 0.2500000
v 0.6385850 0.1000000 0.3074050
v 0.6385850 -0.0000000 0.3074050
v 0.6500000 -0.0000000 0.2500000
v 0.6385850 0.1000000 0.3074050
v 0.6060650 0.1000000 0.3560650
v 0.6060650 -0.0000000 0.3560650
v 0.6385850 -0.0000000 0.3074050
v 0.6060650 0.1000000 0.3560650
v 0.5574050 0.1000000 0.3885850
v 0.5574050 -0.0000000 0.3885850
v 0.6060650 -0.0000000 0.3560650
v 0.5574050 0.1000000 0.3885850
v 0.5000000 0.1000000 0.4000000
v 0.5000000 -0.0000000 0.4000000
v 0.5574050 -0.0000000 0.3885850
v 0.5000000 0.1000000 0.4000000
v 0.4425950 0.1000000 0.3885850
v 0.4425950 -0.0000000 0.3885850
v 0.5000000 -0.0000000 0.4000000
v 0.4425950 0.1000000 0.3885850
v 0.3939350 0.1000000 0.3560650
v 0.3939350 -0.0000000 0.3560650
v 0.4425950 -0.0000000 0.3885850
v 0.3939350 0.1000000 0.3560650
v 0.3614150 0.1000000 0.3074050
v 0.3614150 -0.0000000 0.3074050
v 0.3939350 -0.0000000 0.3560650
v 0.3614150 0.1000000 0.3074050
v 0.3500000 0.1000000 0.2500000
v 0.3500000 -0.0000000 0.2500000
v 0.3614150 -0.0000000 0.3074050
v 0.3500000 0.1000000 0.2500000
v 0.3614150 0.1000000 0.1925950
v 0.3614150 -0.0000000 0.1925950
v 0.3500000 -0.0000000 0.2500000
v 0.3614150 0.1000000 0.1925950
v 0.3939350 0.1000000 0.1439350
v 0.3939350 -0.0000000 0.1439350
v 0.3614150 -0.0000000 0.1925950
v 0.3939350 0.1000000 0.1439350
v 0.4425950 0.1000000 0.1114150
v 0.4425950 -0.0000000 0.1114150
v 0.3939350 -0.0000000 0.1439350
v 0.4425950 0.1000000 0.1114150
v 0.5000000 0.1000000 0.1000000
v 0.5000000 -0.0000000 0.1000000
v 0.4425950 -0.0000000 0.1114150
v 0.5000000 0.1000000 0.1000000
v 0.5574050 0.1000000 0.1114150
v 0.5574050 -0.0000000 0.1114150
v 0.5000000 -0.0000000 0.1000000
v 0.5574050 0.1000000 0.1114150
v 0.6060650 0.1000000 0.1439350
v 0.6060650 -0.0000000 0.1439350
v 0.5574050 -0.0000000 0.1114150
v 0.6060650 0.1000000 0.1439350
v 0.6385850 0.1000000 0.1925950
v 0.6385850 -0.0000000 0.1925950
v 0.6060650 -0.0000000 0.1439350
v 0.6385850 0.1000000 0.1925950
v 0.6500000 0.1000000 0.2500000
v 0.6500000 -0.0000000 0.2500000
v 0.6385850 -0.0000000 0.1925950
v 0.6385850 0.1000000 0.3074050
v 0.6500000 0.1000000 0.2500000
v 0.5000000 0.1000000 0.2500000
v 0.6060650 0.1000000 0.3560650
v 0.6385850 0.1000000 0.3074050
v 0.5000000 0.1000000 0.2500000
v 0.5574050 0.1000000 0.3885850
v 0.6060650 0.1000000 0.3560650
v 0.5000000 0.1000000 0.2500000
v 0.5000000 0.1000000 0.4000000
v 0.5574050 0.1000000 0.3885850
v 0.5000000 0.1000000 0.2500000
v 0.4425950 0.1000000 0.3885850
v 0.5000000 0.1000000 0.4000000
v 0.5000000 0.1000000 0.2500000
v 0.3939350 0.1000000 0.3560650
v 0.4425950 0.1000000 0.3885850
v 0.5000000 0.1000000 0.2500000
v 0.3614150 0.1000000 0.3074050
v 0.3939350 0.1000000 0.3560650
v 0.5000000 0.1000000 0.2500000
v 0.3500000 0.1000000 0.2500000
v 0.3614150 0.1000000 0.3074050
v 0.5000000 0.1000000 0.2500000
v 0.3614150 0.1000000 0.1925950
v 0.3500000 0.1000000 0.2500000
v 0.5000000 0.1000000 0.2500000
v 0.3939350 0.1000000 0.1439350
v 0.3614150 0.1000000 0.1925950
v 0.5000000 0.1000000 0.2500000
v 0.4425950 0.1000000 0.1114150
v 0.3939350 0.1000000 0.1439350
v 0.5000000 0.1000000 0.2500000
v 0.5000000 0.1000000 0.1000000
v 0.4425950 0.1000000 0.1114150
v 0.5000000 0.1000000 0.2500000
v 0.5574050 0.1000000 0.1114150
v 0.5000000 0.1000000 0.1000000
v 0.5000000 0.1000000 0.2500000
v 0.6060650 0.1000000 0.1439350
v 0.5574050 0.1000000 0.1114150
v 0.5000000 0.1000000 0.2500000
v 0.6385850 0.1000000 0.1925950
v 0.6060650 0.1000000 0.1439350
v 0.5000000 0.1000000 0.2500000
v 0.6500000 0.1000000 0.2500000
v 0.6385850 0.1000000 0.1925950
v 0.5000000 0.1000000 0.2500000
v 0.6500000 0.1000000 -0.2500000
v 0.6385850 0.1000000 -0.1925950
v 0.6385850 -0.0000000 -0.1925950
v 0.6500000 -0.0000000 -0.2500000
v 0.6385850 0.1000000 -0.1925950
v 0.6060650 0.1000000 -0.1439350
v 0.6060650 -0.0000000 -0.1439350
v 0.6385850 -0.0000000 -0.1925950
v 0.6060650 0.1000000 -0.1439350
v 0.5574050 0.1000000 -0.1114150
v 0.5574050 -0.0000000 -0.1114150
v 0.6060650 -0.0000000 -0.1439350
v 0.5574050 0.1000000 -0.1114150
v 0.5000000 0.1000000 -0.1000000
v 0.5000000 -0.0000000 -0.1000000
v 0.5574050 -0.0000000 -0.1114150
v 0.5000000 0.1000000 -0.1000000
v 0.4425950 0.1000000 -0.1114150
v 0.4425950 -0.0000000 -0.1114150
v 0.5000000 -0.0000000 -0.1000000
v 0.4425950 0.1000000 -0.1114150
v 0.3939350 0.1000000 -0.1439350
v 0.3939350 -0.0000000 -0.1439350
v 0.4425950 -0.0000000 -0.1114150
v 0.3939350 0.1000000 -0.1439350
v 0.3614150 0.1000000 -0.1925950
v 0.3614150 -0.0000000 -0.1925950
v 0.3939350 -0.0000000 -0.1439350
v 0.3614150 0.1000000 -0.1925950
v 0.3500000 0.1000000 -0.2500000
v 0.3500000 -0.0000000 -0.2500000
v 0.3614150 -0.0000000 -0.1925950
v 0.3500000 0.1000000 -0.2500000
v 0.3614150 0.1000000 -0.3074050
v 0.3614150 -0.0000000 -0.3074050
v 0.3500000 -0.0000000 -0.2500000
v 0.3614150 0.1000000 -0.3074050
v 0.3939350 0.1000000 -0.3560650
v 0.3939350 -0.0000000 -0.3560650
v 0.3614150 -0.0000000 -0.3074050
v 0.3939350 0.1000000 -0.3560650
v 0.4425950 0.1000000 -0.3885850
v 0.4425950 -0.0000000 -0.3885850
v 0.3939350 -0.0000000 -0.3560650
v 0.4425950 0.1000000 -0.3885850
v 0.5000000 0.1000000 -0.4000000
v 0.5000000 -0.0000000 -0.4000000
v 0.4425950 -0.0000000 -0.3885850
v 0.5000000 0.1000000 -0.4000000
v 0.5574050 0.1000000 -0.3885850
v 0.5574050 -0.0000000 -0.3885850
v 0.5000000 -0.0000000 -0.4000000
v 0.5574050 0.1000000 -0.3885850
v 0.6060650 0.1000000 -0.3560650
v 0.6060650 -0.0000000 -0.3560650
v 0.5574050 -0.0000000 -0.3885850
v 0.6060650 0.1000000 -0.3560650
v 0.6385850 0.1000000 -0.3074050
v 0.6385850 -0.0000000 -0.3074050
v 0.6060650 -0.0000000 -0.3560650
v 0.6385850 0.1000000 -0.3074050
v 0.6500000 0.1000000 -0.2500000
v 0.6500000 -0.0000000 -0.2500000
v 0.6385850 -0.0000000 -0.3074050
v 0.6385850 0.1000000 -0.1925950
v 0.6500000 0.1000000 -0.2500000
v 0.5000000 0.1000000 -0.2500000
v 0.6060650 0.1000000 -0.1439350
v 0.6385850 0.1000000 -0.1925950
v 0.5000000 0.1000000 -0.2500000
v 0.5574050 0.1000000 -0.1114150
v 0.6060650 0.1000000 -0.1439350
v 0.5000000 0.1000000 -0.2500000
v 0.5000000 0.1000000 -0.1000000
v 0.5574050 0.1000000 -0.1114150
v 0.5000000 0.1000000 -0.2500000
v 0.4425950 0.1000000 -0.1114150
v 0.5000000 0.1000000 -0.1000000
v 0.5000000 0.1000000 -0.2500000
v 0.3939350 0.1000000 -0.1439350
v 0.4425950 0.1000000 -0.1114150
v 0.5000000 0.1000000 -0.2500000
v 0.3614150 0.1000000 -0.1925950
v 0.3939350 0.1000000 -0.1439350
v 0.5000000 0.1000000 -0.2500000
v 0.3500000 0.1000000 -0.2500000
v 0.3614150 0.1000000 -0.1925950
v 0.5000000 0.1000000 -0.2500000
v 0.3614150 0.1000000 -0.3074050
v 0.3500000 0.1000000 -0.2500000
v 0.5000000 0.1000000 -0.2500000
v 0.3939350 0.1000000 -0.3560650
v 0.3614150 0.1000000 -0.3074050
v 0.5000000 0.1000000 -0.2500000
v 0.4425950 0.1000000 -0.3885850
v 0.3939350 0.1000000 -0.3560650
v 0.5000000 0.1000000 -0.2500000
v 0.5000000 0.1000000 -0.4000000
v 0.4425950 0.1000000 -0.3885850
v 0.5000000 0.1000000 -0.2500000
v 0.5574050 0.1000000 -0.3885850
v 0.5000000 0.1000000 -0.4000000
v 0.5000000 0.1000000 -0.2500000
v 0.6060650 0.1000000 -0.3560650
v 0.5574050 0.1000000 -0.3885850
v 0.5000000 0.1000000 -0.2500000
v 0.6385850 0.1000000 -0.3074050
v 0.6060650 0.1000000 -0.3560650
v 0.5000000 0.1000000 -0.2500000
v 0.6500000 0.1000000 -0.2500000
v 0.6385850 0.1000000 -0.3074050
v 0.5000000 0.1000000 -0.2500000
v -0.3500000 0.1000000 -0.2500000
v -0.3614150 0.1000000 -0.1925950
v -0.3614150 -0.0000000 -0.1925950
v -0.3500000 -0.0000000 -0.2500000
v -0.3614150 0.1000000 -0.1925950
v -0.3939350 0.1000000 -0.1439350
v -0.3939350 -0.0000000 -0.1439350
v -0.3614150 -0.0000000 -0.1925950
v -0.3939350 0.1000000 -0.1439350
v -0.4425950 0.1000000 -0.1114150
v -0.4425950 -0.0000000 -0.1114150
v -0.3939350 -0.0000000 -0.1439350
v -0.4425950 0.1000000 -0.1114150
v -0.5000000 0.1000000 -0.1000000
v -0.5000000 -0.0000000 -0.1000000
v -0.4425950 -0.0000000 -0.1114150
v -0.5000000 0.1000000 -0.1000000
v -0.5574050 0.1000000 -0.1114150
v -0.5574050 -0.0000000 -0.1114150
v -0.5000000 -0.0000000 -0.1000000
v -0.5574050 0.1000000 -0.1114150
v -0.6060650 0.1000000 -0.1439350
v -0.6060650 -0.0000000 -0.1439350
v -0.5574050 -0.0000000 -0.1114150
v -0.6060650 0.1000000 -0.1439350
v -0.6385850 0.1000000 -0.1925950
v -0.6385850 -0.0000000 -0.1925950
v -0.6060650 -0.0000000 -0.1439350
v -0.6385850 0.1000000 -0.1925950
v -0.6500000 0.1000000 -0.2500000
v -0.6500000 -0.0000000 -0.2500000
v -0.6385850 -0.0000000 -0.1925950
v -0.6500000 0.1000000 -0.2500000
v -0.6385850 0.1000000 -0.3074050
v -0.6385850 -0.0000000 -0.3074050
v -0.6500000 -0.0000000 -0.2500000
v -0.6385850 0.1000000 -0.3074050
v -0.6060650 0.1000000 -0.3560650
v -0.6060650 -0.0000000 -0.3560650
v -0.6385850 -0.0000000 -0.3074050
v -0.6060650 0.1000000 -0.3560650
v -0.5574050 0.1000000 -0.3885850
v -0.5574050 -0.0000000 -0.3885850
v -0.6060650 -0.0000000 -0.3560650
v -0.5574050 0.1000000 -0.3885850
v -0.5000000 0.1000000 -0.4000000
v -0.5000000 -0.0000000 -0.4000000
v -0.5574050 -0.0000000 -0.3885850
v -0.5000000 0.1000000 -0.4000000
v -0.4425950 0.1000000 -0.3885850
v -0.4425950 -0.0000000 -0.3885850
v -0.5000000 -0.0000000 -0.4000000
v -0.4425950 0.1000000 -0.3885850
v -0.3939350 0.1000000 -0.3560650
v -0.3939350 -0.0000000 -0.3560650
v -0.4425950 -0.0000000 -0.3885850
v -0.3939350 0.1000000 -0.3560650
v -0.3614150 0.1000000 -0.3074050
v -0.3614150 -0.0000000 -0.3074050
v -0.3939350 -0.0000000 -0.3560650
v -0.3614150 0.1000000 -0.3074050
v -0.3500000 0.1000000 -0.2500000
v -0.3500000 -0.0000000 -0.2500000
v -0.3614150 -0.0000000 -0.3074050
v -0.3614150 0.1000000 -0.1925950
v -0.3500000 0.1000000 -0.2500000
v -0.5000000 0.1000000 -0.2500000
v -0.3939350 0.1000000 -0.1439350
v -0.3614150 0.1000000 -0.1925950
v -0.5000000 0.1000000 -0.2500000
v -0.4425950 0.1000000 -0.1114150
v -0.3939350 0.1000000 -0.1439350
v -0.5000000 0.1000000 -0.2500000
v -0.5000000 0.1000000 -0.1000000
v -0.4425950 0.1000000 -0.1114150
v -0.5000000 0.1000000 -0.2500000
v -0.5574050 0.1000000 -0.1114150
v -0.5000000 0.1000000 -0.1000000
v -0.5000000 0.1000000 -0.2500000
v -0.6060650 0.1000000 -0.1439350
v -0.5574050 0.1000000 -0.1114150
v -0.5000000 0.1000000 -0.2500000
v -0.6385850 0.1000000 -0.1925950
v -0.6060650 0.1000000 -0.1439350
v -0.5000000 0.1000000 -0.2500000
v -0.6500000 0.1000000 -0.2500000
v -0.6385850 0.1000000 -0.1925950
v -0.5000000 0.1000000 -0.2500000
v -0.6385850 0.1000000 -0.3074050
v -0.6500000 0.1000000 -0.2500000
v -0.5000000 0.1000000 -0.2500000
v -0.6060650 0.1000000 -0.3560650
v -0.6385850 0.1000000 -0.3074050
v -0.5000000 0.1000000 -0.2500000
v -0.5574050 0.1000000 -0.3885850
v -0.6060650 0.1000000 -0.3560650
v -0.5000000 0.1000000 -0.2500000
v -0.5000000 0.1000000 -0.4000000
v -0.5574050 0.1000000 -0.3885850
v -0.5000000 0.1000000 -0.2500000
v -0.4425950 0.1000000 -0.3885850
v -0.5000000 0.1000000 -0.4000000
v -0.5000000 0.1000000 -0.2500000
v -0.3939350 0.1000000 -0.3560650
v -0.4425950 0.1000000 -0.3885850
v -0.5000000 0.1000000 -0.2500000
v -0.3614150 0.1000000 -0.3074050
v -0.3939350 0.1000000 -0.3560650
v -0.5000000 0.1000000 -0.2500000
v -0.3500000 0.1000000 -0.2500000
v -0.3614150 0.1000000 -0.3074050
v -0.5000000 0.1000000 -0.2500000
v 0.1500000 0.1000000 -0.2500000
v 0.1385850 0.1000000 -0.1925950
v 0.1385850 -0.0000000 -0.1925950
v 0.1500000 -0.0000000 -0.2500000
v 0.1385850 0.1000000 -0.1925950
v 0.1060650 0.1000000 -0.1439350
v 0.1060650 -0.0000000 -0.1439350
v 0.1385850 -0.0000000 -0.1925950
v 0.1060650 0.1000000 -0.1439350
v 0.0574050 0.1000000 -0.1114150
v 0.0574050 -0.0000000 -0.1114150
v 0.1060650 -0.0000000 -0.1439350
v 0.0574050 0.1000000 -0.1114150
v 0.0000000 0.1000000 -0.1000000
v 0.0000000 -0.0000000 -0.1000000
v 0.0574050 -0.0000000 -0.1114150
v 0.0000000 0.1000000 -0.1000000
v -0.0574050 0.1000000 -0.1114150
v -0.0574050 -0.0000000 -0.1114150
v 0.0000000 -0.0000000 -0.1000000
v -0.0574050 0.1000000 -0.1114150
v -0.1060650 0.1000000 -0.1439350
v -0.1060650 -0.0000000 -0.1439350
v -0.0574050 -0.0000000 -0.1114150
v -0.1060650 0.1000000 -0.1439350
v -0.1385850 0.1000000 -0.1925950
v -0.1385850 -0.0000000 -0.1925950
v -0.1060650 -0.0000000 -0.1439350
v -0.1385850 0.1000000 -0.1925950
v -0.1500000 0.1000000 -0.2500000
v -0.1500000 -0.0000000 -0.2500000
v -0.1385850 -0.0000000 -0.1925950
v -0.1500000 0.1000000 -0.2500000
v -0.1385850 0.1000000 -0.3074050
v -0.1385850 -0.0000000 -0.3074050
v -0.1500000 -0.0000000 -0.2500000
v -0.1385850 0.1000000 -0.3074050
v -0.1060650 0.1000000 -0.3560650
v -0.1060650 -0.0000000 -0.3560650
v -0.1385850 -0.0000000 -0.3074050
v -0.1060650 0.1000000 -0.3560650
v -0.0574050 0.1000000 -0.3885850
v -0.0574050 -0.0000000 -0.3885850
v -0.1060650 -0.0000000 -0.3560650
v -0.0574050 0.1000000 -0.3885850
v 0.0000000 0.1000000 -0.4000000
v 0.0000000 -0.0000000 -0.4000000
v -0.0574050 -0.0000000 -0.3885850
v 0.0000000 0.1000000 -0.4000000
v 0.0574050 0.1000000 -0.3885850
v 0.0574050 -0.0000000 -0.3885850
v 0.0000000 -0.0000000 -0.4000000
v 0.0574050 0.1000000 -0.3885850
v 0.1060650 0.1000000 -0.3560650
v 0.1060650 -0.0000000 -0.3560650
v 0.0574050 -0.0000000 -0.3885850
v 0.1060650 0.1000000 -0.3560650
v 0.1385850 0.1000000 -0.3074050
v 0.1385850 -0.0000000 -0.3074050
v 0.1060650 -0.0000000 -0.3560650
v 0.1385850 0.1000000 -0.3074050
v 0.1500000 0.1000000 -0.2500000
v 0.1500000 -0.0000000 -0.2500000
v 0.1385850 -0.0000000 -0.3074050
v 0.1385850 0.1000000 -0.1925950
v 0.1500000 0.1000000 -0.2500000
v 0.0000000 0.1000000 -0.2500000
v 0.1060650 0.1000000 -0.1439350
v 0.1385850 0.1000000 -0.1925950
v 0.0000000 0.1000000 -0.2500000
v 0.0574050 0.1000000 -0.1114150
v 0.1060650 0.1000000 -0.1439350
v 0.0000000 0.1000000 -0.2500000
v 0.0000000 0.1000000 -0.1000000
v 0.0574050 0.1000000 -0.1114150
v 0.0000000 0.1000000 -0.2500000
v -0.0574050 0.1000000 -0.1114150
v 0.0000000 0.1000000 -0.1000000
v 0.0000000 0.1000000 -0.2500000
v -0.1060650 0.1000000 -0.1439350
v -0.0574050 0.1000000 -0.1114150
v 0.0000000 0.1000000 -0.2500000
v -0.1385850 0.1000000 -0.1925950
v -0.1060650 0.1000000 -0.1439350
v 0.0000000 0.1000000 -0.2500000
v -0.1500000 0.1000000 -0.2500000
v -0.1385850 0.1000000 -0.1925950
v 0.0000000 0.1000000 -0.2500000
v -0.1385850 0.1000000 -0.3074050
v -0.1500000 0.1000000 -0.2500000
v 0.0000000 0.1000000 -0.2500000
v -0.1060650 0.1000000 -0.3560650
v -0.1385850 0.1000000 -0.3074050
v 0.0000000 0.1000000 -0.2500000
v -0.0574050 0.1000000 -0.3885850
v -0.1060650 0.1000000 -0.3560650
v 0.0000000 0.1000000 -0.2500000
v 0.0000000 0.1000000 -0.4000000
v -0.0574050 0.1000000 -0.3885850
v 0.0000000 0.1000000 -0.2500000
v 0.0574050 0.1000000 -0.3885850
v 0.0000000 0.1000000 -0.4000000
v 0.0000000 0.1000000 -0.2500000
v 0.1060650 0.1000000 -0.3560650
v 0.0574050 0.1000000 -0.3885850
v 0.0000000 0.1000000 -0.2500000
v 0.1385850 0.1000000 -0.3074050
v 0.1060650 0.1000000 -0.3560650
v 0.0000000 0.1000000 -0.2500000
v 0.1500000 0.1000000 -0.2500000
v 0.1385850 0.1000000 -0.3074050
v 0.0000000 0.1000000 -0.2500000
v -0.3500000 0.1000000 0.2500000
v -0.3614150 0.1000000 0.3074050
v -0.3614150 -0.0000000 0.3074050
v -0.3500000 -0.0000000 0.2500000
v -0.3614150 0.1000000 0.3074050
v -0.3939350 0.1000000 0.3560650
v -0.3939350 -0.0000000 0.3560650
v -0.3614150 -0.0000000 0.3074050
v -0.3939350 0.1000000 0.3560650
v -0.4425950 0.1000000 0.3885850
v -0.4425950 -0.0000000 0.3885850
v -0.3939350 -0.0000000 0.3560650
v -0.4425950 0.1000000 0.3885850
v -0.5000000 0.1000000 0.4000000
v -0.5000000 -0.0000000 0.4000000
v -0.4425950 -0.0000000 0.3885850
v -0.5000000 0.1000000 0.4000000
v -0.5574050 0.1000000 0.3885850
v -0.5574050 -0.0000000 0.3885850
v -0.5000000 -0.0000000 0.4000000
v -0.5574050 0.1000000 0.3885850
v -0.6060650 0.1000000 0.3560650
v -0.6060650 -0.0000000 0.3560650
v -0.5574050 -0.0000000 0.3885850
v -0.6060650 0.1000000 0.3560650
v -0.6385850 0.1000000 0.3074050
v -0.6385850 -0.0000000 0.3074050
v -0.6060650 -0.0000000 0.3560650
v -0.6385850 0.1000000 0.3074050
v -0.6500000 0.1000000 0.2500000
v -0.6500000 -0.0000000 0.2500000
v -0.6385850 -0.0000000 0.3074050
v -0.6500000 0.1000000 0.2500000
v -0.6385850 0.1000000 0.1925950
v -0.6385850 -0.0000000 0.1925950
v -0.6500000 -0.0000000 0.2500000
v -0.6385850 0.1000000 0.1925950
v -0.6060650 0.1000000 0.1439350
v -0.6060650 -0.0000000 0.1439350
v -0.6385850 -0.0000000 0.1925950
v -0.6060650 0.1000000 0.1439350
v -0.5574050 0.1000000 0.1114150
v -0.5574050 -0.0000000 0.1114150
v -0.6060650 -0.0000000 0.1439350
v -0.5574050 0.1000000 0.1114150
v -0.5000000 0.1000000 0.1000000
v -0.5000000 -0.0000000 0.1000000
v -0.5574050 -0.0000000 0.1114150
v -0.5000000 0.1000000 0.1000000
v -0.4425950 0.1000000 0.1114150
v -0.4425950 -0.0000000 0.1114150
v -0.5000000 -0.0000000 0.1000000
v -0.4425950 0.1000000 0.1114150
v -0.3939350 0.1000000 0.1439350
v -0.3939350 -0.0000000 0.1439350
v -0.4425950 -0.0000000 0.1114150
v -0.3939350 0.1000000 0.1439350
v -0.3614150 0.1000000 0.1925950
v -0.3614150 -0.0000000 0.1925950
v -0.3939350 -0.0000000 0.1439350
v -0.3614150 0.1000000 0.1925950
v -0.3500000 0.1000000 0.2500000
v -0.3500000 -0.0000000 0.2500000
v -0.3614150 -0.0000000 0.1925950
v -0.3614150 0.1000000 0.3074050
v -0.3500000 0.1000000 0.2500000
v -0.5000000 0.1000000 0.2500000
v -0.3939350 0.1000000 0.3560650
v -0.3614150 0.1000000 0.3074050
v -0.5000000 0.1000000 0.2500000
v -0.4425950 0.1000000 0.3885850
v -0.3939350 0.1000000 0.3560650
v -0.5000000 0.1000000 0.2500000
v -0.5000000 0.1000000 0.4000000
v -0.4425950 0.1000000 0.3885850
v -0.5000000 0.1000000 0.2500000
v -0.5574050 0.1000000 0.3885850
v -0.5000000 0.1000000 0.4000000
v -0.5000000 0.1000000 0.2500000
v -0.6060650 0.1000000 0.3560650
v -0.5574050 0.1000000 0.3885850
v -0.5000000 0.1000000 0.2500000
v -0.6385850 0.1000000 0.3074050
v -0.6060650 0.1000000 0.3560650
v -0.5000000 0.1000000 0.2500000
v -0.6500000 0.1000000 0.2500000
v -0.6385850 0.1000000 0.3074050
v -0.5000000 0.1000000 0.2500000
v -0.6385850 0.1000000 0.1925950
v -0.6500000 0.1000000 0.2500000
v -0.5000000 0.1000000 0.2500000
v -0.6060650 0.1000000 0.1439350
v -0.6385850 0.1000000 0.1925950
v -0.5000000 0.1000000 0.2500000
v -0.5574050 0.1000000 0.1114150
v -0.6060650 0.1000000 0.1439350
v -0.5000000 0.1000000 0.2500000
v -0.5000000 0.1000000 0.1000000
v -0.5574050 0.1000000 0.1114150
v -0.5000000 0.1000000 0.2500000
v -0.4425950 0.1000000 0.1114150
v -0.5000000 0.1000000 0.1000000
v -0.5000000 0.1000000 0.2500000
v -0.3939350 0.1000000 0.1439350
v -0.4425950 0.1000000 0.1114150
v -0.5000000 0.1000000 0.2500000
v -0.3614150 0.1000000 0.1925950
v -0.3939350 0.1000000 0.1439350
v -0.5000000 0.1000000 0.2500000
v -0.3500000 0.1000000 0.2500000
v -0.3614150 0.1000000 0.1925950
v -0.5000000 0.1000000 0.2500000
v 0.1500000 0.1000000 0.2500000
v 0.1385850 0.1000000 0.3074050
v 0.1385850 -0.0000000 0.3074050
v 0.1500000 -0.0000000 0.2500000
v 0.1385850 0.1000000 0.3074050
v 0.1060650 0.1000000 0.3560650
v 0.1060650 -0.0000000 0.3560650
v 0.1385850 -0.0000000 0.3074050
v 0.1060650 0.1000000 0.3560650
v 0.0574050 0.1000000 0.3885850
v 0.0574050 -0.0000000 0.3885850
v 0.1060650 -0.0000000 0.3560650
v 0.0574050 0.1000000 0.3885850
v 0.0000000 0.1000000 0.4000000
v 0.0000000 -0.0000000 0.4000000
v 0.0574050 -0.0000000 0.3885850
v 0.0000000 0.1000000 0.4000000
v -0.0574050 0.1000000 0.3885850
v -0.0574050 -0.0000000 0.3885850
v 0.0000000 -0.0000000 0.4000000
v -0.0574050 0.1000000 0.3885850
v -0.1060650 0.1000000 0.3560650
v -0.1060650 -0.0000000 0.3560650
v -0.0574050 -0.0000000 0.3885850
v -0.1060650 0.1000000 0.3560650
v -0.1385850 0.1000000 0.3074050
v -0.1385850 -0.0000000 0.3074050
v -0.1060650 -0.0000000 0.3560650
v -0.1385850 0.1000000 0.3074050
v -0.1500000 0.1000000 0.2500000
v -0.1500000 -0.0000000 0.2500000
v -0.1385850 -0.0000000 0.3074050
v -0.1500000 0.1000000 0.2500000
v -0.1385850 0.1000000 0.1925950
v -0.1385850 -0.0000000 0.1925950
v -0.1500000 -0.0000000 0.2500000
v -0.1385850 0.1000000 0.1925950
v -0.1060650 0.1000000 0.1439350
v -0.1060650 -0.0000000 0.1439350
v -0.1385850 -0.0000000 0.1925950
v -0.1060650 0.1000000 0.1439350
v -0.0574050 0.1000000 0.1114150
v -0.0574050 -0.0000000 0.1114150
v -0.1060650 -0.0000000 0.1439350
v -0.0574050 0.1000000 0.1114150
v 0.0000000 0.1000000 0.1000000
v 0.0000000 -0.0000000 0.1000000
v -0.0574050 -0.0000000 0.1114150
v 0.0000000 0.1000000 0.1000000
v 0.0574050 0.1000000 0.1114150
v 0.0574050 -0.0000000 0.1114150
v 0.0000000 -0.0000000 0.1000000
v 0.0574050 0.1000000 0.1114150
v 0.1060650 0.1000000 0.1439350
v 0.1060650 -0.0000000 0.1439350
v 0.0574050 -0.0000000 0.1114150
v 0.1060650 0.1000000 0.1439350
v 0.1385850 0.1000000 0.1925950
v 0.1385850 -0.0000000 0.1925950
v 0.1060650 -0.0000000 0.1439350
v 0.1385850 0.1000000 0.1925950
v 0.1500000 0.1000000 0.2500000
v 0.1500000 -0.0000000 0.2500000
v 0.1385850 -0.0000000 0.1925950
v 0.1385850 0.1000000 0.3074050
v 0.1500000 0.1000000 0.2500000
v 0.0000000 0.1000000 0.2500000
v 0.1060650 0.1000000 0.3560650
v 0.1385850 0.1000000 0.3074050
v 0.0000000 0.1000000 0.2500000
v 0.0574050 0.1000000 0.3885850
v 0.1060650 0.1000000 0.3560650
v 0.0000000 0.1000000 0.2500000
v 0.0000000 0.1000000 0.4000000
v 0.0574050 0.1000000 0.3885850
v 0.0000000 0.1000000 0.2500000
v -0.0574050 0.1000000 0.3885850
v 0.0000000 0.1000000 0.4000000
v 0.0000000 0.1000000 0.2500000
v -0.1060650 0.1000000 0.3560650
v -0.0574050 0.1000000 0.3885850
v 0.0000000 0.1000000 0.2500000
v -0.1385850 0.1000000 0.3074050
v -0.1060650 0.1000000 0.3560650
v 0.0000000 0.1000000 0.2500000
v -0.1500000 0.1000000 0.2500000
v -0.1385850 0.1000000 0.3074050
v 0.0000000 0.1000000 0.2500000
v -0.1385850 0.1000000 0.1925950
v -0.1500000 0.1000000 0.2500000
v 0.0000000 0.1000000 0.2500000
v -0.1060650 0.1000000 0.1439350
v -0.1385850 0.1000000 0.1925950
v 0.0000000 0.1000000 0.2500000
v -0.0574050 0.1000000 0.1114150
v -0.1060650 0.1000000 0.1439350
v 0.0000000 0.1000000 0.2500000
v 0.0000000 0.1000000 0.1000000
v -0.0574050 0.1000000 0.1114150
v 0.0000000 0.1000000 0.2500000
v 0.0574050 0.1000000 0.1114150
v 0.0000000 0.1000000 0.1000000
v 0.0000000 0.1000000 0.2500000
v 0.1060650 0.1000000 0.1439350
v 0.0574050 0.1000000 0.1114150
v 0.0000000 0.1000000 0.2500000
v 0.1385850 0.1000000 0.1925950
v 0.1060650 0.1000000 0.1439350
v 0.0000000 0.1000000 0.2500000
v 0.1500000 0.1000000 0.2500000
v 0.1385850 0.1000000 0.1925950
v 0.0000000 0.1000000 0.2500000
v -0.5500000 -0.1000000 -0.4250000
v -0.5538050 -0.1000000 -0.4058650
v -0.5538050 -0.0000000 -0.4058650
v -0.5500000 -0.0000000 -0.4250000
v -0.5538050 -0.1000000 -0.4058650
v -0.5646450 -0.1000000 -0.3896450
v -0.5646450 -0.0000000 -0.3896450
v -0.5538050 -0.0000000 -0.4058650
v -0.5646450 -0.1000000 -0.3896450
v -0.5808650 -0.1000000 -0.3788050
v -0.5808650 -0.0000000 -0.3788050
v -0.5646450 -0.0000000 -0.3896450
v -0.5808650 -0.1000000 -0.3788050
v -0.6000000 -0.1000000 -0.3750000
v -0.6000000 -0.0000000 -0.3750000
v -0.5808650 -0.0000000 -0.3788050
v -0.6000000 -0.1000000 -0.3750000
v -0.6191350 -0.1000000 -0.3788050
v -0.6191350 -0.0000000 -0.3788050
v -0.6000000 -0.0000000 -0.3750000
v -0.6191350 -0.1000000 -0.3788050
v -0.6353550 -0.1000000 -0.3896450
v -0.6353550 -0.0000000 -0.3896450
v -0.6191350 -0.0000000 -0.3788050
v -0.6353550 -0.1000000 -0.3896450
v -0.6461950 -0.1000000 -0.4058650
v -0.6461950 -0.0000000 -0.4058650
v -0.6353550 -0.0000000 -0.3896450
v -0.6461950 -0.1000000 -0.4058650
v -0.6500000 -0.1000000 -0.4250000
v -0.6500000 -0.0000000 -0.4250000
v -0.6461950 -0.0000000 -0.4058650
v -0.6500000 -0.1000000 -0.4250000
v -0.6461950 -0.1000000 -0.4441350
v -0.6461950 -0.0000000 -0.4441350
v -0.6500000 -0.0000000 -0.4250000
v -0.6461950 -0.1000000 -0.4441350
v -0.6353550 -0.1000000 -0.4603550
v -0.6353550 -0.0000000 -0.4603550
v -0.6461950 -0.0000000 -0.4441350
v -0.6353550 -0.1000000 -0.4603550
v -0.6191350 -0.1000000 -0.4711950
v -0.6191350 -0.0000000 -0.4711950
v -0.6353550 -0.0000000 -0.4603550
v -0.6191350 -0.1000000 -0.4711950
v -0.6000000 -0.1000000 -0.4750000
v -0.6000000 -0.0000000 -0.4750000
v -0.6191350 -0.0000000 -0.4711950
v -0.6000000 -0.1000000 -0.4750000
v -0.5808650 -0.1000000 -0.4711950
v -0.5808650 -0.0000000 -0.4711950
v -0.6000000 -0.0000000 -0.4750000
v -0.5808650 -0.1000000 -0.4711950
v -0.5646450 -0.1000000 -0.4603550
v -0.5646450 -0.0000000 -0.4603550
v -0.5808650 -0.0000000 -0.4711950
v -0.5646450 -0.1000000 -0.4603550
v -0.5538050 -0.1000000 -0.4441350
v -0.5538050 -0.0000000 -0.4441350
v -0.5646450 -0.0000000 -0.4603550
v -0.5538050 -0.1000000 -0.4441350
v -0.5500000 -0.1000000 -0.4250000
v -0.5500000 -0.0000000 -0.4250000
v -0.5538050 -0.0000000 -0.4441350
v -0.5500000 -0.0000000 -0.3750000
v -0.5500000 -0.0000000 -0.4250000
v -0.5538050 -0.0000000 -0.4058650
v -0.5500000 -0.0000000 -0.3750000
v -0.5538050 -0.0000000 -0.4058650
v -0.5646450 -0.0000000 -0.3896450
v -0.5500000 -0.0000000 -0.3750000
v -0.5646450 -0.0000000 -0.3896450
v -0.5808650 -0.0000000 -0.3788050
v -0.5500000 -0.0000000 -0.3750000
v -0.5808650 -0.0000000 -0.3788050
v -0.6000000 -0.0000000 -0.3750000
v -0.6500000 -0.0000000 -0.3750000
v -0.6000000 -0.0000000 -0.3750000
v -0.6191350 -0.0000000 -0.3788050
v -0.6500000 -0.0000000 -0.3750000
v -0.6191350 -0.0000000 -0.3788050
v -0.6353550 -0.0000000 -0.3896450
v -0.6500000 -0.0000000 -0.3750000
v -0.6353550 -0.0000000 -0.3896450
v -0.6461950 -0.0000000 -0.4058650
v -0.6500000 -0.0000000 -0.3750000
v -0.6461950 -0.0000000 -0.4058650
v -0.6500000 -0.0000000 -0.4250000
v -0.6500000 -0.0000000 -0.4750000
v -0.6500000 -0.0000000 -0.4250000
v -0.6461950 -0.0000000 -0.4441350
v -0.6500000 -0.0000000 -0.4750000
v -0.6461950 -0.0000000 -0.4441350
v -0.6353550 -0.0000000 -0.4603550
v -0.6500000 -0.0000000 -0.4750000
v -0.6353550 -0.0000000 -0.4603550
v -0.6191350 -0.0000000 -0.4711950
v -0.6500000 -0.0000000 -0.4750000
v -0.6191350 -0.0000000 -0.4711950
v -0.6000000 -0.0000000 -0.4750000
v -0.5500000 -0.0000000 -0.4750000
v -0.6000000 -0.0000000 -0.4750000
v -0.5808650 -0.0000000 -0.4711950
v -0.5500000 -0.0000000 -0.4750000
v -0.5808650 -0.0000000 -0.4711950
v -0.5646450 -0.0000000 -0.4603550
v -0.5500000 -0.0000000 -0.4750000
v -0.5646450 -0.0000000 -0.4603550
v -0.5538050 -0.0000000 -0.4441350
v -0.5500000 -0.0000000 -0.4750000
v -0.5538050 -0.0000000 -0.4441350
v -0.5500000 -0.0000000 -0.4250000
v -0.5500000 -0.1000000 -0.4750000
v -0.5500000 -0.1000000 -0.4250000
v -0.5538050 -0.1000000 -0.4441350
v -0.5500000 -0.1000000 -0.4750000
v -0.5538050 -0.1000000 -0.4441350
v -0.5646450 -0.1000000 -0.4603550
v -0.5500000 -0.1000000 -0.4750000
v -0.5646450 -0.1000000 -0.4603550
v -0.5808650 -0.1000000 -0.4711950
v -0.5500000 -0.1000000 -0.4750000
v -0.5808650 -0.1000000 -0.4711950
v -0.6000000 -0.1000000 -0.4750000
v -0.6500000 -0.1000000 -0.4750000
v -0.6000000 -0.1000000 -0.4750000
v -0.6191350 -0.1000000 -0.4711950
v -0.6500000 -0.1000000 -0.4750000
v -0.6191350 -0.1000000 -0.4711950
v -0.6353550 -0.1000000 -0.4603550
v -0.6500000 -0.1000000 -0.4750000
v -0.6353550 -0.1000000 -0.4603550
v -0.6461950 -0.1000000 -0.4441350
v -0.6500000 -0.1000000 -0.4750000
v -0.6461950 -0.1000000 -0.4441350
v -0.6500000 -0.1000000 -0.4250000
v -0.6500000 -0.1000000 -0.3750000
v -0.6500000 -0.1000000 -0.4250000
v -0.6461950 -0.1000000 -0.4058650
v -0.6500000 -0.1000000 -0.3750000
v -0.6461950 -0.1000000 -0.4058650
v -0.6353550 -0.1000000 -0.3896450
v -0.6500000 -0.1000000 -0.3750000
v -0.6353550 -0.1000000 -0.3896450
v -0.6191350 -0.1000000 -0.3788050
v -0.6500000 -0.1000000 -0.3750000
v -0.6191350 -0.1000000 -0.3788050
v -0.6000000 -0.1000000 -0.3750000
v -0.5500000 -0.1000000 -0.3750000
v -0.6000000 -0.1000000 -0.3750000
v -0.5808650 -0.1000000 -0.3788050
v -0.5500000 -0.1000000 -0.3750000
v -0.5808650 -0.1000000 -0.3788050
v -0.5646450 -0.1000000 -0.3896450
v -0.5500000 -0.1000000 -0.3750000
v -0.5646450 -0.1000000 -0.3896450
v -0.5538050 -0.1000000 -0.4058650
v -0.5500000 -0.1000000 -0.3750000
v -0.5538050 -0.1000000 -0.4058650
v -0.5500000 -0.1000000 -0.4250000
v -0.5500000 -2.3000000 -0.4250000
v -0.5538050 -2.3000000 -0.4058650
v -0.5538050 -2.2000000 -0.4058650
v -0.5500000 -2.2000000 -0.4250000
v -0.5538050 -2.3000000 -0.4058650
v -0.5646450 -2.3000000 -0.3896450
v -0.5646450 -2.2000000 -0.3896450
v -0.5538050 -2.2000000 -0.4058650
v -0.5646450 -2.3000000 -0.3896450
v -0.5808650 -2.3000000 -0.3788050
v -0.5808650 -2.2000000 -0.3788050
v -0.5646450 -2.2000000 -0.3896450
v -0.5808650 -2.3000000 -0.3788050
v -0.6000000 -2.3000000 -0.3750000
v -0.6000000 -2.2000000 -0.3750000
v -0.5808650 -2.2000000 -0.3788050
v -0.6000000 -2.3000000 -0.3750000
v -0.6191350 -2.3000000 -0.3788050
v -0.6191350 -2.2000000 -0.3788050
v -0.6000000 -2.2000000 -0.3750000
v -0.6191350 -2.3000000 -0.3788050
v -0.6353550 -2.3000000 -0.3896450
v -0.6353550 -2.2000000 -0.3896450
v -0.6191350 -2.2000000 -0.3788050
v -0.6353550 -2.3000000 -0.3896450
v -0.6461950 -2.3000000 -0.4058650
v -0.6461950 -2.2000000 -0.4058650
v -0.6353550 -2.2000000 -0.3896450
v -0.6461950 -2.3000000 -0.4058650
v -0.6500000 -2.3000000 -0.4250000
v -0.6500000 -2.2000000 -0.4250000
v -0.6461950 -2.2000000 -0.4058650
v -0.6500000 -2.3000000 -0.4250000
v -0.6461950 -2.3000000 -0.4441350
v -0.6461950 -2.2000000 -0.4441350
v -0.6500000 -2.2000000 -0.4250000
v -0.6461950 -2.3000000 -0.4441350
v -0.6353550 -2.3000000 -0.4603550
v -0.6353550 -2.2000000 -0.4603550
v -0.6461950 -2.2000000 -0.4441350
v -0.6353550 -2.3000000 -0.4603550
v -0.6191350 -2.3000000 -0.4711950
v -0.6191350 -2.2000000 -0.4711950
v -0.6353550 -2.2000000 -0.4603550
v -0.6191350 -2.3000000 -0.4711950
v -0.6000000 -2.3000000 -0.4750000
v -0.6000000 -2.2000000 -0.4750000
v -0.6191350 -2.2000000 -0.4711950
v -0.6000000 -2.3000000 -0.4750000
v -0.5808650 -2.3000000 -0.4711950
v -0.5808650 -2.2000000 -0.4711950
v -0.6000000 -2.2000000 -0.4750000
v -0.5808650 -2.3000000 -0.4711950
v -0.5646450 -2.3000000 -0.4603550
v -0.5646450 -2.2000000 -0.4603550
v -0.5808650 -2.2000000 -0.4711950
v -0.5646450 -2.3000000 -0.4603550
v -0.5538050 -2.3000000 -0.4441350
v -0.5538050 -2.2000000 -0.4441350
v -0.5646450 -2.2000000 -0.4603550
v -0.5538050 -2.3000000 -0.4441350
v -0.5500000 -2.3000000 -0.4250000
v -0.5500000 -2.2000000 -0.4250000
v -0.5538050 -2.2000000 -0.4441350
v -0.6461950 -2.4000000 -0.4441350
v -0.6461950 -2.3000000 -0.4441350
v -0.6500000 -2.3000000 -0.4250000
v -0.6500000 -2.4000000 -0.4250000
v -0.6353550 -2.4000000 -0.4603550
v -0.6353550 -2.3000000 -0.4603550
v -0.6461950 -2.3000000 -0.4441350
v -0.6461950 -2.4000000 -0.4441350
v -0.6191350 -2.4000000 -0.4711950
v -0.6191350 -2.3000000 -0.4711950
v -0.6353550 -2.3000000 -0.4603550
v -0.6353550 -2.4000000 -0.4603550
v -0.6000000 -2.4000000 -0.4750000
v -0.6000000 -2.3000000 -0.4750000
v -0.6191350 -2.3000000 -0.4711950
v -0.6191350 -2.4000000 -0.4711950
v -0.5808650 -2.4000000 -0.4711950
v -0.5808650 -2.3000000 -0.4711950
v -0.6000000 -2.3000000 -0.4750000
v -0.6000000 -2.4000000 -0.4750000
v -0.5646450 -2.4000000 -0.4603550
v -0.5646450 -2.3000000 -0.4603550
v -0.5808650 -2.3000000 -0.4711950
v -0.5808650 -2.4000000 -0.4711950
v -0.5538050 -2.4000000 -0.4441350
v -0.5538050 -2.3000000 -0.4441350
v -0.5646450 -2.3000000 -0.4603550
v -0.5646450 -2.4000000 -0.4603550
v -0.5500000 -2.4000000 -0.4250000
v -0.5500000 -2.3000000 -0.4250000
v -0.5538050 -2.3000000 -0.4441350
v -0.5538050 -2.4000000 -0.4441350
v -0.5500000 -2.4000000 -0.4750000
v -0.5500000 -2.4000000 -0.4250000
v -0.5538050 -2.4000000 -0.4441350
v -0.5500000 -2.4000000 -0.4750000
v -0.5538050 -2.4000000 -0.4441350
v -0.5646450 -2.4000000 -0.4603550
v -0.5500000 -2.4000000 -0.4750000
v -0.5646450 -2.4000000 -0.4603550
v -0.5808650 -2.4000000 -0.4711950
v -0.5500000 -2.4000000 -0.4750000
v -0.5808650 -2.4000000 -0.4711950
v -0.6000000 -2.4000000 -0.4750000
v -0.6500000 -2.4000000 -0.4750000
v -0.6000000 -2.4000000 -0.4750000
v -0.6191350 -2.4000000 -0.4711950
v -0.6500000 -2.4000000 -0.4750000
v -0.6191350 -2.4000000 -0.4711950
v -0.6353550 -2.4000000 -0.4603550
v -0.6500000 -2.4000000 -0.4750000
v -0.6353550 -2.4000000 -0.4603550
v -0.6461950 -2.4000000 -0.4441350
v -0.6500000 -2.4000000 -0.4750000
v -0.6461950 -2.4000000 -0.4441350
v -0.6500000 -2.4000000 -0.4250000
v -0.5500000 -2.2000000 -0.3750000
v -0.5500000 -2.2000000 -0.4250000
v -0.5538050 -2.2000000 -0.4058650
v -0.5500000 -2.2000000 -0.3750000
v -0.5538050 -2.2000000 -0.4058650
v -0.5646450 -2.2000000 -0.3896450
v -0.5500000 -2.2000000 -0.3750000
v -0.5646450 -2.2000000 -0.3896450
v -0.5808650 -2.2000000 -0.3788050
v -0.5500000 -2.2000000 -0.3750000
v -0.5808650 -2.2000000 -0.3788050
v -0.6000000 -2.2000000 -0.3750000
v -0.6500000 -2.2000000 -0.3750000
v -0.6000000 -2.2000000 -0.3750000
v -0.6191350 -2.2000000 -0.3788050
v -0.6500000 -2.2000000 -0.3750000
v -0.6191350 -2.2000000 -0.3788050
v -0.6353550 -2.2000000 -0.3896450
v -0.6500000 -2.2000000 -0.3750000
v -0.6353550 -2.2000000 -0.3896450
v -0.6461950 -2.2000000 -0.4058650
v -0.6500000 -2.2000000 -0.3750000
v -0.6461950 -2.2000000 -0.4058650
v -0.6500000 -2.2000000 -0.4250000
v -0.6500000 -2.2000000 -0.4750000
v -0.6500000 -2.2000000 -0.4250000
v -0.6461950 -2.2000000 -0.4441350
v -0.6500000 -2.2000000 -0.4750000
v -0.6461950 -2.2000000 -0.4441350
v -0.6353550 -2.2000000 -0.4603550
v -0.6500000 -2.2000000 -0.4750000
v -0.6353550 -2.2000000 -0.4603550
v -0.6191350 -2.2000000 -0.4711950
v -0.6500000 -2.2000000 -0.4750000
v -0.6191350 -2.2000000 -0.4711950
v -0.6000000 -2.2000000 -0.4750000
v -0.5500000 -2.2000000 -0.4750000
v -0.6000000 -2.2000000 -0.4750000
v -0.5808650 -2.2000000 -0.4711950
v -0.5500000 -2.2000000 -0.4750000
v -0.5808650 -2.2000000 -0.4711950
v -0.5646450 -2.2000000 -0.4603550
v -0.5500000 -2.2000000 -0.4750000
v -0.5646450 -2.2000000 -0.4603550
v -0.5538050 -2.2000000 -0.4441350
v -0.5500000 -2.2000000 -0.4750000
v -0.5538050 -2.2000000 -0.4441350
v -0.5500000 -2.2000000 -0.4250000
v -0.6500000 -2.3000000 -0.3750000
v -0.6500000 -2.3000000 -0.4250000
v -0.6461950 -2.3000000 -0.4058650
v -0.6500000 -2.3000000 -0.3750000
v -0.6461950 -2.3000000 -0.4058650
v -0.6353550 -2.3000000 -0.3896450
v -0.6500000 -2.3000000 -0.3750000
v -0.6353550 -2.3000000 -0.3896450
v -0.6191350 -2.3000000 -0.3788050
v -0.6500000 -2.3000000 -0.3750000
v -0.6191350 -2.3000000 -0.3788050
v -0.6000000 -2.3000000 -0.3750000
v -0.5500000 -2.3000000 -0.3750000
v -0.6000000 -2.3000000 -0.3750000
v -0.5808650 -2.3000000 -0.3788050
v -0.5500000 -2.3000000 -0.3750000
v -0.5808650 -2.3000000 -0.3788050
v -0.5646450 -2.3000000 -0.3896450
v -0.5500000 -2.3000000 -0.3750000
v -0.5646450 -2.3000000 -0.3896450
v -0.5538050 -2.3000000 -0.4058650
v -0.5500000 -2.3000000 -0.3750000
v -0.5538050 -2.3000000 -0.4058650
v -0.5500000 -2.3000000 -0.4250000
v 0.5538050 -2.4000000 -0.4441350
v 0.5538050 -2.3000000 -0.4441350
v 0.5500000 -2.3000000 -0.4250000
v 0.5500000 -2.4000000 -0.4250000
v 0.5646450 -2.4000000 -0.4603550
v 0.5646450 -2.3000000 -0.4603550
v 0.5538050 -2.3000000 -0.4441350
v 0.5538050 -2.4000000 -0.4441350
v 0.5808650 -2.4000000 -0.4711950
v 0.5808650 -2.3000000 -0.4711950
v 0.5646450 -2.3000000 -0.4603550
v 0.5646450 -2.4000000 -0.4603550
v 0.6000000 -2.4000000 -0.4750000
v 0.6000000 -2.3000000 -0.4750000
v 0.5808650 -2.3000000 -0.4711950
v 0.5808650 -2.4000000 -0.4711950
v 0.6191350 -2.4000000 -0.4711950
v 0.6191350 -2.3000000 -0.4711950
v 0.6000000 -2.3000000 -0.4750000
v 0.6000000 -2.4000000 -0.4750000
v 0.6353550 -2.4000000 -0.4603550
v 0.6353550 -2.3000000 -0.4603550
v 0.6191350 -2.3000000 -0.4711950
v 0.6191350 -2.4000000 -0.4711950
v 0.6461950 -2.4000000 -0.4441350
v 0.6461950 -2.3000000 -0.4441350
v 0.6353550 -2.3000000 -0.4603550
v 0.6353550 -2.4000000 -0.4603550
v 0.6500000 -2.4000000 -0.4250000
v 0.6500000 -2.3000000 -0.4250000
v 0.6461950 -2.3000000 -0.4441350
v 0.6461950 -2.4000000 -0.4441350
v 0.6500000 -2.4000000 -0.4750000
v 0.6500000 -2.4000000 -0.4250000
v 0.6461950 -2.4000000 -0.4441350
v 0.6500000 -2.4000000 -0.4750000
v 0.6461950 -2.4000000 -0.4441350
v 0.6353550 -2.4000000 -0.4603550
v 0.6500000 -2.4000000 -0.4750000
v 0.6353550 -2.4000000 -0.4603550
v 0.6191350 -2.4000000 -0.4711950
v 0.6500000 -2.4000000 -0.4750000
v 0.6191350 -2.4000000 -0.4711950
v 0.6000000 -2.4000000 -0.4750000
v 0.5500000 -2.4000000 -0.4750000
v 0.6000000 -2.4000000 -0.4750000
v 0.5808650 -2.4000000 -0.4711950
v 0.5500000 -2.4000000 -0.4750000
v 0.5808650 -2.4000000 -0.4711950
v 0.5646450 -2.4000000 -0.4603550
v 0.5500000 -2.4000000 -0.4750000
v 0.5646450 -2.4000000 -0.4603550
v 0.5538050 -2.4000000 -0.4441350
v 0.5500000 -2.4000000 -0.4750000
v 0.5538050 -2.4000000 -0.4441350
v 0.5500000 -2.4000000 -0.4250000
v 0.5500000 -2.3000000 -0.3750000
v 0.5500000 -2.3000000 -0.4250000
v 0.5538050 -2.3000000 -0.4058650
v 0.5500000 -2.3000000 -0.3750000
v 0.5538050 -2.3000000 -0.4058650
v 0.5646450 -2.3000000 -0.3896450
v 0.5500000 -2.3000000 -0.3750000
v 0.5646450 -2.3000000 -0.3896450
v 0.5808650 -2.3000000 -0.3788050
v 0.5500000 -2.3000000 -0.3750000
v 0.5808650 -2.3000000 -0.3788050
v 0.6000000 -2.3000000 -0.3750000
v 0.6500000 -2.3000000 -0.3750000
v 0.6000000 -2.3000000 -0.3750000
v 0.6191350 -2.3000000 -0.3788050
v 0.6500000 -2.3000000 -0.3750000
v 0.6191350 -2.3000000 -0.3788050
v 0.6353550 -2.3000000 -0.3896450
v 0.6500000 -2.3000000 -0.3750000
v 0.6353550 -2.3000000 -0.3896450
v 0.6461950 -2.3000000 -0.4058650
v 0.6500000 -2.3000000 -0.3750000
v 0.6461950 -2.3000000 -0.4058650
v 0.6500000 -2.3000000 -0.4250000
v 0.6500000 -2.3000000 -0.4250000
v 0.6461950 -2.3000000 -0.4058650
v 0.6461950 -2.2000000 -0.4058650
v 0.6500000 -2.2000000 -0.4250000
v 0.6461950 -2.3000000 -0.4058650
v 0.6353550 -2.3000000 -0.3896450
v 0.6353550 -2.2000000 -0.3896450
v 0.6461950 -2.2000000 -0.4058650
v 0.6353550 -2.3000000 -0.3896450
v 0.6191350 -2.3000000 -0.3788050
v 0.6191350 -2.2000000 -0.3788050
v 0.6353550 -2.2000000 -0.3896450
v 0.6191350 -2.3000000 -0.3788050
v 0.6000000 -2.3000000 -0.3750000
v 0.6000000 -2.2000000 -0.3750000
v 0.6191350 -2.2000000 -0.3788050
v 0.6000000 -2.3000000 -0.3750000
v 0.5808650 -2.3000000 -0.3788050
v 0.5808650 -2.2000000 -0.3788050
v 0.6000000 -2.2000000 -0.3750000
v 0.5808650 -2.3000000 -0.3788050
v 0.5646450 -2.3000000 -0.3896450
v 0.5646450 -2.2000000 -0.3896450
v 0.5808650 -2.2000000 -0.3788050
v 0.5646450 -2.3000000 -0.3896450
v 0.5538050 -2.3000000 -0.4058650
v 0.5538050 -2.2000000 -0.4058650
v 0.5646450 -2.2000000 -0.3896450
v 0.5538050 -2.3000000 -0.4058650
v 0.5500000 -2.3000000 -0.4250000
v 0.5500000 -2.2000000 -0.4250000
v 0.5538050 -2.2000000 -0.4058650
v 0.5500000 -2.3000000 -0.4250000
v 0.5538050 -2.3000000 -0.4441350
v 0.5538050 -2.2000000 -0.4441350
v 0.5500000 -2.2000000 -0.4250000
v 0.5538050 -2.3000000 -0.4441350
v 0.5646450 -2.3000000 -0.4603550
v 0.5646450 -2.2000000 -0.4603550
v 0.5538050 -2.2000000 -0.4441350
v 0.5646450 -2.3000000 -0.4603550
v 0.5808650 -2.3000000 -0.4711950
v 0.5808650 -2.2000000 -0.4711950
v 0.5646450 -2.2000000 -0.4603550
v 0.5808650 -2.3000000 -0.4711950
v 0.6000000 -2.3000000 -0.4750000
v 0.6000000 -2.2000000 -0.4750000
v 0.5808650 -2.2000000 -0.4711950
v 0.6000000 -2.3000000 -0.4750000
v 0.6191350 -2.3000000 -0.4711950
v 0.6191350 -2.2000000 -0.4711950
v 0.6000000 -2.2000000 -0.4750000
v 0.6191350 -2.3000000 -0.4711950
v 0.6353550 -2.3000000 -0.4603550
v 0.6353550 -2.2000000 -0.4603550
v 0.6191350 -2.2000000 -0.4711950
v 0.6353550 -2.3000000 -0.4603550
v 0.6461950 -2.3000000 -0.4441350
v 0.6461950 -2.2000000 -0.4441350
v 0.6353550 -2.2000000 -0.4603550
v 0.6461950 -2.3000000 -0.4441350
v 0.6500000 -2.3000000 -0.4250000
v 0.6500000 -2.2000000 -0.4250000
v 0.6461950 -2.2000000 -0.4441350
v 0.6500000 -2.2000000 -0.3750000
v 0.6500000 -2.2000000 -0.4250000
v 0.6461950 -2.2000000 -0.4058650
v 0.6500000 -2.2000000 -0.3750000
v 0.6461950 -2.2000000 -0.4058650
v 0.6353550 -2.2000000 -0.3896450
v 0.6500000 -2.2000000 -0.3750000
v 0.6353550 -2.2000000 -0.3896450
v 0.6191350 -2.2000000 -0.3788050
v 0.6500000 -2.2000000 -0.3750000
v 0.6191350 -2.2000000 -0.3788050
v 0.6000000 -2.2000000 -0.3750000
v 0.5500000 -2.2000000 -0.3750000
v 0.6000000 -2.2000000 -0.3750000
v 0.5808650 -2.2000000 -0.3788050
v 0.5500000 -2.2000000 -0.3750000
v 0.5808650 -2.2000000 -0.3788050
v 0.5646450 -2.2000000 -0.3896450
v 0.5500000 -2.2000000 -0.3750000
v 0.5646450 -2.2000000 -0.3896450
v 0.5538050 -2.2000000 -0.4058650
v 0.5500000 -2.2000000 -0.3750000
v 0.5538050 -2.2000000 -0.4058650
v 0.5500000 -2.2000000 -0.4250000
v 0.5500000 -2.2000000 -0.4750000
v 0.5500000 -2.2000000 -0.4250000
v 0.5538050 -2.2000000 -0.4441350
v 0.5500000 -2.2000000 -0.4750000
v 0.5538050 -2.2000000 -0.4441350
v 0.5646450 -2.2000000 -0.4603550
v 0.5500000 -2.2000000 -0.4750000
v 0.5646450 -2.2000000 -0.4603550
v 0.5808650 -2.2000000 -0.4711950
v 0.5500000 -2.2000000 -0.4750000
v 0.5808650 -2.2000000 -0.4711950
v 0.6000000 -2.2000000 -0.4750000
v 0.6500000 -2.2000000 -0.4750000
v 0.6000000 -2.2000000 -0.4750000
v 0.6191350 -2.2000000 -0.4711950
v 0.6500000 -2.2000000 -0.4750000
v 0.6191350 -2.2000000 -0.4711950
v 0.6353550 -2.2000000 -0.4603550
v 0.6500000 -2.2000000 -0.4750000
v 0.6353550 -2.2000000 -0.4603550
v 0.6461950 -2.2000000 -0.4441350
v 0.6500000 -2.2000000 -0.4750000
v 0.6461950 -2.2000000 -0.4441350
v 0.6500000 -2.2000000 -0.4250000
v 0.6500000 -0.1000000 -0.4250000
v 0.6461950 -0.1000000 -0.4058650
v 0.6461950 -0.0000000 -0.4058650
v 0.6500000 -0.0000000 -0.4250000
v 0.6461950 -0.1000000 -0.4058650
v 0.6353550 -0.1000000 -0.3896450
v 0.6353550 -0.0000000 -0.3896450
v 0.6461950 -0.0000000 -0.4058650
v 0.6353550 -0.1000000 -0.3896450
v 0.6191350 -0.1000000 -0.3788050
v 0.6191350 -0.0000000 -0.3788050
v 0.6353550 -0.0000000 -0.3896450
v 0.6191350 -0.1000000 -0.3788050
v 0.6000000 -0.1000000 -0.3750000
v 0.6000000 -0.0000000 -0.3750000
v 0.6191350 -0.0000000 -0.3788050
v 0.6000000 -0.1000000 -0.3750000
v 0.5808650 -0.1000000 -0.3788050
v 0.5808650 -0.0000000 -0.3788050
v 0.6000000 -0.0000000 -0.3750000
v 0.5808650 -0.1000000 -0.3788050
v 0.5646450 -0.1000000 -0.3896450
v 0.5646450 -0.0000000 -0.3896450
v 0.5808650 -0.0000000 -0.3788050
v 0.5646450 -0.1000000 -0.3896450
v 0.5538050 -0.1000000 -0.4058650
v 0.5538050 -0.0000000 -0.4058650
v 0.5646450 -0.0000000 -0.3896450
v 0.5538050 -0.1000000 -0.4058650
v 0.5500000 -0.1000000 -0.4250000
v 0.5500000 -0.0000000 -0.4250000
v 0.5538050 -0.0000000 -0.4058650
v 0.5500000 -0.1000000 -0.4250000
v 0.5538050 -0.1000000 -0.4441350
v 0.5538050 -0.0000000 -0.4441350
v 0.5500000 -0.0000000 -0.4250000
v 0.5538050 -0.1000000 -0.4441350
v 0.5646450 -0.1000000 -0.4603550
v 0.5646450 -0.0000000 -0.4603550
v 0.5538050 -0.0000000 -0.4441350
v 0.5646450 -0.1000000 -0.4603550
v 0.5808650 -0.1000000 -0.4711950
v 0.5808650 -0.0000000 -0.4711950
v 0.5646450 -0.0000000 -0.4603550
v 0.5808650 -0.1000000 -0.4711950
v 0.6000000 -0.1000000 -0.4750000
v 0.6000000 -0.0000000 -0.4750000
v 0.5808650 -0.0000000 -0.4711950
v 0.6000000 -0.1000000 -0.4750000
v 0.6191350 -0.1000000 -0.4711950
v 0.6191350 -0.0000000 -0.4711950
v 0.6000000 -0.0000000 -0.4750000
v 0.6191350 -0.1000000 -0.4711950
v 0.6353550 -0.1000000 -0.4603550
v 0.6353550 -0.0000000 -0.4603550
v 0.6191350 -0.0000000 -0.4711950
v 0.6353550 -0.1000000 -0.4603550
v 0.6461950 -0.1000000 -0.4441350
v 0.6461950 -0.0000000 -0.4441350
v 0.6353550 -0.0000000 -0.4603550
v 0.6461950 -0.1000000 -0.4441350
v 0.6500000 -0.1000000 -0.4250000
v 0.6500000 -0.0000000 -0.4250000
v 0.6461950 -0.0000000 -0.4441350
v 0.6500000 -0.0000000 -0.3750000
v 0.6500000 -0.0000000 -0.4250000
v 0.6461950 -0.0000000 -0.4058650
v 0.6500000 -0.0000000 -0.3750000
v 0.6461950 -0.0000000 -0.4058650
v 0.6353550 -0.0000000 -0.3896450
v 0.6500000 -0.0000000 -0.3750000
v 0.6353550 -0.0000000 -0.3896450
v 0.6191350 -0.0000000 -0.3788050
v 0.6500000 -0.0000000 -0.3750000
v 0.6191350 -0.0000000 -0.3788050
v 0.6000000 -0.0000000 -0.3750000
v 0.5500000 -0.0000000 -0.3750000
v 0.6000000 -0.0000000 -0.3750000
v 0.5808650 -0.0000000 -0.3788050
v 0.5500000 -0.0000000 -0.3750000
v 0.5808650 -0.0000000 -0.3788050
v 0.5646450 -0.0000000 -0.3896450
v 0.5500000 -0.0000000 -0.3750000
v 0.5646450 -0.0000000 -0.3896450
v 0.5538050 -0.0000000 -0.4058650
v 0.5500000 -0.0000000 -0.3750000
v 0.5538050 -0.0000000 -0.4058650
v 0.5500000 -0.0000000 -0.4250000
v 0.5500000 -0.0000000 -0.4750000
v 0.5500000 -0.0000000 -0.4250000
v 0.5538050 -0.0000000 -0.4441350
v 0.5500000 -0.0000000 -0.4750000
v 0.5538050 -0.0000000 -0.4441350
v 0.5646450 -0.0000000 -0.4603550
v 0.5500000 -0.0000000 -0.4750000
v 0.5646450 -0.0000000 -0.4603550
v 0.5808650 -0.0000000 -0.4711950
v 0.5500000 -0.0000000 -0.4750000
v 0.5808650 -0.0000000 -0.4711950
v 0.6000000 -0.0000000 -0.4750000
v 0.6500000 -0.0000000 -0.4750000
v 0.6000000 -0.0000000 -0.4750000
v 0.6191350 -0.0000000 -0.4711950
v 0.6500000 -0.0000000 -0.4750000
v 0.6191350 -0.0000000 -0.4711950
v 0.6353550 -0.0000000 -0.4603550
v 0.6500000 -0.0000000 -0.4750000
v 0.6353550 -0.0000000 -0.4603550
v 0.6461950 -0.0000000 -0.4441350
v 0.6500000 -0.0000000 -0.4750000
v 0.6461950 -0.0000000 -0.4441350
v 0.6500000 -0.0000000 -0.4250000
v 0.6500000 -0.1000000 -0.4750000
v 0.6500000 -0.1000000 -0.4250000
v 0.6461950 -0.1000000 -0.4441350
v 0.6500000 -0.1000000 -0.4750000
v 0.6461950 -0.1000000 -0.4441350
v 0.6353550 -0.1000000 -0.4603550
v 0.6500000 -0.1000000 -0.4750000
v 0.6353550 -0.1000000 -0.4603550
v 0.6191350 -0.1000000 -0.4711950
v 0.6500000 -0.1000000 -0.4750000
v 0.6191350 -0.1000000 -0.4711950
v 0.6000000 -0.1000000 -0.4750000
v 0.5500000 -0.1000000 -0.4750000
v 0.6000000 -0.1000000 -0.4750000
v 0.5808650 -0.1000000 -0.4711950
v 0.5500000 -0.1000000 -0.4750000
v 0.5808650 -0.1000000 -0.4711950
v 0.5646450 -0.1000000 -0.4603550
v 0.5500000 -0.1000000 -0.4750000
v 0.5646450 -0.1000000 -0.4603550
v 0.5538050 -0.1000000 -0.4441350
v 0.5500000 -0.1000000 -0.4750000
v 0.5538050 -0.1000000 -0.4441350
v 0.5500000 -0.1000000 -0.4250000
v 0.5500000 -0.1000000 -0.3750000
v 0.5500000 -0.1000000 -0.4250000
v 0.5538050 -0.1000000 -0.4058650
v 0.5500000 -0.1000000 -0.3750000
v 0.5538050 -0.1000000 -0.4058650
v 0.5646450 -0.1000000 -0.3896450
v 0.5500000 -0.1000000 -0.3750000
v 0.5646450 -0.1000000 -0.3896450
v 0.5808650 -0.1000000 -0.3788050
v 0.5500000 -0.1000000 -0.3750000
v 0.5808650 -0.1000000 -0.3788050
v 0.6000000 -0.1000000 -0.3750000
v 0.6500000 -0.1000000 -0.3750000
v 0.6000000 -0.1000000 -0.3750000
v 0.6191350 -0.1000000 -0.3788050
v 0.6500000 -0.1000000 -0.3750000
v 0.6191350 -0.1000000 -0.3788050
v 0.6353550 -0.1000000 -0.3896450
v 0.6500000 -0.1000000 -0.3750000
v 0.6353550 -0.1000000 -0.3896450
v 0.6461950 -0.1000000 -0.4058650
v 0.6500000 -0.1000000 -0.3750000
v 0.6461950 -0.1000000 -0.4058650
v 0.6500000 -0.1000000 -0.4250000
v 0.6500000 -0.1000000 0.4000000
v -0.6500000 -0.1000000 0.4000000
v -0.6500000 -0.1000000 -0.3500000
v 0.6500000 -0.1000000 -0.3500000
v -0.6500000 -2.2000000 0.4000000
v 0.6500000 -2.2000000 0.4000000
v 0.6500000 -2.2000000 -0.3750000
v -0.6500000 -2.2000000 -0.3750000
s off
f 1 2 3
f 1 3 4
f 5 6 7
f 5 7 8
f 9 10 11
f 9 11 12
f 13 14 15
f 13 15 16
f 17 18 19
f 17 19 20
f 21 22 23
f 21 23 24
f 25 26 27
f 25 27 28
f 29 30 31
f 29 31 32
f 33 34 35
f 33 35 36
f 37 38 39
f 37 39 40
f 41 42 43
f 41 43 44
f 45 46 47
f 45 47 48
f 49 50 51
f 49 51 52
f 53 54 55
f 53 55 56
f 57 58 59
f 57 59 60
f 61 62 63
f 61 63 64
f 65 66 67
f 65 67 68
f 69 70 71
f 69 71 72
f 73 74 75
f 73 75 76
f 77 78 79
f 77 79 80
f 81 82 83
f 81 83 84
f 85 86 87
f 85 87 88
f 89 90 91
f 89 91 92
f 93 94 95
f 93 95 96
f 97 98 99
f 97 99 100
f 101 102 103
f 101 103 104
f 105 106 107
f 105 107 108
f 109 110 111
f 109 111 112
f 113 114 115
f 113 115 116
f 117 118 119
f 117 119 120
f 121 122 123
f 121 123 124
f 125 126 127
f 125 127 128
f 129 130 131
f 129 131 132
f 133 134 135
f 133 135 136
f 137 138 139
f 137 139 140
f 141 142 143
f 141 143 144
f 145 146 147
f 145 147 148
f 149 150 151
f 149 151 152
f 153 154 155
f 153 155 156
f 157 158 159
f 157 159 160
f 161 162 163
f 161 163 164
f 165 166 167
f 165 167 168
f 169 170 171
f 169 171 172
f 173 174 175
f 173 175 176
f 177 178 179
f 177 179 180
f 181 182 183
f 181 183 184
f 185 186 187
f 185 187 188
f 189 190 191
f 189 191 192
f 193 194 195
f 193 195 196
f 197 198 199
f 197 199 200
f 201 202 203
f 201 203 204
f 205 206 207
f 205 207 208
f 209 210 211
f 209 211 212
f 213 214 215
f 213 215 216
f 217 218 219
f 217 219 220
f 221 222 223
f 221 223 224
f 225 226 227
f 225 227 228
f 229 230 231
f 229 231 232
f 233 234 235
f 233 235 236
f 237 238 239
f 237 239 240
f 241 242 243
f 241 243 244
f 245 246 247
f 245 247 248
f 249 250 251
f 249 251 252
f 253 254 255
f 253 255 256
f 257 258 259
f 257 259 260
f 261 262 263
f 261 263 264
f 265 266 267
f 265 267 268
f 269 270 271
f 269 271 272
f 273 274 275
f 273 275 276
f 277 278 279
f 277 279 280
f 281 282 283
f 281 283 284
f 285 286 287
f 285 287 288
f 289 290 291
f 289 291 292
f 293 294 295
f 293 295 296
f 297 298 299
f 297 299 300
f 301 302 303
f 301 303 304
f 305 306 307
f 305 307 308
f 309 310 311
f 309 311 312
f 313 314 315
f 313 315 316
f 317 318 319
f 317 319 320
f 321 322 323
f 321 323 324
f 325 326 327
f 325 327 328
f 329 330 331
f 329 331 332
f 333 334 335
f 333 335 336
f 337 338 339
f 337 339 340
f 341 342 343
f 341 343 344
f 345 346 347
f 345 347 348
f 349 350 351
f 349 351 352
f 353 354 355
f 353 355 356
f 357 358 359
f 357 359 360
f 361 362 363
f 361 363 364
f 365 366 367
f 365 367 368
f 369 370 371
f 369 371 372
f 373 374 375
f 373 375 376
f 377 378 379
f 377 379 380
f 381 382 383
f 381 383 384
f 385 386 387
f 385 387 388
f 389 390 391
f 389 391 392
f 393 394 395
f 393 395 396
f 397 398 399
f 397 399 400
f 401 402 403
f 401 403 404
f 405 406 407
f 405 407 408
f 409 410 411
f 409 411 412
f 413 414 415
f 413 415 416
f 417 418 419
f 417 419 420
f 421 422 423
f 421 423 424
f 425 426 427
f 425 427 428
f 429 430 431
f 429 431 432
f 433 434 435
f 433 435 436
f 437 438 439
f 437 439 440
f 441 442 443
f 441 443 444
f 445 446 447
f 445 447 448
f 449 450 451
f 449 451 452
f 453 454 455
f 453 455 456
f 457 458 459
f 457 459 460
f 461 462 463
f 461 463 464
f 465 466 467
f 465 467 468
f 469 470 471
f 469 471 472
f 473 474 475
f 473 475 476
f 477 478 479
f 477 479 480
f 481 482 483
f 481 483 484
f 485 486 487
f 485 487 488
f 489 490 491
f 489 491 492
f 493 494 495
f 493 495 496
f 497 498 499
f 497 499 500
f 501 502 503
f 501 503 504
f 505 506 507
f 505 507 508
f 509 510 511
f 509 511 512
f 513 514 515
f 513 515 516
f 517 518 519
f 517 519 520
f 521 522 523
f 521 523 524
f 525 526 527
f 525 527 528
f 529 530 531
f 529 531 532
f 533 534 535
f 533 535 536
f 537 538 539
f 537 539 540
f 541 542 543
f 541 543 544
f 545 546 547
f 545 547 548
f 549 550 551
f 549 551 552
f 553 554 555
f 553 555 556
f 557 558 559
f 557 559 560
f 561 562 563
f 561 563 564
f 565 566 567
f 565 567 568
f 569 570 571
f 569 571 572
f 573 574 575
f 573 575 576
f 577 578 579
f 577 579 580
f 581 582 583
f 581 583 584
f 585 586 587
f 585 587 588
f 589 590 591
f 589 591 592
f 593 594 595
f 593 595 596
f 597 598 599
f 597 599 600
f 601 602 603
f 601 603 604
f 605 606 607
f 605 607 608
f 609 610 611
f 609 611 612
f 613 614 615
f 613 615 616
f 617 618 619
f 617 619 620
f 621 622 623
f 621 623 624
f 625 626 627
f 625 627 628
f 629 630 631
f 629 631 632
f 633 634 635
f 633 635 636
f 637 638 639
f 637 639 640
f 641 642 643
f 641 643 644
f 645 646 647
f 645 647 648
f 649 650 651
f 649 651 652
f 653 654 655
f 653 655 656
f 657 658 659
f 657 659 660
f 661 662 663
f 661 663 664
f 665 666 667
f 665 667 668
f 669 670 671
f 669 671 672
f 673 674 675
f 673 675 676
f 677 678 679
f 677 679 680
f 681 682 683
f 681 683 684
f 685 686 687
f 685 687 688
f 689 690 691
f 689 691 692
f 693 694 695
f 693 695 696
f 697 698 699
f 697 699 700
f 701 702 703
f 701 703 704
f 705 706 707
f 705 707 708
f 709 710 711
f 709 711 712
f 713 714 715
f 713 715 716
f 717 718 719
f 717 719 720
f 721 722 723
f 721 723 724
f 725 726 727
f 725 727 728
f 729 730 731
f 729 731 732
f 733 734 735
f 733 735 736
f 737 738 739
f 737 739 740
f 741 742 743
f 741 743 744
f 745 746 747
f 745 747 748
f 749 750 751
f 749 751 752
f 753 754 755
f 753 755 756
f 757 758 759
f 757 759 760
f 761 762 763
f 761 763 764
f 765 766 767
f 765 767 768
f 769 770 771
f 769 771 772
f 773 774 775
f 773 775 776
f 777 778 779
f 777 779 780
f 781 782 783
f 784 785 786
f 787 788 789
f 790 791 792
f 793 794 795
f 796 797 798
f 799 800 801
f 802 803 804
f 805 806 807
f 808 809 810
f 811 812 813
f 814 815 816
f 817 818 819
f 820 821 822
f 823 824 825
f 826 827 828
f 829 830 831
f 829 831 832
f 833 834 835
f 833 835 836
f 837 838 839
f 837 839 840
f 841 842 843
f 841 843 844
f 845 846 847
f 845 847 848
f 849 850 851
f 849 851 852
f 853 854 855
f 853 855 856
f 857 858 859
f 857 859 860
f 861 862 863
f 861 863 864
f 865 866 867
f 865 867 868
f 869 870 871
f 869 871 872
f 873 874 875
f 873 875 876
f 877 878 879
f 877 879 880
f 881 882 883
f 881 883 884
f 885 886 887
f 885 887 888
f 889 890 891
f 889 891 892
f 893 894 895
f 896 897 898
f 899 900 901
f 902 903 904
f 905 906 907
f 908 909 910
f 911 912 913
f 914 915 916
f 917 918 919
f 920 921 922
f 923 924 925
f 926 927 928
f 929 930 931
f 932 933 934
f 935 936 937
f 938 939 940
f 941 942 943
f 941 943 944
f 945 946 947
f 945 947 948
f 949 950 951
f 949 951 952
f 953 954 955
f 953 955 956
f 957 958 959
f 957 959 960
f 961 962 963
f 961 963 964
f 965 966 967
f 965 967 968
f 969 970 971
f 969 971 972
f 973 974 975
f 973 975 976
f 977 978 979
f 977 979 980
f 981 982 983
f 981 983 984
f 985 986 987
f 985 987 988
f 989 990 991
f 989 991 992
f 993 994 995
f 993 995 996
f 997 998 999
f 997 999 1000
f 1001 1002 1003
f 1001 1003 1004
f 1005 1006 1007
f 1008 1009 1010
f 1011 1012 1013
f 1014 1015 1016
f 1017 1018 1019
f 1020 1021 1022
f 1023 1024 1025
f 1026 1027 1028
f 1029 1030 1031
f 1032 1033 1034
f 1035 1036 1037
f 1038 1039 1040
f 1041 1042 1043
f 1044 1045 1046
f 1047 1048 1049
f 1050 1051 1052
f 1053 1054 1055
f 1053 1055 1056
f 1057 1058 1059
f 1057 1059 1060
f 1061 1062 1063
f 1061 1063 1064
f 1065 1066 1067
f 1065 1067 1068
f 1069 1070 1071
f 1069 1071 1072
f 1073 1074 1075
f 1073 1075 1076
f 1077 1078 1079
f 1077 1079 1080
f 1081 1082 1083
f 1081 1083 1084
f 1085 1086 1087
f 1085 1087 1088
f 1089 1090 1091
f 1089 1091 1092
f 1093 1094 1095
f 1093 1095 1096
f 1097 1098 1099
f 1097 1099 1100
f 1101 1102 1103
f 1101 1103 1104
f 1105 1106 1107
f 1105 1107 1108
f 1109 1110 1111
f 1109 1111 1112
f 1113 1114 1115
f 1113 1115 1116
f 1117 1118 1119
f 1120 1121 1122
f 1123 1124 1125
f 1126 1127 1128
f 1129 1130 1131
f 1132 1133 1134
f 1135 1136 1137
f 1138 1139 1140
f 1141 1142 1143
f 1144 1145 1146
f 1147 1148 1149
f 1150 1151 1152
f 1153 1154 1155
f 1156 1157 1158
f 1159 1160 1161
f 1162 1163 1164
f 1165 1166 1167
f 1165 1167 1168
f 1169 1170 1171
f 1169 1171 1172
f 1173 1174 1175
f 1173 1175 1176
f 1177 1178 1179
f 1177 1179 1180
f 1181 1182 1183
f 1181 1183 1184
f 1185 1186 1187
f 1185 1187 1188
f 1189 1190 1191
f 1189 1191 1192
f 1193 1194 1195
f 1193 1195 1196
f 1197 1198 1199
f 1197 1199 1200
f 1201 1202 1203
f 1201 1203 1204
f 1205 1206 1207
f 1205 1207 1208
f 1209 1210 1211
f 1209 1211 1212
f 1213 1214 1215
f 1213 1215 1216
f 1217 1218 1219
f 1217 1219 1220
f 1221 1222 1223
f 1221 1223 1224
f 1225 1226 1227
f 1225 1227 1228
f 1229 1230 1231
f 1232 1233 1234
f 1235 1236 1237
f 1238 1239 1240
f 1241 1242 1243
f 1244 1245 1246
f 1247 1248 1249
f 1250 1251 1252
f 1253 1254 1255
f 1256 1257 1258
f 1259 1260 1261
f 1262 1263 1264
f 1265 1266 1267
f 1268 1269 1270
f 1271 1272 1273
f 1274 1275 1276
f 1277 1278 1279
f 1277 1279 1280
f 1281 1282 1283
f 1281 1283 1284
f 1285 1286 1287
f 1285 1287 1288
f 1289 1290 1291
f 1289 1291 1292
f 1293 1294 1295
f 1293 1295 1296
f 1297 1298 1299
f 1297 1299 1300
f 1301 1302 1303
f 1301 1303 1304
f 1305 1306 1307
f 1305 1307 1308
f 1309 1310 1311
f 1309 1311 1312
f 1313 1314 1315
f 1313 1315 1316
f 1317 1318 1319
f 1317 1319 1320
f 1321 1322 1323
f 1321 1323 1324
f 1325 1326 1327
f 1325 1327 1328
f 1329 1330 1331
f 1329 1331 1332
f 1333 1334 1335
f 1333 1335 1336
f 1337 1338 1339
f 1337 1339 1340
f 1341 1342 1343
f 1344 1345 1346
f 1347 1348 1349
f 1350 1351 1352
f 1353 1354 1355
f 1356 1357 1358
f 1359 1360 1361
f 1362 1363 1364
f 1365 1366 1367
f 1368 1369 1370
f 1371 1372 1373
f 1374 1375 1376
f 1377 1378 1379
f 1380 1381 1382
f 1383 1384 1385
f 1386 1387 1388
f 1389 1390 1391
f 1389 1391 1392
f 1393 1394 1395
f 1393 1395 1396
f 1397 1398 1399
f 1397 1399 1400
f 1401 1402 1403
f 1401 1403 1404
f 1405 1406 1407
f 1405 1407 1408
f 1409 1410 1411
f 1409 1411 1412
f 1413 1414 1415
f 1413 1415 1416
f 1417 1418 1419
f 1417 1419 1420
f 1421 1422 1423
f 1421 1423 1424
f 1425 1426 1427
f 1425 1427 1428
f 1429 1430 1431
f 1429 1431 1432
f 1433 1434 1435
f 1433 1435 1436
f 1437 1438 1439
f 1437 1439 1440
f 1441 1442 1443
f 1441 1443 1444
f 1445 1446 1447
f 1445 1447 1448
f 1449 1450 1451
f 1449 1451 1452
f 1453 1454 1455
f 1456 1457 1458
f 1459 1460 1461
f 1462 1463 1464
f 1465 1466 1467
f 1468 1469 1470
f 1471 1472 1473
f 1474 1475 1476
f 1477 1478 1479
f 1480 1481 1482
f 1483 1484 1485
f 1486 1487 1488
f 1489 1490 1491
f 1492 1493 1494
f 1495 1496 1497
f 1498 1499 1500
f 1501 1502 1503
f 1504 1505 1506
f 1507 1508 1509
f 1510 1511 1512
f 1513 1514 1515
f 1516 1517 1518
f 1519 1520 1521
f 1522 1523 1524
f 1525 1526 1527
f 1528 1529 1530
f 1531 1532 1533
f 1534 1535 1536
f 1537 1538 1539
f 1540 1541 1542
f 1543 1544 1545
f 1546 1547 1548
f 1549 1550 1551
f 1549 1551 1552
f 1553 1554 1555
f 1553 1555 1556
f 1557 1558 1559
f 1557 1559 1560
f 1561 1562 1563
f 1561 1563 1564
f 1565 1566 1567
f 1565 1567 1568
f 1569 1570 1571
f 1569 1571 1572
f 1573 1574 1575
f 1573 1575 1576
f 1577 1578 1579
f 1577 1579 1580
f 1581 1582 1583
f 1581 1583 1584
f 1585 1586 1587
f 1585 1587 1588
f 1589 1590 1591
f 1589 1591 1592
f 1593 1594 1595
f 1593 1595 1596
f 1597 1598 1599
f 1597 1599 1600
f 1601 1602 1603
f 1601 1603 1604
f 1605 1606 1607
f 1605 1607 1608
f 1609 1610 1611
f 1609 1611 1612
f 1613 1614 1615
f 1613 1615 1616
f 1617 1618 1619
f 1617 1619 1620
f 1621 1622 1623
f 1621 1623 1624
f 1625 1626 1627
f 1625 1627 1628
f 1629 1630 1631
f 1629 1631 1632
f 1633 1634 1635
f 1633 1635 1636
f 1637 1638 1639
f 1637 1639 1640
f 1641 1642 1643
f 1641 1643 1644
f 1645 1646 1647
f 1648 1649 1650
f 1651 1652 1653
f 1654 1655 1656
f 1657 1658 1659
f 1660 1661 1662
f 1663 1664 1665
f 1666 1667 1668
f 1669 1670 1671
f 1672 1673 1674
f 1675 1676 1677
f 1678 1679 1680
f 1681 1682 1683
f 1684 1685 1686
f 1687 1688 1689
f 1690 1691 1692
f 1693 1694 1695
f 1696 1697 1698
f 1699 1700 1701
f 1702 1703 1704
f 1705 1706 1707
f 1708 1709 1710
f 1711 1712 1713
f 1714 1715 1716
f 1717 1718 1719
f 1720 1721 1722
f 1723 1724 1725
f 1726 1727 1728
f 1729 1730 1731
f 1732 1733 1734
f 1735 1736 1737
f 1738 1739 1740
f 1741 1742 1743
f 1741 1743 1744
f 1745 1746 1747
f 1745 1747 1748
f 1749 1750 1751
f 1749 1751 1752
f 1753 1754 1755
f 1753 1755 1756
f 1757 1758 1759
f 1757 1759 1760
f 1761 1762 1763
f 1761 1763 1764
f 1765 1766 1767
f 1765 1767 1768
f 1769 1770 1771
f 1769 1771 1772
f 1773 1774 1775
f 1776 1777 1778
f 1779 1780 1781
f 1782 1783 1784
f 1785 1786 1787
f 1788 1789 1790
f 1791 1792 1793
f 1794 1795 1796
f 1797 1798 1799
f 1800 1801 1802
f 1803 1804 1805
f 1806 1807 1808
f 1809 1810 1811
f 1812 1813 1814
f 1815 1816 1817
f 1818 1819 1820
f 1821 1822 1823
f 1821 1823 1824
f 1825 1826 1827
f 1825 1827 1828
f 1829 1830 1831
f 1829 1831 1832
f 1833 1834 1835
f 1833 1835 1836
f 1837 1838 1839
f 1837 1839 1840
f 1841 1842 1843
f 1841 1843 1844
f 1845 1846 1847
f 1845 1847 1848
f 1849 1850 1851
f 1849 1851 1852
f 1853 1854 1855
f 1853 1855 1856
f 1857 1858 1859
f 1857 1859 1860
f 1861 1862 1863
f 1861 1863 1864
f 1865 1866 1867
f 1865 1867 1868
f 1869 1870 1871
f 1869 1871 1872
f 1873 1874 1875
f 1873 1875 1876
f 1877 1878 1879
f 1877 1879 1880
f 1881 1882 1883
f 1881 1883 1884
f 1885 1886 1887
f 1888 1889 1890
f 1891 1892 1893
f 1894 1895 1896
f 1897 1898 1899
f 1900 1901 1902
f 1903 1904 1905
f 1906 1907 1908
f 1909 1910 1911
f 1912 1913 1914
f 1915 1916 1917
f 1918 1919 1920
f 1921 1922 1923
f 1924 1925 1926
f 1927 1928 1929
f 1930 1931 1932
f 1933 1934 1935
f 1933 1935 1936
f 1937 1938 1939
f 1937 1939 1940
f 1941 1942 1943
f 1941 1943 1944
f 1945 1946 1947
f 1945 1947 1948
f 1949 1950 1951
f 1949 1951 1952
f 1953 1954 1955
f 1953 1955 1956
f 1957 1958 1959
f 1957 1959 1960
f 1961 1962 1963
f 1961 1963 1964
f 1965 1966 1967
f 1965 1967 1968
f 1969 1970 1971
f 1969 1971 1972
f 1973 1974 1975
f 1973 1975 1976
f 1977 1978 1979
f 1977 1979 1980
f 1981 1982 1983
f 1981 1983 1984
f 1985 1986 1987
f 1985 1987 1988
f 1989 1990 1991
f 1989 1991 1992
f 1993 1994 1995
f 1993 1995 1996
f 1997 1998 1999
f 2000 2001 2002
f 2003 2004 2005
f 2006 2007 2008
f 2009 2010 2011
f 2012 2013 2014
f 2015 2016 2017
f 2018 2019 2020
f 2021 2022 2023
f 2024 2025 2026
f 2027 2028 2029
f 2030 2031 2032
f 2033 2034 2035
f 2036 2037 2038
f 2039 2040 2041
f 2042 2043 2044
f 2045 2046 2047
f 2048 2049 2050
f 2051 2052 2053
f 2054 2055 2056
f 2057 2058 2059
f 2060 2061 2062
f 2063 2064 2065
f 2066 2067 2068
f 2069 2070 2071
f 2072 2073 2074
f 2075 2076 2077
f 2078 2079 2080
f 2081 2082 2083
f 2084 2085 2086
f 2087 2088 2089
f 2090 2091 2092
f 2093 2094 2095
f 2093 2095 2096
f 2097 2098 2099
f 2097 2099 2100
