# Baked from official LDraw part 4536.dat
o ldraw_4536
v 0.6000000 -0.4000000 -0.4500000
v 0.6000000 -0.0000000 -0.4500000
v -0.6000000 -0.0000000 -0.4500000
v -0.6000000 -0.4000000 -0.4500000
v 0.6000000 -0.4000000 0.3500000
v 0.6000000 -0.4000000 -0.4500000
v -0.6000000 -0.4000000 -0.4500000
v -0.6000000 -0.4000000 0.3500000
v -0.6000000 -0.4000000 0.3500000
v -0.6000000 -0.4000000 -0.4500000
v -0.6000000 -0.1000000 -0.4500000
v -0.6000000 -0.1000000 0.3500000
v 0.6000000 -0.4000000 -0.4500000
v 0.6000000 -0.4000000 0.3500000
v 0.6000000 -0.1000000 0.3500000
v 0.6000000 -0.1000000 -0.4500000
v 0.6000000 -0.4000000 0.3500000
v -0.6000000 -0.4000000 0.3500000
v -0.6000000 -0.1000000 0.3500000
v 0.6000000 -0.1000000 0.3500000
v 0.6000000 -0.0000000 -0.4500000
v 0.6000000 -0.1000000 -0.4500000
v 0.6000000 -0.1000000 -0.3500000
v -0.6000000 -0.1000000 -0.3500000
v -0.6000000 -0.1000000 -0.4500000
v -0.6000000 -0.0000000 -0.4500000
v 0.6500000 -0.0000000 -0.5000000
v 0.6500000 -0.4500000 -0.5000000
v -0.6500000 -0.4500000 -0.5000000
v -0.6500000 -0.0000000 -0.5000000
v -0.6500000 -0.4500000 0.4000000
v -0.6500000 -0.4500000 -0.5000000
v 0.6500000 -0.4500000 -0.5000000
v 0.6500000 -0.4500000 0.4000000
v 0.6500000 -0.1000000 0.4000000
v -0.6500000 -0.1000000 0.4000000
v -0.6500000 -0.4500000 0.4000000
v 0.6500000 -0.4500000 0.4000000
v 0.6500000 -0.4500000 0.4000000
v 0.6500000 -0.4500000 -0.5000000
v 0.6500000 -0.1000000 -0.3500000
v 0.6500000 -0.1000000 0.4000000
v 0.6500000 -0.1000000 -0.3500000
v 0.6500000 -0.4500000 -0.5000000
v 0.6500000 -0.0000000 -0.5000000
v 0.6500000 -0.0000000 -0.4500000
v -0.6500000 -0.1000000 0.4000000
v -0.6500000 -0.1000000 -0.3500000
v -0.6500000 -0.4500000 -0.5000000
v -0.6500000 -0.4500000 0.4000000
v -0.6500000 -0.0000000 -0.4500000
v -0.6500000 -0.0000000 -0.5000000
v -0.6500000 -0.4500000 -0.5000000
v -0.6500000 -0.1000000 -0.3500000
v -0.6500000 -0.1000000 0.4000000
v 0.6500000 -0.1000000 0.4000000
v 0.6000000 -0.1000000 0.3500000
v -0.6000000 -0.1000000 0.3500000
v 0.6000000 -0.1000000 0.3500000
v 0.6500000 -0.1000000 0.4000000
v 0.6500000 -0.1000000 -0.3500000
v 0.6000000 -0.1000000 -0.3500000
v 0.6500000 -0.1000000 -0.3500000
v 0.6500000 -0.0000000 -0.4500000
v 0.6000000 -0.0000000 -0.4500000
v 0.6000000 -0.1000000 -0.3500000
v -0.6000000 -0.1000000 -0.3500000
v -0.6500000 -0.1000000 -0.3500000
v -0.6500000 -0.1000000 0.4000000
v -0.6000000 -0.1000000 0.3500000
v -0.6500000 -0.0000000 -0.4500000
v -0.6500000 -0.1000000 -0.3500000
v -0.6000000 -0.1000000 -0.3500000
v -0.6000000 -0.0000000 -0.4500000
v -0.6500000 -0.0000000 -0.4500000
v 0.6500000 -0.0000000 -0.4500000
v 0.6500000 -0.0000000 -0.5000000
v -0.6500000 -0.0000000 -0.5000000
v 0.1500000 -0.1000000 -0.5000000
v 0.1500000 -0.1000000 -0.5500000
v -0.1500000 -0.1000000 -0.5500000
v -0.1500000 -0.1000000 -0.5000000
v 0.1037025 -0.0307075 -0.5500000
v 0.0750000 -0.0250000 -0.5500000
v 0.0750000 -0.1000000 -0.5500000
v 0.1280325 -0.0469675 -0.5500000
v 0.1037025 -0.0307075 -0.5500000
v 0.0750000 -0.1000000 -0.5500000
v 0.1442925 -0.0712975 -0.5500000
v 0.1280325 -0.0469675 -0.5500000
v 0.0750000 -0.1000000 -0.5500000
v 0.1500000 -0.1000000 -0.5500000
v 0.1442925 -0.0712975 -0.5500000
v 0.0750000 -0.1000000 -0.5500000
v -0.0750000 -0.1000000 -0.5500000
v -0.0750000 -0.0250000 -0.5500000
v -0.1037025 -0.0307075 -0.5500000
v -0.0750000 -0.1000000 -0.5500000
v -0.1037025 -0.0307075 -0.5500000
v -0.1280325 -0.0469675 -0.5500000
v -0.0750000 -0.1000000 -0.5500000
v -0.1280325 -0.0469675 -0.5500000
v -0.1442925 -0.0712975 -0.5500000
v -0.0750000 -0.1000000 -0.5500000
v -0.1442925 -0.0712975 -0.5500000
v -0.1500000 -0.1000000 -0.5500000
v 0.1500000 -0.1000000 -0.5000000
v 0.1442925 -0.1287025 -0.5000000
v 0.1442925 -0.1287025 -0.5500000
v 0.1500000 -0.1000000 -0.5500000
v 0.1442925 -0.1287025 -0.5000000
v 0.1280325 -0.1530325 -0.5000000
v 0.1280325 -0.1530325 -0.5500000
v 0.1442925 -0.1287025 -0.5500000
v 0.1280325 -0.1530325 -0.5000000
v 0.1037025 -0.1692925 -0.5000000
v 0.1037025 -0.1692925 -0.5500000
v 0.1280325 -0.1530325 -0.5500000
v 0.1037025 -0.1692925 -0.5000000
v 0.0750000 -0.1750000 -0.5000000
v 0.0750000 -0.1750000 -0.5500000
v 0.1037025 -0.1692925 -0.5500000
v -0.1500000 -0.1000000 -0.5500000
v -0.1442925 -0.1287025 -0.5500000
v -0.1442925 -0.1287025 -0.5000000
v -0.1500000 -0.1000000 -0.5000000
v -0.1442925 -0.1287025 -0.5500000
v -0.1280325 -0.1530325 -0.5500000
v -0.1280325 -0.1530325 -0.5000000
v -0.1442925 -0.1287025 -0.5000000
v -0.1280325 -0.1530325 -0.5500000
v -0.1037025 -0.1692925 -0.5500000
v -0.1037025 -0.1692925 -0.5000000
v -0.1280325 -0.1530325 -0.5000000
v -0.1037025 -0.1692925 -0.5500000
v -0.0750000 -0.1750000 -0.5500000
v -0.0750000 -0.1750000 -0.5000000
v -0.1037025 -0.1692925 -0.5000000
v 0.1037025 -0.1692925 -0.6000000
v 0.0750000 -0.1750000 -0.6000000
v 0.0750000 -0.1000000 -0.6000000
v 0.1280325 -0.1530325 -0.6000000
v 0.1037025 -0.1692925 -0.6000000
v 0.0750000 -0.1000000 -0.6000000
v 0.1442925 -0.1287025 -0.6000000
v 0.1280325 -0.1530325 -0.6000000
v 0.0750000 -0.1000000 -0.6000000
v 0.1500000 -0.1000000 -0.6000000
v 0.1442925 -0.1287025 -0.6000000
v 0.0750000 -0.1000000 -0.6000000
v 0.1442925 -0.0712975 -0.6000000
v 0.1500000 -0.1000000 -0.6000000
v 0.0750000 -0.1000000 -0.6000000
v 0.1280325 -0.0469675 -0.6000000
v 0.1442925 -0.0712975 -0.6000000
v 0.0750000 -0.1000000 -0.6000000
v 0.1037025 -0.0307075 -0.6000000
v 0.1280325 -0.0469675 -0.6000000
v 0.0750000 -0.1000000 -0.6000000
v 0.0750000 -0.0250000 -0.6000000
v 0.1037025 -0.0307075 -0.6000000
v 0.0750000 -0.1000000 -0.6000000
v -0.1037025 -0.0307075 -0.6000000
v -0.0750000 -0.0250000 -0.6000000
v -0.0750000 -0.1000000 -0.6000000
v -0.1280325 -0.0469675 -0.6000000
v -0.1037025 -0.0307075 -0.6000000
v -0.0750000 -0.1000000 -0.6000000
v -0.1442925 -0.0712975 -0.6000000
v -0.1280325 -0.0469675 -0.6000000
v -0.0750000 -0.1000000 -0.6000000
v -0.1500000 -0.1000000 -0.6000000
v -0.1442925 -0.0712975 -0.6000000
v -0.0750000 -0.1000000 -0.6000000
v -0.1442925 -0.1287025 -0.6000000
v -0.1500000 -0.1000000 -0.6000000
v -0.0750000 -0.1000000 -0.6000000
v -0.1280325 -0.1530325 -0.6000000
v -0.1442925 -0.1287025 -0.6000000
v -0.0750000 -0.1000000 -0.6000000
v -0.1037025 -0.1692925 -0.6000000
v -0.1280325 -0.1530325 -0.6000000
v -0.0750000 -0.1000000 -0.6000000
v -0.0750000 -0.1750000 -0.6000000
v -0.1037025 -0.1692925 -0.6000000
v -0.0750000 -0.1000000 -0.6000000
v -0.0750000 -0.1750000 -0.6000000
v -0.0750000 -0.1750000 -0.5500000
v -0.1037025 -0.1692925 -0.5500000
v -0.1037025 -0.1692925 -0.6000000
v -0.1037025 -0.1692925 -0.6000000
v -0.1037025 -0.1692925 -0.5500000
v -0.1280325 -0.1530325 -0.5500000
v -0.1280325 -0.1530325 -0.6000000
v -0.1280325 -0.1530325 -0.6000000
v -0.1280325 -0.1530325 -0.5500000
v -0.1442925 -0.1287025 -0.5500000
v -0.1442925 -0.1287025 -0.6000000
v -0.1442925 -0.1287025 -0.6000000
v -0.1442925 -0.1287025 -0.5500000
v -0.1500000 -0.1000000 -0.5500000
v -0.1500000 -0.1000000 -0.6000000
v -0.1500000 -0.1000000 -0.6000000
v -0.1500000 -0.1000000 -0.5500000
v -0.1442925 -0.0712975 -0.5500000
v -0.1442925 -0.0712975 -0.6000000
v -0.1442925 -0.0712975 -0.6000000
v -0.1442925 -0.0712975 -0.5500000
v -0.1280325 -0.0469675 -0.5500000
v -0.1280325 -0.0469675 -0.6000000
v -0.1280325 -0.0469675 -0.6000000
v -0.1280325 -0.0469675 -0.5500000
v -0.1037025 -0.0307075 -0.5500000
v -0.1037025 -0.0307075 -0.6000000
v -0.1037025 -0.0307075 -0.6000000
v -0.1037025 -0.0307075 -0.5500000
v -0.0750000 -0.0250000 -0.5500000
v -0.0750000 -0.0250000 -0.6000000
v 0.0750000 -0.1750000 -0.5500000
v 0.0750000 -0.1750000 -0.6000000
v 0.1037025 -0.1692925 -0.6000000
v 0.1037025 -0.1692925 -0.5500000
v 0.1037025 -0.1692925 -0.5500000
v 0.1037025 -0.1692925 -0.6000000
v 0.1280325 -0.1530325 -0.6000000
v 0.1280325 -0.1530325 -0.5500000
v 0.1280325 -0.1530325 -0.5500000
v 0.1280325 -0.1530325 -0.6000000
v 0.1442925 -0.1287025 -0.6000000
v 0.1442925 -0.1287025 -0.5500000
v 0.1442925 -0.1287025 -0.5500000
v 0.1442925 -0.1287025 -0.6000000
v 0.1500000 -0.1000000 -0.6000000
v 0.1500000 -0.1000000 -0.5500000
v 0.1500000 -0.1000000 -0.5500000
v 0.1500000 -0.1000000 -0.6000000
v 0.1442925 -0.0712975 -0.6000000
v 0.1442925 -0.0712975 -0.5500000
v 0.1442925 -0.0712975 -0.5500000
v 0.1442925 -0.0712975 -0.6000000
v 0.1280325 -0.0469675 -0.6000000
v 0.1280325 -0.0469675 -0.5500000
v 0.1280325 -0.0469675 -0.5500000
v 0.1280325 -0.0469675 -0.6000000
v 0.1037025 -0.0307075 -0.6000000
v 0.1037025 -0.0307075 -0.5500000
v 0.1037025 -0.0307075 -0.5500000
v 0.1037025 -0.0307075 -0.6000000
v 0.0750000 -0.0250000 -0.6000000
v 0.0750000 -0.0250000 -0.5500000
v 0.0750000 -0.1750000 -0.6000000
v 0.0750000 -0.1750000 -0.5000000
v -0.0750000 -0.1750000 -0.5000000
v -0.0750000 -0.1750000 -0.6000000
v -0.0750000 -0.0250000 -0.6000000
v 0.0750000 -0.0250000 -0.6000000
v 0.0750000 -0.1750000 -0.6000000
v -0.0750000 -0.1750000 -0.6000000
v 0.0750000 -0.0250000 -0.5500000
v 0.0750000 -0.0250000 -0.6000000
v -0.0750000 -0.0250000 -0.6000000
v -0.0750000 -0.0250000 -0.5500000
v -0.0750000 -0.1250000 -0.5500000
v 0.0750000 -0.1250000 -0.5500000
v 0.0750000 -0.0250000 -0.5500000
v -0.0750000 -0.0250000 -0.5500000
s off
f 1 2 3
f 1 3 4
f 5 6 7
f 5 7 8
f 9 10 11
f 9 11 12
f 13 14 15
f 13 15 16
f 17 18 19
f 17 19 20
f 21 22 23
f 24 25 26
f 27 28 29
f 27 29 30
f 31 32 33
f 31 33 34
f 35 36 37
f 35 37 38
f 39 40 41
f 39 41 42
f 43 44 45
f 43 45 46
f 47 48 49
f 47 49 50
f 51 52 53
f 51 53 54
f 55 56 57
f 55 57 58
f 59 60 61
f 59 61 62
f 63 64 65
f 63 65 66
f 67 68 69
f 67 69 70
f 71 72 73
f 71 73 74
f 75 76 77
f 75 77 78
f 79 80 81
f 79 81 82
f 83 84 85
f 86 87 88
f 89 90 91
f 92 93 94
f 95 96 97
f 98 99 100
f 101 102 103
f 104 105 106
f 107 108 109
f 107 109 110
f 111 112 113
f 111 113 114
f 115 116 117
f 115 117 118
f 119 120 121
f 119 121 122
f 123 124 125
f 123 125 126
f 127 128 129
f 127 129 130
f 131 132 133
f 131 133 134
f 135 136 137
f 135 137 138
f 139 140 141
f 142 143 144
f 145 146 147
f 148 149 150
f 151 152 153
f 154 155 156
f 157 158 159
f 160 161 162
f 163 164 165
f 166 167 168
f 169 170 171
f 172 173 174
f 175 176 177
f 178 179 180
f 181 182 183
f 184 185 186
f 187 188 189
f 187 189 190
f 191 192 193
f 191 193 194
f 195 196 197
f 195 197 198
f 199 200 201
f 199 201 202
f 203 204 205
f 203 205 206
f 207 208 209
f 207 209 210
f 211 212 213
f 211 213 214
f 215 216 217
f 215 217 218
f 219 220 221
f 219 221 222
f 223 224 225
f 223 225 226
f 227 228 229
f 227 229 230
f 231 232 233
f 231 233 234
f 235 236 237
f 235 237 238
f 239 240 241
f 239 241 242
f 243 244 245
f 243 245 246
f 247 248 249
f 247 249 250
f 251 252 253
f 251 253 254
f 255 256 257
f 255 257 258
f 259 260 261
f 259 261 262
f 263 264 265
f 263 265 266
