# Baked from official LDraw part 48336.dat
o ldraw_48336
v 0.0000000 -0.2000000 0.0000000
v 0.1000000 -0.2000000 0.0000000
v 0.0923900 -0.2000000 0.0382700
v 0.0000000 -0.2000000 0.0000000
v 0.0923900 -0.2000000 0.0382700
v 0.0707100 -0.2000000 0.0707100
v 0.0000000 -0.2000000 0.0000000
v 0.0707100 -0.2000000 0.0707100
v 0.0382700 -0.2000000 0.0923900
v 0.0000000 -0.2000000 0.0000000
v 0.0382700 -0.2000000 0.0923900
v 0.0000000 -0.2000000 0.1000000
v 0.0000000 -0.2000000 0.0000000
v 0.0000000 -0.2000000 0.1000000
v -0.0382700 -0.2000000 0.0923900
v 0.0000000 -0.2000000 0.0000000
v -0.0382700 -0.2000000 0.0923900
v -0.0707100 -0.2000000 0.0707100
v 0.0000000 -0.2000000 0.0000000
v -0.0707100 -0.2000000 0.0707100
v -0.0923900 -0.2000000 0.0382700
v 0.0000000 -0.2000000 0.0000000
v -0.0923900 -0.2000000 0.0382700
v -0.1000000 -0.2000000 0.0000000
v 0.0000000 -0.2000000 0.0000000
v -0.1000000 -0.2000000 0.0000000
v -0.0923900 -0.2000000 -0.0382700
v 0.0000000 -0.2000000 0.0000000
v -0.0923900 -0.2000000 -0.0382700
v -0.0707100 -0.2000000 -0.0707100
v 0.0000000 -0.2000000 0.0000000
v -0.0707100 -0.2000000 -0.0707100
v -0.0382700 -0.2000000 -0.0923900
v 0.0000000 -0.2000000 0.0000000
v -0.0382700 -0.2000000 -0.0923900
v 0.0000000 -0.2000000 -0.1000000
v 0.0000000 -0.2000000 0.0000000
v 0.0000000 -0.2000000 -0.1000000
v 0.0382700 -0.2000000 -0.0923900
v 0.0000000 -0.2000000 0.0000000
v 0.0382700 -0.2000000 -0.0923900
v 0.0707100 -0.2000000 -0.0707100
v 0.0000000 -0.2000000 0.0000000
v 0.0707100 -0.2000000 -0.0707100
v 0.0923900 -0.2000000 -0.0382700
v 0.0000000 -0.2000000 0.0000000
v 0.0923900 -0.2000000 -0.0382700
v 0.1000000 -0.2000000 0.0000000
v 0.1000000 -0.1000000 0.0000000
v 0.0923900 -0.1000000 0.0382700
v 0.0923900 -0.2000000 0.0382700
v 0.1000000 -0.2000000 0.0000000
v 0.0923900 -0.1000000 0.0382700
v 0.0707100 -0.1000000 0.0707100
v 0.0707100 -0.2000000 0.0707100
v 0.0923900 -0.2000000 0.0382700
v 0.0707100 -0.1000000 0.0707100
v 0.0382700 -0.1000000 0.0923900
v 0.0382700 -0.2000000 0.0923900
v 0.0707100 -0.2000000 0.0707100
v 0.0382700 -0.1000000 0.0923900
v 0.0000000 -0.1000000 0.1000000
v 0.0000000 -0.2000000 0.1000000
v 0.0382700 -0.2000000 0.0923900
v 0.0000000 -0.1000000 0.1000000
v -0.0382700 -0.1000000 0.0923900
v -0.0382700 -0.2000000 0.0923900
v 0.0000000 -0.2000000 0.1000000
v -0.0382700 -0.1000000 0.0923900
v -0.0707100 -0.1000000 0.0707100
v -0.0707100 -0.2000000 0.0707100
v -0.0382700 -0.2000000 0.0923900
v -0.0707100 -0.1000000 0.0707100
v -0.0923900 -0.1000000 0.0382700
v -0.0923900 -0.2000000 0.0382700
v -0.0707100 -0.2000000 0.0707100
v -0.0923900 -0.1000000 0.0382700
v -0.1000000 -0.1000000 0.0000000
v -0.1000000 -0.2000000 0.0000000
v -0.0923900 -0.2000000 0.0382700
v -0.1000000 -0.1000000 0.0000000
v -0.0923900 -0.1000000 -0.0382700
v -0.0923900 -0.2000000 -0.0382700
v -0.1000000 -0.2000000 0.0000000
v -0.0923900 -0.1000000 -0.0382700
v -0.0707100 -0.1000000 -0.0707100
v -0.0707100 -0.2000000 -0.0707100
v -0.0923900 -0.2000000 -0.0382700
v -0.0707100 -0.1000000 -0.0707100
v -0.0382700 -0.1000000 -0.0923900
v -0.0382700 -0.2000000 -0.0923900
v -0.0707100 -0.2000000 -0.0707100
v -0.0382700 -0.1000000 -0.0923900
v 0.0000000 -0.1000000 -0.1000000
v 0.0000000 -0.2000000 -0.1000000
v -0.0382700 -0.2000000 -0.0923900
v 0.0000000 -0.1000000 -0.1000000
v 0.0382700 -0.1000000 -0.0923900
v 0.0382700 -0.2000000 -0.0923900
v 0.0000000 -0.2000000 -0.1000000
v 0.0382700 -0.1000000 -0.0923900
v 0.0707100 -0.1000000 -0.0707100
v 0.0707100 -0.2000000 -0.0707100
v 0.0382700 -0.2000000 -0.0923900
v 0.0707100 -0.1000000 -0.0707100
v 0.0923900 -0.1000000 -0.0382700
v 0.0923900 -0.2000000 -0.0382700
v 0.0707100 -0.2000000 -0.0707100
v 0.0923900 -0.1000000 -0.0382700
v 0.1000000 -0.1000000 0.0000000
v 0.1000000 -0.2000000 0.0000000
v 0.0923900 -0.2000000 -0.0382700
v -0.4000000 -0.1000000 -0.1500000
v 0.4000000 -0.1000000 -0.1500000
v 0.4000000 -0.1000000 0.1500000
v -0.4000000 -0.1000000 0.1500000
v 0.4000000 -0.1000000 0.1500000
v 0.4000000 -0.2000000 0.1500000
v -0.4000000 -0.2000000 0.1500000
v -0.4000000 -0.1000000 0.1500000
v -0.4000000 -0.1000000 0.1500000
v -0.4000000 -0.2000000 0.1500000
v -0.4000000 -0.2000000 -0.1500000
v -0.4000000 -0.1000000 -0.1500000
v -0.4000000 -0.1000000 -0.1500000
v -0.4000000 -0.2000000 -0.1500000
v 0.4000000 -0.2000000 -0.1500000
v 0.4000000 -0.1000000 -0.1500000
v 0.4000000 -0.1000000 -0.1500000
v 0.4000000 -0.2000000 -0.1500000
v 0.4000000 -0.2000000 0.1500000
v 0.4000000 -0.1000000 0.1500000
v -0.5000000 -0.2000000 0.2500000
v -0.4000000 -0.2000000 0.1500000
v 0.4000000 -0.2000000 0.1500000
v 0.5000000 -0.2000000 0.2500000
v -0.5000000 -0.2000000 -0.2500000
v -0.4000000 -0.2000000 -0.1500000
v -0.4000000 -0.2000000 0.1500000
v -0.5000000 -0.2000000 0.2500000
v -0.4000000 -0.2000000 -0.1500000
v -0.5000000 -0.2000000 -0.2500000
v -0.3500000 -0.2000000 -0.2500000
v -0.3500000 -0.2000000 -0.2500000
v 0.3500000 -0.2000000 -0.2500000
v 0.4000000 -0.2000000 -0.1500000
v -0.4000000 -0.2000000 -0.1500000
v 0.3500000 -0.2000000 -0.2500000
v 0.5000000 -0.2000000 -0.2500000
v 0.4000000 -0.2000000 -0.1500000
v 0.5000000 -0.2000000 0.2500000
v 0.4000000 -0.2000000 0.1500000
v 0.4000000 -0.2000000 -0.1500000
v 0.5000000 -0.2000000 -0.2500000
v -0.2500000 0.1000000 0.1500000
v -0.3074050 0.1000000 0.1385850
v -0.3074050 -0.0000000 0.1385850
v -0.2500000 -0.0000000 0.1500000
v -0.3074050 0.1000000 0.1385850
v -0.3560650 0.1000000 0.1060650
v -0.3560650 -0.0000000 0.1060650
v -0.3074050 -0.0000000 0.1385850
v -0.3560650 0.1000000 0.1060650
v -0.3885850 0.1000000 0.0574050
v -0.3885850 -0.0000000 0.0574050
v -0.3560650 -0.0000000 0.1060650
v -0.3885850 0.1000000 0.0574050
v -0.4000000 0.1000000 0.0000000
v -0.4000000 -0.0000000 0.0000000
v -0.3885850 -0.0000000 0.0574050
v -0.4000000 0.1000000 0.0000000
v -0.3885850 0.1000000 -0.0574050
v -0.3885850 -0.0000000 -0.0574050
v -0.4000000 -0.0000000 0.0000000
v -0.3885850 0.1000000 -0.0574050
v -0.3560650 0.1000000 -0.1060650
v -0.3560650 -0.0000000 -0.1060650
v -0.3885850 -0.0000000 -0.0574050
v -0.3560650 0.1000000 -0.1060650
v -0.3074050 0.1000000 -0.1385850
v -0.3074050 -0.0000000 -0.1385850
v -0.3560650 -0.0000000 -0.1060650
v -0.3074050 0.1000000 -0.1385850
v -0.2500000 0.1000000 -0.1500000
v -0.2500000 -0.0000000 -0.1500000
v -0.3074050 -0.0000000 -0.1385850
v -0.2500000 0.1000000 -0.1500000
v -0.1925950 0.1000000 -0.1385850
v -0.1925950 -0.0000000 -0.1385850
v -0.2500000 -0.0000000 -0.1500000
v -0.1925950 0.1000000 -0.1385850
v -0.1439350 0.1000000 -0.1060650
v -0.1439350 -0.0000000 -0.1060650
v -0.1925950 -0.0000000 -0.1385850
v -0.1439350 0.1000000 -0.1060650
v -0.1114150 0.1000000 -0.0574050
v -0.1114150 -0.0000000 -0.0574050
v -0.1439350 -0.0000000 -0.1060650
v -0.1114150 0.1000000 -0.0574050
v -0.1000000 0.1000000 0.0000000
v -0.1000000 -0.0000000 0.0000000
v -0.1114150 -0.0000000 -0.0574050
v -0.1000000 0.1000000 0.0000000
v -0.1114150 0.1000000 0.0574050
v -0.1114150 -0.0000000 0.0574050
v -0.1000000 -0.0000000 0.0000000
v -0.1114150 0.1000000 0.0574050
v -0.1439350 0.1000000 0.1060650
v -0.1439350 -0.0000000 0.1060650
v -0.1114150 -0.0000000 0.0574050
v -0.1439350 0.1000000 0.1060650
v -0.1925950 0.1000000 0.1385850
v -0.1925950 -0.0000000 0.1385850
v -0.1439350 -0.0000000 0.1060650
v -0.1925950 0.1000000 0.1385850
v -0.2500000 0.1000000 0.1500000
v -0.2500000 -0.0000000 0.1500000
v -0.1925950 -0.0000000 0.1385850
v -0.3074050 0.1000000 0.1385850
v -0.2500000 0.1000000 0.1500000
v -0.2500000 0.1000000 0.0000000
v -0.3560650 0.1000000 0.1060650
v -0.3074050 0.1000000 0.1385850
v -0.2500000 0.1000000 0.0000000
v -0.3885850 0.1000000 0.0574050
v -0.3560650 0.1000000 0.1060650
v -0.2500000 0.1000000 0.0000000
v -0.4000000 0.1000000 0.0000000
v -0.3885850 0.1000000 0.0574050
v -0.2500000 0.1000000 0.0000000
v -0.3885850 0.1000000 -0.0574050
v -0.4000000 0.1000000 0.0000000
v -0.2500000 0.1000000 0.0000000
v -0.3560650 0.1000000 -0.1060650
v -0.3885850 0.1000000 -0.0574050
v -0.2500000 0.1000000 0.0000000
v -0.3074050 0.1000000 -0.1385850
v -0.3560650 0.1000000 -0.1060650
v -0.2500000 0.1000000 0.0000000
v -0.2500000 0.1000000 -0.1500000
v -0.3074050 0.1000000 -0.1385850
v -0.2500000 0.1000000 0.0000000
v -0.1925950 0.1000000 -0.1385850
v -0.2500000 0.1000000 -0.1500000
v -0.2500000 0.1000000 0.0000000
v -0.1439350 0.1000000 -0.1060650
v -0.1925950 0.1000000 -0.1385850
v -0.2500000 0.1000000 0.0000000
v -0.1114150 0.1000000 -0.0574050
v -0.1439350 0.1000000 -0.1060650
v -0.2500000 0.1000000 0.0000000
v -0.1000000 0.1000000 0.0000000
v -0.1114150 0.1000000 -0.0574050
v -0.2500000 0.1000000 0.0000000
v -0.1114150 0.1000000 0.0574050
v -0.1000000 0.1000000 0.0000000
v -0.2500000 0.1000000 0.0000000
v -0.1439350 0.1000000 0.1060650
v -0.1114150 0.1000000 0.0574050
v -0.2500000 0.1000000 0.0000000
v -0.1925950 0.1000000 0.1385850
v -0.1439350 0.1000000 0.1060650
v -0.2500000 0.1000000 0.0000000
v -0.2500000 0.1000000 0.1500000
v -0.1925950 0.1000000 0.1385850
v -0.2500000 0.1000000 0.0000000
v 0.2500000 0.1000000 0.1500000
v 0.1925950 0.1000000 0.1385850
v 0.1925950 -0.0000000 0.1385850
v 0.2500000 -0.0000000 0.1500000
v 0.1925950 0.1000000 0.1385850
v 0.1439350 0.1000000 0.1060650
v 0.1439350 -0.0000000 0.1060650
v 0.1925950 -0.0000000 0.1385850
v 0.1439350 0.1000000 0.1060650
v 0.1114150 0.1000000 0.0574050
v 0.1114150 -0.0000000 0.0574050
v 0.1439350 -0.0000000 0.1060650
v 0.1114150 0.1000000 0.0574050
v 0.1000000 0.1000000 0.0000000
v 0.1000000 -0.0000000 0.0000000
v 0.1114150 -0.0000000 0.0574050
v 0.1000000 0.1000000 0.0000000
v 0.1114150 0.1000000 -0.0574050
v 0.1114150 -0.0000000 -0.0574050
v 0.1000000 -0.0000000 0.0000000
v 0.1114150 0.1000000 -0.0574050
v 0.1439350 0.1000000 -0.1060650
v 0.1439350 -0.0000000 -0.1060650
v 0.1114150 -0.0000000 -0.0574050
v 0.1439350 0.1000000 -0.1060650
v 0.1925950 0.1000000 -0.1385850
v 0.1925950 -0.0000000 -0.1385850
v 0.1439350 -0.0000000 -0.1060650
v 0.1925950 0.1000000 -0.1385850
v 0.2500000 0.1000000 -0.1500000
v 0.2500000 -0.0000000 -0.1500000
v 0.1925950 -0.0000000 -0.1385850
v 0.2500000 0.1000000 -0.1500000
v 0.3074050 0.1000000 -0.1385850
v 0.3074050 -0.0000000 -0.1385850
v 0.2500000 -0.0000000 -0.1500000
v 0.3074050 0.1000000 -0.1385850
v 0.3560650 0.1000000 -0.1060650
v 0.3560650 -0.0000000 -0.1060650
v 0.3074050 -0.0000000 -0.1385850
v 0.3560650 0.1000000 -0.1060650
v 0.3885850 0.1000000 -0.0574050
v 0.3885850 -0.0000000 -0.0574050
v 0.3560650 -0.0000000 -0.1060650
v 0.3885850 0.1000000 -0.0574050
v 0.4000000 0.1000000 0.0000000
v 0.4000000 -0.0000000 0.0000000
v 0.3885850 -0.0000000 -0.0574050
v 0.4000000 0.1000000 0.0000000
v 0.3885850 0.1000000 0.0574050
v 0.3885850 -0.0000000 0.0574050
v 0.4000000 -0.0000000 0.0000000
v 0.3885850 0.1000000 0.0574050
v 0.3560650 0.1000000 0.1060650
v 0.3560650 -0.0000000 0.1060650
v 0.3885850 -0.0000000 0.0574050
v 0.3560650 0.1000000 0.1060650
v 0.3074050 0.1000000 0.1385850
v 0.3074050 -0.0000000 0.1385850
v 0.3560650 -0.0000000 0.1060650
v 0.3074050 0.1000000 0.1385850
v 0.2500000 0.1000000 0.1500000
v 0.2500000 -0.0000000 0.1500000
v 0.3074050 -0.0000000 0.1385850
v 0.1925950 0.1000000 0.1385850
v 0.2500000 0.1000000 0.1500000
v 0.2500000 0.1000000 0.0000000
v 0.1439350 0.1000000 0.1060650
v 0.1925950 0.1000000 0.1385850
v 0.2500000 0.1000000 0.0000000
v 0.1114150 0.1000000 0.0574050
v 0.1439350 0.1000000 0.1060650
v 0.2500000 0.1000000 0.0000000
v 0.1000000 0.1000000 0.0000000
v 0.1114150 0.1000000 0.0574050
v 0.2500000 0.1000000 0.0000000
v 0.1114150 0.1000000 -0.0574050
v 0.1000000 0.1000000 0.0000000
v 0.2500000 0.1000000 0.0000000
v 0.1439350 0.1000000 -0.1060650
v 0.1114150 0.1000000 -0.0574050
v 0.2500000 0.1000000 0.0000000
v 0.1925950 0.1000000 -0.1385850
v 0.1439350 0.1000000 -0.1060650
v 0.2500000 0.1000000 0.0000000
v 0.2500000 0.1000000 -0.1500000
v 0.1925950 0.1000000 -0.1385850
v 0.2500000 0.1000000 0.0000000
v 0.3074050 0.1000000 -0.1385850
v 0.2500000 0.1000000 -0.1500000
v 0.2500000 0.1000000 0.0000000
v 0.3560650 0.1000000 -0.1060650
v 0.3074050 0.1000000 -0.1385850
v 0.2500000 0.1000000 0.0000000
v 0.3885850 0.1000000 -0.0574050
v 0.3560650 0.1000000 -0.1060650
v 0.2500000 0.1000000 0.0000000
v 0.4000000 0.1000000 0.0000000
v 0.3885850 0.1000000 -0.0574050
v 0.2500000 0.1000000 0.0000000
v 0.3885850 0.1000000 0.0574050
v 0.4000000 0.1000000 0.0000000
v 0.2500000 0.1000000 0.0000000
v 0.3560650 0.1000000 0.1060650
v 0.3885850 0.1000000 0.0574050
v 0.2500000 0.1000000 0.0000000
v 0.3074050 0.1000000 0.1385850
v 0.3560650 0.1000000 0.1060650
v 0.2500000 0.1000000 0.0000000
v 0.2500000 0.1000000 0.1500000
v 0.3074050 0.1000000 0.1385850
v 0.2500000 0.1000000 0.0000000
v 0.3500000 -0.1500000 -0.5000000
v 0.3500000 -0.1423900 -0.4617300
v -0.3500000 -0.1423900 -0.4617300
v -0.3500000 -0.1500000 -0.5000000
v 0.3500000 -0.1423900 -0.4617300
v 0.3500000 -0.1207100 -0.4292900
v -0.3500000 -0.1207100 -0.4292900
v -0.3500000 -0.1423900 -0.4617300
v 0.3500000 -0.1207100 -0.4292900
v 0.3500000 -0.0882700 -0.4076100
v -0.3500000 -0.0882700 -0.4076100
v -0.3500000 -0.1207100 -0.4292900
v 0.3500000 -0.0882700 -0.4076100
v 0.3500000 -0.0500000 -0.4000000
v -0.3500000 -0.0500000 -0.4000000
v -0.3500000 -0.0882700 -0.4076100
v 0.3500000 -0.0500000 -0.4000000
v 0.3500000 -0.0117300 -0.4076100
v -0.3500000 -0.0117300 -0.4076100
v -0.3500000 -0.0500000 -0.4000000
v 0.3500000 -0.0117300 -0.4076100
v 0.3500000 0.0207100 -0.4292900
v -0.3500000 0.0207100 -0.4292900
v -0.3500000 -0.0117300 -0.4076100
v 0.3500000 0.0207100 -0.4292900
v 0.3500000 0.0423900 -0.4617300
v -0.3500000 0.0423900 -0.4617300
v -0.3500000 0.0207100 -0.4292900
v 0.3500000 0.0423900 -0.4617300
v 0.3500000 0.0500000 -0.5000000
v -0.3500000 0.0500000 -0.5000000
v -0.3500000 0.0423900 -0.4617300
v 0.3500000 0.0500000 -0.5000000
v 0.3500000 0.0423900 -0.5382700
v -0.3500000 0.0423900 -0.5382700
v -0.3500000 0.0500000 -0.5000000
v 0.3500000 0.0423900 -0.5382700
v 0.3500000 0.0207100 -0.5707100
v -0.3500000 0.0207100 -0.5707100
v -0.3500000 0.0423900 -0.5382700
v 0.3500000 0.0207100 -0.5707100
v 0.3500000 -0.0117300 -0.5923900
v -0.3500000 -0.0117300 -0.5923900
v -0.3500000 0.0207100 -0.5707100
v 0.3500000 -0.0117300 -0.5923900
v 0.3500000 -0.0500000 -0.6000000
v -0.3500000 -0.0500000 -0.6000000
v -0.3500000 -0.0117300 -0.5923900
v 0.3500000 -0.0500000 -0.6000000
v 0.3500000 -0.0882700 -0.5923900
v -0.3500000 -0.0882700 -0.5923900
v -0.3500000 -0.0500000 -0.6000000
v 0.3500000 -0.0882700 -0.5923900
v 0.3500000 -0.1207100 -0.5707100
v -0.3500000 -0.1207100 -0.5707100
v -0.3500000 -0.0882700 -0.5923900
v 0.3500000 -0.1207100 -0.5707100
v 0.3500000 -0.1423900 -0.5382700
v -0.3500000 -0.1423900 -0.5382700
v -0.3500000 -0.1207100 -0.5707100
v 0.3500000 -0.1423900 -0.5382700
v 0.3500000 -0.1500000 -0.5000000
v -0.3500000 -0.1500000 -0.5000000
v -0.3500000 -0.1423900 -0.5382700
v -0.5000000 -0.2000000 0.2500000
v 0.5000000 -0.2000000 0.2500000
v 0.5000000 -0.0000000 0.2500000
v -0.5000000 -0.0000000 0.2500000
v 0.5000000 -0.2000000 0.2500000
v 0.5000000 -0.2000000 -0.2500000
v 0.5000000 -0.0000000 -0.2500000
v 0.5000000 -0.0000000 0.2500000
v -0.5000000 -0.0000000 0.2500000
v -0.5000000 -0.0000000 -0.2500000
v -0.5000000 -0.2000000 -0.2500000
v -0.5000000 -0.2000000 0.2500000
v -0.3500000 -0.0000000 -0.2500000
v 0.3500000 -0.0000000 -0.2500000
v 0.3500000 -0.2000000 -0.2500000
v -0.3500000 -0.2000000 -0.2500000
v 0.5000000 -0.0000000 0.2500000
v 0.5000000 -0.0000000 -0.2500000
v 0.3500000 -0.0000000 -0.2500000
v 0.3500000 -0.0000000 -0.2500000
v -0.3500000 -0.0000000 -0.2500000
v -0.5000000 -0.0000000 0.2500000
v 0.5000000 -0.0000000 0.2500000
v -0.3500000 -0.0000000 -0.2500000
v -0.5000000 -0.0000000 -0.2500000
v -0.5000000 -0.0000000 0.2500000
v -0.3500000 -0.0000000 -0.3599250
v -0.3500000 0.0074500 -0.3614000
v -0.5000000 0.0074500 -0.3614000
v -0.5000000 -0.0000000 -0.3599250
v -0.3500000 0.1000000 -0.5000000
v -0.5000000 0.1000000 -0.5000000
v -0.5000000 0.0885850 -0.4425950
v -0.3500000 0.0885850 -0.4425950
v -0.3500000 0.0885850 -0.4425950
v -0.5000000 0.0885850 -0.4425950
v -0.5000000 0.0560650 -0.3939350
v -0.3500000 0.0560650 -0.3939350
v -0.3500000 0.0560650 -0.3939350
v -0.5000000 0.0560650 -0.3939350
v -0.5000000 0.0074050 -0.3614150
v -0.3500000 0.0074050 -0.3614150
v -0.3500000 0.0885850 -0.5574050
v -0.5000000 0.0885850 -0.5574050
v -0.5000000 0.1000000 -0.5000000
v -0.3500000 0.1000000 -0.5000000
v -0.3500000 0.0560650 -0.6060650
v -0.5000000 0.0560650 -0.6060650
v -0.5000000 0.0885850 -0.5574050
v -0.3500000 0.0885850 -0.5574050
v -0.3500000 0.0074050 -0.6385850
v -0.5000000 0.0074050 -0.6385850
v -0.5000000 0.0560650 -0.6060650
v -0.3500000 0.0560650 -0.6060650
v -0.3500000 -0.0500000 -0.6500000
v -0.5000000 -0.0500000 -0.6500000
v -0.5000000 0.0074050 -0.6385850
v -0.3500000 0.0074050 -0.6385850
v -0.3500000 -0.1074050 -0.6385850
v -0.5000000 -0.1074050 -0.6385850
v -0.5000000 -0.0500000 -0.6500000
v -0.3500000 -0.0500000 -0.6500000
v -0.3500000 -0.1560650 -0.6060650
v -0.5000000 -0.1560650 -0.6060650
v -0.5000000 -0.1074050 -0.6385850
v -0.3500000 -0.1074050 -0.6385850
v -0.3500000 -0.1885850 -0.5574050
v -0.5000000 -0.1885850 -0.5574050
v -0.5000000 -0.1560650 -0.6060650
v -0.3500000 -0.1560650 -0.6060650
v -0.3500000 -0.2000000 -0.5000000
v -0.5000000 -0.2000000 -0.5000000
v -0.5000000 -0.1885850 -0.5574050
v -0.3500000 -0.1885850 -0.5574050
v -0.5000000 -0.2000000 -0.5000000
v -0.5000000 0.1000000 -0.5000000
v -0.5000000 0.0885850 -0.5574050
v -0.5000000 -0.1885850 -0.5574050
v -0.5000000 -0.1885850 -0.5574050
v -0.5000000 0.0885850 -0.5574050
v -0.5000000 0.0560650 -0.6060650
v -0.5000000 -0.1560650 -0.6060650
v -0.5000000 -0.1560650 -0.6060650
v -0.5000000 0.0560650 -0.6060650
v -0.5000000 0.0074050 -0.6385850
v -0.5000000 -0.1074050 -0.6385850
v -0.5000000 -0.1074050 -0.6385850
v -0.5000000 0.0074050 -0.6385850
v -0.5000000 -0.0500000 -0.6500000
v -0.5000000 0.0074050 -0.3614150
v -0.5000000 0.0560650 -0.3939350
v -0.5000000 0.0885850 -0.4425950
v -0.5000000 0.1000000 -0.5000000
v -0.3500000 -0.1500000 -0.4000000
v -0.3500000 -0.1500000 -0.5000000
v -0.3500000 -0.1423900 -0.4617300
v -0.3500000 -0.1500000 -0.4000000
v -0.3500000 -0.1423900 -0.4617300
v -0.3500000 -0.1207100 -0.4292900
v -0.3500000 -0.1500000 -0.4000000
v -0.3500000 -0.1207100 -0.4292900
v -0.3500000 -0.0882700 -0.4076100
v -0.3500000 -0.1500000 -0.4000000
v -0.3500000 -0.0882700 -0.4076100
v -0.3500000 -0.0500000 -0.4000000
v -0.3500000 -0.0117300 -0.4076100
v -0.3500000 -0.0301100 -0.4000000
v -0.3500000 -0.0500000 -0.4000000
v -0.3500000 -0.2000000 -0.5000000
v -0.3500000 -0.1885850 -0.5574050
v -0.3500000 -0.1423900 -0.5382700
v -0.3500000 -0.1500000 -0.5000000
v -0.3500000 -0.1885850 -0.5574050
v -0.3500000 -0.1560650 -0.6060650
v -0.3500000 -0.1207100 -0.5707100
v -0.3500000 -0.1423900 -0.5382700
v -0.3500000 -0.1560650 -0.6060650
v -0.3500000 -0.1074050 -0.6385850
v -0.3500000 -0.0882700 -0.5923900
v -0.3500000 -0.1207100 -0.5707100
v -0.3500000 -0.1074050 -0.6385850
v -0.3500000 -0.0500000 -0.6500000
v -0.3500000 -0.0500000 -0.6000000
v -0.3500000 -0.0882700 -0.5923900
v -0.3500000 -0.0500000 -0.6500000
v -0.3500000 0.0074050 -0.6385850
v -0.3500000 -0.0117300 -0.5923900
v -0.3500000 -0.0500000 -0.6000000
v -0.3500000 0.0074050 -0.6385850
v -0.3500000 0.0560650 -0.6060650
v -0.3500000 0.0207100 -0.5707100
v -0.3500000 -0.0117300 -0.5923900
v -0.3500000 0.0560650 -0.6060650
v -0.3500000 0.0885850 -0.5574050
v -0.3500000 0.0423900 -0.5382700
v -0.3500000 0.0207100 -0.5707100
v -0.3500000 0.0885850 -0.5574050
v -0.3500000 0.1000000 -0.5000000
v -0.3500000 0.0500000 -0.5000000
v -0.3500000 0.0423900 -0.5382700
v -0.3500000 0.0500000 -0.5000000
v -0.3500000 0.1000000 -0.5000000
v -0.3500000 0.0885850 -0.4425950
v -0.3500000 0.0423900 -0.4617300
v -0.3500000 0.0423900 -0.4617300
v -0.3500000 0.0885850 -0.4425950
v -0.3500000 0.0560650 -0.3939350
v -0.3500000 0.0207100 -0.4292900
v -0.3500000 0.0207100 -0.4292900
v -0.3500000 0.0560650 -0.3939350
v -0.3500000 0.0074050 -0.3614150
v -0.3500000 -0.0117300 -0.4076100
v -0.3500000 -0.2000000 -0.2500000
v -0.5000000 -0.2000000 -0.2500000
v -0.5000000 -0.2000000 -0.5000000
v -0.3500000 -0.2000000 -0.5000000
v -0.3500000 -0.0000000 -0.3599250
v -0.5000000 -0.0000000 -0.3599250
v -0.5000000 -0.0000000 -0.2500000
v -0.3500000 -0.0000000 -0.2500000
v -0.5000000 -0.0000000 -0.2500000
v -0.5000000 -0.0000000 -0.3599250
v -0.5000000 -0.2000000 -0.5000000
v -0.5000000 -0.2000000 -0.2500000
v -0.3500000 -0.1500000 -0.4000000
v -0.3500000 -0.0500000 -0.4000000
v -0.3500000 -0.0000000 -0.2500000
v -0.3500000 -0.2000000 -0.2500000
v -0.3500000 -0.2000000 -0.5000000
v -0.3500000 -0.1500000 -0.5000000
v -0.3500000 -0.1500000 -0.4000000
v -0.3500000 -0.2000000 -0.2500000
v -0.5000000 0.1000000 -0.5000000
v -0.5000000 -0.2000000 -0.5000000
v -0.5000000 -0.0000000 -0.3599250
v -0.5000000 0.0074500 -0.3614000
v -0.3500000 -0.0301100 -0.4000000
v -0.3500000 -0.0117300 -0.4076100
v -0.3500000 0.0074500 -0.3614000
v -0.3500000 -0.0000000 -0.3599250
v -0.3500000 -0.0000000 -0.3599250
v -0.3500000 -0.0000000 -0.2500000
v -0.3500000 -0.0500000 -0.4000000
v -0.3500000 -0.0301100 -0.4000000
v 0.5000000 -0.0000000 -0.3599250
v 0.5000000 0.0074500 -0.3614000
v 0.3500000 0.0074500 -0.3614000
v 0.3500000 -0.0000000 -0.3599250
v 0.3500000 0.0885850 -0.4425950
v 0.5000000 0.0885850 -0.4425950
v 0.5000000 0.1000000 -0.5000000
v 0.3500000 0.1000000 -0.5000000
v 0.3500000 0.0560650 -0.3939350
v 0.5000000 0.0560650 -0.3939350
v 0.5000000 0.0885850 -0.4425950
v 0.3500000 0.0885850 -0.4425950
v 0.3500000 0.0074050 -0.3614150
v 0.5000000 0.0074050 -0.3614150
v 0.5000000 0.0560650 -0.3939350
v 0.3500000 0.0560650 -0.3939350
v 0.3500000 0.1000000 -0.5000000
v 0.5000000 0.1000000 -0.5000000
v 0.5000000 0.0885850 -0.5574050
v 0.3500000 0.0885850 -0.5574050
v 0.3500000 0.0885850 -0.5574050
v 0.5000000 0.0885850 -0.5574050
v 0.5000000 0.0560650 -0.6060650
v 0.3500000 0.0560650 -0.6060650
v 0.3500000 0.0560650 -0.6060650
v 0.5000000 0.0560650 -0.6060650
v 0.5000000 0.0074050 -0.6385850
v 0.3500000 0.0074050 -0.6385850
v 0.3500000 0.0074050 -0.6385850
v 0.5000000 0.0074050 -0.6385850
v 0.5000000 -0.0500000 -0.6500000
v 0.3500000 -0.0500000 -0.6500000
v 0.3500000 -0.0500000 -0.6500000
v 0.5000000 -0.0500000 -0.6500000
v 0.5000000 -0.1074050 -0.6385850
v 0.3500000 -0.1074050 -0.6385850
v 0.3500000 -0.1074050 -0.6385850
v 0.5000000 -0.1074050 -0.6385850
v 0.5000000 -0.1560650 -0.6060650
v 0.3500000 -0.1560650 -0.6060650
v 0.3500000 -0.1560650 -0.6060650
v 0.5000000 -0.1560650 -0.6060650
v 0.5000000 -0.1885850 -0.5574050
v 0.3500000 -0.1885850 -0.5574050
v 0.3500000 -0.1885850 -0.5574050
v 0.5000000 -0.1885850 -0.5574050
v 0.5000000 -0.2000000 -0.5000000
v 0.3500000 -0.2000000 -0.5000000
v 0.5000000 -0.1885850 -0.5574050
v 0.5000000 0.0885850 -0.5574050
v 0.5000000 0.1000000 -0.5000000
v 0.5000000 -0.2000000 -0.5000000
v 0.5000000 -0.1560650 -0.6060650
v 0.5000000 0.0560650 -0.6060650
v 0.5000000 0.0885850 -0.5574050
v 0.5000000 -0.1885850 -0.5574050
v 0.5000000 -0.1074050 -0.6385850
v 0.5000000 0.0074050 -0.6385850
v 0.5000000 0.0560650 -0.6060650
v 0.5000000 -0.1560650 -0.6060650
v 0.5000000 -0.0500000 -0.6500000
v 0.5000000 0.0074050 -0.6385850
v 0.5000000 -0.1074050 -0.6385850
v 0.5000000 0.1000000 -0.5000000
v 0.5000000 0.0885850 -0.4425950
v 0.5000000 0.0560650 -0.3939350
v 0.5000000 0.0074050 -0.3614150
v 0.3500000 -0.1423900 -0.4617300
v 0.3500000 -0.1500000 -0.5000000
v 0.3500000 -0.1500000 -0.4000000
v 0.3500000 -0.1207100 -0.4292900
v 0.3500000 -0.1423900 -0.4617300
v 0.3500000 -0.1500000 -0.4000000
v 0.3500000 -0.0882700 -0.4076100
v 0.3500000 -0.1207100 -0.4292900
v 0.3500000 -0.1500000 -0.4000000
v 0.3500000 -0.0500000 -0.4000000
v 0.3500000 -0.0882700 -0.4076100
v 0.3500000 -0.1500000 -0.4000000
v 0.3500000 -0.0500000 -0.4000000
v 0.3500000 -0.0301100 -0.4000000
v 0.3500000 -0.0117300 -0.4076100
v 0.3500000 -0.1500000 -0.5000000
v 0.3500000 -0.1423900 -0.5382700
v 0.3500000 -0.1885850 -0.5574050
v 0.3500000 -0.2000000 -0.5000000
v 0.3500000 -0.1423900 -0.5382700
v 0.3500000 -0.1207100 -0.5707100
v 0.3500000 -0.1560650 -0.6060650
v 0.3500000 -0.1885850 -0.5574050
v 0.3500000 -0.1207100 -0.5707100
v 0.3500000 -0.0882700 -0.5923900
v 0.3500000 -0.1074050 -0.6385850
v 0.3500000 -0.1560650 -0.6060650
v 0.3500000 -0.0882700 -0.5923900
v 0.3500000 -0.0500000 -0.6000000
v 0.3500000 -0.0500000 -0.6500000
v 0.3500000 -0.1074050 -0.6385850
v 0.3500000 -0.0500000 -0.6000000
v 0.3500000 -0.0117300 -0.5923900
v 0.3500000 0.0074050 -0.6385850
v 0.3500000 -0.0500000 -0.6500000
v 0.3500000 -0.0117300 -0.5923900
v 0.3500000 0.0207100 -0.5707100
v 0.3500000 0.0560650 -0.6060650
v 0.3500000 0.0074050 -0.6385850
v 0.3500000 0.0207100 -0.5707100
v 0.3500000 0.0423900 -0.5382700
v 0.3500000 0.0885850 -0.5574050
v 0.3500000 0.0560650 -0.6060650
v 0.3500000 0.0423900 -0.5382700
v 0.3500000 0.0500000 -0.5000000
v 0.3500000 0.1000000 -0.5000000
v 0.3500000 0.0885850 -0.5574050
v 0.3500000 0.0423900 -0.4617300
v 0.3500000 0.0885850 -0.4425950
v 0.3500000 0.1000000 -0.5000000
v 0.3500000 0.0500000 -0.5000000
v 0.3500000 0.0207100 -0.4292900
v 0.3500000 0.0560650 -0.3939350
v 0.3500000 0.0885850 -0.4425950
v 0.3500000 0.0423900 -0.4617300
v 0.3500000 -0.0117300 -0.4076100
v 0.3500000 0.0074050 -0.3614150
v 0.3500000 0.0560650 -0.3939350
v 0.3500000 0.0207100 -0.4292900
v 0.3500000 -0.2000000 -0.5000000
v 0.5000000 -0.2000000 -0.5000000
v 0.5000000 -0.2000000 -0.2500000
v 0.3500000 -0.2000000 -0.2500000
v 0.3500000 -0.0000000 -0.2500000
v 0.5000000 -0.0000000 -0.2500000
v 0.5000000 -0.0000000 -0.3599250
v 0.3500000 -0.0000000 -0.3599250
v 0.5000000 -0.2000000 -0.2500000
v 0.5000000 -0.2000000 -0.5000000
v 0.5000000 -0.0000000 -0.3599250
v 0.5000000 -0.0000000 -0.2500000
v 0.3500000 -0.2000000 -0.2500000
v 0.3500000 -0.0000000 -0.2500000
v 0.3500000 -0.0500000 -0.4000000
v 0.3500000 -0.1500000 -0.4000000
v 0.3500000 -0.2000000 -0.2500000
v 0.3500000 -0.1500000 -0.4000000
v 0.3500000 -0.1500000 -0.5000000
v 0.3500000 -0.2000000 -0.5000000
v 0.5000000 0.0074500 -0.3614000
v 0.5000000 -0.0000000 -0.3599250
v 0.5000000 -0.2000000 -0.5000000
v 0.5000000 0.1000000 -0.5000000
v 0.3500000 -0.0000000 -0.3599250
v 0.3500000 0.0074500 -0.3614000
v 0.3500000 -0.0117300 -0.4076100
v 0.3500000 -0.0301100 -0.4000000
v 0.3500000 -0.0301100 -0.4000000
v 0.3500000 -0.0500000 -0.4000000
v 0.3500000 -0.0000000 -0.2500000
v 0.3500000 -0.0000000 -0.3599250
s off
f 1 2 3
f 4 5 6
f 7 8 9
f 10 11 12
f 13 14 15
f 16 17 18
f 19 20 21
f 22 23 24
f 25 26 27
f 28 29 30
f 31 32 33
f 34 35 36
f 37 38 39
f 40 41 42
f 43 44 45
f 46 47 48
f 49 50 51
f 49 51 52
f 53 54 55
f 53 55 56
f 57 58 59
f 57 59 60
f 61 62 63
f 61 63 64
f 65 66 67
f 65 67 68
f 69 70 71
f 69 71 72
f 73 74 75
f 73 75 76
f 77 78 79
f 77 79 80
f 81 82 83
f 81 83 84
f 85 86 87
f 85 87 88
f 89 90 91
f 89 91 92
f 93 94 95
f 93 95 96
f 97 98 99
f 97 99 100
f 101 102 103
f 101 103 104
f 105 106 107
f 105 107 108
f 109 110 111
f 109 111 112
f 113 114 115
f 113 115 116
f 117 118 119
f 117 119 120
f 121 122 123
f 121 123 124
f 125 126 127
f 125 127 128
f 129 130 131
f 129 131 132
f 133 134 135
f 133 135 136
f 137 138 139
f 137 139 140
f 141 142 143
f 144 145 146
f 144 146 147
f 148 149 150
f 151 152 153
f 151 153 154
f 155 156 157
f 155 157 158
f 159 160 161
f 159 161 162
f 163 164 165
f 163 165 166
f 167 168 169
f 167 169 170
f 171 172 173
f 171 173 174
f 175 176 177
f 175 177 178
f 179 180 181
f 179 181 182
f 183 184 185
f 183 185 186
f 187 188 189
f 187 189 190
f 191 192 193
f 191 193 194
f 195 196 197
f 195 197 198
f 199 200 201
f 199 201 202
f 203 204 205
f 203 205 206
f 207 208 209
f 207 209 210
f 211 212 213
f 211 213 214
f 215 216 217
f 215 217 218
f 219 220 221
f 222 223 224
f 225 226 227
f 228 229 230
f 231 232 233
f 234 235 236
f 237 238 239
f 240 241 242
f 243 244 245
f 246 247 248
f 249 250 251
f 252 253 254
f 255 256 257
f 258 259 260
f 261 262 263
f 264 265 266
f 267 268 269
f 267 269 270
f 271 272 273
f 271 273 274
f 275 276 277
f 275 277 278
f 279 280 281
f 279 281 282
f 283 284 285
f 283 285 286
f 287 288 289
f 287 289 290
f 291 292 293
f 291 293 294
f 295 296 297
f 295 297 298
f 299 300 301
f 299 301 302
f 303 304 305
f 303 305 306
f 307 308 309
f 307 309 310
f 311 312 313
f 311 313 314
f 315 316 317
f 315 317 318
f 319 320 321
f 319 321 322
f 323 324 325
f 323 325 326
f 327 328 329
f 327 329 330
f 331 332 333
f 334 335 336
f 337 338 339
f 340 341 342
f 343 344 345
f 346 347 348
f 349 350 351
f 352 353 354
f 355 356 357
f 358 359 360
f 361 362 363
f 364 365 366
f 367 368 369
f 370 371 372
f 373 374 375
f 376 377 378
f 379 380 381
f 379 381 382
f 383 384 385
f 383 385 386
f 387 388 389
f 387 389 390
f 391 392 393
f 391 393 394
f 395 396 397
f 395 397 398
f 399 400 401
f 399 401 402
f 403 404 405
f 403 405 406
f 407 408 409
f 407 409 410
f 411 412 413
f 411 413 414
f 415 416 417
f 415 417 418
f 419 420 421
f 419 421 422
f 423 424 425
f 423 425 426
f 427 428 429
f 427 429 430
f 431 432 433
f 431 433 434
f 435 436 437
f 435 437 438
f 439 440 441
f 439 441 442
f 443 444 445
f 443 445 446
f 447 448 449
f 447 449 450
f 451 452 453
f 451 453 454
f 455 456 457
f 455 457 458
f 459 460 461
f 462 463 464
f 462 464 465
f 466 467 468
f 469 470 471
f 469 471 472
f 473 474 475
f 473 475 476
f 477 478 479
f 477 479 480
f 481 482 483
f 481 483 484
f 485 486 487
f 485 487 488
f 489 490 491
f 489 491 492
f 493 494 495
f 493 495 496
f 497 498 499
f 497 499 500
f 501 502 503
f 501 503 504
f 505 506 507
f 505 507 508
f 509 510 511
f 509 511 512
f 513 514 515
f 513 515 516
f 517 518 519
f 517 519 520
f 521 522 523
f 521 523 524
f 525 526 527
f 525 527 528
f 529 530 531
f 532 533 534
f 532 534 535
f 536 537 538
f 539 540 541
f 542 543 544
f 545 546 547
f 548 549 550
f 551 552 553
f 551 553 554
f 555 556 557
f 555 557 558
f 559 560 561
f 559 561 562
f 563 564 565
f 563 565 566
f 567 568 569
f 567 569 570
f 571 572 573
f 571 573 574
f 575 576 577
f 575 577 578
f 579 580 581
f 579 581 582
f 583 584 585
f 583 585 586
f 587 588 589
f 587 589 590
f 591 592 593
f 591 593 594
f 595 596 597
f 595 597 598
f 599 600 601
f 599 601 602
f 603 604 605
f 603 605 606
f 607 608 609
f 607 609 610
f 611 612 613
f 611 613 614
f 615 616 617
f 615 617 618
f 619 620 621
f 619 621 622
f 623 624 625
f 623 625 626
f 627 628 629
f 627 629 630
f 631 632 633
f 631 633 634
f 635 636 637
f 635 637 638
f 639 640 641
f 639 641 642
f 643 644 645
f 643 645 646
f 647 648 649
f 647 649 650
f 651 652 653
f 651 653 654
f 655 656 657
f 655 657 658
f 659 660 661
f 659 661 662
f 663 664 665
f 663 665 666
f 667 668 669
f 667 669 670
f 671 672 673
f 671 673 674
f 675 676 677
f 675 677 678
f 679 680 681
f 679 681 682
f 683 684 685
f 683 685 686
f 687 688 689
f 690 691 692
f 690 692 693
f 694 695 696
f 697 698 699
f 700 701 702
f 703 704 705
f 706 707 708
f 709 710 711
f 709 711 712
f 713 714 715
f 713 715 716
f 717 718 719
f 717 719 720
f 721 722 723
f 721 723 724
f 725 726 727
f 725 727 728
f 729 730 731
f 729 731 732
f 733 734 735
f 733 735 736
f 737 738 739
f 737 739 740
f 741 742 743
f 741 743 744
f 745 746 747
f 745 747 748
f 749 750 751
f 749 751 752
f 753 754 755
f 753 755 756
f 757 758 759
f 757 759 760
f 761 762 763
f 761 763 764
f 765 766 767
f 765 767 768
f 769 770 771
f 769 771 772
f 773 774 775
f 773 775 776
f 777 778 779
f 777 779 780
f 781 782 783
f 781 783 784
