# Baked from official LDraw part 4865a.dat
o ldraw_4865a
v 0.0000000 -0.6000000 0.0000000
v 0.1000000 -0.6000000 0.0000000
v 0.0923900 -0.6000000 0.0382700
v 0.0000000 -0.6000000 0.0000000
v 0.0923900 -0.6000000 0.0382700
v 0.0707100 -0.6000000 0.0707100
v 0.0000000 -0.6000000 0.0000000
v 0.0707100 -0.6000000 0.0707100
v 0.0382700 -0.6000000 0.0923900
v 0.0000000 -0.6000000 0.0000000
v 0.0382700 -0.6000000 0.0923900
v 0.0000000 -0.6000000 0.1000000
v 0.0000000 -0.6000000 0.0000000
v 0.0000000 -0.6000000 0.1000000
v -0.0382700 -0.6000000 0.0923900
v 0.0000000 -0.6000000 0.0000000
v -0.0382700 -0.6000000 0.0923900
v -0.0707100 -0.6000000 0.0707100
v 0.0000000 -0.6000000 0.0000000
v -0.0707100 -0.6000000 0.0707100
v -0.0923900 -0.6000000 0.0382700
v 0.0000000 -0.6000000 0.0000000
v -0.0923900 -0.6000000 0.0382700
v -0.1000000 -0.6000000 0.0000000
v 0.0000000 -0.6000000 0.0000000
v -0.1000000 -0.6000000 0.0000000
v -0.0923900 -0.6000000 -0.0382700
v 0.0000000 -0.6000000 0.0000000
v -0.0923900 -0.6000000 -0.0382700
v -0.0707100 -0.6000000 -0.0707100
v 0.0000000 -0.6000000 0.0000000
v -0.0707100 -0.6000000 -0.0707100
v -0.0382700 -0.6000000 -0.0923900
v 0.0000000 -0.6000000 0.0000000
v -0.0382700 -0.6000000 -0.0923900
v 0.0000000 -0.6000000 -0.1000000
v 0.0000000 -0.6000000 0.0000000
v 0.0000000 -0.6000000 -0.1000000
v 0.0382700 -0.6000000 -0.0923900
v 0.0000000 -0.6000000 0.0000000
v 0.0382700 -0.6000000 -0.0923900
v 0.0707100 -0.6000000 -0.0707100
v 0.0000000 -0.6000000 0.0000000
v 0.0707100 -0.6000000 -0.0707100
v 0.0923900 -0.6000000 -0.0382700
v 0.0000000 -0.6000000 0.0000000
v 0.0923900 -0.6000000 -0.0382700
v 0.1000000 -0.6000000 0.0000000
v 0.1000000 -0.5000000 0.0000000
v 0.0923900 -0.5000000 0.0382700
v 0.0923900 -0.6000000 0.0382700
v 0.1000000 -0.6000000 0.0000000
v 0.0923900 -0.5000000 0.0382700
v 0.0707100 -0.5000000 0.0707100
v 0.0707100 -0.6000000 0.0707100
v 0.0923900 -0.6000000 0.0382700
v 0.0707100 -0.5000000 0.0707100
v 0.0382700 -0.5000000 0.0923900
v 0.0382700 -0.6000000 0.0923900
v 0.0707100 -0.6000000 0.0707100
v 0.0382700 -0.5000000 0.0923900
v 0.0000000 -0.5000000 0.1000000
v 0.0000000 -0.6000000 0.1000000
v 0.0382700 -0.6000000 0.0923900
v 0.0000000 -0.5000000 0.1000000
v -0.0382700 -0.5000000 0.0923900
v -0.0382700 -0.6000000 0.0923900
v 0.0000000 -0.6000000 0.1000000
v -0.0382700 -0.5000000 0.0923900
v -0.0707100 -0.5000000 0.0707100
v -0.0707100 -0.6000000 0.0707100
v -0.0382700 -0.6000000 0.0923900
v -0.0707100 -0.5000000 0.0707100
v -0.0923900 -0.5000000 0.0382700
v -0.0923900 -0.6000000 0.0382700
v -0.0707100 -0.6000000 0.0707100
v -0.0923900 -0.5000000 0.0382700
v -0.1000000 -0.5000000 0.0000000
v -0.1000000 -0.6000000 0.0000000
v -0.0923900 -0.6000000 0.0382700
v -0.1000000 -0.5000000 0.0000000
v -0.0923900 -0.5000000 -0.0382700
v -0.0923900 -0.6000000 -0.0382700
v -0.1000000 -0.6000000 0.0000000
v -0.0923900 -0.5000000 -0.0382700
v -0.0707100 -0.5000000 -0.0707100
v -0.0707100 -0.6000000 -0.0707100
v -0.0923900 -0.6000000 -0.0382700
v -0.0707100 -0.5000000 -0.0707100
v -0.0382700 -0.5000000 -0.0923900
v -0.0382700 -0.6000000 -0.0923900
v -0.0707100 -0.6000000 -0.0707100
v -0.0382700 -0.5000000 -0.0923900
v 0.0000000 -0.5000000 -0.1000000
v 0.0000000 -0.6000000 -0.1000000
v -0.0382700 -0.6000000 -0.0923900
v 0.0000000 -0.5000000 -0.1000000
v 0.0382700 -0.5000000 -0.0923900
v 0.0382700 -0.6000000 -0.0923900
v 0.0000000 -0.6000000 -0.1000000
v 0.0382700 -0.5000000 -0.0923900
v 0.0707100 -0.5000000 -0.0707100
v 0.0707100 -0.6000000 -0.0707100
v 0.0382700 -0.6000000 -0.0923900
v 0.0707100 -0.5000000 -0.0707100
v 0.0923900 -0.5000000 -0.0382700
v 0.0923900 -0.6000000 -0.0382700
v 0.0707100 -0.6000000 -0.0707100
v 0.0923900 -0.5000000 -0.0382700
v 0.1000000 -0.5000000 0.0000000
v 0.1000000 -0.6000000 0.0000000
v 0.0923900 -0.6000000 -0.0382700
v -0.4000000 -0.5000000 -0.1500000
v 0.4000000 -0.5000000 -0.1500000
v 0.4000000 -0.5000000 0.1500000
v -0.4000000 -0.5000000 0.1500000
v 0.4000000 -0.5000000 0.1500000
v 0.4000000 -0.6000000 0.1500000
v -0.4000000 -0.6000000 0.1500000
v -0.4000000 -0.5000000 0.1500000
v -0.4000000 -0.5000000 0.1500000
v -0.4000000 -0.6000000 0.1500000
v -0.4000000 -0.6000000 -0.1500000
v -0.4000000 -0.5000000 -0.1500000
v -0.4000000 -0.5000000 -0.1500000
v -0.4000000 -0.6000000 -0.1500000
v 0.4000000 -0.6000000 -0.1500000
v 0.4000000 -0.5000000 -0.1500000
v 0.4000000 -0.5000000 -0.1500000
v 0.4000000 -0.6000000 -0.1500000
v 0.4000000 -0.6000000 0.1500000
v 0.4000000 -0.5000000 0.1500000
v -0.5000000 -0.6000000 0.2500000
v -0.4000000 -0.6000000 0.1500000
v 0.4000000 -0.6000000 0.1500000
v 0.5000000 -0.6000000 0.2500000
v -0.5000000 -0.6000000 -0.2500000
v -0.4000000 -0.6000000 -0.1500000
v -0.4000000 -0.6000000 0.1500000
v -0.5000000 -0.6000000 0.2500000
v 0.5000000 -0.6000000 -0.2500000
v 0.4000000 -0.6000000 -0.1500000
v -0.4000000 -0.6000000 -0.1500000
v -0.5000000 -0.6000000 -0.2500000
v 0.5000000 -0.6000000 0.2500000
v 0.4000000 -0.6000000 0.1500000
v 0.4000000 -0.6000000 -0.1500000
v 0.5000000 -0.6000000 -0.2500000
v -0.5000000 -0.4000000 -0.2500000
v -0.5000000 -0.4000000 0.1500000
v 0.5000000 -0.4000000 0.1500000
v 0.5000000 -0.4000000 -0.2500000
v -0.5000000 -0.0000000 0.1500000
v -0.5000000 -0.0000000 0.2500000
v 0.5000000 -0.0000000 0.2500000
v 0.5000000 -0.0000000 0.1500000
v -0.5000000 -0.4000000 0.1500000
v -0.5000000 -0.4000000 -0.2500000
v -0.5000000 -0.6000000 -0.2500000
v -0.5000000 -0.6000000 0.2500000
v -0.5000000 -0.4000000 -0.2500000
v 0.5000000 -0.4000000 -0.2500000
v 0.5000000 -0.6000000 -0.2500000
v -0.5000000 -0.6000000 -0.2500000
v 0.5000000 -0.4000000 -0.2500000
v 0.5000000 -0.4000000 0.1500000
v 0.5000000 -0.6000000 0.2500000
v 0.5000000 -0.6000000 -0.2500000
v -0.5000000 -0.0000000 0.2500000
v -0.5000000 -0.0000000 0.1500000
v -0.5000000 -0.4000000 0.1500000
v -0.5000000 -0.6000000 0.2500000
v -0.5000000 -0.0000000 0.1500000
v 0.5000000 -0.0000000 0.1500000
v 0.5000000 -0.4000000 0.1500000
v -0.5000000 -0.4000000 0.1500000
v 0.5000000 -0.0000000 0.1500000
v 0.5000000 -0.0000000 0.2500000
v 0.5000000 -0.6000000 0.2500000
v 0.5000000 -0.4000000 0.1500000
v 0.5000000 -0.0000000 0.2500000
v -0.5000000 -0.0000000 0.2500000
v -0.5000000 -0.6000000 0.2500000
v 0.5000000 -0.6000000 0.2500000
s off
f 1 2 3
f 4 5 6
f 7 8 9
f 10 11 12
f 13 14 15
f 16 17 18
f 19 20 21
f 22 23 24
f 25 26 27
f 28 29 30
f 31 32 33
f 34 35 36
f 37 38 39
f 40 41 42
f 43 44 45
f 46 47 48
f 49 50 51
f 49 51 52
f 53 54 55
f 53 55 56
f 57 58 59
f 57 59 60
f 61 62 63
f 61 63 64
f 65 66 67
f 65 67 68
f 69 70 71
f 69 71 72
f 73 74 75
f 73 75 76
f 77 78 79
f 77 79 80
f 81 82 83
f 81 83 84
f 85 86 87
f 85 87 88
f 89 90 91
f 89 91 92
f 93 94 95
f 93 95 96
f 97 98 99
f 97 99 100
f 101 102 103
f 101 103 104
f 105 106 107
f 105 107 108
f 109 110 111
f 109 111 112
f 113 114 115
f 113 115 116
f 117 118 119
f 117 119 120
f 121 122 123
f 121 123 124
f 125 126 127
f 125 127 128
f 129 130 131
f 129 131 132
f 133 134 135
f 133 135 136
f 137 138 139
f 137 139 140
f 141 142 143
f 141 143 144
f 145 146 147
f 145 147 148
f 149 150 151
f 149 151 152
f 153 154 155
f 153 155 156
f 157 158 159
f 157 159 160
f 161 162 163
f 161 163 164
f 165 166 167
f 165 167 168
f 169 170 171
f 169 171 172
f 173 174 175
f 173 175 176
f 177 178 179
f 177 179 180
f 181 182 183
f 181 183 184
