# Baked from official LDraw part 57894.dat
o ldraw_57894
v 0.9000000 -3.4750000 0.1500000
v 0.9000000 -3.6000000 0.1500000
v -0.9000000 -3.6000000 0.1500000
v -0.9000000 -3.4750000 0.1500000
v 0.9000000 -3.4750000 -0.1500000
v 0.9000000 -3.6000000 -0.1500000
v 0.9000000 -3.6000000 0.1500000
v 0.9000000 -3.4750000 0.1500000
v -0.9000000 -3.4750000 -0.1500000
v -0.9000000 -3.6000000 -0.1500000
v 0.9000000 -3.6000000 -0.1500000
v 0.9000000 -3.4750000 -0.1500000
v -0.9000000 -3.4750000 0.1500000
v -0.9000000 -3.6000000 0.1500000
v -0.9000000 -3.6000000 -0.1500000
v -0.9000000 -3.4750000 -0.1500000
v -1.0000000 -3.6000000 0.2500000
v -0.9000000 -3.6000000 0.1500000
v 0.9000000 -3.6000000 0.1500000
v 1.0000000 -3.6000000 0.2500000
v -1.0000000 -3.6000000 -0.2500000
v -0.9000000 -3.6000000 -0.1500000
v -0.9000000 -3.6000000 0.1500000
v -1.0000000 -3.6000000 0.2500000
v 1.0000000 -3.6000000 -0.2500000
v 0.9000000 -3.6000000 -0.1500000
v -0.9000000 -3.6000000 -0.1500000
v -1.0000000 -3.6000000 -0.2500000
v 1.0000000 -3.6000000 0.2500000
v 0.9000000 -3.6000000 0.1500000
v 0.9000000 -3.6000000 -0.1500000
v 1.0000000 -3.6000000 -0.2500000
v 0.8625000 -3.4750000 -0.0750000
v 0.8586950 -3.4750000 -0.0558650
v 0.8586950 -3.4000000 -0.0558650
v 0.8625000 -3.4000000 -0.0750000
v 0.8586950 -3.4750000 -0.0558650
v 0.8478550 -3.4750000 -0.0396450
v 0.8478550 -3.4000000 -0.0396450
v 0.8586950 -3.4000000 -0.0558650
v 0.8478550 -3.4750000 -0.0396450
v 0.8316350 -3.4750000 -0.0288050
v 0.8316350 -3.4000000 -0.0288050
v 0.8478550 -3.4000000 -0.0396450
v 0.8316350 -3.4750000 -0.0288050
v 0.8125000 -3.4750000 -0.0250000
v 0.8125000 -3.4000000 -0.0250000
v 0.8316350 -3.4000000 -0.0288050
v 0.8125000 -3.4750000 -0.0250000
v 0.7933650 -3.4750000 -0.0288050
v 0.7933650 -3.4000000 -0.0288050
v 0.8125000 -3.4000000 -0.0250000
v 0.7933650 -3.4750000 -0.0288050
v 0.7771450 -3.4750000 -0.0396450
v 0.7771450 -3.4000000 -0.0396450
v 0.7933650 -3.4000000 -0.0288050
v 0.7771450 -3.4750000 -0.0396450
v 0.7663050 -3.4750000 -0.0558650
v 0.7663050 -3.4000000 -0.0558650
v 0.7771450 -3.4000000 -0.0396450
v 0.7663050 -3.4750000 -0.0558650
v 0.7625000 -3.4750000 -0.0750000
v 0.7625000 -3.4000000 -0.0750000
v 0.7663050 -3.4000000 -0.0558650
v 0.7625000 -3.4750000 -0.0750000
v 0.7663050 -3.4750000 -0.0941350
v 0.7663050 -3.4000000 -0.0941350
v 0.7625000 -3.4000000 -0.0750000
v 0.7663050 -3.4750000 -0.0941350
v 0.7771450 -3.4750000 -0.1103550
v 0.7771450 -3.4000000 -0.1103550
v 0.7663050 -3.4000000 -0.0941350
v 0.7771450 -3.4750000 -0.1103550
v 0.7933650 -3.4750000 -0.1211950
v 0.7933650 -3.4000000 -0.1211950
v 0.7771450 -3.4000000 -0.1103550
v 0.7933650 -3.4750000 -0.1211950
v 0.8125000 -3.4750000 -0.1250000
v 0.8125000 -3.4000000 -0.1250000
v 0.7933650 -3.4000000 -0.1211950
v 0.8125000 -3.4750000 -0.1250000
v 0.8316350 -3.4750000 -0.1211950
v 0.8316350 -3.4000000 -0.1211950
v 0.8125000 -3.4000000 -0.1250000
v 0.8316350 -3.4750000 -0.1211950
v 0.8478550 -3.4750000 -0.1103550
v 0.8478550 -3.4000000 -0.1103550
v 0.8316350 -3.4000000 -0.1211950
v 0.8478550 -3.4750000 -0.1103550
v 0.8586950 -3.4750000 -0.0941350
v 0.8586950 -3.4000000 -0.0941350
v 0.8478550 -3.4000000 -0.1103550
v 0.8586950 -3.4750000 -0.0941350
v 0.8625000 -3.4750000 -0.0750000
v 0.8625000 -3.4000000 -0.0750000
v 0.8586950 -3.4000000 -0.0941350
v 0.7625000 -3.4750000 -0.0250000
v 0.7625000 -3.4750000 -0.0750000
v 0.7663050 -3.4750000 -0.0558650
v 0.7625000 -3.4750000 -0.0250000
v 0.7663050 -3.4750000 -0.0558650
v 0.7771450 -3.4750000 -0.0396450
v 0.7625000 -3.4750000 -0.0250000
v 0.7771450 -3.4750000 -0.0396450
v 0.7933650 -3.4750000 -0.0288050
v 0.7625000 -3.4750000 -0.0250000
v 0.7933650 -3.4750000 -0.0288050
v 0.8125000 -3.4750000 -0.0250000
v 0.8625000 -3.4750000 -0.0250000
v 0.8125000 -3.4750000 -0.0250000
v 0.8316350 -3.4750000 -0.0288050
v 0.8625000 -3.4750000 -0.0250000
v 0.8316350 -3.4750000 -0.0288050
v 0.8478550 -3.4750000 -0.0396450
v 0.8625000 -3.4750000 -0.0250000
v 0.8478550 -3.4750000 -0.0396450
v 0.8586950 -3.4750000 -0.0558650
v 0.8625000 -3.4750000 -0.0250000
v 0.8586950 -3.4750000 -0.0558650
v 0.8625000 -3.4750000 -0.0750000
v 0.8625000 -3.4750000 -0.1250000
v 0.8625000 -3.4750000 -0.0750000
v 0.8586950 -3.4750000 -0.0941350
v 0.8625000 -3.4750000 -0.1250000
v 0.8586950 -3.4750000 -0.0941350
v 0.8478550 -3.4750000 -0.1103550
v 0.8625000 -3.4750000 -0.1250000
v 0.8478550 -3.4750000 -0.1103550
v 0.8316350 -3.4750000 -0.1211950
v 0.8625000 -3.4750000 -0.1250000
v 0.8316350 -3.4750000 -0.1211950
v 0.8125000 -3.4750000 -0.1250000
v 0.7625000 -3.4750000 -0.1250000
v 0.8125000 -3.4750000 -0.1250000
v 0.7933650 -3.4750000 -0.1211950
v 0.7625000 -3.4750000 -0.1250000
v 0.7933650 -3.4750000 -0.1211950
v 0.7771450 -3.4750000 -0.1103550
v 0.7625000 -3.4750000 -0.1250000
v 0.7771450 -3.4750000 -0.1103550
v 0.7663050 -3.4750000 -0.0941350
v 0.7625000 -3.4750000 -0.1250000
v 0.7663050 -3.4750000 -0.0941350
v 0.7625000 -3.4750000 -0.0750000
v 0.9000000 -3.4750000 -0.1500000
v 0.9000000 -3.4750000 0.1500000
v 0.8625000 -3.4750000 -0.0250000
v 0.8625000 -3.4750000 -0.1250000
v 0.9000000 -3.4750000 -0.1500000
v 0.8625000 -3.4750000 -0.1250000
v 0.7625000 -3.4750000 -0.1250000
v 0.7625000 -3.4750000 -0.0250000
v 0.8625000 -3.4750000 -0.0250000
v 0.9000000 -3.4750000 0.1500000
v -0.7625000 -3.4750000 -0.0750000
v -0.7663050 -3.4750000 -0.0558650
v -0.7663050 -3.4000000 -0.0558650
v -0.7625000 -3.4000000 -0.0750000
v -0.7663050 -3.4750000 -0.0558650
v -0.7771450 -3.4750000 -0.0396450
v -0.7771450 -3.4000000 -0.0396450
v -0.7663050 -3.4000000 -0.0558650
v -0.7771450 -3.4750000 -0.0396450
v -0.7933650 -3.4750000 -0.0288050
v -0.7933650 -3.4000000 -0.0288050
v -0.7771450 -3.4000000 -0.0396450
v -0.7933650 -3.4750000 -0.0288050
v -0.8125000 -3.4750000 -0.0250000
v -0.8125000 -3.4000000 -0.0250000
v -0.7933650 -3.4000000 -0.0288050
v -0.8125000 -3.4750000 -0.0250000
v -0.8316350 -3.4750000 -0.0288050
v -0.8316350 -3.4000000 -0.0288050
v -0.8125000 -3.4000000 -0.0250000
v -0.8316350 -3.4750000 -0.0288050
v -0.8478550 -3.4750000 -0.0396450
v -0.8478550 -3.4000000 -0.0396450
v -0.8316350 -3.4000000 -0.0288050
v -0.8478550 -3.4750000 -0.0396450
v -0.8586950 -3.4750000 -0.0558650
v -0.8586950 -3.4000000 -0.0558650
v -0.8478550 -3.4000000 -0.0396450
v -0.8586950 -3.4750000 -0.0558650
v -0.8625000 -3.4750000 -0.0750000
v -0.8625000 -3.4000000 -0.0750000
v -0.8586950 -3.4000000 -0.0558650
v -0.8625000 -3.4750000 -0.0750000
v -0.8586950 -3.4750000 -0.0941350
v -0.8586950 -3.4000000 -0.0941350
v -0.8625000 -3.4000000 -0.0750000
v -0.8586950 -3.4750000 -0.0941350
v -0.8478550 -3.4750000 -0.1103550
v -0.8478550 -3.4000000 -0.1103550
v -0.8586950 -3.4000000 -0.0941350
v -0.8478550 -3.4750000 -0.1103550
v -0.8316350 -3.4750000 -0.1211950
v -0.8316350 -3.4000000 -0.1211950
v -0.8478550 -3.4000000 -0.1103550
v -0.8316350 -3.4750000 -0.1211950
v -0.8125000 -3.4750000 -0.1250000
v -0.8125000 -3.4000000 -0.1250000
v -0.8316350 -3.4000000 -0.1211950
v -0.8125000 -3.4750000 -0.1250000
v -0.7933650 -3.4750000 -0.1211950
v -0.7933650 -3.4000000 -0.1211950
v -0.8125000 -3.4000000 -0.1250000
v -0.7933650 -3.4750000 -0.1211950
v -0.7771450 -3.4750000 -0.1103550
v -0.7771450 -3.4000000 -0.1103550
v -0.7933650 -3.4000000 -0.1211950
v -0.7771450 -3.4750000 -0.1103550
v -0.7663050 -3.4750000 -0.0941350
v -0.7663050 -3.4000000 -0.0941350
v -0.7771450 -3.4000000 -0.1103550
v -0.7663050 -3.4750000 -0.0941350
v -0.7625000 -3.4750000 -0.0750000
v -0.7625000 -3.4000000 -0.0750000
v -0.7663050 -3.4000000 -0.0941350
v -0.8625000 -3.4750000 -0.0250000
v -0.8625000 -3.4750000 -0.0750000
v -0.8586950 -3.4750000 -0.0558650
v -0.8625000 -3.4750000 -0.0250000
v -0.8586950 -3.4750000 -0.0558650
v -0.8478550 -3.4750000 -0.0396450
v -0.8625000 -3.4750000 -0.0250000
v -0.8478550 -3.4750000 -0.0396450
v -0.8316350 -3.4750000 -0.0288050
v -0.8625000 -3.4750000 -0.0250000
v -0.8316350 -3.4750000 -0.0288050
v -0.8125000 -3.4750000 -0.0250000
v -0.7625000 -3.4750000 -0.0250000
v -0.8125000 -3.4750000 -0.0250000
v -0.7933650 -3.4750000 -0.0288050
v -0.7625000 -3.4750000 -0.0250000
v -0.7933650 -3.4750000 -0.0288050
v -0.7771450 -3.4750000 -0.0396450
v -0.7625000 -3.4750000 -0.0250000
v -0.7771450 -3.4750000 -0.0396450
v -0.7663050 -3.4750000 -0.0558650
v -0.7625000 -3.4750000 -0.0250000
v -0.7663050 -3.4750000 -0.0558650
v -0.7625000 -3.4750000 -0.0750000
v -0.7625000 -3.4750000 -0.1250000
v -0.7625000 -3.4750000 -0.0750000
v -0.7663050 -3.4750000 -0.0941350
v -0.7625000 -3.4750000 -0.1250000
v -0.7663050 -3.4750000 -0.0941350
v -0.7771450 -3.4750000 -0.1103550
v -0.7625000 -3.4750000 -0.1250000
v -0.7771450 -3.4750000 -0.1103550
v -0.7933650 -3.4750000 -0.1211950
v -0.7625000 -3.4750000 -0.1250000
v -0.7933650 -3.4750000 -0.1211950
v -0.8125000 -3.4750000 -0.1250000
v -0.8625000 -3.4750000 -0.1250000
v -0.8125000 -3.4750000 -0.1250000
v -0.8316350 -3.4750000 -0.1211950
v -0.8625000 -3.4750000 -0.1250000
v -0.8316350 -3.4750000 -0.1211950
v -0.8478550 -3.4750000 -0.1103550
v -0.8625000 -3.4750000 -0.1250000
v -0.8478550 -3.4750000 -0.1103550
v -0.8586950 -3.4750000 -0.0941350
v -0.8625000 -3.4750000 -0.1250000
v -0.8586950 -3.4750000 -0.0941350
v -0.8625000 -3.4750000 -0.0750000
v -0.8625000 -3.4750000 -0.1250000
v -0.8625000 -3.4750000 -0.0250000
v -0.9000000 -3.4750000 0.1500000
v -0.9000000 -3.4750000 -0.1500000
v -0.7625000 -3.4750000 -0.1250000
v -0.8625000 -3.4750000 -0.1250000
v -0.9000000 -3.4750000 -0.1500000
v -0.9000000 -3.4750000 0.1500000
v -0.8625000 -3.4750000 -0.0250000
v -0.7625000 -3.4750000 -0.0250000
v -0.7625000 -3.4750000 -0.1250000
v -0.9000000 -3.4750000 -0.1500000
v 0.9000000 -3.4750000 -0.1500000
v 0.7625000 -3.4750000 -0.1250000
v 0.7625000 -3.4750000 -0.1250000
v 0.7625000 -3.4750000 -0.0250000
v -0.7625000 -3.4750000 -0.0250000
v -0.7625000 -3.4750000 -0.1250000
v 0.7625000 -3.4750000 -0.0250000
v 0.9000000 -3.4750000 0.1500000
v -0.9000000 -3.4750000 0.1500000
v -0.7625000 -3.4750000 -0.0250000
v 1.0000000 -3.6000000 0.2500000
v 0.9062500 -3.4000000 0.2500000
v -0.9062500 -3.4000000 0.2500000
v -1.0000000 -3.6000000 0.2500000
v 1.0000000 -0.0000000 0.2500000
v 0.9062500 -0.1125000 0.2500000
v 0.9062500 -3.4000000 0.2500000
v 1.0000000 -3.6000000 0.2500000
v -1.0000000 -0.0000000 0.2500000
v -0.9062500 -0.1125000 0.2500000
v 0.9062500 -0.1125000 0.2500000
v 1.0000000 -0.0000000 0.2500000
v -1.0000000 -3.6000000 0.2500000
v -0.9062500 -3.4000000 0.2500000
v -0.9062500 -0.1125000 0.2500000
v -1.0000000 -0.0000000 0.2500000
v 0.8625000 -3.4000000 -0.0250000
v 0.8625000 -3.4000000 -0.0750000
v 0.8586950 -3.4000000 -0.0558650
v 0.8625000 -3.4000000 -0.0250000
v 0.8586950 -3.4000000 -0.0558650
v 0.8478550 -3.4000000 -0.0396450
v 0.8625000 -3.4000000 -0.0250000
v 0.8478550 -3.4000000 -0.0396450
v 0.8316350 -3.4000000 -0.0288050
v 0.8625000 -3.4000000 -0.0250000
v 0.8316350 -3.4000000 -0.0288050
v 0.8125000 -3.4000000 -0.0250000
v 0.7625000 -3.4000000 -0.0250000
v 0.8125000 -3.4000000 -0.0250000
v 0.7933650 -3.4000000 -0.0288050
v 0.7625000 -3.4000000 -0.0250000
v 0.7933650 -3.4000000 -0.0288050
v 0.7771450 -3.4000000 -0.0396450
v 0.7625000 -3.4000000 -0.0250000
v 0.7771450 -3.4000000 -0.0396450
v 0.7663050 -3.4000000 -0.0558650
v 0.7625000 -3.4000000 -0.0250000
v 0.7663050 -3.4000000 -0.0558650
v 0.7625000 -3.4000000 -0.0750000
v 0.7625000 -3.4000000 -0.1250000
v 0.7625000 -3.4000000 -0.0750000
v 0.7663050 -3.4000000 -0.0941350
v 0.7625000 -3.4000000 -0.1250000
v 0.7663050 -3.4000000 -0.0941350
v 0.7771450 -3.4000000 -0.1103550
v 0.7625000 -3.4000000 -0.1250000
v 0.7771450 -3.4000000 -0.1103550
v 0.7933650 -3.4000000 -0.1211950
v 0.7625000 -3.4000000 -0.1250000
v 0.7933650 -3.4000000 -0.1211950
v 0.8125000 -3.4000000 -0.1250000
v 0.8625000 -3.4000000 -0.1250000
v 0.8125000 -3.4000000 -0.1250000
v 0.8316350 -3.4000000 -0.1211950
v 0.8625000 -3.4000000 -0.1250000
v 0.8316350 -3.4000000 -0.1211950
v 0.8478550 -3.4000000 -0.1103550
v 0.8625000 -3.4000000 -0.1250000
v 0.8478550 -3.4000000 -0.1103550
v 0.8586950 -3.4000000 -0.0941350
v 0.8625000 -3.4000000 -0.1250000
v 0.8586950 -3.4000000 -0.0941350
v 0.8625000 -3.4000000 -0.0750000
v 0.8625000 -3.4000000 -0.0250000
v 0.9062500 -3.4000000 0.2500000
v 0.9062500 -3.4000000 -0.1250000
v 0.8625000 -3.4000000 -0.1250000
v 0.8625000 -3.4000000 -0.0250000
v 0.7625000 -3.4000000 -0.0250000
v 0.9062500 -3.4000000 0.2500000
v -0.7625000 -3.4000000 -0.0250000
v -0.7625000 -3.4000000 -0.0750000
v -0.7663050 -3.4000000 -0.0558650
v -0.7625000 -3.4000000 -0.0250000
v -0.7663050 -3.4000000 -0.0558650
v -0.7771450 -3.4000000 -0.0396450
v -0.7625000 -3.4000000 -0.0250000
v -0.7771450 -3.4000000 -0.0396450
v -0.7933650 -3.4000000 -0.0288050
v -0.7625000 -3.4000000 -0.0250000
v -0.7933650 -3.4000000 -0.0288050
v -0.8125000 -3.4000000 -0.0250000
v -0.8625000 -3.4000000 -0.0250000
v -0.8125000 -3.4000000 -0.0250000
v -0.8316350 -3.4000000 -0.0288050
v -0.8625000 -3.4000000 -0.0250000
v -0.8316350 -3.4000000 -0.0288050
v -0.8478550 -3.4000000 -0.0396450
v -0.8625000 -3.4000000 -0.0250000
v -0.8478550 -3.4000000 -0.0396450
v -0.8586950 -3.4000000 -0.0558650
v -0.8625000 -3.4000000 -0.0250000
v -0.8586950 -3.4000000 -0.0558650
v -0.8625000 -3.4000000 -0.0750000
v -0.8625000 -3.4000000 -0.1250000
v -0.8625000 -3.4000000 -0.0750000
v -0.8586950 -3.4000000 -0.0941350
v -0.8625000 -3.4000000 -0.1250000
v -0.8586950 -3.4000000 -0.0941350
v -0.8478550 -3.4000000 -0.1103550
v -0.8625000 -3.4000000 -0.1250000
v -0.8478550 -3.4000000 -0.1103550
v -0.8316350 -3.4000000 -0.1211950
v -0.8625000 -3.4000000 -0.1250000
v -0.8316350 -3.4000000 -0.1211950
v -0.8125000 -3.4000000 -0.1250000
v -0.7625000 -3.4000000 -0.1250000
v -0.8125000 -3.4000000 -0.1250000
v -0.7933650 -3.4000000 -0.1211950
v -0.7625000 -3.4000000 -0.1250000
v -0.7933650 -3.4000000 -0.1211950
v -0.7771450 -3.4000000 -0.1103550
v -0.7625000 -3.4000000 -0.1250000
v -0.7771450 -3.4000000 -0.1103550
v -0.7663050 -3.4000000 -0.0941350
v -0.7625000 -3.4000000 -0.1250000
v -0.7663050 -3.4000000 -0.0941350
v -0.7625000 -3.4000000 -0.0750000
v -0.8625000 -3.4000000 -0.1250000
v -0.9062500 -3.4000000 -0.1250000
v -0.9062500 -3.4000000 0.2500000
v -0.8625000 -3.4000000 -0.0250000
v -0.9062500 -3.4000000 0.2500000
v -0.7625000 -3.4000000 -0.0250000
v -0.8625000 -3.4000000 -0.0250000
v -0.7625000 -3.4000000 -0.1250000
v -0.7625000 -3.4000000 -0.0250000
v 0.7625000 -3.4000000 -0.0250000
v 0.7625000 -3.4000000 -0.1250000
v 0.7625000 -3.4000000 -0.0250000
v -0.7625000 -3.4000000 -0.0250000
v -0.9062500 -3.4000000 0.2500000
v 0.9062500 -3.4000000 0.2500000
v -1.0000000 -0.0000000 0.2500000
v -1.0000000 -0.0000000 -0.2500000
v -1.0000000 -3.6000000 -0.2500000
v -1.0000000 -3.6000000 0.2500000
v -0.9062500 -3.4000000 0.2500000
v -0.9062500 -3.4000000 -0.1250000
v -0.9062500 -0.1125000 -0.1250000
v -0.9062500 -0.1125000 0.2500000
v 0.9062500 -3.4000000 -0.1250000
v 0.8500000 -3.3250000 -0.1250000
v -0.8500000 -3.3250000 -0.1250000
v -0.9062500 -3.4000000 -0.1250000
v 0.9062500 -0.1125000 -0.1250000
v 0.8500000 -0.1500000 -0.1250000
v 0.8500000 -3.3250000 -0.1250000
v 0.9062500 -3.4000000 -0.1250000
v -0.9062500 -3.4000000 -0.1250000
v -0.8500000 -3.3250000 -0.1250000
v -0.8500000 -0.1500000 -0.1250000
v -0.9062500 -0.1125000 -0.1250000
v -0.9062500 -0.1125000 -0.1250000
v -0.8500000 -0.1500000 -0.1250000
v 0.8500000 -0.1500000 -0.1250000
v 0.9062500 -0.1125000 -0.1250000
v -0.8500000 -2.3750000 -0.1250000
v -0.8500000 -2.3750000 -0.2500000
v 0.8500000 -2.3750000 -0.2500000
v 0.8500000 -2.3750000 -0.1250000
v -0.8500000 -3.3250000 -0.1250000
v -0.8500000 -3.3250000 -0.2500000
v -0.8500000 -2.3750000 -0.2500000
v -0.8500000 -2.3750000 -0.1250000
v 0.8500000 -3.3250000 -0.1250000
v 0.8500000 -3.3250000 -0.2500000
v -0.8500000 -3.3250000 -0.2500000
v -0.8500000 -3.3250000 -0.1250000
v 0.8500000 -2.3750000 -0.1250000
v 0.8500000 -2.3750000 -0.2500000
v 0.8500000 -3.3250000 -0.2500000
v 0.8500000 -3.3250000 -0.1250000
v -0.8500000 -2.2125000 -0.1250000
v -0.8500000 -2.3750000 -0.1250000
v 0.8500000 -2.3750000 -0.1250000
v 0.8500000 -2.2125000 -0.1250000
v -0.8500000 -1.2625000 -0.1250000
v -0.8500000 -1.2625000 -0.2500000
v 0.8500000 -1.2625000 -0.2500000
v 0.8500000 -1.2625000 -0.1250000
v -0.8500000 -2.2125000 -0.1250000
v -0.8500000 -2.2125000 -0.2500000
v -0.8500000 -1.2625000 -0.2500000
v -0.8500000 -1.2625000 -0.1250000
v 0.8500000 -2.2125000 -0.1250000
v 0.8500000 -2.2125000 -0.2500000
v -0.8500000 -2.2125000 -0.2500000
v -0.8500000 -2.2125000 -0.1250000
v 0.8500000 -1.2625000 -0.1250000
v 0.8500000 -1.2625000 -0.2500000
v 0.8500000 -2.2125000 -0.2500000
v 0.8500000 -2.2125000 -0.1250000
v -0.8500000 -1.1000000 -0.1250000
v -0.8500000 -1.2625000 -0.1250000
v 0.8500000 -1.2625000 -0.1250000
v 0.8500000 -1.1000000 -0.1250000
v -0.8500000 -0.1500000 -0.1250000
v -0.8500000 -0.1500000 -0.2500000
v 0.8500000 -0.1500000 -0.2500000
v 0.8500000 -0.1500000 -0.1250000
v -0.8500000 -1.1000000 -0.1250000
v -0.8500000 -1.1000000 -0.2500000
v -0.8500000 -0.1500000 -0.2500000
v -0.8500000 -0.1500000 -0.1250000
v 0.8500000 -1.1000000 -0.1250000
v 0.8500000 -1.1000000 -0.2500000
v -0.8500000 -1.1000000 -0.2500000
v -0.8500000 -1.1000000 -0.1250000
v 0.8500000 -0.1500000 -0.1250000
v 0.8500000 -0.1500000 -0.2500000
v 0.8500000 -1.1000000 -0.2500000
v 0.8500000 -1.1000000 -0.1250000
v 0.9062500 -0.1125000 0.2500000
v 0.9062500 -0.1125000 -0.1250000
v 0.9062500 -3.4000000 -0.1250000
v 0.9062500 -3.4000000 0.2500000
v 1.0000000 -3.6000000 0.2500000
v 1.0000000 -3.6000000 -0.2500000
v 1.0000000 -0.0000000 -0.2500000
v 1.0000000 -0.0000000 0.2500000
v -1.0000000 -3.6000000 -0.2500000
v -0.8500000 -3.3250000 -0.2500000
v 0.8500000 -3.3250000 -0.2500000
v 1.0000000 -3.6000000 -0.2500000
v 1.0000000 -3.6000000 -0.2500000
v 0.8500000 -3.3250000 -0.2500000
v 0.8500000 -0.1500000 -0.2500000
v 1.0000000 -0.0000000 -0.2500000
v 1.0000000 -0.0000000 -0.2500000
v 0.8500000 -0.1500000 -0.2500000
v -0.8500000 -0.1500000 -0.2500000
v -1.0000000 -0.0000000 -0.2500000
v -1.0000000 -0.0000000 -0.2500000
v -0.8500000 -0.1500000 -0.2500000
v -0.8500000 -3.3250000 -0.2500000
v -1.0000000 -3.6000000 -0.2500000
v 0.8500000 -2.2125000 -0.2500000
v 0.8500000 -2.3750000 -0.2500000
v -0.8500000 -2.3750000 -0.2500000
v -0.8500000 -2.2125000 -0.2500000
v 0.8500000 -1.1000000 -0.2500000
v 0.8500000 -1.2625000 -0.2500000
v -0.8500000 -1.2625000 -0.2500000
v -0.8500000 -1.1000000 -0.2500000
v 0.8586950 -0.1125000 -0.0558650
v 0.8625000 -0.1125000 -0.0750000
v 0.8625000 -0.1125000 -0.0250000
v 0.8478550 -0.1125000 -0.0396450
v 0.8586950 -0.1125000 -0.0558650
v 0.8625000 -0.1125000 -0.0250000
v 0.8316350 -0.1125000 -0.0288050
v 0.8478550 -0.1125000 -0.0396450
v 0.8625000 -0.1125000 -0.0250000
v 0.8125000 -0.1125000 -0.0250000
v 0.8316350 -0.1125000 -0.0288050
v 0.8625000 -0.1125000 -0.0250000
v 0.7933650 -0.1125000 -0.0288050
v 0.8125000 -0.1125000 -0.0250000
v 0.7625000 -0.1125000 -0.0250000
v 0.7771450 -0.1125000 -0.0396450
v 0.7933650 -0.1125000 -0.0288050
v 0.7625000 -0.1125000 -0.0250000
v 0.7663050 -0.1125000 -0.0558650
v 0.7771450 -0.1125000 -0.0396450
v 0.7625000 -0.1125000 -0.0250000
v 0.7625000 -0.1125000 -0.0750000
v 0.7663050 -0.1125000 -0.0558650
v 0.7625000 -0.1125000 -0.0250000
v 0.7663050 -0.1125000 -0.0941350
v 0.7625000 -0.1125000 -0.0750000
v 0.7625000 -0.1125000 -0.1250000
v 0.7771450 -0.1125000 -0.1103550
v 0.7663050 -0.1125000 -0.0941350
v 0.7625000 -0.1125000 -0.1250000
v 0.7933650 -0.1125000 -0.1211950
v 0.7771450 -0.1125000 -0.1103550
v 0.7625000 -0.1125000 -0.1250000
v 0.8125000 -0.1125000 -0.1250000
v 0.7933650 -0.1125000 -0.1211950
v 0.7625000 -0.1125000 -0.1250000
v 0.8316350 -0.1125000 -0.1211950
v 0.8125000 -0.1125000 -0.1250000
v 0.8625000 -0.1125000 -0.1250000
v 0.8478550 -0.1125000 -0.1103550
v 0.8316350 -0.1125000 -0.1211950
v 0.8625000 -0.1125000 -0.1250000
v 0.8586950 -0.1125000 -0.0941350
v 0.8478550 -0.1125000 -0.1103550
v 0.8625000 -0.1125000 -0.1250000
v 0.8625000 -0.1125000 -0.0750000
v 0.8586950 -0.1125000 -0.0941350
v 0.8625000 -0.1125000 -0.1250000
v 0.8625000 -0.1125000 -0.1250000
v 0.9062500 -0.1125000 -0.1250000
v 0.9062500 -0.1125000 0.2500000
v 0.8625000 -0.1125000 -0.0250000
v 0.9062500 -0.1125000 0.2500000
v 0.7625000 -0.1125000 -0.0250000
v 0.8625000 -0.1125000 -0.0250000
v -0.7663050 -0.1125000 -0.0558650
v -0.7625000 -0.1125000 -0.0750000
v -0.7625000 -0.1125000 -0.0250000
v -0.7771450 -0.1125000 -0.0396450
v -0.7663050 -0.1125000 -0.0558650
v -0.7625000 -0.1125000 -0.0250000
v -0.7933650 -0.1125000 -0.0288050
v -0.7771450 -0.1125000 -0.0396450
v -0.7625000 -0.1125000 -0.0250000
v -0.8125000 -0.1125000 -0.0250000
v -0.7933650 -0.1125000 -0.0288050
v -0.7625000 -0.1125000 -0.0250000
v -0.8316350 -0.1125000 -0.0288050
v -0.8125000 -0.1125000 -0.0250000
v -0.8625000 -0.1125000 -0.0250000
v -0.8478550 -0.1125000 -0.0396450
v -0.8316350 -0.1125000 -0.0288050
v -0.8625000 -0.1125000 -0.0250000
v -0.8586950 -0.1125000 -0.0558650
v -0.8478550 -0.1125000 -0.0396450
v -0.8625000 -0.1125000 -0.0250000
v -0.8625000 -0.1125000 -0.0750000
v -0.8586950 -0.1125000 -0.0558650
v -0.8625000 -0.1125000 -0.0250000
v -0.8586950 -0.1125000 -0.0941350
v -0.8625000 -0.1125000 -0.0750000
v -0.8625000 -0.1125000 -0.1250000
v -0.8478550 -0.1125000 -0.1103550
v -0.8586950 -0.1125000 -0.0941350
v -0.8625000 -0.1125000 -0.1250000
v -0.8316350 -0.1125000 -0.1211950
v -0.8478550 -0.1125000 -0.1103550
v -0.8625000 -0.1125000 -0.1250000
v -0.8125000 -0.1125000 -0.1250000
v -0.8316350 -0.1125000 -0.1211950
v -0.8625000 -0.1125000 -0.1250000
v -0.7933650 -0.1125000 -0.1211950
v -0.8125000 -0.1125000 -0.1250000
v -0.7625000 -0.1125000 -0.1250000
v -0.7771450 -0.1125000 -0.1103550
v -0.7933650 -0.1125000 -0.1211950
v -0.7625000 -0.1125000 -0.1250000
v -0.7663050 -0.1125000 -0.0941350
v -0.7771450 -0.1125000 -0.1103550
v -0.7625000 -0.1125000 -0.1250000
v -0.7625000 -0.1125000 -0.0750000
v -0.7663050 -0.1125000 -0.0941350
v -0.7625000 -0.1125000 -0.1250000
v -0.8625000 -0.1125000 -0.0250000
v -0.9062500 -0.1125000 0.2500000
v -0.9062500 -0.1125000 -0.1250000
v -0.8625000 -0.1125000 -0.1250000
v -0.8625000 -0.1125000 -0.0250000
v -0.7625000 -0.1125000 -0.0250000
v -0.9062500 -0.1125000 0.2500000
v 0.7625000 -0.1125000 -0.1250000
v 0.7625000 -0.1125000 -0.0250000
v -0.7625000 -0.1125000 -0.0250000
v -0.7625000 -0.1125000 -0.1250000
v 0.9062500 -0.1125000 0.2500000
v -0.9062500 -0.1125000 0.2500000
v -0.7625000 -0.1125000 -0.0250000
v 0.7625000 -0.1125000 -0.0250000
v 0.7771450 -0.0000000 -0.1103550
v 0.7771450 -0.1125000 -0.1103550
v 0.7933659 -0.1125000 -0.1211948
v 0.7933659 -0.0000000 -0.1211948
v 0.7933659 -0.0000000 -0.1211948
v 0.7933659 -0.1125000 -0.1211948
v 0.8125000 -0.1125000 -0.1249990
v 0.8125000 -0.0000000 -0.1249990
v 0.8125000 -0.0000000 -0.1249990
v 0.8125000 -0.1125000 -0.1249990
v 0.8316341 -0.1125000 -0.1211948
v 0.8316341 -0.0000000 -0.1211948
v 0.8316341 -0.0000000 -0.1211948
v 0.8316341 -0.1125000 -0.1211948
v 0.8478550 -0.1125000 -0.1103550
v 0.8478550 -0.0000000 -0.1103550
v 0.8478550 -0.0000000 -0.1103550
v 0.8478550 -0.1125000 -0.1103550
v 0.8586948 -0.1125000 -0.0941341
v 0.8586948 -0.0000000 -0.0941341
v 0.8586948 -0.0000000 -0.0941341
v 0.8586948 -0.1125000 -0.0941341
v 0.8624990 -0.1125000 -0.0750000
v 0.8624990 -0.0000000 -0.0750000
v 0.8624990 -0.0000000 -0.0750000
v 0.8624990 -0.1125000 -0.0750000
v 0.8586948 -0.1125000 -0.0558659
v 0.8586948 -0.0000000 -0.0558659
v 0.8586948 -0.0000000 -0.0558659
v 0.8586948 -0.1125000 -0.0558659
v 0.8478550 -0.1125000 -0.0396450
v 0.8478550 -0.0000000 -0.0396450
v 0.8125000 -0.1125000 -0.0250000
v 0.7933650 -0.1125000 -0.0288050
v 0.7933650 -0.0000000 -0.0288050
v 0.8125000 -0.0000000 -0.0250000
v 0.7933650 -0.1125000 -0.0288050
v 0.7771450 -0.1125000 -0.0396450
v 0.7771450 -0.0000000 -0.0396450
v 0.7933650 -0.0000000 -0.0288050
v 0.7771450 -0.1125000 -0.0396450
v 0.7663050 -0.1125000 -0.0558650
v 0.7663050 -0.0000000 -0.0558650
v 0.7771450 -0.0000000 -0.0396450
v 0.7663050 -0.1125000 -0.0558650
v 0.7625000 -0.1125000 -0.0750000
v 0.7625000 -0.0000000 -0.0750000
v 0.7663050 -0.0000000 -0.0558650
v 0.7625000 -0.0000000 -0.0750000
v 0.7625000 -0.1125000 -0.0750000
v 0.7663050 -0.1125000 -0.0941350
v 0.7663050 -0.0000000 -0.0941350
v 0.7663050 -0.0000000 -0.0941350
v 0.7663050 -0.1125000 -0.0941350
v 0.7771450 -0.1125000 -0.1103550
v 0.7771450 -0.0000000 -0.1103550
v 0.7625000 0.1000000 -0.0750000
v 0.7625000 -0.0000000 -0.0750000
v 0.7663050 -0.0000000 -0.0941350
v 0.7663050 0.1000000 -0.0941350
v 0.7663050 0.1000000 -0.0941350
v 0.7663050 -0.0000000 -0.0941350
v 0.7771450 -0.0000000 -0.1103550
v 0.7771450 0.1000000 -0.1103550
v 0.8478550 -0.0000000 -0.0396450
v 0.8478550 -0.1125000 -0.0396450
v 0.8316341 -0.1125000 -0.0288052
v 0.8316341 -0.0000000 -0.0288052
v 0.8316341 -0.0000000 -0.0288052
v 0.8316341 -0.1125000 -0.0288052
v 0.8125000 -0.1125000 -0.0250010
v 0.8125000 -0.0000000 -0.0250010
v 0.8478550 0.1000000 -0.0396450
v 0.8478550 -0.0000000 -0.0396450
v 0.8316341 -0.0000000 -0.0288052
v 0.8316341 0.1000000 -0.0288052
v 0.8316341 0.1000000 -0.0288052
v 0.8316341 -0.0000000 -0.0288052
v 0.8125000 -0.0000000 -0.0250010
v 0.8125000 0.1000000 -0.0250010
v -0.7933659 -0.0000000 -0.1211948
v -0.7933659 -0.1125000 -0.1211948
v -0.7771450 -0.1125000 -0.1103550
v -0.7771450 -0.0000000 -0.1103550
v -0.8125000 -0.0000000 -0.1249990
v -0.8125000 -0.1125000 -0.1249990
v -0.7933659 -0.1125000 -0.1211948
v -0.7933659 -0.0000000 -0.1211948
v -0.8316341 -0.0000000 -0.1211948
v -0.8316341 -0.1125000 -0.1211948
v -0.8125000 -0.1125000 -0.1249990
v -0.8125000 -0.0000000 -0.1249990
v -0.8478550 -0.0000000 -0.1103550
v -0.8478550 -0.1125000 -0.1103550
v -0.8316341 -0.1125000 -0.1211948
v -0.8316341 -0.0000000 -0.1211948
v -0.8586948 -0.0000000 -0.0941341
v -0.8586948 -0.1125000 -0.0941341
v -0.8478550 -0.1125000 -0.1103550
v -0.8478550 -0.0000000 -0.1103550
v -0.8624990 -0.0000000 -0.0750000
v -0.8624990 -0.1125000 -0.0750000
v -0.8586948 -0.1125000 -0.0941341
v -0.8586948 -0.0000000 -0.0941341
v -0.8586948 -0.0000000 -0.0558659
v -0.8586948 -0.1125000 -0.0558659
v -0.8624990 -0.1125000 -0.0750000
v -0.8624990 -0.0000000 -0.0750000
v -0.8478550 -0.0000000 -0.0396450
v -0.8478550 -0.1125000 -0.0396450
v -0.8586948 -0.1125000 -0.0558659
v -0.8586948 -0.0000000 -0.0558659
v -0.8125000 -0.0000000 -0.0250000
v -0.7933650 -0.0000000 -0.0288050
v -0.7933650 -0.1125000 -0.0288050
v -0.8125000 -0.1125000 -0.0250000
v -0.7933650 -0.0000000 -0.0288050
v -0.7771450 -0.0000000 -0.0396450
v -0.7771450 -0.1125000 -0.0396450
v -0.7933650 -0.1125000 -0.0288050
v -0.7771450 -0.0000000 -0.0396450
v -0.7663050 -0.0000000 -0.0558650
v -0.7663050 -0.1125000 -0.0558650
v -0.7771450 -0.1125000 -0.0396450
v -0.7663050 -0.0000000 -0.0558650
v -0.7625000 -0.0000000 -0.0750000
v -0.7625000 -0.1125000 -0.0750000
v -0.7663050 -0.1125000 -0.0558650
v -0.8316341 -0.0000000 -0.0288052
v -0.8316341 -0.1125000 -0.0288052
v -0.8478550 -0.1125000 -0.0396450
v -0.8478550 -0.0000000 -0.0396450
v -0.8125000 -0.0000000 -0.0250010
v -0.8125000 -0.1125000 -0.0250010
v -0.8316341 -0.1125000 -0.0288052
v -0.8316341 -0.0000000 -0.0288052
v -0.8316341 0.1000000 -0.0288052
v -0.8316341 -0.0000000 -0.0288052
v -0.8478550 -0.0000000 -0.0396450
v -0.8478550 0.1000000 -0.0396450
v -0.8125000 0.1000000 -0.0250010
v -0.8125000 -0.0000000 -0.0250010
v -0.8316341 -0.0000000 -0.0288052
v -0.8316341 0.1000000 -0.0288052
v -0.7663050 -0.0000000 -0.0941350
v -0.7663050 -0.1125000 -0.0941350
v -0.7625000 -0.1125000 -0.0750000
v -0.7625000 -0.0000000 -0.0750000
v -0.7771450 -0.0000000 -0.1103550
v -0.7771450 -0.1125000 -0.1103550
v -0.7663050 -0.1125000 -0.0941350
v -0.7663050 -0.0000000 -0.0941350
v -0.7663050 0.1000000 -0.0941350
v -0.7663050 -0.0000000 -0.0941350
v -0.7625000 -0.0000000 -0.0750000
v -0.7625000 0.1000000 -0.0750000
v -0.7771450 0.1000000 -0.1103550
v -0.7771450 -0.0000000 -0.1103550
v -0.7663050 -0.0000000 -0.0941350
v -0.7663050 0.1000000 -0.0941350
v 0.8625000 -0.0000000 -0.1250000
v 0.8586950 -0.0000000 -0.0941350
v 0.8625000 -0.0000000 -0.0750000
v 0.8625000 -0.0000000 -0.1250000
v 0.8478550 -0.0000000 -0.1103550
v 0.8586950 -0.0000000 -0.0941350
v 0.8625000 -0.0000000 -0.1250000
v 0.8316350 -0.0000000 -0.1211950
v 0.8478550 -0.0000000 -0.1103550
v 0.8625000 -0.0000000 -0.1250000
v 0.8125000 -0.0000000 -0.1250000
v 0.8316350 -0.0000000 -0.1211950
v 0.7625000 -0.0000000 -0.1250000
v 0.7933650 -0.0000000 -0.1211950
v 0.8125000 -0.0000000 -0.1250000
v 0.7625000 -0.0000000 -0.1250000
v 0.7771450 -0.0000000 -0.1103550
v 0.7933650 -0.0000000 -0.1211950
v 0.8625000 -0.0000000 -0.0250000
v 0.8625000 -0.0000000 -0.0750000
v 0.8586950 -0.0000000 -0.0558650
v 0.8625000 -0.0000000 -0.0250000
v 0.8586950 -0.0000000 -0.0558650
v 0.8478550 -0.0000000 -0.0396450
v 0.7625000 -0.0000000 -0.0250000
v 0.8150000 -0.0000000 0.0000000
v 0.8095000 -0.0000000 -0.0255000
v 0.7932500 -0.0000000 -0.0287500
v 0.7625000 -0.0000000 -0.0250000
v 0.7932500 -0.0000000 -0.0287500
v 0.7772500 -0.0000000 -0.0397500
v 0.7625000 -0.0000000 -0.0250000
v 0.7772500 -0.0000000 -0.0397500
v 0.7662500 -0.0000000 -0.0557500
v 0.7625000 -0.0000000 -0.0250000
v 0.7662500 -0.0000000 -0.0557500
v 0.7655000 -0.0000000 -0.0620000
v 0.7500000 -0.0000000 -0.0650000
v 0.8625000 -0.0000000 -0.1250000
v 0.8625000 -0.0000000 -0.0750000
v 1.0000000 -0.0000000 0.2500000
v 1.0000000 -0.0000000 -0.2500000
v 0.8625000 -0.0000000 -0.0750000
v 0.8625000 -0.0000000 -0.0250000
v 1.0000000 -0.0000000 0.2500000
v 1.0000000 -0.0000000 -0.2500000
v 0.7625000 -0.0000000 -0.1250000
v 0.8125000 -0.0000000 -0.1250000
v 1.0000000 -0.0000000 -0.2500000
v 0.8125000 -0.0000000 -0.1250000
v 0.8625000 -0.0000000 -0.1250000
v 1.0000000 -0.0000000 0.2500000
v 0.8150000 -0.0000000 0.0000000
v 0.7625000 -0.0000000 -0.0250000
v 0.8625000 -0.0000000 -0.0250000
v 0.8150000 -0.0000000 0.0000000
v 1.0000000 -0.0000000 0.2500000
v -0.8625000 -0.0000000 -0.0750000
v -0.8586950 -0.0000000 -0.0941350
v -0.8625000 -0.0000000 -0.1250000
v -0.8586950 -0.0000000 -0.0941350
v -0.8478550 -0.0000000 -0.1103550
v -0.8625000 -0.0000000 -0.1250000
v -0.8478550 -0.0000000 -0.1103550
v -0.8316350 -0.0000000 -0.1211950
v -0.8625000 -0.0000000 -0.1250000
v -0.8316350 -0.0000000 -0.1211950
v -0.8125000 -0.0000000 -0.1250000
v -0.8625000 -0.0000000 -0.1250000
v -0.8125000 -0.0000000 -0.1250000
v -0.7933650 -0.0000000 -0.1211950
v -0.7625000 -0.0000000 -0.1250000
v -0.7933650 -0.0000000 -0.1211950
v -0.7771450 -0.0000000 -0.1103550
v -0.7625000 -0.0000000 -0.1250000
v -0.8586950 -0.0000000 -0.0558650
v -0.8625000 -0.0000000 -0.0750000
v -0.8625000 -0.0000000 -0.0250000
v -0.8478550 -0.0000000 -0.0396450
v -0.8586950 -0.0000000 -0.0558650
v -0.8625000 -0.0000000 -0.0250000
v -0.7932500 -0.0000000 -0.0287500
v -0.8095000 -0.0000000 -0.0255000
v -0.8150000 -0.0000000 0.0000000
v -0.7625000 -0.0000000 -0.0250000
v -0.7772500 -0.0000000 -0.0397500
v -0.7932500 -0.0000000 -0.0287500
v -0.7625000 -0.0000000 -0.0250000
v -0.7662500 -0.0000000 -0.0557500
v -0.7772500 -0.0000000 -0.0397500
v -0.7625000 -0.0000000 -0.0250000
v -0.7500000 -0.0000000 -0.0650000
v -0.7655000 -0.0000000 -0.0620000
v -0.7662500 -0.0000000 -0.0557500
v -0.7625000 -0.0000000 -0.0250000
v -1.0000000 -0.0000000 -0.2500000
v -1.0000000 -0.0000000 0.2500000
v -0.8625000 -0.0000000 -0.0750000
v -0.8625000 -0.0000000 -0.1250000
v -1.0000000 -0.0000000 0.2500000
v -0.8625000 -0.0000000 -0.0250000
v -0.8625000 -0.0000000 -0.0750000
v -0.8125000 -0.0000000 -0.1250000
v -0.7625000 -0.0000000 -0.1250000
v -1.0000000 -0.0000000 -0.2500000
v -0.8625000 -0.0000000 -0.1250000
v -0.8125000 -0.0000000 -0.1250000
v -1.0000000 -0.0000000 -0.2500000
v -0.7625000 -0.0000000 -0.0250000
v -0.8150000 -0.0000000 0.0000000
v -1.0000000 -0.0000000 0.2500000
v -1.0000000 -0.0000000 0.2500000
v -0.8150000 -0.0000000 0.0000000
v -0.8625000 -0.0000000 -0.0250000
v 0.7625000 -0.0000000 -0.1250000
v 1.0000000 -0.0000000 -0.2500000
v -1.0000000 -0.0000000 -0.2500000
v -0.7625000 -0.0000000 -0.1250000
v -0.7625000 -0.0000000 -0.1250000
v -0.7500000 -0.0000000 -0.0650000
v 0.7500000 -0.0000000 -0.0650000
v 0.7625000 -0.0000000 -0.1250000
v -0.7500000 -0.0000000 -0.0650000
v -0.7625000 -0.0000000 -0.0250000
v 0.7625000 -0.0000000 -0.0250000
v 0.7500000 -0.0000000 -0.0650000
v -0.7625000 -0.0000000 -0.0250000
v -1.0000000 -0.0000000 0.2500000
v 1.0000000 -0.0000000 0.2500000
v 0.7625000 -0.0000000 -0.0250000
v 0.8100535 -0.0000000 0.0248755
v 0.8100535 0.1000000 0.0248755
v 0.8150000 0.1000000 0.0000000
v 0.8150000 -0.0000000 0.0000000
v 0.7959615 -0.0000000 0.0459615
v 0.7959615 0.1000000 0.0459615
v 0.8100535 0.1000000 0.0248755
v 0.8100535 -0.0000000 0.0248755
v 0.7748755 -0.0000000 0.0600535
v 0.7748755 0.1000000 0.0600535
v 0.7959615 0.1000000 0.0459615
v 0.7959615 -0.0000000 0.0459615
v 0.7500000 -0.0000000 0.0650000
v 0.7500000 0.1000000 0.0650000
v 0.7748755 0.1000000 0.0600535
v 0.7748755 -0.0000000 0.0600535
v 0.7251245 -0.0000000 0.0600535
v 0.7251245 0.1000000 0.0600535
v 0.7500000 0.1000000 0.0650000
v 0.7500000 -0.0000000 0.0650000
v 0.7040385 -0.0000000 0.0459615
v 0.7040385 0.1000000 0.0459615
v 0.7251245 0.1000000 0.0600535
v 0.7251245 -0.0000000 0.0600535
v 0.6899465 -0.0000000 0.0248755
v 0.6899465 0.1000000 0.0248755
v 0.7040385 0.1000000 0.0459615
v 0.7040385 -0.0000000 0.0459615
v 0.6850000 -0.0000000 0.0000000
v 0.6850000 0.1000000 0.0000000
v 0.6899465 0.1000000 0.0248755
v 0.6899465 -0.0000000 0.0248755
v 0.6899465 -0.0000000 -0.0248755
v 0.6899465 0.1000000 -0.0248755
v 0.6850000 0.1000000 0.0000000
v 0.6850000 -0.0000000 0.0000000
v 0.7040385 -0.0000000 -0.0459615
v 0.7040385 0.1000000 -0.0459615
v 0.6899465 0.1000000 -0.0248755
v 0.6899465 -0.0000000 -0.0248755
v 0.7251245 -0.0000000 -0.0600535
v 0.7251245 0.1000000 -0.0600535
v 0.7040385 0.1000000 -0.0459615
v 0.7040385 -0.0000000 -0.0459615
v 0.7500000 -0.0000000 -0.0650000
v 0.7500000 0.1000000 -0.0650000
v 0.7251245 0.1000000 -0.0600535
v 0.7251245 -0.0000000 -0.0600535
v 0.9000000 -0.0000000 0.0000000
v 0.9000000 0.1000000 0.0000000
v 0.8885850 0.1000000 0.0574050
v 0.8885850 -0.0000000 0.0574050
v 0.8885850 -0.0000000 0.0574050
v 0.8885850 0.1000000 0.0574050
v 0.8560650 0.1000000 0.1060650
v 0.8560650 -0.0000000 0.1060650
v 0.8560650 -0.0000000 0.1060650
v 0.8560650 0.1000000 0.1060650
v 0.8074050 0.1000000 0.1385850
v 0.8074050 -0.0000000 0.1385850
v 0.8074050 -0.0000000 0.1385850
v 0.8074050 0.1000000 0.1385850
v 0.7500000 0.1000000 0.1500000
v 0.7500000 -0.0000000 0.1500000
v 0.7500000 -0.0000000 0.1500000
v 0.7500000 0.1000000 0.1500000
v 0.6925950 0.1000000 0.1385850
v 0.6925950 -0.0000000 0.1385850
v 0.6925950 -0.0000000 0.1385850
v 0.6925950 0.1000000 0.1385850
v 0.6439350 0.1000000 0.1060650
v 0.6439350 -0.0000000 0.1060650
v 0.6439350 -0.0000000 0.1060650
v 0.6439350 0.1000000 0.1060650
v 0.6114150 0.1000000 0.0574050
v 0.6114150 -0.0000000 0.0574050
v 0.6114150 -0.0000000 0.0574050
v 0.6114150 0.1000000 0.0574050
v 0.6000000 0.1000000 0.0000000
v 0.6000000 -0.0000000 0.0000000
v 0.6000000 -0.0000000 0.0000000
v 0.6000000 0.1000000 0.0000000
v 0.6114150 0.1000000 -0.0574050
v 0.6114150 -0.0000000 -0.0574050
v 0.6114150 -0.0000000 -0.0574050
v 0.6114150 0.1000000 -0.0574050
v 0.6439350 0.1000000 -0.1060650
v 0.6439350 -0.0000000 -0.1060650
v 0.6439350 -0.0000000 -0.1060650
v 0.6439350 0.1000000 -0.1060650
v 0.6925950 0.1000000 -0.1385850
v 0.6925950 -0.0000000 -0.1385850
v 0.6925950 -0.0000000 -0.1385850
v 0.6925950 0.1000000 -0.1385850
v 0.7500000 0.1000000 -0.1500000
v 0.7500000 -0.0000000 -0.1500000
v 0.8150000 0.1000000 0.0000000
v 0.8100535 0.1000000 0.0248755
v 0.8701070 0.1000000 0.0497510
v 0.8800000 0.1000000 0.0000000
v 0.8100535 0.1000000 0.0248755
v 0.7959615 0.1000000 0.0459615
v 0.8419230 0.1000000 0.0919230
v 0.8701070 0.1000000 0.0497510
v 0.7959615 0.1000000 0.0459615
v 0.7748755 0.1000000 0.0600535
v 0.7997510 0.1000000 0.1201070
v 0.8419230 0.1000000 0.0919230
v 0.7748755 0.1000000 0.0600535
v 0.7500000 0.1000000 0.0650000
v 0.7500000 0.1000000 0.1300000
v 0.7997510 0.1000000 0.1201070
v 0.7500000 0.1000000 0.0650000
v 0.7251245 0.1000000 0.0600535
v 0.7002490 0.1000000 0.1201070
v 0.7500000 0.1000000 0.1300000
v 0.7251245 0.1000000 0.0600535
v 0.7040385 0.1000000 0.0459615
v 0.6580770 0.1000000 0.0919230
v 0.7002490 0.1000000 0.1201070
v 0.7040385 0.1000000 0.0459615
v 0.6899465 0.1000000 0.0248755
v 0.6298930 0.1000000 0.0497510
v 0.6580770 0.1000000 0.0919230
v 0.6899465 0.1000000 0.0248755
v 0.6850000 0.1000000 0.0000000
v 0.6200000 0.1000000 0.0000000
v 0.6298930 0.1000000 0.0497510
v 0.8800000 0.1000000 0.0000000
v 0.8701070 0.1000000 0.0497510
v 0.8793460 0.1000000 0.0535780
v 0.8900000 0.1000000 0.0000000
v 0.8701070 0.1000000 0.0497510
v 0.8419230 0.1000000 0.0919230
v 0.8489940 0.1000000 0.0989940
v 0.8793460 0.1000000 0.0535780
v 0.8419230 0.1000000 0.0919230
v 0.7997510 0.1000000 0.1201070
v 0.8035780 0.1000000 0.1293460
v 0.8489940 0.1000000 0.0989940
v 0.7997510 0.1000000 0.1201070
v 0.7500000 0.1000000 0.1300000
v 0.7500000 0.1000000 0.1400000
v 0.8035780 0.1000000 0.1293460
v 0.7500000 0.1000000 0.1300000
v 0.7002490 0.1000000 0.1201070
v 0.6964220 0.1000000 0.1293460
v 0.7500000 0.1000000 0.1400000
v 0.7002490 0.1000000 0.1201070
v 0.6580770 0.1000000 0.0919230
v 0.6510060 0.1000000 0.0989940
v 0.6964220 0.1000000 0.1293460
v 0.6580770 0.1000000 0.0919230
v 0.6298930 0.1000000 0.0497510
v 0.6206540 0.1000000 0.0535780
v 0.6510060 0.1000000 0.0989940
v 0.6298930 0.1000000 0.0497510
v 0.6200000 0.1000000 0.0000000
v 0.6100000 0.1000000 0.0000000
v 0.6206540 0.1000000 0.0535780
v 0.8900000 0.1000000 0.0000000
v 0.8793460 0.1000000 0.0535780
v 0.8885850 0.1000000 0.0574050
v 0.9000000 0.1000000 0.0000000
v 0.8793460 0.1000000 0.0535780
v 0.8489940 0.1000000 0.0989940
v 0.8560650 0.1000000 0.1060650
v 0.8885850 0.1000000 0.0574050
v 0.8489940 0.1000000 0.0989940
v 0.8035780 0.1000000 0.1293460
v 0.8074050 0.1000000 0.1385850
v 0.8560650 0.1000000 0.1060650
v 0.8035780 0.1000000 0.1293460
v 0.7500000 0.1000000 0.1400000
v 0.7500000 0.1000000 0.1500000
v 0.8074050 0.1000000 0.1385850
v 0.7500000 0.1000000 0.1400000
v 0.6964220 0.1000000 0.1293460
v 0.6925950 0.1000000 0.1385850
v 0.7500000 0.1000000 0.1500000
v 0.6964220 0.1000000 0.1293460
v 0.6510060 0.1000000 0.0989940
v 0.6439350 0.1000000 0.1060650
v 0.6925950 0.1000000 0.1385850
v 0.6510060 0.1000000 0.0989940
v 0.6206540 0.1000000 0.0535780
v 0.6114150 0.1000000 0.0574050
v 0.6439350 0.1000000 0.1060650
v 0.6206540 0.1000000 0.0535780
v 0.6100000 0.1000000 0.0000000
v 0.6000000 0.1000000 0.0000000
v 0.6114150 0.1000000 0.0574050
v 0.8095000 -0.0000000 -0.0255000
v 0.8150000 -0.0000000 0.0000000
v 0.8150000 0.1000000 0.0000000
v 0.8095000 0.1000000 -0.0255000
v 0.8095000 0.1000000 -0.0255000
v 0.8125000 0.1000000 -0.0250000
v 0.8125000 -0.0000000 -0.0250000
v 0.8095000 -0.0000000 -0.0255000
v 0.8800000 -0.0000000 -0.0700000
v 0.8475000 -0.0000000 -0.0395000
v 0.8475000 0.1000000 -0.0395000
v 0.8800000 0.1000000 -0.0700000
v 0.8802500 -0.0000000 -0.0700000
v 0.8802500 0.1000000 -0.0700000
v 0.8885000 0.1000000 -0.0575000
v 0.8885000 -0.0000000 -0.0575000
v 0.9000000 0.1000000 0.0000000
v 0.9000000 -0.0000000 0.0000000
v 0.8885000 -0.0000000 -0.0575000
v 0.8885000 0.1000000 -0.0575000
v 0.8095000 0.1000000 -0.0255000
v 0.8150000 0.1000000 0.0000000
v 0.8125000 0.1000000 -0.0250000
v 0.8317500 0.1000000 -0.0287500
v 0.8125000 0.1000000 -0.0250000
v 0.8150000 0.1000000 0.0000000
v 0.8477500 0.1000000 -0.0397500
v 0.8317500 0.1000000 -0.0287500
v 0.8150000 0.1000000 0.0000000
v 0.8800000 0.1000000 0.0000000
v 0.8800000 0.1000000 0.0000000
v 0.8900000 0.1000000 0.0000000
v 0.8801250 0.1000000 -0.0700000
v 0.8477500 0.1000000 -0.0397500
v 0.8885000 0.1000000 -0.0575000
v 0.8800000 0.1000000 -0.0700000
v 0.8900000 0.1000000 0.0000000
v 0.9000000 0.1000000 0.0000000
v 0.6850000 0.1000000 0.0000000
v 0.6899465 0.1000000 -0.0248755
v 0.6298930 0.1000000 -0.0497510
v 0.6200000 0.1000000 0.0000000
v 0.6899465 0.1000000 -0.0248755
v 0.7040385 0.1000000 -0.0459615
v 0.6580770 0.1000000 -0.0919230
v 0.6298930 0.1000000 -0.0497510
v 0.7040385 0.1000000 -0.0459615
v 0.7251245 0.1000000 -0.0600535
v 0.7002490 0.1000000 -0.1201070
v 0.6580770 0.1000000 -0.0919230
v 0.7251245 0.1000000 -0.0600535
v 0.7500000 0.1000000 -0.0650000
v 0.7500000 0.1000000 -0.1300000
v 0.7002490 0.1000000 -0.1201070
v 0.6200000 0.1000000 0.0000000
v 0.6298930 0.1000000 -0.0497510
v 0.6206540 0.1000000 -0.0535780
v 0.6100000 0.1000000 0.0000000
v 0.6298930 0.1000000 -0.0497510
v 0.6580770 0.1000000 -0.0919230
v 0.6510060 0.1000000 -0.0989940
v 0.6206540 0.1000000 -0.0535780
v 0.6580770 0.1000000 -0.0919230
v 0.7002490 0.1000000 -0.1201070
v 0.6964220 0.1000000 -0.1293460
v 0.6510060 0.1000000 -0.0989940
v 0.7002490 0.1000000 -0.1201070
v 0.7500000 0.1000000 -0.1300000
v 0.7500000 0.1000000 -0.1400000
v 0.6964220 0.1000000 -0.1293460
v 0.6100000 0.1000000 0.0000000
v 0.6206540 0.1000000 -0.0535780
v 0.6114150 0.1000000 -0.0574050
v 0.6000000 0.1000000 0.0000000
v 0.6206540 0.1000000 -0.0535780
v 0.6510060 0.1000000 -0.0989940
v 0.6439350 0.1000000 -0.1060650
v 0.6114150 0.1000000 -0.0574050
v 0.6510060 0.1000000 -0.0989940
v 0.6964220 0.1000000 -0.1293460
v 0.6925950 0.1000000 -0.1385850
v 0.6439350 0.1000000 -0.1060650
v 0.6964220 0.1000000 -0.1293460
v 0.7500000 0.1000000 -0.1400000
v 0.7500000 0.1000000 -0.1500000
v 0.6925950 0.1000000 -0.1385850
v 0.7655000 0.1000000 -0.0620000
v 0.7500000 0.1000000 -0.0650000
v 0.7500000 -0.0000000 -0.0650000
v 0.7655000 -0.0000000 -0.0620000
v 0.7625000 0.1000000 -0.0750000
v 0.7655000 0.1000000 -0.0620000
v 0.7655000 -0.0000000 -0.0620000
v 0.7625000 -0.0000000 -0.0750000
v 0.8075000 0.1000000 -0.1385000
v 0.7769750 0.1000000 -0.1102500
v 0.7769750 -0.0000000 -0.1102500
v 0.8075000 -0.0000000 -0.1385000
v 0.8075000 0.1000000 -0.1385000
v 0.8075000 -0.0000000 -0.1385000
v 0.7500000 -0.0000000 -0.1500000
v 0.7500000 0.1000000 -0.1500000
v 0.7655000 0.1000000 -0.0620000
v 0.7625000 0.1000000 -0.0750000
v 0.7500000 0.1000000 -0.0650000
v 0.7625000 0.1000000 -0.0750000
v 0.7662500 0.1000000 -0.0942500
v 0.7500000 0.1000000 -0.1300000
v 0.7500000 0.1000000 -0.0650000
v 0.7662500 0.1000000 -0.0942500
v 0.7769750 0.1000000 -0.1102500
v 0.7500000 0.1000000 -0.1400000
v 0.7500000 0.1000000 -0.1300000
v 0.7500000 0.1000000 -0.1400000
v 0.7769750 0.1000000 -0.1102500
v 0.8075000 0.1000000 -0.1385000
v 0.7500000 0.1000000 -0.1500000
v -0.8150000 -0.0000000 0.0000000
v -0.8150000 0.1000000 0.0000000
v -0.8100535 0.1000000 0.0248755
v -0.8100535 -0.0000000 0.0248755
v -0.8100535 -0.0000000 0.0248755
v -0.8100535 0.1000000 0.0248755
v -0.7959615 0.1000000 0.0459615
v -0.7959615 -0.0000000 0.0459615
v -0.7959615 -0.0000000 0.0459615
v -0.7959615 0.1000000 0.0459615
v -0.7748755 0.1000000 0.0600535
v -0.7748755 -0.0000000 0.0600535
v -0.7748755 -0.0000000 0.0600535
v -0.7748755 0.1000000 0.0600535
v -0.7500000 0.1000000 0.0650000
v -0.7500000 -0.0000000 0.0650000
v -0.7500000 -0.0000000 0.0650000
v -0.7500000 0.1000000 0.0650000
v -0.7251245 0.1000000 0.0600535
v -0.7251245 -0.0000000 0.0600535
v -0.7251245 -0.0000000 0.0600535
v -0.7251245 0.1000000 0.0600535
v -0.7040385 0.1000000 0.0459615
v -0.7040385 -0.0000000 0.0459615
v -0.7040385 -0.0000000 0.0459615
v -0.7040385 0.1000000 0.0459615
v -0.6899465 0.1000000 0.0248755
v -0.6899465 -0.0000000 0.0248755
v -0.6899465 -0.0000000 0.0248755
v -0.6899465 0.1000000 0.0248755
v -0.6850000 0.1000000 0.0000000
v -0.6850000 -0.0000000 0.0000000
v -0.6850000 -0.0000000 0.0000000
v -0.6850000 0.1000000 0.0000000
v -0.6899465 0.1000000 -0.0248755
v -0.6899465 -0.0000000 -0.0248755
v -0.6899465 -0.0000000 -0.0248755
v -0.6899465 0.1000000 -0.0248755
v -0.7040385 0.1000000 -0.0459615
v -0.7040385 -0.0000000 -0.0459615
v -0.7040385 -0.0000000 -0.0459615
v -0.7040385 0.1000000 -0.0459615
v -0.7251245 0.1000000 -0.0600535
v -0.7251245 -0.0000000 -0.0600535
v -0.7251245 -0.0000000 -0.0600535
v -0.7251245 0.1000000 -0.0600535
v -0.7500000 0.1000000 -0.0650000
v -0.7500000 -0.0000000 -0.0650000
v -0.8885850 -0.0000000 0.0574050
v -0.8885850 0.1000000 0.0574050
v -0.9000000 0.1000000 0.0000000
v -0.9000000 -0.0000000 0.0000000
v -0.8560650 -0.0000000 0.1060650
v -0.8560650 0.1000000 0.1060650
v -0.8885850 0.1000000 0.0574050
v -0.8885850 -0.0000000 0.0574050
v -0.8074050 -0.0000000 0.1385850
v -0.8074050 0.1000000 0.1385850
v -0.8560650 0.1000000 0.1060650
v -0.8560650 -0.0000000 0.1060650
v -0.7500000 -0.0000000 0.1500000
v -0.7500000 0.1000000 0.1500000
v -0.8074050 0.1000000 0.1385850
v -0.8074050 -0.0000000 0.1385850
v -0.6925950 -0.0000000 0.1385850
v -0.6925950 0.1000000 0.1385850
v -0.7500000 0.1000000 0.1500000
v -0.7500000 -0.0000000 0.1500000
v -0.6439350 -0.0000000 0.1060650
v -0.6439350 0.1000000 0.1060650
v -0.6925950 0.1000000 0.1385850
v -0.6925950 -0.0000000 0.1385850
v -0.6114150 -0.0000000 0.0574050
v -0.6114150 0.1000000 0.0574050
v -0.6439350 0.1000000 0.1060650
v -0.6439350 -0.0000000 0.1060650
v -0.6000000 -0.0000000 0.0000000
v -0.6000000 0.1000000 0.0000000
v -0.6114150 0.1000000 0.0574050
v -0.6114150 -0.0000000 0.0574050
v -0.6114150 -0.0000000 -0.0574050
v -0.6114150 0.1000000 -0.0574050
v -0.6000000 0.1000000 0.0000000
v -0.6000000 -0.0000000 0.0000000
v -0.6439350 -0.0000000 -0.1060650
v -0.6439350 0.1000000 -0.1060650
v -0.6114150 0.1000000 -0.0574050
v -0.6114150 -0.0000000 -0.0574050
v -0.6925950 -0.0000000 -0.1385850
v -0.6925950 0.1000000 -0.1385850
v -0.6439350 0.1000000 -0.1060650
v -0.6439350 -0.0000000 -0.1060650
v -0.7500000 -0.0000000 -0.1500000
v -0.7500000 0.1000000 -0.1500000
v -0.6925950 0.1000000 -0.1385850
v -0.6925950 -0.0000000 -0.1385850
v -0.8800000 0.1000000 0.0000000
v -0.8701070 0.1000000 0.0497510
v -0.8100535 0.1000000 0.0248755
v -0.8150000 0.1000000 0.0000000
v -0.8701070 0.1000000 0.0497510
v -0.8419230 0.1000000 0.0919230
v -0.7959615 0.1000000 0.0459615
v -0.8100535 0.1000000 0.0248755
v -0.8419230 0.1000000 0.0919230
v -0.7997510 0.1000000 0.1201070
v -0.7748755 0.1000000 0.0600535
v -0.7959615 0.1000000 0.0459615
v -0.7997510 0.1000000 0.1201070
v -0.7500000 0.1000000 0.1300000
v -0.7500000 0.1000000 0.0650000
v -0.7748755 0.1000000 0.0600535
v -0.7500000 0.1000000 0.1300000
v -0.7002490 0.1000000 0.1201070
v -0.7251245 0.1000000 0.0600535
v -0.7500000 0.1000000 0.0650000
v -0.7002490 0.1000000 0.1201070
v -0.6580770 0.1000000 0.0919230
v -0.7040385 0.1000000 0.0459615
v -0.7251245 0.1000000 0.0600535
v -0.6580770 0.1000000 0.0919230
v -0.6298930 0.1000000 0.0497510
v -0.6899465 0.1000000 0.0248755
v -0.7040385 0.1000000 0.0459615
v -0.6298930 0.1000000 0.0497510
v -0.6200000 0.1000000 0.0000000
v -0.6850000 0.1000000 0.0000000
v -0.6899465 0.1000000 0.0248755
v -0.8900000 0.1000000 0.0000000
v -0.8793460 0.1000000 0.0535780
v -0.8701070 0.1000000 0.0497510
v -0.8800000 0.1000000 0.0000000
v -0.8793460 0.1000000 0.0535780
v -0.8489940 0.1000000 0.0989940
v -0.8419230 0.1000000 0.0919230
v -0.8701070 0.1000000 0.0497510
v -0.8489940 0.1000000 0.0989940
v -0.8035780 0.1000000 0.1293460
v -0.7997510 0.1000000 0.1201070
v -0.8419230 0.1000000 0.0919230
v -0.8035780 0.1000000 0.1293460
v -0.7500000 0.1000000 0.1400000
v -0.7500000 0.1000000 0.1300000
v -0.7997510 0.1000000 0.1201070
v -0.7500000 0.1000000 0.1400000
v -0.6964220 0.1000000 0.1293460
v -0.7002490 0.1000000 0.1201070
v -0.7500000 0.1000000 0.1300000
v -0.6964220 0.1000000 0.1293460
v -0.6510060 0.1000000 0.0989940
v -0.6580770 0.1000000 0.0919230
v -0.7002490 0.1000000 0.1201070
v -0.6510060 0.1000000 0.0989940
v -0.6206540 0.1000000 0.0535780
v -0.6298930 0.1000000 0.0497510
v -0.6580770 0.1000000 0.0919230
v -0.6206540 0.1000000 0.0535780
v -0.6100000 0.1000000 0.0000000
v -0.6200000 0.1000000 0.0000000
v -0.6298930 0.1000000 0.0497510
v -0.9000000 0.1000000 0.0000000
v -0.8885850 0.1000000 0.0574050
v -0.8793460 0.1000000 0.0535780
v -0.8900000 0.1000000 0.0000000
v -0.8885850 0.1000000 0.0574050
v -0.8560650 0.1000000 0.1060650
v -0.8489940 0.1000000 0.0989940
v -0.8793460 0.1000000 0.0535780
v -0.8560650 0.1000000 0.1060650
v -0.8074050 0.1000000 0.1385850
v -0.8035780 0.1000000 0.1293460
v -0.8489940 0.1000000 0.0989940
v -0.8074050 0.1000000 0.1385850
v -0.7500000 0.1000000 0.1500000
v -0.7500000 0.1000000 0.1400000
v -0.8035780 0.1000000 0.1293460
v -0.7500000 0.1000000 0.1500000
v -0.6925950 0.1000000 0.1385850
v -0.6964220 0.1000000 0.1293460
v -0.7500000 0.1000000 0.1400000
v -0.6925950 0.1000000 0.1385850
v -0.6439350 0.1000000 0.1060650
v -0.6510060 0.1000000 0.0989940
v -0.6964220 0.1000000 0.1293460
v -0.6439350 0.1000000 0.1060650
v -0.6114150 0.1000000 0.0574050
v -0.6206540 0.1000000 0.0535780
v -0.6510060 0.1000000 0.0989940
v -0.6114150 0.1000000 0.0574050
v -0.6000000 0.1000000 0.0000000
v -0.6100000 0.1000000 0.0000000
v -0.6206540 0.1000000 0.0535780
v -0.8095000 0.1000000 -0.0255000
v -0.8150000 0.1000000 0.0000000
v -0.8150000 -0.0000000 0.0000000
v -0.8095000 -0.0000000 -0.0255000
v -0.8125000 0.1000000 -0.0250000
v -0.8095000 0.1000000 -0.0255000
v -0.8095000 -0.0000000 -0.0255000
v -0.8125000 -0.0000000 -0.0250000
v -0.8800000 0.1000000 -0.0700000
v -0.8475000 0.1000000 -0.0395000
v -0.8475000 -0.0000000 -0.0395000
v -0.8800000 -0.0000000 -0.0700000
v -0.8885000 -0.0000000 -0.0575000
v -0.8885000 0.1000000 -0.0575000
v -0.8802500 0.1000000 -0.0700000
v -0.8802500 -0.0000000 -0.0700000
v -0.8885000 0.1000000 -0.0575000
v -0.8885000 -0.0000000 -0.0575000
v -0.9000000 -0.0000000 0.0000000
v -0.9000000 0.1000000 0.0000000
v -0.8125000 0.1000000 -0.0250000
v -0.8150000 0.1000000 0.0000000
v -0.8095000 0.1000000 -0.0255000
v -0.8150000 0.1000000 0.0000000
v -0.8125000 0.1000000 -0.0250000
v -0.8317500 0.1000000 -0.0287500
v -0.8800000 0.1000000 0.0000000
v -0.8150000 0.1000000 0.0000000
v -0.8317500 0.1000000 -0.0287500
v -0.8477500 0.1000000 -0.0397500
v -0.8477500 0.1000000 -0.0397500
v -0.8800000 0.1000000 -0.0700000
v -0.8900000 0.1000000 0.0000000
v -0.8800000 0.1000000 0.0000000
v -0.9000000 0.1000000 0.0000000
v -0.8900000 0.1000000 0.0000000
v -0.8800000 0.1000000 -0.0700000
v -0.8885000 0.1000000 -0.0575000
v -0.6200000 0.1000000 0.0000000
v -0.6298930 0.1000000 -0.0497510
v -0.6899465 0.1000000 -0.0248755
v -0.6850000 0.1000000 0.0000000
v -0.6298930 0.1000000 -0.0497510
v -0.6580770 0.1000000 -0.0919230
v -0.7040385 0.1000000 -0.0459615
v -0.6899465 0.1000000 -0.0248755
v -0.6580770 0.1000000 -0.0919230
v -0.7002490 0.1000000 -0.1201070
v -0.7251245 0.1000000 -0.0600535
v -0.7040385 0.1000000 -0.0459615
v -0.7002490 0.1000000 -0.1201070
v -0.7500000 0.1000000 -0.1300000
v -0.7500000 0.1000000 -0.0650000
v -0.7251245 0.1000000 -0.0600535
v -0.6100000 0.1000000 0.0000000
v -0.6206540 0.1000000 -0.0535780
v -0.6298930 0.1000000 -0.0497510
v -0.6200000 0.1000000 0.0000000
v -0.6206540 0.1000000 -0.0535780
v -0.6510060 0.1000000 -0.0989940
v -0.6580770 0.1000000 -0.0919230
v -0.6298930 0.1000000 -0.0497510
v -0.6510060 0.1000000 -0.0989940
v -0.6964220 0.1000000 -0.1293460
v -0.7002490 0.1000000 -0.1201070
v -0.6580770 0.1000000 -0.0919230
v -0.6964220 0.1000000 -0.1293460
v -0.7500000 0.1000000 -0.1400000
v -0.7500000 0.1000000 -0.1300000
v -0.7002490 0.1000000 -0.1201070
v -0.6000000 0.1000000 0.0000000
v -0.6114150 0.1000000 -0.0574050
v -0.6206540 0.1000000 -0.0535780
v -0.6100000 0.1000000 0.0000000
v -0.6114150 0.1000000 -0.0574050
v -0.6439350 0.1000000 -0.1060650
v -0.6510060 0.1000000 -0.0989940
v -0.6206540 0.1000000 -0.0535780
v -0.6439350 0.1000000 -0.1060650
v -0.6925950 0.1000000 -0.1385850
v -0.6964220 0.1000000 -0.1293460
v -0.6510060 0.1000000 -0.0989940
v -0.6925950 0.1000000 -0.1385850
v -0.7500000 0.1000000 -0.1500000
v -0.7500000 0.1000000 -0.1400000
v -0.6964220 0.1000000 -0.1293460
v -0.7655000 -0.0000000 -0.0620000
v -0.7500000 -0.0000000 -0.0650000
v -0.7500000 0.1000000 -0.0650000
v -0.7655000 0.1000000 -0.0620000
v -0.7655000 0.1000000 -0.0620000
v -0.7625000 0.1000000 -0.0750000
v -0.7625000 -0.0000000 -0.0750000
v -0.7655000 -0.0000000 -0.0620000
v -0.8075000 -0.0000000 -0.1383750
v -0.7770000 -0.0000000 -0.1101250
v -0.7770000 0.1000000 -0.1101250
v -0.8075000 0.1000000 -0.1383750
v -0.8075000 -0.0000000 -0.1385000
v -0.8075000 0.1000000 -0.1385000
v -0.7500000 0.1000000 -0.1500000
v -0.7500000 -0.0000000 -0.1500000
v -0.7500000 0.1000000 -0.0650000
v -0.7625000 0.1000000 -0.0750000
v -0.7655000 0.1000000 -0.0620000
v -0.7500000 0.1000000 -0.0650000
v -0.7500000 0.1000000 -0.1300000
v -0.7662500 0.1000000 -0.0942500
v -0.7625000 0.1000000 -0.0750000
v -0.7500000 0.1000000 -0.1300000
v -0.7500000 0.1000000 -0.1400000
v -0.7772500 0.1000000 -0.1102500
v -0.7662500 0.1000000 -0.0942500
v -0.7500000 0.1000000 -0.1500000
v -0.8075000 0.1000000 -0.1385000
v -0.7772500 0.1000000 -0.1102500
v -0.7500000 0.1000000 -0.1400000
v 0.3500000 -0.0000000 0.0000000
v 0.3423900 -0.0000000 0.0382700
v 0.3423900 0.1000000 0.0382700
v 0.3500000 0.1000000 0.0000000
v 0.3423900 -0.0000000 0.0382700
v 0.3207100 -0.0000000 0.0707100
v 0.3207100 0.1000000 0.0707100
v 0.3423900 0.1000000 0.0382700
v 0.3207100 -0.0000000 0.0707100
v 0.2882700 -0.0000000 0.0923900
v 0.2882700 0.1000000 0.0923900
v 0.3207100 0.1000000 0.0707100
v 0.2882700 -0.0000000 0.0923900
v 0.2500000 -0.0000000 0.1000000
v 0.2500000 0.1000000 0.1000000
v 0.2882700 0.1000000 0.0923900
v 0.2500000 -0.0000000 0.1000000
v 0.2117300 -0.0000000 0.0923900
v 0.2117300 0.1000000 0.0923900
v 0.2500000 0.1000000 0.1000000
v 0.2117300 -0.0000000 0.0923900
v 0.1792900 -0.0000000 0.0707100
v 0.1792900 0.1000000 0.0707100
v 0.2117300 0.1000000 0.0923900
v 0.1792900 -0.0000000 0.0707100
v 0.1576100 -0.0000000 0.0382700
v 0.1576100 0.1000000 0.0382700
v 0.1792900 0.1000000 0.0707100
v 0.1576100 -0.0000000 0.0382700
v 0.1500000 -0.0000000 0.0000000
v 0.1500000 0.1000000 0.0000000
v 0.1576100 0.1000000 0.0382700
v 0.1500000 -0.0000000 0.0000000
v 0.1576100 -0.0000000 -0.0382700
v 0.1576100 0.1000000 -0.0382700
v 0.1500000 0.1000000 0.0000000
v 0.1576100 -0.0000000 -0.0382700
v 0.1792900 -0.0000000 -0.0707100
v 0.1792900 0.1000000 -0.0707100
v 0.1576100 0.1000000 -0.0382700
v 0.1792900 -0.0000000 -0.0707100
v 0.2117300 -0.0000000 -0.0923900
v 0.2117300 0.1000000 -0.0923900
v 0.1792900 0.1000000 -0.0707100
v 0.2117300 -0.0000000 -0.0923900
v 0.2500000 -0.0000000 -0.1000000
v 0.2500000 0.1000000 -0.1000000
v 0.2117300 0.1000000 -0.0923900
v 0.2500000 -0.0000000 -0.1000000
v 0.2882700 -0.0000000 -0.0923900
v 0.2882700 0.1000000 -0.0923900
v 0.2500000 0.1000000 -0.1000000
v 0.2882700 -0.0000000 -0.0923900
v 0.3207100 -0.0000000 -0.0707100
v 0.3207100 0.1000000 -0.0707100
v 0.2882700 0.1000000 -0.0923900
v 0.3207100 -0.0000000 -0.0707100
v 0.3423900 -0.0000000 -0.0382700
v 0.3423900 0.1000000 -0.0382700
v 0.3207100 0.1000000 -0.0707100
v 0.3423900 -0.0000000 -0.0382700
v 0.3500000 -0.0000000 0.0000000
v 0.3500000 0.1000000 0.0000000
v 0.3423900 0.1000000 -0.0382700
v 0.4000000 0.1000000 0.0000000
v 0.3885850 0.1000000 0.0574050
v 0.3885850 -0.0000000 0.0574050
v 0.4000000 -0.0000000 0.0000000
v 0.3885850 0.1000000 0.0574050
v 0.3560650 0.1000000 0.1060650
v 0.3560650 -0.0000000 0.1060650
v 0.3885850 -0.0000000 0.0574050
v 0.3560650 0.1000000 0.1060650
v 0.3074050 0.1000000 0.1385850
v 0.3074050 -0.0000000 0.1385850
v 0.3560650 -0.0000000 0.1060650
v 0.3074050 0.1000000 0.1385850
v 0.2500000 0.1000000 0.1500000
v 0.2500000 -0.0000000 0.1500000
v 0.3074050 -0.0000000 0.1385850
v 0.2500000 0.1000000 0.1500000
v 0.1925950 0.1000000 0.1385850
v 0.1925950 -0.0000000 0.1385850
v 0.2500000 -0.0000000 0.1500000
v 0.1925950 0.1000000 0.1385850
v 0.1439350 0.1000000 0.1060650
v 0.1439350 -0.0000000 0.1060650
v 0.1925950 -0.0000000 0.1385850
v 0.1439350 0.1000000 0.1060650
v 0.1114150 0.1000000 0.0574050
v 0.1114150 -0.0000000 0.0574050
v 0.1439350 -0.0000000 0.1060650
v 0.1114150 0.1000000 0.0574050
v 0.1000000 0.1000000 0.0000000
v 0.1000000 -0.0000000 0.0000000
v 0.1114150 -0.0000000 0.0574050
v 0.1000000 0.1000000 0.0000000
v 0.1114150 0.1000000 -0.0574050
v 0.1114150 -0.0000000 -0.0574050
v 0.1000000 -0.0000000 0.0000000
v 0.1114150 0.1000000 -0.0574050
v 0.1439350 0.1000000 -0.1060650
v 0.1439350 -0.0000000 -0.1060650
v 0.1114150 -0.0000000 -0.0574050
v 0.1439350 0.1000000 -0.1060650
v 0.1925950 0.1000000 -0.1385850
v 0.1925950 -0.0000000 -0.1385850
v 0.1439350 -0.0000000 -0.1060650
v 0.1925950 0.1000000 -0.1385850
v 0.2500000 0.1000000 -0.1500000
v 0.2500000 -0.0000000 -0.1500000
v 0.1925950 -0.0000000 -0.1385850
v 0.2500000 0.1000000 -0.1500000
v 0.3074050 0.1000000 -0.1385850
v 0.3074050 -0.0000000 -0.1385850
v 0.2500000 -0.0000000 -0.1500000
v 0.3074050 0.1000000 -0.1385850
v 0.3560650 0.1000000 -0.1060650
v 0.3560650 -0.0000000 -0.1060650
v 0.3074050 -0.0000000 -0.1385850
v 0.3560650 0.1000000 -0.1060650
v 0.3885850 0.1000000 -0.0574050
v 0.3885850 -0.0000000 -0.0574050
v 0.3560650 -0.0000000 -0.1060650
v 0.3885850 0.1000000 -0.0574050
v 0.4000000 0.1000000 0.0000000
v 0.4000000 -0.0000000 0.0000000
v 0.3885850 -0.0000000 -0.0574050
v 0.2500000 0.1000000 0.1500000
v 0.2500000 0.1000000 0.1000000
v 0.2117300 0.1000000 0.0923900
v 0.1925950 0.1000000 0.1385850
v 0.1925950 0.1000000 0.1385850
v 0.2117300 0.1000000 0.0923900
v 0.1792900 0.1000000 0.0707100
v 0.1439350 0.1000000 0.1060650
v 0.1439350 0.1000000 0.1060650
v 0.1792900 0.1000000 0.0707100
v 0.1576100 0.1000000 0.0382700
v 0.1114150 0.1000000 0.0574050
v 0.1114150 0.1000000 0.0574050
v 0.1576100 0.1000000 0.0382700
v 0.1500000 0.1000000 0.0000000
v 0.1000000 0.1000000 0.0000000
v 0.1000000 0.1000000 0.0000000
v 0.1500000 0.1000000 0.0000000
v 0.1576100 0.1000000 -0.0382700
v 0.1114150 0.1000000 -0.0574050
v 0.1114150 0.1000000 -0.0574050
v 0.1576100 0.1000000 -0.0382700
v 0.1792900 0.1000000 -0.0707100
v 0.1439350 0.1000000 -0.1060650
v 0.1439350 0.1000000 -0.1060650
v 0.1792900 0.1000000 -0.0707100
v 0.2117300 0.1000000 -0.0923900
v 0.1925950 0.1000000 -0.1385850
v 0.1925950 0.1000000 -0.1385850
v 0.2117300 0.1000000 -0.0923900
v 0.2500000 0.1000000 -0.1000000
v 0.2500000 0.1000000 -0.1500000
v 0.2500000 0.1000000 -0.1500000
v 0.2500000 0.1000000 -0.1000000
v 0.2882700 0.1000000 -0.0923900
v 0.3074050 0.1000000 -0.1385850
v 0.3074050 0.1000000 -0.1385850
v 0.2882700 0.1000000 -0.0923900
v 0.3207100 0.1000000 -0.0707100
v 0.3560650 0.1000000 -0.1060650
v 0.3560650 0.1000000 -0.1060650
v 0.3207100 0.1000000 -0.0707100
v 0.3423900 0.1000000 -0.0382700
v 0.3885850 0.1000000 -0.0574050
v 0.3885850 0.1000000 -0.0574050
v 0.3423900 0.1000000 -0.0382700
v 0.3500000 0.1000000 0.0000000
v 0.4000000 0.1000000 0.0000000
v 0.4000000 0.1000000 0.0000000
v 0.3500000 0.1000000 0.0000000
v 0.3423900 0.1000000 0.0382700
v 0.3885850 0.1000000 0.0574050
v 0.3885850 0.1000000 0.0574050
v 0.3423900 0.1000000 0.0382700
v 0.3207100 0.1000000 0.0707100
v 0.3560650 0.1000000 0.1060650
v 0.3560650 0.1000000 0.1060650
v 0.3207100 0.1000000 0.0707100
v 0.2882700 0.1000000 0.0923900
v 0.3074050 0.1000000 0.1385850
v 0.3074050 0.1000000 0.1385850
v 0.2882700 0.1000000 0.0923900
v 0.2500000 0.1000000 0.1000000
v 0.2500000 0.1000000 0.1500000
v -0.1500000 -0.0000000 0.0000000
v -0.1576100 -0.0000000 0.0382700
v -0.1576100 0.1000000 0.0382700
v -0.1500000 0.1000000 0.0000000
v -0.1576100 -0.0000000 0.0382700
v -0.1792900 -0.0000000 0.0707100
v -0.1792900 0.1000000 0.0707100
v -0.1576100 0.1000000 0.0382700
v -0.1792900 -0.0000000 0.0707100
v -0.2117300 -0.0000000 0.0923900
v -0.2117300 0.1000000 0.0923900
v -0.1792900 0.1000000 0.0707100
v -0.2117300 -0.0000000 0.0923900
v -0.2500000 -0.0000000 0.1000000
v -0.2500000 0.1000000 0.1000000
v -0.2117300 0.1000000 0.0923900
v -0.2500000 -0.0000000 0.1000000
v -0.2882700 -0.0000000 0.0923900
v -0.2882700 0.1000000 0.0923900
v -0.2500000 0.1000000 0.1000000
v -0.2882700 -0.0000000 0.0923900
v -0.3207100 -0.0000000 0.0707100
v -0.3207100 0.1000000 0.0707100
v -0.2882700 0.1000000 0.0923900
v -0.3207100 -0.0000000 0.0707100
v -0.3423900 -0.0000000 0.0382700
v -0.3423900 0.1000000 0.0382700
v -0.3207100 0.1000000 0.0707100
v -0.3423900 -0.0000000 0.0382700
v -0.3500000 -0.0000000 0.0000000
v -0.3500000 0.1000000 0.0000000
v -0.3423900 0.1000000 0.0382700
v -0.3500000 -0.0000000 0.0000000
v -0.3423900 -0.0000000 -0.0382700
v -0.3423900 0.1000000 -0.0382700
v -0.3500000 0.1000000 0.0000000
v -0.3423900 -0.0000000 -0.0382700
v -0.3207100 -0.0000000 -0.0707100
v -0.3207100 0.1000000 -0.0707100
v -0.3423900 0.1000000 -0.0382700
v -0.3207100 -0.0000000 -0.0707100
v -0.2882700 -0.0000000 -0.0923900
v -0.2882700 0.1000000 -0.0923900
v -0.3207100 0.1000000 -0.0707100
v -0.2882700 -0.0000000 -0.0923900
v -0.2500000 -0.0000000 -0.1000000
v -0.2500000 0.1000000 -0.1000000
v -0.2882700 0.1000000 -0.0923900
v -0.2500000 -0.0000000 -0.1000000
v -0.2117300 -0.0000000 -0.0923900
v -0.2117300 0.1000000 -0.0923900
v -0.2500000 0.1000000 -0.1000000
v -0.2117300 -0.0000000 -0.0923900
v -0.1792900 -0.0000000 -0.0707100
v -0.1792900 0.1000000 -0.0707100
v -0.2117300 0.1000000 -0.0923900
v -0.1792900 -0.0000000 -0.0707100
v -0.1576100 -0.0000000 -0.0382700
v -0.1576100 0.1000000 -0.0382700
v -0.1792900 0.1000000 -0.0707100
v -0.1576100 -0.0000000 -0.0382700
v -0.1500000 -0.0000000 0.0000000
v -0.1500000 0.1000000 0.0000000
v -0.1576100 0.1000000 -0.0382700
v -0.1000000 0.1000000 0.0000000
v -0.1114150 0.1000000 0.0574050
v -0.1114150 -0.0000000 0.0574050
v -0.1000000 -0.0000000 0.0000000
v -0.1114150 0.1000000 0.0574050
v -0.1439350 0.1000000 0.1060650
v -0.1439350 -0.0000000 0.1060650
v -0.1114150 -0.0000000 0.0574050
v -0.1439350 0.1000000 0.1060650
v -0.1925950 0.1000000 0.1385850
v -0.1925950 -0.0000000 0.1385850
v -0.1439350 -0.0000000 0.1060650
v -0.1925950 0.1000000 0.1385850
v -0.2500000 0.1000000 0.1500000
v -0.2500000 -0.0000000 0.1500000
v -0.1925950 -0.0000000 0.1385850
v -0.2500000 0.1000000 0.1500000
v -0.3074050 0.1000000 0.1385850
v -0.3074050 -0.0000000 0.1385850
v -0.2500000 -0.0000000 0.1500000
v -0.3074050 0.1000000 0.1385850
v -0.3560650 0.1000000 0.1060650
v -0.3560650 -0.0000000 0.1060650
v -0.3074050 -0.0000000 0.1385850
v -0.3560650 0.1000000 0.1060650
v -0.3885850 0.1000000 0.0574050
v -0.3885850 -0.0000000 0.0574050
v -0.3560650 -0.0000000 0.1060650
v -0.3885850 0.1000000 0.0574050
v -0.4000000 0.1000000 0.0000000
v -0.4000000 -0.0000000 0.0000000
v -0.3885850 -0.0000000 0.0574050
v -0.4000000 0.1000000 0.0000000
v -0.3885850 0.1000000 -0.0574050
v -0.3885850 -0.0000000 -0.0574050
v -0.4000000 -0.0000000 0.0000000
v -0.3885850 0.1000000 -0.0574050
v -0.3560650 0.1000000 -0.1060650
v -0.3560650 -0.0000000 -0.1060650
v -0.3885850 -0.0000000 -0.0574050
v -0.3560650 0.1000000 -0.1060650
v -0.3074050 0.1000000 -0.1385850
v -0.3074050 -0.0000000 -0.1385850
v -0.3560650 -0.0000000 -0.1060650
v -0.3074050 0.1000000 -0.1385850
v -0.2500000 0.1000000 -0.1500000
v -0.2500000 -0.0000000 -0.1500000
v -0.3074050 -0.0000000 -0.1385850
v -0.2500000 0.1000000 -0.1500000
v -0.1925950 0.1000000 -0.1385850
v -0.1925950 -0.0000000 -0.1385850
v -0.2500000 -0.0000000 -0.1500000
v -0.1925950 0.1000000 -0.1385850
v -0.1439350 0.1000000 -0.1060650
v -0.1439350 -0.0000000 -0.1060650
v -0.1925950 -0.0000000 -0.1385850
v -0.1439350 0.1000000 -0.1060650
v -0.1114150 0.1000000 -0.0574050
v -0.1114150 -0.0000000 -0.0574050
v -0.1439350 -0.0000000 -0.1060650
v -0.1114150 0.1000000 -0.0574050
v -0.1000000 0.1000000 0.0000000
v -0.1000000 -0.0000000 0.0000000
v -0.1114150 -0.0000000 -0.0574050
v -0.2500000 0.1000000 0.1500000
v -0.2500000 0.1000000 0.1000000
v -0.2882700 0.1000000 0.0923900
v -0.3074050 0.1000000 0.1385850
v -0.3074050 0.1000000 0.1385850
v -0.2882700 0.1000000 0.0923900
v -0.3207100 0.1000000 0.0707100
v -0.3560650 0.1000000 0.1060650
v -0.3560650 0.1000000 0.1060650
v -0.3207100 0.1000000 0.0707100
v -0.3423900 0.1000000 0.0382700
v -0.3885850 0.1000000 0.0574050
v -0.3885850 0.1000000 0.0574050
v -0.3423900 0.1000000 0.0382700
v -0.3500000 0.1000000 0.0000000
v -0.4000000 0.1000000 0.0000000
v -0.4000000 0.1000000 0.0000000
v -0.3500000 0.1000000 0.0000000
v -0.3423900 0.1000000 -0.0382700
v -0.3885850 0.1000000 -0.0574050
v -0.3885850 0.1000000 -0.0574050
v -0.3423900 0.1000000 -0.0382700
v -0.3207100 0.1000000 -0.0707100
v -0.3560650 0.1000000 -0.1060650
v -0.3560650 0.1000000 -0.1060650
v -0.3207100 0.1000000 -0.0707100
v -0.2882700 0.1000000 -0.0923900
v -0.3074050 0.1000000 -0.1385850
v -0.3074050 0.1000000 -0.1385850
v -0.2882700 0.1000000 -0.0923900
v -0.2500000 0.1000000 -0.1000000
v -0.2500000 0.1000000 -0.1500000
v -0.2500000 0.1000000 -0.1500000
v -0.2500000 0.1000000 -0.1000000
v -0.2117300 0.1000000 -0.0923900
v -0.1925950 0.1000000 -0.1385850
v -0.1925950 0.1000000 -0.1385850
v -0.2117300 0.1000000 -0.0923900
v -0.1792900 0.1000000 -0.0707100
v -0.1439350 0.1000000 -0.1060650
v -0.1439350 0.1000000 -0.1060650
v -0.1792900 0.1000000 -0.0707100
v -0.1576100 0.1000000 -0.0382700
v -0.1114150 0.1000000 -0.0574050
v -0.1114150 0.1000000 -0.0574050
v -0.1576100 0.1000000 -0.0382700
v -0.1500000 0.1000000 0.0000000
v -0.1000000 0.1000000 0.0000000
v -0.1000000 0.1000000 0.0000000
v -0.1500000 0.1000000 0.0000000
v -0.1576100 0.1000000 0.0382700
v -0.1114150 0.1000000 0.0574050
v -0.1114150 0.1000000 0.0574050
v -0.1576100 0.1000000 0.0382700
v -0.1792900 0.1000000 0.0707100
v -0.1439350 0.1000000 0.1060650
v -0.1439350 0.1000000 0.1060650
v -0.1792900 0.1000000 0.0707100
v -0.2117300 0.1000000 0.0923900
v -0.1925950 0.1000000 0.1385850
v -0.1925950 0.1000000 0.1385850
v -0.2117300 0.1000000 0.0923900
v -0.2500000 0.1000000 0.1000000
v -0.2500000 0.1000000 0.1500000
s off
f 1 2 3
f 1 3 4
f 5 6 7
f 5 7 8
f 9 10 11
f 9 11 12
f 13 14 15
f 13 15 16
f 17 18 19
f 17 19 20
f 21 22 23
f 21 23 24
f 25 26 27
f 25 27 28
f 29 30 31
f 29 31 32
f 33 34 35
f 33 35 36
f 37 38 39
f 37 39 40
f 41 42 43
f 41 43 44
f 45 46 47
f 45 47 48
f 49 50 51
f 49 51 52
f 53 54 55
f 53 55 56
f 57 58 59
f 57 59 60
f 61 62 63
f 61 63 64
f 65 66 67
f 65 67 68
f 69 70 71
f 69 71 72
f 73 74 75
f 73 75 76
f 77 78 79
f 77 79 80
f 81 82 83
f 81 83 84
f 85 86 87
f 85 87 88
f 89 90 91
f 89 91 92
f 93 94 95
f 93 95 96
f 97 98 99
f 100 101 102
f 103 104 105
f 106 107 108
f 109 110 111
f 112 113 114
f 115 116 117
f 118 119 120
f 121 122 123
f 124 125 126
f 127 128 129
f 130 131 132
f 133 134 135
f 136 137 138
f 139 140 141
f 142 143 144
f 145 146 147
f 145 147 148
f 149 150 151
f 152 153 154
f 155 156 157
f 155 157 158
f 159 160 161
f 159 161 162
f 163 164 165
f 163 165 166
f 167 168 169
f 167 169 170
f 171 172 173
f 171 173 174
f 175 176 177
f 175 177 178
f 179 180 181
f 179 181 182
f 183 184 185
f 183 185 186
f 187 188 189
f 187 189 190
f 191 192 193
f 191 193 194
f 195 196 197
f 195 197 198
f 199 200 201
f 199 201 202
f 203 204 205
f 203 205 206
f 207 208 209
f 207 209 210
f 211 212 213
f 211 213 214
f 215 216 217
f 215 217 218
f 219 220 221
f 222 223 224
f 225 226 227
f 228 229 230
f 231 232 233
f 234 235 236
f 237 238 239
f 240 241 242
f 243 244 245
f 246 247 248
f 249 250 251
f 252 253 254
f 255 256 257
f 258 259 260
f 261 262 263
f 264 265 266
f 267 268 269
f 267 269 270
f 271 272 273
f 274 275 276
f 277 278 279
f 277 279 280
f 281 282 283
f 281 283 284
f 285 286 287
f 285 287 288
f 289 290 291
f 289 291 292
f 293 294 295
f 293 295 296
f 297 298 299
f 297 299 300
f 301 302 303
f 301 303 304
f 305 306 307
f 308 309 310
f 311 312 313
f 314 315 316
f 317 318 319
f 320 321 322
f 323 324 325
f 326 327 328
f 329 330 331
f 332 333 334
f 335 336 337
f 338 339 340
f 341 342 343
f 344 345 346
f 347 348 349
f 350 351 352
f 353 354 355
f 353 355 356
f 357 358 359
f 360 361 362
f 363 364 365
f 366 367 368
f 369 370 371
f 372 373 374
f 375 376 377
f 378 379 380
f 381 382 383
f 384 385 386
f 387 388 389
f 390 391 392
f 393 394 395
f 396 397 398
f 399 400 401
f 402 403 404
f 405 406 407
f 408 409 410
f 408 410 411
f 412 413 414
f 415 416 417
f 415 417 418
f 419 420 421
f 419 421 422
f 423 424 425
f 423 425 426
f 427 428 429
f 427 429 430
f 431 432 433
f 431 433 434
f 435 436 437
f 435 437 438
f 439 440 441
f 439 441 442
f 443 444 445
f 443 445 446
f 447 448 449
f 447 449 450
f 451 452 453
f 451 453 454
f 455 456 457
f 455 457 458
f 459 460 461
f 459 461 462
f 463 464 465
f 463 465 466
f 467 468 469
f 467 469 470
f 471 472 473
f 471 473 474
f 475 476 477
f 475 477 478
f 479 480 481
f 479 481 482
f 483 484 485
f 483 485 486
f 487 488 489
f 487 489 490
f 491 492 493
f 491 493 494
f 495 496 497
f 495 497 498
f 499 500 501
f 499 501 502
f 503 504 505
f 503 505 506
f 507 508 509
f 507 509 510
f 511 512 513
f 511 513 514
f 515 516 517
f 515 517 518
f 519 520 521
f 519 521 522
f 523 524 525
f 523 525 526
f 527 528 529
f 527 529 530
f 531 532 533
f 531 533 534
f 535 536 537
f 538 539 540
f 541 542 543
f 544 545 546
f 547 548 549
f 550 551 552
f 553 554 555
f 556 557 558
f 559 560 561
f 562 563 564
f 565 566 567
f 568 569 570
f 571 572 573
f 574 575 576
f 577 578 579
f 580 581 582
f 583 584 585
f 583 585 586
f 587 588 589
f 590 591 592
f 593 594 595
f 596 597 598
f 599 600 601
f 602 603 604
f 605 606 607
f 608 609 610
f 611 612 613
f 614 615 616
f 617 618 619
f 620 621 622
f 623 624 625
f 626 627 628
f 629 630 631
f 632 633 634
f 635 636 637
f 638 639 640
f 638 640 641
f 642 643 644
f 645 646 647
f 645 647 648
f 649 650 651
f 649 651 652
f 653 654 655
f 653 655 656
f 657 658 659
f 657 659 660
f 661 662 663
f 661 663 664
f 665 666 667
f 665 667 668
f 669 670 671
f 669 671 672
f 673 674 675
f 673 675 676
f 677 678 679
f 677 679 680
f 681 682 683
f 681 683 684
f 685 686 687
f 685 687 688
f 689 690 691
f 689 691 692
f 693 694 695
f 693 695 696
f 697 698 699
f 697 699 700
f 701 702 703
f 701 703 704
f 705 706 707
f 705 707 708
f 709 710 711
f 709 711 712
f 713 714 715
f 713 715 716
f 717 718 719
f 717 719 720
f 721 722 723
f 721 723 724
f 725 726 727
f 725 727 728
f 729 730 731
f 729 731 732
f 733 734 735
f 733 735 736
f 737 738 739
f 737 739 740
f 741 742 743
f 741 743 744
f 745 746 747
f 745 747 748
f 749 750 751
f 749 751 752
f 753 754 755
f 753 755 756
f 757 758 759
f 757 759 760
f 761 762 763
f 761 763 764
f 765 766 767
f 765 767 768
f 769 770 771
f 769 771 772
f 773 774 775
f 773 775 776
f 777 778 779
f 777 779 780
f 781 782 783
f 781 783 784
f 785 786 787
f 785 787 788
f 789 790 791
f 789 791 792
f 793 794 795
f 793 795 796
f 797 798 799
f 797 799 800
f 801 802 803
f 801 803 804
f 805 806 807
f 805 807 808
f 809 810 811
f 809 811 812
f 813 814 815
f 816 817 818
f 819 820 821
f 822 823 824
f 825 826 827
f 828 829 830
f 831 832 833
f 834 835 836
f 837 838 839
f 837 839 840
f 841 842 843
f 844 845 846
f 847 848 849
f 847 849 850
f 851 852 853
f 851 853 854
f 855 856 857
f 858 859 860
f 861 862 863
f 864 865 866
f 867 868 869
f 870 871 872
f 873 874 875
f 876 877 878
f 879 880 881
f 882 883 884
f 885 886 887
f 888 889 890
f 891 892 893
f 894 895 896
f 894 896 897
f 898 899 900
f 901 902 903
f 904 905 906
f 904 906 907
f 908 909 910
f 908 910 911
f 912 913 914
f 915 916 917
f 918 919 920
f 921 922 923
f 924 925 926
f 927 928 929
f 927 929 930
f 931 932 933
f 931 933 934
f 935 936 937
f 935 937 938
f 939 940 941
f 939 941 942
f 943 944 945
f 943 945 946
f 947 948 949
f 947 949 950
f 951 952 953
f 951 953 954
f 955 956 957
f 955 957 958
f 959 960 961
f 959 961 962
f 963 964 965
f 963 965 966
f 967 968 969
f 967 969 970
f 971 972 973
f 971 973 974
f 975 976 977
f 975 977 978
f 979 980 981
f 979 981 982
f 983 984 985
f 983 985 986
f 987 988 989
f 987 989 990
f 991 992 993
f 991 993 994
f 995 996 997
f 995 997 998
f 999 1000 1001
f 999 1001 1002
f 1003 1004 1005
f 1003 1005 1006
f 1007 1008 1009
f 1007 1009 1010
f 1011 1012 1013
f 1011 1013 1014
f 1015 1016 1017
f 1015 1017 1018
f 1019 1020 1021
f 1019 1021 1022
f 1023 1024 1025
f 1023 1025 1026
f 1027 1028 1029
f 1027 1029 1030
f 1031 1032 1033
f 1031 1033 1034
f 1035 1036 1037
f 1035 1037 1038
f 1039 1040 1041
f 1039 1041 1042
f 1043 1044 1045
f 1043 1045 1046
f 1047 1048 1049
f 1047 1049 1050
f 1051 1052 1053
f 1051 1053 1054
f 1055 1056 1057
f 1055 1057 1058
f 1059 1060 1061
f 1059 1061 1062
f 1063 1064 1065
f 1063 1065 1066
f 1067 1068 1069
f 1067 1069 1070
f 1071 1072 1073
f 1071 1073 1074
f 1075 1076 1077
f 1075 1077 1078
f 1079 1080 1081
f 1079 1081 1082
f 1083 1084 1085
f 1083 1085 1086
f 1087 1088 1089
f 1087 1089 1090
f 1091 1092 1093
f 1091 1093 1094
f 1095 1096 1097
f 1095 1097 1098
f 1099 1100 1101
f 1099 1101 1102
f 1103 1104 1105
f 1103 1105 1106
f 1107 1108 1109
f 1107 1109 1110
f 1111 1112 1113
f 1111 1113 1114
f 1115 1116 1117
f 1115 1117 1118
f 1119 1120 1121
f 1119 1121 1122
f 1123 1124 1125
f 1123 1125 1126
f 1127 1128 1129
f 1127 1129 1130
f 1131 1132 1133
f 1131 1133 1134
f 1135 1136 1137
f 1135 1137 1138
f 1139 1140 1141
f 1139 1141 1142
f 1143 1144 1145
f 1143 1145 1146
f 1147 1148 1149
f 1147 1149 1150
f 1151 1152 1153
f 1151 1153 1154
f 1155 1156 1157
f 1158 1159 1160
f 1161 1162 1163
f 1161 1163 1164
f 1165 1166 1167
f 1165 1167 1168
f 1169 1170 1171
f 1169 1171 1172
f 1173 1174 1175
f 1173 1175 1176
f 1177 1178 1179
f 1177 1179 1180
f 1181 1182 1183
f 1181 1183 1184
f 1185 1186 1187
f 1185 1187 1188
f 1189 1190 1191
f 1189 1191 1192
f 1193 1194 1195
f 1193 1195 1196
f 1197 1198 1199
f 1197 1199 1200
f 1201 1202 1203
f 1201 1203 1204
f 1205 1206 1207
f 1205 1207 1208
f 1209 1210 1211
f 1209 1211 1212
f 1213 1214 1215
f 1213 1215 1216
f 1217 1218 1219
f 1217 1219 1220
f 1221 1222 1223
f 1221 1223 1224
f 1225 1226 1227
f 1225 1227 1228
f 1229 1230 1231
f 1229 1231 1232
f 1233 1234 1235
f 1233 1235 1236
f 1237 1238 1239
f 1240 1241 1242
f 1240 1242 1243
f 1244 1245 1246
f 1244 1246 1247
f 1248 1249 1250
f 1248 1250 1251
f 1252 1253 1254
f 1252 1254 1255
f 1256 1257 1258
f 1256 1258 1259
f 1260 1261 1262
f 1260 1262 1263
f 1264 1265 1266
f 1264 1266 1267
f 1268 1269 1270
f 1268 1270 1271
f 1272 1273 1274
f 1272 1274 1275
f 1276 1277 1278
f 1276 1278 1279
f 1280 1281 1282
f 1280 1282 1283
f 1284 1285 1286
f 1284 1286 1287
f 1288 1289 1290
f 1288 1290 1291
f 1292 1293 1294
f 1292 1294 1295
f 1296 1297 1298
f 1296 1298 1299
f 1300 1301 1302
f 1300 1302 1303
f 1304 1305 1306
f 1304 1306 1307
f 1308 1309 1310
f 1308 1310 1311
f 1312 1313 1314
f 1312 1314 1315
f 1316 1317 1318
f 1316 1318 1319
f 1320 1321 1322
f 1320 1322 1323
f 1324 1325 1326
f 1324 1326 1327
f 1328 1329 1330
f 1328 1330 1331
f 1332 1333 1334
f 1332 1334 1335
f 1336 1337 1338
f 1336 1338 1339
f 1340 1341 1342
f 1340 1342 1343
f 1344 1345 1346
f 1344 1346 1347
f 1348 1349 1350
f 1348 1350 1351
f 1352 1353 1354
f 1352 1354 1355
f 1356 1357 1358
f 1356 1358 1359
f 1360 1361 1362
f 1360 1362 1363
f 1364 1365 1366
f 1364 1366 1367
f 1368 1369 1370
f 1368 1370 1371
f 1372 1373 1374
f 1372 1374 1375
f 1376 1377 1378
f 1376 1378 1379
f 1380 1381 1382
f 1380 1382 1383
f 1384 1385 1386
f 1384 1386 1387
f 1388 1389 1390
f 1388 1390 1391
f 1392 1393 1394
f 1392 1394 1395
f 1396 1397 1398
f 1396 1398 1399
f 1400 1401 1402
f 1400 1402 1403
f 1404 1405 1406
f 1404 1406 1407
f 1408 1409 1410
f 1408 1410 1411
f 1412 1413 1414
f 1412 1414 1415
f 1416 1417 1418
f 1416 1418 1419
f 1420 1421 1422
f 1420 1422 1423
f 1424 1425 1426
f 1424 1426 1427
f 1428 1429 1430
f 1428 1430 1431
f 1432 1433 1434
f 1432 1434 1435
f 1436 1437 1438
f 1436 1438 1439
f 1440 1441 1442
f 1440 1442 1443
f 1444 1445 1446
f 1444 1446 1447
f 1448 1449 1450
f 1448 1450 1451
f 1452 1453 1454
f 1452 1454 1455
f 1456 1457 1458
f 1456 1458 1459
f 1460 1461 1462
f 1460 1462 1463
f 1464 1465 1466
f 1467 1468 1469
f 1470 1471 1472
f 1470 1472 1473
f 1474 1475 1476
f 1474 1476 1477
f 1478 1479 1480
f 1478 1480 1481
f 1482 1483 1484
f 1482 1484 1485
f 1486 1487 1488
f 1486 1488 1489
f 1490 1491 1492
f 1490 1492 1493
f 1494 1495 1496
f 1494 1496 1497
f 1498 1499 1500
f 1498 1500 1501
f 1502 1503 1504
f 1502 1504 1505
f 1506 1507 1508
f 1506 1508 1509
f 1510 1511 1512
f 1510 1512 1513
f 1514 1515 1516
f 1514 1516 1517
f 1518 1519 1520
f 1518 1520 1521
f 1522 1523 1524
f 1522 1524 1525
f 1526 1527 1528
f 1526 1528 1529
f 1530 1531 1532
f 1530 1532 1533
f 1534 1535 1536
f 1534 1536 1537
f 1538 1539 1540
f 1538 1540 1541
f 1542 1543 1544
f 1542 1544 1545
f 1546 1547 1548
f 1549 1550 1551
f 1549 1551 1552
f 1553 1554 1555
f 1553 1555 1556
f 1557 1558 1559
f 1557 1559 1560
f 1561 1562 1563
f 1561 1563 1564
f 1565 1566 1567
f 1565 1567 1568
f 1569 1570 1571
f 1569 1571 1572
f 1573 1574 1575
f 1573 1575 1576
f 1577 1578 1579
f 1577 1579 1580
f 1581 1582 1583
f 1581 1583 1584
f 1585 1586 1587
f 1585 1587 1588
f 1589 1590 1591
f 1589 1591 1592
f 1593 1594 1595
f 1593 1595 1596
f 1597 1598 1599
f 1597 1599 1600
f 1601 1602 1603
f 1601 1603 1604
f 1605 1606 1607
f 1605 1607 1608
f 1609 1610 1611
f 1609 1611 1612
f 1613 1614 1615
f 1613 1615 1616
f 1617 1618 1619
f 1617 1619 1620
f 1621 1622 1623
f 1621 1623 1624
f 1625 1626 1627
f 1625 1627 1628
f 1629 1630 1631
f 1629 1631 1632
f 1633 1634 1635
f 1633 1635 1636
f 1637 1638 1639
f 1637 1639 1640
f 1641 1642 1643
f 1641 1643 1644
f 1645 1646 1647
f 1645 1647 1648
f 1649 1650 1651
f 1649 1651 1652
f 1653 1654 1655
f 1653 1655 1656
f 1657 1658 1659
f 1657 1659 1660
f 1661 1662 1663
f 1661 1663 1664
f 1665 1666 1667
f 1665 1667 1668
f 1669 1670 1671
f 1669 1671 1672
f 1673 1674 1675
f 1673 1675 1676
f 1677 1678 1679
f 1677 1679 1680
f 1681 1682 1683
f 1681 1683 1684
f 1685 1686 1687
f 1685 1687 1688
f 1689 1690 1691
f 1689 1691 1692
f 1693 1694 1695
f 1693 1695 1696
f 1697 1698 1699
f 1697 1699 1700
f 1701 1702 1703
f 1701 1703 1704
f 1705 1706 1707
f 1705 1707 1708
f 1709 1710 1711
f 1709 1711 1712
f 1713 1714 1715
f 1713 1715 1716
f 1717 1718 1719
f 1717 1719 1720
f 1721 1722 1723
f 1721 1723 1724
f 1725 1726 1727
f 1725 1727 1728
f 1729 1730 1731
f 1729 1731 1732
f 1733 1734 1735
f 1733 1735 1736
f 1737 1738 1739
f 1737 1739 1740
f 1741 1742 1743
f 1741 1743 1744
f 1745 1746 1747
f 1745 1747 1748
f 1749 1750 1751
f 1749 1751 1752
f 1753 1754 1755
f 1753 1755 1756
f 1757 1758 1759
f 1757 1759 1760
f 1761 1762 1763
f 1761 1763 1764
f 1765 1766 1767
f 1765 1767 1768
f 1769 1770 1771
f 1769 1771 1772
f 1773 1774 1775
f 1773 1775 1776
f 1777 1778 1779
f 1777 1779 1780
f 1781 1782 1783
f 1781 1783 1784
f 1785 1786 1787
f 1785 1787 1788
f 1789 1790 1791
f 1789 1791 1792
f 1793 1794 1795
f 1793 1795 1796
f 1797 1798 1799
f 1797 1799 1800
f 1801 1802 1803
f 1801 1803 1804
f 1805 1806 1807
f 1805 1807 1808
f 1809 1810 1811
f 1809 1811 1812
f 1813 1814 1815
f 1813 1815 1816
f 1817 1818 1819
f 1817 1819 1820
f 1821 1822 1823
f 1821 1823 1824
f 1825 1826 1827
f 1825 1827 1828
f 1829 1830 1831
f 1829 1831 1832
f 1833 1834 1835
f 1833 1835 1836
f 1837 1838 1839
f 1837 1839 1840
f 1841 1842 1843
f 1841 1843 1844
f 1845 1846 1847
f 1845 1847 1848
f 1849 1850 1851
f 1849 1851 1852
f 1853 1854 1855
f 1853 1855 1856
f 1857 1858 1859
f 1857 1859 1860
f 1861 1862 1863
f 1861 1863 1864
f 1865 1866 1867
f 1865 1867 1868
f 1869 1870 1871
f 1869 1871 1872
f 1873 1874 1875
f 1873 1875 1876
f 1877 1878 1879
f 1877 1879 1880
f 1881 1882 1883
f 1881 1883 1884
f 1885 1886 1887
f 1885 1887 1888
f 1889 1890 1891
f 1889 1891 1892
f 1893 1894 1895
f 1893 1895 1896
f 1897 1898 1899
f 1897 1899 1900
f 1901 1902 1903
f 1901 1903 1904
f 1905 1906 1907
f 1905 1907 1908
f 1909 1910 1911
f 1909 1911 1912
f 1913 1914 1915
f 1913 1915 1916
f 1917 1918 1919
f 1917 1919 1920
f 1921 1922 1923
f 1921 1923 1924
f 1925 1926 1927
f 1925 1927 1928
f 1929 1930 1931
f 1929 1931 1932
f 1933 1934 1935
f 1933 1935 1936
f 1937 1938 1939
f 1937 1939 1940
f 1941 1942 1943
f 1941 1943 1944
