# Baked from official LDraw part 60477.dat
o ldraw_60477
v -0.2500000 -0.6000000 -1.7500000
v -0.1500000 -0.6000000 -1.6500000
v -0.1500000 -0.6000000 0.1500000
v -0.2500000 -0.6000000 0.2500000
v 0.2500000 -0.6000000 0.2500000
v 0.1500000 -0.6000000 0.1500000
v 0.1500000 -0.6000000 -1.6500000
v 0.2500000 -0.6000000 -1.7500000
v -0.2500000 -0.6000000 0.2500000
v -0.1500000 -0.6000000 0.1500000
v 0.1500000 -0.6000000 0.1500000
v 0.2500000 -0.6000000 0.2500000
v 0.2500000 -0.6000000 -1.7500000
v 0.1500000 -0.6000000 -1.6500000
v -0.1500000 -0.6000000 -1.6500000
v -0.2500000 -0.6000000 -1.7500000
v -0.1500000 -0.1000000 0.1500000
v -0.1500000 -0.1000000 -0.2500000
v 0.1500000 -0.1000000 -0.2500000
v 0.1500000 -0.1000000 0.1500000
v 0.1500000 -0.6000000 0.1500000
v -0.1500000 -0.6000000 0.1500000
v -0.1500000 -0.1000000 0.1500000
v 0.1500000 -0.1000000 0.1500000
v 0.1500000 -0.5000000 -1.6500000
v 0.1500000 -0.5000000 -1.4500000
v -0.1500000 -0.5000000 -1.4500000
v -0.1500000 -0.5000000 -1.6500000
v 0.1500000 -0.5000000 -1.6500000
v -0.1500000 -0.5000000 -1.6500000
v -0.1500000 -0.6000000 -1.6500000
v 0.1500000 -0.6000000 -1.6500000
v 0.1500000 -0.1000000 -0.2500000
v -0.1500000 -0.1000000 -0.2500000
v -0.1500000 -0.5000000 -1.4500000
v 0.1500000 -0.5000000 -1.4500000
v -0.0923900 -0.5999925 -0.2117300
v -0.1000000 -0.5999925 -0.2500000
v 0.0000000 -0.5999925 -0.2500000
v -0.0707100 -0.5999925 -0.1792900
v -0.0923900 -0.5999925 -0.2117300
v 0.0000000 -0.5999925 -0.2500000
v -0.0382700 -0.5999925 -0.1576100
v -0.0707100 -0.5999925 -0.1792900
v 0.0000000 -0.5999925 -0.2500000
v 0.0000000 -0.5999925 -0.1500000
v -0.0382700 -0.5999925 -0.1576100
v 0.0000000 -0.5999925 -0.2500000
v 0.0382700 -0.5999925 -0.1576100
v 0.0000000 -0.5999925 -0.1500000
v 0.0000000 -0.5999925 -0.2500000
v 0.0707100 -0.5999925 -0.1792900
v 0.0382700 -0.5999925 -0.1576100
v 0.0000000 -0.5999925 -0.2500000
v 0.0923900 -0.5999925 -0.2117300
v 0.0707100 -0.5999925 -0.1792900
v 0.0000000 -0.5999925 -0.2500000
v 0.1000000 -0.5999925 -0.2500000
v 0.0923900 -0.5999925 -0.2117300
v 0.0000000 -0.5999925 -0.2500000
v 0.0923900 -0.5999925 -0.2882700
v 0.1000000 -0.5999925 -0.2500000
v 0.0000000 -0.5999925 -0.2500000
v 0.0707100 -0.5999925 -0.3207100
v 0.0923900 -0.5999925 -0.2882700
v 0.0000000 -0.5999925 -0.2500000
v 0.0382700 -0.5999925 -0.3423900
v 0.0707100 -0.5999925 -0.3207100
v 0.0000000 -0.5999925 -0.2500000
v 0.0000000 -0.5999925 -0.3500000
v 0.0382700 -0.5999925 -0.3423900
v 0.0000000 -0.5999925 -0.2500000
v -0.0382700 -0.5999925 -0.3423900
v 0.0000000 -0.5999925 -0.3500000
v 0.0000000 -0.5999925 -0.2500000
v -0.0707100 -0.5999925 -0.3207100
v -0.0382700 -0.5999925 -0.3423900
v 0.0000000 -0.5999925 -0.2500000
v -0.0923900 -0.5999925 -0.2882700
v -0.0707100 -0.5999925 -0.3207100
v 0.0000000 -0.5999925 -0.2500000
v -0.1000000 -0.5999925 -0.2500000
v -0.0923900 -0.5999925 -0.2882700
v 0.0000000 -0.5999925 -0.2500000
v -0.1000000 -0.5999925 -0.2500000
v -0.0923900 -0.5999925 -0.2117300
v -0.0923900 -0.1333325 -0.2117300
v -0.1000000 -0.1333325 -0.2500000
v -0.0923900 -0.5999925 -0.2117300
v -0.0707100 -0.5999925 -0.1792900
v -0.0707100 -0.1333325 -0.1792900
v -0.0923900 -0.1333325 -0.2117300
v -0.0707100 -0.5999925 -0.1792900
v -0.0382700 -0.5999925 -0.1576100
v -0.0382700 -0.1333325 -0.1576100
v -0.0707100 -0.1333325 -0.1792900
v -0.0382700 -0.5999925 -0.1576100
v 0.0000000 -0.5999925 -0.1500000
v 0.0000000 -0.1333325 -0.1500000
v -0.0382700 -0.1333325 -0.1576100
v 0.0000000 -0.5999925 -0.1500000
v 0.0382700 -0.5999925 -0.1576100
v 0.0382700 -0.1333325 -0.1576100
v 0.0000000 -0.1333325 -0.1500000
v 0.0382700 -0.5999925 -0.1576100
v 0.0707100 -0.5999925 -0.1792900
v 0.0707100 -0.1333325 -0.1792900
v 0.0382700 -0.1333325 -0.1576100
v 0.0707100 -0.5999925 -0.1792900
v 0.0923900 -0.5999925 -0.2117300
v 0.0923900 -0.1333325 -0.2117300
v 0.0707100 -0.1333325 -0.1792900
v 0.0923900 -0.5999925 -0.2117300
v 0.1000000 -0.5999925 -0.2500000
v 0.1000000 -0.1333325 -0.2500000
v 0.0923900 -0.1333325 -0.2117300
v 0.1000000 -0.5999925 -0.2500000
v 0.0923900 -0.5999925 -0.2882700
v 0.0923900 -0.1333325 -0.2882700
v 0.1000000 -0.1333325 -0.2500000
v 0.0923900 -0.5999925 -0.2882700
v 0.0707100 -0.5999925 -0.3207100
v 0.0707100 -0.1333325 -0.3207100
v 0.0923900 -0.1333325 -0.2882700
v 0.0707100 -0.5999925 -0.3207100
v 0.0382700 -0.5999925 -0.3423900
v 0.0382700 -0.1333325 -0.3423900
v 0.0707100 -0.1333325 -0.3207100
v 0.0382700 -0.5999925 -0.3423900
v 0.0000000 -0.5999925 -0.3500000
v 0.0000000 -0.1333325 -0.3500000
v 0.0382700 -0.1333325 -0.3423900
v 0.0000000 -0.5999925 -0.3500000
v -0.0382700 -0.5999925 -0.3423900
v -0.0382700 -0.1333325 -0.3423900
v 0.0000000 -0.1333325 -0.3500000
v -0.0382700 -0.5999925 -0.3423900
v -0.0707100 -0.5999925 -0.3207100
v -0.0707100 -0.1333325 -0.3207100
v -0.0382700 -0.1333325 -0.3423900
v -0.0707100 -0.5999925 -0.3207100
v -0.0923900 -0.5999925 -0.2882700
v -0.0923900 -0.1333325 -0.2882700
v -0.0707100 -0.1333325 -0.3207100
v -0.0923900 -0.5999925 -0.2882700
v -0.1000000 -0.5999925 -0.2500000
v -0.1000000 -0.1333325 -0.2500000
v -0.0923900 -0.1333325 -0.2882700
v -0.0923900 -0.1333325 -0.2117300
v -0.0923900 -0.1000000 -0.2117300
v -0.1000000 -0.1000000 -0.2500000
v -0.1000000 -0.1333325 -0.2500000
v -0.0707100 -0.1333325 -0.1792900
v -0.0707100 -0.1000000 -0.1792900
v -0.0923900 -0.1000000 -0.2117300
v -0.0923900 -0.1333325 -0.2117300
v -0.0382700 -0.1333325 -0.1576100
v -0.0382700 -0.1000000 -0.1576100
v -0.0707100 -0.1000000 -0.1792900
v -0.0707100 -0.1333325 -0.1792900
v 0.0000000 -0.1333325 -0.1500000
v 0.0000000 -0.1000000 -0.1500000
v -0.0382700 -0.1000000 -0.1576100
v -0.0382700 -0.1333325 -0.1576100
v 0.0382700 -0.1333325 -0.1576100
v 0.0382700 -0.1000000 -0.1576100
v 0.0000000 -0.1000000 -0.1500000
v 0.0000000 -0.1333325 -0.1500000
v 0.0707100 -0.1333325 -0.1792900
v 0.0707100 -0.1000000 -0.1792900
v 0.0382700 -0.1000000 -0.1576100
v 0.0382700 -0.1333325 -0.1576100
v 0.0923900 -0.1333325 -0.2117300
v 0.0923900 -0.1000000 -0.2117300
v 0.0707100 -0.1000000 -0.1792900
v 0.0707100 -0.1333325 -0.1792900
v 0.1000000 -0.1333325 -0.2500000
v 0.1000000 -0.1000000 -0.2500000
v 0.0923900 -0.1000000 -0.2117300
v 0.0923900 -0.1333325 -0.2117300
v 0.0382700 -0.1307959 -0.3423900
v 0.0382700 -0.1333325 -0.3423900
v 0.0000000 -0.1333325 -0.3500000
v 0.0382700 -0.1307959 -0.3423900
v 0.0707100 -0.1235694 -0.3207100
v 0.0707100 -0.1333325 -0.3207100
v 0.0382700 -0.1333325 -0.3423900
v 0.0707100 -0.1235694 -0.3207100
v 0.0923900 -0.1127563 -0.2882700
v 0.0923900 -0.1333325 -0.2882700
v 0.0707100 -0.1333325 -0.3207100
v 0.0923900 -0.1127563 -0.2882700
v 0.1000000 -0.1000000 -0.2500000
v 0.1000000 -0.1333325 -0.2500000
v 0.0923900 -0.1333325 -0.2882700
v 0.0000000 -0.1333325 -0.3500000
v -0.0382700 -0.1333325 -0.3423900
v -0.0382700 -0.1307959 -0.3423900
v -0.0382700 -0.1333325 -0.3423900
v -0.0707100 -0.1333325 -0.3207100
v -0.0707100 -0.1235694 -0.3207100
v -0.0382700 -0.1307959 -0.3423900
v -0.0707100 -0.1333325 -0.3207100
v -0.0923900 -0.1333325 -0.2882700
v -0.0923900 -0.1127563 -0.2882700
v -0.0707100 -0.1235694 -0.3207100
v -0.0923900 -0.1333325 -0.2882700
v -0.1000000 -0.1333325 -0.2500000
v -0.1000000 -0.1000000 -0.2500000
v -0.0923900 -0.1127563 -0.2882700
v -0.0923900 -0.6000000 -0.7117300
v -0.1000000 -0.6000000 -0.7500000
v 0.0000000 -0.6000000 -0.7500000
v -0.0707100 -0.6000000 -0.6792900
v -0.0923900 -0.6000000 -0.7117300
v 0.0000000 -0.6000000 -0.7500000
v -0.0382700 -0.6000000 -0.6576100
v -0.0707100 -0.6000000 -0.6792900
v 0.0000000 -0.6000000 -0.7500000
v 0.0000000 -0.6000000 -0.6500000
v -0.0382700 -0.6000000 -0.6576100
v 0.0000000 -0.6000000 -0.7500000
v 0.0382700 -0.6000000 -0.6576100
v 0.0000000 -0.6000000 -0.6500000
v 0.0000000 -0.6000000 -0.7500000
v 0.0707100 -0.6000000 -0.6792900
v 0.0382700 -0.6000000 -0.6576100
v 0.0000000 -0.6000000 -0.7500000
v 0.0923900 -0.6000000 -0.7117300
v 0.0707100 -0.6000000 -0.6792900
v 0.0000000 -0.6000000 -0.7500000
v 0.1000000 -0.6000000 -0.7500000
v 0.0923900 -0.6000000 -0.7117300
v 0.0000000 -0.6000000 -0.7500000
v 0.0923900 -0.6000000 -0.7882700
v 0.1000000 -0.6000000 -0.7500000
v 0.0000000 -0.6000000 -0.7500000
v 0.0707100 -0.6000000 -0.8207100
v 0.0923900 -0.6000000 -0.7882700
v 0.0000000 -0.6000000 -0.7500000
v 0.0382700 -0.6000000 -0.8423900
v 0.0707100 -0.6000000 -0.8207100
v 0.0000000 -0.6000000 -0.7500000
v 0.0000000 -0.6000000 -0.8500000
v 0.0382700 -0.6000000 -0.8423900
v 0.0000000 -0.6000000 -0.7500000
v -0.0382700 -0.6000000 -0.8423900
v 0.0000000 -0.6000000 -0.8500000
v 0.0000000 -0.6000000 -0.7500000
v -0.0707100 -0.6000000 -0.8207100
v -0.0382700 -0.6000000 -0.8423900
v 0.0000000 -0.6000000 -0.7500000
v -0.0923900 -0.6000000 -0.7882700
v -0.0707100 -0.6000000 -0.8207100
v 0.0000000 -0.6000000 -0.7500000
v -0.1000000 -0.6000000 -0.7500000
v -0.0923900 -0.6000000 -0.7882700
v 0.0000000 -0.6000000 -0.7500000
v -0.1000000 -0.6000000 -0.7500000
v -0.0923900 -0.6000000 -0.7117300
v -0.0923900 -0.3000000 -0.7117300
v -0.1000000 -0.3000000 -0.7500000
v -0.0923900 -0.6000000 -0.7117300
v -0.0707100 -0.6000000 -0.6792900
v -0.0707100 -0.3000000 -0.6792900
v -0.0923900 -0.3000000 -0.7117300
v -0.0707100 -0.6000000 -0.6792900
v -0.0382700 -0.6000000 -0.6576100
v -0.0382700 -0.3000000 -0.6576100
v -0.0707100 -0.3000000 -0.6792900
v -0.0382700 -0.6000000 -0.6576100
v 0.0000000 -0.6000000 -0.6500000
v 0.0000000 -0.3000000 -0.6500000
v -0.0382700 -0.3000000 -0.6576100
v 0.0000000 -0.6000000 -0.6500000
v 0.0382700 -0.6000000 -0.6576100
v 0.0382700 -0.3000000 -0.6576100
v 0.0000000 -0.3000000 -0.6500000
v 0.0382700 -0.6000000 -0.6576100
v 0.0707100 -0.6000000 -0.6792900
v 0.0707100 -0.3000000 -0.6792900
v 0.0382700 -0.3000000 -0.6576100
v 0.0707100 -0.6000000 -0.6792900
v 0.0923900 -0.6000000 -0.7117300
v 0.0923900 -0.3000000 -0.7117300
v 0.0707100 -0.3000000 -0.6792900
v 0.0923900 -0.6000000 -0.7117300
v 0.1000000 -0.6000000 -0.7500000
v 0.1000000 -0.3000000 -0.7500000
v 0.0923900 -0.3000000 -0.7117300
v 0.1000000 -0.6000000 -0.7500000
v 0.0923900 -0.6000000 -0.7882700
v 0.0923900 -0.3000000 -0.7882700
v 0.1000000 -0.3000000 -0.7500000
v 0.0923900 -0.6000000 -0.7882700
v 0.0707100 -0.6000000 -0.8207100
v 0.0707100 -0.3000000 -0.8207100
v 0.0923900 -0.3000000 -0.7882700
v 0.0707100 -0.6000000 -0.8207100
v 0.0382700 -0.6000000 -0.8423900
v 0.0382700 -0.3000000 -0.8423900
v 0.0707100 -0.3000000 -0.8207100
v 0.0382700 -0.6000000 -0.8423900
v 0.0000000 -0.6000000 -0.8500000
v 0.0000000 -0.3000000 -0.8500000
v 0.0382700 -0.3000000 -0.8423900
v 0.0000000 -0.6000000 -0.8500000
v -0.0382700 -0.6000000 -0.8423900
v -0.0382700 -0.3000000 -0.8423900
v 0.0000000 -0.3000000 -0.8500000
v -0.0382700 -0.6000000 -0.8423900
v -0.0707100 -0.6000000 -0.8207100
v -0.0707100 -0.3000000 -0.8207100
v -0.0382700 -0.3000000 -0.8423900
v -0.0707100 -0.6000000 -0.8207100
v -0.0923900 -0.6000000 -0.7882700
v -0.0923900 -0.3000000 -0.7882700
v -0.0707100 -0.3000000 -0.8207100
v -0.0923900 -0.6000000 -0.7882700
v -0.1000000 -0.6000000 -0.7500000
v -0.1000000 -0.3000000 -0.7500000
v -0.0923900 -0.3000000 -0.7882700
v 0.0000000 -0.3000000 -0.8500000
v -0.0382700 -0.3000000 -0.8423900
v -0.0382700 -0.2974634 -0.8423900
v -0.0382700 -0.3000000 -0.8423900
v -0.0707100 -0.3000000 -0.8207100
v -0.0707100 -0.2902369 -0.8207100
v -0.0382700 -0.2974634 -0.8423900
v -0.0707100 -0.3000000 -0.8207100
v -0.0923900 -0.3000000 -0.7882700
v -0.0923900 -0.2794238 -0.7882700
v -0.0707100 -0.2902369 -0.8207100
v -0.0923900 -0.3000000 -0.7882700
v -0.1000000 -0.3000000 -0.7500000
v -0.1000000 -0.2666675 -0.7500000
v -0.0923900 -0.2794238 -0.7882700
v -0.1000000 -0.3000000 -0.7500000
v -0.0923900 -0.3000000 -0.7117300
v -0.0923900 -0.2539112 -0.7117300
v -0.1000000 -0.2666675 -0.7500000
v -0.0923900 -0.3000000 -0.7117300
v -0.0707100 -0.3000000 -0.6792900
v -0.0707100 -0.2430981 -0.6792900
v -0.0923900 -0.2539112 -0.7117300
v -0.0707100 -0.3000000 -0.6792900
v -0.0382700 -0.3000000 -0.6576100
v -0.0382700 -0.2358716 -0.6576100
v -0.0707100 -0.2430981 -0.6792900
v -0.0382700 -0.3000000 -0.6576100
v 0.0000000 -0.3000000 -0.6500000
v 0.0000000 -0.2333350 -0.6500000
v -0.0382700 -0.2358716 -0.6576100
v 0.0000000 -0.3000000 -0.6500000
v 0.0382700 -0.3000000 -0.6576100
v 0.0382700 -0.2358716 -0.6576100
v 0.0000000 -0.2333350 -0.6500000
v 0.0382700 -0.3000000 -0.6576100
v 0.0707100 -0.3000000 -0.6792900
v 0.0707100 -0.2430981 -0.6792900
v 0.0382700 -0.2358716 -0.6576100
v 0.0707100 -0.3000000 -0.6792900
v 0.0923900 -0.3000000 -0.7117300
v 0.0923900 -0.2539112 -0.7117300
v 0.0707100 -0.2430981 -0.6792900
v 0.0923900 -0.3000000 -0.7117300
v 0.1000000 -0.3000000 -0.7500000
v 0.1000000 -0.2666675 -0.7500000
v 0.0923900 -0.2539112 -0.7117300
v 0.1000000 -0.3000000 -0.7500000
v 0.0923900 -0.3000000 -0.7882700
v 0.0923900 -0.2794238 -0.7882700
v 0.1000000 -0.2666675 -0.7500000
v 0.0923900 -0.3000000 -0.7882700
v 0.0707100 -0.3000000 -0.8207100
v 0.0707100 -0.2902369 -0.8207100
v 0.0923900 -0.2794238 -0.7882700
v 0.0707100 -0.3000000 -0.8207100
v 0.0382700 -0.3000000 -0.8423900
v 0.0382700 -0.2974634 -0.8423900
v 0.0707100 -0.2902369 -0.8207100
v 0.0000000 -0.3000000 -0.8500000
v 0.0382700 -0.2974634 -0.8423900
v 0.0382700 -0.3000000 -0.8423900
v -0.0923900 -0.5999975 -1.2117300
v -0.1000000 -0.5999975 -1.2500000
v 0.0000000 -0.5999975 -1.2500000
v -0.0707100 -0.5999975 -1.1792900
v -0.0923900 -0.5999975 -1.2117300
v 0.0000000 -0.5999975 -1.2500000
v -0.0382700 -0.5999975 -1.1576100
v -0.0707100 -0.5999975 -1.1792900
v 0.0000000 -0.5999975 -1.2500000
v 0.0000000 -0.5999975 -1.1500000
v -0.0382700 -0.5999975 -1.1576100
v 0.0000000 -0.5999975 -1.2500000
v 0.0382700 -0.5999975 -1.1576100
v 0.0000000 -0.5999975 -1.1500000
v 0.0000000 -0.5999975 -1.2500000
v 0.0707100 -0.5999975 -1.1792900
v 0.0382700 -0.5999975 -1.1576100
v 0.0000000 -0.5999975 -1.2500000
v 0.0923900 -0.5999975 -1.2117300
v 0.0707100 -0.5999975 -1.1792900
v 0.0000000 -0.5999975 -1.2500000
v 0.1000000 -0.5999975 -1.2500000
v 0.0923900 -0.5999975 -1.2117300
v 0.0000000 -0.5999975 -1.2500000
v 0.0923900 -0.5999975 -1.2882700
v 0.1000000 -0.5999975 -1.2500000
v 0.0000000 -0.5999975 -1.2500000
v 0.0707100 -0.5999975 -1.3207100
v 0.0923900 -0.5999975 -1.2882700
v 0.0000000 -0.5999975 -1.2500000
v 0.0382700 -0.5999975 -1.3423900
v 0.0707100 -0.5999975 -1.3207100
v 0.0000000 -0.5999975 -1.2500000
v 0.0000000 -0.5999975 -1.3500000
v 0.0382700 -0.5999975 -1.3423900
v 0.0000000 -0.5999975 -1.2500000
v -0.0382700 -0.5999975 -1.3423900
v 0.0000000 -0.5999975 -1.3500000
v 0.0000000 -0.5999975 -1.2500000
v -0.0707100 -0.5999975 -1.3207100
v -0.0382700 -0.5999975 -1.3423900
v 0.0000000 -0.5999975 -1.2500000
v -0.0923900 -0.5999975 -1.2882700
v -0.0707100 -0.5999975 -1.3207100
v 0.0000000 -0.5999975 -1.2500000
v -0.1000000 -0.5999975 -1.2500000
v -0.0923900 -0.5999975 -1.2882700
v 0.0000000 -0.5999975 -1.2500000
v -0.1000000 -0.5999975 -1.2500000
v -0.0923900 -0.5999975 -1.2117300
v -0.0923900 -0.4666675 -1.2117300
v -0.1000000 -0.4666675 -1.2500000
v -0.0923900 -0.5999975 -1.2117300
v -0.0707100 -0.5999975 -1.1792900
v -0.0707100 -0.4666675 -1.1792900
v -0.0923900 -0.4666675 -1.2117300
v -0.0707100 -0.5999975 -1.1792900
v -0.0382700 -0.5999975 -1.1576100
v -0.0382700 -0.4666675 -1.1576100
v -0.0707100 -0.4666675 -1.1792900
v -0.0382700 -0.5999975 -1.1576100
v 0.0000000 -0.5999975 -1.1500000
v 0.0000000 -0.4666675 -1.1500000
v -0.0382700 -0.4666675 -1.1576100
v 0.0000000 -0.5999975 -1.1500000
v 0.0382700 -0.5999975 -1.1576100
v 0.0382700 -0.4666675 -1.1576100
v 0.0000000 -0.4666675 -1.1500000
v 0.0382700 -0.5999975 -1.1576100
v 0.0707100 -0.5999975 -1.1792900
v 0.0707100 -0.4666675 -1.1792900
v 0.0382700 -0.4666675 -1.1576100
v 0.0707100 -0.5999975 -1.1792900
v 0.0923900 -0.5999975 -1.2117300
v 0.0923900 -0.4666675 -1.2117300
v 0.0707100 -0.4666675 -1.1792900
v 0.0923900 -0.5999975 -1.2117300
v 0.1000000 -0.5999975 -1.2500000
v 0.1000000 -0.4666675 -1.2500000
v 0.0923900 -0.4666675 -1.2117300
v 0.1000000 -0.5999975 -1.2500000
v 0.0923900 -0.5999975 -1.2882700
v 0.0923900 -0.4666675 -1.2882700
v 0.1000000 -0.4666675 -1.2500000
v 0.0923900 -0.5999975 -1.2882700
v 0.0707100 -0.5999975 -1.3207100
v 0.0707100 -0.4666675 -1.3207100
v 0.0923900 -0.4666675 -1.2882700
v 0.0707100 -0.5999975 -1.3207100
v 0.0382700 -0.5999975 -1.3423900
v 0.0382700 -0.4666675 -1.3423900
v 0.0707100 -0.4666675 -1.3207100
v 0.0382700 -0.5999975 -1.3423900
v 0.0000000 -0.5999975 -1.3500000
v 0.0000000 -0.4666675 -1.3500000
v 0.0382700 -0.4666675 -1.3423900
v 0.0000000 -0.5999975 -1.3500000
v -0.0382700 -0.5999975 -1.3423900
v -0.0382700 -0.4666675 -1.3423900
v 0.0000000 -0.4666675 -1.3500000
v -0.0382700 -0.5999975 -1.3423900
v -0.0707100 -0.5999975 -1.3207100
v -0.0707100 -0.4666675 -1.3207100
v -0.0382700 -0.4666675 -1.3423900
v -0.0707100 -0.5999975 -1.3207100
v -0.0923900 -0.5999975 -1.2882700
v -0.0923900 -0.4666675 -1.2882700
v -0.0707100 -0.4666675 -1.3207100
v -0.0923900 -0.5999975 -1.2882700
v -0.1000000 -0.5999975 -1.2500000
v -0.1000000 -0.4666675 -1.2500000
v -0.0923900 -0.4666675 -1.2882700
v 0.0000000 -0.4666675 -1.3500000
v -0.0382700 -0.4666675 -1.3423900
v -0.0382700 -0.4641309 -1.3423900
v -0.0382700 -0.4666675 -1.3423900
v -0.0707100 -0.4666675 -1.3207100
v -0.0707100 -0.4569044 -1.3207100
v -0.0382700 -0.4641309 -1.3423900
v -0.0707100 -0.4666675 -1.3207100
v -0.0923900 -0.4666675 -1.2882700
v -0.0923900 -0.4460913 -1.2882700
v -0.0707100 -0.4569044 -1.3207100
v -0.0923900 -0.4666675 -1.2882700
v -0.1000000 -0.4666675 -1.2500000
v -0.1000000 -0.4333350 -1.2500000
v -0.0923900 -0.4460913 -1.2882700
v -0.1000000 -0.4666675 -1.2500000
v -0.0923900 -0.4666675 -1.2117300
v -0.0923900 -0.4205787 -1.2117300
v -0.1000000 -0.4333350 -1.2500000
v -0.0923900 -0.4666675 -1.2117300
v -0.0707100 -0.4666675 -1.1792900
v -0.0707100 -0.4097656 -1.1792900
v -0.0923900 -0.4205787 -1.2117300
v -0.0707100 -0.4666675 -1.1792900
v -0.0382700 -0.4666675 -1.1576100
v -0.0382700 -0.4025391 -1.1576100
v -0.0707100 -0.4097656 -1.1792900
v -0.0382700 -0.4666675 -1.1576100
v 0.0000000 -0.4666675 -1.1500000
v 0.0000000 -0.4000025 -1.1500000
v -0.0382700 -0.4025391 -1.1576100
v 0.0000000 -0.4666675 -1.1500000
v 0.0382700 -0.4666675 -1.1576100
v 0.0382700 -0.4025391 -1.1576100
v 0.0000000 -0.4000025 -1.1500000
v 0.0382700 -0.4666675 -1.1576100
v 0.0707100 -0.4666675 -1.1792900
v 0.0707100 -0.4097656 -1.1792900
v 0.0382700 -0.4025391 -1.1576100
v 0.0707100 -0.4666675 -1.1792900
v 0.0923900 -0.4666675 -1.2117300
v 0.0923900 -0.4205787 -1.2117300
v 0.0707100 -0.4097656 -1.1792900
v 0.0923900 -0.4666675 -1.2117300
v 0.1000000 -0.4666675 -1.2500000
v 0.1000000 -0.4333350 -1.2500000
v 0.0923900 -0.4205787 -1.2117300
v 0.1000000 -0.4666675 -1.2500000
v 0.0923900 -0.4666675 -1.2882700
v 0.0923900 -0.4460913 -1.2882700
v 0.1000000 -0.4333350 -1.2500000
v 0.0923900 -0.4666675 -1.2882700
v 0.0707100 -0.4666675 -1.3207100
v 0.0707100 -0.4569044 -1.3207100
v 0.0923900 -0.4460913 -1.2882700
v 0.0707100 -0.4666675 -1.3207100
v 0.0382700 -0.4666675 -1.3423900
v 0.0382700 -0.4641309 -1.3423900
v 0.0707100 -0.4569044 -1.3207100
v 0.0000000 -0.4666675 -1.3500000
v 0.0382700 -0.4641309 -1.3423900
v 0.0382700 -0.4666675 -1.3423900
v 0.1500000 -0.5000000 -1.6500000
v 0.1500000 -0.6000000 -1.6500000
v 0.1500000 -0.6000000 0.1500000
v 0.1500000 -0.5000000 -1.4500000
v 0.1500000 -0.1000000 0.1500000
v 0.1500000 -0.1000000 -0.2500000
v 0.1500000 -0.5000000 -1.4500000
v 0.1500000 -0.6000000 0.1500000
v -0.1500000 -0.5000000 -1.4500000
v -0.1500000 -0.6000000 0.1500000
v -0.1500000 -0.6000000 -1.6500000
v -0.1500000 -0.5000000 -1.6500000
v -0.1500000 -0.6000000 0.1500000
v -0.1500000 -0.5000000 -1.4500000
v -0.1500000 -0.1000000 -0.2500000
v -0.1500000 -0.1000000 0.1500000
v 0.2500000 -0.0000000 0.2500000
v 0.2500000 -0.0000000 -0.2500000
v -0.2500000 -0.0000000 -0.2500000
v -0.2500000 -0.0000000 0.2500000
v 0.2500000 -0.0000000 0.2500000
v -0.2500000 -0.0000000 0.2500000
v -0.2500000 -0.6000000 0.2500000
v 0.2500000 -0.6000000 0.2500000
v -0.2500000 -0.6000000 -1.7500000
v -0.2500000 -0.5000000 -1.7500000
v 0.2500000 -0.5000000 -1.7500000
v 0.2500000 -0.6000000 -1.7500000
v 0.2500000 -0.6000000 -1.7500000
v 0.2500000 -0.5000000 -1.7500000
v 0.2500000 -0.0000000 0.2500000
v 0.2500000 -0.6000000 0.2500000
v 0.2500000 -0.5000000 -1.7500000
v 0.2500000 -0.0000000 -0.2500000
v 0.2500000 -0.0000000 0.2500000
v -0.2500000 -0.0000000 0.2500000
v -0.2500000 -0.5000000 -1.7500000
v -0.2500000 -0.6000000 -1.7500000
v -0.2500000 -0.6000000 0.2500000
v -0.2500000 -0.0000000 -0.2500000
v -0.2500000 -0.5000000 -1.7500000
v -0.2500000 -0.0000000 0.2500000
v 0.0000000 0.1000000 -0.1500000
v 0.0574050 0.1000000 -0.1385850
v 0.0574050 -0.0000000 -0.1385850
v 0.0000000 -0.0000000 -0.1500000
v 0.0574050 0.1000000 -0.1385850
v 0.1060650 0.1000000 -0.1060650
v 0.1060650 -0.0000000 -0.1060650
v 0.0574050 -0.0000000 -0.1385850
v 0.1060650 0.1000000 -0.1060650
v 0.1385850 0.1000000 -0.0574050
v 0.1385850 -0.0000000 -0.0574050
v 0.1060650 -0.0000000 -0.1060650
v 0.1385850 0.1000000 -0.0574050
v 0.1500000 0.1000000 0.0000000
v 0.1500000 -0.0000000 0.0000000
v 0.1385850 -0.0000000 -0.0574050
v 0.1500000 0.1000000 0.0000000
v 0.1385850 0.1000000 0.0574050
v 0.1385850 -0.0000000 0.0574050
v 0.1500000 -0.0000000 0.0000000
v 0.1385850 0.1000000 0.0574050
v 0.1060650 0.1000000 0.1060650
v 0.1060650 -0.0000000 0.1060650
v 0.1385850 -0.0000000 0.0574050
v 0.1060650 0.1000000 0.1060650
v 0.0574050 0.1000000 0.1385850
v 0.0574050 -0.0000000 0.1385850
v 0.1060650 -0.0000000 0.1060650
v 0.0574050 0.1000000 0.1385850
v 0.0000000 0.1000000 0.1500000
v 0.0000000 -0.0000000 0.1500000
v 0.0574050 -0.0000000 0.1385850
v 0.0000000 0.1000000 0.1500000
v -0.0574050 0.1000000 0.1385850
v -0.0574050 -0.0000000 0.1385850
v 0.0000000 -0.0000000 0.1500000
v -0.0574050 0.1000000 0.1385850
v -0.1060650 0.1000000 0.1060650
v -0.1060650 -0.0000000 0.1060650
v -0.0574050 -0.0000000 0.1385850
v -0.1060650 0.1000000 0.1060650
v -0.1385850 0.1000000 0.0574050
v -0.1385850 -0.0000000 0.0574050
v -0.1060650 -0.0000000 0.1060650
v -0.1385850 0.1000000 0.0574050
v -0.1500000 0.1000000 0.0000000
v -0.1500000 -0.0000000 0.0000000
v -0.1385850 -0.0000000 0.0574050
v -0.1500000 0.1000000 0.0000000
v -0.1385850 0.1000000 -0.0574050
v -0.1385850 -0.0000000 -0.0574050
v -0.1500000 -0.0000000 0.0000000
v -0.1385850 0.1000000 -0.0574050
v -0.1060650 0.1000000 -0.1060650
v -0.1060650 -0.0000000 -0.1060650
v -0.1385850 -0.0000000 -0.0574050
v -0.1060650 0.1000000 -0.1060650
v -0.0574050 0.1000000 -0.1385850
v -0.0574050 -0.0000000 -0.1385850
v -0.1060650 -0.0000000 -0.1060650
v -0.0574050 0.1000000 -0.1385850
v 0.0000000 0.1000000 -0.1500000
v 0.0000000 -0.0000000 -0.1500000
v -0.0574050 -0.0000000 -0.1385850
v 0.0574050 0.1000000 -0.1385850
v 0.0000000 0.1000000 -0.1500000
v 0.0000000 0.1000000 0.0000000
v 0.1060650 0.1000000 -0.1060650
v 0.0574050 0.1000000 -0.1385850
v 0.0000000 0.1000000 0.0000000
v 0.1385850 0.1000000 -0.0574050
v 0.1060650 0.1000000 -0.1060650
v 0.0000000 0.1000000 0.0000000
v 0.1500000 0.1000000 0.0000000
v 0.1385850 0.1000000 -0.0574050
v 0.0000000 0.1000000 0.0000000
v 0.1385850 0.1000000 0.0574050
v 0.1500000 0.1000000 0.0000000
v 0.0000000 0.1000000 0.0000000
v 0.1060650 0.1000000 0.1060650
v 0.1385850 0.1000000 0.0574050
v 0.0000000 0.1000000 0.0000000
v 0.0574050 0.1000000 0.1385850
v 0.1060650 0.1000000 0.1060650
v 0.0000000 0.1000000 0.0000000
v 0.0000000 0.1000000 0.1500000
v 0.0574050 0.1000000 0.1385850
v 0.0000000 0.1000000 0.0000000
v -0.0574050 0.1000000 0.1385850
v 0.0000000 0.1000000 0.1500000
v 0.0000000 0.1000000 0.0000000
v -0.1060650 0.1000000 0.1060650
v -0.0574050 0.1000000 0.1385850
v 0.0000000 0.1000000 0.0000000
v -0.1385850 0.1000000 0.0574050
v -0.1060650 0.1000000 0.1060650
v 0.0000000 0.1000000 0.0000000
v -0.1500000 0.1000000 0.0000000
v -0.1385850 0.1000000 0.0574050
v 0.0000000 0.1000000 0.0000000
v -0.1385850 0.1000000 -0.0574050
v -0.1500000 0.1000000 0.0000000
v 0.0000000 0.1000000 0.0000000
v -0.1060650 0.1000000 -0.1060650
v -0.1385850 0.1000000 -0.0574050
v 0.0000000 0.1000000 0.0000000
v -0.0574050 0.1000000 -0.1385850
v -0.1060650 0.1000000 -0.1060650
v 0.0000000 0.1000000 0.0000000
v 0.0000000 0.1000000 -0.1500000
v -0.0574050 0.1000000 -0.1385850
v 0.0000000 0.1000000 0.0000000
v 0.2500000 -0.5000000 -1.7500000
v -0.2500000 -0.5000000 -1.7500000
v -0.2500000 -0.0000000 -0.2500000
v 0.2500000 -0.0000000 -0.2500000
s off
f 1 2 3
f 1 3 4
f 5 6 7
f 5 7 8
f 9 10 11
f 9 11 12
f 13 14 15
f 13 15 16
f 17 18 19
f 17 19 20
f 21 22 23
f 21 23 24
f 25 26 27
f 25 27 28
f 29 30 31
f 29 31 32
f 33 34 35
f 33 35 36
f 37 38 39
f 40 41 42
f 43 44 45
f 46 47 48
f 49 50 51
f 52 53 54
f 55 56 57
f 58 59 60
f 61 62 63
f 64 65 66
f 67 68 69
f 70 71 72
f 73 74 75
f 76 77 78
f 79 80 81
f 82 83 84
f 85 86 87
f 85 87 88
f 89 90 91
f 89 91 92
f 93 94 95
f 93 95 96
f 97 98 99
f 97 99 100
f 101 102 103
f 101 103 104
f 105 106 107
f 105 107 108
f 109 110 111
f 109 111 112
f 113 114 115
f 113 115 116
f 117 118 119
f 117 119 120
f 121 122 123
f 121 123 124
f 125 126 127
f 125 127 128
f 129 130 131
f 129 131 132
f 133 134 135
f 133 135 136
f 137 138 139
f 137 139 140
f 141 142 143
f 141 143 144
f 145 146 147
f 145 147 148
f 149 150 151
f 149 151 152
f 153 154 155
f 153 155 156
f 157 158 159
f 157 159 160
f 161 162 163
f 161 163 164
f 165 166 167
f 165 167 168
f 169 170 171
f 169 171 172
f 173 174 175
f 173 175 176
f 177 178 179
f 177 179 180
f 181 182 183
f 184 185 186
f 184 186 187
f 188 189 190
f 188 190 191
f 192 193 194
f 192 194 195
f 196 197 198
f 199 200 201
f 199 201 202
f 203 204 205
f 203 205 206
f 207 208 209
f 207 209 210
f 211 212 213
f 214 215 216
f 217 218 219
f 220 221 222
f 223 224 225
f 226 227 228
f 229 230 231
f 232 233 234
f 235 236 237
f 238 239 240
f 241 242 243
f 244 245 246
f 247 248 249
f 250 251 252
f 253 254 255
f 256 257 258
f 259 260 261
f 259 261 262
f 263 264 265
f 263 265 266
f 267 268 269
f 267 269 270
f 271 272 273
f 271 273 274
f 275 276 277
f 275 277 278
f 279 280 281
f 279 281 282
f 283 284 285
f 283 285 286
f 287 288 289
f 287 289 290
f 291 292 293
f 291 293 294
f 295 296 297
f 295 297 298
f 299 300 301
f 299 301 302
f 303 304 305
f 303 305 306
f 307 308 309
f 307 309 310
f 311 312 313
f 311 313 314
f 315 316 317
f 315 317 318
f 319 320 321
f 319 321 322
f 323 324 325
f 326 327 328
f 326 328 329
f 330 331 332
f 330 332 333
f 334 335 336
f 334 336 337
f 338 339 340
f 338 340 341
f 342 343 344
f 342 344 345
f 346 347 348
f 346 348 349
f 350 351 352
f 350 352 353
f 354 355 356
f 354 356 357
f 358 359 360
f 358 360 361
f 362 363 364
f 362 364 365
f 366 367 368
f 366 368 369
f 370 371 372
f 370 372 373
f 374 375 376
f 374 376 377
f 378 379 380
f 378 380 381
f 382 383 384
f 385 386 387
f 388 389 390
f 391 392 393
f 394 395 396
f 397 398 399
f 400 401 402
f 403 404 405
f 406 407 408
f 409 410 411
f 412 413 414
f 415 416 417
f 418 419 420
f 421 422 423
f 424 425 426
f 427 428 429
f 430 431 432
f 433 434 435
f 433 435 436
f 437 438 439
f 437 439 440
f 441 442 443
f 441 443 444
f 445 446 447
f 445 447 448
f 449 450 451
f 449 451 452
f 453 454 455
f 453 455 456
f 457 458 459
f 457 459 460
f 461 462 463
f 461 463 464
f 465 466 467
f 465 467 468
f 469 470 471
f 469 471 472
f 473 474 475
f 473 475 476
f 477 478 479
f 477 479 480
f 481 482 483
f 481 483 484
f 485 486 487
f 485 487 488
f 489 490 491
f 489 491 492
f 493 494 495
f 493 495 496
f 497 498 499
f 500 501 502
f 500 502 503
f 504 505 506
f 504 506 507
f 508 509 510
f 508 510 511
f 512 513 514
f 512 514 515
f 516 517 518
f 516 518 519
f 520 521 522
f 520 522 523
f 524 525 526
f 524 526 527
f 528 529 530
f 528 530 531
f 532 533 534
f 532 534 535
f 536 537 538
f 536 538 539
f 540 541 542
f 540 542 543
f 544 545 546
f 544 546 547
f 548 549 550
f 548 550 551
f 552 553 554
f 552 554 555
f 556 557 558
f 559 560 561
f 559 561 562
f 563 564 565
f 563 565 566
f 567 568 569
f 567 569 570
f 571 572 573
f 571 573 574
f 575 576 577
f 575 577 578
f 579 580 581
f 579 581 582
f 583 584 585
f 583 585 586
f 587 588 589
f 587 589 590
f 591 592 593
f 594 595 596
f 594 596 597
f 598 599 600
f 601 602 603
f 601 603 604
f 605 606 607
f 605 607 608
f 609 610 611
f 609 611 612
f 613 614 615
f 613 615 616
f 617 618 619
f 617 619 620
f 621 622 623
f 621 623 624
f 625 626 627
f 625 627 628
f 629 630 631
f 629 631 632
f 633 634 635
f 633 635 636
f 637 638 639
f 637 639 640
f 641 642 643
f 641 643 644
f 645 646 647
f 645 647 648
f 649 650 651
f 649 651 652
f 653 654 655
f 653 655 656
f 657 658 659
f 657 659 660
f 661 662 663
f 661 663 664
f 665 666 667
f 668 669 670
f 671 672 673
f 674 675 676
f 677 678 679
f 680 681 682
f 683 684 685
f 686 687 688
f 689 690 691
f 692 693 694
f 695 696 697
f 698 699 700
f 701 702 703
f 704 705 706
f 707 708 709
f 710 711 712
f 713 714 715
f 713 715 716
