# Baked from official LDraw part 60581.dat
o ldraw_60581
v -0.5000000 -1.8000000 0.0000000
v -0.4000000 -1.8000000 0.0000000
v -0.4076100 -1.8000000 0.0382700
v -0.5000000 -1.8000000 0.0000000
v -0.4076100 -1.8000000 0.0382700
v -0.4292900 -1.8000000 0.0707100
v -0.5000000 -1.8000000 0.0000000
v -0.4292900 -1.8000000 0.0707100
v -0.4617300 -1.8000000 0.0923900
v -0.5000000 -1.8000000 0.0000000
v -0.4617300 -1.8000000 0.0923900
v -0.5000000 -1.8000000 0.1000000
v -0.5000000 -1.8000000 0.0000000
v -0.5000000 -1.8000000 0.1000000
v -0.5382700 -1.8000000 0.0923900
v -0.5000000 -1.8000000 0.0000000
v -0.5382700 -1.8000000 0.0923900
v -0.5707100 -1.8000000 0.0707100
v -0.5000000 -1.8000000 0.0000000
v -0.5707100 -1.8000000 0.0707100
v -0.5923900 -1.8000000 0.0382700
v -0.5000000 -1.8000000 0.0000000
v -0.5923900 -1.8000000 0.0382700
v -0.6000000 -1.8000000 0.0000000
v -0.5000000 -1.8000000 0.0000000
v -0.6000000 -1.8000000 0.0000000
v -0.5923900 -1.8000000 -0.0382700
v -0.5000000 -1.8000000 0.0000000
v -0.5923900 -1.8000000 -0.0382700
v -0.5707100 -1.8000000 -0.0707100
v -0.5000000 -1.8000000 0.0000000
v -0.5707100 -1.8000000 -0.0707100
v -0.5382700 -1.8000000 -0.0923900
v -0.5000000 -1.8000000 0.0000000
v -0.5382700 -1.8000000 -0.0923900
v -0.5000000 -1.8000000 -0.1000000
v -0.5000000 -1.8000000 0.0000000
v -0.5000000 -1.8000000 -0.1000000
v -0.4617300 -1.8000000 -0.0923900
v -0.5000000 -1.8000000 0.0000000
v -0.4617300 -1.8000000 -0.0923900
v -0.4292900 -1.8000000 -0.0707100
v -0.5000000 -1.8000000 0.0000000
v -0.4292900 -1.8000000 -0.0707100
v -0.4076100 -1.8000000 -0.0382700
v -0.5000000 -1.8000000 0.0000000
v -0.4076100 -1.8000000 -0.0382700
v -0.4000000 -1.8000000 0.0000000
v -0.4000000 -1.7000000 0.0000000
v -0.4076100 -1.7000000 0.0382700
v -0.4076100 -1.8000000 0.0382700
v -0.4000000 -1.8000000 0.0000000
v -0.4076100 -1.7000000 0.0382700
v -0.4292900 -1.7000000 0.0707100
v -0.4292900 -1.8000000 0.0707100
v -0.4076100 -1.8000000 0.0382700
v -0.4292900 -1.7000000 0.0707100
v -0.4617300 -1.7000000 0.0923900
v -0.4617300 -1.8000000 0.0923900
v -0.4292900 -1.8000000 0.0707100
v -0.4617300 -1.7000000 0.0923900
v -0.5000000 -1.7000000 0.1000000
v -0.5000000 -1.8000000 0.1000000
v -0.4617300 -1.8000000 0.0923900
v -0.5000000 -1.7000000 0.1000000
v -0.5382700 -1.7000000 0.0923900
v -0.5382700 -1.8000000 0.0923900
v -0.5000000 -1.8000000 0.1000000
v -0.5382700 -1.7000000 0.0923900
v -0.5707100 -1.7000000 0.0707100
v -0.5707100 -1.8000000 0.0707100
v -0.5382700 -1.8000000 0.0923900
v -0.5707100 -1.7000000 0.0707100
v -0.5923900 -1.7000000 0.0382700
v -0.5923900 -1.8000000 0.0382700
v -0.5707100 -1.8000000 0.0707100
v -0.5923900 -1.7000000 0.0382700
v -0.6000000 -1.7000000 0.0000000
v -0.6000000 -1.8000000 0.0000000
v -0.5923900 -1.8000000 0.0382700
v -0.6000000 -1.7000000 0.0000000
v -0.5923900 -1.7000000 -0.0382700
v -0.5923900 -1.8000000 -0.0382700
v -0.6000000 -1.8000000 0.0000000
v -0.5923900 -1.7000000 -0.0382700
v -0.5707100 -1.7000000 -0.0707100
v -0.5707100 -1.8000000 -0.0707100
v -0.5923900 -1.8000000 -0.0382700
v -0.5707100 -1.7000000 -0.0707100
v -0.5382700 -1.7000000 -0.0923900
v -0.5382700 -1.8000000 -0.0923900
v -0.5707100 -1.8000000 -0.0707100
v -0.5382700 -1.7000000 -0.0923900
v -0.5000000 -1.7000000 -0.1000000
v -0.5000000 -1.8000000 -0.1000000
v -0.5382700 -1.8000000 -0.0923900
v -0.5000000 -1.7000000 -0.1000000
v -0.4617300 -1.7000000 -0.0923900
v -0.4617300 -1.8000000 -0.0923900
v -0.5000000 -1.8000000 -0.1000000
v -0.4617300 -1.7000000 -0.0923900
v -0.4292900 -1.7000000 -0.0707100
v -0.4292900 -1.8000000 -0.0707100
v -0.4617300 -1.8000000 -0.0923900
v -0.4292900 -1.7000000 -0.0707100
v -0.4076100 -1.7000000 -0.0382700
v -0.4076100 -1.8000000 -0.0382700
v -0.4292900 -1.8000000 -0.0707100
v -0.4076100 -1.7000000 -0.0382700
v -0.4000000 -1.7000000 0.0000000
v -0.4000000 -1.8000000 0.0000000
v -0.4076100 -1.8000000 -0.0382700
v 0.0000000 -1.8000000 0.0000000
v 0.1000000 -1.8000000 0.0000000
v 0.0923900 -1.8000000 0.0382700
v 0.0000000 -1.8000000 0.0000000
v 0.0923900 -1.8000000 0.0382700
v 0.0707100 -1.8000000 0.0707100
v 0.0000000 -1.8000000 0.0000000
v 0.0707100 -1.8000000 0.0707100
v 0.0382700 -1.8000000 0.0923900
v 0.0000000 -1.8000000 0.0000000
v 0.0382700 -1.8000000 0.0923900
v 0.0000000 -1.8000000 0.1000000
v 0.0000000 -1.8000000 0.0000000
v 0.0000000 -1.8000000 0.1000000
v -0.0382700 -1.8000000 0.0923900
v 0.0000000 -1.8000000 0.0000000
v -0.0382700 -1.8000000 0.0923900
v -0.0707100 -1.8000000 0.0707100
v 0.0000000 -1.8000000 0.0000000
v -0.0707100 -1.8000000 0.0707100
v -0.0923900 -1.8000000 0.0382700
v 0.0000000 -1.8000000 0.0000000
v -0.0923900 -1.8000000 0.0382700
v -0.1000000 -1.8000000 0.0000000
v 0.0000000 -1.8000000 0.0000000
v -0.1000000 -1.8000000 0.0000000
v -0.0923900 -1.8000000 -0.0382700
v 0.0000000 -1.8000000 0.0000000
v -0.0923900 -1.8000000 -0.0382700
v -0.0707100 -1.8000000 -0.0707100
v 0.0000000 -1.8000000 0.0000000
v -0.0707100 -1.8000000 -0.0707100
v -0.0382700 -1.8000000 -0.0923900
v 0.0000000 -1.8000000 0.0000000
v -0.0382700 -1.8000000 -0.0923900
v 0.0000000 -1.8000000 -0.1000000
v 0.0000000 -1.8000000 0.0000000
v 0.0000000 -1.8000000 -0.1000000
v 0.0382700 -1.8000000 -0.0923900
v 0.0000000 -1.8000000 0.0000000
v 0.0382700 -1.8000000 -0.0923900
v 0.0707100 -1.8000000 -0.0707100
v 0.0000000 -1.8000000 0.0000000
v 0.0707100 -1.8000000 -0.0707100
v 0.0923900 -1.8000000 -0.0382700
v 0.0000000 -1.8000000 0.0000000
v 0.0923900 -1.8000000 -0.0382700
v 0.1000000 -1.8000000 0.0000000
v 0.1000000 -1.7000000 0.0000000
v 0.0923900 -1.7000000 0.0382700
v 0.0923900 -1.8000000 0.0382700
v 0.1000000 -1.8000000 0.0000000
v 0.0923900 -1.7000000 0.0382700
v 0.0707100 -1.7000000 0.0707100
v 0.0707100 -1.8000000 0.0707100
v 0.0923900 -1.8000000 0.0382700
v 0.0707100 -1.7000000 0.0707100
v 0.0382700 -1.7000000 0.0923900
v 0.0382700 -1.8000000 0.0923900
v 0.0707100 -1.8000000 0.0707100
v 0.0382700 -1.7000000 0.0923900
v 0.0000000 -1.7000000 0.1000000
v 0.0000000 -1.8000000 0.1000000
v 0.0382700 -1.8000000 0.0923900
v 0.0000000 -1.7000000 0.1000000
v -0.0382700 -1.7000000 0.0923900
v -0.0382700 -1.8000000 0.0923900
v 0.0000000 -1.8000000 0.1000000
v -0.0382700 -1.7000000 0.0923900
v -0.0707100 -1.7000000 0.0707100
v -0.0707100 -1.8000000 0.0707100
v -0.0382700 -1.8000000 0.0923900
v -0.0707100 -1.7000000 0.0707100
v -0.0923900 -1.7000000 0.0382700
v -0.0923900 -1.8000000 0.0382700
v -0.0707100 -1.8000000 0.0707100
v -0.0923900 -1.7000000 0.0382700
v -0.1000000 -1.7000000 0.0000000
v -0.1000000 -1.8000000 0.0000000
v -0.0923900 -1.8000000 0.0382700
v -0.1000000 -1.7000000 0.0000000
v -0.0923900 -1.7000000 -0.0382700
v -0.0923900 -1.8000000 -0.0382700
v -0.1000000 -1.8000000 0.0000000
v -0.0923900 -1.7000000 -0.0382700
v -0.0707100 -1.7000000 -0.0707100
v -0.0707100 -1.8000000 -0.0707100
v -0.0923900 -1.8000000 -0.0382700
v -0.0707100 -1.7000000 -0.0707100
v -0.0382700 -1.7000000 -0.0923900
v -0.0382700 -1.8000000 -0.0923900
v -0.0707100 -1.8000000 -0.0707100
v -0.0382700 -1.7000000 -0.0923900
v 0.0000000 -1.7000000 -0.1000000
v 0.0000000 -1.8000000 -0.1000000
v -0.0382700 -1.8000000 -0.0923900
v 0.0000000 -1.7000000 -0.1000000
v 0.0382700 -1.7000000 -0.0923900
v 0.0382700 -1.8000000 -0.0923900
v 0.0000000 -1.8000000 -0.1000000
v 0.0382700 -1.7000000 -0.0923900
v 0.0707100 -1.7000000 -0.0707100
v 0.0707100 -1.8000000 -0.0707100
v 0.0382700 -1.8000000 -0.0923900
v 0.0707100 -1.7000000 -0.0707100
v 0.0923900 -1.7000000 -0.0382700
v 0.0923900 -1.8000000 -0.0382700
v 0.0707100 -1.8000000 -0.0707100
v 0.0923900 -1.7000000 -0.0382700
v 0.1000000 -1.7000000 0.0000000
v 0.1000000 -1.8000000 0.0000000
v 0.0923900 -1.8000000 -0.0382700
v 0.5000000 -1.8000000 0.0000000
v 0.6000000 -1.8000000 0.0000000
v 0.5923900 -1.8000000 0.0382700
v 0.5000000 -1.8000000 0.0000000
v 0.5923900 -1.8000000 0.0382700
v 0.5707100 -1.8000000 0.0707100
v 0.5000000 -1.8000000 0.0000000
v 0.5707100 -1.8000000 0.0707100
v 0.5382700 -1.8000000 0.0923900
v 0.5000000 -1.8000000 0.0000000
v 0.5382700 -1.8000000 0.0923900
v 0.5000000 -1.8000000 0.1000000
v 0.5000000 -1.8000000 0.0000000
v 0.5000000 -1.8000000 0.1000000
v 0.4617300 -1.8000000 0.0923900
v 0.5000000 -1.8000000 0.0000000
v 0.4617300 -1.8000000 0.0923900
v 0.4292900 -1.8000000 0.0707100
v 0.5000000 -1.8000000 0.0000000
v 0.4292900 -1.8000000 0.0707100
v 0.4076100 -1.8000000 0.0382700
v 0.5000000 -1.8000000 0.0000000
v 0.4076100 -1.8000000 0.0382700
v 0.4000000 -1.8000000 0.0000000
v 0.5000000 -1.8000000 0.0000000
v 0.4000000 -1.8000000 0.0000000
v 0.4076100 -1.8000000 -0.0382700
v 0.5000000 -1.8000000 0.0000000
v 0.4076100 -1.8000000 -0.0382700
v 0.4292900 -1.8000000 -0.0707100
v 0.5000000 -1.8000000 0.0000000
v 0.4292900 -1.8000000 -0.0707100
v 0.4617300 -1.8000000 -0.0923900
v 0.5000000 -1.8000000 0.0000000
v 0.4617300 -1.8000000 -0.0923900
v 0.5000000 -1.8000000 -0.1000000
v 0.5000000 -1.8000000 0.0000000
v 0.5000000 -1.8000000 -0.1000000
v 0.5382700 -1.8000000 -0.0923900
v 0.5000000 -1.8000000 0.0000000
v 0.5382700 -1.8000000 -0.0923900
v 0.5707100 -1.8000000 -0.0707100
v 0.5000000 -1.8000000 0.0000000
v 0.5707100 -1.8000000 -0.0707100
v 0.5923900 -1.8000000 -0.0382700
v 0.5000000 -1.8000000 0.0000000
v 0.5923900 -1.8000000 -0.0382700
v 0.6000000 -1.8000000 0.0000000
v 0.6000000 -1.7000000 0.0000000
v 0.5923900 -1.7000000 0.0382700
v 0.5923900 -1.8000000 0.0382700
v 0.6000000 -1.8000000 0.0000000
v 0.5923900 -1.7000000 0.0382700
v 0.5707100 -1.7000000 0.0707100
v 0.5707100 -1.8000000 0.0707100
v 0.5923900 -1.8000000 0.0382700
v 0.5707100 -1.7000000 0.0707100
v 0.5382700 -1.7000000 0.0923900
v 0.5382700 -1.8000000 0.0923900
v 0.5707100 -1.8000000 0.0707100
v 0.5382700 -1.7000000 0.0923900
v 0.5000000 -1.7000000 0.1000000
v 0.5000000 -1.8000000 0.1000000
v 0.5382700 -1.8000000 0.0923900
v 0.5000000 -1.7000000 0.1000000
v 0.4617300 -1.7000000 0.0923900
v 0.4617300 -1.8000000 0.0923900
v 0.5000000 -1.8000000 0.1000000
v 0.4617300 -1.7000000 0.0923900
v 0.4292900 -1.7000000 0.0707100
v 0.4292900 -1.8000000 0.0707100
v 0.4617300 -1.8000000 0.0923900
v 0.4292900 -1.7000000 0.0707100
v 0.4076100 -1.7000000 0.0382700
v 0.4076100 -1.8000000 0.0382700
v 0.4292900 -1.8000000 0.0707100
v 0.4076100 -1.7000000 0.0382700
v 0.4000000 -1.7000000 0.0000000
v 0.4000000 -1.8000000 0.0000000
v 0.4076100 -1.8000000 0.0382700
v 0.4000000 -1.7000000 0.0000000
v 0.4076100 -1.7000000 -0.0382700
v 0.4076100 -1.8000000 -0.0382700
v 0.4000000 -1.8000000 0.0000000
v 0.4076100 -1.7000000 -0.0382700
v 0.4292900 -1.7000000 -0.0707100
v 0.4292900 -1.8000000 -0.0707100
v 0.4076100 -1.8000000 -0.0382700
v 0.4292900 -1.7000000 -0.0707100
v 0.4617300 -1.7000000 -0.0923900
v 0.4617300 -1.8000000 -0.0923900
v 0.4292900 -1.8000000 -0.0707100
v 0.4617300 -1.7000000 -0.0923900
v 0.5000000 -1.7000000 -0.1000000
v 0.5000000 -1.8000000 -0.1000000
v 0.4617300 -1.8000000 -0.0923900
v 0.5000000 -1.7000000 -0.1000000
v 0.5382700 -1.7000000 -0.0923900
v 0.5382700 -1.8000000 -0.0923900
v 0.5000000 -1.8000000 -0.1000000
v 0.5382700 -1.7000000 -0.0923900
v 0.5707100 -1.7000000 -0.0707100
v 0.5707100 -1.8000000 -0.0707100
v 0.5382700 -1.8000000 -0.0923900
v 0.5707100 -1.7000000 -0.0707100
v 0.5923900 -1.7000000 -0.0382700
v 0.5923900 -1.8000000 -0.0382700
v 0.5707100 -1.8000000 -0.0707100
v 0.5923900 -1.7000000 -0.0382700
v 0.6000000 -1.7000000 0.0000000
v 0.6000000 -1.8000000 0.0000000
v 0.5923900 -1.8000000 -0.0382700
v -0.9000000 -1.7000000 -0.1500000
v 0.9000000 -1.7000000 -0.1500000
v 0.9000000 -1.7000000 0.1500000
v -0.9000000 -1.7000000 0.1500000
v 0.9000000 -1.7000000 0.1500000
v 0.9000000 -1.8000000 0.1500000
v -0.9000000 -1.8000000 0.1500000
v -0.9000000 -1.7000000 0.1500000
v -0.9000000 -1.7000000 0.1500000
v -0.9000000 -1.8000000 0.1500000
v -0.9000000 -1.8000000 -0.1500000
v -0.9000000 -1.7000000 -0.1500000
v -0.9000000 -1.7000000 -0.1500000
v -0.9000000 -1.8000000 -0.1500000
v 0.9000000 -1.8000000 -0.1500000
v 0.9000000 -1.7000000 -0.1500000
v 0.9000000 -1.7000000 -0.1500000
v 0.9000000 -1.8000000 -0.1500000
v 0.9000000 -1.8000000 0.1500000
v 0.9000000 -1.7000000 0.1500000
v 1.0000000 -1.8000000 -0.2500000
v -1.0000000 -1.8000000 -0.2500000
v -1.0000000 -1.6000000 -0.2500000
v 1.0000000 -1.6000000 -0.2500000
v -1.0000000 -1.8000000 0.2500000
v -0.9000000 -1.8000000 0.1500000
v 0.9000000 -1.8000000 0.1500000
v 1.0000000 -1.8000000 0.2500000
v -1.0000000 -1.8000000 -0.2500000
v -0.9000000 -1.8000000 -0.1500000
v -0.9000000 -1.8000000 0.1500000
v -1.0000000 -1.8000000 0.2500000
v 1.0000000 -1.8000000 -0.2500000
v 0.9000000 -1.8000000 -0.1500000
v -0.9000000 -1.8000000 -0.1500000
v -1.0000000 -1.8000000 -0.2500000
v 1.0000000 -1.8000000 0.2500000
v 0.9000000 -1.8000000 0.1500000
v 0.9000000 -1.8000000 -0.1500000
v 1.0000000 -1.8000000 -0.2500000
v -1.0000000 -1.6000000 0.0500000
v -1.0000000 -1.6000000 -0.2500000
v -1.0000000 -1.8000000 -0.2500000
v -1.0000000 -1.8000000 0.2500000
v 1.0000000 -1.6000000 -0.2500000
v 1.0000000 -1.6000000 0.0500000
v 1.0000000 -1.8000000 0.2500000
v 1.0000000 -1.8000000 -0.2500000
v 0.9000000 -0.1000000 0.1562500
v 0.9000000 -1.6000000 0.1562500
v -0.9000000 -1.6000000 0.1562500
v -0.9000000 -0.1000000 0.1562500
v 0.9000000 -1.6000000 0.1562500
v 0.9000000 -1.6000000 0.0500000
v -0.9000000 -1.6000000 0.0500000
v -0.9000000 -1.6000000 0.1562500
v -0.9000000 -0.1000000 0.1562500
v -0.9000000 -0.1000000 0.0500000
v 0.9000000 -0.1000000 0.0500000
v 0.9000000 -0.1000000 0.1562500
v 0.9000000 -0.1000000 0.0500000
v -0.9000000 -0.1000000 0.0500000
v -0.9000000 -0.1000000 0.0000000
v 0.9000000 -0.1000000 0.0000000
v -1.0000000 -1.6000000 0.0500000
v -0.9000000 -1.6000000 0.0500000
v -1.0000000 -1.6000000 -0.2500000
v 1.0000000 -1.6000000 -0.2500000
v 0.9000000 -1.6000000 0.0500000
v 1.0000000 -1.6000000 0.0500000
v -0.9000000 -1.6000000 0.0500000
v 0.9000000 -1.6000000 0.0500000
v 1.0000000 -1.6000000 -0.2500000
v -1.0000000 -1.6000000 -0.2500000
v -0.9000000 -0.1500000 0.0500000
v -0.9000000 -0.1000000 0.1562500
v -0.9000000 -1.6000000 0.1562500
v -0.9000000 -1.6000000 0.0500000
v 0.9000000 -1.6000000 0.0500000
v 0.9000000 -1.6000000 0.1562500
v 0.9000000 -0.1000000 0.1562500
v 0.9000000 -0.1500000 0.0500000
v -0.9000000 -0.1500000 0.0500000
v -0.9000000 -0.1000000 0.0500000
v -0.9000000 -0.1000000 0.1562500
v 0.9000000 -0.1000000 0.1562500
v 0.9000000 -0.1000000 0.0500000
v 0.9000000 -0.1500000 0.0500000
v -0.9000000 -0.1000000 0.0000000
v -0.9000000 -0.1038050 0.0191350
v -1.0000000 -0.1038050 0.0191350
v -1.0000000 -0.1000000 0.0000000
v -0.9000000 -0.1038050 0.0191350
v -0.9000000 -0.1146450 0.0353550
v -1.0000000 -0.1146450 0.0353550
v -1.0000000 -0.1038050 0.0191350
v -0.9000000 -0.1146450 0.0353550
v -0.9000000 -0.1308650 0.0461950
v -1.0000000 -0.1308650 0.0461950
v -1.0000000 -0.1146450 0.0353550
v -0.9000000 -0.1308650 0.0461950
v -0.9000000 -0.1500000 0.0500000
v -1.0000000 -0.1500000 0.0500000
v -1.0000000 -0.1308650 0.0461950
v -1.0000000 -0.1000000 0.0500000
v -1.0000000 -0.1000000 0.0000000
v -1.0000000 -0.1038050 0.0191350
v -1.0000000 -0.1000000 0.0500000
v -1.0000000 -0.1038050 0.0191350
v -1.0000000 -0.1146450 0.0353550
v -1.0000000 -0.1000000 0.0500000
v -1.0000000 -0.1146450 0.0353550
v -1.0000000 -0.1308650 0.0461950
v -1.0000000 -0.1000000 0.0500000
v -1.0000000 -0.1308650 0.0461950
v -1.0000000 -0.1500000 0.0500000
v -0.9000000 -0.1038050 0.0191350
v -0.9000000 -0.1000000 0.0000000
v -0.9000000 -0.1000000 0.0500000
v -0.9000000 -0.1146450 0.0353550
v -0.9000000 -0.1038050 0.0191350
v -0.9000000 -0.1000000 0.0500000
v -0.9000000 -0.1308650 0.0461950
v -0.9000000 -0.1146450 0.0353550
v -0.9000000 -0.1000000 0.0500000
v -0.9000000 -0.1500000 0.0500000
v -0.9000000 -0.1308650 0.0461950
v -0.9000000 -0.1000000 0.0500000
v 1.0000000 -0.1000000 0.0000000
v 1.0000000 -0.1038050 0.0191350
v 0.9000000 -0.1038050 0.0191350
v 0.9000000 -0.1000000 0.0000000
v 1.0000000 -0.1038050 0.0191350
v 1.0000000 -0.1146450 0.0353550
v 0.9000000 -0.1146450 0.0353550
v 0.9000000 -0.1038050 0.0191350
v 1.0000000 -0.1146450 0.0353550
v 1.0000000 -0.1308650 0.0461950
v 0.9000000 -0.1308650 0.0461950
v 0.9000000 -0.1146450 0.0353550
v 1.0000000 -0.1308650 0.0461950
v 1.0000000 -0.1500000 0.0500000
v 0.9000000 -0.1500000 0.0500000
v 0.9000000 -0.1308650 0.0461950
v 0.9000000 -0.1000000 0.0500000
v 0.9000000 -0.1000000 0.0000000
v 0.9000000 -0.1038050 0.0191350
v 0.9000000 -0.1000000 0.0500000
v 0.9000000 -0.1038050 0.0191350
v 0.9000000 -0.1146450 0.0353550
v 0.9000000 -0.1000000 0.0500000
v 0.9000000 -0.1146450 0.0353550
v 0.9000000 -0.1308650 0.0461950
v 0.9000000 -0.1000000 0.0500000
v 0.9000000 -0.1308650 0.0461950
v 0.9000000 -0.1500000 0.0500000
v 1.0000000 -0.1038050 0.0191350
v 1.0000000 -0.1000000 0.0000000
v 1.0000000 -0.1000000 0.0500000
v 1.0000000 -0.1146450 0.0353550
v 1.0000000 -0.1038050 0.0191350
v 1.0000000 -0.1000000 0.0500000
v 1.0000000 -0.1308650 0.0461950
v 1.0000000 -0.1146450 0.0353550
v 1.0000000 -0.1000000 0.0500000
v 1.0000000 -0.1500000 0.0500000
v 1.0000000 -0.1308650 0.0461950
v 1.0000000 -0.1000000 0.0500000
v -1.0000000 -1.6000000 0.0500000
v -1.0000000 -0.1500000 0.0500000
v -0.9000000 -0.1500000 0.0500000
v -0.9000000 -1.6000000 0.0500000
v 0.9000000 -1.6000000 0.0500000
v 0.9000000 -0.1500000 0.0500000
v 1.0000000 -0.1500000 0.0500000
v 1.0000000 -1.6000000 0.0500000
v -1.0000000 -0.0000000 0.2500000
v -1.0000000 -0.1500000 0.0500000
v -1.0000000 -1.6000000 0.0500000
v -1.0000000 -1.8000000 0.2500000
v 1.0000000 -0.1500000 0.0500000
v 1.0000000 -0.0000000 0.2500000
v 1.0000000 -1.8000000 0.2500000
v 1.0000000 -1.6000000 0.0500000
v -1.0000000 -0.0000000 0.2500000
v -1.0000000 -0.1000000 0.0500000
v -1.0000000 -0.1500000 0.0500000
v -1.0000000 -0.1000000 0.0000000
v -1.0000000 -0.1000000 0.0500000
v -1.0000000 -0.0000000 0.2500000
v 1.0000000 -0.1500000 0.0500000
v 1.0000000 -0.1000000 0.0500000
v 1.0000000 -0.0000000 0.2500000
v 1.0000000 -0.0000000 0.2500000
v 1.0000000 -0.1000000 0.0500000
v 1.0000000 -0.1000000 0.0000000
v -1.0000000 -0.0000000 -0.2000000
v -0.9961950 -0.0000000 -0.2191350
v -0.9961950 -0.1000000 -0.2191350
v -1.0000000 -0.1000000 -0.2000000
v -0.9961950 -0.0000000 -0.2191350
v -0.9853550 -0.0000000 -0.2353550
v -0.9853550 -0.1000000 -0.2353550
v -0.9961950 -0.1000000 -0.2191350
v -0.9853550 -0.0000000 -0.2353550
v -0.9691350 -0.0000000 -0.2461950
v -0.9691350 -0.1000000 -0.2461950
v -0.9853550 -0.1000000 -0.2353550
v -0.9691350 -0.0000000 -0.2461950
v -0.9500000 -0.0000000 -0.2500000
v -0.9500000 -0.1000000 -0.2500000
v -0.9691350 -0.1000000 -0.2461950
v -1.0000000 -0.0000000 -0.2000000
v -0.9500000 -0.0000000 -0.2500000
v -0.9691350 -0.0000000 -0.2461950
v -0.9961950 -0.0000000 -0.2191350
v -0.9961950 -0.0000000 -0.2191350
v -0.9691350 -0.0000000 -0.2461950
v -0.9853550 -0.0000000 -0.2353550
v -0.9961950 -0.1000000 -0.2191350
v -0.9691350 -0.1000000 -0.2461950
v -0.9500000 -0.1000000 -0.2500000
v -1.0000000 -0.1000000 -0.2000000
v -0.9853550 -0.1000000 -0.2353550
v -0.9691350 -0.1000000 -0.2461950
v -0.9961950 -0.1000000 -0.2191350
v 1.0000000 -0.1000000 -0.2000000
v 0.9961950 -0.1000000 -0.2191350
v 0.9961950 -0.0000000 -0.2191350
v 1.0000000 -0.0000000 -0.2000000
v 0.9961950 -0.1000000 -0.2191350
v 0.9853550 -0.1000000 -0.2353550
v 0.9853550 -0.0000000 -0.2353550
v 0.9961950 -0.0000000 -0.2191350
v 0.9853550 -0.1000000 -0.2353550
v 0.9691350 -0.1000000 -0.2461950
v 0.9691350 -0.0000000 -0.2461950
v 0.9853550 -0.0000000 -0.2353550
v 0.9691350 -0.1000000 -0.2461950
v 0.9500000 -0.1000000 -0.2500000
v 0.9500000 -0.0000000 -0.2500000
v 0.9691350 -0.0000000 -0.2461950
v 0.9961950 -0.0000000 -0.2191350
v 0.9691350 -0.0000000 -0.2461950
v 0.9500000 -0.0000000 -0.2500000
v 1.0000000 -0.0000000 -0.2000000
v 0.9853550 -0.0000000 -0.2353550
v 0.9691350 -0.0000000 -0.2461950
v 0.9961950 -0.0000000 -0.2191350
v 1.0000000 -0.1000000 -0.2000000
v 0.9500000 -0.1000000 -0.2500000
v 0.9691350 -0.1000000 -0.2461950
v 0.9961950 -0.1000000 -0.2191350
v 0.9961950 -0.1000000 -0.2191350
v 0.9691350 -0.1000000 -0.2461950
v 0.9853550 -0.1000000 -0.2353550
v -0.9500000 -0.1000000 -0.2500000
v -0.9500000 -0.0000000 -0.2500000
v 0.9500000 -0.0000000 -0.2500000
v 0.9500000 -0.1000000 -0.2500000
v 1.0000000 -0.0000000 0.2500000
v 1.0000000 -0.0000000 -0.2000000
v -1.0000000 -0.0000000 -0.2000000
v -1.0000000 -0.0000000 0.2500000
v -1.0000000 -0.1000000 -0.2000000
v -0.9500000 -0.1000000 -0.2500000
v -0.9000000 -0.1000000 0.0000000
v -1.0000000 -0.1000000 0.0000000
v 1.0000000 -0.1000000 0.0000000
v 0.9000000 -0.1000000 0.0000000
v 0.9500000 -0.1000000 -0.2500000
v 1.0000000 -0.1000000 -0.2000000
v -0.9000000 -0.1000000 0.0000000
v -0.9500000 -0.1000000 -0.2500000
v 0.9500000 -0.1000000 -0.2500000
v 0.9000000 -0.1000000 0.0000000
v -1.0000000 -0.0000000 0.2500000
v -1.0000000 -0.0000000 -0.2000000
v -1.0000000 -0.1000000 -0.2000000
v -1.0000000 -0.1000000 0.0000000
v 1.0000000 -0.0000000 -0.2000000
v 1.0000000 -0.0000000 0.2500000
v 1.0000000 -0.1000000 0.0000000
v 1.0000000 -0.1000000 -0.2000000
v -0.9500000 -0.0000000 -0.2500000
v -1.0000000 -0.0000000 -0.2000000
v 1.0000000 -0.0000000 -0.2000000
v 0.9500000 -0.0000000 -0.2500000
v -0.6500000 -0.0000000 0.0000000
v -0.6576100 -0.0000000 0.0382700
v -0.6576100 0.1000000 0.0382700
v -0.6500000 0.1000000 0.0000000
v -0.6576100 -0.0000000 0.0382700
v -0.6792900 -0.0000000 0.0707100
v -0.6792900 0.1000000 0.0707100
v -0.6576100 0.1000000 0.0382700
v -0.6792900 -0.0000000 0.0707100
v -0.7117300 -0.0000000 0.0923900
v -0.7117300 0.1000000 0.0923900
v -0.6792900 0.1000000 0.0707100
v -0.7117300 -0.0000000 0.0923900
v -0.7500000 -0.0000000 0.1000000
v -0.7500000 0.1000000 0.1000000
v -0.7117300 0.1000000 0.0923900
v -0.7500000 -0.0000000 0.1000000
v -0.7882700 -0.0000000 0.0923900
v -0.7882700 0.1000000 0.0923900
v -0.7500000 0.1000000 0.1000000
v -0.7882700 -0.0000000 0.0923900
v -0.8207100 -0.0000000 0.0707100
v -0.8207100 0.1000000 0.0707100
v -0.7882700 0.1000000 0.0923900
v -0.8207100 -0.0000000 0.0707100
v -0.8423900 -0.0000000 0.0382700
v -0.8423900 0.1000000 0.0382700
v -0.8207100 0.1000000 0.0707100
v -0.8423900 -0.0000000 0.0382700
v -0.8500000 -0.0000000 0.0000000
v -0.8500000 0.1000000 0.0000000
v -0.8423900 0.1000000 0.0382700
v -0.8500000 -0.0000000 0.0000000
v -0.8423900 -0.0000000 -0.0382700
v -0.8423900 0.1000000 -0.0382700
v -0.8500000 0.1000000 0.0000000
v -0.8423900 -0.0000000 -0.0382700
v -0.8207100 -0.0000000 -0.0707100
v -0.8207100 0.1000000 -0.0707100
v -0.8423900 0.1000000 -0.0382700
v -0.8207100 -0.0000000 -0.0707100
v -0.7882700 -0.0000000 -0.0923900
v -0.7882700 0.1000000 -0.0923900
v -0.8207100 0.1000000 -0.0707100
v -0.7882700 -0.0000000 -0.0923900
v -0.7500000 -0.0000000 -0.1000000
v -0.7500000 0.1000000 -0.1000000
v -0.7882700 0.1000000 -0.0923900
v -0.7500000 -0.0000000 -0.1000000
v -0.7117300 -0.0000000 -0.0923900
v -0.7117300 0.1000000 -0.0923900
v -0.7500000 0.1000000 -0.1000000
v -0.7117300 -0.0000000 -0.0923900
v -0.6792900 -0.0000000 -0.0707100
v -0.6792900 0.1000000 -0.0707100
v -0.7117300 0.1000000 -0.0923900
v -0.6792900 -0.0000000 -0.0707100
v -0.6576100 -0.0000000 -0.0382700
v -0.6576100 0.1000000 -0.0382700
v -0.6792900 0.1000000 -0.0707100
v -0.6576100 -0.0000000 -0.0382700
v -0.6500000 -0.0000000 0.0000000
v -0.6500000 0.1000000 0.0000000
v -0.6576100 0.1000000 -0.0382700
v -0.6000000 0.1000000 0.0000000
v -0.6114150 0.1000000 0.0574050
v -0.6114150 -0.0000000 0.0574050
v -0.6000000 -0.0000000 0.0000000
v -0.6114150 0.1000000 0.0574050
v -0.6439350 0.1000000 0.1060650
v -0.6439350 -0.0000000 0.1060650
v -0.6114150 -0.0000000 0.0574050
v -0.6439350 0.1000000 0.1060650
v -0.6925950 0.1000000 0.1385850
v -0.6925950 -0.0000000 0.1385850
v -0.6439350 -0.0000000 0.1060650
v -0.6925950 0.1000000 0.1385850
v -0.7500000 0.1000000 0.1500000
v -0.7500000 -0.0000000 0.1500000
v -0.6925950 -0.0000000 0.1385850
v -0.7500000 0.1000000 0.1500000
v -0.8074050 0.1000000 0.1385850
v -0.8074050 -0.0000000 0.1385850
v -0.7500000 -0.0000000 0.1500000
v -0.8074050 0.1000000 0.1385850
v -0.8560650 0.1000000 0.1060650
v -0.8560650 -0.0000000 0.1060650
v -0.8074050 -0.0000000 0.1385850
v -0.8560650 0.1000000 0.1060650
v -0.8885850 0.1000000 0.0574050
v -0.8885850 -0.0000000 0.0574050
v -0.8560650 -0.0000000 0.1060650
v -0.8885850 0.1000000 0.0574050
v -0.9000000 0.1000000 0.0000000
v -0.9000000 -0.0000000 0.0000000
v -0.8885850 -0.0000000 0.0574050
v -0.9000000 0.1000000 0.0000000
v -0.8885850 0.1000000 -0.0574050
v -0.8885850 -0.0000000 -0.0574050
v -0.9000000 -0.0000000 0.0000000
v -0.8885850 0.1000000 -0.0574050
v -0.8560650 0.1000000 -0.1060650
v -0.8560650 -0.0000000 -0.1060650
v -0.8885850 -0.0000000 -0.0574050
v -0.8560650 0.1000000 -0.1060650
v -0.8074050 0.1000000 -0.1385850
v -0.8074050 -0.0000000 -0.1385850
v -0.8560650 -0.0000000 -0.1060650
v -0.8074050 0.1000000 -0.1385850
v -0.7500000 0.1000000 -0.1500000
v -0.7500000 -0.0000000 -0.1500000
v -0.8074050 -0.0000000 -0.1385850
v -0.7500000 0.1000000 -0.1500000
v -0.6925950 0.1000000 -0.1385850
v -0.6925950 -0.0000000 -0.1385850
v -0.7500000 -0.0000000 -0.1500000
v -0.6925950 0.1000000 -0.1385850
v -0.6439350 0.1000000 -0.1060650
v -0.6439350 -0.0000000 -0.1060650
v -0.6925950 -0.0000000 -0.1385850
v -0.6439350 0.1000000 -0.1060650
v -0.6114150 0.1000000 -0.0574050
v -0.6114150 -0.0000000 -0.0574050
v -0.6439350 -0.0000000 -0.1060650
v -0.6114150 0.1000000 -0.0574050
v -0.6000000 0.1000000 0.0000000
v -0.6000000 -0.0000000 0.0000000
v -0.6114150 -0.0000000 -0.0574050
v -0.7500000 0.1000000 0.1500000
v -0.7500000 0.1000000 0.1000000
v -0.7882700 0.1000000 0.0923900
v -0.8074050 0.1000000 0.1385850
v -0.8074050 0.1000000 0.1385850
v -0.7882700 0.1000000 0.0923900
v -0.8207100 0.1000000 0.0707100
v -0.8560650 0.1000000 0.1060650
v -0.8560650 0.1000000 0.1060650
v -0.8207100 0.1000000 0.0707100
v -0.8423900 0.1000000 0.0382700
v -0.8885850 0.1000000 0.0574050
v -0.8885850 0.1000000 0.0574050
v -0.8423900 0.1000000 0.0382700
v -0.8500000 0.1000000 0.0000000
v -0.9000000 0.1000000 0.0000000
v -0.9000000 0.1000000 0.0000000
v -0.8500000 0.1000000 0.0000000
v -0.8423900 0.1000000 -0.0382700
v -0.8885850 0.1000000 -0.0574050
v -0.8885850 0.1000000 -0.0574050
v -0.8423900 0.1000000 -0.0382700
v -0.8207100 0.1000000 -0.0707100
v -0.8560650 0.1000000 -0.1060650
v -0.8560650 0.1000000 -0.1060650
v -0.8207100 0.1000000 -0.0707100
v -0.7882700 0.1000000 -0.0923900
v -0.8074050 0.1000000 -0.1385850
v -0.8074050 0.1000000 -0.1385850
v -0.7882700 0.1000000 -0.0923900
v -0.7500000 0.1000000 -0.1000000
v -0.7500000 0.1000000 -0.1500000
v -0.7500000 0.1000000 -0.1500000
v -0.7500000 0.1000000 -0.1000000
v -0.7117300 0.1000000 -0.0923900
v -0.6925950 0.1000000 -0.1385850
v -0.6925950 0.1000000 -0.1385850
v -0.7117300 0.1000000 -0.0923900
v -0.6792900 0.1000000 -0.0707100
v -0.6439350 0.1000000 -0.1060650
v -0.6439350 0.1000000 -0.1060650
v -0.6792900 0.1000000 -0.0707100
v -0.6576100 0.1000000 -0.0382700
v -0.6114150 0.1000000 -0.0574050
v -0.6114150 0.1000000 -0.0574050
v -0.6576100 0.1000000 -0.0382700
v -0.6500000 0.1000000 0.0000000
v -0.6000000 0.1000000 0.0000000
v -0.6000000 0.1000000 0.0000000
v -0.6500000 0.1000000 0.0000000
v -0.6576100 0.1000000 0.0382700
v -0.6114150 0.1000000 0.0574050
v -0.6114150 0.1000000 0.0574050
v -0.6576100 0.1000000 0.0382700
v -0.6792900 0.1000000 0.0707100
v -0.6439350 0.1000000 0.1060650
v -0.6439350 0.1000000 0.1060650
v -0.6792900 0.1000000 0.0707100
v -0.7117300 0.1000000 0.0923900
v -0.6925950 0.1000000 0.1385850
v -0.6925950 0.1000000 0.1385850
v -0.7117300 0.1000000 0.0923900
v -0.7500000 0.1000000 0.1000000
v -0.7500000 0.1000000 0.1500000
v -0.1500000 -0.0000000 0.0000000
v -0.1576100 -0.0000000 0.0382700
v -0.1576100 0.1000000 0.0382700
v -0.1500000 0.1000000 0.0000000
v -0.1576100 -0.0000000 0.0382700
v -0.1792900 -0.0000000 0.0707100
v -0.1792900 0.1000000 0.0707100
v -0.1576100 0.1000000 0.0382700
v -0.1792900 -0.0000000 0.0707100
v -0.2117300 -0.0000000 0.0923900
v -0.2117300 0.1000000 0.0923900
v -0.1792900 0.1000000 0.0707100
v -0.2117300 -0.0000000 0.0923900
v -0.2500000 -0.0000000 0.1000000
v -0.2500000 0.1000000 0.1000000
v -0.2117300 0.1000000 0.0923900
v -0.2500000 -0.0000000 0.1000000
v -0.2882700 -0.0000000 0.0923900
v -0.2882700 0.1000000 0.0923900
v -0.2500000 0.1000000 0.1000000
v -0.2882700 -0.0000000 0.0923900
v -0.3207100 -0.0000000 0.0707100
v -0.3207100 0.1000000 0.0707100
v -0.2882700 0.1000000 0.0923900
v -0.3207100 -0.0000000 0.0707100
v -0.3423900 -0.0000000 0.0382700
v -0.3423900 0.1000000 0.0382700
v -0.3207100 0.1000000 0.0707100
v -0.3423900 -0.0000000 0.0382700
v -0.3500000 -0.0000000 0.0000000
v -0.3500000 0.1000000 0.0000000
v -0.3423900 0.1000000 0.0382700
v -0.3500000 -0.0000000 0.0000000
v -0.3423900 -0.0000000 -0.0382700
v -0.3423900 0.1000000 -0.0382700
v -0.3500000 0.1000000 0.0000000
v -0.3423900 -0.0000000 -0.0382700
v -0.3207100 -0.0000000 -0.0707100
v -0.3207100 0.1000000 -0.0707100
v -0.3423900 0.1000000 -0.0382700
v -0.3207100 -0.0000000 -0.0707100
v -0.2882700 -0.0000000 -0.0923900
v -0.2882700 0.1000000 -0.0923900
v -0.3207100 0.1000000 -0.0707100
v -0.2882700 -0.0000000 -0.0923900
v -0.2500000 -0.0000000 -0.1000000
v -0.2500000 0.1000000 -0.1000000
v -0.2882700 0.1000000 -0.0923900
v -0.2500000 -0.0000000 -0.1000000
v -0.2117300 -0.0000000 -0.0923900
v -0.2117300 0.1000000 -0.0923900
v -0.2500000 0.1000000 -0.1000000
v -0.2117300 -0.0000000 -0.0923900
v -0.1792900 -0.0000000 -0.0707100
v -0.1792900 0.1000000 -0.0707100
v -0.2117300 0.1000000 -0.0923900
v -0.1792900 -0.0000000 -0.0707100
v -0.1576100 -0.0000000 -0.0382700
v -0.1576100 0.1000000 -0.0382700
v -0.1792900 0.1000000 -0.0707100
v -0.1576100 -0.0000000 -0.0382700
v -0.1500000 -0.0000000 0.0000000
v -0.1500000 0.1000000 0.0000000
v -0.1576100 0.1000000 -0.0382700
v -0.1000000 0.1000000 0.0000000
v -0.1114150 0.1000000 0.0574050
v -0.1114150 -0.0000000 0.0574050
v -0.1000000 -0.0000000 0.0000000
v -0.1114150 0.1000000 0.0574050
v -0.1439350 0.1000000 0.1060650
v -0.1439350 -0.0000000 0.1060650
v -0.1114150 -0.0000000 0.0574050
v -0.1439350 0.1000000 0.1060650
v -0.1925950 0.1000000 0.1385850
v -0.1925950 -0.0000000 0.1385850
v -0.1439350 -0.0000000 0.1060650
v -0.1925950 0.1000000 0.1385850
v -0.2500000 0.1000000 0.1500000
v -0.2500000 -0.0000000 0.1500000
v -0.1925950 -0.0000000 0.1385850
v -0.2500000 0.1000000 0.1500000
v -0.3074050 0.1000000 0.1385850
v -0.3074050 -0.0000000 0.1385850
v -0.2500000 -0.0000000 0.1500000
v -0.3074050 0.1000000 0.1385850
v -0.3560650 0.1000000 0.1060650
v -0.3560650 -0.0000000 0.1060650
v -0.3074050 -0.0000000 0.1385850
v -0.3560650 0.1000000 0.1060650
v -0.3885850 0.1000000 0.0574050
v -0.3885850 -0.0000000 0.0574050
v -0.3560650 -0.0000000 0.1060650
v -0.3885850 0.1000000 0.0574050
v -0.4000000 0.1000000 0.0000000
v -0.4000000 -0.0000000 0.0000000
v -0.3885850 -0.0000000 0.0574050
v -0.4000000 0.1000000 0.0000000
v -0.3885850 0.1000000 -0.0574050
v -0.3885850 -0.0000000 -0.0574050
v -0.4000000 -0.0000000 0.0000000
v -0.3885850 0.1000000 -0.0574050
v -0.3560650 0.1000000 -0.1060650
v -0.3560650 -0.0000000 -0.1060650
v -0.3885850 -0.0000000 -0.0574050
v -0.3560650 0.1000000 -0.1060650
v -0.3074050 0.1000000 -0.1385850
v -0.3074050 -0.0000000 -0.1385850
v -0.3560650 -0.0000000 -0.1060650
v -0.3074050 0.1000000 -0.1385850
v -0.2500000 0.1000000 -0.1500000
v -0.2500000 -0.0000000 -0.1500000
v -0.3074050 -0.0000000 -0.1385850
v -0.2500000 0.1000000 -0.1500000
v -0.1925950 0.1000000 -0.1385850
v -0.1925950 -0.0000000 -0.1385850
v -0.2500000 -0.0000000 -0.1500000
v -0.1925950 0.1000000 -0.1385850
v -0.1439350 0.1000000 -0.1060650
v -0.1439350 -0.0000000 -0.1060650
v -0.1925950 -0.0000000 -0.1385850
v -0.1439350 0.1000000 -0.1060650
v -0.1114150 0.1000000 -0.0574050
v -0.1114150 -0.0000000 -0.0574050
v -0.1439350 -0.0000000 -0.1060650
v -0.1114150 0.1000000 -0.0574050
v -0.1000000 0.1000000 0.0000000
v -0.1000000 -0.0000000 0.0000000
v -0.1114150 -0.0000000 -0.0574050
v -0.2500000 0.1000000 0.1500000
v -0.2500000 0.1000000 0.1000000
v -0.2882700 0.1000000 0.0923900
v -0.3074050 0.1000000 0.1385850
v -0.3074050 0.1000000 0.1385850
v -0.2882700 0.1000000 0.0923900
v -0.3207100 0.1000000 0.0707100
v -0.3560650 0.1000000 0.1060650
v -0.3560650 0.1000000 0.1060650
v -0.3207100 0.1000000 0.0707100
v -0.3423900 0.1000000 0.0382700
v -0.3885850 0.1000000 0.0574050
v -0.3885850 0.1000000 0.0574050
v -0.3423900 0.1000000 0.0382700
v -0.3500000 0.1000000 0.0000000
v -0.4000000 0.1000000 0.0000000
v -0.4000000 0.1000000 0.0000000
v -0.3500000 0.1000000 0.0000000
v -0.3423900 0.1000000 -0.0382700
v -0.3885850 0.1000000 -0.0574050
v -0.3885850 0.1000000 -0.0574050
v -0.3423900 0.1000000 -0.0382700
v -0.3207100 0.1000000 -0.0707100
v -0.3560650 0.1000000 -0.1060650
v -0.3560650 0.1000000 -0.1060650
v -0.3207100 0.1000000 -0.0707100
v -0.2882700 0.1000000 -0.0923900
v -0.3074050 0.1000000 -0.1385850
v -0.3074050 0.1000000 -0.1385850
v -0.2882700 0.1000000 -0.0923900
v -0.2500000 0.1000000 -0.1000000
v -0.2500000 0.1000000 -0.1500000
v -0.2500000 0.1000000 -0.1500000
v -0.2500000 0.1000000 -0.1000000
v -0.2117300 0.1000000 -0.0923900
v -0.1925950 0.1000000 -0.1385850
v -0.1925950 0.1000000 -0.1385850
v -0.2117300 0.1000000 -0.0923900
v -0.1792900 0.1000000 -0.0707100
v -0.1439350 0.1000000 -0.1060650
v -0.1439350 0.1000000 -0.1060650
v -0.1792900 0.1000000 -0.0707100
v -0.1576100 0.1000000 -0.0382700
v -0.1114150 0.1000000 -0.0574050
v -0.1114150 0.1000000 -0.0574050
v -0.1576100 0.1000000 -0.0382700
v -0.1500000 0.1000000 0.0000000
v -0.1000000 0.1000000 0.0000000
v -0.1000000 0.1000000 0.0000000
v -0.1500000 0.1000000 0.0000000
v -0.1576100 0.1000000 0.0382700
v -0.1114150 0.1000000 0.0574050
v -0.1114150 0.1000000 0.0574050
v -0.1576100 0.1000000 0.0382700
v -0.1792900 0.1000000 0.0707100
v -0.1439350 0.1000000 0.1060650
v -0.1439350 0.1000000 0.1060650
v -0.1792900 0.1000000 0.0707100
v -0.2117300 0.1000000 0.0923900
v -0.1925950 0.1000000 0.1385850
v -0.1925950 0.1000000 0.1385850
v -0.2117300 0.1000000 0.0923900
v -0.2500000 0.1000000 0.1000000
v -0.2500000 0.1000000 0.1500000
v 0.3500000 -0.0000000 0.0000000
v 0.3423900 -0.0000000 0.0382700
v 0.3423900 0.1000000 0.0382700
v 0.3500000 0.1000000 0.0000000
v 0.3423900 -0.0000000 0.0382700
v 0.3207100 -0.0000000 0.0707100
v 0.3207100 0.1000000 0.0707100
v 0.3423900 0.1000000 0.0382700
v 0.3207100 -0.0000000 0.0707100
v 0.2882700 -0.0000000 0.0923900
v 0.2882700 0.1000000 0.0923900
v 0.3207100 0.1000000 0.0707100
v 0.2882700 -0.0000000 0.0923900
v 0.2500000 -0.0000000 0.1000000
v 0.2500000 0.1000000 0.1000000
v 0.2882700 0.1000000 0.0923900
v 0.2500000 -0.0000000 0.1000000
v 0.2117300 -0.0000000 0.0923900
v 0.2117300 0.1000000 0.0923900
v 0.2500000 0.1000000 0.1000000
v 0.2117300 -0.0000000 0.0923900
v 0.1792900 -0.0000000 0.0707100
v 0.1792900 0.1000000 0.0707100
v 0.2117300 0.1000000 0.0923900
v 0.1792900 -0.0000000 0.0707100
v 0.1576100 -0.0000000 0.0382700
v 0.1576100 0.1000000 0.0382700
v 0.1792900 0.1000000 0.0707100
v 0.1576100 -0.0000000 0.0382700
v 0.1500000 -0.0000000 0.0000000
v 0.1500000 0.1000000 0.0000000
v 0.1576100 0.1000000 0.0382700
v 0.1500000 -0.0000000 0.0000000
v 0.1576100 -0.0000000 -0.0382700
v 0.1576100 0.1000000 -0.0382700
v 0.1500000 0.1000000 0.0000000
v 0.1576100 -0.0000000 -0.0382700
v 0.1792900 -0.0000000 -0.0707100
v 0.1792900 0.1000000 -0.0707100
v 0.1576100 0.1000000 -0.0382700
v 0.1792900 -0.0000000 -0.0707100
v 0.2117300 -0.0000000 -0.0923900
v 0.2117300 0.1000000 -0.0923900
v 0.1792900 0.1000000 -0.0707100
v 0.2117300 -0.0000000 -0.0923900
v 0.2500000 -0.0000000 -0.1000000
v 0.2500000 0.1000000 -0.1000000
v 0.2117300 0.1000000 -0.0923900
v 0.2500000 -0.0000000 -0.1000000
v 0.2882700 -0.0000000 -0.0923900
v 0.2882700 0.1000000 -0.0923900
v 0.2500000 0.1000000 -0.1000000
v 0.2882700 -0.0000000 -0.0923900
v 0.3207100 -0.0000000 -0.0707100
v 0.3207100 0.1000000 -0.0707100
v 0.2882700 0.1000000 -0.0923900
v 0.3207100 -0.0000000 -0.0707100
v 0.3423900 -0.0000000 -0.0382700
v 0.3423900 0.1000000 -0.0382700
v 0.3207100 0.1000000 -0.0707100
v 0.3423900 -0.0000000 -0.0382700
v 0.3500000 -0.0000000 0.0000000
v 0.3500000 0.1000000 0.0000000
v 0.3423900 0.1000000 -0.0382700
v 0.4000000 0.1000000 0.0000000
v 0.3885850 0.1000000 0.0574050
v 0.3885850 -0.0000000 0.0574050
v 0.4000000 -0.0000000 0.0000000
v 0.3885850 0.1000000 0.0574050
v 0.3560650 0.1000000 0.1060650
v 0.3560650 -0.0000000 0.1060650
v 0.3885850 -0.0000000 0.0574050
v 0.3560650 0.1000000 0.1060650
v 0.3074050 0.1000000 0.1385850
v 0.3074050 -0.0000000 0.1385850
v 0.3560650 -0.0000000 0.1060650
v 0.3074050 0.1000000 0.1385850
v 0.2500000 0.1000000 0.1500000
v 0.2500000 -0.0000000 0.1500000
v 0.3074050 -0.0000000 0.1385850
v 0.2500000 0.1000000 0.1500000
v 0.1925950 0.1000000 0.1385850
v 0.1925950 -0.0000000 0.1385850
v 0.2500000 -0.0000000 0.1500000
v 0.1925950 0.1000000 0.1385850
v 0.1439350 0.1000000 0.1060650
v 0.1439350 -0.0000000 0.1060650
v 0.1925950 -0.0000000 0.1385850
v 0.1439350 0.1000000 0.1060650
v 0.1114150 0.1000000 0.0574050
v 0.1114150 -0.0000000 0.0574050
v 0.1439350 -0.0000000 0.1060650
v 0.1114150 0.1000000 0.0574050
v 0.1000000 0.1000000 0.0000000
v 0.1000000 -0.0000000 0.0000000
v 0.1114150 -0.0000000 0.0574050
v 0.1000000 0.1000000 0.0000000
v 0.1114150 0.1000000 -0.0574050
v 0.1114150 -0.0000000 -0.0574050
v 0.1000000 -0.0000000 0.0000000
v 0.1114150 0.1000000 -0.0574050
v 0.1439350 0.1000000 -0.1060650
v 0.1439350 -0.0000000 -0.1060650
v 0.1114150 -0.0000000 -0.0574050
v 0.1439350 0.1000000 -0.1060650
v 0.1925950 0.1000000 -0.1385850
v 0.1925950 -0.0000000 -0.1385850
v 0.1439350 -0.0000000 -0.1060650
v 0.1925950 0.1000000 -0.1385850
v 0.2500000 0.1000000 -0.1500000
v 0.2500000 -0.0000000 -0.1500000
v 0.1925950 -0.0000000 -0.1385850
v 0.2500000 0.1000000 -0.1500000
v 0.3074050 0.1000000 -0.1385850
v 0.3074050 -0.0000000 -0.1385850
v 0.2500000 -0.0000000 -0.1500000
v 0.3074050 0.1000000 -0.1385850
v 0.3560650 0.1000000 -0.1060650
v 0.3560650 -0.0000000 -0.1060650
v 0.3074050 -0.0000000 -0.1385850
v 0.3560650 0.1000000 -0.1060650
v 0.3885850 0.1000000 -0.0574050
v 0.3885850 -0.0000000 -0.0574050
v 0.3560650 -0.0000000 -0.1060650
v 0.3885850 0.1000000 -0.0574050
v 0.4000000 0.1000000 0.0000000
v 0.4000000 -0.0000000 0.0000000
v 0.3885850 -0.0000000 -0.0574050
v 0.2500000 0.1000000 0.1500000
v 0.2500000 0.1000000 0.1000000
v 0.2117300 0.1000000 0.0923900
v 0.1925950 0.1000000 0.1385850
v 0.1925950 0.1000000 0.1385850
v 0.2117300 0.1000000 0.0923900
v 0.1792900 0.1000000 0.0707100
v 0.1439350 0.1000000 0.1060650
v 0.1439350 0.1000000 0.1060650
v 0.1792900 0.1000000 0.0707100
v 0.1576100 0.1000000 0.0382700
v 0.1114150 0.1000000 0.0574050
v 0.1114150 0.1000000 0.0574050
v 0.1576100 0.1000000 0.0382700
v 0.1500000 0.1000000 0.0000000
v 0.1000000 0.1000000 0.0000000
v 0.1000000 0.1000000 0.0000000
v 0.1500000 0.1000000 0.0000000
v 0.1576100 0.1000000 -0.0382700
v 0.1114150 0.1000000 -0.0574050
v 0.1114150 0.1000000 -0.0574050
v 0.1576100 0.1000000 -0.0382700
v 0.1792900 0.1000000 -0.0707100
v 0.1439350 0.1000000 -0.1060650
v 0.1439350 0.1000000 -0.1060650
v 0.1792900 0.1000000 -0.0707100
v 0.2117300 0.1000000 -0.0923900
v 0.1925950 0.1000000 -0.1385850
v 0.1925950 0.1000000 -0.1385850
v 0.2117300 0.1000000 -0.0923900
v 0.2500000 0.1000000 -0.1000000
v 0.2500000 0.1000000 -0.1500000
v 0.2500000 0.1000000 -0.1500000
v 0.2500000 0.1000000 -0.1000000
v 0.2882700 0.1000000 -0.0923900
v 0.3074050 0.1000000 -0.1385850
v 0.3074050 0.1000000 -0.1385850
v 0.2882700 0.1000000 -0.0923900
v 0.3207100 0.1000000 -0.0707100
v 0.3560650 0.1000000 -0.1060650
v 0.3560650 0.1000000 -0.1060650
v 0.3207100 0.1000000 -0.0707100
v 0.3423900 0.1000000 -0.0382700
v 0.3885850 0.1000000 -0.0574050
v 0.3885850 0.1000000 -0.0574050
v 0.3423900 0.1000000 -0.0382700
v 0.3500000 0.1000000 0.0000000
v 0.4000000 0.1000000 0.0000000
v 0.4000000 0.1000000 0.0000000
v 0.3500000 0.1000000 0.0000000
v 0.3423900 0.1000000 0.0382700
v 0.3885850 0.1000000 0.0574050
v 0.3885850 0.1000000 0.0574050
v 0.3423900 0.1000000 0.0382700
v 0.3207100 0.1000000 0.0707100
v 0.3560650 0.1000000 0.1060650
v 0.3560650 0.1000000 0.1060650
v 0.3207100 0.1000000 0.0707100
v 0.2882700 0.1000000 0.0923900
v 0.3074050 0.1000000 0.1385850
v 0.3074050 0.1000000 0.1385850
v 0.2882700 0.1000000 0.0923900
v 0.2500000 0.1000000 0.1000000
v 0.2500000 0.1000000 0.1500000
v 0.8500000 -0.0000000 0.0000000
v 0.8423900 -0.0000000 0.0382700
v 0.8423900 0.1000000 0.0382700
v 0.8500000 0.1000000 0.0000000
v 0.8423900 -0.0000000 0.0382700
v 0.8207100 -0.0000000 0.0707100
v 0.8207100 0.1000000 0.0707100
v 0.8423900 0.1000000 0.0382700
v 0.8207100 -0.0000000 0.0707100
v 0.7882700 -0.0000000 0.0923900
v 0.7882700 0.1000000 0.0923900
v 0.8207100 0.1000000 0.0707100
v 0.7882700 -0.0000000 0.0923900
v 0.7500000 -0.0000000 0.1000000
v 0.7500000 0.1000000 0.1000000
v 0.7882700 0.1000000 0.0923900
v 0.7500000 -0.0000000 0.1000000
v 0.7117300 -0.0000000 0.0923900
v 0.7117300 0.1000000 0.0923900
v 0.7500000 0.1000000 0.1000000
v 0.7117300 -0.0000000 0.0923900
v 0.6792900 -0.0000000 0.0707100
v 0.6792900 0.1000000 0.0707100
v 0.7117300 0.1000000 0.0923900
v 0.6792900 -0.0000000 0.0707100
v 0.6576100 -0.0000000 0.0382700
v 0.6576100 0.1000000 0.0382700
v 0.6792900 0.1000000 0.0707100
v 0.6576100 -0.0000000 0.0382700
v 0.6500000 -0.0000000 0.0000000
v 0.6500000 0.1000000 0.0000000
v 0.6576100 0.1000000 0.0382700
v 0.6500000 -0.0000000 0.0000000
v 0.6576100 -0.0000000 -0.0382700
v 0.6576100 0.1000000 -0.0382700
v 0.6500000 0.1000000 0.0000000
v 0.6576100 -0.0000000 -0.0382700
v 0.6792900 -0.0000000 -0.0707100
v 0.6792900 0.1000000 -0.0707100
v 0.6576100 0.1000000 -0.0382700
v 0.6792900 -0.0000000 -0.0707100
v 0.7117300 -0.0000000 -0.0923900
v 0.7117300 0.1000000 -0.0923900
v 0.6792900 0.1000000 -0.0707100
v 0.7117300 -0.0000000 -0.0923900
v 0.7500000 -0.0000000 -0.1000000
v 0.7500000 0.1000000 -0.1000000
v 0.7117300 0.1000000 -0.0923900
v 0.7500000 -0.0000000 -0.1000000
v 0.7882700 -0.0000000 -0.0923900
v 0.7882700 0.1000000 -0.0923900
v 0.7500000 0.1000000 -0.1000000
v 0.7882700 -0.0000000 -0.0923900
v 0.8207100 -0.0000000 -0.0707100
v 0.8207100 0.1000000 -0.0707100
v 0.7882700 0.1000000 -0.0923900
v 0.8207100 -0.0000000 -0.0707100
v 0.8423900 -0.0000000 -0.0382700
v 0.8423900 0.1000000 -0.0382700
v 0.8207100 0.1000000 -0.0707100
v 0.8423900 -0.0000000 -0.0382700
v 0.8500000 -0.0000000 0.0000000
v 0.8500000 0.1000000 0.0000000
v 0.8423900 0.1000000 -0.0382700
v 0.9000000 0.1000000 0.0000000
v 0.8885850 0.1000000 0.0574050
v 0.8885850 -0.0000000 0.0574050
v 0.9000000 -0.0000000 0.0000000
v 0.8885850 0.1000000 0.0574050
v 0.8560650 0.1000000 0.1060650
v 0.8560650 -0.0000000 0.1060650
v 0.8885850 -0.0000000 0.0574050
v 0.8560650 0.1000000 0.1060650
v 0.8074050 0.1000000 0.1385850
v 0.8074050 -0.0000000 0.1385850
v 0.8560650 -0.0000000 0.1060650
v 0.8074050 0.1000000 0.1385850
v 0.7500000 0.1000000 0.1500000
v 0.7500000 -0.0000000 0.1500000
v 0.8074050 -0.0000000 0.1385850
v 0.7500000 0.1000000 0.1500000
v 0.6925950 0.1000000 0.1385850
v 0.6925950 -0.0000000 0.1385850
v 0.7500000 -0.0000000 0.1500000
v 0.6925950 0.1000000 0.1385850
v 0.6439350 0.1000000 0.1060650
v 0.6439350 -0.0000000 0.1060650
v 0.6925950 -0.0000000 0.1385850
v 0.6439350 0.1000000 0.1060650
v 0.6114150 0.1000000 0.0574050
v 0.6114150 -0.0000000 0.0574050
v 0.6439350 -0.0000000 0.1060650
v 0.6114150 0.1000000 0.0574050
v 0.6000000 0.1000000 0.0000000
v 0.6000000 -0.0000000 0.0000000
v 0.6114150 -0.0000000 0.0574050
v 0.6000000 0.1000000 0.0000000
v 0.6114150 0.1000000 -0.0574050
v 0.6114150 -0.0000000 -0.0574050
v 0.6000000 -0.0000000 0.0000000
v 0.6114150 0.1000000 -0.0574050
v 0.6439350 0.1000000 -0.1060650
v 0.6439350 -0.0000000 -0.1060650
v 0.6114150 -0.0000000 -0.0574050
v 0.6439350 0.1000000 -0.1060650
v 0.6925950 0.1000000 -0.1385850
v 0.6925950 -0.0000000 -0.1385850
v 0.6439350 -0.0000000 -0.1060650
v 0.6925950 0.1000000 -0.1385850
v 0.7500000 0.1000000 -0.1500000
v 0.7500000 -0.0000000 -0.1500000
v 0.6925950 -0.0000000 -0.1385850
v 0.7500000 0.1000000 -0.1500000
v 0.8074050 0.1000000 -0.1385850
v 0.8074050 -0.0000000 -0.1385850
v 0.7500000 -0.0000000 -0.1500000
v 0.8074050 0.1000000 -0.1385850
v 0.8560650 0.1000000 -0.1060650
v 0.8560650 -0.0000000 -0.1060650
v 0.8074050 -0.0000000 -0.1385850
v 0.8560650 0.1000000 -0.1060650
v 0.8885850 0.1000000 -0.0574050
v 0.8885850 -0.0000000 -0.0574050
v 0.8560650 -0.0000000 -0.1060650
v 0.8885850 0.1000000 -0.0574050
v 0.9000000 0.1000000 0.0000000
v 0.9000000 -0.0000000 0.0000000
v 0.8885850 -0.0000000 -0.0574050
v 0.7500000 0.1000000 0.1500000
v 0.7500000 0.1000000 0.1000000
v 0.7117300 0.1000000 0.0923900
v 0.6925950 0.1000000 0.1385850
v 0.6925950 0.1000000 0.1385850
v 0.7117300 0.1000000 0.0923900
v 0.6792900 0.1000000 0.0707100
v 0.6439350 0.1000000 0.1060650
v 0.6439350 0.1000000 0.1060650
v 0.6792900 0.1000000 0.0707100
v 0.6576100 0.1000000 0.0382700
v 0.6114150 0.1000000 0.0574050
v 0.6114150 0.1000000 0.0574050
v 0.6576100 0.1000000 0.0382700
v 0.6500000 0.1000000 0.0000000
v 0.6000000 0.1000000 0.0000000
v 0.6000000 0.1000000 0.0000000
v 0.6500000 0.1000000 0.0000000
v 0.6576100 0.1000000 -0.0382700
v 0.6114150 0.1000000 -0.0574050
v 0.6114150 0.1000000 -0.0574050
v 0.6576100 0.1000000 -0.0382700
v 0.6792900 0.1000000 -0.0707100
v 0.6439350 0.1000000 -0.1060650
v 0.6439350 0.1000000 -0.1060650
v 0.6792900 0.1000000 -0.0707100
v 0.7117300 0.1000000 -0.0923900
v 0.6925950 0.1000000 -0.1385850
v 0.6925950 0.1000000 -0.1385850
v 0.7117300 0.1000000 -0.0923900
v 0.7500000 0.1000000 -0.1000000
v 0.7500000 0.1000000 -0.1500000
v 0.7500000 0.1000000 -0.1500000
v 0.7500000 0.1000000 -0.1000000
v 0.7882700 0.1000000 -0.0923900
v 0.8074050 0.1000000 -0.1385850
v 0.8074050 0.1000000 -0.1385850
v 0.7882700 0.1000000 -0.0923900
v 0.8207100 0.1000000 -0.0707100
v 0.8560650 0.1000000 -0.1060650
v 0.8560650 0.1000000 -0.1060650
v 0.8207100 0.1000000 -0.0707100
v 0.8423900 0.1000000 -0.0382700
v 0.8885850 0.1000000 -0.0574050
v 0.8885850 0.1000000 -0.0574050
v 0.8423900 0.1000000 -0.0382700
v 0.8500000 0.1000000 0.0000000
v 0.9000000 0.1000000 0.0000000
v 0.9000000 0.1000000 0.0000000
v 0.8500000 0.1000000 0.0000000
v 0.8423900 0.1000000 0.0382700
v 0.8885850 0.1000000 0.0574050
v 0.8885850 0.1000000 0.0574050
v 0.8423900 0.1000000 0.0382700
v 0.8207100 0.1000000 0.0707100
v 0.8560650 0.1000000 0.1060650
v 0.8560650 0.1000000 0.1060650
v 0.8207100 0.1000000 0.0707100
v 0.7882700 0.1000000 0.0923900
v 0.8074050 0.1000000 0.1385850
v 0.8074050 0.1000000 0.1385850
v 0.7882700 0.1000000 0.0923900
v 0.7500000 0.1000000 0.1000000
v 0.7500000 0.1000000 0.1500000
v 1.0000000 -0.0000000 0.2500000
v -1.0000000 -0.0000000 0.2500000
v -1.0000000 -1.8000000 0.2500000
v 1.0000000 -1.8000000 0.2500000
s off
f 1 2 3
f 4 5 6
f 7 8 9
f 10 11 12
f 13 14 15
f 16 17 18
f 19 20 21
f 22 23 24
f 25 26 27
f 28 29 30
f 31 32 33
f 34 35 36
f 37 38 39
f 40 41 42
f 43 44 45
f 46 47 48
f 49 50 51
f 49 51 52
f 53 54 55
f 53 55 56
f 57 58 59
f 57 59 60
f 61 62 63
f 61 63 64
f 65 66 67
f 65 67 68
f 69 70 71
f 69 71 72
f 73 74 75
f 73 75 76
f 77 78 79
f 77 79 80
f 81 82 83
f 81 83 84
f 85 86 87
f 85 87 88
f 89 90 91
f 89 91 92
f 93 94 95
f 93 95 96
f 97 98 99
f 97 99 100
f 101 102 103
f 101 103 104
f 105 106 107
f 105 107 108
f 109 110 111
f 109 111 112
f 113 114 115
f 116 117 118
f 119 120 121
f 122 123 124
f 125 126 127
f 128 129 130
f 131 132 133
f 134 135 136
f 137 138 139
f 140 141 142
f 143 144 145
f 146 147 148
f 149 150 151
f 152 153 154
f 155 156 157
f 158 159 160
f 161 162 163
f 161 163 164
f 165 166 167
f 165 167 168
f 169 170 171
f 169 171 172
f 173 174 175
f 173 175 176
f 177 178 179
f 177 179 180
f 181 182 183
f 181 183 184
f 185 186 187
f 185 187 188
f 189 190 191
f 189 191 192
f 193 194 195
f 193 195 196
f 197 198 199
f 197 199 200
f 201 202 203
f 201 203 204
f 205 206 207
f 205 207 208
f 209 210 211
f 209 211 212
f 213 214 215
f 213 215 216
f 217 218 219
f 217 219 220
f 221 222 223
f 221 223 224
f 225 226 227
f 228 229 230
f 231 232 233
f 234 235 236
f 237 238 239
f 240 241 242
f 243 244 245
f 246 247 248
f 249 250 251
f 252 253 254
f 255 256 257
f 258 259 260
f 261 262 263
f 264 265 266
f 267 268 269
f 270 271 272
f 273 274 275
f 273 275 276
f 277 278 279
f 277 279 280
f 281 282 283
f 281 283 284
f 285 286 287
f 285 287 288
f 289 290 291
f 289 291 292
f 293 294 295
f 293 295 296
f 297 298 299
f 297 299 300
f 301 302 303
f 301 303 304
f 305 306 307
f 305 307 308
f 309 310 311
f 309 311 312
f 313 314 315
f 313 315 316
f 317 318 319
f 317 319 320
f 321 322 323
f 321 323 324
f 325 326 327
f 325 327 328
f 329 330 331
f 329 331 332
f 333 334 335
f 333 335 336
f 337 338 339
f 337 339 340
f 341 342 343
f 341 343 344
f 345 346 347
f 345 347 348
f 349 350 351
f 349 351 352
f 353 354 355
f 353 355 356
f 357 358 359
f 357 359 360
f 361 362 363
f 361 363 364
f 365 366 367
f 365 367 368
f 369 370 371
f 369 371 372
f 373 374 375
f 373 375 376
f 377 378 379
f 377 379 380
f 381 382 383
f 381 383 384
f 385 386 387
f 385 387 388
f 389 390 391
f 389 391 392
f 393 394 395
f 393 395 396
f 397 398 399
f 397 399 400
f 401 402 403
f 404 405 406
f 407 408 409
f 407 409 410
f 411 412 413
f 411 413 414
f 415 416 417
f 415 417 418
f 419 420 421
f 422 423 424
f 425 426 427
f 425 427 428
f 429 430 431
f 429 431 432
f 433 434 435
f 433 435 436
f 437 438 439
f 437 439 440
f 441 442 443
f 444 445 446
f 447 448 449
f 450 451 452
f 453 454 455
f 456 457 458
f 459 460 461
f 462 463 464
f 465 466 467
f 465 467 468
f 469 470 471
f 469 471 472
f 473 474 475
f 473 475 476
f 477 478 479
f 477 479 480
f 481 482 483
f 484 485 486
f 487 488 489
f 490 491 492
f 493 494 495
f 496 497 498
f 499 500 501
f 502 503 504
f 505 506 507
f 505 507 508
f 509 510 511
f 509 511 512
f 513 514 515
f 513 515 516
f 517 518 519
f 517 519 520
f 521 522 523
f 524 525 526
f 527 528 529
f 530 531 532
f 533 534 535
f 533 535 536
f 537 538 539
f 537 539 540
f 541 542 543
f 541 543 544
f 545 546 547
f 545 547 548
f 549 550 551
f 549 551 552
f 553 554 555
f 556 557 558
f 556 558 559
f 560 561 562
f 563 564 565
f 563 565 566
f 567 568 569
f 567 569 570
f 571 572 573
f 571 573 574
f 575 576 577
f 575 577 578
f 579 580 581
f 579 581 582
f 583 584 585
f 586 587 588
f 586 588 589
f 590 591 592
f 593 594 595
f 593 595 596
f 597 598 599
f 597 599 600
f 601 602 603
f 601 603 604
f 605 606 607
f 605 607 608
f 609 610 611
f 609 611 612
f 613 614 615
f 613 615 616
f 617 618 619
f 617 619 620
f 621 622 623
f 621 623 624
f 625 626 627
f 625 627 628
f 629 630 631
f 629 631 632
f 633 634 635
f 633 635 636
f 637 638 639
f 637 639 640
f 641 642 643
f 641 643 644
f 645 646 647
f 645 647 648
f 649 650 651
f 649 651 652
f 653 654 655
f 653 655 656
f 657 658 659
f 657 659 660
f 661 662 663
f 661 663 664
f 665 666 667
f 665 667 668
f 669 670 671
f 669 671 672
f 673 674 675
f 673 675 676
f 677 678 679
f 677 679 680
f 681 682 683
f 681 683 684
f 685 686 687
f 685 687 688
f 689 690 691
f 689 691 692
f 693 694 695
f 693 695 696
f 697 698 699
f 697 699 700
f 701 702 703
f 701 703 704
f 705 706 707
f 705 707 708
f 709 710 711
f 709 711 712
f 713 714 715
f 713 715 716
f 717 718 719
f 717 719 720
f 721 722 723
f 721 723 724
f 725 726 727
f 725 727 728
f 729 730 731
f 729 731 732
f 733 734 735
f 733 735 736
f 737 738 739
f 737 739 740
f 741 742 743
f 741 743 744
f 745 746 747
f 745 747 748
f 749 750 751
f 749 751 752
f 753 754 755
f 753 755 756
f 757 758 759
f 757 759 760
f 761 762 763
f 761 763 764
f 765 766 767
f 765 767 768
f 769 770 771
f 769 771 772
f 773 774 775
f 773 775 776
f 777 778 779
f 777 779 780
f 781 782 783
f 781 783 784
f 785 786 787
f 785 787 788
f 789 790 791
f 789 791 792
f 793 794 795
f 793 795 796
f 797 798 799
f 797 799 800
f 801 802 803
f 801 803 804
f 805 806 807
f 805 807 808
f 809 810 811
f 809 811 812
f 813 814 815
f 813 815 816
f 817 818 819
f 817 819 820
f 821 822 823
f 821 823 824
f 825 826 827
f 825 827 828
f 829 830 831
f 829 831 832
f 833 834 835
f 833 835 836
f 837 838 839
f 837 839 840
f 841 842 843
f 841 843 844
f 845 846 847
f 845 847 848
f 849 850 851
f 849 851 852
f 853 854 855
f 853 855 856
f 857 858 859
f 857 859 860
f 861 862 863
f 861 863 864
f 865 866 867
f 865 867 868
f 869 870 871
f 869 871 872
f 873 874 875
f 873 875 876
f 877 878 879
f 877 879 880
f 881 882 883
f 881 883 884
f 885 886 887
f 885 887 888
f 889 890 891
f 889 891 892
f 893 894 895
f 893 895 896
f 897 898 899
f 897 899 900
f 901 902 903
f 901 903 904
f 905 906 907
f 905 907 908
f 909 910 911
f 909 911 912
f 913 914 915
f 913 915 916
f 917 918 919
f 917 919 920
f 921 922 923
f 921 923 924
f 925 926 927
f 925 927 928
f 929 930 931
f 929 931 932
f 933 934 935
f 933 935 936
f 937 938 939
f 937 939 940
f 941 942 943
f 941 943 944
f 945 946 947
f 945 947 948
f 949 950 951
f 949 951 952
f 953 954 955
f 953 955 956
f 957 958 959
f 957 959 960
f 961 962 963
f 961 963 964
f 965 966 967
f 965 967 968
f 969 970 971
f 969 971 972
f 973 974 975
f 973 975 976
f 977 978 979
f 977 979 980
f 981 982 983
f 981 983 984
f 985 986 987
f 985 987 988
f 989 990 991
f 989 991 992
f 993 994 995
f 993 995 996
f 997 998 999
f 997 999 1000
f 1001 1002 1003
f 1001 1003 1004
f 1005 1006 1007
f 1005 1007 1008
f 1009 1010 1011
f 1009 1011 1012
f 1013 1014 1015
f 1013 1015 1016
f 1017 1018 1019
f 1017 1019 1020
f 1021 1022 1023
f 1021 1023 1024
f 1025 1026 1027
f 1025 1027 1028
f 1029 1030 1031
f 1029 1031 1032
f 1033 1034 1035
f 1033 1035 1036
f 1037 1038 1039
f 1037 1039 1040
f 1041 1042 1043
f 1041 1043 1044
f 1045 1046 1047
f 1045 1047 1048
f 1049 1050 1051
f 1049 1051 1052
f 1053 1054 1055
f 1053 1055 1056
f 1057 1058 1059
f 1057 1059 1060
f 1061 1062 1063
f 1061 1063 1064
f 1065 1066 1067
f 1065 1067 1068
f 1069 1070 1071
f 1069 1071 1072
f 1073 1074 1075
f 1073 1075 1076
f 1077 1078 1079
f 1077 1079 1080
f 1081 1082 1083
f 1081 1083 1084
f 1085 1086 1087
f 1085 1087 1088
f 1089 1090 1091
f 1089 1091 1092
f 1093 1094 1095
f 1093 1095 1096
f 1097 1098 1099
f 1097 1099 1100
f 1101 1102 1103
f 1101 1103 1104
f 1105 1106 1107
f 1105 1107 1108
f 1109 1110 1111
f 1109 1111 1112
f 1113 1114 1115
f 1113 1115 1116
f 1117 1118 1119
f 1117 1119 1120
f 1121 1122 1123
f 1121 1123 1124
f 1125 1126 1127
f 1125 1127 1128
f 1129 1130 1131
f 1129 1131 1132
f 1133 1134 1135
f 1133 1135 1136
f 1137 1138 1139
f 1137 1139 1140
f 1141 1142 1143
f 1141 1143 1144
f 1145 1146 1147
f 1145 1147 1148
f 1149 1150 1151
f 1149 1151 1152
f 1153 1154 1155
f 1153 1155 1156
f 1157 1158 1159
f 1157 1159 1160
f 1161 1162 1163
f 1161 1163 1164
f 1165 1166 1167
f 1165 1167 1168
f 1169 1170 1171
f 1169 1171 1172
f 1173 1174 1175
f 1173 1175 1176
f 1177 1178 1179
f 1177 1179 1180
f 1181 1182 1183
f 1181 1183 1184
f 1185 1186 1187
f 1185 1187 1188
f 1189 1190 1191
f 1189 1191 1192
f 1193 1194 1195
f 1193 1195 1196
f 1197 1198 1199
f 1197 1199 1200
f 1201 1202 1203
f 1201 1203 1204
f 1205 1206 1207
f 1205 1207 1208
f 1209 1210 1211
f 1209 1211 1212
f 1213 1214 1215
f 1213 1215 1216
f 1217 1218 1219
f 1217 1219 1220
f 1221 1222 1223
f 1221 1223 1224
f 1225 1226 1227
f 1225 1227 1228
f 1229 1230 1231
f 1229 1231 1232
f 1233 1234 1235
f 1233 1235 1236
f 1237 1238 1239
f 1237 1239 1240
f 1241 1242 1243
f 1241 1243 1244
f 1245 1246 1247
f 1245 1247 1248
f 1249 1250 1251
f 1249 1251 1252
f 1253 1254 1255
f 1253 1255 1256
f 1257 1258 1259
f 1257 1259 1260
f 1261 1262 1263
f 1261 1263 1264
f 1265 1266 1267
f 1265 1267 1268
f 1269 1270 1271
f 1269 1271 1272
f 1273 1274 1275
f 1273 1275 1276
f 1277 1278 1279
f 1277 1279 1280
f 1281 1282 1283
f 1281 1283 1284
f 1285 1286 1287
f 1285 1287 1288
f 1289 1290 1291
f 1289 1291 1292
f 1293 1294 1295
f 1293 1295 1296
f 1297 1298 1299
f 1297 1299 1300
f 1301 1302 1303
f 1301 1303 1304
f 1305 1306 1307
f 1305 1307 1308
f 1309 1310 1311
f 1309 1311 1312
f 1313 1314 1315
f 1313 1315 1316
f 1317 1318 1319
f 1317 1319 1320
f 1321 1322 1323
f 1321 1323 1324
f 1325 1326 1327
f 1325 1327 1328
f 1329 1330 1331
f 1329 1331 1332
f 1333 1334 1335
f 1333 1335 1336
f 1337 1338 1339
f 1337 1339 1340
f 1341 1342 1343
f 1341 1343 1344
f 1345 1346 1347
f 1345 1347 1348
f 1349 1350 1351
f 1349 1351 1352
f 1353 1354 1355
f 1353 1355 1356
f 1357 1358 1359
f 1357 1359 1360
f 1361 1362 1363
f 1361 1363 1364
f 1365 1366 1367
f 1365 1367 1368
f 1369 1370 1371
f 1369 1371 1372
f 1373 1374 1375
f 1373 1375 1376
f 1377 1378 1379
f 1377 1379 1380
f 1381 1382 1383
f 1381 1383 1384
f 1385 1386 1387
f 1385 1387 1388
f 1389 1390 1391
f 1389 1391 1392
f 1393 1394 1395
f 1393 1395 1396
