# Baked from official LDraw part 60592.dat
o ldraw_60592
v -0.1500000 -0.0000000 0.0000000
v -0.1576100 -0.0000000 0.0382700
v -0.1576100 0.1000000 0.0382700
v -0.1500000 0.1000000 0.0000000
v -0.1576100 -0.0000000 0.0382700
v -0.1792900 -0.0000000 0.0707100
v -0.1792900 0.1000000 0.0707100
v -0.1576100 0.1000000 0.0382700
v -0.1792900 -0.0000000 0.0707100
v -0.2117300 -0.0000000 0.0923900
v -0.2117300 0.1000000 0.0923900
v -0.1792900 0.1000000 0.0707100
v -0.2117300 -0.0000000 0.0923900
v -0.2500000 -0.0000000 0.1000000
v -0.2500000 0.1000000 0.1000000
v -0.2117300 0.1000000 0.0923900
v -0.2500000 -0.0000000 0.1000000
v -0.2882700 -0.0000000 0.0923900
v -0.2882700 0.1000000 0.0923900
v -0.2500000 0.1000000 0.1000000
v -0.2882700 -0.0000000 0.0923900
v -0.3207100 -0.0000000 0.0707100
v -0.3207100 0.1000000 0.0707100
v -0.2882700 0.1000000 0.0923900
v -0.3207100 -0.0000000 0.0707100
v -0.3423900 -0.0000000 0.0382700
v -0.3423900 0.1000000 0.0382700
v -0.3207100 0.1000000 0.0707100
v -0.3423900 -0.0000000 0.0382700
v -0.3500000 -0.0000000 0.0000000
v -0.3500000 0.1000000 0.0000000
v -0.3423900 0.1000000 0.0382700
v -0.3500000 -0.0000000 0.0000000
v -0.3423900 -0.0000000 -0.0382700
v -0.3423900 0.1000000 -0.0382700
v -0.3500000 0.1000000 0.0000000
v -0.3423900 -0.0000000 -0.0382700
v -0.3207100 -0.0000000 -0.0707100
v -0.3207100 0.1000000 -0.0707100
v -0.3423900 0.1000000 -0.0382700
v -0.3207100 -0.0000000 -0.0707100
v -0.2882700 -0.0000000 -0.0923900
v -0.2882700 0.1000000 -0.0923900
v -0.3207100 0.1000000 -0.0707100
v -0.2882700 -0.0000000 -0.0923900
v -0.2500000 -0.0000000 -0.1000000
v -0.2500000 0.1000000 -0.1000000
v -0.2882700 0.1000000 -0.0923900
v -0.2500000 -0.0000000 -0.1000000
v -0.2117300 -0.0000000 -0.0923900
v -0.2117300 0.1000000 -0.0923900
v -0.2500000 0.1000000 -0.1000000
v -0.2117300 -0.0000000 -0.0923900
v -0.1792900 -0.0000000 -0.0707100
v -0.1792900 0.1000000 -0.0707100
v -0.2117300 0.1000000 -0.0923900
v -0.1792900 -0.0000000 -0.0707100
v -0.1576100 -0.0000000 -0.0382700
v -0.1576100 0.1000000 -0.0382700
v -0.1792900 0.1000000 -0.0707100
v -0.1576100 -0.0000000 -0.0382700
v -0.1500000 -0.0000000 0.0000000
v -0.1500000 0.1000000 0.0000000
v -0.1576100 0.1000000 -0.0382700
v -0.1000000 0.1000000 0.0000000
v -0.1114150 0.1000000 0.0574050
v -0.1114150 -0.0000000 0.0574050
v -0.1000000 -0.0000000 0.0000000
v -0.1114150 0.1000000 0.0574050
v -0.1439350 0.1000000 0.1060650
v -0.1439350 -0.0000000 0.1060650
v -0.1114150 -0.0000000 0.0574050
v -0.1439350 0.1000000 0.1060650
v -0.1925950 0.1000000 0.1385850
v -0.1925950 -0.0000000 0.1385850
v -0.1439350 -0.0000000 0.1060650
v -0.1925950 0.1000000 0.1385850
v -0.2500000 0.1000000 0.1500000
v -0.2500000 -0.0000000 0.1500000
v -0.1925950 -0.0000000 0.1385850
v -0.2500000 0.1000000 0.1500000
v -0.3074050 0.1000000 0.1385850
v -0.3074050 -0.0000000 0.1385850
v -0.2500000 -0.0000000 0.1500000
v -0.3074050 0.1000000 0.1385850
v -0.3560650 0.1000000 0.1060650
v -0.3560650 -0.0000000 0.1060650
v -0.3074050 -0.0000000 0.1385850
v -0.3560650 0.1000000 0.1060650
v -0.3885850 0.1000000 0.0574050
v -0.3885850 -0.0000000 0.0574050
v -0.3560650 -0.0000000 0.1060650
v -0.3885850 0.1000000 0.0574050
v -0.4000000 0.1000000 0.0000000
v -0.4000000 -0.0000000 0.0000000
v -0.3885850 -0.0000000 0.0574050
v -0.4000000 0.1000000 0.0000000
v -0.3885850 0.1000000 -0.0574050
v -0.3885850 -0.0000000 -0.0574050
v -0.4000000 -0.0000000 0.0000000
v -0.3885850 0.1000000 -0.0574050
v -0.3560650 0.1000000 -0.1060650
v -0.3560650 -0.0000000 -0.1060650
v -0.3885850 -0.0000000 -0.0574050
v -0.3560650 0.1000000 -0.1060650
v -0.3074050 0.1000000 -0.1385850
v -0.3074050 -0.0000000 -0.1385850
v -0.3560650 -0.0000000 -0.1060650
v -0.3074050 0.1000000 -0.1385850
v -0.2500000 0.1000000 -0.1500000
v -0.2500000 -0.0000000 -0.1500000
v -0.3074050 -0.0000000 -0.1385850
v -0.2500000 0.1000000 -0.1500000
v -0.1925950 0.1000000 -0.1385850
v -0.1925950 -0.0000000 -0.1385850
v -0.2500000 -0.0000000 -0.1500000
v -0.1925950 0.1000000 -0.1385850
v -0.1439350 0.1000000 -0.1060650
v -0.1439350 -0.0000000 -0.1060650
v -0.1925950 -0.0000000 -0.1385850
v -0.1439350 0.1000000 -0.1060650
v -0.1114150 0.1000000 -0.0574050
v -0.1114150 -0.0000000 -0.0574050
v -0.1439350 -0.0000000 -0.1060650
v -0.1114150 0.1000000 -0.0574050
v -0.1000000 0.1000000 0.0000000
v -0.1000000 -0.0000000 0.0000000
v -0.1114150 -0.0000000 -0.0574050
v -0.2500000 0.1000000 0.1500000
v -0.2500000 0.1000000 0.1000000
v -0.2882700 0.1000000 0.0923900
v -0.3074050 0.1000000 0.1385850
v -0.3074050 0.1000000 0.1385850
v -0.2882700 0.1000000 0.0923900
v -0.3207100 0.1000000 0.0707100
v -0.3560650 0.1000000 0.1060650
v -0.3560650 0.1000000 0.1060650
v -0.3207100 0.1000000 0.0707100
v -0.3423900 0.1000000 0.0382700
v -0.3885850 0.1000000 0.0574050
v -0.3885850 0.1000000 0.0574050
v -0.3423900 0.1000000 0.0382700
v -0.3500000 0.1000000 0.0000000
v -0.4000000 0.1000000 0.0000000
v -0.4000000 0.1000000 0.0000000
v -0.3500000 0.1000000 0.0000000
v -0.3423900 0.1000000 -0.0382700
v -0.3885850 0.1000000 -0.0574050
v -0.3885850 0.1000000 -0.0574050
v -0.3423900 0.1000000 -0.0382700
v -0.3207100 0.1000000 -0.0707100
v -0.3560650 0.1000000 -0.1060650
v -0.3560650 0.1000000 -0.1060650
v -0.3207100 0.1000000 -0.0707100
v -0.2882700 0.1000000 -0.0923900
v -0.3074050 0.1000000 -0.1385850
v -0.3074050 0.1000000 -0.1385850
v -0.2882700 0.1000000 -0.0923900
v -0.2500000 0.1000000 -0.1000000
v -0.2500000 0.1000000 -0.1500000
v -0.2500000 0.1000000 -0.1500000
v -0.2500000 0.1000000 -0.1000000
v -0.2117300 0.1000000 -0.0923900
v -0.1925950 0.1000000 -0.1385850
v -0.1925950 0.1000000 -0.1385850
v -0.2117300 0.1000000 -0.0923900
v -0.1792900 0.1000000 -0.0707100
v -0.1439350 0.1000000 -0.1060650
v -0.1439350 0.1000000 -0.1060650
v -0.1792900 0.1000000 -0.0707100
v -0.1576100 0.1000000 -0.0382700
v -0.1114150 0.1000000 -0.0574050
v -0.1114150 0.1000000 -0.0574050
v -0.1576100 0.1000000 -0.0382700
v -0.1500000 0.1000000 0.0000000
v -0.1000000 0.1000000 0.0000000
v -0.1000000 0.1000000 0.0000000
v -0.1500000 0.1000000 0.0000000
v -0.1576100 0.1000000 0.0382700
v -0.1114150 0.1000000 0.0574050
v -0.1114150 0.1000000 0.0574050
v -0.1576100 0.1000000 0.0382700
v -0.1792900 0.1000000 0.0707100
v -0.1439350 0.1000000 0.1060650
v -0.1439350 0.1000000 0.1060650
v -0.1792900 0.1000000 0.0707100
v -0.2117300 0.1000000 0.0923900
v -0.1925950 0.1000000 0.1385850
v -0.1925950 0.1000000 0.1385850
v -0.2117300 0.1000000 0.0923900
v -0.2500000 0.1000000 0.1000000
v -0.2500000 0.1000000 0.1500000
v 0.3500000 -0.0000000 0.0000000
v 0.3423900 -0.0000000 0.0382700
v 0.3423900 0.1000000 0.0382700
v 0.3500000 0.1000000 0.0000000
v 0.3423900 -0.0000000 0.0382700
v 0.3207100 -0.0000000 0.0707100
v 0.3207100 0.1000000 0.0707100
v 0.3423900 0.1000000 0.0382700
v 0.3207100 -0.0000000 0.0707100
v 0.2882700 -0.0000000 0.0923900
v 0.2882700 0.1000000 0.0923900
v 0.3207100 0.1000000 0.0707100
v 0.2882700 -0.0000000 0.0923900
v 0.2500000 -0.0000000 0.1000000
v 0.2500000 0.1000000 0.1000000
v 0.2882700 0.1000000 0.0923900
v 0.2500000 -0.0000000 0.1000000
v 0.2117300 -0.0000000 0.0923900
v 0.2117300 0.1000000 0.0923900
v 0.2500000 0.1000000 0.1000000
v 0.2117300 -0.0000000 0.0923900
v 0.1792900 -0.0000000 0.0707100
v 0.1792900 0.1000000 0.0707100
v 0.2117300 0.1000000 0.0923900
v 0.1792900 -0.0000000 0.0707100
v 0.1576100 -0.0000000 0.0382700
v 0.1576100 0.1000000 0.0382700
v 0.1792900 0.1000000 0.0707100
v 0.1576100 -0.0000000 0.0382700
v 0.1500000 -0.0000000 0.0000000
v 0.1500000 0.1000000 0.0000000
v 0.1576100 0.1000000 0.0382700
v 0.1500000 -0.0000000 0.0000000
v 0.1576100 -0.0000000 -0.0382700
v 0.1576100 0.1000000 -0.0382700
v 0.1500000 0.1000000 0.0000000
v 0.1576100 -0.0000000 -0.0382700
v 0.1792900 -0.0000000 -0.0707100
v 0.1792900 0.1000000 -0.0707100
v 0.1576100 0.1000000 -0.0382700
v 0.1792900 -0.0000000 -0.0707100
v 0.2117300 -0.0000000 -0.0923900
v 0.2117300 0.1000000 -0.0923900
v 0.1792900 0.1000000 -0.0707100
v 0.2117300 -0.0000000 -0.0923900
v 0.2500000 -0.0000000 -0.1000000
v 0.2500000 0.1000000 -0.1000000
v 0.2117300 0.1000000 -0.0923900
v 0.2500000 -0.0000000 -0.1000000
v 0.2882700 -0.0000000 -0.0923900
v 0.2882700 0.1000000 -0.0923900
v 0.2500000 0.1000000 -0.1000000
v 0.2882700 -0.0000000 -0.0923900
v 0.3207100 -0.0000000 -0.0707100
v 0.3207100 0.1000000 -0.0707100
v 0.2882700 0.1000000 -0.0923900
v 0.3207100 -0.0000000 -0.0707100
v 0.3423900 -0.0000000 -0.0382700
v 0.3423900 0.1000000 -0.0382700
v 0.3207100 0.1000000 -0.0707100
v 0.3423900 -0.0000000 -0.0382700
v 0.3500000 -0.0000000 0.0000000
v 0.3500000 0.1000000 0.0000000
v 0.3423900 0.1000000 -0.0382700
v 0.4000000 0.1000000 0.0000000
v 0.3885850 0.1000000 0.0574050
v 0.3885850 -0.0000000 0.0574050
v 0.4000000 -0.0000000 0.0000000
v 0.3885850 0.1000000 0.0574050
v 0.3560650 0.1000000 0.1060650
v 0.3560650 -0.0000000 0.1060650
v 0.3885850 -0.0000000 0.0574050
v 0.3560650 0.1000000 0.1060650
v 0.3074050 0.1000000 0.1385850
v 0.3074050 -0.0000000 0.1385850
v 0.3560650 -0.0000000 0.1060650
v 0.3074050 0.1000000 0.1385850
v 0.2500000 0.1000000 0.1500000
v 0.2500000 -0.0000000 0.1500000
v 0.3074050 -0.0000000 0.1385850
v 0.2500000 0.1000000 0.1500000
v 0.1925950 0.1000000 0.1385850
v 0.1925950 -0.0000000 0.1385850
v 0.2500000 -0.0000000 0.1500000
v 0.1925950 0.1000000 0.1385850
v 0.1439350 0.1000000 0.1060650
v 0.1439350 -0.0000000 0.1060650
v 0.1925950 -0.0000000 0.1385850
v 0.1439350 0.1000000 0.1060650
v 0.1114150 0.1000000 0.0574050
v 0.1114150 -0.0000000 0.0574050
v 0.1439350 -0.0000000 0.1060650
v 0.1114150 0.1000000 0.0574050
v 0.1000000 0.1000000 0.0000000
v 0.1000000 -0.0000000 0.0000000
v 0.1114150 -0.0000000 0.0574050
v 0.1000000 0.1000000 0.0000000
v 0.1114150 0.1000000 -0.0574050
v 0.1114150 -0.0000000 -0.0574050
v 0.1000000 -0.0000000 0.0000000
v 0.1114150 0.1000000 -0.0574050
v 0.1439350 0.1000000 -0.1060650
v 0.1439350 -0.0000000 -0.1060650
v 0.1114150 -0.0000000 -0.0574050
v 0.1439350 0.1000000 -0.1060650
v 0.1925950 0.1000000 -0.1385850
v 0.1925950 -0.0000000 -0.1385850
v 0.1439350 -0.0000000 -0.1060650
v 0.1925950 0.1000000 -0.1385850
v 0.2500000 0.1000000 -0.1500000
v 0.2500000 -0.0000000 -0.1500000
v 0.1925950 -0.0000000 -0.1385850
v 0.2500000 0.1000000 -0.1500000
v 0.3074050 0.1000000 -0.1385850
v 0.3074050 -0.0000000 -0.1385850
v 0.2500000 -0.0000000 -0.1500000
v 0.3074050 0.1000000 -0.1385850
v 0.3560650 0.1000000 -0.1060650
v 0.3560650 -0.0000000 -0.1060650
v 0.3074050 -0.0000000 -0.1385850
v 0.3560650 0.1000000 -0.1060650
v 0.3885850 0.1000000 -0.0574050
v 0.3885850 -0.0000000 -0.0574050
v 0.3560650 -0.0000000 -0.1060650
v 0.3885850 0.1000000 -0.0574050
v 0.4000000 0.1000000 0.0000000
v 0.4000000 -0.0000000 0.0000000
v 0.3885850 -0.0000000 -0.0574050
v 0.2500000 0.1000000 0.1500000
v 0.2500000 0.1000000 0.1000000
v 0.2117300 0.1000000 0.0923900
v 0.1925950 0.1000000 0.1385850
v 0.1925950 0.1000000 0.1385850
v 0.2117300 0.1000000 0.0923900
v 0.1792900 0.1000000 0.0707100
v 0.1439350 0.1000000 0.1060650
v 0.1439350 0.1000000 0.1060650
v 0.1792900 0.1000000 0.0707100
v 0.1576100 0.1000000 0.0382700
v 0.1114150 0.1000000 0.0574050
v 0.1114150 0.1000000 0.0574050
v 0.1576100 0.1000000 0.0382700
v 0.1500000 0.1000000 0.0000000
v 0.1000000 0.1000000 0.0000000
v 0.1000000 0.1000000 0.0000000
v 0.1500000 0.1000000 0.0000000
v 0.1576100 0.1000000 -0.0382700
v 0.1114150 0.1000000 -0.0574050
v 0.1114150 0.1000000 -0.0574050
v 0.1576100 0.1000000 -0.0382700
v 0.1792900 0.1000000 -0.0707100
v 0.1439350 0.1000000 -0.1060650
v 0.1439350 0.1000000 -0.1060650
v 0.1792900 0.1000000 -0.0707100
v 0.2117300 0.1000000 -0.0923900
v 0.1925950 0.1000000 -0.1385850
v 0.1925950 0.1000000 -0.1385850
v 0.2117300 0.1000000 -0.0923900
v 0.2500000 0.1000000 -0.1000000
v 0.2500000 0.1000000 -0.1500000
v 0.2500000 0.1000000 -0.1500000
v 0.2500000 0.1000000 -0.1000000
v 0.2882700 0.1000000 -0.0923900
v 0.3074050 0.1000000 -0.1385850
v 0.3074050 0.1000000 -0.1385850
v 0.2882700 0.1000000 -0.0923900
v 0.3207100 0.1000000 -0.0707100
v 0.3560650 0.1000000 -0.1060650
v 0.3560650 0.1000000 -0.1060650
v 0.3207100 0.1000000 -0.0707100
v 0.3423900 0.1000000 -0.0382700
v 0.3885850 0.1000000 -0.0574050
v 0.3885850 0.1000000 -0.0574050
v 0.3423900 0.1000000 -0.0382700
v 0.3500000 0.1000000 0.0000000
v 0.4000000 0.1000000 0.0000000
v 0.4000000 0.1000000 0.0000000
v 0.3500000 0.1000000 0.0000000
v 0.3423900 0.1000000 0.0382700
v 0.3885850 0.1000000 0.0574050
v 0.3885850 0.1000000 0.0574050
v 0.3423900 0.1000000 0.0382700
v 0.3207100 0.1000000 0.0707100
v 0.3560650 0.1000000 0.1060650
v 0.3560650 0.1000000 0.1060650
v 0.3207100 0.1000000 0.0707100
v 0.2882700 0.1000000 0.0923900
v 0.3074050 0.1000000 0.1385850
v 0.3074050 0.1000000 0.1385850
v 0.2882700 0.1000000 0.0923900
v 0.2500000 0.1000000 0.1000000
v 0.2500000 0.1000000 0.1500000
v 0.0625000 -0.0000000 -0.0625000
v 0.0625000 -0.0000000 -0.1250000
v 0.0577438 -0.0000000 -0.1010813
v 0.0625000 -0.0000000 -0.0625000
v 0.0577438 -0.0000000 -0.1010813
v 0.0441938 -0.0000000 -0.0808063
v 0.0625000 -0.0000000 -0.0625000
v 0.0441938 -0.0000000 -0.0808063
v 0.0239188 -0.0000000 -0.0672563
v 0.0625000 -0.0000000 -0.0625000
v 0.0239188 -0.0000000 -0.0672563
v 0.0000000 -0.0000000 -0.0625000
v -0.0625000 -0.0000000 -0.0625000
v 0.0000000 -0.0000000 -0.0625000
v -0.0239188 -0.0000000 -0.0672563
v -0.0625000 -0.0000000 -0.0625000
v -0.0239188 -0.0000000 -0.0672563
v -0.0441938 -0.0000000 -0.0808063
v -0.0625000 -0.0000000 -0.0625000
v -0.0441938 -0.0000000 -0.0808063
v -0.0577438 -0.0000000 -0.1010813
v -0.0625000 -0.0000000 -0.0625000
v -0.0577438 -0.0000000 -0.1010813
v -0.0625000 -0.0000000 -0.1250000
v -0.0625000 -0.0000000 -0.1875000
v -0.0625000 -0.0000000 -0.1250000
v -0.0577438 -0.0000000 -0.1489187
v -0.0625000 -0.0000000 -0.1875000
v -0.0577438 -0.0000000 -0.1489187
v -0.0441938 -0.0000000 -0.1691938
v -0.0625000 -0.0000000 -0.1875000
v -0.0441938 -0.0000000 -0.1691938
v -0.0239188 -0.0000000 -0.1827438
v -0.0625000 -0.0000000 -0.1875000
v -0.0239188 -0.0000000 -0.1827438
v 0.0000000 -0.0000000 -0.1875000
v 0.0625000 -0.0000000 -0.1875000
v 0.0000000 -0.0000000 -0.1875000
v 0.0239188 -0.0000000 -0.1827438
v 0.0625000 -0.0000000 -0.1875000
v 0.0239188 -0.0000000 -0.1827438
v 0.0441938 -0.0000000 -0.1691938
v 0.0625000 -0.0000000 -0.1875000
v 0.0441938 -0.0000000 -0.1691938
v 0.0577438 -0.0000000 -0.1489187
v 0.0625000 -0.0000000 -0.1875000
v 0.0577438 -0.0000000 -0.1489187
v 0.0625000 -0.0000000 -0.1250000
v 0.0625000 -0.0750000 -0.1250000
v 0.0577438 -0.0750000 -0.1010813
v 0.0577438 -0.0000000 -0.1010813
v 0.0625000 -0.0000000 -0.1250000
v 0.0577438 -0.0750000 -0.1010813
v 0.0441938 -0.0750000 -0.0808063
v 0.0441938 -0.0000000 -0.0808063
v 0.0577438 -0.0000000 -0.1010813
v 0.0441938 -0.0750000 -0.0808063
v 0.0239188 -0.0750000 -0.0672563
v 0.0239188 -0.0000000 -0.0672563
v 0.0441938 -0.0000000 -0.0808063
v 0.0239188 -0.0750000 -0.0672563
v 0.0000000 -0.0750000 -0.0625000
v 0.0000000 -0.0000000 -0.0625000
v 0.0239188 -0.0000000 -0.0672563
v 0.0000000 -0.0750000 -0.0625000
v -0.0239188 -0.0750000 -0.0672563
v -0.0239188 -0.0000000 -0.0672563
v 0.0000000 -0.0000000 -0.0625000
v -0.0239188 -0.0750000 -0.0672563
v -0.0441938 -0.0750000 -0.0808063
v -0.0441938 -0.0000000 -0.0808063
v -0.0239188 -0.0000000 -0.0672563
v -0.0441938 -0.0750000 -0.0808063
v -0.0577438 -0.0750000 -0.1010813
v -0.0577438 -0.0000000 -0.1010813
v -0.0441938 -0.0000000 -0.0808063
v -0.0577438 -0.0750000 -0.1010813
v -0.0625000 -0.0750000 -0.1250000
v -0.0625000 -0.0000000 -0.1250000
v -0.0577438 -0.0000000 -0.1010813
v -0.0625000 -0.0750000 -0.1250000
v -0.0577438 -0.0750000 -0.1489187
v -0.0577438 -0.0000000 -0.1489187
v -0.0625000 -0.0000000 -0.1250000
v -0.0577438 -0.0750000 -0.1489187
v -0.0441938 -0.0750000 -0.1691938
v -0.0441938 -0.0000000 -0.1691938
v -0.0577438 -0.0000000 -0.1489187
v -0.0441938 -0.0750000 -0.1691938
v -0.0239188 -0.0750000 -0.1827438
v -0.0239188 -0.0000000 -0.1827438
v -0.0441938 -0.0000000 -0.1691938
v -0.0239188 -0.0750000 -0.1827438
v 0.0000000 -0.0750000 -0.1875000
v 0.0000000 -0.0000000 -0.1875000
v -0.0239188 -0.0000000 -0.1827438
v 0.0000000 -0.0750000 -0.1875000
v 0.0239188 -0.0750000 -0.1827438
v 0.0239188 -0.0000000 -0.1827438
v 0.0000000 -0.0000000 -0.1875000
v 0.0239188 -0.0750000 -0.1827438
v 0.0441938 -0.0750000 -0.1691938
v 0.0441938 -0.0000000 -0.1691938
v 0.0239188 -0.0000000 -0.1827438
v 0.0441938 -0.0750000 -0.1691938
v 0.0577438 -0.0750000 -0.1489187
v 0.0577438 -0.0000000 -0.1489187
v 0.0441938 -0.0000000 -0.1691938
v 0.0577438 -0.0750000 -0.1489187
v 0.0625000 -0.0750000 -0.1250000
v 0.0625000 -0.0000000 -0.1250000
v 0.0577438 -0.0000000 -0.1489187
v 0.0577438 -0.0750000 -0.1010813
v 0.0625000 -0.0750000 -0.1250000
v 0.0625000 -0.0750000 -0.0625000
v 0.0441938 -0.0750000 -0.0808063
v 0.0577438 -0.0750000 -0.1010813
v 0.0625000 -0.0750000 -0.0625000
v 0.0239188 -0.0750000 -0.0672563
v 0.0441938 -0.0750000 -0.0808063
v 0.0625000 -0.0750000 -0.0625000
v 0.0000000 -0.0750000 -0.0625000
v 0.0239188 -0.0750000 -0.0672563
v 0.0625000 -0.0750000 -0.0625000
v -0.0239188 -0.0750000 -0.0672563
v 0.0000000 -0.0750000 -0.0625000
v -0.0625000 -0.0750000 -0.0625000
v -0.0441938 -0.0750000 -0.0808063
v -0.0239188 -0.0750000 -0.0672563
v -0.0625000 -0.0750000 -0.0625000
v -0.0577438 -0.0750000 -0.1010813
v -0.0441938 -0.0750000 -0.0808063
v -0.0625000 -0.0750000 -0.0625000
v -0.0625000 -0.0750000 -0.1250000
v -0.0577438 -0.0750000 -0.1010813
v -0.0625000 -0.0750000 -0.0625000
v -0.0577438 -0.0750000 -0.1489187
v -0.0625000 -0.0750000 -0.1250000
v -0.0625000 -0.0750000 -0.1875000
v -0.0441938 -0.0750000 -0.1691938
v -0.0577438 -0.0750000 -0.1489187
v -0.0625000 -0.0750000 -0.1875000
v -0.0239188 -0.0750000 -0.1827438
v -0.0441938 -0.0750000 -0.1691938
v -0.0625000 -0.0750000 -0.1875000
v 0.0000000 -0.0750000 -0.1875000
v -0.0239188 -0.0750000 -0.1827438
v -0.0625000 -0.0750000 -0.1875000
v 0.0239188 -0.0750000 -0.1827438
v 0.0000000 -0.0750000 -0.1875000
v 0.0625000 -0.0750000 -0.1875000
v 0.0441938 -0.0750000 -0.1691938
v 0.0239188 -0.0750000 -0.1827438
v 0.0625000 -0.0750000 -0.1875000
v 0.0577438 -0.0750000 -0.1489187
v 0.0441938 -0.0750000 -0.1691938
v 0.0625000 -0.0750000 -0.1875000
v 0.0625000 -0.0750000 -0.1250000
v 0.0577438 -0.0750000 -0.1489187
v 0.0625000 -0.0750000 -0.1875000
v 0.0625000 -1.0000000 -0.0625000
v 0.0625000 -1.0000000 -0.1250000
v 0.0577438 -1.0000000 -0.1010813
v 0.0625000 -1.0000000 -0.0625000
v 0.0577438 -1.0000000 -0.1010813
v 0.0441938 -1.0000000 -0.0808063
v 0.0625000 -1.0000000 -0.0625000
v 0.0441938 -1.0000000 -0.0808063
v 0.0239188 -1.0000000 -0.0672563
v 0.0625000 -1.0000000 -0.0625000
v 0.0239188 -1.0000000 -0.0672563
v 0.0000000 -1.0000000 -0.0625000
v -0.0625000 -1.0000000 -0.0625000
v 0.0000000 -1.0000000 -0.0625000
v -0.0239188 -1.0000000 -0.0672563
v -0.0625000 -1.0000000 -0.0625000
v -0.0239188 -1.0000000 -0.0672563
v -0.0441938 -1.0000000 -0.0808063
v -0.0625000 -1.0000000 -0.0625000
v -0.0441938 -1.0000000 -0.0808063
v -0.0577438 -1.0000000 -0.1010813
v -0.0625000 -1.0000000 -0.0625000
v -0.0577438 -1.0000000 -0.1010813
v -0.0625000 -1.0000000 -0.1250000
v 0.0577438 -1.0750000 -0.1010813
v 0.0577438 -1.0000000 -0.1010813
v 0.0625000 -1.0000000 -0.1250000
v 0.0625000 -1.0750000 -0.1250000
v 0.0441938 -1.0750000 -0.0808063
v 0.0441938 -1.0000000 -0.0808063
v 0.0577438 -1.0000000 -0.1010813
v 0.0577438 -1.0750000 -0.1010813
v 0.0239188 -1.0750000 -0.0672563
v 0.0239188 -1.0000000 -0.0672563
v 0.0441938 -1.0000000 -0.0808063
v 0.0441938 -1.0750000 -0.0808063
v 0.0000000 -1.0750000 -0.0625000
v 0.0000000 -1.0000000 -0.0625000
v 0.0239188 -1.0000000 -0.0672563
v 0.0239188 -1.0750000 -0.0672563
v -0.0239188 -1.0750000 -0.0672563
v -0.0239188 -1.0000000 -0.0672563
v 0.0000000 -1.0000000 -0.0625000
v 0.0000000 -1.0750000 -0.0625000
v -0.0441938 -1.0750000 -0.0808063
v -0.0441938 -1.0000000 -0.0808063
v -0.0239188 -1.0000000 -0.0672563
v -0.0239188 -1.0750000 -0.0672563
v -0.0577438 -1.0750000 -0.1010813
v -0.0577438 -1.0000000 -0.1010813
v -0.0441938 -1.0000000 -0.0808063
v -0.0441938 -1.0750000 -0.0808063
v -0.0625000 -1.0750000 -0.1250000
v -0.0625000 -1.0000000 -0.1250000
v -0.0577438 -1.0000000 -0.1010813
v -0.0577438 -1.0750000 -0.1010813
v -0.0442000 -1.2000000 -0.1692000
v -0.0239210 -1.2000000 -0.1827517
v -0.0239210 -1.0000000 -0.1827517
v -0.0442000 -1.0000000 -0.1692000
v -0.0239210 -1.2000000 -0.1827517
v 0.0000000 -1.2000000 -0.1875076
v 0.0000000 -1.0000000 -0.1875076
v -0.0239210 -1.0000000 -0.1827517
v 0.0000000 -1.2000000 -0.1875076
v 0.0239210 -1.2000000 -0.1827517
v 0.0239210 -1.0000000 -0.1827517
v 0.0000000 -1.0000000 -0.1875076
v 0.0239210 -1.2000000 -0.1827517
v 0.0442000 -1.2000000 -0.1692000
v 0.0442000 -1.0000000 -0.1692000
v 0.0239210 -1.0000000 -0.1827517
v 0.0000000 -1.0000000 -0.2134000
v -0.0442000 -1.0000000 -0.1692000
v -0.0239210 -1.0000000 -0.1827517
v 0.0000000 -1.0000000 -0.2134000
v -0.0239210 -1.0000000 -0.1827517
v 0.0000000 -1.0000000 -0.1875076
v 0.0000000 -1.0000000 -0.2134000
v 0.0000000 -1.0000000 -0.1875076
v 0.0239210 -1.0000000 -0.1827517
v 0.0000000 -1.0000000 -0.2134000
v 0.0239210 -1.0000000 -0.1827517
v 0.0442000 -1.0000000 -0.1692000
v -0.0239210 -1.2000000 -0.1827517
v -0.0442000 -1.2000000 -0.1692000
v 0.0000000 -1.2000000 -0.2134000
v 0.0000000 -1.2000000 -0.1875076
v -0.0239210 -1.2000000 -0.1827517
v 0.0000000 -1.2000000 -0.2134000
v 0.0239210 -1.2000000 -0.1827517
v 0.0000000 -1.2000000 -0.1875076
v 0.0000000 -1.2000000 -0.2134000
v 0.0442000 -1.2000000 -0.1692000
v 0.0239210 -1.2000000 -0.1827517
v 0.0000000 -1.2000000 -0.2134000
v 0.0577438 -1.0750000 -0.1010813
v 0.0625000 -1.0750000 -0.1250000
v 0.0625000 -1.0750000 -0.0625000
v 0.0441938 -1.0750000 -0.0808063
v 0.0577438 -1.0750000 -0.1010813
v 0.0625000 -1.0750000 -0.0625000
v 0.0239188 -1.0750000 -0.0672563
v 0.0441938 -1.0750000 -0.0808063
v 0.0625000 -1.0750000 -0.0625000
v 0.0000000 -1.0750000 -0.0625000
v 0.0239188 -1.0750000 -0.0672563
v 0.0625000 -1.0750000 -0.0625000
v -0.0239188 -1.0750000 -0.0672563
v 0.0000000 -1.0750000 -0.0625000
v -0.0625000 -1.0750000 -0.0625000
v -0.0441938 -1.0750000 -0.0808063
v -0.0239188 -1.0750000 -0.0672563
v -0.0625000 -1.0750000 -0.0625000
v -0.0577438 -1.0750000 -0.1010813
v -0.0441938 -1.0750000 -0.0808063
v -0.0625000 -1.0750000 -0.0625000
v -0.0625000 -1.0750000 -0.1250000
v -0.0577438 -1.0750000 -0.1010813
v -0.0625000 -1.0750000 -0.0625000
v 0.0572750 -1.0750000 -0.1500000
v 0.0572750 -1.0000000 -0.1500000
v 0.0442000 -1.0000000 -0.1692000
v -0.0442000 -1.0000000 -0.1692000
v -0.0572750 -1.0000000 -0.1500000
v -0.0572750 -1.0750000 -0.1500000
v 0.0442000 -1.2000000 -0.1692000
v 0.0572750 -1.2000000 -0.1500000
v 0.0572750 -1.0750000 -0.1500000
v 0.0442000 -1.0000000 -0.1692000
v -0.0442000 -1.0000000 -0.1692000
v -0.0572750 -1.0750000 -0.1500000
v -0.0572750 -1.2000000 -0.1500000
v -0.0442000 -1.2000000 -0.1692000
v 0.0572750 -1.0750000 -0.1500000
v 0.0625000 -1.0750000 -0.1250000
v 0.0625000 -1.0000000 -0.1250000
v 0.0572750 -1.0000000 -0.1500000
v -0.0572750 -1.0000000 -0.1500000
v -0.0625000 -1.0000000 -0.1250000
v -0.0625000 -1.0750000 -0.1250000
v -0.0572750 -1.0750000 -0.1500000
v 0.5000000 -0.0000000 0.2500000
v 0.5000000 -1.2000000 0.2500000
v 0.5000000 -1.2000000 -0.2500000
v 0.5000000 -0.0000000 -0.2500000
v -0.5000000 -0.0000000 -0.2500000
v -0.5000000 -1.2000000 -0.2500000
v -0.5000000 -1.2000000 0.2500000
v -0.5000000 -0.0000000 0.2500000
v 0.5000000 -0.0000000 0.2500000
v 0.0625000 -0.0000000 -0.0625000
v -0.0625000 -0.0000000 -0.0625000
v -0.5000000 -0.0000000 0.2500000
v 0.5000000 -0.0000000 -0.2500000
v 0.0625000 -0.0000000 -0.1875000
v 0.0625000 -0.0000000 -0.0625000
v 0.5000000 -0.0000000 0.2500000
v -0.5000000 -0.0000000 -0.2500000
v -0.0625000 -0.0000000 -0.1875000
v 0.0625000 -0.0000000 -0.1875000
v 0.5000000 -0.0000000 -0.2500000
v -0.5000000 -0.0000000 0.2500000
v -0.0625000 -0.0000000 -0.0625000
v -0.0625000 -0.0000000 -0.1875000
v -0.5000000 -0.0000000 -0.2500000
v 0.1019025 -1.2000000 0.1154325
v 0.1000000 -1.2000000 0.1250000
v 0.1000000 -1.0750000 0.1250000
v 0.1019025 -1.0750000 0.1154325
v 0.1073225 -1.2000000 0.1073225
v 0.1019025 -1.2000000 0.1154325
v 0.1019025 -1.0750000 0.1154325
v 0.1073225 -1.0750000 0.1073225
v 0.1154325 -1.2000000 0.1019025
v 0.1073225 -1.2000000 0.1073225
v 0.1073225 -1.0750000 0.1073225
v 0.1154325 -1.0750000 0.1019025
v 0.1250000 -1.2000000 0.1000000
v 0.1154325 -1.2000000 0.1019025
v 0.1154325 -1.0750000 0.1019025
v 0.1250000 -1.0750000 0.1000000
v 0.1345675 -1.2000000 0.1019025
v 0.1250000 -1.2000000 0.1000000
v 0.1250000 -1.0750000 0.1000000
v 0.1345675 -1.0750000 0.1019025
v 0.1426775 -1.2000000 0.1073225
v 0.1345675 -1.2000000 0.1019025
v 0.1345675 -1.0750000 0.1019025
v 0.1426775 -1.0750000 0.1073225
v 0.1480975 -1.2000000 0.1154325
v 0.1426775 -1.2000000 0.1073225
v 0.1426775 -1.0750000 0.1073225
v 0.1480975 -1.0750000 0.1154325
v 0.1019025 -1.0750000 -0.1154325
v 0.1000000 -1.0750000 -0.1250000
v 0.1000000 -1.2000000 -0.1250000
v 0.1019025 -1.2000000 -0.1154325
v 0.1073225 -1.0750000 -0.1073225
v 0.1019025 -1.0750000 -0.1154325
v 0.1019025 -1.2000000 -0.1154325
v 0.1073225 -1.2000000 -0.1073225
v 0.1154325 -1.0750000 -0.1019025
v 0.1073225 -1.0750000 -0.1073225
v 0.1073225 -1.2000000 -0.1073225
v 0.1154325 -1.2000000 -0.1019025
v 0.1250000 -1.0750000 -0.1000000
v 0.1154325 -1.0750000 -0.1019025
v 0.1154325 -1.2000000 -0.1019025
v 0.1250000 -1.2000000 -0.1000000
v 0.1345675 -1.0750000 -0.1019025
v 0.1250000 -1.0750000 -0.1000000
v 0.1250000 -1.2000000 -0.1000000
v 0.1345675 -1.2000000 -0.1019025
v 0.1426775 -1.0750000 -0.1073225
v 0.1345675 -1.0750000 -0.1019025
v 0.1345675 -1.2000000 -0.1019025
v 0.1426775 -1.2000000 -0.1073225
v 0.1480975 -1.0750000 -0.1154325
v 0.1426775 -1.0750000 -0.1073225
v 0.1426775 -1.2000000 -0.1073225
v 0.1480975 -1.2000000 -0.1154325
v -0.1019025 -1.0750000 0.1154325
v -0.1000000 -1.0750000 0.1250000
v -0.1000000 -1.2000000 0.1250000
v -0.1019025 -1.2000000 0.1154325
v -0.1073225 -1.0750000 0.1073225
v -0.1019025 -1.0750000 0.1154325
v -0.1019025 -1.2000000 0.1154325
v -0.1073225 -1.2000000 0.1073225
v -0.1154325 -1.0750000 0.1019025
v -0.1073225 -1.0750000 0.1073225
v -0.1073225 -1.2000000 0.1073225
v -0.1154325 -1.2000000 0.1019025
v -0.1250000 -1.0750000 0.1000000
v -0.1154325 -1.0750000 0.1019025
v -0.1154325 -1.2000000 0.1019025
v -0.1250000 -1.2000000 0.1000000
v -0.1345675 -1.0750000 0.1019025
v -0.1250000 -1.0750000 0.1000000
v -0.1250000 -1.2000000 0.1000000
v -0.1345675 -1.2000000 0.1019025
v -0.1426775 -1.0750000 0.1073225
v -0.1345675 -1.0750000 0.1019025
v -0.1345675 -1.2000000 0.1019025
v -0.1426775 -1.2000000 0.1073225
v -0.1480975 -1.0750000 0.1154325
v -0.1426775 -1.0750000 0.1073225
v -0.1426775 -1.2000000 0.1073225
v -0.1480975 -1.2000000 0.1154325
v -0.1019025 -1.2000000 -0.1154325
v -0.1000000 -1.2000000 -0.1250000
v -0.1000000 -1.0750000 -0.1250000
v -0.1019025 -1.0750000 -0.1154325
v -0.1073225 -1.2000000 -0.1073225
v -0.1019025 -1.2000000 -0.1154325
v -0.1019025 -1.0750000 -0.1154325
v -0.1073225 -1.0750000 -0.1073225
v -0.1154325 -1.2000000 -0.1019025
v -0.1073225 -1.2000000 -0.1073225
v -0.1073225 -1.0750000 -0.1073225
v -0.1154325 -1.0750000 -0.1019025
v -0.1250000 -1.2000000 -0.1000000
v -0.1154325 -1.2000000 -0.1019025
v -0.1154325 -1.0750000 -0.1019025
v -0.1250000 -1.0750000 -0.1000000
v -0.1345675 -1.2000000 -0.1019025
v -0.1250000 -1.2000000 -0.1000000
v -0.1250000 -1.0750000 -0.1000000
v -0.1345675 -1.0750000 -0.1019025
v -0.1426775 -1.2000000 -0.1073225
v -0.1345675 -1.2000000 -0.1019025
v -0.1345675 -1.0750000 -0.1019025
v -0.1426775 -1.0750000 -0.1073225
v -0.1480975 -1.2000000 -0.1154325
v -0.1426775 -1.2000000 -0.1073225
v -0.1426775 -1.0750000 -0.1073225
v -0.1480975 -1.0750000 -0.1154325
v 0.1000000 -1.0750000 0.1000000
v 0.1019025 -1.0750000 0.1154325
v 0.1000000 -1.0750000 0.1250000
v 0.1000000 -1.0750000 0.1000000
v 0.1073225 -1.0750000 0.1073225
v 0.1019025 -1.0750000 0.1154325
v 0.1000000 -1.0750000 0.1000000
v 0.1154325 -1.0750000 0.1019025
v 0.1073225 -1.0750000 0.1073225
v 0.1000000 -1.0750000 0.1000000
v 0.1250000 -1.0750000 0.1000000
v 0.1154325 -1.0750000 0.1019025
v 0.1500000 -1.0750000 0.1000000
v 0.1345675 -1.0750000 0.1019025
v 0.1250000 -1.0750000 0.1000000
v 0.1500000 -1.0750000 0.1000000
v 0.1426775 -1.0750000 0.1073225
v 0.1345675 -1.0750000 0.1019025
v 0.1500000 -1.0750000 0.1000000
v 0.1480975 -1.0750000 0.1154325
v 0.1426775 -1.0750000 0.1073225
v 0.1000000 -1.0750000 -0.1250000
v 0.1019025 -1.0750000 -0.1154325
v 0.1000000 -1.0750000 -0.1000000
v 0.1019025 -1.0750000 -0.1154325
v 0.1073225 -1.0750000 -0.1073225
v 0.1000000 -1.0750000 -0.1000000
v 0.1073225 -1.0750000 -0.1073225
v 0.1154325 -1.0750000 -0.1019025
v 0.1000000 -1.0750000 -0.1000000
v 0.1154325 -1.0750000 -0.1019025
v 0.1250000 -1.0750000 -0.1000000
v 0.1000000 -1.0750000 -0.1000000
v 0.1250000 -1.0750000 -0.1000000
v 0.1345675 -1.0750000 -0.1019025
v 0.1500000 -1.0750000 -0.1000000
v 0.1345675 -1.0750000 -0.1019025
v 0.1426775 -1.0750000 -0.1073225
v 0.1500000 -1.0750000 -0.1000000
v 0.1426775 -1.0750000 -0.1073225
v 0.1480975 -1.0750000 -0.1154325
v 0.1500000 -1.0750000 -0.1000000
v -0.1000000 -1.0750000 0.1250000
v -0.1019025 -1.0750000 0.1154325
v -0.1000000 -1.0750000 0.1000000
v -0.1019025 -1.0750000 0.1154325
v -0.1073225 -1.0750000 0.1073225
v -0.1000000 -1.0750000 0.1000000
v -0.1073225 -1.0750000 0.1073225
v -0.1154325 -1.0750000 0.1019025
v -0.1000000 -1.0750000 0.1000000
v -0.1154325 -1.0750000 0.1019025
v -0.1250000 -1.0750000 0.1000000
v -0.1000000 -1.0750000 0.1000000
v -0.1250000 -1.0750000 0.1000000
v -0.1345675 -1.0750000 0.1019025
v -0.1500000 -1.0750000 0.1000000
v -0.1345675 -1.0750000 0.1019025
v -0.1426775 -1.0750000 0.1073225
v -0.1500000 -1.0750000 0.1000000
v -0.1426775 -1.0750000 0.1073225
v -0.1480975 -1.0750000 0.1154325
v -0.1500000 -1.0750000 0.1000000
v -0.1000000 -1.0750000 -0.1000000
v -0.1019025 -1.0750000 -0.1154325
v -0.1000000 -1.0750000 -0.1250000
v -0.1000000 -1.0750000 -0.1000000
v -0.1073225 -1.0750000 -0.1073225
v -0.1019025 -1.0750000 -0.1154325
v -0.1000000 -1.0750000 -0.1000000
v -0.1154325 -1.0750000 -0.1019025
v -0.1073225 -1.0750000 -0.1073225
v -0.1000000 -1.0750000 -0.1000000
v -0.1250000 -1.0750000 -0.1000000
v -0.1154325 -1.0750000 -0.1019025
v -0.1500000 -1.0750000 -0.1000000
v -0.1345675 -1.0750000 -0.1019025
v -0.1250000 -1.0750000 -0.1000000
v -0.1500000 -1.0750000 -0.1000000
v -0.1426775 -1.0750000 -0.1073225
v -0.1345675 -1.0750000 -0.1019025
v -0.1500000 -1.0750000 -0.1000000
v -0.1480975 -1.0750000 -0.1154325
v -0.1426775 -1.0750000 -0.1073225
v 0.1250000 -1.2000000 0.1250000
v 0.1000000 -1.2000000 0.1250000
v 0.1019025 -1.2000000 0.1154325
v 0.1250000 -1.2000000 0.1250000
v 0.1019025 -1.2000000 0.1154325
v 0.1073225 -1.2000000 0.1073225
v 0.1250000 -1.2000000 0.1250000
v 0.1073225 -1.2000000 0.1073225
v 0.1154325 -1.2000000 0.1019025
v 0.1250000 -1.2000000 0.1250000
v 0.1154325 -1.2000000 0.1019025
v 0.1250000 -1.2000000 0.1000000
v 0.1250000 -1.2000000 0.1250000
v 0.1250000 -1.2000000 0.1000000
v 0.1345675 -1.2000000 0.1019025
v 0.1250000 -1.2000000 0.1250000
v 0.1345675 -1.2000000 0.1019025
v 0.1426775 -1.2000000 0.1073225
v 0.1250000 -1.2000000 0.1250000
v 0.1426775 -1.2000000 0.1073225
v 0.1480975 -1.2000000 0.1154325
v 0.1019025 -1.2000000 -0.1154325
v 0.1000000 -1.2000000 -0.1250000
v 0.1250000 -1.2000000 -0.1250000
v 0.1073225 -1.2000000 -0.1073225
v 0.1019025 -1.2000000 -0.1154325
v 0.1250000 -1.2000000 -0.1250000
v 0.1154325 -1.2000000 -0.1019025
v 0.1073225 -1.2000000 -0.1073225
v 0.1250000 -1.2000000 -0.1250000
v 0.1250000 -1.2000000 -0.1000000
v 0.1154325 -1.2000000 -0.1019025
v 0.1250000 -1.2000000 -0.1250000
v 0.1345675 -1.2000000 -0.1019025
v 0.1250000 -1.2000000 -0.1000000
v 0.1250000 -1.2000000 -0.1250000
v 0.1426775 -1.2000000 -0.1073225
v 0.1345675 -1.2000000 -0.1019025
v 0.1250000 -1.2000000 -0.1250000
v 0.1480975 -1.2000000 -0.1154325
v 0.1426775 -1.2000000 -0.1073225
v 0.1250000 -1.2000000 -0.1250000
v -0.1019025 -1.2000000 0.1154325
v -0.1000000 -1.2000000 0.1250000
v -0.1250000 -1.2000000 0.1250000
v -0.1073225 -1.2000000 0.1073225
v -0.1019025 -1.2000000 0.1154325
v -0.1250000 -1.2000000 0.1250000
v -0.1154325 -1.2000000 0.1019025
v -0.1073225 -1.2000000 0.1073225
v -0.1250000 -1.2000000 0.1250000
v -0.1250000 -1.2000000 0.1000000
v -0.1154325 -1.2000000 0.1019025
v -0.1250000 -1.2000000 0.1250000
v -0.1345675 -1.2000000 0.1019025
v -0.1250000 -1.2000000 0.1000000
v -0.1250000 -1.2000000 0.1250000
v -0.1426775 -1.2000000 0.1073225
v -0.1345675 -1.2000000 0.1019025
v -0.1250000 -1.2000000 0.1250000
v -0.1480975 -1.2000000 0.1154325
v -0.1426775 -1.2000000 0.1073225
v -0.1250000 -1.2000000 0.1250000
v -0.1250000 -1.2000000 -0.1250000
v -0.1000000 -1.2000000 -0.1250000
v -0.1019025 -1.2000000 -0.1154325
v -0.1250000 -1.2000000 -0.1250000
v -0.1019025 -1.2000000 -0.1154325
v -0.1073225 -1.2000000 -0.1073225
v -0.1250000 -1.2000000 -0.1250000
v -0.1073225 -1.2000000 -0.1073225
v -0.1154325 -1.2000000 -0.1019025
v -0.1250000 -1.2000000 -0.1250000
v -0.1154325 -1.2000000 -0.1019025
v -0.1250000 -1.2000000 -0.1000000
v -0.1250000 -1.2000000 -0.1250000
v -0.1250000 -1.2000000 -0.1000000
v -0.1345675 -1.2000000 -0.1019025
v -0.1250000 -1.2000000 -0.1250000
v -0.1345675 -1.2000000 -0.1019025
v -0.1426775 -1.2000000 -0.1073225
v -0.1250000 -1.2000000 -0.1250000
v -0.1426775 -1.2000000 -0.1073225
v -0.1480975 -1.2000000 -0.1154325
v 0.1625013 -1.2000000 -0.1500450
v 0.1625013 -1.0750000 -0.1500450
v 0.1480988 -1.0750000 -0.1153875
v 0.1480988 -1.2000000 -0.1153875
v -0.1480988 -1.2000000 -0.1153875
v -0.1480988 -1.0750000 -0.1153875
v -0.1625013 -1.0750000 -0.1500450
v -0.1625013 -1.2000000 -0.1500450
v 0.1480988 -1.2000000 0.1153875
v 0.1480988 -1.0750000 0.1153875
v 0.1625013 -1.0750000 0.1500450
v 0.1625013 -1.2000000 0.1500450
v -0.1625013 -1.2000000 0.1500450
v -0.1625013 -1.0750000 0.1500450
v -0.1480988 -1.0750000 0.1153875
v -0.1480988 -1.2000000 0.1153875
v -0.1480975 -1.0750000 -0.1154325
v -0.1500000 -1.0750000 -0.1000000
v -0.1625000 -1.0750000 -0.1500000
v 0.1500000 -1.0750000 -0.1000000
v 0.1480975 -1.0750000 -0.1154325
v 0.1625000 -1.0750000 -0.1500000
v -0.1500000 -1.0750000 0.1000000
v -0.1480975 -1.0750000 0.1154325
v -0.1625000 -1.0750000 0.1500000
v 0.1480975 -1.0750000 0.1154325
v 0.1500000 -1.0750000 0.1000000
v 0.1625000 -1.0750000 0.1500000
v -0.1250000 -1.2000000 -0.1250000
v -0.1480975 -1.2000000 -0.1154325
v -0.1625000 -1.2000000 -0.1500000
v 0.1480975 -1.2000000 -0.1154325
v 0.1250000 -1.2000000 -0.1250000
v 0.1625000 -1.2000000 -0.1500000
v -0.1480975 -1.2000000 0.1154325
v -0.1250000 -1.2000000 0.1250000
v -0.1625000 -1.2000000 0.1500000
v 0.1250000 -1.2000000 0.1250000
v 0.1480975 -1.2000000 0.1154432
v 0.1625000 -1.2000000 0.1500000
v -0.1000000 -1.2000000 -0.1500000
v -0.1000000 -1.2000000 -0.1250000
v -0.1250000 -1.2000000 -0.1250000
v -0.1625000 -1.2000000 -0.1500000
v 0.1625000 -1.2000000 -0.1500000
v 0.1250000 -1.2000000 -0.1250000
v 0.1000000 -1.2000000 -0.1250000
v 0.1000000 -1.2000000 -0.1500000
v -0.1625000 -1.2000000 0.1500000
v -0.1250000 -1.2000000 0.1250000
v -0.1000000 -1.2000000 0.1250000
v -0.1000000 -1.2000000 0.1500000
v 0.1000000 -1.2000000 0.1500000
v 0.1000000 -1.2000000 0.1250000
v 0.1250000 -1.2000000 0.1250000
v 0.1625000 -1.2000000 0.1500000
v 0.1000000 -1.2000000 -0.1500000
v 0.1000000 -1.0750000 -0.1500000
v 0.0572750 -1.0750000 -0.1500000
v 0.0572750 -1.2000000 -0.1500000
v -0.0572750 -1.2000000 -0.1500000
v -0.0572750 -1.0750000 -0.1500000
v -0.1000000 -1.0750000 -0.1500000
v -0.1000000 -1.2000000 -0.1500000
v 0.1000000 -1.2000000 -0.1250000
v 0.1000000 -1.0750000 -0.1250000
v 0.1000000 -1.0750000 -0.1500000
v 0.1000000 -1.2000000 -0.1500000
v -0.1000000 -1.2000000 -0.1500000
v -0.1000000 -1.0750000 -0.1500000
v -0.1000000 -1.0750000 -0.1250000
v -0.1000000 -1.2000000 -0.1250000
v -0.1500000 -1.0750000 -0.1000000
v -0.1000000 -1.0750000 -0.1000000
v -0.0625000 -1.0750000 -0.0625000
v 0.0625000 -1.0750000 -0.0625000
v 0.1000000 -1.0750000 -0.1000000
v 0.1500000 -1.0750000 -0.1000000
v -0.0572750 -1.0750000 -0.1500000
v -0.0625000 -1.0750000 -0.1250000
v -0.1000000 -1.0750000 -0.1250000
v -0.1000000 -1.0750000 -0.1500000
v 0.1000000 -1.0750000 -0.1500000
v 0.1000000 -1.0750000 -0.1250000
v 0.0625000 -1.0750000 -0.1250000
v 0.0572750 -1.0750000 -0.1500000
v -0.0625000 -1.0750000 -0.1250000
v -0.0625000 -1.0750000 -0.0625000
v -0.1000000 -1.0750000 -0.1000000
v -0.1000000 -1.0750000 -0.1250000
v 0.1000000 -1.0750000 -0.1250000
v 0.1000000 -1.0750000 -0.1000000
v 0.0625000 -1.0750000 -0.0625000
v 0.0625000 -1.0750000 -0.1250000
v 0.4000000 -1.0750000 -0.1500000
v 0.4000000 -1.2000000 -0.1500000
v 0.4000000 -1.2000000 0.1500000
v 0.4000000 -1.0750000 0.1500000
v 0.1625000 -1.0750000 -0.1500000
v 0.1625000 -1.2000000 -0.1500000
v 0.4000000 -1.2000000 -0.1500000
v 0.4000000 -1.0750000 -0.1500000
v 0.1625000 -1.2000000 0.1500000
v 0.1625000 -1.0750000 0.1500000
v 0.4000000 -1.0750000 0.1500000
v 0.4000000 -1.2000000 0.1500000
v 0.1625000 -1.0750000 0.1500000
v 0.1625000 -1.0750000 -0.1500000
v 0.4000000 -1.0750000 -0.1500000
v 0.4000000 -1.0750000 0.1500000
v -0.4000000 -1.0750000 0.1500000
v -0.4000000 -1.2000000 0.1500000
v -0.4000000 -1.2000000 -0.1500000
v -0.4000000 -1.0750000 -0.1500000
v -0.4000000 -1.0750000 -0.1500000
v -0.4000000 -1.2000000 -0.1500000
v -0.1625000 -1.2000000 -0.1500000
v -0.1625000 -1.0750000 -0.1500000
v -0.4000000 -1.2000000 0.1500000
v -0.4000000 -1.0750000 0.1500000
v -0.1625000 -1.0750000 0.1500000
v -0.1625000 -1.2000000 0.1500000
v -0.4000000 -1.0750000 0.1500000
v -0.4000000 -1.0750000 -0.1500000
v -0.1625000 -1.0750000 -0.1500000
v -0.1625000 -1.0750000 0.1500000
v -0.1000000 -1.0750000 0.1500000
v -0.1000000 -1.0750000 0.1250000
v 0.1000000 -1.0750000 0.1250000
v 0.1000000 -1.0750000 0.1500000
v -0.1000000 -1.2000000 0.1500000
v -0.1000000 -1.2000000 0.1250000
v -0.1000000 -1.0750000 0.1250000
v -0.1000000 -1.0750000 0.1500000
v 0.1000000 -1.2000000 0.1250000
v 0.1000000 -1.2000000 0.1500000
v 0.1000000 -1.0750000 0.1500000
v 0.1000000 -1.0750000 0.1250000
v 0.1000000 -1.2000000 0.1500000
v -0.1000000 -1.2000000 0.1500000
v -0.1000000 -1.0750000 0.1500000
v 0.1000000 -1.0750000 0.1500000
v 0.0625000 -1.0750000 -0.0625000
v 0.1000000 -1.0750000 0.1000000
v -0.1000000 -1.0750000 0.1000000
v -0.0625000 -1.0750000 -0.0625000
v 0.1000000 -1.0750000 0.1000000
v 0.1000000 -1.0750000 0.1250000
v -0.1000000 -1.0750000 0.1250000
v -0.1000000 -1.0750000 0.1000000
v -0.1500000 -1.0750000 -0.1000000
v -0.0625000 -1.0750000 -0.0625000
v -0.1000000 -1.0750000 0.1000000
v -0.1500000 -1.0750000 0.1000000
v 0.1500000 -1.0750000 0.1000000
v 0.1000000 -1.0750000 0.1000000
v 0.0625000 -1.0750000 -0.0625000
v 0.1500000 -1.0750000 -0.1000000
v -0.1625000 -1.0750000 -0.1500000
v -0.1500000 -1.0750000 -0.1000000
v -0.1500000 -1.0750000 0.1000000
v -0.1625000 -1.0750000 0.1500000
v 0.1625000 -1.0750000 0.1500000
v 0.1500000 -1.0750000 0.1000000
v 0.1500000 -1.0750000 -0.1000000
v 0.1625000 -1.0750000 -0.1500000
v 0.5000000 -1.2000000 -0.2500000
v 0.0000000 -1.2000000 -0.2134000
v -0.5000000 -1.2000000 -0.2500000
v 0.0442000 -1.2000000 -0.1692000
v 0.0000000 -1.2000000 -0.2134000
v 0.5000000 -1.2000000 -0.2500000
v 0.0000000 -1.2000000 -0.2134000
v -0.0442000 -1.2000000 -0.1692000
v -0.5000000 -1.2000000 -0.2500000
v 0.1000000 -1.2000000 -0.1500000
v 0.0572750 -1.2000000 -0.1500000
v 0.0442000 -1.2000000 -0.1692000
v 0.5000000 -1.2000000 -0.2500000
v -0.5000000 -1.2000000 -0.2500000
v -0.0442000 -1.2000000 -0.1692000
v -0.0572750 -1.2000000 -0.1500000
v -0.1000000 -1.2000000 -0.1500000
v 0.1625000 -1.2000000 -0.1500000
v 0.1000000 -1.2000000 -0.1500000
v 0.5000000 -1.2000000 -0.2500000
v -0.1000000 -1.2000000 -0.1500000
v -0.1625000 -1.2000000 -0.1500000
v -0.5000000 -1.2000000 -0.2500000
v 0.4000000 -1.2000000 -0.1500000
v 0.1625000 -1.2000000 -0.1500000
v 0.5000000 -1.2000000 -0.2500000
v -0.1625000 -1.2000000 -0.1500000
v -0.4000000 -1.2000000 -0.1500000
v -0.5000000 -1.2000000 -0.2500000
v 0.5000000 -1.2000000 0.2500000
v 0.4000000 -1.2000000 0.1500000
v 0.4000000 -1.2000000 -0.1500000
v 0.5000000 -1.2000000 -0.2500000
v 0.1625000 -1.2000000 0.1500000
v 0.4000000 -1.2000000 0.1500000
v 0.5000000 -1.2000000 0.2500000
v 0.1000000 -1.2000000 0.1500000
v 0.1625000 -1.2000000 0.1500000
v 0.5000000 -1.2000000 0.2500000
v -0.5000000 -1.2000000 0.2500000
v -0.1000000 -1.2000000 0.1500000
v 0.1000000 -1.2000000 0.1500000
v 0.5000000 -1.2000000 0.2500000
v -0.1625000 -1.2000000 0.1500000
v -0.1000000 -1.2000000 0.1500000
v -0.5000000 -1.2000000 0.2500000
v -0.4000000 -1.2000000 0.1500000
v -0.1625000 -1.2000000 0.1500000
v -0.5000000 -1.2000000 0.2500000
v -0.5000000 -1.2000000 -0.2500000
v -0.4000000 -1.2000000 -0.1500000
v -0.4000000 -1.2000000 0.1500000
v -0.5000000 -1.2000000 0.2500000
v -0.3750000 -0.1250000 0.2500000
v -0.3750000 -0.1250000 -0.0625000
v 0.3750000 -0.1250000 -0.0625000
v 0.3750000 -0.1250000 0.2500000
v 0.3750000 -0.1250000 -0.0625000
v 0.3750000 -1.0000000 -0.0625000
v 0.3750000 -1.0000000 0.2500000
v 0.3750000 -0.1250000 0.2500000
v -0.3750000 -0.1250000 0.2500000
v -0.3750000 -1.0000000 0.2500000
v -0.3750000 -1.0000000 -0.0625000
v -0.3750000 -0.1250000 -0.0625000
v 0.3750000 -1.0000000 0.2500000
v 0.0625000 -1.0000000 -0.0625000
v -0.0625000 -1.0000000 -0.0625000
v -0.3750000 -1.0000000 0.2500000
v -0.0625000 -1.0000000 -0.0625000
v -0.3750000 -1.0000000 -0.0625000
v -0.3750000 -1.0000000 0.2500000
v 0.3750000 -1.0000000 0.2500000
v 0.3750000 -1.0000000 -0.0625000
v 0.0625000 -1.0000000 -0.0625000
v -0.5000000 -0.0000000 0.2500000
v -0.3750000 -0.1250000 0.2500000
v 0.3750000 -0.1250000 0.2500000
v 0.5000000 -0.0000000 0.2500000
v -0.5000000 -1.2000000 0.2500000
v -0.3750000 -1.0000000 0.2500000
v -0.3750000 -0.1250000 0.2500000
v -0.5000000 -0.0000000 0.2500000
v 0.5000000 -1.2000000 0.2500000
v 0.3750000 -1.0000000 0.2500000
v -0.3750000 -1.0000000 0.2500000
v -0.5000000 -1.2000000 0.2500000
v 0.5000000 -0.0000000 0.2500000
v 0.3750000 -0.1250000 0.2500000
v 0.3750000 -1.0000000 0.2500000
v 0.5000000 -1.2000000 0.2500000
v -0.4250000 -0.0750000 -0.0625000
v -0.3750000 -0.1250000 -0.0625000
v -0.3750000 -1.0000000 -0.0625000
v -0.4250000 -1.0000000 -0.0625000
v -0.0625000 -0.0750000 -0.0625000
v -0.3750000 -0.1250000 -0.0625000
v -0.4250000 -0.0750000 -0.0625000
v 0.0625000 -0.0750000 -0.0625000
v 0.3750000 -0.1250000 -0.0625000
v -0.3750000 -0.1250000 -0.0625000
v -0.0625000 -0.0750000 -0.0625000
v 0.4250000 -0.0750000 -0.0625000
v 0.3750000 -0.1250000 -0.0625000
v 0.0625000 -0.0750000 -0.0625000
v 0.4250000 -1.0000000 -0.0625000
v 0.3750000 -1.0000000 -0.0625000
v 0.3750000 -0.1250000 -0.0625000
v 0.4250000 -0.0750000 -0.0625000
v 0.4250000 -1.0000000 -0.0625000
v 0.4250000 -0.0750000 -0.0625000
v 0.4250000 -0.0750000 -0.2500000
v 0.4250000 -1.0000000 -0.2500000
v -0.4250000 -1.0000000 -0.2500000
v -0.4250000 -0.0750000 -0.2500000
v -0.4250000 -0.0750000 -0.0625000
v -0.4250000 -1.0000000 -0.0625000
v -0.4250000 -1.0000000 -0.2500000
v -0.4250000 -1.0000000 -0.0625000
v -0.3750000 -1.0000000 -0.0625000
v 0.3750000 -1.0000000 -0.0625000
v 0.4250000 -1.0000000 -0.0625000
v 0.4250000 -1.0000000 -0.2500000
v -0.4250000 -1.0000000 -0.2500000
v 0.0000000 -1.0000000 -0.2134000
v 0.4250000 -1.0000000 -0.2500000
v -0.0625000 -1.0000000 -0.0625000
v -0.0625000 -1.0000000 -0.1250000
v -0.3750000 -1.0000000 -0.0625000
v 0.3750000 -1.0000000 -0.0625000
v 0.0625000 -1.0000000 -0.1250000
v 0.0625000 -1.0000000 -0.0625000
v -0.0573500 -1.0000000 -0.1500000
v -0.0442000 -1.0000000 -0.1692000
v -0.3750000 -1.0000000 -0.0625000
v 0.3750000 -1.0000000 -0.0625000
v 0.0442000 -1.0000000 -0.1692000
v 0.0573500 -1.0000000 -0.1500000
v -0.0625000 -1.0000000 -0.1250000
v -0.0572750 -1.0000000 -0.1500000
v -0.3750000 -1.0000000 -0.0625000
v 0.3750000 -1.0000000 -0.0625000
v 0.0572750 -1.0000000 -0.1500000
v 0.0625000 -1.0000000 -0.1250000
v 0.4250000 -0.0750000 -0.2500000
v 0.0625000 -0.0750000 -0.1875000
v -0.0625000 -0.0750000 -0.1875000
v -0.4250000 -0.0750000 -0.2500000
v -0.0625000 -0.0750000 -0.1875000
v -0.0625000 -0.0750000 -0.0625000
v -0.4250000 -0.0750000 -0.0625000
v -0.4250000 -0.0750000 -0.2500000
v 0.4250000 -0.0750000 -0.2500000
v 0.4250000 -0.0750000 -0.0625000
v 0.0625000 -0.0750000 -0.0625000
v 0.0625000 -0.0750000 -0.1875000
v -0.0442000 -1.0000000 -0.1692000
v 0.0000000 -1.0000000 -0.2134000
v -0.4250000 -1.0000000 -0.2500000
v -0.3750000 -1.0000000 -0.0625000
v 0.3750000 -1.0000000 -0.0625000
v 0.4250000 -1.0000000 -0.2500000
v 0.0000000 -1.0000000 -0.2134000
v 0.0442000 -1.0000000 -0.1692000
v 0.5000000 -0.0000000 -0.2500000
v 0.4250000 -0.0750000 -0.2500000
v -0.4250000 -0.0750000 -0.2500000
v -0.5000000 -0.0000000 -0.2500000
v 0.5000000 -1.2000000 -0.2500000
v 0.4250000 -1.0000000 -0.2500000
v 0.4250000 -0.0750000 -0.2500000
v 0.5000000 -0.0000000 -0.2500000
v -0.5000000 -1.2000000 -0.2500000
v -0.4250000 -1.0000000 -0.2500000
v 0.4250000 -1.0000000 -0.2500000
v 0.5000000 -1.2000000 -0.2500000
v -0.5000000 -0.0000000 -0.2500000
v -0.4250000 -0.0750000 -0.2500000
v -0.4250000 -1.0000000 -0.2500000
v -0.5000000 -1.2000000 -0.2500000
s off
f 1 2 3
f 1 3 4
f 5 6 7
f 5 7 8
f 9 10 11
f 9 11 12
f 13 14 15
f 13 15 16
f 17 18 19
f 17 19 20
f 21 22 23
f 21 23 24
f 25 26 27
f 25 27 28
f 29 30 31
f 29 31 32
f 33 34 35
f 33 35 36
f 37 38 39
f 37 39 40
f 41 42 43
f 41 43 44
f 45 46 47
f 45 47 48
f 49 50 51
f 49 51 52
f 53 54 55
f 53 55 56
f 57 58 59
f 57 59 60
f 61 62 63
f 61 63 64
f 65 66 67
f 65 67 68
f 69 70 71
f 69 71 72
f 73 74 75
f 73 75 76
f 77 78 79
f 77 79 80
f 81 82 83
f 81 83 84
f 85 86 87
f 85 87 88
f 89 90 91
f 89 91 92
f 93 94 95
f 93 95 96
f 97 98 99
f 97 99 100
f 101 102 103
f 101 103 104
f 105 106 107
f 105 107 108
f 109 110 111
f 109 111 112
f 113 114 115
f 113 115 116
f 117 118 119
f 117 119 120
f 121 122 123
f 121 123 124
f 125 126 127
f 125 127 128
f 129 130 131
f 129 131 132
f 133 134 135
f 133 135 136
f 137 138 139
f 137 139 140
f 141 142 143
f 141 143 144
f 145 146 147
f 145 147 148
f 149 150 151
f 149 151 152
f 153 154 155
f 153 155 156
f 157 158 159
f 157 159 160
f 161 162 163
f 161 163 164
f 165 166 167
f 165 167 168
f 169 170 171
f 169 171 172
f 173 174 175
f 173 175 176
f 177 178 179
f 177 179 180
f 181 182 183
f 181 183 184
f 185 186 187
f 185 187 188
f 189 190 191
f 189 191 192
f 193 194 195
f 193 195 196
f 197 198 199
f 197 199 200
f 201 202 203
f 201 203 204
f 205 206 207
f 205 207 208
f 209 210 211
f 209 211 212
f 213 214 215
f 213 215 216
f 217 218 219
f 217 219 220
f 221 222 223
f 221 223 224
f 225 226 227
f 225 227 228
f 229 230 231
f 229 231 232
f 233 234 235
f 233 235 236
f 237 238 239
f 237 239 240
f 241 242 243
f 241 243 244
f 245 246 247
f 245 247 248
f 249 250 251
f 249 251 252
f 253 254 255
f 253 255 256
f 257 258 259
f 257 259 260
f 261 262 263
f 261 263 264
f 265 266 267
f 265 267 268
f 269 270 271
f 269 271 272
f 273 274 275
f 273 275 276
f 277 278 279
f 277 279 280
f 281 282 283
f 281 283 284
f 285 286 287
f 285 287 288
f 289 290 291
f 289 291 292
f 293 294 295
f 293 295 296
f 297 298 299
f 297 299 300
f 301 302 303
f 301 303 304
f 305 306 307
f 305 307 308
f 309 310 311
f 309 311 312
f 313 314 315
f 313 315 316
f 317 318 319
f 317 319 320
f 321 322 323
f 321 323 324
f 325 326 327
f 325 327 328
f 329 330 331
f 329 331 332
f 333 334 335
f 333 335 336
f 337 338 339
f 337 339 340
f 341 342 343
f 341 343 344
f 345 346 347
f 345 347 348
f 349 350 351
f 349 351 352
f 353 354 355
f 353 355 356
f 357 358 359
f 357 359 360
f 361 362 363
f 361 363 364
f 365 366 367
f 365 367 368
f 369 370 371
f 369 371 372
f 373 374 375
f 373 375 376
f 377 378 379
f 377 379 380
f 381 382 383
f 381 383 384
f 385 386 387
f 388 389 390
f 391 392 393
f 394 395 396
f 397 398 399
f 400 401 402
f 403 404 405
f 406 407 408
f 409 410 411
f 412 413 414
f 415 416 417
f 418 419 420
f 421 422 423
f 424 425 426
f 427 428 429
f 430 431 432
f 433 434 435
f 433 435 436
f 437 438 439
f 437 439 440
f 441 442 443
f 441 443 444
f 445 446 447
f 445 447 448
f 449 450 451
f 449 451 452
f 453 454 455
f 453 455 456
f 457 458 459
f 457 459 460
f 461 462 463
f 461 463 464
f 465 466 467
f 465 467 468
f 469 470 471
f 469 471 472
f 473 474 475
f 473 475 476
f 477 478 479
f 477 479 480
f 481 482 483
f 481 483 484
f 485 486 487
f 485 487 488
f 489 490 491
f 489 491 492
f 493 494 495
f 493 495 496
f 497 498 499
f 500 501 502
f 503 504 505
f 506 507 508
f 509 510 511
f 512 513 514
f 515 516 517
f 518 519 520
f 521 522 523
f 524 525 526
f 527 528 529
f 530 531 532
f 533 534 535
f 536 537 538
f 539 540 541
f 542 543 544
f 545 546 547
f 548 549 550
f 551 552 553
f 554 555 556
f 557 558 559
f 560 561 562
f 563 564 565
f 566 567 568
f 569 570 571
f 569 571 572
f 573 574 575
f 573 575 576
f 577 578 579
f 577 579 580
f 581 582 583
f 581 583 584
f 585 586 587
f 585 587 588
f 589 590 591
f 589 591 592
f 593 594 595
f 593 595 596
f 597 598 599
f 597 599 600
f 601 602 603
f 601 603 604
f 605 606 607
f 605 607 608
f 609 610 611
f 609 611 612
f 613 614 615
f 613 615 616
f 617 618 619
f 620 621 622
f 623 624 625
f 626 627 628
f 629 630 631
f 632 633 634
f 635 636 637
f 638 639 640
f 641 642 643
f 644 645 646
f 647 648 649
f 650 651 652
f 653 654 655
f 656 657 658
f 659 660 661
f 662 663 664
f 665 666 667
f 668 669 670
f 671 672 673
f 671 673 674
f 675 676 677
f 675 677 678
f 679 680 681
f 679 681 682
f 683 684 685
f 683 685 686
f 687 688 689
f 687 689 690
f 691 692 693
f 691 693 694
f 695 696 697
f 695 697 698
f 699 700 701
f 699 701 702
f 703 704 705
f 703 705 706
f 707 708 709
f 707 709 710
f 711 712 713
f 711 713 714
f 715 716 717
f 715 717 718
f 719 720 721
f 719 721 722
f 723 724 725
f 723 725 726
f 727 728 729
f 727 729 730
f 731 732 733
f 731 733 734
f 735 736 737
f 735 737 738
f 739 740 741
f 739 741 742
f 743 744 745
f 743 745 746
f 747 748 749
f 747 749 750
f 751 752 753
f 751 753 754
f 755 756 757
f 755 757 758
f 759 760 761
f 759 761 762
f 763 764 765
f 763 765 766
f 767 768 769
f 767 769 770
f 771 772 773
f 771 773 774
f 775 776 777
f 775 777 778
f 779 780 781
f 779 781 782
f 783 784 785
f 783 785 786
f 787 788 789
f 787 789 790
f 791 792 793
f 791 793 794
f 795 796 797
f 795 797 798
f 799 800 801
f 799 801 802
f 803 804 805
f 803 805 806
f 807 808 809
f 807 809 810
f 811 812 813
f 811 813 814
f 815 816 817
f 815 817 818
f 819 820 821
f 819 821 822
f 823 824 825
f 826 827 828
f 829 830 831
f 832 833 834
f 835 836 837
f 838 839 840
f 841 842 843
f 844 845 846
f 847 848 849
f 850 851 852
f 853 854 855
f 856 857 858
f 859 860 861
f 862 863 864
f 865 866 867
f 868 869 870
f 871 872 873
f 874 875 876
f 877 878 879
f 880 881 882
f 883 884 885
f 886 887 888
f 889 890 891
f 892 893 894
f 895 896 897
f 898 899 900
f 901 902 903
f 904 905 906
f 907 908 909
f 910 911 912
f 913 914 915
f 916 917 918
f 919 920 921
f 922 923 924
f 925 926 927
f 928 929 930
f 931 932 933
f 934 935 936
f 937 938 939
f 940 941 942
f 943 944 945
f 946 947 948
f 949 950 951
f 952 953 954
f 955 956 957
f 958 959 960
f 961 962 963
f 964 965 966
f 967 968 969
f 970 971 972
f 973 974 975
f 976 977 978
f 979 980 981
f 982 983 984
f 985 986 987
f 988 989 990
f 991 992 993
f 991 993 994
f 995 996 997
f 995 997 998
f 999 1000 1001
f 999 1001 1002
f 1003 1004 1005
f 1003 1005 1006
f 1007 1008 1009
f 1010 1011 1012
f 1013 1014 1015
f 1016 1017 1018
f 1019 1020 1021
f 1022 1023 1024
f 1025 1026 1027
f 1028 1029 1030
f 1031 1032 1033
f 1031 1033 1034
f 1035 1036 1037
f 1035 1037 1038
f 1039 1040 1041
f 1039 1041 1042
f 1043 1044 1045
f 1043 1045 1046
f 1047 1048 1049
f 1047 1049 1050
f 1051 1052 1053
f 1051 1053 1054
f 1055 1056 1057
f 1055 1057 1058
f 1059 1060 1061
f 1059 1061 1062
f 1063 1064 1065
f 1066 1067 1068
f 1069 1070 1071
f 1069 1071 1072
f 1073 1074 1075
f 1073 1075 1076
f 1077 1078 1079
f 1077 1079 1080
f 1081 1082 1083
f 1081 1083 1084
f 1085 1086 1087
f 1085 1087 1088
f 1089 1090 1091
f 1089 1091 1092
f 1093 1094 1095
f 1093 1095 1096
f 1097 1098 1099
f 1097 1099 1100
f 1101 1102 1103
f 1101 1103 1104
f 1105 1106 1107
f 1105 1107 1108
f 1109 1110 1111
f 1109 1111 1112
f 1113 1114 1115
f 1113 1115 1116
f 1117 1118 1119
f 1117 1119 1120
f 1121 1122 1123
f 1121 1123 1124
f 1125 1126 1127
f 1125 1127 1128
f 1129 1130 1131
f 1129 1131 1132
f 1133 1134 1135
f 1133 1135 1136
f 1137 1138 1139
f 1137 1139 1140
f 1141 1142 1143
f 1141 1143 1144
f 1145 1146 1147
f 1145 1147 1148
f 1149 1150 1151
f 1149 1151 1152
f 1153 1154 1155
f 1153 1155 1156
f 1157 1158 1159
f 1160 1161 1162
f 1163 1164 1165
f 1166 1167 1168
f 1166 1168 1169
f 1170 1171 1172
f 1170 1172 1173
f 1174 1175 1176
f 1177 1178 1179
f 1180 1181 1182
f 1183 1184 1185
f 1186 1187 1188
f 1186 1188 1189
f 1190 1191 1192
f 1193 1194 1195
f 1196 1197 1198
f 1196 1198 1199
f 1200 1201 1202
f 1203 1204 1205
f 1206 1207 1208
f 1206 1208 1209
f 1210 1211 1212
f 1210 1212 1213
f 1214 1215 1216
f 1214 1216 1217
f 1218 1219 1220
f 1218 1220 1221
f 1222 1223 1224
f 1222 1224 1225
f 1226 1227 1228
f 1229 1230 1231
f 1232 1233 1234
f 1232 1234 1235
f 1236 1237 1238
f 1236 1238 1239
f 1240 1241 1242
f 1240 1242 1243
f 1244 1245 1246
f 1244 1246 1247
f 1248 1249 1250
f 1248 1250 1251
f 1252 1253 1254
f 1255 1256 1257
f 1255 1257 1258
f 1259 1260 1261
f 1262 1263 1264
f 1262 1264 1265
f 1266 1267 1268
f 1266 1268 1269
f 1270 1271 1272
f 1270 1272 1273
f 1274 1275 1276
f 1277 1278 1279
f 1280 1281 1282
f 1283 1284 1285
f 1286 1287 1288
f 1289 1290 1291
f 1292 1293 1294
f 1295 1296 1297
f 1298 1299 1300
f 1301 1302 1303
f 1301 1303 1304
f 1305 1306 1307
f 1305 1307 1308
f 1309 1310 1311
f 1309 1311 1312
f 1313 1314 1315
f 1313 1315 1316
f 1317 1318 1319
f 1317 1319 1320
f 1321 1322 1323
f 1321 1323 1324
f 1325 1326 1327
f 1325 1327 1328
f 1329 1330 1331
f 1329 1331 1332
f 1333 1334 1335
f 1333 1335 1336
