# Baked from official LDraw part 60596.dat
o ldraw_60596
v 0.9000000 -3.5000000 -0.1500000
v -0.9000000 -3.5000000 -0.1500000
v -0.9000000 -3.6000000 -0.1500000
v 0.9000000 -3.6000000 -0.1500000
v -0.9000000 -3.5000000 -0.1500000
v -0.9000000 -3.5000000 0.1500000
v -0.9000000 -3.6000000 0.1500000
v -0.9000000 -3.6000000 -0.1500000
v 0.9000000 -3.6000000 -0.1500000
v 0.9000000 -3.6000000 0.1500000
v 0.9000000 -3.5000000 0.1500000
v 0.9000000 -3.5000000 -0.1500000
v 0.7429800 -3.5000000 0.1500000
v 0.7429800 -3.6000000 0.1500000
v -0.7429800 -3.6000000 0.1500000
v -0.7429800 -3.5000000 0.1500000
v -0.8570200 -3.6000000 0.1500000
v -0.9000000 -3.6000000 0.1500000
v -0.9000000 -3.5000000 0.1500000
v -0.8570200 -3.5000000 0.1500000
v 0.8570200 -3.5000000 0.1500000
v 0.9000000 -3.5000000 0.1500000
v 0.9000000 -3.6000000 0.1500000
v 0.8570200 -3.6000000 0.1500000
v -0.8441943 -3.5000000 0.1691943
v -0.8239179 -3.5000000 0.1827442
v -0.8239179 -3.6000000 0.1827442
v -0.8441943 -3.6000000 0.1691943
v -0.8239179 -3.5000000 0.1827442
v -0.8000000 -3.5000000 0.1874995
v -0.8000000 -3.6000000 0.1874995
v -0.8239179 -3.6000000 0.1827442
v -0.8000000 -3.5000000 0.1874995
v -0.7760821 -3.5000000 0.1827442
v -0.7760821 -3.6000000 0.1827442
v -0.8000000 -3.6000000 0.1874995
v -0.7760821 -3.5000000 0.1827442
v -0.7558058 -3.5000000 0.1691943
v -0.7558058 -3.6000000 0.1691943
v -0.7760821 -3.6000000 0.1827442
v -0.7558050 -3.6000000 0.1691950
v -0.7558050 -3.5000000 0.1691950
v -0.7429800 -3.5000000 0.1500000
v -0.7429800 -3.6000000 0.1500000
v -0.8570200 -3.6000000 0.1500000
v -0.8570200 -3.5000000 0.1500000
v -0.8441950 -3.5000000 0.1691950
v -0.8441950 -3.6000000 0.1691950
v 0.8441943 -3.6000000 0.1691943
v 0.8239179 -3.6000000 0.1827442
v 0.8239179 -3.5000000 0.1827442
v 0.8441943 -3.5000000 0.1691943
v 0.8239179 -3.6000000 0.1827442
v 0.8000000 -3.6000000 0.1874995
v 0.8000000 -3.5000000 0.1874995
v 0.8239179 -3.5000000 0.1827442
v 0.8000000 -3.6000000 0.1874995
v 0.7760821 -3.6000000 0.1827442
v 0.7760821 -3.5000000 0.1827442
v 0.8000000 -3.5000000 0.1874995
v 0.7760821 -3.6000000 0.1827442
v 0.7558058 -3.6000000 0.1691943
v 0.7558058 -3.5000000 0.1691943
v 0.7760821 -3.5000000 0.1827442
v 0.7429800 -3.6000000 0.1500000
v 0.7429800 -3.5000000 0.1500000
v 0.7558050 -3.5000000 0.1691950
v 0.7558050 -3.6000000 0.1691950
v 0.8441950 -3.6000000 0.1691950
v 0.8441950 -3.5000000 0.1691950
v 0.8570200 -3.5000000 0.1500000
v 0.8570200 -3.6000000 0.1500000
v -0.7375000 -3.5000000 0.0625000
v -0.7375000 -3.5000000 0.1250000
v -0.7422563 -3.5000000 0.1010813
v -0.7375000 -3.5000000 0.0625000
v -0.7422563 -3.5000000 0.1010813
v -0.7558063 -3.5000000 0.0808063
v -0.7375000 -3.5000000 0.0625000
v -0.7558063 -3.5000000 0.0808063
v -0.7760813 -3.5000000 0.0672563
v -0.7375000 -3.5000000 0.0625000
v -0.7760813 -3.5000000 0.0672563
v -0.8000000 -3.5000000 0.0625000
v -0.8625000 -3.5000000 0.0625000
v -0.8000000 -3.5000000 0.0625000
v -0.8239188 -3.5000000 0.0672563
v -0.8625000 -3.5000000 0.0625000
v -0.8239188 -3.5000000 0.0672563
v -0.8441938 -3.5000000 0.0808063
v -0.8625000 -3.5000000 0.0625000
v -0.8441938 -3.5000000 0.0808063
v -0.8577438 -3.5000000 0.1010813
v -0.8625000 -3.5000000 0.0625000
v -0.8577438 -3.5000000 0.1010813
v -0.8625000 -3.5000000 0.1250000
v 0.8625000 -3.5000000 0.0625000
v 0.8625000 -3.5000000 0.1250000
v 0.8577438 -3.5000000 0.1010813
v 0.8625000 -3.5000000 0.0625000
v 0.8577438 -3.5000000 0.1010813
v 0.8441938 -3.5000000 0.0808063
v 0.8625000 -3.5000000 0.0625000
v 0.8441938 -3.5000000 0.0808063
v 0.8239188 -3.5000000 0.0672563
v 0.8625000 -3.5000000 0.0625000
v 0.8239188 -3.5000000 0.0672563
v 0.8000000 -3.5000000 0.0625000
v 0.7375000 -3.5000000 0.0625000
v 0.8000000 -3.5000000 0.0625000
v 0.7760813 -3.5000000 0.0672563
v 0.7375000 -3.5000000 0.0625000
v 0.7760813 -3.5000000 0.0672563
v 0.7558063 -3.5000000 0.0808063
v 0.7375000 -3.5000000 0.0625000
v 0.7558063 -3.5000000 0.0808063
v 0.7422563 -3.5000000 0.1010813
v 0.7375000 -3.5000000 0.0625000
v 0.7422563 -3.5000000 0.1010813
v 0.7375000 -3.5000000 0.1250000
v 0.7422575 -3.5000000 0.1489175
v 0.7429800 -3.5000000 0.1500000
v -0.7429800 -3.5000000 0.1500000
v -0.7422575 -3.5000000 0.1489175
v 0.7422575 -3.5000000 0.1489175
v -0.7422575 -3.5000000 0.1489175
v -0.7375000 -3.5000000 0.1250000
v 0.7375000 -3.5000000 0.1250000
v -0.7375000 -3.5000000 0.0625000
v 0.7375000 -3.5000000 0.0625000
v 0.7375000 -3.5000000 0.1250000
v -0.7375000 -3.5000000 0.1250000
v 0.9000000 -3.5000000 -0.1500000
v 0.9000000 -3.5000000 0.0625000
v -0.9000000 -3.5000000 0.0625000
v -0.9000000 -3.5000000 -0.1500000
v -0.8625000 -3.5000000 0.0625000
v -0.8625000 -3.5000000 0.1250000
v -0.9000000 -3.5000000 0.1500000
v -0.9000000 -3.5000000 0.0625000
v -0.8577425 -3.5000000 0.1489175
v -0.9000000 -3.5000000 0.1500000
v -0.8625000 -3.5000000 0.1250000
v -0.9000000 -3.5000000 0.1500000
v -0.8577425 -3.5000000 0.1489175
v -0.8570200 -3.5000000 0.1500000
v 0.9000000 -3.5000000 0.0625000
v 0.9000000 -3.5000000 0.1500000
v 0.8625000 -3.5000000 0.1250000
v 0.8625000 -3.5000000 0.0625000
v 0.8625000 -3.5000000 0.1250000
v 0.9000000 -3.5000000 0.1500000
v 0.8577425 -3.5000000 0.1489175
v 0.8570200 -3.5000000 0.1500000
v 0.8577425 -3.5000000 0.1489175
v 0.9000000 -3.5000000 0.1500000
v 0.5000000 -3.6000000 0.0000000
v 0.6000000 -3.6000000 0.0000000
v 0.5923900 -3.6000000 0.0382700
v 0.5000000 -3.6000000 0.0000000
v 0.5923900 -3.6000000 0.0382700
v 0.5707100 -3.6000000 0.0707100
v 0.5000000 -3.6000000 0.0000000
v 0.5707100 -3.6000000 0.0707100
v 0.5382700 -3.6000000 0.0923900
v 0.5000000 -3.6000000 0.0000000
v 0.5382700 -3.6000000 0.0923900
v 0.5000000 -3.6000000 0.1000000
v 0.5000000 -3.6000000 0.0000000
v 0.5000000 -3.6000000 0.1000000
v 0.4617300 -3.6000000 0.0923900
v 0.5000000 -3.6000000 0.0000000
v 0.4617300 -3.6000000 0.0923900
v 0.4292900 -3.6000000 0.0707100
v 0.5000000 -3.6000000 0.0000000
v 0.4292900 -3.6000000 0.0707100
v 0.4076100 -3.6000000 0.0382700
v 0.5000000 -3.6000000 0.0000000
v 0.4076100 -3.6000000 0.0382700
v 0.4000000 -3.6000000 0.0000000
v 0.5000000 -3.6000000 0.0000000
v 0.4000000 -3.6000000 0.0000000
v 0.4076100 -3.6000000 -0.0382700
v 0.5000000 -3.6000000 0.0000000
v 0.4076100 -3.6000000 -0.0382700
v 0.4292900 -3.6000000 -0.0707100
v 0.5000000 -3.6000000 0.0000000
v 0.4292900 -3.6000000 -0.0707100
v 0.4617300 -3.6000000 -0.0923900
v 0.5000000 -3.6000000 0.0000000
v 0.4617300 -3.6000000 -0.0923900
v 0.5000000 -3.6000000 -0.1000000
v 0.5000000 -3.6000000 0.0000000
v 0.5000000 -3.6000000 -0.1000000
v 0.5382700 -3.6000000 -0.0923900
v 0.5000000 -3.6000000 0.0000000
v 0.5382700 -3.6000000 -0.0923900
v 0.5707100 -3.6000000 -0.0707100
v 0.5000000 -3.6000000 0.0000000
v 0.5707100 -3.6000000 -0.0707100
v 0.5923900 -3.6000000 -0.0382700
v 0.5000000 -3.6000000 0.0000000
v 0.5923900 -3.6000000 -0.0382700
v 0.6000000 -3.6000000 0.0000000
v 0.6000000 -3.5000000 0.0000000
v 0.5923900 -3.5000000 0.0382700
v 0.5923900 -3.6000000 0.0382700
v 0.6000000 -3.6000000 0.0000000
v 0.5923900 -3.5000000 0.0382700
v 0.5707100 -3.5000000 0.0707100
v 0.5707100 -3.6000000 0.0707100
v 0.5923900 -3.6000000 0.0382700
v 0.5707100 -3.5000000 0.0707100
v 0.5382700 -3.5000000 0.0923900
v 0.5382700 -3.6000000 0.0923900
v 0.5707100 -3.6000000 0.0707100
v 0.5382700 -3.5000000 0.0923900
v 0.5000000 -3.5000000 0.1000000
v 0.5000000 -3.6000000 0.1000000
v 0.5382700 -3.6000000 0.0923900
v 0.5000000 -3.5000000 0.1000000
v 0.4617300 -3.5000000 0.0923900
v 0.4617300 -3.6000000 0.0923900
v 0.5000000 -3.6000000 0.1000000
v 0.4617300 -3.5000000 0.0923900
v 0.4292900 -3.5000000 0.0707100
v 0.4292900 -3.6000000 0.0707100
v 0.4617300 -3.6000000 0.0923900
v 0.4292900 -3.5000000 0.0707100
v 0.4076100 -3.5000000 0.0382700
v 0.4076100 -3.6000000 0.0382700
v 0.4292900 -3.6000000 0.0707100
v 0.4076100 -3.5000000 0.0382700
v 0.4000000 -3.5000000 0.0000000
v 0.4000000 -3.6000000 0.0000000
v 0.4076100 -3.6000000 0.0382700
v 0.4000000 -3.5000000 0.0000000
v 0.4076100 -3.5000000 -0.0382700
v 0.4076100 -3.6000000 -0.0382700
v 0.4000000 -3.6000000 0.0000000
v 0.4076100 -3.5000000 -0.0382700
v 0.4292900 -3.5000000 -0.0707100
v 0.4292900 -3.6000000 -0.0707100
v 0.4076100 -3.6000000 -0.0382700
v 0.4292900 -3.5000000 -0.0707100
v 0.4617300 -3.5000000 -0.0923900
v 0.4617300 -3.6000000 -0.0923900
v 0.4292900 -3.6000000 -0.0707100
v 0.4617300 -3.5000000 -0.0923900
v 0.5000000 -3.5000000 -0.1000000
v 0.5000000 -3.6000000 -0.1000000
v 0.4617300 -3.6000000 -0.0923900
v 0.5000000 -3.5000000 -0.1000000
v 0.5382700 -3.5000000 -0.0923900
v 0.5382700 -3.6000000 -0.0923900
v 0.5000000 -3.6000000 -0.1000000
v 0.5382700 -3.5000000 -0.0923900
v 0.5707100 -3.5000000 -0.0707100
v 0.5707100 -3.6000000 -0.0707100
v 0.5382700 -3.6000000 -0.0923900
v 0.5707100 -3.5000000 -0.0707100
v 0.5923900 -3.5000000 -0.0382700
v 0.5923900 -3.6000000 -0.0382700
v 0.5707100 -3.6000000 -0.0707100
v 0.5923900 -3.5000000 -0.0382700
v 0.6000000 -3.5000000 0.0000000
v 0.6000000 -3.6000000 0.0000000
v 0.5923900 -3.6000000 -0.0382700
v 0.0000000 -3.6000000 0.0000000
v 0.1000000 -3.6000000 0.0000000
v 0.0923900 -3.6000000 0.0382700
v 0.0000000 -3.6000000 0.0000000
v 0.0923900 -3.6000000 0.0382700
v 0.0707100 -3.6000000 0.0707100
v 0.0000000 -3.6000000 0.0000000
v 0.0707100 -3.6000000 0.0707100
v 0.0382700 -3.6000000 0.0923900
v 0.0000000 -3.6000000 0.0000000
v 0.0382700 -3.6000000 0.0923900
v 0.0000000 -3.6000000 0.1000000
v 0.0000000 -3.6000000 0.0000000
v 0.0000000 -3.6000000 0.1000000
v -0.0382700 -3.6000000 0.0923900
v 0.0000000 -3.6000000 0.0000000
v -0.0382700 -3.6000000 0.0923900
v -0.0707100 -3.6000000 0.0707100
v 0.0000000 -3.6000000 0.0000000
v -0.0707100 -3.6000000 0.0707100
v -0.0923900 -3.6000000 0.0382700
v 0.0000000 -3.6000000 0.0000000
v -0.0923900 -3.6000000 0.0382700
v -0.1000000 -3.6000000 0.0000000
v 0.0000000 -3.6000000 0.0000000
v -0.1000000 -3.6000000 0.0000000
v -0.0923900 -3.6000000 -0.0382700
v 0.0000000 -3.6000000 0.0000000
v -0.0923900 -3.6000000 -0.0382700
v -0.0707100 -3.6000000 -0.0707100
v 0.0000000 -3.6000000 0.0000000
v -0.0707100 -3.6000000 -0.0707100
v -0.0382700 -3.6000000 -0.0923900
v 0.0000000 -3.6000000 0.0000000
v -0.0382700 -3.6000000 -0.0923900
v 0.0000000 -3.6000000 -0.1000000
v 0.0000000 -3.6000000 0.0000000
v 0.0000000 -3.6000000 -0.1000000
v 0.0382700 -3.6000000 -0.0923900
v 0.0000000 -3.6000000 0.0000000
v 0.0382700 -3.6000000 -0.0923900
v 0.0707100 -3.6000000 -0.0707100
v 0.0000000 -3.6000000 0.0000000
v 0.0707100 -3.6000000 -0.0707100
v 0.0923900 -3.6000000 -0.0382700
v 0.0000000 -3.6000000 0.0000000
v 0.0923900 -3.6000000 -0.0382700
v 0.1000000 -3.6000000 0.0000000
v 0.1000000 -3.5000000 0.0000000
v 0.0923900 -3.5000000 0.0382700
v 0.0923900 -3.6000000 0.0382700
v 0.1000000 -3.6000000 0.0000000
v 0.0923900 -3.5000000 0.0382700
v 0.0707100 -3.5000000 0.0707100
v 0.0707100 -3.6000000 0.0707100
v 0.0923900 -3.6000000 0.0382700
v 0.0707100 -3.5000000 0.0707100
v 0.0382700 -3.5000000 0.0923900
v 0.0382700 -3.6000000 0.0923900
v 0.0707100 -3.6000000 0.0707100
v 0.0382700 -3.5000000 0.0923900
v 0.0000000 -3.5000000 0.1000000
v 0.0000000 -3.6000000 0.1000000
v 0.0382700 -3.6000000 0.0923900
v 0.0000000 -3.5000000 0.1000000
v -0.0382700 -3.5000000 0.0923900
v -0.0382700 -3.6000000 0.0923900
v 0.0000000 -3.6000000 0.1000000
v -0.0382700 -3.5000000 0.0923900
v -0.0707100 -3.5000000 0.0707100
v -0.0707100 -3.6000000 0.0707100
v -0.0382700 -3.6000000 0.0923900
v -0.0707100 -3.5000000 0.0707100
v -0.0923900 -3.5000000 0.0382700
v -0.0923900 -3.6000000 0.0382700
v -0.0707100 -3.6000000 0.0707100
v -0.0923900 -3.5000000 0.0382700
v -0.1000000 -3.5000000 0.0000000
v -0.1000000 -3.6000000 0.0000000
v -0.0923900 -3.6000000 0.0382700
v -0.1000000 -3.5000000 0.0000000
v -0.0923900 -3.5000000 -0.0382700
v -0.0923900 -3.6000000 -0.0382700
v -0.1000000 -3.6000000 0.0000000
v -0.0923900 -3.5000000 -0.0382700
v -0.0707100 -3.5000000 -0.0707100
v -0.0707100 -3.6000000 -0.0707100
v -0.0923900 -3.6000000 -0.0382700
v -0.0707100 -3.5000000 -0.0707100
v -0.0382700 -3.5000000 -0.0923900
v -0.0382700 -3.6000000 -0.0923900
v -0.0707100 -3.6000000 -0.0707100
v -0.0382700 -3.5000000 -0.0923900
v 0.0000000 -3.5000000 -0.1000000
v 0.0000000 -3.6000000 -0.1000000
v -0.0382700 -3.6000000 -0.0923900
v 0.0000000 -3.5000000 -0.1000000
v 0.0382700 -3.5000000 -0.0923900
v 0.0382700 -3.6000000 -0.0923900
v 0.0000000 -3.6000000 -0.1000000
v 0.0382700 -3.5000000 -0.0923900
v 0.0707100 -3.5000000 -0.0707100
v 0.0707100 -3.6000000 -0.0707100
v 0.0382700 -3.6000000 -0.0923900
v 0.0707100 -3.5000000 -0.0707100
v 0.0923900 -3.5000000 -0.0382700
v 0.0923900 -3.6000000 -0.0382700
v 0.0707100 -3.6000000 -0.0707100
v 0.0923900 -3.5000000 -0.0382700
v 0.1000000 -3.5000000 0.0000000
v 0.1000000 -3.6000000 0.0000000
v 0.0923900 -3.6000000 -0.0382700
v -0.5000000 -3.6000000 0.0000000
v -0.4000000 -3.6000000 0.0000000
v -0.4076100 -3.6000000 0.0382700
v -0.5000000 -3.6000000 0.0000000
v -0.4076100 -3.6000000 0.0382700
v -0.4292900 -3.6000000 0.0707100
v -0.5000000 -3.6000000 0.0000000
v -0.4292900 -3.6000000 0.0707100
v -0.4617300 -3.6000000 0.0923900
v -0.5000000 -3.6000000 0.0000000
v -0.4617300 -3.6000000 0.0923900
v -0.5000000 -3.6000000 0.1000000
v -0.5000000 -3.6000000 0.0000000
v -0.5000000 -3.6000000 0.1000000
v -0.5382700 -3.6000000 0.0923900
v -0.5000000 -3.6000000 0.0000000
v -0.5382700 -3.6000000 0.0923900
v -0.5707100 -3.6000000 0.0707100
v -0.5000000 -3.6000000 0.0000000
v -0.5707100 -3.6000000 0.0707100
v -0.5923900 -3.6000000 0.0382700
v -0.5000000 -3.6000000 0.0000000
v -0.5923900 -3.6000000 0.0382700
v -0.6000000 -3.6000000 0.0000000
v -0.5000000 -3.6000000 0.0000000
v -0.6000000 -3.6000000 0.0000000
v -0.5923900 -3.6000000 -0.0382700
v -0.5000000 -3.6000000 0.0000000
v -0.5923900 -3.6000000 -0.0382700
v -0.5707100 -3.6000000 -0.0707100
v -0.5000000 -3.6000000 0.0000000
v -0.5707100 -3.6000000 -0.0707100
v -0.5382700 -3.6000000 -0.0923900
v -0.5000000 -3.6000000 0.0000000
v -0.5382700 -3.6000000 -0.0923900
v -0.5000000 -3.6000000 -0.1000000
v -0.5000000 -3.6000000 0.0000000
v -0.5000000 -3.6000000 -0.1000000
v -0.4617300 -3.6000000 -0.0923900
v -0.5000000 -3.6000000 0.0000000
v -0.4617300 -3.6000000 -0.0923900
v -0.4292900 -3.6000000 -0.0707100
v -0.5000000 -3.6000000 0.0000000
v -0.4292900 -3.6000000 -0.0707100
v -0.4076100 -3.6000000 -0.0382700
v -0.5000000 -3.6000000 0.0000000
v -0.4076100 -3.6000000 -0.0382700
v -0.4000000 -3.6000000 0.0000000
v -0.4000000 -3.5000000 0.0000000
v -0.4076100 -3.5000000 0.0382700
v -0.4076100 -3.6000000 0.0382700
v -0.4000000 -3.6000000 0.0000000
v -0.4076100 -3.5000000 0.0382700
v -0.4292900 -3.5000000 0.0707100
v -0.4292900 -3.6000000 0.0707100
v -0.4076100 -3.6000000 0.0382700
v -0.4292900 -3.5000000 0.0707100
v -0.4617300 -3.5000000 0.0923900
v -0.4617300 -3.6000000 0.0923900
v -0.4292900 -3.6000000 0.0707100
v -0.4617300 -3.5000000 0.0923900
v -0.5000000 -3.5000000 0.1000000
v -0.5000000 -3.6000000 0.1000000
v -0.4617300 -3.6000000 0.0923900
v -0.5000000 -3.5000000 0.1000000
v -0.5382700 -3.5000000 0.0923900
v -0.5382700 -3.6000000 0.0923900
v -0.5000000 -3.6000000 0.1000000
v -0.5382700 -3.5000000 0.0923900
v -0.5707100 -3.5000000 0.0707100
v -0.5707100 -3.6000000 0.0707100
v -0.5382700 -3.6000000 0.0923900
v -0.5707100 -3.5000000 0.0707100
v -0.5923900 -3.5000000 0.0382700
v -0.5923900 -3.6000000 0.0382700
v -0.5707100 -3.6000000 0.0707100
v -0.5923900 -3.5000000 0.0382700
v -0.6000000 -3.5000000 0.0000000
v -0.6000000 -3.6000000 0.0000000
v -0.5923900 -3.6000000 0.0382700
v -0.6000000 -3.5000000 0.0000000
v -0.5923900 -3.5000000 -0.0382700
v -0.5923900 -3.6000000 -0.0382700
v -0.6000000 -3.6000000 0.0000000
v -0.5923900 -3.5000000 -0.0382700
v -0.5707100 -3.5000000 -0.0707100
v -0.5707100 -3.6000000 -0.0707100
v -0.5923900 -3.6000000 -0.0382700
v -0.5707100 -3.5000000 -0.0707100
v -0.5382700 -3.5000000 -0.0923900
v -0.5382700 -3.6000000 -0.0923900
v -0.5707100 -3.6000000 -0.0707100
v -0.5382700 -3.5000000 -0.0923900
v -0.5000000 -3.5000000 -0.1000000
v -0.5000000 -3.6000000 -0.1000000
v -0.5382700 -3.6000000 -0.0923900
v -0.5000000 -3.5000000 -0.1000000
v -0.4617300 -3.5000000 -0.0923900
v -0.4617300 -3.6000000 -0.0923900
v -0.5000000 -3.6000000 -0.1000000
v -0.4617300 -3.5000000 -0.0923900
v -0.4292900 -3.5000000 -0.0707100
v -0.4292900 -3.6000000 -0.0707100
v -0.4617300 -3.6000000 -0.0923900
v -0.4292900 -3.5000000 -0.0707100
v -0.4076100 -3.5000000 -0.0382700
v -0.4076100 -3.6000000 -0.0382700
v -0.4292900 -3.6000000 -0.0707100
v -0.4076100 -3.5000000 -0.0382700
v -0.4000000 -3.5000000 0.0000000
v -0.4000000 -3.6000000 0.0000000
v -0.4076100 -3.6000000 -0.0382700
v -1.0000000 -3.4000000 0.2500000
v -1.0000000 -3.6000000 0.2500000
v 1.0000000 -3.6000000 0.2500000
v 1.0000000 -3.4000000 0.2500000
v -1.0000000 -3.4000000 -0.2500000
v -1.0000000 -3.6000000 -0.2500000
v -1.0000000 -3.6000000 0.2500000
v -1.0000000 -3.4000000 0.2500000
v 1.0000000 -3.4000000 -0.2500000
v 1.0000000 -3.6000000 -0.2500000
v -1.0000000 -3.6000000 -0.2500000
v -1.0000000 -3.4000000 -0.2500000
v 1.0000000 -3.4000000 0.2500000
v 1.0000000 -3.6000000 0.2500000
v 1.0000000 -3.6000000 -0.2500000
v 1.0000000 -3.4000000 -0.2500000
v 1.0000000 -3.6000000 -0.2500000
v 0.9000000 -3.6000000 -0.1500000
v -0.9000000 -3.6000000 -0.1500000
v -1.0000000 -3.6000000 -0.2500000
v -1.0000000 -3.6000000 -0.2500000
v -0.9000000 -3.6000000 -0.1500000
v -0.9000000 -3.6000000 0.1500000
v -1.0000000 -3.6000000 0.2500000
v 1.0000000 -3.6000000 0.2500000
v 0.9000000 -3.6000000 0.1500000
v 0.9000000 -3.6000000 -0.1500000
v 1.0000000 -3.6000000 -0.2500000
v -0.8239188 -3.6000000 0.1827438
v -0.8000000 -3.6000000 0.1875000
v -0.8625000 -3.6000000 0.1875000
v -0.8441938 -3.6000000 0.1691938
v -0.8239188 -3.6000000 0.1827438
v -0.8625000 -3.6000000 0.1875000
v -0.7375000 -3.6000000 0.1875000
v -0.8000000 -3.6000000 0.1875000
v -0.7760813 -3.6000000 0.1827438
v -0.7375000 -3.6000000 0.1875000
v -0.7760813 -3.6000000 0.1827438
v -0.7558063 -3.6000000 0.1691938
v 0.7760813 -3.6000000 0.1827438
v 0.8000000 -3.6000000 0.1875000
v 0.7375000 -3.6000000 0.1875000
v 0.7558063 -3.6000000 0.1691938
v 0.7760813 -3.6000000 0.1827438
v 0.7375000 -3.6000000 0.1875000
v 0.8625000 -3.6000000 0.1875000
v 0.8000000 -3.6000000 0.1875000
v 0.8239188 -3.6000000 0.1827438
v 0.8625000 -3.6000000 0.1875000
v 0.8239188 -3.6000000 0.1827438
v 0.8441938 -3.6000000 0.1691938
v 0.8570200 -3.6000000 0.1500000
v 0.9000000 -3.6000000 0.1500000
v 1.0000000 -3.6000000 0.2500000
v 1.0000000 -3.6000000 0.2500000
v 0.8625000 -3.6000000 0.1875000
v 0.8441950 -3.6000000 0.1691950
v 0.8570200 -3.6000000 0.1500000
v -1.0000000 -3.6000000 0.2500000
v -0.9000000 -3.6000000 0.1500000
v -0.8570200 -3.6000000 0.1500000
v -0.8570200 -3.6000000 0.1500000
v -0.8441950 -3.6000000 0.1691950
v -0.8625000 -3.6000000 0.1875000
v -1.0000000 -3.6000000 0.2500000
v 0.7429800 -3.6000000 0.1500000
v 0.7558050 -3.6000000 0.1691950
v -0.7558050 -3.6000000 0.1691950
v -0.7429800 -3.6000000 0.1500000
v -0.7558050 -3.6000000 0.1691950
v 0.7558050 -3.6000000 0.1691950
v 0.7375000 -3.6000000 0.1875000
v -0.7375000 -3.6000000 0.1875000
v -0.8625000 -3.6000000 0.1875000
v 0.8625000 -3.6000000 0.1875000
v 1.0000000 -3.6000000 0.2500000
v -1.0000000 -3.6000000 0.2500000
v -0.7375000 -3.5000000 0.1250000
v -0.7422563 -3.5000000 0.1489187
v -0.7422563 -3.4000000 0.1489187
v -0.7375000 -3.4000000 0.1250000
v -0.7422563 -3.5000000 0.1489187
v -0.7558063 -3.5000000 0.1691938
v -0.7558063 -3.4000000 0.1691938
v -0.7422563 -3.4000000 0.1489187
v -0.7558063 -3.5000000 0.1691938
v -0.7760813 -3.5000000 0.1827438
v -0.7760813 -3.4000000 0.1827438
v -0.7558063 -3.4000000 0.1691938
v -0.7760813 -3.5000000 0.1827438
v -0.8000000 -3.5000000 0.1875000
v -0.8000000 -3.4000000 0.1875000
v -0.7760813 -3.4000000 0.1827438
v -0.8000000 -3.5000000 0.1875000
v -0.8239188 -3.5000000 0.1827438
v -0.8239188 -3.4000000 0.1827438
v -0.8000000 -3.4000000 0.1875000
v -0.8239188 -3.5000000 0.1827438
v -0.8441938 -3.5000000 0.1691938
v -0.8441938 -3.4000000 0.1691938
v -0.8239188 -3.4000000 0.1827438
v -0.8441938 -3.5000000 0.1691938
v -0.8577438 -3.5000000 0.1489187
v -0.8577438 -3.4000000 0.1489187
v -0.8441938 -3.4000000 0.1691938
v -0.8577438 -3.5000000 0.1489187
v -0.8625000 -3.5000000 0.1250000
v -0.8625000 -3.4000000 0.1250000
v -0.8577438 -3.4000000 0.1489187
v -0.8625000 -3.5000000 0.1250000
v -0.8577438 -3.5000000 0.1010813
v -0.8577438 -3.4000000 0.1010813
v -0.8625000 -3.4000000 0.1250000
v -0.8577438 -3.5000000 0.1010813
v -0.8441938 -3.5000000 0.0808063
v -0.8441938 -3.4000000 0.0808063
v -0.8577438 -3.4000000 0.1010813
v -0.8441938 -3.5000000 0.0808063
v -0.8239188 -3.5000000 0.0672563
v -0.8239188 -3.4000000 0.0672563
v -0.8441938 -3.4000000 0.0808063
v -0.8239188 -3.5000000 0.0672563
v -0.8000000 -3.5000000 0.0625000
v -0.8000000 -3.4000000 0.0625000
v -0.8239188 -3.4000000 0.0672563
v -0.8000000 -3.5000000 0.0625000
v -0.7760813 -3.5000000 0.0672563
v -0.7760813 -3.4000000 0.0672563
v -0.8000000 -3.4000000 0.0625000
v -0.7760813 -3.5000000 0.0672563
v -0.7558063 -3.5000000 0.0808063
v -0.7558063 -3.4000000 0.0808063
v -0.7760813 -3.4000000 0.0672563
v -0.7558063 -3.5000000 0.0808063
v -0.7422563 -3.5000000 0.1010813
v -0.7422563 -3.4000000 0.1010813
v -0.7558063 -3.4000000 0.0808063
v -0.7422563 -3.5000000 0.1010813
v -0.7375000 -3.5000000 0.1250000
v -0.7375000 -3.4000000 0.1250000
v -0.7422563 -3.4000000 0.1010813
v -0.7375000 -3.4000000 0.1875000
v -0.7375000 -3.4000000 0.1250000
v -0.7422563 -3.4000000 0.1489187
v -0.7375000 -3.4000000 0.1875000
v -0.7422563 -3.4000000 0.1489187
v -0.7558063 -3.4000000 0.1691938
v -0.7375000 -3.4000000 0.1875000
v -0.7558063 -3.4000000 0.1691938
v -0.7760813 -3.4000000 0.1827438
v -0.7375000 -3.4000000 0.1875000
v -0.7760813 -3.4000000 0.1827438
v -0.8000000 -3.4000000 0.1875000
v -0.8625000 -3.4000000 0.1875000
v -0.8000000 -3.4000000 0.1875000
v -0.8239188 -3.4000000 0.1827438
v -0.8625000 -3.4000000 0.1875000
v -0.8239188 -3.4000000 0.1827438
v -0.8441938 -3.4000000 0.1691938
v -0.8625000 -3.4000000 0.1875000
v -0.8441938 -3.4000000 0.1691938
v -0.8577438 -3.4000000 0.1489187
v -0.8625000 -3.4000000 0.1875000
v -0.8577438 -3.4000000 0.1489187
v -0.8625000 -3.4000000 0.1250000
v -0.8625000 -3.4000000 0.0625000
v -0.8625000 -3.4000000 0.1250000
v -0.8577438 -3.4000000 0.1010813
v -0.8625000 -3.4000000 0.0625000
v -0.8577438 -3.4000000 0.1010813
v -0.8441938 -3.4000000 0.0808063
v -0.8625000 -3.4000000 0.0625000
v -0.8441938 -3.4000000 0.0808063
v -0.8239188 -3.4000000 0.0672563
v -0.8625000 -3.4000000 0.0625000
v -0.8239188 -3.4000000 0.0672563
v -0.8000000 -3.4000000 0.0625000
v -0.7375000 -3.4000000 0.0625000
v -0.8000000 -3.4000000 0.0625000
v -0.7760813 -3.4000000 0.0672563
v -0.7375000 -3.4000000 0.0625000
v -0.7760813 -3.4000000 0.0672563
v -0.7558063 -3.4000000 0.0808063
v -0.7375000 -3.4000000 0.0625000
v -0.7558063 -3.4000000 0.0808063
v -0.7422563 -3.4000000 0.1010813
v -0.7375000 -3.4000000 0.0625000
v -0.7422563 -3.4000000 0.1010813
v -0.7375000 -3.4000000 0.1250000
v 0.8625000 -3.5000000 0.1250000
v 0.8577438 -3.5000000 0.1489187
v 0.8577438 -3.4000000 0.1489187
v 0.8625000 -3.4000000 0.1250000
v 0.8577438 -3.5000000 0.1489187
v 0.8441938 -3.5000000 0.1691938
v 0.8441938 -3.4000000 0.1691938
v 0.8577438 -3.4000000 0.1489187
v 0.8441938 -3.5000000 0.1691938
v 0.8239188 -3.5000000 0.1827438
v 0.8239188 -3.4000000 0.1827438
v 0.8441938 -3.4000000 0.1691938
v 0.8239188 -3.5000000 0.1827438
v 0.8000000 -3.5000000 0.1875000
v 0.8000000 -3.4000000 0.1875000
v 0.8239188 -3.4000000 0.1827438
v 0.8000000 -3.5000000 0.1875000
v 0.7760813 -3.5000000 0.1827438
v 0.7760813 -3.4000000 0.1827438
v 0.8000000 -3.4000000 0.1875000
v 0.7760813 -3.5000000 0.1827438
v 0.7558063 -3.5000000 0.1691938
v 0.7558063 -3.4000000 0.1691938
v 0.7760813 -3.4000000 0.1827438
v 0.7558063 -3.5000000 0.1691938
v 0.7422563 -3.5000000 0.1489187
v 0.7422563 -3.4000000 0.1489187
v 0.7558063 -3.4000000 0.1691938
v 0.7422563 -3.5000000 0.1489187
v 0.7375000 -3.5000000 0.1250000
v 0.7375000 -3.4000000 0.1250000
v 0.7422563 -3.4000000 0.1489187
v 0.7375000 -3.5000000 0.1250000
v 0.7422563 -3.5000000 0.1010813
v 0.7422563 -3.4000000 0.1010813
v 0.7375000 -3.4000000 0.1250000
v 0.7422563 -3.5000000 0.1010813
v 0.7558063 -3.5000000 0.0808063
v 0.7558063 -3.4000000 0.0808063
v 0.7422563 -3.4000000 0.1010813
v 0.7558063 -3.5000000 0.0808063
v 0.7760813 -3.5000000 0.0672563
v 0.7760813 -3.4000000 0.0672563
v 0.7558063 -3.4000000 0.0808063
v 0.7760813 -3.5000000 0.0672563
v 0.8000000 -3.5000000 0.0625000
v 0.8000000 -3.4000000 0.0625000
v 0.7760813 -3.4000000 0.0672563
v 0.8000000 -3.5000000 0.0625000
v 0.8239188 -3.5000000 0.0672563
v 0.8239188 -3.4000000 0.0672563
v 0.8000000 -3.4000000 0.0625000
v 0.8239188 -3.5000000 0.0672563
v 0.8441938 -3.5000000 0.0808063
v 0.8441938 -3.4000000 0.0808063
v 0.8239188 -3.4000000 0.0672563
v 0.8441938 -3.5000000 0.0808063
v 0.8577438 -3.5000000 0.1010813
v 0.8577438 -3.4000000 0.1010813
v 0.8441938 -3.4000000 0.0808063
v 0.8577438 -3.5000000 0.1010813
v 0.8625000 -3.5000000 0.1250000
v 0.8625000 -3.4000000 0.1250000
v 0.8577438 -3.4000000 0.1010813
v 0.8625000 -3.4000000 0.1875000
v 0.8625000 -3.4000000 0.1250000
v 0.8577438 -3.4000000 0.1489187
v 0.8625000 -3.4000000 0.1875000
v 0.8577438 -3.4000000 0.1489187
v 0.8441938 -3.4000000 0.1691938
v 0.8625000 -3.4000000 0.1875000
v 0.8441938 -3.4000000 0.1691938
v 0.8239188 -3.4000000 0.1827438
v 0.8625000 -3.4000000 0.1875000
v 0.8239188 -3.4000000 0.1827438
v 0.8000000 -3.4000000 0.1875000
v 0.7375000 -3.4000000 0.1875000
v 0.8000000 -3.4000000 0.1875000
v 0.7760813 -3.4000000 0.1827438
v 0.7375000 -3.4000000 0.1875000
v 0.7760813 -3.4000000 0.1827438
v 0.7558063 -3.4000000 0.1691938
v 0.7375000 -3.4000000 0.1875000
v 0.7558063 -3.4000000 0.1691938
v 0.7422563 -3.4000000 0.1489187
v 0.7375000 -3.4000000 0.1875000
v 0.7422563 -3.4000000 0.1489187
v 0.7375000 -3.4000000 0.1250000
v 0.7375000 -3.4000000 0.0625000
v 0.7375000 -3.4000000 0.1250000
v 0.7422563 -3.4000000 0.1010813
v 0.7375000 -3.4000000 0.0625000
v 0.7422563 -3.4000000 0.1010813
v 0.7558063 -3.4000000 0.0808063
v 0.7375000 -3.4000000 0.0625000
v 0.7558063 -3.4000000 0.0808063
v 0.7760813 -3.4000000 0.0672563
v 0.7375000 -3.4000000 0.0625000
v 0.7760813 -3.4000000 0.0672563
v 0.8000000 -3.4000000 0.0625000
v 0.8625000 -3.4000000 0.0625000
v 0.8000000 -3.4000000 0.0625000
v 0.8239188 -3.4000000 0.0672563
v 0.8625000 -3.4000000 0.0625000
v 0.8239188 -3.4000000 0.0672563
v 0.8441938 -3.4000000 0.0808063
v 0.8625000 -3.4000000 0.0625000
v 0.8441938 -3.4000000 0.0808063
v 0.8577438 -3.4000000 0.1010813
v 0.8625000 -3.4000000 0.0625000
v 0.8577438 -3.4000000 0.1010813
v 0.8625000 -3.4000000 0.1250000
v 0.9000000 -3.4000000 0.2500000
v 0.9000000 -3.4000000 0.1875000
v -0.9000000 -3.4000000 0.1875000
v -0.9000000 -3.4000000 0.2500000
v -0.8500000 -3.4000000 -0.2500000
v -0.8500000 -3.4000000 0.0250000
v 0.8500000 -3.4000000 0.0250000
v 0.8500000 -3.4000000 -0.2500000
v -0.9000000 -3.4000000 0.1875000
v -0.8625000 -3.4000000 0.1875000
v -0.8625000 -3.4000000 0.0625000
v -0.9000000 -3.4000000 0.0250000
v 0.9000000 -3.4000000 0.0250000
v 0.8625000 -3.4000000 0.0625000
v 0.8625000 -3.4000000 0.1875000
v 0.9000000 -3.4000000 0.1875000
v -0.9000000 -3.4000000 0.0250000
v -0.8625000 -3.4000000 0.0625000
v 0.8625000 -3.4000000 0.0625000
v 0.9000000 -3.4000000 0.0250000
v -0.7375000 -3.4000000 0.0625000
v -0.7375000 -3.4000000 0.1875000
v 0.7375000 -3.4000000 0.1875000
v 0.7375000 -3.4000000 0.0625000
v -0.7422563 -0.1000000 0.1489187
v -0.7375000 -0.1000000 0.1250000
v -0.7375000 -0.1000000 0.1875000
v -0.7558063 -0.1000000 0.1691938
v -0.7422563 -0.1000000 0.1489187
v -0.7375000 -0.1000000 0.1875000
v -0.7760813 -0.1000000 0.1827438
v -0.7558063 -0.1000000 0.1691938
v -0.7375000 -0.1000000 0.1875000
v -0.8000000 -0.1000000 0.1875000
v -0.7760813 -0.1000000 0.1827438
v -0.7375000 -0.1000000 0.1875000
v -0.8239188 -0.1000000 0.1827438
v -0.8000000 -0.1000000 0.1875000
v -0.8625000 -0.1000000 0.1875000
v -0.8441938 -0.1000000 0.1691938
v -0.8239188 -0.1000000 0.1827438
v -0.8625000 -0.1000000 0.1875000
v -0.8577438 -0.1000000 0.1489187
v -0.8441938 -0.1000000 0.1691938
v -0.8625000 -0.1000000 0.1875000
v -0.8625000 -0.1000000 0.1250000
v -0.8577438 -0.1000000 0.1489187
v -0.8625000 -0.1000000 0.1875000
v -0.8577438 -0.1000000 0.1010813
v -0.8625000 -0.1000000 0.1250000
v -0.8625000 -0.1000000 0.0625000
v -0.8441938 -0.1000000 0.0808063
v -0.8577438 -0.1000000 0.1010813
v -0.8625000 -0.1000000 0.0625000
v -0.8239188 -0.1000000 0.0672563
v -0.8441938 -0.1000000 0.0808063
v -0.8625000 -0.1000000 0.0625000
v -0.8000000 -0.1000000 0.0625000
v -0.8239188 -0.1000000 0.0672563
v -0.8625000 -0.1000000 0.0625000
v -0.7760813 -0.1000000 0.0672563
v -0.8000000 -0.1000000 0.0625000
v -0.7375000 -0.1000000 0.0625000
v -0.7558063 -0.1000000 0.0808063
v -0.7760813 -0.1000000 0.0672563
v -0.7375000 -0.1000000 0.0625000
v -0.7422563 -0.1000000 0.1010813
v -0.7558063 -0.1000000 0.0808063
v -0.7375000 -0.1000000 0.0625000
v -0.7375000 -0.1000000 0.1250000
v -0.7422563 -0.1000000 0.1010813
v -0.7375000 -0.1000000 0.0625000
v 0.8577438 -0.1000000 0.1489187
v 0.8625000 -0.1000000 0.1250000
v 0.8625000 -0.1000000 0.1875000
v 0.8441938 -0.1000000 0.1691938
v 0.8577438 -0.1000000 0.1489187
v 0.8625000 -0.1000000 0.1875000
v 0.8239188 -0.1000000 0.1827438
v 0.8441938 -0.1000000 0.1691938
v 0.8625000 -0.1000000 0.1875000
v 0.8000000 -0.1000000 0.1875000
v 0.8239188 -0.1000000 0.1827438
v 0.8625000 -0.1000000 0.1875000
v 0.7760813 -0.1000000 0.1827438
v 0.8000000 -0.1000000 0.1875000
v 0.7375000 -0.1000000 0.1875000
v 0.7558063 -0.1000000 0.1691938
v 0.7760813 -0.1000000 0.1827438
v 0.7375000 -0.1000000 0.1875000
v 0.7422563 -0.1000000 0.1489187
v 0.7558063 -0.1000000 0.1691938
v 0.7375000 -0.1000000 0.1875000
v 0.7375000 -0.1000000 0.1250000
v 0.7422563 -0.1000000 0.1489187
v 0.7375000 -0.1000000 0.1875000
v 0.7422563 -0.1000000 0.1010813
v 0.7375000 -0.1000000 0.1250000
v 0.7375000 -0.1000000 0.0625000
v 0.7558063 -0.1000000 0.0808063
v 0.7422563 -0.1000000 0.1010813
v 0.7375000 -0.1000000 0.0625000
v 0.7760813 -0.1000000 0.0672563
v 0.7558063 -0.1000000 0.0808063
v 0.7375000 -0.1000000 0.0625000
v 0.8000000 -0.1000000 0.0625000
v 0.7760813 -0.1000000 0.0672563
v 0.7375000 -0.1000000 0.0625000
v 0.8239188 -0.1000000 0.0672563
v 0.8000000 -0.1000000 0.0625000
v 0.8625000 -0.1000000 0.0625000
v 0.8441938 -0.1000000 0.0808063
v 0.8239188 -0.1000000 0.0672563
v 0.8625000 -0.1000000 0.0625000
v 0.8577438 -0.1000000 0.1010813
v 0.8441938 -0.1000000 0.0808063
v 0.8625000 -0.1000000 0.0625000
v 0.8625000 -0.1000000 0.1250000
v 0.8577438 -0.1000000 0.1010813
v 0.8625000 -0.1000000 0.0625000
v -1.0000000 -0.0000000 -0.2500000
v 1.0000000 -0.0000000 -0.2500000
v 1.0000000 -0.1500000 -0.2500000
v -1.0000000 -0.1500000 -0.2500000
v -0.8500000 -0.1500000 -0.2500000
v 0.8500000 -0.1500000 -0.2500000
v 0.8500000 -0.1500000 0.0250000
v -0.8500000 -0.1500000 0.0250000
v 0.9000000 -0.1000000 0.0250000
v -0.9000000 -0.1000000 0.0250000
v -0.9000000 -0.1500000 0.0250000
v 0.9000000 -0.1500000 0.0250000
v 0.9000000 -0.1000000 0.2500000
v 0.9000000 -0.0000000 0.2500000
v -0.9000000 -0.0000000 0.2500000
v -0.9000000 -0.1000000 0.2500000
v 0.9000000 -0.1000000 0.2500000
v -0.9000000 -0.1000000 0.2500000
v -0.9000000 -0.1000000 0.1875000
v 0.9000000 -0.1000000 0.1875000
v 0.8625000 -0.1000000 0.0625000
v 0.9000000 -0.1000000 0.0250000
v 0.9000000 -0.1000000 0.1875000
v 0.8625000 -0.1000000 0.1875000
v -0.8625000 -0.1000000 0.1875000
v -0.9000000 -0.1000000 0.1875000
v -0.9000000 -0.1000000 0.0250000
v -0.8625000 -0.1000000 0.0625000
v -0.8625000 -0.1000000 0.0625000
v -0.9000000 -0.1000000 0.0250000
v 0.9000000 -0.1000000 0.0250000
v 0.8625000 -0.1000000 0.0625000
v 0.7375000 -0.1000000 0.0625000
v 0.7375000 -0.1000000 0.1875000
v -0.7375000 -0.1000000 0.1875000
v -0.7375000 -0.1000000 0.0625000
v -0.8500000 -3.4000000 0.0250000
v -0.8500000 -0.1500000 0.0250000
v -0.9000000 -0.1500000 0.0250000
v -0.9000000 -3.4000000 0.0250000
v -0.9000000 -3.4000000 0.0250000
v -0.9000000 -0.1000000 0.0250000
v -0.9000000 -0.1000000 0.2500000
v -0.9000000 -3.4000000 0.2500000
v -0.8500000 -3.4000000 -0.2500000
v -1.0000000 -3.4000000 -0.2500000
v -1.0000000 -0.1500000 -0.2500000
v -0.8500000 -0.1500000 -0.2500000
v -0.8500000 -0.1500000 0.0250000
v -0.8500000 -3.4000000 0.0250000
v -0.8500000 -3.4000000 -0.2500000
v -0.8500000 -0.1500000 -0.2500000
v -1.0000000 -3.4000000 0.2500000
v -0.9000000 -3.4000000 0.2500000
v -0.9000000 -0.0000000 0.2500000
v -1.0000000 -0.0000000 0.2500000
v -1.0000000 -0.0000000 -0.2500000
v -1.0000000 -3.4000000 -0.2500000
v -1.0000000 -3.4000000 0.2500000
v -1.0000000 -0.0000000 0.2500000
v 0.9000000 -3.4000000 0.0250000
v 0.9000000 -0.1500000 0.0250000
v 0.8500000 -0.1500000 0.0250000
v 0.8500000 -3.4000000 0.0250000
v 0.9000000 -3.4000000 0.2500000
v 0.9000000 -0.1000000 0.2500000
v 0.9000000 -0.1000000 0.0250000
v 0.9000000 -3.4000000 0.0250000
v 0.8500000 -0.1500000 -0.2500000
v 1.0000000 -0.1500000 -0.2500000
v 1.0000000 -3.4000000 -0.2500000
v 0.8500000 -3.4000000 -0.2500000
v 0.8500000 -0.1500000 -0.2500000
v 0.8500000 -3.4000000 -0.2500000
v 0.8500000 -3.4000000 0.0250000
v 0.8500000 -0.1500000 0.0250000
v 1.0000000 -0.0000000 0.2500000
v 0.9000000 -0.0000000 0.2500000
v 0.9000000 -3.4000000 0.2500000
v 1.0000000 -3.4000000 0.2500000
v 1.0000000 -0.0000000 0.2500000
v 1.0000000 -3.4000000 0.2500000
v 1.0000000 -3.4000000 -0.2500000
v 1.0000000 -0.0000000 -0.2500000
v -0.7375000 -0.1000000 0.1250000
v -0.7422563 -0.1000000 0.1489187
v -0.7422563 -0.0000000 0.1489187
v -0.7375000 -0.0000000 0.1250000
v -0.7422563 -0.1000000 0.1489187
v -0.7558063 -0.1000000 0.1691938
v -0.7558063 -0.0000000 0.1691938
v -0.7422563 -0.0000000 0.1489187
v -0.7558063 -0.1000000 0.1691938
v -0.7760813 -0.1000000 0.1827438
v -0.7760813 -0.0000000 0.1827438
v -0.7558063 -0.0000000 0.1691938
v -0.7760813 -0.1000000 0.1827438
v -0.8000000 -0.1000000 0.1875000
v -0.8000000 -0.0000000 0.1875000
v -0.7760813 -0.0000000 0.1827438
v -0.8000000 -0.1000000 0.1875000
v -0.8239188 -0.1000000 0.1827438
v -0.8239188 -0.0000000 0.1827438
v -0.8000000 -0.0000000 0.1875000
v -0.8239188 -0.1000000 0.1827438
v -0.8441938 -0.1000000 0.1691938
v -0.8441938 -0.0000000 0.1691938
v -0.8239188 -0.0000000 0.1827438
v -0.8441938 -0.1000000 0.1691938
v -0.8577438 -0.1000000 0.1489187
v -0.8577438 -0.0000000 0.1489187
v -0.8441938 -0.0000000 0.1691938
v -0.8577438 -0.1000000 0.1489187
v -0.8625000 -0.1000000 0.1250000
v -0.8625000 -0.0000000 0.1250000
v -0.8577438 -0.0000000 0.1489187
v -0.8625000 -0.1000000 0.1250000
v -0.8577438 -0.1000000 0.1010813
v -0.8577438 -0.0000000 0.1010813
v -0.8625000 -0.0000000 0.1250000
v -0.8577438 -0.1000000 0.1010813
v -0.8441938 -0.1000000 0.0808063
v -0.8441938 -0.0000000 0.0808063
v -0.8577438 -0.0000000 0.1010813
v -0.8441938 -0.1000000 0.0808063
v -0.8239188 -0.1000000 0.0672563
v -0.8239188 -0.0000000 0.0672563
v -0.8441938 -0.0000000 0.0808063
v -0.8239188 -0.1000000 0.0672563
v -0.8000000 -0.1000000 0.0625000
v -0.8000000 -0.0000000 0.0625000
v -0.8239188 -0.0000000 0.0672563
v -0.8000000 -0.1000000 0.0625000
v -0.7760813 -0.1000000 0.0672563
v -0.7760813 -0.0000000 0.0672563
v -0.8000000 -0.0000000 0.0625000
v -0.7760813 -0.1000000 0.0672563
v -0.7558063 -0.1000000 0.0808063
v -0.7558063 -0.0000000 0.0808063
v -0.7760813 -0.0000000 0.0672563
v -0.7558063 -0.1000000 0.0808063
v -0.7422563 -0.1000000 0.1010813
v -0.7422563 -0.0000000 0.1010813
v -0.7558063 -0.0000000 0.0808063
v -0.7422563 -0.1000000 0.1010813
v -0.7375000 -0.1000000 0.1250000
v -0.7375000 -0.0000000 0.1250000
v -0.7422563 -0.0000000 0.1010813
v -0.7375000 -0.0000000 0.1875000
v -0.7375000 -0.0000000 0.1250000
v -0.7422563 -0.0000000 0.1489187
v -0.7375000 -0.0000000 0.1875000
v -0.7422563 -0.0000000 0.1489187
v -0.7558063 -0.0000000 0.1691938
v -0.7375000 -0.0000000 0.1875000
v -0.7558063 -0.0000000 0.1691938
v -0.7760813 -0.0000000 0.1827438
v -0.7375000 -0.0000000 0.1875000
v -0.7760813 -0.0000000 0.1827438
v -0.8000000 -0.0000000 0.1875000
v -0.8625000 -0.0000000 0.1875000
v -0.8000000 -0.0000000 0.1875000
v -0.8239188 -0.0000000 0.1827438
v -0.8625000 -0.0000000 0.1875000
v -0.8239188 -0.0000000 0.1827438
v -0.8441938 -0.0000000 0.1691938
v -0.8625000 -0.0000000 0.1875000
v -0.8441938 -0.0000000 0.1691938
v -0.8577438 -0.0000000 0.1489187
v -0.8625000 -0.0000000 0.1875000
v -0.8577438 -0.0000000 0.1489187
v -0.8625000 -0.0000000 0.1250000
v -0.8625000 -0.0000000 0.0625000
v -0.8625000 -0.0000000 0.1250000
v -0.8581225 -0.0000000 0.1029937
v 0.8625000 -0.1000000 0.1250000
v 0.8577438 -0.1000000 0.1489187
v 0.8577438 -0.0000000 0.1489187
v 0.8625000 -0.0000000 0.1250000
v 0.8577438 -0.1000000 0.1489187
v 0.8441938 -0.1000000 0.1691938
v 0.8441938 -0.0000000 0.1691938
v 0.8577438 -0.0000000 0.1489187
v 0.8441938 -0.1000000 0.1691938
v 0.8239188 -0.1000000 0.1827438
v 0.8239188 -0.0000000 0.1827438
v 0.8441938 -0.0000000 0.1691938
v 0.8239188 -0.1000000 0.1827438
v 0.8000000 -0.1000000 0.1875000
v 0.8000000 -0.0000000 0.1875000
v 0.8239188 -0.0000000 0.1827438
v 0.8000000 -0.1000000 0.1875000
v 0.7760813 -0.1000000 0.1827438
v 0.7760813 -0.0000000 0.1827438
v 0.8000000 -0.0000000 0.1875000
v 0.7760813 -0.1000000 0.1827438
v 0.7558063 -0.1000000 0.1691938
v 0.7558063 -0.0000000 0.1691938
v 0.7760813 -0.0000000 0.1827438
v 0.7558063 -0.1000000 0.1691938
v 0.7422563 -0.1000000 0.1489187
v 0.7422563 -0.0000000 0.1489187
v 0.7558063 -0.0000000 0.1691938
v 0.7422563 -0.1000000 0.1489187
v 0.7375000 -0.1000000 0.1250000
v 0.7375000 -0.0000000 0.1250000
v 0.7422563 -0.0000000 0.1489187
v 0.7375000 -0.1000000 0.1250000
v 0.7422563 -0.1000000 0.1010813
v 0.7422563 -0.0000000 0.1010813
v 0.7375000 -0.0000000 0.1250000
v 0.7422563 -0.1000000 0.1010813
v 0.7558063 -0.1000000 0.0808063
v 0.7558063 -0.0000000 0.0808063
v 0.7422563 -0.0000000 0.1010813
v 0.7558063 -0.1000000 0.0808063
v 0.7760813 -0.1000000 0.0672563
v 0.7760813 -0.0000000 0.0672563
v 0.7558063 -0.0000000 0.0808063
v 0.7760813 -0.1000000 0.0672563
v 0.8000000 -0.1000000 0.0625000
v 0.8000000 -0.0000000 0.0625000
v 0.7760813 -0.0000000 0.0672563
v 0.8000000 -0.1000000 0.0625000
v 0.8239188 -0.1000000 0.0672563
v 0.8239188 -0.0000000 0.0672563
v 0.8000000 -0.0000000 0.0625000
v 0.8239188 -0.1000000 0.0672563
v 0.8441938 -0.1000000 0.0808063
v 0.8441938 -0.0000000 0.0808063
v 0.8239188 -0.0000000 0.0672563
v 0.8441938 -0.1000000 0.0808063
v 0.8577438 -0.1000000 0.1010813
v 0.8577438 -0.0000000 0.1010813
v 0.8441938 -0.0000000 0.0808063
v 0.8577438 -0.1000000 0.1010813
v 0.8625000 -0.1000000 0.1250000
v 0.8625000 -0.0000000 0.1250000
v 0.8577438 -0.0000000 0.1010813
v 0.7422563 -0.0000000 0.1489187
v 0.7375000 -0.0000000 0.1250000
v 0.7375000 -0.0000000 0.1875000
v 0.7558063 -0.0000000 0.1691938
v 0.7422563 -0.0000000 0.1489187
v 0.7375000 -0.0000000 0.1875000
v 0.7760813 -0.0000000 0.1827438
v 0.7558063 -0.0000000 0.1691938
v 0.7375000 -0.0000000 0.1875000
v 0.8000000 -0.0000000 0.1875000
v 0.7760813 -0.0000000 0.1827438
v 0.7375000 -0.0000000 0.1875000
v 0.8239188 -0.0000000 0.1827438
v 0.8000000 -0.0000000 0.1875000
v 0.8625000 -0.0000000 0.1875000
v 0.8441938 -0.0000000 0.1691938
v 0.8239188 -0.0000000 0.1827438
v 0.8625000 -0.0000000 0.1875000
v 0.8577438 -0.0000000 0.1489187
v 0.8441938 -0.0000000 0.1691938
v 0.8625000 -0.0000000 0.1875000
v 0.8625000 -0.0000000 0.1250000
v 0.8577438 -0.0000000 0.1489187
v 0.8625000 -0.0000000 0.1875000
v 0.8581225 -0.0000000 0.1029925
v 0.8625000 -0.0000000 0.1250000
v 0.8625000 -0.0000000 0.0625000
v 0.8625000 -0.0000000 0.1875000
v -0.8625000 -0.0000000 0.1875000
v -1.0000000 -0.0000000 0.2500000
v 1.0000000 -0.0000000 0.2500000
v -0.8625000 -0.0000000 0.0625000
v 0.8625000 -0.0000000 0.0625000
v 1.0000000 -0.0000000 -0.2500000
v -1.0000000 -0.0000000 -0.2500000
v 1.0000000 -0.0000000 0.2500000
v 1.0000000 -0.0000000 -0.2500000
v 0.8625000 -0.0000000 0.0625000
v 0.8625000 -0.0000000 0.1875000
v -0.8625000 -0.0000000 0.1875000
v -0.8625000 -0.0000000 0.0625000
v -1.0000000 -0.0000000 -0.2500000
v -1.0000000 -0.0000000 0.2500000
v 0.7375000 -0.0000000 0.1875000
v 0.7375000 -0.0000000 0.0625000
v -0.7375000 -0.0000000 0.0625000
v -0.7375000 -0.0000000 0.1875000
v -0.9000043 0.1000000 -0.0000014
v -0.8885825 0.1000000 0.0574025
v -0.7500000 0.1000000 0.0000000
v -0.8885810 0.1000000 -0.0574024
v -0.9000043 0.1000000 -0.0000014
v -0.7500000 0.1000000 0.0000000
v -0.8560697 0.1000000 -0.1060684
v -0.8885810 0.1000000 -0.0574024
v -0.7500000 0.1000000 0.0000000
v -0.8074025 0.1000000 -0.1385825
v -0.8560697 0.1000000 -0.1060684
v -0.7500000 0.1000000 0.0000000
v -0.7499986 0.1000000 -0.1500043
v -0.8074025 0.1000000 -0.1385825
v -0.7500000 0.1000000 0.0000000
v -0.6925976 0.1000000 -0.1385810
v -0.7499986 0.1000000 -0.1500043
v -0.7500000 0.1000000 0.0000000
v -0.6439316 0.1000000 -0.1060697
v -0.6925976 0.1000000 -0.1385810
v -0.7500000 0.1000000 0.0000000
v -0.6114175 0.1000000 -0.0574025
v -0.6439316 0.1000000 -0.1060697
v -0.7500000 0.1000000 0.0000000
v -0.5999957 0.1000000 0.0000014
v -0.6114175 0.1000000 -0.0574025
v -0.7500000 0.1000000 0.0000000
v -0.6114190 0.1000000 0.0574024
v -0.5999957 0.1000000 0.0000014
v -0.7500000 0.1000000 0.0000000
v -0.6439303 0.1000000 0.1060684
v -0.6114190 0.1000000 0.0574024
v -0.7500000 0.1000000 0.0000000
v -0.6925975 0.1000000 0.1385825
v -0.6439303 0.1000000 0.1060684
v -0.7500000 0.1000000 0.0000000
v -0.8885825 -0.0000000 0.0574025
v -0.8885825 0.1000000 0.0574025
v -0.9000043 0.1000000 -0.0000014
v -0.9000043 -0.0000000 -0.0000014
v -0.9000043 -0.0000000 -0.0000014
v -0.9000043 0.1000000 -0.0000014
v -0.8885810 0.1000000 -0.0574024
v -0.8885810 -0.0000000 -0.0574024
v -0.8885810 -0.0000000 -0.0574024
v -0.8885810 0.1000000 -0.0574024
v -0.8560697 0.1000000 -0.1060684
v -0.8560697 -0.0000000 -0.1060684
v -0.8560697 -0.0000000 -0.1060684
v -0.8560697 0.1000000 -0.1060684
v -0.8074025 0.1000000 -0.1385825
v -0.8074025 -0.0000000 -0.1385825
v -0.8074025 -0.0000000 -0.1385825
v -0.8074025 0.1000000 -0.1385825
v -0.7499986 0.1000000 -0.1500043
v -0.7499986 -0.0000000 -0.1500043
v -0.7499986 -0.0000000 -0.1500043
v -0.7499986 0.1000000 -0.1500043
v -0.6925976 0.1000000 -0.1385810
v -0.6925976 -0.0000000 -0.1385810
v -0.6925976 -0.0000000 -0.1385810
v -0.6925976 0.1000000 -0.1385810
v -0.6439316 0.1000000 -0.1060697
v -0.6439316 -0.0000000 -0.1060697
v -0.6439316 -0.0000000 -0.1060697
v -0.6439316 0.1000000 -0.1060697
v -0.6114175 0.1000000 -0.0574025
v -0.6114175 -0.0000000 -0.0574025
v -0.6114175 -0.0000000 -0.0574025
v -0.6114175 0.1000000 -0.0574025
v -0.5999957 0.1000000 0.0000014
v -0.5999957 -0.0000000 0.0000014
v -0.5999957 -0.0000000 0.0000014
v -0.5999957 0.1000000 0.0000014
v -0.6114190 0.1000000 0.0574024
v -0.6114190 -0.0000000 0.0574024
v -0.6114190 -0.0000000 0.0574024
v -0.6114190 0.1000000 0.0574024
v -0.6439303 0.1000000 0.1060684
v -0.6439303 -0.0000000 0.1060684
v -0.6439303 -0.0000000 0.1060684
v -0.6439303 0.1000000 0.1060684
v -0.6925975 0.1000000 0.1385825
v -0.6925975 -0.0000000 0.1385825
v -0.7421625 0.1000000 0.1484453
v -0.7421625 -0.0000000 0.1484453
v -0.6925975 -0.0000000 0.1385825
v -0.6925975 0.1000000 0.1385825
v -0.8885825 0.1000000 0.0574025
v -0.8885825 -0.0000000 0.0574025
v -0.8581225 -0.0000000 0.1029937
v -0.8581225 0.1000000 0.1029937
v -0.7375000 0.1000000 0.1250000
v -0.7421625 0.1000000 0.1484453
v -0.6925975 0.1000000 0.1385825
v -0.7422575 0.1000000 0.1010825
v -0.6925975 0.1000000 0.1385825
v -0.7500000 0.1000000 0.0000000
v -0.7500025 0.1000000 0.0894938
v -0.7422575 0.1000000 0.1010825
v -0.7375000 0.1000000 0.1250000
v -0.6925975 0.1000000 0.1385825
v -0.7558075 0.1000000 0.0808050
v -0.7500025 0.1000000 0.0894938
v -0.7500000 0.1000000 0.0000000
v -0.7760800 0.1000000 0.0672550
v -0.7558075 0.1000000 0.0808050
v -0.7500000 0.1000000 0.0000000
v -0.7500000 0.1000000 0.0000000
v -0.7777225 0.1000000 0.0669283
v -0.7760800 0.1000000 0.0672550
v -0.8000000 0.1000000 0.0625000
v -0.7777225 0.1000000 0.0669283
v -0.7500000 0.1000000 0.0000000
v -0.7500000 0.1000000 0.0000000
v -0.8156000 0.1000000 0.0656012
v -0.8000000 0.1000000 0.0625000
v -0.8239175 0.1000000 0.0672550
v -0.8156000 0.1000000 0.0656012
v -0.7500000 0.1000000 0.0000000
v -0.8885825 0.1000000 0.0574025
v -0.8441925 0.1000000 0.0808050
v -0.8239175 0.1000000 0.0672550
v -0.8885825 0.1000000 0.0574025
v -0.8577425 0.1000000 0.1010825
v -0.8441925 0.1000000 0.0808050
v -0.8885825 0.1000000 0.0574025
v -0.8885825 0.1000000 0.0574025
v -0.8581225 0.1000000 0.1029937
v -0.8577425 0.1000000 0.1010825
v -0.7422563 -0.0000000 0.1010813
v -0.7375000 -0.0000000 0.1250000
v -0.7375000 0.1000000 0.1250000
v -0.7422563 0.1000000 0.1010813
v -0.7558063 -0.0000000 0.0808063
v -0.7422563 -0.0000000 0.1010813
v -0.7422563 0.1000000 0.1010813
v -0.7558063 0.1000000 0.0808063
v -0.7760813 -0.0000000 0.0672563
v -0.7558063 -0.0000000 0.0808063
v -0.7558063 0.1000000 0.0808063
v -0.7760813 0.1000000 0.0672563
v -0.8000000 -0.0000000 0.0625000
v -0.7760813 -0.0000000 0.0672563
v -0.7760813 0.1000000 0.0672563
v -0.8000000 0.1000000 0.0625000
v -0.8239188 -0.0000000 0.0672563
v -0.8000000 -0.0000000 0.0625000
v -0.8000000 0.1000000 0.0625000
v -0.8239188 0.1000000 0.0672563
v -0.8441938 -0.0000000 0.0808063
v -0.8239188 -0.0000000 0.0672563
v -0.8239188 0.1000000 0.0672563
v -0.8441938 0.1000000 0.0808063
v -0.8577438 -0.0000000 0.1010813
v -0.8441938 -0.0000000 0.0808063
v -0.8441938 0.1000000 0.0808063
v -0.8577438 0.1000000 0.1010813
v -0.8581225 0.1000000 0.1029937
v -0.8581225 -0.0000000 0.1029937
v -0.8577425 -0.0000000 0.1010825
v -0.8577425 0.1000000 0.1010825
v -0.7375000 0.1000000 0.1250000
v -0.7375000 -0.0000000 0.1250000
v -0.7421625 -0.0000000 0.1484453
v -0.7421625 0.1000000 0.1484453
v 0.7500000 0.1000000 0.0000000
v 0.8885825 0.1000000 0.0574025
v 0.9000043 0.1000000 -0.0000014
v 0.7500000 0.1000000 0.0000000
v 0.9000043 0.1000000 -0.0000014
v 0.8885810 0.1000000 -0.0574024
v 0.7500000 0.1000000 0.0000000
v 0.8885810 0.1000000 -0.0574024
v 0.8560697 0.1000000 -0.1060684
v 0.7500000 0.1000000 0.0000000
v 0.8560697 0.1000000 -0.1060684
v 0.8074025 0.1000000 -0.1385825
v 0.7500000 0.1000000 0.0000000
v 0.8074025 0.1000000 -0.1385825
v 0.7499986 0.1000000 -0.1500043
v 0.7500000 0.1000000 0.0000000
v 0.7499986 0.1000000 -0.1500043
v 0.6925976 0.1000000 -0.1385810
v 0.7500000 0.1000000 0.0000000
v 0.6925976 0.1000000 -0.1385810
v 0.6439316 0.1000000 -0.1060697
v 0.7500000 0.1000000 0.0000000
v 0.6439316 0.1000000 -0.1060697
v 0.6114175 0.1000000 -0.0574025
v 0.7500000 0.1000000 0.0000000
v 0.6114175 0.1000000 -0.0574025
v 0.5999957 0.1000000 0.0000014
v 0.7500000 0.1000000 0.0000000
v 0.5999957 0.1000000 0.0000014
v 0.6114190 0.1000000 0.0574024
v 0.7500000 0.1000000 0.0000000
v 0.6114190 0.1000000 0.0574024
v 0.6439303 0.1000000 0.1060684
v 0.7500000 0.1000000 0.0000000
v 0.6439303 0.1000000 0.1060684
v 0.6925975 0.1000000 0.1385825
v 0.9000043 -0.0000000 -0.0000014
v 0.9000043 0.1000000 -0.0000014
v 0.8885825 0.1000000 0.0574025
v 0.8885825 -0.0000000 0.0574025
v 0.8885810 -0.0000000 -0.0574024
v 0.8885810 0.1000000 -0.0574024
v 0.9000043 0.1000000 -0.0000014
v 0.9000043 -0.0000000 -0.0000014
v 0.8560697 -0.0000000 -0.1060684
v 0.8560697 0.1000000 -0.1060684
v 0.8885810 0.1000000 -0.0574024
v 0.8885810 -0.0000000 -0.0574024
v 0.8074025 -0.0000000 -0.1385825
v 0.8074025 0.1000000 -0.1385825
v 0.8560697 0.1000000 -0.1060684
v 0.8560697 -0.0000000 -0.1060684
v 0.7499986 -0.0000000 -0.1500043
v 0.7499986 0.1000000 -0.1500043
v 0.8074025 0.1000000 -0.1385825
v 0.8074025 -0.0000000 -0.1385825
v 0.6925976 -0.0000000 -0.1385810
v 0.6925976 0.1000000 -0.1385810
v 0.7499986 0.1000000 -0.1500043
v 0.7499986 -0.0000000 -0.1500043
v 0.6439316 -0.0000000 -0.1060697
v 0.6439316 0.1000000 -0.1060697
v 0.6925976 0.1000000 -0.1385810
v 0.6925976 -0.0000000 -0.1385810
v 0.6114175 -0.0000000 -0.0574025
v 0.6114175 0.1000000 -0.0574025
v 0.6439316 0.1000000 -0.1060697
v 0.6439316 -0.0000000 -0.1060697
v 0.5999957 -0.0000000 0.0000014
v 0.5999957 0.1000000 0.0000014
v 0.6114175 0.1000000 -0.0574025
v 0.6114175 -0.0000000 -0.0574025
v 0.6114190 -0.0000000 0.0574024
v 0.6114190 0.1000000 0.0574024
v 0.5999957 0.1000000 0.0000014
v 0.5999957 -0.0000000 0.0000014
v 0.6439303 -0.0000000 0.1060684
v 0.6439303 0.1000000 0.1060684
v 0.6114190 0.1000000 0.0574024
v 0.6114190 -0.0000000 0.0574024
v 0.6925975 -0.0000000 0.1385825
v 0.6925975 0.1000000 0.1385825
v 0.6439303 0.1000000 0.1060684
v 0.6439303 -0.0000000 0.1060684
v 0.6925975 0.1000000 0.1385825
v 0.6925975 -0.0000000 0.1385825
v 0.7421625 -0.0000000 0.1484450
v 0.7421625 0.1000000 0.1484450
v 0.8581225 0.1000000 0.1029925
v 0.8581225 -0.0000000 0.1029925
v 0.8885825 -0.0000000 0.0574025
v 0.8885825 0.1000000 0.0574025
v 0.6925975 0.1000000 0.1385825
v 0.7421625 0.1000000 0.1484450
v 0.7375000 0.1000000 0.1250000
v 0.7500025 0.1000000 0.0894950
v 0.7500000 0.1000000 0.0000000
v 0.6925975 0.1000000 0.1385825
v 0.7422575 0.1000000 0.1010825
v 0.6925975 0.1000000 0.1385825
v 0.7375000 0.1000000 0.1250000
v 0.7422575 0.1000000 0.1010825
v 0.7500000 0.1000000 0.0000000
v 0.7500025 0.1000000 0.0894950
v 0.7558075 0.1000000 0.0808050
v 0.7500000 0.1000000 0.0000000
v 0.7558075 0.1000000 0.0808050
v 0.7760800 0.1000000 0.0672550
v 0.7760800 0.1000000 0.0672550
v 0.7777225 0.1000000 0.0669275
v 0.7500000 0.1000000 0.0000000
v 0.7500000 0.1000000 0.0000000
v 0.7777225 0.1000000 0.0669275
v 0.8000000 0.1000000 0.0625000
v 0.8000000 0.1000000 0.0625000
v 0.8156000 0.1000000 0.0656000
v 0.7500000 0.1000000 0.0000000
v 0.8885825 0.1000000 0.0574025
v 0.7500000 0.1000000 0.0000000
v 0.8156000 0.1000000 0.0656000
v 0.8239175 0.1000000 0.0672550
v 0.8885825 0.1000000 0.0574025
v 0.8239175 0.1000000 0.0672550
v 0.8441925 0.1000000 0.0808050
v 0.8885825 0.1000000 0.0574025
v 0.8441925 0.1000000 0.0808050
v 0.8577425 0.1000000 0.1010825
v 0.8577425 0.1000000 0.1010825
v 0.8581225 0.1000000 0.1029925
v 0.8885825 0.1000000 0.0574025
v 0.7422563 0.1000000 0.1010813
v 0.7375000 0.1000000 0.1250000
v 0.7375000 -0.0000000 0.1250000
v 0.7422563 -0.0000000 0.1010813
v 0.7558063 0.1000000 0.0808063
v 0.7422563 0.1000000 0.1010813
v 0.7422563 -0.0000000 0.1010813
v 0.7558063 -0.0000000 0.0808063
v 0.7760813 0.1000000 0.0672563
v 0.7558063 0.1000000 0.0808063
v 0.7558063 -0.0000000 0.0808063
v 0.7760813 -0.0000000 0.0672563
v 0.8000000 0.1000000 0.0625000
v 0.7760813 0.1000000 0.0672563
v 0.7760813 -0.0000000 0.0672563
v 0.8000000 -0.0000000 0.0625000
v 0.8239188 0.1000000 0.0672563
v 0.8000000 0.1000000 0.0625000
v 0.8000000 -0.0000000 0.0625000
v 0.8239188 -0.0000000 0.0672563
v 0.8441938 0.1000000 0.0808063
v 0.8239188 0.1000000 0.0672563
v 0.8239188 -0.0000000 0.0672563
v 0.8441938 -0.0000000 0.0808063
v 0.8577438 0.1000000 0.1010813
v 0.8441938 0.1000000 0.0808063
v 0.8441938 -0.0000000 0.0808063
v 0.8577438 -0.0000000 0.1010813
v 0.8577425 0.1000000 0.1010825
v 0.8577425 -0.0000000 0.1010825
v 0.8581225 -0.0000000 0.1029925
v 0.8581225 0.1000000 0.1029925
v 0.7421625 0.1000000 0.1484450
v 0.7421625 -0.0000000 0.1484450
v 0.7375000 -0.0000000 0.1250000
v 0.7375000 0.1000000 0.1250000
v 0.3500000 -0.0000000 0.0000000
v 0.3423900 -0.0000000 0.0382700
v 0.3423900 0.1000000 0.0382700
v 0.3500000 0.1000000 0.0000000
v 0.3423900 -0.0000000 0.0382700
v 0.3207100 -0.0000000 0.0707100
v 0.3207100 0.1000000 0.0707100
v 0.3423900 0.1000000 0.0382700
v 0.3207100 -0.0000000 0.0707100
v 0.2882700 -0.0000000 0.0923900
v 0.2882700 0.1000000 0.0923900
v 0.3207100 0.1000000 0.0707100
v 0.2882700 -0.0000000 0.0923900
v 0.2500000 -0.0000000 0.1000000
v 0.2500000 0.1000000 0.1000000
v 0.2882700 0.1000000 0.0923900
v 0.2500000 -0.0000000 0.1000000
v 0.2117300 -0.0000000 0.0923900
v 0.2117300 0.1000000 0.0923900
v 0.2500000 0.1000000 0.1000000
v 0.2117300 -0.0000000 0.0923900
v 0.1792900 -0.0000000 0.0707100
v 0.1792900 0.1000000 0.0707100
v 0.2117300 0.1000000 0.0923900
v 0.1792900 -0.0000000 0.0707100
v 0.1576100 -0.0000000 0.0382700
v 0.1576100 0.1000000 0.0382700
v 0.1792900 0.1000000 0.0707100
v 0.1576100 -0.0000000 0.0382700
v 0.1500000 -0.0000000 0.0000000
v 0.1500000 0.1000000 0.0000000
v 0.1576100 0.1000000 0.0382700
v 0.1500000 -0.0000000 0.0000000
v 0.1576100 -0.0000000 -0.0382700
v 0.1576100 0.1000000 -0.0382700
v 0.1500000 0.1000000 0.0000000
v 0.1576100 -0.0000000 -0.0382700
v 0.1792900 -0.0000000 -0.0707100
v 0.1792900 0.1000000 -0.0707100
v 0.1576100 0.1000000 -0.0382700
v 0.1792900 -0.0000000 -0.0707100
v 0.2117300 -0.0000000 -0.0923900
v 0.2117300 0.1000000 -0.0923900
v 0.1792900 0.1000000 -0.0707100
v 0.2117300 -0.0000000 -0.0923900
v 0.2500000 -0.0000000 -0.1000000
v 0.2500000 0.1000000 -0.1000000
v 0.2117300 0.1000000 -0.0923900
v 0.2500000 -0.0000000 -0.1000000
v 0.2882700 -0.0000000 -0.0923900
v 0.2882700 0.1000000 -0.0923900
v 0.2500000 0.1000000 -0.1000000
v 0.2882700 -0.0000000 -0.0923900
v 0.3207100 -0.0000000 -0.0707100
v 0.3207100 0.1000000 -0.0707100
v 0.2882700 0.1000000 -0.0923900
v 0.3207100 -0.0000000 -0.0707100
v 0.3423900 -0.0000000 -0.0382700
v 0.3423900 0.1000000 -0.0382700
v 0.3207100 0.1000000 -0.0707100
v 0.3423900 -0.0000000 -0.0382700
v 0.3500000 -0.0000000 0.0000000
v 0.3500000 0.1000000 0.0000000
v 0.3423900 0.1000000 -0.0382700
v 0.4000000 0.1000000 0.0000000
v 0.3885850 0.1000000 0.0574050
v 0.3885850 -0.0000000 0.0574050
v 0.4000000 -0.0000000 0.0000000
v 0.3885850 0.1000000 0.0574050
v 0.3560650 0.1000000 0.1060650
v 0.3560650 -0.0000000 0.1060650
v 0.3885850 -0.0000000 0.0574050
v 0.3560650 0.1000000 0.1060650
v 0.3074050 0.1000000 0.1385850
v 0.3074050 -0.0000000 0.1385850
v 0.3560650 -0.0000000 0.1060650
v 0.3074050 0.1000000 0.1385850
v 0.2500000 0.1000000 0.1500000
v 0.2500000 -0.0000000 0.1500000
v 0.3074050 -0.0000000 0.1385850
v 0.2500000 0.1000000 0.1500000
v 0.1925950 0.1000000 0.1385850
v 0.1925950 -0.0000000 0.1385850
v 0.2500000 -0.0000000 0.1500000
v 0.1925950 0.1000000 0.1385850
v 0.1439350 0.1000000 0.1060650
v 0.1439350 -0.0000000 0.1060650
v 0.1925950 -0.0000000 0.1385850
v 0.1439350 0.1000000 0.1060650
v 0.1114150 0.1000000 0.0574050
v 0.1114150 -0.0000000 0.0574050
v 0.1439350 -0.0000000 0.1060650
v 0.1114150 0.1000000 0.0574050
v 0.1000000 0.1000000 0.0000000
v 0.1000000 -0.0000000 0.0000000
v 0.1114150 -0.0000000 0.0574050
v 0.1000000 0.1000000 0.0000000
v 0.1114150 0.1000000 -0.0574050
v 0.1114150 -0.0000000 -0.0574050
v 0.1000000 -0.0000000 0.0000000
v 0.1114150 0.1000000 -0.0574050
v 0.1439350 0.1000000 -0.1060650
v 0.1439350 -0.0000000 -0.1060650
v 0.1114150 -0.0000000 -0.0574050
v 0.1439350 0.1000000 -0.1060650
v 0.1925950 0.1000000 -0.1385850
v 0.1925950 -0.0000000 -0.1385850
v 0.1439350 -0.0000000 -0.1060650
v 0.1925950 0.1000000 -0.1385850
v 0.2500000 0.1000000 -0.1500000
v 0.2500000 -0.0000000 -0.1500000
v 0.1925950 -0.0000000 -0.1385850
v 0.2500000 0.1000000 -0.1500000
v 0.3074050 0.1000000 -0.1385850
v 0.3074050 -0.0000000 -0.1385850
v 0.2500000 -0.0000000 -0.1500000
v 0.3074050 0.1000000 -0.1385850
v 0.3560650 0.1000000 -0.1060650
v 0.3560650 -0.0000000 -0.1060650
v 0.3074050 -0.0000000 -0.1385850
v 0.3560650 0.1000000 -0.1060650
v 0.3885850 0.1000000 -0.0574050
v 0.3885850 -0.0000000 -0.0574050
v 0.3560650 -0.0000000 -0.1060650
v 0.3885850 0.1000000 -0.0574050
v 0.4000000 0.1000000 0.0000000
v 0.4000000 -0.0000000 0.0000000
v 0.3885850 -0.0000000 -0.0574050
v 0.2500000 0.1000000 0.1500000
v 0.2500000 0.1000000 0.1000000
v 0.2117300 0.1000000 0.0923900
v 0.1925950 0.1000000 0.1385850
v 0.1925950 0.1000000 0.1385850
v 0.2117300 0.1000000 0.0923900
v 0.1792900 0.1000000 0.0707100
v 0.1439350 0.1000000 0.1060650
v 0.1439350 0.1000000 0.1060650
v 0.1792900 0.1000000 0.0707100
v 0.1576100 0.1000000 0.0382700
v 0.1114150 0.1000000 0.0574050
v 0.1114150 0.1000000 0.0574050
v 0.1576100 0.1000000 0.0382700
v 0.1500000 0.1000000 0.0000000
v 0.1000000 0.1000000 0.0000000
v 0.1000000 0.1000000 0.0000000
v 0.1500000 0.1000000 0.0000000
v 0.1576100 0.1000000 -0.0382700
v 0.1114150 0.1000000 -0.0574050
v 0.1114150 0.1000000 -0.0574050
v 0.1576100 0.1000000 -0.0382700
v 0.1792900 0.1000000 -0.0707100
v 0.1439350 0.1000000 -0.1060650
v 0.1439350 0.1000000 -0.1060650
v 0.1792900 0.1000000 -0.0707100
v 0.2117300 0.1000000 -0.0923900
v 0.1925950 0.1000000 -0.1385850
v 0.1925950 0.1000000 -0.1385850
v 0.2117300 0.1000000 -0.0923900
v 0.2500000 0.1000000 -0.1000000
v 0.2500000 0.1000000 -0.1500000
v 0.2500000 0.1000000 -0.1500000
v 0.2500000 0.1000000 -0.1000000
v 0.2882700 0.1000000 -0.0923900
v 0.3074050 0.1000000 -0.1385850
v 0.3074050 0.1000000 -0.1385850
v 0.2882700 0.1000000 -0.0923900
v 0.3207100 0.1000000 -0.0707100
v 0.3560650 0.1000000 -0.1060650
v 0.3560650 0.1000000 -0.1060650
v 0.3207100 0.1000000 -0.0707100
v 0.3423900 0.1000000 -0.0382700
v 0.3885850 0.1000000 -0.0574050
v 0.3885850 0.1000000 -0.0574050
v 0.3423900 0.1000000 -0.0382700
v 0.3500000 0.1000000 0.0000000
v 0.4000000 0.1000000 0.0000000
v 0.4000000 0.1000000 0.0000000
v 0.3500000 0.1000000 0.0000000
v 0.3423900 0.1000000 0.0382700
v 0.3885850 0.1000000 0.0574050
v 0.3885850 0.1000000 0.0574050
v 0.3423900 0.1000000 0.0382700
v 0.3207100 0.1000000 0.0707100
v 0.3560650 0.1000000 0.1060650
v 0.3560650 0.1000000 0.1060650
v 0.3207100 0.1000000 0.0707100
v 0.2882700 0.1000000 0.0923900
v 0.3074050 0.1000000 0.1385850
v 0.3074050 0.1000000 0.1385850
v 0.2882700 0.1000000 0.0923900
v 0.2500000 0.1000000 0.1000000
v 0.2500000 0.1000000 0.1500000
v -0.1500000 -0.0000000 0.0000000
v -0.1576100 -0.0000000 0.0382700
v -0.1576100 0.1000000 0.0382700
v -0.1500000 0.1000000 0.0000000
v -0.1576100 -0.0000000 0.0382700
v -0.1792900 -0.0000000 0.0707100
v -0.1792900 0.1000000 0.0707100
v -0.1576100 0.1000000 0.0382700
v -0.1792900 -0.0000000 0.0707100
v -0.2117300 -0.0000000 0.0923900
v -0.2117300 0.1000000 0.0923900
v -0.1792900 0.1000000 0.0707100
v -0.2117300 -0.0000000 0.0923900
v -0.2500000 -0.0000000 0.1000000
v -0.2500000 0.1000000 0.1000000
v -0.2117300 0.1000000 0.0923900
v -0.2500000 -0.0000000 0.1000000
v -0.2882700 -0.0000000 0.0923900
v -0.2882700 0.1000000 0.0923900
v -0.2500000 0.1000000 0.1000000
v -0.2882700 -0.0000000 0.0923900
v -0.3207100 -0.0000000 0.0707100
v -0.3207100 0.1000000 0.0707100
v -0.2882700 0.1000000 0.0923900
v -0.3207100 -0.0000000 0.0707100
v -0.3423900 -0.0000000 0.0382700
v -0.3423900 0.1000000 0.0382700
v -0.3207100 0.1000000 0.0707100
v -0.3423900 -0.0000000 0.0382700
v -0.3500000 -0.0000000 0.0000000
v -0.3500000 0.1000000 0.0000000
v -0.3423900 0.1000000 0.0382700
v -0.3500000 -0.0000000 0.0000000
v -0.3423900 -0.0000000 -0.0382700
v -0.3423900 0.1000000 -0.0382700
v -0.3500000 0.1000000 0.0000000
v -0.3423900 -0.0000000 -0.0382700
v -0.3207100 -0.0000000 -0.0707100
v -0.3207100 0.1000000 -0.0707100
v -0.3423900 0.1000000 -0.0382700
v -0.3207100 -0.0000000 -0.0707100
v -0.2882700 -0.0000000 -0.0923900
v -0.2882700 0.1000000 -0.0923900
v -0.3207100 0.1000000 -0.0707100
v -0.2882700 -0.0000000 -0.0923900
v -0.2500000 -0.0000000 -0.1000000
v -0.2500000 0.1000000 -0.1000000
v -0.2882700 0.1000000 -0.0923900
v -0.2500000 -0.0000000 -0.1000000
v -0.2117300 -0.0000000 -0.0923900
v -0.2117300 0.1000000 -0.0923900
v -0.2500000 0.1000000 -0.1000000
v -0.2117300 -0.0000000 -0.0923900
v -0.1792900 -0.0000000 -0.0707100
v -0.1792900 0.1000000 -0.0707100
v -0.2117300 0.1000000 -0.0923900
v -0.1792900 -0.0000000 -0.0707100
v -0.1576100 -0.0000000 -0.0382700
v -0.1576100 0.1000000 -0.0382700
v -0.1792900 0.1000000 -0.0707100
v -0.1576100 -0.0000000 -0.0382700
v -0.1500000 -0.0000000 0.0000000
v -0.1500000 0.1000000 0.0000000
v -0.1576100 0.1000000 -0.0382700
v -0.1000000 0.1000000 0.0000000
v -0.1114150 0.1000000 0.0574050
v -0.1114150 -0.0000000 0.0574050
v -0.1000000 -0.0000000 0.0000000
v -0.1114150 0.1000000 0.0574050
v -0.1439350 0.1000000 0.1060650
v -0.1439350 -0.0000000 0.1060650
v -0.1114150 -0.0000000 0.0574050
v -0.1439350 0.1000000 0.1060650
v -0.1925950 0.1000000 0.1385850
v -0.1925950 -0.0000000 0.1385850
v -0.1439350 -0.0000000 0.1060650
v -0.1925950 0.1000000 0.1385850
v -0.2500000 0.1000000 0.1500000
v -0.2500000 -0.0000000 0.1500000
v -0.1925950 -0.0000000 0.1385850
v -0.2500000 0.1000000 0.1500000
v -0.3074050 0.1000000 0.1385850
v -0.3074050 -0.0000000 0.1385850
v -0.2500000 -0.0000000 0.1500000
v -0.3074050 0.1000000 0.1385850
v -0.3560650 0.1000000 0.1060650
v -0.3560650 -0.0000000 0.1060650
v -0.3074050 -0.0000000 0.1385850
v -0.3560650 0.1000000 0.1060650
v -0.3885850 0.1000000 0.0574050
v -0.3885850 -0.0000000 0.0574050
v -0.3560650 -0.0000000 0.1060650
v -0.3885850 0.1000000 0.0574050
v -0.4000000 0.1000000 0.0000000
v -0.4000000 -0.0000000 0.0000000
v -0.3885850 -0.0000000 0.0574050
v -0.4000000 0.1000000 0.0000000
v -0.3885850 0.1000000 -0.0574050
v -0.3885850 -0.0000000 -0.0574050
v -0.4000000 -0.0000000 0.0000000
v -0.3885850 0.1000000 -0.0574050
v -0.3560650 0.1000000 -0.1060650
v -0.3560650 -0.0000000 -0.1060650
v -0.3885850 -0.0000000 -0.0574050
v -0.3560650 0.1000000 -0.1060650
v -0.3074050 0.1000000 -0.1385850
v -0.3074050 -0.0000000 -0.1385850
v -0.3560650 -0.0000000 -0.1060650
v -0.3074050 0.1000000 -0.1385850
v -0.2500000 0.1000000 -0.1500000
v -0.2500000 -0.0000000 -0.1500000
v -0.3074050 -0.0000000 -0.1385850
v -0.2500000 0.1000000 -0.1500000
v -0.1925950 0.1000000 -0.1385850
v -0.1925950 -0.0000000 -0.1385850
v -0.2500000 -0.0000000 -0.1500000
v -0.1925950 0.1000000 -0.1385850
v -0.1439350 0.1000000 -0.1060650
v -0.1439350 -0.0000000 -0.1060650
v -0.1925950 -0.0000000 -0.1385850
v -0.1439350 0.1000000 -0.1060650
v -0.1114150 0.1000000 -0.0574050
v -0.1114150 -0.0000000 -0.0574050
v -0.1439350 -0.0000000 -0.1060650
v -0.1114150 0.1000000 -0.0574050
v -0.1000000 0.1000000 0.0000000
v -0.1000000 -0.0000000 0.0000000
v -0.1114150 -0.0000000 -0.0574050
v -0.2500000 0.1000000 0.1500000
v -0.2500000 0.1000000 0.1000000
v -0.2882700 0.1000000 0.0923900
v -0.3074050 0.1000000 0.1385850
v -0.3074050 0.1000000 0.1385850
v -0.2882700 0.1000000 0.0923900
v -0.3207100 0.1000000 0.0707100
v -0.3560650 0.1000000 0.1060650
v -0.3560650 0.1000000 0.1060650
v -0.3207100 0.1000000 0.0707100
v -0.3423900 0.1000000 0.0382700
v -0.3885850 0.1000000 0.0574050
v -0.3885850 0.1000000 0.0574050
v -0.3423900 0.1000000 0.0382700
v -0.3500000 0.1000000 0.0000000
v -0.4000000 0.1000000 0.0000000
v -0.4000000 0.1000000 0.0000000
v -0.3500000 0.1000000 0.0000000
v -0.3423900 0.1000000 -0.0382700
v -0.3885850 0.1000000 -0.0574050
v -0.3885850 0.1000000 -0.0574050
v -0.3423900 0.1000000 -0.0382700
v -0.3207100 0.1000000 -0.0707100
v -0.3560650 0.1000000 -0.1060650
v -0.3560650 0.1000000 -0.1060650
v -0.3207100 0.1000000 -0.0707100
v -0.2882700 0.1000000 -0.0923900
v -0.3074050 0.1000000 -0.1385850
v -0.3074050 0.1000000 -0.1385850
v -0.2882700 0.1000000 -0.0923900
v -0.2500000 0.1000000 -0.1000000
v -0.2500000 0.1000000 -0.1500000
v -0.2500000 0.1000000 -0.1500000
v -0.2500000 0.1000000 -0.1000000
v -0.2117300 0.1000000 -0.0923900
v -0.1925950 0.1000000 -0.1385850
v -0.1925950 0.1000000 -0.1385850
v -0.2117300 0.1000000 -0.0923900
v -0.1792900 0.1000000 -0.0707100
v -0.1439350 0.1000000 -0.1060650
v -0.1439350 0.1000000 -0.1060650
v -0.1792900 0.1000000 -0.0707100
v -0.1576100 0.1000000 -0.0382700
v -0.1114150 0.1000000 -0.0574050
v -0.1114150 0.1000000 -0.0574050
v -0.1576100 0.1000000 -0.0382700
v -0.1500000 0.1000000 0.0000000
v -0.1000000 0.1000000 0.0000000
v -0.1000000 0.1000000 0.0000000
v -0.1500000 0.1000000 0.0000000
v -0.1576100 0.1000000 0.0382700
v -0.1114150 0.1000000 0.0574050
v -0.1114150 0.1000000 0.0574050
v -0.1576100 0.1000000 0.0382700
v -0.1792900 0.1000000 0.0707100
v -0.1439350 0.1000000 0.1060650
v -0.1439350 0.1000000 0.1060650
v -0.1792900 0.1000000 0.0707100
v -0.2117300 0.1000000 0.0923900
v -0.1925950 0.1000000 0.1385850
v -0.1925950 0.1000000 0.1385850
v -0.2117300 0.1000000 0.0923900
v -0.2500000 0.1000000 0.1000000
v -0.2500000 0.1000000 0.1500000
s off
f 1 2 3
f 1 3 4
f 5 6 7
f 5 7 8
f 9 10 11
f 9 11 12
f 13 14 15
f 13 15 16
f 17 18 19
f 17 19 20
f 21 22 23
f 21 23 24
f 25 26 27
f 25 27 28
f 29 30 31
f 29 31 32
f 33 34 35
f 33 35 36
f 37 38 39
f 37 39 40
f 41 42 43
f 41 43 44
f 45 46 47
f 45 47 48
f 49 50 51
f 49 51 52
f 53 54 55
f 53 55 56
f 57 58 59
f 57 59 60
f 61 62 63
f 61 63 64
f 65 66 67
f 65 67 68
f 69 70 71
f 69 71 72
f 73 74 75
f 76 77 78
f 79 80 81
f 82 83 84
f 85 86 87
f 88 89 90
f 91 92 93
f 94 95 96
f 97 98 99
f 100 101 102
f 103 104 105
f 106 107 108
f 109 110 111
f 112 113 114
f 115 116 117
f 118 119 120
f 121 122 123
f 121 123 124
f 125 126 127
f 125 127 128
f 129 130 131
f 129 131 132
f 133 134 135
f 133 135 136
f 137 138 139
f 137 139 140
f 141 142 143
f 144 145 146
f 147 148 149
f 147 149 150
f 151 152 153
f 154 155 156
f 157 158 159
f 160 161 162
f 163 164 165
f 166 167 168
f 169 170 171
f 172 173 174
f 175 176 177
f 178 179 180
f 181 182 183
f 184 185 186
f 187 188 189
f 190 191 192
f 193 194 195
f 196 197 198
f 199 200 201
f 202 203 204
f 205 206 207
f 205 207 208
f 209 210 211
f 209 211 212
f 213 214 215
f 213 215 216
f 217 218 219
f 217 219 220
f 221 222 223
f 221 223 224
f 225 226 227
f 225 227 228
f 229 230 231
f 229 231 232
f 233 234 235
f 233 235 236
f 237 238 239
f 237 239 240
f 241 242 243
f 241 243 244
f 245 246 247
f 245 247 248
f 249 250 251
f 249 251 252
f 253 254 255
f 253 255 256
f 257 258 259
f 257 259 260
f 261 262 263
f 261 263 264
f 265 266 267
f 265 267 268
f 269 270 271
f 272 273 274
f 275 276 277
f 278 279 280
f 281 282 283
f 284 285 286
f 287 288 289
f 290 291 292
f 293 294 295
f 296 297 298
f 299 300 301
f 302 303 304
f 305 306 307
f 308 309 310
f 311 312 313
f 314 315 316
f 317 318 319
f 317 319 320
f 321 322 323
f 321 323 324
f 325 326 327
f 325 327 328
f 329 330 331
f 329 331 332
f 333 334 335
f 333 335 336
f 337 338 339
f 337 339 340
f 341 342 343
f 341 343 344
f 345 346 347
f 345 347 348
f 349 350 351
f 349 351 352
f 353 354 355
f 353 355 356
f 357 358 359
f 357 359 360
f 361 362 363
f 361 363 364
f 365 366 367
f 365 367 368
f 369 370 371
f 369 371 372
f 373 374 375
f 373 375 376
f 377 378 379
f 377 379 380
f 381 382 383
f 384 385 386
f 387 388 389
f 390 391 392
f 393 394 395
f 396 397 398
f 399 400 401
f 402 403 404
f 405 406 407
f 408 409 410
f 411 412 413
f 414 415 416
f 417 418 419
f 420 421 422
f 423 424 425
f 426 427 428
f 429 430 431
f 429 431 432
f 433 434 435
f 433 435 436
f 437 438 439
f 437 439 440
f 441 442 443
f 441 443 444
f 445 446 447
f 445 447 448
f 449 450 451
f 449 451 452
f 453 454 455
f 453 455 456
f 457 458 459
f 457 459 460
f 461 462 463
f 461 463 464
f 465 466 467
f 465 467 468
f 469 470 471
f 469 471 472
f 473 474 475
f 473 475 476
f 477 478 479
f 477 479 480
f 481 482 483
f 481 483 484
f 485 486 487
f 485 487 488
f 489 490 491
f 489 491 492
f 493 494 495
f 493 495 496
f 497 498 499
f 497 499 500
f 501 502 503
f 501 503 504
f 505 506 507
f 505 507 508
f 509 510 511
f 509 511 512
f 513 514 515
f 513 515 516
f 517 518 519
f 517 519 520
f 521 522 523
f 524 525 526
f 527 528 529
f 530 531 532
f 533 534 535
f 536 537 538
f 539 540 541
f 542 543 544
f 545 546 547
f 548 549 550
f 548 550 551
f 552 553 554
f 555 556 557
f 555 557 558
f 559 560 561
f 559 561 562
f 563 564 565
f 563 565 566
f 567 568 569
f 567 569 570
f 571 572 573
f 571 573 574
f 575 576 577
f 575 577 578
f 579 580 581
f 579 581 582
f 583 584 585
f 583 585 586
f 587 588 589
f 587 589 590
f 591 592 593
f 591 593 594
f 595 596 597
f 595 597 598
f 599 600 601
f 599 601 602
f 603 604 605
f 603 605 606
f 607 608 609
f 607 609 610
f 611 612 613
f 611 613 614
f 615 616 617
f 615 617 618
f 619 620 621
f 619 621 622
f 623 624 625
f 623 625 626
f 627 628 629
f 627 629 630
f 631 632 633
f 631 633 634
f 635 636 637
f 638 639 640
f 641 642 643
f 644 645 646
f 647 648 649
f 650 651 652
f 653 654 655
f 656 657 658
f 659 660 661
f 662 663 664
f 665 666 667
f 668 669 670
f 671 672 673
f 674 675 676
f 677 678 679
f 680 681 682
f 683 684 685
f 683 685 686
f 687 688 689
f 687 689 690
f 691 692 693
f 691 693 694
f 695 696 697
f 695 697 698
f 699 700 701
f 699 701 702
f 703 704 705
f 703 705 706
f 707 708 709
f 707 709 710
f 711 712 713
f 711 713 714
f 715 716 717
f 715 717 718
f 719 720 721
f 719 721 722
f 723 724 725
f 723 725 726
f 727 728 729
f 727 729 730
f 731 732 733
f 731 733 734
f 735 736 737
f 735 737 738
f 739 740 741
f 739 741 742
f 743 744 745
f 743 745 746
f 747 748 749
f 750 751 752
f 753 754 755
f 756 757 758
f 759 760 761
f 762 763 764
f 765 766 767
f 768 769 770
f 771 772 773
f 774 775 776
f 777 778 779
f 780 781 782
f 783 784 785
f 786 787 788
f 789 790 791
f 792 793 794
f 795 796 797
f 795 797 798
f 799 800 801
f 799 801 802
f 803 804 805
f 803 805 806
f 807 808 809
f 807 809 810
f 811 812 813
f 811 813 814
f 815 816 817
f 815 817 818
f 819 820 821
f 822 823 824
f 825 826 827
f 828 829 830
f 831 832 833
f 834 835 836
f 837 838 839
f 840 841 842
f 843 844 845
f 846 847 848
f 849 850 851
f 852 853 854
f 855 856 857
f 858 859 860
f 861 862 863
f 864 865 866
f 867 868 869
f 870 871 872
f 873 874 875
f 876 877 878
f 879 880 881
f 882 883 884
f 885 886 887
f 888 889 890
f 891 892 893
f 894 895 896
f 897 898 899
f 900 901 902
f 903 904 905
f 906 907 908
f 909 910 911
f 912 913 914
f 915 916 917
f 915 917 918
f 919 920 921
f 919 921 922
f 923 924 925
f 923 925 926
f 927 928 929
f 927 929 930
f 931 932 933
f 931 933 934
f 935 936 937
f 935 937 938
f 939 940 941
f 939 941 942
f 943 944 945
f 943 945 946
f 947 948 949
f 947 949 950
f 951 952 953
f 951 953 954
f 955 956 957
f 955 957 958
f 959 960 961
f 959 961 962
f 963 964 965
f 963 965 966
f 967 968 969
f 967 969 970
f 971 972 973
f 971 973 974
f 975 976 977
f 975 977 978
f 979 980 981
f 979 981 982
f 983 984 985
f 983 985 986
f 987 988 989
f 987 989 990
f 991 992 993
f 991 993 994
f 995 996 997
f 995 997 998
f 999 1000 1001
f 999 1001 1002
f 1003 1004 1005
f 1003 1005 1006
f 1007 1008 1009
f 1007 1009 1010
f 1011 1012 1013
f 1011 1013 1014
f 1015 1016 1017
f 1015 1017 1018
f 1019 1020 1021
f 1019 1021 1022
f 1023 1024 1025
f 1023 1025 1026
f 1027 1028 1029
f 1027 1029 1030
f 1031 1032 1033
f 1031 1033 1034
f 1035 1036 1037
f 1035 1037 1038
f 1039 1040 1041
f 1039 1041 1042
f 1043 1044 1045
f 1043 1045 1046
f 1047 1048 1049
f 1047 1049 1050
f 1051 1052 1053
f 1051 1053 1054
f 1055 1056 1057
f 1055 1057 1058
f 1059 1060 1061
f 1059 1061 1062
f 1063 1064 1065
f 1066 1067 1068
f 1069 1070 1071
f 1072 1073 1074
f 1075 1076 1077
f 1078 1079 1080
f 1081 1082 1083
f 1084 1085 1086
f 1087 1088 1089
f 1090 1091 1092
f 1090 1092 1093
f 1094 1095 1096
f 1094 1096 1097
f 1098 1099 1100
f 1098 1100 1101
f 1102 1103 1104
f 1102 1104 1105
f 1106 1107 1108
f 1106 1108 1109
f 1110 1111 1112
f 1110 1112 1113
f 1114 1115 1116
f 1114 1116 1117
f 1118 1119 1120
f 1118 1120 1121
f 1122 1123 1124
f 1122 1124 1125
f 1126 1127 1128
f 1126 1128 1129
f 1130 1131 1132
f 1130 1132 1133
f 1134 1135 1136
f 1134 1136 1137
f 1138 1139 1140
f 1138 1140 1141
f 1142 1143 1144
f 1142 1144 1145
f 1146 1147 1148
f 1146 1148 1149
f 1150 1151 1152
f 1150 1152 1153
f 1154 1155 1156
f 1157 1158 1159
f 1160 1161 1162
f 1163 1164 1165
f 1166 1167 1168
f 1169 1170 1171
f 1172 1173 1174
f 1175 1176 1177
f 1178 1179 1180
f 1181 1182 1183
f 1181 1183 1184
f 1185 1186 1187
f 1185 1187 1188
f 1189 1190 1191
f 1189 1191 1192
f 1193 1194 1195
f 1193 1195 1196
f 1197 1198 1199
f 1197 1199 1200
f 1201 1202 1203
f 1204 1205 1206
f 1207 1208 1209
f 1210 1211 1212
f 1213 1214 1215
f 1216 1217 1218
f 1219 1220 1221
f 1222 1223 1224
f 1225 1226 1227
f 1228 1229 1230
f 1231 1232 1233
f 1234 1235 1236
f 1237 1238 1239
f 1237 1239 1240
f 1241 1242 1243
f 1241 1243 1244
f 1245 1246 1247
f 1245 1247 1248
f 1249 1250 1251
f 1249 1251 1252
f 1253 1254 1255
f 1253 1255 1256
f 1257 1258 1259
f 1257 1259 1260
f 1261 1262 1263
f 1261 1263 1264
f 1265 1266 1267
f 1265 1267 1268
f 1269 1270 1271
f 1269 1271 1272
f 1273 1274 1275
f 1273 1275 1276
f 1277 1278 1279
f 1277 1279 1280
f 1281 1282 1283
f 1281 1283 1284
f 1285 1286 1287
f 1285 1287 1288
f 1289 1290 1291
f 1289 1291 1292
f 1293 1294 1295
f 1296 1297 1298
f 1296 1298 1299
f 1300 1301 1302
f 1303 1304 1305
f 1306 1307 1308
f 1309 1310 1311
f 1312 1313 1314
f 1315 1316 1317
f 1318 1319 1320
f 1318 1320 1321
f 1322 1323 1324
f 1325 1326 1327
f 1328 1329 1330
f 1331 1332 1333
f 1331 1333 1334
f 1335 1336 1337
f 1335 1337 1338
f 1339 1340 1341
f 1339 1341 1342
f 1343 1344 1345
f 1343 1345 1346
f 1347 1348 1349
f 1347 1349 1350
f 1351 1352 1353
f 1351 1353 1354
f 1355 1356 1357
f 1355 1357 1358
f 1359 1360 1361
f 1359 1361 1362
f 1363 1364 1365
f 1363 1365 1366
f 1367 1368 1369
f 1370 1371 1372
f 1373 1374 1375
f 1376 1377 1378
f 1379 1380 1381
f 1382 1383 1384
f 1385 1386 1387
f 1388 1389 1390
f 1391 1392 1393
f 1394 1395 1396
f 1397 1398 1399
f 1400 1401 1402
f 1403 1404 1405
f 1403 1405 1406
f 1407 1408 1409
f 1407 1409 1410
f 1411 1412 1413
f 1411 1413 1414
f 1415 1416 1417
f 1415 1417 1418
f 1419 1420 1421
f 1419 1421 1422
f 1423 1424 1425
f 1423 1425 1426
f 1427 1428 1429
f 1427 1429 1430
f 1431 1432 1433
f 1431 1433 1434
f 1435 1436 1437
f 1435 1437 1438
f 1439 1440 1441
f 1439 1441 1442
f 1443 1444 1445
f 1443 1445 1446
f 1447 1448 1449
f 1447 1449 1450
f 1451 1452 1453
f 1451 1453 1454
f 1455 1456 1457
f 1455 1457 1458
f 1459 1460 1461
f 1462 1463 1464
f 1462 1464 1465
f 1466 1467 1468
f 1469 1470 1471
f 1472 1473 1474
f 1475 1476 1477
f 1478 1479 1480
f 1481 1482 1483
f 1484 1485 1486
f 1484 1486 1487
f 1488 1489 1490
f 1491 1492 1493
f 1494 1495 1496
f 1497 1498 1499
f 1497 1499 1500
f 1501 1502 1503
f 1501 1503 1504
f 1505 1506 1507
f 1505 1507 1508
f 1509 1510 1511
f 1509 1511 1512
f 1513 1514 1515
f 1513 1515 1516
f 1517 1518 1519
f 1517 1519 1520
f 1521 1522 1523
f 1521 1523 1524
f 1525 1526 1527
f 1525 1527 1528
f 1529 1530 1531
f 1529 1531 1532
f 1533 1534 1535
f 1533 1535 1536
f 1537 1538 1539
f 1537 1539 1540
f 1541 1542 1543
f 1541 1543 1544
f 1545 1546 1547
f 1545 1547 1548
f 1549 1550 1551
f 1549 1551 1552
f 1553 1554 1555
f 1553 1555 1556
f 1557 1558 1559
f 1557 1559 1560
f 1561 1562 1563
f 1561 1563 1564
f 1565 1566 1567
f 1565 1567 1568
f 1569 1570 1571
f 1569 1571 1572
f 1573 1574 1575
f 1573 1575 1576
f 1577 1578 1579
f 1577 1579 1580
f 1581 1582 1583
f 1581 1583 1584
f 1585 1586 1587
f 1585 1587 1588
f 1589 1590 1591
f 1589 1591 1592
f 1593 1594 1595
f 1593 1595 1596
f 1597 1598 1599
f 1597 1599 1600
f 1601 1602 1603
f 1601 1603 1604
f 1605 1606 1607
f 1605 1607 1608
f 1609 1610 1611
f 1609 1611 1612
f 1613 1614 1615
f 1613 1615 1616
f 1617 1618 1619
f 1617 1619 1620
f 1621 1622 1623
f 1621 1623 1624
f 1625 1626 1627
f 1625 1627 1628
f 1629 1630 1631
f 1629 1631 1632
f 1633 1634 1635
f 1633 1635 1636
f 1637 1638 1639
f 1637 1639 1640
f 1641 1642 1643
f 1641 1643 1644
f 1645 1646 1647
f 1645 1647 1648
f 1649 1650 1651
f 1649 1651 1652
f 1653 1654 1655
f 1653 1655 1656
f 1657 1658 1659
f 1657 1659 1660
f 1661 1662 1663
f 1661 1663 1664
f 1665 1666 1667
f 1665 1667 1668
f 1669 1670 1671
f 1669 1671 1672
f 1673 1674 1675
f 1673 1675 1676
f 1677 1678 1679
f 1677 1679 1680
f 1681 1682 1683
f 1681 1683 1684
f 1685 1686 1687
f 1685 1687 1688
f 1689 1690 1691
f 1689 1691 1692
f 1693 1694 1695
f 1693 1695 1696
f 1697 1698 1699
f 1697 1699 1700
f 1701 1702 1703
f 1701 1703 1704
f 1705 1706 1707
f 1705 1707 1708
f 1709 1710 1711
f 1709 1711 1712
f 1713 1714 1715
f 1713 1715 1716
f 1717 1718 1719
f 1717 1719 1720
f 1721 1722 1723
f 1721 1723 1724
f 1725 1726 1727
f 1725 1727 1728
f 1729 1730 1731
f 1729 1731 1732
f 1733 1734 1735
f 1733 1735 1736
f 1737 1738 1739
f 1737 1739 1740
f 1741 1742 1743
f 1741 1743 1744
f 1745 1746 1747
f 1745 1747 1748
f 1749 1750 1751
f 1749 1751 1752
f 1753 1754 1755
f 1753 1755 1756
f 1757 1758 1759
f 1757 1759 1760
f 1761 1762 1763
f 1761 1763 1764
f 1765 1766 1767
f 1765 1767 1768
f 1769 1770 1771
f 1769 1771 1772
f 1773 1774 1775
f 1773 1775 1776
f 1777 1778 1779
f 1777 1779 1780
f 1781 1782 1783
f 1781 1783 1784
f 1785 1786 1787
f 1785 1787 1788
f 1789 1790 1791
f 1789 1791 1792
f 1793 1794 1795
f 1793 1795 1796
f 1797 1798 1799
f 1797 1799 1800
f 1801 1802 1803
f 1801 1803 1804
f 1805 1806 1807
f 1805 1807 1808
f 1809 1810 1811
f 1809 1811 1812
f 1813 1814 1815
f 1813 1815 1816
f 1817 1818 1819
f 1817 1819 1820
f 1821 1822 1823
f 1821 1823 1824
f 1825 1826 1827
f 1825 1827 1828
f 1829 1830 1831
f 1829 1831 1832
f 1833 1834 1835
f 1833 1835 1836
f 1837 1838 1839
f 1837 1839 1840
f 1841 1842 1843
f 1841 1843 1844
f 1845 1846 1847
f 1845 1847 1848
f 1849 1850 1851
f 1849 1851 1852
f 1853 1854 1855
f 1853 1855 1856
f 1857 1858 1859
f 1857 1859 1860
f 1861 1862 1863
f 1861 1863 1864
f 1865 1866 1867
f 1865 1867 1868
f 1869 1870 1871
f 1869 1871 1872
f 1873 1874 1875
f 1873 1875 1876
f 1877 1878 1879
f 1877 1879 1880
f 1881 1882 1883
f 1881 1883 1884
f 1885 1886 1887
f 1885 1887 1888
f 1889 1890 1891
f 1889 1891 1892
f 1893 1894 1895
f 1893 1895 1896
f 1897 1898 1899
f 1897 1899 1900
f 1901 1902 1903
f 1901 1903 1904
f 1905 1906 1907
f 1905 1907 1908
f 1909 1910 1911
f 1909 1911 1912
f 1913 1914 1915
f 1913 1915 1916
