# Baked from official LDraw part 60603.dat
o ldraw_60603
v -0.9000000 -0.0000000 0.0500000
v -0.9000000 0.0191350 0.0461950
v -0.9112500 0.0143512 0.0346463
v -0.9112500 -0.0000000 0.0375000
v -0.9000000 0.0191350 0.0461950
v -0.9000000 0.0353550 0.0353550
v -0.9112500 0.0265163 0.0265163
v -0.9112500 0.0143512 0.0346463
v -0.9000000 0.0353550 0.0353550
v -0.9000000 0.0461950 0.0191350
v -0.9112500 0.0346463 0.0143512
v -0.9112500 0.0265163 0.0265163
v -0.9000000 0.0461950 0.0191350
v -0.9000000 0.0500000 0.0000000
v -0.9112500 0.0375000 0.0000000
v -0.9112500 0.0346463 0.0143512
v -0.9000000 0.0500000 0.0000000
v -0.9000000 0.0461950 -0.0191350
v -0.9112500 0.0346463 -0.0143512
v -0.9112500 0.0375000 0.0000000
v -0.9000000 0.0461950 -0.0191350
v -0.9000000 0.0353550 -0.0353550
v -0.9112500 0.0265163 -0.0265163
v -0.9112500 0.0346463 -0.0143512
v -0.9000000 0.0353550 -0.0353550
v -0.9000000 0.0191350 -0.0461950
v -0.9112500 0.0143512 -0.0346463
v -0.9112500 0.0265163 -0.0265163
v -0.9000000 0.0191350 -0.0461950
v -0.9000000 -0.0000000 -0.0500000
v -0.9112500 -0.0000000 -0.0375000
v -0.9112500 0.0143512 -0.0346463
v -0.9000000 -0.0000000 -0.0500000
v -0.9000000 -0.0191350 -0.0461950
v -0.9112500 -0.0143512 -0.0346463
v -0.9112500 -0.0000000 -0.0375000
v -0.9000000 -0.0191350 -0.0461950
v -0.9000000 -0.0353550 -0.0353550
v -0.9112500 -0.0265163 -0.0265163
v -0.9112500 -0.0143512 -0.0346463
v -0.9000000 -0.0353550 -0.0353550
v -0.9000000 -0.0461950 -0.0191350
v -0.9112500 -0.0346463 -0.0143512
v -0.9112500 -0.0265163 -0.0265163
v -0.9000000 -0.0461950 -0.0191350
v -0.9000000 -0.0500000 0.0000000
v -0.9112500 -0.0375000 0.0000000
v -0.9112500 -0.0346463 -0.0143512
v -0.9000000 -0.0500000 0.0000000
v -0.9000000 -0.0461950 0.0191350
v -0.9112500 -0.0346463 0.0143512
v -0.9112500 -0.0375000 0.0000000
v -0.9000000 -0.0461950 0.0191350
v -0.9000000 -0.0353550 0.0353550
v -0.9112500 -0.0265163 0.0265163
v -0.9112500 -0.0346463 0.0143512
v -0.9000000 -0.0353550 0.0353550
v -0.9000000 -0.0191350 0.0461950
v -0.9112500 -0.0143512 0.0346463
v -0.9112500 -0.0265163 0.0265163
v -0.9000000 -0.0191350 0.0461950
v -0.9000000 -0.0000000 0.0500000
v -0.9112500 -0.0000000 0.0375000
v -0.9112500 -0.0143512 0.0346463
v -0.9112500 0.0143512 0.0346463
v -0.9225000 0.0071756 0.0173231
v -0.9225000 -0.0000000 0.0187500
v -0.9112500 -0.0000000 0.0375000
v -0.9112500 0.0265162 0.0265162
v -0.9225000 0.0132581 0.0132581
v -0.9225000 0.0071756 0.0173231
v -0.9112500 0.0143512 0.0346463
v -0.9112500 0.0346463 0.0143512
v -0.9225000 0.0173231 0.0071756
v -0.9225000 0.0132581 0.0132581
v -0.9112500 0.0265162 0.0265162
v -0.9112500 0.0375000 0.0000000
v -0.9225000 0.0187500 0.0000000
v -0.9225000 0.0173231 0.0071756
v -0.9112500 0.0346463 0.0143512
v -0.9112500 0.0346463 -0.0143512
v -0.9225000 0.0173231 -0.0071756
v -0.9225000 0.0187500 0.0000000
v -0.9112500 0.0375000 0.0000000
v -0.9112500 0.0265162 -0.0265162
v -0.9225000 0.0132581 -0.0132581
v -0.9225000 0.0173231 -0.0071756
v -0.9112500 0.0346463 -0.0143512
v -0.9112500 0.0143512 -0.0346463
v -0.9225000 0.0071756 -0.0173231
v -0.9225000 0.0132581 -0.0132581
v -0.9112500 0.0265162 -0.0265162
v -0.9112500 -0.0000000 -0.0375000
v -0.9225000 -0.0000000 -0.0187500
v -0.9225000 0.0071756 -0.0173231
v -0.9112500 0.0143512 -0.0346463
v -0.9112500 -0.0143512 -0.0346463
v -0.9225000 -0.0071756 -0.0173231
v -0.9225000 -0.0000000 -0.0187500
v -0.9112500 -0.0000000 -0.0375000
v -0.9112500 -0.0265162 -0.0265162
v -0.9225000 -0.0132581 -0.0132581
v -0.9225000 -0.0071756 -0.0173231
v -0.9112500 -0.0143512 -0.0346463
v -0.9112500 -0.0346463 -0.0143512
v -0.9225000 -0.0173231 -0.0071756
v -0.9225000 -0.0132581 -0.0132581
v -0.9112500 -0.0265162 -0.0265162
v -0.9112500 -0.0375000 0.0000000
v -0.9225000 -0.0187500 0.0000000
v -0.9225000 -0.0173231 -0.0071756
v -0.9112500 -0.0346463 -0.0143512
v -0.9112500 -0.0346463 0.0143512
v -0.9225000 -0.0173231 0.0071756
v -0.9225000 -0.0187500 0.0000000
v -0.9112500 -0.0375000 0.0000000
v -0.9112500 -0.0265162 0.0265162
v -0.9225000 -0.0132581 0.0132581
v -0.9225000 -0.0173231 0.0071756
v -0.9112500 -0.0346463 0.0143512
v -0.9112500 -0.0143512 0.0346463
v -0.9225000 -0.0071756 0.0173231
v -0.9225000 -0.0132581 0.0132581
v -0.9112500 -0.0265162 0.0265162
v -0.9112500 -0.0000000 0.0375000
v -0.9225000 -0.0000000 0.0187500
v -0.9225000 -0.0071756 0.0173231
v -0.9112500 -0.0143512 0.0346463
v -0.9225000 -0.0000000 0.0187500
v -0.9225000 0.0071756 0.0173231
v -0.9250000 -0.0000000 0.0000000
v -0.9225000 0.0071756 0.0173231
v -0.9225000 0.0132600 0.0132600
v -0.9250000 -0.0000000 0.0000000
v -0.9225000 0.0132600 0.0132600
v -0.9225000 0.0173231 0.0071756
v -0.9250000 -0.0000000 0.0000000
v -0.9225000 0.0173231 0.0071756
v -0.9225000 0.0187500 0.0000000
v -0.9250000 -0.0000000 0.0000000
v -0.9225000 0.0187500 0.0000000
v -0.9225000 0.0173231 -0.0071756
v -0.9250000 -0.0000000 0.0000000
v -0.9225000 0.0173231 -0.0071756
v -0.9225000 0.0132600 -0.0132600
v -0.9250000 -0.0000000 0.0000000
v -0.9225000 0.0132600 -0.0132600
v -0.9225000 0.0071756 -0.0173231
v -0.9250000 -0.0000000 0.0000000
v -0.9225000 0.0071756 -0.0173231
v -0.9225000 -0.0000000 -0.0187500
v -0.9250000 -0.0000000 0.0000000
v -0.9225000 -0.0000000 -0.0187500
v -0.9225000 -0.0071756 -0.0173231
v -0.9250000 -0.0000000 0.0000000
v -0.9225000 -0.0071756 -0.0173231
v -0.9225000 -0.0132600 -0.0132600
v -0.9250000 -0.0000000 0.0000000
v -0.9225000 -0.0132600 -0.0132600
v -0.9225000 -0.0173231 -0.0071756
v -0.9250000 -0.0000000 0.0000000
v -0.9225000 -0.0173231 -0.0071756
v -0.9225000 -0.0187500 0.0000000
v -0.9250000 -0.0000000 0.0000000
v -0.9225000 -0.0187500 0.0000000
v -0.9225000 -0.0173231 0.0071756
v -0.9250000 -0.0000000 0.0000000
v -0.9225000 -0.0173231 0.0071756
v -0.9225000 -0.0132600 0.0132600
v -0.9250000 -0.0000000 0.0000000
v -0.9225000 -0.0132600 0.0132600
v -0.9225000 -0.0071756 0.0173231
v -0.9250000 -0.0000000 0.0000000
v -0.9225000 -0.0071756 0.0173231
v -0.9225000 -0.0000000 0.0187500
v -0.9250000 -0.0000000 0.0000000
v -0.9000000 0.1000000 0.0000000
v -0.9000000 0.0500000 0.0000000
v -0.9000000 0.0461950 0.0191350
v -0.9000000 0.0923900 0.0382700
v -0.9000000 0.0923900 0.0382700
v -0.9000000 0.0461950 0.0191350
v -0.9000000 0.0353550 0.0353550
v -0.9000000 0.0707100 0.0707100
v -0.9000000 0.0707100 0.0707100
v -0.9000000 0.0353550 0.0353550
v -0.9000000 0.0191350 0.0461950
v -0.9000000 0.0382700 0.0923900
v -0.9000000 0.0382700 0.0923900
v -0.9000000 0.0191350 0.0461950
v -0.9000000 -0.0000000 0.0500000
v -0.9000000 -0.0000000 0.1000000
v -0.9000000 -0.0000000 0.1000000
v -0.9000000 -0.0000000 0.0500000
v -0.9000000 -0.0191350 0.0461950
v -0.9000000 -0.0382700 0.0923900
v -0.9000000 -0.0382700 0.0923900
v -0.9000000 -0.0191350 0.0461950
v -0.9000000 -0.0353550 0.0353550
v -0.9000000 -0.0707100 0.0707100
v -0.9000000 -0.0707100 0.0707100
v -0.9000000 -0.0353550 0.0353550
v -0.9000000 -0.0461950 0.0191350
v -0.9000000 -0.0923900 0.0382700
v -0.9000000 -0.0923900 0.0382700
v -0.9000000 -0.0461950 0.0191350
v -0.9000000 -0.0500000 0.0000000
v -0.9000000 -0.1000000 0.0000000
v -0.9000000 -0.1000000 0.0000000
v -0.9000000 -0.0500000 0.0000000
v -0.9000000 -0.0461950 -0.0191350
v -0.9000000 -0.0923900 -0.0382700
v -0.9000000 -0.0923900 -0.0382700
v -0.9000000 -0.0461950 -0.0191350
v -0.9000000 -0.0353550 -0.0353550
v -0.9000000 -0.0707100 -0.0707100
v -0.9000000 -0.0707100 -0.0707100
v -0.9000000 -0.0353550 -0.0353550
v -0.9000000 -0.0191350 -0.0461950
v -0.9000000 -0.0382700 -0.0923900
v -0.9000000 -0.0382700 -0.0923900
v -0.9000000 -0.0191350 -0.0461950
v -0.9000000 -0.0000000 -0.0500000
v -0.9000000 -0.0000000 -0.1000000
v -0.9000000 -0.0000000 -0.1000000
v -0.9000000 -0.0000000 -0.0500000
v -0.9000000 0.0191350 -0.0461950
v -0.9000000 0.0382700 -0.0923900
v -0.9000000 0.0382700 -0.0923900
v -0.9000000 0.0191350 -0.0461950
v -0.9000000 0.0353550 -0.0353550
v -0.9000000 0.0707100 -0.0707100
v -0.9000000 0.0707100 -0.0707100
v -0.9000000 0.0353550 -0.0353550
v -0.9000000 0.0461950 -0.0191350
v -0.9000000 0.0923900 -0.0382700
v -0.9000000 0.0923900 -0.0382700
v -0.9000000 0.0461950 -0.0191350
v -0.9000000 0.0500000 0.0000000
v -0.9000000 0.1000000 0.0000000
v -0.9000000 -0.1000000 0.1000000
v -0.9000000 -0.0000000 0.1000000
v -0.9000000 -0.0382700 0.0923900
v -0.9000000 -0.1000000 0.1000000
v -0.9000000 -0.0382700 0.0923900
v -0.9000000 -0.0707100 0.0707100
v -0.9000000 -0.1000000 0.1000000
v -0.9000000 -0.0707100 0.0707100
v -0.9000000 -0.0923900 0.0382700
v -0.9000000 -0.1000000 0.1000000
v -0.9000000 -0.0923900 0.0382700
v -0.9000000 -0.1000000 0.0000000
v -0.9000000 -0.1000000 -0.1000000
v -0.9000000 -0.1000000 0.0000000
v -0.9000000 -0.0923900 -0.0382700
v -0.9000000 -0.1000000 -0.1000000
v -0.9000000 -0.0923900 -0.0382700
v -0.9000000 -0.0707100 -0.0707100
v -0.9000000 -0.1000000 -0.1000000
v -0.9000000 -0.0707100 -0.0707100
v -0.9000000 -0.0382700 -0.0923900
v -0.9000000 -0.1000000 -0.1000000
v -0.9000000 -0.0382700 -0.0923900
v -0.9000000 -0.0000000 -0.1000000
v -0.9000000 -0.2000000 0.0500000
v -0.9000000 -0.2000000 0.1000000
v -0.9000000 -0.1000000 0.1000000
v -0.9000000 -0.1000000 0.0000000
v -0.9000000 -0.1000000 0.0000000
v -0.9000000 -0.1000000 -0.1000000
v -0.9000000 -0.2000000 -0.1000000
v -0.9000000 -0.2000000 -0.0500000
v -0.9000000 -0.2000000 -0.0500000
v -0.9000000 -0.2000000 0.0500000
v -0.9000000 -0.1000000 0.0000000
v -0.8375000 -0.0000000 -0.1000000
v -0.9000000 -0.0000000 -0.1000000
v -0.9000000 0.0382700 -0.0923900
v -0.8375000 0.0382700 -0.0923900
v -0.8375000 0.0382700 -0.0923900
v -0.9000000 0.0382700 -0.0923900
v -0.9000000 0.0707100 -0.0707100
v -0.8375000 0.0707100 -0.0707100
v -0.8375000 0.0707100 -0.0707100
v -0.9000000 0.0707100 -0.0707100
v -0.9000000 0.0923900 -0.0382700
v -0.8375000 0.0923900 -0.0382700
v -0.8375000 0.0923900 -0.0382700
v -0.9000000 0.0923900 -0.0382700
v -0.9000000 0.1000000 0.0000000
v -0.8375000 0.1000000 0.0000000
v -0.8375000 0.1000000 0.0000000
v -0.9000000 0.1000000 0.0000000
v -0.9000000 0.0923900 0.0382700
v -0.8375000 0.0923900 0.0382700
v -0.8375000 0.0923900 0.0382700
v -0.9000000 0.0923900 0.0382700
v -0.9000000 0.0707100 0.0707100
v -0.8375000 0.0707100 0.0707100
v -0.8375000 0.0707100 0.0707100
v -0.9000000 0.0707100 0.0707100
v -0.9000000 0.0382700 0.0923900
v -0.8375000 0.0382700 0.0923900
v -0.8375000 0.0382700 0.0923900
v -0.9000000 0.0382700 0.0923900
v -0.9000000 -0.0000000 0.1000000
v -0.8375000 -0.0000000 0.1000000
v -0.9000000 -0.0000000 -0.1000000
v -0.8375000 -0.0000000 -0.1000000
v -0.8375000 -0.2000000 -0.1000000
v -0.9000000 -0.2000000 -0.1000000
v -0.9000000 -0.2000000 -0.0500000
v -0.9000000 -0.2000000 -0.1000000
v -0.8375000 -0.2000000 -0.1000000
v -0.8375000 -0.2000000 -0.0500000
v -0.8375000 -0.0000000 0.1000000
v -0.9000000 -0.0000000 0.1000000
v -0.9000000 -0.2000000 0.1000000
v -0.8375000 -0.2000000 0.1000000
v -0.8375000 -0.2000000 0.0500000
v -0.8375000 -0.2000000 0.1000000
v -0.9000000 -0.2000000 0.1000000
v -0.9000000 -0.2000000 0.0500000
v -0.8375000 -0.0000000 0.1000000
v -0.8375000 -0.2000000 0.1000000
v -0.8375000 -0.0382500 0.0925000
v -0.8375000 -0.2000000 0.1000000
v -0.8375000 -0.0707100 0.0707100
v -0.8375000 -0.0382500 0.0925000
v -0.8375000 -0.2000000 0.1000000
v -0.8375000 -0.2000000 0.0500000
v -0.8375000 -0.0846250 0.0500000
v -0.8375000 -0.0707100 0.0707100
v -0.8375000 -0.0382500 -0.0925000
v -0.8375000 -0.2000000 -0.1000000
v -0.8375000 -0.0000000 -0.1000000
v -0.8375000 -0.0382500 -0.0925000
v -0.8375000 -0.0707100 -0.0707100
v -0.8375000 -0.2000000 -0.1000000
v -0.8375000 -0.0707100 -0.0707100
v -0.8375000 -0.0845000 -0.0500000
v -0.8375000 -0.2000000 -0.0500000
v -0.8375000 -0.2000000 -0.1000000
v -0.7125000 -0.0707100 -0.0707100
v -0.8375000 -0.0707100 -0.0707100
v -0.8375000 -0.0382683 -0.0923897
v -0.7125000 -0.0382683 -0.0923897
v -0.7125000 -0.0382683 -0.0923897
v -0.8375000 -0.0382683 -0.0923897
v -0.8375000 -0.0000000 -0.0999981
v -0.7125000 -0.0000000 -0.0999981
v -0.7125000 -0.0000000 -0.0999981
v -0.8375000 -0.0000000 -0.0999981
v -0.8375000 0.0382683 -0.0923897
v -0.7125000 0.0382683 -0.0923897
v -0.7125000 0.0382683 -0.0923897
v -0.8375000 0.0382683 -0.0923897
v -0.8375000 0.0707100 -0.0707100
v -0.7125000 0.0707100 -0.0707100
v -0.7125000 0.0707100 -0.0707100
v -0.8375000 0.0707100 -0.0707100
v -0.8375000 0.0923897 -0.0382683
v -0.7125000 0.0923897 -0.0382683
v -0.7125000 0.0923897 -0.0382683
v -0.8375000 0.0923897 -0.0382683
v -0.8375000 0.0999981 0.0000000
v -0.7125000 0.0999981 0.0000000
v -0.7125000 0.0999981 0.0000000
v -0.8375000 0.0999981 0.0000000
v -0.8375000 0.0923897 0.0382683
v -0.7125000 0.0923897 0.0382683
v -0.7125000 0.0923897 0.0382683
v -0.8375000 0.0923897 0.0382683
v -0.8375000 0.0707100 0.0707100
v -0.7125000 0.0707100 0.0707100
v -0.7125000 0.0707100 0.0707100
v -0.8375000 0.0707100 0.0707100
v -0.8375000 0.0382683 0.0923897
v -0.7125000 0.0382683 0.0923897
v -0.7125000 0.0382683 0.0923897
v -0.8375000 0.0382683 0.0923897
v -0.8375000 -0.0000000 0.0999981
v -0.7125000 -0.0000000 0.0999981
v -0.7125000 -0.0000000 0.0999981
v -0.8375000 -0.0000000 0.0999981
v -0.8375000 -0.0382683 0.0923897
v -0.7125000 -0.0382683 0.0923897
v -0.7125000 -0.0382683 0.0923897
v -0.8375000 -0.0382683 0.0923897
v -0.8375000 -0.0707100 0.0707100
v -0.7125000 -0.0707100 0.0707100
v -0.7125000 -0.0707100 0.0707100
v -0.8375000 -0.0707100 0.0707100
v -0.8375000 -0.0845000 0.0500000
v -0.7125000 -0.0845000 0.0500000
v -0.7125000 -0.0845000 -0.0500000
v -0.8375000 -0.0845000 -0.0500000
v -0.8375000 -0.0707100 -0.0707100
v -0.7125000 -0.0707100 -0.0707100
v -0.7125000 -0.0000000 0.0000000
v -0.7125000 -0.0000000 0.1000000
v -0.7125000 -0.0382700 0.0923900
v -0.7125000 -0.0000000 0.0000000
v -0.7125000 -0.0382700 0.0923900
v -0.7125000 -0.0707100 0.0707100
v -0.7125000 -0.0000000 0.0000000
v -0.7125000 -0.0707100 0.0707100
v -0.7125000 -0.0923900 0.0382700
v -0.7125000 -0.0000000 0.0000000
v -0.7125000 -0.0923900 0.0382700
v -0.7125000 -0.1000000 0.0000000
v -0.7125000 -0.0000000 0.0000000
v -0.7125000 -0.1000000 0.0000000
v -0.7125000 -0.0923900 -0.0382700
v -0.7125000 -0.0000000 0.0000000
v -0.7125000 -0.0923900 -0.0382700
v -0.7125000 -0.0707100 -0.0707100
v -0.7125000 -0.0000000 0.0000000
v -0.7125000 -0.0707100 -0.0707100
v -0.7125000 -0.0382700 -0.0923900
v -0.7125000 -0.0000000 0.0000000
v -0.7125000 -0.0382700 -0.0923900
v -0.7125000 -0.0000000 -0.1000000
v -0.7125000 -0.0000000 0.0000000
v -0.7125000 -0.0000000 -0.1000000
v -0.7125000 0.0382700 -0.0923900
v -0.7125000 -0.0000000 0.0000000
v -0.7125000 0.0382700 -0.0923900
v -0.7125000 0.0707100 -0.0707100
v -0.7125000 -0.0000000 0.0000000
v -0.7125000 0.0707100 -0.0707100
v -0.7125000 0.0923900 -0.0382700
v -0.7125000 -0.0000000 0.0000000
v -0.7125000 0.0923900 -0.0382700
v -0.7125000 0.1000000 0.0000000
v -0.7125000 -0.0000000 0.0000000
v -0.7125000 0.1000000 0.0000000
v -0.7125000 0.0923900 0.0382700
v -0.7125000 -0.0000000 0.0000000
v -0.7125000 0.0923900 0.0382700
v -0.7125000 0.0707100 0.0707100
v -0.7125000 -0.0000000 0.0000000
v -0.7125000 0.0707100 0.0707100
v -0.7125000 0.0382700 0.0923900
v -0.7125000 -0.0000000 0.0000000
v -0.7125000 0.0382700 0.0923900
v -0.7125000 -0.0000000 0.1000000
v 0.9000000 -0.0500000 0.0000000
v 0.9000000 -0.0461950 -0.0191350
v 0.9112500 -0.0346463 -0.0143512
v 0.9112500 -0.0375000 0.0000000
v 0.9000000 -0.0461950 -0.0191350
v 0.9000000 -0.0353550 -0.0353550
v 0.9112500 -0.0265163 -0.0265163
v 0.9112500 -0.0346463 -0.0143512
v 0.9000000 -0.0353550 -0.0353550
v 0.9000000 -0.0191350 -0.0461950
v 0.9112500 -0.0143512 -0.0346463
v 0.9112500 -0.0265163 -0.0265163
v 0.9000000 -0.0191350 -0.0461950
v 0.9000000 -0.0000000 -0.0500000
v 0.9112500 -0.0000000 -0.0375000
v 0.9112500 -0.0143512 -0.0346463
v 0.9000000 -0.0000000 -0.0500000
v 0.9000000 0.0191350 -0.0461950
v 0.9112500 0.0143512 -0.0346463
v 0.9112500 -0.0000000 -0.0375000
v 0.9000000 0.0191350 -0.0461950
v 0.9000000 0.0353550 -0.0353550
v 0.9112500 0.0265163 -0.0265163
v 0.9112500 0.0143512 -0.0346463
v 0.9000000 0.0353550 -0.0353550
v 0.9000000 0.0461950 -0.0191350
v 0.9112500 0.0346463 -0.0143512
v 0.9112500 0.0265163 -0.0265163
v 0.9000000 0.0461950 -0.0191350
v 0.9000000 0.0500000 0.0000000
v 0.9112500 0.0375000 0.0000000
v 0.9112500 0.0346463 -0.0143512
v 0.9000000 0.0500000 0.0000000
v 0.9000000 0.0461950 0.0191350
v 0.9112500 0.0346463 0.0143512
v 0.9112500 0.0375000 0.0000000
v 0.9000000 0.0461950 0.0191350
v 0.9000000 0.0353550 0.0353550
v 0.9112500 0.0265163 0.0265163
v 0.9112500 0.0346463 0.0143512
v 0.9000000 0.0353550 0.0353550
v 0.9000000 0.0191350 0.0461950
v 0.9112500 0.0143512 0.0346463
v 0.9112500 0.0265163 0.0265163
v 0.9000000 0.0191350 0.0461950
v 0.9000000 -0.0000000 0.0500000
v 0.9112500 -0.0000000 0.0375000
v 0.9112500 0.0143512 0.0346463
v 0.9000000 -0.0000000 0.0500000
v 0.9000000 -0.0191350 0.0461950
v 0.9112500 -0.0143512 0.0346463
v 0.9112500 -0.0000000 0.0375000
v 0.9000000 -0.0191350 0.0461950
v 0.9000000 -0.0353550 0.0353550
v 0.9112500 -0.0265163 0.0265163
v 0.9112500 -0.0143512 0.0346463
v 0.9000000 -0.0353550 0.0353550
v 0.9000000 -0.0461950 0.0191350
v 0.9112500 -0.0346463 0.0143512
v 0.9112500 -0.0265163 0.0265163
v 0.9000000 -0.0461950 0.0191350
v 0.9000000 -0.0500000 0.0000000
v 0.9112500 -0.0375000 0.0000000
v 0.9112500 -0.0346463 0.0143512
v 0.9112500 -0.0346463 -0.0143512
v 0.9225000 -0.0173231 -0.0071756
v 0.9225000 -0.0187500 0.0000000
v 0.9112500 -0.0375000 0.0000000
v 0.9112500 -0.0265162 -0.0265162
v 0.9225000 -0.0132581 -0.0132581
v 0.9225000 -0.0173231 -0.0071756
v 0.9112500 -0.0346463 -0.0143512
v 0.9112500 -0.0143512 -0.0346463
v 0.9225000 -0.0071756 -0.0173231
v 0.9225000 -0.0132581 -0.0132581
v 0.9112500 -0.0265162 -0.0265162
v 0.9112500 -0.0000000 -0.0375000
v 0.9225000 -0.0000000 -0.0187500
v 0.9225000 -0.0071756 -0.0173231
v 0.9112500 -0.0143512 -0.0346463
v 0.9112500 0.0143512 -0.0346463
v 0.9225000 0.0071756 -0.0173231
v 0.9225000 -0.0000000 -0.0187500
v 0.9112500 -0.0000000 -0.0375000
v 0.9112500 0.0265162 -0.0265162
v 0.9225000 0.0132581 -0.0132581
v 0.9225000 0.0071756 -0.0173231
v 0.9112500 0.0143512 -0.0346463
v 0.9112500 0.0346463 -0.0143512
v 0.9225000 0.0173231 -0.0071756
v 0.9225000 0.0132581 -0.0132581
v 0.9112500 0.0265162 -0.0265162
v 0.9112500 0.0375000 0.0000000
v 0.9225000 0.0187500 0.0000000
v 0.9225000 0.0173231 -0.0071756
v 0.9112500 0.0346463 -0.0143512
v 0.9112500 0.0346463 0.0143512
v 0.9225000 0.0173231 0.0071756
v 0.9225000 0.0187500 0.0000000
v 0.9112500 0.0375000 0.0000000
v 0.9112500 0.0265162 0.0265162
v 0.9225000 0.0132581 0.0132581
v 0.9225000 0.0173231 0.0071756
v 0.9112500 0.0346463 0.0143512
v 0.9112500 0.0143512 0.0346463
v 0.9225000 0.0071756 0.0173231
v 0.9225000 0.0132581 0.0132581
v 0.9112500 0.0265162 0.0265162
v 0.9112500 -0.0000000 0.0375000
v 0.9225000 -0.0000000 0.0187500
v 0.9225000 0.0071756 0.0173231
v 0.9112500 0.0143512 0.0346463
v 0.9112500 -0.0143512 0.0346463
v 0.9225000 -0.0071756 0.0173231
v 0.9225000 -0.0000000 0.0187500
v 0.9112500 -0.0000000 0.0375000
v 0.9112500 -0.0265162 0.0265162
v 0.9225000 -0.0132581 0.0132581
v 0.9225000 -0.0071756 0.0173231
v 0.9112500 -0.0143512 0.0346463
v 0.9112500 -0.0346463 0.0143512
v 0.9225000 -0.0173231 0.0071756
v 0.9225000 -0.0132581 0.0132581
v 0.9112500 -0.0265162 0.0265162
v 0.9112500 -0.0375000 0.0000000
v 0.9225000 -0.0187500 0.0000000
v 0.9225000 -0.0173231 0.0071756
v 0.9112500 -0.0346463 0.0143512
v 0.9225000 -0.0187500 0.0000000
v 0.9225000 -0.0173231 -0.0071756
v 0.9250000 -0.0000000 0.0000000
v 0.9225000 -0.0173231 -0.0071756
v 0.9225000 -0.0132600 -0.0132600
v 0.9250000 -0.0000000 0.0000000
v 0.9225000 -0.0132600 -0.0132600
v 0.9225000 -0.0071756 -0.0173231
v 0.9250000 -0.0000000 0.0000000
v 0.9225000 -0.0071756 -0.0173231
v 0.9225000 -0.0000000 -0.0187500
v 0.9250000 -0.0000000 0.0000000
v 0.9225000 -0.0000000 -0.0187500
v 0.9225000 0.0071756 -0.0173231
v 0.9250000 -0.0000000 0.0000000
v 0.9225000 0.0071756 -0.0173231
v 0.9225000 0.0132600 -0.0132600
v 0.9250000 -0.0000000 0.0000000
v 0.9225000 0.0132600 -0.0132600
v 0.9225000 0.0173231 -0.0071756
v 0.9250000 -0.0000000 0.0000000
v 0.9225000 0.0173231 -0.0071756
v 0.9225000 0.0187500 0.0000000
v 0.9250000 -0.0000000 0.0000000
v 0.9225000 0.0187500 0.0000000
v 0.9225000 0.0173231 0.0071756
v 0.9250000 -0.0000000 0.0000000
v 0.9225000 0.0173231 0.0071756
v 0.9225000 0.0132600 0.0132600
v 0.9250000 -0.0000000 0.0000000
v 0.9225000 0.0132600 0.0132600
v 0.9225000 0.0071756 0.0173231
v 0.9250000 -0.0000000 0.0000000
v 0.9225000 0.0071756 0.0173231
v 0.9225000 -0.0000000 0.0187500
v 0.9250000 -0.0000000 0.0000000
v 0.9225000 -0.0000000 0.0187500
v 0.9225000 -0.0071756 0.0173231
v 0.9250000 -0.0000000 0.0000000
v 0.9225000 -0.0071756 0.0173231
v 0.9225000 -0.0132600 0.0132600
v 0.9250000 -0.0000000 0.0000000
v 0.9225000 -0.0132600 0.0132600
v 0.9225000 -0.0173231 0.0071756
v 0.9250000 -0.0000000 0.0000000
v 0.9225000 -0.0173231 0.0071756
v 0.9225000 -0.0187500 0.0000000
v 0.9250000 -0.0000000 0.0000000
v 0.9000000 0.1000000 0.0000000
v 0.9000000 0.0500000 0.0000000
v 0.9000000 0.0461950 -0.0191350
v 0.9000000 0.0923900 -0.0382700
v 0.9000000 0.0923900 -0.0382700
v 0.9000000 0.0461950 -0.0191350
v 0.9000000 0.0353550 -0.0353550
v 0.9000000 0.0707100 -0.0707100
v 0.9000000 0.0707100 -0.0707100
v 0.9000000 0.0353550 -0.0353550
v 0.9000000 0.0191350 -0.0461950
v 0.9000000 0.0382700 -0.0923900
v 0.9000000 0.0382700 -0.0923900
v 0.9000000 0.0191350 -0.0461950
v 0.9000000 -0.0000000 -0.0500000
v 0.9000000 -0.0000000 -0.1000000
v 0.9000000 -0.0000000 -0.1000000
v 0.9000000 -0.0000000 -0.0500000
v 0.9000000 -0.0191350 -0.0461950
v 0.9000000 -0.0382700 -0.0923900
v 0.9000000 -0.0382700 -0.0923900
v 0.9000000 -0.0191350 -0.0461950
v 0.9000000 -0.0353550 -0.0353550
v 0.9000000 -0.0707100 -0.0707100
v 0.9000000 -0.0707100 -0.0707100
v 0.9000000 -0.0353550 -0.0353550
v 0.9000000 -0.0461950 -0.0191350
v 0.9000000 -0.0923900 -0.0382700
v 0.9000000 -0.0923900 -0.0382700
v 0.9000000 -0.0461950 -0.0191350
v 0.9000000 -0.0500000 0.0000000
v 0.9000000 -0.1000000 0.0000000
v 0.9000000 -0.1000000 0.0000000
v 0.9000000 -0.0500000 0.0000000
v 0.9000000 -0.0461950 0.0191350
v 0.9000000 -0.0923900 0.0382700
v 0.9000000 -0.0923900 0.0382700
v 0.9000000 -0.0461950 0.0191350
v 0.9000000 -0.0353550 0.0353550
v 0.9000000 -0.0707100 0.0707100
v 0.9000000 -0.0707100 0.0707100
v 0.9000000 -0.0353550 0.0353550
v 0.9000000 -0.0191350 0.0461950
v 0.9000000 -0.0382700 0.0923900
v 0.9000000 -0.0382700 0.0923900
v 0.9000000 -0.0191350 0.0461950
v 0.9000000 -0.0000000 0.0500000
v 0.9000000 -0.0000000 0.1000000
v 0.9000000 -0.0000000 0.1000000
v 0.9000000 -0.0000000 0.0500000
v 0.9000000 0.0191350 0.0461950
v 0.9000000 0.0382700 0.0923900
v 0.9000000 0.0382700 0.0923900
v 0.9000000 0.0191350 0.0461950
v 0.9000000 0.0353550 0.0353550
v 0.9000000 0.0707100 0.0707100
v 0.9000000 0.0707100 0.0707100
v 0.9000000 0.0353550 0.0353550
v 0.9000000 0.0461950 0.0191350
v 0.9000000 0.0923900 0.0382700
v 0.9000000 0.0923900 0.0382700
v 0.9000000 0.0461950 0.0191350
v 0.9000000 0.0500000 0.0000000
v 0.9000000 0.1000000 0.0000000
v 0.9000000 -0.1000000 -0.1000000
v 0.9000000 -0.0000000 -0.1000000
v 0.9000000 -0.0382700 -0.0923900
v 0.9000000 -0.1000000 -0.1000000
v 0.9000000 -0.0382700 -0.0923900
v 0.9000000 -0.0707100 -0.0707100
v 0.9000000 -0.1000000 -0.1000000
v 0.9000000 -0.0707100 -0.0707100
v 0.9000000 -0.0923900 -0.0382700
v 0.9000000 -0.1000000 -0.1000000
v 0.9000000 -0.0923900 -0.0382700
v 0.9000000 -0.1000000 0.0000000
v 0.9000000 -0.1000000 0.1000000
v 0.9000000 -0.1000000 0.0000000
v 0.9000000 -0.0923900 0.0382700
v 0.9000000 -0.1000000 0.1000000
v 0.9000000 -0.0923900 0.0382700
v 0.9000000 -0.0707100 0.0707100
v 0.9000000 -0.1000000 0.1000000
v 0.9000000 -0.0707100 0.0707100
v 0.9000000 -0.0382700 0.0923900
v 0.9000000 -0.1000000 0.1000000
v 0.9000000 -0.0382700 0.0923900
v 0.9000000 -0.0000000 0.1000000
v 0.9000000 -0.2000000 -0.0500000
v 0.9000000 -0.2000000 -0.1000000
v 0.9000000 -0.1000000 -0.1000000
v 0.9000000 -0.1000000 0.0000000
v 0.9000000 -0.1000000 0.0000000
v 0.9000000 -0.1000000 0.1000000
v 0.9000000 -0.2000000 0.1000000
v 0.9000000 -0.2000000 0.0500000
v 0.9000000 -0.2000000 0.0500000
v 0.9000000 -0.2000000 -0.0500000
v 0.9000000 -0.1000000 0.0000000
v 0.8375000 -0.0000000 0.1000000
v 0.9000000 -0.0000000 0.1000000
v 0.9000000 0.0382700 0.0923900
v 0.8375000 0.0382700 0.0923900
v 0.8375000 0.0382700 0.0923900
v 0.9000000 0.0382700 0.0923900
v 0.9000000 0.0707100 0.0707100
v 0.8375000 0.0707100 0.0707100
v 0.8375000 0.0707100 0.0707100
v 0.9000000 0.0707100 0.0707100
v 0.9000000 0.0923900 0.0382700
v 0.8375000 0.0923900 0.0382700
v 0.8375000 0.0923900 0.0382700
v 0.9000000 0.0923900 0.0382700
v 0.9000000 0.1000000 0.0000000
v 0.8375000 0.1000000 0.0000000
v 0.8375000 0.1000000 0.0000000
v 0.9000000 0.1000000 0.0000000
v 0.9000000 0.0923900 -0.0382700
v 0.8375000 0.0923900 -0.0382700
v 0.8375000 0.0923900 -0.0382700
v 0.9000000 0.0923900 -0.0382700
v 0.9000000 0.0707100 -0.0707100
v 0.8375000 0.0707100 -0.0707100
v 0.8375000 0.0707100 -0.0707100
v 0.9000000 0.0707100 -0.0707100
v 0.9000000 0.0382700 -0.0923900
v 0.8375000 0.0382700 -0.0923900
v 0.8375000 0.0382700 -0.0923900
v 0.9000000 0.0382700 -0.0923900
v 0.9000000 -0.0000000 -0.1000000
v 0.8375000 -0.0000000 -0.1000000
v 0.9000000 -0.0000000 0.1000000
v 0.8375000 -0.0000000 0.1000000
v 0.8375000 -0.2000000 0.1000000
v 0.9000000 -0.2000000 0.1000000
v 0.9000000 -0.2000000 0.0500000
v 0.9000000 -0.2000000 0.1000000
v 0.8375000 -0.2000000 0.1000000
v 0.8375000 -0.2000000 0.0500000
v 0.8375000 -0.0000000 -0.1000000
v 0.9000000 -0.0000000 -0.1000000
v 0.9000000 -0.2000000 -0.1000000
v 0.8375000 -0.2000000 -0.1000000
v 0.8375000 -0.2000000 -0.0500000
v 0.8375000 -0.2000000 -0.1000000
v 0.9000000 -0.2000000 -0.1000000
v 0.9000000 -0.2000000 -0.0500000
v 0.8375000 -0.0000000 -0.1000000
v 0.8375000 -0.2000000 -0.1000000
v 0.8375000 -0.0382500 -0.0925000
v 0.8375000 -0.2000000 -0.1000000
v 0.8375000 -0.0707100 -0.0707100
v 0.8375000 -0.0382500 -0.0925000
v 0.8375000 -0.2000000 -0.1000000
v 0.8375000 -0.2000000 -0.0500000
v 0.8375000 -0.0846250 -0.0500000
v 0.8375000 -0.0707100 -0.0707100
v 0.8375000 -0.0382500 0.0925000
v 0.8375000 -0.2000000 0.1000000
v 0.8375000 -0.0000000 0.1000000
v 0.8375000 -0.0382500 0.0925000
v 0.8375000 -0.0707100 0.0707100
v 0.8375000 -0.2000000 0.1000000
v 0.8375000 -0.0707100 0.0707100
v 0.8375000 -0.0845000 0.0500000
v 0.8375000 -0.2000000 0.0500000
v 0.8375000 -0.2000000 0.1000000
v 0.7125000 -0.0707100 0.0707100
v 0.8375000 -0.0707100 0.0707100
v 0.8375000 -0.0382683 0.0923897
v 0.7125000 -0.0382683 0.0923897
v 0.7125000 -0.0382683 0.0923897
v 0.8375000 -0.0382683 0.0923897
v 0.8375000 -0.0000000 0.0999981
v 0.7125000 -0.0000000 0.0999981
v 0.7125000 -0.0000000 0.0999981
v 0.8375000 -0.0000000 0.0999981
v 0.8375000 0.0382683 0.0923897
v 0.7125000 0.0382683 0.0923897
v 0.7125000 0.0382683 0.0923897
v 0.8375000 0.0382683 0.0923897
v 0.8375000 0.0707100 0.0707100
v 0.7125000 0.0707100 0.0707100
v 0.7125000 0.0707100 0.0707100
v 0.8375000 0.0707100 0.0707100
v 0.8375000 0.0923897 0.0382683
v 0.7125000 0.0923897 0.0382683
v 0.7125000 0.0923897 0.0382683
v 0.8375000 0.0923897 0.0382683
v 0.8375000 0.0999981 0.0000000
v 0.7125000 0.0999981 0.0000000
v 0.7125000 0.0999981 0.0000000
v 0.8375000 0.0999981 0.0000000
v 0.8375000 0.0923897 -0.0382683
v 0.7125000 0.0923897 -0.0382683
v 0.7125000 0.0923897 -0.0382683
v 0.8375000 0.0923897 -0.0382683
v 0.8375000 0.0707100 -0.0707100
v 0.7125000 0.0707100 -0.0707100
v 0.7125000 0.0707100 -0.0707100
v 0.8375000 0.0707100 -0.0707100
v 0.8375000 0.0382683 -0.0923897
v 0.7125000 0.0382683 -0.0923897
v 0.7125000 0.0382683 -0.0923897
v 0.8375000 0.0382683 -0.0923897
v 0.8375000 -0.0000000 -0.0999981
v 0.7125000 -0.0000000 -0.0999981
v 0.7125000 -0.0000000 -0.0999981
v 0.8375000 -0.0000000 -0.0999981
v 0.8375000 -0.0382683 -0.0923897
v 0.7125000 -0.0382683 -0.0923897
v 0.7125000 -0.0382683 -0.0923897
v 0.8375000 -0.0382683 -0.0923897
v 0.8375000 -0.0707100 -0.0707100
v 0.7125000 -0.0707100 -0.0707100
v 0.7125000 -0.0707100 -0.0707100
v 0.8375000 -0.0707100 -0.0707100
v 0.8375000 -0.0845000 -0.0500000
v 0.7125000 -0.0845000 -0.0500000
v 0.7125000 -0.0845000 0.0500000
v 0.8375000 -0.0845000 0.0500000
v 0.8375000 -0.0707100 0.0707100
v 0.7125000 -0.0707100 0.0707100
v 0.7125000 -0.0382700 0.0923900
v 0.7125000 -0.0000000 0.1000000
v 0.7125000 -0.0000000 0.0000000
v 0.7125000 -0.0707100 0.0707100
v 0.7125000 -0.0382700 0.0923900
v 0.7125000 -0.0000000 0.0000000
v 0.7125000 -0.0923900 0.0382700
v 0.7125000 -0.0707100 0.0707100
v 0.7125000 -0.0000000 0.0000000
v 0.7125000 -0.1000000 0.0000000
v 0.7125000 -0.0923900 0.0382700
v 0.7125000 -0.0000000 0.0000000
v 0.7125000 -0.0923900 -0.0382700
v 0.7125000 -0.1000000 0.0000000
v 0.7125000 -0.0000000 0.0000000
v 0.7125000 -0.0707100 -0.0707100
v 0.7125000 -0.0923900 -0.0382700
v 0.7125000 -0.0000000 0.0000000
v 0.7125000 -0.0382700 -0.0923900
v 0.7125000 -0.0707100 -0.0707100
v 0.7125000 -0.0000000 0.0000000
v 0.7125000 -0.0000000 -0.1000000
v 0.7125000 -0.0382700 -0.0923900
v 0.7125000 -0.0000000 0.0000000
v 0.7125000 0.0382700 -0.0923900
v 0.7125000 -0.0000000 -0.1000000
v 0.7125000 -0.0000000 0.0000000
v 0.7125000 0.0707100 -0.0707100
v 0.7125000 0.0382700 -0.0923900
v 0.7125000 -0.0000000 0.0000000
v 0.7125000 0.0923900 -0.0382700
v 0.7125000 0.0707100 -0.0707100
v 0.7125000 -0.0000000 0.0000000
v 0.7125000 0.1000000 0.0000000
v 0.7125000 0.0923900 -0.0382700
v 0.7125000 -0.0000000 0.0000000
v 0.7125000 0.0923900 0.0382700
v 0.7125000 0.1000000 0.0000000
v 0.7125000 -0.0000000 0.0000000
v 0.7125000 0.0707100 0.0707100
v 0.7125000 0.0923900 0.0382700
v 0.7125000 -0.0000000 0.0000000
v 0.7125000 0.0382700 0.0923900
v 0.7125000 0.0707100 0.0707100
v 0.7125000 -0.0000000 0.0000000
v 0.7125000 -0.0000000 0.1000000
v 0.7125000 0.0382700 0.0923900
v 0.7125000 -0.0000000 0.0000000
v 0.7125000 0.0846250 0.0500000
v 0.7125000 0.0846250 -0.0500000
v -0.7125000 0.0846250 -0.0500000
v -0.7125000 0.0846250 0.0500000
v 0.7125000 0.0846250 -0.0500000
v 0.7125000 -0.0846250 -0.0500000
v -0.7125000 -0.0846250 -0.0500000
v -0.7125000 0.0846250 -0.0500000
v -0.7125000 0.0846250 0.0500000
v -0.7125000 -0.0846250 0.0500000
v 0.7125000 -0.0846250 0.0500000
v 0.7125000 0.0846250 0.0500000
v -0.9000000 -1.4000000 -0.0500000
v 0.9000000 -1.4000000 -0.0500000
v 0.9000000 -1.4000000 0.0500000
v -0.9000000 -1.4000000 0.0500000
v 0.9000000 -1.4000000 -0.0500000
v 0.9000000 -0.2000000 -0.0500000
v 0.9000000 -0.2000000 0.0500000
v 0.9000000 -1.4000000 0.0500000
v -0.9000000 -1.4000000 0.0500000
v -0.9000000 -0.2000000 0.0500000
v -0.9000000 -0.2000000 -0.0500000
v -0.9000000 -1.4000000 -0.0500000
v -0.8375000 -0.0846250 -0.0500000
v -0.7125000 -0.0846250 -0.0500000
v -0.8375000 -0.2000000 -0.0500000
v 0.8375000 -0.0846250 -0.0500000
v 0.8375000 -0.2000000 -0.0500000
v 0.7125000 -0.0846250 -0.0500000
v -0.8375000 -0.2000000 -0.0500000
v -0.7125000 -0.0846250 -0.0500000
v 0.7125000 -0.0846250 -0.0500000
v 0.8375000 -0.2000000 -0.0500000
v -0.9000000 -0.2000000 -0.0500000
v -0.8375000 -0.2000000 -0.0500000
v -0.9000000 -1.4000000 -0.0500000
v 0.9000000 -1.4000000 -0.0500000
v 0.8375000 -0.2000000 -0.0500000
v 0.9000000 -0.2000000 -0.0500000
v -0.8375000 -0.2000000 -0.0500000
v 0.8375000 -0.2000000 -0.0500000
v 0.9000000 -1.4000000 -0.0500000
v -0.9000000 -1.4000000 -0.0500000
v -0.8375000 -0.2000000 0.0500000
v -0.7125000 -0.0846250 0.0500000
v -0.8375000 -0.0846250 0.0500000
v 0.7125000 -0.0846250 0.0500000
v 0.8375000 -0.2000000 0.0500000
v 0.8375000 -0.0846250 0.0500000
v 0.8375000 -0.2000000 0.0500000
v 0.7125000 -0.0846250 0.0500000
v -0.7125000 -0.0846250 0.0500000
v -0.8375000 -0.2000000 0.0500000
v -0.9000000 -1.4000000 0.0500000
v -0.8375000 -0.2000000 0.0500000
v -0.9000000 -0.2000000 0.0500000
v 0.9000000 -0.2000000 0.0500000
v 0.8375000 -0.2000000 0.0500000
v 0.9000000 -1.4000000 0.0500000
v -0.9000000 -1.4000000 0.0500000
v 0.9000000 -1.4000000 0.0500000
v 0.8375000 -0.2000000 0.0500000
v -0.8375000 -0.2000000 0.0500000
s off
f 1 2 3
f 1 3 4
f 5 6 7
f 5 7 8
f 9 10 11
f 9 11 12
f 13 14 15
f 13 15 16
f 17 18 19
f 17 19 20
f 21 22 23
f 21 23 24
f 25 26 27
f 25 27 28
f 29 30 31
f 29 31 32
f 33 34 35
f 33 35 36
f 37 38 39
f 37 39 40
f 41 42 43
f 41 43 44
f 45 46 47
f 45 47 48
f 49 50 51
f 49 51 52
f 53 54 55
f 53 55 56
f 57 58 59
f 57 59 60
f 61 62 63
f 61 63 64
f 65 66 67
f 65 67 68
f 69 70 71
f 69 71 72
f 73 74 75
f 73 75 76
f 77 78 79
f 77 79 80
f 81 82 83
f 81 83 84
f 85 86 87
f 85 87 88
f 89 90 91
f 89 91 92
f 93 94 95
f 93 95 96
f 97 98 99
f 97 99 100
f 101 102 103
f 101 103 104
f 105 106 107
f 105 107 108
f 109 110 111
f 109 111 112
f 113 114 115
f 113 115 116
f 117 118 119
f 117 119 120
f 121 122 123
f 121 123 124
f 125 126 127
f 125 127 128
f 129 130 131
f 132 133 134
f 135 136 137
f 138 139 140
f 141 142 143
f 144 145 146
f 147 148 149
f 150 151 152
f 153 154 155
f 156 157 158
f 159 160 161
f 162 163 164
f 165 166 167
f 168 169 170
f 171 172 173
f 174 175 176
f 177 178 179
f 177 179 180
f 181 182 183
f 181 183 184
f 185 186 187
f 185 187 188
f 189 190 191
f 189 191 192
f 193 194 195
f 193 195 196
f 197 198 199
f 197 199 200
f 201 202 203
f 201 203 204
f 205 206 207
f 205 207 208
f 209 210 211
f 209 211 212
f 213 214 215
f 213 215 216
f 217 218 219
f 217 219 220
f 221 222 223
f 221 223 224
f 225 226 227
f 225 227 228
f 229 230 231
f 229 231 232
f 233 234 235
f 233 235 236
f 237 238 239
f 237 239 240
f 241 242 243
f 244 245 246
f 247 248 249
f 250 251 252
f 253 254 255
f 256 257 258
f 259 260 261
f 262 263 264
f 265 266 267
f 265 267 268
f 269 270 271
f 269 271 272
f 273 274 275
f 276 277 278
f 276 278 279
f 280 281 282
f 280 282 283
f 284 285 286
f 284 286 287
f 288 289 290
f 288 290 291
f 292 293 294
f 292 294 295
f 296 297 298
f 296 298 299
f 300 301 302
f 300 302 303
f 304 305 306
f 304 306 307
f 308 309 310
f 308 310 311
f 312 313 314
f 312 314 315
f 316 317 318
f 316 318 319
f 320 321 322
f 320 322 323
f 324 325 326
f 327 328 329
f 330 331 332
f 330 332 333
f 334 335 336
f 337 338 339
f 340 341 342
f 340 342 343
f 344 345 346
f 344 346 347
f 348 349 350
f 348 350 351
f 352 353 354
f 352 354 355
f 356 357 358
f 356 358 359
f 360 361 362
f 360 362 363
f 364 365 366
f 364 366 367
f 368 369 370
f 368 370 371
f 372 373 374
f 372 374 375
f 376 377 378
f 376 378 379
f 380 381 382
f 380 382 383
f 384 385 386
f 384 386 387
f 388 389 390
f 388 390 391
f 392 393 394
f 392 394 395
f 396 397 398
f 396 398 399
f 400 401 402
f 403 404 405
f 406 407 408
f 409 410 411
f 412 413 414
f 415 416 417
f 418 419 420
f 421 422 423
f 424 425 426
f 427 428 429
f 430 431 432
f 433 434 435
f 436 437 438
f 439 440 441
f 442 443 444
f 445 446 447
f 448 449 450
f 448 450 451
f 452 453 454
f 452 454 455
f 456 457 458
f 456 458 459
f 460 461 462
f 460 462 463
f 464 465 466
f 464 466 467
f 468 469 470
f 468 470 471
f 472 473 474
f 472 474 475
f 476 477 478
f 476 478 479
f 480 481 482
f 480 482 483
f 484 485 486
f 484 486 487
f 488 489 490
f 488 490 491
f 492 493 494
f 492 494 495
f 496 497 498
f 496 498 499
f 500 501 502
f 500 502 503
f 504 505 506
f 504 506 507
f 508 509 510
f 508 510 511
f 512 513 514
f 512 514 515
f 516 517 518
f 516 518 519
f 520 521 522
f 520 522 523
f 524 525 526
f 524 526 527
f 528 529 530
f 528 530 531
f 532 533 534
f 532 534 535
f 536 537 538
f 536 538 539
f 540 541 542
f 540 542 543
f 544 545 546
f 544 546 547
f 548 549 550
f 548 550 551
f 552 553 554
f 552 554 555
f 556 557 558
f 556 558 559
f 560 561 562
f 560 562 563
f 564 565 566
f 564 566 567
f 568 569 570
f 568 570 571
f 572 573 574
f 572 574 575
f 576 577 578
f 579 580 581
f 582 583 584
f 585 586 587
f 588 589 590
f 591 592 593
f 594 595 596
f 597 598 599
f 600 601 602
f 603 604 605
f 606 607 608
f 609 610 611
f 612 613 614
f 615 616 617
f 618 619 620
f 621 622 623
f 624 625 626
f 624 626 627
f 628 629 630
f 628 630 631
f 632 633 634
f 632 634 635
f 636 637 638
f 636 638 639
f 640 641 642
f 640 642 643
f 644 645 646
f 644 646 647
f 648 649 650
f 648 650 651
f 652 653 654
f 652 654 655
f 656 657 658
f 656 658 659
f 660 661 662
f 660 662 663
f 664 665 666
f 664 666 667
f 668 669 670
f 668 670 671
f 672 673 674
f 672 674 675
f 676 677 678
f 676 678 679
f 680 681 682
f 680 682 683
f 684 685 686
f 684 686 687
f 688 689 690
f 691 692 693
f 694 695 696
f 697 698 699
f 700 701 702
f 703 704 705
f 706 707 708
f 709 710 711
f 712 713 714
f 712 714 715
f 716 717 718
f 716 718 719
f 720 721 722
f 723 724 725
f 723 725 726
f 727 728 729
f 727 729 730
f 731 732 733
f 731 733 734
f 735 736 737
f 735 737 738
f 739 740 741
f 739 741 742
f 743 744 745
f 743 745 746
f 747 748 749
f 747 749 750
f 751 752 753
f 751 753 754
f 755 756 757
f 755 757 758
f 759 760 761
f 759 761 762
f 763 764 765
f 763 765 766
f 767 768 769
f 767 769 770
f 771 772 773
f 774 775 776
f 777 778 779
f 777 779 780
f 781 782 783
f 784 785 786
f 787 788 789
f 787 789 790
f 791 792 793
f 791 793 794
f 795 796 797
f 795 797 798
f 799 800 801
f 799 801 802
f 803 804 805
f 803 805 806
f 807 808 809
f 807 809 810
f 811 812 813
f 811 813 814
f 815 816 817
f 815 817 818
f 819 820 821
f 819 821 822
f 823 824 825
f 823 825 826
f 827 828 829
f 827 829 830
f 831 832 833
f 831 833 834
f 835 836 837
f 835 837 838
f 839 840 841
f 839 841 842
f 843 844 845
f 843 845 846
f 847 848 849
f 850 851 852
f 853 854 855
f 856 857 858
f 859 860 861
f 862 863 864
f 865 866 867
f 868 869 870
f 871 872 873
f 874 875 876
f 877 878 879
f 880 881 882
f 883 884 885
f 886 887 888
f 889 890 891
f 892 893 894
f 895 896 897
f 895 897 898
f 899 900 901
f 899 901 902
f 903 904 905
f 903 905 906
f 907 908 909
f 907 909 910
f 911 912 913
f 911 913 914
f 915 916 917
f 915 917 918
f 919 920 921
f 922 923 924
f 925 926 927
f 925 927 928
f 929 930 931
f 932 933 934
f 935 936 937
f 935 937 938
f 939 940 941
f 942 943 944
f 945 946 947
f 945 947 948
f 949 950 951
f 952 953 954
f 955 956 957
f 955 957 958
