# Baked from official LDraw part 60601.dat
o ldraw_60601
v 0.4125000 -0.1000000 -0.0750000
v 0.0500000 -0.1000000 -0.0750000
v 0.0500000 -0.9750000 -0.0750000
v 0.4125000 -0.9750000 -0.0750000
v 0.4125000 -0.1000000 -0.1750000
v 0.0500000 -0.1000000 -0.1750000
v 0.0500000 -0.1000000 -0.0750000
v 0.4125000 -0.1000000 -0.0750000
v 0.0500000 -0.9750000 -0.1750000
v 0.4125000 -0.9750000 -0.1750000
v 0.4125000 -0.9750000 -0.0750000
v 0.0500000 -0.9750000 -0.0750000
v 0.4125000 -0.9750000 -0.1750000
v 0.4125000 -0.1000000 -0.1750000
v 0.4125000 -0.1000000 -0.0750000
v 0.4125000 -0.9750000 -0.0750000
v -0.4125000 -0.9750000 -0.0750000
v -0.0500000 -0.9750000 -0.0750000
v -0.0500000 -0.1000000 -0.0750000
v -0.4125000 -0.1000000 -0.0750000
v -0.4125000 -0.1000000 -0.0750000
v -0.0500000 -0.1000000 -0.0750000
v -0.0500000 -0.1000000 -0.1750000
v -0.4125000 -0.1000000 -0.1750000
v -0.0500000 -0.9750000 -0.0750000
v -0.4125000 -0.9750000 -0.0750000
v -0.4125000 -0.9750000 -0.1750000
v -0.0500000 -0.9750000 -0.1750000
v -0.4125000 -0.9750000 -0.0750000
v -0.4125000 -0.1000000 -0.0750000
v -0.4125000 -0.1000000 -0.1750000
v -0.4125000 -0.9750000 -0.1750000
v 0.0500000 -0.1000000 -0.0750000
v 0.0500000 -0.1000000 -0.1750000
v 0.0461950 -0.0808650 -0.1750000
v 0.0461950 -0.0808650 -0.0750000
v 0.0461950 -0.0808650 -0.0750000
v 0.0461950 -0.0808650 -0.1750000
v 0.0353550 -0.0646450 -0.1750000
v 0.0353550 -0.0646450 -0.0750000
v 0.0353550 -0.0646450 -0.0750000
v 0.0353550 -0.0646450 -0.1750000
v 0.0191350 -0.0538050 -0.1750000
v 0.0191350 -0.0538050 -0.0750000
v 0.0191350 -0.0538050 -0.0750000
v 0.0191350 -0.0538050 -0.1750000
v 0.0000000 -0.0500000 -0.1750000
v 0.0000000 -0.0500000 -0.0750000
v 0.0000000 -0.0500000 -0.0750000
v 0.0000000 -0.0500000 -0.1750000
v -0.0191350 -0.0538050 -0.1750000
v -0.0191350 -0.0538050 -0.0750000
v -0.0191350 -0.0538050 -0.0750000
v -0.0191350 -0.0538050 -0.1750000
v -0.0353550 -0.0646450 -0.1750000
v -0.0353550 -0.0646450 -0.0750000
v -0.0353550 -0.0646450 -0.0750000
v -0.0353550 -0.0646450 -0.1750000
v -0.0461950 -0.0808650 -0.1750000
v -0.0461950 -0.0808650 -0.0750000
v -0.0461950 -0.0808650 -0.0750000
v -0.0461950 -0.0808650 -0.1750000
v -0.0500000 -0.1000000 -0.1750000
v -0.0500000 -0.1000000 -0.0750000
v 0.0500000 -0.1000000 -0.1750000
v -0.0500000 -0.1000000 -0.1750000
v -0.0461950 -0.0808650 -0.1750000
v 0.0461950 -0.0808650 -0.1750000
v 0.0461950 -0.0808650 -0.1750000
v -0.0461950 -0.0808650 -0.1750000
v -0.0353550 -0.0646450 -0.1750000
v 0.0353550 -0.0646450 -0.1750000
v 0.0353550 -0.0646450 -0.1750000
v -0.0353550 -0.0646450 -0.1750000
v -0.0191350 -0.0538050 -0.1750000
v 0.0191350 -0.0538050 -0.1750000
v 0.0191350 -0.0538050 -0.1750000
v -0.0191350 -0.0538050 -0.1750000
v 0.0000000 -0.0500000 -0.1750000
v -0.0500000 -0.1000000 -0.0750000
v 0.0500000 -0.1000000 -0.0750000
v 0.0461950 -0.0808650 -0.0750000
v -0.0461950 -0.0808650 -0.0750000
v -0.0461950 -0.0808650 -0.0750000
v 0.0461950 -0.0808650 -0.0750000
v 0.0353550 -0.0646450 -0.0750000
v -0.0353550 -0.0646450 -0.0750000
v -0.0353550 -0.0646450 -0.0750000
v 0.0353550 -0.0646450 -0.0750000
v 0.0191350 -0.0538050 -0.0750000
v -0.0191350 -0.0538050 -0.0750000
v -0.0191350 -0.0538050 -0.0750000
v 0.0191350 -0.0538050 -0.0750000
v 0.0000000 -0.0500000 -0.0750000
v -0.0500000 -0.9750000 -0.0750000
v -0.0500000 -0.9750000 -0.1750000
v -0.0461950 -0.9941350 -0.1750000
v -0.0461950 -0.9941350 -0.0750000
v -0.0461950 -0.9941350 -0.0750000
v -0.0461950 -0.9941350 -0.1750000
v -0.0353550 -1.0103550 -0.1750000
v -0.0353550 -1.0103550 -0.0750000
v -0.0353550 -1.0103550 -0.0750000
v -0.0353550 -1.0103550 -0.1750000
v -0.0191350 -1.0211950 -0.1750000
v -0.0191350 -1.0211950 -0.0750000
v -0.0191350 -1.0211950 -0.0750000
v -0.0191350 -1.0211950 -0.1750000
v 0.0000000 -1.0250000 -0.1750000
v 0.0000000 -1.0250000 -0.0750000
v 0.0000000 -1.0250000 -0.0750000
v 0.0000000 -1.0250000 -0.1750000
v 0.0191350 -1.0211950 -0.1750000
v 0.0191350 -1.0211950 -0.0750000
v 0.0191350 -1.0211950 -0.0750000
v 0.0191350 -1.0211950 -0.1750000
v 0.0353550 -1.0103550 -0.1750000
v 0.0353550 -1.0103550 -0.0750000
v 0.0353550 -1.0103550 -0.0750000
v 0.0353550 -1.0103550 -0.1750000
v 0.0461950 -0.9941350 -0.1750000
v 0.0461950 -0.9941350 -0.0750000
v 0.0461950 -0.9941350 -0.0750000
v 0.0461950 -0.9941350 -0.1750000
v 0.0500000 -0.9750000 -0.1750000
v 0.0500000 -0.9750000 -0.0750000
v -0.0500000 -0.9750000 -0.1750000
v 0.0500000 -0.9750000 -0.1750000
v 0.0461950 -0.9941350 -0.1750000
v -0.0461950 -0.9941350 -0.1750000
v -0.0461950 -0.9941350 -0.1750000
v 0.0461950 -0.9941350 -0.1750000
v 0.0353550 -1.0103550 -0.1750000
v -0.0353550 -1.0103550 -0.1750000
v -0.0353550 -1.0103550 -0.1750000
v 0.0353550 -1.0103550 -0.1750000
v 0.0191350 -1.0211950 -0.1750000
v -0.0191350 -1.0211950 -0.1750000
v -0.0191350 -1.0211950 -0.1750000
v 0.0191350 -1.0211950 -0.1750000
v 0.0000000 -1.0250000 -0.1750000
v 0.0500000 -0.9750000 -0.0750000
v -0.0500000 -0.9750000 -0.0750000
v -0.0461950 -0.9941350 -0.0750000
v 0.0461950 -0.9941350 -0.0750000
v 0.0461950 -0.9941350 -0.0750000
v -0.0461950 -0.9941350 -0.0750000
v -0.0353550 -1.0103550 -0.0750000
v 0.0353550 -1.0103550 -0.0750000
v 0.0353550 -1.0103550 -0.0750000
v -0.0353550 -1.0103550 -0.0750000
v -0.0191350 -1.0211950 -0.0750000
v 0.0191350 -1.0211950 -0.0750000
v 0.0191350 -1.0211950 -0.0750000
v -0.0191350 -1.0211950 -0.0750000
v 0.0000000 -1.0250000 -0.0750000
v -0.0500000 -0.9750000 -0.0750000
v 0.0500000 -0.9750000 -0.0750000
v 0.0500000 -0.1000000 -0.0750000
v -0.0500000 -0.1000000 -0.0750000
v -0.4125000 -0.9750000 -0.1750000
v -0.4125000 -0.1000000 -0.1750000
v -0.0500000 -0.1000000 -0.1750000
v -0.0500000 -0.9750000 -0.1750000
v 0.4125000 -0.1000000 -0.1750000
v 0.4125000 -0.9750000 -0.1750000
v 0.0500000 -0.9750000 -0.1750000
v 0.0500000 -0.1000000 -0.1750000
v 0.0500000 -0.9750000 -0.1750000
v -0.0500000 -0.9750000 -0.1750000
v -0.0500000 -0.1000000 -0.1750000
v 0.0500000 -0.1000000 -0.1750000
s off
f 1 2 3
f 1 3 4
f 5 6 7
f 5 7 8
f 9 10 11
f 9 11 12
f 13 14 15
f 13 15 16
f 17 18 19
f 17 19 20
f 21 22 23
f 21 23 24
f 25 26 27
f 25 27 28
f 29 30 31
f 29 31 32
f 33 34 35
f 33 35 36
f 37 38 39
f 37 39 40
f 41 42 43
f 41 43 44
f 45 46 47
f 45 47 48
f 49 50 51
f 49 51 52
f 53 54 55
f 53 55 56
f 57 58 59
f 57 59 60
f 61 62 63
f 61 63 64
f 65 66 67
f 65 67 68
f 69 70 71
f 69 71 72
f 73 74 75
f 73 75 76
f 77 78 79
f 80 81 82
f 80 82 83
f 84 85 86
f 84 86 87
f 88 89 90
f 88 90 91
f 92 93 94
f 95 96 97
f 95 97 98
f 99 100 101
f 99 101 102
f 103 104 105
f 103 105 106
f 107 108 109
f 107 109 110
f 111 112 113
f 111 113 114
f 115 116 117
f 115 117 118
f 119 120 121
f 119 121 122
f 123 124 125
f 123 125 126
f 127 128 129
f 127 129 130
f 131 132 133
f 131 133 134
f 135 136 137
f 135 137 138
f 139 140 141
f 142 143 144
f 142 144 145
f 146 147 148
f 146 148 149
f 150 151 152
f 150 152 153
f 154 155 156
f 157 158 159
f 157 159 160
f 161 162 163
f 161 163 164
f 165 166 167
f 165 167 168
f 169 170 171
f 169 171 172
