# Baked from official LDraw part 60616b.dat
o ldraw_60616b
v 0.0000000 -0.2312500 0.0937500
v 0.0000000 -0.1000000 0.0937500
v -0.0358781 -0.1000000 0.0866156
v -0.0358781 -0.2312500 0.0866156
v -0.0358781 -0.2312500 0.0866156
v -0.0358781 -0.1000000 0.0866156
v -0.0662906 -0.1000000 0.0662906
v -0.0662906 -0.2312500 0.0662906
v -0.0662906 -0.2312500 0.0662906
v -0.0662906 -0.1000000 0.0662906
v -0.0866156 -0.1000000 0.0358781
v -0.0866156 -0.2312500 0.0358781
v -0.0866156 -0.2312500 0.0358781
v -0.0866156 -0.1000000 0.0358781
v -0.0937500 -0.1000000 0.0000000
v -0.0937500 -0.2312500 0.0000000
v -0.0937500 -0.2312500 0.0000000
v -0.0937500 -0.1000000 0.0000000
v -0.0866156 -0.1000000 -0.0358781
v -0.0866156 -0.2312500 -0.0358781
v -0.0866156 -0.2312500 -0.0358781
v -0.0866156 -0.1000000 -0.0358781
v -0.0662906 -0.1000000 -0.0662906
v -0.0662906 -0.2312500 -0.0662906
v -0.0662906 -0.2312500 -0.0662906
v -0.0662906 -0.1000000 -0.0662906
v -0.0358781 -0.1000000 -0.0866156
v -0.0358781 -0.2312500 -0.0866156
v -0.0358781 -0.2312500 -0.0866156
v -0.0358781 -0.1000000 -0.0866156
v 0.0000000 -0.1000000 -0.0937500
v 0.0000000 -0.2312500 -0.0937500
v 0.1875000 -0.1000000 -0.0500000
v 0.1875000 -0.1625000 -0.0500000
v 0.1875000 -0.1625000 -0.0937500
v 0.1875000 -0.1000000 -0.0937500
v 0.0000000 -0.1000000 -0.0937500
v 0.1875000 -0.1000000 -0.0937500
v 0.1875000 -0.1625000 -0.0937500
v 0.0000000 -0.1625000 -0.0937500
v 0.1875000 -0.1000000 0.0937500
v 0.1875000 -0.1625000 0.0937500
v 0.1875000 -0.1625000 0.0500000
v 0.1875000 -0.1000000 0.0500000
v 0.0000000 -0.1625000 0.0937500
v 0.1875000 -0.1625000 0.0937500
v 0.1875000 -0.1000000 0.0937500
v 0.0000000 -0.1000000 0.0937500
v 0.0000000 -0.1000000 0.0500000
v -0.0191350 -0.1000000 0.0461950
v -0.0287025 -0.1000000 0.0692925
v 0.0000000 -0.1000000 0.0750000
v -0.0191350 -0.1000000 0.0461950
v -0.0353550 -0.1000000 0.0353550
v -0.0530325 -0.1000000 0.0530325
v -0.0287025 -0.1000000 0.0692925
v -0.0353550 -0.1000000 0.0353550
v -0.0461950 -0.1000000 0.0191350
v -0.0692925 -0.1000000 0.0287025
v -0.0530325 -0.1000000 0.0530325
v -0.0461950 -0.1000000 0.0191350
v -0.0500000 -0.1000000 0.0000000
v -0.0750000 -0.1000000 0.0000000
v -0.0692925 -0.1000000 0.0287025
v -0.0500000 -0.1000000 0.0000000
v -0.0461950 -0.1000000 -0.0191350
v -0.0692925 -0.1000000 -0.0287025
v -0.0750000 -0.1000000 0.0000000
v -0.0461950 -0.1000000 -0.0191350
v -0.0353550 -0.1000000 -0.0353550
v -0.0530325 -0.1000000 -0.0530325
v -0.0692925 -0.1000000 -0.0287025
v -0.0353550 -0.1000000 -0.0353550
v -0.0191350 -0.1000000 -0.0461950
v -0.0287025 -0.1000000 -0.0692925
v -0.0530325 -0.1000000 -0.0530325
v -0.0191350 -0.1000000 -0.0461950
v 0.0000000 -0.1000000 -0.0500000
v 0.0000000 -0.1000000 -0.0750000
v -0.0287025 -0.1000000 -0.0692925
v 0.0000000 -0.1000000 0.0750000
v -0.0287025 -0.1000000 0.0692925
v -0.0358781 -0.1000000 0.0866156
v 0.0000000 -0.1000000 0.0937500
v -0.0287025 -0.1000000 0.0692925
v -0.0530325 -0.1000000 0.0530325
v -0.0662906 -0.1000000 0.0662906
v -0.0358781 -0.1000000 0.0866156
v -0.0530325 -0.1000000 0.0530325
v -0.0692925 -0.1000000 0.0287025
v -0.0866156 -0.1000000 0.0358781
v -0.0662906 -0.1000000 0.0662906
v -0.0692925 -0.1000000 0.0287025
v -0.0750000 -0.1000000 0.0000000
v -0.0937500 -0.1000000 0.0000000
v -0.0866156 -0.1000000 0.0358781
v -0.0750000 -0.1000000 0.0000000
v -0.0692925 -0.1000000 -0.0287025
v -0.0866156 -0.1000000 -0.0358781
v -0.0937500 -0.1000000 0.0000000
v -0.0692925 -0.1000000 -0.0287025
v -0.0530325 -0.1000000 -0.0530325
v -0.0662906 -0.1000000 -0.0662906
v -0.0866156 -0.1000000 -0.0358781
v -0.0530325 -0.1000000 -0.0530325
v -0.0287025 -0.1000000 -0.0692925
v -0.0358781 -0.1000000 -0.0866156
v -0.0662906 -0.1000000 -0.0662906
v -0.0287025 -0.1000000 -0.0692925
v 0.0000000 -0.1000000 -0.0750000
v 0.0000000 -0.1000000 -0.0937500
v -0.0358781 -0.1000000 -0.0866156
v 0.0191350 -0.1000000 0.0461950
v 0.0000000 -0.1000000 0.0500000
v 0.0500000 -0.1000000 0.0500000
v 0.0353550 -0.1000000 0.0353550
v 0.0191350 -0.1000000 0.0461950
v 0.0500000 -0.1000000 0.0500000
v 0.0461950 -0.1000000 0.0191350
v 0.0353550 -0.1000000 0.0353550
v 0.0500000 -0.1000000 0.0500000
v 0.0500000 -0.1000000 0.0000000
v 0.0461950 -0.1000000 0.0191350
v 0.0500000 -0.1000000 0.0500000
v 0.0461950 -0.1000000 -0.0191350
v 0.0500000 -0.1000000 0.0000000
v 0.0500000 -0.1000000 -0.0500000
v 0.0353550 -0.1000000 -0.0353550
v 0.0461950 -0.1000000 -0.0191350
v 0.0500000 -0.1000000 -0.0500000
v 0.0191350 -0.1000000 -0.0461950
v 0.0353550 -0.1000000 -0.0353550
v 0.0500000 -0.1000000 -0.0500000
v 0.0000000 -0.1000000 -0.0500000
v 0.0191350 -0.1000000 -0.0461950
v 0.0500000 -0.1000000 -0.0500000
v 0.1875000 -0.1000000 0.0937500
v 0.0000000 -0.1000000 0.0750000
v 0.0000000 -0.1000000 0.0937500
v 0.0500000 -0.1000000 0.0500000
v 0.0000000 -0.1000000 0.0500000
v 0.0000000 -0.1000000 0.0750000
v 0.1875000 -0.1000000 0.0937500
v 0.1875000 -0.1000000 0.0937500
v 0.1875000 -0.1000000 0.0500000
v 0.0500000 -0.1000000 0.0000000
v 0.0500000 -0.1000000 0.0500000
v 0.0500000 -0.1000000 0.0000000
v 0.1875000 -0.1000000 0.0500000
v 0.1875000 -0.1000000 -0.0500000
v 0.0500000 -0.1000000 -0.0500000
v 0.0500000 -0.1000000 0.0000000
v 0.1875000 -0.1000000 -0.0500000
v 0.1875000 -0.1000000 -0.0937500
v 0.1875000 -0.1000000 -0.0937500
v 0.0000000 -0.1000000 -0.0750000
v 0.0000000 -0.1000000 -0.0500000
v 0.0500000 -0.1000000 -0.0500000
v 0.0000000 -0.1000000 -0.0937500
v 0.0000000 -0.1000000 -0.0750000
v 0.1875000 -0.1000000 -0.0937500
v 0.0771770 -0.2312500 -0.0500000
v 0.0662900 -0.2312500 -0.0662900
v 0.0662900 -0.1625000 -0.0662900
v 0.0771770 -0.1625000 -0.0500000
v 0.0358781 -0.1625000 -0.0866156
v 0.0358781 -0.2312500 -0.0866156
v 0.0000000 -0.2312500 -0.0937500
v 0.0000000 -0.1625000 -0.0937500
v 0.0662906 -0.1625000 -0.0662906
v 0.0662906 -0.2312500 -0.0662906
v 0.0358781 -0.2312500 -0.0866156
v 0.0358781 -0.1625000 -0.0866156
v 0.0771770 -0.1625000 0.0500000
v 0.0662900 -0.1625000 0.0662900
v 0.0662900 -0.2312500 0.0662900
v 0.0771770 -0.2312500 0.0500000
v 0.0358785 -0.1625000 0.0866155
v 0.0358785 -0.2312500 0.0866155
v 0.0662925 -0.2312500 0.0662900
v 0.0662925 -0.1625000 0.0662900
v 0.0000018 -0.1625000 0.0937491
v 0.0000018 -0.2312500 0.0937491
v 0.0358785 -0.2312500 0.0866155
v 0.0358785 -0.1625000 0.0866155
v 0.0358781 -0.1625000 -0.0866156
v 0.0000000 -0.1625000 -0.0937500
v 0.0937500 -0.1625000 -0.0937500
v 0.0662906 -0.1625000 -0.0662906
v 0.0358781 -0.1625000 -0.0866156
v 0.0937500 -0.1625000 -0.0937500
v 0.0771775 -0.1625000 -0.0500000
v 0.0662900 -0.1625000 -0.0662900
v 0.0937500 -0.1625000 -0.0937500
v 0.1875000 -0.1625000 -0.0937500
v 0.1875000 -0.1625000 -0.0937500
v 0.1875000 -0.1625000 -0.0500000
v 0.0771775 -0.1625000 -0.0500000
v 0.0937500 -0.1625000 0.0937500
v 0.0000000 -0.1625000 0.0937500
v 0.0358781 -0.1625000 0.0866156
v 0.0937500 -0.1625000 0.0937500
v 0.0358781 -0.1625000 0.0866156
v 0.0662906 -0.1625000 0.0662906
v 0.1875000 -0.1625000 0.0937500
v 0.0937500 -0.1625000 0.0937500
v 0.0662900 -0.1625000 0.0662900
v 0.0771775 -0.1625000 0.0500000
v 0.0771775 -0.1625000 0.0500000
v 0.1875000 -0.1625000 0.0500000
v 0.1875000 -0.1625000 0.0937500
v 0.0375000 -0.0915625 0.0000000
v 0.0346463 -0.0915625 0.0143512
v 0.0461950 -0.1000000 0.0191350
v 0.0500000 -0.1000000 0.0000000
v 0.0346463 -0.0915625 0.0143512
v 0.0265163 -0.0915625 0.0265163
v 0.0353550 -0.1000000 0.0353550
v 0.0461950 -0.1000000 0.0191350
v 0.0265163 -0.0915625 0.0265163
v 0.0143512 -0.0915625 0.0346463
v 0.0191350 -0.1000000 0.0461950
v 0.0353550 -0.1000000 0.0353550
v 0.0143512 -0.0915625 0.0346463
v 0.0000000 -0.0915625 0.0375000
v 0.0000000 -0.1000000 0.0500000
v 0.0191350 -0.1000000 0.0461950
v 0.0000000 -0.0915625 0.0375000
v -0.0143512 -0.0915625 0.0346463
v -0.0191350 -0.1000000 0.0461950
v 0.0000000 -0.1000000 0.0500000
v -0.0143512 -0.0915625 0.0346463
v -0.0265163 -0.0915625 0.0265163
v -0.0353550 -0.1000000 0.0353550
v -0.0191350 -0.1000000 0.0461950
v -0.0265163 -0.0915625 0.0265163
v -0.0346463 -0.0915625 0.0143512
v -0.0461950 -0.1000000 0.0191350
v -0.0353550 -0.1000000 0.0353550
v -0.0346463 -0.0915625 0.0143512
v -0.0375000 -0.0915625 0.0000000
v -0.0500000 -0.1000000 0.0000000
v -0.0461950 -0.1000000 0.0191350
v -0.0375000 -0.0915625 0.0000000
v -0.0346463 -0.0915625 -0.0143512
v -0.0461950 -0.1000000 -0.0191350
v -0.0500000 -0.1000000 0.0000000
v -0.0346463 -0.0915625 -0.0143512
v -0.0265163 -0.0915625 -0.0265163
v -0.0353550 -0.1000000 -0.0353550
v -0.0461950 -0.1000000 -0.0191350
v -0.0265163 -0.0915625 -0.0265163
v -0.0143512 -0.0915625 -0.0346463
v -0.0191350 -0.1000000 -0.0461950
v -0.0353550 -0.1000000 -0.0353550
v -0.0143512 -0.0915625 -0.0346463
v 0.0000000 -0.0915625 -0.0375000
v 0.0000000 -0.1000000 -0.0500000
v -0.0191350 -0.1000000 -0.0461950
v 0.0000000 -0.0915625 -0.0375000
v 0.0143512 -0.0915625 -0.0346463
v 0.0191350 -0.1000000 -0.0461950
v 0.0000000 -0.1000000 -0.0500000
v 0.0143512 -0.0915625 -0.0346463
v 0.0265163 -0.0915625 -0.0265163
v 0.0353550 -0.1000000 -0.0353550
v 0.0191350 -0.1000000 -0.0461950
v 0.0265163 -0.0915625 -0.0265163
v 0.0346463 -0.0915625 -0.0143512
v 0.0461950 -0.1000000 -0.0191350
v 0.0353550 -0.1000000 -0.0353550
v 0.0346463 -0.0915625 -0.0143512
v 0.0375000 -0.0915625 0.0000000
v 0.0500000 -0.1000000 0.0000000
v 0.0461950 -0.1000000 -0.0191350
v 0.0375000 -0.0915625 0.0000000
v 0.0187500 -0.0831250 0.0000000
v 0.0173231 -0.0831250 0.0071756
v 0.0346463 -0.0915625 0.0143512
v 0.0346463 -0.0915625 0.0143512
v 0.0173231 -0.0831250 0.0071756
v 0.0132581 -0.0831250 0.0132581
v 0.0265162 -0.0915625 0.0265162
v 0.0265162 -0.0915625 0.0265162
v 0.0132581 -0.0831250 0.0132581
v 0.0071756 -0.0831250 0.0173231
v 0.0143512 -0.0915625 0.0346463
v 0.0143512 -0.0915625 0.0346463
v 0.0071756 -0.0831250 0.0173231
v 0.0000000 -0.0831250 0.0187500
v 0.0000000 -0.0915625 0.0375000
v 0.0000000 -0.0915625 0.0375000
v 0.0000000 -0.0831250 0.0187500
v -0.0071756 -0.0831250 0.0173231
v -0.0143512 -0.0915625 0.0346463
v -0.0143512 -0.0915625 0.0346463
v -0.0071756 -0.0831250 0.0173231
v -0.0132581 -0.0831250 0.0132581
v -0.0265162 -0.0915625 0.0265162
v -0.0265162 -0.0915625 0.0265162
v -0.0132581 -0.0831250 0.0132581
v -0.0173231 -0.0831250 0.0071756
v -0.0346463 -0.0915625 0.0143512
v -0.0346463 -0.0915625 0.0143512
v -0.0173231 -0.0831250 0.0071756
v -0.0187500 -0.0831250 0.0000000
v -0.0375000 -0.0915625 0.0000000
v -0.0375000 -0.0915625 0.0000000
v -0.0187500 -0.0831250 0.0000000
v -0.0173231 -0.0831250 -0.0071756
v -0.0346463 -0.0915625 -0.0143512
v -0.0346463 -0.0915625 -0.0143512
v -0.0173231 -0.0831250 -0.0071756
v -0.0132581 -0.0831250 -0.0132581
v -0.0265162 -0.0915625 -0.0265162
v -0.0265162 -0.0915625 -0.0265162
v -0.0132581 -0.0831250 -0.0132581
v -0.0071756 -0.0831250 -0.0173231
v -0.0143512 -0.0915625 -0.0346463
v -0.0143512 -0.0915625 -0.0346463
v -0.0071756 -0.0831250 -0.0173231
v 0.0000000 -0.0831250 -0.0187500
v 0.0000000 -0.0915625 -0.0375000
v 0.0000000 -0.0915625 -0.0375000
v 0.0000000 -0.0831250 -0.0187500
v 0.0071756 -0.0831250 -0.0173231
v 0.0143512 -0.0915625 -0.0346463
v 0.0143512 -0.0915625 -0.0346463
v 0.0071756 -0.0831250 -0.0173231
v 0.0132581 -0.0831250 -0.0132581
v 0.0265162 -0.0915625 -0.0265162
v 0.0265162 -0.0915625 -0.0265162
v 0.0132581 -0.0831250 -0.0132581
v 0.0173231 -0.0831250 -0.0071756
v 0.0346463 -0.0915625 -0.0143512
v 0.0346463 -0.0915625 -0.0143512
v 0.0173231 -0.0831250 -0.0071756
v 0.0187500 -0.0831250 0.0000000
v 0.0375000 -0.0915625 0.0000000
v 0.0000000 -0.0812500 0.0000000
v 0.0173231 -0.0831250 0.0071756
v 0.0187500 -0.0831250 0.0000000
v 0.0000000 -0.0812500 0.0000000
v 0.0132600 -0.0831250 0.0132600
v 0.0173231 -0.0831250 0.0071756
v 0.0000000 -0.0812500 0.0000000
v 0.0071756 -0.0831250 0.0173231
v 0.0132600 -0.0831250 0.0132600
v 0.0000000 -0.0812500 0.0000000
v 0.0000000 -0.0831250 0.0187500
v 0.0071756 -0.0831250 0.0173231
v 0.0000000 -0.0812500 0.0000000
v -0.0071756 -0.0831250 0.0173231
v 0.0000000 -0.0831250 0.0187500
v 0.0000000 -0.0812500 0.0000000
v -0.0132600 -0.0831250 0.0132600
v -0.0071756 -0.0831250 0.0173231
v 0.0000000 -0.0812500 0.0000000
v -0.0173231 -0.0831250 0.0071756
v -0.0132600 -0.0831250 0.0132600
v 0.0000000 -0.0812500 0.0000000
v -0.0187500 -0.0831250 0.0000000
v -0.0173231 -0.0831250 0.0071756
v 0.0000000 -0.0812500 0.0000000
v -0.0173231 -0.0831250 -0.0071756
v -0.0187500 -0.0831250 0.0000000
v 0.0000000 -0.0812500 0.0000000
v -0.0132600 -0.0831250 -0.0132600
v -0.0173231 -0.0831250 -0.0071756
v 0.0000000 -0.0812500 0.0000000
v -0.0071756 -0.0831250 -0.0173231
v -0.0132600 -0.0831250 -0.0132600
v 0.0000000 -0.0812500 0.0000000
v 0.0000000 -0.0831250 -0.0187500
v -0.0071756 -0.0831250 -0.0173231
v 0.0000000 -0.0812500 0.0000000
v 0.0071756 -0.0831250 -0.0173231
v 0.0000000 -0.0831250 -0.0187500
v 0.0000000 -0.0812500 0.0000000
v 0.0132600 -0.0831250 -0.0132600
v 0.0071756 -0.0831250 -0.0173231
v 0.0000000 -0.0812500 0.0000000
v 0.0173231 -0.0831250 -0.0071756
v 0.0132600 -0.0831250 -0.0132600
v 0.0000000 -0.0812500 0.0000000
v 0.0187500 -0.0831250 0.0000000
v 0.0173231 -0.0831250 -0.0071756
v -0.0662900 -0.2312500 0.0662925
v 0.0662925 -0.2312500 0.0662900
v 0.0358785 -0.2312500 0.0866155
v -0.0358752 -0.2312500 0.0866168
v -0.0358752 -0.2312500 0.0866168
v 0.0358785 -0.2312500 0.0866155
v 0.0000018 -0.2312500 0.0937491
v 0.0662900 -0.2312500 -0.0662925
v -0.0662925 -0.2312500 -0.0662900
v -0.0358785 -0.2312500 -0.0866155
v 0.0358752 -0.2312500 -0.0866168
v 0.0358752 -0.2312500 -0.0866168
v -0.0358785 -0.2312500 -0.0866155
v -0.0000018 -0.2312500 -0.0937491
v 0.0662900 -0.2312500 -0.0662900
v 0.0771775 -0.2312500 -0.0500000
v -0.0771775 -0.2312500 -0.0500000
v -0.0662900 -0.2312500 -0.0662900
v -0.0662900 -0.2312500 0.0662900
v -0.0771775 -0.2312500 0.0500000
v 0.0771775 -0.2312500 0.0500000
v 0.0662900 -0.2312500 0.0662900
v -0.0866127 -0.2312500 0.0358747
v -0.0937516 -0.2312500 -0.0000006
v -0.0866125 -0.2312500 -0.0358775
v -0.0866150 -0.2312500 0.0358775
v -0.0866150 -0.2312500 -0.0358775
v -0.0771775 -0.2312500 -0.0500000
v -0.0771775 -0.2312500 0.0500000
v -0.0358781 -3.2687500 0.0866156
v -0.0358781 -3.4000000 0.0866156
v 0.0000000 -3.4000000 0.0937500
v 0.0000000 -3.2687500 0.0937500
v -0.0662906 -3.2687500 0.0662906
v -0.0662906 -3.4000000 0.0662906
v -0.0358781 -3.4000000 0.0866156
v -0.0358781 -3.2687500 0.0866156
v -0.0866156 -3.2687500 0.0358781
v -0.0866156 -3.4000000 0.0358781
v -0.0662906 -3.4000000 0.0662906
v -0.0662906 -3.2687500 0.0662906
v -0.0937500 -3.2687500 0.0000000
v -0.0937500 -3.4000000 0.0000000
v -0.0866156 -3.4000000 0.0358781
v -0.0866156 -3.2687500 0.0358781
v -0.0866156 -3.2687500 -0.0358781
v -0.0866156 -3.4000000 -0.0358781
v -0.0937500 -3.4000000 0.0000000
v -0.0937500 -3.2687500 0.0000000
v -0.0662906 -3.2687500 -0.0662906
v -0.0662906 -3.4000000 -0.0662906
v -0.0866156 -3.4000000 -0.0358781
v -0.0866156 -3.2687500 -0.0358781
v -0.0358781 -3.2687500 -0.0866156
v -0.0358781 -3.4000000 -0.0866156
v -0.0662906 -3.4000000 -0.0662906
v -0.0662906 -3.2687500 -0.0662906
v 0.0000000 -3.2687500 -0.0937500
v 0.0000000 -3.4000000 -0.0937500
v -0.0358781 -3.4000000 -0.0866156
v -0.0358781 -3.2687500 -0.0866156
v 0.1875000 -3.4000000 -0.0937500
v 0.1875000 -3.3375000 -0.0937500
v 0.1875000 -3.3375000 -0.0500000
v 0.1875000 -3.4000000 -0.0500000
v 0.0000000 -3.3375000 -0.0937500
v 0.1875000 -3.3375000 -0.0937500
v 0.1875000 -3.4000000 -0.0937500
v 0.0000000 -3.4000000 -0.0937500
v 0.1875000 -3.4000000 0.0500000
v 0.1875000 -3.3375000 0.0500000
v 0.1875000 -3.3375000 0.0937500
v 0.1875000 -3.4000000 0.0937500
v 0.0000000 -3.4000000 0.0937500
v 0.1875000 -3.4000000 0.0937500
v 0.1875000 -3.3375000 0.0937500
v 0.0000000 -3.3375000 0.0937500
v 0.0000000 -3.4000000 0.0750000
v -0.0287025 -3.4000000 0.0692925
v -0.0191350 -3.4000000 0.0461950
v 0.0000000 -3.4000000 0.0500000
v -0.0287025 -3.4000000 0.0692925
v -0.0530325 -3.4000000 0.0530325
v -0.0353550 -3.4000000 0.0353550
v -0.0191350 -3.4000000 0.0461950
v -0.0530325 -3.4000000 0.0530325
v -0.0692925 -3.4000000 0.0287025
v -0.0461950 -3.4000000 0.0191350
v -0.0353550 -3.4000000 0.0353550
v -0.0692925 -3.4000000 0.0287025
v -0.0750000 -3.4000000 0.0000000
v -0.0500000 -3.4000000 0.0000000
v -0.0461950 -3.4000000 0.0191350
v -0.0750000 -3.4000000 0.0000000
v -0.0692925 -3.4000000 -0.0287025
v -0.0461950 -3.4000000 -0.0191350
v -0.0500000 -3.4000000 0.0000000
v -0.0692925 -3.4000000 -0.0287025
v -0.0530325 -3.4000000 -0.0530325
v -0.0353550 -3.4000000 -0.0353550
v -0.0461950 -3.4000000 -0.0191350
v -0.0530325 -3.4000000 -0.0530325
v -0.0287025 -3.4000000 -0.0692925
v -0.0191350 -3.4000000 -0.0461950
v -0.0353550 -3.4000000 -0.0353550
v -0.0287025 -3.4000000 -0.0692925
v 0.0000000 -3.4000000 -0.0750000
v 0.0000000 -3.4000000 -0.0500000
v -0.0191350 -3.4000000 -0.0461950
v 0.0000000 -3.4000000 0.0937500
v -0.0358781 -3.4000000 0.0866156
v -0.0287025 -3.4000000 0.0692925
v 0.0000000 -3.4000000 0.0750000
v -0.0358781 -3.4000000 0.0866156
v -0.0662906 -3.4000000 0.0662906
v -0.0530325 -3.4000000 0.0530325
v -0.0287025 -3.4000000 0.0692925
v -0.0662906 -3.4000000 0.0662906
v -0.0866156 -3.4000000 0.0358781
v -0.0692925 -3.4000000 0.0287025
v -0.0530325 -3.4000000 0.0530325
v -0.0866156 -3.4000000 0.0358781
v -0.0937500 -3.4000000 0.0000000
v -0.0750000 -3.4000000 0.0000000
v -0.0692925 -3.4000000 0.0287025
v -0.0937500 -3.4000000 0.0000000
v -0.0866156 -3.4000000 -0.0358781
v -0.0692925 -3.4000000 -0.0287025
v -0.0750000 -3.4000000 0.0000000
v -0.0866156 -3.4000000 -0.0358781
v -0.0662906 -3.4000000 -0.0662906
v -0.0530325 -3.4000000 -0.0530325
v -0.0692925 -3.4000000 -0.0287025
v -0.0662906 -3.4000000 -0.0662906
v -0.0358781 -3.4000000 -0.0866156
v -0.0287025 -3.4000000 -0.0692925
v -0.0530325 -3.4000000 -0.0530325
v -0.0358781 -3.4000000 -0.0866156
v 0.0000000 -3.4000000 -0.0937500
v 0.0000000 -3.4000000 -0.0750000
v -0.0287025 -3.4000000 -0.0692925
v 0.0500000 -3.4000000 0.0500000
v 0.0000000 -3.4000000 0.0500000
v 0.0191350 -3.4000000 0.0461950
v 0.0500000 -3.4000000 0.0500000
v 0.0191350 -3.4000000 0.0461950
v 0.0353550 -3.4000000 0.0353550
v 0.0500000 -3.4000000 0.0500000
v 0.0353550 -3.4000000 0.0353550
v 0.0461950 -3.4000000 0.0191350
v 0.0500000 -3.4000000 0.0500000
v 0.0461950 -3.4000000 0.0191350
v 0.0500000 -3.4000000 0.0000000
v 0.0500000 -3.4000000 -0.0500000
v 0.0500000 -3.4000000 0.0000000
v 0.0461950 -3.4000000 -0.0191350
v 0.0500000 -3.4000000 -0.0500000
v 0.0461950 -3.4000000 -0.0191350
v 0.0353550 -3.4000000 -0.0353550
v 0.0500000 -3.4000000 -0.0500000
v 0.0353550 -3.4000000 -0.0353550
v 0.0191350 -3.4000000 -0.0461950
v 0.0500000 -3.4000000 -0.0500000
v 0.0191350 -3.4000000 -0.0461950
v 0.0000000 -3.4000000 -0.0500000
v 0.0000000 -3.4000000 0.0937500
v 0.0000000 -3.4000000 0.0750000
v 0.1875000 -3.4000000 0.0937500
v 0.1875000 -3.4000000 0.0937500
v 0.0000000 -3.4000000 0.0750000
v 0.0000000 -3.4000000 0.0500000
v 0.0500000 -3.4000000 0.0500000
v 0.0500000 -3.4000000 0.0500000
v 0.0500000 -3.4000000 0.0000000
v 0.1875000 -3.4000000 0.0500000
v 0.1875000 -3.4000000 0.0937500
v 0.1875000 -3.4000000 -0.0500000
v 0.1875000 -3.4000000 0.0500000
v 0.0500000 -3.4000000 0.0000000
v 0.1875000 -3.4000000 -0.0937500
v 0.1875000 -3.4000000 -0.0500000
v 0.0500000 -3.4000000 0.0000000
v 0.0500000 -3.4000000 -0.0500000
v 0.0500000 -3.4000000 -0.0500000
v 0.0000000 -3.4000000 -0.0500000
v 0.0000000 -3.4000000 -0.0750000
v 0.1875000 -3.4000000 -0.0937500
v 0.1875000 -3.4000000 -0.0937500
v 0.0000000 -3.4000000 -0.0750000
v 0.0000000 -3.4000000 -0.0937500
v 0.0771770 -3.3375000 -0.0500000
v 0.0662900 -3.3375000 -0.0662900
v 0.0662900 -3.2687500 -0.0662900
v 0.0771770 -3.2687500 -0.0500000
v 0.0000000 -3.3375000 -0.0937500
v 0.0000000 -3.2687500 -0.0937500
v 0.0358781 -3.2687500 -0.0866156
v 0.0358781 -3.3375000 -0.0866156
v 0.0358781 -3.3375000 -0.0866156
v 0.0358781 -3.2687500 -0.0866156
v 0.0662906 -3.2687500 -0.0662906
v 0.0662906 -3.3375000 -0.0662906
v 0.0771770 -3.2687500 0.0500000
v 0.0662900 -3.2687500 0.0662900
v 0.0662900 -3.3375000 0.0662900
v 0.0771770 -3.3375000 0.0500000
v 0.0662925 -3.3375000 0.0662900
v 0.0662925 -3.2687500 0.0662900
v 0.0358785 -3.2687500 0.0866155
v 0.0358785 -3.3375000 0.0866155
v 0.0358785 -3.3375000 0.0866155
v 0.0358785 -3.2687500 0.0866155
v 0.0000018 -3.2687500 0.0937491
v 0.0000018 -3.3375000 0.0937491
v 0.0937500 -3.3375000 -0.0937500
v 0.0000000 -3.3375000 -0.0937500
v 0.0358781 -3.3375000 -0.0866156
v 0.0937500 -3.3375000 -0.0937500
v 0.0358781 -3.3375000 -0.0866156
v 0.0662906 -3.3375000 -0.0662906
v 0.1875000 -3.3375000 -0.0937500
v 0.0937500 -3.3375000 -0.0937500
v 0.0662900 -3.3375000 -0.0662900
v 0.0771775 -3.3375000 -0.0500000
v 0.0771775 -3.3375000 -0.0500000
v 0.1875000 -3.3375000 -0.0500000
v 0.1875000 -3.3375000 -0.0937500
v 0.0358781 -3.3375000 0.0866156
v 0.0000000 -3.3375000 0.0937500
v 0.0937500 -3.3375000 0.0937500
v 0.0662906 -3.3375000 0.0662906
v 0.0358781 -3.3375000 0.0866156
v 0.0937500 -3.3375000 0.0937500
v 0.0771775 -3.3375000 0.0500000
v 0.0662900 -3.3375000 0.0662900
v 0.0937500 -3.3375000 0.0937500
v 0.1875000 -3.3375000 0.0937500
v 0.1875000 -3.3375000 0.0937500
v 0.1875000 -3.3375000 0.0500000
v 0.0771775 -3.3375000 0.0500000
v 0.0500000 -3.4000000 0.0000000
v 0.0461950 -3.4000000 0.0191350
v 0.0346463 -3.4084375 0.0143512
v 0.0375000 -3.4084375 0.0000000
v 0.0461950 -3.4000000 0.0191350
v 0.0353550 -3.4000000 0.0353550
v 0.0265163 -3.4084375 0.0265163
v 0.0346463 -3.4084375 0.0143512
v 0.0353550 -3.4000000 0.0353550
v 0.0191350 -3.4000000 0.0461950
v 0.0143512 -3.4084375 0.0346463
v 0.0265163 -3.4084375 0.0265163
v 0.0191350 -3.4000000 0.0461950
v 0.0000000 -3.4000000 0.0500000
v 0.0000000 -3.4084375 0.0375000
v 0.0143512 -3.4084375 0.0346463
v 0.0000000 -3.4000000 0.0500000
v -0.0191350 -3.4000000 0.0461950
v -0.0143512 -3.4084375 0.0346463
v 0.0000000 -3.4084375 0.0375000
v -0.0191350 -3.4000000 0.0461950
v -0.0353550 -3.4000000 0.0353550
v -0.0265163 -3.4084375 0.0265163
v -0.0143512 -3.4084375 0.0346463
v -0.0353550 -3.4000000 0.0353550
v -0.0461950 -3.4000000 0.0191350
v -0.0346463 -3.4084375 0.0143512
v -0.0265163 -3.4084375 0.0265163
v -0.0461950 -3.4000000 0.0191350
v -0.0500000 -3.4000000 0.0000000
v -0.0375000 -3.4084375 0.0000000
v -0.0346463 -3.4084375 0.0143512
v -0.0500000 -3.4000000 0.0000000
v -0.0461950 -3.4000000 -0.0191350
v -0.0346463 -3.4084375 -0.0143512
v -0.0375000 -3.4084375 0.0000000
v -0.0461950 -3.4000000 -0.0191350
v -0.0353550 -3.4000000 -0.0353550
v -0.0265163 -3.4084375 -0.0265163
v -0.0346463 -3.4084375 -0.0143512
v -0.0353550 -3.4000000 -0.0353550
v -0.0191350 -3.4000000 -0.0461950
v -0.0143512 -3.4084375 -0.0346463
v -0.0265163 -3.4084375 -0.0265163
v -0.0191350 -3.4000000 -0.0461950
v 0.0000000 -3.4000000 -0.0500000
v 0.0000000 -3.4084375 -0.0375000
v -0.0143512 -3.4084375 -0.0346463
v 0.0000000 -3.4000000 -0.0500000
v 0.0191350 -3.4000000 -0.0461950
v 0.0143512 -3.4084375 -0.0346463
v 0.0000000 -3.4084375 -0.0375000
v 0.0191350 -3.4000000 -0.0461950
v 0.0353550 -3.4000000 -0.0353550
v 0.0265163 -3.4084375 -0.0265163
v 0.0143512 -3.4084375 -0.0346463
v 0.0353550 -3.4000000 -0.0353550
v 0.0461950 -3.4000000 -0.0191350
v 0.0346463 -3.4084375 -0.0143512
v 0.0265163 -3.4084375 -0.0265163
v 0.0461950 -3.4000000 -0.0191350
v 0.0500000 -3.4000000 0.0000000
v 0.0375000 -3.4084375 0.0000000
v 0.0346463 -3.4084375 -0.0143512
v 0.0346463 -3.4084375 0.0143512
v 0.0173231 -3.4168750 0.0071756
v 0.0187500 -3.4168750 0.0000000
v 0.0375000 -3.4084375 0.0000000
v 0.0265162 -3.4084375 0.0265162
v 0.0132581 -3.4168750 0.0132581
v 0.0173231 -3.4168750 0.0071756
v 0.0346463 -3.4084375 0.0143512
v 0.0143512 -3.4084375 0.0346463
v 0.0071756 -3.4168750 0.0173231
v 0.0132581 -3.4168750 0.0132581
v 0.0265162 -3.4084375 0.0265162
v 0.0000000 -3.4084375 0.0375000
v 0.0000000 -3.4168750 0.0187500
v 0.0071756 -3.4168750 0.0173231
v 0.0143512 -3.4084375 0.0346463
v -0.0143512 -3.4084375 0.0346463
v -0.0071756 -3.4168750 0.0173231
v 0.0000000 -3.4168750 0.0187500
v 0.0000000 -3.4084375 0.0375000
v -0.0265162 -3.4084375 0.0265162
v -0.0132581 -3.4168750 0.0132581
v -0.0071756 -3.4168750 0.0173231
v -0.0143512 -3.4084375 0.0346463
v -0.0346463 -3.4084375 0.0143512
v -0.0173231 -3.4168750 0.0071756
v -0.0132581 -3.4168750 0.0132581
v -0.0265162 -3.4084375 0.0265162
v -0.0375000 -3.4084375 0.0000000
v -0.0187500 -3.4168750 0.0000000
v -0.0173231 -3.4168750 0.0071756
v -0.0346463 -3.4084375 0.0143512
v -0.0346463 -3.4084375 -0.0143512
v -0.0173231 -3.4168750 -0.0071756
v -0.0187500 -3.4168750 0.0000000
v -0.0375000 -3.4084375 0.0000000
v -0.0265162 -3.4084375 -0.0265162
v -0.0132581 -3.4168750 -0.0132581
v -0.0173231 -3.4168750 -0.0071756
v -0.0346463 -3.4084375 -0.0143512
v -0.0143512 -3.4084375 -0.0346463
v -0.0071756 -3.4168750 -0.0173231
v -0.0132581 -3.4168750 -0.0132581
v -0.0265162 -3.4084375 -0.0265162
v 0.0000000 -3.4084375 -0.0375000
v 0.0000000 -3.4168750 -0.0187500
v -0.0071756 -3.4168750 -0.0173231
v -0.0143512 -3.4084375 -0.0346463
v 0.0143512 -3.4084375 -0.0346463
v 0.0071756 -3.4168750 -0.0173231
v 0.0000000 -3.4168750 -0.0187500
v 0.0000000 -3.4084375 -0.0375000
v 0.0265162 -3.4084375 -0.0265162
v 0.0132581 -3.4168750 -0.0132581
v 0.0071756 -3.4168750 -0.0173231
v 0.0143512 -3.4084375 -0.0346463
v 0.0346463 -3.4084375 -0.0143512
v 0.0173231 -3.4168750 -0.0071756
v 0.0132581 -3.4168750 -0.0132581
v 0.0265162 -3.4084375 -0.0265162
v 0.0375000 -3.4084375 0.0000000
v 0.0187500 -3.4168750 0.0000000
v 0.0173231 -3.4168750 -0.0071756
v 0.0346463 -3.4084375 -0.0143512
v 0.0187500 -3.4168750 0.0000000
v 0.0173231 -3.4168750 0.0071756
v 0.0000000 -3.4187500 0.0000000
v 0.0173231 -3.4168750 0.0071756
v 0.0132600 -3.4168750 0.0132600
v 0.0000000 -3.4187500 0.0000000
v 0.0132600 -3.4168750 0.0132600
v 0.0071756 -3.4168750 0.0173231
v 0.0000000 -3.4187500 0.0000000
v 0.0071756 -3.4168750 0.0173231
v 0.0000000 -3.4168750 0.0187500
v 0.0000000 -3.4187500 0.0000000
v 0.0000000 -3.4168750 0.0187500
v -0.0071756 -3.4168750 0.0173231
v 0.0000000 -3.4187500 0.0000000
v -0.0071756 -3.4168750 0.0173231
v -0.0132600 -3.4168750 0.0132600
v 0.0000000 -3.4187500 0.0000000
v -0.0132600 -3.4168750 0.0132600
v -0.0173231 -3.4168750 0.0071756
v 0.0000000 -3.4187500 0.0000000
v -0.0173231 -3.4168750 0.0071756
v -0.0187500 -3.4168750 0.0000000
v 0.0000000 -3.4187500 0.0000000
v -0.0187500 -3.4168750 0.0000000
v -0.0173231 -3.4168750 -0.0071756
v 0.0000000 -3.4187500 0.0000000
v -0.0173231 -3.4168750 -0.0071756
v -0.0132600 -3.4168750 -0.0132600
v 0.0000000 -3.4187500 0.0000000
v -0.0132600 -3.4168750 -0.0132600
v -0.0071756 -3.4168750 -0.0173231
v 0.0000000 -3.4187500 0.0000000
v -0.0071756 -3.4168750 -0.0173231
v 0.0000000 -3.4168750 -0.0187500
v 0.0000000 -3.4187500 0.0000000
v 0.0000000 -3.4168750 -0.0187500
v 0.0071756 -3.4168750 -0.0173231
v 0.0000000 -3.4187500 0.0000000
v 0.0071756 -3.4168750 -0.0173231
v 0.0132600 -3.4168750 -0.0132600
v 0.0000000 -3.4187500 0.0000000
v 0.0132600 -3.4168750 -0.0132600
v 0.0173231 -3.4168750 -0.0071756
v 0.0000000 -3.4187500 0.0000000
v 0.0173231 -3.4168750 -0.0071756
v 0.0187500 -3.4168750 0.0000000
v 0.0000000 -3.4187500 0.0000000
v -0.0358752 -3.2687500 0.0866168
v 0.0358785 -3.2687500 0.0866155
v 0.0662925 -3.2687500 0.0662900
v -0.0662900 -3.2687500 0.0662925
v 0.0000018 -3.2687500 0.0937491
v 0.0358785 -3.2687500 0.0866155
v -0.0358752 -3.2687500 0.0866168
v 0.0358752 -3.2687500 -0.0866168
v -0.0358785 -3.2687500 -0.0866155
v -0.0662925 -3.2687500 -0.0662900
v 0.0662900 -3.2687500 -0.0662925
v -0.0000018 -3.2687500 -0.0937491
v -0.0358785 -3.2687500 -0.0866155
v 0.0358752 -3.2687500 -0.0866168
v -0.0662900 -3.2687500 -0.0662900
v -0.0771775 -3.2687500 -0.0500000
v 0.0771775 -3.2687500 -0.0500000
v 0.0662900 -3.2687500 -0.0662900
v 0.0662900 -3.2687500 0.0662900
v 0.0771775 -3.2687500 0.0500000
v -0.0771775 -3.2687500 0.0500000
v -0.0662900 -3.2687500 0.0662900
v -0.0866125 -3.2687500 -0.0358775
v -0.0937516 -3.2687500 -0.0000006
v -0.0866127 -3.2687500 0.0358747
v -0.0771775 -3.2687500 0.0500000
v -0.0771775 -3.2687500 -0.0500000
v -0.0866150 -3.2687500 -0.0358775
v -0.0866150 -3.2687500 0.0358775
v -0.0771775 -3.2687500 -0.0500000
v -0.0771775 -3.2687500 0.0500000
v -0.0771775 -0.2312500 0.0500000
v -0.0771775 -0.2312500 -0.0500000
v -0.0771775 -3.2687500 0.0500000
v 0.0771775 -3.2687500 0.0500000
v 0.0771775 -0.2312500 0.0500000
v -0.0771775 -0.2312500 0.0500000
v -0.0771775 -0.2312500 -0.0500000
v 0.0771775 -0.2312500 -0.0500000
v 0.0771775 -3.2687500 -0.0500000
v -0.0771775 -3.2687500 -0.0500000
v 0.1875000 -0.1000000 -0.0500000
v 0.1875000 -0.1000000 0.0500000
v 1.6750000 -0.1000000 0.0500000
v 1.6750000 -0.1000000 -0.0500000
v 1.6750000 -1.4625000 -0.0500000
v 1.6750000 -0.1000000 -0.0500000
v 1.6750000 -0.1000000 0.0500000
v 1.6750000 -1.4625000 0.0500000
v 1.6750000 -3.4000000 -0.0500000
v 1.6750000 -3.4000000 0.0500000
v 0.1875000 -3.4000000 0.0500000
v 0.1875000 -3.4000000 -0.0500000
v 1.6750000 -2.0375000 0.0500000
v 1.6750000 -3.4000000 0.0500000
v 1.6750000 -3.4000000 -0.0500000
v 1.6750000 -2.0375000 -0.0500000
v 1.6750000 -1.5000000 0.0937500
v 1.6750000 -1.5000000 -0.0937500
v 1.6750000 -1.4625000 -0.0500000
v 1.6750000 -1.4625000 0.0500000
v 1.6750000 -2.0000000 0.0937500
v 1.6750000 -2.0000000 -0.0937500
v 1.6750000 -1.5000000 -0.0937500
v 1.6750000 -1.5000000 0.0937500
v 1.6750000 -2.0000000 0.0937500
v 1.6750000 -1.5000000 0.0937500
v 1.1750000 -1.5000000 0.0937500
v 1.1750000 -2.0000000 0.0937500
v 1.6750000 -1.5000000 -0.0937500
v 1.6750000 -2.0000000 -0.0937500
v 1.1750000 -2.0000000 -0.0937500
v 1.1750000 -1.5000000 -0.0937500
v 1.6750000 -2.0375000 0.0500000
v 1.6750000 -2.0375000 -0.0500000
v 1.6750000 -2.0000000 -0.0937500
v 1.6750000 -2.0000000 0.0937500
v 1.6750000 -2.0375000 0.0500000
v 1.6750000 -2.0000000 0.0937500
v 1.1750000 -2.0000000 0.0937500
v 1.1375000 -2.0375000 0.0500000
v 1.1750000 -1.5000000 0.0937500
v 1.1375000 -1.4625000 0.0500000
v 1.1375000 -2.0375000 0.0500000
v 1.1750000 -2.0000000 0.0937500
v 1.1375000 -1.4625000 0.0500000
v 1.1750000 -1.5000000 0.0937500
v 1.6750000 -1.5000000 0.0937500
v 1.6750000 -1.4625000 0.0500000
v 1.1375000 -2.0375000 -0.0500000
v 1.1750000 -2.0000000 -0.0937500
v 1.6750000 -2.0000000 -0.0937500
v 1.6750000 -2.0375000 -0.0500000
v 1.1750000 -2.0000000 -0.0937500
v 1.1375000 -2.0375000 -0.0500000
v 1.1375000 -1.4625000 -0.0500000
v 1.1750000 -1.5000000 -0.0937500
v 1.6750000 -1.4625000 -0.0500000
v 1.6750000 -1.5000000 -0.0937500
v 1.1750000 -1.5000000 -0.0937500
v 1.1375000 -1.4625000 -0.0500000
v 0.1875000 -3.3375000 0.0500000
v 0.1875000 -3.4000000 0.0500000
v 1.6750000 -3.4000000 0.0500000
v 1.6750000 -2.0375000 0.0500000
v 1.6750000 -2.0375000 0.0500000
v 1.1375000 -2.0375000 0.0500000
v 0.1875000 -3.3375000 0.0500000
v 0.0771775 -3.2687500 0.0500000
v 0.0771775 -3.3375000 0.0500000
v 0.1875000 -3.3375000 0.0500000
v 1.1375000 -2.0375000 0.0500000
v 1.1375000 -2.0375000 0.0500000
v 1.1375000 -1.4625000 0.0500000
v 0.0771775 -0.2312500 0.0500000
v 0.0771775 -3.2687500 0.0500000
v 1.1375000 -1.4625000 0.0500000
v 0.1875000 -0.1625000 0.0500000
v 0.0771775 -0.1625000 0.0500000
v 0.0771775 -0.2312500 0.0500000
v 0.1875000 -0.1625000 0.0500000
v 1.1375000 -1.4625000 0.0500000
v 1.6750000 -1.4625000 0.0500000
v 1.6750000 -1.4625000 0.0500000
v 1.6750000 -0.1000000 0.0500000
v 0.1875000 -0.1000000 0.0500000
v 0.1875000 -0.1625000 0.0500000
v 1.6750000 -2.0375000 -0.0500000
v 1.6750000 -3.4000000 -0.0500000
v 0.1875000 -3.4000000 -0.0500000
v 0.1875000 -3.3375000 -0.0500000
v 0.1875000 -3.3375000 -0.0500000
v 1.1375000 -2.0375000 -0.0500000
v 1.6750000 -2.0375000 -0.0500000
v 1.1375000 -2.0375000 -0.0500000
v 0.1875000 -3.3375000 -0.0500000
v 0.0771775 -3.3375000 -0.0500000
v 0.0771775 -3.2687500 -0.0500000
v 0.0771775 -3.2687500 -0.0500000
v 0.0771775 -0.2312500 -0.0500000
v 1.1375000 -1.4625000 -0.0500000
v 1.1375000 -2.0375000 -0.0500000
v 0.0771775 -0.2312500 -0.0500000
v 0.0771775 -0.1625000 -0.0500000
v 0.1875000 -0.1625000 -0.0500000
v 1.1375000 -1.4625000 -0.0500000
v 1.6750000 -1.4625000 -0.0500000
v 1.1375000 -1.4625000 -0.0500000
v 0.1875000 -0.1625000 -0.0500000
v 0.1875000 -0.1625000 -0.0500000
v 0.1875000 -0.1000000 -0.0500000
v 1.6750000 -0.1000000 -0.0500000
v 1.6750000 -1.4625000 -0.0500000
v 1.4250000 -1.8500000 -0.0937500
v 1.4632700 -1.8423900 -0.0937500
v 1.4632700 -1.8423900 -0.1937500
v 1.4250000 -1.8500000 -0.1937500
v 1.4632700 -1.8423900 -0.0937500
v 1.4957100 -1.8207100 -0.0937500
v 1.4957100 -1.8207100 -0.1937500
v 1.4632700 -1.8423900 -0.1937500
v 1.4957100 -1.8207100 -0.0937500
v 1.5173900 -1.7882700 -0.0937500
v 1.5173900 -1.7882700 -0.1937500
v 1.4957100 -1.8207100 -0.1937500
v 1.5173900 -1.7882700 -0.0937500
v 1.5250000 -1.7500000 -0.0937500
v 1.5250000 -1.7500000 -0.1937500
v 1.5173900 -1.7882700 -0.1937500
v 1.5250000 -1.7500000 -0.0937500
v 1.5173900 -1.7117300 -0.0937500
v 1.5173900 -1.7117300 -0.1937500
v 1.5250000 -1.7500000 -0.1937500
v 1.5173900 -1.7117300 -0.0937500
v 1.4957100 -1.6792900 -0.0937500
v 1.4957100 -1.6792900 -0.1937500
v 1.5173900 -1.7117300 -0.1937500
v 1.4957100 -1.6792900 -0.0937500
v 1.4632700 -1.6576100 -0.0937500
v 1.4632700 -1.6576100 -0.1937500
v 1.4957100 -1.6792900 -0.1937500
v 1.4632700 -1.6576100 -0.0937500
v 1.4250000 -1.6500000 -0.0937500
v 1.4250000 -1.6500000 -0.1937500
v 1.4632700 -1.6576100 -0.1937500
v 1.4250000 -1.6500000 -0.0937500
v 1.3867300 -1.6576100 -0.0937500
v 1.3867300 -1.6576100 -0.1937500
v 1.4250000 -1.6500000 -0.1937500
v 1.3867300 -1.6576100 -0.0937500
v 1.3542900 -1.6792900 -0.0937500
v 1.3542900 -1.6792900 -0.1937500
v 1.3867300 -1.6576100 -0.1937500
v 1.3542900 -1.6792900 -0.0937500
v 1.3326100 -1.7117300 -0.0937500
v 1.3326100 -1.7117300 -0.1937500
v 1.3542900 -1.6792900 -0.1937500
v 1.3326100 -1.7117300 -0.0937500
v 1.3250000 -1.7500000 -0.0937500
v 1.3250000 -1.7500000 -0.1937500
v 1.3326100 -1.7117300 -0.1937500
v 1.3250000 -1.7500000 -0.0937500
v 1.3326100 -1.7882700 -0.0937500
v 1.3326100 -1.7882700 -0.1937500
v 1.3250000 -1.7500000 -0.1937500
v 1.3326100 -1.7882700 -0.0937500
v 1.3542900 -1.8207100 -0.0937500
v 1.3542900 -1.8207100 -0.1937500
v 1.3326100 -1.7882700 -0.1937500
v 1.3542900 -1.8207100 -0.0937500
v 1.3867300 -1.8423900 -0.0937500
v 1.3867300 -1.8423900 -0.1937500
v 1.3542900 -1.8207100 -0.1937500
v 1.3867300 -1.8423900 -0.0937500
v 1.4250000 -1.8500000 -0.0937500
v 1.4250000 -1.8500000 -0.1937500
v 1.3867300 -1.8423900 -0.1937500
v 1.4250000 -1.9000000 -0.1937500
v 1.4824050 -1.8885850 -0.1937500
v 1.4824050 -1.8885850 -0.0937500
v 1.4250000 -1.9000000 -0.0937500
v 1.4824050 -1.8885850 -0.1937500
v 1.5310650 -1.8560650 -0.1937500
v 1.5310650 -1.8560650 -0.0937500
v 1.4824050 -1.8885850 -0.0937500
v 1.5310650 -1.8560650 -0.1937500
v 1.5635850 -1.8074050 -0.1937500
v 1.5635850 -1.8074050 -0.0937500
v 1.5310650 -1.8560650 -0.0937500
v 1.5635850 -1.8074050 -0.1937500
v 1.5750000 -1.7500000 -0.1937500
v 1.5750000 -1.7500000 -0.0937500
v 1.5635850 -1.8074050 -0.0937500
v 1.5750000 -1.7500000 -0.1937500
v 1.5635850 -1.6925950 -0.1937500
v 1.5635850 -1.6925950 -0.0937500
v 1.5750000 -1.7500000 -0.0937500
v 1.5635850 -1.6925950 -0.1937500
v 1.5310650 -1.6439350 -0.1937500
v 1.5310650 -1.6439350 -0.0937500
v 1.5635850 -1.6925950 -0.0937500
v 1.5310650 -1.6439350 -0.1937500
v 1.4824050 -1.6114150 -0.1937500
v 1.4824050 -1.6114150 -0.0937500
v 1.5310650 -1.6439350 -0.0937500
v 1.4824050 -1.6114150 -0.1937500
v 1.4250000 -1.6000000 -0.1937500
v 1.4250000 -1.6000000 -0.0937500
v 1.4824050 -1.6114150 -0.0937500
v 1.4250000 -1.6000000 -0.1937500
v 1.3675950 -1.6114150 -0.1937500
v 1.3675950 -1.6114150 -0.0937500
v 1.4250000 -1.6000000 -0.0937500
v 1.3675950 -1.6114150 -0.1937500
v 1.3189350 -1.6439350 -0.1937500
v 1.3189350 -1.6439350 -0.0937500
v 1.3675950 -1.6114150 -0.0937500
v 1.3189350 -1.6439350 -0.1937500
v 1.2864150 -1.6925950 -0.1937500
v 1.2864150 -1.6925950 -0.0937500
v 1.3189350 -1.6439350 -0.0937500
v 1.2864150 -1.6925950 -0.1937500
v 1.2750000 -1.7500000 -0.1937500
v 1.2750000 -1.7500000 -0.0937500
v 1.2864150 -1.6925950 -0.0937500
v 1.2750000 -1.7500000 -0.1937500
v 1.2864150 -1.8074050 -0.1937500
v 1.2864150 -1.8074050 -0.0937500
v 1.2750000 -1.7500000 -0.0937500
v 1.2864150 -1.8074050 -0.1937500
v 1.3189350 -1.8560650 -0.1937500
v 1.3189350 -1.8560650 -0.0937500
v 1.2864150 -1.8074050 -0.0937500
v 1.3189350 -1.8560650 -0.1937500
v 1.3675950 -1.8885850 -0.1937500
v 1.3675950 -1.8885850 -0.0937500
v 1.3189350 -1.8560650 -0.0937500
v 1.3675950 -1.8885850 -0.1937500
v 1.4250000 -1.9000000 -0.1937500
v 1.4250000 -1.9000000 -0.0937500
v 1.3675950 -1.8885850 -0.0937500
v 1.5750000 -1.7500000 -0.1937500
v 1.5250000 -1.7500000 -0.1937500
v 1.5173900 -1.7117300 -0.1937500
v 1.5635850 -1.6925950 -0.1937500
v 1.5635850 -1.6925950 -0.1937500
v 1.5173900 -1.7117300 -0.1937500
v 1.4957100 -1.6792900 -0.1937500
v 1.5310650 -1.6439350 -0.1937500
v 1.5310650 -1.6439350 -0.1937500
v 1.4957100 -1.6792900 -0.1937500
v 1.4632700 -1.6576100 -0.1937500
v 1.4824050 -1.6114150 -0.1937500
v 1.4824050 -1.6114150 -0.1937500
v 1.4632700 -1.6576100 -0.1937500
v 1.4250000 -1.6500000 -0.1937500
v 1.4250000 -1.6000000 -0.1937500
v 1.4250000 -1.6000000 -0.1937500
v 1.4250000 -1.6500000 -0.1937500
v 1.3867300 -1.6576100 -0.1937500
v 1.3675950 -1.6114150 -0.1937500
v 1.3675950 -1.6114150 -0.1937500
v 1.3867300 -1.6576100 -0.1937500
v 1.3542900 -1.6792900 -0.1937500
v 1.3189350 -1.6439350 -0.1937500
v 1.3189350 -1.6439350 -0.1937500
v 1.3542900 -1.6792900 -0.1937500
v 1.3326100 -1.7117300 -0.1937500
v 1.2864150 -1.6925950 -0.1937500
v 1.2864150 -1.6925950 -0.1937500
v 1.3326100 -1.7117300 -0.1937500
v 1.3250000 -1.7500000 -0.1937500
v 1.2750000 -1.7500000 -0.1937500
v 1.2750000 -1.7500000 -0.1937500
v 1.3250000 -1.7500000 -0.1937500
v 1.3326100 -1.7882700 -0.1937500
v 1.2864150 -1.8074050 -0.1937500
v 1.2864150 -1.8074050 -0.1937500
v 1.3326100 -1.7882700 -0.1937500
v 1.3542900 -1.8207100 -0.1937500
v 1.3189350 -1.8560650 -0.1937500
v 1.3189350 -1.8560650 -0.1937500
v 1.3542900 -1.8207100 -0.1937500
v 1.3867300 -1.8423900 -0.1937500
v 1.3675950 -1.8885850 -0.1937500
v 1.3675950 -1.8885850 -0.1937500
v 1.3867300 -1.8423900 -0.1937500
v 1.4250000 -1.8500000 -0.1937500
v 1.4250000 -1.9000000 -0.1937500
v 1.4250000 -1.9000000 -0.1937500
v 1.4250000 -1.8500000 -0.1937500
v 1.4632700 -1.8423900 -0.1937500
v 1.4824050 -1.8885850 -0.1937500
v 1.4824050 -1.8885850 -0.1937500
v 1.4632700 -1.8423900 -0.1937500
v 1.4957100 -1.8207100 -0.1937500
v 1.5310650 -1.8560650 -0.1937500
v 1.5310650 -1.8560650 -0.1937500
v 1.4957100 -1.8207100 -0.1937500
v 1.5173900 -1.7882700 -0.1937500
v 1.5635850 -1.8074050 -0.1937500
v 1.5635850 -1.8074050 -0.1937500
v 1.5173900 -1.7882700 -0.1937500
v 1.5250000 -1.7500000 -0.1937500
v 1.5750000 -1.7500000 -0.1937500
v 1.4250000 -1.8500000 0.0937500
v 1.3867300 -1.8423900 0.0937500
v 1.3867300 -1.8423900 0.1937500
v 1.4250000 -1.8500000 0.1937500
v 1.3867300 -1.8423900 0.0937500
v 1.3542900 -1.8207100 0.0937500
v 1.3542900 -1.8207100 0.1937500
v 1.3867300 -1.8423900 0.1937500
v 1.3542900 -1.8207100 0.0937500
v 1.3326100 -1.7882700 0.0937500
v 1.3326100 -1.7882700 0.1937500
v 1.3542900 -1.8207100 0.1937500
v 1.3326100 -1.7882700 0.0937500
v 1.3250000 -1.7500000 0.0937500
v 1.3250000 -1.7500000 0.1937500
v 1.3326100 -1.7882700 0.1937500
v 1.3250000 -1.7500000 0.0937500
v 1.3326100 -1.7117300 0.0937500
v 1.3326100 -1.7117300 0.1937500
v 1.3250000 -1.7500000 0.1937500
v 1.3326100 -1.7117300 0.0937500
v 1.3542900 -1.6792900 0.0937500
v 1.3542900 -1.6792900 0.1937500
v 1.3326100 -1.7117300 0.1937500
v 1.3542900 -1.6792900 0.0937500
v 1.3867300 -1.6576100 0.0937500
v 1.3867300 -1.6576100 0.1937500
v 1.3542900 -1.6792900 0.1937500
v 1.3867300 -1.6576100 0.0937500
v 1.4250000 -1.6500000 0.0937500
v 1.4250000 -1.6500000 0.1937500
v 1.3867300 -1.6576100 0.1937500
v 1.4250000 -1.6500000 0.0937500
v 1.4632700 -1.6576100 0.0937500
v 1.4632700 -1.6576100 0.1937500
v 1.4250000 -1.6500000 0.1937500
v 1.4632700 -1.6576100 0.0937500
v 1.4957100 -1.6792900 0.0937500
v 1.4957100 -1.6792900 0.1937500
v 1.4632700 -1.6576100 0.1937500
v 1.4957100 -1.6792900 0.0937500
v 1.5173900 -1.7117300 0.0937500
v 1.5173900 -1.7117300 0.1937500
v 1.4957100 -1.6792900 0.1937500
v 1.5173900 -1.7117300 0.0937500
v 1.5250000 -1.7500000 0.0937500
v 1.5250000 -1.7500000 0.1937500
v 1.5173900 -1.7117300 0.1937500
v 1.5250000 -1.7500000 0.0937500
v 1.5173900 -1.7882700 0.0937500
v 1.5173900 -1.7882700 0.1937500
v 1.5250000 -1.7500000 0.1937500
v 1.5173900 -1.7882700 0.0937500
v 1.4957100 -1.8207100 0.0937500
v 1.4957100 -1.8207100 0.1937500
v 1.5173900 -1.7882700 0.1937500
v 1.4957100 -1.8207100 0.0937500
v 1.4632700 -1.8423900 0.0937500
v 1.4632700 -1.8423900 0.1937500
v 1.4957100 -1.8207100 0.1937500
v 1.4632700 -1.8423900 0.0937500
v 1.4250000 -1.8500000 0.0937500
v 1.4250000 -1.8500000 0.1937500
v 1.4632700 -1.8423900 0.1937500
v 1.4250000 -1.9000000 0.1937500
v 1.3675950 -1.8885850 0.1937500
v 1.3675950 -1.8885850 0.0937500
v 1.4250000 -1.9000000 0.0937500
v 1.3675950 -1.8885850 0.1937500
v 1.3189350 -1.8560650 0.1937500
v 1.3189350 -1.8560650 0.0937500
v 1.3675950 -1.8885850 0.0937500
v 1.3189350 -1.8560650 0.1937500
v 1.2864150 -1.8074050 0.1937500
v 1.2864150 -1.8074050 0.0937500
v 1.3189350 -1.8560650 0.0937500
v 1.2864150 -1.8074050 0.1937500
v 1.2750000 -1.7500000 0.1937500
v 1.2750000 -1.7500000 0.0937500
v 1.2864150 -1.8074050 0.0937500
v 1.2750000 -1.7500000 0.1937500
v 1.2864150 -1.6925950 0.1937500
v 1.2864150 -1.6925950 0.0937500
v 1.2750000 -1.7500000 0.0937500
v 1.2864150 -1.6925950 0.1937500
v 1.3189350 -1.6439350 0.1937500
v 1.3189350 -1.6439350 0.0937500
v 1.2864150 -1.6925950 0.0937500
v 1.3189350 -1.6439350 0.1937500
v 1.3675950 -1.6114150 0.1937500
v 1.3675950 -1.6114150 0.0937500
v 1.3189350 -1.6439350 0.0937500
v 1.3675950 -1.6114150 0.1937500
v 1.4250000 -1.6000000 0.1937500
v 1.4250000 -1.6000000 0.0937500
v 1.3675950 -1.6114150 0.0937500
v 1.4250000 -1.6000000 0.1937500
v 1.4824050 -1.6114150 0.1937500
v 1.4824050 -1.6114150 0.0937500
v 1.4250000 -1.6000000 0.0937500
v 1.4824050 -1.6114150 0.1937500
v 1.5310650 -1.6439350 0.1937500
v 1.5310650 -1.6439350 0.0937500
v 1.4824050 -1.6114150 0.0937500
v 1.5310650 -1.6439350 0.1937500
v 1.5635850 -1.6925950 0.1937500
v 1.5635850 -1.6925950 0.0937500
v 1.5310650 -1.6439350 0.0937500
v 1.5635850 -1.6925950 0.1937500
v 1.5750000 -1.7500000 0.1937500
v 1.5750000 -1.7500000 0.0937500
v 1.5635850 -1.6925950 0.0937500
v 1.5750000 -1.7500000 0.1937500
v 1.5635850 -1.8074050 0.1937500
v 1.5635850 -1.8074050 0.0937500
v 1.5750000 -1.7500000 0.0937500
v 1.5635850 -1.8074050 0.1937500
v 1.5310650 -1.8560650 0.1937500
v 1.5310650 -1.8560650 0.0937500
v 1.5635850 -1.8074050 0.0937500
v 1.5310650 -1.8560650 0.1937500
v 1.4824050 -1.8885850 0.1937500
v 1.4824050 -1.8885850 0.0937500
v 1.5310650 -1.8560650 0.0937500
v 1.4824050 -1.8885850 0.1937500
v 1.4250000 -1.9000000 0.1937500
v 1.4250000 -1.9000000 0.0937500
v 1.4824050 -1.8885850 0.0937500
v 1.2750000 -1.7500000 0.1937500
v 1.3250000 -1.7500000 0.1937500
v 1.3326100 -1.7117300 0.1937500
v 1.2864150 -1.6925950 0.1937500
v 1.2864150 -1.6925950 0.1937500
v 1.3326100 -1.7117300 0.1937500
v 1.3542900 -1.6792900 0.1937500
v 1.3189350 -1.6439350 0.1937500
v 1.3189350 -1.6439350 0.1937500
v 1.3542900 -1.6792900 0.1937500
v 1.3867300 -1.6576100 0.1937500
v 1.3675950 -1.6114150 0.1937500
v 1.3675950 -1.6114150 0.1937500
v 1.3867300 -1.6576100 0.1937500
v 1.4250000 -1.6500000 0.1937500
v 1.4250000 -1.6000000 0.1937500
v 1.4250000 -1.6000000 0.1937500
v 1.4250000 -1.6500000 0.1937500
v 1.4632700 -1.6576100 0.1937500
v 1.4824050 -1.6114150 0.1937500
v 1.4824050 -1.6114150 0.1937500
v 1.4632700 -1.6576100 0.1937500
v 1.4957100 -1.6792900 0.1937500
v 1.5310650 -1.6439350 0.1937500
v 1.5310650 -1.6439350 0.1937500
v 1.4957100 -1.6792900 0.1937500
v 1.5173900 -1.7117300 0.1937500
v 1.5635850 -1.6925950 0.1937500
v 1.5635850 -1.6925950 0.1937500
v 1.5173900 -1.7117300 0.1937500
v 1.5250000 -1.7500000 0.1937500
v 1.5750000 -1.7500000 0.1937500
v 1.5750000 -1.7500000 0.1937500
v 1.5250000 -1.7500000 0.1937500
v 1.5173900 -1.7882700 0.1937500
v 1.5635850 -1.8074050 0.1937500
v 1.5635850 -1.8074050 0.1937500
v 1.5173900 -1.7882700 0.1937500
v 1.4957100 -1.8207100 0.1937500
v 1.5310650 -1.8560650 0.1937500
v 1.5310650 -1.8560650 0.1937500
v 1.4957100 -1.8207100 0.1937500
v 1.4632700 -1.8423900 0.1937500
v 1.4824050 -1.8885850 0.1937500
v 1.4824050 -1.8885850 0.1937500
v 1.4632700 -1.8423900 0.1937500
v 1.4250000 -1.8500000 0.1937500
v 1.4250000 -1.9000000 0.1937500
v 1.4250000 -1.9000000 0.1937500
v 1.4250000 -1.8500000 0.1937500
v 1.3867300 -1.8423900 0.1937500
v 1.3675950 -1.8885850 0.1937500
v 1.3675950 -1.8885850 0.1937500
v 1.3867300 -1.8423900 0.1937500
v 1.3542900 -1.8207100 0.1937500
v 1.3189350 -1.8560650 0.1937500
v 1.3189350 -1.8560650 0.1937500
v 1.3542900 -1.8207100 0.1937500
v 1.3326100 -1.7882700 0.1937500
v 1.2864150 -1.8074050 0.1937500
v 1.2864150 -1.8074050 0.1937500
v 1.3326100 -1.7882700 0.1937500
v 1.3250000 -1.7500000 0.1937500
v 1.2750000 -1.7500000 0.1937500
s off
f 1 2 3
f 1 3 4
f 5 6 7
f 5 7 8
f 9 10 11
f 9 11 12
f 13 14 15
f 13 15 16
f 17 18 19
f 17 19 20
f 21 22 23
f 21 23 24
f 25 26 27
f 25 27 28
f 29 30 31
f 29 31 32
f 33 34 35
f 33 35 36
f 37 38 39
f 37 39 40
f 41 42 43
f 41 43 44
f 45 46 47
f 45 47 48
f 49 50 51
f 49 51 52
f 53 54 55
f 53 55 56
f 57 58 59
f 57 59 60
f 61 62 63
f 61 63 64
f 65 66 67
f 65 67 68
f 69 70 71
f 69 71 72
f 73 74 75
f 73 75 76
f 77 78 79
f 77 79 80
f 81 82 83
f 81 83 84
f 85 86 87
f 85 87 88
f 89 90 91
f 89 91 92
f 93 94 95
f 93 95 96
f 97 98 99
f 97 99 100
f 101 102 103
f 101 103 104
f 105 106 107
f 105 107 108
f 109 110 111
f 109 111 112
f 113 114 115
f 116 117 118
f 119 120 121
f 122 123 124
f 125 126 127
f 128 129 130
f 131 132 133
f 134 135 136
f 137 138 139
f 140 141 142
f 140 142 143
f 144 145 146
f 144 146 147
f 148 149 150
f 151 152 153
f 151 153 154
f 155 156 157
f 155 157 158
f 159 160 161
f 162 163 164
f 162 164 165
f 166 167 168
f 166 168 169
f 170 171 172
f 170 172 173
f 174 175 176
f 174 176 177
f 178 179 180
f 178 180 181
f 182 183 184
f 182 184 185
f 186 187 188
f 189 190 191
f 192 193 194
f 192 194 195
f 196 197 198
f 199 200 201
f 202 203 204
f 205 206 207
f 205 207 208
f 209 210 211
f 212 213 214
f 212 214 215
f 216 217 218
f 216 218 219
f 220 221 222
f 220 222 223
f 224 225 226
f 224 226 227
f 228 229 230
f 228 230 231
f 232 233 234
f 232 234 235
f 236 237 238
f 236 238 239
f 240 241 242
f 240 242 243
f 244 245 246
f 244 246 247
f 248 249 250
f 248 250 251
f 252 253 254
f 252 254 255
f 256 257 258
f 256 258 259
f 260 261 262
f 260 262 263
f 264 265 266
f 264 266 267
f 268 269 270
f 268 270 271
f 272 273 274
f 272 274 275
f 276 277 278
f 276 278 279
f 280 281 282
f 280 282 283
f 284 285 286
f 284 286 287
f 288 289 290
f 288 290 291
f 292 293 294
f 292 294 295
f 296 297 298
f 296 298 299
f 300 301 302
f 300 302 303
f 304 305 306
f 304 306 307
f 308 309 310
f 308 310 311
f 312 313 314
f 312 314 315
f 316 317 318
f 316 318 319
f 320 321 322
f 320 322 323
f 324 325 326
f 324 326 327
f 328 329 330
f 328 330 331
f 332 333 334
f 332 334 335
f 336 337 338
f 336 338 339
f 340 341 342
f 343 344 345
f 346 347 348
f 349 350 351
f 352 353 354
f 355 356 357
f 358 359 360
f 361 362 363
f 364 365 366
f 367 368 369
f 370 371 372
f 373 374 375
f 376 377 378
f 379 380 381
f 382 383 384
f 385 386 387
f 388 389 390
f 388 390 391
f 392 393 394
f 395 396 397
f 395 397 398
f 399 400 401
f 402 403 404
f 402 404 405
f 406 407 408
f 406 408 409
f 410 411 412
f 413 414 415
f 413 415 416
f 417 418 419
f 417 419 420
f 421 422 423
f 421 423 424
f 425 426 427
f 425 427 428
f 429 430 431
f 429 431 432
f 433 434 435
f 433 435 436
f 437 438 439
f 437 439 440
f 441 442 443
f 441 443 444
f 445 446 447
f 445 447 448
f 449 450 451
f 449 451 452
f 453 454 455
f 453 455 456
f 457 458 459
f 457 459 460
f 461 462 463
f 461 463 464
f 465 466 467
f 465 467 468
f 469 470 471
f 469 471 472
f 473 474 475
f 473 475 476
f 477 478 479
f 477 479 480
f 481 482 483
f 481 483 484
f 485 486 487
f 485 487 488
f 489 490 491
f 489 491 492
f 493 494 495
f 493 495 496
f 497 498 499
f 497 499 500
f 501 502 503
f 501 503 504
f 505 506 507
f 505 507 508
f 509 510 511
f 509 511 512
f 513 514 515
f 513 515 516
f 517 518 519
f 517 519 520
f 521 522 523
f 521 523 524
f 525 526 527
f 525 527 528
f 529 530 531
f 532 533 534
f 535 536 537
f 538 539 540
f 541 542 543
f 544 545 546
f 547 548 549
f 550 551 552
f 553 554 555
f 556 557 558
f 556 558 559
f 560 561 562
f 560 562 563
f 564 565 566
f 567 568 569
f 567 569 570
f 571 572 573
f 571 573 574
f 575 576 577
f 578 579 580
f 578 580 581
f 582 583 584
f 582 584 585
f 586 587 588
f 586 588 589
f 590 591 592
f 590 592 593
f 594 595 596
f 594 596 597
f 598 599 600
f 598 600 601
f 602 603 604
f 605 606 607
f 608 609 610
f 608 610 611
f 612 613 614
f 615 616 617
f 618 619 620
f 621 622 623
f 621 623 624
f 625 626 627
f 628 629 630
f 628 630 631
f 632 633 634
f 632 634 635
f 636 637 638
f 636 638 639
f 640 641 642
f 640 642 643
f 644 645 646
f 644 646 647
f 648 649 650
f 648 650 651
f 652 653 654
f 652 654 655
f 656 657 658
f 656 658 659
f 660 661 662
f 660 662 663
f 664 665 666
f 664 666 667
f 668 669 670
f 668 670 671
f 672 673 674
f 672 674 675
f 676 677 678
f 676 678 679
f 680 681 682
f 680 682 683
f 684 685 686
f 684 686 687
f 688 689 690
f 688 690 691
f 692 693 694
f 692 694 695
f 696 697 698
f 696 698 699
f 700 701 702
f 700 702 703
f 704 705 706
f 704 706 707
f 708 709 710
f 708 710 711
f 712 713 714
f 712 714 715
f 716 717 718
f 716 718 719
f 720 721 722
f 720 722 723
f 724 725 726
f 724 726 727
f 728 729 730
f 728 730 731
f 732 733 734
f 732 734 735
f 736 737 738
f 736 738 739
f 740 741 742
f 740 742 743
f 744 745 746
f 744 746 747
f 748 749 750
f 748 750 751
f 752 753 754
f 752 754 755
f 756 757 758
f 759 760 761
f 762 763 764
f 765 766 767
f 768 769 770
f 771 772 773
f 774 775 776
f 777 778 779
f 780 781 782
f 783 784 785
f 786 787 788
f 789 790 791
f 792 793 794
f 795 796 797
f 798 799 800
f 801 802 803
f 804 805 806
f 804 806 807
f 808 809 810
f 811 812 813
f 811 813 814
f 815 816 817
f 818 819 820
f 818 820 821
f 822 823 824
f 822 824 825
f 826 827 828
f 829 830 831
f 829 831 832
f 833 834 835
f 833 835 836
f 837 838 839
f 837 839 840
f 841 842 843
f 841 843 844
f 845 846 847
f 845 847 848
f 849 850 851
f 849 851 852
f 853 854 855
f 853 855 856
f 857 858 859
f 857 859 860
f 861 862 863
f 861 863 864
f 865 866 867
f 865 867 868
f 869 870 871
f 869 871 872
f 873 874 875
f 873 875 876
f 877 878 879
f 877 879 880
f 881 882 883
f 881 883 884
f 885 886 887
f 885 887 888
f 889 890 891
f 889 891 892
f 893 894 895
f 893 895 896
f 897 898 899
f 897 899 900
f 901 902 903
f 901 903 904
f 905 906 907
f 905 907 908
f 909 910 911
f 912 913 914
f 912 914 915
f 916 917 918
f 916 918 919
f 920 921 922
f 920 922 923
f 924 925 926
f 927 928 929
f 927 929 930
f 931 932 933
f 931 933 934
f 935 936 937
f 938 939 940
f 938 940 941
f 942 943 944
f 942 944 945
f 946 947 948
f 946 948 949
f 950 951 952
f 953 954 955
f 953 955 956
f 957 958 959
f 957 959 960
f 961 962 963
f 961 963 964
f 965 966 967
f 965 967 968
f 969 970 971
f 969 971 972
f 973 974 975
f 973 975 976
f 977 978 979
f 977 979 980
f 981 982 983
f 981 983 984
f 985 986 987
f 985 987 988
f 989 990 991
f 989 991 992
f 993 994 995
f 993 995 996
f 997 998 999
f 997 999 1000
f 1001 1002 1003
f 1001 1003 1004
f 1005 1006 1007
f 1005 1007 1008
f 1009 1010 1011
f 1009 1011 1012
f 1013 1014 1015
f 1013 1015 1016
f 1017 1018 1019
f 1017 1019 1020
f 1021 1022 1023
f 1021 1023 1024
f 1025 1026 1027
f 1025 1027 1028
f 1029 1030 1031
f 1029 1031 1032
f 1033 1034 1035
f 1033 1035 1036
f 1037 1038 1039
f 1037 1039 1040
f 1041 1042 1043
f 1041 1043 1044
f 1045 1046 1047
f 1045 1047 1048
f 1049 1050 1051
f 1049 1051 1052
f 1053 1054 1055
f 1053 1055 1056
f 1057 1058 1059
f 1057 1059 1060
f 1061 1062 1063
f 1061 1063 1064
f 1065 1066 1067
f 1065 1067 1068
f 1069 1070 1071
f 1069 1071 1072
f 1073 1074 1075
f 1073 1075 1076
f 1077 1078 1079
f 1077 1079 1080
f 1081 1082 1083
f 1081 1083 1084
f 1085 1086 1087
f 1085 1087 1088
f 1089 1090 1091
f 1089 1091 1092
f 1093 1094 1095
f 1093 1095 1096
f 1097 1098 1099
f 1097 1099 1100
f 1101 1102 1103
f 1101 1103 1104
f 1105 1106 1107
f 1105 1107 1108
f 1109 1110 1111
f 1109 1111 1112
f 1113 1114 1115
f 1113 1115 1116
f 1117 1118 1119
f 1117 1119 1120
f 1121 1122 1123
f 1121 1123 1124
f 1125 1126 1127
f 1125 1127 1128
f 1129 1130 1131
f 1129 1131 1132
f 1133 1134 1135
f 1133 1135 1136
f 1137 1138 1139
f 1137 1139 1140
f 1141 1142 1143
f 1141 1143 1144
f 1145 1146 1147
f 1145 1147 1148
f 1149 1150 1151
f 1149 1151 1152
f 1153 1154 1155
f 1153 1155 1156
f 1157 1158 1159
f 1157 1159 1160
f 1161 1162 1163
f 1161 1163 1164
f 1165 1166 1167
f 1165 1167 1168
f 1169 1170 1171
f 1169 1171 1172
f 1173 1174 1175
f 1173 1175 1176
f 1177 1178 1179
f 1177 1179 1180
f 1181 1182 1183
f 1181 1183 1184
f 1185 1186 1187
f 1185 1187 1188
f 1189 1190 1191
f 1189 1191 1192
f 1193 1194 1195
f 1193 1195 1196
f 1197 1198 1199
f 1197 1199 1200
f 1201 1202 1203
f 1201 1203 1204
f 1205 1206 1207
f 1205 1207 1208
f 1209 1210 1211
f 1209 1211 1212
f 1213 1214 1215
f 1213 1215 1216
f 1217 1218 1219
f 1217 1219 1220
f 1221 1222 1223
f 1221 1223 1224
f 1225 1226 1227
f 1225 1227 1228
f 1229 1230 1231
f 1229 1231 1232
f 1233 1234 1235
f 1233 1235 1236
f 1237 1238 1239
f 1237 1239 1240
f 1241 1242 1243
f 1241 1243 1244
f 1245 1246 1247
f 1245 1247 1248
f 1249 1250 1251
f 1249 1251 1252
f 1253 1254 1255
f 1253 1255 1256
f 1257 1258 1259
f 1257 1259 1260
f 1261 1262 1263
f 1261 1263 1264
f 1265 1266 1267
f 1265 1267 1268
f 1269 1270 1271
f 1269 1271 1272
f 1273 1274 1275
f 1273 1275 1276
f 1277 1278 1279
f 1277 1279 1280
f 1281 1282 1283
f 1281 1283 1284
f 1285 1286 1287
f 1285 1287 1288
f 1289 1290 1291
f 1289 1291 1292
f 1293 1294 1295
f 1293 1295 1296
f 1297 1298 1299
f 1297 1299 1300
f 1301 1302 1303
f 1301 1303 1304
f 1305 1306 1307
f 1305 1307 1308
f 1309 1310 1311
f 1309 1311 1312
f 1313 1314 1315
f 1313 1315 1316
f 1317 1318 1319
f 1317 1319 1320
f 1321 1322 1323
f 1321 1323 1324
f 1325 1326 1327
f 1325 1327 1328
f 1329 1330 1331
f 1329 1331 1332
f 1333 1334 1335
f 1333 1335 1336
f 1337 1338 1339
f 1337 1339 1340
