# Baked from official LDraw part 60623.dat
o ldraw_60623
v 1.4000000 -2.0250000 -0.0500000
v 1.4000000 -3.0750000 -0.0500000
v 0.2000000 -3.0750000 -0.0500000
v 0.2000000 -2.0250000 -0.0500000
v 0.1000000 -1.9250000 -0.0250000
v 1.5000000 -1.9250000 -0.0250000
v 1.4000000 -2.0250000 -0.0500000
v 0.2000000 -2.0250000 -0.0500000
v 0.2000000 -2.0250000 -0.0500000
v 0.2000000 -3.0750000 -0.0500000
v 0.1000000 -3.1750000 -0.0250000
v 0.1000000 -1.9250000 -0.0250000
v 0.1000000 -1.9250000 -0.0250000
v 0.1000000 -1.9250000 -0.0500000
v 1.5000000 -1.9250000 -0.0500000
v 1.5000000 -1.9250000 -0.0250000
v 0.1000000 -3.1750000 -0.0250000
v 0.1000000 -3.1750000 -0.0500000
v 0.1000000 -1.9250000 -0.0500000
v 0.1000000 -1.9250000 -0.0250000
v 1.5000000 -3.1750000 -0.0250000
v 1.5000000 -3.1750000 -0.0500000
v 0.1000000 -3.1750000 -0.0500000
v 0.1000000 -3.1750000 -0.0250000
v 1.5000000 -1.9250000 -0.0250000
v 1.5000000 -1.9250000 -0.0500000
v 1.5000000 -3.1750000 -0.0500000
v 1.5000000 -3.1750000 -0.0250000
v 0.1000000 -0.9750000 0.0500000
v 0.1000000 -0.9750000 -0.0500000
v 0.7250000 -0.9750000 -0.0500000
v 0.7250000 -0.9750000 0.0500000
v 0.1000000 -1.4750000 0.0500000
v 0.1000000 -1.4750000 -0.0500000
v 0.1000000 -0.9750000 -0.0500000
v 0.1000000 -0.9750000 0.0500000
v 0.7250000 -1.4750000 0.0500000
v 0.7250000 -1.4750000 -0.0500000
v 0.1000000 -1.4750000 -0.0500000
v 0.1000000 -1.4750000 0.0500000
v 0.7250000 -0.9750000 0.0500000
v 0.7250000 -0.9750000 -0.0500000
v 0.7250000 -1.4750000 -0.0500000
v 0.7250000 -1.4750000 0.0500000
v 0.8750000 -0.9750000 0.0500000
v 0.8750000 -0.9750000 -0.0500000
v 1.5000000 -0.9750000 -0.0500000
v 1.5000000 -0.9750000 0.0500000
v 0.8750000 -1.4750000 0.0500000
v 0.8750000 -1.4750000 -0.0500000
v 0.8750000 -0.9750000 -0.0500000
v 0.8750000 -0.9750000 0.0500000
v 1.5000000 -1.4750000 0.0500000
v 1.5000000 -1.4750000 -0.0500000
v 0.8750000 -1.4750000 -0.0500000
v 0.8750000 -1.4750000 0.0500000
v 1.5000000 -0.9750000 0.0500000
v 1.5000000 -0.9750000 -0.0500000
v 1.5000000 -1.4750000 -0.0500000
v 1.5000000 -1.4750000 0.0500000
v 0.1000000 -0.3250000 0.0500000
v 0.1000000 -0.3250000 -0.0500000
v 0.7250000 -0.3250000 -0.0500000
v 0.7250000 -0.3250000 0.0500000
v 0.1000000 -0.8250000 0.0500000
v 0.1000000 -0.8250000 -0.0500000
v 0.1000000 -0.3250000 -0.0500000
v 0.1000000 -0.3250000 0.0500000
v 0.7250000 -0.8250000 0.0500000
v 0.7250000 -0.8250000 -0.0500000
v 0.1000000 -0.8250000 -0.0500000
v 0.1000000 -0.8250000 0.0500000
v 0.7250000 -0.3250000 0.0500000
v 0.7250000 -0.3250000 -0.0500000
v 0.7250000 -0.8250000 -0.0500000
v 0.7250000 -0.8250000 0.0500000
v 0.8750000 -0.3250000 0.0500000
v 0.8750000 -0.3250000 -0.0500000
v 1.5000000 -0.3250000 -0.0500000
v 1.5000000 -0.3250000 0.0500000
v 0.8750000 -0.8250000 0.0500000
v 0.8750000 -0.8250000 -0.0500000
v 0.8750000 -0.3250000 -0.0500000
v 0.8750000 -0.3250000 0.0500000
v 1.5000000 -0.8250000 0.0500000
v 1.5000000 -0.8250000 -0.0500000
v 0.8750000 -0.8250000 -0.0500000
v 0.8750000 -0.8250000 0.0500000
v 1.5000000 -0.3250000 0.0500000
v 1.5000000 -0.3250000 -0.0500000
v 1.5000000 -0.8250000 -0.0500000
v 1.5000000 -0.8250000 0.0500000
v 0.2000000 -3.0750000 -0.0500000
v 1.4000000 -3.0750000 -0.0500000
v 1.5000000 -3.1750000 -0.0250000
v 0.1000000 -3.1750000 -0.0250000
v 0.1000000 -3.1750000 -0.0500000
v 1.5000000 -3.1750000 -0.0500000
v 1.6750000 -3.3750000 -0.0500000
v -0.0750000 -3.3750000 -0.0500000
v -0.0750000 -0.1250000 -0.0500000
v 0.7250000 -0.3250000 -0.0500000
v 0.1000000 -0.3250000 -0.0500000
v 0.1000000 -0.3250000 -0.0500000
v 0.1000000 -0.8250000 -0.0500000
v -0.0750000 -0.1250000 -0.0500000
v 1.6750000 -0.1250000 -0.0500000
v 1.5000000 -0.8250000 -0.0500000
v 1.5000000 -0.3250000 -0.0500000
v 1.6750000 -1.4750000 -0.0500000
v 1.5000000 -1.4750000 -0.0500000
v 1.5000000 -0.9750000 -0.0500000
v 1.5000000 -0.9750000 0.0500000
v 1.5000000 -1.4750000 0.0500000
v 1.6750000 -1.4750000 0.0500000
v 1.5000000 -3.1750000 -0.0500000
v 1.5000000 -1.9250000 -0.0500000
v 1.6750000 -1.9250000 -0.0500000
v 1.6750000 -3.3750000 -0.0500000
v -0.0750000 -3.3750000 -0.0500000
v 0.1000000 -1.4750000 -0.0500000
v 0.1000000 -1.9250000 -0.0500000
v 0.1000000 -1.9250000 -0.0500000
v 0.1000000 -1.4750000 -0.0500000
v 0.7250000 -1.4750000 -0.0500000
v 1.2250000 -1.9250000 -0.0500000
v 0.8750000 -1.4750000 -0.0500000
v 1.2250000 -1.4750000 -0.0500000
v 0.1000000 -0.9750000 -0.0500000
v 0.1000000 -1.4750000 -0.0500000
v -0.0750000 -3.3750000 -0.0500000
v 0.1000000 -1.9250000 -0.0500000
v 0.1000000 -3.1750000 -0.0500000
v -0.0750000 -3.3750000 -0.0500000
v 1.5000000 -0.3250000 -0.0500000
v 0.8750000 -0.3250000 -0.0500000
v 1.6750000 -0.1250000 -0.0500000
v 1.3638925 -1.4921225 -0.0750000
v 1.4500000 -1.4750000 -0.0750000
v 1.4500000 -1.7000000 -0.0750000
v 1.2909025 -1.5409025 -0.0750000
v 1.3638925 -1.4921225 -0.0750000
v 1.4500000 -1.7000000 -0.0750000
v 1.2421225 -1.6138925 -0.0750000
v 1.2909025 -1.5409025 -0.0750000
v 1.4500000 -1.7000000 -0.0750000
v 1.2250000 -1.7000000 -0.0750000
v 1.2421225 -1.6138925 -0.0750000
v 1.4500000 -1.7000000 -0.0750000
v 1.2421225 -1.7861075 -0.0750000
v 1.2250000 -1.7000000 -0.0750000
v 1.4500000 -1.7000000 -0.0750000
v 1.2909025 -1.8590975 -0.0750000
v 1.2421225 -1.7861075 -0.0750000
v 1.4500000 -1.7000000 -0.0750000
v 1.3638925 -1.9078775 -0.0750000
v 1.2909025 -1.8590975 -0.0750000
v 1.4500000 -1.7000000 -0.0750000
v 1.4500000 -1.9250000 -0.0750000
v 1.3638925 -1.9078775 -0.0750000
v 1.4500000 -1.7000000 -0.0750000
v 1.4500000 -1.4750000 -0.0500000
v 1.4500000 -1.4750000 -0.0750000
v 1.3638925 -1.4921225 -0.0750000
v 1.3638925 -1.4921225 -0.0500000
v 1.3638925 -1.4921225 -0.0500000
v 1.3638925 -1.4921225 -0.0750000
v 1.2909025 -1.5409025 -0.0750000
v 1.2909025 -1.5409025 -0.0500000
v 1.2909025 -1.5409025 -0.0500000
v 1.2909025 -1.5409025 -0.0750000
v 1.2421225 -1.6138925 -0.0750000
v 1.2421225 -1.6138925 -0.0500000
v 1.2421225 -1.6138925 -0.0500000
v 1.2421225 -1.6138925 -0.0750000
v 1.2250000 -1.7000000 -0.0750000
v 1.2250000 -1.7000000 -0.0500000
v 1.2250000 -1.7000000 -0.0500000
v 1.2250000 -1.7000000 -0.0750000
v 1.2421225 -1.7861075 -0.0750000
v 1.2421225 -1.7861075 -0.0500000
v 1.2421225 -1.7861075 -0.0500000
v 1.2421225 -1.7861075 -0.0750000
v 1.2909025 -1.8590975 -0.0750000
v 1.2909025 -1.8590975 -0.0500000
v 1.2909025 -1.8590975 -0.0500000
v 1.2909025 -1.8590975 -0.0750000
v 1.3638925 -1.9078775 -0.0750000
v 1.3638925 -1.9078775 -0.0500000
v 1.3638925 -1.9078775 -0.0500000
v 1.3638925 -1.9078775 -0.0750000
v 1.4500000 -1.9250000 -0.0750000
v 1.4500000 -1.9250000 -0.0500000
v 1.2250000 -1.4750000 -0.0500000
v 1.4500000 -1.4750000 -0.0500000
v 1.3638925 -1.4921225 -0.0500000
v 1.2250000 -1.4750000 -0.0500000
v 1.3638925 -1.4921225 -0.0500000
v 1.2909025 -1.5409025 -0.0500000
v 1.2250000 -1.4750000 -0.0500000
v 1.2909025 -1.5409025 -0.0500000
v 1.2421225 -1.6138925 -0.0500000
v 1.2250000 -1.4750000 -0.0500000
v 1.2421225 -1.6138925 -0.0500000
v 1.2250000 -1.7000000 -0.0500000
v 1.2250000 -1.9250000 -0.0500000
v 1.2250000 -1.7000000 -0.0500000
v 1.2421225 -1.7861075 -0.0500000
v 1.2250000 -1.9250000 -0.0500000
v 1.2421225 -1.7861075 -0.0500000
v 1.2909025 -1.8590975 -0.0500000
v 1.2250000 -1.9250000 -0.0500000
v 1.2909025 -1.8590975 -0.0500000
v 1.3638925 -1.9078775 -0.0500000
v 1.2250000 -1.9250000 -0.0500000
v 1.3638925 -1.9078775 -0.0500000
v 1.4500000 -1.9250000 -0.0500000
v 1.2250000 -1.9250000 0.0500000
v 1.4500000 -1.9250000 0.0500000
v 1.3638925 -1.9078775 0.0500000
v 1.2250000 -1.9250000 0.0500000
v 1.3638925 -1.9078775 0.0500000
v 1.2909025 -1.8590975 0.0500000
v 1.2250000 -1.9250000 0.0500000
v 1.2909025 -1.8590975 0.0500000
v 1.2421225 -1.7861075 0.0500000
v 1.2250000 -1.9250000 0.0500000
v 1.2421225 -1.7861075 0.0500000
v 1.2250000 -1.7000000 0.0500000
v 1.2250000 -1.4750000 0.0500000
v 1.2250000 -1.7000000 0.0500000
v 1.2421225 -1.6138925 0.0500000
v 1.2250000 -1.4750000 0.0500000
v 1.2421225 -1.6138925 0.0500000
v 1.2909025 -1.5409025 0.0500000
v 1.2250000 -1.4750000 0.0500000
v 1.2909025 -1.5409025 0.0500000
v 1.3638925 -1.4921225 0.0500000
v 1.2250000 -1.4750000 0.0500000
v 1.3638925 -1.4921225 0.0500000
v 1.4500000 -1.4750000 0.0500000
v -0.0537025 -0.1000000 0.0692925
v -0.0250000 -0.1000000 0.0750000
v -0.0250000 -0.1000000 0.0000000
v -0.0780325 -0.1000000 0.0530325
v -0.0537025 -0.1000000 0.0692925
v -0.0250000 -0.1000000 0.0000000
v -0.0942925 -0.1000000 0.0287025
v -0.0780325 -0.1000000 0.0530325
v -0.0250000 -0.1000000 0.0000000
v -0.1000000 -0.1000000 0.0000000
v -0.0942925 -0.1000000 0.0287025
v -0.0250000 -0.1000000 0.0000000
v -0.0942925 -0.1000000 -0.0287025
v -0.1000000 -0.1000000 0.0000000
v -0.0250000 -0.1000000 0.0000000
v -0.0780325 -0.1000000 -0.0530325
v -0.0942925 -0.1000000 -0.0287025
v -0.0250000 -0.1000000 0.0000000
v -0.0537025 -0.1000000 -0.0692925
v -0.0780325 -0.1000000 -0.0530325
v -0.0250000 -0.1000000 0.0000000
v -0.0250000 -0.1000000 -0.0750000
v -0.0537025 -0.1000000 -0.0692925
v -0.0250000 -0.1000000 0.0000000
v -0.0250000 -0.2000000 0.0750000
v -0.0250000 -0.1000000 0.0750000
v -0.0537025 -0.1000000 0.0692925
v -0.0537025 -0.2000000 0.0692925
v -0.0537025 -0.2000000 0.0692925
v -0.0537025 -0.1000000 0.0692925
v -0.0780325 -0.1000000 0.0530325
v -0.0780325 -0.2000000 0.0530325
v -0.0780325 -0.2000000 0.0530325
v -0.0780325 -0.1000000 0.0530325
v -0.0942925 -0.1000000 0.0287025
v -0.0942925 -0.2000000 0.0287025
v -0.0942925 -0.2000000 0.0287025
v -0.0942925 -0.1000000 0.0287025
v -0.1000000 -0.1000000 0.0000000
v -0.1000000 -0.2000000 0.0000000
v -0.1000000 -0.2000000 0.0000000
v -0.1000000 -0.1000000 0.0000000
v -0.0942925 -0.1000000 -0.0287025
v -0.0942925 -0.2000000 -0.0287025
v -0.0942925 -0.2000000 -0.0287025
v -0.0942925 -0.1000000 -0.0287025
v -0.0780325 -0.1000000 -0.0530325
v -0.0780325 -0.2000000 -0.0530325
v -0.0780325 -0.2000000 -0.0530325
v -0.0780325 -0.1000000 -0.0530325
v -0.0537025 -0.1000000 -0.0692925
v -0.0537025 -0.2000000 -0.0692925
v -0.0537025 -0.2000000 -0.0692925
v -0.0537025 -0.1000000 -0.0692925
v -0.0250000 -0.1000000 -0.0750000
v -0.0250000 -0.2000000 -0.0750000
v -0.0537025 -0.2000000 -0.0692925
v -0.0250000 -0.2000000 -0.0750000
v -0.0250000 -0.2000000 0.0000000
v -0.0780325 -0.2000000 -0.0530325
v -0.0537025 -0.2000000 -0.0692925
v -0.0250000 -0.2000000 0.0000000
v -0.0942925 -0.2000000 -0.0287025
v -0.0780325 -0.2000000 -0.0530325
v -0.0250000 -0.2000000 0.0000000
v -0.1000000 -0.2000000 0.0000000
v -0.0942925 -0.2000000 -0.0287025
v -0.0250000 -0.2000000 0.0000000
v -0.0942925 -0.2000000 0.0287025
v -0.1000000 -0.2000000 0.0000000
v -0.0250000 -0.2000000 0.0000000
v -0.0780325 -0.2000000 0.0530325
v -0.0942925 -0.2000000 0.0287025
v -0.0250000 -0.2000000 0.0000000
v -0.0537025 -0.2000000 0.0692925
v -0.0780325 -0.2000000 0.0530325
v -0.0250000 -0.2000000 0.0000000
v -0.0250000 -0.2000000 0.0750000
v -0.0537025 -0.2000000 0.0692925
v -0.0250000 -0.2000000 0.0000000
v 0.0037025 -0.2000000 0.0692925
v -0.0250000 -0.2000000 0.0750000
v -0.0250000 -0.2000000 0.0000000
v 0.0280325 -0.2000000 0.0530325
v 0.0037025 -0.2000000 0.0692925
v -0.0250000 -0.2000000 0.0000000
v 0.0442925 -0.2000000 0.0287025
v 0.0280325 -0.2000000 0.0530325
v -0.0250000 -0.2000000 0.0000000
v 0.0500000 -0.2000000 0.0000000
v 0.0442925 -0.2000000 0.0287025
v -0.0250000 -0.2000000 0.0000000
v 0.0442925 -0.2000000 -0.0287025
v 0.0500000 -0.2000000 0.0000000
v -0.0250000 -0.2000000 0.0000000
v 0.0280325 -0.2000000 -0.0530325
v 0.0442925 -0.2000000 -0.0287025
v -0.0250000 -0.2000000 0.0000000
v 0.0037025 -0.2000000 -0.0692925
v 0.0280325 -0.2000000 -0.0530325
v -0.0250000 -0.2000000 0.0000000
v -0.0250000 -0.2000000 -0.0750000
v 0.0037025 -0.2000000 -0.0692925
v -0.0250000 -0.2000000 0.0000000
v -0.0250000 -0.1500000 0.0750000
v -0.0250000 -0.2000000 0.0750000
v 0.0037025 -0.2000000 0.0692925
v 0.0037025 -0.1500000 0.0692925
v 0.0037025 -0.1500000 0.0692925
v 0.0037025 -0.2000000 0.0692925
v 0.0280325 -0.2000000 0.0530325
v 0.0280325 -0.1500000 0.0530325
v 0.0280325 -0.1500000 0.0530325
v 0.0280325 -0.2000000 0.0530325
v 0.0442925 -0.2000000 0.0287025
v 0.0442925 -0.1500000 0.0287025
v 0.0442925 -0.1500000 0.0287025
v 0.0442925 -0.2000000 0.0287025
v 0.0500000 -0.2000000 0.0000000
v 0.0500000 -0.1500000 0.0000000
v 0.0500000 -0.1500000 0.0000000
v 0.0500000 -0.2000000 0.0000000
v 0.0442925 -0.2000000 -0.0287025
v 0.0442925 -0.1500000 -0.0287025
v 0.0442925 -0.1500000 -0.0287025
v 0.0442925 -0.2000000 -0.0287025
v 0.0280325 -0.2000000 -0.0530325
v 0.0280325 -0.1500000 -0.0530325
v 0.0280325 -0.1500000 -0.0530325
v 0.0280325 -0.2000000 -0.0530325
v 0.0037025 -0.2000000 -0.0692925
v 0.0037025 -0.1500000 -0.0692925
v 0.0037025 -0.1500000 -0.0692925
v 0.0037025 -0.2000000 -0.0692925
v -0.0250000 -0.2000000 -0.0750000
v -0.0250000 -0.1500000 -0.0750000
v 0.0461950 -0.1000000 -0.0191350
v 0.0461950 -0.0904325 0.0000000
v 0.0500000 -0.1000000 0.0000000
v 0.0461950 -0.1000000 -0.0191350
v 0.0391800 -0.0890175 -0.0219650
v 0.0461950 -0.0904325 0.0000000
v 0.0353550 -0.1000000 -0.0353550
v 0.0391800 -0.0890175 -0.0219650
v 0.0461950 -0.1000000 -0.0191350
v 0.0353550 -0.1000000 -0.0353550
v 0.0219650 -0.0890175 -0.0391800
v 0.0391800 -0.0890175 -0.0219650
v 0.0191350 -0.1000000 -0.0461950
v 0.0219650 -0.0890175 -0.0391800
v 0.0353550 -0.1000000 -0.0353550
v 0.0191350 -0.1000000 -0.0461950
v 0.0000000 -0.0904325 -0.0461950
v 0.0219650 -0.0890175 -0.0391800
v 0.0000000 -0.1000000 -0.0500000
v 0.0000000 -0.0904325 -0.0461950
v 0.0191350 -0.1000000 -0.0461950
v 0.0391800 -0.0890175 -0.0219650
v 0.0353550 -0.0823225 0.0000000
v 0.0461950 -0.0904325 0.0000000
v 0.0391800 -0.0890175 -0.0219650
v 0.0219650 -0.0804100 -0.0219650
v 0.0353550 -0.0823225 0.0000000
v 0.0219650 -0.0890175 -0.0391800
v 0.0219650 -0.0804100 -0.0219650
v 0.0391800 -0.0890175 -0.0219650
v 0.0219650 -0.0890175 -0.0391800
v 0.0000000 -0.0823225 -0.0353550
v 0.0219650 -0.0804100 -0.0219650
v 0.0000000 -0.0904325 -0.0461950
v 0.0000000 -0.0823225 -0.0353550
v 0.0219650 -0.0890175 -0.0391800
v 0.0219650 -0.0804100 -0.0219650
v 0.0191350 -0.0769025 0.0000000
v 0.0353550 -0.0823225 0.0000000
v 0.0219650 -0.0804100 -0.0219650
v 0.0000000 -0.0769025 -0.0191350
v 0.0191350 -0.0769025 0.0000000
v 0.0000000 -0.0823225 -0.0353550
v 0.0000000 -0.0769025 -0.0191350
v 0.0219650 -0.0804100 -0.0219650
v 0.0000000 -0.0769025 -0.0191350
v 0.0000000 -0.0750000 0.0000000
v 0.0191350 -0.0769025 0.0000000
v 0.0500000 -0.1000000 0.0000000
v 0.0461950 -0.0904325 0.0000000
v 0.0461950 -0.1000000 0.0191350
v 0.0461950 -0.0904325 0.0000000
v 0.0391800 -0.0890175 0.0219650
v 0.0461950 -0.1000000 0.0191350
v 0.0461950 -0.1000000 0.0191350
v 0.0391800 -0.0890175 0.0219650
v 0.0353550 -0.1000000 0.0353550
v 0.0391800 -0.0890175 0.0219650
v 0.0219650 -0.0890175 0.0391800
v 0.0353550 -0.1000000 0.0353550
v 0.0353550 -0.1000000 0.0353550
v 0.0219650 -0.0890175 0.0391800
v 0.0191350 -0.1000000 0.0461950
v 0.0219650 -0.0890175 0.0391800
v 0.0000000 -0.0904325 0.0461950
v 0.0191350 -0.1000000 0.0461950
v 0.0191350 -0.1000000 0.0461950
v 0.0000000 -0.0904325 0.0461950
v 0.0000000 -0.1000000 0.0500000
v 0.0461950 -0.0904325 0.0000000
v 0.0353550 -0.0823225 0.0000000
v 0.0391800 -0.0890175 0.0219650
v 0.0353550 -0.0823225 0.0000000
v 0.0219650 -0.0804100 0.0219650
v 0.0391800 -0.0890175 0.0219650
v 0.0391800 -0.0890175 0.0219650
v 0.0219650 -0.0804100 0.0219650
v 0.0219650 -0.0890175 0.0391800
v 0.0219650 -0.0804100 0.0219650
v 0.0000000 -0.0823225 0.0353550
v 0.0219650 -0.0890175 0.0391800
v 0.0219650 -0.0890175 0.0391800
v 0.0000000 -0.0823225 0.0353550
v 0.0000000 -0.0904325 0.0461950
v 0.0353550 -0.0823225 0.0000000
v 0.0191350 -0.0769025 0.0000000
v 0.0219650 -0.0804100 0.0219650
v 0.0191350 -0.0769025 0.0000000
v 0.0000000 -0.0769025 0.0191350
v 0.0219650 -0.0804100 0.0219650
v 0.0219650 -0.0804100 0.0219650
v 0.0000000 -0.0769025 0.0191350
v 0.0000000 -0.0823225 0.0353550
v 0.0191350 -0.0769025 0.0000000
v 0.0000000 -0.0750000 0.0000000
v 0.0000000 -0.0769025 0.0191350
v -0.0500000 -0.1000000 0.0000000
v -0.0461950 -0.0904325 0.0000000
v -0.0461950 -0.1000000 -0.0191350
v -0.0461950 -0.0904325 0.0000000
v -0.0391800 -0.0890175 -0.0219650
v -0.0461950 -0.1000000 -0.0191350
v -0.0461950 -0.1000000 -0.0191350
v -0.0391800 -0.0890175 -0.0219650
v -0.0353550 -0.1000000 -0.0353550
v -0.0391800 -0.0890175 -0.0219650
v -0.0219650 -0.0890175 -0.0391800
v -0.0353550 -0.1000000 -0.0353550
v -0.0353550 -0.1000000 -0.0353550
v -0.0219650 -0.0890175 -0.0391800
v -0.0191350 -0.1000000 -0.0461950
v -0.0219650 -0.0890175 -0.0391800
v 0.0000000 -0.0904325 -0.0461950
v -0.0191350 -0.1000000 -0.0461950
v -0.0191350 -0.1000000 -0.0461950
v 0.0000000 -0.0904325 -0.0461950
v 0.0000000 -0.1000000 -0.0500000
v -0.0461950 -0.0904325 0.0000000
v -0.0353550 -0.0823225 0.0000000
v -0.0391800 -0.0890175 -0.0219650
v -0.0353550 -0.0823225 0.0000000
v -0.0219650 -0.0804100 -0.0219650
v -0.0391800 -0.0890175 -0.0219650
v -0.0391800 -0.0890175 -0.0219650
v -0.0219650 -0.0804100 -0.0219650
v -0.0219650 -0.0890175 -0.0391800
v -0.0219650 -0.0804100 -0.0219650
v 0.0000000 -0.0823225 -0.0353550
v -0.0219650 -0.0890175 -0.0391800
v -0.0219650 -0.0890175 -0.0391800
v 0.0000000 -0.0823225 -0.0353550
v 0.0000000 -0.0904325 -0.0461950
v -0.0353550 -0.0823225 0.0000000
v -0.0191350 -0.0769025 0.0000000
v -0.0219650 -0.0804100 -0.0219650
v -0.0191350 -0.0769025 0.0000000
v 0.0000000 -0.0769025 -0.0191350
v -0.0219650 -0.0804100 -0.0219650
v -0.0219650 -0.0804100 -0.0219650
v 0.0000000 -0.0769025 -0.0191350
v 0.0000000 -0.0823225 -0.0353550
v -0.0191350 -0.0769025 0.0000000
v 0.0000000 -0.0750000 0.0000000
v 0.0000000 -0.0769025 -0.0191350
v -0.0461950 -0.1000000 0.0191350
v -0.0461950 -0.0904325 0.0000000
v -0.0500000 -0.1000000 0.0000000
v -0.0461950 -0.1000000 0.0191350
v -0.0391800 -0.0890175 0.0219650
v -0.0461950 -0.0904325 0.0000000
v -0.0353550 -0.1000000 0.0353550
v -0.0391800 -0.0890175 0.0219650
v -0.0461950 -0.1000000 0.0191350
v -0.0353550 -0.1000000 0.0353550
v -0.0219650 -0.0890175 0.0391800
v -0.0391800 -0.0890175 0.0219650
v -0.0191350 -0.1000000 0.0461950
v -0.0219650 -0.0890175 0.0391800
v -0.0353550 -0.1000000 0.0353550
v -0.0191350 -0.1000000 0.0461950
v 0.0000000 -0.0904325 0.0461950
v -0.0219650 -0.0890175 0.0391800
v 0.0000000 -0.1000000 0.0500000
v 0.0000000 -0.0904325 0.0461950
v -0.0191350 -0.1000000 0.0461950
v -0.0391800 -0.0890175 0.0219650
v -0.0353550 -0.0823225 0.0000000
v -0.0461950 -0.0904325 0.0000000
v -0.0391800 -0.0890175 0.0219650
v -0.0219650 -0.0804100 0.0219650
v -0.0353550 -0.0823225 0.0000000
v -0.0219650 -0.0890175 0.0391800
v -0.0219650 -0.0804100 0.0219650
v -0.0391800 -0.0890175 0.0219650
v -0.0219650 -0.0890175 0.0391800
v 0.0000000 -0.0823225 0.0353550
v -0.0219650 -0.0804100 0.0219650
v 0.0000000 -0.0904325 0.0461950
v 0.0000000 -0.0823225 0.0353550
v -0.0219650 -0.0890175 0.0391800
v -0.0219650 -0.0804100 0.0219650
v -0.0191350 -0.0769025 0.0000000
v -0.0353550 -0.0823225 0.0000000
v -0.0219650 -0.0804100 0.0219650
v 0.0000000 -0.0769025 0.0191350
v -0.0191350 -0.0769025 0.0000000
v 0.0000000 -0.0823225 0.0353550
v 0.0000000 -0.0769025 0.0191350
v -0.0219650 -0.0804100 0.0219650
v 0.0000000 -0.0769025 0.0191350
v 0.0000000 -0.0750000 0.0000000
v -0.0191350 -0.0769025 0.0000000
v 1.4500000 -1.4750000 -0.0750000
v 1.6750000 -1.4750000 -0.0750000
v 1.6750000 -1.9250000 -0.0750000
v 1.4500000 -1.9250000 -0.0750000
v 1.4500000 -1.4750000 -0.0750000
v 1.4500000 -1.4750000 -0.0500000
v 1.6750000 -1.4750000 -0.0500000
v 1.6750000 -1.4750000 -0.0750000
v 1.6750000 -1.9250000 -0.0750000
v 1.6750000 -1.9250000 -0.0500000
v 1.4500000 -1.9250000 -0.0500000
v 1.4500000 -1.9250000 -0.0750000
v 1.6750000 -1.4750000 -0.0750000
v 1.6750000 -1.4750000 -0.0500000
v 1.6750000 -1.9250000 -0.0500000
v 1.6750000 -1.9250000 -0.0750000
v 1.6750000 -1.9250000 0.0750000
v 1.6750000 -1.9250000 0.0500000
v 1.6750000 -1.4750000 0.0500000
v 1.6750000 -1.4750000 0.0750000
v 1.4500000 -1.8000000 -0.0750000
v 1.4882700 -1.7923900 -0.0750000
v 1.4882700 -1.7923900 -0.1750000
v 1.4500000 -1.8000000 -0.1750000
v 1.4882700 -1.7923900 -0.0750000
v 1.5207100 -1.7707100 -0.0750000
v 1.5207100 -1.7707100 -0.1750000
v 1.4882700 -1.7923900 -0.1750000
v 1.5207100 -1.7707100 -0.0750000
v 1.5423900 -1.7382700 -0.0750000
v 1.5423900 -1.7382700 -0.1750000
v 1.5207100 -1.7707100 -0.1750000
v 1.5423900 -1.7382700 -0.0750000
v 1.5500000 -1.7000000 -0.0750000
v 1.5500000 -1.7000000 -0.1750000
v 1.5423900 -1.7382700 -0.1750000
v 1.5500000 -1.7000000 -0.0750000
v 1.5423900 -1.6617300 -0.0750000
v 1.5423900 -1.6617300 -0.1750000
v 1.5500000 -1.7000000 -0.1750000
v 1.5423900 -1.6617300 -0.0750000
v 1.5207100 -1.6292900 -0.0750000
v 1.5207100 -1.6292900 -0.1750000
v 1.5423900 -1.6617300 -0.1750000
v 1.5207100 -1.6292900 -0.0750000
v 1.4882700 -1.6076100 -0.0750000
v 1.4882700 -1.6076100 -0.1750000
v 1.5207100 -1.6292900 -0.1750000
v 1.4882700 -1.6076100 -0.0750000
v 1.4500000 -1.6000000 -0.0750000
v 1.4500000 -1.6000000 -0.1750000
v 1.4882700 -1.6076100 -0.1750000
v 1.4500000 -1.6000000 -0.0750000
v 1.4117300 -1.6076100 -0.0750000
v 1.4117300 -1.6076100 -0.1750000
v 1.4500000 -1.6000000 -0.1750000
v 1.4117300 -1.6076100 -0.0750000
v 1.3792900 -1.6292900 -0.0750000
v 1.3792900 -1.6292900 -0.1750000
v 1.4117300 -1.6076100 -0.1750000
v 1.3792900 -1.6292900 -0.0750000
v 1.3576100 -1.6617300 -0.0750000
v 1.3576100 -1.6617300 -0.1750000
v 1.3792900 -1.6292900 -0.1750000
v 1.3576100 -1.6617300 -0.0750000
v 1.3500000 -1.7000000 -0.0750000
v 1.3500000 -1.7000000 -0.1750000
v 1.3576100 -1.6617300 -0.1750000
v 1.3500000 -1.7000000 -0.0750000
v 1.3576100 -1.7382700 -0.0750000
v 1.3576100 -1.7382700 -0.1750000
v 1.3500000 -1.7000000 -0.1750000
v 1.3576100 -1.7382700 -0.0750000
v 1.3792900 -1.7707100 -0.0750000
v 1.3792900 -1.7707100 -0.1750000
v 1.3576100 -1.7382700 -0.1750000
v 1.3792900 -1.7707100 -0.0750000
v 1.4117300 -1.7923900 -0.0750000
v 1.4117300 -1.7923900 -0.1750000
v 1.3792900 -1.7707100 -0.1750000
v 1.4117300 -1.7923900 -0.0750000
v 1.4500000 -1.8000000 -0.0750000
v 1.4500000 -1.8000000 -0.1750000
v 1.4117300 -1.7923900 -0.1750000
v 1.4500000 -1.8500000 -0.1750000
v 1.5074050 -1.8385850 -0.1750000
v 1.5074050 -1.8385850 -0.0750000
v 1.4500000 -1.8500000 -0.0750000
v 1.5074050 -1.8385850 -0.1750000
v 1.5560650 -1.8060650 -0.1750000
v 1.5560650 -1.8060650 -0.0750000
v 1.5074050 -1.8385850 -0.0750000
v 1.5560650 -1.8060650 -0.1750000
v 1.5885850 -1.7574050 -0.1750000
v 1.5885850 -1.7574050 -0.0750000
v 1.5560650 -1.8060650 -0.0750000
v 1.5885850 -1.7574050 -0.1750000
v 1.6000000 -1.7000000 -0.1750000
v 1.6000000 -1.7000000 -0.0750000
v 1.5885850 -1.7574050 -0.0750000
v 1.6000000 -1.7000000 -0.1750000
v 1.5885850 -1.6425950 -0.1750000
v 1.5885850 -1.6425950 -0.0750000
v 1.6000000 -1.7000000 -0.0750000
v 1.5885850 -1.6425950 -0.1750000
v 1.5560650 -1.5939350 -0.1750000
v 1.5560650 -1.5939350 -0.0750000
v 1.5885850 -1.6425950 -0.0750000
v 1.5560650 -1.5939350 -0.1750000
v 1.5074050 -1.5614150 -0.1750000
v 1.5074050 -1.5614150 -0.0750000
v 1.5560650 -1.5939350 -0.0750000
v 1.5074050 -1.5614150 -0.1750000
v 1.4500000 -1.5500000 -0.1750000
v 1.4500000 -1.5500000 -0.0750000
v 1.5074050 -1.5614150 -0.0750000
v 1.4500000 -1.5500000 -0.1750000
v 1.3925950 -1.5614150 -0.1750000
v 1.3925950 -1.5614150 -0.0750000
v 1.4500000 -1.5500000 -0.0750000
v 1.3925950 -1.5614150 -0.1750000
v 1.3439350 -1.5939350 -0.1750000
v 1.3439350 -1.5939350 -0.0750000
v 1.3925950 -1.5614150 -0.0750000
v 1.3439350 -1.5939350 -0.1750000
v 1.3114150 -1.6425950 -0.1750000
v 1.3114150 -1.6425950 -0.0750000
v 1.3439350 -1.5939350 -0.0750000
v 1.3114150 -1.6425950 -0.1750000
v 1.3000000 -1.7000000 -0.1750000
v 1.3000000 -1.7000000 -0.0750000
v 1.3114150 -1.6425950 -0.0750000
v 1.3000000 -1.7000000 -0.1750000
v 1.3114150 -1.7574050 -0.1750000
v 1.3114150 -1.7574050 -0.0750000
v 1.3000000 -1.7000000 -0.0750000
v 1.3114150 -1.7574050 -0.1750000
v 1.3439350 -1.8060650 -0.1750000
v 1.3439350 -1.8060650 -0.0750000
v 1.3114150 -1.7574050 -0.0750000
v 1.3439350 -1.8060650 -0.1750000
v 1.3925950 -1.8385850 -0.1750000
v 1.3925950 -1.8385850 -0.0750000
v 1.3439350 -1.8060650 -0.0750000
v 1.3925950 -1.8385850 -0.1750000
v 1.4500000 -1.8500000 -0.1750000
v 1.4500000 -1.8500000 -0.0750000
v 1.3925950 -1.8385850 -0.0750000
v 1.6000000 -1.7000000 -0.1750000
v 1.5500000 -1.7000000 -0.1750000
v 1.5423900 -1.6617300 -0.1750000
v 1.5885850 -1.6425950 -0.1750000
v 1.5885850 -1.6425950 -0.1750000
v 1.5423900 -1.6617300 -0.1750000
v 1.5207100 -1.6292900 -0.1750000
v 1.5560650 -1.5939350 -0.1750000
v 1.5560650 -1.5939350 -0.1750000
v 1.5207100 -1.6292900 -0.1750000
v 1.4882700 -1.6076100 -0.1750000
v 1.5074050 -1.5614150 -0.1750000
v 1.5074050 -1.5614150 -0.1750000
v 1.4882700 -1.6076100 -0.1750000
v 1.4500000 -1.6000000 -0.1750000
v 1.4500000 -1.5500000 -0.1750000
v 1.4500000 -1.5500000 -0.1750000
v 1.4500000 -1.6000000 -0.1750000
v 1.4117300 -1.6076100 -0.1750000
v 1.3925950 -1.5614150 -0.1750000
v 1.3925950 -1.5614150 -0.1750000
v 1.4117300 -1.6076100 -0.1750000
v 1.3792900 -1.6292900 -0.1750000
v 1.3439350 -1.5939350 -0.1750000
v 1.3439350 -1.5939350 -0.1750000
v 1.3792900 -1.6292900 -0.1750000
v 1.3576100 -1.6617300 -0.1750000
v 1.3114150 -1.6425950 -0.1750000
v 1.3114150 -1.6425950 -0.1750000
v 1.3576100 -1.6617300 -0.1750000
v 1.3500000 -1.7000000 -0.1750000
v 1.3000000 -1.7000000 -0.1750000
v 1.3000000 -1.7000000 -0.1750000
v 1.3500000 -1.7000000 -0.1750000
v 1.3576100 -1.7382700 -0.1750000
v 1.3114150 -1.7574050 -0.1750000
v 1.3114150 -1.7574050 -0.1750000
v 1.3576100 -1.7382700 -0.1750000
v 1.3792900 -1.7707100 -0.1750000
v 1.3439350 -1.8060650 -0.1750000
v 1.3439350 -1.8060650 -0.1750000
v 1.3792900 -1.7707100 -0.1750000
v 1.4117300 -1.7923900 -0.1750000
v 1.3925950 -1.8385850 -0.1750000
v 1.3925950 -1.8385850 -0.1750000
v 1.4117300 -1.7923900 -0.1750000
v 1.4500000 -1.8000000 -0.1750000
v 1.4500000 -1.8500000 -0.1750000
v 1.4500000 -1.8500000 -0.1750000
v 1.4500000 -1.8000000 -0.1750000
v 1.4882700 -1.7923900 -0.1750000
v 1.5074050 -1.8385850 -0.1750000
v 1.5074050 -1.8385850 -0.1750000
v 1.4882700 -1.7923900 -0.1750000
v 1.5207100 -1.7707100 -0.1750000
v 1.5560650 -1.8060650 -0.1750000
v 1.5560650 -1.8060650 -0.1750000
v 1.5207100 -1.7707100 -0.1750000
v 1.5423900 -1.7382700 -0.1750000
v 1.5885850 -1.7574050 -0.1750000
v 1.5885850 -1.7574050 -0.1750000
v 1.5423900 -1.7382700 -0.1750000
v 1.5500000 -1.7000000 -0.1750000
v 1.6000000 -1.7000000 -0.1750000
v 1.5000000 -1.9250000 -0.0250000
v 1.5000000 -3.1750000 -0.0250000
v 1.4000000 -3.0750000 -0.0500000
v 1.4000000 -2.0250000 -0.0500000
v 0.2000000 -2.0250000 0.0500000
v 0.2000000 -3.0750000 0.0500000
v 1.4000000 -3.0750000 0.0500000
v 1.4000000 -2.0250000 0.0500000
v 0.2000000 -2.0250000 0.0500000
v 1.4000000 -2.0250000 0.0500000
v 1.5000000 -1.9250000 0.0250000
v 0.1000000 -1.9250000 0.0250000
v 0.1000000 -1.9250000 0.0250000
v 0.1000000 -3.1750000 0.0250000
v 0.2000000 -3.0750000 0.0500000
v 0.2000000 -2.0250000 0.0500000
v 1.5000000 -1.9250000 0.0250000
v 1.5000000 -1.9250000 0.0500000
v 0.1000000 -1.9250000 0.0500000
v 0.1000000 -1.9250000 0.0250000
v 0.1000000 -1.9250000 0.0250000
v 0.1000000 -1.9250000 0.0500000
v 0.1000000 -3.1750000 0.0500000
v 0.1000000 -3.1750000 0.0250000
v 0.1000000 -3.1750000 0.0250000
v 0.1000000 -3.1750000 0.0500000
v 1.5000000 -3.1750000 0.0500000
v 1.5000000 -3.1750000 0.0250000
v 1.5000000 -3.1750000 0.0250000
v 1.5000000 -3.1750000 0.0500000
v 1.5000000 -1.9250000 0.0500000
v 1.5000000 -1.9250000 0.0250000
v 0.1000000 -3.1750000 0.0250000
v 1.5000000 -3.1750000 0.0250000
v 1.4000000 -3.0750000 0.0500000
v 0.2000000 -3.0750000 0.0500000
v 1.4500000 -1.7000000 0.0750000
v 1.4500000 -1.4750000 0.0750000
v 1.3638925 -1.4921225 0.0750000
v 1.4500000 -1.7000000 0.0750000
v 1.3638925 -1.4921225 0.0750000
v 1.2909025 -1.5409025 0.0750000
v 1.4500000 -1.7000000 0.0750000
v 1.2909025 -1.5409025 0.0750000
v 1.2421225 -1.6138925 0.0750000
v 1.4500000 -1.7000000 0.0750000
v 1.2421225 -1.6138925 0.0750000
v 1.2250000 -1.7000000 0.0750000
v 1.4500000 -1.7000000 0.0750000
v 1.2250000 -1.7000000 0.0750000
v 1.2421225 -1.7861075 0.0750000
v 1.4500000 -1.7000000 0.0750000
v 1.2421225 -1.7861075 0.0750000
v 1.2909025 -1.8590975 0.0750000
v 1.4500000 -1.7000000 0.0750000
v 1.2909025 -1.8590975 0.0750000
v 1.3638925 -1.9078775 0.0750000
v 1.4500000 -1.7000000 0.0750000
v 1.3638925 -1.9078775 0.0750000
v 1.4500000 -1.9250000 0.0750000
v 1.3638925 -1.4921225 0.0500000
v 1.3638925 -1.4921225 0.0750000
v 1.4500000 -1.4750000 0.0750000
v 1.4500000 -1.4750000 0.0500000
v 1.2909025 -1.5409025 0.0500000
v 1.2909025 -1.5409025 0.0750000
v 1.3638925 -1.4921225 0.0750000
v 1.3638925 -1.4921225 0.0500000
v 1.2421225 -1.6138925 0.0500000
v 1.2421225 -1.6138925 0.0750000
v 1.2909025 -1.5409025 0.0750000
v 1.2909025 -1.5409025 0.0500000
v 1.2250000 -1.7000000 0.0500000
v 1.2250000 -1.7000000 0.0750000
v 1.2421225 -1.6138925 0.0750000
v 1.2421225 -1.6138925 0.0500000
v 1.2421225 -1.7861075 0.0500000
v 1.2421225 -1.7861075 0.0750000
v 1.2250000 -1.7000000 0.0750000
v 1.2250000 -1.7000000 0.0500000
v 1.2909025 -1.8590975 0.0500000
v 1.2909025 -1.8590975 0.0750000
v 1.2421225 -1.7861075 0.0750000
v 1.2421225 -1.7861075 0.0500000
v 1.3638925 -1.9078775 0.0500000
v 1.3638925 -1.9078775 0.0750000
v 1.2909025 -1.8590975 0.0750000
v 1.2909025 -1.8590975 0.0500000
v 1.4500000 -1.9250000 0.0500000
v 1.4500000 -1.9250000 0.0750000
v 1.3638925 -1.9078775 0.0750000
v 1.3638925 -1.9078775 0.0500000
v 1.4500000 -1.9250000 0.0750000
v 1.6750000 -1.9250000 0.0750000
v 1.6750000 -1.4750000 0.0750000
v 1.4500000 -1.4750000 0.0750000
v 1.6750000 -1.4750000 0.0750000
v 1.6750000 -1.4750000 0.0500000
v 1.4500000 -1.4750000 0.0500000
v 1.4500000 -1.4750000 0.0750000
v 1.4500000 -1.9250000 0.0750000
v 1.4500000 -1.9250000 0.0500000
v 1.6750000 -1.9250000 0.0500000
v 1.6750000 -1.9250000 0.0750000
v 1.5500000 -1.7000000 0.0750000
v 1.5423900 -1.7382700 0.0750000
v 1.5423900 -1.7382700 0.1750000
v 1.5500000 -1.7000000 0.1750000
v 1.5423900 -1.7382700 0.0750000
v 1.5207100 -1.7707100 0.0750000
v 1.5207100 -1.7707100 0.1750000
v 1.5423900 -1.7382700 0.1750000
v 1.5207100 -1.7707100 0.0750000
v 1.4882700 -1.7923900 0.0750000
v 1.4882700 -1.7923900 0.1750000
v 1.5207100 -1.7707100 0.1750000
v 1.4882700 -1.7923900 0.0750000
v 1.4500000 -1.8000000 0.0750000
v 1.4500000 -1.8000000 0.1750000
v 1.4882700 -1.7923900 0.1750000
v 1.4500000 -1.8000000 0.0750000
v 1.4117300 -1.7923900 0.0750000
v 1.4117300 -1.7923900 0.1750000
v 1.4500000 -1.8000000 0.1750000
v 1.4117300 -1.7923900 0.0750000
v 1.3792900 -1.7707100 0.0750000
v 1.3792900 -1.7707100 0.1750000
v 1.4117300 -1.7923900 0.1750000
v 1.3792900 -1.7707100 0.0750000
v 1.3576100 -1.7382700 0.0750000
v 1.3576100 -1.7382700 0.1750000
v 1.3792900 -1.7707100 0.1750000
v 1.3576100 -1.7382700 0.0750000
v 1.3500000 -1.7000000 0.0750000
v 1.3500000 -1.7000000 0.1750000
v 1.3576100 -1.7382700 0.1750000
v 1.3500000 -1.7000000 0.0750000
v 1.3576100 -1.6617300 0.0750000
v 1.3576100 -1.6617300 0.1750000
v 1.3500000 -1.7000000 0.1750000
v 1.3576100 -1.6617300 0.0750000
v 1.3792900 -1.6292900 0.0750000
v 1.3792900 -1.6292900 0.1750000
v 1.3576100 -1.6617300 0.1750000
v 1.3792900 -1.6292900 0.0750000
v 1.4117300 -1.6076100 0.0750000
v 1.4117300 -1.6076100 0.1750000
v 1.3792900 -1.6292900 0.1750000
v 1.4117300 -1.6076100 0.0750000
v 1.4500000 -1.6000000 0.0750000
v 1.4500000 -1.6000000 0.1750000
v 1.4117300 -1.6076100 0.1750000
v 1.4500000 -1.6000000 0.0750000
v 1.4882700 -1.6076100 0.0750000
v 1.4882700 -1.6076100 0.1750000
v 1.4500000 -1.6000000 0.1750000
v 1.4882700 -1.6076100 0.0750000
v 1.5207100 -1.6292900 0.0750000
v 1.5207100 -1.6292900 0.1750000
v 1.4882700 -1.6076100 0.1750000
v 1.5207100 -1.6292900 0.0750000
v 1.5423900 -1.6617300 0.0750000
v 1.5423900 -1.6617300 0.1750000
v 1.5207100 -1.6292900 0.1750000
v 1.5423900 -1.6617300 0.0750000
v 1.5500000 -1.7000000 0.0750000
v 1.5500000 -1.7000000 0.1750000
v 1.5423900 -1.6617300 0.1750000
v 1.6000000 -1.7000000 0.1750000
v 1.5885850 -1.7574050 0.1750000
v 1.5885850 -1.7574050 0.0750000
v 1.6000000 -1.7000000 0.0750000
v 1.5885850 -1.7574050 0.1750000
v 1.5560650 -1.8060650 0.1750000
v 1.5560650 -1.8060650 0.0750000
v 1.5885850 -1.7574050 0.0750000
v 1.5560650 -1.8060650 0.1750000
v 1.5074050 -1.8385850 0.1750000
v 1.5074050 -1.8385850 0.0750000
v 1.5560650 -1.8060650 0.0750000
v 1.5074050 -1.8385850 0.1750000
v 1.4500000 -1.8500000 0.1750000
v 1.4500000 -1.8500000 0.0750000
v 1.5074050 -1.8385850 0.0750000
v 1.4500000 -1.8500000 0.1750000
v 1.3925950 -1.8385850 0.1750000
v 1.3925950 -1.8385850 0.0750000
v 1.4500000 -1.8500000 0.0750000
v 1.3925950 -1.8385850 0.1750000
v 1.3439350 -1.8060650 0.1750000
v 1.3439350 -1.8060650 0.0750000
v 1.3925950 -1.8385850 0.0750000
v 1.3439350 -1.8060650 0.1750000
v 1.3114150 -1.7574050 0.1750000
v 1.3114150 -1.7574050 0.0750000
v 1.3439350 -1.8060650 0.0750000
v 1.3114150 -1.7574050 0.1750000
v 1.3000000 -1.7000000 0.1750000
v 1.3000000 -1.7000000 0.0750000
v 1.3114150 -1.7574050 0.0750000
v 1.3000000 -1.7000000 0.1750000
v 1.3114150 -1.6425950 0.1750000
v 1.3114150 -1.6425950 0.0750000
v 1.3000000 -1.7000000 0.0750000
v 1.3114150 -1.6425950 0.1750000
v 1.3439350 -1.5939350 0.1750000
v 1.3439350 -1.5939350 0.0750000
v 1.3114150 -1.6425950 0.0750000
v 1.3439350 -1.5939350 0.1750000
v 1.3925950 -1.5614150 0.1750000
v 1.3925950 -1.5614150 0.0750000
v 1.3439350 -1.5939350 0.0750000
v 1.3925950 -1.5614150 0.1750000
v 1.4500000 -1.5500000 0.1750000
v 1.4500000 -1.5500000 0.0750000
v 1.3925950 -1.5614150 0.0750000
v 1.4500000 -1.5500000 0.1750000
v 1.5074050 -1.5614150 0.1750000
v 1.5074050 -1.5614150 0.0750000
v 1.4500000 -1.5500000 0.0750000
v 1.5074050 -1.5614150 0.1750000
v 1.5560650 -1.5939350 0.1750000
v 1.5560650 -1.5939350 0.0750000
v 1.5074050 -1.5614150 0.0750000
v 1.5560650 -1.5939350 0.1750000
v 1.5885850 -1.6425950 0.1750000
v 1.5885850 -1.6425950 0.0750000
v 1.5560650 -1.5939350 0.0750000
v 1.5885850 -1.6425950 0.1750000
v 1.6000000 -1.7000000 0.1750000
v 1.6000000 -1.7000000 0.0750000
v 1.5885850 -1.6425950 0.0750000
v 1.4500000 -1.8500000 0.1750000
v 1.4500000 -1.8000000 0.1750000
v 1.4117300 -1.7923900 0.1750000
v 1.3925950 -1.8385850 0.1750000
v 1.3925950 -1.8385850 0.1750000
v 1.4117300 -1.7923900 0.1750000
v 1.3792900 -1.7707100 0.1750000
v 1.3439350 -1.8060650 0.1750000
v 1.3439350 -1.8060650 0.1750000
v 1.3792900 -1.7707100 0.1750000
v 1.3576100 -1.7382700 0.1750000
v 1.3114150 -1.7574050 0.1750000
v 1.3114150 -1.7574050 0.1750000
v 1.3576100 -1.7382700 0.1750000
v 1.3500000 -1.7000000 0.1750000
v 1.3000000 -1.7000000 0.1750000
v 1.3000000 -1.7000000 0.1750000
v 1.3500000 -1.7000000 0.1750000
v 1.3576100 -1.6617300 0.1750000
v 1.3114150 -1.6425950 0.1750000
v 1.3114150 -1.6425950 0.1750000
v 1.3576100 -1.6617300 0.1750000
v 1.3792900 -1.6292900 0.1750000
v 1.3439350 -1.5939350 0.1750000
v 1.3439350 -1.5939350 0.1750000
v 1.3792900 -1.6292900 0.1750000
v 1.4117300 -1.6076100 0.1750000
v 1.3925950 -1.5614150 0.1750000
v 1.3925950 -1.5614150 0.1750000
v 1.4117300 -1.6076100 0.1750000
v 1.4500000 -1.6000000 0.1750000
v 1.4500000 -1.5500000 0.1750000
v 1.4500000 -1.5500000 0.1750000
v 1.4500000 -1.6000000 0.1750000
v 1.4882700 -1.6076100 0.1750000
v 1.5074050 -1.5614150 0.1750000
v 1.5074050 -1.5614150 0.1750000
v 1.4882700 -1.6076100 0.1750000
v 1.5207100 -1.6292900 0.1750000
v 1.5560650 -1.5939350 0.1750000
v 1.5560650 -1.5939350 0.1750000
v 1.5207100 -1.6292900 0.1750000
v 1.5423900 -1.6617300 0.1750000
v 1.5885850 -1.6425950 0.1750000
v 1.5885850 -1.6425950 0.1750000
v 1.5423900 -1.6617300 0.1750000
v 1.5500000 -1.7000000 0.1750000
v 1.6000000 -1.7000000 0.1750000
v 1.6000000 -1.7000000 0.1750000
v 1.5500000 -1.7000000 0.1750000
v 1.5423900 -1.7382700 0.1750000
v 1.5885850 -1.7574050 0.1750000
v 1.5885850 -1.7574050 0.1750000
v 1.5423900 -1.7382700 0.1750000
v 1.5207100 -1.7707100 0.1750000
v 1.5560650 -1.8060650 0.1750000
v 1.5560650 -1.8060650 0.1750000
v 1.5207100 -1.7707100 0.1750000
v 1.4882700 -1.7923900 0.1750000
v 1.5074050 -1.8385850 0.1750000
v 1.5074050 -1.8385850 0.1750000
v 1.4882700 -1.7923900 0.1750000
v 1.4500000 -1.8000000 0.1750000
v 1.4500000 -1.8500000 0.1750000
v 1.4000000 -2.0250000 0.0500000
v 1.4000000 -3.0750000 0.0500000
v 1.5000000 -3.1750000 0.0250000
v 1.5000000 -1.9250000 0.0250000
v 0.1750000 -0.1000000 -0.0750000
v -0.0250000 -0.1000000 -0.0750000
v -0.0250000 -0.1000000 0.0750000
v 0.1750000 -0.1000000 0.0750000
v 0.1750000 -0.1500000 -0.0750000
v -0.0250000 -0.1500000 -0.0750000
v -0.0250000 -0.1000000 -0.0750000
v 0.1750000 -0.1000000 -0.0750000
v -0.0250000 -0.1500000 0.0750000
v 0.1750000 -0.1500000 0.0750000
v 0.1750000 -0.1000000 0.0750000
v -0.0250000 -0.1000000 0.0750000
v 0.1750000 -0.1500000 0.0750000
v 0.1750000 -0.1500000 -0.0750000
v 0.1750000 -0.1000000 -0.0750000
v 0.1750000 -0.1000000 0.0750000
v 0.1750000 -0.1500000 -0.0750000
v 0.1750000 -0.1500000 0.0750000
v -0.0250000 -0.1500000 0.0750000
v -0.0250000 -0.1500000 -0.0750000
v -0.0537025 -3.4000000 -0.0692925
v -0.0250000 -3.4000000 -0.0750000
v -0.0250000 -3.4000000 0.0000000
v -0.0780325 -3.4000000 -0.0530325
v -0.0537025 -3.4000000 -0.0692925
v -0.0250000 -3.4000000 0.0000000
v -0.0942925 -3.4000000 -0.0287025
v -0.0780325 -3.4000000 -0.0530325
v -0.0250000 -3.4000000 0.0000000
v -0.1000000 -3.4000000 0.0000000
v -0.0942925 -3.4000000 -0.0287025
v -0.0250000 -3.4000000 0.0000000
v -0.0942925 -3.4000000 0.0287025
v -0.1000000 -3.4000000 0.0000000
v -0.0250000 -3.4000000 0.0000000
v -0.0780325 -3.4000000 0.0530325
v -0.0942925 -3.4000000 0.0287025
v -0.0250000 -3.4000000 0.0000000
v -0.0537025 -3.4000000 0.0692925
v -0.0780325 -3.4000000 0.0530325
v -0.0250000 -3.4000000 0.0000000
v -0.0250000 -3.4000000 0.0750000
v -0.0537025 -3.4000000 0.0692925
v -0.0250000 -3.4000000 0.0000000
v -0.0250000 -3.3000000 -0.0750000
v -0.0250000 -3.4000000 -0.0750000
v -0.0537025 -3.4000000 -0.0692925
v -0.0537025 -3.3000000 -0.0692925
v -0.0537025 -3.3000000 -0.0692925
v -0.0537025 -3.4000000 -0.0692925
v -0.0780325 -3.4000000 -0.0530325
v -0.0780325 -3.3000000 -0.0530325
v -0.0780325 -3.3000000 -0.0530325
v -0.0780325 -3.4000000 -0.0530325
v -0.0942925 -3.4000000 -0.0287025
v -0.0942925 -3.3000000 -0.0287025
v -0.0942925 -3.3000000 -0.0287025
v -0.0942925 -3.4000000 -0.0287025
v -0.1000000 -3.4000000 0.0000000
v -0.1000000 -3.3000000 0.0000000
v -0.1000000 -3.3000000 0.0000000
v -0.1000000 -3.4000000 0.0000000
v -0.0942925 -3.4000000 0.0287025
v -0.0942925 -3.3000000 0.0287025
v -0.0942925 -3.3000000 0.0287025
v -0.0942925 -3.4000000 0.0287025
v -0.0780325 -3.4000000 0.0530325
v -0.0780325 -3.3000000 0.0530325
v -0.0780325 -3.3000000 0.0530325
v -0.0780325 -3.4000000 0.0530325
v -0.0537025 -3.4000000 0.0692925
v -0.0537025 -3.3000000 0.0692925
v -0.0537025 -3.3000000 0.0692925
v -0.0537025 -3.4000000 0.0692925
v -0.0250000 -3.4000000 0.0750000
v -0.0250000 -3.3000000 0.0750000
v -0.0537025 -3.3000000 0.0692925
v -0.0250000 -3.3000000 0.0750000
v -0.0250000 -3.3000000 0.0000000
v -0.0780325 -3.3000000 0.0530325
v -0.0537025 -3.3000000 0.0692925
v -0.0250000 -3.3000000 0.0000000
v -0.0942925 -3.3000000 0.0287025
v -0.0780325 -3.3000000 0.0530325
v -0.0250000 -3.3000000 0.0000000
v -0.1000000 -3.3000000 0.0000000
v -0.0942925 -3.3000000 0.0287025
v -0.0250000 -3.3000000 0.0000000
v -0.0942925 -3.3000000 -0.0287025
v -0.1000000 -3.3000000 0.0000000
v -0.0250000 -3.3000000 0.0000000
v -0.0780325 -3.3000000 -0.0530325
v -0.0942925 -3.3000000 -0.0287025
v -0.0250000 -3.3000000 0.0000000
v -0.0537025 -3.3000000 -0.0692925
v -0.0780325 -3.3000000 -0.0530325
v -0.0250000 -3.3000000 0.0000000
v -0.0250000 -3.3000000 -0.0750000
v -0.0537025 -3.3000000 -0.0692925
v -0.0250000 -3.3000000 0.0000000
v 0.0037025 -3.3000000 -0.0692925
v -0.0250000 -3.3000000 -0.0750000
v -0.0250000 -3.3000000 0.0000000
v 0.0280325 -3.3000000 -0.0530325
v 0.0037025 -3.3000000 -0.0692925
v -0.0250000 -3.3000000 0.0000000
v 0.0442925 -3.3000000 -0.0287025
v 0.0280325 -3.3000000 -0.0530325
v -0.0250000 -3.3000000 0.0000000
v 0.0500000 -3.3000000 0.0000000
v 0.0442925 -3.3000000 -0.0287025
v -0.0250000 -3.3000000 0.0000000
v 0.0442925 -3.3000000 0.0287025
v 0.0500000 -3.3000000 0.0000000
v -0.0250000 -3.3000000 0.0000000
v 0.0280325 -3.3000000 0.0530325
v 0.0442925 -3.3000000 0.0287025
v -0.0250000 -3.3000000 0.0000000
v 0.0037025 -3.3000000 0.0692925
v 0.0280325 -3.3000000 0.0530325
v -0.0250000 -3.3000000 0.0000000
v -0.0250000 -3.3000000 0.0750000
v 0.0037025 -3.3000000 0.0692925
v -0.0250000 -3.3000000 0.0000000
v -0.0250000 -3.3500000 -0.0750000
v -0.0250000 -3.3000000 -0.0750000
v 0.0037025 -3.3000000 -0.0692925
v 0.0037025 -3.3500000 -0.0692925
v 0.0037025 -3.3500000 -0.0692925
v 0.0037025 -3.3000000 -0.0692925
v 0.0280325 -3.3000000 -0.0530325
v 0.0280325 -3.3500000 -0.0530325
v 0.0280325 -3.3500000 -0.0530325
v 0.0280325 -3.3000000 -0.0530325
v 0.0442925 -3.3000000 -0.0287025
v 0.0442925 -3.3500000 -0.0287025
v 0.0442925 -3.3500000 -0.0287025
v 0.0442925 -3.3000000 -0.0287025
v 0.0500000 -3.3000000 0.0000000
v 0.0500000 -3.3500000 0.0000000
v 0.0500000 -3.3500000 0.0000000
v 0.0500000 -3.3000000 0.0000000
v 0.0442925 -3.3000000 0.0287025
v 0.0442925 -3.3500000 0.0287025
v 0.0442925 -3.3500000 0.0287025
v 0.0442925 -3.3000000 0.0287025
v 0.0280325 -3.3000000 0.0530325
v 0.0280325 -3.3500000 0.0530325
v 0.0280325 -3.3500000 0.0530325
v 0.0280325 -3.3000000 0.0530325
v 0.0037025 -3.3000000 0.0692925
v 0.0037025 -3.3500000 0.0692925
v 0.0037025 -3.3500000 0.0692925
v 0.0037025 -3.3000000 0.0692925
v -0.0250000 -3.3000000 0.0750000
v -0.0250000 -3.3500000 0.0750000
v 0.0461950 -3.4000000 0.0191350
v 0.0461950 -3.4095675 0.0000000
v 0.0500000 -3.4000000 0.0000000
v 0.0461950 -3.4000000 0.0191350
v 0.0391800 -3.4109825 0.0219650
v 0.0461950 -3.4095675 0.0000000
v 0.0353550 -3.4000000 0.0353550
v 0.0391800 -3.4109825 0.0219650
v 0.0461950 -3.4000000 0.0191350
v 0.0353550 -3.4000000 0.0353550
v 0.0219650 -3.4109825 0.0391800
v 0.0391800 -3.4109825 0.0219650
v 0.0191350 -3.4000000 0.0461950
v 0.0219650 -3.4109825 0.0391800
v 0.0353550 -3.4000000 0.0353550
v 0.0191350 -3.4000000 0.0461950
v 0.0000000 -3.4095675 0.0461950
v 0.0219650 -3.4109825 0.0391800
v 0.0000000 -3.4000000 0.0500000
v 0.0000000 -3.4095675 0.0461950
v 0.0191350 -3.4000000 0.0461950
v 0.0391800 -3.4109825 0.0219650
v 0.0353550 -3.4176775 0.0000000
v 0.0461950 -3.4095675 0.0000000
v 0.0391800 -3.4109825 0.0219650
v 0.0219650 -3.4195900 0.0219650
v 0.0353550 -3.4176775 0.0000000
v 0.0219650 -3.4109825 0.0391800
v 0.0219650 -3.4195900 0.0219650
v 0.0391800 -3.4109825 0.0219650
v 0.0219650 -3.4109825 0.0391800
v 0.0000000 -3.4176775 0.0353550
v 0.0219650 -3.4195900 0.0219650
v 0.0000000 -3.4095675 0.0461950
v 0.0000000 -3.4176775 0.0353550
v 0.0219650 -3.4109825 0.0391800
v 0.0219650 -3.4195900 0.0219650
v 0.0191350 -3.4230975 0.0000000
v 0.0353550 -3.4176775 0.0000000
v 0.0219650 -3.4195900 0.0219650
v 0.0000000 -3.4230975 0.0191350
v 0.0191350 -3.4230975 0.0000000
v 0.0000000 -3.4176775 0.0353550
v 0.0000000 -3.4230975 0.0191350
v 0.0219650 -3.4195900 0.0219650
v 0.0000000 -3.4230975 0.0191350
v 0.0000000 -3.4250000 0.0000000
v 0.0191350 -3.4230975 0.0000000
v 0.0500000 -3.4000000 0.0000000
v 0.0461950 -3.4095675 0.0000000
v 0.0461950 -3.4000000 -0.0191350
v 0.0461950 -3.4095675 0.0000000
v 0.0391800 -3.4109825 -0.0219650
v 0.0461950 -3.4000000 -0.0191350
v 0.0461950 -3.4000000 -0.0191350
v 0.0391800 -3.4109825 -0.0219650
v 0.0353550 -3.4000000 -0.0353550
v 0.0391800 -3.4109825 -0.0219650
v 0.0219650 -3.4109825 -0.0391800
v 0.0353550 -3.4000000 -0.0353550
v 0.0353550 -3.4000000 -0.0353550
v 0.0219650 -3.4109825 -0.0391800
v 0.0191350 -3.4000000 -0.0461950
v 0.0219650 -3.4109825 -0.0391800
v 0.0000000 -3.4095675 -0.0461950
v 0.0191350 -3.4000000 -0.0461950
v 0.0191350 -3.4000000 -0.0461950
v 0.0000000 -3.4095675 -0.0461950
v 0.0000000 -3.4000000 -0.0500000
v 0.0461950 -3.4095675 0.0000000
v 0.0353550 -3.4176775 0.0000000
v 0.0391800 -3.4109825 -0.0219650
v 0.0353550 -3.4176775 0.0000000
v 0.0219650 -3.4195900 -0.0219650
v 0.0391800 -3.4109825 -0.0219650
v 0.0391800 -3.4109825 -0.0219650
v 0.0219650 -3.4195900 -0.0219650
v 0.0219650 -3.4109825 -0.0391800
v 0.0219650 -3.4195900 -0.0219650
v 0.0000000 -3.4176775 -0.0353550
v 0.0219650 -3.4109825 -0.0391800
v 0.0219650 -3.4109825 -0.0391800
v 0.0000000 -3.4176775 -0.0353550
v 0.0000000 -3.4095675 -0.0461950
v 0.0353550 -3.4176775 0.0000000
v 0.0191350 -3.4230975 0.0000000
v 0.0219650 -3.4195900 -0.0219650
v 0.0191350 -3.4230975 0.0000000
v 0.0000000 -3.4230975 -0.0191350
v 0.0219650 -3.4195900 -0.0219650
v 0.0219650 -3.4195900 -0.0219650
v 0.0000000 -3.4230975 -0.0191350
v 0.0000000 -3.4176775 -0.0353550
v 0.0191350 -3.4230975 0.0000000
v 0.0000000 -3.4250000 0.0000000
v 0.0000000 -3.4230975 -0.0191350
v -0.0500000 -3.4000000 0.0000000
v -0.0461950 -3.4095675 0.0000000
v -0.0461950 -3.4000000 0.0191350
v -0.0461950 -3.4095675 0.0000000
v -0.0391800 -3.4109825 0.0219650
v -0.0461950 -3.4000000 0.0191350
v -0.0461950 -3.4000000 0.0191350
v -0.0391800 -3.4109825 0.0219650
v -0.0353550 -3.4000000 0.0353550
v -0.0391800 -3.4109825 0.0219650
v -0.0219650 -3.4109825 0.0391800
v -0.0353550 -3.4000000 0.0353550
v -0.0353550 -3.4000000 0.0353550
v -0.0219650 -3.4109825 0.0391800
v -0.0191350 -3.4000000 0.0461950
v -0.0219650 -3.4109825 0.0391800
v 0.0000000 -3.4095675 0.0461950
v -0.0191350 -3.4000000 0.0461950
v -0.0191350 -3.4000000 0.0461950
v 0.0000000 -3.4095675 0.0461950
v 0.0000000 -3.4000000 0.0500000
v -0.0461950 -3.4095675 0.0000000
v -0.0353550 -3.4176775 0.0000000
v -0.0391800 -3.4109825 0.0219650
v -0.0353550 -3.4176775 0.0000000
v -0.0219650 -3.4195900 0.0219650
v -0.0391800 -3.4109825 0.0219650
v -0.0391800 -3.4109825 0.0219650
v -0.0219650 -3.4195900 0.0219650
v -0.0219650 -3.4109825 0.0391800
v -0.0219650 -3.4195900 0.0219650
v 0.0000000 -3.4176775 0.0353550
v -0.0219650 -3.4109825 0.0391800
v -0.0219650 -3.4109825 0.0391800
v 0.0000000 -3.4176775 0.0353550
v 0.0000000 -3.4095675 0.0461950
v -0.0353550 -3.4176775 0.0000000
v -0.0191350 -3.4230975 0.0000000
v -0.0219650 -3.4195900 0.0219650
v -0.0191350 -3.4230975 0.0000000
v 0.0000000 -3.4230975 0.0191350
v -0.0219650 -3.4195900 0.0219650
v -0.0219650 -3.4195900 0.0219650
v 0.0000000 -3.4230975 0.0191350
v 0.0000000 -3.4176775 0.0353550
v -0.0191350 -3.4230975 0.0000000
v 0.0000000 -3.4250000 0.0000000
v 0.0000000 -3.4230975 0.0191350
v -0.0461950 -3.4000000 -0.0191350
v -0.0461950 -3.4095675 0.0000000
v -0.0500000 -3.4000000 0.0000000
v -0.0461950 -3.4000000 -0.0191350
v -0.0391800 -3.4109825 -0.0219650
v -0.0461950 -3.4095675 0.0000000
v -0.0353550 -3.4000000 -0.0353550
v -0.0391800 -3.4109825 -0.0219650
v -0.0461950 -3.4000000 -0.0191350
v -0.0353550 -3.4000000 -0.0353550
v -0.0219650 -3.4109825 -0.0391800
v -0.0391800 -3.4109825 -0.0219650
v -0.0191350 -3.4000000 -0.0461950
v -0.0219650 -3.4109825 -0.0391800
v -0.0353550 -3.4000000 -0.0353550
v -0.0191350 -3.4000000 -0.0461950
v 0.0000000 -3.4095675 -0.0461950
v -0.0219650 -3.4109825 -0.0391800
v 0.0000000 -3.4000000 -0.0500000
v 0.0000000 -3.4095675 -0.0461950
v -0.0191350 -3.4000000 -0.0461950
v -0.0391800 -3.4109825 -0.0219650
v -0.0353550 -3.4176775 0.0000000
v -0.0461950 -3.4095675 0.0000000
v -0.0391800 -3.4109825 -0.0219650
v -0.0219650 -3.4195900 -0.0219650
v -0.0353550 -3.4176775 0.0000000
v -0.0219650 -3.4109825 -0.0391800
v -0.0219650 -3.4195900 -0.0219650
v -0.0391800 -3.4109825 -0.0219650
v -0.0219650 -3.4109825 -0.0391800
v 0.0000000 -3.4176775 -0.0353550
v -0.0219650 -3.4195900 -0.0219650
v 0.0000000 -3.4095675 -0.0461950
v 0.0000000 -3.4176775 -0.0353550
v -0.0219650 -3.4109825 -0.0391800
v -0.0219650 -3.4195900 -0.0219650
v -0.0191350 -3.4230975 0.0000000
v -0.0353550 -3.4176775 0.0000000
v -0.0219650 -3.4195900 -0.0219650
v 0.0000000 -3.4230975 -0.0191350
v -0.0191350 -3.4230975 0.0000000
v 0.0000000 -3.4176775 -0.0353550
v 0.0000000 -3.4230975 -0.0191350
v -0.0219650 -3.4195900 -0.0219650
v 0.0000000 -3.4230975 -0.0191350
v 0.0000000 -3.4250000 0.0000000
v -0.0191350 -3.4230975 0.0000000
v 0.1750000 -3.4000000 0.0750000
v -0.0250000 -3.4000000 0.0750000
v -0.0250000 -3.4000000 -0.0750000
v 0.1750000 -3.4000000 -0.0750000
v 0.1750000 -3.3500000 0.0750000
v -0.0250000 -3.3500000 0.0750000
v -0.0250000 -3.4000000 0.0750000
v 0.1750000 -3.4000000 0.0750000
v -0.0250000 -3.3500000 -0.0750000
v 0.1750000 -3.3500000 -0.0750000
v 0.1750000 -3.4000000 -0.0750000
v -0.0250000 -3.4000000 -0.0750000
v 0.1750000 -3.3500000 -0.0750000
v 0.1750000 -3.3500000 0.0750000
v 0.1750000 -3.4000000 0.0750000
v 0.1750000 -3.4000000 -0.0750000
v 0.1750000 -3.3500000 0.0750000
v 0.1750000 -3.3500000 -0.0750000
v -0.0250000 -3.3500000 -0.0750000
v -0.0250000 -3.3500000 0.0750000
v 0.7250000 -0.8250000 -0.0500000
v 0.8750000 -0.8250000 -0.0500000
v 0.8750000 -0.9750000 -0.0500000
v 0.7250000 -0.9750000 -0.0500000
v 0.7250000 -0.3250000 -0.0500000
v 0.8750000 -0.3250000 -0.0500000
v 0.8750000 -0.8250000 -0.0500000
v 0.7250000 -0.8250000 -0.0500000
v -0.0750000 -0.1250000 -0.0500000
v 1.6750000 -0.1250000 -0.0500000
v 0.8750000 -0.3250000 -0.0500000
v 0.7250000 -0.3250000 -0.0500000
v 0.7250000 -0.9750000 -0.0500000
v 0.8750000 -0.9750000 -0.0500000
v 0.8750000 -1.4750000 -0.0500000
v 0.7250000 -1.4750000 -0.0500000
v 0.7250000 -1.4750000 -0.0500000
v 0.8750000 -1.4750000 -0.0500000
v 1.2250000 -1.9250000 -0.0500000
v 0.1000000 -1.9250000 -0.0500000
v 0.1000000 -0.8250000 -0.0500000
v 0.7250000 -0.8250000 -0.0500000
v 0.7250000 -0.9750000 -0.0500000
v 0.1000000 -0.9750000 -0.0500000
v 0.1000000 -0.9750000 -0.0500000
v -0.0750000 -3.3750000 -0.0500000
v -0.0750000 -0.1250000 -0.0500000
v 0.1000000 -0.8250000 -0.0500000
v 0.8750000 -0.8250000 -0.0500000
v 1.5000000 -0.8250000 -0.0500000
v 1.5000000 -0.9750000 -0.0500000
v 0.8750000 -0.9750000 -0.0500000
v 1.6750000 -1.4750000 -0.0500000
v 1.5000000 -0.9750000 -0.0500000
v 1.5000000 -0.8250000 -0.0500000
v 1.6750000 -0.1250000 -0.0500000
v 1.6750000 -0.1250000 0.0500000
v 1.5000000 -0.8250000 0.0500000
v 1.5000000 -0.9750000 0.0500000
v 1.6750000 -1.4750000 0.0500000
v 1.5000000 -3.1750000 0.0500000
v 0.1000000 -3.1750000 0.0500000
v -0.0750000 -3.3750000 0.0500000
v 1.6750000 -3.3750000 0.0500000
v 1.6750000 -0.1250000 0.0500000
v 0.8750000 -0.3250000 0.0500000
v 1.5000000 -0.3250000 0.0500000
v 1.5000000 -0.3250000 0.0500000
v 1.5000000 -0.8250000 0.0500000
v 1.6750000 -0.1250000 0.0500000
v -0.0750000 -0.1250000 0.0500000
v 0.1000000 -0.8250000 0.0500000
v 0.1000000 -0.3250000 0.0500000
v -0.0750000 -3.3750000 0.0500000
v 0.1000000 -1.4750000 0.0500000
v 0.1000000 -0.9750000 0.0500000
v 0.1000000 -1.9250000 0.0500000
v 0.1000000 -1.4750000 0.0500000
v -0.0750000 -3.3750000 0.0500000
v 1.5000000 -3.1750000 0.0500000
v 1.6750000 -3.3750000 0.0500000
v 1.6750000 -1.9250000 0.0500000
v 1.5000000 -1.9250000 0.0500000
v 1.2250000 -1.9250000 0.0500000
v 1.2250000 -1.4750000 0.0500000
v 0.8750000 -1.4750000 0.0500000
v 0.1000000 -1.9250000 0.0500000
v 0.7250000 -1.4750000 0.0500000
v 0.1000000 -1.4750000 0.0500000
v -0.0750000 -3.3750000 0.0500000
v 0.1000000 -3.1750000 0.0500000
v 0.1000000 -1.9250000 0.0500000
v 0.1000000 -0.3250000 0.0500000
v 0.7250000 -0.3250000 0.0500000
v -0.0750000 -0.1250000 0.0500000
v 0.8750000 -0.8250000 0.0500000
v 0.7250000 -0.8250000 0.0500000
v 0.7250000 -0.9750000 0.0500000
v 0.8750000 -0.9750000 0.0500000
v 0.8750000 -0.3250000 0.0500000
v 0.7250000 -0.3250000 0.0500000
v 0.7250000 -0.8250000 0.0500000
v 0.8750000 -0.8250000 0.0500000
v 1.6750000 -0.1250000 0.0500000
v -0.0750000 -0.1250000 0.0500000
v 0.7250000 -0.3250000 0.0500000
v 0.8750000 -0.3250000 0.0500000
v 0.8750000 -0.9750000 0.0500000
v 0.7250000 -0.9750000 0.0500000
v 0.7250000 -1.4750000 0.0500000
v 0.8750000 -1.4750000 0.0500000
v 0.8750000 -1.4750000 0.0500000
v 0.7250000 -1.4750000 0.0500000
v 0.1000000 -1.9250000 0.0500000
v 1.2250000 -1.9250000 0.0500000
v 1.5000000 -0.8250000 0.0500000
v 0.8750000 -0.8250000 0.0500000
v 0.8750000 -0.9750000 0.0500000
v 1.5000000 -0.9750000 0.0500000
v 0.7250000 -0.8250000 0.0500000
v 0.1000000 -0.8250000 0.0500000
v 0.1000000 -0.9750000 0.0500000
v 0.7250000 -0.9750000 0.0500000
v -0.0750000 -3.3750000 0.0500000
v 0.1000000 -0.9750000 0.0500000
v 0.1000000 -0.8250000 0.0500000
v -0.0750000 -0.1250000 0.0500000
v 1.6750000 -0.1250000 0.0500000
v 1.6750000 -0.1250000 -0.0500000
v -0.0750000 -0.1250000 -0.0500000
v -0.0750000 -0.1250000 0.0500000
v -0.0750000 -0.1250000 0.0500000
v -0.0750000 -0.1250000 -0.0500000
v -0.0750000 -3.3750000 -0.0500000
v -0.0750000 -3.3750000 0.0500000
v -0.0750000 -3.3750000 0.0500000
v -0.0750000 -3.3750000 -0.0500000
v 1.6750000 -3.3750000 -0.0500000
v 1.6750000 -3.3750000 0.0500000
v 1.6750000 -3.3750000 0.0500000
v 1.6750000 -3.3750000 -0.0500000
v 1.6750000 -0.1250000 -0.0500000
v 1.6750000 -0.1250000 0.0500000
s off
f 1 2 3
f 1 3 4
f 5 6 7
f 5 7 8
f 9 10 11
f 9 11 12
f 13 14 15
f 13 15 16
f 17 18 19
f 17 19 20
f 21 22 23
f 21 23 24
f 25 26 27
f 25 27 28
f 29 30 31
f 29 31 32
f 33 34 35
f 33 35 36
f 37 38 39
f 37 39 40
f 41 42 43
f 41 43 44
f 45 46 47
f 45 47 48
f 49 50 51
f 49 51 52
f 53 54 55
f 53 55 56
f 57 58 59
f 57 59 60
f 61 62 63
f 61 63 64
f 65 66 67
f 65 67 68
f 69 70 71
f 69 71 72
f 73 74 75
f 73 75 76
f 77 78 79
f 77 79 80
f 81 82 83
f 81 83 84
f 85 86 87
f 85 87 88
f 89 90 91
f 89 91 92
f 93 94 95
f 93 95 96
f 97 98 99
f 97 99 100
f 101 102 103
f 104 105 106
f 107 108 109
f 110 111 112
f 113 114 115
f 116 117 118
f 116 118 119
f 120 121 122
f 123 124 125
f 126 127 128
f 129 130 131
f 132 133 134
f 135 136 137
f 138 139 140
f 141 142 143
f 144 145 146
f 147 148 149
f 150 151 152
f 153 154 155
f 156 157 158
f 159 160 161
f 162 163 164
f 162 164 165
f 166 167 168
f 166 168 169
f 170 171 172
f 170 172 173
f 174 175 176
f 174 176 177
f 178 179 180
f 178 180 181
f 182 183 184
f 182 184 185
f 186 187 188
f 186 188 189
f 190 191 192
f 190 192 193
f 194 195 196
f 197 198 199
f 200 201 202
f 203 204 205
f 206 207 208
f 209 210 211
f 212 213 214
f 215 216 217
f 218 219 220
f 221 222 223
f 224 225 226
f 227 228 229
f 230 231 232
f 233 234 235
f 236 237 238
f 239 240 241
f 242 243 244
f 245 246 247
f 248 249 250
f 251 252 253
f 254 255 256
f 257 258 259
f 260 261 262
f 263 264 265
f 266 267 268
f 266 268 269
f 270 271 272
f 270 272 273
f 274 275 276
f 274 276 277
f 278 279 280
f 278 280 281
f 282 283 284
f 282 284 285
f 286 287 288
f 286 288 289
f 290 291 292
f 290 292 293
f 294 295 296
f 294 296 297
f 298 299 300
f 301 302 303
f 304 305 306
f 307 308 309
f 310 311 312
f 313 314 315
f 316 317 318
f 319 320 321
f 322 323 324
f 325 326 327
f 328 329 330
f 331 332 333
f 334 335 336
f 337 338 339
f 340 341 342
f 343 344 345
f 346 347 348
f 346 348 349
f 350 351 352
f 350 352 353
f 354 355 356
f 354 356 357
f 358 359 360
f 358 360 361
f 362 363 364
f 362 364 365
f 366 367 368
f 366 368 369
f 370 371 372
f 370 372 373
f 374 375 376
f 374 376 377
f 378 379 380
f 381 382 383
f 384 385 386
f 387 388 389
f 390 391 392
f 393 394 395
f 396 397 398
f 399 400 401
f 402 403 404
f 405 406 407
f 408 409 410
f 411 412 413
f 414 415 416
f 417 418 419
f 420 421 422
f 423 424 425
f 426 427 428
f 429 430 431
f 432 433 434
f 435 436 437
f 438 439 440
f 441 442 443
f 444 445 446
f 447 448 449
f 450 451 452
f 453 454 455
f 456 457 458
f 459 460 461
f 462 463 464
f 465 466 467
f 468 469 470
f 471 472 473
f 474 475 476
f 477 478 479
f 480 481 482
f 483 484 485
f 486 487 488
f 489 490 491
f 492 493 494
f 495 496 497
f 498 499 500
f 501 502 503
f 504 505 506
f 507 508 509
f 510 511 512
f 513 514 515
f 516 517 518
f 519 520 521
f 522 523 524
f 525 526 527
f 528 529 530
f 531 532 533
f 534 535 536
f 537 538 539
f 540 541 542
f 543 544 545
f 546 547 548
f 549 550 551
f 552 553 554
f 555 556 557
f 558 559 560
f 561 562 563
f 564 565 566
f 567 568 569
f 570 571 572
f 570 572 573
f 574 575 576
f 574 576 577
f 578 579 580
f 578 580 581
f 582 583 584
f 582 584 585
f 586 587 588
f 586 588 589
f 590 591 592
f 590 592 593
f 594 595 596
f 594 596 597
f 598 599 600
f 598 600 601
f 602 603 604
f 602 604 605
f 606 607 608
f 606 608 609
f 610 611 612
f 610 612 613
f 614 615 616
f 614 616 617
f 618 619 620
f 618 620 621
f 622 623 624
f 622 624 625
f 626 627 628
f 626 628 629
f 630 631 632
f 630 632 633
f 634 635 636
f 634 636 637
f 638 639 640
f 638 640 641
f 642 643 644
f 642 644 645
f 646 647 648
f 646 648 649
f 650 651 652
f 650 652 653
f 654 655 656
f 654 656 657
f 658 659 660
f 658 660 661
f 662 663 664
f 662 664 665
f 666 667 668
f 666 668 669
f 670 671 672
f 670 672 673
f 674 675 676
f 674 676 677
f 678 679 680
f 678 680 681
f 682 683 684
f 682 684 685
f 686 687 688
f 686 688 689
f 690 691 692
f 690 692 693
f 694 695 696
f 694 696 697
f 698 699 700
f 698 700 701
f 702 703 704
f 702 704 705
f 706 707 708
f 706 708 709
f 710 711 712
f 710 712 713
f 714 715 716
f 714 716 717
f 718 719 720
f 718 720 721
f 722 723 724
f 722 724 725
f 726 727 728
f 726 728 729
f 730 731 732
f 730 732 733
f 734 735 736
f 734 736 737
f 738 739 740
f 738 740 741
f 742 743 744
f 742 744 745
f 746 747 748
f 746 748 749
f 750 751 752
f 750 752 753
f 754 755 756
f 754 756 757
f 758 759 760
f 758 760 761
f 762 763 764
f 762 764 765
f 766 767 768
f 766 768 769
f 770 771 772
f 770 772 773
f 774 775 776
f 774 776 777
f 778 779 780
f 778 780 781
f 782 783 784
f 782 784 785
f 786 787 788
f 786 788 789
f 790 791 792
f 790 792 793
f 794 795 796
f 794 796 797
f 798 799 800
f 798 800 801
f 802 803 804
f 802 804 805
f 806 807 808
f 806 808 809
f 810 811 812
f 810 812 813
f 814 815 816
f 814 816 817
f 818 819 820
f 821 822 823
f 824 825 826
f 827 828 829
f 830 831 832
f 833 834 835
f 836 837 838
f 839 840 841
f 842 843 844
f 842 844 845
f 846 847 848
f 846 848 849
f 850 851 852
f 850 852 853
f 854 855 856
f 854 856 857
f 858 859 860
f 858 860 861
f 862 863 864
f 862 864 865
f 866 867 868
f 866 868 869
f 870 871 872
f 870 872 873
f 874 875 876
f 874 876 877
f 878 879 880
f 878 880 881
f 882 883 884
f 882 884 885
f 886 887 888
f 886 888 889
f 890 891 892
f 890 892 893
f 894 895 896
f 894 896 897
f 898 899 900
f 898 900 901
f 902 903 904
f 902 904 905
f 906 907 908
f 906 908 909
f 910 911 912
f 910 912 913
f 914 915 916
f 914 916 917
f 918 919 920
f 918 920 921
f 922 923 924
f 922 924 925
f 926 927 928
f 926 928 929
f 930 931 932
f 930 932 933
f 934 935 936
f 934 936 937
f 938 939 940
f 938 940 941
f 942 943 944
f 942 944 945
f 946 947 948
f 946 948 949
f 950 951 952
f 950 952 953
f 954 955 956
f 954 956 957
f 958 959 960
f 958 960 961
f 962 963 964
f 962 964 965
f 966 967 968
f 966 968 969
f 970 971 972
f 970 972 973
f 974 975 976
f 974 976 977
f 978 979 980
f 978 980 981
f 982 983 984
f 982 984 985
f 986 987 988
f 986 988 989
f 990 991 992
f 990 992 993
f 994 995 996
f 994 996 997
f 998 999 1000
f 998 1000 1001
f 1002 1003 1004
f 1002 1004 1005
f 1006 1007 1008
f 1006 1008 1009
f 1010 1011 1012
f 1010 1012 1013
f 1014 1015 1016
f 1014 1016 1017
f 1018 1019 1020
f 1018 1020 1021
f 1022 1023 1024
f 1022 1024 1025
f 1026 1027 1028
f 1026 1028 1029
f 1030 1031 1032
f 1030 1032 1033
f 1034 1035 1036
f 1034 1036 1037
f 1038 1039 1040
f 1038 1040 1041
f 1042 1043 1044
f 1042 1044 1045
f 1046 1047 1048
f 1046 1048 1049
f 1050 1051 1052
f 1050 1052 1053
f 1054 1055 1056
f 1054 1056 1057
f 1058 1059 1060
f 1058 1060 1061
f 1062 1063 1064
f 1062 1064 1065
f 1066 1067 1068
f 1066 1068 1069
f 1070 1071 1072
f 1070 1072 1073
f 1074 1075 1076
f 1074 1076 1077
f 1078 1079 1080
f 1078 1080 1081
f 1082 1083 1084
f 1082 1084 1085
f 1086 1087 1088
f 1086 1088 1089
f 1090 1091 1092
f 1090 1092 1093
f 1094 1095 1096
f 1094 1096 1097
f 1098 1099 1100
f 1098 1100 1101
f 1102 1103 1104
f 1105 1106 1107
f 1108 1109 1110
f 1111 1112 1113
f 1114 1115 1116
f 1117 1118 1119
f 1120 1121 1122
f 1123 1124 1125
f 1126 1127 1128
f 1126 1128 1129
f 1130 1131 1132
f 1130 1132 1133
f 1134 1135 1136
f 1134 1136 1137
f 1138 1139 1140
f 1138 1140 1141
f 1142 1143 1144
f 1142 1144 1145
f 1146 1147 1148
f 1146 1148 1149
f 1150 1151 1152
f 1150 1152 1153
f 1154 1155 1156
f 1154 1156 1157
f 1158 1159 1160
f 1161 1162 1163
f 1164 1165 1166
f 1167 1168 1169
f 1170 1171 1172
f 1173 1174 1175
f 1176 1177 1178
f 1179 1180 1181
f 1182 1183 1184
f 1185 1186 1187
f 1188 1189 1190
f 1191 1192 1193
f 1194 1195 1196
f 1197 1198 1199
f 1200 1201 1202
f 1203 1204 1205
f 1206 1207 1208
f 1206 1208 1209
f 1210 1211 1212
f 1210 1212 1213
f 1214 1215 1216
f 1214 1216 1217
f 1218 1219 1220
f 1218 1220 1221
f 1222 1223 1224
f 1222 1224 1225
f 1226 1227 1228
f 1226 1228 1229
f 1230 1231 1232
f 1230 1232 1233
f 1234 1235 1236
f 1234 1236 1237
f 1238 1239 1240
f 1241 1242 1243
f 1244 1245 1246
f 1247 1248 1249
f 1250 1251 1252
f 1253 1254 1255
f 1256 1257 1258
f 1259 1260 1261
f 1262 1263 1264
f 1265 1266 1267
f 1268 1269 1270
f 1271 1272 1273
f 1274 1275 1276
f 1277 1278 1279
f 1280 1281 1282
f 1283 1284 1285
f 1286 1287 1288
f 1289 1290 1291
f 1292 1293 1294
f 1295 1296 1297
f 1298 1299 1300
f 1301 1302 1303
f 1304 1305 1306
f 1307 1308 1309
f 1310 1311 1312
f 1313 1314 1315
f 1316 1317 1318
f 1319 1320 1321
f 1322 1323 1324
f 1325 1326 1327
f 1328 1329 1330
f 1331 1332 1333
f 1334 1335 1336
f 1337 1338 1339
f 1340 1341 1342
f 1343 1344 1345
f 1346 1347 1348
f 1349 1350 1351
f 1352 1353 1354
f 1355 1356 1357
f 1358 1359 1360
f 1361 1362 1363
f 1364 1365 1366
f 1367 1368 1369
f 1370 1371 1372
f 1373 1374 1375
f 1376 1377 1378
f 1379 1380 1381
f 1382 1383 1384
f 1385 1386 1387
f 1388 1389 1390
f 1391 1392 1393
f 1394 1395 1396
f 1397 1398 1399
f 1400 1401 1402
f 1403 1404 1405
f 1406 1407 1408
f 1409 1410 1411
f 1412 1413 1414
f 1415 1416 1417
f 1418 1419 1420
f 1421 1422 1423
f 1424 1425 1426
f 1427 1428 1429
f 1430 1431 1432
f 1430 1432 1433
f 1434 1435 1436
f 1434 1436 1437
f 1438 1439 1440
f 1438 1440 1441
f 1442 1443 1444
f 1442 1444 1445
f 1446 1447 1448
f 1446 1448 1449
f 1450 1451 1452
f 1450 1452 1453
f 1454 1455 1456
f 1454 1456 1457
f 1458 1459 1460
f 1458 1460 1461
f 1462 1463 1464
f 1462 1464 1465
f 1466 1467 1468
f 1466 1468 1469
f 1470 1471 1472
f 1470 1472 1473
f 1474 1475 1476
f 1474 1476 1477
f 1478 1479 1480
f 1478 1480 1481
f 1482 1483 1484
f 1482 1484 1485
f 1486 1487 1488
f 1486 1488 1489
f 1490 1491 1492
f 1490 1492 1493
f 1494 1495 1496
f 1497 1498 1499
f 1500 1501 1502
f 1503 1504 1505
f 1506 1507 1508
f 1509 1510 1511
f 1509 1511 1512
f 1513 1514 1515
f 1516 1517 1518
f 1519 1520 1521
f 1522 1523 1524
f 1525 1526 1527
f 1525 1527 1528
f 1529 1530 1531
f 1529 1531 1532
f 1533 1534 1535
f 1533 1535 1536
f 1537 1538 1539
f 1537 1539 1540
f 1541 1542 1543
f 1541 1543 1544
f 1545 1546 1547
f 1545 1547 1548
f 1549 1550 1551
f 1549 1551 1552
f 1553 1554 1555
f 1553 1555 1556
f 1557 1558 1559
f 1557 1559 1560
f 1561 1562 1563
f 1561 1563 1564
f 1565 1566 1567
f 1565 1567 1568
f 1569 1570 1571
f 1569 1571 1572
