# Baked from official LDraw part 60803.dat
o ldraw_60803
v 0.8625000 -0.0000000 0.0000000
v 0.8586950 -0.0000000 -0.0191350
v 0.8471462 0.0112500 -0.0143512
v 0.8500000 0.0112500 0.0000000
v 0.8586950 -0.0000000 -0.0191350
v 0.8478550 -0.0000000 -0.0353550
v 0.8390163 0.0112500 -0.0265163
v 0.8471462 0.0112500 -0.0143512
v 0.8478550 -0.0000000 -0.0353550
v 0.8316350 -0.0000000 -0.0461950
v 0.8268513 0.0112500 -0.0346463
v 0.8390163 0.0112500 -0.0265163
v 0.8316350 -0.0000000 -0.0461950
v 0.8125000 -0.0000000 -0.0500000
v 0.8125000 0.0112500 -0.0375000
v 0.8268513 0.0112500 -0.0346463
v 0.8125000 -0.0000000 -0.0500000
v 0.7933650 -0.0000000 -0.0461950
v 0.7981488 0.0112500 -0.0346463
v 0.8125000 0.0112500 -0.0375000
v 0.7933650 -0.0000000 -0.0461950
v 0.7771450 -0.0000000 -0.0353550
v 0.7859838 0.0112500 -0.0265163
v 0.7981488 0.0112500 -0.0346463
v 0.7771450 -0.0000000 -0.0353550
v 0.7663050 -0.0000000 -0.0191350
v 0.7778538 0.0112500 -0.0143512
v 0.7859838 0.0112500 -0.0265163
v 0.7663050 -0.0000000 -0.0191350
v 0.7625000 -0.0000000 0.0000000
v 0.7750000 0.0112500 0.0000000
v 0.7778538 0.0112500 -0.0143512
v 0.7625000 -0.0000000 0.0000000
v 0.7663050 -0.0000000 0.0191350
v 0.7778538 0.0112500 0.0143512
v 0.7750000 0.0112500 0.0000000
v 0.7663050 -0.0000000 0.0191350
v 0.7771450 -0.0000000 0.0353550
v 0.7859838 0.0112500 0.0265163
v 0.7778538 0.0112500 0.0143512
v 0.7771450 -0.0000000 0.0353550
v 0.7933650 -0.0000000 0.0461950
v 0.7981488 0.0112500 0.0346463
v 0.7859838 0.0112500 0.0265163
v 0.7933650 -0.0000000 0.0461950
v 0.8125000 -0.0000000 0.0500000
v 0.8125000 0.0112500 0.0375000
v 0.7981488 0.0112500 0.0346463
v 0.8125000 -0.0000000 0.0500000
v 0.8316350 -0.0000000 0.0461950
v 0.8268513 0.0112500 0.0346463
v 0.8125000 0.0112500 0.0375000
v 0.8316350 -0.0000000 0.0461950
v 0.8478550 -0.0000000 0.0353550
v 0.8390163 0.0112500 0.0265163
v 0.8268513 0.0112500 0.0346463
v 0.8478550 -0.0000000 0.0353550
v 0.8586950 -0.0000000 0.0191350
v 0.8471462 0.0112500 0.0143512
v 0.8390163 0.0112500 0.0265163
v 0.8586950 -0.0000000 0.0191350
v 0.8625000 -0.0000000 0.0000000
v 0.8500000 0.0112500 0.0000000
v 0.8471462 0.0112500 0.0143512
v 0.8471462 0.0112500 -0.0143512
v 0.8298231 0.0225000 -0.0071756
v 0.8312500 0.0225000 0.0000000
v 0.8500000 0.0112500 0.0000000
v 0.8390163 0.0112500 -0.0265162
v 0.8257581 0.0225000 -0.0132581
v 0.8298231 0.0225000 -0.0071756
v 0.8471462 0.0112500 -0.0143512
v 0.8268513 0.0112500 -0.0346463
v 0.8196756 0.0225000 -0.0173231
v 0.8257581 0.0225000 -0.0132581
v 0.8390163 0.0112500 -0.0265162
v 0.8125000 0.0112500 -0.0375000
v 0.8125000 0.0225000 -0.0187500
v 0.8196756 0.0225000 -0.0173231
v 0.8268513 0.0112500 -0.0346463
v 0.7981488 0.0112500 -0.0346463
v 0.8053244 0.0225000 -0.0173231
v 0.8125000 0.0225000 -0.0187500
v 0.8125000 0.0112500 -0.0375000
v 0.7859838 0.0112500 -0.0265162
v 0.7992419 0.0225000 -0.0132581
v 0.8053244 0.0225000 -0.0173231
v 0.7981488 0.0112500 -0.0346463
v 0.7778538 0.0112500 -0.0143512
v 0.7951769 0.0225000 -0.0071756
v 0.7992419 0.0225000 -0.0132581
v 0.7859838 0.0112500 -0.0265162
v 0.7750000 0.0112500 0.0000000
v 0.7937500 0.0225000 0.0000000
v 0.7951769 0.0225000 -0.0071756
v 0.7778538 0.0112500 -0.0143512
v 0.7778538 0.0112500 0.0143512
v 0.7951769 0.0225000 0.0071756
v 0.7937500 0.0225000 0.0000000
v 0.7750000 0.0112500 0.0000000
v 0.7859838 0.0112500 0.0265162
v 0.7992419 0.0225000 0.0132581
v 0.7951769 0.0225000 0.0071756
v 0.7778538 0.0112500 0.0143512
v 0.7981488 0.0112500 0.0346463
v 0.8053244 0.0225000 0.0173231
v 0.7992419 0.0225000 0.0132581
v 0.7859838 0.0112500 0.0265162
v 0.8125000 0.0112500 0.0375000
v 0.8125000 0.0225000 0.0187500
v 0.8053244 0.0225000 0.0173231
v 0.7981488 0.0112500 0.0346463
v 0.8268513 0.0112500 0.0346463
v 0.8196756 0.0225000 0.0173231
v 0.8125000 0.0225000 0.0187500
v 0.8125000 0.0112500 0.0375000
v 0.8390163 0.0112500 0.0265162
v 0.8257581 0.0225000 0.0132581
v 0.8196756 0.0225000 0.0173231
v 0.8268513 0.0112500 0.0346463
v 0.8471462 0.0112500 0.0143512
v 0.8298231 0.0225000 0.0071756
v 0.8257581 0.0225000 0.0132581
v 0.8390163 0.0112500 0.0265162
v 0.8500000 0.0112500 0.0000000
v 0.8312500 0.0225000 0.0000000
v 0.8298231 0.0225000 0.0071756
v 0.8471462 0.0112500 0.0143512
v 0.8312500 0.0225000 0.0000000
v 0.8298231 0.0225000 -0.0071756
v 0.8125000 0.0250000 0.0000000
v 0.8298231 0.0225000 -0.0071756
v 0.8257600 0.0225000 -0.0132600
v 0.8125000 0.0250000 0.0000000
v 0.8257600 0.0225000 -0.0132600
v 0.8196756 0.0225000 -0.0173231
v 0.8125000 0.0250000 0.0000000
v 0.8196756 0.0225000 -0.0173231
v 0.8125000 0.0225000 -0.0187500
v 0.8125000 0.0250000 0.0000000
v 0.8125000 0.0225000 -0.0187500
v 0.8053244 0.0225000 -0.0173231
v 0.8125000 0.0250000 0.0000000
v 0.8053244 0.0225000 -0.0173231
v 0.7992400 0.0225000 -0.0132600
v 0.8125000 0.0250000 0.0000000
v 0.7992400 0.0225000 -0.0132600
v 0.7951769 0.0225000 -0.0071756
v 0.8125000 0.0250000 0.0000000
v 0.7951769 0.0225000 -0.0071756
v 0.7937500 0.0225000 0.0000000
v 0.8125000 0.0250000 0.0000000
v 0.7937500 0.0225000 0.0000000
v 0.7951769 0.0225000 0.0071756
v 0.8125000 0.0250000 0.0000000
v 0.7951769 0.0225000 0.0071756
v 0.7992400 0.0225000 0.0132600
v 0.8125000 0.0250000 0.0000000
v 0.7992400 0.0225000 0.0132600
v 0.8053244 0.0225000 0.0173231
v 0.8125000 0.0250000 0.0000000
v 0.8053244 0.0225000 0.0173231
v 0.8125000 0.0225000 0.0187500
v 0.8125000 0.0250000 0.0000000
v 0.8125000 0.0225000 0.0187500
v 0.8196756 0.0225000 0.0173231
v 0.8125000 0.0250000 0.0000000
v 0.8196756 0.0225000 0.0173231
v 0.8257600 0.0225000 0.0132600
v 0.8125000 0.0250000 0.0000000
v 0.8257600 0.0225000 0.0132600
v 0.8298231 0.0225000 0.0071756
v 0.8125000 0.0250000 0.0000000
v 0.8298231 0.0225000 0.0071756
v 0.8312500 0.0225000 0.0000000
v 0.8125000 0.0250000 0.0000000
v -0.7625000 -0.0000000 0.0000000
v -0.7663050 -0.0000000 -0.0191350
v -0.7778538 0.0112500 -0.0143512
v -0.7750000 0.0112500 0.0000000
v -0.7663050 -0.0000000 -0.0191350
v -0.7771450 -0.0000000 -0.0353550
v -0.7859838 0.0112500 -0.0265163
v -0.7778538 0.0112500 -0.0143512
v -0.7771450 -0.0000000 -0.0353550
v -0.7933650 -0.0000000 -0.0461950
v -0.7981488 0.0112500 -0.0346463
v -0.7859838 0.0112500 -0.0265163
v -0.7933650 -0.0000000 -0.0461950
v -0.8125000 -0.0000000 -0.0500000
v -0.8125000 0.0112500 -0.0375000
v -0.7981488 0.0112500 -0.0346463
v -0.8125000 -0.0000000 -0.0500000
v -0.8316350 -0.0000000 -0.0461950
v -0.8268513 0.0112500 -0.0346463
v -0.8125000 0.0112500 -0.0375000
v -0.8316350 -0.0000000 -0.0461950
v -0.8478550 -0.0000000 -0.0353550
v -0.8390163 0.0112500 -0.0265163
v -0.8268513 0.0112500 -0.0346463
v -0.8478550 -0.0000000 -0.0353550
v -0.8586950 -0.0000000 -0.0191350
v -0.8471462 0.0112500 -0.0143512
v -0.8390163 0.0112500 -0.0265163
v -0.8586950 -0.0000000 -0.0191350
v -0.8625000 -0.0000000 0.0000000
v -0.8500000 0.0112500 0.0000000
v -0.8471462 0.0112500 -0.0143512
v -0.8625000 -0.0000000 0.0000000
v -0.8586950 -0.0000000 0.0191350
v -0.8471462 0.0112500 0.0143512
v -0.8500000 0.0112500 0.0000000
v -0.8586950 -0.0000000 0.0191350
v -0.8478550 -0.0000000 0.0353550
v -0.8390163 0.0112500 0.0265163
v -0.8471462 0.0112500 0.0143512
v -0.8478550 -0.0000000 0.0353550
v -0.8316350 -0.0000000 0.0461950
v -0.8268513 0.0112500 0.0346463
v -0.8390163 0.0112500 0.0265163
v -0.8316350 -0.0000000 0.0461950
v -0.8125000 -0.0000000 0.0500000
v -0.8125000 0.0112500 0.0375000
v -0.8268513 0.0112500 0.0346463
v -0.8125000 -0.0000000 0.0500000
v -0.7933650 -0.0000000 0.0461950
v -0.7981488 0.0112500 0.0346463
v -0.8125000 0.0112500 0.0375000
v -0.7933650 -0.0000000 0.0461950
v -0.7771450 -0.0000000 0.0353550
v -0.7859838 0.0112500 0.0265163
v -0.7981488 0.0112500 0.0346463
v -0.7771450 -0.0000000 0.0353550
v -0.7663050 -0.0000000 0.0191350
v -0.7778538 0.0112500 0.0143512
v -0.7859838 0.0112500 0.0265163
v -0.7663050 -0.0000000 0.0191350
v -0.7625000 -0.0000000 0.0000000
v -0.7750000 0.0112500 0.0000000
v -0.7778538 0.0112500 0.0143512
v -0.7778538 0.0112500 -0.0143512
v -0.7951769 0.0225000 -0.0071756
v -0.7937500 0.0225000 0.0000000
v -0.7750000 0.0112500 0.0000000
v -0.7859838 0.0112500 -0.0265162
v -0.7992419 0.0225000 -0.0132581
v -0.7951769 0.0225000 -0.0071756
v -0.7778538 0.0112500 -0.0143512
v -0.7981488 0.0112500 -0.0346463
v -0.8053244 0.0225000 -0.0173231
v -0.7992419 0.0225000 -0.0132581
v -0.7859838 0.0112500 -0.0265162
v -0.8125000 0.0112500 -0.0375000
v -0.8125000 0.0225000 -0.0187500
v -0.8053244 0.0225000 -0.0173231
v -0.7981488 0.0112500 -0.0346463
v -0.8268513 0.0112500 -0.0346463
v -0.8196756 0.0225000 -0.0173231
v -0.8125000 0.0225000 -0.0187500
v -0.8125000 0.0112500 -0.0375000
v -0.8390163 0.0112500 -0.0265162
v -0.8257581 0.0225000 -0.0132581
v -0.8196756 0.0225000 -0.0173231
v -0.8268513 0.0112500 -0.0346463
v -0.8471462 0.0112500 -0.0143512
v -0.8298231 0.0225000 -0.0071756
v -0.8257581 0.0225000 -0.0132581
v -0.8390163 0.0112500 -0.0265162
v -0.8500000 0.0112500 0.0000000
v -0.8312500 0.0225000 0.0000000
v -0.8298231 0.0225000 -0.0071756
v -0.8471462 0.0112500 -0.0143512
v -0.8471462 0.0112500 0.0143512
v -0.8298231 0.0225000 0.0071756
v -0.8312500 0.0225000 0.0000000
v -0.8500000 0.0112500 0.0000000
v -0.8390163 0.0112500 0.0265162
v -0.8257581 0.0225000 0.0132581
v -0.8298231 0.0225000 0.0071756
v -0.8471462 0.0112500 0.0143512
v -0.8268513 0.0112500 0.0346463
v -0.8196756 0.0225000 0.0173231
v -0.8257581 0.0225000 0.0132581
v -0.8390163 0.0112500 0.0265162
v -0.8125000 0.0112500 0.0375000
v -0.8125000 0.0225000 0.0187500
v -0.8196756 0.0225000 0.0173231
v -0.8268513 0.0112500 0.0346463
v -0.7981488 0.0112500 0.0346463
v -0.8053244 0.0225000 0.0173231
v -0.8125000 0.0225000 0.0187500
v -0.8125000 0.0112500 0.0375000
v -0.7859838 0.0112500 0.0265162
v -0.7992419 0.0225000 0.0132581
v -0.8053244 0.0225000 0.0173231
v -0.7981488 0.0112500 0.0346463
v -0.7778538 0.0112500 0.0143512
v -0.7951769 0.0225000 0.0071756
v -0.7992419 0.0225000 0.0132581
v -0.7859838 0.0112500 0.0265162
v -0.7750000 0.0112500 0.0000000
v -0.7937500 0.0225000 0.0000000
v -0.7951769 0.0225000 0.0071756
v -0.7778538 0.0112500 0.0143512
v -0.7937500 0.0225000 0.0000000
v -0.7951769 0.0225000 -0.0071756
v -0.8125000 0.0250000 0.0000000
v -0.7951769 0.0225000 -0.0071756
v -0.7992400 0.0225000 -0.0132600
v -0.8125000 0.0250000 0.0000000
v -0.7992400 0.0225000 -0.0132600
v -0.8053244 0.0225000 -0.0173231
v -0.8125000 0.0250000 0.0000000
v -0.8053244 0.0225000 -0.0173231
v -0.8125000 0.0225000 -0.0187500
v -0.8125000 0.0250000 0.0000000
v -0.8125000 0.0225000 -0.0187500
v -0.8196756 0.0225000 -0.0173231
v -0.8125000 0.0250000 0.0000000
v -0.8196756 0.0225000 -0.0173231
v -0.8257600 0.0225000 -0.0132600
v -0.8125000 0.0250000 0.0000000
v -0.8257600 0.0225000 -0.0132600
v -0.8298231 0.0225000 -0.0071756
v -0.8125000 0.0250000 0.0000000
v -0.8298231 0.0225000 -0.0071756
v -0.8312500 0.0225000 0.0000000
v -0.8125000 0.0250000 0.0000000
v -0.8312500 0.0225000 0.0000000
v -0.8298231 0.0225000 0.0071756
v -0.8125000 0.0250000 0.0000000
v -0.8298231 0.0225000 0.0071756
v -0.8257600 0.0225000 0.0132600
v -0.8125000 0.0250000 0.0000000
v -0.8257600 0.0225000 0.0132600
v -0.8196756 0.0225000 0.0173231
v -0.8125000 0.0250000 0.0000000
v -0.8196756 0.0225000 0.0173231
v -0.8125000 0.0225000 0.0187500
v -0.8125000 0.0250000 0.0000000
v -0.8125000 0.0225000 0.0187500
v -0.8053244 0.0225000 0.0173231
v -0.8125000 0.0250000 0.0000000
v -0.8053244 0.0225000 0.0173231
v -0.7992400 0.0225000 0.0132600
v -0.8125000 0.0250000 0.0000000
v -0.7992400 0.0225000 0.0132600
v -0.7951769 0.0225000 0.0071756
v -0.8125000 0.0250000 0.0000000
v -0.7951769 0.0225000 0.0071756
v -0.7937500 0.0225000 0.0000000
v -0.8125000 0.0250000 0.0000000
v 0.8500000 -3.2987500 0.0000000
v 0.8471462 -3.2987500 -0.0143512
v 0.8586950 -3.2875000 -0.0191350
v 0.8625000 -3.2875000 0.0000000
v 0.8471462 -3.2987500 -0.0143512
v 0.8390163 -3.2987500 -0.0265163
v 0.8478550 -3.2875000 -0.0353550
v 0.8586950 -3.2875000 -0.0191350
v 0.8390163 -3.2987500 -0.0265163
v 0.8268513 -3.2987500 -0.0346463
v 0.8316350 -3.2875000 -0.0461950
v 0.8478550 -3.2875000 -0.0353550
v 0.8268513 -3.2987500 -0.0346463
v 0.8125000 -3.2987500 -0.0375000
v 0.8125000 -3.2875000 -0.0500000
v 0.8316350 -3.2875000 -0.0461950
v 0.8125000 -3.2987500 -0.0375000
v 0.7981488 -3.2987500 -0.0346463
v 0.7933650 -3.2875000 -0.0461950
v 0.8125000 -3.2875000 -0.0500000
v 0.7981488 -3.2987500 -0.0346463
v 0.7859838 -3.2987500 -0.0265163
v 0.7771450 -3.2875000 -0.0353550
v 0.7933650 -3.2875000 -0.0461950
v 0.7859838 -3.2987500 -0.0265163
v 0.7778538 -3.2987500 -0.0143512
v 0.7663050 -3.2875000 -0.0191350
v 0.7771450 -3.2875000 -0.0353550
v 0.7778538 -3.2987500 -0.0143512
v 0.7750000 -3.2987500 0.0000000
v 0.7625000 -3.2875000 0.0000000
v 0.7663050 -3.2875000 -0.0191350
v 0.7750000 -3.2987500 0.0000000
v 0.7778538 -3.2987500 0.0143512
v 0.7663050 -3.2875000 0.0191350
v 0.7625000 -3.2875000 0.0000000
v 0.7778538 -3.2987500 0.0143512
v 0.7859838 -3.2987500 0.0265163
v 0.7771450 -3.2875000 0.0353550
v 0.7663050 -3.2875000 0.0191350
v 0.7859838 -3.2987500 0.0265163
v 0.7981488 -3.2987500 0.0346463
v 0.7933650 -3.2875000 0.0461950
v 0.7771450 -3.2875000 0.0353550
v 0.7981488 -3.2987500 0.0346463
v 0.8125000 -3.2987500 0.0375000
v 0.8125000 -3.2875000 0.0500000
v 0.7933650 -3.2875000 0.0461950
v 0.8125000 -3.2987500 0.0375000
v 0.8268513 -3.2987500 0.0346463
v 0.8316350 -3.2875000 0.0461950
v 0.8125000 -3.2875000 0.0500000
v 0.8268513 -3.2987500 0.0346463
v 0.8390163 -3.2987500 0.0265163
v 0.8478550 -3.2875000 0.0353550
v 0.8316350 -3.2875000 0.0461950
v 0.8390163 -3.2987500 0.0265163
v 0.8471462 -3.2987500 0.0143512
v 0.8586950 -3.2875000 0.0191350
v 0.8478550 -3.2875000 0.0353550
v 0.8471462 -3.2987500 0.0143512
v 0.8500000 -3.2987500 0.0000000
v 0.8625000 -3.2875000 0.0000000
v 0.8586950 -3.2875000 0.0191350
v 0.8500000 -3.2987500 0.0000000
v 0.8312500 -3.3100000 0.0000000
v 0.8298231 -3.3100000 -0.0071756
v 0.8471462 -3.2987500 -0.0143512
v 0.8471462 -3.2987500 -0.0143512
v 0.8298231 -3.3100000 -0.0071756
v 0.8257581 -3.3100000 -0.0132581
v 0.8390163 -3.2987500 -0.0265162
v 0.8390163 -3.2987500 -0.0265162
v 0.8257581 -3.3100000 -0.0132581
v 0.8196756 -3.3100000 -0.0173231
v 0.8268513 -3.2987500 -0.0346463
v 0.8268513 -3.2987500 -0.0346463
v 0.8196756 -3.3100000 -0.0173231
v 0.8125000 -3.3100000 -0.0187500
v 0.8125000 -3.2987500 -0.0375000
v 0.8125000 -3.2987500 -0.0375000
v 0.8125000 -3.3100000 -0.0187500
v 0.8053244 -3.3100000 -0.0173231
v 0.7981488 -3.2987500 -0.0346463
v 0.7981488 -3.2987500 -0.0346463
v 0.8053244 -3.3100000 -0.0173231
v 0.7992419 -3.3100000 -0.0132581
v 0.7859838 -3.2987500 -0.0265162
v 0.7859838 -3.2987500 -0.0265162
v 0.7992419 -3.3100000 -0.0132581
v 0.7951769 -3.3100000 -0.0071756
v 0.7778538 -3.2987500 -0.0143512
v 0.7778538 -3.2987500 -0.0143512
v 0.7951769 -3.3100000 -0.0071756
v 0.7937500 -3.3100000 0.0000000
v 0.7750000 -3.2987500 0.0000000
v 0.7750000 -3.2987500 0.0000000
v 0.7937500 -3.3100000 0.0000000
v 0.7951769 -3.3100000 0.0071756
v 0.7778538 -3.2987500 0.0143512
v 0.7778538 -3.2987500 0.0143512
v 0.7951769 -3.3100000 0.0071756
v 0.7992419 -3.3100000 0.0132581
v 0.7859838 -3.2987500 0.0265162
v 0.7859838 -3.2987500 0.0265162
v 0.7992419 -3.3100000 0.0132581
v 0.8053244 -3.3100000 0.0173231
v 0.7981488 -3.2987500 0.0346463
v 0.7981488 -3.2987500 0.0346463
v 0.8053244 -3.3100000 0.0173231
v 0.8125000 -3.3100000 0.0187500
v 0.8125000 -3.2987500 0.0375000
v 0.8125000 -3.2987500 0.0375000
v 0.8125000 -3.3100000 0.0187500
v 0.8196756 -3.3100000 0.0173231
v 0.8268513 -3.2987500 0.0346463
v 0.8268513 -3.2987500 0.0346463
v 0.8196756 -3.3100000 0.0173231
v 0.8257581 -3.3100000 0.0132581
v 0.8390163 -3.2987500 0.0265162
v 0.8390163 -3.2987500 0.0265162
v 0.8257581 -3.3100000 0.0132581
v 0.8298231 -3.3100000 0.0071756
v 0.8471462 -3.2987500 0.0143512
v 0.8471462 -3.2987500 0.0143512
v 0.8298231 -3.3100000 0.0071756
v 0.8312500 -3.3100000 0.0000000
v 0.8500000 -3.2987500 0.0000000
v 0.8125000 -3.3125000 0.0000000
v 0.8298231 -3.3100000 -0.0071756
v 0.8312500 -3.3100000 0.0000000
v 0.8125000 -3.3125000 0.0000000
v 0.8257600 -3.3100000 -0.0132600
v 0.8298231 -3.3100000 -0.0071756
v 0.8125000 -3.3125000 0.0000000
v 0.8196756 -3.3100000 -0.0173231
v 0.8257600 -3.3100000 -0.0132600
v 0.8125000 -3.3125000 0.0000000
v 0.8125000 -3.3100000 -0.0187500
v 0.8196756 -3.3100000 -0.0173231
v 0.8125000 -3.3125000 0.0000000
v 0.8053244 -3.3100000 -0.0173231
v 0.8125000 -3.3100000 -0.0187500
v 0.8125000 -3.3125000 0.0000000
v 0.7992400 -3.3100000 -0.0132600
v 0.8053244 -3.3100000 -0.0173231
v 0.8125000 -3.3125000 0.0000000
v 0.7951769 -3.3100000 -0.0071756
v 0.7992400 -3.3100000 -0.0132600
v 0.8125000 -3.3125000 0.0000000
v 0.7937500 -3.3100000 0.0000000
v 0.7951769 -3.3100000 -0.0071756
v 0.8125000 -3.3125000 0.0000000
v 0.7951769 -3.3100000 0.0071756
v 0.7937500 -3.3100000 0.0000000
v 0.8125000 -3.3125000 0.0000000
v 0.7992400 -3.3100000 0.0132600
v 0.7951769 -3.3100000 0.0071756
v 0.8125000 -3.3125000 0.0000000
v 0.8053244 -3.3100000 0.0173231
v 0.7992400 -3.3100000 0.0132600
v 0.8125000 -3.3125000 0.0000000
v 0.8125000 -3.3100000 0.0187500
v 0.8053244 -3.3100000 0.0173231
v 0.8125000 -3.3125000 0.0000000
v 0.8196756 -3.3100000 0.0173231
v 0.8125000 -3.3100000 0.0187500
v 0.8125000 -3.3125000 0.0000000
v 0.8257600 -3.3100000 0.0132600
v 0.8196756 -3.3100000 0.0173231
v 0.8125000 -3.3125000 0.0000000
v 0.8298231 -3.3100000 0.0071756
v 0.8257600 -3.3100000 0.0132600
v 0.8125000 -3.3125000 0.0000000
v 0.8312500 -3.3100000 0.0000000
v 0.8298231 -3.3100000 0.0071756
v -0.7750000 -3.2987500 0.0000000
v -0.7778538 -3.2987500 -0.0143512
v -0.7663050 -3.2875000 -0.0191350
v -0.7625000 -3.2875000 0.0000000
v -0.7778538 -3.2987500 -0.0143512
v -0.7859838 -3.2987500 -0.0265163
v -0.7771450 -3.2875000 -0.0353550
v -0.7663050 -3.2875000 -0.0191350
v -0.7859838 -3.2987500 -0.0265163
v -0.7981488 -3.2987500 -0.0346463
v -0.7933650 -3.2875000 -0.0461950
v -0.7771450 -3.2875000 -0.0353550
v -0.7981488 -3.2987500 -0.0346463
v -0.8125000 -3.2987500 -0.0375000
v -0.8125000 -3.2875000 -0.0500000
v -0.7933650 -3.2875000 -0.0461950
v -0.8125000 -3.2987500 -0.0375000
v -0.8268513 -3.2987500 -0.0346463
v -0.8316350 -3.2875000 -0.0461950
v -0.8125000 -3.2875000 -0.0500000
v -0.8268513 -3.2987500 -0.0346463
v -0.8390163 -3.2987500 -0.0265163
v -0.8478550 -3.2875000 -0.0353550
v -0.8316350 -3.2875000 -0.0461950
v -0.8390163 -3.2987500 -0.0265163
v -0.8471462 -3.2987500 -0.0143512
v -0.8586950 -3.2875000 -0.0191350
v -0.8478550 -3.2875000 -0.0353550
v -0.8471462 -3.2987500 -0.0143512
v -0.8500000 -3.2987500 0.0000000
v -0.8625000 -3.2875000 0.0000000
v -0.8586950 -3.2875000 -0.0191350
v -0.8500000 -3.2987500 0.0000000
v -0.8471462 -3.2987500 0.0143512
v -0.8586950 -3.2875000 0.0191350
v -0.8625000 -3.2875000 0.0000000
v -0.8471462 -3.2987500 0.0143512
v -0.8390163 -3.2987500 0.0265163
v -0.8478550 -3.2875000 0.0353550
v -0.8586950 -3.2875000 0.0191350
v -0.8390163 -3.2987500 0.0265163
v -0.8268513 -3.2987500 0.0346463
v -0.8316350 -3.2875000 0.0461950
v -0.8478550 -3.2875000 0.0353550
v -0.8268513 -3.2987500 0.0346463
v -0.8125000 -3.2987500 0.0375000
v -0.8125000 -3.2875000 0.0500000
v -0.8316350 -3.2875000 0.0461950
v -0.8125000 -3.2987500 0.0375000
v -0.7981488 -3.2987500 0.0346463
v -0.7933650 -3.2875000 0.0461950
v -0.8125000 -3.2875000 0.0500000
v -0.7981488 -3.2987500 0.0346463
v -0.7859838 -3.2987500 0.0265163
v -0.7771450 -3.2875000 0.0353550
v -0.7933650 -3.2875000 0.0461950
v -0.7859838 -3.2987500 0.0265163
v -0.7778538 -3.2987500 0.0143512
v -0.7663050 -3.2875000 0.0191350
v -0.7771450 -3.2875000 0.0353550
v -0.7778538 -3.2987500 0.0143512
v -0.7750000 -3.2987500 0.0000000
v -0.7625000 -3.2875000 0.0000000
v -0.7663050 -3.2875000 0.0191350
v -0.7750000 -3.2987500 0.0000000
v -0.7937500 -3.3100000 0.0000000
v -0.7951769 -3.3100000 -0.0071756
v -0.7778538 -3.2987500 -0.0143512
v -0.7778538 -3.2987500 -0.0143512
v -0.7951769 -3.3100000 -0.0071756
v -0.7992419 -3.3100000 -0.0132581
v -0.7859838 -3.2987500 -0.0265162
v -0.7859838 -3.2987500 -0.0265162
v -0.7992419 -3.3100000 -0.0132581
v -0.8053244 -3.3100000 -0.0173231
v -0.7981488 -3.2987500 -0.0346463
v -0.7981488 -3.2987500 -0.0346463
v -0.8053244 -3.3100000 -0.0173231
v -0.8125000 -3.3100000 -0.0187500
v -0.8125000 -3.2987500 -0.0375000
v -0.8125000 -3.2987500 -0.0375000
v -0.8125000 -3.3100000 -0.0187500
v -0.8196756 -3.3100000 -0.0173231
v -0.8268513 -3.2987500 -0.0346463
v -0.8268513 -3.2987500 -0.0346463
v -0.8196756 -3.3100000 -0.0173231
v -0.8257581 -3.3100000 -0.0132581
v -0.8390163 -3.2987500 -0.0265162
v -0.8390163 -3.2987500 -0.0265162
v -0.8257581 -3.3100000 -0.0132581
v -0.8298231 -3.3100000 -0.0071756
v -0.8471462 -3.2987500 -0.0143512
v -0.8471462 -3.2987500 -0.0143512
v -0.8298231 -3.3100000 -0.0071756
v -0.8312500 -3.3100000 0.0000000
v -0.8500000 -3.2987500 0.0000000
v -0.8500000 -3.2987500 0.0000000
v -0.8312500 -3.3100000 0.0000000
v -0.8298231 -3.3100000 0.0071756
v -0.8471462 -3.2987500 0.0143512
v -0.8471462 -3.2987500 0.0143512
v -0.8298231 -3.3100000 0.0071756
v -0.8257581 -3.3100000 0.0132581
v -0.8390163 -3.2987500 0.0265162
v -0.8390163 -3.2987500 0.0265162
v -0.8257581 -3.3100000 0.0132581
v -0.8196756 -3.3100000 0.0173231
v -0.8268513 -3.2987500 0.0346463
v -0.8268513 -3.2987500 0.0346463
v -0.8196756 -3.3100000 0.0173231
v -0.8125000 -3.3100000 0.0187500
v -0.8125000 -3.2987500 0.0375000
v -0.8125000 -3.2987500 0.0375000
v -0.8125000 -3.3100000 0.0187500
v -0.8053244 -3.3100000 0.0173231
v -0.7981488 -3.2987500 0.0346463
v -0.7981488 -3.2987500 0.0346463
v -0.8053244 -3.3100000 0.0173231
v -0.7992419 -3.3100000 0.0132581
v -0.7859838 -3.2987500 0.0265162
v -0.7859838 -3.2987500 0.0265162
v -0.7992419 -3.3100000 0.0132581
v -0.7951769 -3.3100000 0.0071756
v -0.7778538 -3.2987500 0.0143512
v -0.7778538 -3.2987500 0.0143512
v -0.7951769 -3.3100000 0.0071756
v -0.7937500 -3.3100000 0.0000000
v -0.7750000 -3.2987500 0.0000000
v -0.8125000 -3.3125000 0.0000000
v -0.7951769 -3.3100000 -0.0071756
v -0.7937500 -3.3100000 0.0000000
v -0.8125000 -3.3125000 0.0000000
v -0.7992400 -3.3100000 -0.0132600
v -0.7951769 -3.3100000 -0.0071756
v -0.8125000 -3.3125000 0.0000000
v -0.8053244 -3.3100000 -0.0173231
v -0.7992400 -3.3100000 -0.0132600
v -0.8125000 -3.3125000 0.0000000
v -0.8125000 -3.3100000 -0.0187500
v -0.8053244 -3.3100000 -0.0173231
v -0.8125000 -3.3125000 0.0000000
v -0.8196756 -3.3100000 -0.0173231
v -0.8125000 -3.3100000 -0.0187500
v -0.8125000 -3.3125000 0.0000000
v -0.8257600 -3.3100000 -0.0132600
v -0.8196756 -3.3100000 -0.0173231
v -0.8125000 -3.3125000 0.0000000
v -0.8298231 -3.3100000 -0.0071756
v -0.8257600 -3.3100000 -0.0132600
v -0.8125000 -3.3125000 0.0000000
v -0.8312500 -3.3100000 0.0000000
v -0.8298231 -3.3100000 -0.0071756
v -0.8125000 -3.3125000 0.0000000
v -0.8298231 -3.3100000 0.0071756
v -0.8312500 -3.3100000 0.0000000
v -0.8125000 -3.3125000 0.0000000
v -0.8257600 -3.3100000 0.0132600
v -0.8298231 -3.3100000 0.0071756
v -0.8125000 -3.3125000 0.0000000
v -0.8196756 -3.3100000 0.0173231
v -0.8257600 -3.3100000 0.0132600
v -0.8125000 -3.3125000 0.0000000
v -0.8125000 -3.3100000 0.0187500
v -0.8196756 -3.3100000 0.0173231
v -0.8125000 -3.3125000 0.0000000
v -0.8053244 -3.3100000 0.0173231
v -0.8125000 -3.3100000 0.0187500
v -0.8125000 -3.3125000 0.0000000
v -0.7992400 -3.3100000 0.0132600
v -0.8053244 -3.3100000 0.0173231
v -0.8125000 -3.3125000 0.0000000
v -0.7951769 -3.3100000 0.0071756
v -0.7992400 -3.3100000 0.0132600
v -0.8125000 -3.3125000 0.0000000
v -0.7937500 -3.3100000 0.0000000
v -0.7951769 -3.3100000 0.0071756
v 0.8625000 -0.0000000 0.0500000
v 0.8625000 -0.0000000 0.0000000
v 0.8586950 -0.0000000 0.0191350
v 0.8625000 -0.0000000 0.0500000
v 0.8586950 -0.0000000 0.0191350
v 0.8478550 -0.0000000 0.0353550
v 0.8625000 -0.0000000 0.0500000
v 0.8478550 -0.0000000 0.0353550
v 0.8316350 -0.0000000 0.0461950
v 0.8625000 -0.0000000 0.0500000
v 0.8316350 -0.0000000 0.0461950
v 0.8125000 -0.0000000 0.0500000
v 0.7625000 -0.0000000 0.0500000
v 0.8125000 -0.0000000 0.0500000
v 0.7933650 -0.0000000 0.0461950
v 0.7625000 -0.0000000 0.0500000
v 0.7933650 -0.0000000 0.0461950
v 0.7771450 -0.0000000 0.0353550
v 0.7625000 -0.0000000 0.0500000
v 0.7771450 -0.0000000 0.0353550
v 0.7663050 -0.0000000 0.0191350
v 0.7625000 -0.0000000 0.0500000
v 0.7663050 -0.0000000 0.0191350
v 0.7625000 -0.0000000 0.0000000
v 0.7625000 -0.0000000 -0.0500000
v 0.7625000 -0.0000000 0.0000000
v 0.7663050 -0.0000000 -0.0191350
v 0.7625000 -0.0000000 -0.0500000
v 0.7663050 -0.0000000 -0.0191350
v 0.7771450 -0.0000000 -0.0353550
v 0.7625000 -0.0000000 -0.0500000
v 0.7771450 -0.0000000 -0.0353550
v 0.7933650 -0.0000000 -0.0461950
v 0.7625000 -0.0000000 -0.0500000
v 0.7933650 -0.0000000 -0.0461950
v 0.8125000 -0.0000000 -0.0500000
v 0.8625000 -0.0000000 -0.0500000
v 0.8125000 -0.0000000 -0.0500000
v 0.8316350 -0.0000000 -0.0461950
v 0.8625000 -0.0000000 -0.0500000
v 0.8316350 -0.0000000 -0.0461950
v 0.8478550 -0.0000000 -0.0353550
v 0.8625000 -0.0000000 -0.0500000
v 0.8478550 -0.0000000 -0.0353550
v 0.8586950 -0.0000000 -0.0191350
v 0.8625000 -0.0000000 -0.0500000
v 0.8586950 -0.0000000 -0.0191350
v 0.8625000 -0.0000000 0.0000000
v -0.7625000 -0.0000000 0.0500000
v -0.7625000 -0.0000000 0.0000000
v -0.7663050 -0.0000000 0.0191350
v -0.7625000 -0.0000000 0.0500000
v -0.7663050 -0.0000000 0.0191350
v -0.7771450 -0.0000000 0.0353550
v -0.7625000 -0.0000000 0.0500000
v -0.7771450 -0.0000000 0.0353550
v -0.7933650 -0.0000000 0.0461950
v -0.7625000 -0.0000000 0.0500000
v -0.7933650 -0.0000000 0.0461950
v -0.8125000 -0.0000000 0.0500000
v -0.8625000 -0.0000000 0.0500000
v -0.8125000 -0.0000000 0.0500000
v -0.8316350 -0.0000000 0.0461950
v -0.8625000 -0.0000000 0.0500000
v -0.8316350 -0.0000000 0.0461950
v -0.8478550 -0.0000000 0.0353550
v -0.8625000 -0.0000000 0.0500000
v -0.8478550 -0.0000000 0.0353550
v -0.8586950 -0.0000000 0.0191350
v -0.8625000 -0.0000000 0.0500000
v -0.8586950 -0.0000000 0.0191350
v -0.8625000 -0.0000000 0.0000000
v -0.8625000 -0.0000000 -0.0500000
v -0.8625000 -0.0000000 0.0000000
v -0.8586950 -0.0000000 -0.0191350
v -0.8625000 -0.0000000 -0.0500000
v -0.8586950 -0.0000000 -0.0191350
v -0.8478550 -0.0000000 -0.0353550
v -0.8625000 -0.0000000 -0.0500000
v -0.8478550 -0.0000000 -0.0353550
v -0.8316350 -0.0000000 -0.0461950
v -0.8625000 -0.0000000 -0.0500000
v -0.8316350 -0.0000000 -0.0461950
v -0.8125000 -0.0000000 -0.0500000
v -0.7625000 -0.0000000 -0.0500000
v -0.8125000 -0.0000000 -0.0500000
v -0.7933650 -0.0000000 -0.0461950
v -0.7625000 -0.0000000 -0.0500000
v -0.7933650 -0.0000000 -0.0461950
v -0.7771450 -0.0000000 -0.0353550
v -0.7625000 -0.0000000 -0.0500000
v -0.7771450 -0.0000000 -0.0353550
v -0.7663050 -0.0000000 -0.0191350
v -0.7625000 -0.0000000 -0.0500000
v -0.7663050 -0.0000000 -0.0191350
v -0.7625000 -0.0000000 0.0000000
v 0.8625000 -3.2875000 -0.0500000
v 0.8625000 -3.2875000 0.0000000
v 0.8586950 -3.2875000 -0.0191350
v 0.8625000 -3.2875000 -0.0500000
v 0.8586950 -3.2875000 -0.0191350
v 0.8478550 -3.2875000 -0.0353550
v 0.8625000 -3.2875000 -0.0500000
v 0.8478550 -3.2875000 -0.0353550
v 0.8316350 -3.2875000 -0.0461950
v 0.8625000 -3.2875000 -0.0500000
v 0.8316350 -3.2875000 -0.0461950
v 0.8125000 -3.2875000 -0.0500000
v 0.7625000 -3.2875000 -0.0500000
v 0.8125000 -3.2875000 -0.0500000
v 0.7933650 -3.2875000 -0.0461950
v 0.7625000 -3.2875000 -0.0500000
v 0.7933650 -3.2875000 -0.0461950
v 0.7771450 -3.2875000 -0.0353550
v 0.7625000 -3.2875000 -0.0500000
v 0.7771450 -3.2875000 -0.0353550
v 0.7663050 -3.2875000 -0.0191350
v 0.7625000 -3.2875000 -0.0500000
v 0.7663050 -3.2875000 -0.0191350
v 0.7625000 -3.2875000 0.0000000
v 0.7625000 -3.2875000 0.0500000
v 0.7625000 -3.2875000 0.0000000
v 0.7663050 -3.2875000 0.0191350
v 0.7625000 -3.2875000 0.0500000
v 0.7663050 -3.2875000 0.0191350
v 0.7771450 -3.2875000 0.0353550
v 0.7625000 -3.2875000 0.0500000
v 0.7771450 -3.2875000 0.0353550
v 0.7933650 -3.2875000 0.0461950
v 0.7625000 -3.2875000 0.0500000
v 0.7933650 -3.2875000 0.0461950
v 0.8125000 -3.2875000 0.0500000
v 0.8625000 -3.2875000 0.0500000
v 0.8125000 -3.2875000 0.0500000
v 0.8316350 -3.2875000 0.0461950
v 0.8625000 -3.2875000 0.0500000
v 0.8316350 -3.2875000 0.0461950
v 0.8478550 -3.2875000 0.0353550
v 0.8625000 -3.2875000 0.0500000
v 0.8478550 -3.2875000 0.0353550
v 0.8586950 -3.2875000 0.0191350
v 0.8625000 -3.2875000 0.0500000
v 0.8586950 -3.2875000 0.0191350
v 0.8625000 -3.2875000 0.0000000
v -0.7625000 -3.2875000 -0.0500000
v -0.7625000 -3.2875000 0.0000000
v -0.7663050 -3.2875000 -0.0191350
v -0.7625000 -3.2875000 -0.0500000
v -0.7663050 -3.2875000 -0.0191350
v -0.7771450 -3.2875000 -0.0353550
v -0.7625000 -3.2875000 -0.0500000
v -0.7771450 -3.2875000 -0.0353550
v -0.7933650 -3.2875000 -0.0461950
v -0.7625000 -3.2875000 -0.0500000
v -0.7933650 -3.2875000 -0.0461950
v -0.8125000 -3.2875000 -0.0500000
v -0.8625000 -3.2875000 -0.0500000
v -0.8125000 -3.2875000 -0.0500000
v -0.8316350 -3.2875000 -0.0461950
v -0.8625000 -3.2875000 -0.0500000
v -0.8316350 -3.2875000 -0.0461950
v -0.8478550 -3.2875000 -0.0353550
v -0.8625000 -3.2875000 -0.0500000
v -0.8478550 -3.2875000 -0.0353550
v -0.8586950 -3.2875000 -0.0191350
v -0.8625000 -3.2875000 -0.0500000
v -0.8586950 -3.2875000 -0.0191350
v -0.8625000 -3.2875000 0.0000000
v -0.8625000 -3.2875000 0.0500000
v -0.8625000 -3.2875000 0.0000000
v -0.8586950 -3.2875000 0.0191350
v -0.8625000 -3.2875000 0.0500000
v -0.8586950 -3.2875000 0.0191350
v -0.8478550 -3.2875000 0.0353550
v -0.8625000 -3.2875000 0.0500000
v -0.8478550 -3.2875000 0.0353550
v -0.8316350 -3.2875000 0.0461950
v -0.8625000 -3.2875000 0.0500000
v -0.8316350 -3.2875000 0.0461950
v -0.8125000 -3.2875000 0.0500000
v -0.7625000 -3.2875000 0.0500000
v -0.8125000 -3.2875000 0.0500000
v -0.7933650 -3.2875000 0.0461950
v -0.7625000 -3.2875000 0.0500000
v -0.7933650 -3.2875000 0.0461950
v -0.7771450 -3.2875000 0.0353550
v -0.7625000 -3.2875000 0.0500000
v -0.7771450 -3.2875000 0.0353550
v -0.7663050 -3.2875000 0.0191350
v -0.7625000 -3.2875000 0.0500000
v -0.7663050 -3.2875000 0.0191350
v -0.7625000 -3.2875000 0.0000000
v -0.9062500 -0.0000000 -0.0500000
v -0.9062500 -0.0000000 0.0500000
v -0.8625000 -0.0000000 0.0500000
v -0.8625000 -0.0000000 -0.0500000
v 0.7625000 -0.0000000 0.0500000
v 0.7625000 -0.0000000 -0.0500000
v -0.7625000 -0.0000000 -0.0500000
v -0.7625000 -0.0000000 0.0500000
v 0.9062500 -0.0000000 0.0500000
v 0.9062500 -0.0000000 -0.0500000
v 0.8625000 -0.0000000 -0.0500000
v 0.8625000 -0.0000000 0.0500000
v -0.9062500 -3.2875000 0.0500000
v -0.9062500 -3.2875000 -0.0500000
v -0.8625000 -3.2875000 -0.0500000
v -0.8625000 -3.2875000 0.0500000
v 0.7625000 -3.2875000 -0.0500000
v 0.7625000 -3.2875000 0.0500000
v -0.7625000 -3.2875000 0.0500000
v -0.7625000 -3.2875000 -0.0500000
v 0.9062500 -3.2875000 -0.0500000
v 0.9062500 -3.2875000 0.0500000
v 0.8625000 -3.2875000 0.0500000
v 0.8625000 -3.2875000 -0.0500000
v -0.9062500 -3.2875000 0.0500000
v 0.9062500 -3.2875000 0.0500000
v 0.9062500 -0.0000000 0.0500000
v -0.9062500 -0.0000000 0.0500000
v 0.9062500 -3.2875000 0.0500000
v 0.9062500 -3.2875000 -0.0500000
v 0.9062500 -0.0000000 -0.0500000
v 0.9062500 -0.0000000 0.0500000
v -0.9062500 -0.0000000 0.0500000
v -0.9062500 -0.0000000 -0.0500000
v -0.9062500 -3.2875000 -0.0500000
v -0.9062500 -3.2875000 0.0500000
v -0.9062500 -3.2875000 -0.0500000
v -0.9062500 -0.0000000 -0.0500000
v 0.9062500 -0.0000000 -0.0500000
v 0.9062500 -3.2875000 -0.0500000
s off
f 1 2 3
f 1 3 4
f 5 6 7
f 5 7 8
f 9 10 11
f 9 11 12
f 13 14 15
f 13 15 16
f 17 18 19
f 17 19 20
f 21 22 23
f 21 23 24
f 25 26 27
f 25 27 28
f 29 30 31
f 29 31 32
f 33 34 35
f 33 35 36
f 37 38 39
f 37 39 40
f 41 42 43
f 41 43 44
f 45 46 47
f 45 47 48
f 49 50 51
f 49 51 52
f 53 54 55
f 53 55 56
f 57 58 59
f 57 59 60
f 61 62 63
f 61 63 64
f 65 66 67
f 65 67 68
f 69 70 71
f 69 71 72
f 73 74 75
f 73 75 76
f 77 78 79
f 77 79 80
f 81 82 83
f 81 83 84
f 85 86 87
f 85 87 88
f 89 90 91
f 89 91 92
f 93 94 95
f 93 95 96
f 97 98 99
f 97 99 100
f 101 102 103
f 101 103 104
f 105 106 107
f 105 107 108
f 109 110 111
f 109 111 112
f 113 114 115
f 113 115 116
f 117 118 119
f 117 119 120
f 121 122 123
f 121 123 124
f 125 126 127
f 125 127 128
f 129 130 131
f 132 133 134
f 135 136 137
f 138 139 140
f 141 142 143
f 144 145 146
f 147 148 149
f 150 151 152
f 153 154 155
f 156 157 158
f 159 160 161
f 162 163 164
f 165 166 167
f 168 169 170
f 171 172 173
f 174 175 176
f 177 178 179
f 177 179 180
f 181 182 183
f 181 183 184
f 185 186 187
f 185 187 188
f 189 190 191
f 189 191 192
f 193 194 195
f 193 195 196
f 197 198 199
f 197 199 200
f 201 202 203
f 201 203 204
f 205 206 207
f 205 207 208
f 209 210 211
f 209 211 212
f 213 214 215
f 213 215 216
f 217 218 219
f 217 219 220
f 221 222 223
f 221 223 224
f 225 226 227
f 225 227 228
f 229 230 231
f 229 231 232
f 233 234 235
f 233 235 236
f 237 238 239
f 237 239 240
f 241 242 243
f 241 243 244
f 245 246 247
f 245 247 248
f 249 250 251
f 249 251 252
f 253 254 255
f 253 255 256
f 257 258 259
f 257 259 260
f 261 262 263
f 261 263 264
f 265 266 267
f 265 267 268
f 269 270 271
f 269 271 272
f 273 274 275
f 273 275 276
f 277 278 279
f 277 279 280
f 281 282 283
f 281 283 284
f 285 286 287
f 285 287 288
f 289 290 291
f 289 291 292
f 293 294 295
f 293 295 296
f 297 298 299
f 297 299 300
f 301 302 303
f 301 303 304
f 305 306 307
f 308 309 310
f 311 312 313
f 314 315 316
f 317 318 319
f 320 321 322
f 323 324 325
f 326 327 328
f 329 330 331
f 332 333 334
f 335 336 337
f 338 339 340
f 341 342 343
f 344 345 346
f 347 348 349
f 350 351 352
f 353 354 355
f 353 355 356
f 357 358 359
f 357 359 360
f 361 362 363
f 361 363 364
f 365 366 367
f 365 367 368
f 369 370 371
f 369 371 372
f 373 374 375
f 373 375 376
f 377 378 379
f 377 379 380
f 381 382 383
f 381 383 384
f 385 386 387
f 385 387 388
f 389 390 391
f 389 391 392
f 393 394 395
f 393 395 396
f 397 398 399
f 397 399 400
f 401 402 403
f 401 403 404
f 405 406 407
f 405 407 408
f 409 410 411
f 409 411 412
f 413 414 415
f 413 415 416
f 417 418 419
f 417 419 420
f 421 422 423
f 421 423 424
f 425 426 427
f 425 427 428
f 429 430 431
f 429 431 432
f 433 434 435
f 433 435 436
f 437 438 439
f 437 439 440
f 441 442 443
f 441 443 444
f 445 446 447
f 445 447 448
f 449 450 451
f 449 451 452
f 453 454 455
f 453 455 456
f 457 458 459
f 457 459 460
f 461 462 463
f 461 463 464
f 465 466 467
f 465 467 468
f 469 470 471
f 469 471 472
f 473 474 475
f 473 475 476
f 477 478 479
f 477 479 480
f 481 482 483
f 484 485 486
f 487 488 489
f 490 491 492
f 493 494 495
f 496 497 498
f 499 500 501
f 502 503 504
f 505 506 507
f 508 509 510
f 511 512 513
f 514 515 516
f 517 518 519
f 520 521 522
f 523 524 525
f 526 527 528
f 529 530 531
f 529 531 532
f 533 534 535
f 533 535 536
f 537 538 539
f 537 539 540
f 541 542 543
f 541 543 544
f 545 546 547
f 545 547 548
f 549 550 551
f 549 551 552
f 553 554 555
f 553 555 556
f 557 558 559
f 557 559 560
f 561 562 563
f 561 563 564
f 565 566 567
f 565 567 568
f 569 570 571
f 569 571 572
f 573 574 575
f 573 575 576
f 577 578 579
f 577 579 580
f 581 582 583
f 581 583 584
f 585 586 587
f 585 587 588
f 589 590 591
f 589 591 592
f 593 594 595
f 593 595 596
f 597 598 599
f 597 599 600
f 601 602 603
f 601 603 604
f 605 606 607
f 605 607 608
f 609 610 611
f 609 611 612
f 613 614 615
f 613 615 616
f 617 618 619
f 617 619 620
f 621 622 623
f 621 623 624
f 625 626 627
f 625 627 628
f 629 630 631
f 629 631 632
f 633 634 635
f 633 635 636
f 637 638 639
f 637 639 640
f 641 642 643
f 641 643 644
f 645 646 647
f 645 647 648
f 649 650 651
f 649 651 652
f 653 654 655
f 653 655 656
f 657 658 659
f 660 661 662
f 663 664 665
f 666 667 668
f 669 670 671
f 672 673 674
f 675 676 677
f 678 679 680
f 681 682 683
f 684 685 686
f 687 688 689
f 690 691 692
f 693 694 695
f 696 697 698
f 699 700 701
f 702 703 704
f 705 706 707
f 708 709 710
f 711 712 713
f 714 715 716
f 717 718 719
f 720 721 722
f 723 724 725
f 726 727 728
f 729 730 731
f 732 733 734
f 735 736 737
f 738 739 740
f 741 742 743
f 744 745 746
f 747 748 749
f 750 751 752
f 753 754 755
f 756 757 758
f 759 760 761
f 762 763 764
f 765 766 767
f 768 769 770
f 771 772 773
f 774 775 776
f 777 778 779
f 780 781 782
f 783 784 785
f 786 787 788
f 789 790 791
f 792 793 794
f 795 796 797
f 798 799 800
f 801 802 803
f 804 805 806
f 807 808 809
f 810 811 812
f 813 814 815
f 816 817 818
f 819 820 821
f 822 823 824
f 825 826 827
f 828 829 830
f 831 832 833
f 834 835 836
f 837 838 839
f 840 841 842
f 843 844 845
f 846 847 848
f 849 850 851
f 852 853 854
f 855 856 857
f 858 859 860
f 861 862 863
f 864 865 866
f 867 868 869
f 870 871 872
f 873 874 875
f 876 877 878
f 879 880 881
f 882 883 884
f 885 886 887
f 888 889 890
f 891 892 893
f 894 895 896
f 897 898 899
f 897 899 900
f 901 902 903
f 901 903 904
f 905 906 907
f 905 907 908
f 909 910 911
f 909 911 912
f 913 914 915
f 913 915 916
f 917 918 919
f 917 919 920
f 921 922 923
f 921 923 924
f 925 926 927
f 925 927 928
f 929 930 931
f 929 931 932
f 933 934 935
f 933 935 936
