# Baked from official LDraw part 6143.dat
o ldraw_6143
v 0.1500000 -0.6000000 0.0000000
v 0.1385850 -0.6000000 0.0574050
v 0.1385850 -0.4500000 0.0574050
v 0.1500000 -0.4500000 0.0000000
v 0.1385850 -0.6000000 0.0574050
v 0.1060650 -0.6000000 0.1060650
v 0.1060650 -0.4500000 0.1060650
v 0.1385850 -0.4500000 0.0574050
v 0.1060650 -0.6000000 0.1060650
v 0.0574050 -0.6000000 0.1385850
v 0.0574050 -0.4500000 0.1385850
v 0.1060650 -0.4500000 0.1060650
v 0.0574050 -0.6000000 0.1385850
v 0.0000000 -0.6000000 0.1500000
v 0.0000000 -0.4500000 0.1500000
v 0.0574050 -0.4500000 0.1385850
v 0.0000000 -0.6000000 0.1500000
v -0.0574050 -0.6000000 0.1385850
v -0.0574050 -0.4500000 0.1385850
v 0.0000000 -0.4500000 0.1500000
v -0.0574050 -0.6000000 0.1385850
v -0.1060650 -0.6000000 0.1060650
v -0.1060650 -0.4500000 0.1060650
v -0.0574050 -0.4500000 0.1385850
v -0.1060650 -0.6000000 0.1060650
v -0.1385850 -0.6000000 0.0574050
v -0.1385850 -0.4500000 0.0574050
v -0.1060650 -0.4500000 0.1060650
v -0.1385850 -0.6000000 0.0574050
v -0.1500000 -0.6000000 0.0000000
v -0.1500000 -0.4500000 0.0000000
v -0.1385850 -0.4500000 0.0574050
v -0.1500000 -0.6000000 0.0000000
v -0.1385850 -0.6000000 -0.0574050
v -0.1385850 -0.4500000 -0.0574050
v -0.1500000 -0.4500000 0.0000000
v -0.1385850 -0.6000000 -0.0574050
v -0.1060650 -0.6000000 -0.1060650
v -0.1060650 -0.4500000 -0.1060650
v -0.1385850 -0.4500000 -0.0574050
v -0.1060650 -0.6000000 -0.1060650
v -0.0574050 -0.6000000 -0.1385850
v -0.0574050 -0.4500000 -0.1385850
v -0.1060650 -0.4500000 -0.1060650
v -0.0574050 -0.6000000 -0.1385850
v 0.0000000 -0.6000000 -0.1500000
v 0.0000000 -0.4500000 -0.1500000
v -0.0574050 -0.4500000 -0.1385850
v 0.0000000 -0.6000000 -0.1500000
v 0.0574050 -0.6000000 -0.1385850
v 0.0574050 -0.4500000 -0.1385850
v 0.0000000 -0.4500000 -0.1500000
v 0.0574050 -0.6000000 -0.1385850
v 0.1060650 -0.6000000 -0.1060650
v 0.1060650 -0.4500000 -0.1060650
v 0.0574050 -0.4500000 -0.1385850
v 0.1060650 -0.6000000 -0.1060650
v 0.1385850 -0.6000000 -0.0574050
v 0.1385850 -0.4500000 -0.0574050
v 0.1060650 -0.4500000 -0.1060650
v 0.1385850 -0.6000000 -0.0574050
v 0.1500000 -0.6000000 0.0000000
v 0.1500000 -0.4500000 0.0000000
v 0.1385850 -0.4500000 -0.0574050
v 0.2000000 -0.4500000 0.0000000
v 0.1847800 -0.4500000 0.0765400
v 0.1847800 -0.6000000 0.0765400
v 0.2000000 -0.6000000 0.0000000
v 0.1847800 -0.4500000 0.0765400
v 0.1414200 -0.4500000 0.1414200
v 0.1414200 -0.6000000 0.1414200
v 0.1847800 -0.6000000 0.0765400
v 0.1414200 -0.4500000 0.1414200
v 0.0765400 -0.4500000 0.1847800
v 0.0765400 -0.6000000 0.1847800
v 0.1414200 -0.6000000 0.1414200
v 0.0765400 -0.4500000 0.1847800
v 0.0000000 -0.4500000 0.2000000
v 0.0000000 -0.6000000 0.2000000
v 0.0765400 -0.6000000 0.1847800
v 0.0000000 -0.4500000 0.2000000
v -0.0765400 -0.4500000 0.1847800
v -0.0765400 -0.6000000 0.1847800
v 0.0000000 -0.6000000 0.2000000
v -0.0765400 -0.4500000 0.1847800
v -0.1414200 -0.4500000 0.1414200
v -0.1414200 -0.6000000 0.1414200
v -0.0765400 -0.6000000 0.1847800
v -0.1414200 -0.4500000 0.1414200
v -0.1847800 -0.4500000 0.0765400
v -0.1847800 -0.6000000 0.0765400
v -0.1414200 -0.6000000 0.1414200
v -0.1847800 -0.4500000 0.0765400
v -0.2000000 -0.4500000 0.0000000
v -0.2000000 -0.6000000 0.0000000
v -0.1847800 -0.6000000 0.0765400
v -0.2000000 -0.4500000 0.0000000
v -0.1847800 -0.4500000 -0.0765400
v -0.1847800 -0.6000000 -0.0765400
v -0.2000000 -0.6000000 0.0000000
v -0.1847800 -0.4500000 -0.0765400
v -0.1414200 -0.4500000 -0.1414200
v -0.1414200 -0.6000000 -0.1414200
v -0.1847800 -0.6000000 -0.0765400
v -0.1414200 -0.4500000 -0.1414200
v -0.0765400 -0.4500000 -0.1847800
v -0.0765400 -0.6000000 -0.1847800
v -0.1414200 -0.6000000 -0.1414200
v -0.0765400 -0.4500000 -0.1847800
v 0.0000000 -0.4500000 -0.2000000
v 0.0000000 -0.6000000 -0.2000000
v -0.0765400 -0.6000000 -0.1847800
v 0.0000000 -0.4500000 -0.2000000
v 0.0765400 -0.4500000 -0.1847800
v 0.0765400 -0.6000000 -0.1847800
v 0.0000000 -0.6000000 -0.2000000
v 0.0765400 -0.4500000 -0.1847800
v 0.1414200 -0.4500000 -0.1414200
v 0.1414200 -0.6000000 -0.1414200
v 0.0765400 -0.6000000 -0.1847800
v 0.1414200 -0.4500000 -0.1414200
v 0.1847800 -0.4500000 -0.0765400
v 0.1847800 -0.6000000 -0.0765400
v 0.1414200 -0.6000000 -0.1414200
v 0.1847800 -0.4500000 -0.0765400
v 0.2000000 -0.4500000 0.0000000
v 0.2000000 -0.6000000 0.0000000
v 0.1847800 -0.6000000 -0.0765400
v -0.0765400 -0.6000000 0.1847800
v -0.0574050 -0.6000000 0.1385850
v 0.0000000 -0.6000000 0.1500000
v 0.0000000 -0.6000000 0.2000000
v -0.1414200 -0.6000000 0.1414200
v -0.1060650 -0.6000000 0.1060650
v -0.0574050 -0.6000000 0.1385850
v -0.0765400 -0.6000000 0.1847800
v -0.1847800 -0.6000000 0.0765400
v -0.1385850 -0.6000000 0.0574050
v -0.1060650 -0.6000000 0.1060650
v -0.1414200 -0.6000000 0.1414200
v -0.2000000 -0.6000000 0.0000000
v -0.1500000 -0.6000000 0.0000000
v -0.1385850 -0.6000000 0.0574050
v -0.1847800 -0.6000000 0.0765400
v -0.1847800 -0.6000000 -0.0765400
v -0.1385850 -0.6000000 -0.0574050
v -0.1500000 -0.6000000 0.0000000
v -0.2000000 -0.6000000 0.0000000
v -0.1414200 -0.6000000 -0.1414200
v -0.1060650 -0.6000000 -0.1060650
v -0.1385850 -0.6000000 -0.0574050
v -0.1847800 -0.6000000 -0.0765400
v -0.0765400 -0.6000000 -0.1847800
v -0.0574050 -0.6000000 -0.1385850
v -0.1060650 -0.6000000 -0.1060650
v -0.1414200 -0.6000000 -0.1414200
v 0.0000000 -0.6000000 -0.2000000
v 0.0000000 -0.6000000 -0.1500000
v -0.0574050 -0.6000000 -0.1385850
v -0.0765400 -0.6000000 -0.1847800
v 0.0765400 -0.6000000 -0.1847800
v 0.0574050 -0.6000000 -0.1385850
v 0.0000000 -0.6000000 -0.1500000
v 0.0000000 -0.6000000 -0.2000000
v 0.1414200 -0.6000000 -0.1414200
v 0.1060650 -0.6000000 -0.1060650
v 0.0574050 -0.6000000 -0.1385850
v 0.0765400 -0.6000000 -0.1847800
v 0.1847800 -0.6000000 -0.0765400
v 0.1385850 -0.6000000 -0.0574050
v 0.1060650 -0.6000000 -0.1060650
v 0.1414200 -0.6000000 -0.1414200
v 0.2000000 -0.6000000 0.0000000
v 0.1500000 -0.6000000 0.0000000
v 0.1385850 -0.6000000 -0.0574050
v 0.1847800 -0.6000000 -0.0765400
v 0.1847800 -0.6000000 0.0765400
v 0.1385850 -0.6000000 0.0574050
v 0.1500000 -0.6000000 0.0000000
v 0.2000000 -0.6000000 0.0000000
v 0.1414200 -0.6000000 0.1414200
v 0.1060650 -0.6000000 0.1060650
v 0.1385850 -0.6000000 0.0574050
v 0.1847800 -0.6000000 0.0765400
v 0.0765400 -0.6000000 0.1847800
v 0.0574050 -0.6000000 0.1385850
v 0.1060650 -0.6000000 0.1060650
v 0.1414200 -0.6000000 0.1414200
v 0.0000000 -0.6000000 0.2000000
v 0.0000000 -0.6000000 0.1500000
v 0.0574050 -0.6000000 0.1385850
v 0.0765400 -0.6000000 0.1847800
v -0.0625000 -0.4500000 0.0625000
v -0.0697750 -0.4500000 0.1303250
v -0.1060750 -0.4500000 0.1060750
v -0.1303250 -0.4500000 0.0697750
v 0.0625000 -0.4500000 -0.0625000
v 0.0697750 -0.4500000 -0.1303250
v 0.1060750 -0.4500000 -0.1060750
v 0.1303250 -0.4500000 -0.0697750
v -0.1400500 -0.4500000 -0.0500000
v -0.1385750 -0.4500000 -0.0574000
v -0.1060750 -0.4500000 -0.1060750
v -0.1000000 -0.4500000 -0.0500000
v -0.1000000 -0.4500000 -0.0500000
v -0.1060750 -0.4500000 -0.1060750
v -0.0500000 -0.4500000 -0.1000000
v -0.0625000 -0.4500000 -0.0625000
v -0.0574000 -0.4500000 -0.1385750
v -0.0500000 -0.4500000 -0.1400500
v -0.0500000 -0.4500000 -0.1000000
v -0.1060750 -0.4500000 -0.1060750
v 0.1400500 -0.4500000 0.0500000
v 0.1385750 -0.4500000 0.0574000
v 0.1060750 -0.4500000 0.1060750
v 0.1000000 -0.4500000 0.0500000
v 0.1000000 -0.4500000 0.0500000
v 0.1060750 -0.4500000 0.1060750
v 0.0500000 -0.4500000 0.1000000
v 0.0625000 -0.4500000 0.0625000
v 0.0574000 -0.4500000 0.1385750
v 0.0500000 -0.4500000 0.1400500
v 0.0500000 -0.4500000 0.1000000
v 0.1060750 -0.4500000 0.1060750
v -0.1303250 -0.4500000 0.0697750
v -0.1303250 -0.0000000 0.0697750
v -0.0625000 -0.0000000 0.0625000
v -0.0625000 -0.4500000 0.0625000
v -0.0625000 -0.4500000 0.0625000
v -0.0625000 -0.0000000 0.0625000
v -0.0697750 -0.0000000 0.1303250
v -0.0697750 -0.4500000 0.1303250
v -0.0574000 -0.4500000 0.1385750
v -0.0574000 -0.0000000 0.1385750
v 0.0000000 -0.0000000 0.1500000
v 0.0000000 -0.4500000 0.1500000
v -0.0697750 -0.4500000 0.1303250
v -0.0697750 -0.0000000 0.1303250
v -0.0574000 -0.0000000 0.1385750
v -0.0574000 -0.4500000 0.1385750
v -0.1385750 -0.4500000 0.0574000
v -0.1385750 -0.0000000 0.0574000
v -0.1303250 -0.0000000 0.0697750
v -0.1303250 -0.4500000 0.0697750
v -0.1500000 -0.4500000 0.0000000
v -0.1500000 -0.0000000 0.0000000
v -0.1385750 -0.0000000 0.0574000
v -0.1385750 -0.4500000 0.0574000
v 0.1303250 -0.4500000 -0.0697750
v 0.1303250 -0.0000000 -0.0697750
v 0.0625000 -0.0000000 -0.0625000
v 0.0625000 -0.4500000 -0.0625000
v 0.0625000 -0.4500000 -0.0625000
v 0.0625000 -0.0000000 -0.0625000
v 0.0697750 -0.0000000 -0.1303250
v 0.0697750 -0.4500000 -0.1303250
v 0.0574000 -0.4500000 -0.1385750
v 0.0574000 -0.0000000 -0.1385750
v 0.0000000 -0.0000000 -0.1500000
v 0.0000000 -0.4500000 -0.1500000
v 0.0697750 -0.4500000 -0.1303250
v 0.0697750 -0.0000000 -0.1303250
v 0.0574000 -0.0000000 -0.1385750
v 0.0574000 -0.4500000 -0.1385750
v 0.1385750 -0.4500000 -0.0574000
v 0.1385750 -0.0000000 -0.0574000
v 0.1303250 -0.0000000 -0.0697750
v 0.1303250 -0.4500000 -0.0697750
v 0.1500000 -0.4500000 0.0000000
v 0.1500000 -0.0000000 0.0000000
v 0.1385750 -0.0000000 -0.0574000
v 0.1385750 -0.4500000 -0.0574000
v -0.1400500 -0.4500000 -0.0500000
v -0.1400500 -0.0000000 -0.0500000
v -0.1500000 -0.0000000 0.0000000
v -0.1500000 -0.4500000 0.0000000
v -0.1000000 -0.4500000 -0.0500000
v -0.1000000 -0.0000000 -0.0500000
v -0.1400500 -0.0000000 -0.0500000
v -0.1400500 -0.4500000 -0.0500000
v -0.0625000 -0.4500000 -0.0625000
v -0.0625000 -0.0000000 -0.0625000
v -0.1000000 -0.0000000 -0.0500000
v -0.1000000 -0.4500000 -0.0500000
v -0.0500000 -0.4500000 -0.1000000
v -0.0500000 -0.0000000 -0.1000000
v -0.0625000 -0.0000000 -0.0625000
v -0.0625000 -0.4500000 -0.0625000
v -0.0500000 -0.4500000 -0.1400500
v -0.0500000 -0.0000000 -0.1400500
v -0.0500000 -0.0000000 -0.1000000
v -0.0500000 -0.4500000 -0.1000000
v -0.0500000 -0.4500000 -0.1400500
v 0.0000000 -0.4500000 -0.1500000
v 0.0000000 -0.0000000 -0.1500000
v -0.0500000 -0.0000000 -0.1400500
v 0.1400500 -0.4500000 0.0500000
v 0.1400500 -0.0000000 0.0500000
v 0.1500000 -0.0000000 0.0000000
v 0.1500000 -0.4500000 0.0000000
v 0.1000000 -0.0000000 0.0500000
v 0.1400500 -0.0000000 0.0500000
v 0.1400500 -0.4500000 0.0500000
v 0.1000000 -0.4500000 0.0500000
v 0.0625000 -0.4500000 0.0625000
v 0.0625000 -0.0000000 0.0625000
v 0.1000000 -0.0000000 0.0500000
v 0.1000000 -0.4500000 0.0500000
v 0.0500000 -0.4500000 0.1000000
v 0.0500000 -0.0000000 0.1000000
v 0.0625000 -0.0000000 0.0625000
v 0.0625000 -0.4500000 0.0625000
v 0.0500000 -0.4500000 0.1400500
v 0.0500000 -0.0000000 0.1400500
v 0.0500000 -0.0000000 0.1000000
v 0.0500000 -0.4500000 0.1000000
v 0.0500000 -0.4500000 0.1400500
v 0.0000000 -0.4500000 0.1500000
v 0.0000000 -0.0000000 0.1500000
v 0.0500000 -0.0000000 0.1400500
v -0.1303250 -0.0000000 0.0697750
v -0.1060750 -0.0000000 0.1060750
v -0.0697750 -0.0000000 0.1303250
v -0.0625000 -0.0000000 0.0625000
v 0.1303250 -0.0000000 -0.0697750
v 0.1060750 -0.0000000 -0.1060750
v 0.0697750 -0.0000000 -0.1303250
v 0.0625000 -0.0000000 -0.0625000
v -0.1000000 -0.0000000 -0.0500000
v -0.1060750 -0.0000000 -0.1060750
v -0.1385750 -0.0000000 -0.0574000
v -0.1400500 -0.0000000 -0.0500000
v -0.0625000 -0.0000000 -0.0625000
v -0.0500000 -0.0000000 -0.1000000
v -0.1060750 -0.0000000 -0.1060750
v -0.1000000 -0.0000000 -0.0500000
v -0.1060750 -0.0000000 -0.1060750
v -0.0500000 -0.0000000 -0.1000000
v -0.0500000 -0.0000000 -0.1400500
v -0.0574000 -0.0000000 -0.1385750
v 0.1000000 -0.0000000 0.0500000
v 0.1060750 -0.0000000 0.1060750
v 0.1385750 -0.0000000 0.0574000
v 0.1400500 -0.0000000 0.0500000
v 0.0625000 -0.0000000 0.0625000
v 0.0500000 -0.0000000 0.1000000
v 0.1060750 -0.0000000 0.1060750
v 0.1000000 -0.0000000 0.0500000
v 0.1060750 -0.0000000 0.1060750
v 0.0500000 -0.0000000 0.1000000
v 0.0500000 -0.0000000 0.1400500
v 0.0574000 -0.0000000 0.1385750
v 0.4619400 -0.6000000 -0.1913418
v 0.4619400 -0.5000000 -0.1913418
v 0.5000129 -0.5000000 0.0000038
v 0.5000129 -0.6000000 0.0000038
v 0.5000129 -0.6000000 0.0000038
v 0.5000129 -0.5000000 0.0000038
v 0.4619355 -0.5000000 0.1913400
v 0.4619355 -0.6000000 0.1913400
v 0.4619400 -0.6000000 -0.1913413
v 0.5000127 -0.6000000 0.0000043
v 0.4000101 -0.6000000 0.0000034
v 0.3695520 -0.6000000 -0.1530730
v 0.5000127 -0.6000000 0.0000043
v 0.4619352 -0.6000000 0.1913404
v 0.3695481 -0.6000000 0.1530723
v 0.4000101 -0.6000000 0.0000034
v 0.4619250 -0.6000000 0.1913500
v 0.4619425 -0.5000000 0.1913450
v 0.4217500 -0.5000000 0.2517500
v 0.4217500 -0.6000000 0.2517500
v 0.4619250 -0.6000000 0.1913500
v 0.4217500 -0.6000000 0.2517500
v 0.3695475 -0.6000000 0.1530725
v 0.4217462 -0.6000000 0.2517494
v 0.4217513 -0.5000000 0.2517494
v 0.3695538 -0.5000000 0.1530744
v 0.3695488 -0.6000000 0.1530744
v 0.4217500 -0.6000000 -0.2517500
v 0.4217500 -0.5000000 -0.2517500
v 0.4619450 -0.5000000 -0.1913475
v 0.4619450 -0.6000000 -0.1913475
v 0.3695525 -0.6000000 -0.1530725
v 0.4217500 -0.6000000 -0.2517500
v 0.4619450 -0.6000000 -0.1913475
v 0.3695530 -0.5000000 -0.1530731
v 0.4217505 -0.5000000 -0.2517506
v 0.4217505 -0.6000000 -0.2517506
v 0.3695530 -0.6000000 -0.1530731
v 0.3535500 -0.5000000 -0.3535500
v 0.2828475 -0.5000000 -0.2828475
v 0.1530750 -0.5000000 -0.3695500
v 0.2517500 -0.5000000 -0.4217500
v 0.4217500 -0.5000000 -0.2517500
v 0.3695550 -0.5000000 -0.1530750
v 0.2828475 -0.5000000 -0.2828475
v 0.3535500 -0.5000000 -0.3535500
v 0.1900575 -0.3500000 0.0500000
v 0.1847800 -0.4500000 0.0765400
v 0.2000000 -0.4500000 0.0000000
v 0.2000000 -0.3450275 0.0000000
v 0.1900575 -0.3500000 0.0500000
v 0.1900575 -0.1000000 0.0500000
v 0.1847800 -0.1000000 0.0765400
v 0.1847800 -0.4500000 0.0765400
v 0.1900575 -0.3500000 -0.0500000
v 0.1847825 -0.4500000 -0.0765400
v 0.1847800 -0.1000000 -0.0765375
v 0.1900575 -0.1000000 -0.0500000
v 0.2000000 -0.4500000 0.0000000
v 0.1847825 -0.4500000 -0.0765400
v 0.1900575 -0.3500000 -0.0500000
v 0.2000000 -0.3450275 0.0000000
v 0.3695575 -0.1000000 -0.1530750
v 0.3900575 -0.1000000 -0.0500000
v 0.1900575 -0.1000000 -0.0500000
v 0.1847800 -0.1000000 -0.0765375
v 0.1847800 -0.1000000 0.0765400
v 0.1900575 -0.1000000 0.0500000
v 0.3900575 -0.1000000 0.0500000
v 0.3695600 -0.1000000 0.1530800
v 0.3695525 -0.5000000 0.1530750
v 0.3900575 -0.2500000 0.0500000
v 0.4000000 -0.2450000 0.0000000
v 0.3900575 -0.2500000 0.0500000
v 0.3695525 -0.5000000 0.1530750
v 0.3695600 -0.1000000 0.1530800
v 0.3900575 -0.1000000 0.0500000
v 0.3900575 -0.2500000 -0.0500000
v 0.3900575 -0.1000000 -0.0500000
v 0.3695575 -0.1000000 -0.1530750
v 0.3695550 -0.5000000 -0.1530750
v 0.4000000 -0.6000000 0.0000000
v 0.4000000 -0.2450000 0.0000000
v 0.3695550 -0.5000000 -0.1530750
v 0.3695525 -0.6000000 -0.1530725
v 0.4000000 -0.2450000 0.0000000
v 0.3900575 -0.2500000 -0.0500000
v 0.3695550 -0.5000000 -0.1530750
v 0.4000000 -0.6000000 0.0000000
v 0.3695475 -0.6000000 0.1530725
v 0.3695525 -0.5000000 0.1530750
v 0.4000000 -0.2450000 0.0000000
v 0.0765368 -0.4500000 -0.1847760
v 0.0765368 -0.1000000 -0.1847760
v 0.1414261 -0.1000000 -0.1414239
v 0.1414261 -0.4500000 -0.1414239
v 0.1414261 -0.4500000 -0.1414239
v 0.1414261 -0.1000000 -0.1414239
v 0.1847742 -0.1000000 -0.0765360
v 0.1847742 -0.4500000 -0.0765360
v 0.1530735 -0.1000000 -0.3695520
v 0.2828522 -0.1000000 -0.2828479
v 0.1414261 -0.1000000 -0.1414239
v 0.0765368 -0.1000000 -0.1847760
v 0.2828522 -0.1000000 -0.2828479
v 0.3695485 -0.1000000 -0.1530719
v 0.1847742 -0.1000000 -0.0765360
v 0.1414261 -0.1000000 -0.1414239
v 0.2828518 -0.5000000 -0.2828477
v 0.2828518 -0.1000000 -0.2828477
v 0.1530733 -0.1000000 -0.3695518
v 0.1530733 -0.5000000 -0.3695518
v 0.3695481 -0.5000000 -0.1530719
v 0.3695481 -0.1000000 -0.1530719
v 0.2828518 -0.1000000 -0.2828477
v 0.2828518 -0.5000000 -0.2828477
v 0.4619500 -0.0000000 -0.1913500
v 0.1913500 -0.0000000 -0.4619500
v 0.0000000 -0.0000000 -0.5000000
v 0.5000000 -0.0000000 0.0000000
v 0.3535500 -0.0000000 -0.3535500
v 0.1913500 -0.0000000 -0.4619500
v 0.4619500 -0.0000000 -0.1913500
v 0.2121320 -0.0000000 -0.0000005
v 0.1060658 -0.0000000 -0.1060663
v 0.1385857 -0.0000000 -0.0574032
v 0.2121320 -0.0000000 -0.0000005
v 0.1385857 -0.0000000 -0.0574032
v 0.1499985 -0.0000000 -0.0000004
v 0.2121320 -0.0000000 -0.0000005
v 0.1499985 -0.0000000 -0.0000004
v 0.1385860 -0.0000000 0.0574026
v 0.2121320 -0.0000000 -0.0000005
v 0.1385860 -0.0000000 0.0574026
v 0.1060663 -0.0000000 0.1060658
v 0.0000000 -0.0000000 -0.2121325
v 0.2121325 -0.0000000 0.0000000
v 0.5000000 -0.0000000 0.0000000
v 0.0000000 -0.0000000 -0.5000000
v 0.1900575 -0.3500208 0.0500000
v 0.2000000 -0.3450208 0.0000000
v 0.4000000 -0.2449933 0.0000000
v 0.3900575 -0.2499933 0.0500000
v 0.3900575 -0.2499795 -0.0500000
v 0.4000000 -0.2450070 0.0000000
v 0.2000000 -0.3450345 0.0000000
v 0.1900575 -0.3500070 -0.0500000
v 0.1900575 -0.3500000 -0.0500000
v 0.1900575 -0.1000000 -0.0500000
v 0.3900575 -0.1000000 -0.0500000
v 0.3900575 -0.2500000 -0.0500000
v 0.3900575 -0.2500000 0.0500000
v 0.3900575 -0.1000000 0.0500000
v 0.1900575 -0.1000000 0.0500000
v 0.1900575 -0.3500000 0.0500000
v -0.1913418 -0.6000000 -0.4619400
v -0.1913418 -0.5000000 -0.4619400
v 0.0000038 -0.5000000 -0.5000129
v 0.0000038 -0.6000000 -0.5000129
v 0.0000038 -0.6000000 -0.5000129
v 0.0000038 -0.5000000 -0.5000129
v 0.1913400 -0.5000000 -0.4619355
v 0.1913400 -0.6000000 -0.4619355
v -0.1913413 -0.6000000 -0.4619400
v 0.0000043 -0.6000000 -0.5000127
v 0.0000034 -0.6000000 -0.4000101
v -0.1530730 -0.6000000 -0.3695520
v 0.0000043 -0.6000000 -0.5000127
v 0.1913404 -0.6000000 -0.4619352
v 0.1530723 -0.6000000 -0.3695481
v 0.0000034 -0.6000000 -0.4000101
v 0.1913500 -0.6000000 -0.4619250
v 0.1913450 -0.5000000 -0.4619425
v 0.2517500 -0.5000000 -0.4217500
v 0.2517500 -0.6000000 -0.4217500
v 0.1913500 -0.6000000 -0.4619250
v 0.2517500 -0.6000000 -0.4217500
v 0.1530725 -0.6000000 -0.3695475
v 0.2517494 -0.6000000 -0.4217462
v 0.2517494 -0.5000000 -0.4217513
v 0.1530744 -0.5000000 -0.3695538
v 0.1530744 -0.6000000 -0.3695488
v -0.2517500 -0.6000000 -0.4217500
v -0.2517500 -0.5000000 -0.4217500
v -0.1913475 -0.5000000 -0.4619450
v -0.1913475 -0.6000000 -0.4619450
v -0.1530725 -0.6000000 -0.3695525
v -0.2517500 -0.6000000 -0.4217500
v -0.1913475 -0.6000000 -0.4619450
v -0.1530731 -0.5000000 -0.3695530
v -0.2517506 -0.5000000 -0.4217505
v -0.2517506 -0.6000000 -0.4217505
v -0.1530731 -0.6000000 -0.3695530
v -0.3535500 -0.5000000 -0.3535500
v -0.2828475 -0.5000000 -0.2828475
v -0.3695500 -0.5000000 -0.1530750
v -0.4217500 -0.5000000 -0.2517500
v -0.2517500 -0.5000000 -0.4217500
v -0.1530750 -0.5000000 -0.3695550
v -0.2828475 -0.5000000 -0.2828475
v -0.3535500 -0.5000000 -0.3535500
v 0.0500000 -0.3500000 -0.1900575
v 0.0765400 -0.4500000 -0.1847800
v 0.0000000 -0.4500000 -0.2000000
v 0.0000000 -0.3450275 -0.2000000
v 0.0500000 -0.3500000 -0.1900575
v 0.0500000 -0.1000000 -0.1900575
v 0.0765400 -0.1000000 -0.1847800
v 0.0765400 -0.4500000 -0.1847800
v -0.0500000 -0.3500000 -0.1900575
v -0.0765400 -0.4500000 -0.1847825
v -0.0765375 -0.1000000 -0.1847800
v -0.0500000 -0.1000000 -0.1900575
v 0.0000000 -0.4500000 -0.2000000
v -0.0765400 -0.4500000 -0.1847825
v -0.0500000 -0.3500000 -0.1900575
v 0.0000000 -0.3450275 -0.2000000
v -0.1530750 -0.1000000 -0.3695575
v -0.0500000 -0.1000000 -0.3900575
v -0.0500000 -0.1000000 -0.1900575
v -0.0765375 -0.1000000 -0.1847800
v 0.0765400 -0.1000000 -0.1847800
v 0.0500000 -0.1000000 -0.1900575
v 0.0500000 -0.1000000 -0.3900575
v 0.1530800 -0.1000000 -0.3695600
v 0.1530750 -0.5000000 -0.3695525
v 0.0500000 -0.2500000 -0.3900575
v 0.0000000 -0.2450000 -0.4000000
v 0.0500000 -0.2500000 -0.3900575
v 0.1530750 -0.5000000 -0.3695525
v 0.1530800 -0.1000000 -0.3695600
v 0.0500000 -0.1000000 -0.3900575
v -0.0500000 -0.2500000 -0.3900575
v -0.0500000 -0.1000000 -0.3900575
v -0.1530750 -0.1000000 -0.3695575
v -0.1530750 -0.5000000 -0.3695550
v 0.0000000 -0.6000000 -0.4000000
v 0.0000000 -0.2450000 -0.4000000
v -0.1530750 -0.5000000 -0.3695550
v -0.1530725 -0.6000000 -0.3695525
v 0.0000000 -0.2450000 -0.4000000
v -0.0500000 -0.2500000 -0.3900575
v -0.1530750 -0.5000000 -0.3695550
v 0.0000000 -0.6000000 -0.4000000
v 0.1530725 -0.6000000 -0.3695475
v 0.1530750 -0.5000000 -0.3695525
v 0.0000000 -0.2450000 -0.4000000
v -0.1847760 -0.4500000 -0.0765368
v -0.1847760 -0.1000000 -0.0765368
v -0.1414239 -0.1000000 -0.1414261
v -0.1414239 -0.4500000 -0.1414261
v -0.1414239 -0.4500000 -0.1414261
v -0.1414239 -0.1000000 -0.1414261
v -0.0765360 -0.1000000 -0.1847742
v -0.0765360 -0.4500000 -0.1847742
v -0.3695520 -0.1000000 -0.1530735
v -0.2828479 -0.1000000 -0.2828522
v -0.1414239 -0.1000000 -0.1414261
v -0.1847760 -0.1000000 -0.0765368
v -0.2828479 -0.1000000 -0.2828522
v -0.1530719 -0.1000000 -0.3695485
v -0.0765360 -0.1000000 -0.1847742
v -0.1414239 -0.1000000 -0.1414261
v -0.2828477 -0.5000000 -0.2828518
v -0.2828477 -0.1000000 -0.2828518
v -0.3695518 -0.1000000 -0.1530733
v -0.3695518 -0.5000000 -0.1530733
v -0.1530719 -0.5000000 -0.3695481
v -0.1530719 -0.1000000 -0.3695481
v -0.2828477 -0.1000000 -0.2828518
v -0.2828477 -0.5000000 -0.2828518
v -0.1913500 -0.0000000 -0.4619500
v -0.4619500 -0.0000000 -0.1913500
v -0.5000000 -0.0000000 0.0000000
v 0.0000000 -0.0000000 -0.5000000
v -0.3535500 -0.0000000 -0.3535500
v -0.4619500 -0.0000000 -0.1913500
v -0.1913500 -0.0000000 -0.4619500
v -0.0000005 -0.0000000 -0.2121320
v -0.1060663 -0.0000000 -0.1060658
v -0.0574032 -0.0000000 -0.1385857
v -0.0000005 -0.0000000 -0.2121320
v -0.0574032 -0.0000000 -0.1385857
v -0.0000004 -0.0000000 -0.1499985
v -0.0000005 -0.0000000 -0.2121320
v -0.0000004 -0.0000000 -0.1499985
v 0.0574026 -0.0000000 -0.1385860
v -0.0000005 -0.0000000 -0.2121320
v 0.0574026 -0.0000000 -0.1385860
v 0.1060658 -0.0000000 -0.1060663
v -0.2121325 -0.0000000 0.0000000
v 0.0000000 -0.0000000 -0.2121325
v 0.0000000 -0.0000000 -0.5000000
v -0.5000000 -0.0000000 0.0000000
v 0.0500000 -0.3500208 -0.1900575
v 0.0000000 -0.3450208 -0.2000000
v 0.0000000 -0.2449933 -0.4000000
v 0.0500000 -0.2499933 -0.3900575
v -0.0500000 -0.2499795 -0.3900575
v 0.0000000 -0.2450070 -0.4000000
v 0.0000000 -0.3450345 -0.2000000
v -0.0500000 -0.3500070 -0.1900575
v -0.0500000 -0.3500000 -0.1900575
v -0.0500000 -0.1000000 -0.1900575
v -0.0500000 -0.1000000 -0.3900575
v -0.0500000 -0.2500000 -0.3900575
v 0.0500000 -0.2500000 -0.3900575
v 0.0500000 -0.1000000 -0.3900575
v 0.0500000 -0.1000000 -0.1900575
v 0.0500000 -0.3500000 -0.1900575
v -0.4619400 -0.6000000 0.1913418
v -0.4619400 -0.5000000 0.1913418
v -0.5000129 -0.5000000 -0.0000038
v -0.5000129 -0.6000000 -0.0000038
v -0.5000129 -0.6000000 -0.0000038
v -0.5000129 -0.5000000 -0.0000038
v -0.4619355 -0.5000000 -0.1913400
v -0.4619355 -0.6000000 -0.1913400
v -0.4619400 -0.6000000 0.1913413
v -0.5000127 -0.6000000 -0.0000043
v -0.4000101 -0.6000000 -0.0000034
v -0.3695520 -0.6000000 0.1530730
v -0.5000127 -0.6000000 -0.0000043
v -0.4619352 -0.6000000 -0.1913404
v -0.3695481 -0.6000000 -0.1530723
v -0.4000101 -0.6000000 -0.0000034
v -0.4619250 -0.6000000 -0.1913500
v -0.4619425 -0.5000000 -0.1913450
v -0.4217500 -0.5000000 -0.2517500
v -0.4217500 -0.6000000 -0.2517500
v -0.4619250 -0.6000000 -0.1913500
v -0.4217500 -0.6000000 -0.2517500
v -0.3695475 -0.6000000 -0.1530725
v -0.4217462 -0.6000000 -0.2517494
v -0.4217513 -0.5000000 -0.2517494
v -0.3695538 -0.5000000 -0.1530744
v -0.3695488 -0.6000000 -0.1530744
v -0.4217500 -0.6000000 0.2517500
v -0.4217500 -0.5000000 0.2517500
v -0.4619450 -0.5000000 0.1913475
v -0.4619450 -0.6000000 0.1913475
v -0.3695525 -0.6000000 0.1530725
v -0.4217500 -0.6000000 0.2517500
v -0.4619450 -0.6000000 0.1913475
v -0.3695530 -0.5000000 0.1530731
v -0.4217505 -0.5000000 0.2517506
v -0.4217505 -0.6000000 0.2517506
v -0.3695530 -0.6000000 0.1530731
v -0.3535500 -0.5000000 0.3535500
v -0.2828475 -0.5000000 0.2828475
v -0.1530750 -0.5000000 0.3695500
v -0.2517500 -0.5000000 0.4217500
v -0.4217500 -0.5000000 0.2517500
v -0.3695550 -0.5000000 0.1530750
v -0.2828475 -0.5000000 0.2828475
v -0.3535500 -0.5000000 0.3535500
v -0.1900575 -0.3500000 -0.0500000
v -0.1847800 -0.4500000 -0.0765400
v -0.2000000 -0.4500000 0.0000000
v -0.2000000 -0.3450275 0.0000000
v -0.1900575 -0.3500000 -0.0500000
v -0.1900575 -0.1000000 -0.0500000
v -0.1847800 -0.1000000 -0.0765400
v -0.1847800 -0.4500000 -0.0765400
v -0.1900575 -0.3500000 0.0500000
v -0.1847825 -0.4500000 0.0765400
v -0.1847800 -0.1000000 0.0765375
v -0.1900575 -0.1000000 0.0500000
v -0.2000000 -0.4500000 0.0000000
v -0.1847825 -0.4500000 0.0765400
v -0.1900575 -0.3500000 0.0500000
v -0.2000000 -0.3450275 0.0000000
v -0.3695575 -0.1000000 0.1530750
v -0.3900575 -0.1000000 0.0500000
v -0.1900575 -0.1000000 0.0500000
v -0.1847800 -0.1000000 0.0765375
v -0.1847800 -0.1000000 -0.0765400
v -0.1900575 -0.1000000 -0.0500000
v -0.3900575 -0.1000000 -0.0500000
v -0.3695600 -0.1000000 -0.1530800
v -0.3695525 -0.5000000 -0.1530750
v -0.3900575 -0.2500000 -0.0500000
v -0.4000000 -0.2450000 0.0000000
v -0.3900575 -0.2500000 -0.0500000
v -0.3695525 -0.5000000 -0.1530750
v -0.3695600 -0.1000000 -0.1530800
v -0.3900575 -0.1000000 -0.0500000
v -0.3900575 -0.2500000 0.0500000
v -0.3900575 -0.1000000 0.0500000
v -0.3695575 -0.1000000 0.1530750
v -0.3695550 -0.5000000 0.1530750
v -0.4000000 -0.6000000 0.0000000
v -0.4000000 -0.2450000 0.0000000
v -0.3695550 -0.5000000 0.1530750
v -0.3695525 -0.6000000 0.1530725
v -0.4000000 -0.2450000 0.0000000
v -0.3900575 -0.2500000 0.0500000
v -0.3695550 -0.5000000 0.1530750
v -0.4000000 -0.6000000 0.0000000
v -0.3695475 -0.6000000 -0.1530725
v -0.3695525 -0.5000000 -0.1530750
v -0.4000000 -0.2450000 0.0000000
v -0.0765368 -0.4500000 0.1847760
v -0.0765368 -0.1000000 0.1847760
v -0.1414261 -0.1000000 0.1414239
v -0.1414261 -0.4500000 0.1414239
v -0.1414261 -0.4500000 0.1414239
v -0.1414261 -0.1000000 0.1414239
v -0.1847742 -0.1000000 0.0765360
v -0.1847742 -0.4500000 0.0765360
v -0.1530735 -0.1000000 0.3695520
v -0.2828522 -0.1000000 0.2828479
v -0.1414261 -0.1000000 0.1414239
v -0.0765368 -0.1000000 0.1847760
v -0.2828522 -0.1000000 0.2828479
v -0.3695485 -0.1000000 0.1530719
v -0.1847742 -0.1000000 0.0765360
v -0.1414261 -0.1000000 0.1414239
v -0.2828518 -0.5000000 0.2828477
v -0.2828518 -0.1000000 0.2828477
v -0.1530733 -0.1000000 0.3695518
v -0.1530733 -0.5000000 0.3695518
v -0.3695481 -0.5000000 0.1530719
v -0.3695481 -0.1000000 0.1530719
v -0.2828518 -0.1000000 0.2828477
v -0.2828518 -0.5000000 0.2828477
v -0.4619500 -0.0000000 0.1913500
v -0.1913500 -0.0000000 0.4619500
v 0.0000000 -0.0000000 0.5000000
v -0.5000000 -0.0000000 0.0000000
v -0.3535500 -0.0000000 0.3535500
v -0.1913500 -0.0000000 0.4619500
v -0.4619500 -0.0000000 0.1913500
v -0.2121320 -0.0000000 0.0000005
v -0.1060658 -0.0000000 0.1060663
v -0.1385857 -0.0000000 0.0574032
v -0.2121320 -0.0000000 0.0000005
v -0.1385857 -0.0000000 0.0574032
v -0.1499985 -0.0000000 0.0000004
v -0.2121320 -0.0000000 0.0000005
v -0.1499985 -0.0000000 0.0000004
v -0.1385860 -0.0000000 -0.0574026
v -0.2121320 -0.0000000 0.0000005
v -0.1385860 -0.0000000 -0.0574026
v -0.1060663 -0.0000000 -0.1060658
v 0.0000000 -0.0000000 0.2121325
v -0.2121325 -0.0000000 0.0000000
v -0.5000000 -0.0000000 0.0000000
v 0.0000000 -0.0000000 0.5000000
v -0.1900575 -0.3500208 -0.0500000
v -0.2000000 -0.3450208 0.0000000
v -0.4000000 -0.2449933 0.0000000
v -0.3900575 -0.2499933 -0.0500000
v -0.3900575 -0.2499795 0.0500000
v -0.4000000 -0.2450070 0.0000000
v -0.2000000 -0.3450345 0.0000000
v -0.1900575 -0.3500070 0.0500000
v -0.1900575 -0.3500000 0.0500000
v -0.1900575 -0.1000000 0.0500000
v -0.3900575 -0.1000000 0.0500000
v -0.3900575 -0.2500000 0.0500000
v -0.3900575 -0.2500000 -0.0500000
v -0.3900575 -0.1000000 -0.0500000
v -0.1900575 -0.1000000 -0.0500000
v -0.1900575 -0.3500000 -0.0500000
v 0.1913418 -0.6000000 0.4619400
v 0.1913418 -0.5000000 0.4619400
v -0.0000038 -0.5000000 0.5000129
v -0.0000038 -0.6000000 0.5000129
v -0.0000038 -0.6000000 0.5000129
v -0.0000038 -0.5000000 0.5000129
v -0.1913400 -0.5000000 0.4619355
v -0.1913400 -0.6000000 0.4619355
v 0.1913413 -0.6000000 0.4619400
v -0.0000043 -0.6000000 0.5000127
v -0.0000034 -0.6000000 0.4000101
v 0.1530730 -0.6000000 0.3695520
v -0.0000043 -0.6000000 0.5000127
v -0.1913404 -0.6000000 0.4619352
v -0.1530723 -0.6000000 0.3695481
v -0.0000034 -0.6000000 0.4000101
v -0.1913500 -0.6000000 0.4619250
v -0.1913450 -0.5000000 0.4619425
v -0.2517500 -0.5000000 0.4217500
v -0.2517500 -0.6000000 0.4217500
v -0.1913500 -0.6000000 0.4619250
v -0.2517500 -0.6000000 0.4217500
v -0.1530725 -0.6000000 0.3695475
v -0.2517494 -0.6000000 0.4217462
v -0.2517494 -0.5000000 0.4217513
v -0.1530744 -0.5000000 0.3695538
v -0.1530744 -0.6000000 0.3695488
v 0.2517500 -0.6000000 0.4217500
v 0.2517500 -0.5000000 0.4217500
v 0.1913475 -0.5000000 0.4619450
v 0.1913475 -0.6000000 0.4619450
v 0.1530725 -0.6000000 0.3695525
v 0.2517500 -0.6000000 0.4217500
v 0.1913475 -0.6000000 0.4619450
v 0.1530731 -0.5000000 0.3695530
v 0.2517506 -0.5000000 0.4217505
v 0.2517506 -0.6000000 0.4217505
v 0.1530731 -0.6000000 0.3695530
v 0.3535500 -0.5000000 0.3535500
v 0.2828475 -0.5000000 0.2828475
v 0.3695500 -0.5000000 0.1530750
v 0.4217500 -0.5000000 0.2517500
v 0.2517500 -0.5000000 0.4217500
v 0.1530750 -0.5000000 0.3695550
v 0.2828475 -0.5000000 0.2828475
v 0.3535500 -0.5000000 0.3535500
v -0.0500000 -0.3500000 0.1900575
v -0.0765400 -0.4500000 0.1847800
v 0.0000000 -0.4500000 0.2000000
v 0.0000000 -0.3450275 0.2000000
v -0.0500000 -0.3500000 0.1900575
v -0.0500000 -0.1000000 0.1900575
v -0.0765400 -0.1000000 0.1847800
v -0.0765400 -0.4500000 0.1847800
v 0.0500000 -0.3500000 0.1900575
v 0.0765400 -0.4500000 0.1847825
v 0.0765375 -0.1000000 0.1847800
v 0.0500000 -0.1000000 0.1900575
v 0.0000000 -0.4500000 0.2000000
v 0.0765400 -0.4500000 0.1847825
v 0.0500000 -0.3500000 0.1900575
v 0.0000000 -0.3450275 0.2000000
v 0.1530750 -0.1000000 0.3695575
v 0.0500000 -0.1000000 0.3900575
v 0.0500000 -0.1000000 0.1900575
v 0.0765375 -0.1000000 0.1847800
v -0.0765400 -0.1000000 0.1847800
v -0.0500000 -0.1000000 0.1900575
v -0.0500000 -0.1000000 0.3900575
v -0.1530800 -0.1000000 0.3695600
v -0.1530750 -0.5000000 0.3695525
v -0.0500000 -0.2500000 0.3900575
v 0.0000000 -0.2450000 0.4000000
v -0.0500000 -0.2500000 0.3900575
v -0.1530750 -0.5000000 0.3695525
v -0.1530800 -0.1000000 0.3695600
v -0.0500000 -0.1000000 0.3900575
v 0.0500000 -0.2500000 0.3900575
v 0.0500000 -0.1000000 0.3900575
v 0.1530750 -0.1000000 0.3695575
v 0.1530750 -0.5000000 0.3695550
v 0.0000000 -0.6000000 0.4000000
v 0.0000000 -0.2450000 0.4000000
v 0.1530750 -0.5000000 0.3695550
v 0.1530725 -0.6000000 0.3695525
v 0.0000000 -0.2450000 0.4000000
v 0.0500000 -0.2500000 0.3900575
v 0.1530750 -0.5000000 0.3695550
v 0.0000000 -0.6000000 0.4000000
v -0.1530725 -0.6000000 0.3695475
v -0.1530750 -0.5000000 0.3695525
v 0.0000000 -0.2450000 0.4000000
v 0.1847760 -0.4500000 0.0765368
v 0.1847760 -0.1000000 0.0765368
v 0.1414239 -0.1000000 0.1414261
v 0.1414239 -0.4500000 0.1414261
v 0.1414239 -0.4500000 0.1414261
v 0.1414239 -0.1000000 0.1414261
v 0.0765360 -0.1000000 0.1847742
v 0.0765360 -0.4500000 0.1847742
v 0.3695520 -0.1000000 0.1530735
v 0.2828479 -0.1000000 0.2828522
v 0.1414239 -0.1000000 0.1414261
v 0.1847760 -0.1000000 0.0765368
v 0.2828479 -0.1000000 0.2828522
v 0.1530719 -0.1000000 0.3695485
v 0.0765360 -0.1000000 0.1847742
v 0.1414239 -0.1000000 0.1414261
v 0.2828477 -0.5000000 0.2828518
v 0.2828477 -0.1000000 0.2828518
v 0.3695518 -0.1000000 0.1530733
v 0.3695518 -0.5000000 0.1530733
v 0.1530719 -0.5000000 0.3695481
v 0.1530719 -0.1000000 0.3695481
v 0.2828477 -0.1000000 0.2828518
v 0.2828477 -0.5000000 0.2828518
v 0.1913500 -0.0000000 0.4619500
v 0.4619500 -0.0000000 0.1913500
v 0.5000000 -0.0000000 0.0000000
v 0.0000000 -0.0000000 0.5000000
v 0.3535500 -0.0000000 0.3535500
v 0.4619500 -0.0000000 0.1913500
v 0.1913500 -0.0000000 0.4619500
v 0.0000005 -0.0000000 0.2121320
v 0.1060663 -0.0000000 0.1060658
v 0.0574032 -0.0000000 0.1385857
v 0.0000005 -0.0000000 0.2121320
v 0.0574032 -0.0000000 0.1385857
v 0.0000004 -0.0000000 0.1499985
v 0.0000005 -0.0000000 0.2121320
v 0.0000004 -0.0000000 0.1499985
v -0.0574026 -0.0000000 0.1385860
v 0.0000005 -0.0000000 0.2121320
v -0.0574026 -0.0000000 0.1385860
v -0.1060658 -0.0000000 0.1060663
v 0.2121325 -0.0000000 0.0000000
v 0.0000000 -0.0000000 0.2121325
v 0.0000000 -0.0000000 0.5000000
v 0.5000000 -0.0000000 0.0000000
v -0.0500000 -0.3500208 0.1900575
v 0.0000000 -0.3450208 0.2000000
v 0.0000000 -0.2449933 0.4000000
v -0.0500000 -0.2499933 0.3900575
v 0.0500000 -0.2499795 0.3900575
v 0.0000000 -0.2450070 0.4000000
v 0.0000000 -0.3450345 0.2000000
v 0.0500000 -0.3500070 0.1900575
v 0.0500000 -0.3500000 0.1900575
v 0.0500000 -0.1000000 0.1900575
v 0.0500000 -0.1000000 0.3900575
v 0.0500000 -0.2500000 0.3900575
v -0.0500000 -0.2500000 0.3900575
v -0.0500000 -0.1000000 0.3900575
v -0.0500000 -0.1000000 0.1900575
v -0.0500000 -0.3500000 0.1900575
v 0.1925950 0.1000000 0.3885850
v 0.2500000 0.1000000 0.4000000
v 0.2500000 0.1000000 0.2500000
v 0.1439350 0.1000000 0.3560650
v 0.1925950 0.1000000 0.3885850
v 0.2500000 0.1000000 0.2500000
v 0.1114150 0.1000000 0.3074050
v 0.1439350 0.1000000 0.3560650
v 0.2500000 0.1000000 0.2500000
v 0.1000000 0.1000000 0.2500000
v 0.1114150 0.1000000 0.3074050
v 0.2500000 0.1000000 0.2500000
v 0.1114150 0.1000000 0.1925950
v 0.1000000 0.1000000 0.2500000
v 0.2500000 0.1000000 0.2500000
v 0.1439350 0.1000000 0.1439350
v 0.1114150 0.1000000 0.1925950
v 0.2500000 0.1000000 0.2500000
v 0.1925950 0.1000000 0.1114150
v 0.1439350 0.1000000 0.1439350
v 0.2500000 0.1000000 0.2500000
v 0.2500000 0.1000000 0.1000000
v 0.1925950 0.1000000 0.1114150
v 0.2500000 0.1000000 0.2500000
v 0.3074050 0.1000000 0.1114150
v 0.2500000 0.1000000 0.1000000
v 0.2500000 0.1000000 0.2500000
v 0.3560650 0.1000000 0.1439350
v 0.3074050 0.1000000 0.1114150
v 0.2500000 0.1000000 0.2500000
v 0.3885850 0.1000000 0.1925950
v 0.3560650 0.1000000 0.1439350
v 0.2500000 0.1000000 0.2500000
v 0.4000000 0.1000000 0.2500000
v 0.3885850 0.1000000 0.1925950
v 0.2500000 0.1000000 0.2500000
v 0.2500000 -0.0000000 0.4000000
v 0.2500000 0.1000000 0.4000000
v 0.1925950 0.1000000 0.3885850
v 0.1925950 -0.0000000 0.3885850
v 0.1925950 -0.0000000 0.3885850
v 0.1925950 0.1000000 0.3885850
v 0.1439350 0.1000000 0.3560650
v 0.1439350 -0.0000000 0.3560650
v 0.1439350 -0.0000000 0.3560650
v 0.1439350 0.1000000 0.3560650
v 0.1114150 0.1000000 0.3074050
v 0.1114150 -0.0000000 0.3074050
v 0.1114150 -0.0000000 0.3074050
v 0.1114150 0.1000000 0.3074050
v 0.1000000 0.1000000 0.2500000
v 0.1000000 -0.0000000 0.2500000
v 0.1000000 -0.0000000 0.2500000
v 0.1000000 0.1000000 0.2500000
v 0.1114150 0.1000000 0.1925950
v 0.1114150 -0.0000000 0.1925950
v 0.1114150 -0.0000000 0.1925950
v 0.1114150 0.1000000 0.1925950
v 0.1439350 0.1000000 0.1439350
v 0.1439350 -0.0000000 0.1439350
v 0.1439350 -0.0000000 0.1439350
v 0.1439350 0.1000000 0.1439350
v 0.1925950 0.1000000 0.1114150
v 0.1925950 -0.0000000 0.1114150
v 0.1925950 -0.0000000 0.1114150
v 0.1925950 0.1000000 0.1114150
v 0.2500000 0.1000000 0.1000000
v 0.2500000 -0.0000000 0.1000000
v 0.2500000 -0.0000000 0.1000000
v 0.2500000 0.1000000 0.1000000
v 0.3074050 0.1000000 0.1114150
v 0.3074050 -0.0000000 0.1114150
v 0.3074050 -0.0000000 0.1114150
v 0.3074050 0.1000000 0.1114150
v 0.3560650 0.1000000 0.1439350
v 0.3560650 -0.0000000 0.1439350
v 0.3560650 -0.0000000 0.1439350
v 0.3560650 0.1000000 0.1439350
v 0.3885850 0.1000000 0.1925950
v 0.3885850 -0.0000000 0.1925950
v 0.3885850 -0.0000000 0.1925950
v 0.3885850 0.1000000 0.1925950
v 0.4000000 0.1000000 0.2500000
v 0.4000000 -0.0000000 0.2500000
v 0.2500000 0.1000000 0.4000000
v 0.2500000 -0.0000000 0.4000000
v 0.2984700 -0.0000000 0.3903625
v 0.2984700 0.1000000 0.3903625
v 0.2984700 -0.0000000 0.3903625
v 0.3903625 -0.0000000 0.2984700
v 0.3903625 0.1000000 0.2984700
v 0.2984700 0.1000000 0.3903625
v 0.3903625 -0.0000000 0.2984700
v 0.4000000 -0.0000000 0.2500000
v 0.4000000 0.1000000 0.2500000
v 0.3903625 0.1000000 0.2984700
v 0.2500000 0.1000000 0.2500000
v 0.2500000 0.1000000 0.4000000
v 0.4000000 0.1000000 0.2500000
v 0.2984700 0.1000000 0.3903625
v 0.3903625 0.1000000 0.2984700
v 0.4000000 0.1000000 0.2500000
v 0.2500000 0.1000000 0.4000000
v -0.3885850 0.1000000 0.1925950
v -0.4000000 0.1000000 0.2500000
v -0.2500000 0.1000000 0.2500000
v -0.3560650 0.1000000 0.1439350
v -0.3885850 0.1000000 0.1925950
v -0.2500000 0.1000000 0.2500000
v -0.3074050 0.1000000 0.1114150
v -0.3560650 0.1000000 0.1439350
v -0.2500000 0.1000000 0.2500000
v -0.2500000 0.1000000 0.1000000
v -0.3074050 0.1000000 0.1114150
v -0.2500000 0.1000000 0.2500000
v -0.1925950 0.1000000 0.1114150
v -0.2500000 0.1000000 0.1000000
v -0.2500000 0.1000000 0.2500000
v -0.1439350 0.1000000 0.1439350
v -0.1925950 0.1000000 0.1114150
v -0.2500000 0.1000000 0.2500000
v -0.1114150 0.1000000 0.1925950
v -0.1439350 0.1000000 0.1439350
v -0.2500000 0.1000000 0.2500000
v -0.1000000 0.1000000 0.2500000
v -0.1114150 0.1000000 0.1925950
v -0.2500000 0.1000000 0.2500000
v -0.1114150 0.1000000 0.3074050
v -0.1000000 0.1000000 0.2500000
v -0.2500000 0.1000000 0.2500000
v -0.1439350 0.1000000 0.3560650
v -0.1114150 0.1000000 0.3074050
v -0.2500000 0.1000000 0.2500000
v -0.1925950 0.1000000 0.3885850
v -0.1439350 0.1000000 0.3560650
v -0.2500000 0.1000000 0.2500000
v -0.2500000 0.1000000 0.4000000
v -0.1925950 0.1000000 0.3885850
v -0.2500000 0.1000000 0.2500000
v -0.4000000 -0.0000000 0.2500000
v -0.4000000 0.1000000 0.2500000
v -0.3885850 0.1000000 0.1925950
v -0.3885850 -0.0000000 0.1925950
v -0.3885850 -0.0000000 0.1925950
v -0.3885850 0.1000000 0.1925950
v -0.3560650 0.1000000 0.1439350
v -0.3560650 -0.0000000 0.1439350
v -0.3560650 -0.0000000 0.1439350
v -0.3560650 0.1000000 0.1439350
v -0.3074050 0.1000000 0.1114150
v -0.3074050 -0.0000000 0.1114150
v -0.3074050 -0.0000000 0.1114150
v -0.3074050 0.1000000 0.1114150
v -0.2500000 0.1000000 0.1000000
v -0.2500000 -0.0000000 0.1000000
v -0.2500000 -0.0000000 0.1000000
v -0.2500000 0.1000000 0.1000000
v -0.1925950 0.1000000 0.1114150
v -0.1925950 -0.0000000 0.1114150
v -0.1925950 -0.0000000 0.1114150
v -0.1925950 0.1000000 0.1114150
v -0.1439350 0.1000000 0.1439350
v -0.1439350 -0.0000000 0.1439350
v -0.1439350 -0.0000000 0.1439350
v -0.1439350 0.1000000 0.1439350
v -0.1114150 0.1000000 0.1925950
v -0.1114150 -0.0000000 0.1925950
v -0.1114150 -0.0000000 0.1925950
v -0.1114150 0.1000000 0.1925950
v -0.1000000 0.1000000 0.2500000
v -0.1000000 -0.0000000 0.2500000
v -0.1000000 -0.0000000 0.2500000
v -0.1000000 0.1000000 0.2500000
v -0.1114150 0.1000000 0.3074050
v -0.1114150 -0.0000000 0.3074050
v -0.1114150 -0.0000000 0.3074050
v -0.1114150 0.1000000 0.3074050
v -0.1439350 0.1000000 0.3560650
v -0.1439350 -0.0000000 0.3560650
v -0.1439350 -0.0000000 0.3560650
v -0.1439350 0.1000000 0.3560650
v -0.1925950 0.1000000 0.3885850
v -0.1925950 -0.0000000 0.3885850
v -0.1925950 -0.0000000 0.3885850
v -0.1925950 0.1000000 0.3885850
v -0.2500000 0.1000000 0.4000000
v -0.2500000 -0.0000000 0.4000000
v -0.4000000 0.1000000 0.2500000
v -0.4000000 -0.0000000 0.2500000
v -0.3903625 -0.0000000 0.2984700
v -0.3903625 0.1000000 0.2984700
v -0.3903625 -0.0000000 0.2984700
v -0.2984700 -0.0000000 0.3903625
v -0.2984700 0.1000000 0.3903625
v -0.3903625 0.1000000 0.2984700
v -0.2984700 -0.0000000 0.3903625
v -0.2500000 -0.0000000 0.4000000
v -0.2500000 0.1000000 0.4000000
v -0.2984700 0.1000000 0.3903625
v -0.2500000 0.1000000 0.2500000
v -0.4000000 0.1000000 0.2500000
v -0.2500000 0.1000000 0.4000000
v -0.3903625 0.1000000 0.2984700
v -0.2984700 0.1000000 0.3903625
v -0.2500000 0.1000000 0.4000000
v -0.4000000 0.1000000 0.2500000
v 0.3885850 0.1000000 -0.1925950
v 0.4000000 0.1000000 -0.2500000
v 0.2500000 0.1000000 -0.2500000
v 0.3560650 0.1000000 -0.1439350
v 0.3885850 0.1000000 -0.1925950
v 0.2500000 0.1000000 -0.2500000
v 0.3074050 0.1000000 -0.1114150
v 0.3560650 0.1000000 -0.1439350
v 0.2500000 0.1000000 -0.2500000
v 0.2500000 0.1000000 -0.1000000
v 0.3074050 0.1000000 -0.1114150
v 0.2500000 0.1000000 -0.2500000
v 0.1925950 0.1000000 -0.1114150
v 0.2500000 0.1000000 -0.1000000
v 0.2500000 0.1000000 -0.2500000
v 0.1439350 0.1000000 -0.1439350
v 0.1925950 0.1000000 -0.1114150
v 0.2500000 0.1000000 -0.2500000
v 0.1114150 0.1000000 -0.1925950
v 0.1439350 0.1000000 -0.1439350
v 0.2500000 0.1000000 -0.2500000
v 0.1000000 0.1000000 -0.2500000
v 0.1114150 0.1000000 -0.1925950
v 0.2500000 0.1000000 -0.2500000
v 0.1114150 0.1000000 -0.3074050
v 0.1000000 0.1000000 -0.2500000
v 0.2500000 0.1000000 -0.2500000
v 0.1439350 0.1000000 -0.3560650
v 0.1114150 0.1000000 -0.3074050
v 0.2500000 0.1000000 -0.2500000
v 0.1925950 0.1000000 -0.3885850
v 0.1439350 0.1000000 -0.3560650
v 0.2500000 0.1000000 -0.2500000
v 0.2500000 0.1000000 -0.4000000
v 0.1925950 0.1000000 -0.3885850
v 0.2500000 0.1000000 -0.2500000
v 0.4000000 -0.0000000 -0.2500000
v 0.4000000 0.1000000 -0.2500000
v 0.3885850 0.1000000 -0.1925950
v 0.3885850 -0.0000000 -0.1925950
v 0.3885850 -0.0000000 -0.1925950
v 0.3885850 0.1000000 -0.1925950
v 0.3560650 0.1000000 -0.1439350
v 0.3560650 -0.0000000 -0.1439350
v 0.3560650 -0.0000000 -0.1439350
v 0.3560650 0.1000000 -0.1439350
v 0.3074050 0.1000000 -0.1114150
v 0.3074050 -0.0000000 -0.1114150
v 0.3074050 -0.0000000 -0.1114150
v 0.3074050 0.1000000 -0.1114150
v 0.2500000 0.1000000 -0.1000000
v 0.2500000 -0.0000000 -0.1000000
v 0.2500000 -0.0000000 -0.1000000
v 0.2500000 0.1000000 -0.1000000
v 0.1925950 0.1000000 -0.1114150
v 0.1925950 -0.0000000 -0.1114150
v 0.1925950 -0.0000000 -0.1114150
v 0.1925950 0.1000000 -0.1114150
v 0.1439350 0.1000000 -0.1439350
v 0.1439350 -0.0000000 -0.1439350
v 0.1439350 -0.0000000 -0.1439350
v 0.1439350 0.1000000 -0.1439350
v 0.1114150 0.1000000 -0.1925950
v 0.1114150 -0.0000000 -0.1925950
v 0.1114150 -0.0000000 -0.1925950
v 0.1114150 0.1000000 -0.1925950
v 0.1000000 0.1000000 -0.2500000
v 0.1000000 -0.0000000 -0.2500000
v 0.1000000 -0.0000000 -0.2500000
v 0.1000000 0.1000000 -0.2500000
v 0.1114150 0.1000000 -0.3074050
v 0.1114150 -0.0000000 -0.3074050
v 0.1114150 -0.0000000 -0.3074050
v 0.1114150 0.1000000 -0.3074050
v 0.1439350 0.1000000 -0.3560650
v 0.1439350 -0.0000000 -0.3560650
v 0.1439350 -0.0000000 -0.3560650
v 0.1439350 0.1000000 -0.3560650
v 0.1925950 0.1000000 -0.3885850
v 0.1925950 -0.0000000 -0.3885850
v 0.1925950 -0.0000000 -0.3885850
v 0.1925950 0.1000000 -0.3885850
v 0.2500000 0.1000000 -0.4000000
v 0.2500000 -0.0000000 -0.4000000
v 0.4000000 0.1000000 -0.2500000
v 0.4000000 -0.0000000 -0.2500000
v 0.3903625 -0.0000000 -0.2984700
v 0.3903625 0.1000000 -0.2984700
v 0.3903625 -0.0000000 -0.2984700
v 0.2984700 -0.0000000 -0.3903625
v 0.2984700 0.1000000 -0.3903625
v 0.3903625 0.1000000 -0.2984700
v 0.2984700 -0.0000000 -0.3903625
v 0.2500000 -0.0000000 -0.4000000
v 0.2500000 0.1000000 -0.4000000
v 0.2984700 0.1000000 -0.3903625
v 0.2500000 0.1000000 -0.2500000
v 0.4000000 0.1000000 -0.2500000
v 0.2500000 0.1000000 -0.4000000
v 0.3903625 0.1000000 -0.2984700
v 0.2984700 0.1000000 -0.3903625
v 0.2500000 0.1000000 -0.4000000
v 0.4000000 0.1000000 -0.2500000
v -0.1925950 0.1000000 -0.3885850
v -0.2500000 0.1000000 -0.4000000
v -0.2500000 0.1000000 -0.2500000
v -0.1439350 0.1000000 -0.3560650
v -0.1925950 0.1000000 -0.3885850
v -0.2500000 0.1000000 -0.2500000
v -0.1114150 0.1000000 -0.3074050
v -0.1439350 0.1000000 -0.3560650
v -0.2500000 0.1000000 -0.2500000
v -0.1000000 0.1000000 -0.2500000
v -0.1114150 0.1000000 -0.3074050
v -0.2500000 0.1000000 -0.2500000
v -0.1114150 0.1000000 -0.1925950
v -0.1000000 0.1000000 -0.2500000
v -0.2500000 0.1000000 -0.2500000
v -0.1439350 0.1000000 -0.1439350
v -0.1114150 0.1000000 -0.1925950
v -0.2500000 0.1000000 -0.2500000
v -0.1925950 0.1000000 -0.1114150
v -0.1439350 0.1000000 -0.1439350
v -0.2500000 0.1000000 -0.2500000
v -0.2500000 0.1000000 -0.1000000
v -0.1925950 0.1000000 -0.1114150
v -0.2500000 0.1000000 -0.2500000
v -0.3074050 0.1000000 -0.1114150
v -0.2500000 0.1000000 -0.1000000
v -0.2500000 0.1000000 -0.2500000
v -0.3560650 0.1000000 -0.1439350
v -0.3074050 0.1000000 -0.1114150
v -0.2500000 0.1000000 -0.2500000
v -0.3885850 0.1000000 -0.1925950
v -0.3560650 0.1000000 -0.1439350
v -0.2500000 0.1000000 -0.2500000
v -0.4000000 0.1000000 -0.2500000
v -0.3885850 0.1000000 -0.1925950
v -0.2500000 0.1000000 -0.2500000
v -0.2500000 -0.0000000 -0.4000000
v -0.2500000 0.1000000 -0.4000000
v -0.1925950 0.1000000 -0.3885850
v -0.1925950 -0.0000000 -0.3885850
v -0.1925950 -0.0000000 -0.3885850
v -0.1925950 0.1000000 -0.3885850
v -0.1439350 0.1000000 -0.3560650
v -0.1439350 -0.0000000 -0.3560650
v -0.1439350 -0.0000000 -0.3560650
v -0.1439350 0.1000000 -0.3560650
v -0.1114150 0.1000000 -0.3074050
v -0.1114150 -0.0000000 -0.3074050
v -0.1114150 -0.0000000 -0.3074050
v -0.1114150 0.1000000 -0.3074050
v -0.1000000 0.1000000 -0.2500000
v -0.1000000 -0.0000000 -0.2500000
v -0.1000000 -0.0000000 -0.2500000
v -0.1000000 0.1000000 -0.2500000
v -0.1114150 0.1000000 -0.1925950
v -0.1114150 -0.0000000 -0.1925950
v -0.1114150 -0.0000000 -0.1925950
v -0.1114150 0.1000000 -0.1925950
v -0.1439350 0.1000000 -0.1439350
v -0.1439350 -0.0000000 -0.1439350
v -0.1439350 -0.0000000 -0.1439350
v -0.1439350 0.1000000 -0.1439350
v -0.1925950 0.1000000 -0.1114150
v -0.1925950 -0.0000000 -0.1114150
v -0.1925950 -0.0000000 -0.1114150
v -0.1925950 0.1000000 -0.1114150
v -0.2500000 0.1000000 -0.1000000
v -0.2500000 -0.0000000 -0.1000000
v -0.2500000 -0.0000000 -0.1000000
v -0.2500000 0.1000000 -0.1000000
v -0.3074050 0.1000000 -0.1114150
v -0.3074050 -0.0000000 -0.1114150
v -0.3074050 -0.0000000 -0.1114150
v -0.3074050 0.1000000 -0.1114150
v -0.3560650 0.1000000 -0.1439350
v -0.3560650 -0.0000000 -0.1439350
v -0.3560650 -0.0000000 -0.1439350
v -0.3560650 0.1000000 -0.1439350
v -0.3885850 0.1000000 -0.1925950
v -0.3885850 -0.0000000 -0.1925950
v -0.3885850 -0.0000000 -0.1925950
v -0.3885850 0.1000000 -0.1925950
v -0.4000000 0.1000000 -0.2500000
v -0.4000000 -0.0000000 -0.2500000
v -0.2500000 0.1000000 -0.4000000
v -0.2500000 -0.0000000 -0.4000000
v -0.2984700 -0.0000000 -0.3903625
v -0.2984700 0.1000000 -0.3903625
v -0.2984700 -0.0000000 -0.3903625
v -0.3903625 -0.0000000 -0.2984700
v -0.3903625 0.1000000 -0.2984700
v -0.2984700 0.1000000 -0.3903625
v -0.3903625 -0.0000000 -0.2984700
v -0.4000000 -0.0000000 -0.2500000
v -0.4000000 0.1000000 -0.2500000
v -0.3903625 0.1000000 -0.2984700
v -0.2500000 0.1000000 -0.2500000
v -0.2500000 0.1000000 -0.4000000
v -0.4000000 0.1000000 -0.2500000
v -0.2984700 0.1000000 -0.3903625
v -0.3903625 0.1000000 -0.2984700
v -0.4000000 0.1000000 -0.2500000
v -0.2500000 0.1000000 -0.4000000
v 0.5000000 -0.0000000 0.0000000
v 0.4619500 -0.0000000 0.1913500
v 0.4619500 -0.5000000 0.1913500
v 0.5000000 -0.5000000 0.0000000
v 0.4619500 -0.0000000 0.1913500
v 0.3535500 -0.0000000 0.3535500
v 0.3535500 -0.5000000 0.3535500
v 0.4619500 -0.5000000 0.1913500
v 0.3535500 -0.0000000 0.3535500
v 0.1913500 -0.0000000 0.4619500
v 0.1913500 -0.5000000 0.4619500
v 0.3535500 -0.5000000 0.3535500
v 0.1913500 -0.0000000 0.4619500
v 0.0000000 -0.0000000 0.5000000
v 0.0000000 -0.5000000 0.5000000
v 0.1913500 -0.5000000 0.4619500
v 0.0000000 -0.0000000 0.5000000
v -0.1913500 -0.0000000 0.4619500
v -0.1913500 -0.5000000 0.4619500
v 0.0000000 -0.5000000 0.5000000
v -0.1913500 -0.0000000 0.4619500
v -0.3535500 -0.0000000 0.3535500
v -0.3535500 -0.5000000 0.3535500
v -0.1913500 -0.5000000 0.4619500
v -0.3535500 -0.0000000 0.3535500
v -0.4619500 -0.0000000 0.1913500
v -0.4619500 -0.5000000 0.1913500
v -0.3535500 -0.5000000 0.3535500
v -0.4619500 -0.0000000 0.1913500
v -0.5000000 -0.0000000 0.0000000
v -0.5000000 -0.5000000 0.0000000
v -0.4619500 -0.5000000 0.1913500
v -0.5000000 -0.0000000 0.0000000
v -0.4619500 -0.0000000 -0.1913500
v -0.4619500 -0.5000000 -0.1913500
v -0.5000000 -0.5000000 0.0000000
v -0.4619500 -0.0000000 -0.1913500
v -0.3535500 -0.0000000 -0.3535500
v -0.3535500 -0.5000000 -0.3535500
v -0.4619500 -0.5000000 -0.1913500
v -0.3535500 -0.0000000 -0.3535500
v -0.1913500 -0.0000000 -0.4619500
v -0.1913500 -0.5000000 -0.4619500
v -0.3535500 -0.5000000 -0.3535500
v -0.1913500 -0.0000000 -0.4619500
v 0.0000000 -0.0000000 -0.5000000
v 0.0000000 -0.5000000 -0.5000000
v -0.1913500 -0.5000000 -0.4619500
v 0.0000000 -0.0000000 -0.5000000
v 0.1913500 -0.0000000 -0.4619500
v 0.1913500 -0.5000000 -0.4619500
v 0.0000000 -0.5000000 -0.5000000
v 0.1913500 -0.0000000 -0.4619500
v 0.3535500 -0.0000000 -0.3535500
v 0.3535500 -0.5000000 -0.3535500
v 0.1913500 -0.5000000 -0.4619500
v 0.3535500 -0.0000000 -0.3535500
v 0.4619500 -0.0000000 -0.1913500
v 0.4619500 -0.5000000 -0.1913500
v 0.3535500 -0.5000000 -0.3535500
v 0.4619500 -0.0000000 -0.1913500
v 0.5000000 -0.0000000 0.0000000
v 0.5000000 -0.5000000 0.0000000
v 0.4619500 -0.5000000 -0.1913500
s off
f 1 2 3
f 1 3 4
f 5 6 7
f 5 7 8
f 9 10 11
f 9 11 12
f 13 14 15
f 13 15 16
f 17 18 19
f 17 19 20
f 21 22 23
f 21 23 24
f 25 26 27
f 25 27 28
f 29 30 31
f 29 31 32
f 33 34 35
f 33 35 36
f 37 38 39
f 37 39 40
f 41 42 43
f 41 43 44
f 45 46 47
f 45 47 48
f 49 50 51
f 49 51 52
f 53 54 55
f 53 55 56
f 57 58 59
f 57 59 60
f 61 62 63
f 61 63 64
f 65 66 67
f 65 67 68
f 69 70 71
f 69 71 72
f 73 74 75
f 73 75 76
f 77 78 79
f 77 79 80
f 81 82 83
f 81 83 84
f 85 86 87
f 85 87 88
f 89 90 91
f 89 91 92
f 93 94 95
f 93 95 96
f 97 98 99
f 97 99 100
f 101 102 103
f 101 103 104
f 105 106 107
f 105 107 108
f 109 110 111
f 109 111 112
f 113 114 115
f 113 115 116
f 117 118 119
f 117 119 120
f 121 122 123
f 121 123 124
f 125 126 127
f 125 127 128
f 129 130 131
f 129 131 132
f 133 134 135
f 133 135 136
f 137 138 139
f 137 139 140
f 141 142 143
f 141 143 144
f 145 146 147
f 145 147 148
f 149 150 151
f 149 151 152
f 153 154 155
f 153 155 156
f 157 158 159
f 157 159 160
f 161 162 163
f 161 163 164
f 165 166 167
f 165 167 168
f 169 170 171
f 169 171 172
f 173 174 175
f 173 175 176
f 177 178 179
f 177 179 180
f 181 182 183
f 181 183 184
f 185 186 187
f 185 187 188
f 189 190 191
f 189 191 192
f 193 194 195
f 193 195 196
f 197 198 199
f 197 199 200
f 201 202 203
f 201 203 204
f 205 206 207
f 205 207 208
f 209 210 211
f 209 211 212
f 213 214 215
f 213 215 216
f 217 218 219
f 217 219 220
f 221 222 223
f 221 223 224
f 225 226 227
f 225 227 228
f 229 230 231
f 229 231 232
f 233 234 235
f 233 235 236
f 237 238 239
f 237 239 240
f 241 242 243
f 241 243 244
f 245 246 247
f 245 247 248
f 249 250 251
f 249 251 252
f 253 254 255
f 253 255 256
f 257 258 259
f 257 259 260
f 261 262 263
f 261 263 264
f 265 266 267
f 265 267 268
f 269 270 271
f 269 271 272
f 273 274 275
f 273 275 276
f 277 278 279
f 277 279 280
f 281 282 283
f 281 283 284
f 285 286 287
f 285 287 288
f 289 290 291
f 289 291 292
f 293 294 295
f 293 295 296
f 297 298 299
f 297 299 300
f 301 302 303
f 301 303 304
f 305 306 307
f 305 307 308
f 309 310 311
f 309 311 312
f 313 314 315
f 313 315 316
f 317 318 319
f 317 319 320
f 321 322 323
f 321 323 324
f 325 326 327
f 325 327 328
f 329 330 331
f 329 331 332
f 333 334 335
f 333 335 336
f 337 338 339
f 337 339 340
f 341 342 343
f 341 343 344
f 345 346 347
f 345 347 348
f 349 350 351
f 349 351 352
f 353 354 355
f 353 355 356
f 357 358 359
f 357 359 360
f 361 362 363
f 361 363 364
f 365 366 367
f 365 367 368
f 369 370 371
f 369 371 372
f 373 374 375
f 376 377 378
f 376 378 379
f 380 381 382
f 380 382 383
f 384 385 386
f 387 388 389
f 387 389 390
f 391 392 393
f 391 393 394
f 395 396 397
f 395 397 398
f 399 400 401
f 399 401 402
f 403 404 405
f 403 405 406
f 407 408 409
f 407 409 410
f 411 412 413
f 411 413 414
f 415 416 417
f 415 417 418
f 419 420 421
f 419 421 422
f 423 424 425
f 426 427 428
f 426 428 429
f 430 431 432
f 430 432 433
f 434 435 436
f 434 436 437
f 438 439 440
f 441 442 443
f 441 443 444
f 445 446 447
f 445 447 448
f 449 450 451
f 449 451 452
f 453 454 455
f 453 455 456
f 457 458 459
f 457 459 460
f 461 462 463
f 461 463 464
f 465 466 467
f 465 467 468
f 469 470 471
f 469 471 472
f 473 474 475
f 476 477 478
f 479 480 481
f 482 483 484
f 485 486 487
f 488 489 490
f 488 490 491
f 492 493 494
f 492 494 495
f 496 497 498
f 496 498 499
f 500 501 502
f 500 502 503
f 504 505 506
f 504 506 507
f 508 509 510
f 508 510 511
f 512 513 514
f 512 514 515
f 516 517 518
f 516 518 519
f 520 521 522
f 520 522 523
f 524 525 526
f 524 526 527
f 528 529 530
f 531 532 533
f 531 533 534
f 535 536 537
f 535 537 538
f 539 540 541
f 542 543 544
f 542 544 545
f 546 547 548
f 546 548 549
f 550 551 552
f 550 552 553
f 554 555 556
f 554 556 557
f 558 559 560
f 558 560 561
f 562 563 564
f 562 564 565
f 566 567 568
f 566 568 569
f 570 571 572
f 570 572 573
f 574 575 576
f 574 576 577
f 578 579 580
f 581 582 583
f 581 583 584
f 585 586 587
f 585 587 588
f 589 590 591
f 589 591 592
f 593 594 595
f 596 597 598
f 596 598 599
f 600 601 602
f 600 602 603
f 604 605 606
f 604 606 607
f 608 609 610
f 608 610 611
f 612 613 614
f 612 614 615
f 616 617 618
f 616 618 619
f 620 621 622
f 620 622 623
f 624 625 626
f 624 626 627
f 628 629 630
f 631 632 633
f 634 635 636
f 637 638 639
f 640 641 642
f 643 644 645
f 643 645 646
f 647 648 649
f 647 649 650
f 651 652 653
f 651 653 654
f 655 656 657
f 655 657 658
f 659 660 661
f 659 661 662
f 663 664 665
f 663 665 666
f 667 668 669
f 667 669 670
f 671 672 673
f 671 673 674
f 675 676 677
f 675 677 678
f 679 680 681
f 679 681 682
f 683 684 685
f 686 687 688
f 686 688 689
f 690 691 692
f 690 692 693
f 694 695 696
f 697 698 699
f 697 699 700
f 701 702 703
f 701 703 704
f 705 706 707
f 705 707 708
f 709 710 711
f 709 711 712
f 713 714 715
f 713 715 716
f 717 718 719
f 717 719 720
f 721 722 723
f 721 723 724
f 725 726 727
f 725 727 728
f 729 730 731
f 729 731 732
f 733 734 735
f 736 737 738
f 736 738 739
f 740 741 742
f 740 742 743
f 744 745 746
f 744 746 747
f 748 749 750
f 751 752 753
f 751 753 754
f 755 756 757
f 755 757 758
f 759 760 761
f 759 761 762
f 763 764 765
f 763 765 766
f 767 768 769
f 767 769 770
f 771 772 773
f 771 773 774
f 775 776 777
f 775 777 778
f 779 780 781
f 779 781 782
f 783 784 785
f 786 787 788
f 789 790 791
f 792 793 794
f 795 796 797
f 798 799 800
f 798 800 801
f 802 803 804
f 802 804 805
f 806 807 808
f 806 808 809
f 810 811 812
f 810 812 813
f 814 815 816
f 814 816 817
f 818 819 820
f 818 820 821
f 822 823 824
f 822 824 825
f 826 827 828
f 826 828 829
f 830 831 832
f 830 832 833
f 834 835 836
f 834 836 837
f 838 839 840
f 841 842 843
f 841 843 844
f 845 846 847
f 845 847 848
f 849 850 851
f 852 853 854
f 852 854 855
f 856 857 858
f 856 858 859
f 860 861 862
f 860 862 863
f 864 865 866
f 864 866 867
f 868 869 870
f 868 870 871
f 872 873 874
f 872 874 875
f 876 877 878
f 876 878 879
f 880 881 882
f 880 882 883
f 884 885 886
f 884 886 887
f 888 889 890
f 891 892 893
f 891 893 894
f 895 896 897
f 895 897 898
f 899 900 901
f 899 901 902
f 903 904 905
f 906 907 908
f 906 908 909
f 910 911 912
f 910 912 913
f 914 915 916
f 914 916 917
f 918 919 920
f 918 920 921
f 922 923 924
f 922 924 925
f 926 927 928
f 926 928 929
f 930 931 932
f 930 932 933
f 934 935 936
f 934 936 937
f 938 939 940
f 941 942 943
f 944 945 946
f 947 948 949
f 950 951 952
f 953 954 955
f 953 955 956
f 957 958 959
f 957 959 960
f 961 962 963
f 961 963 964
f 965 966 967
f 965 967 968
f 969 970 971
f 969 971 972
f 973 974 975
f 976 977 978
f 979 980 981
f 982 983 984
f 985 986 987
f 988 989 990
f 991 992 993
f 994 995 996
f 997 998 999
f 1000 1001 1002
f 1003 1004 1005
f 1006 1007 1008
f 1009 1010 1011
f 1009 1011 1012
f 1013 1014 1015
f 1013 1015 1016
f 1017 1018 1019
f 1017 1019 1020
f 1021 1022 1023
f 1021 1023 1024
f 1025 1026 1027
f 1025 1027 1028
f 1029 1030 1031
f 1029 1031 1032
f 1033 1034 1035
f 1033 1035 1036
f 1037 1038 1039
f 1037 1039 1040
f 1041 1042 1043
f 1041 1043 1044
f 1045 1046 1047
f 1045 1047 1048
f 1049 1050 1051
f 1049 1051 1052
f 1053 1054 1055
f 1053 1055 1056
f 1057 1058 1059
f 1057 1059 1060
f 1061 1062 1063
f 1061 1063 1064
f 1065 1066 1067
f 1065 1067 1068
f 1069 1070 1071
f 1072 1073 1074
f 1072 1074 1075
f 1076 1077 1078
f 1079 1080 1081
f 1082 1083 1084
f 1085 1086 1087
f 1088 1089 1090
f 1091 1092 1093
f 1094 1095 1096
f 1097 1098 1099
f 1100 1101 1102
f 1103 1104 1105
f 1106 1107 1108
f 1109 1110 1111
f 1112 1113 1114
f 1112 1114 1115
f 1116 1117 1118
f 1116 1118 1119
f 1120 1121 1122
f 1120 1122 1123
f 1124 1125 1126
f 1124 1126 1127
f 1128 1129 1130
f 1128 1130 1131
f 1132 1133 1134
f 1132 1134 1135
f 1136 1137 1138
f 1136 1138 1139
f 1140 1141 1142
f 1140 1142 1143
f 1144 1145 1146
f 1144 1146 1147
f 1148 1149 1150
f 1148 1150 1151
f 1152 1153 1154
f 1152 1154 1155
f 1156 1157 1158
f 1156 1158 1159
f 1160 1161 1162
f 1160 1162 1163
f 1164 1165 1166
f 1164 1166 1167
f 1168 1169 1170
f 1168 1170 1171
f 1172 1173 1174
f 1175 1176 1177
f 1175 1177 1178
f 1179 1180 1181
f 1182 1183 1184
f 1185 1186 1187
f 1188 1189 1190
f 1191 1192 1193
f 1194 1195 1196
f 1197 1198 1199
f 1200 1201 1202
f 1203 1204 1205
f 1206 1207 1208
f 1209 1210 1211
f 1212 1213 1214
f 1215 1216 1217
f 1215 1217 1218
f 1219 1220 1221
f 1219 1221 1222
f 1223 1224 1225
f 1223 1225 1226
f 1227 1228 1229
f 1227 1229 1230
f 1231 1232 1233
f 1231 1233 1234
f 1235 1236 1237
f 1235 1237 1238
f 1239 1240 1241
f 1239 1241 1242
f 1243 1244 1245
f 1243 1245 1246
f 1247 1248 1249
f 1247 1249 1250
f 1251 1252 1253
f 1251 1253 1254
f 1255 1256 1257
f 1255 1257 1258
f 1259 1260 1261
f 1259 1261 1262
f 1263 1264 1265
f 1263 1265 1266
f 1267 1268 1269
f 1267 1269 1270
f 1271 1272 1273
f 1271 1273 1274
f 1275 1276 1277
f 1278 1279 1280
f 1278 1280 1281
f 1282 1283 1284
f 1285 1286 1287
f 1288 1289 1290
f 1291 1292 1293
f 1294 1295 1296
f 1297 1298 1299
f 1300 1301 1302
f 1303 1304 1305
f 1306 1307 1308
f 1309 1310 1311
f 1312 1313 1314
f 1315 1316 1317
f 1318 1319 1320
f 1318 1320 1321
f 1322 1323 1324
f 1322 1324 1325
f 1326 1327 1328
f 1326 1328 1329
f 1330 1331 1332
f 1330 1332 1333
f 1334 1335 1336
f 1334 1336 1337
f 1338 1339 1340
f 1338 1340 1341
f 1342 1343 1344
f 1342 1344 1345
f 1346 1347 1348
f 1346 1348 1349
f 1350 1351 1352
f 1350 1352 1353
f 1354 1355 1356
f 1354 1356 1357
f 1358 1359 1360
f 1358 1360 1361
f 1362 1363 1364
f 1362 1364 1365
f 1366 1367 1368
f 1366 1368 1369
f 1370 1371 1372
f 1370 1372 1373
f 1374 1375 1376
f 1374 1376 1377
f 1378 1379 1380
f 1381 1382 1383
f 1381 1383 1384
f 1385 1386 1387
f 1385 1387 1388
f 1389 1390 1391
f 1389 1391 1392
f 1393 1394 1395
f 1393 1395 1396
f 1397 1398 1399
f 1397 1399 1400
f 1401 1402 1403
f 1401 1403 1404
f 1405 1406 1407
f 1405 1407 1408
f 1409 1410 1411
f 1409 1411 1412
f 1413 1414 1415
f 1413 1415 1416
f 1417 1418 1419
f 1417 1419 1420
f 1421 1422 1423
f 1421 1423 1424
f 1425 1426 1427
f 1425 1427 1428
f 1429 1430 1431
f 1429 1431 1432
f 1433 1434 1435
f 1433 1435 1436
f 1437 1438 1439
f 1437 1439 1440
f 1441 1442 1443
f 1441 1443 1444
f 1445 1446 1447
f 1445 1447 1448
