# Baked from official LDraw part 6182.dat
o ldraw_6182
v 0.6000000 -0.1000000 -0.1500000
v 0.9000000 -0.1000000 -0.1500000
v 0.9000000 -0.1000000 0.1500000
v 0.6000000 -0.1000000 0.1500000
v 0.9000000 -0.1000000 0.1500000
v 0.9000000 -1.2000000 0.1500000
v 0.6000000 -1.2000000 0.1500000
v 0.6000000 -0.1000000 0.1500000
v 0.6000000 -0.1000000 0.1500000
v 0.6000000 -1.2000000 0.1500000
v 0.6000000 -1.2000000 -0.1500000
v 0.6000000 -0.1000000 -0.1500000
v 0.6000000 -0.1000000 -0.1500000
v 0.6000000 -1.2000000 -0.1500000
v 0.9000000 -1.2000000 -0.1500000
v 0.9000000 -0.1000000 -0.1500000
v 0.9000000 -0.1000000 -0.1500000
v 0.9000000 -1.2000000 -0.1500000
v 0.9000000 -1.2000000 0.1500000
v 0.9000000 -0.1000000 0.1500000
v -0.9000000 -0.1000000 -0.1500000
v -0.6000000 -0.1000000 -0.1500000
v -0.6000000 -0.1000000 0.1500000
v -0.9000000 -0.1000000 0.1500000
v -0.6000000 -0.1000000 0.1500000
v -0.6000000 -1.2000000 0.1500000
v -0.9000000 -1.2000000 0.1500000
v -0.9000000 -0.1000000 0.1500000
v -0.9000000 -0.1000000 0.1500000
v -0.9000000 -1.2000000 0.1500000
v -0.9000000 -1.2000000 -0.1500000
v -0.9000000 -0.1000000 -0.1500000
v -0.9000000 -0.1000000 -0.1500000
v -0.9000000 -1.2000000 -0.1500000
v -0.6000000 -1.2000000 -0.1500000
v -0.6000000 -0.1000000 -0.1500000
v -0.6000000 -0.1000000 -0.1500000
v -0.6000000 -1.2000000 -0.1500000
v -0.6000000 -1.2000000 0.1500000
v -0.6000000 -0.1000000 0.1500000
v 0.5000000 -1.2000000 0.2500000
v 0.6000000 -1.2000000 0.1500000
v 0.9000000 -1.2000000 0.1500000
v 1.0000000 -1.2000000 0.2500000
v 0.5000000 -1.2000000 -0.2500000
v 0.6000000 -1.2000000 -0.1500000
v 0.6000000 -1.2000000 0.1500000
v 0.5000000 -1.2000000 0.2500000
v 1.0000000 -1.2000000 -0.2500000
v 0.9000000 -1.2000000 -0.1500000
v 0.6000000 -1.2000000 -0.1500000
v 0.5000000 -1.2000000 -0.2500000
v 1.0000000 -1.2000000 0.2500000
v 0.9000000 -1.2000000 0.1500000
v 0.9000000 -1.2000000 -0.1500000
v 1.0000000 -1.2000000 -0.2500000
v -1.0000000 -1.2000000 0.2500000
v -0.9000000 -1.2000000 0.1500000
v -0.6000000 -1.2000000 0.1500000
v -0.5000000 -1.2000000 0.2500000
v -0.5000000 -1.2000000 0.2500000
v -0.6000000 -1.2000000 0.1500000
v -0.6000000 -1.2000000 -0.1500000
v -0.5000000 -1.2000000 -0.2500000
v -0.5000000 -1.2000000 -0.2500000
v -0.6000000 -1.2000000 -0.1500000
v -0.9000000 -1.2000000 -0.1500000
v -1.0000000 -1.2000000 -0.2500000
v -1.0000000 -1.2000000 -0.2500000
v -0.9000000 -1.2000000 -0.1500000
v -0.9000000 -1.2000000 0.1500000
v -1.0000000 -1.2000000 0.2500000
v -0.5000000 -0.2000000 0.1500000
v -0.5000000 -0.1000000 0.1500000
v 0.5000000 -0.1000000 0.1500000
v 0.5000000 -0.2000000 0.1500000
v 0.5000000 -0.2000000 -0.1500000
v 0.5000000 -0.1000000 -0.1500000
v -0.5000000 -0.1000000 -0.1500000
v -0.5000000 -0.2000000 -0.1500000
v -1.0000000 -1.2000000 0.2500000
v -0.5000000 -1.2000000 0.2500000
v -0.5000000 -0.2000000 0.2500000
v -1.0000000 -0.0000000 0.2500000
v 0.5000000 -0.2000000 0.2500000
v 0.5000000 -1.2000000 0.2500000
v 1.0000000 -1.2000000 0.2500000
v 1.0000000 -0.0000000 0.2500000
v -0.5000000 -0.2000000 -0.2500000
v -0.5000000 -1.2000000 -0.2500000
v -1.0000000 -1.2000000 -0.2500000
v -1.0000000 -0.0000000 -0.2500000
v 1.0000000 -1.2000000 -0.2500000
v 0.5000000 -1.2000000 -0.2500000
v 0.5000000 -0.2000000 -0.2500000
v 1.0000000 -0.0000000 -0.2500000
v -1.0000000 -0.0000000 0.2500000
v -0.5000000 -0.2000000 0.2500000
v 0.5000000 -0.2000000 0.2500000
v 1.0000000 -0.0000000 0.2500000
v 1.0000000 -0.0000000 -0.2500000
v 0.5000000 -0.2000000 -0.2500000
v -0.5000000 -0.2000000 -0.2500000
v -1.0000000 -0.0000000 -0.2500000
v -0.7500000 0.1000000 -0.1500000
v -0.6925950 0.1000000 -0.1385850
v -0.6925950 -0.0000000 -0.1385850
v -0.7500000 -0.0000000 -0.1500000
v -0.6925950 0.1000000 -0.1385850
v -0.6439350 0.1000000 -0.1060650
v -0.6439350 -0.0000000 -0.1060650
v -0.6925950 -0.0000000 -0.1385850
v -0.6439350 0.1000000 -0.1060650
v -0.6114150 0.1000000 -0.0574050
v -0.6114150 -0.0000000 -0.0574050
v -0.6439350 -0.0000000 -0.1060650
v -0.6114150 0.1000000 -0.0574050
v -0.6000000 0.1000000 0.0000000
v -0.6000000 -0.0000000 0.0000000
v -0.6114150 -0.0000000 -0.0574050
v -0.6000000 0.1000000 0.0000000
v -0.6114150 0.1000000 0.0574050
v -0.6114150 -0.0000000 0.0574050
v -0.6000000 -0.0000000 0.0000000
v -0.6114150 0.1000000 0.0574050
v -0.6439350 0.1000000 0.1060650
v -0.6439350 -0.0000000 0.1060650
v -0.6114150 -0.0000000 0.0574050
v -0.6439350 0.1000000 0.1060650
v -0.6925950 0.1000000 0.1385850
v -0.6925950 -0.0000000 0.1385850
v -0.6439350 -0.0000000 0.1060650
v -0.6925950 0.1000000 0.1385850
v -0.7500000 0.1000000 0.1500000
v -0.7500000 -0.0000000 0.1500000
v -0.6925950 -0.0000000 0.1385850
v -0.7500000 0.1000000 0.1500000
v -0.8074050 0.1000000 0.1385850
v -0.8074050 -0.0000000 0.1385850
v -0.7500000 -0.0000000 0.1500000
v -0.8074050 0.1000000 0.1385850
v -0.8560650 0.1000000 0.1060650
v -0.8560650 -0.0000000 0.1060650
v -0.8074050 -0.0000000 0.1385850
v -0.8560650 0.1000000 0.1060650
v -0.8885850 0.1000000 0.0574050
v -0.8885850 -0.0000000 0.0574050
v -0.8560650 -0.0000000 0.1060650
v -0.8885850 0.1000000 0.0574050
v -0.9000000 0.1000000 0.0000000
v -0.9000000 -0.0000000 0.0000000
v -0.8885850 -0.0000000 0.0574050
v -0.9000000 0.1000000 0.0000000
v -0.8885850 0.1000000 -0.0574050
v -0.8885850 -0.0000000 -0.0574050
v -0.9000000 -0.0000000 0.0000000
v -0.8885850 0.1000000 -0.0574050
v -0.8560650 0.1000000 -0.1060650
v -0.8560650 -0.0000000 -0.1060650
v -0.8885850 -0.0000000 -0.0574050
v -0.8560650 0.1000000 -0.1060650
v -0.8074050 0.1000000 -0.1385850
v -0.8074050 -0.0000000 -0.1385850
v -0.8560650 -0.0000000 -0.1060650
v -0.8074050 0.1000000 -0.1385850
v -0.7500000 0.1000000 -0.1500000
v -0.7500000 -0.0000000 -0.1500000
v -0.8074050 -0.0000000 -0.1385850
v -0.6925950 0.1000000 -0.1385850
v -0.7500000 0.1000000 -0.1500000
v -0.7500000 0.1000000 0.0000000
v -0.6439350 0.1000000 -0.1060650
v -0.6925950 0.1000000 -0.1385850
v -0.7500000 0.1000000 0.0000000
v -0.6114150 0.1000000 -0.0574050
v -0.6439350 0.1000000 -0.1060650
v -0.7500000 0.1000000 0.0000000
v -0.6000000 0.1000000 0.0000000
v -0.6114150 0.1000000 -0.0574050
v -0.7500000 0.1000000 0.0000000
v -0.6114150 0.1000000 0.0574050
v -0.6000000 0.1000000 0.0000000
v -0.7500000 0.1000000 0.0000000
v -0.6439350 0.1000000 0.1060650
v -0.6114150 0.1000000 0.0574050
v -0.7500000 0.1000000 0.0000000
v -0.6925950 0.1000000 0.1385850
v -0.6439350 0.1000000 0.1060650
v -0.7500000 0.1000000 0.0000000
v -0.7500000 0.1000000 0.1500000
v -0.6925950 0.1000000 0.1385850
v -0.7500000 0.1000000 0.0000000
v -0.8074050 0.1000000 0.1385850
v -0.7500000 0.1000000 0.1500000
v -0.7500000 0.1000000 0.0000000
v -0.8560650 0.1000000 0.1060650
v -0.8074050 0.1000000 0.1385850
v -0.7500000 0.1000000 0.0000000
v -0.8885850 0.1000000 0.0574050
v -0.8560650 0.1000000 0.1060650
v -0.7500000 0.1000000 0.0000000
v -0.9000000 0.1000000 0.0000000
v -0.8885850 0.1000000 0.0574050
v -0.7500000 0.1000000 0.0000000
v -0.8885850 0.1000000 -0.0574050
v -0.9000000 0.1000000 0.0000000
v -0.7500000 0.1000000 0.0000000
v -0.8560650 0.1000000 -0.1060650
v -0.8885850 0.1000000 -0.0574050
v -0.7500000 0.1000000 0.0000000
v -0.8074050 0.1000000 -0.1385850
v -0.8560650 0.1000000 -0.1060650
v -0.7500000 0.1000000 0.0000000
v -0.7500000 0.1000000 -0.1500000
v -0.8074050 0.1000000 -0.1385850
v -0.7500000 0.1000000 0.0000000
v -0.2500000 0.1000000 -0.1500000
v -0.1925950 0.1000000 -0.1385850
v -0.1925950 -0.0000000 -0.1385850
v -0.2500000 -0.0000000 -0.1500000
v -0.1925950 0.1000000 -0.1385850
v -0.1439350 0.1000000 -0.1060650
v -0.1439350 -0.0000000 -0.1060650
v -0.1925950 -0.0000000 -0.1385850
v -0.1439350 0.1000000 -0.1060650
v -0.1114150 0.1000000 -0.0574050
v -0.1114150 -0.0000000 -0.0574050
v -0.1439350 -0.0000000 -0.1060650
v -0.1114150 0.1000000 -0.0574050
v -0.1000000 0.1000000 0.0000000
v -0.1000000 -0.0000000 0.0000000
v -0.1114150 -0.0000000 -0.0574050
v -0.1000000 0.1000000 0.0000000
v -0.1114150 0.1000000 0.0574050
v -0.1114150 -0.0000000 0.0574050
v -0.1000000 -0.0000000 0.0000000
v -0.1114150 0.1000000 0.0574050
v -0.1439350 0.1000000 0.1060650
v -0.1439350 -0.0000000 0.1060650
v -0.1114150 -0.0000000 0.0574050
v -0.1439350 0.1000000 0.1060650
v -0.1925950 0.1000000 0.1385850
v -0.1925950 -0.0000000 0.1385850
v -0.1439350 -0.0000000 0.1060650
v -0.1925950 0.1000000 0.1385850
v -0.2500000 0.1000000 0.1500000
v -0.2500000 -0.0000000 0.1500000
v -0.1925950 -0.0000000 0.1385850
v -0.2500000 0.1000000 0.1500000
v -0.3074050 0.1000000 0.1385850
v -0.3074050 -0.0000000 0.1385850
v -0.2500000 -0.0000000 0.1500000
v -0.3074050 0.1000000 0.1385850
v -0.3560650 0.1000000 0.1060650
v -0.3560650 -0.0000000 0.1060650
v -0.3074050 -0.0000000 0.1385850
v -0.3560650 0.1000000 0.1060650
v -0.3885850 0.1000000 0.0574050
v -0.3885850 -0.0000000 0.0574050
v -0.3560650 -0.0000000 0.1060650
v -0.3885850 0.1000000 0.0574050
v -0.4000000 0.1000000 0.0000000
v -0.4000000 -0.0000000 0.0000000
v -0.3885850 -0.0000000 0.0574050
v -0.4000000 0.1000000 0.0000000
v -0.3885850 0.1000000 -0.0574050
v -0.3885850 -0.0000000 -0.0574050
v -0.4000000 -0.0000000 0.0000000
v -0.3885850 0.1000000 -0.0574050
v -0.3560650 0.1000000 -0.1060650
v -0.3560650 -0.0000000 -0.1060650
v -0.3885850 -0.0000000 -0.0574050
v -0.3560650 0.1000000 -0.1060650
v -0.3074050 0.1000000 -0.1385850
v -0.3074050 -0.0000000 -0.1385850
v -0.3560650 -0.0000000 -0.1060650
v -0.3074050 0.1000000 -0.1385850
v -0.2500000 0.1000000 -0.1500000
v -0.2500000 -0.0000000 -0.1500000
v -0.3074050 -0.0000000 -0.1385850
v -0.1925950 0.1000000 -0.1385850
v -0.2500000 0.1000000 -0.1500000
v -0.2500000 0.1000000 0.0000000
v -0.1439350 0.1000000 -0.1060650
v -0.1925950 0.1000000 -0.1385850
v -0.2500000 0.1000000 0.0000000
v -0.1114150 0.1000000 -0.0574050
v -0.1439350 0.1000000 -0.1060650
v -0.2500000 0.1000000 0.0000000
v -0.1000000 0.1000000 0.0000000
v -0.1114150 0.1000000 -0.0574050
v -0.2500000 0.1000000 0.0000000
v -0.1114150 0.1000000 0.0574050
v -0.1000000 0.1000000 0.0000000
v -0.2500000 0.1000000 0.0000000
v -0.1439350 0.1000000 0.1060650
v -0.1114150 0.1000000 0.0574050
v -0.2500000 0.1000000 0.0000000
v -0.1925950 0.1000000 0.1385850
v -0.1439350 0.1000000 0.1060650
v -0.2500000 0.1000000 0.0000000
v -0.2500000 0.1000000 0.1500000
v -0.1925950 0.1000000 0.1385850
v -0.2500000 0.1000000 0.0000000
v -0.3074050 0.1000000 0.1385850
v -0.2500000 0.1000000 0.1500000
v -0.2500000 0.1000000 0.0000000
v -0.3560650 0.1000000 0.1060650
v -0.3074050 0.1000000 0.1385850
v -0.2500000 0.1000000 0.0000000
v -0.3885850 0.1000000 0.0574050
v -0.3560650 0.1000000 0.1060650
v -0.2500000 0.1000000 0.0000000
v -0.4000000 0.1000000 0.0000000
v -0.3885850 0.1000000 0.0574050
v -0.2500000 0.1000000 0.0000000
v -0.3885850 0.1000000 -0.0574050
v -0.4000000 0.1000000 0.0000000
v -0.2500000 0.1000000 0.0000000
v -0.3560650 0.1000000 -0.1060650
v -0.3885850 0.1000000 -0.0574050
v -0.2500000 0.1000000 0.0000000
v -0.3074050 0.1000000 -0.1385850
v -0.3560650 0.1000000 -0.1060650
v -0.2500000 0.1000000 0.0000000
v -0.2500000 0.1000000 -0.1500000
v -0.3074050 0.1000000 -0.1385850
v -0.2500000 0.1000000 0.0000000
v 0.2500000 0.1000000 -0.1500000
v 0.3074050 0.1000000 -0.1385850
v 0.3074050 -0.0000000 -0.1385850
v 0.2500000 -0.0000000 -0.1500000
v 0.3074050 0.1000000 -0.1385850
v 0.3560650 0.1000000 -0.1060650
v 0.3560650 -0.0000000 -0.1060650
v 0.3074050 -0.0000000 -0.1385850
v 0.3560650 0.1000000 -0.1060650
v 0.3885850 0.1000000 -0.0574050
v 0.3885850 -0.0000000 -0.0574050
v 0.3560650 -0.0000000 -0.1060650
v 0.3885850 0.1000000 -0.0574050
v 0.4000000 0.1000000 0.0000000
v 0.4000000 -0.0000000 0.0000000
v 0.3885850 -0.0000000 -0.0574050
v 0.4000000 0.1000000 0.0000000
v 0.3885850 0.1000000 0.0574050
v 0.3885850 -0.0000000 0.0574050
v 0.4000000 -0.0000000 0.0000000
v 0.3885850 0.1000000 0.0574050
v 0.3560650 0.1000000 0.1060650
v 0.3560650 -0.0000000 0.1060650
v 0.3885850 -0.0000000 0.0574050
v 0.3560650 0.1000000 0.1060650
v 0.3074050 0.1000000 0.1385850
v 0.3074050 -0.0000000 0.1385850
v 0.3560650 -0.0000000 0.1060650
v 0.3074050 0.1000000 0.1385850
v 0.2500000 0.1000000 0.1500000
v 0.2500000 -0.0000000 0.1500000
v 0.3074050 -0.0000000 0.1385850
v 0.2500000 0.1000000 0.1500000
v 0.1925950 0.1000000 0.1385850
v 0.1925950 -0.0000000 0.1385850
v 0.2500000 -0.0000000 0.1500000
v 0.1925950 0.1000000 0.1385850
v 0.1439350 0.1000000 0.1060650
v 0.1439350 -0.0000000 0.1060650
v 0.1925950 -0.0000000 0.1385850
v 0.1439350 0.1000000 0.1060650
v 0.1114150 0.1000000 0.0574050
v 0.1114150 -0.0000000 0.0574050
v 0.1439350 -0.0000000 0.1060650
v 0.1114150 0.1000000 0.0574050
v 0.1000000 0.1000000 0.0000000
v 0.1000000 -0.0000000 0.0000000
v 0.1114150 -0.0000000 0.0574050
v 0.1000000 0.1000000 0.0000000
v 0.1114150 0.1000000 -0.0574050
v 0.1114150 -0.0000000 -0.0574050
v 0.1000000 -0.0000000 0.0000000
v 0.1114150 0.1000000 -0.0574050
v 0.1439350 0.1000000 -0.1060650
v 0.1439350 -0.0000000 -0.1060650
v 0.1114150 -0.0000000 -0.0574050
v 0.1439350 0.1000000 -0.1060650
v 0.1925950 0.1000000 -0.1385850
v 0.1925950 -0.0000000 -0.1385850
v 0.1439350 -0.0000000 -0.1060650
v 0.1925950 0.1000000 -0.1385850
v 0.2500000 0.1000000 -0.1500000
v 0.2500000 -0.0000000 -0.1500000
v 0.1925950 -0.0000000 -0.1385850
v 0.3074050 0.1000000 -0.1385850
v 0.2500000 0.1000000 -0.1500000
v 0.2500000 0.1000000 0.0000000
v 0.3560650 0.1000000 -0.1060650
v 0.3074050 0.1000000 -0.1385850
v 0.2500000 0.1000000 0.0000000
v 0.3885850 0.1000000 -0.0574050
v 0.3560650 0.1000000 -0.1060650
v 0.2500000 0.1000000 0.0000000
v 0.4000000 0.1000000 0.0000000
v 0.3885850 0.1000000 -0.0574050
v 0.2500000 0.1000000 0.0000000
v 0.3885850 0.1000000 0.0574050
v 0.4000000 0.1000000 0.0000000
v 0.2500000 0.1000000 0.0000000
v 0.3560650 0.1000000 0.1060650
v 0.3885850 0.1000000 0.0574050
v 0.2500000 0.1000000 0.0000000
v 0.3074050 0.1000000 0.1385850
v 0.3560650 0.1000000 0.1060650
v 0.2500000 0.1000000 0.0000000
v 0.2500000 0.1000000 0.1500000
v 0.3074050 0.1000000 0.1385850
v 0.2500000 0.1000000 0.0000000
v 0.1925950 0.1000000 0.1385850
v 0.2500000 0.1000000 0.1500000
v 0.2500000 0.1000000 0.0000000
v 0.1439350 0.1000000 0.1060650
v 0.1925950 0.1000000 0.1385850
v 0.2500000 0.1000000 0.0000000
v 0.1114150 0.1000000 0.0574050
v 0.1439350 0.1000000 0.1060650
v 0.2500000 0.1000000 0.0000000
v 0.1000000 0.1000000 0.0000000
v 0.1114150 0.1000000 0.0574050
v 0.2500000 0.1000000 0.0000000
v 0.1114150 0.1000000 -0.0574050
v 0.1000000 0.1000000 0.0000000
v 0.2500000 0.1000000 0.0000000
v 0.1439350 0.1000000 -0.1060650
v 0.1114150 0.1000000 -0.0574050
v 0.2500000 0.1000000 0.0000000
v 0.1925950 0.1000000 -0.1385850
v 0.1439350 0.1000000 -0.1060650
v 0.2500000 0.1000000 0.0000000
v 0.2500000 0.1000000 -0.1500000
v 0.1925950 0.1000000 -0.1385850
v 0.2500000 0.1000000 0.0000000
v 0.7500000 0.1000000 -0.1500000
v 0.8074050 0.1000000 -0.1385850
v 0.8074050 -0.0000000 -0.1385850
v 0.7500000 -0.0000000 -0.1500000
v 0.8074050 0.1000000 -0.1385850
v 0.8560650 0.1000000 -0.1060650
v 0.8560650 -0.0000000 -0.1060650
v 0.8074050 -0.0000000 -0.1385850
v 0.8560650 0.1000000 -0.1060650
v 0.8885850 0.1000000 -0.0574050
v 0.8885850 -0.0000000 -0.0574050
v 0.8560650 -0.0000000 -0.1060650
v 0.8885850 0.1000000 -0.0574050
v 0.9000000 0.1000000 0.0000000
v 0.9000000 -0.0000000 0.0000000
v 0.8885850 -0.0000000 -0.0574050
v 0.9000000 0.1000000 0.0000000
v 0.8885850 0.1000000 0.0574050
v 0.8885850 -0.0000000 0.0574050
v 0.9000000 -0.0000000 0.0000000
v 0.8885850 0.1000000 0.0574050
v 0.8560650 0.1000000 0.1060650
v 0.8560650 -0.0000000 0.1060650
v 0.8885850 -0.0000000 0.0574050
v 0.8560650 0.1000000 0.1060650
v 0.8074050 0.1000000 0.1385850
v 0.8074050 -0.0000000 0.1385850
v 0.8560650 -0.0000000 0.1060650
v 0.8074050 0.1000000 0.1385850
v 0.7500000 0.1000000 0.1500000
v 0.7500000 -0.0000000 0.1500000
v 0.8074050 -0.0000000 0.1385850
v 0.7500000 0.1000000 0.1500000
v 0.6925950 0.1000000 0.1385850
v 0.6925950 -0.0000000 0.1385850
v 0.7500000 -0.0000000 0.1500000
v 0.6925950 0.1000000 0.1385850
v 0.6439350 0.1000000 0.1060650
v 0.6439350 -0.0000000 0.1060650
v 0.6925950 -0.0000000 0.1385850
v 0.6439350 0.1000000 0.1060650
v 0.6114150 0.1000000 0.0574050
v 0.6114150 -0.0000000 0.0574050
v 0.6439350 -0.0000000 0.1060650
v 0.6114150 0.1000000 0.0574050
v 0.6000000 0.1000000 0.0000000
v 0.6000000 -0.0000000 0.0000000
v 0.6114150 -0.0000000 0.0574050
v 0.6000000 0.1000000 0.0000000
v 0.6114150 0.1000000 -0.0574050
v 0.6114150 -0.0000000 -0.0574050
v 0.6000000 -0.0000000 0.0000000
v 0.6114150 0.1000000 -0.0574050
v 0.6439350 0.1000000 -0.1060650
v 0.6439350 -0.0000000 -0.1060650
v 0.6114150 -0.0000000 -0.0574050
v 0.6439350 0.1000000 -0.1060650
v 0.6925950 0.1000000 -0.1385850
v 0.6925950 -0.0000000 -0.1385850
v 0.6439350 -0.0000000 -0.1060650
v 0.6925950 0.1000000 -0.1385850
v 0.7500000 0.1000000 -0.1500000
v 0.7500000 -0.0000000 -0.1500000
v 0.6925950 -0.0000000 -0.1385850
v 0.8074050 0.1000000 -0.1385850
v 0.7500000 0.1000000 -0.1500000
v 0.7500000 0.1000000 0.0000000
v 0.8560650 0.1000000 -0.1060650
v 0.8074050 0.1000000 -0.1385850
v 0.7500000 0.1000000 0.0000000
v 0.8885850 0.1000000 -0.0574050
v 0.8560650 0.1000000 -0.1060650
v 0.7500000 0.1000000 0.0000000
v 0.9000000 0.1000000 0.0000000
v 0.8885850 0.1000000 -0.0574050
v 0.7500000 0.1000000 0.0000000
v 0.8885850 0.1000000 0.0574050
v 0.9000000 0.1000000 0.0000000
v 0.7500000 0.1000000 0.0000000
v 0.8560650 0.1000000 0.1060650
v 0.8885850 0.1000000 0.0574050
v 0.7500000 0.1000000 0.0000000
v 0.8074050 0.1000000 0.1385850
v 0.8560650 0.1000000 0.1060650
v 0.7500000 0.1000000 0.0000000
v 0.7500000 0.1000000 0.1500000
v 0.8074050 0.1000000 0.1385850
v 0.7500000 0.1000000 0.0000000
v 0.6925950 0.1000000 0.1385850
v 0.7500000 0.1000000 0.1500000
v 0.7500000 0.1000000 0.0000000
v 0.6439350 0.1000000 0.1060650
v 0.6925950 0.1000000 0.1385850
v 0.7500000 0.1000000 0.0000000
v 0.6114150 0.1000000 0.0574050
v 0.6439350 0.1000000 0.1060650
v 0.7500000 0.1000000 0.0000000
v 0.6000000 0.1000000 0.0000000
v 0.6114150 0.1000000 0.0574050
v 0.7500000 0.1000000 0.0000000
v 0.6114150 0.1000000 -0.0574050
v 0.6000000 0.1000000 0.0000000
v 0.7500000 0.1000000 0.0000000
v 0.6439350 0.1000000 -0.1060650
v 0.6114150 0.1000000 -0.0574050
v 0.7500000 0.1000000 0.0000000
v 0.6925950 0.1000000 -0.1385850
v 0.6439350 0.1000000 -0.1060650
v 0.7500000 0.1000000 0.0000000
v 0.7500000 0.1000000 -0.1500000
v 0.6925950 0.1000000 -0.1385850
v 0.7500000 0.1000000 0.0000000
v 0.4619500 -0.5086500 0.2500000
v 0.5000000 -0.7000000 0.2500000
v 0.5000000 -0.2000000 0.2500000
v 0.3535500 -0.3464500 0.2500000
v 0.4619500 -0.5086500 0.2500000
v 0.5000000 -0.2000000 0.2500000
v 0.1913500 -0.2380500 0.2500000
v 0.3535500 -0.3464500 0.2500000
v 0.5000000 -0.2000000 0.2500000
v 0.0000000 -0.2000000 0.2500000
v 0.1913500 -0.2380500 0.2500000
v 0.5000000 -0.2000000 0.2500000
v -0.1913500 -0.2380500 0.2500000
v 0.0000000 -0.2000000 0.2500000
v -0.5000000 -0.2000000 0.2500000
v -0.3535500 -0.3464500 0.2500000
v -0.1913500 -0.2380500 0.2500000
v -0.5000000 -0.2000000 0.2500000
v -0.4619500 -0.5086500 0.2500000
v -0.3535500 -0.3464500 0.2500000
v -0.5000000 -0.2000000 0.2500000
v -0.5000000 -0.7000000 0.2500000
v -0.4619500 -0.5086500 0.2500000
v -0.5000000 -0.2000000 0.2500000
v -0.5000000 -0.7000000 0.2500000
v -0.5000000 -0.7000000 0.1500000
v -0.4619500 -0.5086500 0.1500000
v -0.4619500 -0.5086500 0.2500000
v -0.4619500 -0.5086500 0.2500000
v -0.4619500 -0.5086500 0.1500000
v -0.3535500 -0.3464500 0.1500000
v -0.3535500 -0.3464500 0.2500000
v -0.3535500 -0.3464500 0.2500000
v -0.3535500 -0.3464500 0.1500000
v -0.1913500 -0.2380500 0.1500000
v -0.1913500 -0.2380500 0.2500000
v -0.1913500 -0.2380500 0.2500000
v -0.1913500 -0.2380500 0.1500000
v 0.0000000 -0.2000000 0.1500000
v 0.0000000 -0.2000000 0.2500000
v 0.0000000 -0.2000000 0.2500000
v 0.0000000 -0.2000000 0.1500000
v 0.1913500 -0.2380500 0.1500000
v 0.1913500 -0.2380500 0.2500000
v 0.1913500 -0.2380500 0.2500000
v 0.1913500 -0.2380500 0.1500000
v 0.3535500 -0.3464500 0.1500000
v 0.3535500 -0.3464500 0.2500000
v 0.3535500 -0.3464500 0.2500000
v 0.3535500 -0.3464500 0.1500000
v 0.4619500 -0.5086500 0.1500000
v 0.4619500 -0.5086500 0.2500000
v 0.4619500 -0.5086500 0.2500000
v 0.4619500 -0.5086500 0.1500000
v 0.5000000 -0.7000000 0.1500000
v 0.5000000 -0.7000000 0.2500000
v -0.4619500 -0.5086500 0.1500000
v -0.5000000 -0.7000000 0.1500000
v -0.5000000 -0.2000000 0.1500000
v -0.3535500 -0.3464500 0.1500000
v -0.4619500 -0.5086500 0.1500000
v -0.5000000 -0.2000000 0.1500000
v -0.1913500 -0.2380500 0.1500000
v -0.3535500 -0.3464500 0.1500000
v -0.5000000 -0.2000000 0.1500000
v 0.0000000 -0.2000000 0.1500000
v -0.1913500 -0.2380500 0.1500000
v -0.5000000 -0.2000000 0.1500000
v 0.1913500 -0.2380500 0.1500000
v 0.0000000 -0.2000000 0.1500000
v 0.5000000 -0.2000000 0.1500000
v 0.3535500 -0.3464500 0.1500000
v 0.1913500 -0.2380500 0.1500000
v 0.5000000 -0.2000000 0.1500000
v 0.4619500 -0.5086500 0.1500000
v 0.3535500 -0.3464500 0.1500000
v 0.5000000 -0.2000000 0.1500000
v 0.5000000 -0.7000000 0.1500000
v 0.4619500 -0.5086500 0.1500000
v 0.5000000 -0.2000000 0.1500000
v 0.4619500 -0.5086500 -0.1500000
v 0.5000000 -0.7000000 -0.1500000
v 0.5000000 -0.2000000 -0.1500000
v 0.3535500 -0.3464500 -0.1500000
v 0.4619500 -0.5086500 -0.1500000
v 0.5000000 -0.2000000 -0.1500000
v 0.1913500 -0.2380500 -0.1500000
v 0.3535500 -0.3464500 -0.1500000
v 0.5000000 -0.2000000 -0.1500000
v 0.0000000 -0.2000000 -0.1500000
v 0.1913500 -0.2380500 -0.1500000
v 0.5000000 -0.2000000 -0.1500000
v -0.1913500 -0.2380500 -0.1500000
v 0.0000000 -0.2000000 -0.1500000
v -0.5000000 -0.2000000 -0.1500000
v -0.3535500 -0.3464500 -0.1500000
v -0.1913500 -0.2380500 -0.1500000
v -0.5000000 -0.2000000 -0.1500000
v -0.4619500 -0.5086500 -0.1500000
v -0.3535500 -0.3464500 -0.1500000
v -0.5000000 -0.2000000 -0.1500000
v -0.5000000 -0.7000000 -0.1500000
v -0.4619500 -0.5086500 -0.1500000
v -0.5000000 -0.2000000 -0.1500000
v -0.5000000 -0.7000000 -0.1500000
v -0.5000000 -0.7000000 -0.2500000
v -0.4619500 -0.5086500 -0.2500000
v -0.4619500 -0.5086500 -0.1500000
v -0.4619500 -0.5086500 -0.1500000
v -0.4619500 -0.5086500 -0.2500000
v -0.3535500 -0.3464500 -0.2500000
v -0.3535500 -0.3464500 -0.1500000
v -0.3535500 -0.3464500 -0.1500000
v -0.3535500 -0.3464500 -0.2500000
v -0.1913500 -0.2380500 -0.2500000
v -0.1913500 -0.2380500 -0.1500000
v -0.1913500 -0.2380500 -0.1500000
v -0.1913500 -0.2380500 -0.2500000
v 0.0000000 -0.2000000 -0.2500000
v 0.0000000 -0.2000000 -0.1500000
v 0.0000000 -0.2000000 -0.1500000
v 0.0000000 -0.2000000 -0.2500000
v 0.1913500 -0.2380500 -0.2500000
v 0.1913500 -0.2380500 -0.1500000
v 0.1913500 -0.2380500 -0.1500000
v 0.1913500 -0.2380500 -0.2500000
v 0.3535500 -0.3464500 -0.2500000
v 0.3535500 -0.3464500 -0.1500000
v 0.3535500 -0.3464500 -0.1500000
v 0.3535500 -0.3464500 -0.2500000
v 0.4619500 -0.5086500 -0.2500000
v 0.4619500 -0.5086500 -0.1500000
v 0.4619500 -0.5086500 -0.1500000
v 0.4619500 -0.5086500 -0.2500000
v 0.5000000 -0.7000000 -0.2500000
v 0.5000000 -0.7000000 -0.1500000
v -0.4619500 -0.5086500 -0.2500000
v -0.5000000 -0.7000000 -0.2500000
v -0.5000000 -0.2000000 -0.2500000
v -0.3535500 -0.3464500 -0.2500000
v -0.4619500 -0.5086500 -0.2500000
v -0.5000000 -0.2000000 -0.2500000
v -0.1913500 -0.2380500 -0.2500000
v -0.3535500 -0.3464500 -0.2500000
v -0.5000000 -0.2000000 -0.2500000
v 0.0000000 -0.2000000 -0.2500000
v -0.1913500 -0.2380500 -0.2500000
v -0.5000000 -0.2000000 -0.2500000
v 0.1913500 -0.2380500 -0.2500000
v 0.0000000 -0.2000000 -0.2500000
v 0.5000000 -0.2000000 -0.2500000
v 0.3535500 -0.3464500 -0.2500000
v 0.1913500 -0.2380500 -0.2500000
v 0.5000000 -0.2000000 -0.2500000
v 0.4619500 -0.5086500 -0.2500000
v 0.3535500 -0.3464500 -0.2500000
v 0.5000000 -0.2000000 -0.2500000
v 0.5000000 -0.7000000 -0.2500000
v 0.4619500 -0.5086500 -0.2500000
v 0.5000000 -0.2000000 -0.2500000
v -1.0000000 -0.0000000 0.2500000
v 1.0000000 -0.0000000 0.2500000
v 1.0000000 -0.0000000 -0.2500000
v -1.0000000 -0.0000000 -0.2500000
v 1.0000000 -0.0000000 0.2500000
v 1.0000000 -1.2000000 0.2500000
v 1.0000000 -1.2000000 -0.2500000
v 1.0000000 -0.0000000 -0.2500000
v -1.0000000 -0.0000000 -0.2500000
v -1.0000000 -1.2000000 -0.2500000
v -1.0000000 -1.2000000 0.2500000
v -1.0000000 -0.0000000 0.2500000
v -0.5000000 -0.1000000 -0.1500000
v 0.5000000 -0.1000000 -0.1500000
v 0.5000000 -0.1000000 0.1500000
v -0.5000000 -0.1000000 0.1500000
v 0.5000000 -0.1000000 -0.1500000
v 0.5000000 -0.7000000 -0.1500000
v 0.5000000 -0.7000000 0.1500000
v 0.5000000 -0.1000000 0.1500000
v -0.5000000 -0.1000000 0.1500000
v -0.5000000 -0.7000000 0.1500000
v -0.5000000 -0.7000000 -0.1500000
v -0.5000000 -0.1000000 -0.1500000
v -0.5000000 -1.2000000 -0.2500000
v -0.5000000 -0.7000000 -0.2500000
v -0.5000000 -0.7000000 0.2500000
v -0.5000000 -1.2000000 0.2500000
v 0.5000000 -1.2000000 0.2500000
v 0.5000000 -0.7000000 0.2500000
v 0.5000000 -0.7000000 -0.2500000
v 0.5000000 -1.2000000 -0.2500000
s off
f 1 2 3
f 1 3 4
f 5 6 7
f 5 7 8
f 9 10 11
f 9 11 12
f 13 14 15
f 13 15 16
f 17 18 19
f 17 19 20
f 21 22 23
f 21 23 24
f 25 26 27
f 25 27 28
f 29 30 31
f 29 31 32
f 33 34 35
f 33 35 36
f 37 38 39
f 37 39 40
f 41 42 43
f 41 43 44
f 45 46 47
f 45 47 48
f 49 50 51
f 49 51 52
f 53 54 55
f 53 55 56
f 57 58 59
f 57 59 60
f 61 62 63
f 61 63 64
f 65 66 67
f 65 67 68
f 69 70 71
f 69 71 72
f 73 74 75
f 73 75 76
f 77 78 79
f 77 79 80
f 81 82 83
f 81 83 84
f 85 86 87
f 85 87 88
f 89 90 91
f 89 91 92
f 93 94 95
f 93 95 96
f 97 98 99
f 97 99 100
f 101 102 103
f 101 103 104
f 105 106 107
f 105 107 108
f 109 110 111
f 109 111 112
f 113 114 115
f 113 115 116
f 117 118 119
f 117 119 120
f 121 122 123
f 121 123 124
f 125 126 127
f 125 127 128
f 129 130 131
f 129 131 132
f 133 134 135
f 133 135 136
f 137 138 139
f 137 139 140
f 141 142 143
f 141 143 144
f 145 146 147
f 145 147 148
f 149 150 151
f 149 151 152
f 153 154 155
f 153 155 156
f 157 158 159
f 157 159 160
f 161 162 163
f 161 163 164
f 165 166 167
f 165 167 168
f 169 170 171
f 172 173 174
f 175 176 177
f 178 179 180
f 181 182 183
f 184 185 186
f 187 188 189
f 190 191 192
f 193 194 195
f 196 197 198
f 199 200 201
f 202 203 204
f 205 206 207
f 208 209 210
f 211 212 213
f 214 215 216
f 217 218 219
f 217 219 220
f 221 222 223
f 221 223 224
f 225 226 227
f 225 227 228
f 229 230 231
f 229 231 232
f 233 234 235
f 233 235 236
f 237 238 239
f 237 239 240
f 241 242 243
f 241 243 244
f 245 246 247
f 245 247 248
f 249 250 251
f 249 251 252
f 253 254 255
f 253 255 256
f 257 258 259
f 257 259 260
f 261 262 263
f 261 263 264
f 265 266 267
f 265 267 268
f 269 270 271
f 269 271 272
f 273 274 275
f 273 275 276
f 277 278 279
f 277 279 280
f 281 282 283
f 284 285 286
f 287 288 289
f 290 291 292
f 293 294 295
f 296 297 298
f 299 300 301
f 302 303 304
f 305 306 307
f 308 309 310
f 311 312 313
f 314 315 316
f 317 318 319
f 320 321 322
f 323 324 325
f 326 327 328
f 329 330 331
f 329 331 332
f 333 334 335
f 333 335 336
f 337 338 339
f 337 339 340
f 341 342 343
f 341 343 344
f 345 346 347
f 345 347 348
f 349 350 351
f 349 351 352
f 353 354 355
f 353 355 356
f 357 358 359
f 357 359 360
f 361 362 363
f 361 363 364
f 365 366 367
f 365 367 368
f 369 370 371
f 369 371 372
f 373 374 375
f 373 375 376
f 377 378 379
f 377 379 380
f 381 382 383
f 381 383 384
f 385 386 387
f 385 387 388
f 389 390 391
f 389 391 392
f 393 394 395
f 396 397 398
f 399 400 401
f 402 403 404
f 405 406 407
f 408 409 410
f 411 412 413
f 414 415 416
f 417 418 419
f 420 421 422
f 423 424 425
f 426 427 428
f 429 430 431
f 432 433 434
f 435 436 437
f 438 439 440
f 441 442 443
f 441 443 444
f 445 446 447
f 445 447 448
f 449 450 451
f 449 451 452
f 453 454 455
f 453 455 456
f 457 458 459
f 457 459 460
f 461 462 463
f 461 463 464
f 465 466 467
f 465 467 468
f 469 470 471
f 469 471 472
f 473 474 475
f 473 475 476
f 477 478 479
f 477 479 480
f 481 482 483
f 481 483 484
f 485 486 487
f 485 487 488
f 489 490 491
f 489 491 492
f 493 494 495
f 493 495 496
f 497 498 499
f 497 499 500
f 501 502 503
f 501 503 504
f 505 506 507
f 508 509 510
f 511 512 513
f 514 515 516
f 517 518 519
f 520 521 522
f 523 524 525
f 526 527 528
f 529 530 531
f 532 533 534
f 535 536 537
f 538 539 540
f 541 542 543
f 544 545 546
f 547 548 549
f 550 551 552
f 553 554 555
f 556 557 558
f 559 560 561
f 562 563 564
f 565 566 567
f 568 569 570
f 571 572 573
f 574 575 576
f 577 578 579
f 577 579 580
f 581 582 583
f 581 583 584
f 585 586 587
f 585 587 588
f 589 590 591
f 589 591 592
f 593 594 595
f 593 595 596
f 597 598 599
f 597 599 600
f 601 602 603
f 601 603 604
f 605 606 607
f 605 607 608
f 609 610 611
f 612 613 614
f 615 616 617
f 618 619 620
f 621 622 623
f 624 625 626
f 627 628 629
f 630 631 632
f 633 634 635
f 636 637 638
f 639 640 641
f 642 643 644
f 645 646 647
f 648 649 650
f 651 652 653
f 654 655 656
f 657 658 659
f 657 659 660
f 661 662 663
f 661 663 664
f 665 666 667
f 665 667 668
f 669 670 671
f 669 671 672
f 673 674 675
f 673 675 676
f 677 678 679
f 677 679 680
f 681 682 683
f 681 683 684
f 685 686 687
f 685 687 688
f 689 690 691
f 692 693 694
f 695 696 697
f 698 699 700
f 701 702 703
f 704 705 706
f 707 708 709
f 710 711 712
f 713 714 715
f 713 715 716
f 717 718 719
f 717 719 720
f 721 722 723
f 721 723 724
f 725 726 727
f 725 727 728
f 729 730 731
f 729 731 732
f 733 734 735
f 733 735 736
f 737 738 739
f 737 739 740
f 741 742 743
f 741 743 744
