# Baked from official LDraw part 6195.dat
o ldraw_6195
v 1.0000000 -0.2000000 0.2500000
v 1.0000000 -0.0000000 0.2500000
v -1.0000000 -0.0000000 0.2500000
v -1.0000000 -0.2000000 0.2500000
v -1.0000000 -0.2000000 0.2500000
v -1.0000000 -0.0000000 0.2500000
v -1.0000000 -0.0000000 -1.7500000
v -1.0000000 -0.2000000 -1.7500000
v -1.0000000 -0.2000000 -1.7500000
v -1.0000000 -0.0000000 -1.7500000
v 1.0000000 -0.0000000 -1.7500000
v 1.0000000 -0.2000000 -1.7500000
v 1.0000000 -0.2000000 -1.7500000
v 1.0000000 -0.0000000 -1.7500000
v 1.0000000 -0.0000000 0.2500000
v 1.0000000 -0.2000000 0.2500000
v -0.9000000 -0.1000000 -0.1500000
v 0.9000000 -0.1000000 -0.1500000
v 0.9000000 -0.1000000 0.1500000
v -0.9000000 -0.1000000 0.1500000
v -0.9000000 -0.1000000 -0.1500000
v -0.9000000 -0.2000000 -0.1500000
v 0.9000000 -0.2000000 -0.1500000
v 0.9000000 -0.1000000 -0.1500000
v -0.9000000 -0.1000000 0.1500000
v -0.9000000 -0.2000000 0.1500000
v -0.9000000 -0.2000000 -0.1500000
v -0.9000000 -0.1000000 -0.1500000
v 0.9000000 -0.1000000 0.1500000
v 0.9000000 -0.2000000 0.1500000
v -0.9000000 -0.2000000 0.1500000
v -0.9000000 -0.1000000 0.1500000
v 0.9000000 -0.1000000 -0.1500000
v 0.9000000 -0.2000000 -0.1500000
v 0.9000000 -0.2000000 0.1500000
v 0.9000000 -0.1000000 0.1500000
v -0.9000000 -0.2000000 -1.6500000
v 0.9000000 -0.2000000 -1.6500000
v 0.9000000 -0.1000000 -1.6500000
v -0.9000000 -0.1000000 -1.6500000
v 0.9000000 -0.2000000 -1.6500000
v 0.9000000 -0.2000000 -0.2500000
v 0.9000000 -0.1000000 -0.2500000
v 0.9000000 -0.1000000 -1.6500000
v -0.9000000 -0.1000000 -1.6500000
v -0.9000000 -0.1000000 -0.2500000
v -0.9000000 -0.2000000 -0.2500000
v -0.9000000 -0.2000000 -1.6500000
v -0.3157150 -0.1000000 -0.2500000
v -0.3157150 -0.2000000 -0.2500000
v -0.9000000 -0.2000000 -0.2500000
v -0.9000000 -0.1000000 -0.2500000
v 0.8999925 -0.1000000 -0.2500000
v 0.8999925 -0.2000000 -0.2500000
v 0.3157075 -0.2000000 -0.2500000
v 0.3157075 -0.1000000 -0.2500000
v -0.7500000 0.1000000 -0.1500000
v -0.6925950 0.1000000 -0.1385850
v -0.6925950 -0.0000000 -0.1385850
v -0.7500000 -0.0000000 -0.1500000
v -0.6925950 0.1000000 -0.1385850
v -0.6439350 0.1000000 -0.1060650
v -0.6439350 -0.0000000 -0.1060650
v -0.6925950 -0.0000000 -0.1385850
v -0.6439350 0.1000000 -0.1060650
v -0.6114150 0.1000000 -0.0574050
v -0.6114150 -0.0000000 -0.0574050
v -0.6439350 -0.0000000 -0.1060650
v -0.6114150 0.1000000 -0.0574050
v -0.6000000 0.1000000 0.0000000
v -0.6000000 -0.0000000 0.0000000
v -0.6114150 -0.0000000 -0.0574050
v -0.6000000 0.1000000 0.0000000
v -0.6114150 0.1000000 0.0574050
v -0.6114150 -0.0000000 0.0574050
v -0.6000000 -0.0000000 0.0000000
v -0.6114150 0.1000000 0.0574050
v -0.6439350 0.1000000 0.1060650
v -0.6439350 -0.0000000 0.1060650
v -0.6114150 -0.0000000 0.0574050
v -0.6439350 0.1000000 0.1060650
v -0.6925950 0.1000000 0.1385850
v -0.6925950 -0.0000000 0.1385850
v -0.6439350 -0.0000000 0.1060650
v -0.6925950 0.1000000 0.1385850
v -0.7500000 0.1000000 0.1500000
v -0.7500000 -0.0000000 0.1500000
v -0.6925950 -0.0000000 0.1385850
v -0.7500000 0.1000000 0.1500000
v -0.8074050 0.1000000 0.1385850
v -0.8074050 -0.0000000 0.1385850
v -0.7500000 -0.0000000 0.1500000
v -0.8074050 0.1000000 0.1385850
v -0.8560650 0.1000000 0.1060650
v -0.8560650 -0.0000000 0.1060650
v -0.8074050 -0.0000000 0.1385850
v -0.8560650 0.1000000 0.1060650
v -0.8885850 0.1000000 0.0574050
v -0.8885850 -0.0000000 0.0574050
v -0.8560650 -0.0000000 0.1060650
v -0.8885850 0.1000000 0.0574050
v -0.9000000 0.1000000 0.0000000
v -0.9000000 -0.0000000 0.0000000
v -0.8885850 -0.0000000 0.0574050
v -0.9000000 0.1000000 0.0000000
v -0.8885850 0.1000000 -0.0574050
v -0.8885850 -0.0000000 -0.0574050
v -0.9000000 -0.0000000 0.0000000
v -0.8885850 0.1000000 -0.0574050
v -0.8560650 0.1000000 -0.1060650
v -0.8560650 -0.0000000 -0.1060650
v -0.8885850 -0.0000000 -0.0574050
v -0.8560650 0.1000000 -0.1060650
v -0.8074050 0.1000000 -0.1385850
v -0.8074050 -0.0000000 -0.1385850
v -0.8560650 -0.0000000 -0.1060650
v -0.8074050 0.1000000 -0.1385850
v -0.7500000 0.1000000 -0.1500000
v -0.7500000 -0.0000000 -0.1500000
v -0.8074050 -0.0000000 -0.1385850
v -0.6925950 0.1000000 -0.1385850
v -0.7500000 0.1000000 -0.1500000
v -0.7500000 0.1000000 0.0000000
v -0.6439350 0.1000000 -0.1060650
v -0.6925950 0.1000000 -0.1385850
v -0.7500000 0.1000000 0.0000000
v -0.6114150 0.1000000 -0.0574050
v -0.6439350 0.1000000 -0.1060650
v -0.7500000 0.1000000 0.0000000
v -0.6000000 0.1000000 0.0000000
v -0.6114150 0.1000000 -0.0574050
v -0.7500000 0.1000000 0.0000000
v -0.6114150 0.1000000 0.0574050
v -0.6000000 0.1000000 0.0000000
v -0.7500000 0.1000000 0.0000000
v -0.6439350 0.1000000 0.1060650
v -0.6114150 0.1000000 0.0574050
v -0.7500000 0.1000000 0.0000000
v -0.6925950 0.1000000 0.1385850
v -0.6439350 0.1000000 0.1060650
v -0.7500000 0.1000000 0.0000000
v -0.7500000 0.1000000 0.1500000
v -0.6925950 0.1000000 0.1385850
v -0.7500000 0.1000000 0.0000000
v -0.8074050 0.1000000 0.1385850
v -0.7500000 0.1000000 0.1500000
v -0.7500000 0.1000000 0.0000000
v -0.8560650 0.1000000 0.1060650
v -0.8074050 0.1000000 0.1385850
v -0.7500000 0.1000000 0.0000000
v -0.8885850 0.1000000 0.0574050
v -0.8560650 0.1000000 0.1060650
v -0.7500000 0.1000000 0.0000000
v -0.9000000 0.1000000 0.0000000
v -0.8885850 0.1000000 0.0574050
v -0.7500000 0.1000000 0.0000000
v -0.8885850 0.1000000 -0.0574050
v -0.9000000 0.1000000 0.0000000
v -0.7500000 0.1000000 0.0000000
v -0.8560650 0.1000000 -0.1060650
v -0.8885850 0.1000000 -0.0574050
v -0.7500000 0.1000000 0.0000000
v -0.8074050 0.1000000 -0.1385850
v -0.8560650 0.1000000 -0.1060650
v -0.7500000 0.1000000 0.0000000
v -0.7500000 0.1000000 -0.1500000
v -0.8074050 0.1000000 -0.1385850
v -0.7500000 0.1000000 0.0000000
v -0.2500000 0.1000000 -0.1500000
v -0.1925950 0.1000000 -0.1385850
v -0.1925950 -0.0000000 -0.1385850
v -0.2500000 -0.0000000 -0.1500000
v -0.1925950 0.1000000 -0.1385850
v -0.1439350 0.1000000 -0.1060650
v -0.1439350 -0.0000000 -0.1060650
v -0.1925950 -0.0000000 -0.1385850
v -0.1439350 0.1000000 -0.1060650
v -0.1114150 0.1000000 -0.0574050
v -0.1114150 -0.0000000 -0.0574050
v -0.1439350 -0.0000000 -0.1060650
v -0.1114150 0.1000000 -0.0574050
v -0.1000000 0.1000000 0.0000000
v -0.1000000 -0.0000000 0.0000000
v -0.1114150 -0.0000000 -0.0574050
v -0.1000000 0.1000000 0.0000000
v -0.1114150 0.1000000 0.0574050
v -0.1114150 -0.0000000 0.0574050
v -0.1000000 -0.0000000 0.0000000
v -0.1114150 0.1000000 0.0574050
v -0.1439350 0.1000000 0.1060650
v -0.1439350 -0.0000000 0.1060650
v -0.1114150 -0.0000000 0.0574050
v -0.1439350 0.1000000 0.1060650
v -0.1925950 0.1000000 0.1385850
v -0.1925950 -0.0000000 0.1385850
v -0.1439350 -0.0000000 0.1060650
v -0.1925950 0.1000000 0.1385850
v -0.2500000 0.1000000 0.1500000
v -0.2500000 -0.0000000 0.1500000
v -0.1925950 -0.0000000 0.1385850
v -0.2500000 0.1000000 0.1500000
v -0.3074050 0.1000000 0.1385850
v -0.3074050 -0.0000000 0.1385850
v -0.2500000 -0.0000000 0.1500000
v -0.3074050 0.1000000 0.1385850
v -0.3560650 0.1000000 0.1060650
v -0.3560650 -0.0000000 0.1060650
v -0.3074050 -0.0000000 0.1385850
v -0.3560650 0.1000000 0.1060650
v -0.3885850 0.1000000 0.0574050
v -0.3885850 -0.0000000 0.0574050
v -0.3560650 -0.0000000 0.1060650
v -0.3885850 0.1000000 0.0574050
v -0.4000000 0.1000000 0.0000000
v -0.4000000 -0.0000000 0.0000000
v -0.3885850 -0.0000000 0.0574050
v -0.4000000 0.1000000 0.0000000
v -0.3885850 0.1000000 -0.0574050
v -0.3885850 -0.0000000 -0.0574050
v -0.4000000 -0.0000000 0.0000000
v -0.3885850 0.1000000 -0.0574050
v -0.3560650 0.1000000 -0.1060650
v -0.3560650 -0.0000000 -0.1060650
v -0.3885850 -0.0000000 -0.0574050
v -0.3560650 0.1000000 -0.1060650
v -0.3074050 0.1000000 -0.1385850
v -0.3074050 -0.0000000 -0.1385850
v -0.3560650 -0.0000000 -0.1060650
v -0.3074050 0.1000000 -0.1385850
v -0.2500000 0.1000000 -0.1500000
v -0.2500000 -0.0000000 -0.1500000
v -0.3074050 -0.0000000 -0.1385850
v -0.1925950 0.1000000 -0.1385850
v -0.2500000 0.1000000 -0.1500000
v -0.2500000 0.1000000 0.0000000
v -0.1439350 0.1000000 -0.1060650
v -0.1925950 0.1000000 -0.1385850
v -0.2500000 0.1000000 0.0000000
v -0.1114150 0.1000000 -0.0574050
v -0.1439350 0.1000000 -0.1060650
v -0.2500000 0.1000000 0.0000000
v -0.1000000 0.1000000 0.0000000
v -0.1114150 0.1000000 -0.0574050
v -0.2500000 0.1000000 0.0000000
v -0.1114150 0.1000000 0.0574050
v -0.1000000 0.1000000 0.0000000
v -0.2500000 0.1000000 0.0000000
v -0.1439350 0.1000000 0.1060650
v -0.1114150 0.1000000 0.0574050
v -0.2500000 0.1000000 0.0000000
v -0.1925950 0.1000000 0.1385850
v -0.1439350 0.1000000 0.1060650
v -0.2500000 0.1000000 0.0000000
v -0.2500000 0.1000000 0.1500000
v -0.1925950 0.1000000 0.1385850
v -0.2500000 0.1000000 0.0000000
v -0.3074050 0.1000000 0.1385850
v -0.2500000 0.1000000 0.1500000
v -0.2500000 0.1000000 0.0000000
v -0.3560650 0.1000000 0.1060650
v -0.3074050 0.1000000 0.1385850
v -0.2500000 0.1000000 0.0000000
v -0.3885850 0.1000000 0.0574050
v -0.3560650 0.1000000 0.1060650
v -0.2500000 0.1000000 0.0000000
v -0.4000000 0.1000000 0.0000000
v -0.3885850 0.1000000 0.0574050
v -0.2500000 0.1000000 0.0000000
v -0.3885850 0.1000000 -0.0574050
v -0.4000000 0.1000000 0.0000000
v -0.2500000 0.1000000 0.0000000
v -0.3560650 0.1000000 -0.1060650
v -0.3885850 0.1000000 -0.0574050
v -0.2500000 0.1000000 0.0000000
v -0.3074050 0.1000000 -0.1385850
v -0.3560650 0.1000000 -0.1060650
v -0.2500000 0.1000000 0.0000000
v -0.2500000 0.1000000 -0.1500000
v -0.3074050 0.1000000 -0.1385850
v -0.2500000 0.1000000 0.0000000
v 0.2500000 0.1000000 -0.1500000
v 0.3074050 0.1000000 -0.1385850
v 0.3074050 -0.0000000 -0.1385850
v 0.2500000 -0.0000000 -0.1500000
v 0.3074050 0.1000000 -0.1385850
v 0.3560650 0.1000000 -0.1060650
v 0.3560650 -0.0000000 -0.1060650
v 0.3074050 -0.0000000 -0.1385850
v 0.3560650 0.1000000 -0.1060650
v 0.3885850 0.1000000 -0.0574050
v 0.3885850 -0.0000000 -0.0574050
v 0.3560650 -0.0000000 -0.1060650
v 0.3885850 0.1000000 -0.0574050
v 0.4000000 0.1000000 0.0000000
v 0.4000000 -0.0000000 0.0000000
v 0.3885850 -0.0000000 -0.0574050
v 0.4000000 0.1000000 0.0000000
v 0.3885850 0.1000000 0.0574050
v 0.3885850 -0.0000000 0.0574050
v 0.4000000 -0.0000000 0.0000000
v 0.3885850 0.1000000 0.0574050
v 0.3560650 0.1000000 0.1060650
v 0.3560650 -0.0000000 0.1060650
v 0.3885850 -0.0000000 0.0574050
v 0.3560650 0.1000000 0.1060650
v 0.3074050 0.1000000 0.1385850
v 0.3074050 -0.0000000 0.1385850
v 0.3560650 -0.0000000 0.1060650
v 0.3074050 0.1000000 0.1385850
v 0.2500000 0.1000000 0.1500000
v 0.2500000 -0.0000000 0.1500000
v 0.3074050 -0.0000000 0.1385850
v 0.2500000 0.1000000 0.1500000
v 0.1925950 0.1000000 0.1385850
v 0.1925950 -0.0000000 0.1385850
v 0.2500000 -0.0000000 0.1500000
v 0.1925950 0.1000000 0.1385850
v 0.1439350 0.1000000 0.1060650
v 0.1439350 -0.0000000 0.1060650
v 0.1925950 -0.0000000 0.1385850
v 0.1439350 0.1000000 0.1060650
v 0.1114150 0.1000000 0.0574050
v 0.1114150 -0.0000000 0.0574050
v 0.1439350 -0.0000000 0.1060650
v 0.1114150 0.1000000 0.0574050
v 0.1000000 0.1000000 0.0000000
v 0.1000000 -0.0000000 0.0000000
v 0.1114150 -0.0000000 0.0574050
v 0.1000000 0.1000000 0.0000000
v 0.1114150 0.1000000 -0.0574050
v 0.1114150 -0.0000000 -0.0574050
v 0.1000000 -0.0000000 0.0000000
v 0.1114150 0.1000000 -0.0574050
v 0.1439350 0.1000000 -0.1060650
v 0.1439350 -0.0000000 -0.1060650
v 0.1114150 -0.0000000 -0.0574050
v 0.1439350 0.1000000 -0.1060650
v 0.1925950 0.1000000 -0.1385850
v 0.1925950 -0.0000000 -0.1385850
v 0.1439350 -0.0000000 -0.1060650
v 0.1925950 0.1000000 -0.1385850
v 0.2500000 0.1000000 -0.1500000
v 0.2500000 -0.0000000 -0.1500000
v 0.1925950 -0.0000000 -0.1385850
v 0.3074050 0.1000000 -0.1385850
v 0.2500000 0.1000000 -0.1500000
v 0.2500000 0.1000000 0.0000000
v 0.3560650 0.1000000 -0.1060650
v 0.3074050 0.1000000 -0.1385850
v 0.2500000 0.1000000 0.0000000
v 0.3885850 0.1000000 -0.0574050
v 0.3560650 0.1000000 -0.1060650
v 0.2500000 0.1000000 0.0000000
v 0.4000000 0.1000000 0.0000000
v 0.3885850 0.1000000 -0.0574050
v 0.2500000 0.1000000 0.0000000
v 0.3885850 0.1000000 0.0574050
v 0.4000000 0.1000000 0.0000000
v 0.2500000 0.1000000 0.0000000
v 0.3560650 0.1000000 0.1060650
v 0.3885850 0.1000000 0.0574050
v 0.2500000 0.1000000 0.0000000
v 0.3074050 0.1000000 0.1385850
v 0.3560650 0.1000000 0.1060650
v 0.2500000 0.1000000 0.0000000
v 0.2500000 0.1000000 0.1500000
v 0.3074050 0.1000000 0.1385850
v 0.2500000 0.1000000 0.0000000
v 0.1925950 0.1000000 0.1385850
v 0.2500000 0.1000000 0.1500000
v 0.2500000 0.1000000 0.0000000
v 0.1439350 0.1000000 0.1060650
v 0.1925950 0.1000000 0.1385850
v 0.2500000 0.1000000 0.0000000
v 0.1114150 0.1000000 0.0574050
v 0.1439350 0.1000000 0.1060650
v 0.2500000 0.1000000 0.0000000
v 0.1000000 0.1000000 0.0000000
v 0.1114150 0.1000000 0.0574050
v 0.2500000 0.1000000 0.0000000
v 0.1114150 0.1000000 -0.0574050
v 0.1000000 0.1000000 0.0000000
v 0.2500000 0.1000000 0.0000000
v 0.1439350 0.1000000 -0.1060650
v 0.1114150 0.1000000 -0.0574050
v 0.2500000 0.1000000 0.0000000
v 0.1925950 0.1000000 -0.1385850
v 0.1439350 0.1000000 -0.1060650
v 0.2500000 0.1000000 0.0000000
v 0.2500000 0.1000000 -0.1500000
v 0.1925950 0.1000000 -0.1385850
v 0.2500000 0.1000000 0.0000000
v 0.7500000 0.1000000 -0.1500000
v 0.8074050 0.1000000 -0.1385850
v 0.8074050 -0.0000000 -0.1385850
v 0.7500000 -0.0000000 -0.1500000
v 0.8074050 0.1000000 -0.1385850
v 0.8560650 0.1000000 -0.1060650
v 0.8560650 -0.0000000 -0.1060650
v 0.8074050 -0.0000000 -0.1385850
v 0.8560650 0.1000000 -0.1060650
v 0.8885850 0.1000000 -0.0574050
v 0.8885850 -0.0000000 -0.0574050
v 0.8560650 -0.0000000 -0.1060650
v 0.8885850 0.1000000 -0.0574050
v 0.9000000 0.1000000 0.0000000
v 0.9000000 -0.0000000 0.0000000
v 0.8885850 -0.0000000 -0.0574050
v 0.9000000 0.1000000 0.0000000
v 0.8885850 0.1000000 0.0574050
v 0.8885850 -0.0000000 0.0574050
v 0.9000000 -0.0000000 0.0000000
v 0.8885850 0.1000000 0.0574050
v 0.8560650 0.1000000 0.1060650
v 0.8560650 -0.0000000 0.1060650
v 0.8885850 -0.0000000 0.0574050
v 0.8560650 0.1000000 0.1060650
v 0.8074050 0.1000000 0.1385850
v 0.8074050 -0.0000000 0.1385850
v 0.8560650 -0.0000000 0.1060650
v 0.8074050 0.1000000 0.1385850
v 0.7500000 0.1000000 0.1500000
v 0.7500000 -0.0000000 0.1500000
v 0.8074050 -0.0000000 0.1385850
v 0.7500000 0.1000000 0.1500000
v 0.6925950 0.1000000 0.1385850
v 0.6925950 -0.0000000 0.1385850
v 0.7500000 -0.0000000 0.1500000
v 0.6925950 0.1000000 0.1385850
v 0.6439350 0.1000000 0.1060650
v 0.6439350 -0.0000000 0.1060650
v 0.6925950 -0.0000000 0.1385850
v 0.6439350 0.1000000 0.1060650
v 0.6114150 0.1000000 0.0574050
v 0.6114150 -0.0000000 0.0574050
v 0.6439350 -0.0000000 0.1060650
v 0.6114150 0.1000000 0.0574050
v 0.6000000 0.1000000 0.0000000
v 0.6000000 -0.0000000 0.0000000
v 0.6114150 -0.0000000 0.0574050
v 0.6000000 0.1000000 0.0000000
v 0.6114150 0.1000000 -0.0574050
v 0.6114150 -0.0000000 -0.0574050
v 0.6000000 -0.0000000 0.0000000
v 0.6114150 0.1000000 -0.0574050
v 0.6439350 0.1000000 -0.1060650
v 0.6439350 -0.0000000 -0.1060650
v 0.6114150 -0.0000000 -0.0574050
v 0.6439350 0.1000000 -0.1060650
v 0.6925950 0.1000000 -0.1385850
v 0.6925950 -0.0000000 -0.1385850
v 0.6439350 -0.0000000 -0.1060650
v 0.6925950 0.1000000 -0.1385850
v 0.7500000 0.1000000 -0.1500000
v 0.7500000 -0.0000000 -0.1500000
v 0.6925950 -0.0000000 -0.1385850
v 0.8074050 0.1000000 -0.1385850
v 0.7500000 0.1000000 -0.1500000
v 0.7500000 0.1000000 0.0000000
v 0.8560650 0.1000000 -0.1060650
v 0.8074050 0.1000000 -0.1385850
v 0.7500000 0.1000000 0.0000000
v 0.8885850 0.1000000 -0.0574050
v 0.8560650 0.1000000 -0.1060650
v 0.7500000 0.1000000 0.0000000
v 0.9000000 0.1000000 0.0000000
v 0.8885850 0.1000000 -0.0574050
v 0.7500000 0.1000000 0.0000000
v 0.8885850 0.1000000 0.0574050
v 0.9000000 0.1000000 0.0000000
v 0.7500000 0.1000000 0.0000000
v 0.8560650 0.1000000 0.1060650
v 0.8885850 0.1000000 0.0574050
v 0.7500000 0.1000000 0.0000000
v 0.8074050 0.1000000 0.1385850
v 0.8560650 0.1000000 0.1060650
v 0.7500000 0.1000000 0.0000000
v 0.7500000 0.1000000 0.1500000
v 0.8074050 0.1000000 0.1385850
v 0.7500000 0.1000000 0.0000000
v 0.6925950 0.1000000 0.1385850
v 0.7500000 0.1000000 0.1500000
v 0.7500000 0.1000000 0.0000000
v 0.6439350 0.1000000 0.1060650
v 0.6925950 0.1000000 0.1385850
v 0.7500000 0.1000000 0.0000000
v 0.6114150 0.1000000 0.0574050
v 0.6439350 0.1000000 0.1060650
v 0.7500000 0.1000000 0.0000000
v 0.6000000 0.1000000 0.0000000
v 0.6114150 0.1000000 0.0574050
v 0.7500000 0.1000000 0.0000000
v 0.6114150 0.1000000 -0.0574050
v 0.6000000 0.1000000 0.0000000
v 0.7500000 0.1000000 0.0000000
v 0.6439350 0.1000000 -0.1060650
v 0.6114150 0.1000000 -0.0574050
v 0.7500000 0.1000000 0.0000000
v 0.6925950 0.1000000 -0.1385850
v 0.6439350 0.1000000 -0.1060650
v 0.7500000 0.1000000 0.0000000
v 0.7500000 0.1000000 -0.1500000
v 0.6925950 0.1000000 -0.1385850
v 0.7500000 0.1000000 0.0000000
v 0.5000000 -0.2000000 0.0000000
v 0.6000000 -0.2000000 0.0000000
v 0.5923900 -0.2000000 0.0382700
v 0.5000000 -0.2000000 0.0000000
v 0.5923900 -0.2000000 0.0382700
v 0.5707100 -0.2000000 0.0707100
v 0.5000000 -0.2000000 0.0000000
v 0.5707100 -0.2000000 0.0707100
v 0.5382700 -0.2000000 0.0923900
v 0.5000000 -0.2000000 0.0000000
v 0.5382700 -0.2000000 0.0923900
v 0.5000000 -0.2000000 0.1000000
v 0.5000000 -0.2000000 0.0000000
v 0.5000000 -0.2000000 0.1000000
v 0.4617300 -0.2000000 0.0923900
v 0.5000000 -0.2000000 0.0000000
v 0.4617300 -0.2000000 0.0923900
v 0.4292900 -0.2000000 0.0707100
v 0.5000000 -0.2000000 0.0000000
v 0.4292900 -0.2000000 0.0707100
v 0.4076100 -0.2000000 0.0382700
v 0.5000000 -0.2000000 0.0000000
v 0.4076100 -0.2000000 0.0382700
v 0.4000000 -0.2000000 0.0000000
v 0.5000000 -0.2000000 0.0000000
v 0.4000000 -0.2000000 0.0000000
v 0.4076100 -0.2000000 -0.0382700
v 0.5000000 -0.2000000 0.0000000
v 0.4076100 -0.2000000 -0.0382700
v 0.4292900 -0.2000000 -0.0707100
v 0.5000000 -0.2000000 0.0000000
v 0.4292900 -0.2000000 -0.0707100
v 0.4617300 -0.2000000 -0.0923900
v 0.5000000 -0.2000000 0.0000000
v 0.4617300 -0.2000000 -0.0923900
v 0.5000000 -0.2000000 -0.1000000
v 0.5000000 -0.2000000 0.0000000
v 0.5000000 -0.2000000 -0.1000000
v 0.5382700 -0.2000000 -0.0923900
v 0.5000000 -0.2000000 0.0000000
v 0.5382700 -0.2000000 -0.0923900
v 0.5707100 -0.2000000 -0.0707100
v 0.5000000 -0.2000000 0.0000000
v 0.5707100 -0.2000000 -0.0707100
v 0.5923900 -0.2000000 -0.0382700
v 0.5000000 -0.2000000 0.0000000
v 0.5923900 -0.2000000 -0.0382700
v 0.6000000 -0.2000000 0.0000000
v 0.6000000 -0.1000000 0.0000000
v 0.5923900 -0.1000000 0.0382700
v 0.5923900 -0.2000000 0.0382700
v 0.6000000 -0.2000000 0.0000000
v 0.5923900 -0.1000000 0.0382700
v 0.5707100 -0.1000000 0.0707100
v 0.5707100 -0.2000000 0.0707100
v 0.5923900 -0.2000000 0.0382700
v 0.5707100 -0.1000000 0.0707100
v 0.5382700 -0.1000000 0.0923900
v 0.5382700 -0.2000000 0.0923900
v 0.5707100 -0.2000000 0.0707100
v 0.5382700 -0.1000000 0.0923900
v 0.5000000 -0.1000000 0.1000000
v 0.5000000 -0.2000000 0.1000000
v 0.5382700 -0.2000000 0.0923900
v 0.5000000 -0.1000000 0.1000000
v 0.4617300 -0.1000000 0.0923900
v 0.4617300 -0.2000000 0.0923900
v 0.5000000 -0.2000000 0.1000000
v 0.4617300 -0.1000000 0.0923900
v 0.4292900 -0.1000000 0.0707100
v 0.4292900 -0.2000000 0.0707100
v 0.4617300 -0.2000000 0.0923900
v 0.4292900 -0.1000000 0.0707100
v 0.4076100 -0.1000000 0.0382700
v 0.4076100 -0.2000000 0.0382700
v 0.4292900 -0.2000000 0.0707100
v 0.4076100 -0.1000000 0.0382700
v 0.4000000 -0.1000000 0.0000000
v 0.4000000 -0.2000000 0.0000000
v 0.4076100 -0.2000000 0.0382700
v 0.4000000 -0.1000000 0.0000000
v 0.4076100 -0.1000000 -0.0382700
v 0.4076100 -0.2000000 -0.0382700
v 0.4000000 -0.2000000 0.0000000
v 0.4076100 -0.1000000 -0.0382700
v 0.4292900 -0.1000000 -0.0707100
v 0.4292900 -0.2000000 -0.0707100
v 0.4076100 -0.2000000 -0.0382700
v 0.4292900 -0.1000000 -0.0707100
v 0.4617300 -0.1000000 -0.0923900
v 0.4617300 -0.2000000 -0.0923900
v 0.4292900 -0.2000000 -0.0707100
v 0.4617300 -0.1000000 -0.0923900
v 0.5000000 -0.1000000 -0.1000000
v 0.5000000 -0.2000000 -0.1000000
v 0.4617300 -0.2000000 -0.0923900
v 0.5000000 -0.1000000 -0.1000000
v 0.5382700 -0.1000000 -0.0923900
v 0.5382700 -0.2000000 -0.0923900
v 0.5000000 -0.2000000 -0.1000000
v 0.5382700 -0.1000000 -0.0923900
v 0.5707100 -0.1000000 -0.0707100
v 0.5707100 -0.2000000 -0.0707100
v 0.5382700 -0.2000000 -0.0923900
v 0.5707100 -0.1000000 -0.0707100
v 0.5923900 -0.1000000 -0.0382700
v 0.5923900 -0.2000000 -0.0382700
v 0.5707100 -0.2000000 -0.0707100
v 0.5923900 -0.1000000 -0.0382700
v 0.6000000 -0.1000000 0.0000000
v 0.6000000 -0.2000000 0.0000000
v 0.5923900 -0.2000000 -0.0382700
v 0.0000000 -0.2000000 0.0000000
v 0.1000000 -0.2000000 0.0000000
v 0.0923900 -0.2000000 0.0382700
v 0.0000000 -0.2000000 0.0000000
v 0.0923900 -0.2000000 0.0382700
v 0.0707100 -0.2000000 0.0707100
v 0.0000000 -0.2000000 0.0000000
v 0.0707100 -0.2000000 0.0707100
v 0.0382700 -0.2000000 0.0923900
v 0.0000000 -0.2000000 0.0000000
v 0.0382700 -0.2000000 0.0923900
v 0.0000000 -0.2000000 0.1000000
v 0.0000000 -0.2000000 0.0000000
v 0.0000000 -0.2000000 0.1000000
v -0.0382700 -0.2000000 0.0923900
v 0.0000000 -0.2000000 0.0000000
v -0.0382700 -0.2000000 0.0923900
v -0.0707100 -0.2000000 0.0707100
v 0.0000000 -0.2000000 0.0000000
v -0.0707100 -0.2000000 0.0707100
v -0.0923900 -0.2000000 0.0382700
v 0.0000000 -0.2000000 0.0000000
v -0.0923900 -0.2000000 0.0382700
v -0.1000000 -0.2000000 0.0000000
v 0.0000000 -0.2000000 0.0000000
v -0.1000000 -0.2000000 0.0000000
v -0.0923900 -0.2000000 -0.0382700
v 0.0000000 -0.2000000 0.0000000
v -0.0923900 -0.2000000 -0.0382700
v -0.0707100 -0.2000000 -0.0707100
v 0.0000000 -0.2000000 0.0000000
v -0.0707100 -0.2000000 -0.0707100
v -0.0382700 -0.2000000 -0.0923900
v 0.0000000 -0.2000000 0.0000000
v -0.0382700 -0.2000000 -0.0923900
v 0.0000000 -0.2000000 -0.1000000
v 0.0000000 -0.2000000 0.0000000
v 0.0000000 -0.2000000 -0.1000000
v 0.0382700 -0.2000000 -0.0923900
v 0.0000000 -0.2000000 0.0000000
v 0.0382700 -0.2000000 -0.0923900
v 0.0707100 -0.2000000 -0.0707100
v 0.0000000 -0.2000000 0.0000000
v 0.0707100 -0.2000000 -0.0707100
v 0.0923900 -0.2000000 -0.0382700
v 0.0000000 -0.2000000 0.0000000
v 0.0923900 -0.2000000 -0.0382700
v 0.1000000 -0.2000000 0.0000000
v 0.1000000 -0.1000000 0.0000000
v 0.0923900 -0.1000000 0.0382700
v 0.0923900 -0.2000000 0.0382700
v 0.1000000 -0.2000000 0.0000000
v 0.0923900 -0.1000000 0.0382700
v 0.0707100 -0.1000000 0.0707100
v 0.0707100 -0.2000000 0.0707100
v 0.0923900 -0.2000000 0.0382700
v 0.0707100 -0.1000000 0.0707100
v 0.0382700 -0.1000000 0.0923900
v 0.0382700 -0.2000000 0.0923900
v 0.0707100 -0.2000000 0.0707100
v 0.0382700 -0.1000000 0.0923900
v 0.0000000 -0.1000000 0.1000000
v 0.0000000 -0.2000000 0.1000000
v 0.0382700 -0.2000000 0.0923900
v 0.0000000 -0.1000000 0.1000000
v -0.0382700 -0.1000000 0.0923900
v -0.0382700 -0.2000000 0.0923900
v 0.0000000 -0.2000000 0.1000000
v -0.0382700 -0.1000000 0.0923900
v -0.0707100 -0.1000000 0.0707100
v -0.0707100 -0.2000000 0.0707100
v -0.0382700 -0.2000000 0.0923900
v -0.0707100 -0.1000000 0.0707100
v -0.0923900 -0.1000000 0.0382700
v -0.0923900 -0.2000000 0.0382700
v -0.0707100 -0.2000000 0.0707100
v -0.0923900 -0.1000000 0.0382700
v -0.1000000 -0.1000000 0.0000000
v -0.1000000 -0.2000000 0.0000000
v -0.0923900 -0.2000000 0.0382700
v -0.1000000 -0.1000000 0.0000000
v -0.0923900 -0.1000000 -0.0382700
v -0.0923900 -0.2000000 -0.0382700
v -0.1000000 -0.2000000 0.0000000
v -0.0923900 -0.1000000 -0.0382700
v -0.0707100 -0.1000000 -0.0707100
v -0.0707100 -0.2000000 -0.0707100
v -0.0923900 -0.2000000 -0.0382700
v -0.0707100 -0.1000000 -0.0707100
v -0.0382700 -0.1000000 -0.0923900
v -0.0382700 -0.2000000 -0.0923900
v -0.0707100 -0.2000000 -0.0707100
v -0.0382700 -0.1000000 -0.0923900
v 0.0000000 -0.1000000 -0.1000000
v 0.0000000 -0.2000000 -0.1000000
v -0.0382700 -0.2000000 -0.0923900
v 0.0000000 -0.1000000 -0.1000000
v 0.0382700 -0.1000000 -0.0923900
v 0.0382700 -0.2000000 -0.0923900
v 0.0000000 -0.2000000 -0.1000000
v 0.0382700 -0.1000000 -0.0923900
v 0.0707100 -0.1000000 -0.0707100
v 0.0707100 -0.2000000 -0.0707100
v 0.0382700 -0.2000000 -0.0923900
v 0.0707100 -0.1000000 -0.0707100
v 0.0923900 -0.1000000 -0.0382700
v 0.0923900 -0.2000000 -0.0382700
v 0.0707100 -0.2000000 -0.0707100
v 0.0923900 -0.1000000 -0.0382700
v 0.1000000 -0.1000000 0.0000000
v 0.1000000 -0.2000000 0.0000000
v 0.0923900 -0.2000000 -0.0382700
v -0.5000000 -0.2000000 0.0000000
v -0.4000000 -0.2000000 0.0000000
v -0.4076100 -0.2000000 0.0382700
v -0.5000000 -0.2000000 0.0000000
v -0.4076100 -0.2000000 0.0382700
v -0.4292900 -0.2000000 0.0707100
v -0.5000000 -0.2000000 0.0000000
v -0.4292900 -0.2000000 0.0707100
v -0.4617300 -0.2000000 0.0923900
v -0.5000000 -0.2000000 0.0000000
v -0.4617300 -0.2000000 0.0923900
v -0.5000000 -0.2000000 0.1000000
v -0.5000000 -0.2000000 0.0000000
v -0.5000000 -0.2000000 0.1000000
v -0.5382700 -0.2000000 0.0923900
v -0.5000000 -0.2000000 0.0000000
v -0.5382700 -0.2000000 0.0923900
v -0.5707100 -0.2000000 0.0707100
v -0.5000000 -0.2000000 0.0000000
v -0.5707100 -0.2000000 0.0707100
v -0.5923900 -0.2000000 0.0382700
v -0.5000000 -0.2000000 0.0000000
v -0.5923900 -0.2000000 0.0382700
v -0.6000000 -0.2000000 0.0000000
v -0.5000000 -0.2000000 0.0000000
v -0.6000000 -0.2000000 0.0000000
v -0.5923900 -0.2000000 -0.0382700
v -0.5000000 -0.2000000 0.0000000
v -0.5923900 -0.2000000 -0.0382700
v -0.5707100 -0.2000000 -0.0707100
v -0.5000000 -0.2000000 0.0000000
v -0.5707100 -0.2000000 -0.0707100
v -0.5382700 -0.2000000 -0.0923900
v -0.5000000 -0.2000000 0.0000000
v -0.5382700 -0.2000000 -0.0923900
v -0.5000000 -0.2000000 -0.1000000
v -0.5000000 -0.2000000 0.0000000
v -0.5000000 -0.2000000 -0.1000000
v -0.4617300 -0.2000000 -0.0923900
v -0.5000000 -0.2000000 0.0000000
v -0.4617300 -0.2000000 -0.0923900
v -0.4292900 -0.2000000 -0.0707100
v -0.5000000 -0.2000000 0.0000000
v -0.4292900 -0.2000000 -0.0707100
v -0.4076100 -0.2000000 -0.0382700
v -0.5000000 -0.2000000 0.0000000
v -0.4076100 -0.2000000 -0.0382700
v -0.4000000 -0.2000000 0.0000000
v -0.4000000 -0.1000000 0.0000000
v -0.4076100 -0.1000000 0.0382700
v -0.4076100 -0.2000000 0.0382700
v -0.4000000 -0.2000000 0.0000000
v -0.4076100 -0.1000000 0.0382700
v -0.4292900 -0.1000000 0.0707100
v -0.4292900 -0.2000000 0.0707100
v -0.4076100 -0.2000000 0.0382700
v -0.4292900 -0.1000000 0.0707100
v -0.4617300 -0.1000000 0.0923900
v -0.4617300 -0.2000000 0.0923900
v -0.4292900 -0.2000000 0.0707100
v -0.4617300 -0.1000000 0.0923900
v -0.5000000 -0.1000000 0.1000000
v -0.5000000 -0.2000000 0.1000000
v -0.4617300 -0.2000000 0.0923900
v -0.5000000 -0.1000000 0.1000000
v -0.5382700 -0.1000000 0.0923900
v -0.5382700 -0.2000000 0.0923900
v -0.5000000 -0.2000000 0.1000000
v -0.5382700 -0.1000000 0.0923900
v -0.5707100 -0.1000000 0.0707100
v -0.5707100 -0.2000000 0.0707100
v -0.5382700 -0.2000000 0.0923900
v -0.5707100 -0.1000000 0.0707100
v -0.5923900 -0.1000000 0.0382700
v -0.5923900 -0.2000000 0.0382700
v -0.5707100 -0.2000000 0.0707100
v -0.5923900 -0.1000000 0.0382700
v -0.6000000 -0.1000000 0.0000000
v -0.6000000 -0.2000000 0.0000000
v -0.5923900 -0.2000000 0.0382700
v -0.6000000 -0.1000000 0.0000000
v -0.5923900 -0.1000000 -0.0382700
v -0.5923900 -0.2000000 -0.0382700
v -0.6000000 -0.2000000 0.0000000
v -0.5923900 -0.1000000 -0.0382700
v -0.5707100 -0.1000000 -0.0707100
v -0.5707100 -0.2000000 -0.0707100
v -0.5923900 -0.2000000 -0.0382700
v -0.5707100 -0.1000000 -0.0707100
v -0.5382700 -0.1000000 -0.0923900
v -0.5382700 -0.2000000 -0.0923900
v -0.5707100 -0.2000000 -0.0707100
v -0.5382700 -0.1000000 -0.0923900
v -0.5000000 -0.1000000 -0.1000000
v -0.5000000 -0.2000000 -0.1000000
v -0.5382700 -0.2000000 -0.0923900
v -0.5000000 -0.1000000 -0.1000000
v -0.4617300 -0.1000000 -0.0923900
v -0.4617300 -0.2000000 -0.0923900
v -0.5000000 -0.2000000 -0.1000000
v -0.4617300 -0.1000000 -0.0923900
v -0.4292900 -0.1000000 -0.0707100
v -0.4292900 -0.2000000 -0.0707100
v -0.4617300 -0.2000000 -0.0923900
v -0.4292900 -0.1000000 -0.0707100
v -0.4076100 -0.1000000 -0.0382700
v -0.4076100 -0.2000000 -0.0382700
v -0.4292900 -0.2000000 -0.0707100
v -0.4076100 -0.1000000 -0.0382700
v -0.4000000 -0.1000000 0.0000000
v -0.4000000 -0.2000000 0.0000000
v -0.4076100 -0.2000000 -0.0382700
v 0.7500000 -0.4000000 -0.9250000
v 0.6929250 -0.4000000 -0.7049475
v 0.6929250 -0.0000000 -0.7049475
v 0.7500000 -0.0000000 -0.9250000
v 0.6929250 -0.4000000 -0.7049475
v 0.5303250 -0.4000000 -0.5184175
v 0.5303250 -0.0000000 -0.5184175
v 0.6929250 -0.0000000 -0.7049475
v 0.5303250 -0.4000000 -0.5184175
v 0.2870250 -0.4000000 -0.3937575
v 0.2870250 -0.0000000 -0.3937575
v 0.5303250 -0.0000000 -0.5184175
v 0.2870250 -0.4000000 -0.3937575
v 0.0000000 -0.4000000 -0.3500000
v 0.0000000 -0.0000000 -0.3500000
v 0.2870250 -0.0000000 -0.3937575
v 0.0000000 -0.4000000 -0.3500000
v -0.2870250 -0.4000000 -0.3937575
v -0.2870250 -0.0000000 -0.3937575
v 0.0000000 -0.0000000 -0.3500000
v -0.2870250 -0.4000000 -0.3937575
v -0.5303250 -0.4000000 -0.5184175
v -0.5303250 -0.0000000 -0.5184175
v -0.2870250 -0.0000000 -0.3937575
v -0.5303250 -0.4000000 -0.5184175
v -0.6929250 -0.4000000 -0.7049475
v -0.6929250 -0.0000000 -0.7049475
v -0.5303250 -0.0000000 -0.5184175
v -0.6929250 -0.4000000 -0.7049475
v -0.7500000 -0.4000000 -0.9250000
v -0.7500000 -0.0000000 -0.9250000
v -0.6929250 -0.0000000 -0.7049475
v -0.7500000 -0.4000000 -0.9250000
v -0.6929250 -0.4000000 -1.1450525
v -0.6929250 -0.0000000 -1.1450525
v -0.7500000 -0.0000000 -0.9250000
v -0.6929250 -0.4000000 -1.1450525
v -0.5303250 -0.4000000 -1.3315825
v -0.5303250 -0.0000000 -1.3315825
v -0.6929250 -0.0000000 -1.1450525
v -0.5303250 -0.4000000 -1.3315825
v -0.2870250 -0.4000000 -1.4562425
v -0.2870250 -0.0000000 -1.4562425
v -0.5303250 -0.0000000 -1.3315825
v -0.2870250 -0.4000000 -1.4562425
v 0.0000000 -0.4000000 -1.5000000
v 0.0000000 -0.0000000 -1.5000000
v -0.2870250 -0.0000000 -1.4562425
v 0.0000000 -0.4000000 -1.5000000
v 0.2870250 -0.4000000 -1.4562425
v 0.2870250 -0.0000000 -1.4562425
v 0.0000000 -0.0000000 -1.5000000
v 0.2870250 -0.4000000 -1.4562425
v 0.5303250 -0.4000000 -1.3315825
v 0.5303250 -0.0000000 -1.3315825
v 0.2870250 -0.0000000 -1.4562425
v 0.5303250 -0.4000000 -1.3315825
v 0.6929250 -0.4000000 -1.1450525
v 0.6929250 -0.0000000 -1.1450525
v 0.5303250 -0.0000000 -1.3315825
v 0.6929250 -0.4000000 -1.1450525
v 0.7500000 -0.4000000 -0.9250000
v 0.7500000 -0.0000000 -0.9250000
v 0.6929250 -0.0000000 -1.1450525
v 0.8250000 -0.1000000 -0.9250000
v 0.7622175 -0.1000000 -0.6762450
v 0.7622175 -0.4000000 -0.6762450
v 0.8250000 -0.4000000 -0.9250000
v 0.7622175 -0.1000000 -0.6762450
v 0.5833575 -0.1000000 -0.4653850
v 0.5833575 -0.4000000 -0.4653850
v 0.7622175 -0.4000000 -0.6762450
v 0.5833575 -0.1000000 -0.4653850
v 0.3157275 -0.1000000 -0.3244650
v 0.3157275 -0.4000000 -0.3244650
v 0.5833575 -0.4000000 -0.4653850
v 0.3157275 -0.1000000 -0.3244650
v 0.0000000 -0.1000000 -0.2750000
v 0.0000000 -0.4000000 -0.2750000
v 0.3157275 -0.4000000 -0.3244650
v 0.0000000 -0.1000000 -0.2750000
v -0.3157275 -0.1000000 -0.3244650
v -0.3157275 -0.4000000 -0.3244650
v 0.0000000 -0.4000000 -0.2750000
v -0.3157275 -0.1000000 -0.3244650
v -0.5833575 -0.1000000 -0.4653850
v -0.5833575 -0.4000000 -0.4653850
v -0.3157275 -0.4000000 -0.3244650
v -0.5833575 -0.1000000 -0.4653850
v -0.7622175 -0.1000000 -0.6762450
v -0.7622175 -0.4000000 -0.6762450
v -0.5833575 -0.4000000 -0.4653850
v -0.7622175 -0.1000000 -0.6762450
v -0.8250000 -0.1000000 -0.9250000
v -0.8250000 -0.4000000 -0.9250000
v -0.7622175 -0.4000000 -0.6762450
v -0.8250000 -0.1000000 -0.9250000
v -0.7622175 -0.1000000 -1.1737550
v -0.7622175 -0.4000000 -1.1737550
v -0.8250000 -0.4000000 -0.9250000
v -0.7622175 -0.1000000 -1.1737550
v -0.5833575 -0.1000000 -1.3846150
v -0.5833575 -0.4000000 -1.3846150
v -0.7622175 -0.4000000 -1.1737550
v -0.5833575 -0.1000000 -1.3846150
v -0.3157275 -0.1000000 -1.5255350
v -0.3157275 -0.4000000 -1.5255350
v -0.5833575 -0.4000000 -1.3846150
v -0.3157275 -0.1000000 -1.5255350
v 0.0000000 -0.1000000 -1.5750000
v 0.0000000 -0.4000000 -1.5750000
v -0.3157275 -0.4000000 -1.5255350
v 0.0000000 -0.1000000 -1.5750000
v 0.3157275 -0.1000000 -1.5255350
v 0.3157275 -0.4000000 -1.5255350
v 0.0000000 -0.4000000 -1.5750000
v 0.3157275 -0.1000000 -1.5255350
v 0.5833575 -0.1000000 -1.3846150
v 0.5833575 -0.4000000 -1.3846150
v 0.3157275 -0.4000000 -1.5255350
v 0.5833575 -0.1000000 -1.3846150
v 0.7622175 -0.1000000 -1.1737550
v 0.7622175 -0.4000000 -1.1737550
v 0.5833575 -0.4000000 -1.3846150
v 0.7622175 -0.1000000 -1.1737550
v 0.8250000 -0.1000000 -0.9250000
v 0.8250000 -0.4000000 -0.9250000
v 0.7622175 -0.4000000 -1.1737550
v 0.7500000 -0.0000000 -0.3500000
v 0.7500000 -0.0000000 -0.9250000
v 0.6929250 -0.0000000 -0.7049475
v 0.7500000 -0.0000000 -0.3500000
v 0.6929250 -0.0000000 -0.7049475
v 0.5303250 -0.0000000 -0.5184175
v 0.7500000 -0.0000000 -0.3500000
v 0.5303250 -0.0000000 -0.5184175
v 0.2870250 -0.0000000 -0.3937575
v 0.7500000 -0.0000000 -0.3500000
v 0.2870250 -0.0000000 -0.3937575
v 0.0000000 -0.0000000 -0.3500000
v -0.7500000 -0.0000000 -0.3500000
v 0.0000000 -0.0000000 -0.3500000
v -0.2870250 -0.0000000 -0.3937575
v -0.7500000 -0.0000000 -0.3500000
v -0.2870250 -0.0000000 -0.3937575
v -0.5303250 -0.0000000 -0.5184175
v -0.7500000 -0.0000000 -0.3500000
v -0.5303250 -0.0000000 -0.5184175
v -0.6929250 -0.0000000 -0.7049475
v -0.7500000 -0.0000000 -0.3500000
v -0.6929250 -0.0000000 -0.7049475
v -0.7500000 -0.0000000 -0.9250000
v -0.7500000 -0.0000000 -1.5000000
v -0.7500000 -0.0000000 -0.9250000
v -0.6929250 -0.0000000 -1.1450525
v -0.7500000 -0.0000000 -1.5000000
v -0.6929250 -0.0000000 -1.1450525
v -0.5303250 -0.0000000 -1.3315825
v -0.7500000 -0.0000000 -1.5000000
v -0.5303250 -0.0000000 -1.3315825
v -0.2870250 -0.0000000 -1.4562425
v -0.7500000 -0.0000000 -1.5000000
v -0.2870250 -0.0000000 -1.4562425
v 0.0000000 -0.0000000 -1.5000000
v 0.7500000 -0.0000000 -1.5000000
v 0.0000000 -0.0000000 -1.5000000
v 0.2870250 -0.0000000 -1.4562425
v 0.7500000 -0.0000000 -1.5000000
v 0.2870250 -0.0000000 -1.4562425
v 0.5303250 -0.0000000 -1.3315825
v 0.7500000 -0.0000000 -1.5000000
v 0.5303250 -0.0000000 -1.3315825
v 0.6929250 -0.0000000 -1.1450525
v 0.7500000 -0.0000000 -1.5000000
v 0.6929250 -0.0000000 -1.1450525
v 0.7500000 -0.0000000 -0.9250000
v -1.0000000 -0.0000000 0.2500000
v 1.0000000 -0.0000000 0.2500000
v 0.7500000 -0.0000000 -0.3500000
v -0.7500000 -0.0000000 -0.3500000
v -0.7500000 -0.0000000 -1.5000000
v 0.7500000 -0.0000000 -1.5000000
v 1.0000000 -0.0000000 -1.7500000
v -1.0000000 -0.0000000 -1.7500000
v 1.0000000 -0.0000000 0.2500000
v 1.0000000 -0.0000000 -1.7500000
v 0.7500000 -0.0000000 -1.5000000
v 0.7500000 -0.0000000 -0.3500000
v -0.7500000 -0.0000000 -0.3500000
v -0.7500000 -0.0000000 -1.5000000
v -1.0000000 -0.0000000 -1.7500000
v -1.0000000 -0.0000000 0.2500000
v 0.5017724 -0.6078575 -0.7656514
v 0.5431025 -0.6078575 -0.9250000
v 0.0000000 -0.6078575 -0.9250000
v 0.3840278 -0.6078575 -0.6305777
v 0.5017724 -0.6078575 -0.7656514
v 0.0000000 -0.6078575 -0.9250000
v 0.2078453 -0.6078575 -0.5403065
v 0.3840278 -0.6078575 -0.6305777
v 0.0000000 -0.6078575 -0.9250000
v 0.0000000 -0.6078575 -0.5086200
v 0.2078453 -0.6078575 -0.5403065
v 0.0000000 -0.6078575 -0.9250000
v -0.2078453 -0.6078575 -0.5403065
v 0.0000000 -0.6078575 -0.5086200
v 0.0000000 -0.6078575 -0.9250000
v -0.3840278 -0.6078575 -0.6305777
v -0.2078453 -0.6078575 -0.5403065
v 0.0000000 -0.6078575 -0.9250000
v -0.5017724 -0.6078575 -0.7656514
v -0.3840278 -0.6078575 -0.6305777
v 0.0000000 -0.6078575 -0.9250000
v -0.5431025 -0.6078575 -0.9250000
v -0.5017724 -0.6078575 -0.7656514
v 0.0000000 -0.6078575 -0.9250000
v -0.5017724 -0.6078575 -1.0843486
v -0.5431025 -0.6078575 -0.9250000
v 0.0000000 -0.6078575 -0.9250000
v -0.3840278 -0.6078575 -1.2194223
v -0.5017724 -0.6078575 -1.0843486
v 0.0000000 -0.6078575 -0.9250000
v -0.2078453 -0.6078575 -1.3096935
v -0.3840278 -0.6078575 -1.2194223
v 0.0000000 -0.6078575 -0.9250000
v 0.0000000 -0.6078575 -1.3413800
v -0.2078453 -0.6078575 -1.3096935
v 0.0000000 -0.6078575 -0.9250000
v 0.2078453 -0.6078575 -1.3096935
v 0.0000000 -0.6078575 -1.3413800
v 0.0000000 -0.6078575 -0.9250000
v 0.3840278 -0.6078575 -1.2194223
v 0.2078453 -0.6078575 -1.3096935
v 0.0000000 -0.6078575 -0.9250000
v 0.5017724 -0.6078575 -1.0843486
v 0.3840278 -0.6078575 -1.2194223
v 0.0000000 -0.6078575 -0.9250000
v 0.5431025 -0.6078575 -0.9250000
v 0.5017724 -0.6078575 -1.0843486
v 0.0000000 -0.6078575 -0.9250000
v 0.5431000 -0.6095500 -0.9250000
v 0.5017701 -0.6095500 -0.7656533
v 0.5749257 -0.5936000 -0.7424196
v 0.6222840 -0.5936000 -0.9250000
v 0.6222840 -0.5936000 -0.9250000
v 0.5749257 -0.5936000 -0.7424196
v 0.6369477 -0.5481700 -0.7227250
v 0.6894111 -0.5481700 -0.9250000
v 0.6894111 -0.5481700 -0.9250000
v 0.6369477 -0.5481700 -0.7227250
v 0.6783862 -0.4801900 -0.7095676
v 0.7342712 -0.4801900 -0.9250000
v 0.7342712 -0.4801900 -0.9250000
v 0.6783862 -0.4801900 -0.7095676
v 0.6929413 -0.4000000 -0.7049458
v 0.7500211 -0.4000000 -0.9250000
v 0.5017701 -0.6095500 -0.7656533
v 0.3840260 -0.6095500 -0.6305812
v 0.4400196 -0.5936000 -0.5876530
v 0.5749257 -0.5936000 -0.7424196
v 0.5749257 -0.5936000 -0.7424196
v 0.4400196 -0.5936000 -0.5876530
v 0.4874866 -0.5481700 -0.5512618
v 0.6369477 -0.5481700 -0.7227250
v 0.6369477 -0.5481700 -0.7227250
v 0.4874866 -0.5481700 -0.5512618
v 0.5192036 -0.4801900 -0.5269455
v 0.6783862 -0.4801900 -0.7095676
v 0.6783862 -0.4801900 -0.7095676
v 0.5192036 -0.4801900 -0.5269455
v 0.5303372 -0.4000000 -0.5184098
v 0.6929413 -0.4000000 -0.7049458
v 0.3840260 -0.6095500 -0.6305812
v 0.2078444 -0.6095500 -0.5403111
v 0.2381494 -0.5936000 -0.4842254
v 0.4400196 -0.5936000 -0.5876530
v 0.4400196 -0.5936000 -0.5876530
v 0.2381494 -0.5936000 -0.4842254
v 0.2638380 -0.5481700 -0.4366754
v 0.4874866 -0.5481700 -0.5512618
v 0.4874866 -0.5481700 -0.5512618
v 0.2638380 -0.5481700 -0.4366754
v 0.2809999 -0.4801900 -0.4049060
v 0.5192036 -0.4801900 -0.5269455
v 0.5192036 -0.4801900 -0.5269455
v 0.2809999 -0.4801900 -0.4049060
v 0.2870283 -0.4000000 -0.3937471
v 0.5303372 -0.4000000 -0.5184098
v 0.2078444 -0.6095500 -0.5403111
v 0.0000000 -0.6095500 -0.5086250
v 0.0000000 -0.5936000 -0.4479175
v 0.2381494 -0.5936000 -0.4842254
v 0.2381494 -0.5936000 -0.4842254
v 0.0000000 -0.5936000 -0.4479175
v 0.0000000 -0.5481700 -0.3964536
v 0.2638380 -0.5481700 -0.4366754
v 0.2638380 -0.5481700 -0.4366754
v 0.0000000 -0.5481700 -0.3964536
v 0.0000000 -0.4801900 -0.3620610
v 0.2809999 -0.4801900 -0.4049060
v 0.2809999 -0.4801900 -0.4049060
v 0.0000000 -0.4801900 -0.3620610
v 0.0000000 -0.4000000 -0.3499861
v 0.2870283 -0.4000000 -0.3937471
v 0.0000000 -0.6095500 -0.5086250
v -0.2078444 -0.6095500 -0.5403111
v -0.2381494 -0.5936000 -0.4842254
v 0.0000000 -0.5936000 -0.4479175
v 0.0000000 -0.5936000 -0.4479175
v -0.2381494 -0.5936000 -0.4842254
v -0.2638380 -0.5481700 -0.4366754
v 0.0000000 -0.5481700 -0.3964536
v 0.0000000 -0.5481700 -0.3964536
v -0.2638380 -0.5481700 -0.4366754
v -0.2809999 -0.4801900 -0.4049060
v 0.0000000 -0.4801900 -0.3620610
v 0.0000000 -0.4801900 -0.3620610
v -0.2809999 -0.4801900 -0.4049060
v -0.2870283 -0.4000000 -0.3937471
v 0.0000000 -0.4000000 -0.3499861
v -0.2078444 -0.6095500 -0.5403111
v -0.3840260 -0.6095500 -0.6305812
v -0.4400196 -0.5936000 -0.5876530
v -0.2381494 -0.5936000 -0.4842254
v -0.2381494 -0.5936000 -0.4842254
v -0.4400196 -0.5936000 -0.5876530
v -0.4874866 -0.5481700 -0.5512618
v -0.2638380 -0.5481700 -0.4366754
v -0.2638380 -0.5481700 -0.4366754
v -0.4874866 -0.5481700 -0.5512618
v -0.5192036 -0.4801900 -0.5269455
v -0.2809999 -0.4801900 -0.4049060
v -0.2809999 -0.4801900 -0.4049060
v -0.5192036 -0.4801900 -0.5269455
v -0.5303372 -0.4000000 -0.5184098
v -0.2870283 -0.4000000 -0.3937471
v -0.3840260 -0.6095500 -0.6305812
v -0.5017701 -0.6095500 -0.7656533
v -0.5749257 -0.5936000 -0.7424196
v -0.4400196 -0.5936000 -0.5876530
v -0.4400196 -0.5936000 -0.5876530
v -0.5749257 -0.5936000 -0.7424196
v -0.6369477 -0.5481700 -0.7227250
v -0.4874866 -0.5481700 -0.5512618
v -0.4874866 -0.5481700 -0.5512618
v -0.6369477 -0.5481700 -0.7227250
v -0.6783862 -0.4801900 -0.7095676
v -0.5192036 -0.4801900 -0.5269455
v -0.5192036 -0.4801900 -0.5269455
v -0.6783862 -0.4801900 -0.7095676
v -0.6929413 -0.4000000 -0.7049458
v -0.5303372 -0.4000000 -0.5184098
v -0.5017701 -0.6095500 -0.7656533
v -0.5431000 -0.6095500 -0.9250000
v -0.6222840 -0.5936000 -0.9250000
v -0.5749257 -0.5936000 -0.7424196
v -0.5749257 -0.5936000 -0.7424196
v -0.6222840 -0.5936000 -0.9250000
v -0.6894111 -0.5481700 -0.9250000
v -0.6369477 -0.5481700 -0.7227250
v -0.6369477 -0.5481700 -0.7227250
v -0.6894111 -0.5481700 -0.9250000
v -0.7342712 -0.4801900 -0.9250000
v -0.6783862 -0.4801900 -0.7095676
v -0.6783862 -0.4801900 -0.7095676
v -0.7342712 -0.4801900 -0.9250000
v -0.7500211 -0.4000000 -0.9250000
v -0.6929413 -0.4000000 -0.7049458
v -0.5431000 -0.6095500 -0.9250000
v -0.5017701 -0.6095500 -1.0843467
v -0.5749257 -0.5936000 -1.1075804
v -0.6222840 -0.5936000 -0.9250000
v -0.6222840 -0.5936000 -0.9250000
v -0.5749257 -0.5936000 -1.1075804
v -0.6369477 -0.5481700 -1.1272750
v -0.6894111 -0.5481700 -0.9250000
v -0.6894111 -0.5481700 -0.9250000
v -0.6369477 -0.5481700 -1.1272750
v -0.6783862 -0.4801900 -1.1404324
v -0.7342712 -0.4801900 -0.9250000
v -0.7342712 -0.4801900 -0.9250000
v -0.6783862 -0.4801900 -1.1404324
v -0.6929413 -0.4000000 -1.1450542
v -0.7500211 -0.4000000 -0.9250000
v -0.5017701 -0.6095500 -1.0843467
v -0.3840260 -0.6095500 -1.2194188
v -0.4400196 -0.5936000 -1.2623470
v -0.5749257 -0.5936000 -1.1075804
v -0.5749257 -0.5936000 -1.1075804
v -0.4400196 -0.5936000 -1.2623470
v -0.4874866 -0.5481700 -1.2987382
v -0.6369477 -0.5481700 -1.1272750
v -0.6369477 -0.5481700 -1.1272750
v -0.4874866 -0.5481700 -1.2987382
v -0.5192036 -0.4801900 -1.3230545
v -0.6783862 -0.4801900 -1.1404324
v -0.6783862 -0.4801900 -1.1404324
v -0.5192036 -0.4801900 -1.3230545
v -0.5303372 -0.4000000 -1.3315902
v -0.6929413 -0.4000000 -1.1450542
v -0.3840260 -0.6095500 -1.2194188
v -0.2078444 -0.6095500 -1.3096889
v -0.2381494 -0.5936000 -1.3657746
v -0.4400196 -0.5936000 -1.2623470
v -0.4400196 -0.5936000 -1.2623470
v -0.2381494 -0.5936000 -1.3657746
v -0.2638380 -0.5481700 -1.4133246
v -0.4874866 -0.5481700 -1.2987382
v -0.4874866 -0.5481700 -1.2987382
v -0.2638380 -0.5481700 -1.4133246
v -0.2809999 -0.4801900 -1.4450940
v -0.5192036 -0.4801900 -1.3230545
v -0.5192036 -0.4801900 -1.3230545
v -0.2809999 -0.4801900 -1.4450940
v -0.2870283 -0.4000000 -1.4562529
v -0.5303372 -0.4000000 -1.3315902
v -0.2078444 -0.6095500 -1.3096889
v 0.0000000 -0.6095500 -1.3413750
v 0.0000000 -0.5936000 -1.4020825
v -0.2381494 -0.5936000 -1.3657746
v -0.2381494 -0.5936000 -1.3657746
v 0.0000000 -0.5936000 -1.4020825
v 0.0000000 -0.5481700 -1.4535464
v -0.2638380 -0.5481700 -1.4133246
v -0.2638380 -0.5481700 -1.4133246
v 0.0000000 -0.5481700 -1.4535464
v 0.0000000 -0.4801900 -1.4879390
v -0.2809999 -0.4801900 -1.4450940
v -0.2809999 -0.4801900 -1.4450940
v 0.0000000 -0.4801900 -1.4879390
v 0.0000000 -0.4000000 -1.5000139
v -0.2870283 -0.4000000 -1.4562529
v 0.0000000 -0.6095500 -1.3413750
v 0.2078444 -0.6095500 -1.3096889
v 0.2381494 -0.5936000 -1.3657746
v 0.0000000 -0.5936000 -1.4020825
v 0.0000000 -0.5936000 -1.4020825
v 0.2381494 -0.5936000 -1.3657746
v 0.2638380 -0.5481700 -1.4133246
v 0.0000000 -0.5481700 -1.4535464
v 0.0000000 -0.5481700 -1.4535464
v 0.2638380 -0.5481700 -1.4133246
v 0.2809999 -0.4801900 -1.4450940
v 0.0000000 -0.4801900 -1.4879390
v 0.0000000 -0.4801900 -1.4879390
v 0.2809999 -0.4801900 -1.4450940
v 0.2870283 -0.4000000 -1.4562529
v 0.0000000 -0.4000000 -1.5000139
v 0.2078444 -0.6095500 -1.3096889
v 0.3840260 -0.6095500 -1.2194188
v 0.4400196 -0.5936000 -1.2623470
v 0.2381494 -0.5936000 -1.3657746
v 0.2381494 -0.5936000 -1.3657746
v 0.4400196 -0.5936000 -1.2623470
v 0.4874866 -0.5481700 -1.2987382
v 0.2638380 -0.5481700 -1.4133246
v 0.2638380 -0.5481700 -1.4133246
v 0.4874866 -0.5481700 -1.2987382
v 0.5192036 -0.4801900 -1.3230545
v 0.2809999 -0.4801900 -1.4450940
v 0.2809999 -0.4801900 -1.4450940
v 0.5192036 -0.4801900 -1.3230545
v 0.5303372 -0.4000000 -1.3315902
v 0.2870283 -0.4000000 -1.4562529
v 0.3840260 -0.6095500 -1.2194188
v 0.5017701 -0.6095500 -1.0843467
v 0.5749257 -0.5936000 -1.1075804
v 0.4400196 -0.5936000 -1.2623470
v 0.4400196 -0.5936000 -1.2623470
v 0.5749257 -0.5936000 -1.1075804
v 0.6369477 -0.5481700 -1.1272750
v 0.4874866 -0.5481700 -1.2987382
v 0.4874866 -0.5481700 -1.2987382
v 0.6369477 -0.5481700 -1.1272750
v 0.6783862 -0.4801900 -1.1404324
v 0.5192036 -0.4801900 -1.3230545
v 0.5192036 -0.4801900 -1.3230545
v 0.6783862 -0.4801900 -1.1404324
v 0.6929413 -0.4000000 -1.1450542
v 0.5303372 -0.4000000 -1.3315902
v 0.5017701 -0.6095500 -1.0843467
v 0.5431000 -0.6095500 -0.9250000
v 0.6222840 -0.5936000 -0.9250000
v 0.5749257 -0.5936000 -1.1075804
v 0.5749257 -0.5936000 -1.1075804
v 0.6222840 -0.5936000 -0.9250000
v 0.6894111 -0.5481700 -0.9250000
v 0.6369477 -0.5481700 -1.1272750
v 0.6369477 -0.5481700 -1.1272750
v 0.6894111 -0.5481700 -0.9250000
v 0.7342712 -0.4801900 -0.9250000
v 0.6783862 -0.4801900 -1.1404324
v 0.6783862 -0.4801900 -1.1404324
v 0.7342712 -0.4801900 -0.9250000
v 0.7500211 -0.4000000 -0.9250000
v 0.6929413 -0.4000000 -1.1450542
v 0.0000000 -0.6750000 -0.9250000
v 0.5500000 -0.6750000 -0.9250000
v 0.5081450 -0.6750000 -0.7591637
v 0.0000000 -0.6750000 -0.9250000
v 0.5081450 -0.6750000 -0.7591637
v 0.3889050 -0.6750000 -0.6185906
v 0.0000000 -0.6750000 -0.9250000
v 0.3889050 -0.6750000 -0.6185906
v 0.2104850 -0.6750000 -0.5246441
v 0.0000000 -0.6750000 -0.9250000
v 0.2104850 -0.6750000 -0.5246441
v 0.0000000 -0.6750000 -0.4916675
v 0.0000000 -0.6750000 -0.9250000
v 0.0000000 -0.6750000 -0.4916675
v -0.2104850 -0.6750000 -0.5246441
v 0.0000000 -0.6750000 -0.9250000
v -0.2104850 -0.6750000 -0.5246441
v -0.3889050 -0.6750000 -0.6185906
v 0.0000000 -0.6750000 -0.9250000
v -0.3889050 -0.6750000 -0.6185906
v -0.5081450 -0.6750000 -0.7591637
v 0.0000000 -0.6750000 -0.9250000
v -0.5081450 -0.6750000 -0.7591637
v -0.5500000 -0.6750000 -0.9250000
v 0.0000000 -0.6750000 -0.9250000
v -0.5500000 -0.6750000 -0.9250000
v -0.5081450 -0.6750000 -1.0908363
v 0.0000000 -0.6750000 -0.9250000
v -0.5081450 -0.6750000 -1.0908363
v -0.3889050 -0.6750000 -1.2314094
v 0.0000000 -0.6750000 -0.9250000
v -0.3889050 -0.6750000 -1.2314094
v -0.2104850 -0.6750000 -1.3253559
v 0.0000000 -0.6750000 -0.9250000
v -0.2104850 -0.6750000 -1.3253559
v 0.0000000 -0.6750000 -1.3583325
v 0.0000000 -0.6750000 -0.9250000
v 0.0000000 -0.6750000 -1.3583325
v 0.2104850 -0.6750000 -1.3253559
v 0.0000000 -0.6750000 -0.9250000
v 0.2104850 -0.6750000 -1.3253559
v 0.3889050 -0.6750000 -1.2314094
v 0.0000000 -0.6750000 -0.9250000
v 0.3889050 -0.6750000 -1.2314094
v 0.5081450 -0.6750000 -1.0908363
v 0.0000000 -0.6750000 -0.9250000
v 0.5081450 -0.6750000 -1.0908363
v 0.5500000 -0.6750000 -0.9250000
v 0.6552700 -0.6541000 -0.9250000
v 0.6053850 -0.6541000 -0.7274437
v 0.5081450 -0.6750000 -0.7591637
v 0.5500000 -0.6750000 -0.9250000
v 0.7444800 -0.5944800 -0.9250000
v 0.6877750 -0.5944800 -0.7005338
v 0.6053850 -0.6541000 -0.7274437
v 0.6552700 -0.6541000 -0.9250000
v 0.8041000 -0.5052700 -0.9250000
v 0.7428850 -0.5052700 -0.6825505
v 0.6877750 -0.5944800 -0.7005338
v 0.7444800 -0.5944800 -0.9250000
v 0.8250000 -0.4000000 -0.9250000
v 0.7622450 -0.4000000 -0.6762238
v 0.7428850 -0.5052700 -0.6825505
v 0.8041000 -0.5052700 -0.9250000
v 0.6053850 -0.6541000 -0.7274437
v 0.4633200 -0.6541000 -0.5599607
v 0.3889050 -0.6750000 -0.6185906
v 0.5081450 -0.6750000 -0.7591637
v 0.6877750 -0.5944800 -0.7005338
v 0.5264050 -0.5944800 -0.5102575
v 0.4633200 -0.6541000 -0.5599607
v 0.6053850 -0.6541000 -0.7274437
v 0.7428850 -0.5052700 -0.6825505
v 0.5685350 -0.5052700 -0.4770642
v 0.5264050 -0.5944800 -0.5102575
v 0.6877750 -0.5944800 -0.7005338
v 0.7622450 -0.4000000 -0.6762238
v 0.5833850 -0.4000000 -0.4653642
v 0.5685350 -0.5052700 -0.4770642
v 0.7428850 -0.5052700 -0.6825505
v 0.4633200 -0.6541000 -0.5599607
v 0.2507450 -0.6541000 -0.4480309
v 0.2104850 -0.6750000 -0.5246441
v 0.3889050 -0.6750000 -0.6185906
v 0.5264050 -0.5944800 -0.5102575
v 0.2849000 -0.5944800 -0.3831177
v 0.2507450 -0.6541000 -0.4480309
v 0.4633200 -0.6541000 -0.5599607
v 0.5685350 -0.5052700 -0.4770642
v 0.3077250 -0.5052700 -0.3396978
v 0.2849000 -0.5944800 -0.3831177
v 0.5264050 -0.5944800 -0.5102575
v 0.5833850 -0.4000000 -0.4653642
v 0.3157550 -0.4000000 -0.3244445
v 0.3077250 -0.5052700 -0.3396978
v 0.5685350 -0.5052700 -0.4770642
v 0.2507450 -0.6541000 -0.4480309
v 0.0000000 -0.6541000 -0.4087277
v 0.0000000 -0.6750000 -0.4916675
v 0.2104850 -0.6750000 -0.5246441
v 0.2849000 -0.5944800 -0.3831177
v 0.0000000 -0.5944800 -0.3384411
v 0.0000000 -0.6541000 -0.4087277
v 0.2507450 -0.6541000 -0.4480309
v 0.3077250 -0.5052700 -0.3396978
v 0.0000000 -0.5052700 -0.2914679
v 0.0000000 -0.5944800 -0.3384411
v 0.2849000 -0.5944800 -0.3831177
v 0.3157550 -0.4000000 -0.3244445
v 0.0000000 -0.4000000 -0.2750012
v 0.0000000 -0.5052700 -0.2914679
v 0.3077250 -0.5052700 -0.3396978
v -0.5500000 -0.6750000 -0.9250000
v -0.5081450 -0.6750000 -0.7591637
v -0.6053850 -0.6541000 -0.7274437
v -0.6552700 -0.6541000 -0.9250000
v -0.6552700 -0.6541000 -0.9250000
v -0.6053850 -0.6541000 -0.7274437
v -0.6877750 -0.5944800 -0.7005338
v -0.7444800 -0.5944800 -0.9250000
v -0.7444800 -0.5944800 -0.9250000
v -0.6877750 -0.5944800 -0.7005338
v -0.7428850 -0.5052700 -0.6825505
v -0.8041000 -0.5052700 -0.9250000
v -0.8041000 -0.5052700 -0.9250000
v -0.7428850 -0.5052700 -0.6825505
v -0.7622450 -0.4000000 -0.6762238
v -0.8250000 -0.4000000 -0.9250000
v -0.5081450 -0.6750000 -0.7591637
v -0.3889050 -0.6750000 -0.6185906
v -0.4633200 -0.6541000 -0.5599607
v -0.6053850 -0.6541000 -0.7274437
v -0.6053850 -0.6541000 -0.7274437
v -0.4633200 -0.6541000 -0.5599607
v -0.5264050 -0.5944800 -0.5102575
v -0.6877750 -0.5944800 -0.7005338
v -0.6877750 -0.5944800 -0.7005338
v -0.5264050 -0.5944800 -0.5102575
v -0.5685350 -0.5052700 -0.4770642
v -0.7428850 -0.5052700 -0.6825505
v -0.7428850 -0.5052700 -0.6825505
v -0.5685350 -0.5052700 -0.4770642
v -0.5833850 -0.4000000 -0.4653642
v -0.7622450 -0.4000000 -0.6762238
v -0.3889050 -0.6750000 -0.6185906
v -0.2104850 -0.6750000 -0.5246441
v -0.2507450 -0.6541000 -0.4480309
v -0.4633200 -0.6541000 -0.5599607
v -0.4633200 -0.6541000 -0.5599607
v -0.2507450 -0.6541000 -0.4480309
v -0.2849000 -0.5944800 -0.3831177
v -0.5264050 -0.5944800 -0.5102575
v -0.5264050 -0.5944800 -0.5102575
v -0.2849000 -0.5944800 -0.3831177
v -0.3077250 -0.5052700 -0.3396978
v -0.5685350 -0.5052700 -0.4770642
v -0.5685350 -0.5052700 -0.4770642
v -0.3077250 -0.5052700 -0.3396978
v -0.3157550 -0.4000000 -0.3244445
v -0.5833850 -0.4000000 -0.4653642
v -0.2104850 -0.6750000 -0.5246441
v 0.0000000 -0.6750000 -0.4916675
v 0.0000000 -0.6541000 -0.4087277
v -0.2507450 -0.6541000 -0.4480309
v -0.2507450 -0.6541000 -0.4480309
v 0.0000000 -0.6541000 -0.4087277
v 0.0000000 -0.5944800 -0.3384411
v -0.2849000 -0.5944800 -0.3831177
v -0.2849000 -0.5944800 -0.3831177
v 0.0000000 -0.5944800 -0.3384411
v 0.0000000 -0.5052700 -0.2914679
v -0.3077250 -0.5052700 -0.3396978
v -0.3077250 -0.5052700 -0.3396978
v 0.0000000 -0.5052700 -0.2914679
v 0.0000000 -0.4000000 -0.2750012
v -0.3157550 -0.4000000 -0.3244445
v 0.5500000 -0.6750000 -0.9250000
v 0.5081450 -0.6750000 -1.0908363
v 0.6053850 -0.6541000 -1.1225563
v 0.6552700 -0.6541000 -0.9250000
v 0.6552700 -0.6541000 -0.9250000
v 0.6053850 -0.6541000 -1.1225563
v 0.6877750 -0.5944800 -1.1494662
v 0.7444800 -0.5944800 -0.9250000
v 0.7444800 -0.5944800 -0.9250000
v 0.6877750 -0.5944800 -1.1494662
v 0.7428850 -0.5052700 -1.1674495
v 0.8041000 -0.5052700 -0.9250000
v 0.8041000 -0.5052700 -0.9250000
v 0.7428850 -0.5052700 -1.1674495
v 0.7622450 -0.4000000 -1.1737762
v 0.8250000 -0.4000000 -0.9250000
v 0.5081450 -0.6750000 -1.0908363
v 0.3889050 -0.6750000 -1.2314094
v 0.4633200 -0.6541000 -1.2900393
v 0.6053850 -0.6541000 -1.1225563
v 0.6053850 -0.6541000 -1.1225563
v 0.4633200 -0.6541000 -1.2900393
v 0.5264050 -0.5944800 -1.3397425
v 0.6877750 -0.5944800 -1.1494662
v 0.6877750 -0.5944800 -1.1494662
v 0.5264050 -0.5944800 -1.3397425
v 0.5685350 -0.5052700 -1.3729358
v 0.7428850 -0.5052700 -1.1674495
v 0.7428850 -0.5052700 -1.1674495
v 0.5685350 -0.5052700 -1.3729358
v 0.5833850 -0.4000000 -1.3846358
v 0.7622450 -0.4000000 -1.1737762
v 0.3889050 -0.6750000 -1.2314094
v 0.2104850 -0.6750000 -1.3253559
v 0.2507450 -0.6541000 -1.4019691
v 0.4633200 -0.6541000 -1.2900393
v 0.4633200 -0.6541000 -1.2900393
v 0.2507450 -0.6541000 -1.4019691
v 0.2849000 -0.5944800 -1.4668823
v 0.5264050 -0.5944800 -1.3397425
v 0.5264050 -0.5944800 -1.3397425
v 0.2849000 -0.5944800 -1.4668823
v 0.3077250 -0.5052700 -1.5103022
v 0.5685350 -0.5052700 -1.3729358
v 0.5685350 -0.5052700 -1.3729358
v 0.3077250 -0.5052700 -1.5103022
v 0.3157550 -0.4000000 -1.5255555
v 0.5833850 -0.4000000 -1.3846358
v 0.2104850 -0.6750000 -1.3253559
v 0.0000000 -0.6750000 -1.3583325
v 0.0000000 -0.6541000 -1.4412723
v 0.2507450 -0.6541000 -1.4019691
v 0.2507450 -0.6541000 -1.4019691
v 0.0000000 -0.6541000 -1.4412723
v 0.0000000 -0.5944800 -1.5115589
v 0.2849000 -0.5944800 -1.4668823
v 0.2849000 -0.5944800 -1.4668823
v 0.0000000 -0.5944800 -1.5115589
v 0.0000000 -0.5052700 -1.5585321
v 0.3077250 -0.5052700 -1.5103022
v 0.3077250 -0.5052700 -1.5103022
v 0.0000000 -0.5052700 -1.5585321
v 0.0000000 -0.4000000 -1.5749988
v 0.3157550 -0.4000000 -1.5255555
v -0.6552700 -0.6541000 -0.9250000
v -0.6053850 -0.6541000 -1.1225563
v -0.5081450 -0.6750000 -1.0908363
v -0.5500000 -0.6750000 -0.9250000
v -0.7444800 -0.5944800 -0.9250000
v -0.6877750 -0.5944800 -1.1494662
v -0.6053850 -0.6541000 -1.1225563
v -0.6552700 -0.6541000 -0.9250000
v -0.8041000 -0.5052700 -0.9250000
v -0.7428850 -0.5052700 -1.1674495
v -0.6877750 -0.5944800 -1.1494662
v -0.7444800 -0.5944800 -0.9250000
v -0.8250000 -0.4000000 -0.9250000
v -0.7622450 -0.4000000 -1.1737762
v -0.7428850 -0.5052700 -1.1674495
v -0.8041000 -0.5052700 -0.9250000
v -0.6053850 -0.6541000 -1.1225563
v -0.4633200 -0.6541000 -1.2900393
v -0.3889050 -0.6750000 -1.2314094
v -0.5081450 -0.6750000 -1.0908363
v -0.6877750 -0.5944800 -1.1494662
v -0.5264050 -0.5944800 -1.3397425
v -0.4633200 -0.6541000 -1.2900393
v -0.6053850 -0.6541000 -1.1225563
v -0.7428850 -0.5052700 -1.1674495
v -0.5685350 -0.5052700 -1.3729358
v -0.5264050 -0.5944800 -1.3397425
v -0.6877750 -0.5944800 -1.1494662
v -0.7622450 -0.4000000 -1.1737762
v -0.5833850 -0.4000000 -1.3846358
v -0.5685350 -0.5052700 -1.3729358
v -0.7428850 -0.5052700 -1.1674495
v -0.4633200 -0.6541000 -1.2900393
v -0.2507450 -0.6541000 -1.4019691
v -0.2104850 -0.6750000 -1.3253559
v -0.3889050 -0.6750000 -1.2314094
v -0.5264050 -0.5944800 -1.3397425
v -0.2849000 -0.5944800 -1.4668823
v -0.2507450 -0.6541000 -1.4019691
v -0.4633200 -0.6541000 -1.2900393
v -0.5685350 -0.5052700 -1.3729358
v -0.3077250 -0.5052700 -1.5103022
v -0.2849000 -0.5944800 -1.4668823
v -0.5264050 -0.5944800 -1.3397425
v -0.5833850 -0.4000000 -1.3846358
v -0.3157550 -0.4000000 -1.5255555
v -0.3077250 -0.5052700 -1.5103022
v -0.5685350 -0.5052700 -1.3729358
v -0.2507450 -0.6541000 -1.4019691
v 0.0000000 -0.6541000 -1.4412723
v 0.0000000 -0.6750000 -1.3583325
v -0.2104850 -0.6750000 -1.3253559
v -0.2849000 -0.5944800 -1.4668823
v 0.0000000 -0.5944800 -1.5115589
v 0.0000000 -0.6541000 -1.4412723
v -0.2507450 -0.6541000 -1.4019691
v -0.3077250 -0.5052700 -1.5103022
v 0.0000000 -0.5052700 -1.5585321
v 0.0000000 -0.5944800 -1.5115589
v -0.2849000 -0.5944800 -1.4668823
v -0.3157550 -0.4000000 -1.5255555
v 0.0000000 -0.4000000 -1.5749988
v 0.0000000 -0.5052700 -1.5585321
v -0.3077250 -0.5052700 -1.5103022
v 0.7622175 -0.1000000 -0.6762450
v 0.8250000 -0.1000000 -0.9250000
v 0.8250000 -0.1000000 -0.2750000
v 0.5833575 -0.1000000 -0.4653850
v 0.7622175 -0.1000000 -0.6762450
v 0.8250000 -0.1000000 -0.2750000
v 0.3157275 -0.1000000 -0.3244650
v 0.5833575 -0.1000000 -0.4653850
v 0.8250000 -0.1000000 -0.2750000
v 0.0000000 -0.1000000 -0.2750000
v 0.3157275 -0.1000000 -0.3244650
v 0.8250000 -0.1000000 -0.2750000
v -0.3157275 -0.1000000 -0.3244650
v 0.0000000 -0.1000000 -0.2750000
v -0.8250000 -0.1000000 -0.2750000
v -0.5833575 -0.1000000 -0.4653850
v -0.3157275 -0.1000000 -0.3244650
v -0.8250000 -0.1000000 -0.2750000
v -0.7622175 -0.1000000 -0.6762450
v -0.5833575 -0.1000000 -0.4653850
v -0.8250000 -0.1000000 -0.2750000
v -0.8250000 -0.1000000 -0.9250000
v -0.7622175 -0.1000000 -0.6762450
v -0.8250000 -0.1000000 -0.2750000
v -0.7622175 -0.1000000 -1.1737550
v -0.8250000 -0.1000000 -0.9250000
v -0.8250000 -0.1000000 -1.5750000
v -0.5833575 -0.1000000 -1.3846150
v -0.7622175 -0.1000000 -1.1737550
v -0.8250000 -0.1000000 -1.5750000
v -0.3157275 -0.1000000 -1.5255350
v -0.5833575 -0.1000000 -1.3846150
v -0.8250000 -0.1000000 -1.5750000
v 0.0000000 -0.1000000 -1.5750000
v -0.3157275 -0.1000000 -1.5255350
v -0.8250000 -0.1000000 -1.5750000
v 0.3157275 -0.1000000 -1.5255350
v 0.0000000 -0.1000000 -1.5750000
v 0.8250000 -0.1000000 -1.5750000
v 0.5833575 -0.1000000 -1.3846150
v 0.3157275 -0.1000000 -1.5255350
v 0.8250000 -0.1000000 -1.5750000
v 0.7622175 -0.1000000 -1.1737550
v 0.5833575 -0.1000000 -1.3846150
v 0.8250000 -0.1000000 -1.5750000
v 0.8250000 -0.1000000 -0.9250000
v 0.7622175 -0.1000000 -1.1737550
v 0.8250000 -0.1000000 -1.5750000
v -1.0000000 -0.2000000 0.2500000
v -1.0000000 -0.2000000 -1.7500000
v -0.9000000 -0.2000000 -1.6500000
v -0.9000000 -0.2000000 0.1500000
v -0.9000000 -0.1000000 -0.2500000
v -0.9000000 -0.1000000 -1.6500000
v -0.8250000 -0.1000000 -1.5750000
v -0.8250000 -0.1000000 -0.2750000
v 1.0000000 -0.2000000 0.2500000
v -1.0000000 -0.2000000 0.2500000
v -0.9000000 -0.2000000 0.1500000
v 0.9000000 -0.2000000 0.1500000
v 0.9000000 -0.1000000 -0.2500000
v -0.9000000 -0.1000000 -0.2500000
v -0.8250000 -0.1000000 -0.2750000
v 0.8250000 -0.1000000 -0.2750000
v 0.9250000 -0.2000000 -0.1500000
v -0.9000000 -0.2000000 -0.1500000
v -0.9000000 -0.2000000 -0.2500000
v 0.9250000 -0.2000000 -0.2500000
v 0.2784650 -0.2000000 -0.2500000
v 0.0000000 -0.2000000 -0.2500000
v 0.0000000 -0.2000000 -0.2750000
v 0.2784650 -0.2000000 -0.3250000
v -0.2784650 -0.2000000 -0.3250000
v 0.0000000 -0.2000000 -0.2750000
v 0.0000000 -0.2000000 -0.2500000
v -0.2784650 -0.2000000 -0.2500000
v 1.0000000 -0.2000000 -1.7500000
v 1.0000000 -0.2000000 0.2500000
v 0.9000000 -0.2000000 0.1500000
v 0.9000000 -0.2000000 -1.6500000
v 0.9000000 -0.1000000 -1.6500000
v 0.9000000 -0.1000000 -0.2500000
v 0.8250000 -0.1000000 -0.2750000
v 0.8250000 -0.1000000 -1.5750000
v -1.0000000 -0.2000000 -1.7500000
v 1.0000000 -0.2000000 -1.7500000
v 0.9000000 -0.2000000 -1.6500000
v -0.9000000 -0.2000000 -1.6500000
v -0.9000000 -0.1000000 -1.6500000
v 0.9000000 -0.1000000 -1.6500000
v 0.8250000 -0.1000000 -1.5750000
v -0.8250000 -0.1000000 -1.5750000
v 0.3014635 -0.2000000 -0.2528447
v 0.3157150 -0.2000000 -0.2500108
v 0.2784758 -0.2000000 -0.2500108
v 0.2893831 -0.2000000 -0.2609181
v 0.3014635 -0.2000000 -0.2528447
v 0.2784758 -0.2000000 -0.2500108
v 0.2813097 -0.2000000 -0.2729985
v 0.2893831 -0.2000000 -0.2609181
v 0.2784758 -0.2000000 -0.2500108
v 0.2784758 -0.2000000 -0.2872500
v 0.2813097 -0.2000000 -0.2729985
v 0.2784758 -0.2000000 -0.2500108
v 0.2813097 -0.2000000 -0.3015015
v 0.2784758 -0.2000000 -0.2872500
v 0.2784758 -0.2000000 -0.3244893
v 0.2893831 -0.2000000 -0.3135819
v 0.2813097 -0.2000000 -0.3015015
v 0.2784758 -0.2000000 -0.3244893
v 0.3014635 -0.2000000 -0.3216553
v 0.2893831 -0.2000000 -0.3135819
v 0.2784758 -0.2000000 -0.3244893
v 0.3157150 -0.2000000 -0.3244893
v 0.3014635 -0.2000000 -0.3216553
v 0.2784758 -0.2000000 -0.3244893
v 0.3014635 -0.1000000 -0.2528447
v 0.3157150 -0.1000000 -0.2500108
v 0.3157150 -0.2000000 -0.2500108
v 0.3014635 -0.2000000 -0.2528447
v 0.2893831 -0.1000000 -0.2609181
v 0.3014635 -0.1000000 -0.2528447
v 0.3014635 -0.2000000 -0.2528447
v 0.2893831 -0.2000000 -0.2609181
v 0.2813097 -0.1000000 -0.2729985
v 0.2893831 -0.1000000 -0.2609181
v 0.2893831 -0.2000000 -0.2609181
v 0.2813097 -0.2000000 -0.2729985
v 0.2784758 -0.1000000 -0.2872500
v 0.2813097 -0.1000000 -0.2729985
v 0.2813097 -0.2000000 -0.2729985
v 0.2784758 -0.2000000 -0.2872500
v 0.2813097 -0.1000000 -0.3015015
v 0.2784758 -0.1000000 -0.2872500
v 0.2784758 -0.2000000 -0.2872500
v 0.2813097 -0.2000000 -0.3015015
v 0.2893831 -0.1000000 -0.3135819
v 0.2813097 -0.1000000 -0.3015015
v 0.2813097 -0.2000000 -0.3015015
v 0.2893831 -0.2000000 -0.3135819
v 0.3014635 -0.1000000 -0.3216553
v 0.2893831 -0.1000000 -0.3135819
v 0.2893831 -0.2000000 -0.3135819
v 0.3014635 -0.2000000 -0.3216553
v -0.2784857 -0.2000000 -0.2500108
v -0.3157250 -0.2000000 -0.2500108
v -0.3014735 -0.2000000 -0.2528447
v -0.2784857 -0.2000000 -0.2500108
v -0.3014735 -0.2000000 -0.2528447
v -0.2893931 -0.2000000 -0.2609181
v -0.2784857 -0.2000000 -0.2500108
v -0.2893931 -0.2000000 -0.2609181
v -0.2813197 -0.2000000 -0.2729985
v -0.2784857 -0.2000000 -0.2500108
v -0.2813197 -0.2000000 -0.2729985
v -0.2784857 -0.2000000 -0.2872500
v -0.2784857 -0.2000000 -0.3244893
v -0.2784857 -0.2000000 -0.2872500
v -0.2813197 -0.2000000 -0.3015015
v -0.2784857 -0.2000000 -0.3244893
v -0.2813197 -0.2000000 -0.3015015
v -0.2893931 -0.2000000 -0.3135819
v -0.2784857 -0.2000000 -0.3244893
v -0.2893931 -0.2000000 -0.3135819
v -0.3014735 -0.2000000 -0.3216553
v -0.2784857 -0.2000000 -0.3244893
v -0.3014735 -0.2000000 -0.3216553
v -0.3157250 -0.2000000 -0.3244893
v -0.3014735 -0.2000000 -0.2528447
v -0.3157250 -0.2000000 -0.2500108
v -0.3157250 -0.1000000 -0.2500108
v -0.3014735 -0.1000000 -0.2528447
v -0.2893931 -0.2000000 -0.2609181
v -0.3014735 -0.2000000 -0.2528447
v -0.3014735 -0.1000000 -0.2528447
v -0.2893931 -0.1000000 -0.2609181
v -0.2813197 -0.2000000 -0.2729985
v -0.2893931 -0.2000000 -0.2609181
v -0.2893931 -0.1000000 -0.2609181
v -0.2813197 -0.1000000 -0.2729985
v -0.2784857 -0.2000000 -0.2872500
v -0.2813197 -0.2000000 -0.2729985
v -0.2813197 -0.1000000 -0.2729985
v -0.2784857 -0.1000000 -0.2872500
v -0.2813197 -0.2000000 -0.3015015
v -0.2784857 -0.2000000 -0.2872500
v -0.2784857 -0.1000000 -0.2872500
v -0.2813197 -0.1000000 -0.3015015
v -0.2893931 -0.2000000 -0.3135819
v -0.2813197 -0.2000000 -0.3015015
v -0.2813197 -0.1000000 -0.3015015
v -0.2893931 -0.1000000 -0.3135819
v -0.3014735 -0.2000000 -0.3216553
v -0.2893931 -0.2000000 -0.3135819
v -0.2893931 -0.1000000 -0.3135819
v -0.3014735 -0.1000000 -0.3216553
s off
f 1 2 3
f 1 3 4
f 5 6 7
f 5 7 8
f 9 10 11
f 9 11 12
f 13 14 15
f 13 15 16
f 17 18 19
f 17 19 20
f 21 22 23
f 21 23 24
f 25 26 27
f 25 27 28
f 29 30 31
f 29 31 32
f 33 34 35
f 33 35 36
f 37 38 39
f 37 39 40
f 41 42 43
f 41 43 44
f 45 46 47
f 45 47 48
f 49 50 51
f 49 51 52
f 53 54 55
f 53 55 56
f 57 58 59
f 57 59 60
f 61 62 63
f 61 63 64
f 65 66 67
f 65 67 68
f 69 70 71
f 69 71 72
f 73 74 75
f 73 75 76
f 77 78 79
f 77 79 80
f 81 82 83
f 81 83 84
f 85 86 87
f 85 87 88
f 89 90 91
f 89 91 92
f 93 94 95
f 93 95 96
f 97 98 99
f 97 99 100
f 101 102 103
f 101 103 104
f 105 106 107
f 105 107 108
f 109 110 111
f 109 111 112
f 113 114 115
f 113 115 116
f 117 118 119
f 117 119 120
f 121 122 123
f 124 125 126
f 127 128 129
f 130 131 132
f 133 134 135
f 136 137 138
f 139 140 141
f 142 143 144
f 145 146 147
f 148 149 150
f 151 152 153
f 154 155 156
f 157 158 159
f 160 161 162
f 163 164 165
f 166 167 168
f 169 170 171
f 169 171 172
f 173 174 175
f 173 175 176
f 177 178 179
f 177 179 180
f 181 182 183
f 181 183 184
f 185 186 187
f 185 187 188
f 189 190 191
f 189 191 192
f 193 194 195
f 193 195 196
f 197 198 199
f 197 199 200
f 201 202 203
f 201 203 204
f 205 206 207
f 205 207 208
f 209 210 211
f 209 211 212
f 213 214 215
f 213 215 216
f 217 218 219
f 217 219 220
f 221 222 223
f 221 223 224
f 225 226 227
f 225 227 228
f 229 230 231
f 229 231 232
f 233 234 235
f 236 237 238
f 239 240 241
f 242 243 244
f 245 246 247
f 248 249 250
f 251 252 253
f 254 255 256
f 257 258 259
f 260 261 262
f 263 264 265
f 266 267 268
f 269 270 271
f 272 273 274
f 275 276 277
f 278 279 280
f 281 282 283
f 281 283 284
f 285 286 287
f 285 287 288
f 289 290 291
f 289 291 292
f 293 294 295
f 293 295 296
f 297 298 299
f 297 299 300
f 301 302 303
f 301 303 304
f 305 306 307
f 305 307 308
f 309 310 311
f 309 311 312
f 313 314 315
f 313 315 316
f 317 318 319
f 317 319 320
f 321 322 323
f 321 323 324
f 325 326 327
f 325 327 328
f 329 330 331
f 329 331 332
f 333 334 335
f 333 335 336
f 337 338 339
f 337 339 340
f 341 342 343
f 341 343 344
f 345 346 347
f 348 349 350
f 351 352 353
f 354 355 356
f 357 358 359
f 360 361 362
f 363 364 365
f 366 367 368
f 369 370 371
f 372 373 374
f 375 376 377
f 378 379 380
f 381 382 383
f 384 385 386
f 387 388 389
f 390 391 392
f 393 394 395
f 393 395 396
f 397 398 399
f 397 399 400
f 401 402 403
f 401 403 404
f 405 406 407
f 405 407 408
f 409 410 411
f 409 411 412
f 413 414 415
f 413 415 416
f 417 418 419
f 417 419 420
f 421 422 423
f 421 423 424
f 425 426 427
f 425 427 428
f 429 430 431
f 429 431 432
f 433 434 435
f 433 435 436
f 437 438 439
f 437 439 440
f 441 442 443
f 441 443 444
f 445 446 447
f 445 447 448
f 449 450 451
f 449 451 452
f 453 454 455
f 453 455 456
f 457 458 459
f 460 461 462
f 463 464 465
f 466 467 468
f 469 470 471
f 472 473 474
f 475 476 477
f 478 479 480
f 481 482 483
f 484 485 486
f 487 488 489
f 490 491 492
f 493 494 495
f 496 497 498
f 499 500 501
f 502 503 504
f 505 506 507
f 508 509 510
f 511 512 513
f 514 515 516
f 517 518 519
f 520 521 522
f 523 524 525
f 526 527 528
f 529 530 531
f 532 533 534
f 535 536 537
f 538 539 540
f 541 542 543
f 544 545 546
f 547 548 549
f 550 551 552
f 553 554 555
f 553 555 556
f 557 558 559
f 557 559 560
f 561 562 563
f 561 563 564
f 565 566 567
f 565 567 568
f 569 570 571
f 569 571 572
f 573 574 575
f 573 575 576
f 577 578 579
f 577 579 580
f 581 582 583
f 581 583 584
f 585 586 587
f 585 587 588
f 589 590 591
f 589 591 592
f 593 594 595
f 593 595 596
f 597 598 599
f 597 599 600
f 601 602 603
f 601 603 604
f 605 606 607
f 605 607 608
f 609 610 611
f 609 611 612
f 613 614 615
f 613 615 616
f 617 618 619
f 620 621 622
f 623 624 625
f 626 627 628
f 629 630 631
f 632 633 634
f 635 636 637
f 638 639 640
f 641 642 643
f 644 645 646
f 647 648 649
f 650 651 652
f 653 654 655
f 656 657 658
f 659 660 661
f 662 663 664
f 665 666 667
f 665 667 668
f 669 670 671
f 669 671 672
f 673 674 675
f 673 675 676
f 677 678 679
f 677 679 680
f 681 682 683
f 681 683 684
f 685 686 687
f 685 687 688
f 689 690 691
f 689 691 692
f 693 694 695
f 693 695 696
f 697 698 699
f 697 699 700
f 701 702 703
f 701 703 704
f 705 706 707
f 705 707 708
f 709 710 711
f 709 711 712
f 713 714 715
f 713 715 716
f 717 718 719
f 717 719 720
f 721 722 723
f 721 723 724
f 725 726 727
f 725 727 728
f 729 730 731
f 732 733 734
f 735 736 737
f 738 739 740
f 741 742 743
f 744 745 746
f 747 748 749
f 750 751 752
f 753 754 755
f 756 757 758
f 759 760 761
f 762 763 764
f 765 766 767
f 768 769 770
f 771 772 773
f 774 775 776
f 777 778 779
f 777 779 780
f 781 782 783
f 781 783 784
f 785 786 787
f 785 787 788
f 789 790 791
f 789 791 792
f 793 794 795
f 793 795 796
f 797 798 799
f 797 799 800
f 801 802 803
f 801 803 804
f 805 806 807
f 805 807 808
f 809 810 811
f 809 811 812
f 813 814 815
f 813 815 816
f 817 818 819
f 817 819 820
f 821 822 823
f 821 823 824
f 825 826 827
f 825 827 828
f 829 830 831
f 829 831 832
f 833 834 835
f 833 835 836
f 837 838 839
f 837 839 840
f 841 842 843
f 841 843 844
f 845 846 847
f 845 847 848
f 849 850 851
f 849 851 852
f 853 854 855
f 853 855 856
f 857 858 859
f 857 859 860
f 861 862 863
f 861 863 864
f 865 866 867
f 865 867 868
f 869 870 871
f 869 871 872
f 873 874 875
f 873 875 876
f 877 878 879
f 877 879 880
f 881 882 883
f 881 883 884
f 885 886 887
f 885 887 888
f 889 890 891
f 889 891 892
f 893 894 895
f 893 895 896
f 897 898 899
f 897 899 900
f 901 902 903
f 901 903 904
f 905 906 907
f 905 907 908
f 909 910 911
f 909 911 912
f 913 914 915
f 913 915 916
f 917 918 919
f 917 919 920
f 921 922 923
f 921 923 924
f 925 926 927
f 925 927 928
f 929 930 931
f 929 931 932
f 933 934 935
f 933 935 936
f 937 938 939
f 937 939 940
f 941 942 943
f 941 943 944
f 945 946 947
f 945 947 948
f 949 950 951
f 949 951 952
f 953 954 955
f 953 955 956
f 957 958 959
f 957 959 960
f 961 962 963
f 961 963 964
f 965 966 967
f 965 967 968
f 969 970 971
f 972 973 974
f 975 976 977
f 978 979 980
f 981 982 983
f 984 985 986
f 987 988 989
f 990 991 992
f 993 994 995
f 996 997 998
f 999 1000 1001
f 1002 1003 1004
f 1005 1006 1007
f 1008 1009 1010
f 1011 1012 1013
f 1014 1015 1016
f 1017 1018 1019
f 1017 1019 1020
f 1021 1022 1023
f 1021 1023 1024
f 1025 1026 1027
f 1025 1027 1028
f 1029 1030 1031
f 1029 1031 1032
f 1033 1034 1035
f 1036 1037 1038
f 1039 1040 1041
f 1042 1043 1044
f 1045 1046 1047
f 1048 1049 1050
f 1051 1052 1053
f 1054 1055 1056
f 1057 1058 1059
f 1060 1061 1062
f 1063 1064 1065
f 1066 1067 1068
f 1069 1070 1071
f 1072 1073 1074
f 1075 1076 1077
f 1078 1079 1080
f 1081 1082 1083
f 1081 1083 1084
f 1085 1086 1087
f 1085 1087 1088
f 1089 1090 1091
f 1089 1091 1092
f 1093 1094 1095
f 1093 1095 1096
f 1097 1098 1099
f 1097 1099 1100
f 1101 1102 1103
f 1101 1103 1104
f 1105 1106 1107
f 1105 1107 1108
f 1109 1110 1111
f 1109 1111 1112
f 1113 1114 1115
f 1113 1115 1116
f 1117 1118 1119
f 1117 1119 1120
f 1121 1122 1123
f 1121 1123 1124
f 1125 1126 1127
f 1125 1127 1128
f 1129 1130 1131
f 1129 1131 1132
f 1133 1134 1135
f 1133 1135 1136
f 1137 1138 1139
f 1137 1139 1140
f 1141 1142 1143
f 1141 1143 1144
f 1145 1146 1147
f 1145 1147 1148
f 1149 1150 1151
f 1149 1151 1152
f 1153 1154 1155
f 1153 1155 1156
f 1157 1158 1159
f 1157 1159 1160
f 1161 1162 1163
f 1161 1163 1164
f 1165 1166 1167
f 1165 1167 1168
f 1169 1170 1171
f 1169 1171 1172
f 1173 1174 1175
f 1173 1175 1176
f 1177 1178 1179
f 1177 1179 1180
f 1181 1182 1183
f 1181 1183 1184
f 1185 1186 1187
f 1185 1187 1188
f 1189 1190 1191
f 1189 1191 1192
f 1193 1194 1195
f 1193 1195 1196
f 1197 1198 1199
f 1197 1199 1200
f 1201 1202 1203
f 1201 1203 1204
f 1205 1206 1207
f 1205 1207 1208
f 1209 1210 1211
f 1209 1211 1212
f 1213 1214 1215
f 1213 1215 1216
f 1217 1218 1219
f 1217 1219 1220
f 1221 1222 1223
f 1221 1223 1224
f 1225 1226 1227
f 1225 1227 1228
f 1229 1230 1231
f 1229 1231 1232
f 1233 1234 1235
f 1233 1235 1236
f 1237 1238 1239
f 1237 1239 1240
f 1241 1242 1243
f 1241 1243 1244
f 1245 1246 1247
f 1245 1247 1248
f 1249 1250 1251
f 1249 1251 1252
f 1253 1254 1255
f 1253 1255 1256
f 1257 1258 1259
f 1257 1259 1260
f 1261 1262 1263
f 1261 1263 1264
f 1265 1266 1267
f 1265 1267 1268
f 1269 1270 1271
f 1269 1271 1272
f 1273 1274 1275
f 1273 1275 1276
f 1277 1278 1279
f 1277 1279 1280
f 1281 1282 1283
f 1281 1283 1284
f 1285 1286 1287
f 1285 1287 1288
f 1289 1290 1291
f 1289 1291 1292
f 1293 1294 1295
f 1293 1295 1296
f 1297 1298 1299
f 1297 1299 1300
f 1301 1302 1303
f 1301 1303 1304
f 1305 1306 1307
f 1305 1307 1308
f 1309 1310 1311
f 1309 1311 1312
f 1313 1314 1315
f 1313 1315 1316
f 1317 1318 1319
f 1317 1319 1320
f 1321 1322 1323
f 1321 1323 1324
f 1325 1326 1327
f 1325 1327 1328
f 1329 1330 1331
f 1329 1331 1332
f 1333 1334 1335
f 1333 1335 1336
f 1337 1338 1339
f 1340 1341 1342
f 1343 1344 1345
f 1346 1347 1348
f 1349 1350 1351
f 1352 1353 1354
f 1355 1356 1357
f 1358 1359 1360
f 1361 1362 1363
f 1364 1365 1366
f 1367 1368 1369
f 1370 1371 1372
f 1373 1374 1375
f 1376 1377 1378
f 1379 1380 1381
f 1382 1383 1384
f 1385 1386 1387
f 1385 1387 1388
f 1389 1390 1391
f 1389 1391 1392
f 1393 1394 1395
f 1393 1395 1396
f 1397 1398 1399
f 1397 1399 1400
f 1401 1402 1403
f 1401 1403 1404
f 1405 1406 1407
f 1405 1407 1408
f 1409 1410 1411
f 1409 1411 1412
f 1413 1414 1415
f 1413 1415 1416
f 1417 1418 1419
f 1417 1419 1420
f 1421 1422 1423
f 1421 1423 1424
f 1425 1426 1427
f 1425 1427 1428
f 1429 1430 1431
f 1429 1431 1432
f 1433 1434 1435
f 1433 1435 1436
f 1437 1438 1439
f 1437 1439 1440
f 1441 1442 1443
f 1441 1443 1444
f 1445 1446 1447
f 1445 1447 1448
f 1449 1450 1451
f 1449 1451 1452
f 1453 1454 1455
f 1453 1455 1456
f 1457 1458 1459
f 1457 1459 1460
f 1461 1462 1463
f 1461 1463 1464
f 1465 1466 1467
f 1465 1467 1468
f 1469 1470 1471
f 1469 1471 1472
f 1473 1474 1475
f 1473 1475 1476
f 1477 1478 1479
f 1477 1479 1480
f 1481 1482 1483
f 1481 1483 1484
f 1485 1486 1487
f 1485 1487 1488
f 1489 1490 1491
f 1489 1491 1492
f 1493 1494 1495
f 1493 1495 1496
f 1497 1498 1499
f 1497 1499 1500
f 1501 1502 1503
f 1501 1503 1504
f 1505 1506 1507
f 1505 1507 1508
f 1509 1510 1511
f 1509 1511 1512
f 1513 1514 1515
f 1513 1515 1516
f 1517 1518 1519
f 1517 1519 1520
f 1521 1522 1523
f 1521 1523 1524
f 1525 1526 1527
f 1525 1527 1528
f 1529 1530 1531
f 1529 1531 1532
f 1533 1534 1535
f 1533 1535 1536
f 1537 1538 1539
f 1537 1539 1540
f 1541 1542 1543
f 1541 1543 1544
f 1545 1546 1547
f 1545 1547 1548
f 1549 1550 1551
f 1549 1551 1552
f 1553 1554 1555
f 1553 1555 1556
f 1557 1558 1559
f 1557 1559 1560
f 1561 1562 1563
f 1561 1563 1564
f 1565 1566 1567
f 1565 1567 1568
f 1569 1570 1571
f 1569 1571 1572
f 1573 1574 1575
f 1573 1575 1576
f 1577 1578 1579
f 1577 1579 1580
f 1581 1582 1583
f 1581 1583 1584
f 1585 1586 1587
f 1585 1587 1588
f 1589 1590 1591
f 1589 1591 1592
f 1593 1594 1595
f 1593 1595 1596
f 1597 1598 1599
f 1597 1599 1600
f 1601 1602 1603
f 1601 1603 1604
f 1605 1606 1607
f 1605 1607 1608
f 1609 1610 1611
f 1609 1611 1612
f 1613 1614 1615
f 1613 1615 1616
f 1617 1618 1619
f 1617 1619 1620
f 1621 1622 1623
f 1621 1623 1624
f 1625 1626 1627
f 1625 1627 1628
f 1629 1630 1631
f 1629 1631 1632
f 1633 1634 1635
f 1633 1635 1636
f 1637 1638 1639
f 1637 1639 1640
f 1641 1642 1643
f 1644 1645 1646
f 1647 1648 1649
f 1650 1651 1652
f 1653 1654 1655
f 1656 1657 1658
f 1659 1660 1661
f 1662 1663 1664
f 1665 1666 1667
f 1668 1669 1670
f 1671 1672 1673
f 1674 1675 1676
f 1677 1678 1679
f 1680 1681 1682
f 1683 1684 1685
f 1686 1687 1688
f 1689 1690 1691
f 1689 1691 1692
f 1693 1694 1695
f 1693 1695 1696
f 1697 1698 1699
f 1697 1699 1700
f 1701 1702 1703
f 1701 1703 1704
f 1705 1706 1707
f 1705 1707 1708
f 1709 1710 1711
f 1709 1711 1712
f 1713 1714 1715
f 1713 1715 1716
f 1717 1718 1719
f 1717 1719 1720
f 1721 1722 1723
f 1721 1723 1724
f 1725 1726 1727
f 1725 1727 1728
f 1729 1730 1731
f 1729 1731 1732
f 1733 1734 1735
f 1736 1737 1738
f 1739 1740 1741
f 1742 1743 1744
f 1745 1746 1747
f 1748 1749 1750
f 1751 1752 1753
f 1754 1755 1756
f 1757 1758 1759
f 1757 1759 1760
f 1761 1762 1763
f 1761 1763 1764
f 1765 1766 1767
f 1765 1767 1768
f 1769 1770 1771
f 1769 1771 1772
f 1773 1774 1775
f 1773 1775 1776
f 1777 1778 1779
f 1777 1779 1780
f 1781 1782 1783
f 1781 1783 1784
f 1785 1786 1787
f 1788 1789 1790
f 1791 1792 1793
f 1794 1795 1796
f 1797 1798 1799
f 1800 1801 1802
f 1803 1804 1805
f 1806 1807 1808
f 1809 1810 1811
f 1809 1811 1812
f 1813 1814 1815
f 1813 1815 1816
f 1817 1818 1819
f 1817 1819 1820
f 1821 1822 1823
f 1821 1823 1824
f 1825 1826 1827
f 1825 1827 1828
f 1829 1830 1831
f 1829 1831 1832
f 1833 1834 1835
f 1833 1835 1836
