# Baked from official LDraw part 62698-f2.dat
o ldraw_62698-f2
v 0.5000000 0.1125000 -0.6345000
v -0.5000000 0.1125000 -0.6345000
v -0.5000000 0.1125000 -0.0720000
v 0.5000000 0.1125000 -0.0720000
v 0.5000000 0.1125000 -0.6345000
v 0.5000000 0.1437500 -0.6345000
v -0.5000000 0.1437500 -0.6345000
v -0.5000000 0.1125000 -0.6345000
v 0.5000000 0.1125000 -0.0720000
v 0.5000000 0.1437500 -0.0720000
v 0.5000000 0.1437500 -0.6345000
v 0.5000000 0.1125000 -0.6345000
v -0.5000000 0.1125000 -0.0720000
v -0.5000000 0.1437500 -0.0720000
v 0.5000000 0.1437500 -0.0720000
v 0.5000000 0.1125000 -0.0720000
v -0.5000000 0.1125000 -0.6345000
v -0.5000000 0.1437500 -0.6345000
v -0.5000000 0.1437500 -0.0720000
v -0.5000000 0.1125000 -0.0720000
v -0.0625000 0.1433000 -0.6979000
v -0.6187500 0.1433000 -0.6979000
v -0.5000000 0.1437500 -0.6345000
v 0.5000000 0.1437500 -0.6345000
v 0.5000000 0.1437500 -0.6345000
v 0.0625000 0.1433000 -0.6979000
v -0.0625000 0.1433000 -0.6979000
v 0.5000000 0.1437500 -0.6345000
v 0.6187500 0.1433000 -0.6979000
v 0.0625000 0.1433000 -0.6979000
v 0.0625000 0.1392500 -0.7479000
v 0.6187500 0.1392500 -0.7479000
v 0.6187500 0.1321500 -0.7700250
v -0.6187500 0.1321500 -0.7700250
v -0.0625000 0.1392500 -0.7479000
v 0.0625000 0.1392500 -0.7479000
v 0.6187500 0.1321500 -0.7700250
v -0.6187500 0.1321500 -0.7700250
v -0.6187500 0.1392500 -0.7479000
v -0.0625000 0.1392500 -0.7479000
v -0.6187500 0.0948750 -0.7843000
v -0.6187500 0.1178500 -0.7832000
v 0.6187500 0.1178500 -0.7832000
v 0.6187500 0.0948750 -0.7843000
v -0.6187500 0.0616250 -0.7682000
v -0.6187500 0.0948750 -0.7843000
v 0.6187500 0.0948750 -0.7843000
v 0.6187500 0.0616250 -0.7682000
v -0.6187500 0.0004500 -0.5733500
v -0.6187500 0.0014500 -0.6068750
v -0.1406250 0.0014500 -0.6068750
v -0.1406250 0.0007250 -0.5853500
v -0.6187500 0.1433000 -0.6979000
v -0.6187500 0.1420000 -0.7222000
v -0.6187500 0.0086750 -0.6741000
v -0.6187500 0.0035000 -0.6357500
v -0.6187500 0.1420000 -0.7222000
v -0.6187500 0.0291000 -0.7318750
v -0.6187500 0.0165250 -0.7046750
v -0.6187500 0.0086750 -0.6741000
v -0.6187500 0.1392500 -0.7479000
v -0.6187500 0.1321500 -0.7700250
v -0.6187500 0.0616250 -0.7682000
v -0.6187500 0.0398250 -0.7491250
v -0.6187500 0.1392500 -0.7479000
v -0.6187500 0.1420000 -0.7222000
v -0.0625000 0.1392500 -0.7479000
v -0.6187500 0.1420000 -0.7222000
v -0.0625000 0.1433000 -0.6979000
v -0.0625000 0.1392500 -0.7479000
v -0.6187500 0.1420000 -0.7222000
v -0.6187500 0.1433000 -0.6979000
v -0.0625000 0.1433000 -0.6979000
v -0.6187500 0.1437500 -0.0250000
v -0.5000000 0.1437500 -0.0720000
v -0.5000000 0.1437500 -0.6345000
v -0.6187500 0.1433000 -0.6979000
v -0.6187500 0.0035000 -0.6357500
v -0.6187500 0.0086750 -0.6741000
v -0.1406250 0.0086750 -0.6741000
v -0.1406250 0.0035000 -0.6357500
v -0.6187500 0.0086750 -0.6741000
v -0.6187500 0.0165250 -0.7046750
v -0.1406250 0.0165250 -0.7046750
v -0.1406250 0.0086750 -0.6741000
v -0.1406250 0.0291000 -0.7318750
v -0.1406250 0.0165250 -0.7046750
v -0.6187500 0.0165250 -0.7046750
v -0.6187500 0.0291000 -0.7318750
v -0.6187500 0.0398250 -0.7491250
v -0.1406250 0.0398250 -0.7491250
v -0.1406250 0.0291000 -0.7318750
v -0.6187500 0.0291000 -0.7318750
v -0.1406250 0.0291000 -0.7318750
v -0.1406250 0.0398250 -0.7491250
v -0.1406250 0.0315500 -0.7309250
v -0.1406250 0.0315500 -0.7309250
v -0.0625000 0.0398250 -0.7491250
v -0.0625000 0.0335250 -0.7284000
v -0.1406250 0.0315500 -0.7309250
v -0.1406250 0.0398250 -0.7491250
v -0.0625000 0.0398250 -0.7491250
v -0.1406250 0.0291000 -0.7318750
v -0.1406250 0.0315500 -0.7309250
v -0.1406250 0.0312500 -0.7079250
v -0.1406250 0.0165250 -0.7046750
v -0.1406250 0.0165250 -0.7046750
v -0.1406250 0.0312500 -0.7079250
v -0.1406250 0.0334500 -0.6876750
v -0.1406250 0.0086750 -0.6741000
v -0.1406250 0.0086750 -0.6741000
v -0.1406250 0.0334500 -0.6876750
v -0.1406250 0.0399750 -0.6684000
v -0.1406250 0.0035000 -0.6357500
v -0.1406250 0.0014500 -0.6068750
v -0.1406250 0.0035000 -0.6357500
v -0.1406250 0.0399750 -0.6684000
v -0.1406250 0.0399750 -0.5853500
v -0.1406250 0.0014500 -0.6068750
v -0.1406250 0.0399750 -0.5853500
v -0.1406250 0.0007250 -0.5853500
v -0.0625000 0.0314750 -0.7029250
v -0.0625000 0.0335250 -0.7284000
v -0.0625000 0.1392500 -0.7479000
v -0.0625000 0.1433000 -0.6979000
v -0.0625000 0.0398250 -0.7491250
v -0.0625000 0.1392500 -0.7479000
v -0.0625000 0.0335250 -0.7284000
v -0.0625000 0.1433000 -0.6979000
v 0.0625000 0.1433000 -0.6979000
v 0.0625000 0.0314750 -0.7029250
v -0.0625000 0.0314750 -0.7029250
v -0.1406250 0.0312500 -0.7079250
v -0.0625000 0.0335250 -0.7284000
v -0.0625000 0.0314750 -0.7029250
v -0.1406250 0.0312500 -0.7079250
v -0.1406250 0.0315500 -0.7309250
v -0.0625000 0.0335250 -0.7284000
v -0.1406250 0.0334500 -0.6876750
v -0.1406250 0.0312500 -0.7079250
v -0.0625000 0.0314750 -0.7029250
v -0.1406250 0.0334500 -0.6876750
v -0.0625000 0.0314750 -0.7029250
v 0.0625000 0.0314750 -0.7029250
v 0.1406250 0.0334500 -0.6876750
v -0.1406250 0.0007250 -0.5853500
v -0.6187500 -0.0000000 0.0000000
v -0.6187500 0.0004500 -0.5733500
v -0.6187500 -0.0000000 0.0000000
v -0.1406250 0.0007250 -0.5853500
v 0.1406250 0.0007250 -0.5853500
v 0.6187500 -0.0000000 0.0000000
v 0.1406250 0.0007250 -0.5853500
v 0.6187500 0.0004500 -0.5733500
v 0.6187500 -0.0000000 0.0000000
v 0.6187500 0.0014500 -0.6068750
v 0.6187500 0.0004500 -0.5733500
v 0.1406250 0.0007250 -0.5853500
v 0.1406250 0.0014500 -0.6068750
v 0.6187500 0.1420000 -0.7222000
v 0.6187500 0.0086750 -0.6741000
v 0.6187500 0.0165250 -0.7046750
v 0.6187500 0.0291000 -0.7318750
v 0.6187500 0.0086750 -0.6741000
v 0.6187500 0.1420000 -0.7222000
v 0.6187500 0.1433000 -0.6979000
v 0.6187500 0.0035000 -0.6357500
v 0.6187500 0.1392500 -0.7479000
v 0.6187500 0.1420000 -0.7222000
v 0.6187500 0.0291000 -0.7318750
v 0.6187500 0.0398250 -0.7491250
v 0.6187500 0.0616250 -0.7682000
v 0.6187500 0.1321500 -0.7700250
v 0.6187500 0.1392500 -0.7479000
v 0.6187500 0.0398250 -0.7491250
v 0.0625000 0.1392500 -0.7479000
v 0.6187500 0.1420000 -0.7222000
v 0.6187500 0.1392500 -0.7479000
v 0.6187500 0.1420000 -0.7222000
v 0.0625000 0.1433000 -0.6979000
v 0.6187500 0.1433000 -0.6979000
v 0.6187500 0.1420000 -0.7222000
v 0.0625000 0.1392500 -0.7479000
v 0.0625000 0.1433000 -0.6979000
v 0.5000000 0.1437500 -0.6345000
v 0.5000000 0.1437500 -0.0720000
v 0.6187500 0.1437500 -0.0250000
v 0.6187500 0.1433000 -0.6979000
v 0.6187500 0.0086750 -0.6741000
v 0.6187500 0.0035000 -0.6357500
v 0.1406250 0.0035000 -0.6357500
v 0.1406250 0.0086750 -0.6741000
v 0.6187500 0.0165250 -0.7046750
v 0.6187500 0.0086750 -0.6741000
v 0.1406250 0.0086750 -0.6741000
v 0.1406250 0.0165250 -0.7046750
v 0.6187500 0.0291000 -0.7318750
v 0.6187500 0.0165250 -0.7046750
v 0.1406250 0.0165250 -0.7046750
v 0.1406250 0.0291000 -0.7318750
v 0.1406250 0.0291000 -0.7318750
v 0.1406250 0.0398250 -0.7491250
v 0.6187500 0.0398250 -0.7491250
v 0.6187500 0.0291000 -0.7318750
v 0.1406250 0.0398250 -0.7491250
v 0.1406250 0.0291000 -0.7318750
v 0.1406250 0.0315500 -0.7309250
v 0.1406250 0.0398250 -0.7491250
v 0.0625000 0.0335250 -0.7284000
v 0.0625000 0.0398250 -0.7491250
v 0.1406250 0.0315500 -0.7309250
v 0.0625000 0.0335250 -0.7284000
v 0.1406250 0.0398250 -0.7491250
v 0.1406250 0.0312500 -0.7079250
v 0.1406250 0.0315500 -0.7309250
v 0.1406250 0.0291000 -0.7318750
v 0.1406250 0.0165250 -0.7046750
v 0.1406250 0.0334500 -0.6876750
v 0.1406250 0.0312500 -0.7079250
v 0.1406250 0.0165250 -0.7046750
v 0.1406250 0.0086750 -0.6741000
v 0.1406250 0.0086750 -0.6741000
v 0.1406250 0.0035000 -0.6357500
v 0.1406250 0.0399750 -0.6684000
v 0.1406250 0.0334500 -0.6876750
v 0.1406250 0.0399750 -0.6684000
v 0.1406250 0.0035000 -0.6357500
v 0.1406250 0.0014500 -0.6068750
v 0.1406250 0.0399750 -0.5853500
v 0.1406250 0.0399750 -0.5853500
v 0.1406250 0.0014500 -0.6068750
v 0.1406250 0.0007250 -0.5853500
v 0.0625000 0.0314750 -0.7029250
v 0.0625000 0.1433000 -0.6979000
v 0.0625000 0.1392500 -0.7479000
v 0.0625000 0.0335250 -0.7284000
v 0.0625000 0.1392500 -0.7479000
v 0.0625000 0.0398250 -0.7491250
v 0.0625000 0.0335250 -0.7284000
v 0.1406250 0.0315500 -0.7309250
v 0.0625000 0.0314750 -0.7029250
v 0.0625000 0.0335250 -0.7284000
v 0.1406250 0.0312500 -0.7079250
v 0.0625000 0.0314750 -0.7029250
v 0.1406250 0.0315500 -0.7309250
v 0.1406250 0.0312500 -0.7079250
v 0.1406250 0.0334500 -0.6876750
v 0.0625000 0.0314750 -0.7029250
v -0.6187500 0.1178500 -0.7832000
v -0.6187500 0.1321500 -0.7700250
v 0.6187500 0.1321500 -0.7700250
v 0.6187500 0.1178500 -0.7832000
v 0.1406250 0.0398250 -0.7491250
v 0.6187500 0.0616250 -0.7682000
v 0.6187500 0.0398250 -0.7491250
v 0.0625000 0.0398250 -0.7491250
v 0.6187500 0.0616250 -0.7682000
v 0.1406250 0.0398250 -0.7491250
v -0.0625000 0.0398250 -0.7491250
v -0.6187500 0.0616250 -0.7682000
v 0.6187500 0.0616250 -0.7682000
v 0.0625000 0.0398250 -0.7491250
v -0.1406250 0.0398250 -0.7491250
v -0.6187500 0.0616250 -0.7682000
v -0.0625000 0.0398250 -0.7491250
v -0.1406250 0.0398250 -0.7491250
v -0.6187500 0.0398250 -0.7491250
v -0.6187500 0.0616250 -0.7682000
v -0.1406250 0.0399750 -0.5853500
v 0.1406250 0.0399750 -0.5853500
v 0.1406250 0.0007250 -0.5853500
v -0.1406250 0.0007250 -0.5853500
v -0.0625000 0.1392500 -0.7479000
v -0.0625000 0.0398250 -0.7491250
v 0.0625000 0.0398250 -0.7491250
v 0.0625000 0.1392500 -0.7479000
v 0.6187500 0.1437500 -0.0250000
v 0.5000000 0.1437500 -0.0720000
v -0.5000000 0.1437500 -0.0720000
v -0.6187500 0.1437500 -0.0250000
v 0.1406250 0.0399750 -0.6684000
v 0.1406250 0.0399750 -0.5853500
v -0.1406250 0.0399750 -0.5853500
v -0.1406250 0.0399750 -0.6684000
v -0.1406250 0.0399750 -0.6684000
v -0.1406250 0.0334500 -0.6876750
v 0.1406250 0.0334500 -0.6876750
v 0.1406250 0.0399750 -0.6684000
v -0.6187500 0.0291000 -0.7318750
v -0.6187500 0.1420000 -0.7222000
v -0.6187500 0.1392500 -0.7479000
v -0.6187500 0.0398250 -0.7491250
v 0.6187500 0.1321500 -0.7700250
v 0.6187500 0.0616250 -0.7682000
v 0.6187500 0.0948750 -0.7843000
v 0.6187500 0.1178500 -0.7832000
v -0.6187500 0.1321500 -0.7700250
v -0.6187500 0.1178500 -0.7832000
v -0.6187500 0.0948750 -0.7843000
v -0.6187500 0.0616250 -0.7682000
v 0.6187500 0.0035000 -0.6357500
v 0.6187500 0.0014500 -0.6068750
v 0.1406250 0.0014500 -0.6068750
v 0.1406250 0.0035000 -0.6357500
v -0.1406250 0.0035000 -0.6357500
v -0.1406250 0.0014500 -0.6068750
v -0.6187500 0.0014500 -0.6068750
v -0.6187500 0.0035000 -0.6357500
v -0.1562500 -0.0070500 -0.6418750
v -0.1562500 0.0035000 -0.6357500
v -0.1562500 0.0025500 -0.6226250
v -0.1562500 0.0035000 -0.6357500
v -0.1562500 -0.0070500 -0.6418750
v -0.1562500 -0.0194500 -0.6634000
v -0.1562500 0.0086750 -0.6741000
v -0.1562500 0.0086750 -0.6741000
v -0.1562500 -0.0194500 -0.6634000
v -0.1562500 -0.0290250 -0.6818250
v -0.1562500 -0.0311250 -0.6978250
v -0.1562500 0.0041000 -0.7340500
v -0.1562500 0.0291000 -0.7318750
v -0.1562500 0.0165250 -0.7046750
v -0.1562500 -0.0223250 -0.7158500
v -0.1562500 0.0259000 -0.7460250
v -0.1562500 0.0398250 -0.7491250
v -0.1562500 0.0291000 -0.7318750
v -0.1562500 0.0041000 -0.7340500
v -0.5625000 0.0291000 -0.7318750
v -0.5625000 0.0398250 -0.7491250
v -0.5625000 0.0259000 -0.7460250
v -0.5625000 0.0040750 -0.7340500
v -0.5625000 0.0040750 -0.7340500
v -0.5625000 -0.0223250 -0.7158500
v -0.5625000 0.0165250 -0.7046750
v -0.5625000 0.0291000 -0.7318750
v -0.5625000 -0.0311250 -0.6978250
v -0.5625000 0.0086750 -0.6741000
v -0.5625000 0.0165250 -0.7046750
v -0.5625000 -0.0223250 -0.7158500
v -0.5625000 0.0086750 -0.6741000
v -0.5625000 -0.0311250 -0.6978250
v -0.5625000 -0.0290250 -0.6818250
v -0.5625000 -0.0194500 -0.6634000
v -0.5625000 -0.0194500 -0.6634000
v -0.5625000 -0.0070500 -0.6418750
v -0.5625000 0.0035000 -0.6357500
v -0.5625000 0.0086750 -0.6741000
v -0.5625000 -0.0070500 -0.6418750
v -0.5625000 0.0025500 -0.6226250
v -0.5625000 0.0035000 -0.6357500
v -0.5625000 0.0025500 -0.6226250
v -0.5625000 -0.0070500 -0.6418750
v -0.1562500 -0.0070500 -0.6418750
v -0.1562500 0.0025500 -0.6226250
v -0.5625000 -0.0070500 -0.6418750
v -0.5625000 -0.0194500 -0.6634000
v -0.1562500 -0.0194500 -0.6634000
v -0.1562500 -0.0070500 -0.6418750
v -0.5625000 -0.0194500 -0.6634000
v -0.5625000 -0.0290250 -0.6818250
v -0.1562500 -0.0290250 -0.6818250
v -0.1562500 -0.0194500 -0.6634000
v -0.1562500 -0.0311250 -0.6978250
v -0.1562500 -0.0290250 -0.6818250
v -0.5625000 -0.0290250 -0.6818250
v -0.5625000 -0.0311250 -0.6978250
v -0.5625000 -0.0311250 -0.6978250
v -0.5625000 -0.0223250 -0.7158500
v -0.1562500 -0.0223250 -0.7158500
v -0.1562500 -0.0311250 -0.6978250
v -0.5625000 -0.0223250 -0.7158500
v -0.5625000 0.0040750 -0.7340500
v -0.1562500 0.0041000 -0.7340500
v -0.1562500 -0.0223250 -0.7158500
v -0.5625000 0.0040750 -0.7340500
v -0.5625000 0.0259000 -0.7460250
v -0.1562500 0.0259000 -0.7460250
v -0.1562500 0.0041000 -0.7340500
v -0.5625000 0.0259000 -0.7460250
v -0.5625000 0.0398250 -0.7491250
v -0.1562500 0.0398250 -0.7491250
v -0.1562500 0.0259000 -0.7460250
v -0.1562500 0.0165250 -0.7046750
v -0.1562500 0.0086750 -0.6741000
v -0.1562500 -0.0311250 -0.6978250
v -0.1562500 -0.0223250 -0.7158500
v 0.1562500 0.0035000 -0.6357500
v 0.1562500 -0.0070500 -0.6418750
v 0.1562500 0.0025500 -0.6226250
v 0.1562500 0.0086750 -0.6741000
v 0.1562500 -0.0311250 -0.6978250
v 0.1562500 -0.0290250 -0.6818250
v 0.1562500 -0.0194500 -0.6634000
v 0.1562500 0.0041000 -0.7340500
v 0.1562500 -0.0223250 -0.7158500
v 0.1562500 0.0165250 -0.7046750
v 0.1562500 0.0291000 -0.7318750
v 0.1562500 0.0259000 -0.7460250
v 0.1562500 0.0041000 -0.7340500
v 0.1562500 0.0291000 -0.7318750
v 0.1562500 0.0398250 -0.7491250
v 0.5625000 0.0165250 -0.7046750
v 0.5625000 -0.0223250 -0.7158500
v 0.5625000 0.0040750 -0.7340500
v 0.5625000 0.0291000 -0.7318750
v 0.5625000 0.0035000 -0.6357500
v 0.5625000 -0.0070500 -0.6418750
v 0.5625000 -0.0194500 -0.6634000
v 0.5625000 0.0086750 -0.6741000
v 0.5625000 0.0025500 -0.6226250
v 0.5625000 -0.0070500 -0.6418750
v 0.5625000 0.0035000 -0.6357500
v 0.5625000 0.0025500 -0.6226250
v 0.1562500 0.0025500 -0.6226250
v 0.1562500 -0.0070500 -0.6418750
v 0.5625000 -0.0070500 -0.6418750
v 0.5625000 -0.0070500 -0.6418750
v 0.1562500 -0.0070500 -0.6418750
v 0.1562500 -0.0194500 -0.6634000
v 0.5625000 -0.0194500 -0.6634000
v 0.5625000 -0.0194500 -0.6634000
v 0.1562500 -0.0194500 -0.6634000
v 0.1562500 -0.0290250 -0.6818250
v 0.5625000 -0.0290250 -0.6818250
v 0.5625000 -0.0290250 -0.6818250
v 0.1562500 -0.0290250 -0.6818250
v 0.1562500 -0.0311250 -0.6978250
v 0.5625000 -0.0311250 -0.6978250
v 0.5625000 -0.0311250 -0.6978250
v 0.1562500 -0.0311250 -0.6978250
v 0.1562500 -0.0223250 -0.7158500
v 0.5625000 -0.0223250 -0.7158500
v 0.5625000 -0.0223250 -0.7158500
v 0.1562500 -0.0223250 -0.7158500
v 0.1562500 0.0041000 -0.7340500
v 0.5625000 0.0040750 -0.7340500
v 0.5625000 0.0040750 -0.7340500
v 0.1562500 0.0041000 -0.7340500
v 0.1562500 0.0259000 -0.7460250
v 0.5625000 0.0259000 -0.7460250
v 0.5625000 0.0259000 -0.7460250
v 0.1562500 0.0259000 -0.7460250
v 0.1562500 0.0398250 -0.7491250
v 0.5625000 0.0398250 -0.7491250
v 0.1562500 0.0035000 -0.6357500
v 0.1562500 0.0086750 -0.6741000
v 0.1562500 -0.0194500 -0.6634000
v 0.1562500 -0.0070500 -0.6418750
v 0.1562500 -0.0311250 -0.6978250
v 0.1562500 0.0086750 -0.6741000
v 0.1562500 0.0165250 -0.7046750
v 0.1562500 -0.0223250 -0.7158500
v 0.5625000 0.0086750 -0.6741000
v 0.5625000 -0.0194500 -0.6634000
v 0.5625000 -0.0290250 -0.6818250
v 0.5625000 -0.0311250 -0.6978250
v 0.5625000 -0.0311250 -0.6978250
v 0.5625000 -0.0223250 -0.7158500
v 0.5625000 0.0165250 -0.7046750
v 0.5625000 0.0086750 -0.6741000
v 0.5625000 0.0291000 -0.7318750
v 0.5625000 0.0040750 -0.7340500
v 0.5625000 0.0259000 -0.7460250
v 0.5625000 0.0398250 -0.7491250
v -0.6187500 0.0125000 -0.0125000
v 0.6187500 0.0125000 -0.0125000
v 0.6187500 0.0125000 -0.0250000
v -0.6187500 0.0125000 -0.0250000
v 0.6187500 -0.0000000 0.0000000
v 0.6187500 0.0125000 -0.0125000
v -0.6187500 0.0125000 -0.0125000
v -0.6187500 -0.0000000 0.0000000
v -0.3736750 0.1437500 -0.2445750
v -0.3736750 0.1437500 -0.3292500
v -0.4534000 0.1437500 -0.3292500
v -0.4534000 0.1437500 -0.2445750
v -0.3736750 0.1437500 -0.2445750
v -0.3736750 0.1125000 -0.2445750
v -0.3736750 0.1125000 -0.3292500
v -0.3736750 0.1437500 -0.3292500
v -0.4534000 0.1437500 -0.2445750
v -0.4534000 0.1125000 -0.2445750
v -0.3736750 0.1125000 -0.2445750
v -0.3736750 0.1437500 -0.2445750
v -0.4534000 0.1437500 -0.3292500
v -0.4534000 0.1125000 -0.3292500
v -0.4534000 0.1125000 -0.2445750
v -0.4534000 0.1437500 -0.2445750
v -0.3736750 0.1437500 -0.3292500
v -0.3736750 0.1125000 -0.3292500
v -0.4534000 0.1125000 -0.3292500
v -0.4534000 0.1437500 -0.3292500
v -0.2596250 0.1437500 -0.2445750
v -0.2596250 0.1437500 -0.3292500
v -0.3393500 0.1437500 -0.3292500
v -0.3393500 0.1437500 -0.2445750
v -0.2596250 0.1437500 -0.2445750
v -0.2596250 0.1125000 -0.2445750
v -0.2596250 0.1125000 -0.3292500
v -0.2596250 0.1437500 -0.3292500
v -0.3393500 0.1437500 -0.2445750
v -0.3393500 0.1125000 -0.2445750
v -0.2596250 0.1125000 -0.2445750
v -0.2596250 0.1437500 -0.2445750
v -0.3393500 0.1437500 -0.3292500
v -0.3393500 0.1125000 -0.3292500
v -0.3393500 0.1125000 -0.2445750
v -0.3393500 0.1437500 -0.2445750
v -0.2596250 0.1437500 -0.3292500
v -0.2596250 0.1125000 -0.3292500
v -0.3393500 0.1125000 -0.3292500
v -0.3393500 0.1437500 -0.3292500
v -0.1430750 0.1437500 -0.2445750
v -0.1430750 0.1437500 -0.3292500
v -0.2228000 0.1437500 -0.3292500
v -0.2228000 0.1437500 -0.2445750
v -0.1430750 0.1437500 -0.2445750
v -0.1430750 0.1125000 -0.2445750
v -0.1430750 0.1125000 -0.3292500
v -0.1430750 0.1437500 -0.3292500
v -0.2228000 0.1437500 -0.2445750
v -0.2228000 0.1125000 -0.2445750
v -0.1430750 0.1125000 -0.2445750
v -0.1430750 0.1437500 -0.2445750
v -0.2228000 0.1437500 -0.3292500
v -0.2228000 0.1125000 -0.3292500
v -0.2228000 0.1125000 -0.2445750
v -0.2228000 0.1437500 -0.2445750
v -0.1430750 0.1437500 -0.3292500
v -0.1430750 0.1125000 -0.3292500
v -0.2228000 0.1125000 -0.3292500
v -0.2228000 0.1437500 -0.3292500
v -0.0215250 0.1437500 -0.2445750
v -0.0215250 0.1437500 -0.3292500
v -0.1012500 0.1437500 -0.3292500
v -0.1012500 0.1437500 -0.2445750
v -0.0215250 0.1437500 -0.2445750
v -0.0215250 0.1125000 -0.2445750
v -0.0215250 0.1125000 -0.3292500
v -0.0215250 0.1437500 -0.3292500
v -0.1012500 0.1437500 -0.2445750
v -0.1012500 0.1125000 -0.2445750
v -0.0215250 0.1125000 -0.2445750
v -0.0215250 0.1437500 -0.2445750
v -0.1012500 0.1437500 -0.3292500
v -0.1012500 0.1125000 -0.3292500
v -0.1012500 0.1125000 -0.2445750
v -0.1012500 0.1437500 -0.2445750
v -0.0215250 0.1437500 -0.3292500
v -0.0215250 0.1125000 -0.3292500
v -0.1012500 0.1125000 -0.3292500
v -0.1012500 0.1437500 -0.3292500
v 0.1009750 0.1437500 -0.2445750
v 0.1009750 0.1437500 -0.3292500
v 0.0212500 0.1437500 -0.3292500
v 0.0212500 0.1437500 -0.2445750
v 0.1009750 0.1437500 -0.2445750
v 0.1009750 0.1125000 -0.2445750
v 0.1009750 0.1125000 -0.3292500
v 0.1009750 0.1437500 -0.3292500
v 0.0212500 0.1437500 -0.2445750
v 0.0212500 0.1125000 -0.2445750
v 0.1009750 0.1125000 -0.2445750
v 0.1009750 0.1437500 -0.2445750
v 0.0212500 0.1437500 -0.3292500
v 0.0212500 0.1125000 -0.3292500
v 0.0212500 0.1125000 -0.2445750
v 0.0212500 0.1437500 -0.2445750
v 0.1009750 0.1437500 -0.3292500
v 0.1009750 0.1125000 -0.3292500
v 0.0212500 0.1125000 -0.3292500
v 0.0212500 0.1437500 -0.3292500
v 0.2234750 0.1437500 -0.2445750
v 0.2234750 0.1437500 -0.3292500
v 0.1437500 0.1437500 -0.3292500
v 0.1437500 0.1437500 -0.2445750
v 0.2234750 0.1437500 -0.2445750
v 0.2234750 0.1125000 -0.2445750
v 0.2234750 0.1125000 -0.3292500
v 0.2234750 0.1437500 -0.3292500
v 0.1437500 0.1437500 -0.2445750
v 0.1437500 0.1125000 -0.2445750
v 0.2234750 0.1125000 -0.2445750
v 0.2234750 0.1437500 -0.2445750
v 0.1437500 0.1437500 -0.3292500
v 0.1437500 0.1125000 -0.3292500
v 0.1437500 0.1125000 -0.2445750
v 0.1437500 0.1437500 -0.2445750
v 0.2234750 0.1437500 -0.3292500
v 0.2234750 0.1125000 -0.3292500
v 0.1437500 0.1125000 -0.3292500
v 0.1437500 0.1437500 -0.3292500
v 0.3384750 0.1437500 -0.2445750
v 0.3384750 0.1437500 -0.3292500
v 0.2587500 0.1437500 -0.3292500
v 0.2587500 0.1437500 -0.2445750
v 0.3384750 0.1437500 -0.2445750
v 0.3384750 0.1125000 -0.2445750
v 0.3384750 0.1125000 -0.3292500
v 0.3384750 0.1437500 -0.3292500
v 0.2587500 0.1437500 -0.2445750
v 0.2587500 0.1125000 -0.2445750
v 0.3384750 0.1125000 -0.2445750
v 0.3384750 0.1437500 -0.2445750
v 0.2587500 0.1437500 -0.3292500
v 0.2587500 0.1125000 -0.3292500
v 0.2587500 0.1125000 -0.2445750
v 0.2587500 0.1437500 -0.2445750
v 0.3384750 0.1437500 -0.3292500
v 0.3384750 0.1125000 -0.3292500
v 0.2587500 0.1125000 -0.3292500
v 0.2587500 0.1437500 -0.3292500
v 0.4559750 0.1437500 -0.2445750
v 0.4559750 0.1437500 -0.3292500
v 0.3762500 0.1437500 -0.3292500
v 0.3762500 0.1437500 -0.2445750
v 0.4559750 0.1437500 -0.2445750
v 0.4559750 0.1125000 -0.2445750
v 0.4559750 0.1125000 -0.3292500
v 0.4559750 0.1437500 -0.3292500
v 0.3762500 0.1437500 -0.2445750
v 0.3762500 0.1125000 -0.2445750
v 0.4559750 0.1125000 -0.2445750
v 0.4559750 0.1437500 -0.2445750
v 0.3762500 0.1437500 -0.3292500
v 0.3762500 0.1125000 -0.3292500
v 0.3762500 0.1125000 -0.2445750
v 0.3762500 0.1437500 -0.2445750
v 0.4559750 0.1437500 -0.3292500
v 0.4559750 0.1125000 -0.3292500
v 0.3762500 0.1125000 -0.3292500
v 0.3762500 0.1437500 -0.3292500
v -0.3279375 0.1437500 -0.3745750
v -0.3279375 0.1437500 -0.4592500
v -0.4529375 0.1437500 -0.4592500
v -0.4529375 0.1437500 -0.3745750
v -0.3279375 0.1437500 -0.3745750
v -0.3279375 0.1125000 -0.3745750
v -0.3279375 0.1125000 -0.4592500
v -0.3279375 0.1437500 -0.4592500
v -0.4529375 0.1437500 -0.3745750
v -0.4529375 0.1125000 -0.3745750
v -0.3279375 0.1125000 -0.3745750
v -0.3279375 0.1437500 -0.3745750
v -0.4529375 0.1437500 -0.4592500
v -0.4529375 0.1125000 -0.4592500
v -0.4529375 0.1125000 -0.3745750
v -0.4529375 0.1437500 -0.3745750
v -0.3279375 0.1437500 -0.4592500
v -0.3279375 0.1125000 -0.4592500
v -0.4529375 0.1125000 -0.4592500
v -0.4529375 0.1437500 -0.4592500
v -0.2040250 0.1437500 -0.3745750
v -0.2040250 0.1437500 -0.4592500
v -0.2837500 0.1437500 -0.4592500
v -0.2837500 0.1437500 -0.3745750
v -0.2040250 0.1437500 -0.3745750
v -0.2040250 0.1125000 -0.3745750
v -0.2040250 0.1125000 -0.4592500
v -0.2040250 0.1437500 -0.4592500
v -0.2837500 0.1437500 -0.3745750
v -0.2837500 0.1125000 -0.3745750
v -0.2040250 0.1125000 -0.3745750
v -0.2040250 0.1437500 -0.3745750
v -0.2837500 0.1437500 -0.4592500
v -0.2837500 0.1125000 -0.4592500
v -0.2837500 0.1125000 -0.3745750
v -0.2837500 0.1437500 -0.3745750
v -0.2040250 0.1437500 -0.4592500
v -0.2040250 0.1125000 -0.4592500
v -0.2837500 0.1125000 -0.4592500
v -0.2837500 0.1437500 -0.4592500
v -0.0840250 0.1437500 -0.3745750
v -0.0840250 0.1437500 -0.4592500
v -0.1637500 0.1437500 -0.4592500
v -0.1637500 0.1437500 -0.3745750
v -0.0840250 0.1437500 -0.3745750
v -0.0840250 0.1125000 -0.3745750
v -0.0840250 0.1125000 -0.4592500
v -0.0840250 0.1437500 -0.4592500
v -0.1637500 0.1437500 -0.3745750
v -0.1637500 0.1125000 -0.3745750
v -0.0840250 0.1125000 -0.3745750
v -0.0840250 0.1437500 -0.3745750
v -0.1637500 0.1437500 -0.4592500
v -0.1637500 0.1125000 -0.4592500
v -0.1637500 0.1125000 -0.3745750
v -0.1637500 0.1437500 -0.3745750
v -0.0840250 0.1437500 -0.4592500
v -0.0840250 0.1125000 -0.4592500
v -0.1637500 0.1125000 -0.4592500
v -0.1637500 0.1437500 -0.4592500
v 0.0384750 0.1437500 -0.3745750
v 0.0384750 0.1437500 -0.4592500
v -0.0412500 0.1437500 -0.4592500
v -0.0412500 0.1437500 -0.3745750
v 0.0384750 0.1437500 -0.3745750
v 0.0384750 0.1125000 -0.3745750
v 0.0384750 0.1125000 -0.4592500
v 0.0384750 0.1437500 -0.4592500
v -0.0412500 0.1437500 -0.3745750
v -0.0412500 0.1125000 -0.3745750
v 0.0384750 0.1125000 -0.3745750
v 0.0384750 0.1437500 -0.3745750
v -0.0412500 0.1437500 -0.4592500
v -0.0412500 0.1125000 -0.4592500
v -0.0412500 0.1125000 -0.3745750
v -0.0412500 0.1437500 -0.3745750
v 0.0384750 0.1437500 -0.4592500
v 0.0384750 0.1125000 -0.4592500
v -0.0412500 0.1125000 -0.4592500
v -0.0412500 0.1437500 -0.4592500
v 0.1659750 0.1437500 -0.3745750
v 0.1659750 0.1437500 -0.4592500
v 0.0862500 0.1437500 -0.4592500
v 0.0862500 0.1437500 -0.3745750
v 0.1659750 0.1437500 -0.3745750
v 0.1659750 0.1125000 -0.3745750
v 0.1659750 0.1125000 -0.4592500
v 0.1659750 0.1437500 -0.4592500
v 0.0862500 0.1437500 -0.3745750
v 0.0862500 0.1125000 -0.3745750
v 0.1659750 0.1125000 -0.3745750
v 0.1659750 0.1437500 -0.3745750
v 0.0862500 0.1437500 -0.4592500
v 0.0862500 0.1125000 -0.4592500
v 0.0862500 0.1125000 -0.3745750
v 0.0862500 0.1437500 -0.3745750
v 0.1659750 0.1437500 -0.4592500
v 0.1659750 0.1125000 -0.4592500
v 0.0862500 0.1125000 -0.4592500
v 0.0862500 0.1437500 -0.4592500
v 0.2834750 0.1437500 -0.3745750
v 0.2834750 0.1437500 -0.4592500
v 0.2037500 0.1437500 -0.4592500
v 0.2037500 0.1437500 -0.3745750
v 0.2834750 0.1437500 -0.3745750
v 0.2834750 0.1125000 -0.3745750
v 0.2834750 0.1125000 -0.4592500
v 0.2834750 0.1437500 -0.4592500
v 0.2037500 0.1437500 -0.3745750
v 0.2037500 0.1125000 -0.3745750
v 0.2834750 0.1125000 -0.3745750
v 0.2834750 0.1437500 -0.3745750
v 0.2037500 0.1437500 -0.4592500
v 0.2037500 0.1125000 -0.4592500
v 0.2037500 0.1125000 -0.3745750
v 0.2037500 0.1437500 -0.3745750
v 0.2834750 0.1437500 -0.4592500
v 0.2834750 0.1125000 -0.4592500
v 0.2037500 0.1125000 -0.4592500
v 0.2037500 0.1437500 -0.4592500
v 0.4520625 0.1437500 -0.3745750
v 0.4520625 0.1437500 -0.4592500
v 0.3270625 0.1437500 -0.4592500
v 0.3270625 0.1437500 -0.3745750
v 0.4520625 0.1437500 -0.3745750
v 0.4520625 0.1125000 -0.3745750
v 0.4520625 0.1125000 -0.4592500
v 0.4520625 0.1437500 -0.4592500
v 0.3270625 0.1437500 -0.3745750
v 0.3270625 0.1125000 -0.3745750
v 0.4520625 0.1125000 -0.3745750
v 0.4520625 0.1437500 -0.3745750
v 0.3270625 0.1437500 -0.4592500
v 0.3270625 0.1125000 -0.4592500
v 0.3270625 0.1125000 -0.3745750
v 0.3270625 0.1437500 -0.3745750
v 0.4520625 0.1437500 -0.4592500
v 0.4520625 0.1125000 -0.4592500
v 0.3270625 0.1125000 -0.4592500
v 0.3270625 0.1437500 -0.4592500
v -0.2040250 0.1437500 -0.1195750
v -0.2040250 0.1437500 -0.2042500
v -0.2837500 0.1437500 -0.2042500
v -0.2837500 0.1437500 -0.1195750
v -0.2040250 0.1437500 -0.1195750
v -0.2040250 0.1125000 -0.1195750
v -0.2040250 0.1125000 -0.2042500
v -0.2040250 0.1437500 -0.2042500
v -0.2837500 0.1437500 -0.1195750
v -0.2837500 0.1125000 -0.1195750
v -0.2040250 0.1125000 -0.1195750
v -0.2040250 0.1437500 -0.1195750
v -0.2837500 0.1437500 -0.2042500
v -0.2837500 0.1125000 -0.2042500
v -0.2837500 0.1125000 -0.1195750
v -0.2837500 0.1437500 -0.1195750
v -0.2040250 0.1437500 -0.2042500
v -0.2040250 0.1125000 -0.2042500
v -0.2837500 0.1125000 -0.2042500
v -0.2837500 0.1437500 -0.2042500
v -0.0840250 0.1437500 -0.1195750
v -0.0840250 0.1437500 -0.2042500
v -0.1637500 0.1437500 -0.2042500
v -0.1637500 0.1437500 -0.1195750
v -0.0840250 0.1437500 -0.1195750
v -0.0840250 0.1125000 -0.1195750
v -0.0840250 0.1125000 -0.2042500
v -0.0840250 0.1437500 -0.2042500
v -0.1637500 0.1437500 -0.1195750
v -0.1637500 0.1125000 -0.1195750
v -0.0840250 0.1125000 -0.1195750
v -0.0840250 0.1437500 -0.1195750
v -0.1637500 0.1437500 -0.2042500
v -0.1637500 0.1125000 -0.2042500
v -0.1637500 0.1125000 -0.1195750
v -0.1637500 0.1437500 -0.1195750
v -0.0840250 0.1437500 -0.2042500
v -0.0840250 0.1125000 -0.2042500
v -0.1637500 0.1125000 -0.2042500
v -0.1637500 0.1437500 -0.2042500
v 0.0384750 0.1437500 -0.1195750
v 0.0384750 0.1437500 -0.2042500
v -0.0412500 0.1437500 -0.2042500
v -0.0412500 0.1437500 -0.1195750
v 0.0384750 0.1437500 -0.1195750
v 0.0384750 0.1125000 -0.1195750
v 0.0384750 0.1125000 -0.2042500
v 0.0384750 0.1437500 -0.2042500
v -0.0412500 0.1437500 -0.1195750
v -0.0412500 0.1125000 -0.1195750
v 0.0384750 0.1125000 -0.1195750
v 0.0384750 0.1437500 -0.1195750
v -0.0412500 0.1437500 -0.2042500
v -0.0412500 0.1125000 -0.2042500
v -0.0412500 0.1125000 -0.1195750
v -0.0412500 0.1437500 -0.1195750
v 0.0384750 0.1437500 -0.2042500
v 0.0384750 0.1125000 -0.2042500
v -0.0412500 0.1125000 -0.2042500
v -0.0412500 0.1437500 -0.2042500
v 0.1659750 0.1437500 -0.1195750
v 0.1659750 0.1437500 -0.2042500
v 0.0862500 0.1437500 -0.2042500
v 0.0862500 0.1437500 -0.1195750
v 0.1659750 0.1437500 -0.1195750
v 0.1659750 0.1125000 -0.1195750
v 0.1659750 0.1125000 -0.2042500
v 0.1659750 0.1437500 -0.2042500
v 0.0862500 0.1437500 -0.1195750
v 0.0862500 0.1125000 -0.1195750
v 0.1659750 0.1125000 -0.1195750
v 0.1659750 0.1437500 -0.1195750
v 0.0862500 0.1437500 -0.2042500
v 0.0862500 0.1125000 -0.2042500
v 0.0862500 0.1125000 -0.1195750
v 0.0862500 0.1437500 -0.1195750
v 0.1659750 0.1437500 -0.2042500
v 0.1659750 0.1125000 -0.2042500
v 0.0862500 0.1125000 -0.2042500
v 0.0862500 0.1437500 -0.2042500
v 0.2834750 0.1437500 -0.1195750
v 0.2834750 0.1437500 -0.2042500
v 0.2037500 0.1437500 -0.2042500
v 0.2037500 0.1437500 -0.1195750
v 0.2834750 0.1437500 -0.1195750
v 0.2834750 0.1125000 -0.1195750
v 0.2834750 0.1125000 -0.2042500
v 0.2834750 0.1437500 -0.2042500
v 0.2037500 0.1437500 -0.1195750
v 0.2037500 0.1125000 -0.1195750
v 0.2834750 0.1125000 -0.1195750
v 0.2834750 0.1437500 -0.1195750
v 0.2037500 0.1437500 -0.2042500
v 0.2037500 0.1125000 -0.2042500
v 0.2037500 0.1125000 -0.1195750
v 0.2037500 0.1437500 -0.1195750
v 0.2834750 0.1437500 -0.2042500
v 0.2834750 0.1125000 -0.2042500
v 0.2037500 0.1125000 -0.2042500
v 0.2037500 0.1437500 -0.2042500
v 0.4520625 0.1437500 -0.1195750
v 0.4520625 0.1437500 -0.2042500
v 0.3270625 0.1437500 -0.2042500
v 0.3270625 0.1437500 -0.1195750
v 0.4520625 0.1437500 -0.1195750
v 0.4520625 0.1125000 -0.1195750
v 0.4520625 0.1125000 -0.2042500
v 0.4520625 0.1437500 -0.2042500
v 0.3270625 0.1437500 -0.1195750
v 0.3270625 0.1125000 -0.1195750
v 0.4520625 0.1125000 -0.1195750
v 0.4520625 0.1437500 -0.1195750
v 0.3270625 0.1437500 -0.2042500
v 0.3270625 0.1125000 -0.2042500
v 0.3270625 0.1125000 -0.1195750
v 0.3270625 0.1437500 -0.1195750
v 0.4520625 0.1437500 -0.2042500
v 0.4520625 0.1125000 -0.2042500
v 0.3270625 0.1125000 -0.2042500
v 0.3270625 0.1437500 -0.2042500
v -0.3740250 0.1437500 -0.4995750
v -0.3740250 0.1437500 -0.5842500
v -0.4537500 0.1437500 -0.5842500
v -0.4537500 0.1437500 -0.4995750
v -0.3740250 0.1437500 -0.4995750
v -0.3740250 0.1125000 -0.4995750
v -0.3740250 0.1125000 -0.5842500
v -0.3740250 0.1437500 -0.5842500
v -0.4537500 0.1437500 -0.4995750
v -0.4537500 0.1125000 -0.4995750
v -0.3740250 0.1125000 -0.4995750
v -0.3740250 0.1437500 -0.4995750
v -0.4537500 0.1437500 -0.5842500
v -0.4537500 0.1125000 -0.5842500
v -0.4537500 0.1125000 -0.4995750
v -0.4537500 0.1437500 -0.4995750
v -0.3740250 0.1437500 -0.5842500
v -0.3740250 0.1125000 -0.5842500
v -0.4537500 0.1125000 -0.5842500
v -0.4537500 0.1437500 -0.5842500
v -0.2515250 0.1437500 -0.4995750
v -0.2515250 0.1437500 -0.5842500
v -0.3312500 0.1437500 -0.5842500
v -0.3312500 0.1437500 -0.4995750
v -0.2515250 0.1437500 -0.4995750
v -0.2515250 0.1125000 -0.4995750
v -0.2515250 0.1125000 -0.5842500
v -0.2515250 0.1437500 -0.5842500
v -0.3312500 0.1437500 -0.4995750
v -0.3312500 0.1125000 -0.4995750
v -0.2515250 0.1125000 -0.4995750
v -0.2515250 0.1437500 -0.4995750
v -0.3312500 0.1437500 -0.5842500
v -0.3312500 0.1125000 -0.5842500
v -0.3312500 0.1125000 -0.4995750
v -0.3312500 0.1437500 -0.4995750
v -0.2515250 0.1437500 -0.5842500
v -0.2515250 0.1125000 -0.5842500
v -0.3312500 0.1125000 -0.5842500
v -0.3312500 0.1437500 -0.5842500
v 0.3309750 0.1437500 -0.4995750
v 0.3309750 0.1437500 -0.5842500
v 0.2512500 0.1437500 -0.5842500
v 0.2512500 0.1437500 -0.4995750
v 0.3309750 0.1437500 -0.4995750
v 0.3309750 0.1125000 -0.4995750
v 0.3309750 0.1125000 -0.5842500
v 0.3309750 0.1437500 -0.5842500
v 0.2512500 0.1437500 -0.4995750
v 0.2512500 0.1125000 -0.4995750
v 0.3309750 0.1125000 -0.4995750
v 0.3309750 0.1437500 -0.4995750
v 0.2512500 0.1437500 -0.5842500
v 0.2512500 0.1125000 -0.5842500
v 0.2512500 0.1125000 -0.4995750
v 0.2512500 0.1437500 -0.4995750
v 0.3309750 0.1437500 -0.5842500
v 0.3309750 0.1125000 -0.5842500
v 0.2512500 0.1125000 -0.5842500
v 0.2512500 0.1437500 -0.5842500
v 0.4534750 0.1437500 -0.4995750
v 0.4534750 0.1437500 -0.5842500
v 0.3737500 0.1437500 -0.5842500
v 0.3737500 0.1437500 -0.4995750
v 0.4534750 0.1437500 -0.4995750
v 0.4534750 0.1125000 -0.4995750
v 0.4534750 0.1125000 -0.5842500
v 0.4534750 0.1437500 -0.5842500
v 0.3737500 0.1437500 -0.4995750
v 0.3737500 0.1125000 -0.4995750
v 0.4534750 0.1125000 -0.4995750
v 0.4534750 0.1437500 -0.4995750
v 0.3737500 0.1437500 -0.5842500
v 0.3737500 0.1125000 -0.5842500
v 0.3737500 0.1125000 -0.4995750
v 0.3737500 0.1437500 -0.4995750
v 0.4534750 0.1437500 -0.5842500
v 0.4534750 0.1125000 -0.5842500
v 0.3737500 0.1125000 -0.5842500
v 0.3737500 0.1437500 -0.5842500
v 0.1986125 0.1437500 -0.4995750
v 0.1986125 0.1437500 -0.5842500
v -0.2013875 0.1437500 -0.5842500
v -0.2013875 0.1437500 -0.4995750
v 0.1986125 0.1437500 -0.4995750
v 0.1986125 0.1125000 -0.4995750
v 0.1986125 0.1125000 -0.5842500
v 0.1986125 0.1437500 -0.5842500
v -0.2013875 0.1437500 -0.4995750
v -0.2013875 0.1125000 -0.4995750
v 0.1986125 0.1125000 -0.4995750
v 0.1986125 0.1437500 -0.4995750
v -0.2013875 0.1437500 -0.5842500
v -0.2013875 0.1125000 -0.5842500
v -0.2013875 0.1125000 -0.4995750
v -0.2013875 0.1437500 -0.4995750
v 0.1986125 0.1437500 -0.5842500
v 0.1986125 0.1125000 -0.5842500
v -0.2013875 0.1125000 -0.5842500
v -0.2013875 0.1437500 -0.5842500
v -0.3279375 0.1437500 -0.1195750
v -0.3279375 0.1437500 -0.2042500
v -0.4529375 0.1437500 -0.2042500
v -0.4529375 0.1437500 -0.1195750
v -0.3279375 0.1437500 -0.1195750
v -0.3279375 0.1125000 -0.1195750
v -0.3279375 0.1125000 -0.2042500
v -0.3279375 0.1437500 -0.2042500
v -0.4529375 0.1437500 -0.1195750
v -0.4529375 0.1125000 -0.1195750
v -0.3279375 0.1125000 -0.1195750
v -0.3279375 0.1437500 -0.1195750
v -0.4529375 0.1437500 -0.2042500
v -0.4529375 0.1125000 -0.2042500
v -0.4529375 0.1125000 -0.1195750
v -0.4529375 0.1437500 -0.1195750
v -0.3279375 0.1437500 -0.2042500
v -0.3279375 0.1125000 -0.2042500
v -0.4529375 0.1125000 -0.2042500
v -0.4529375 0.1437500 -0.2042500
v -0.6187500 0.1433000 -0.6979000
v -0.6187500 0.0035000 -0.6357500
v -0.6187500 0.0014500 -0.6068750
v -0.6187500 0.0004500 -0.5733500
v -0.6187500 0.1437500 -0.0250000
v -0.6187500 0.1433000 -0.6979000
v -0.6187500 0.0004500 -0.5733500
v -0.6187500 0.0125000 -0.0250000
v -0.6187500 0.0004500 -0.5733500
v -0.6187500 -0.0000000 0.0000000
v -0.6187500 0.0125000 -0.0125000
v -0.6187500 0.0125000 -0.0250000
v -0.6187500 0.1437500 -0.0250000
v -0.6187500 0.0125000 -0.0250000
v 0.6187500 0.0125000 -0.0250000
v 0.6187500 0.1437500 -0.0250000
v 0.6187500 0.1433000 -0.6979000
v 0.6187500 0.1437500 -0.0250000
v 0.6187500 0.0125000 -0.0250000
v 0.6187500 0.0004500 -0.5733500
v 0.6187500 0.0035000 -0.6357500
v 0.6187500 0.1433000 -0.6979000
v 0.6187500 0.0004500 -0.5733500
v 0.6187500 0.0014500 -0.6068750
v 0.6187500 0.0004500 -0.5733500
v 0.6187500 0.0125000 -0.0250000
v 0.6187500 0.0125000 -0.0125000
v 0.6187500 -0.0000000 0.0000000
v -0.6187500 -0.0000000 0.0000000
v 0.6187500 -0.0000000 0.0000000
v 0.6187500 0.0176778 0.0176778
v -0.6187500 0.0176778 0.0176778
v 0.6187500 0.0176778 0.0176778
v 0.6187500 -0.0000000 0.0000000
v 0.6187500 0.0176778 0.0000000
v 0.6187500 0.0469698 0.0292920
v -0.6187500 0.0176778 0.0176778
v -0.6187500 0.0469698 0.0292920
v -0.6187500 0.0176778 0.0000000
v -0.6187500 -0.0000000 0.0000000
v 0.6187500 0.1474855 0.1298077
v 0.6187500 0.1314164 0.1558470
v 0.6187500 0.0209305 0.0453611
v 0.6187500 0.0469698 0.0292920
v 0.6187500 0.1563067 0.1209865
v 0.6187500 0.1474855 0.1298077
v 0.6187500 0.0469698 0.0292920
v 0.6187500 0.0557910 0.0204708
v 0.6187500 0.0469698 0.0292920
v 0.6187500 0.0209305 0.0453611
v 0.6187500 0.0176778 0.0176778
v -0.6187500 0.0557910 0.0204708
v 0.6187500 0.0557910 0.0204708
v 0.6187500 0.0469698 0.0292920
v -0.6187500 0.0469698 0.0292920
v -0.6187500 0.1474855 0.1298077
v 0.6187500 0.1474855 0.1298077
v 0.6187500 0.1563067 0.1209865
v -0.6187500 0.1563067 0.1209865
v 0.6187500 0.1590998 0.1590998
v 0.6187500 0.1314164 0.1558470
v 0.6187500 0.1474855 0.1298077
v -0.6187500 0.1314164 0.1558470
v 0.6187500 0.1314164 0.1558470
v 0.6187500 0.1590998 0.1590998
v -0.6187500 0.1590998 0.1590998
v -0.6187500 0.0209305 0.0453611
v -0.6187500 0.0176778 0.0176777
v 0.6187500 0.0176778 0.0176777
v 0.6187500 0.0209305 0.0453611
v -0.6187500 0.1474855 0.1298077
v -0.6187500 0.0469698 0.0292920
v -0.6187500 0.1314164 0.1558470
v -0.6187500 0.1590998 0.1590998
v -0.6187500 0.0209305 0.0453611
v -0.6187500 0.1314164 0.1558470
v -0.6187500 0.0469698 0.0292920
v -0.6187500 0.0176778 0.0176778
v -0.6187500 0.1563067 0.1209865
v -0.6187500 0.0557910 0.0204708
v -0.6187500 0.0469698 0.0292920
v -0.6187500 0.1474855 0.1298077
v -0.6187500 0.0176777 0.0000000
v -0.6187500 0.0469698 0.0292920
v 0.6187500 0.0469698 0.0292920
v 0.6187500 0.0176777 0.0000000
v 0.5906250 0.1573673 0.0873634
v 0.5906250 0.0894141 0.0194102
v 0.4781500 0.1234084 0.0534045
v 0.4735750 0.1312043 0.0612004
v 0.5906250 0.0894141 0.0194102
v -0.5968750 0.0894141 0.0194102
v 0.1125750 0.1057129 0.0357091
v 0.2000750 0.1057129 0.0357091
v 0.5906250 0.0894141 0.0194102
v 0.2000750 0.1057129 0.0357091
v 0.3031250 0.1123598 0.0423559
v 0.4625250 0.1123598 0.0423559
v 0.5906250 0.0894141 0.0194102
v 0.4625250 0.1123598 0.0423559
v 0.4735750 0.1155771 0.0455732
v 0.5906250 0.0894141 0.0194102
v 0.4735750 0.1155771 0.0455732
v 0.4781500 0.1234084 0.0534045
v 0.3031250 0.1123598 0.0423559
v 0.2000750 0.1057129 0.0357091
v 0.2177500 0.1108925 0.0408886
v 0.2920750 0.1155771 0.0455732
v 0.2000750 0.1057129 0.0357091
v 0.1125750 0.1057129 0.0357091
v 0.1302500 0.1108925 0.0408886
v 0.1824000 0.1108925 0.0408886
v -0.5968750 0.1573673 0.0873634
v 0.5906250 0.1573673 0.0873634
v 0.1999250 0.1410684 0.0710646
v 0.1124250 0.1410684 0.0710646
v 0.4625250 0.1344570 0.0644531
v 0.5906250 0.1573673 0.0873634
v 0.4735750 0.1312043 0.0612004
v 0.3031250 0.1344570 0.0644531
v 0.1999250 0.1410684 0.0710646
v 0.5906250 0.1573673 0.0873634
v 0.4625250 0.1344570 0.0644531
v -0.5968750 0.0894141 0.0194102
v 0.0949000 0.1108925 0.0408886
v 0.1125750 0.1057129 0.0357091
v 0.0875750 0.1233907 0.0533868
v -0.5968750 0.0894141 0.0194102
v -0.5968750 0.1573673 0.0873634
v 0.0949000 0.1358889 0.0658850
v -0.5968750 0.1573673 0.0873634
v 0.1124250 0.1410684 0.0710646
v 0.0949000 0.1358889 0.0658850
v 0.0875750 0.1233907 0.0533868
v 0.0949000 0.1108925 0.0408886
v -0.5968750 0.0894141 0.0194102
v 0.3031250 0.1167792 0.0821308
v 0.3031250 0.1344570 0.0644531
v 0.4625250 0.1344570 0.0644531
v 0.4625250 0.1167792 0.0821308
v 0.4735750 0.1312043 0.0612004
v 0.4735750 0.1135265 0.0788781
v 0.4625250 0.1167792 0.0821308
v 0.4625250 0.1344570 0.0644531
v 0.3031250 0.1344570 0.0644531
v 0.2920750 0.1312043 0.0612004
v 0.2177500 0.1358889 0.0658850
v 0.1999250 0.1410684 0.0710646
v 0.2920750 0.1135265 0.0788781
v 0.2920750 0.1312043 0.0612004
v 0.3031250 0.1344570 0.0644531
v 0.3031250 0.1167792 0.0821308
v 0.2920750 0.1312043 0.0612004
v 0.2875000 0.1234084 0.0534045
v 0.2250750 0.1233907 0.0533868
v 0.2177500 0.1358889 0.0658850
v 0.2920750 0.1312043 0.0612004
v 0.2920750 0.1135265 0.0788781
v 0.2875000 0.1057306 0.0710822
v 0.2875000 0.1234084 0.0534045
v 0.2250750 0.1233907 0.0533868
v 0.2875000 0.1234084 0.0534045
v 0.2920750 0.1155771 0.0455732
v 0.2177500 0.1108925 0.0408886
v 0.2920750 0.0978994 0.0632510
v 0.2920750 0.1155771 0.0455732
v 0.2875000 0.1234084 0.0534045
v 0.2875000 0.1057306 0.0710822
v 0.3031250 0.0946820 0.0600336
v 0.3031250 0.1123598 0.0423559
v 0.2920750 0.1155771 0.0455732
v 0.2920750 0.0978994 0.0632510
v 0.3031250 0.1123598 0.0423559
v 0.3031250 0.0946820 0.0600336
v 0.4625250 0.0946820 0.0600336
v 0.4625250 0.1123598 0.0423559
v 0.4735750 0.0978994 0.0632510
v 0.4735750 0.1155771 0.0455732
v 0.4625250 0.1123598 0.0423559
v 0.4625250 0.0946820 0.0600336
v 0.4781500 0.1057306 0.0710822
v 0.4781500 0.1234084 0.0534045
v 0.4735750 0.1155771 0.0455732
v 0.4735750 0.0978994 0.0632510
v 0.4735750 0.1135265 0.0788781
v 0.4735750 0.1312043 0.0612004
v 0.4781500 0.1234084 0.0534045
v 0.4781500 0.1057306 0.0710822
v 0.2250750 0.1233907 0.0533868
v 0.2250750 0.1057129 0.0710646
v 0.2177500 0.1182111 0.0835627
v 0.2177500 0.1358889 0.0658850
v 0.2177500 0.1358889 0.0658850
v 0.2177500 0.1182111 0.0835627
v 0.2000750 0.1233907 0.0887423
v 0.1999250 0.1410684 0.0710646
v 0.1999250 0.1410684 0.0710646
v 0.1824000 0.1358889 0.0658850
v 0.1302500 0.1358889 0.0658850
v 0.1124250 0.1410684 0.0710646
v 0.1824000 0.1182111 0.0835627
v 0.1824000 0.1358889 0.0658850
v 0.1999250 0.1410684 0.0710646
v 0.2000750 0.1233907 0.0887423
v 0.1824000 0.1358889 0.0658850
v 0.1750750 0.1233907 0.0533868
v 0.1375750 0.1233907 0.0533868
v 0.1302500 0.1358889 0.0658850
v 0.1750750 0.1057129 0.0710646
v 0.1750750 0.1233907 0.0533868
v 0.1824000 0.1358889 0.0658850
v 0.1824000 0.1182111 0.0835627
v 0.1750750 0.1233907 0.0533868
v 0.1750750 0.1057129 0.0710646
v 0.1824000 0.0932148 0.0585664
v 0.1824000 0.1108925 0.0408886
v 0.1750750 0.1233907 0.0533868
v 0.1824000 0.1108925 0.0408886
v 0.1302500 0.1108925 0.0408886
v 0.1375750 0.1233907 0.0533868
v 0.1999250 0.0880352 0.0533868
v 0.2000750 0.1057129 0.0357091
v 0.1824000 0.1108925 0.0408886
v 0.1824000 0.0932148 0.0585664
v 0.2177500 0.0932148 0.0585664
v 0.2177500 0.1108925 0.0408886
v 0.2000750 0.1057129 0.0357091
v 0.1999250 0.0880352 0.0533868
v 0.2177500 0.1108925 0.0408886
v 0.2177500 0.0932148 0.0585664
v 0.2250750 0.1057129 0.0710646
v 0.2250750 0.1233907 0.0533868
v 0.1375750 0.1233907 0.0533868
v 0.1375750 0.1057129 0.0710646
v 0.1302500 0.1182111 0.0835627
v 0.1302500 0.1358889 0.0658850
v 0.1125750 0.1233907 0.0887423
v 0.1124250 0.1410684 0.0710646
v 0.1302500 0.1358889 0.0658850
v 0.1302500 0.1182111 0.0835627
v 0.0949000 0.1182111 0.0835627
v 0.0949000 0.1358889 0.0658850
v 0.1124250 0.1410684 0.0710646
v 0.1125750 0.1233907 0.0887423
v 0.0875750 0.1233907 0.0533868
v 0.0949000 0.1358889 0.0658850
v 0.0949000 0.1182111 0.0835627
v 0.0875750 0.1057129 0.0710646
v 0.0949000 0.0932148 0.0585664
v 0.0949000 0.1108925 0.0408886
v 0.0875750 0.1233907 0.0533868
v 0.0875750 0.1057129 0.0710646
v 0.1125750 0.1057129 0.0357091
v 0.0949000 0.1108925 0.0408886
v 0.0949000 0.0932148 0.0585664
v 0.1125750 0.0880352 0.0533868
v 0.1302500 0.0932148 0.0585664
v 0.1302500 0.1108925 0.0408886
v 0.1125750 0.1057129 0.0357091
v 0.1125750 0.0880352 0.0533868
v 0.1302500 0.1108925 0.0408886
v 0.1302500 0.0932148 0.0585664
v 0.1375750 0.1057129 0.0710646
v 0.1375750 0.1233907 0.0533868
v 0.4625250 0.0946820 0.0600336
v 0.4625250 0.1167792 0.0821308
v 0.4735750 0.1135265 0.0788781
v 0.4735750 0.0978994 0.0632510
v 0.4625250 0.1167792 0.0821308
v 0.4625250 0.0946820 0.0600336
v 0.3031250 0.0946820 0.0600336
v 0.3031250 0.1167792 0.0821308
v 0.4781500 0.1057306 0.0710822
v 0.4735750 0.0978994 0.0632510
v 0.4735750 0.1135265 0.0788781
v 0.2920750 0.1135265 0.0788781
v 0.3031250 0.0946820 0.0600336
v 0.2920750 0.0978994 0.0632510
v 0.2875000 0.1057306 0.0710822
v 0.3031250 0.1167792 0.0821308
v 0.3031250 0.0946820 0.0600336
v 0.2920750 0.1135265 0.0788781
v 0.2250750 0.1057129 0.0710646
v 0.1750750 0.1057129 0.0710646
v 0.1824000 0.1182111 0.0835627
v 0.2177500 0.1182111 0.0835627
v 0.2177500 0.0932148 0.0585664
v 0.1824000 0.0932148 0.0585664
v 0.1750750 0.1057129 0.0710646
v 0.2250750 0.1057129 0.0710646
v 0.1999250 0.0880352 0.0533868
v 0.1824000 0.0932148 0.0585664
v 0.2177500 0.0932148 0.0585664
v 0.2000750 0.1233907 0.0887423
v 0.2177500 0.1182111 0.0835627
v 0.1824000 0.1182111 0.0835627
v 0.0875750 0.1057129 0.0710646
v 0.1302500 0.1182111 0.0835627
v 0.1375750 0.1057129 0.0710646
v 0.0949000 0.0932148 0.0585664
v 0.0949000 0.0932148 0.0585664
v 0.1375750 0.1057129 0.0710646
v 0.1302500 0.0932148 0.0585664
v 0.1125750 0.0880352 0.0533868
v 0.1125750 0.1233907 0.0887423
v 0.1302500 0.1182111 0.0835627
v 0.0875750 0.1057129 0.0710646
v 0.0949000 0.1182111 0.0835627
v 0.6187500 0.0209305 0.0453611
v 0.4726750 0.0618014 0.0862321
v 0.4578000 0.0513008 0.0757315
v 0.6187500 0.0209305 0.0453611
v 0.6187500 0.1314164 0.1558470
v 0.4781250 0.0761734 0.1006041
v 0.4726750 0.0618014 0.0862321
v 0.6187500 0.1314164 0.1558470
v -0.6187500 0.1314164 0.1558470
v 0.2000500 0.1123244 0.1367551
v 0.2500000 0.1123244 0.1367551
v 0.3088500 0.1097435 0.1341741
v 0.3125000 0.1034855 0.1279162
v 0.4023250 0.0905278 0.1149584
v 0.4171750 0.1010460 0.1254767
v 0.3088500 0.1097435 0.1341741
v 0.4375000 0.1048998 0.1293304
v 0.6187500 0.1314164 0.1558470
v 0.3000500 0.1123244 0.1367551
v 0.3088500 0.1097435 0.1341741
v 0.4171750 0.1010460 0.1254767
v 0.4375000 0.1048998 0.1293304
v 0.3000500 0.1123244 0.1367551
v 0.6187500 0.1314164 0.1558470
v 0.2500000 0.1123244 0.1367551
v 0.6187500 0.1314164 0.1558470
v 0.4375000 0.1048998 0.1293304
v 0.4578000 0.1010460 0.1254767
v 0.6187500 0.1314164 0.1558470
v 0.4578000 0.1010460 0.1254767
v 0.4726750 0.0905278 0.1149584
v 0.6187500 0.1314164 0.1558470
v 0.4726750 0.0905278 0.1149584
v 0.4781250 0.0761734 0.1006041
v 0.6187500 0.0209305 0.0453611
v 0.2999500 0.0400224 0.0644531
v 0.2499500 0.0400224 0.0644531
v 0.4375000 0.0474471 0.0718777
v 0.2999500 0.0400224 0.0644531
v 0.6187500 0.0209305 0.0453611
v 0.2999500 0.0400224 0.0644531
v 0.4375000 0.0474471 0.0718777
v 0.4171750 0.0513008 0.0757315
v 0.3088000 0.0426034 0.0670340
v 0.6187500 0.0209305 0.0453611
v 0.4578000 0.0513008 0.0757315
v 0.4375000 0.0474471 0.0718777
v -0.6187500 0.1314164 0.1558470
v 0.1912250 0.1097788 0.1342095
v 0.2000500 0.1123244 0.1367551
v 0.1875000 0.1034855 0.1279162
v -0.6187500 0.1314164 0.1558470
v -0.6187500 0.0209305 0.0453611
v 0.1875000 0.0488613 0.0732920
v 0.6187500 0.0209305 0.0453611
v 0.2499500 0.0400224 0.0644531
v 0.1999500 0.0400224 0.0644531
v -0.6187500 0.0209305 0.0453611
v 0.1875000 0.0488613 0.0732920
v -0.6187500 0.0209305 0.0453611
v 0.1911500 0.0426034 0.0670340
v 0.1875000 0.1034855 0.1279162
v 0.1912250 0.1097788 0.1342095
v -0.6187500 0.1314164 0.1558470
v -0.6187500 0.0209305 0.0453611
v 0.1999500 0.0400224 0.0644531
v 0.1911500 0.0426034 0.0670340
v 0.3125000 0.1034855 0.1279162
v 0.3125000 0.0488613 0.0732920
v 0.3968750 0.0761734 0.1006041
v 0.4023250 0.0905278 0.1149584
v 0.3125000 0.0716126 0.0505407
v 0.3125000 0.0488613 0.0732920
v 0.3125000 0.1034855 0.1279162
v 0.3125000 0.1262368 0.1051649
v 0.3125000 0.1262368 0.1051649
v 0.3125000 0.1034855 0.1279162
v 0.3088500 0.1097435 0.1341741
v 0.3088250 0.1325124 0.1114405
v 0.3088000 0.0426034 0.0670340
v 0.4171750 0.0513008 0.0757315
v 0.4023250 0.0618014 0.0862321
v 0.3125000 0.0488613 0.0732920
v 0.4023250 0.0618014 0.0862321
v 0.3968750 0.0761734 0.1006041
v 0.3125000 0.0488613 0.0732920
v 0.3088000 0.0653546 0.0442828
v 0.3088000 0.0426034 0.0670340
v 0.3125000 0.0488613 0.0732920
v 0.3125000 0.0716126 0.0505407
v 0.3088000 0.0426034 0.0670340
v 0.3088000 0.0653546 0.0442828
v 0.3000500 0.0627737 0.0417018
v 0.2999500 0.0400224 0.0644531
v 0.2499500 0.0400224 0.0644531
v 0.2999500 0.0400224 0.0644531
v 0.2911000 0.0426034 0.0670340
v 0.2587750 0.0425680 0.0669987
v 0.2911000 0.0653546 0.0442828
v 0.2911000 0.0426034 0.0670340
v 0.2999500 0.0400224 0.0644531
v 0.3000500 0.0627737 0.0417018
v 0.2911000 0.0426034 0.0670340
v 0.2875000 0.0488613 0.0732920
v 0.2625000 0.0488613 0.0732920
v 0.2587750 0.0425680 0.0669987
v 0.2875000 0.0716126 0.0505407
v 0.2875000 0.0488613 0.0732920
v 0.2911000 0.0426034 0.0670340
v 0.2911000 0.0653546 0.0442828
v 0.2875000 0.1034855 0.1279162
v 0.2625000 0.1034855 0.1279162
v 0.2625000 0.0488613 0.0732920
v 0.2875000 0.0488613 0.0732920
v 0.2875000 0.1262368 0.1051649
v 0.2875000 0.1034855 0.1279162
v 0.2875000 0.0488613 0.0732920
v 0.2875000 0.0716126 0.0505407
v 0.2875000 0.1034855 0.1279162
v 0.2912250 0.1097788 0.1342095
v 0.2588500 0.1097435 0.1341741
v 0.2625000 0.1034855 0.1279162
v 0.2911500 0.1324947 0.1114229
v 0.2912250 0.1097788 0.1342095
v 0.2875000 0.1034855 0.1279162
v 0.2875000 0.1262368 0.1051649
v 0.2912250 0.1097788 0.1342095
v 0.3000500 0.1123244 0.1367551
v 0.2500000 0.1123244 0.1367551
v 0.2588500 0.1097435 0.1341741
v 0.2999500 0.1350757 0.1140038
v 0.3000500 0.1123244 0.1367551
v 0.2912250 0.1097788 0.1342095
v 0.2911500 0.1324947 0.1114229
v 0.3088250 0.1325124 0.1114405
v 0.3088500 0.1097435 0.1341741
v 0.3000500 0.1123244 0.1367551
v 0.2999500 0.1350757 0.1140038
v 0.4578000 0.1237973 0.1027254
v 0.4578000 0.1010460 0.1254767
v 0.4375000 0.1048998 0.1293304
v 0.4375000 0.1276510 0.1065792
v 0.4375000 0.1276510 0.1065792
v 0.4375000 0.1048998 0.1293304
v 0.4171750 0.1010460 0.1254767
v 0.4171750 0.1237973 0.1027254
v 0.4578000 0.1010460 0.1254767
v 0.4578000 0.1237973 0.1027254
v 0.4726750 0.1132790 0.0922071
v 0.4726750 0.0905278 0.1149584
v 0.4726750 0.0905278 0.1149584
v 0.4726750 0.1132790 0.0922071
v 0.4781250 0.0989247 0.0778528
v 0.4781250 0.0761734 0.1006041
v 0.4726750 0.0845527 0.0634808
v 0.4726750 0.0618014 0.0862321
v 0.4781250 0.0761734 0.1006041
v 0.4781250 0.0989247 0.0778528
v 0.4578000 0.0740521 0.0529802
v 0.4578000 0.0513008 0.0757315
v 0.4726750 0.0618014 0.0862321
v 0.4726750 0.0845527 0.0634808
v 0.4375000 0.0701983 0.0491265
v 0.4375000 0.0474471 0.0718777
v 0.4578000 0.0513008 0.0757315
v 0.4578000 0.0740521 0.0529802
v 0.4023250 0.0845527 0.0634808
v 0.4023250 0.0618014 0.0862321
v 0.4171750 0.0513008 0.0757315
v 0.4171750 0.0740521 0.0529802
v 0.3968750 0.0989247 0.0778528
v 0.3968750 0.0761734 0.1006041
v 0.4023250 0.0618014 0.0862321
v 0.4023250 0.0845527 0.0634808
v 0.4023250 0.1132790 0.0922071
v 0.4023250 0.0905278 0.1149584
v 0.3968750 0.0761734 0.1006041
v 0.3968750 0.0989247 0.0778528
v 0.4171750 0.1237973 0.1027254
v 0.4171750 0.1010460 0.1254767
v 0.4023250 0.0905278 0.1149584
v 0.4023250 0.1132790 0.0922071
v 0.2125000 0.0488613 0.0732920
v 0.2087750 0.0425680 0.0669987
v 0.2411500 0.0426034 0.0670340
v 0.2375000 0.0488613 0.0732920
v 0.2125000 0.0488613 0.0732920
v 0.2375000 0.0488613 0.0732920
v 0.2375000 0.1034855 0.1279162
v 0.2125000 0.1034855 0.1279162
v 0.2375000 0.1262368 0.1051649
v 0.2375000 0.1034855 0.1279162
v 0.2375000 0.0488613 0.0732920
v 0.2375000 0.0716126 0.0505407
v 0.2087750 0.0425680 0.0669987
v 0.1999500 0.0400224 0.0644531
v 0.2499500 0.0400224 0.0644531
v 0.2411500 0.0426034 0.0670340
v 0.2375000 0.0716126 0.0505407
v 0.2375000 0.0488613 0.0732920
v 0.2411500 0.0426034 0.0670340
v 0.2411750 0.0653370 0.0442651
v 0.2375000 0.1034855 0.1279162
v 0.2411500 0.1097435 0.1341741
v 0.2088500 0.1097435 0.1341741
v 0.2125000 0.1034855 0.1279162
v 0.2375000 0.1034855 0.1279162
v 0.2375000 0.1262368 0.1051649
v 0.2411500 0.1324947 0.1114229
v 0.2411500 0.1097435 0.1341741
v 0.2411500 0.1097435 0.1341741
v 0.2500000 0.1123244 0.1367551
v 0.2000500 0.1123244 0.1367551
v 0.2088500 0.1097435 0.1341741
v 0.2499500 0.1350757 0.1140038
v 0.2500000 0.1123244 0.1367551
v 0.2411500 0.1097435 0.1341741
v 0.2411500 0.1324947 0.1114229
v 0.2588000 0.1325124 0.1114405
v 0.2588500 0.1097435 0.1341741
v 0.2500000 0.1123244 0.1367551
v 0.2499500 0.1350757 0.1140038
v 0.2588500 0.1097435 0.1341741
v 0.2588000 0.1325124 0.1114405
v 0.2625000 0.1262368 0.1051649
v 0.2625000 0.1034855 0.1279162
v 0.2625000 0.0716126 0.0505407
v 0.2625000 0.0488613 0.0732920
v 0.2625000 0.1034855 0.1279162
v 0.2625000 0.1262368 0.1051649
v 0.2625000 0.0488613 0.0732920
v 0.2625000 0.0716126 0.0505407
v 0.2588500 0.0653546 0.0442828
v 0.2587750 0.0425680 0.0669987
v 0.2500500 0.0627737 0.0417018
v 0.2499500 0.0400224 0.0644531
v 0.2587750 0.0425680 0.0669987
v 0.2588500 0.0653546 0.0442828
v 0.2411750 0.0653370 0.0442651
v 0.2411500 0.0426034 0.0670340
v 0.2499500 0.0400224 0.0644531
v 0.2500500 0.0627737 0.0417018
v 0.1875000 0.1262368 0.1051649
v 0.1875000 0.1034855 0.1279162
v 0.1875000 0.0488613 0.0732920
v 0.1875000 0.0716126 0.0505407
v 0.1911500 0.0426034 0.0670340
v 0.1911750 0.0653370 0.0442651
v 0.1875000 0.0716126 0.0505407
v 0.1875000 0.0488613 0.0732920
v 0.1911500 0.1324947 0.1114229
v 0.1912250 0.1097788 0.1342095
v 0.1875000 0.1034855 0.1279162
v 0.1875000 0.1262368 0.1051649
v 0.1999500 0.1350757 0.1140038
v 0.2000500 0.1123244 0.1367551
v 0.1912250 0.1097788 0.1342095
v 0.1911500 0.1324947 0.1114229
v 0.2088250 0.1325124 0.1114405
v 0.2088500 0.1097435 0.1341741
v 0.2000500 0.1123244 0.1367551
v 0.1999500 0.1350757 0.1140038
v 0.2125000 0.1262368 0.1051649
v 0.2125000 0.1034855 0.1279162
v 0.2088500 0.1097435 0.1341741
v 0.2088250 0.1325124 0.1114405
v 0.2125000 0.0716126 0.0505407
v 0.2125000 0.0488613 0.0732920
v 0.2125000 0.1034855 0.1279162
v 0.2125000 0.1262368 0.1051649
v 0.2088500 0.0653546 0.0442828
v 0.2087750 0.0425680 0.0669987
v 0.2125000 0.0488613 0.0732920
v 0.2125000 0.0716126 0.0505407
v 0.2000500 0.0627737 0.0417018
v 0.1999500 0.0400224 0.0644531
v 0.2087750 0.0425680 0.0669987
v 0.2088500 0.0653546 0.0442828
v 0.1911750 0.0653370 0.0442651
v 0.1911500 0.0426034 0.0670340
v 0.1999500 0.0400224 0.0644531
v 0.2000500 0.0627737 0.0417018
v 0.3125000 0.1262368 0.1051649
v 0.3088250 0.1325124 0.1114405
v 0.2911500 0.1324947 0.1114229
v 0.2875000 0.1262368 0.1051649
v 0.2875000 0.0716126 0.0505407
v 0.3125000 0.0716126 0.0505407
v 0.3125000 0.1262368 0.1051649
v 0.2875000 0.1262368 0.1051649
v 0.2999500 0.1350757 0.1140038
v 0.2911500 0.1324947 0.1114229
v 0.3088250 0.1325124 0.1114405
v 0.3088000 0.0653546 0.0442828
v 0.3125000 0.0716126 0.0505407
v 0.2875000 0.0716126 0.0505407
v 0.2911000 0.0653546 0.0442828
v 0.3000500 0.0627737 0.0417018
v 0.3088000 0.0653546 0.0442828
v 0.2875000 0.0716126 0.0505407
v 0.4781250 0.0989247 0.0778528
v 0.3968750 0.0989247 0.0778528
v 0.4023250 0.0845527 0.0634808
v 0.4726750 0.0845527 0.0634808
v 0.3968750 0.0989247 0.0778528
v 0.4781250 0.0989247 0.0778528
v 0.4726750 0.1132790 0.0922071
v 0.4023250 0.1132790 0.0922071
v 0.4726750 0.0845527 0.0634808
v 0.4023250 0.0845527 0.0634808
v 0.4171750 0.0740521 0.0529802
v 0.4578000 0.0740521 0.0529802
v 0.4578000 0.1237973 0.1027254
v 0.4171750 0.1237973 0.1027254
v 0.4023250 0.1132790 0.0922071
v 0.4726750 0.1132790 0.0922071
v 0.4171750 0.1237973 0.1027254
v 0.4578000 0.1237973 0.1027254
v 0.4375000 0.1276510 0.1065792
v 0.2375000 0.0716126 0.0505407
v 0.2411750 0.0653370 0.0442651
v 0.2588500 0.0653546 0.0442828
v 0.2625000 0.0716126 0.0505407
v 0.2625000 0.1262368 0.1051649
v 0.2375000 0.1262368 0.1051649
v 0.2375000 0.0716126 0.0505407
v 0.2625000 0.0716126 0.0505407
v 0.2500500 0.0627737 0.0417018
v 0.2588500 0.0653546 0.0442828
v 0.2411750 0.0653370 0.0442651
v 0.2411500 0.1324947 0.1114229
v 0.2375000 0.1262368 0.1051649
v 0.2625000 0.1262368 0.1051649
v 0.2588000 0.1325124 0.1114405
v 0.2499500 0.1350757 0.1140038
v 0.2411500 0.1324947 0.1114229
v 0.2588000 0.1325124 0.1114405
v 0.1875000 0.0716126 0.0505407
v 0.1911750 0.0653370 0.0442651
v 0.2088500 0.0653546 0.0442828
v 0.2125000 0.0716126 0.0505407
v 0.2125000 0.1262368 0.1051649
v 0.1875000 0.1262368 0.1051649
v 0.1875000 0.0716126 0.0505407
v 0.2125000 0.0716126 0.0505407
v 0.2000500 0.0627737 0.0417018
v 0.2088500 0.0653546 0.0442828
v 0.1911750 0.0653370 0.0442651
v 0.2125000 0.1262368 0.1051649
v 0.2088250 0.1325124 0.1114405
v 0.1911500 0.1324947 0.1114229
v 0.1875000 0.1262368 0.1051649
v 0.1999500 0.1350757 0.1140038
v 0.1911500 0.1324947 0.1114229
v 0.2088250 0.1325124 0.1114405
v 0.4375000 0.0474471 0.0718777
v 0.4375000 0.0701983 0.0491265
v 0.4171750 0.0740521 0.0529802
v 0.4171750 0.0513008 0.0757315
v 0.4375000 0.0701983 0.0491265
v 0.4578000 0.0740521 0.0529802
v 0.4171750 0.0740521 0.0529802
v 0.5906250 0.1563067 0.1209865
v 0.6187500 0.1563067 0.1209865
v 0.6187500 0.0557910 0.0204708
v 0.5906250 0.0557910 0.0204708
v -0.5968750 0.0557910 0.0204708
v -0.6187500 0.0557910 0.0204708
v -0.6187500 0.1563067 0.1209865
v -0.5968750 0.1563067 0.1209865
v 0.5906250 0.1563067 0.1209865
v 0.5906250 0.1573673 0.0873634
v -0.5968750 0.1573673 0.0873634
v -0.5968750 0.1563067 0.1209865
v 0.5906250 0.0557910 0.0204708
v 0.5906250 0.0894141 0.0194102
v 0.5906250 0.1573673 0.0873634
v 0.5906250 0.1563067 0.1209865
v -0.5968750 0.1563067 0.1209865
v -0.5968750 0.1573673 0.0873634
v -0.5968750 0.0894141 0.0194102
v -0.5968750 0.0557910 0.0204708
v 0.5906250 0.0894141 0.0194102
v 0.5906250 0.0557910 0.0204708
v -0.5968750 0.0557910 0.0204708
v -0.5968750 0.0894141 0.0194102
v 0.6187500 -0.0000000 0.0000000
v -0.6187500 -0.0000000 0.0000000
v -0.6187500 0.0176778 0.0000000
v 0.6187500 0.0176778 0.0000000
v 0.6187500 0.1767775 0.1767775
v 0.6187500 0.1590998 0.1590998
v 0.6187500 0.1474855 0.1298077
v 0.6187500 0.1767775 0.1590998
v -0.6187500 0.1767775 0.1767775
v -0.6187500 0.1590998 0.1590998
v 0.6187500 0.1590998 0.1590998
v 0.6187500 0.1767775 0.1767775
v -0.6187500 0.1767775 0.1590998
v -0.6187500 0.1767775 0.1767775
v 0.6187500 0.1767775 0.1767775
v 0.6187500 0.1767775 0.1590998
v -0.6187500 0.1767775 0.1590998
v 0.6187500 0.1767775 0.1590998
v 0.6187500 0.1474855 0.1298077
v -0.6187500 0.1474855 0.1298077
v -0.6187500 0.1767775 0.1767775
v -0.6187500 0.1767775 0.1590998
v -0.6187500 0.1474855 0.1298077
v -0.6187500 0.1590998 0.1590998
v 0.5625000 0.2781520 0.1443535
v -0.5625000 0.2781520 0.1443535
v -0.5625000 0.8382542 0.3763532
v 0.5625000 0.8382542 0.3763532
v 0.5625000 0.2781520 0.1443535
v 0.5625000 0.2925025 0.1097080
v -0.5625000 0.2925025 0.1097080
v -0.5625000 0.2781520 0.1443535
v 0.5625000 0.8382542 0.3763532
v 0.5625000 0.8526048 0.3417077
v 0.5625000 0.2925025 0.1097080
v 0.5625000 0.2781520 0.1443535
v -0.5625000 0.8382542 0.3763532
v -0.5625000 0.8526048 0.3417077
v 0.5625000 0.8526048 0.3417077
v 0.5625000 0.8382542 0.3763532
v -0.5625000 0.2781520 0.1443535
v -0.5625000 0.2925025 0.1097080
v -0.5625000 0.8526048 0.3417077
v -0.5625000 0.8382542 0.3763532
v -0.0625000 0.8847067 0.3563847
v -0.0625000 0.9064858 0.3693295
v -0.0625000 0.9209224 0.3344761
v -0.0625000 0.8747284 0.3153421
v -0.0625000 0.9064858 0.3693295
v 0.0625000 0.9064858 0.3693295
v 0.0625000 0.9209224 0.3344761
v -0.0625000 0.9209224 0.3344761
v -0.0625000 0.8747284 0.3153421
v -0.0625000 0.8619851 0.3461073
v -0.0625000 0.8847067 0.3563847
v 0.0625000 0.8619851 0.3461073
v -0.0625000 0.8619851 0.3461073
v -0.0625000 0.8747284 0.3153421
v 0.0625000 0.8747284 0.3153421
v 0.0625000 0.8847067 0.3563847
v 0.0625000 0.8619851 0.3461073
v 0.0625000 0.8747284 0.3153421
v 0.0625000 0.9209224 0.3344761
v 0.0625000 0.8847067 0.3563847
v 0.0625000 0.9209224 0.3344761
v 0.0625000 0.9064858 0.3693295
v -0.0625000 0.9209224 0.3344761
v 0.0625000 0.9209224 0.3344761
v 0.0625000 0.8747284 0.3153421
v -0.0625000 0.8747284 0.3153421
v 0.5625000 0.2925025 0.1097080
v 0.6187500 0.2405343 0.0881823
v -0.6187500 0.2405343 0.0881823
v -0.5625000 0.2925025 0.1097080
v -0.6187500 0.9204976 0.3777040
v -0.6187500 0.9332768 0.3934965
v 0.6187500 0.9332768 0.3934965
v 0.6187500 0.9204976 0.3777040
v -0.6187500 0.9332768 0.3934965
v -0.1406250 0.9287029 0.4114638
v 0.1406250 0.9287029 0.4114638
v 0.6187500 0.9332768 0.3934965
v -0.6187500 0.9332768 0.3934965
v -0.6187500 0.9287029 0.4114638
v -0.1406250 0.9287029 0.4114638
v -0.1406250 0.7177811 0.4002711
v -0.1406250 0.7704170 0.4192051
v -0.6187500 0.7711522 0.4194555
v -0.6187500 0.7190426 0.4011454
v -0.1406250 0.7704170 0.4192051
v -0.1406250 0.8175738 0.4324870
v -0.6187500 0.8176431 0.4325157
v -0.6187500 0.7711522 0.4194555
v -0.6187500 0.8176431 0.4325157
v -0.6187500 0.8661846 0.4357910
v -0.6187500 0.8847067 0.3563847
v -0.6187500 0.8526048 0.3417078
v -0.1406250 0.8175738 0.4324870
v -0.1406250 0.8666403 0.4357362
v -0.6187500 0.8661846 0.4357910
v -0.6187500 0.8176431 0.4325157
v -0.6187500 0.8661846 0.4357910
v -0.6187500 0.9106557 0.4256362
v -0.6187500 0.9204976 0.3777040
v -0.6187500 0.8847067 0.3563847
v -0.1406250 0.8666403 0.4357362
v -0.1406250 0.9099394 0.4261243
v -0.6187500 0.9106557 0.4256362
v -0.6187500 0.8661846 0.4357910
v -0.6187500 0.9106557 0.4256362
v -0.6187500 0.9287029 0.4114638
v -0.6187500 0.9332768 0.3934965
v -0.6187500 0.9204976 0.3777040
v -0.6187500 0.9287029 0.4114638
v -0.6187500 0.9106557 0.4256362
v -0.1406250 0.9099394 0.4261243
v -0.1406250 0.9287029 0.4114638
v -0.6187500 0.8847067 0.3563847
v -0.6187500 0.9204976 0.3777040
v 0.6187500 0.9204976 0.3777040
v 0.6187500 0.8847067 0.3563847
v -0.6187500 0.8526048 0.3417078
v -0.5625000 0.8526048 0.3417078
v -0.5625000 0.2925025 0.1097080
v -0.6187500 0.2405343 0.0881823
v -0.1406250 0.7704170 0.4192051
v -0.1406250 0.7177811 0.4002711
v -0.1406250 0.7328683 0.3638471
v -0.1406250 0.8095965 0.3956287
v -0.1406250 0.7177811 0.4002711
v 0.1406250 0.7177811 0.4002711
v 0.1406250 0.7328683 0.3638471
v -0.1406250 0.7328683 0.3638471
v -0.1406250 0.8095965 0.3956287
v -0.1406250 0.8338407 0.4139241
v -0.1406250 0.8175738 0.4324870
v -0.1406250 0.7704170 0.4192051
v -0.1406250 0.8338407 0.4139241
v -0.1406250 0.8643438 0.4245563
v -0.1406250 0.8666403 0.4357362
v -0.1406250 0.8175738 0.4324870
v -0.1406250 0.8939896 0.4243884
v -0.1406250 0.9099394 0.4261243
v -0.1406250 0.8666403 0.4357362
v -0.1406250 0.8643438 0.4245563
v -0.1406250 0.8939896 0.4243884
v -0.1406250 0.9154886 0.4184107
v -0.1406250 0.9099394 0.4261243
v -0.1406250 0.9287029 0.4114638
v -0.1406250 0.9099394 0.4261243
v -0.1406250 0.9154886 0.4184107
v -0.1406250 0.9287029 0.4114638
v -0.1406250 0.9154886 0.4184107
v 0.1406250 0.9154886 0.4184107
v 0.1406250 0.9287029 0.4114638
v -0.6187500 0.7711522 0.4194555
v -0.6187500 0.8176431 0.4325157
v -0.6187500 0.8526048 0.3417078
v -0.6187500 0.7190426 0.4011454
v 0.6187500 0.9287029 0.4114638
v 0.6187500 0.9332768 0.3934965
v 0.1406250 0.9287029 0.4114638
v 0.1406250 0.7177811 0.4002711
v 0.6187500 0.1767775 0.1767775
v 0.6187500 0.7190426 0.4011454
v 0.6187500 0.7190426 0.4011454
v 0.6187500 0.7711522 0.4194555
v 0.1406250 0.7704170 0.4192051
v 0.1406250 0.7177811 0.4002711
v 0.6187500 0.7711522 0.4194555
v 0.6187500 0.8176431 0.4325157
v 0.1406250 0.8175738 0.4324870
v 0.1406250 0.7704170 0.4192051
v 0.6187500 0.8847067 0.3563847
v 0.6187500 0.8661846 0.4357910
v 0.6187500 0.8176431 0.4325157
v 0.6187500 0.8526048 0.3417078
v 0.1406250 0.8666403 0.4357362
v 0.1406250 0.8175738 0.4324870
v 0.6187500 0.8176431 0.4325157
v 0.6187500 0.8661846 0.4357910
v 0.6187500 0.8661846 0.4357910
v 0.6187500 0.8847067 0.3563847
v 0.6187500 0.9204976 0.3777040
v 0.6187500 0.9106557 0.4256362
v 0.6187500 0.8661846 0.4357910
v 0.6187500 0.9106557 0.4256362
v 0.1406250 0.9099394 0.4261243
v 0.1406250 0.8666403 0.4357362
v 0.6187500 0.9106557 0.4256362
v 0.6187500 0.9287029 0.4114638
v 0.1406250 0.9287029 0.4114638
v 0.1406250 0.9099394 0.4261243
v 0.6187500 0.8847067 0.3563847
v 0.6187500 0.8526048 0.3417078
v 0.5625000 0.8526048 0.3417078
v 0.6187500 0.2405343 0.0881823
v 0.5625000 0.2925025 0.1097080
v 0.5625000 0.8526048 0.3417078
v 0.6187500 0.8526048 0.3417078
v 0.1406250 0.7704170 0.4192051
v 0.1406250 0.8095965 0.3956287
v 0.1406250 0.7328683 0.3638471
v 0.1406250 0.7177811 0.4002711
v 0.1406250 0.8095965 0.3956287
v 0.1406250 0.7704170 0.4192051
v 0.1406250 0.8175738 0.4324870
v 0.1406250 0.8338407 0.4139241
v 0.1406250 0.8666403 0.4357362
v 0.1406250 0.8643438 0.4245563
v 0.1406250 0.8338407 0.4139241
v 0.1406250 0.8175738 0.4324870
v 0.1406250 0.8939896 0.4243884
v 0.1406250 0.8643438 0.4245563
v 0.1406250 0.8666403 0.4357362
v 0.1406250 0.9099394 0.4261243
v 0.1406250 0.9154886 0.4184107
v 0.1406250 0.8939896 0.4243884
v 0.1406250 0.9099394 0.4261243
v 0.1406250 0.9099394 0.4261243
v 0.1406250 0.9287029 0.4114638
v 0.1406250 0.9154886 0.4184107
v -0.5625000 0.8526048 0.3417078
v 0.6187500 0.8847067 0.3563847
v 0.5625000 0.8526048 0.3417078
v -0.6187500 0.8847067 0.3563847
v 0.6187500 0.8847067 0.3563847
v -0.5625000 0.8526048 0.3417078
v -0.6187500 0.8526048 0.3417078
v -0.1406250 0.8095965 0.3956287
v -0.1406250 0.7328683 0.3638471
v 0.1406250 0.7328683 0.3638471
v 0.1406250 0.8095965 0.3956287
v -0.1406250 0.8338407 0.4139241
v -0.1406250 0.8095965 0.3956287
v 0.1406250 0.8095965 0.3956287
v 0.1406250 0.8338407 0.4139241
v -0.1406250 0.8643438 0.4245563
v -0.1406250 0.8338407 0.4139241
v 0.1406250 0.8338407 0.4139241
v 0.1406250 0.8643438 0.4245563
v -0.1406250 0.8939896 0.4243884
v -0.1406250 0.8643438 0.4245563
v 0.1406250 0.8643438 0.4245563
v 0.1406250 0.8939896 0.4243884
v -0.1406250 0.9154886 0.4184107
v -0.1406250 0.8939896 0.4243884
v 0.1406250 0.8939896 0.4243884
v 0.1406250 0.9154886 0.4184107
v 0.6187500 0.9106557 0.4256362
v 0.6187500 0.9204976 0.3777040
v 0.6187500 0.9332768 0.3934965
v 0.6187500 0.9287029 0.4114638
v 0.6187500 0.8526048 0.3417078
v 0.6187500 0.8176431 0.4325157
v 0.6187500 0.7711522 0.4194555
v 0.6187500 0.7190426 0.4011454
v 0.6187500 0.2046580 0.1747960
v 0.6187500 0.1931095 0.1700125
v -0.6187500 0.1931095 0.1700125
v -0.6187500 0.2046580 0.1747960
v -0.6187500 0.1767775 0.1767775
v -0.6187500 0.1931095 0.1700125
v 0.6187500 0.1931095 0.1700125
v 0.6187500 0.1767775 0.1767775
v 0.6187500 0.7190426 0.4011454
v 0.6187500 0.1767775 0.1767775
v 0.6187500 0.1931095 0.1700125
v 0.6187500 0.2046580 0.1747960
v 0.6187500 0.8526048 0.3417078
v 0.6187500 0.7190426 0.4011454
v 0.6187500 0.2046580 0.1747960
v 0.6187500 0.2405343 0.0881823
v 0.6187500 0.2405343 0.0881823
v 0.6187500 0.2046580 0.1747960
v -0.6187500 0.2046580 0.1747960
v -0.6187500 0.2405343 0.0881823
v -0.6187500 0.7190426 0.4011454
v -0.6187500 0.2046580 0.1747960
v -0.6187500 0.1931095 0.1700125
v -0.6187500 0.1767775 0.1767775
v -0.6187500 0.7190426 0.4011454
v -0.6187500 0.8526048 0.3417078
v -0.6187500 0.2405343 0.0881823
v -0.6187500 0.2046580 0.1747960
v -0.1406250 0.7177811 0.4002711
v -0.6187500 0.1767775 0.1767775
v 0.6187500 0.1767775 0.1767775
v 0.1406250 0.7177811 0.4002711
v -0.6187500 0.1767775 0.1767775
v -0.1406250 0.7177811 0.4002711
v -0.6187500 0.7190426 0.4011454
s off
f 1 2 3
f 1 3 4
f 5 6 7
f 5 7 8
f 9 10 11
f 9 11 12
f 13 14 15
f 13 15 16
f 17 18 19
f 17 19 20
f 21 22 23
f 21 23 24
f 25 26 27
f 28 29 30
f 31 32 33
f 34 35 36
f 34 36 37
f 38 39 40
f 41 42 43
f 41 43 44
f 45 46 47
f 45 47 48
f 49 50 51
f 49 51 52
f 53 54 55
f 53 55 56
f 57 58 59
f 57 59 60
f 61 62 63
f 61 63 64
f 65 66 67
f 68 69 70
f 71 72 73
f 74 75 76
f 74 76 77
f 78 79 80
f 78 80 81
f 82 83 84
f 82 84 85
f 86 87 88
f 86 88 89
f 90 91 92
f 90 92 93
f 94 95 96
f 97 98 99
f 100 101 102
f 103 104 105
f 103 105 106
f 107 108 109
f 107 109 110
f 111 112 113
f 111 113 114
f 115 116 117
f 115 117 118
f 119 120 121
f 122 123 124
f 122 124 125
f 126 127 128
f 129 130 131
f 129 131 132
f 133 134 135
f 136 137 138
f 139 140 141
f 142 143 144
f 142 144 145
f 146 147 148
f 149 150 151
f 149 151 152
f 153 154 155
f 156 157 158
f 156 158 159
f 160 161 162
f 160 162 163
f 164 165 166
f 164 166 167
f 168 169 170
f 168 170 171
f 172 173 174
f 172 174 175
f 176 177 178
f 179 180 181
f 182 183 184
f 185 186 187
f 185 187 188
f 189 190 191
f 189 191 192
f 193 194 195
f 193 195 196
f 197 198 199
f 197 199 200
f 201 202 203
f 201 203 204
f 205 206 207
f 208 209 210
f 211 212 213
f 214 215 216
f 214 216 217
f 218 219 220
f 218 220 221
f 222 223 224
f 222 224 225
f 226 227 228
f 226 228 229
f 230 231 232
f 233 234 235
f 233 235 236
f 237 238 239
f 240 241 242
f 243 244 245
f 246 247 248
f 249 250 251
f 249 251 252
f 253 254 255
f 256 257 258
f 259 260 261
f 259 261 262
f 263 264 265
f 266 267 268
f 269 270 271
f 269 271 272
f 273 274 275
f 273 275 276
f 277 278 279
f 277 279 280
f 281 282 283
f 281 283 284
f 285 286 287
f 285 287 288
f 289 290 291
f 289 291 292
f 293 294 295
f 293 295 296
f 297 298 299
f 297 299 300
f 301 302 303
f 301 303 304
f 305 306 307
f 305 307 308
f 309 310 311
f 312 313 314
f 312 314 315
f 316 317 318
f 316 318 319
f 320 321 322
f 320 322 323
f 324 325 326
f 324 326 327
f 328 329 330
f 328 330 331
f 332 333 334
f 332 334 335
f 336 337 338
f 336 338 339
f 340 341 342
f 340 342 343
f 344 345 346
f 344 346 347
f 348 349 350
f 351 352 353
f 351 353 354
f 355 356 357
f 355 357 358
f 359 360 361
f 359 361 362
f 363 364 365
f 363 365 366
f 367 368 369
f 367 369 370
f 371 372 373
f 371 373 374
f 375 376 377
f 375 377 378
f 379 380 381
f 379 381 382
f 383 384 385
f 383 385 386
f 387 388 389
f 390 391 392
f 390 392 393
f 394 395 396
f 394 396 397
f 398 399 400
f 398 400 401
f 402 403 404
f 402 404 405
f 406 407 408
f 406 408 409
f 410 411 412
f 413 414 415
f 413 415 416
f 417 418 419
f 417 419 420
f 421 422 423
f 421 423 424
f 425 426 427
f 425 427 428
f 429 430 431
f 429 431 432
f 433 434 435
f 433 435 436
f 437 438 439
f 437 439 440
f 441 442 443
f 441 443 444
f 445 446 447
f 445 447 448
f 449 450 451
f 449 451 452
f 453 454 455
f 453 455 456
f 457 458 459
f 457 459 460
f 461 462 463
f 461 463 464
f 465 466 467
f 465 467 468
f 469 470 471
f 469 471 472
f 473 474 475
f 473 475 476
f 477 478 479
f 477 479 480
f 481 482 483
f 481 483 484
f 485 486 487
f 485 487 488
f 489 490 491
f 489 491 492
f 493 494 495
f 493 495 496
f 497 498 499
f 497 499 500
f 501 502 503
f 501 503 504
f 505 506 507
f 505 507 508
f 509 510 511
f 509 511 512
f 513 514 515
f 513 515 516
f 517 518 519
f 517 519 520
f 521 522 523
f 521 523 524
f 525 526 527
f 525 527 528
f 529 530 531
f 529 531 532
f 533 534 535
f 533 535 536
f 537 538 539
f 537 539 540
f 541 542 543
f 541 543 544
f 545 546 547
f 545 547 548
f 549 550 551
f 549 551 552
f 553 554 555
f 553 555 556
f 557 558 559
f 557 559 560
f 561 562 563
f 561 563 564
f 565 566 567
f 565 567 568
f 569 570 571
f 569 571 572
f 573 574 575
f 573 575 576
f 577 578 579
f 577 579 580
f 581 582 583
f 581 583 584
f 585 586 587
f 585 587 588
f 589 590 591
f 589 591 592
f 593 594 595
f 593 595 596
f 597 598 599
f 597 599 600
f 601 602 603
f 601 603 604
f 605 606 607
f 605 607 608
f 609 610 611
f 609 611 612
f 613 614 615
f 613 615 616
f 617 618 619
f 617 619 620
f 621 622 623
f 621 623 624
f 625 626 627
f 625 627 628
f 629 630 631
f 629 631 632
f 633 634 635
f 633 635 636
f 637 638 639
f 637 639 640
f 641 642 643
f 641 643 644
f 645 646 647
f 645 647 648
f 649 650 651
f 649 651 652
f 653 654 655
f 653 655 656
f 657 658 659
f 657 659 660
f 661 662 663
f 661 663 664
f 665 666 667
f 665 667 668
f 669 670 671
f 669 671 672
f 673 674 675
f 673 675 676
f 677 678 679
f 677 679 680
f 681 682 683
f 681 683 684
f 685 686 687
f 685 687 688
f 689 690 691
f 689 691 692
f 693 694 695
f 693 695 696
f 697 698 699
f 697 699 700
f 701 702 703
f 701 703 704
f 705 706 707
f 705 707 708
f 709 710 711
f 709 711 712
f 713 714 715
f 713 715 716
f 717 718 719
f 717 719 720
f 721 722 723
f 721 723 724
f 725 726 727
f 725 727 728
f 729 730 731
f 729 731 732
f 733 734 735
f 733 735 736
f 737 738 739
f 737 739 740
f 741 742 743
f 741 743 744
f 745 746 747
f 745 747 748
f 749 750 751
f 749 751 752
f 753 754 755
f 753 755 756
f 757 758 759
f 757 759 760
f 761 762 763
f 761 763 764
f 765 766 767
f 765 767 768
f 769 770 771
f 769 771 772
f 773 774 775
f 773 775 776
f 777 778 779
f 777 779 780
f 781 782 783
f 781 783 784
f 785 786 787
f 785 787 788
f 789 790 791
f 789 791 792
f 793 794 795
f 793 795 796
f 797 798 799
f 797 799 800
f 801 802 803
f 801 803 804
f 805 806 807
f 805 807 808
f 809 810 811
f 809 811 812
f 813 814 815
f 813 815 816
f 817 818 819
f 817 819 820
f 821 822 823
f 821 823 824
f 825 826 827
f 825 827 828
f 829 830 831
f 829 831 832
f 833 834 835
f 833 835 836
f 837 838 839
f 837 839 840
f 841 842 843
f 841 843 844
f 845 846 847
f 845 847 848
f 849 850 851
f 849 851 852
f 853 854 855
f 853 855 856
f 857 858 859
f 857 859 860
f 861 862 863
f 861 863 864
f 865 866 867
f 865 867 868
f 869 870 871
f 869 871 872
f 873 874 875
f 873 875 876
f 877 878 879
f 877 879 880
f 881 882 883
f 881 883 884
f 885 886 887
f 885 887 888
f 889 890 891
f 889 891 892
f 893 894 895
f 893 895 896
f 897 898 899
f 897 899 900
f 901 902 903
f 901 903 904
f 905 906 907
f 905 907 908
f 909 910 911
f 909 911 912
f 913 914 915
f 913 915 916
f 917 918 919
f 917 919 920
f 921 922 923
f 921 923 924
f 925 926 927
f 925 927 928
f 929 930 931
f 929 931 932
f 933 934 935
f 933 935 936
f 937 938 939
f 937 939 940
f 941 942 943
f 941 943 944
f 945 946 947
f 945 947 948
f 949 950 951
f 949 951 952
f 953 954 955
f 953 955 956
f 957 958 959
f 957 959 960
f 961 962 963
f 961 963 964
f 965 966 967
f 965 967 968
f 969 970 971
f 969 971 972
f 973 974 975
f 973 975 976
f 977 978 979
f 977 979 980
f 981 982 983
f 981 983 984
f 985 986 987
f 985 987 988
f 989 990 991
f 989 991 992
f 993 994 995
f 993 995 996
f 997 998 999
f 997 999 1000
f 1001 1002 1003
f 1001 1003 1004
f 1005 1006 1007
f 1005 1007 1008
f 1009 1010 1011
f 1009 1011 1012
f 1013 1014 1015
f 1013 1015 1016
f 1017 1018 1019
f 1017 1019 1020
f 1021 1022 1023
f 1021 1023 1024
f 1025 1026 1027
f 1025 1027 1028
f 1029 1030 1031
f 1029 1031 1032
f 1033 1034 1035
f 1033 1035 1036
f 1037 1038 1039
f 1037 1039 1040
f 1041 1042 1043
f 1041 1043 1044
f 1045 1046 1047
f 1045 1047 1048
f 1049 1050 1051
f 1049 1051 1052
f 1053 1054 1055
f 1053 1055 1056
f 1057 1058 1059
f 1057 1059 1060
f 1061 1062 1063
f 1064 1065 1066
f 1064 1066 1067
f 1068 1069 1070
f 1068 1070 1071
f 1072 1073 1074
f 1075 1076 1077
f 1075 1077 1078
f 1079 1080 1081
f 1079 1081 1082
f 1083 1084 1085
f 1083 1085 1086
f 1087 1088 1089
f 1087 1089 1090
f 1091 1092 1093
f 1091 1093 1094
f 1095 1096 1097
f 1095 1097 1098
f 1099 1100 1101
f 1099 1101 1102
f 1103 1104 1105
f 1103 1105 1106
f 1107 1108 1109
f 1107 1109 1110
f 1111 1112 1113
f 1114 1115 1116
f 1117 1118 1119
f 1117 1119 1120
f 1121 1122 1123
f 1121 1123 1124
f 1125 1126 1127
f 1125 1127 1128
f 1129 1130 1131
f 1132 1133 1134
f 1132 1134 1135
f 1136 1137 1138
f 1139 1140 1141
f 1139 1141 1142
f 1143 1144 1145
f 1146 1147 1148
f 1149 1150 1151
f 1149 1151 1152
f 1153 1154 1155
f 1153 1155 1156
f 1157 1158 1159
f 1157 1159 1160
f 1161 1162 1163
f 1161 1163 1164
f 1165 1166 1167
f 1165 1167 1168
f 1169 1170 1171
f 1169 1171 1172
f 1173 1174 1175
f 1173 1175 1176
f 1177 1178 1179
f 1177 1179 1180
f 1181 1182 1183
f 1181 1183 1184
f 1185 1186 1187
f 1185 1187 1188
f 1189 1190 1191
f 1189 1191 1192
f 1193 1194 1195
f 1193 1195 1196
f 1197 1198 1199
f 1197 1199 1200
f 1201 1202 1203
f 1201 1203 1204
f 1205 1206 1207
f 1205 1207 1208
f 1209 1210 1211
f 1209 1211 1212
f 1213 1214 1215
f 1213 1215 1216
f 1217 1218 1219
f 1217 1219 1220
f 1221 1222 1223
f 1221 1223 1224
f 1225 1226 1227
f 1225 1227 1228
f 1229 1230 1231
f 1229 1231 1232
f 1233 1234 1235
f 1233 1235 1236
f 1237 1238 1239
f 1237 1239 1240
f 1241 1242 1243
f 1241 1243 1244
f 1245 1246 1247
f 1245 1247 1248
f 1249 1250 1251
f 1249 1251 1252
f 1253 1254 1255
f 1253 1255 1256
f 1257 1258 1259
f 1257 1259 1260
f 1261 1262 1263
f 1261 1263 1264
f 1265 1266 1267
f 1265 1267 1268
f 1269 1270 1271
f 1269 1271 1272
f 1273 1274 1275
f 1273 1275 1276
f 1277 1278 1279
f 1277 1279 1280
f 1281 1282 1283
f 1281 1283 1284
f 1285 1286 1287
f 1288 1289 1290
f 1288 1290 1291
f 1292 1293 1294
f 1295 1296 1297
f 1295 1297 1298
f 1299 1300 1301
f 1299 1301 1302
f 1303 1304 1305
f 1306 1307 1308
f 1309 1310 1311
f 1309 1311 1312
f 1313 1314 1315
f 1313 1315 1316
f 1317 1318 1319
f 1317 1319 1320
f 1321 1322 1323
f 1324 1325 1326
f 1324 1326 1327
f 1328 1329 1330
f 1328 1330 1331
f 1332 1333 1334
f 1332 1334 1335
f 1336 1337 1338
f 1336 1338 1339
f 1340 1341 1342
f 1343 1344 1345
f 1346 1347 1348
f 1349 1350 1351
f 1352 1353 1354
f 1355 1356 1357
f 1358 1359 1360
f 1361 1362 1363
f 1361 1363 1364
f 1365 1366 1367
f 1368 1369 1370
f 1371 1372 1373
f 1371 1373 1374
f 1375 1376 1377
f 1375 1377 1378
f 1379 1380 1381
f 1382 1383 1384
f 1385 1386 1387
f 1388 1389 1390
f 1388 1390 1391
f 1392 1393 1394
f 1392 1394 1395
f 1396 1397 1398
f 1396 1398 1399
f 1400 1401 1402
f 1400 1402 1403
f 1404 1405 1406
f 1407 1408 1409
f 1407 1409 1410
f 1411 1412 1413
f 1411 1413 1414
f 1415 1416 1417
f 1415 1417 1418
f 1419 1420 1421
f 1419 1421 1422
f 1423 1424 1425
f 1423 1425 1426
f 1427 1428 1429
f 1427 1429 1430
f 1431 1432 1433
f 1431 1433 1434
f 1435 1436 1437
f 1435 1437 1438
f 1439 1440 1441
f 1439 1441 1442
f 1443 1444 1445
f 1443 1445 1446
f 1447 1448 1449
f 1447 1449 1450
f 1451 1452 1453
f 1451 1453 1454
f 1455 1456 1457
f 1455 1457 1458
f 1459 1460 1461
f 1459 1461 1462
f 1463 1464 1465
f 1463 1465 1466
f 1467 1468 1469
f 1467 1469 1470
f 1471 1472 1473
f 1471 1473 1474
f 1475 1476 1477
f 1475 1477 1478
f 1479 1480 1481
f 1479 1481 1482
f 1483 1484 1485
f 1483 1485 1486
f 1487 1488 1489
f 1487 1489 1490
f 1491 1492 1493
f 1491 1493 1494
f 1495 1496 1497
f 1495 1497 1498
f 1499 1500 1501
f 1499 1501 1502
f 1503 1504 1505
f 1503 1505 1506
f 1507 1508 1509
f 1507 1509 1510
f 1511 1512 1513
f 1511 1513 1514
f 1515 1516 1517
f 1515 1517 1518
f 1519 1520 1521
f 1519 1521 1522
f 1523 1524 1525
f 1523 1525 1526
f 1527 1528 1529
f 1527 1529 1530
f 1531 1532 1533
f 1531 1533 1534
f 1535 1536 1537
f 1535 1537 1538
f 1539 1540 1541
f 1539 1541 1542
f 1543 1544 1545
f 1543 1545 1546
f 1547 1548 1549
f 1547 1549 1550
f 1551 1552 1553
f 1551 1553 1554
f 1555 1556 1557
f 1555 1557 1558
f 1559 1560 1561
f 1559 1561 1562
f 1563 1564 1565
f 1563 1565 1566
f 1567 1568 1569
f 1567 1569 1570
f 1571 1572 1573
f 1571 1573 1574
f 1575 1576 1577
f 1575 1577 1578
f 1579 1580 1581
f 1579 1581 1582
f 1583 1584 1585
f 1583 1585 1586
f 1587 1588 1589
f 1587 1589 1590
f 1591 1592 1593
f 1591 1593 1594
f 1595 1596 1597
f 1595 1597 1598
f 1599 1600 1601
f 1599 1601 1602
f 1603 1604 1605
f 1603 1605 1606
f 1607 1608 1609
f 1607 1609 1610
f 1611 1612 1613
f 1614 1615 1616
f 1617 1618 1619
f 1617 1619 1620
f 1621 1622 1623
f 1621 1623 1624
f 1625 1626 1627
f 1625 1627 1628
f 1629 1630 1631
f 1629 1631 1632
f 1633 1634 1635
f 1633 1635 1636
f 1637 1638 1639
f 1640 1641 1642
f 1640 1642 1643
f 1644 1645 1646
f 1644 1646 1647
f 1648 1649 1650
f 1651 1652 1653
f 1651 1653 1654
f 1655 1656 1657
f 1658 1659 1660
f 1658 1660 1661
f 1662 1663 1664
f 1662 1664 1665
f 1666 1667 1668
f 1669 1670 1671
f 1669 1671 1672
f 1673 1674 1675
f 1676 1677 1678
f 1676 1678 1679
f 1680 1681 1682
f 1683 1684 1685
f 1683 1685 1686
f 1687 1688 1689
f 1687 1689 1690
f 1691 1692 1693
f 1691 1693 1694
f 1695 1696 1697
f 1695 1697 1698
f 1699 1700 1701
f 1699 1701 1702
f 1703 1704 1705
f 1703 1705 1706
f 1707 1708 1709
f 1707 1709 1710
f 1711 1712 1713
f 1711 1713 1714
f 1715 1716 1717
f 1715 1717 1718
f 1719 1720 1721
f 1719 1721 1722
f 1723 1724 1725
f 1723 1725 1726
f 1727 1728 1729
f 1727 1729 1730
f 1731 1732 1733
f 1731 1733 1734
f 1735 1736 1737
f 1735 1737 1738
f 1739 1740 1741
f 1739 1741 1742
f 1743 1744 1745
f 1743 1745 1746
f 1747 1748 1749
f 1747 1749 1750
f 1751 1752 1753
f 1751 1753 1754
f 1755 1756 1757
f 1755 1757 1758
f 1759 1760 1761
f 1762 1763 1764
f 1762 1764 1765
f 1766 1767 1768
f 1766 1768 1769
f 1770 1771 1772
f 1773 1774 1775
f 1773 1775 1776
f 1777 1778 1779
f 1777 1779 1780
f 1781 1782 1783
f 1781 1783 1784
f 1785 1786 1787
f 1785 1787 1788
f 1789 1790 1791
f 1792 1793 1794
f 1792 1794 1795
f 1796 1797 1798
f 1796 1798 1799
f 1800 1801 1802
f 1800 1802 1803
f 1804 1805 1806
f 1804 1806 1807
f 1808 1809 1810
f 1808 1810 1811
f 1812 1813 1814
f 1812 1814 1815
f 1816 1817 1818
f 1816 1818 1819
f 1820 1821 1822
f 1820 1822 1823
f 1824 1825 1826
f 1824 1826 1827
f 1828 1829 1830
f 1828 1830 1831
f 1832 1833 1834
f 1832 1834 1835
f 1836 1837 1838
f 1836 1838 1839
f 1840 1841 1842
f 1840 1842 1843
f 1844 1845 1846
f 1844 1846 1847
f 1848 1849 1850
f 1848 1850 1851
f 1852 1853 1854
f 1855 1856 1857
f 1858 1859 1860
f 1858 1860 1861
f 1862 1863 1864
f 1862 1864 1865
f 1866 1867 1868
f 1869 1870 1871
f 1872 1873 1874
f 1872 1874 1875
f 1876 1877 1878
f 1876 1878 1879
f 1880 1881 1882
f 1880 1882 1883
f 1884 1885 1886
f 1884 1886 1887
f 1888 1889 1890
f 1888 1890 1891
f 1892 1893 1894
f 1892 1894 1895
f 1896 1897 1898
f 1896 1898 1899
f 1900 1901 1902
f 1903 1904 1905
f 1903 1905 1906
f 1907 1908 1909
f 1907 1909 1910
f 1911 1912 1913
f 1911 1913 1914
f 1915 1916 1917
f 1915 1917 1918
f 1919 1920 1921
f 1919 1921 1922
f 1923 1924 1925
f 1926 1927 1928
f 1929 1930 1931
f 1932 1933 1934
f 1932 1934 1935
f 1936 1937 1938
f 1936 1938 1939
f 1940 1941 1942
f 1940 1942 1943
f 1944 1945 1946
f 1944 1946 1947
f 1948 1949 1950
f 1948 1950 1951
f 1952 1953 1954
f 1952 1954 1955
f 1956 1957 1958
f 1956 1958 1959
f 1960 1961 1962
f 1960 1962 1963
f 1964 1965 1966
f 1964 1966 1967
f 1968 1969 1970
f 1968 1970 1971
f 1972 1973 1974
f 1972 1974 1975
f 1976 1977 1978
f 1976 1978 1979
f 1980 1981 1982
f 1980 1982 1983
f 1984 1985 1986
f 1984 1986 1987
f 1988 1989 1990
f 1988 1990 1991
f 1992 1993 1994
f 1992 1994 1995
f 1996 1997 1998
