# Baked from official LDraw part 63864.dat
o ldraw_63864
v -0.7500000 -0.0000000 0.2500000
v 0.7500000 -0.0000000 0.2500000
v 0.7500000 -0.0000000 -0.2500000
v -0.7500000 -0.0000000 -0.2500000
v 0.7500000 -0.1750000 0.2500000
v 0.7500000 -0.0000000 0.2500000
v -0.7500000 -0.0000000 0.2500000
v -0.7500000 -0.1750000 0.2500000
v -0.7500000 -0.1750000 0.2500000
v -0.7500000 -0.0000000 0.2500000
v -0.7500000 -0.0000000 -0.2500000
v -0.7500000 -0.1750000 -0.2500000
v -0.7500000 -0.1750000 -0.2500000
v -0.7500000 -0.0000000 -0.2500000
v 0.7500000 -0.0000000 -0.2500000
v 0.7500000 -0.1750000 -0.2500000
v 0.7500000 -0.1750000 -0.2500000
v 0.7500000 -0.0000000 -0.2500000
v 0.7500000 -0.0000000 0.2500000
v 0.7500000 -0.1750000 0.2500000
v 0.7250000 -0.2000000 0.2250000
v 0.7250000 -0.1750000 0.2250000
v -0.7250000 -0.1750000 0.2250000
v -0.7250000 -0.2000000 0.2250000
v -0.7250000 -0.2000000 0.2250000
v -0.7250000 -0.1750000 0.2250000
v -0.7250000 -0.1750000 -0.2250000
v -0.7250000 -0.2000000 -0.2250000
v -0.7250000 -0.2000000 -0.2250000
v -0.7250000 -0.1750000 -0.2250000
v 0.7250000 -0.1750000 -0.2250000
v 0.7250000 -0.2000000 -0.2250000
v 0.7250000 -0.2000000 -0.2250000
v 0.7250000 -0.1750000 -0.2250000
v 0.7250000 -0.1750000 0.2250000
v 0.7250000 -0.2000000 0.2250000
v 0.6500000 -0.1000000 0.1500000
v -0.6500000 -0.1000000 0.1500000
v -0.6500000 -0.1000000 -0.1500000
v 0.6500000 -0.1000000 -0.1500000
v 0.6500000 -0.1000000 0.1500000
v 0.6500000 -0.2000000 0.1500000
v -0.6500000 -0.2000000 0.1500000
v -0.6500000 -0.1000000 0.1500000
v 0.6500000 -0.1000000 -0.1500000
v 0.6500000 -0.2000000 -0.1500000
v 0.6500000 -0.2000000 0.1500000
v 0.6500000 -0.1000000 0.1500000
v -0.6500000 -0.1000000 -0.1500000
v -0.6500000 -0.2000000 -0.1500000
v 0.6500000 -0.2000000 -0.1500000
v 0.6500000 -0.1000000 -0.1500000
v -0.6500000 -0.1000000 0.1500000
v -0.6500000 -0.2000000 0.1500000
v -0.6500000 -0.2000000 -0.1500000
v -0.6500000 -0.1000000 -0.1500000
v 0.2500000 -0.2000000 0.0000000
v 0.3500000 -0.2000000 0.0000000
v 0.3423900 -0.2000000 0.0382700
v 0.2500000 -0.2000000 0.0000000
v 0.3423900 -0.2000000 0.0382700
v 0.3207100 -0.2000000 0.0707100
v 0.2500000 -0.2000000 0.0000000
v 0.3207100 -0.2000000 0.0707100
v 0.2882700 -0.2000000 0.0923900
v 0.2500000 -0.2000000 0.0000000
v 0.2882700 -0.2000000 0.0923900
v 0.2500000 -0.2000000 0.1000000
v 0.2500000 -0.2000000 0.0000000
v 0.2500000 -0.2000000 0.1000000
v 0.2117300 -0.2000000 0.0923900
v 0.2500000 -0.2000000 0.0000000
v 0.2117300 -0.2000000 0.0923900
v 0.1792900 -0.2000000 0.0707100
v 0.2500000 -0.2000000 0.0000000
v 0.1792900 -0.2000000 0.0707100
v 0.1576100 -0.2000000 0.0382700
v 0.2500000 -0.2000000 0.0000000
v 0.1576100 -0.2000000 0.0382700
v 0.1500000 -0.2000000 0.0000000
v 0.2500000 -0.2000000 0.0000000
v 0.1500000 -0.2000000 0.0000000
v 0.1576100 -0.2000000 -0.0382700
v 0.2500000 -0.2000000 0.0000000
v 0.1576100 -0.2000000 -0.0382700
v 0.1792900 -0.2000000 -0.0707100
v 0.2500000 -0.2000000 0.0000000
v 0.1792900 -0.2000000 -0.0707100
v 0.2117300 -0.2000000 -0.0923900
v 0.2500000 -0.2000000 0.0000000
v 0.2117300 -0.2000000 -0.0923900
v 0.2500000 -0.2000000 -0.1000000
v 0.2500000 -0.2000000 0.0000000
v 0.2500000 -0.2000000 -0.1000000
v 0.2882700 -0.2000000 -0.0923900
v 0.2500000 -0.2000000 0.0000000
v 0.2882700 -0.2000000 -0.0923900
v 0.3207100 -0.2000000 -0.0707100
v 0.2500000 -0.2000000 0.0000000
v 0.3207100 -0.2000000 -0.0707100
v 0.3423900 -0.2000000 -0.0382700
v 0.2500000 -0.2000000 0.0000000
v 0.3423900 -0.2000000 -0.0382700
v 0.3500000 -0.2000000 0.0000000
v 0.3500000 -0.1000000 0.0000000
v 0.3423900 -0.1000000 0.0382700
v 0.3423900 -0.2000000 0.0382700
v 0.3500000 -0.2000000 0.0000000
v 0.3423900 -0.1000000 0.0382700
v 0.3207100 -0.1000000 0.0707100
v 0.3207100 -0.2000000 0.0707100
v 0.3423900 -0.2000000 0.0382700
v 0.3207100 -0.1000000 0.0707100
v 0.2882700 -0.1000000 0.0923900
v 0.2882700 -0.2000000 0.0923900
v 0.3207100 -0.2000000 0.0707100
v 0.2882700 -0.1000000 0.0923900
v 0.2500000 -0.1000000 0.1000000
v 0.2500000 -0.2000000 0.1000000
v 0.2882700 -0.2000000 0.0923900
v 0.2500000 -0.1000000 0.1000000
v 0.2117300 -0.1000000 0.0923900
v 0.2117300 -0.2000000 0.0923900
v 0.2500000 -0.2000000 0.1000000
v 0.2117300 -0.1000000 0.0923900
v 0.1792900 -0.1000000 0.0707100
v 0.1792900 -0.2000000 0.0707100
v 0.2117300 -0.2000000 0.0923900
v 0.1792900 -0.1000000 0.0707100
v 0.1576100 -0.1000000 0.0382700
v 0.1576100 -0.2000000 0.0382700
v 0.1792900 -0.2000000 0.0707100
v 0.1576100 -0.1000000 0.0382700
v 0.1500000 -0.1000000 0.0000000
v 0.1500000 -0.2000000 0.0000000
v 0.1576100 -0.2000000 0.0382700
v 0.1500000 -0.1000000 0.0000000
v 0.1576100 -0.1000000 -0.0382700
v 0.1576100 -0.2000000 -0.0382700
v 0.1500000 -0.2000000 0.0000000
v 0.1576100 -0.1000000 -0.0382700
v 0.1792900 -0.1000000 -0.0707100
v 0.1792900 -0.2000000 -0.0707100
v 0.1576100 -0.2000000 -0.0382700
v 0.1792900 -0.1000000 -0.0707100
v 0.2117300 -0.1000000 -0.0923900
v 0.2117300 -0.2000000 -0.0923900
v 0.1792900 -0.2000000 -0.0707100
v 0.2117300 -0.1000000 -0.0923900
v 0.2500000 -0.1000000 -0.1000000
v 0.2500000 -0.2000000 -0.1000000
v 0.2117300 -0.2000000 -0.0923900
v 0.2500000 -0.1000000 -0.1000000
v 0.2882700 -0.1000000 -0.0923900
v 0.2882700 -0.2000000 -0.0923900
v 0.2500000 -0.2000000 -0.1000000
v 0.2882700 -0.1000000 -0.0923900
v 0.3207100 -0.1000000 -0.0707100
v 0.3207100 -0.2000000 -0.0707100
v 0.2882700 -0.2000000 -0.0923900
v 0.3207100 -0.1000000 -0.0707100
v 0.3423900 -0.1000000 -0.0382700
v 0.3423900 -0.2000000 -0.0382700
v 0.3207100 -0.2000000 -0.0707100
v 0.3423900 -0.1000000 -0.0382700
v 0.3500000 -0.1000000 0.0000000
v 0.3500000 -0.2000000 0.0000000
v 0.3423900 -0.2000000 -0.0382700
v -0.2500000 -0.2000000 0.0000000
v -0.1500000 -0.2000000 0.0000000
v -0.1576100 -0.2000000 0.0382700
v -0.2500000 -0.2000000 0.0000000
v -0.1576100 -0.2000000 0.0382700
v -0.1792900 -0.2000000 0.0707100
v -0.2500000 -0.2000000 0.0000000
v -0.1792900 -0.2000000 0.0707100
v -0.2117300 -0.2000000 0.0923900
v -0.2500000 -0.2000000 0.0000000
v -0.2117300 -0.2000000 0.0923900
v -0.2500000 -0.2000000 0.1000000
v -0.2500000 -0.2000000 0.0000000
v -0.2500000 -0.2000000 0.1000000
v -0.2882700 -0.2000000 0.0923900
v -0.2500000 -0.2000000 0.0000000
v -0.2882700 -0.2000000 0.0923900
v -0.3207100 -0.2000000 0.0707100
v -0.2500000 -0.2000000 0.0000000
v -0.3207100 -0.2000000 0.0707100
v -0.3423900 -0.2000000 0.0382700
v -0.2500000 -0.2000000 0.0000000
v -0.3423900 -0.2000000 0.0382700
v -0.3500000 -0.2000000 0.0000000
v -0.2500000 -0.2000000 0.0000000
v -0.3500000 -0.2000000 0.0000000
v -0.3423900 -0.2000000 -0.0382700
v -0.2500000 -0.2000000 0.0000000
v -0.3423900 -0.2000000 -0.0382700
v -0.3207100 -0.2000000 -0.0707100
v -0.2500000 -0.2000000 0.0000000
v -0.3207100 -0.2000000 -0.0707100
v -0.2882700 -0.2000000 -0.0923900
v -0.2500000 -0.2000000 0.0000000
v -0.2882700 -0.2000000 -0.0923900
v -0.2500000 -0.2000000 -0.1000000
v -0.2500000 -0.2000000 0.0000000
v -0.2500000 -0.2000000 -0.1000000
v -0.2117300 -0.2000000 -0.0923900
v -0.2500000 -0.2000000 0.0000000
v -0.2117300 -0.2000000 -0.0923900
v -0.1792900 -0.2000000 -0.0707100
v -0.2500000 -0.2000000 0.0000000
v -0.1792900 -0.2000000 -0.0707100
v -0.1576100 -0.2000000 -0.0382700
v -0.2500000 -0.2000000 0.0000000
v -0.1576100 -0.2000000 -0.0382700
v -0.1500000 -0.2000000 0.0000000
v -0.1500000 -0.1000000 0.0000000
v -0.1576100 -0.1000000 0.0382700
v -0.1576100 -0.2000000 0.0382700
v -0.1500000 -0.2000000 0.0000000
v -0.1576100 -0.1000000 0.0382700
v -0.1792900 -0.1000000 0.0707100
v -0.1792900 -0.2000000 0.0707100
v -0.1576100 -0.2000000 0.0382700
v -0.1792900 -0.1000000 0.0707100
v -0.2117300 -0.1000000 0.0923900
v -0.2117300 -0.2000000 0.0923900
v -0.1792900 -0.2000000 0.0707100
v -0.2117300 -0.1000000 0.0923900
v -0.2500000 -0.1000000 0.1000000
v -0.2500000 -0.2000000 0.1000000
v -0.2117300 -0.2000000 0.0923900
v -0.2500000 -0.1000000 0.1000000
v -0.2882700 -0.1000000 0.0923900
v -0.2882700 -0.2000000 0.0923900
v -0.2500000 -0.2000000 0.1000000
v -0.2882700 -0.1000000 0.0923900
v -0.3207100 -0.1000000 0.0707100
v -0.3207100 -0.2000000 0.0707100
v -0.2882700 -0.2000000 0.0923900
v -0.3207100 -0.1000000 0.0707100
v -0.3423900 -0.1000000 0.0382700
v -0.3423900 -0.2000000 0.0382700
v -0.3207100 -0.2000000 0.0707100
v -0.3423900 -0.1000000 0.0382700
v -0.3500000 -0.1000000 0.0000000
v -0.3500000 -0.2000000 0.0000000
v -0.3423900 -0.2000000 0.0382700
v -0.3500000 -0.1000000 0.0000000
v -0.3423900 -0.1000000 -0.0382700
v -0.3423900 -0.2000000 -0.0382700
v -0.3500000 -0.2000000 0.0000000
v -0.3423900 -0.1000000 -0.0382700
v -0.3207100 -0.1000000 -0.0707100
v -0.3207100 -0.2000000 -0.0707100
v -0.3423900 -0.2000000 -0.0382700
v -0.3207100 -0.1000000 -0.0707100
v -0.2882700 -0.1000000 -0.0923900
v -0.2882700 -0.2000000 -0.0923900
v -0.3207100 -0.2000000 -0.0707100
v -0.2882700 -0.1000000 -0.0923900
v -0.2500000 -0.1000000 -0.1000000
v -0.2500000 -0.2000000 -0.1000000
v -0.2882700 -0.2000000 -0.0923900
v -0.2500000 -0.1000000 -0.1000000
v -0.2117300 -0.1000000 -0.0923900
v -0.2117300 -0.2000000 -0.0923900
v -0.2500000 -0.2000000 -0.1000000
v -0.2117300 -0.1000000 -0.0923900
v -0.1792900 -0.1000000 -0.0707100
v -0.1792900 -0.2000000 -0.0707100
v -0.2117300 -0.2000000 -0.0923900
v -0.1792900 -0.1000000 -0.0707100
v -0.1576100 -0.1000000 -0.0382700
v -0.1576100 -0.2000000 -0.0382700
v -0.1792900 -0.2000000 -0.0707100
v -0.1576100 -0.1000000 -0.0382700
v -0.1500000 -0.1000000 0.0000000
v -0.1500000 -0.2000000 0.0000000
v -0.1576100 -0.2000000 -0.0382700
v 0.7500000 -0.1750000 -0.2500000
v 0.7250000 -0.1750000 -0.2250000
v -0.7250000 -0.1750000 -0.2250000
v -0.7500000 -0.1750000 -0.2500000
v -0.7500000 -0.1750000 0.2500000
v -0.7250000 -0.1750000 0.2250000
v 0.7250000 -0.1750000 0.2250000
v 0.7500000 -0.1750000 0.2500000
v -0.7250000 -0.1750000 -0.2250000
v -0.7250000 -0.1750000 0.2250000
v -0.7500000 -0.1750000 0.2500000
v -0.7500000 -0.1750000 -0.2500000
v 0.7250000 -0.1750000 0.2250000
v 0.7250000 -0.1750000 -0.2250000
v 0.7500000 -0.1750000 -0.2500000
v 0.7500000 -0.1750000 0.2500000
v 0.7250000 -0.2000000 -0.2250000
v 0.6500000 -0.2000000 -0.1500000
v -0.6500000 -0.2000000 -0.1500000
v -0.7250000 -0.2000000 -0.2250000
v -0.7250000 -0.2000000 0.2250000
v -0.6500000 -0.2000000 0.1500000
v 0.6500000 -0.2000000 0.1500000
v 0.7250000 -0.2000000 0.2250000
v -0.6500000 -0.2000000 -0.1500000
v -0.6500000 -0.2000000 0.1500000
v -0.7250000 -0.2000000 0.2250000
v -0.7250000 -0.2000000 -0.2250000
v 0.6500000 -0.2000000 0.1500000
v 0.6500000 -0.2000000 -0.1500000
v 0.7250000 -0.2000000 -0.2250000
v 0.7250000 -0.2000000 0.2250000
s off
f 1 2 3
f 1 3 4
f 5 6 7
f 5 7 8
f 9 10 11
f 9 11 12
f 13 14 15
f 13 15 16
f 17 18 19
f 17 19 20
f 21 22 23
f 21 23 24
f 25 26 27
f 25 27 28
f 29 30 31
f 29 31 32
f 33 34 35
f 33 35 36
f 37 38 39
f 37 39 40
f 41 42 43
f 41 43 44
f 45 46 47
f 45 47 48
f 49 50 51
f 49 51 52
f 53 54 55
f 53 55 56
f 57 58 59
f 60 61 62
f 63 64 65
f 66 67 68
f 69 70 71
f 72 73 74
f 75 76 77
f 78 79 80
f 81 82 83
f 84 85 86
f 87 88 89
f 90 91 92
f 93 94 95
f 96 97 98
f 99 100 101
f 102 103 104
f 105 106 107
f 105 107 108
f 109 110 111
f 109 111 112
f 113 114 115
f 113 115 116
f 117 118 119
f 117 119 120
f 121 122 123
f 121 123 124
f 125 126 127
f 125 127 128
f 129 130 131
f 129 131 132
f 133 134 135
f 133 135 136
f 137 138 139
f 137 139 140
f 141 142 143
f 141 143 144
f 145 146 147
f 145 147 148
f 149 150 151
f 149 151 152
f 153 154 155
f 153 155 156
f 157 158 159
f 157 159 160
f 161 162 163
f 161 163 164
f 165 166 167
f 165 167 168
f 169 170 171
f 172 173 174
f 175 176 177
f 178 179 180
f 181 182 183
f 184 185 186
f 187 188 189
f 190 191 192
f 193 194 195
f 196 197 198
f 199 200 201
f 202 203 204
f 205 206 207
f 208 209 210
f 211 212 213
f 214 215 216
f 217 218 219
f 217 219 220
f 221 222 223
f 221 223 224
f 225 226 227
f 225 227 228
f 229 230 231
f 229 231 232
f 233 234 235
f 233 235 236
f 237 238 239
f 237 239 240
f 241 242 243
f 241 243 244
f 245 246 247
f 245 247 248
f 249 250 251
f 249 251 252
f 253 254 255
f 253 255 256
f 257 258 259
f 257 259 260
f 261 262 263
f 261 263 264
f 265 266 267
f 265 267 268
f 269 270 271
f 269 271 272
f 273 274 275
f 273 275 276
f 277 278 279
f 277 279 280
f 281 282 283
f 281 283 284
f 285 286 287
f 285 287 288
f 289 290 291
f 289 291 292
f 293 294 295
f 293 295 296
f 297 298 299
f 297 299 300
f 301 302 303
f 301 303 304
f 305 306 307
f 305 307 308
f 309 310 311
f 309 311 312
