# Baked from official LDraw part 85984.dat
o ldraw_85984
v -0.3074000 0.1000000 -0.1385750
v -0.3277250 0.1000000 -0.1250000
v -0.3074000 0.0918500 -0.1385750
v -0.3074000 0.0918500 -0.1385750
v -0.2500000 0.0850000 -0.1500000
v -0.2500000 0.1000000 -0.1500000
v -0.3074000 0.1000000 -0.1385750
v -0.2500000 0.0850000 -0.1500000
v -0.1926000 0.0918500 -0.1385750
v -0.1926000 0.1000000 -0.1385750
v -0.2500000 0.1000000 -0.1500000
v -0.1926000 0.0918500 -0.1385750
v -0.1722750 0.1000000 -0.1250000
v -0.1926000 0.1000000 -0.1385750
v -0.1926000 0.1000000 -0.1385750
v -0.1722750 0.1000000 -0.1250000
v -0.3277250 0.1000000 -0.1250000
v -0.3074000 0.1000000 -0.1385750
v -0.2500000 0.1000000 -0.1500000
v -0.1926000 0.1000000 -0.1385750
v -0.3074000 0.1000000 -0.1385750
v 0.1926000 0.1000000 -0.1385750
v 0.1722750 0.1000000 -0.1250000
v 0.1926000 0.0918500 -0.1385750
v 0.1926000 0.0918500 -0.1385750
v 0.2500000 0.0850000 -0.1500000
v 0.2500000 0.1000000 -0.1500000
v 0.1926000 0.1000000 -0.1385750
v 0.2500000 0.0850000 -0.1500000
v 0.3074000 0.0918500 -0.1385750
v 0.3074000 0.1000000 -0.1385750
v 0.2500000 0.1000000 -0.1500000
v 0.3074000 0.0918500 -0.1385750
v 0.3277250 0.1000000 -0.1250000
v 0.3074000 0.1000000 -0.1385750
v 0.3074000 0.1000000 -0.1385750
v 0.3277250 0.1000000 -0.1250000
v 0.1722750 0.1000000 -0.1250000
v 0.1926000 0.1000000 -0.1385750
v 0.3074000 0.1000000 -0.1385750
v 0.1926000 0.1000000 -0.1385750
v 0.2500000 0.1000000 -0.1500000
v -0.4000000 0.0850000 -0.1500000
v -0.3074000 0.0918500 -0.1385750
v -0.3277250 0.1000000 -0.1250000
v -0.3074000 0.0918500 -0.1385750
v -0.4000000 0.0850000 -0.1500000
v -0.2500000 0.0850000 -0.1500000
v -0.1722750 0.1000000 -0.1250000
v -0.1926000 0.0918500 -0.1385750
v 0.1926000 0.0918500 -0.1385750
v 0.1722750 0.1000000 -0.1250000
v -0.1926000 0.0918500 -0.1385750
v -0.2500000 0.0850000 -0.1500000
v 0.2500000 0.0850000 -0.1500000
v 0.1926000 0.0918500 -0.1385750
v 0.2500000 0.0850000 -0.1500000
v 0.4000000 0.0850000 -0.1500000
v 0.3074000 0.0918500 -0.1385750
v 0.3074000 0.0918500 -0.1385750
v 0.4000000 0.0850000 -0.1500000
v 0.3277250 0.1000000 -0.1250000
v -0.4000000 0.2650000 0.1500000
v -0.4000000 0.0850000 -0.1500000
v -0.3277250 0.1000000 -0.1250000
v -0.4000000 0.2650000 0.1500000
v -0.3277250 0.1000000 -0.1250000
v -0.1722750 0.1000000 -0.1250000
v -0.4000000 0.2650000 0.1500000
v -0.1722750 0.1000000 -0.1250000
v 0.1722750 0.1000000 -0.1250000
v 0.4000000 0.2650000 0.1500000
v 0.3277250 0.1000000 -0.1250000
v 0.4000000 0.0850000 -0.1500000
v 0.4000000 0.2650000 0.1500000
v 0.1722750 0.1000000 -0.1250000
v 0.3277250 0.1000000 -0.1250000
v 0.4000000 0.2650000 0.1500000
v -0.4000000 -0.0000000 0.1500000
v -0.4000000 0.2650000 0.1500000
v 0.4000000 0.2650000 0.1500000
v 0.4000000 -0.0000000 0.1500000
v -0.4000000 -0.0000000 -0.1500000
v 0.4000000 -0.0000000 -0.1500000
v 0.4000000 0.0850000 -0.1500000
v -0.4000000 0.0850000 -0.1500000
v 0.4000000 0.0850000 -0.1500000
v 0.4000000 -0.0000000 -0.1500000
v 0.4000000 -0.0000000 0.1500000
v 0.4000000 0.2650000 0.1500000
v -0.4000000 -0.0000000 0.1500000
v -0.4000000 -0.0000000 -0.1500000
v -0.4000000 0.0850000 -0.1500000
v -0.4000000 0.2650000 0.1500000
v 0.4750000 -0.0000000 -0.2250000
v 0.4750000 0.0250000 -0.2250000
v 0.4750000 0.0250000 0.2250000
v 0.4750000 -0.0000000 0.2250000
v 0.4750000 -0.0000000 0.2250000
v 0.4750000 0.0250000 0.2250000
v -0.4750000 0.0250000 0.2250000
v -0.4750000 -0.0000000 0.2250000
v -0.4750000 -0.0000000 0.2250000
v -0.4750000 0.0250000 0.2250000
v -0.4750000 0.0250000 -0.2250000
v -0.4750000 -0.0000000 -0.2250000
v -0.4750000 -0.0000000 -0.2250000
v -0.4750000 0.0250000 -0.2250000
v 0.4750000 0.0250000 -0.2250000
v 0.4750000 -0.0000000 -0.2250000
v 0.4750000 -0.0000000 -0.2250000
v 0.4750000 -0.0000000 0.2250000
v 0.4000000 -0.0000000 0.1500000
v 0.4000000 -0.0000000 -0.1500000
v -0.4750000 -0.0000000 0.2250000
v -0.4750000 -0.0000000 -0.2250000
v -0.4000000 -0.0000000 -0.1500000
v -0.4000000 -0.0000000 0.1500000
v -0.4750000 -0.0000000 -0.2250000
v 0.4750000 -0.0000000 -0.2250000
v 0.4000000 -0.0000000 -0.1500000
v -0.4000000 -0.0000000 -0.1500000
v 0.4750000 -0.0000000 0.2250000
v -0.4750000 -0.0000000 0.2250000
v -0.4000000 -0.0000000 0.1500000
v 0.4000000 -0.0000000 0.1500000
v 0.5000000 0.0250000 -0.2500000
v 0.4750000 0.0250000 -0.2250000
v -0.4750000 0.0250000 -0.2250000
v -0.5000000 0.0250000 -0.2500000
v -0.5000000 0.0250000 -0.2500000
v -0.5000000 0.1000000 -0.2500000
v 0.5000000 0.1000000 -0.2500000
v 0.5000000 0.0250000 -0.2500000
v 0.0000000 0.1150000 -0.1000000
v -0.0382700 0.1150000 -0.0923900
v -0.0382700 0.1195660 -0.0923900
v -0.0382700 0.1150000 -0.0923900
v -0.0707100 0.1150000 -0.0707100
v -0.0707100 0.1325740 -0.0707100
v -0.0382700 0.1195660 -0.0923900
v -0.0707100 0.1150000 -0.0707100
v -0.0923900 0.1150000 -0.0382700
v -0.0923900 0.1520380 -0.0382700
v -0.0707100 0.1325740 -0.0707100
v -0.0923900 0.1150000 -0.0382700
v -0.1000000 0.1150000 0.0000000
v -0.1000000 0.1750000 0.0000000
v -0.0923900 0.1520380 -0.0382700
v -0.1000000 0.1150000 0.0000000
v -0.0923900 0.1150000 0.0382700
v -0.0923900 0.1979620 0.0382700
v -0.1000000 0.1750000 0.0000000
v -0.0923900 0.1150000 0.0382700
v -0.0707100 0.1150000 0.0707100
v -0.0707100 0.2174260 0.0707100
v -0.0923900 0.1979620 0.0382700
v -0.0707100 0.1150000 0.0707100
v -0.0382700 0.1150000 0.0923900
v -0.0382700 0.2304340 0.0923900
v -0.0707100 0.2174260 0.0707100
v -0.0382700 0.1150000 0.0923900
v 0.0000000 0.1150000 0.1000000
v 0.0000000 0.2350000 0.1000000
v -0.0382700 0.2304340 0.0923900
v 0.0000000 0.1150000 0.1000000
v 0.0382700 0.1150000 0.0923900
v 0.0382700 0.2304340 0.0923900
v 0.0000000 0.2350000 0.1000000
v 0.0382700 0.1150000 0.0923900
v 0.0707100 0.1150000 0.0707100
v 0.0707100 0.2174260 0.0707100
v 0.0382700 0.2304340 0.0923900
v 0.0707100 0.1150000 0.0707100
v 0.0923900 0.1150000 0.0382700
v 0.0923900 0.1979620 0.0382700
v 0.0707100 0.2174260 0.0707100
v 0.0923900 0.1150000 0.0382700
v 0.1000000 0.1150000 0.0000000
v 0.1000000 0.1750000 0.0000000
v 0.0923900 0.1979620 0.0382700
v 0.1000000 0.1150000 0.0000000
v 0.0923900 0.1150000 -0.0382700
v 0.0923900 0.1520380 -0.0382700
v 0.1000000 0.1750000 0.0000000
v 0.0923900 0.1150000 -0.0382700
v 0.0707100 0.1150000 -0.0707100
v 0.0707100 0.1325740 -0.0707100
v 0.0923900 0.1520380 -0.0382700
v 0.0707100 0.1150000 -0.0707100
v 0.0382700 0.1150000 -0.0923900
v 0.0382700 0.1195660 -0.0923900
v 0.0707100 0.1325740 -0.0707100
v 0.0000000 0.1150000 -0.1000000
v 0.0382700 0.1195660 -0.0923900
v 0.0382700 0.1150000 -0.0923900
v 0.0000000 -0.0000000 0.0000000
v 0.1000000 -0.0000000 0.0000000
v 0.0923900 -0.0000000 0.0382700
v 0.0000000 -0.0000000 0.0000000
v 0.0923900 -0.0000000 0.0382700
v 0.0707100 -0.0000000 0.0707100
v 0.0000000 -0.0000000 0.0000000
v 0.0707100 -0.0000000 0.0707100
v 0.0382700 -0.0000000 0.0923900
v 0.0000000 -0.0000000 0.0000000
v 0.0382700 -0.0000000 0.0923900
v 0.0000000 -0.0000000 0.1000000
v 0.0000000 -0.0000000 0.0000000
v 0.0000000 -0.0000000 0.1000000
v -0.0382700 -0.0000000 0.0923900
v 0.0000000 -0.0000000 0.0000000
v -0.0382700 -0.0000000 0.0923900
v -0.0707100 -0.0000000 0.0707100
v 0.0000000 -0.0000000 0.0000000
v -0.0707100 -0.0000000 0.0707100
v -0.0923900 -0.0000000 0.0382700
v 0.0000000 -0.0000000 0.0000000
v -0.0923900 -0.0000000 0.0382700
v -0.1000000 -0.0000000 0.0000000
v 0.0000000 -0.0000000 0.0000000
v -0.1000000 -0.0000000 0.0000000
v -0.0923900 -0.0000000 -0.0382700
v 0.0000000 -0.0000000 0.0000000
v -0.0923900 -0.0000000 -0.0382700
v -0.0707100 -0.0000000 -0.0707100
v 0.0000000 -0.0000000 0.0000000
v -0.0707100 -0.0000000 -0.0707100
v -0.0382700 -0.0000000 -0.0923900
v 0.0000000 -0.0000000 0.0000000
v -0.0382700 -0.0000000 -0.0923900
v 0.0000000 -0.0000000 -0.1000000
v 0.0000000 -0.0000000 0.0000000
v 0.0000000 -0.0000000 -0.1000000
v 0.0382700 -0.0000000 -0.0923900
v 0.0000000 -0.0000000 0.0000000
v 0.0382700 -0.0000000 -0.0923900
v 0.0707100 -0.0000000 -0.0707100
v 0.0000000 -0.0000000 0.0000000
v 0.0707100 -0.0000000 -0.0707100
v 0.0923900 -0.0000000 -0.0382700
v 0.0000000 -0.0000000 0.0000000
v 0.0923900 -0.0000000 -0.0382700
v 0.1000000 -0.0000000 0.0000000
v 0.1000000 0.1150000 0.0000000
v 0.0923900 0.1150000 0.0382700
v 0.0923900 -0.0000000 0.0382700
v 0.1000000 -0.0000000 0.0000000
v 0.0923900 0.1150000 0.0382700
v 0.0707100 0.1150000 0.0707100
v 0.0707100 -0.0000000 0.0707100
v 0.0923900 -0.0000000 0.0382700
v 0.0707100 0.1150000 0.0707100
v 0.0382700 0.1150000 0.0923900
v 0.0382700 -0.0000000 0.0923900
v 0.0707100 -0.0000000 0.0707100
v 0.0382700 0.1150000 0.0923900
v 0.0000000 0.1150000 0.1000000
v 0.0000000 -0.0000000 0.1000000
v 0.0382700 -0.0000000 0.0923900
v 0.0000000 0.1150000 0.1000000
v -0.0382700 0.1150000 0.0923900
v -0.0382700 -0.0000000 0.0923900
v 0.0000000 -0.0000000 0.1000000
v -0.0382700 0.1150000 0.0923900
v -0.0707100 0.1150000 0.0707100
v -0.0707100 -0.0000000 0.0707100
v -0.0382700 -0.0000000 0.0923900
v -0.0707100 0.1150000 0.0707100
v -0.0923900 0.1150000 0.0382700
v -0.0923900 -0.0000000 0.0382700
v -0.0707100 -0.0000000 0.0707100
v -0.0923900 0.1150000 0.0382700
v -0.1000000 0.1150000 0.0000000
v -0.1000000 -0.0000000 0.0000000
v -0.0923900 -0.0000000 0.0382700
v -0.1000000 0.1150000 0.0000000
v -0.0923900 0.1150000 -0.0382700
v -0.0923900 -0.0000000 -0.0382700
v -0.1000000 -0.0000000 0.0000000
v -0.0923900 0.1150000 -0.0382700
v -0.0707100 0.1150000 -0.0707100
v -0.0707100 -0.0000000 -0.0707100
v -0.0923900 -0.0000000 -0.0382700
v -0.0707100 0.1150000 -0.0707100
v -0.0382700 0.1150000 -0.0923900
v -0.0382700 -0.0000000 -0.0923900
v -0.0707100 -0.0000000 -0.0707100
v -0.0382700 0.1150000 -0.0923900
v 0.0000000 0.1150000 -0.1000000
v 0.0000000 -0.0000000 -0.1000000
v -0.0382700 -0.0000000 -0.0923900
v 0.0000000 0.1150000 -0.1000000
v 0.0382700 0.1150000 -0.0923900
v 0.0382700 -0.0000000 -0.0923900
v 0.0000000 -0.0000000 -0.1000000
v 0.0382700 0.1150000 -0.0923900
v 0.0707100 0.1150000 -0.0707100
v 0.0707100 -0.0000000 -0.0707100
v 0.0382700 -0.0000000 -0.0923900
v 0.0707100 0.1150000 -0.0707100
v 0.0923900 0.1150000 -0.0382700
v 0.0923900 -0.0000000 -0.0382700
v 0.0707100 -0.0000000 -0.0707100
v 0.0923900 0.1150000 -0.0382700
v 0.1000000 0.1150000 0.0000000
v 0.1000000 -0.0000000 0.0000000
v 0.0923900 -0.0000000 -0.0382700
v 0.4852500 0.3752500 0.2500000
v 0.4852500 0.3752500 0.2087500
v 0.4500000 0.3900000 0.2333325
v 0.4500000 0.3900000 0.2500000
v 0.5000000 0.3400000 0.2500000
v 0.5000000 0.3400000 0.1500000
v 0.4852500 0.3752500 0.2087500
v 0.4852500 0.3752500 0.2500000
v 0.5000000 0.1000000 -0.2500000
v 0.5000000 0.3400000 0.1500000
v 0.5000000 0.3400000 0.2500000
v 0.5000000 0.0250000 0.2500000
v 0.5000000 0.0250000 0.2500000
v 0.5000000 0.0250000 -0.2500000
v 0.5000000 0.1000000 -0.2500000
v 0.5000000 0.3400000 0.2500000
v 0.4852500 0.3752500 0.2500000
v 0.4500000 0.3900000 0.2500000
v -0.4852500 0.3752500 0.2500000
v -0.4500000 0.3900000 0.2500000
v -0.4500000 0.3900000 0.2333325
v -0.4852500 0.3752500 0.2087500
v -0.5000000 0.3400000 0.2500000
v -0.4852500 0.3752500 0.2500000
v -0.4852500 0.3752500 0.2087500
v -0.5000000 0.3400000 0.1500000
v -0.5000000 0.1000000 -0.2500000
v -0.5000000 0.0250000 0.2500000
v -0.5000000 0.3400000 0.2500000
v -0.5000000 0.3400000 0.1500000
v -0.5000000 0.0250000 0.2500000
v -0.5000000 0.1000000 -0.2500000
v -0.5000000 0.0250000 -0.2500000
v -0.5000000 0.3400000 0.2500000
v -0.4500000 0.3900000 0.2500000
v -0.4852500 0.3752500 0.2500000
v 0.4500000 0.3900000 0.2500000
v 0.4500000 0.3900000 0.2333325
v -0.4500000 0.3900000 0.2333325
v -0.4500000 0.3900000 0.2500000
v 0.5000000 0.3400000 0.2500000
v 0.4500000 0.3900000 0.2500000
v -0.4500000 0.3900000 0.2500000
v -0.5000000 0.3400000 0.2500000
v 0.5000000 0.0250000 0.2500000
v 0.5000000 0.3400000 0.2500000
v -0.5000000 0.3400000 0.2500000
v -0.5000000 0.0250000 0.2500000
v 0.5000000 0.0250000 -0.2500000
v 0.5000000 0.0250000 0.2500000
v 0.4750000 0.0250000 0.2250000
v 0.4750000 0.0250000 -0.2250000
v -0.4750000 0.0250000 0.2250000
v 0.4750000 0.0250000 0.2250000
v 0.5000000 0.0250000 0.2500000
v -0.5000000 0.0250000 0.2500000
v -0.4750000 0.0250000 -0.2250000
v -0.4750000 0.0250000 0.2250000
v -0.5000000 0.0250000 0.2500000
v -0.5000000 0.0250000 -0.2500000
v 0.5000000 0.3400000 0.1500000
v 0.4500000 0.3900000 0.2333325
v 0.4852500 0.3752500 0.2087500
v -0.5000000 0.3400000 0.1500000
v -0.4852500 0.3752500 0.2087500
v -0.4500000 0.3900000 0.2333325
v 0.4500000 0.3900000 0.2333325
v 0.5000000 0.3400000 0.1500000
v -0.5000000 0.3400000 0.1500000
v -0.4500000 0.3900000 0.2333325
v -0.5000000 0.3400000 0.1500000
v 0.5000000 0.3400000 0.1500000
v 0.5000000 0.1000000 -0.2500000
v -0.5000000 0.1000000 -0.2500000
s off
f 1 2 3
f 4 5 6
f 4 6 7
f 8 9 10
f 8 10 11
f 12 13 14
f 15 16 17
f 15 17 18
f 19 20 21
f 22 23 24
f 25 26 27
f 25 27 28
f 29 30 31
f 29 31 32
f 33 34 35
f 36 37 38
f 36 38 39
f 40 41 42
f 43 44 45
f 46 47 48
f 49 50 51
f 49 51 52
f 53 54 55
f 53 55 56
f 57 58 59
f 60 61 62
f 63 64 65
f 66 67 68
f 69 70 71
f 69 71 72
f 73 74 75
f 76 77 78
f 79 80 81
f 79 81 82
f 83 84 85
f 83 85 86
f 87 88 89
f 87 89 90
f 91 92 93
f 91 93 94
f 95 96 97
f 95 97 98
f 99 100 101
f 99 101 102
f 103 104 105
f 103 105 106
f 107 108 109
f 107 109 110
f 111 112 113
f 111 113 114
f 115 116 117
f 115 117 118
f 119 120 121
f 119 121 122
f 123 124 125
f 123 125 126
f 127 128 129
f 127 129 130
f 131 132 133
f 131 133 134
f 135 136 137
f 138 139 140
f 138 140 141
f 142 143 144
f 142 144 145
f 146 147 148
f 146 148 149
f 150 151 152
f 150 152 153
f 154 155 156
f 154 156 157
f 158 159 160
f 158 160 161
f 162 163 164
f 162 164 165
f 166 167 168
f 166 168 169
f 170 171 172
f 170 172 173
f 174 175 176
f 174 176 177
f 178 179 180
f 178 180 181
f 182 183 184
f 182 184 185
f 186 187 188
f 186 188 189
f 190 191 192
f 190 192 193
f 194 195 196
f 197 198 199
f 200 201 202
f 203 204 205
f 206 207 208
f 209 210 211
f 212 213 214
f 215 216 217
f 218 219 220
f 221 222 223
f 224 225 226
f 227 228 229
f 230 231 232
f 233 234 235
f 236 237 238
f 239 240 241
f 242 243 244
f 245 246 247
f 245 247 248
f 249 250 251
f 249 251 252
f 253 254 255
f 253 255 256
f 257 258 259
f 257 259 260
f 261 262 263
f 261 263 264
f 265 266 267
f 265 267 268
f 269 270 271
f 269 271 272
f 273 274 275
f 273 275 276
f 277 278 279
f 277 279 280
f 281 282 283
f 281 283 284
f 285 286 287
f 285 287 288
f 289 290 291
f 289 291 292
f 293 294 295
f 293 295 296
f 297 298 299
f 297 299 300
f 301 302 303
f 301 303 304
f 305 306 307
f 305 307 308
f 309 310 311
f 309 311 312
f 313 314 315
f 313 315 316
f 317 318 319
f 317 319 320
f 321 322 323
f 324 325 326
f 327 328 329
f 327 329 330
f 331 332 333
f 331 333 334
f 335 336 337
f 335 337 338
f 339 340 341
f 342 343 344
f 345 346 347
f 345 347 348
f 349 350 351
f 349 351 352
f 353 354 355
f 353 355 356
f 357 358 359
f 357 359 360
f 361 362 363
f 361 363 364
f 365 366 367
f 365 367 368
f 369 370 371
f 372 373 374
f 375 376 377
f 375 377 378
f 379 380 381
f 379 381 382
