# Baked from official LDraw part 87994.dat
o ldraw_87994
v 0.0923900 -0.0000000 0.0382700
v 0.1000000 -0.0000000 0.0000000
v 0.0000000 -0.0000000 0.0000000
v 0.0707100 -0.0000000 0.0707100
v 0.0923900 -0.0000000 0.0382700
v 0.0000000 -0.0000000 0.0000000
v 0.0382700 -0.0000000 0.0923900
v 0.0707100 -0.0000000 0.0707100
v 0.0000000 -0.0000000 0.0000000
v 0.0000000 -0.0000000 0.1000000
v 0.0382700 -0.0000000 0.0923900
v 0.0000000 -0.0000000 0.0000000
v -0.0382700 -0.0000000 0.0923900
v 0.0000000 -0.0000000 0.1000000
v 0.0000000 -0.0000000 0.0000000
v -0.0707100 -0.0000000 0.0707100
v -0.0382700 -0.0000000 0.0923900
v 0.0000000 -0.0000000 0.0000000
v -0.0923900 -0.0000000 0.0382700
v -0.0707100 -0.0000000 0.0707100
v 0.0000000 -0.0000000 0.0000000
v -0.1000000 -0.0000000 0.0000000
v -0.0923900 -0.0000000 0.0382700
v 0.0000000 -0.0000000 0.0000000
v -0.0923900 -0.0000000 -0.0382700
v -0.1000000 -0.0000000 0.0000000
v 0.0000000 -0.0000000 0.0000000
v -0.0707100 -0.0000000 -0.0707100
v -0.0923900 -0.0000000 -0.0382700
v 0.0000000 -0.0000000 0.0000000
v -0.0382700 -0.0000000 -0.0923900
v -0.0707100 -0.0000000 -0.0707100
v 0.0000000 -0.0000000 0.0000000
v 0.0000000 -0.0000000 -0.1000000
v -0.0382700 -0.0000000 -0.0923900
v 0.0000000 -0.0000000 0.0000000
v 0.0382700 -0.0000000 -0.0923900
v 0.0000000 -0.0000000 -0.1000000
v 0.0000000 -0.0000000 0.0000000
v 0.0707100 -0.0000000 -0.0707100
v 0.0382700 -0.0000000 -0.0923900
v 0.0000000 -0.0000000 0.0000000
v 0.0923900 -0.0000000 -0.0382700
v 0.0707100 -0.0000000 -0.0707100
v 0.0000000 -0.0000000 0.0000000
v 0.1000000 -0.0000000 0.0000000
v 0.0923900 -0.0000000 -0.0382700
v 0.0000000 -0.0000000 0.0000000
v 0.1000000 -0.0000000 0.0000000
v 0.0923900 -0.0000000 0.0382700
v 0.0923900 -1.5000000 0.0382700
v 0.1000000 -1.5000000 0.0000000
v 0.0923900 -0.0000000 0.0382700
v 0.0707100 -0.0000000 0.0707100
v 0.0707100 -1.5000000 0.0707100
v 0.0923900 -1.5000000 0.0382700
v 0.0707100 -0.0000000 0.0707100
v 0.0382700 -0.0000000 0.0923900
v 0.0382700 -1.5000000 0.0923900
v 0.0707100 -1.5000000 0.0707100
v 0.0382700 -0.0000000 0.0923900
v 0.0000000 -0.0000000 0.1000000
v 0.0000000 -1.5000000 0.1000000
v 0.0382700 -1.5000000 0.0923900
v 0.0000000 -0.0000000 0.1000000
v -0.0382700 -0.0000000 0.0923900
v -0.0382700 -1.5000000 0.0923900
v 0.0000000 -1.5000000 0.1000000
v -0.0382700 -0.0000000 0.0923900
v -0.0707100 -0.0000000 0.0707100
v -0.0707100 -1.5000000 0.0707100
v -0.0382700 -1.5000000 0.0923900
v -0.0707100 -0.0000000 0.0707100
v -0.0923900 -0.0000000 0.0382700
v -0.0923900 -1.5000000 0.0382700
v -0.0707100 -1.5000000 0.0707100
v -0.0923900 -0.0000000 0.0382700
v -0.1000000 -0.0000000 0.0000000
v -0.1000000 -1.5000000 0.0000000
v -0.0923900 -1.5000000 0.0382700
v -0.1000000 -0.0000000 0.0000000
v -0.0923900 -0.0000000 -0.0382700
v -0.0923900 -1.5000000 -0.0382700
v -0.1000000 -1.5000000 0.0000000
v -0.0923900 -0.0000000 -0.0382700
v -0.0707100 -0.0000000 -0.0707100
v -0.0707100 -1.5000000 -0.0707100
v -0.0923900 -1.5000000 -0.0382700
v -0.0707100 -0.0000000 -0.0707100
v -0.0382700 -0.0000000 -0.0923900
v -0.0382700 -1.5000000 -0.0923900
v -0.0707100 -1.5000000 -0.0707100
v -0.0382700 -0.0000000 -0.0923900
v 0.0000000 -0.0000000 -0.1000000
v 0.0000000 -1.5000000 -0.1000000
v -0.0382700 -1.5000000 -0.0923900
v 0.0000000 -0.0000000 -0.1000000
v 0.0382700 -0.0000000 -0.0923900
v 0.0382700 -1.5000000 -0.0923900
v 0.0000000 -1.5000000 -0.1000000
v 0.0382700 -0.0000000 -0.0923900
v 0.0707100 -0.0000000 -0.0707100
v 0.0707100 -1.5000000 -0.0707100
v 0.0382700 -1.5000000 -0.0923900
v 0.0707100 -0.0000000 -0.0707100
v 0.0923900 -0.0000000 -0.0382700
v 0.0923900 -1.5000000 -0.0382700
v 0.0707100 -1.5000000 -0.0707100
v 0.0923900 -0.0000000 -0.0382700
v 0.1000000 -0.0000000 0.0000000
v 0.1000000 -1.5000000 0.0000000
v 0.0923900 -1.5000000 -0.0382700
v -0.0923900 -1.5000000 0.0382700
v -0.1000000 -1.5000000 0.0000000
v 0.0000000 -1.5000000 0.0000000
v -0.0707100 -1.5000000 0.0707100
v -0.0923900 -1.5000000 0.0382700
v 0.0000000 -1.5000000 0.0000000
v -0.0382700 -1.5000000 0.0923900
v -0.0707100 -1.5000000 0.0707100
v 0.0000000 -1.5000000 0.0000000
v 0.0000000 -1.5000000 0.1000000
v -0.0382700 -1.5000000 0.0923900
v 0.0000000 -1.5000000 0.0000000
v 0.0382700 -1.5000000 0.0923900
v 0.0000000 -1.5000000 0.1000000
v 0.0000000 -1.5000000 0.0000000
v 0.0707100 -1.5000000 0.0707100
v 0.0382700 -1.5000000 0.0923900
v 0.0000000 -1.5000000 0.0000000
v 0.0923900 -1.5000000 0.0382700
v 0.0707100 -1.5000000 0.0707100
v 0.0000000 -1.5000000 0.0000000
v 0.1000000 -1.5000000 0.0000000
v 0.0923900 -1.5000000 0.0382700
v 0.0000000 -1.5000000 0.0000000
v 0.0923900 -1.5000000 -0.0382700
v 0.1000000 -1.5000000 0.0000000
v 0.0000000 -1.5000000 0.0000000
v 0.0707100 -1.5000000 -0.0707100
v 0.0923900 -1.5000000 -0.0382700
v 0.0000000 -1.5000000 0.0000000
v 0.0382700 -1.5000000 -0.0923900
v 0.0707100 -1.5000000 -0.0707100
v 0.0000000 -1.5000000 0.0000000
v 0.0000000 -1.5000000 -0.1000000
v 0.0382700 -1.5000000 -0.0923900
v 0.0000000 -1.5000000 0.0000000
v -0.0382700 -1.5000000 -0.0923900
v 0.0000000 -1.5000000 -0.1000000
v 0.0000000 -1.5000000 0.0000000
v -0.0707100 -1.5000000 -0.0707100
v -0.0382700 -1.5000000 -0.0923900
v 0.0000000 -1.5000000 0.0000000
v -0.0923900 -1.5000000 -0.0382700
v -0.0707100 -1.5000000 -0.0707100
v 0.0000000 -1.5000000 0.0000000
v -0.1000000 -1.5000000 0.0000000
v -0.0923900 -1.5000000 -0.0382700
v 0.0000000 -1.5000000 0.0000000
s off
f 1 2 3
f 4 5 6
f 7 8 9
f 10 11 12
f 13 14 15
f 16 17 18
f 19 20 21
f 22 23 24
f 25 26 27
f 28 29 30
f 31 32 33
f 34 35 36
f 37 38 39
f 40 41 42
f 43 44 45
f 46 47 48
f 49 50 51
f 49 51 52
f 53 54 55
f 53 55 56
f 57 58 59
f 57 59 60
f 61 62 63
f 61 63 64
f 65 66 67
f 65 67 68
f 69 70 71
f 69 71 72
f 73 74 75
f 73 75 76
f 77 78 79
f 77 79 80
f 81 82 83
f 81 83 84
f 85 86 87
f 85 87 88
f 89 90 91
f 89 91 92
f 93 94 95
f 93 95 96
f 97 98 99
f 97 99 100
f 101 102 103
f 101 103 104
f 105 106 107
f 105 107 108
f 109 110 111
f 109 111 112
f 113 114 115
f 116 117 118
f 119 120 121
f 122 123 124
f 125 126 127
f 128 129 130
f 131 132 133
f 134 135 136
f 137 138 139
f 140 141 142
f 143 144 145
f 146 147 148
f 149 150 151
f 152 153 154
f 155 156 157
f 158 159 160
