# Baked from official LDraw part 92947.dat
o ldraw_92947
v -0.0697750 -0.4000000 0.1303250
v -0.1060750 -0.4000000 0.1060750
v -0.1303250 -0.4000000 0.0697750
v -0.0625000 -0.4000000 0.0625000
v 0.0697750 -0.4000000 -0.1303250
v 0.1060750 -0.4000000 -0.1060750
v 0.1303250 -0.4000000 -0.0697750
v 0.0625000 -0.4000000 -0.0625000
v 0.0500000 -0.4000000 0.1000000
v 0.1060750 -0.4000000 0.1060750
v 0.0574000 -0.4000000 0.1385750
v 0.0500000 -0.4000000 0.1400500
v 0.0625000 -0.4000000 0.0625000
v 0.1000000 -0.4000000 0.0500000
v 0.1060750 -0.4000000 0.1060750
v 0.0500000 -0.4000000 0.1000000
v 0.1060750 -0.4000000 0.1060750
v 0.1000000 -0.4000000 0.0500000
v 0.1400500 -0.4000000 0.0500000
v 0.1385750 -0.4000000 0.0574000
v -0.0500000 -0.4000000 -0.1000000
v -0.1060750 -0.4000000 -0.1060750
v -0.0574000 -0.4000000 -0.1385750
v -0.0500000 -0.4000000 -0.1400500
v -0.0625000 -0.4000000 -0.0625000
v -0.1000000 -0.4000000 -0.0500000
v -0.1060750 -0.4000000 -0.1060750
v -0.0500000 -0.4000000 -0.1000000
v -0.1060750 -0.4000000 -0.1060750
v -0.1000000 -0.4000000 -0.0500000
v -0.1400500 -0.4000000 -0.0500000
v -0.1385750 -0.4000000 -0.0574000
v -0.1303250 -0.4000000 0.0697750
v -0.1303250 -0.0000000 0.0697750
v -0.0625000 -0.0000000 0.0625000
v -0.0625000 -0.4000000 0.0625000
v -0.0625000 -0.4000000 0.0625000
v -0.0625000 -0.0000000 0.0625000
v -0.0697750 -0.0000000 0.1303250
v -0.0697750 -0.4000000 0.1303250
v -0.0574000 -0.4000000 0.1385750
v -0.0574000 -0.0000000 0.1385750
v 0.0000000 -0.0000000 0.1500000
v 0.0000000 -0.4000000 0.1500000
v -0.0697750 -0.4000000 0.1303250
v -0.0697750 -0.0000000 0.1303250
v -0.0574000 -0.0000000 0.1385750
v -0.0574000 -0.4000000 0.1385750
v -0.1385750 -0.4000000 0.0574000
v -0.1385750 -0.0000000 0.0574000
v -0.1303250 -0.0000000 0.0697750
v -0.1303250 -0.4000000 0.0697750
v -0.1500000 -0.4000000 0.0000000
v -0.1500000 -0.0000000 0.0000000
v -0.1385750 -0.0000000 0.0574000
v -0.1385750 -0.4000000 0.0574000
v 0.1303250 -0.4000000 -0.0697750
v 0.1303250 -0.0000000 -0.0697750
v 0.0625000 -0.0000000 -0.0625000
v 0.0625000 -0.4000000 -0.0625000
v 0.0625000 -0.4000000 -0.0625000
v 0.0625000 -0.0000000 -0.0625000
v 0.0697750 -0.0000000 -0.1303250
v 0.0697750 -0.4000000 -0.1303250
v 0.0574000 -0.4000000 -0.1385750
v 0.0574000 -0.0000000 -0.1385750
v 0.0000000 -0.0000000 -0.1500000
v 0.0000000 -0.4000000 -0.1500000
v 0.0697750 -0.4000000 -0.1303250
v 0.0697750 -0.0000000 -0.1303250
v 0.0574000 -0.0000000 -0.1385750
v 0.0574000 -0.4000000 -0.1385750
v 0.1385750 -0.4000000 -0.0574000
v 0.1385750 -0.0000000 -0.0574000
v 0.1303250 -0.0000000 -0.0697750
v 0.1303250 -0.4000000 -0.0697750
v 0.1500000 -0.4000000 0.0000000
v 0.1500000 -0.0000000 0.0000000
v 0.1385750 -0.0000000 -0.0574000
v 0.1385750 -0.4000000 -0.0574000
v -0.1400500 -0.4000000 -0.0500000
v -0.1400500 -0.0000000 -0.0500000
v -0.1500000 -0.0000000 0.0000000
v -0.1500000 -0.4000000 0.0000000
v -0.1000000 -0.4000000 -0.0500000
v -0.1000000 -0.0000000 -0.0500000
v -0.1400500 -0.0000000 -0.0500000
v -0.1400500 -0.4000000 -0.0500000
v -0.0625000 -0.4000000 -0.0625000
v -0.0625000 -0.0000000 -0.0625000
v -0.1000000 -0.0000000 -0.0500000
v -0.1000000 -0.4000000 -0.0500000
v -0.0500000 -0.4000000 -0.1000000
v -0.0500000 -0.0000000 -0.1000000
v -0.0625000 -0.0000000 -0.0625000
v -0.0625000 -0.4000000 -0.0625000
v -0.0500000 -0.4000000 -0.1400500
v -0.0500000 -0.0000000 -0.1400500
v -0.0500000 -0.0000000 -0.1000000
v -0.0500000 -0.4000000 -0.1000000
v -0.0500000 -0.4000000 -0.1400500
v 0.0000000 -0.4000000 -0.1500000
v 0.0000000 -0.0000000 -0.1500000
v -0.0500000 -0.0000000 -0.1400500
v 0.1400500 -0.4000000 0.0500000
v 0.1400500 -0.0000000 0.0500000
v 0.1500000 -0.0000000 0.0000000
v 0.1500000 -0.4000000 0.0000000
v 0.1000000 -0.0000000 0.0500000
v 0.1400500 -0.0000000 0.0500000
v 0.1400500 -0.4000000 0.0500000
v 0.1000000 -0.4000000 0.0500000
v 0.0625000 -0.4000000 0.0625000
v 0.0625000 -0.0000000 0.0625000
v 0.1000000 -0.0000000 0.0500000
v 0.1000000 -0.4000000 0.0500000
v 0.0500000 -0.4000000 0.1000000
v 0.0500000 -0.0000000 0.1000000
v 0.0625000 -0.0000000 0.0625000
v 0.0625000 -0.4000000 0.0625000
v 0.0500000 -0.4000000 0.1400500
v 0.0500000 -0.0000000 0.1400500
v 0.0500000 -0.0000000 0.1000000
v 0.0500000 -0.4000000 0.1000000
v 0.0500000 -0.4000000 0.1400500
v 0.0000000 -0.4000000 0.1500000
v 0.0000000 -0.0000000 0.1500000
v 0.0500000 -0.0000000 0.1400500
v -0.1303250 -0.0000000 0.0697750
v -0.1060750 -0.0000000 0.1060750
v -0.0697750 -0.0000000 0.1303250
v -0.0625000 -0.0000000 0.0625000
v 0.1303250 -0.0000000 -0.0697750
v 0.1060750 -0.0000000 -0.1060750
v 0.0697750 -0.0000000 -0.1303250
v 0.0625000 -0.0000000 -0.0625000
v -0.1000000 -0.0000000 -0.0500000
v -0.1060750 -0.0000000 -0.1060750
v -0.1385750 -0.0000000 -0.0574000
v -0.1400500 -0.0000000 -0.0500000
v -0.0625000 -0.0000000 -0.0625000
v -0.0500000 -0.0000000 -0.1000000
v -0.1060750 -0.0000000 -0.1060750
v -0.1000000 -0.0000000 -0.0500000
v -0.1060750 -0.0000000 -0.1060750
v -0.0500000 -0.0000000 -0.1000000
v -0.0500000 -0.0000000 -0.1400500
v -0.0574000 -0.0000000 -0.1385750
v 0.1000000 -0.0000000 0.0500000
v 0.1060750 -0.0000000 0.1060750
v 0.1385750 -0.0000000 0.0574000
v 0.1400500 -0.0000000 0.0500000
v 0.0625000 -0.0000000 0.0625000
v 0.0500000 -0.0000000 0.1000000
v 0.1060750 -0.0000000 0.1060750
v 0.1000000 -0.0000000 0.0500000
v 0.1060750 -0.0000000 0.1060750
v 0.0500000 -0.0000000 0.1000000
v 0.0500000 -0.0000000 0.1400500
v 0.0574000 -0.0000000 0.1385750
v 0.1500000 -0.4000000 0.0000000
v 0.1385850 -0.4000000 -0.0574050
v 0.1385850 -0.6000000 -0.0574050
v 0.1500000 -0.6000000 0.0000000
v 0.1385850 -0.4000000 -0.0574050
v 0.1060650 -0.4000000 -0.1060650
v 0.1060650 -0.6000000 -0.1060650
v 0.1385850 -0.6000000 -0.0574050
v 0.1060650 -0.4000000 -0.1060650
v 0.0574050 -0.4000000 -0.1385850
v 0.0574050 -0.6000000 -0.1385850
v 0.1060650 -0.6000000 -0.1060650
v 0.0574050 -0.4000000 -0.1385850
v 0.0000000 -0.4000000 -0.1500000
v 0.0000000 -0.6000000 -0.1500000
v 0.0574050 -0.6000000 -0.1385850
v 0.0000000 -0.4000000 -0.1500000
v -0.0574050 -0.4000000 -0.1385850
v -0.0574050 -0.6000000 -0.1385850
v 0.0000000 -0.6000000 -0.1500000
v -0.0574050 -0.4000000 -0.1385850
v -0.1060650 -0.4000000 -0.1060650
v -0.1060650 -0.6000000 -0.1060650
v -0.0574050 -0.6000000 -0.1385850
v -0.1060650 -0.4000000 -0.1060650
v -0.1385850 -0.4000000 -0.0574050
v -0.1385850 -0.6000000 -0.0574050
v -0.1060650 -0.6000000 -0.1060650
v -0.1385850 -0.4000000 -0.0574050
v -0.1500000 -0.4000000 0.0000000
v -0.1500000 -0.6000000 0.0000000
v -0.1385850 -0.6000000 -0.0574050
v -0.1500000 -0.4000000 0.0000000
v -0.1385850 -0.4000000 0.0574050
v -0.1385850 -0.6000000 0.0574050
v -0.1500000 -0.6000000 0.0000000
v -0.1385850 -0.4000000 0.0574050
v -0.1060650 -0.4000000 0.1060650
v -0.1060650 -0.6000000 0.1060650
v -0.1385850 -0.6000000 0.0574050
v -0.1060650 -0.4000000 0.1060650
v -0.0574050 -0.4000000 0.1385850
v -0.0574050 -0.6000000 0.1385850
v -0.1060650 -0.6000000 0.1060650
v -0.0574050 -0.4000000 0.1385850
v 0.0000000 -0.4000000 0.1500000
v 0.0000000 -0.6000000 0.1500000
v -0.0574050 -0.6000000 0.1385850
v 0.0000000 -0.4000000 0.1500000
v 0.0574050 -0.4000000 0.1385850
v 0.0574050 -0.6000000 0.1385850
v 0.0000000 -0.6000000 0.1500000
v 0.0574050 -0.4000000 0.1385850
v 0.1060650 -0.4000000 0.1060650
v 0.1060650 -0.6000000 0.1060650
v 0.0574050 -0.6000000 0.1385850
v 0.1060650 -0.4000000 0.1060650
v 0.1385850 -0.4000000 0.0574050
v 0.1385850 -0.6000000 0.0574050
v 0.1060650 -0.6000000 0.1060650
v 0.1385850 -0.4000000 0.0574050
v 0.1500000 -0.4000000 0.0000000
v 0.1500000 -0.6000000 0.0000000
v 0.1385850 -0.6000000 0.0574050
v 0.2000000 -0.6000000 0.0000000
v 0.1847800 -0.6000000 -0.0765400
v 0.1847800 -0.4000000 -0.0765400
v 0.2000000 -0.4000000 0.0000000
v 0.1847800 -0.6000000 -0.0765400
v 0.1414200 -0.6000000 -0.1414200
v 0.1414200 -0.4000000 -0.1414200
v 0.1847800 -0.4000000 -0.0765400
v 0.1414200 -0.6000000 -0.1414200
v 0.0765400 -0.6000000 -0.1847800
v 0.0765400 -0.4000000 -0.1847800
v 0.1414200 -0.4000000 -0.1414200
v 0.0765400 -0.6000000 -0.1847800
v 0.0000000 -0.6000000 -0.2000000
v 0.0000000 -0.4000000 -0.2000000
v 0.0765400 -0.4000000 -0.1847800
v 0.0000000 -0.6000000 -0.2000000
v -0.0765400 -0.6000000 -0.1847800
v -0.0765400 -0.4000000 -0.1847800
v 0.0000000 -0.4000000 -0.2000000
v -0.0765400 -0.6000000 -0.1847800
v -0.1414200 -0.6000000 -0.1414200
v -0.1414200 -0.4000000 -0.1414200
v -0.0765400 -0.4000000 -0.1847800
v -0.1414200 -0.6000000 -0.1414200
v -0.1847800 -0.6000000 -0.0765400
v -0.1847800 -0.4000000 -0.0765400
v -0.1414200 -0.4000000 -0.1414200
v -0.1847800 -0.6000000 -0.0765400
v -0.2000000 -0.6000000 0.0000000
v -0.2000000 -0.4000000 0.0000000
v -0.1847800 -0.4000000 -0.0765400
v -0.2000000 -0.6000000 0.0000000
v -0.1847800 -0.6000000 0.0765400
v -0.1847800 -0.4000000 0.0765400
v -0.2000000 -0.4000000 0.0000000
v -0.1847800 -0.6000000 0.0765400
v -0.1414200 -0.6000000 0.1414200
v -0.1414200 -0.4000000 0.1414200
v -0.1847800 -0.4000000 0.0765400
v -0.1414200 -0.6000000 0.1414200
v -0.0765400 -0.6000000 0.1847800
v -0.0765400 -0.4000000 0.1847800
v -0.1414200 -0.4000000 0.1414200
v -0.0765400 -0.6000000 0.1847800
v 0.0000000 -0.6000000 0.2000000
v 0.0000000 -0.4000000 0.2000000
v -0.0765400 -0.4000000 0.1847800
v 0.0000000 -0.6000000 0.2000000
v 0.0765400 -0.6000000 0.1847800
v 0.0765400 -0.4000000 0.1847800
v 0.0000000 -0.4000000 0.2000000
v 0.0765400 -0.6000000 0.1847800
v 0.1414200 -0.6000000 0.1414200
v 0.1414200 -0.4000000 0.1414200
v 0.0765400 -0.4000000 0.1847800
v 0.1414200 -0.6000000 0.1414200
v 0.1847800 -0.6000000 0.0765400
v 0.1847800 -0.4000000 0.0765400
v 0.1414200 -0.4000000 0.1414200
v 0.1847800 -0.6000000 0.0765400
v 0.2000000 -0.6000000 0.0000000
v 0.2000000 -0.4000000 0.0000000
v 0.1847800 -0.4000000 0.0765400
v 0.0000000 -0.6000000 -0.2000000
v 0.0000000 -0.6000000 -0.1500000
v -0.0574050 -0.6000000 -0.1385850
v -0.0765400 -0.6000000 -0.1847800
v -0.0765400 -0.6000000 -0.1847800
v -0.0574050 -0.6000000 -0.1385850
v -0.1060650 -0.6000000 -0.1060650
v -0.1414200 -0.6000000 -0.1414200
v -0.1414200 -0.6000000 -0.1414200
v -0.1060650 -0.6000000 -0.1060650
v -0.1385850 -0.6000000 -0.0574050
v -0.1847800 -0.6000000 -0.0765400
v -0.1847800 -0.6000000 -0.0765400
v -0.1385850 -0.6000000 -0.0574050
v -0.1500000 -0.6000000 0.0000000
v -0.2000000 -0.6000000 0.0000000
v -0.2000000 -0.6000000 0.0000000
v -0.1500000 -0.6000000 0.0000000
v -0.1385850 -0.6000000 0.0574050
v -0.1847800 -0.6000000 0.0765400
v -0.1847800 -0.6000000 0.0765400
v -0.1385850 -0.6000000 0.0574050
v -0.1060650 -0.6000000 0.1060650
v -0.1414200 -0.6000000 0.1414200
v -0.1414200 -0.6000000 0.1414200
v -0.1060650 -0.6000000 0.1060650
v -0.0574050 -0.6000000 0.1385850
v -0.0765400 -0.6000000 0.1847800
v -0.0765400 -0.6000000 0.1847800
v -0.0574050 -0.6000000 0.1385850
v 0.0000000 -0.6000000 0.1500000
v 0.0000000 -0.6000000 0.2000000
v 0.0000000 -0.6000000 0.2000000
v 0.0000000 -0.6000000 0.1500000
v 0.0574050 -0.6000000 0.1385850
v 0.0765400 -0.6000000 0.1847800
v 0.0765400 -0.6000000 0.1847800
v 0.0574050 -0.6000000 0.1385850
v 0.1060650 -0.6000000 0.1060650
v 0.1414200 -0.6000000 0.1414200
v 0.1414200 -0.6000000 0.1414200
v 0.1060650 -0.6000000 0.1060650
v 0.1385850 -0.6000000 0.0574050
v 0.1847800 -0.6000000 0.0765400
v 0.1847800 -0.6000000 0.0765400
v 0.1385850 -0.6000000 0.0574050
v 0.1500000 -0.6000000 0.0000000
v 0.2000000 -0.6000000 0.0000000
v 0.2000000 -0.6000000 0.0000000
v 0.1500000 -0.6000000 0.0000000
v 0.1385850 -0.6000000 -0.0574050
v 0.1847800 -0.6000000 -0.0765400
v 0.1847800 -0.6000000 -0.0765400
v 0.1385850 -0.6000000 -0.0574050
v 0.1060650 -0.6000000 -0.1060650
v 0.1414200 -0.6000000 -0.1414200
v 0.1414200 -0.6000000 -0.1414200
v 0.1060650 -0.6000000 -0.1060650
v 0.0574050 -0.6000000 -0.1385850
v 0.0765400 -0.6000000 -0.1847800
v 0.0765400 -0.6000000 -0.1847800
v 0.0574050 -0.6000000 -0.1385850
v 0.0000000 -0.6000000 -0.1500000
v 0.0000000 -0.6000000 -0.2000000
v 0.2000000 -0.1000000 0.0000000
v 0.1847800 -0.1000000 0.0765400
v 0.1847800 -0.4000000 0.0765400
v 0.2000000 -0.4000000 0.0000000
v 0.1847800 -0.1000000 0.0765400
v 0.1414200 -0.1000000 0.1414200
v 0.1414200 -0.4000000 0.1414200
v 0.1847800 -0.4000000 0.0765400
v 0.1414200 -0.1000000 0.1414200
v 0.0765400 -0.1000000 0.1847800
v 0.0765400 -0.4000000 0.1847800
v 0.1414200 -0.4000000 0.1414200
v 0.0765400 -0.1000000 0.1847800
v 0.0000000 -0.1000000 0.2000000
v 0.0000000 -0.4000000 0.2000000
v 0.0765400 -0.4000000 0.1847800
v 0.0000000 -0.1000000 0.2000000
v -0.0765400 -0.1000000 0.1847800
v -0.0765400 -0.4000000 0.1847800
v 0.0000000 -0.4000000 0.2000000
v -0.0765400 -0.1000000 0.1847800
v -0.1414200 -0.1000000 0.1414200
v -0.1414200 -0.4000000 0.1414200
v -0.0765400 -0.4000000 0.1847800
v -0.1414200 -0.1000000 0.1414200
v -0.1847800 -0.1000000 0.0765400
v -0.1847800 -0.4000000 0.0765400
v -0.1414200 -0.4000000 0.1414200
v -0.1847800 -0.1000000 0.0765400
v -0.2000000 -0.1000000 0.0000000
v -0.2000000 -0.4000000 0.0000000
v -0.1847800 -0.4000000 0.0765400
v -0.2000000 -0.1000000 0.0000000
v -0.1847800 -0.1000000 -0.0765400
v -0.1847800 -0.4000000 -0.0765400
v -0.2000000 -0.4000000 0.0000000
v -0.1847800 -0.1000000 -0.0765400
v -0.1414200 -0.1000000 -0.1414200
v -0.1414200 -0.4000000 -0.1414200
v -0.1847800 -0.4000000 -0.0765400
v -0.1414200 -0.1000000 -0.1414200
v -0.0765400 -0.1000000 -0.1847800
v -0.0765400 -0.4000000 -0.1847800
v -0.1414200 -0.4000000 -0.1414200
v -0.0765400 -0.1000000 -0.1847800
v 0.0000000 -0.1000000 -0.2000000
v 0.0000000 -0.4000000 -0.2000000
v -0.0765400 -0.4000000 -0.1847800
v 0.0000000 -0.1000000 -0.2000000
v 0.0765400 -0.1000000 -0.1847800
v 0.0765400 -0.4000000 -0.1847800
v 0.0000000 -0.4000000 -0.2000000
v 0.0765400 -0.1000000 -0.1847800
v 0.1414200 -0.1000000 -0.1414200
v 0.1414200 -0.4000000 -0.1414200
v 0.0765400 -0.4000000 -0.1847800
v 0.1414200 -0.1000000 -0.1414200
v 0.1847800 -0.1000000 -0.0765400
v 0.1847800 -0.4000000 -0.0765400
v 0.1414200 -0.4000000 -0.1414200
v 0.1847800 -0.1000000 -0.0765400
v 0.2000000 -0.1000000 0.0000000
v 0.2000000 -0.4000000 0.0000000
v 0.1847800 -0.4000000 -0.0765400
v 0.0000000 -0.1000000 -0.4000000
v 0.0000000 -0.1000000 -0.2000000
v -0.0765400 -0.1000000 -0.1847800
v -0.1530800 -0.1000000 -0.3695600
v -0.1530800 -0.1000000 -0.3695600
v -0.0765400 -0.1000000 -0.1847800
v -0.1414200 -0.1000000 -0.1414200
v -0.2828400 -0.1000000 -0.2828400
v -0.2828400 -0.1000000 -0.2828400
v -0.1414200 -0.1000000 -0.1414200
v -0.1847800 -0.1000000 -0.0765400
v -0.3695600 -0.1000000 -0.1530800
v -0.3695600 -0.1000000 -0.1530800
v -0.1847800 -0.1000000 -0.0765400
v -0.2000000 -0.1000000 0.0000000
v -0.4000000 -0.1000000 0.0000000
v -0.4000000 -0.1000000 0.0000000
v -0.2000000 -0.1000000 0.0000000
v -0.1847800 -0.1000000 0.0765400
v -0.3695600 -0.1000000 0.1530800
v -0.3695600 -0.1000000 0.1530800
v -0.1847800 -0.1000000 0.0765400
v -0.1414200 -0.1000000 0.1414200
v -0.2828400 -0.1000000 0.2828400
v -0.2828400 -0.1000000 0.2828400
v -0.1414200 -0.1000000 0.1414200
v -0.0765400 -0.1000000 0.1847800
v -0.1530800 -0.1000000 0.3695600
v -0.1530800 -0.1000000 0.3695600
v -0.0765400 -0.1000000 0.1847800
v 0.0000000 -0.1000000 0.2000000
v 0.0000000 -0.1000000 0.4000000
v 0.0000000 -0.1000000 0.4000000
v 0.0000000 -0.1000000 0.2000000
v 0.0765400 -0.1000000 0.1847800
v 0.1530800 -0.1000000 0.3695600
v 0.1530800 -0.1000000 0.3695600
v 0.0765400 -0.1000000 0.1847800
v 0.1414200 -0.1000000 0.1414200
v 0.2828400 -0.1000000 0.2828400
v 0.2828400 -0.1000000 0.2828400
v 0.1414200 -0.1000000 0.1414200
v 0.1847800 -0.1000000 0.0765400
v 0.3695600 -0.1000000 0.1530800
v 0.3695600 -0.1000000 0.1530800
v 0.1847800 -0.1000000 0.0765400
v 0.2000000 -0.1000000 0.0000000
v 0.4000000 -0.1000000 0.0000000
v 0.4000000 -0.1000000 0.0000000
v 0.2000000 -0.1000000 0.0000000
v 0.1847800 -0.1000000 -0.0765400
v 0.3695600 -0.1000000 -0.1530800
v 0.3695600 -0.1000000 -0.1530800
v 0.1847800 -0.1000000 -0.0765400
v 0.1414200 -0.1000000 -0.1414200
v 0.2828400 -0.1000000 -0.2828400
v 0.2828400 -0.1000000 -0.2828400
v 0.1414200 -0.1000000 -0.1414200
v 0.0765400 -0.1000000 -0.1847800
v 0.1530800 -0.1000000 -0.3695600
v 0.1530800 -0.1000000 -0.3695600
v 0.0765400 -0.1000000 -0.1847800
v 0.0000000 -0.1000000 -0.2000000
v 0.0000000 -0.1000000 -0.4000000
v 0.4000000 -0.5000000 0.0000000
v 0.3695600 -0.5000000 0.1530800
v 0.3695600 -0.1000000 0.1530800
v 0.4000000 -0.1000000 0.0000000
v 0.3695600 -0.5000000 0.1530800
v 0.2828400 -0.5000000 0.2828400
v 0.2828400 -0.1000000 0.2828400
v 0.3695600 -0.1000000 0.1530800
v 0.2828400 -0.5000000 0.2828400
v 0.1530800 -0.5000000 0.3695600
v 0.1530800 -0.1000000 0.3695600
v 0.2828400 -0.1000000 0.2828400
v 0.1530800 -0.5000000 0.3695600
v 0.0000000 -0.5000000 0.4000000
v 0.0000000 -0.1000000 0.4000000
v 0.1530800 -0.1000000 0.3695600
v 0.0000000 -0.5000000 0.4000000
v -0.1530800 -0.5000000 0.3695600
v -0.1530800 -0.1000000 0.3695600
v 0.0000000 -0.1000000 0.4000000
v -0.1530800 -0.5000000 0.3695600
v -0.2828400 -0.5000000 0.2828400
v -0.2828400 -0.1000000 0.2828400
v -0.1530800 -0.1000000 0.3695600
v -0.2828400 -0.5000000 0.2828400
v -0.3695600 -0.5000000 0.1530800
v -0.3695600 -0.1000000 0.1530800
v -0.2828400 -0.1000000 0.2828400
v -0.3695600 -0.5000000 0.1530800
v -0.4000000 -0.5000000 0.0000000
v -0.4000000 -0.1000000 0.0000000
v -0.3695600 -0.1000000 0.1530800
v -0.4000000 -0.5000000 0.0000000
v -0.3695600 -0.5000000 -0.1530800
v -0.3695600 -0.1000000 -0.1530800
v -0.4000000 -0.1000000 0.0000000
v -0.3695600 -0.5000000 -0.1530800
v -0.2828400 -0.5000000 -0.2828400
v -0.2828400 -0.1000000 -0.2828400
v -0.3695600 -0.1000000 -0.1530800
v -0.2828400 -0.5000000 -0.2828400
v -0.1530800 -0.5000000 -0.3695600
v -0.1530800 -0.1000000 -0.3695600
v -0.2828400 -0.1000000 -0.2828400
v -0.1530800 -0.5000000 -0.3695600
v 0.0000000 -0.5000000 -0.4000000
v 0.0000000 -0.1000000 -0.4000000
v -0.1530800 -0.1000000 -0.3695600
v 0.0000000 -0.5000000 -0.4000000
v 0.1530800 -0.5000000 -0.3695600
v 0.1530800 -0.1000000 -0.3695600
v 0.0000000 -0.1000000 -0.4000000
v 0.1530800 -0.5000000 -0.3695600
v 0.2828400 -0.5000000 -0.2828400
v 0.2828400 -0.1000000 -0.2828400
v 0.1530800 -0.1000000 -0.3695600
v 0.2828400 -0.5000000 -0.2828400
v 0.3695600 -0.5000000 -0.1530800
v 0.3695600 -0.1000000 -0.1530800
v 0.2828400 -0.1000000 -0.2828400
v 0.3695600 -0.5000000 -0.1530800
v 0.4000000 -0.5000000 0.0000000
v 0.4000000 -0.1000000 0.0000000
v 0.3695600 -0.1000000 -0.1530800
v 0.0000000 -0.6000000 -0.4000000
v 0.0000000 -0.6000000 -0.4996950
v 0.0174500 -0.6000000 -0.4996950
v 0.0347475 -0.6000000 -0.4486575
v 0.0347475 -0.6000000 -0.4486575
v 0.0659600 -0.6000000 -0.4451400
v 0.1530800 -0.6000000 -0.3695600
v 0.0000000 -0.6000000 -0.4000000
v 0.1530800 -0.6000000 -0.3695600
v 0.0659600 -0.6000000 -0.4451400
v 0.1337125 -0.6000000 -0.4296750
v 0.1633575 -0.6000000 -0.4193025
v 0.0659600 -0.6000000 -0.4451400
v 0.0941800 -0.6000000 -0.4910500
v 0.1282050 -0.6000000 -0.4832850
v 0.1337125 -0.6000000 -0.4296750
v 0.1530800 -0.6000000 -0.3695600
v 0.1633575 -0.6000000 -0.4193025
v 0.1925950 -0.6000000 -0.3885850
v 0.1586050 -0.6000000 -0.3658675
v 0.1586050 -0.5000000 -0.3658675
v 0.1586050 -0.6000000 -0.3658675
v 0.1925950 -0.6000000 -0.3885875
v 0.1925950 -0.5000000 -0.3885875
v 0.1586050 -0.5000000 -0.3658700
v 0.1530800 -0.5000000 -0.3695600
v 0.1530800 -0.6000000 -0.3695600
v 0.1586050 -0.6000000 -0.3658700
v 0.1530800 -0.5000000 -0.3695600
v 0.0000000 -0.5000000 -0.4000000
v 0.0000000 -0.6000000 -0.4000000
v 0.1530800 -0.6000000 -0.3695600
v 0.1633550 -0.5000000 -0.4193025
v 0.1925950 -0.5000000 -0.3885875
v 0.1925950 -0.6000000 -0.3885875
v 0.1633550 -0.6000000 -0.4193025
v 0.2325325 -0.5000000 -0.4426400
v 0.2259700 -0.5000000 -0.3891500
v 0.1633575 -0.5000000 -0.4193025
v 0.2010875 -0.5000000 -0.4577800
v 0.2259700 -0.5000000 -0.3891500
v 0.1925950 -0.5000000 -0.3885850
v 0.1633575 -0.5000000 -0.4193025
v 0.1925950 -0.5000000 -0.3885850
v 0.2259700 -0.5000000 -0.3891500
v 0.2525650 -0.5000000 -0.3724375
v 0.1586050 -0.5000000 -0.3658675
v 0.1586050 -0.5000000 -0.3658675
v 0.2525650 -0.5000000 -0.3724375
v 0.3069000 -0.5000000 -0.3291100
v 0.2828400 -0.5000000 -0.2828400
v 0.3251975 -0.5000000 -0.3799750
v 0.3069000 -0.5000000 -0.3291100
v 0.2525650 -0.5000000 -0.3724375
v 0.2979125 -0.5000000 -0.4015575
v 0.2828400 -0.5000000 -0.2828400
v 0.3069000 -0.5000000 -0.3291100
v 0.3180050 -0.5000000 -0.3180050
v 0.0250000 -0.2768650 -0.1950300
v 0.0000000 -0.2750000 -0.2000000
v 0.0000000 -0.2000000 -0.4000000
v 0.0250000 -0.2018650 -0.3950300
v 0.0250000 -0.2768650 -0.1950275
v 0.0250000 -0.2018650 -0.3950275
v 0.0250000 -0.1000000 -0.3950275
v 0.0250000 -0.1000000 -0.1950275
v 0.3069000 -0.0000000 -0.3291100
v 0.3180050 -0.0000000 -0.3180050
v 0.3180050 -0.5000000 -0.3180050
v 0.3069000 -0.5000000 -0.3291100
v 0.3252000 -0.0000000 -0.3798000
v 0.3069000 -0.0000000 -0.3291100
v 0.3069000 -0.5000000 -0.3291100
v 0.3252000 -0.5000000 -0.3798000
v 0.2979125 -0.0000000 -0.4015575
v 0.3251975 -0.0000000 -0.3797975
v 0.3251975 -0.5000000 -0.3797975
v 0.2979125 -0.5000000 -0.4015575
v 0.2525650 -0.0000000 -0.3724375
v 0.2979150 -0.0000000 -0.4015575
v 0.2979150 -0.5000000 -0.4015575
v 0.2525650 -0.5000000 -0.3724375
v 0.2259700 -0.0000000 -0.3891500
v 0.2525650 -0.0000000 -0.3724400
v 0.2525650 -0.5000000 -0.3724400
v 0.2259700 -0.5000000 -0.3891500
v 0.2325300 -0.0000000 -0.4426400
v 0.2259700 -0.0000000 -0.3891500
v 0.2259700 -0.5000000 -0.3891500
v 0.2325300 -0.5000000 -0.4426400
v 0.2010875 -0.0000000 -0.4577800
v 0.2325325 -0.0000000 -0.4426400
v 0.2325325 -0.5000000 -0.4426400
v 0.2010875 -0.5000000 -0.4577800
v 0.1633575 -0.0000000 -0.4193025
v 0.2010875 -0.0000000 -0.4577825
v 0.2010875 -0.5000000 -0.4577825
v 0.1633575 -0.5000000 -0.4193025
v 0.1633575 -0.0000000 -0.4193025
v 0.1633575 -0.5000000 -0.4193025
v 0.1337125 -0.6000000 -0.4296750
v 0.1337125 -0.0000000 -0.4296750
v 0.1633575 -0.5000000 -0.4193025
v 0.1633575 -0.6000000 -0.4193025
v 0.1337125 -0.6000000 -0.4296750
v 0.1282025 -0.0000000 -0.4832850
v 0.1337125 -0.0000000 -0.4296750
v 0.1337125 -0.6000000 -0.4296750
v 0.1282025 -0.6000000 -0.4832850
v 0.0941800 -0.0000000 -0.4910500
v 0.1282050 -0.0000000 -0.4832850
v 0.1282050 -0.6000000 -0.4832850
v 0.0941800 -0.6000000 -0.4910500
v 0.0659600 -0.0000000 -0.4451400
v 0.0941800 -0.0000000 -0.4910500
v 0.0941800 -0.6000000 -0.4910500
v 0.0659600 -0.6000000 -0.4451400
v 0.0347500 -0.0000000 -0.4486600
v 0.0659600 -0.0000000 -0.4451400
v 0.0659600 -0.6000000 -0.4451400
v 0.0347500 -0.6000000 -0.4486600
v 0.0174500 -0.0000000 -0.4996975
v 0.0347500 -0.0000000 -0.4486575
v 0.0347500 -0.6000000 -0.4486575
v 0.0174500 -0.6000000 -0.4996975
v 0.0174500 -0.0000000 -0.4996950
v 0.0174500 -0.6000000 -0.4996950
v 0.0000000 -0.6000000 -0.4996950
v 0.0000000 -0.0000000 -0.4996950
v 0.2979125 -0.0000000 -0.4015575
v 0.2525650 -0.0000000 -0.3724375
v 0.3069000 -0.0000000 -0.3291100
v 0.3251975 -0.0000000 -0.3799750
v 0.2010875 -0.0000000 -0.4577800
v 0.1633575 -0.0000000 -0.4193025
v 0.2259700 -0.0000000 -0.3891500
v 0.2325325 -0.0000000 -0.4426400
v 0.0941800 -0.0000000 -0.4910500
v 0.0659600 -0.0000000 -0.4451400
v 0.1337125 -0.0000000 -0.4296750
v 0.1282050 -0.0000000 -0.4832850
v 0.0000000 -0.0000000 -0.1500000
v 0.0347475 -0.0000000 -0.4486575
v 0.0174500 -0.0000000 -0.4996950
v 0.0000000 -0.0000000 -0.4996950
v 0.0000000 -0.0000000 -0.1500000
v 0.0659600 -0.0000000 -0.4451400
v 0.0347475 -0.0000000 -0.4486575
v 0.0659600 -0.0000000 -0.4451400
v 0.0000000 -0.0000000 -0.1500000
v 0.0574050 -0.0000000 -0.1385850
v 0.1337125 -0.0000000 -0.4296750
v 0.1633575 -0.0000000 -0.4193025
v 0.1337125 -0.0000000 -0.4296750
v 0.0574050 -0.0000000 -0.1385850
v 0.2259700 -0.0000000 -0.3891500
v 0.2259700 -0.0000000 -0.3891500
v 0.0574050 -0.0000000 -0.1385850
v 0.1060650 -0.0000000 -0.1060650
v 0.2525650 -0.0000000 -0.3724375
v 0.3069000 -0.0000000 -0.3291100
v 0.2525650 -0.0000000 -0.3724375
v 0.1060650 -0.0000000 -0.1060650
v 0.3180050 -0.0000000 -0.3180050
v 0.3180050 -0.0000000 -0.3180050
v 0.3069000 -0.0000000 -0.3291100
v 0.3208750 -0.0000000 -0.3679550
v 0.3444150 -0.0000000 -0.3444150
v 0.2847325 -0.0000000 -0.3930925
v 0.2525650 -0.0000000 -0.3724375
v 0.2259700 -0.0000000 -0.3891500
v 0.2500000 -0.0000000 -0.4000000
v 0.2259700 -0.0000000 -0.3891500
v 0.2267325 -0.0000000 -0.3953725
v 0.2500000 -0.0000000 -0.4000000
v 0.4486575 -0.6000000 -0.0347475
v 0.4996950 -0.6000000 -0.0174500
v 0.4996950 -0.6000000 0.0000000
v 0.4000000 -0.6000000 0.0000000
v 0.4000000 -0.6000000 0.0000000
v 0.3695600 -0.6000000 -0.1530800
v 0.4451400 -0.6000000 -0.0659600
v 0.4486575 -0.6000000 -0.0347475
v 0.4193025 -0.6000000 -0.1633575
v 0.4296750 -0.6000000 -0.1337125
v 0.4451400 -0.6000000 -0.0659600
v 0.3695600 -0.6000000 -0.1530800
v 0.4296750 -0.6000000 -0.1337125
v 0.4832850 -0.6000000 -0.1282050
v 0.4910500 -0.6000000 -0.0941800
v 0.4451400 -0.6000000 -0.0659600
v 0.3658675 -0.6000000 -0.1586050
v 0.3885850 -0.6000000 -0.1925950
v 0.4193025 -0.6000000 -0.1633575
v 0.3695600 -0.6000000 -0.1530800
v 0.3885875 -0.5000000 -0.1925950
v 0.3885875 -0.6000000 -0.1925950
v 0.3658675 -0.6000000 -0.1586050
v 0.3658675 -0.5000000 -0.1586050
v 0.3658700 -0.6000000 -0.1586050
v 0.3695600 -0.6000000 -0.1530800
v 0.3695600 -0.5000000 -0.1530800
v 0.3658700 -0.5000000 -0.1586050
v 0.3695600 -0.6000000 -0.1530800
v 0.4000000 -0.6000000 0.0000000
v 0.4000000 -0.5000000 0.0000000
v 0.3695600 -0.5000000 -0.1530800
v 0.4193025 -0.6000000 -0.1633550
v 0.3885875 -0.6000000 -0.1925950
v 0.3885875 -0.5000000 -0.1925950
v 0.4193025 -0.5000000 -0.1633550
v 0.4577800 -0.5000000 -0.2010875
v 0.4193025 -0.5000000 -0.1633575
v 0.3891500 -0.5000000 -0.2259700
v 0.4426400 -0.5000000 -0.2325325
v 0.4193025 -0.5000000 -0.1633575
v 0.3885850 -0.5000000 -0.1925950
v 0.3891500 -0.5000000 -0.2259700
v 0.3658675 -0.5000000 -0.1586050
v 0.3724375 -0.5000000 -0.2525650
v 0.3891500 -0.5000000 -0.2259700
v 0.3885850 -0.5000000 -0.1925950
v 0.2828400 -0.5000000 -0.2828400
v 0.3291100 -0.5000000 -0.3069000
v 0.3724375 -0.5000000 -0.2525650
v 0.3658675 -0.5000000 -0.1586050
v 0.4015575 -0.5000000 -0.2979125
v 0.3724375 -0.5000000 -0.2525650
v 0.3291100 -0.5000000 -0.3069000
v 0.3799750 -0.5000000 -0.3251975
v 0.3180050 -0.5000000 -0.3180050
v 0.3291100 -0.5000000 -0.3069000
v 0.2828400 -0.5000000 -0.2828400
v 0.3950300 -0.2018650 -0.0250000
v 0.4000000 -0.2000000 0.0000000
v 0.2000000 -0.2750000 0.0000000
v 0.1950300 -0.2768650 -0.0250000
v 0.1950275 -0.1000000 -0.0250000
v 0.3950275 -0.1000000 -0.0250000
v 0.3950275 -0.2018650 -0.0250000
v 0.1950275 -0.2768650 -0.0250000
v 0.3291100 -0.5000000 -0.3069000
v 0.3180050 -0.5000000 -0.3180050
v 0.3180050 -0.0000000 -0.3180050
v 0.3291100 -0.0000000 -0.3069000
v 0.3798000 -0.5000000 -0.3252000
v 0.3291100 -0.5000000 -0.3069000
v 0.3291100 -0.0000000 -0.3069000
v 0.3798000 -0.0000000 -0.3252000
v 0.4015575 -0.5000000 -0.2979125
v 0.3797975 -0.5000000 -0.3251975
v 0.3797975 -0.0000000 -0.3251975
v 0.4015575 -0.0000000 -0.2979125
v 0.3724375 -0.5000000 -0.2525650
v 0.4015575 -0.5000000 -0.2979150
v 0.4015575 -0.0000000 -0.2979150
v 0.3724375 -0.0000000 -0.2525650
v 0.3891500 -0.5000000 -0.2259700
v 0.3724400 -0.5000000 -0.2525650
v 0.3724400 -0.0000000 -0.2525650
v 0.3891500 -0.0000000 -0.2259700
v 0.4426400 -0.5000000 -0.2325300
v 0.3891500 -0.5000000 -0.2259700
v 0.3891500 -0.0000000 -0.2259700
v 0.4426400 -0.0000000 -0.2325300
v 0.4577800 -0.5000000 -0.2010875
v 0.4426400 -0.5000000 -0.2325325
v 0.4426400 -0.0000000 -0.2325325
v 0.4577800 -0.0000000 -0.2010875
v 0.4193025 -0.5000000 -0.1633575
v 0.4577825 -0.5000000 -0.2010875
v 0.4577825 -0.0000000 -0.2010875
v 0.4193025 -0.0000000 -0.1633575
v 0.4296750 -0.0000000 -0.1337125
v 0.4296750 -0.6000000 -0.1337125
v 0.4193025 -0.5000000 -0.1633575
v 0.4193025 -0.0000000 -0.1633575
v 0.4296750 -0.6000000 -0.1337125
v 0.4193025 -0.6000000 -0.1633575
v 0.4193025 -0.5000000 -0.1633575
v 0.4832850 -0.6000000 -0.1282025
v 0.4296750 -0.6000000 -0.1337125
v 0.4296750 -0.0000000 -0.1337125
v 0.4832850 -0.0000000 -0.1282025
v 0.4910500 -0.6000000 -0.0941800
v 0.4832850 -0.6000000 -0.1282050
v 0.4832850 -0.0000000 -0.1282050
v 0.4910500 -0.0000000 -0.0941800
v 0.4451400 -0.6000000 -0.0659600
v 0.4910500 -0.6000000 -0.0941800
v 0.4910500 -0.0000000 -0.0941800
v 0.4451400 -0.0000000 -0.0659600
v 0.4486600 -0.6000000 -0.0347500
v 0.4451400 -0.6000000 -0.0659600
v 0.4451400 -0.0000000 -0.0659600
v 0.4486600 -0.0000000 -0.0347500
v 0.4996975 -0.6000000 -0.0174500
v 0.4486575 -0.6000000 -0.0347500
v 0.4486575 -0.0000000 -0.0347500
v 0.4996975 -0.0000000 -0.0174500
v 0.4996950 -0.0000000 0.0000000
v 0.4996950 -0.6000000 0.0000000
v 0.4996950 -0.6000000 -0.0174500
v 0.4996950 -0.0000000 -0.0174500
v 0.3799750 -0.0000000 -0.3251975
v 0.3291100 -0.0000000 -0.3069000
v 0.3724375 -0.0000000 -0.2525650
v 0.4015575 -0.0000000 -0.2979125
v 0.4426400 -0.0000000 -0.2325325
v 0.3891500 -0.0000000 -0.2259700
v 0.4193025 -0.0000000 -0.1633575
v 0.4577800 -0.0000000 -0.2010875
v 0.4832850 -0.0000000 -0.1282050
v 0.4296750 -0.0000000 -0.1337125
v 0.4451400 -0.0000000 -0.0659600
v 0.4910500 -0.0000000 -0.0941800
v 0.4996950 -0.0000000 0.0000000
v 0.4996950 -0.0000000 -0.0174500
v 0.4486575 -0.0000000 -0.0347475
v 0.1500000 -0.0000000 0.0000000
v 0.4486575 -0.0000000 -0.0347475
v 0.4451400 -0.0000000 -0.0659600
v 0.1500000 -0.0000000 0.0000000
v 0.4296750 -0.0000000 -0.1337125
v 0.1385850 -0.0000000 -0.0574050
v 0.1500000 -0.0000000 0.0000000
v 0.4451400 -0.0000000 -0.0659600
v 0.3891500 -0.0000000 -0.2259700
v 0.1385850 -0.0000000 -0.0574050
v 0.4296750 -0.0000000 -0.1337125
v 0.4193025 -0.0000000 -0.1633575
v 0.3724375 -0.0000000 -0.2525650
v 0.1060650 -0.0000000 -0.1060650
v 0.1385850 -0.0000000 -0.0574050
v 0.3891500 -0.0000000 -0.2259700
v 0.3180050 -0.0000000 -0.3180050
v 0.1060650 -0.0000000 -0.1060650
v 0.3724375 -0.0000000 -0.2525650
v 0.3291100 -0.0000000 -0.3069000
v 0.3444150 -0.0000000 -0.3444150
v 0.3679550 -0.0000000 -0.3208750
v 0.3291100 -0.0000000 -0.3069000
v 0.3180050 -0.0000000 -0.3180050
v 0.4000000 -0.0000000 -0.2500000
v 0.3891500 -0.0000000 -0.2259700
v 0.3724375 -0.0000000 -0.2525650
v 0.3930925 -0.0000000 -0.2847325
v 0.4000000 -0.0000000 -0.2500000
v 0.3953725 -0.0000000 -0.2267325
v 0.3891500 -0.0000000 -0.2259700
v 0.4000000 -0.6000000 0.0000000
v 0.4996950 -0.6000000 0.0000000
v 0.4996950 -0.6000000 0.0174500
v 0.4486575 -0.6000000 0.0347475
v 0.4486575 -0.6000000 0.0347475
v 0.4451400 -0.6000000 0.0659600
v 0.3695600 -0.6000000 0.1530800
v 0.4000000 -0.6000000 0.0000000
v 0.3695600 -0.6000000 0.1530800
v 0.4451400 -0.6000000 0.0659600
v 0.4296750 -0.6000000 0.1337125
v 0.4193025 -0.6000000 0.1633575
v 0.4451400 -0.6000000 0.0659600
v 0.4910500 -0.6000000 0.0941800
v 0.4832850 -0.6000000 0.1282050
v 0.4296750 -0.6000000 0.1337125
v 0.3695600 -0.6000000 0.1530800
v 0.4193025 -0.6000000 0.1633575
v 0.3885850 -0.6000000 0.1925950
v 0.3658675 -0.6000000 0.1586050
v 0.3658675 -0.5000000 0.1586050
v 0.3658675 -0.6000000 0.1586050
v 0.3885875 -0.6000000 0.1925950
v 0.3885875 -0.5000000 0.1925950
v 0.3658700 -0.5000000 0.1586050
v 0.3695600 -0.5000000 0.1530800
v 0.3695600 -0.6000000 0.1530800
v 0.3658700 -0.6000000 0.1586050
v 0.3695600 -0.5000000 0.1530800
v 0.4000000 -0.5000000 0.0000000
v 0.4000000 -0.6000000 0.0000000
v 0.3695600 -0.6000000 0.1530800
v 0.4193025 -0.5000000 0.1633550
v 0.3885875 -0.5000000 0.1925950
v 0.3885875 -0.6000000 0.1925950
v 0.4193025 -0.6000000 0.1633550
v 0.4426400 -0.5000000 0.2325325
v 0.3891500 -0.5000000 0.2259700
v 0.4193025 -0.5000000 0.1633575
v 0.4577800 -0.5000000 0.2010875
v 0.3891500 -0.5000000 0.2259700
v 0.3885850 -0.5000000 0.1925950
v 0.4193025 -0.5000000 0.1633575
v 0.3885850 -0.5000000 0.1925950
v 0.3891500 -0.5000000 0.2259700
v 0.3724375 -0.5000000 0.2525650
v 0.3658675 -0.5000000 0.1586050
v 0.3658675 -0.5000000 0.1586050
v 0.3724375 -0.5000000 0.2525650
v 0.3291100 -0.5000000 0.3069000
v 0.2828400 -0.5000000 0.2828400
v 0.3799750 -0.5000000 0.3251975
v 0.3291100 -0.5000000 0.3069000
v 0.3724375 -0.5000000 0.2525650
v 0.4015575 -0.5000000 0.2979125
v 0.2828400 -0.5000000 0.2828400
v 0.3291100 -0.5000000 0.3069000
v 0.3180050 -0.5000000 0.3180050
v 0.1950300 -0.2768650 0.0250000
v 0.2000000 -0.2750000 0.0000000
v 0.4000000 -0.2000000 0.0000000
v 0.3950300 -0.2018650 0.0250000
v 0.1950275 -0.2768650 0.0250000
v 0.3950275 -0.2018650 0.0250000
v 0.3950275 -0.1000000 0.0250000
v 0.1950275 -0.1000000 0.0250000
v 0.3291100 -0.0000000 0.3069000
v 0.3180050 -0.0000000 0.3180050
v 0.3180050 -0.5000000 0.3180050
v 0.3291100 -0.5000000 0.3069000
v 0.3798000 -0.0000000 0.3252000
v 0.3291100 -0.0000000 0.3069000
v 0.3291100 -0.5000000 0.3069000
v 0.3798000 -0.5000000 0.3252000
v 0.4015575 -0.0000000 0.2979125
v 0.3797975 -0.0000000 0.3251975
v 0.3797975 -0.5000000 0.3251975
v 0.4015575 -0.5000000 0.2979125
v 0.3724375 -0.0000000 0.2525650
v 0.4015575 -0.0000000 0.2979150
v 0.4015575 -0.5000000 0.2979150
v 0.3724375 -0.5000000 0.2525650
v 0.3891500 -0.0000000 0.2259700
v 0.3724400 -0.0000000 0.2525650
v 0.3724400 -0.5000000 0.2525650
v 0.3891500 -0.5000000 0.2259700
v 0.4426400 -0.0000000 0.2325300
v 0.3891500 -0.0000000 0.2259700
v 0.3891500 -0.5000000 0.2259700
v 0.4426400 -0.5000000 0.2325300
v 0.4577800 -0.0000000 0.2010875
v 0.4426400 -0.0000000 0.2325325
v 0.4426400 -0.5000000 0.2325325
v 0.4577800 -0.5000000 0.2010875
v 0.4193025 -0.0000000 0.1633575
v 0.4577825 -0.0000000 0.2010875
v 0.4577825 -0.5000000 0.2010875
v 0.4193025 -0.5000000 0.1633575
v 0.4193025 -0.0000000 0.1633575
v 0.4193025 -0.5000000 0.1633575
v 0.4296750 -0.6000000 0.1337125
v 0.4296750 -0.0000000 0.1337125
v 0.4193025 -0.5000000 0.1633575
v 0.4193025 -0.6000000 0.1633575
v 0.4296750 -0.6000000 0.1337125
v 0.4832850 -0.0000000 0.1282025
v 0.4296750 -0.0000000 0.1337125
v 0.4296750 -0.6000000 0.1337125
v 0.4832850 -0.6000000 0.1282025
v 0.4910500 -0.0000000 0.0941800
v 0.4832850 -0.0000000 0.1282050
v 0.4832850 -0.6000000 0.1282050
v 0.4910500 -0.6000000 0.0941800
v 0.4451400 -0.0000000 0.0659600
v 0.4910500 -0.0000000 0.0941800
v 0.4910500 -0.6000000 0.0941800
v 0.4451400 -0.6000000 0.0659600
v 0.4486600 -0.0000000 0.0347500
v 0.4451400 -0.0000000 0.0659600
v 0.4451400 -0.6000000 0.0659600
v 0.4486600 -0.6000000 0.0347500
v 0.4996975 -0.0000000 0.0174500
v 0.4486575 -0.0000000 0.0347500
v 0.4486575 -0.6000000 0.0347500
v 0.4996975 -0.6000000 0.0174500
v 0.4996950 -0.0000000 0.0174500
v 0.4996950 -0.6000000 0.0174500
v 0.4996950 -0.6000000 0.0000000
v 0.4996950 -0.0000000 0.0000000
v 0.4015575 -0.0000000 0.2979125
v 0.3724375 -0.0000000 0.2525650
v 0.3291100 -0.0000000 0.3069000
v 0.3799750 -0.0000000 0.3251975
v 0.4577800 -0.0000000 0.2010875
v 0.4193025 -0.0000000 0.1633575
v 0.3891500 -0.0000000 0.2259700
v 0.4426400 -0.0000000 0.2325325
v 0.4910500 -0.0000000 0.0941800
v 0.4451400 -0.0000000 0.0659600
v 0.4296750 -0.0000000 0.1337125
v 0.4832850 -0.0000000 0.1282050
v 0.1500000 -0.0000000 0.0000000
v 0.4486575 -0.0000000 0.0347475
v 0.4996950 -0.0000000 0.0174500
v 0.4996950 -0.0000000 0.0000000
v 0.1500000 -0.0000000 0.0000000
v 0.4451400 -0.0000000 0.0659600
v 0.4486575 -0.0000000 0.0347475
v 0.4451400 -0.0000000 0.0659600
v 0.1500000 -0.0000000 0.0000000
v 0.1385850 -0.0000000 0.0574050
v 0.4296750 -0.0000000 0.1337125
v 0.4193025 -0.0000000 0.1633575
v 0.4296750 -0.0000000 0.1337125
v 0.1385850 -0.0000000 0.0574050
v 0.3891500 -0.0000000 0.2259700
v 0.3891500 -0.0000000 0.2259700
v 0.1385850 -0.0000000 0.0574050
v 0.1060650 -0.0000000 0.1060650
v 0.3724375 -0.0000000 0.2525650
v 0.3291100 -0.0000000 0.3069000
v 0.3724375 -0.0000000 0.2525650
v 0.1060650 -0.0000000 0.1060650
v 0.3180050 -0.0000000 0.3180050
v 0.3180050 -0.0000000 0.3180050
v 0.3291100 -0.0000000 0.3069000
v 0.3679550 -0.0000000 0.3208750
v 0.3444150 -0.0000000 0.3444150
v 0.3930925 -0.0000000 0.2847325
v 0.3724375 -0.0000000 0.2525650
v 0.3891500 -0.0000000 0.2259700
v 0.4000000 -0.0000000 0.2500000
v 0.3891500 -0.0000000 0.2259700
v 0.3953725 -0.0000000 0.2267325
v 0.4000000 -0.0000000 0.2500000
v 0.0347475 -0.6000000 0.4486575
v 0.0174500 -0.6000000 0.4996950
v 0.0000000 -0.6000000 0.4996950
v 0.0000000 -0.6000000 0.4000000
v 0.0000000 -0.6000000 0.4000000
v 0.1530800 -0.6000000 0.3695600
v 0.0659600 -0.6000000 0.4451400
v 0.0347475 -0.6000000 0.4486575
v 0.1633575 -0.6000000 0.4193025
v 0.1337125 -0.6000000 0.4296750
v 0.0659600 -0.6000000 0.4451400
v 0.1530800 -0.6000000 0.3695600
v 0.1337125 -0.6000000 0.4296750
v 0.1282050 -0.6000000 0.4832850
v 0.0941800 -0.6000000 0.4910500
v 0.0659600 -0.6000000 0.4451400
v 0.1586050 -0.6000000 0.3658675
v 0.1925950 -0.6000000 0.3885850
v 0.1633575 -0.6000000 0.4193025
v 0.1530800 -0.6000000 0.3695600
v 0.1925950 -0.5000000 0.3885875
v 0.1925950 -0.6000000 0.3885875
v 0.1586050 -0.6000000 0.3658675
v 0.1586050 -0.5000000 0.3658675
v 0.1586050 -0.6000000 0.3658700
v 0.1530800 -0.6000000 0.3695600
v 0.1530800 -0.5000000 0.3695600
v 0.1586050 -0.5000000 0.3658700
v 0.1530800 -0.6000000 0.3695600
v 0.0000000 -0.6000000 0.4000000
v 0.0000000 -0.5000000 0.4000000
v 0.1530800 -0.5000000 0.3695600
v 0.1633550 -0.6000000 0.4193025
v 0.1925950 -0.6000000 0.3885875
v 0.1925950 -0.5000000 0.3885875
v 0.1633550 -0.5000000 0.4193025
v 0.2010875 -0.5000000 0.4577800
v 0.1633575 -0.5000000 0.4193025
v 0.2259700 -0.5000000 0.3891500
v 0.2325325 -0.5000000 0.4426400
v 0.1633575 -0.5000000 0.4193025
v 0.1925950 -0.5000000 0.3885850
v 0.2259700 -0.5000000 0.3891500
v 0.1586050 -0.5000000 0.3658675
v 0.2525650 -0.5000000 0.3724375
v 0.2259700 -0.5000000 0.3891500
v 0.1925950 -0.5000000 0.3885850
v 0.2828400 -0.5000000 0.2828400
v 0.3069000 -0.5000000 0.3291100
v 0.2525650 -0.5000000 0.3724375
v 0.1586050 -0.5000000 0.3658675
v 0.2979125 -0.5000000 0.4015575
v 0.2525650 -0.5000000 0.3724375
v 0.3069000 -0.5000000 0.3291100
v 0.3251975 -0.5000000 0.3799750
v 0.3180050 -0.5000000 0.3180050
v 0.3069000 -0.5000000 0.3291100
v 0.2828400 -0.5000000 0.2828400
v 0.0250000 -0.2018650 0.3950300
v 0.0000000 -0.2000000 0.4000000
v 0.0000000 -0.2750000 0.2000000
v 0.0250000 -0.2768650 0.1950300
v 0.0250000 -0.1000000 0.1950275
v 0.0250000 -0.1000000 0.3950275
v 0.0250000 -0.2018650 0.3950275
v 0.0250000 -0.2768650 0.1950275
v 0.3069000 -0.5000000 0.3291100
v 0.3180050 -0.5000000 0.3180050
v 0.3180050 -0.0000000 0.3180050
v 0.3069000 -0.0000000 0.3291100
v 0.3252000 -0.5000000 0.3798000
v 0.3069000 -0.5000000 0.3291100
v 0.3069000 -0.0000000 0.3291100
v 0.3252000 -0.0000000 0.3798000
v 0.2979125 -0.5000000 0.4015575
v 0.3251975 -0.5000000 0.3797975
v 0.3251975 -0.0000000 0.3797975
v 0.2979125 -0.0000000 0.4015575
v 0.2525650 -0.5000000 0.3724375
v 0.2979150 -0.5000000 0.4015575
v 0.2979150 -0.0000000 0.4015575
v 0.2525650 -0.0000000 0.3724375
v 0.2259700 -0.5000000 0.3891500
v 0.2525650 -0.5000000 0.3724400
v 0.2525650 -0.0000000 0.3724400
v 0.2259700 -0.0000000 0.3891500
v 0.2325300 -0.5000000 0.4426400
v 0.2259700 -0.5000000 0.3891500
v 0.2259700 -0.0000000 0.3891500
v 0.2325300 -0.0000000 0.4426400
v 0.2010875 -0.5000000 0.4577800
v 0.2325325 -0.5000000 0.4426400
v 0.2325325 -0.0000000 0.4426400
v 0.2010875 -0.0000000 0.4577800
v 0.1633575 -0.5000000 0.4193025
v 0.2010875 -0.5000000 0.4577825
v 0.2010875 -0.0000000 0.4577825
v 0.1633575 -0.0000000 0.4193025
v 0.1337125 -0.0000000 0.4296750
v 0.1337125 -0.6000000 0.4296750
v 0.1633575 -0.5000000 0.4193025
v 0.1633575 -0.0000000 0.4193025
v 0.1337125 -0.6000000 0.4296750
v 0.1633575 -0.6000000 0.4193025
v 0.1633575 -0.5000000 0.4193025
v 0.1282025 -0.6000000 0.4832850
v 0.1337125 -0.6000000 0.4296750
v 0.1337125 -0.0000000 0.4296750
v 0.1282025 -0.0000000 0.4832850
v 0.0941800 -0.6000000 0.4910500
v 0.1282050 -0.6000000 0.4832850
v 0.1282050 -0.0000000 0.4832850
v 0.0941800 -0.0000000 0.4910500
v 0.0659600 -0.6000000 0.4451400
v 0.0941800 -0.6000000 0.4910500
v 0.0941800 -0.0000000 0.4910500
v 0.0659600 -0.0000000 0.4451400
v 0.0347500 -0.6000000 0.4486600
v 0.0659600 -0.6000000 0.4451400
v 0.0659600 -0.0000000 0.4451400
v 0.0347500 -0.0000000 0.4486600
v 0.0174500 -0.6000000 0.4996975
v 0.0347500 -0.6000000 0.4486575
v 0.0347500 -0.0000000 0.4486575
v 0.0174500 -0.0000000 0.4996975
v 0.0000000 -0.0000000 0.4996950
v 0.0000000 -0.6000000 0.4996950
v 0.0174500 -0.6000000 0.4996950
v 0.0174500 -0.0000000 0.4996950
v 0.3251975 -0.0000000 0.3799750
v 0.3069000 -0.0000000 0.3291100
v 0.2525650 -0.0000000 0.3724375
v 0.2979125 -0.0000000 0.4015575
v 0.2325325 -0.0000000 0.4426400
v 0.2259700 -0.0000000 0.3891500
v 0.1633575 -0.0000000 0.4193025
v 0.2010875 -0.0000000 0.4577800
v 0.1282050 -0.0000000 0.4832850
v 0.1337125 -0.0000000 0.4296750
v 0.0659600 -0.0000000 0.4451400
v 0.0941800 -0.0000000 0.4910500
v 0.0000000 -0.0000000 0.4996950
v 0.0174500 -0.0000000 0.4996950
v 0.0347475 -0.0000000 0.4486575
v 0.0000000 -0.0000000 0.1500000
v 0.0347475 -0.0000000 0.4486575
v 0.0659600 -0.0000000 0.4451400
v 0.0000000 -0.0000000 0.1500000
v 0.1337125 -0.0000000 0.4296750
v 0.0574050 -0.0000000 0.1385850
v 0.0000000 -0.0000000 0.1500000
v 0.0659600 -0.0000000 0.4451400
v 0.2259700 -0.0000000 0.3891500
v 0.0574050 -0.0000000 0.1385850
v 0.1337125 -0.0000000 0.4296750
v 0.1633575 -0.0000000 0.4193025
v 0.2525650 -0.0000000 0.3724375
v 0.1060650 -0.0000000 0.1060650
v 0.0574050 -0.0000000 0.1385850
v 0.2259700 -0.0000000 0.3891500
v 0.3180050 -0.0000000 0.3180050
v 0.1060650 -0.0000000 0.1060650
v 0.2525650 -0.0000000 0.3724375
v 0.3069000 -0.0000000 0.3291100
v 0.3444150 -0.0000000 0.3444150
v 0.3208750 -0.0000000 0.3679550
v 0.3069000 -0.0000000 0.3291100
v 0.3180050 -0.0000000 0.3180050
v 0.2500000 -0.0000000 0.4000000
v 0.2259700 -0.0000000 0.3891500
v 0.2525650 -0.0000000 0.3724375
v 0.2847325 -0.0000000 0.3930925
v 0.2500000 -0.0000000 0.4000000
v 0.2267325 -0.0000000 0.3953725
v 0.2259700 -0.0000000 0.3891500
v 0.0000000 -0.6000000 0.4000000
v 0.0000000 -0.6000000 0.4996950
v -0.0174500 -0.6000000 0.4996950
v -0.0347475 -0.6000000 0.4486575
v -0.0347475 -0.6000000 0.4486575
v -0.0659600 -0.6000000 0.4451400
v -0.1530800 -0.6000000 0.3695600
v 0.0000000 -0.6000000 0.4000000
v -0.1530800 -0.6000000 0.3695600
v -0.0659600 -0.6000000 0.4451400
v -0.1337125 -0.6000000 0.4296750
v -0.1633575 -0.6000000 0.4193025
v -0.0659600 -0.6000000 0.4451400
v -0.0941800 -0.6000000 0.4910500
v -0.1282050 -0.6000000 0.4832850
v -0.1337125 -0.6000000 0.4296750
v -0.1530800 -0.6000000 0.3695600
v -0.1633575 -0.6000000 0.4193025
v -0.1925950 -0.6000000 0.3885850
v -0.1586050 -0.6000000 0.3658675
v -0.1586050 -0.5000000 0.3658675
v -0.1586050 -0.6000000 0.3658675
v -0.1925950 -0.6000000 0.3885875
v -0.1925950 -0.5000000 0.3885875
v -0.1586050 -0.5000000 0.3658700
v -0.1530800 -0.5000000 0.3695600
v -0.1530800 -0.6000000 0.3695600
v -0.1586050 -0.6000000 0.3658700
v -0.1530800 -0.5000000 0.3695600
v 0.0000000 -0.5000000 0.4000000
v 0.0000000 -0.6000000 0.4000000
v -0.1530800 -0.6000000 0.3695600
v -0.1633550 -0.5000000 0.4193025
v -0.1925950 -0.5000000 0.3885875
v -0.1925950 -0.6000000 0.3885875
v -0.1633550 -0.6000000 0.4193025
v -0.2325325 -0.5000000 0.4426400
v -0.2259700 -0.5000000 0.3891500
v -0.1633575 -0.5000000 0.4193025
v -0.2010875 -0.5000000 0.4577800
v -0.2259700 -0.5000000 0.3891500
v -0.1925950 -0.5000000 0.3885850
v -0.1633575 -0.5000000 0.4193025
v -0.1925950 -0.5000000 0.3885850
v -0.2259700 -0.5000000 0.3891500
v -0.2525650 -0.5000000 0.3724375
v -0.1586050 -0.5000000 0.3658675
v -0.1586050 -0.5000000 0.3658675
v -0.2525650 -0.5000000 0.3724375
v -0.3069000 -0.5000000 0.3291100
v -0.2828400 -0.5000000 0.2828400
v -0.3251975 -0.5000000 0.3799750
v -0.3069000 -0.5000000 0.3291100
v -0.2525650 -0.5000000 0.3724375
v -0.2979125 -0.5000000 0.4015575
v -0.2828400 -0.5000000 0.2828400
v -0.3069000 -0.5000000 0.3291100
v -0.3180050 -0.5000000 0.3180050
v -0.0250000 -0.2768650 0.1950300
v 0.0000000 -0.2750000 0.2000000
v 0.0000000 -0.2000000 0.4000000
v -0.0250000 -0.2018650 0.3950300
v -0.0250000 -0.2768650 0.1950275
v -0.0250000 -0.2018650 0.3950275
v -0.0250000 -0.1000000 0.3950275
v -0.0250000 -0.1000000 0.1950275
v -0.3069000 -0.0000000 0.3291100
v -0.3180050 -0.0000000 0.3180050
v -0.3180050 -0.5000000 0.3180050
v -0.3069000 -0.5000000 0.3291100
v -0.3252000 -0.0000000 0.3798000
v -0.3069000 -0.0000000 0.3291100
v -0.3069000 -0.5000000 0.3291100
v -0.3252000 -0.5000000 0.3798000
v -0.2979125 -0.0000000 0.4015575
v -0.3251975 -0.0000000 0.3797975
v -0.3251975 -0.5000000 0.3797975
v -0.2979125 -0.5000000 0.4015575
v -0.2525650 -0.0000000 0.3724375
v -0.2979150 -0.0000000 0.4015575
v -0.2979150 -0.5000000 0.4015575
v -0.2525650 -0.5000000 0.3724375
v -0.2259700 -0.0000000 0.3891500
v -0.2525650 -0.0000000 0.3724400
v -0.2525650 -0.5000000 0.3724400
v -0.2259700 -0.5000000 0.3891500
v -0.2325300 -0.0000000 0.4426400
v -0.2259700 -0.0000000 0.3891500
v -0.2259700 -0.5000000 0.3891500
v -0.2325300 -0.5000000 0.4426400
v -0.2010875 -0.0000000 0.4577800
v -0.2325325 -0.0000000 0.4426400
v -0.2325325 -0.5000000 0.4426400
v -0.2010875 -0.5000000 0.4577800
v -0.1633575 -0.0000000 0.4193025
v -0.2010875 -0.0000000 0.4577825
v -0.2010875 -0.5000000 0.4577825
v -0.1633575 -0.5000000 0.4193025
v -0.1633575 -0.0000000 0.4193025
v -0.1633575 -0.5000000 0.4193025
v -0.1337125 -0.6000000 0.4296750
v -0.1337125 -0.0000000 0.4296750
v -0.1633575 -0.5000000 0.4193025
v -0.1633575 -0.6000000 0.4193025
v -0.1337125 -0.6000000 0.4296750
v -0.1282025 -0.0000000 0.4832850
v -0.1337125 -0.0000000 0.4296750
v -0.1337125 -0.6000000 0.4296750
v -0.1282025 -0.6000000 0.4832850
v -0.0941800 -0.0000000 0.4910500
v -0.1282050 -0.0000000 0.4832850
v -0.1282050 -0.6000000 0.4832850
v -0.0941800 -0.6000000 0.4910500
v -0.0659600 -0.0000000 0.4451400
v -0.0941800 -0.0000000 0.4910500
v -0.0941800 -0.6000000 0.4910500
v -0.0659600 -0.6000000 0.4451400
v -0.0347500 -0.0000000 0.4486600
v -0.0659600 -0.0000000 0.4451400
v -0.0659600 -0.6000000 0.4451400
v -0.0347500 -0.6000000 0.4486600
v -0.0174500 -0.0000000 0.4996975
v -0.0347500 -0.0000000 0.4486575
v -0.0347500 -0.6000000 0.4486575
v -0.0174500 -0.6000000 0.4996975
v -0.0174500 -0.0000000 0.4996950
v -0.0174500 -0.6000000 0.4996950
v 0.0000000 -0.6000000 0.4996950
v 0.0000000 -0.0000000 0.4996950
v -0.2979125 -0.0000000 0.4015575
v -0.2525650 -0.0000000 0.3724375
v -0.3069000 -0.0000000 0.3291100
v -0.3251975 -0.0000000 0.3799750
v -0.2010875 -0.0000000 0.4577800
v -0.1633575 -0.0000000 0.4193025
v -0.2259700 -0.0000000 0.3891500
v -0.2325325 -0.0000000 0.4426400
v -0.0941800 -0.0000000 0.4910500
v -0.0659600 -0.0000000 0.4451400
v -0.1337125 -0.0000000 0.4296750
v -0.1282050 -0.0000000 0.4832850
v 0.0000000 -0.0000000 0.1500000
v -0.0347475 -0.0000000 0.4486575
v -0.0174500 -0.0000000 0.4996950
v 0.0000000 -0.0000000 0.4996950
v 0.0000000 -0.0000000 0.1500000
v -0.0659600 -0.0000000 0.4451400
v -0.0347475 -0.0000000 0.4486575
v -0.0659600 -0.0000000 0.4451400
v 0.0000000 -0.0000000 0.1500000
v -0.0574050 -0.0000000 0.1385850
v -0.1337125 -0.0000000 0.4296750
v -0.1633575 -0.0000000 0.4193025
v -0.1337125 -0.0000000 0.4296750
v -0.0574050 -0.0000000 0.1385850
v -0.2259700 -0.0000000 0.3891500
v -0.2259700 -0.0000000 0.3891500
v -0.0574050 -0.0000000 0.1385850
v -0.1060650 -0.0000000 0.1060650
v -0.2525650 -0.0000000 0.3724375
v -0.3069000 -0.0000000 0.3291100
v -0.2525650 -0.0000000 0.3724375
v -0.1060650 -0.0000000 0.1060650
v -0.3180050 -0.0000000 0.3180050
v -0.3180050 -0.0000000 0.3180050
v -0.3069000 -0.0000000 0.3291100
v -0.3208750 -0.0000000 0.3679550
v -0.3444150 -0.0000000 0.3444150
v -0.2847325 -0.0000000 0.3930925
v -0.2525650 -0.0000000 0.3724375
v -0.2259700 -0.0000000 0.3891500
v -0.2500000 -0.0000000 0.4000000
v -0.2259700 -0.0000000 0.3891500
v -0.2267325 -0.0000000 0.3953725
v -0.2500000 -0.0000000 0.4000000
v -0.4486575 -0.6000000 0.0347475
v -0.4996950 -0.6000000 0.0174500
v -0.4996950 -0.6000000 0.0000000
v -0.4000000 -0.6000000 0.0000000
v -0.4000000 -0.6000000 0.0000000
v -0.3695600 -0.6000000 0.1530800
v -0.4451400 -0.6000000 0.0659600
v -0.4486575 -0.6000000 0.0347475
v -0.4193025 -0.6000000 0.1633575
v -0.4296750 -0.6000000 0.1337125
v -0.4451400 -0.6000000 0.0659600
v -0.3695600 -0.6000000 0.1530800
v -0.4296750 -0.6000000 0.1337125
v -0.4832850 -0.6000000 0.1282050
v -0.4910500 -0.6000000 0.0941800
v -0.4451400 -0.6000000 0.0659600
v -0.3658675 -0.6000000 0.1586050
v -0.3885850 -0.6000000 0.1925950
v -0.4193025 -0.6000000 0.1633575
v -0.3695600 -0.6000000 0.1530800
v -0.3885875 -0.5000000 0.1925950
v -0.3885875 -0.6000000 0.1925950
v -0.3658675 -0.6000000 0.1586050
v -0.3658675 -0.5000000 0.1586050
v -0.3658700 -0.6000000 0.1586050
v -0.3695600 -0.6000000 0.1530800
v -0.3695600 -0.5000000 0.1530800
v -0.3658700 -0.5000000 0.1586050
v -0.3695600 -0.6000000 0.1530800
v -0.4000000 -0.6000000 0.0000000
v -0.4000000 -0.5000000 0.0000000
v -0.3695600 -0.5000000 0.1530800
v -0.4193025 -0.6000000 0.1633550
v -0.3885875 -0.6000000 0.1925950
v -0.3885875 -0.5000000 0.1925950
v -0.4193025 -0.5000000 0.1633550
v -0.4577800 -0.5000000 0.2010875
v -0.4193025 -0.5000000 0.1633575
v -0.3891500 -0.5000000 0.2259700
v -0.4426400 -0.5000000 0.2325325
v -0.4193025 -0.5000000 0.1633575
v -0.3885850 -0.5000000 0.1925950
v -0.3891500 -0.5000000 0.2259700
v -0.3658675 -0.5000000 0.1586050
v -0.3724375 -0.5000000 0.2525650
v -0.3891500 -0.5000000 0.2259700
v -0.3885850 -0.5000000 0.1925950
v -0.2828400 -0.5000000 0.2828400
v -0.3291100 -0.5000000 0.3069000
v -0.3724375 -0.5000000 0.2525650
v -0.3658675 -0.5000000 0.1586050
v -0.4015575 -0.5000000 0.2979125
v -0.3724375 -0.5000000 0.2525650
v -0.3291100 -0.5000000 0.3069000
v -0.3799750 -0.5000000 0.3251975
v -0.3180050 -0.5000000 0.3180050
v -0.3291100 -0.5000000 0.3069000
v -0.2828400 -0.5000000 0.2828400
v -0.3950300 -0.2018650 0.0250000
v -0.4000000 -0.2000000 0.0000000
v -0.2000000 -0.2750000 0.0000000
v -0.1950300 -0.2768650 0.0250000
v -0.1950275 -0.1000000 0.0250000
v -0.3950275 -0.1000000 0.0250000
v -0.3950275 -0.2018650 0.0250000
v -0.1950275 -0.2768650 0.0250000
v -0.3291100 -0.5000000 0.3069000
v -0.3180050 -0.5000000 0.3180050
v -0.3180050 -0.0000000 0.3180050
v -0.3291100 -0.0000000 0.3069000
v -0.3798000 -0.5000000 0.3252000
v -0.3291100 -0.5000000 0.3069000
v -0.3291100 -0.0000000 0.3069000
v -0.3798000 -0.0000000 0.3252000
v -0.4015575 -0.5000000 0.2979125
v -0.3797975 -0.5000000 0.3251975
v -0.3797975 -0.0000000 0.3251975
v -0.4015575 -0.0000000 0.2979125
v -0.3724375 -0.5000000 0.2525650
v -0.4015575 -0.5000000 0.2979150
v -0.4015575 -0.0000000 0.2979150
v -0.3724375 -0.0000000 0.2525650
v -0.3891500 -0.5000000 0.2259700
v -0.3724400 -0.5000000 0.2525650
v -0.3724400 -0.0000000 0.2525650
v -0.3891500 -0.0000000 0.2259700
v -0.4426400 -0.5000000 0.2325300
v -0.3891500 -0.5000000 0.2259700
v -0.3891500 -0.0000000 0.2259700
v -0.4426400 -0.0000000 0.2325300
v -0.4577800 -0.5000000 0.2010875
v -0.4426400 -0.5000000 0.2325325
v -0.4426400 -0.0000000 0.2325325
v -0.4577800 -0.0000000 0.2010875
v -0.4193025 -0.5000000 0.1633575
v -0.4577825 -0.5000000 0.2010875
v -0.4577825 -0.0000000 0.2010875
v -0.4193025 -0.0000000 0.1633575
v -0.4296750 -0.0000000 0.1337125
v -0.4296750 -0.6000000 0.1337125
v -0.4193025 -0.5000000 0.1633575
v -0.4193025 -0.0000000 0.1633575
v -0.4296750 -0.6000000 0.1337125
v -0.4193025 -0.6000000 0.1633575
v -0.4193025 -0.5000000 0.1633575
v -0.4832850 -0.6000000 0.1282025
v -0.4296750 -0.6000000 0.1337125
v -0.4296750 -0.0000000 0.1337125
v -0.4832850 -0.0000000 0.1282025
v -0.4910500 -0.6000000 0.0941800
v -0.4832850 -0.6000000 0.1282050
v -0.4832850 -0.0000000 0.1282050
v -0.4910500 -0.0000000 0.0941800
v -0.4451400 -0.6000000 0.0659600
v -0.4910500 -0.6000000 0.0941800
v -0.4910500 -0.0000000 0.0941800
v -0.4451400 -0.0000000 0.0659600
v -0.4486600 -0.6000000 0.0347500
v -0.4451400 -0.6000000 0.0659600
v -0.4451400 -0.0000000 0.0659600
v -0.4486600 -0.0000000 0.0347500
v -0.4996975 -0.6000000 0.0174500
v -0.4486575 -0.6000000 0.0347500
v -0.4486575 -0.0000000 0.0347500
v -0.4996975 -0.0000000 0.0174500
v -0.4996950 -0.0000000 0.0000000
v -0.4996950 -0.6000000 0.0000000
v -0.4996950 -0.6000000 0.0174500
v -0.4996950 -0.0000000 0.0174500
v -0.3799750 -0.0000000 0.3251975
v -0.3291100 -0.0000000 0.3069000
v -0.3724375 -0.0000000 0.2525650
v -0.4015575 -0.0000000 0.2979125
v -0.4426400 -0.0000000 0.2325325
v -0.3891500 -0.0000000 0.2259700
v -0.4193025 -0.0000000 0.1633575
v -0.4577800 -0.0000000 0.2010875
v -0.4832850 -0.0000000 0.1282050
v -0.4296750 -0.0000000 0.1337125
v -0.4451400 -0.0000000 0.0659600
v -0.4910500 -0.0000000 0.0941800
v -0.4996950 -0.0000000 0.0000000
v -0.4996950 -0.0000000 0.0174500
v -0.4486575 -0.0000000 0.0347475
v -0.1500000 -0.0000000 0.0000000
v -0.4486575 -0.0000000 0.0347475
v -0.4451400 -0.0000000 0.0659600
v -0.1500000 -0.0000000 0.0000000
v -0.4296750 -0.0000000 0.1337125
v -0.1385850 -0.0000000 0.0574050
v -0.1500000 -0.0000000 0.0000000
v -0.4451400 -0.0000000 0.0659600
v -0.3891500 -0.0000000 0.2259700
v -0.1385850 -0.0000000 0.0574050
v -0.4296750 -0.0000000 0.1337125
v -0.4193025 -0.0000000 0.1633575
v -0.3724375 -0.0000000 0.2525650
v -0.1060650 -0.0000000 0.1060650
v -0.1385850 -0.0000000 0.0574050
v -0.3891500 -0.0000000 0.2259700
v -0.3180050 -0.0000000 0.3180050
v -0.1060650 -0.0000000 0.1060650
v -0.3724375 -0.0000000 0.2525650
v -0.3291100 -0.0000000 0.3069000
v -0.3444150 -0.0000000 0.3444150
v -0.3679550 -0.0000000 0.3208750
v -0.3291100 -0.0000000 0.3069000
v -0.3180050 -0.0000000 0.3180050
v -0.4000000 -0.0000000 0.2500000
v -0.3891500 -0.0000000 0.2259700
v -0.3724375 -0.0000000 0.2525650
v -0.3930925 -0.0000000 0.2847325
v -0.4000000 -0.0000000 0.2500000
v -0.3953725 -0.0000000 0.2267325
v -0.3891500 -0.0000000 0.2259700
v -0.4000000 -0.6000000 0.0000000
v -0.4996950 -0.6000000 0.0000000
v -0.4996950 -0.6000000 -0.0174500
v -0.4486575 -0.6000000 -0.0347475
v -0.4486575 -0.6000000 -0.0347475
v -0.4451400 -0.6000000 -0.0659600
v -0.3695600 -0.6000000 -0.1530800
v -0.4000000 -0.6000000 0.0000000
v -0.3695600 -0.6000000 -0.1530800
v -0.4451400 -0.6000000 -0.0659600
v -0.4296750 -0.6000000 -0.1337125
v -0.4193025 -0.6000000 -0.1633575
v -0.4451400 -0.6000000 -0.0659600
v -0.4910500 -0.6000000 -0.0941800
v -0.4832850 -0.6000000 -0.1282050
v -0.4296750 -0.6000000 -0.1337125
v -0.3695600 -0.6000000 -0.1530800
v -0.4193025 -0.6000000 -0.1633575
v -0.3885850 -0.6000000 -0.1925950
v -0.3658675 -0.6000000 -0.1586050
v -0.3658675 -0.5000000 -0.1586050
v -0.3658675 -0.6000000 -0.1586050
v -0.3885875 -0.6000000 -0.1925950
v -0.3885875 -0.5000000 -0.1925950
v -0.3658700 -0.5000000 -0.1586050
v -0.3695600 -0.5000000 -0.1530800
v -0.3695600 -0.6000000 -0.1530800
v -0.3658700 -0.6000000 -0.1586050
v -0.3695600 -0.5000000 -0.1530800
v -0.4000000 -0.5000000 0.0000000
v -0.4000000 -0.6000000 0.0000000
v -0.3695600 -0.6000000 -0.1530800
v -0.4193025 -0.5000000 -0.1633550
v -0.3885875 -0.5000000 -0.1925950
v -0.3885875 -0.6000000 -0.1925950
v -0.4193025 -0.6000000 -0.1633550
v -0.4426400 -0.5000000 -0.2325325
v -0.3891500 -0.5000000 -0.2259700
v -0.4193025 -0.5000000 -0.1633575
v -0.4577800 -0.5000000 -0.2010875
v -0.3891500 -0.5000000 -0.2259700
v -0.3885850 -0.5000000 -0.1925950
v -0.4193025 -0.5000000 -0.1633575
v -0.3885850 -0.5000000 -0.1925950
v -0.3891500 -0.5000000 -0.2259700
v -0.3724375 -0.5000000 -0.2525650
v -0.3658675 -0.5000000 -0.1586050
v -0.3658675 -0.5000000 -0.1586050
v -0.3724375 -0.5000000 -0.2525650
v -0.3291100 -0.5000000 -0.3069000
v -0.2828400 -0.5000000 -0.2828400
v -0.3799750 -0.5000000 -0.3251975
v -0.3291100 -0.5000000 -0.3069000
v -0.3724375 -0.5000000 -0.2525650
v -0.4015575 -0.5000000 -0.2979125
v -0.2828400 -0.5000000 -0.2828400
v -0.3291100 -0.5000000 -0.3069000
v -0.3180050 -0.5000000 -0.3180050
v -0.1950300 -0.2768650 -0.0250000
v -0.2000000 -0.2750000 0.0000000
v -0.4000000 -0.2000000 0.0000000
v -0.3950300 -0.2018650 -0.0250000
v -0.1950275 -0.2768650 -0.0250000
v -0.3950275 -0.2018650 -0.0250000
v -0.3950275 -0.1000000 -0.0250000
v -0.1950275 -0.1000000 -0.0250000
v -0.3291100 -0.0000000 -0.3069000
v -0.3180050 -0.0000000 -0.3180050
v -0.3180050 -0.5000000 -0.3180050
v -0.3291100 -0.5000000 -0.3069000
v -0.3798000 -0.0000000 -0.3252000
v -0.3291100 -0.0000000 -0.3069000
v -0.3291100 -0.5000000 -0.3069000
v -0.3798000 -0.5000000 -0.3252000
v -0.4015575 -0.0000000 -0.2979125
v -0.3797975 -0.0000000 -0.3251975
v -0.3797975 -0.5000000 -0.3251975
v -0.4015575 -0.5000000 -0.2979125
v -0.3724375 -0.0000000 -0.2525650
v -0.4015575 -0.0000000 -0.2979150
v -0.4015575 -0.5000000 -0.2979150
v -0.3724375 -0.5000000 -0.2525650
v -0.3891500 -0.0000000 -0.2259700
v -0.3724400 -0.0000000 -0.2525650
v -0.3724400 -0.5000000 -0.2525650
v -0.3891500 -0.5000000 -0.2259700
v -0.4426400 -0.0000000 -0.2325300
v -0.3891500 -0.0000000 -0.2259700
v -0.3891500 -0.5000000 -0.2259700
v -0.4426400 -0.5000000 -0.2325300
v -0.4577800 -0.0000000 -0.2010875
v -0.4426400 -0.0000000 -0.2325325
v -0.4426400 -0.5000000 -0.2325325
v -0.4577800 -0.5000000 -0.2010875
v -0.4193025 -0.0000000 -0.1633575
v -0.4577825 -0.0000000 -0.2010875
v -0.4577825 -0.5000000 -0.2010875
v -0.4193025 -0.5000000 -0.1633575
v -0.4193025 -0.0000000 -0.1633575
v -0.4193025 -0.5000000 -0.1633575
v -0.4296750 -0.6000000 -0.1337125
v -0.4296750 -0.0000000 -0.1337125
v -0.4193025 -0.5000000 -0.1633575
v -0.4193025 -0.6000000 -0.1633575
v -0.4296750 -0.6000000 -0.1337125
v -0.4832850 -0.0000000 -0.1282025
v -0.4296750 -0.0000000 -0.1337125
v -0.4296750 -0.6000000 -0.1337125
v -0.4832850 -0.6000000 -0.1282025
v -0.4910500 -0.0000000 -0.0941800
v -0.4832850 -0.0000000 -0.1282050
v -0.4832850 -0.6000000 -0.1282050
v -0.4910500 -0.6000000 -0.0941800
v -0.4451400 -0.0000000 -0.0659600
v -0.4910500 -0.0000000 -0.0941800
v -0.4910500 -0.6000000 -0.0941800
v -0.4451400 -0.6000000 -0.0659600
v -0.4486600 -0.0000000 -0.0347500
v -0.4451400 -0.0000000 -0.0659600
v -0.4451400 -0.6000000 -0.0659600
v -0.4486600 -0.6000000 -0.0347500
v -0.4996975 -0.0000000 -0.0174500
v -0.4486575 -0.0000000 -0.0347500
v -0.4486575 -0.6000000 -0.0347500
v -0.4996975 -0.6000000 -0.0174500
v -0.4996950 -0.0000000 -0.0174500
v -0.4996950 -0.6000000 -0.0174500
v -0.4996950 -0.6000000 0.0000000
v -0.4996950 -0.0000000 0.0000000
v -0.4015575 -0.0000000 -0.2979125
v -0.3724375 -0.0000000 -0.2525650
v -0.3291100 -0.0000000 -0.3069000
v -0.3799750 -0.0000000 -0.3251975
v -0.4577800 -0.0000000 -0.2010875
v -0.4193025 -0.0000000 -0.1633575
v -0.3891500 -0.0000000 -0.2259700
v -0.4426400 -0.0000000 -0.2325325
v -0.4910500 -0.0000000 -0.0941800
v -0.4451400 -0.0000000 -0.0659600
v -0.4296750 -0.0000000 -0.1337125
v -0.4832850 -0.0000000 -0.1282050
v -0.1500000 -0.0000000 0.0000000
v -0.4486575 -0.0000000 -0.0347475
v -0.4996950 -0.0000000 -0.0174500
v -0.4996950 -0.0000000 0.0000000
v -0.1500000 -0.0000000 0.0000000
v -0.4451400 -0.0000000 -0.0659600
v -0.4486575 -0.0000000 -0.0347475
v -0.4451400 -0.0000000 -0.0659600
v -0.1500000 -0.0000000 0.0000000
v -0.1385850 -0.0000000 -0.0574050
v -0.4296750 -0.0000000 -0.1337125
v -0.4193025 -0.0000000 -0.1633575
v -0.4296750 -0.0000000 -0.1337125
v -0.1385850 -0.0000000 -0.0574050
v -0.3891500 -0.0000000 -0.2259700
v -0.3891500 -0.0000000 -0.2259700
v -0.1385850 -0.0000000 -0.0574050
v -0.1060650 -0.0000000 -0.1060650
v -0.3724375 -0.0000000 -0.2525650
v -0.3291100 -0.0000000 -0.3069000
v -0.3724375 -0.0000000 -0.2525650
v -0.1060650 -0.0000000 -0.1060650
v -0.3180050 -0.0000000 -0.3180050
v -0.3180050 -0.0000000 -0.3180050
v -0.3291100 -0.0000000 -0.3069000
v -0.3679550 -0.0000000 -0.3208750
v -0.3444150 -0.0000000 -0.3444150
v -0.3930925 -0.0000000 -0.2847325
v -0.3724375 -0.0000000 -0.2525650
v -0.3891500 -0.0000000 -0.2259700
v -0.4000000 -0.0000000 -0.2500000
v -0.3891500 -0.0000000 -0.2259700
v -0.3953725 -0.0000000 -0.2267325
v -0.4000000 -0.0000000 -0.2500000
v -0.0347475 -0.6000000 -0.4486575
v -0.0174500 -0.6000000 -0.4996950
v 0.0000000 -0.6000000 -0.4996950
v 0.0000000 -0.6000000 -0.4000000
v 0.0000000 -0.6000000 -0.4000000
v -0.1530800 -0.6000000 -0.3695600
v -0.0659600 -0.6000000 -0.4451400
v -0.0347475 -0.6000000 -0.4486575
v -0.1633575 -0.6000000 -0.4193025
v -0.1337125 -0.6000000 -0.4296750
v -0.0659600 -0.6000000 -0.4451400
v -0.1530800 -0.6000000 -0.3695600
v -0.1337125 -0.6000000 -0.4296750
v -0.1282050 -0.6000000 -0.4832850
v -0.0941800 -0.6000000 -0.4910500
v -0.0659600 -0.6000000 -0.4451400
v -0.1586050 -0.6000000 -0.3658675
v -0.1925950 -0.6000000 -0.3885850
v -0.1633575 -0.6000000 -0.4193025
v -0.1530800 -0.6000000 -0.3695600
v -0.1925950 -0.5000000 -0.3885875
v -0.1925950 -0.6000000 -0.3885875
v -0.1586050 -0.6000000 -0.3658675
v -0.1586050 -0.5000000 -0.3658675
v -0.1586050 -0.6000000 -0.3658700
v -0.1530800 -0.6000000 -0.3695600
v -0.1530800 -0.5000000 -0.3695600
v -0.1586050 -0.5000000 -0.3658700
v -0.1530800 -0.6000000 -0.3695600
v 0.0000000 -0.6000000 -0.4000000
v 0.0000000 -0.5000000 -0.4000000
v -0.1530800 -0.5000000 -0.3695600
v -0.1633550 -0.6000000 -0.4193025
v -0.1925950 -0.6000000 -0.3885875
v -0.1925950 -0.5000000 -0.3885875
v -0.1633550 -0.5000000 -0.4193025
v -0.2010875 -0.5000000 -0.4577800
v -0.1633575 -0.5000000 -0.4193025
v -0.2259700 -0.5000000 -0.3891500
v -0.2325325 -0.5000000 -0.4426400
v -0.1633575 -0.5000000 -0.4193025
v -0.1925950 -0.5000000 -0.3885850
v -0.2259700 -0.5000000 -0.3891500
v -0.1586050 -0.5000000 -0.3658675
v -0.2525650 -0.5000000 -0.3724375
v -0.2259700 -0.5000000 -0.3891500
v -0.1925950 -0.5000000 -0.3885850
v -0.2828400 -0.5000000 -0.2828400
v -0.3069000 -0.5000000 -0.3291100
v -0.2525650 -0.5000000 -0.3724375
v -0.1586050 -0.5000000 -0.3658675
v -0.2979125 -0.5000000 -0.4015575
v -0.2525650 -0.5000000 -0.3724375
v -0.3069000 -0.5000000 -0.3291100
v -0.3251975 -0.5000000 -0.3799750
v -0.3180050 -0.5000000 -0.3180050
v -0.3069000 -0.5000000 -0.3291100
v -0.2828400 -0.5000000 -0.2828400
v -0.0250000 -0.2018650 -0.3950300
v 0.0000000 -0.2000000 -0.4000000
v 0.0000000 -0.2750000 -0.2000000
v -0.0250000 -0.2768650 -0.1950300
v -0.0250000 -0.1000000 -0.1950275
v -0.0250000 -0.1000000 -0.3950275
v -0.0250000 -0.2018650 -0.3950275
v -0.0250000 -0.2768650 -0.1950275
v -0.3069000 -0.5000000 -0.3291100
v -0.3180050 -0.5000000 -0.3180050
v -0.3180050 -0.0000000 -0.3180050
v -0.3069000 -0.0000000 -0.3291100
v -0.3252000 -0.5000000 -0.3798000
v -0.3069000 -0.5000000 -0.3291100
v -0.3069000 -0.0000000 -0.3291100
v -0.3252000 -0.0000000 -0.3798000
v -0.2979125 -0.5000000 -0.4015575
v -0.3251975 -0.5000000 -0.3797975
v -0.3251975 -0.0000000 -0.3797975
v -0.2979125 -0.0000000 -0.4015575
v -0.2525650 -0.5000000 -0.3724375
v -0.2979150 -0.5000000 -0.4015575
v -0.2979150 -0.0000000 -0.4015575
v -0.2525650 -0.0000000 -0.3724375
v -0.2259700 -0.5000000 -0.3891500
v -0.2525650 -0.5000000 -0.3724400
v -0.2525650 -0.0000000 -0.3724400
v -0.2259700 -0.0000000 -0.3891500
v -0.2325300 -0.5000000 -0.4426400
v -0.2259700 -0.5000000 -0.3891500
v -0.2259700 -0.0000000 -0.3891500
v -0.2325300 -0.0000000 -0.4426400
v -0.2010875 -0.5000000 -0.4577800
v -0.2325325 -0.5000000 -0.4426400
v -0.2325325 -0.0000000 -0.4426400
v -0.2010875 -0.0000000 -0.4577800
v -0.1633575 -0.5000000 -0.4193025
v -0.2010875 -0.5000000 -0.4577825
v -0.2010875 -0.0000000 -0.4577825
v -0.1633575 -0.0000000 -0.4193025
v -0.1337125 -0.0000000 -0.4296750
v -0.1337125 -0.6000000 -0.4296750
v -0.1633575 -0.5000000 -0.4193025
v -0.1633575 -0.0000000 -0.4193025
v -0.1337125 -0.6000000 -0.4296750
v -0.1633575 -0.6000000 -0.4193025
v -0.1633575 -0.5000000 -0.4193025
v -0.1282025 -0.6000000 -0.4832850
v -0.1337125 -0.6000000 -0.4296750
v -0.1337125 -0.0000000 -0.4296750
v -0.1282025 -0.0000000 -0.4832850
v -0.0941800 -0.6000000 -0.4910500
v -0.1282050 -0.6000000 -0.4832850
v -0.1282050 -0.0000000 -0.4832850
v -0.0941800 -0.0000000 -0.4910500
v -0.0659600 -0.6000000 -0.4451400
v -0.0941800 -0.6000000 -0.4910500
v -0.0941800 -0.0000000 -0.4910500
v -0.0659600 -0.0000000 -0.4451400
v -0.0347500 -0.6000000 -0.4486600
v -0.0659600 -0.6000000 -0.4451400
v -0.0659600 -0.0000000 -0.4451400
v -0.0347500 -0.0000000 -0.4486600
v -0.0174500 -0.6000000 -0.4996975
v -0.0347500 -0.6000000 -0.4486575
v -0.0347500 -0.0000000 -0.4486575
v -0.0174500 -0.0000000 -0.4996975
v 0.0000000 -0.0000000 -0.4996950
v 0.0000000 -0.6000000 -0.4996950
v -0.0174500 -0.6000000 -0.4996950
v -0.0174500 -0.0000000 -0.4996950
v -0.3251975 -0.0000000 -0.3799750
v -0.3069000 -0.0000000 -0.3291100
v -0.2525650 -0.0000000 -0.3724375
v -0.2979125 -0.0000000 -0.4015575
v -0.2325325 -0.0000000 -0.4426400
v -0.2259700 -0.0000000 -0.3891500
v -0.1633575 -0.0000000 -0.4193025
v -0.2010875 -0.0000000 -0.4577800
v -0.1282050 -0.0000000 -0.4832850
v -0.1337125 -0.0000000 -0.4296750
v -0.0659600 -0.0000000 -0.4451400
v -0.0941800 -0.0000000 -0.4910500
v 0.0000000 -0.0000000 -0.4996950
v -0.0174500 -0.0000000 -0.4996950
v -0.0347475 -0.0000000 -0.4486575
v 0.0000000 -0.0000000 -0.1500000
v -0.0347475 -0.0000000 -0.4486575
v -0.0659600 -0.0000000 -0.4451400
v 0.0000000 -0.0000000 -0.1500000
v -0.1337125 -0.0000000 -0.4296750
v -0.0574050 -0.0000000 -0.1385850
v 0.0000000 -0.0000000 -0.1500000
v -0.0659600 -0.0000000 -0.4451400
v -0.2259700 -0.0000000 -0.3891500
v -0.0574050 -0.0000000 -0.1385850
v -0.1337125 -0.0000000 -0.4296750
v -0.1633575 -0.0000000 -0.4193025
v -0.2525650 -0.0000000 -0.3724375
v -0.1060650 -0.0000000 -0.1060650
v -0.0574050 -0.0000000 -0.1385850
v -0.2259700 -0.0000000 -0.3891500
v -0.3180050 -0.0000000 -0.3180050
v -0.1060650 -0.0000000 -0.1060650
v -0.2525650 -0.0000000 -0.3724375
v -0.3069000 -0.0000000 -0.3291100
v -0.3444150 -0.0000000 -0.3444150
v -0.3208750 -0.0000000 -0.3679550
v -0.3069000 -0.0000000 -0.3291100
v -0.3180050 -0.0000000 -0.3180050
v -0.2500000 -0.0000000 -0.4000000
v -0.2259700 -0.0000000 -0.3891500
v -0.2525650 -0.0000000 -0.3724375
v -0.2847325 -0.0000000 -0.3930925
v -0.2500000 -0.0000000 -0.4000000
v -0.2267325 -0.0000000 -0.3953725
v -0.2259700 -0.0000000 -0.3891500
v 0.1925950 0.1000000 0.3885850
v 0.2500000 0.1000000 0.4000000
v 0.2500000 0.1000000 0.2500000
v 0.1439350 0.1000000 0.3560650
v 0.1925950 0.1000000 0.3885850
v 0.2500000 0.1000000 0.2500000
v 0.1114150 0.1000000 0.3074050
v 0.1439350 0.1000000 0.3560650
v 0.2500000 0.1000000 0.2500000
v 0.1000000 0.1000000 0.2500000
v 0.1114150 0.1000000 0.3074050
v 0.2500000 0.1000000 0.2500000
v 0.1114150 0.1000000 0.1925950
v 0.1000000 0.1000000 0.2500000
v 0.2500000 0.1000000 0.2500000
v 0.1439350 0.1000000 0.1439350
v 0.1114150 0.1000000 0.1925950
v 0.2500000 0.1000000 0.2500000
v 0.1925950 0.1000000 0.1114150
v 0.1439350 0.1000000 0.1439350
v 0.2500000 0.1000000 0.2500000
v 0.2500000 0.1000000 0.1000000
v 0.1925950 0.1000000 0.1114150
v 0.2500000 0.1000000 0.2500000
v 0.3074050 0.1000000 0.1114150
v 0.2500000 0.1000000 0.1000000
v 0.2500000 0.1000000 0.2500000
v 0.3560650 0.1000000 0.1439350
v 0.3074050 0.1000000 0.1114150
v 0.2500000 0.1000000 0.2500000
v 0.3885850 0.1000000 0.1925950
v 0.3560650 0.1000000 0.1439350
v 0.2500000 0.1000000 0.2500000
v 0.4000000 0.1000000 0.2500000
v 0.3885850 0.1000000 0.1925950
v 0.2500000 0.1000000 0.2500000
v 0.2500000 -0.0000000 0.4000000
v 0.2500000 0.1000000 0.4000000
v 0.1925950 0.1000000 0.3885850
v 0.1925950 -0.0000000 0.3885850
v 0.1925950 -0.0000000 0.3885850
v 0.1925950 0.1000000 0.3885850
v 0.1439350 0.1000000 0.3560650
v 0.1439350 -0.0000000 0.3560650
v 0.1439350 -0.0000000 0.3560650
v 0.1439350 0.1000000 0.3560650
v 0.1114150 0.1000000 0.3074050
v 0.1114150 -0.0000000 0.3074050
v 0.1114150 -0.0000000 0.3074050
v 0.1114150 0.1000000 0.3074050
v 0.1000000 0.1000000 0.2500000
v 0.1000000 -0.0000000 0.2500000
v 0.1000000 -0.0000000 0.2500000
v 0.1000000 0.1000000 0.2500000
v 0.1114150 0.1000000 0.1925950
v 0.1114150 -0.0000000 0.1925950
v 0.1114150 -0.0000000 0.1925950
v 0.1114150 0.1000000 0.1925950
v 0.1439350 0.1000000 0.1439350
v 0.1439350 -0.0000000 0.1439350
v 0.1439350 -0.0000000 0.1439350
v 0.1439350 0.1000000 0.1439350
v 0.1925950 0.1000000 0.1114150
v 0.1925950 -0.0000000 0.1114150
v 0.1925950 -0.0000000 0.1114150
v 0.1925950 0.1000000 0.1114150
v 0.2500000 0.1000000 0.1000000
v 0.2500000 -0.0000000 0.1000000
v 0.2500000 -0.0000000 0.1000000
v 0.2500000 0.1000000 0.1000000
v 0.3074050 0.1000000 0.1114150
v 0.3074050 -0.0000000 0.1114150
v 0.3074050 -0.0000000 0.1114150
v 0.3074050 0.1000000 0.1114150
v 0.3560650 0.1000000 0.1439350
v 0.3560650 -0.0000000 0.1439350
v 0.3560650 -0.0000000 0.1439350
v 0.3560650 0.1000000 0.1439350
v 0.3885850 0.1000000 0.1925950
v 0.3885850 -0.0000000 0.1925950
v 0.3885850 -0.0000000 0.1925950
v 0.3885850 0.1000000 0.1925950
v 0.4000000 0.1000000 0.2500000
v 0.4000000 -0.0000000 0.2500000
v 0.2500000 0.1000000 0.4000000
v 0.2500000 -0.0000000 0.4000000
v 0.2984700 -0.0000000 0.3903625
v 0.2984700 0.1000000 0.3903625
v 0.2984700 -0.0000000 0.3903625
v 0.3903625 -0.0000000 0.2984700
v 0.3903625 0.1000000 0.2984700
v 0.2984700 0.1000000 0.3903625
v 0.3903625 -0.0000000 0.2984700
v 0.4000000 -0.0000000 0.2500000
v 0.4000000 0.1000000 0.2500000
v 0.3903625 0.1000000 0.2984700
v 0.2500000 0.1000000 0.2500000
v 0.2500000 0.1000000 0.4000000
v 0.4000000 0.1000000 0.2500000
v 0.2984700 0.1000000 0.3903625
v 0.3903625 0.1000000 0.2984700
v 0.4000000 0.1000000 0.2500000
v 0.2500000 0.1000000 0.4000000
v 0.3885850 0.1000000 -0.1925950
v 0.4000000 0.1000000 -0.2500000
v 0.2500000 0.1000000 -0.2500000
v 0.3560650 0.1000000 -0.1439350
v 0.3885850 0.1000000 -0.1925950
v 0.2500000 0.1000000 -0.2500000
v 0.3074050 0.1000000 -0.1114150
v 0.3560650 0.1000000 -0.1439350
v 0.2500000 0.1000000 -0.2500000
v 0.2500000 0.1000000 -0.1000000
v 0.3074050 0.1000000 -0.1114150
v 0.2500000 0.1000000 -0.2500000
v 0.1925950 0.1000000 -0.1114150
v 0.2500000 0.1000000 -0.1000000
v 0.2500000 0.1000000 -0.2500000
v 0.1439350 0.1000000 -0.1439350
v 0.1925950 0.1000000 -0.1114150
v 0.2500000 0.1000000 -0.2500000
v 0.1114150 0.1000000 -0.1925950
v 0.1439350 0.1000000 -0.1439350
v 0.2500000 0.1000000 -0.2500000
v 0.1000000 0.1000000 -0.2500000
v 0.1114150 0.1000000 -0.1925950
v 0.2500000 0.1000000 -0.2500000
v 0.1114150 0.1000000 -0.3074050
v 0.1000000 0.1000000 -0.2500000
v 0.2500000 0.1000000 -0.2500000
v 0.1439350 0.1000000 -0.3560650
v 0.1114150 0.1000000 -0.3074050
v 0.2500000 0.1000000 -0.2500000
v 0.1925950 0.1000000 -0.3885850
v 0.1439350 0.1000000 -0.3560650
v 0.2500000 0.1000000 -0.2500000
v 0.2500000 0.1000000 -0.4000000
v 0.1925950 0.1000000 -0.3885850
v 0.2500000 0.1000000 -0.2500000
v 0.4000000 -0.0000000 -0.2500000
v 0.4000000 0.1000000 -0.2500000
v 0.3885850 0.1000000 -0.1925950
v 0.3885850 -0.0000000 -0.1925950
v 0.3885850 -0.0000000 -0.1925950
v 0.3885850 0.1000000 -0.1925950
v 0.3560650 0.1000000 -0.1439350
v 0.3560650 -0.0000000 -0.1439350
v 0.3560650 -0.0000000 -0.1439350
v 0.3560650 0.1000000 -0.1439350
v 0.3074050 0.1000000 -0.1114150
v 0.3074050 -0.0000000 -0.1114150
v 0.3074050 -0.0000000 -0.1114150
v 0.3074050 0.1000000 -0.1114150
v 0.2500000 0.1000000 -0.1000000
v 0.2500000 -0.0000000 -0.1000000
v 0.2500000 -0.0000000 -0.1000000
v 0.2500000 0.1000000 -0.1000000
v 0.1925950 0.1000000 -0.1114150
v 0.1925950 -0.0000000 -0.1114150
v 0.1925950 -0.0000000 -0.1114150
v 0.1925950 0.1000000 -0.1114150
v 0.1439350 0.1000000 -0.1439350
v 0.1439350 -0.0000000 -0.1439350
v 0.1439350 -0.0000000 -0.1439350
v 0.1439350 0.1000000 -0.1439350
v 0.1114150 0.1000000 -0.1925950
v 0.1114150 -0.0000000 -0.1925950
v 0.1114150 -0.0000000 -0.1925950
v 0.1114150 0.1000000 -0.1925950
v 0.1000000 0.1000000 -0.2500000
v 0.1000000 -0.0000000 -0.2500000
v 0.1000000 -0.0000000 -0.2500000
v 0.1000000 0.1000000 -0.2500000
v 0.1114150 0.1000000 -0.3074050
v 0.1114150 -0.0000000 -0.3074050
v 0.1114150 -0.0000000 -0.3074050
v 0.1114150 0.1000000 -0.3074050
v 0.1439350 0.1000000 -0.3560650
v 0.1439350 -0.0000000 -0.3560650
v 0.1439350 -0.0000000 -0.3560650
v 0.1439350 0.1000000 -0.3560650
v 0.1925950 0.1000000 -0.3885850
v 0.1925950 -0.0000000 -0.3885850
v 0.1925950 -0.0000000 -0.3885850
v 0.1925950 0.1000000 -0.3885850
v 0.2500000 0.1000000 -0.4000000
v 0.2500000 -0.0000000 -0.4000000
v 0.4000000 0.1000000 -0.2500000
v 0.4000000 -0.0000000 -0.2500000
v 0.3903625 -0.0000000 -0.2984700
v 0.3903625 0.1000000 -0.2984700
v 0.3903625 -0.0000000 -0.2984700
v 0.2984700 -0.0000000 -0.3903625
v 0.2984700 0.1000000 -0.3903625
v 0.3903625 0.1000000 -0.2984700
v 0.2984700 -0.0000000 -0.3903625
v 0.2500000 -0.0000000 -0.4000000
v 0.2500000 0.1000000 -0.4000000
v 0.2984700 0.1000000 -0.3903625
v 0.2500000 0.1000000 -0.2500000
v 0.4000000 0.1000000 -0.2500000
v 0.2500000 0.1000000 -0.4000000
v 0.3903625 0.1000000 -0.2984700
v 0.2984700 0.1000000 -0.3903625
v 0.2500000 0.1000000 -0.4000000
v 0.4000000 0.1000000 -0.2500000
v -0.1925950 0.1000000 -0.3885850
v -0.2500000 0.1000000 -0.4000000
v -0.2500000 0.1000000 -0.2500000
v -0.1439350 0.1000000 -0.3560650
v -0.1925950 0.1000000 -0.3885850
v -0.2500000 0.1000000 -0.2500000
v -0.1114150 0.1000000 -0.3074050
v -0.1439350 0.1000000 -0.3560650
v -0.2500000 0.1000000 -0.2500000
v -0.1000000 0.1000000 -0.2500000
v -0.1114150 0.1000000 -0.3074050
v -0.2500000 0.1000000 -0.2500000
v -0.1114150 0.1000000 -0.1925950
v -0.1000000 0.1000000 -0.2500000
v -0.2500000 0.1000000 -0.2500000
v -0.1439350 0.1000000 -0.1439350
v -0.1114150 0.1000000 -0.1925950
v -0.2500000 0.1000000 -0.2500000
v -0.1925950 0.1000000 -0.1114150
v -0.1439350 0.1000000 -0.1439350
v -0.2500000 0.1000000 -0.2500000
v -0.2500000 0.1000000 -0.1000000
v -0.1925950 0.1000000 -0.1114150
v -0.2500000 0.1000000 -0.2500000
v -0.3074050 0.1000000 -0.1114150
v -0.2500000 0.1000000 -0.1000000
v -0.2500000 0.1000000 -0.2500000
v -0.3560650 0.1000000 -0.1439350
v -0.3074050 0.1000000 -0.1114150
v -0.2500000 0.1000000 -0.2500000
v -0.3885850 0.1000000 -0.1925950
v -0.3560650 0.1000000 -0.1439350
v -0.2500000 0.1000000 -0.2500000
v -0.4000000 0.1000000 -0.2500000
v -0.3885850 0.1000000 -0.1925950
v -0.2500000 0.1000000 -0.2500000
v -0.2500000 -0.0000000 -0.4000000
v -0.2500000 0.1000000 -0.4000000
v -0.1925950 0.1000000 -0.3885850
v -0.1925950 -0.0000000 -0.3885850
v -0.1925950 -0.0000000 -0.3885850
v -0.1925950 0.1000000 -0.3885850
v -0.1439350 0.1000000 -0.3560650
v -0.1439350 -0.0000000 -0.3560650
v -0.1439350 -0.0000000 -0.3560650
v -0.1439350 0.1000000 -0.3560650
v -0.1114150 0.1000000 -0.3074050
v -0.1114150 -0.0000000 -0.3074050
v -0.1114150 -0.0000000 -0.3074050
v -0.1114150 0.1000000 -0.3074050
v -0.1000000 0.1000000 -0.2500000
v -0.1000000 -0.0000000 -0.2500000
v -0.1000000 -0.0000000 -0.2500000
v -0.1000000 0.1000000 -0.2500000
v -0.1114150 0.1000000 -0.1925950
v -0.1114150 -0.0000000 -0.1925950
v -0.1114150 -0.0000000 -0.1925950
v -0.1114150 0.1000000 -0.1925950
v -0.1439350 0.1000000 -0.1439350
v -0.1439350 -0.0000000 -0.1439350
v -0.1439350 -0.0000000 -0.1439350
v -0.1439350 0.1000000 -0.1439350
v -0.1925950 0.1000000 -0.1114150
v -0.1925950 -0.0000000 -0.1114150
v -0.1925950 -0.0000000 -0.1114150
v -0.1925950 0.1000000 -0.1114150
v -0.2500000 0.1000000 -0.1000000
v -0.2500000 -0.0000000 -0.1000000
v -0.2500000 -0.0000000 -0.1000000
v -0.2500000 0.1000000 -0.1000000
v -0.3074050 0.1000000 -0.1114150
v -0.3074050 -0.0000000 -0.1114150
v -0.3074050 -0.0000000 -0.1114150
v -0.3074050 0.1000000 -0.1114150
v -0.3560650 0.1000000 -0.1439350
v -0.3560650 -0.0000000 -0.1439350
v -0.3560650 -0.0000000 -0.1439350
v -0.3560650 0.1000000 -0.1439350
v -0.3885850 0.1000000 -0.1925950
v -0.3885850 -0.0000000 -0.1925950
v -0.3885850 -0.0000000 -0.1925950
v -0.3885850 0.1000000 -0.1925950
v -0.4000000 0.1000000 -0.2500000
v -0.4000000 -0.0000000 -0.2500000
v -0.2500000 0.1000000 -0.4000000
v -0.2500000 -0.0000000 -0.4000000
v -0.2984700 -0.0000000 -0.3903625
v -0.2984700 0.1000000 -0.3903625
v -0.2984700 -0.0000000 -0.3903625
v -0.3903625 -0.0000000 -0.2984700
v -0.3903625 0.1000000 -0.2984700
v -0.2984700 0.1000000 -0.3903625
v -0.3903625 -0.0000000 -0.2984700
v -0.4000000 -0.0000000 -0.2500000
v -0.4000000 0.1000000 -0.2500000
v -0.3903625 0.1000000 -0.2984700
v -0.2500000 0.1000000 -0.2500000
v -0.2500000 0.1000000 -0.4000000
v -0.4000000 0.1000000 -0.2500000
v -0.2984700 0.1000000 -0.3903625
v -0.3903625 0.1000000 -0.2984700
v -0.4000000 0.1000000 -0.2500000
v -0.2500000 0.1000000 -0.4000000
v -0.3885850 0.1000000 0.1925950
v -0.4000000 0.1000000 0.2500000
v -0.2500000 0.1000000 0.2500000
v -0.3560650 0.1000000 0.1439350
v -0.3885850 0.1000000 0.1925950
v -0.2500000 0.1000000 0.2500000
v -0.3074050 0.1000000 0.1114150
v -0.3560650 0.1000000 0.1439350
v -0.2500000 0.1000000 0.2500000
v -0.2500000 0.1000000 0.1000000
v -0.3074050 0.1000000 0.1114150
v -0.2500000 0.1000000 0.2500000
v -0.1925950 0.1000000 0.1114150
v -0.2500000 0.1000000 0.1000000
v -0.2500000 0.1000000 0.2500000
v -0.1439350 0.1000000 0.1439350
v -0.1925950 0.1000000 0.1114150
v -0.2500000 0.1000000 0.2500000
v -0.1114150 0.1000000 0.1925950
v -0.1439350 0.1000000 0.1439350
v -0.2500000 0.1000000 0.2500000
v -0.1000000 0.1000000 0.2500000
v -0.1114150 0.1000000 0.1925950
v -0.2500000 0.1000000 0.2500000
v -0.1114150 0.1000000 0.3074050
v -0.1000000 0.1000000 0.2500000
v -0.2500000 0.1000000 0.2500000
v -0.1439350 0.1000000 0.3560650
v -0.1114150 0.1000000 0.3074050
v -0.2500000 0.1000000 0.2500000
v -0.1925950 0.1000000 0.3885850
v -0.1439350 0.1000000 0.3560650
v -0.2500000 0.1000000 0.2500000
v -0.2500000 0.1000000 0.4000000
v -0.1925950 0.1000000 0.3885850
v -0.2500000 0.1000000 0.2500000
v -0.4000000 -0.0000000 0.2500000
v -0.4000000 0.1000000 0.2500000
v -0.3885850 0.1000000 0.1925950
v -0.3885850 -0.0000000 0.1925950
v -0.3885850 -0.0000000 0.1925950
v -0.3885850 0.1000000 0.1925950
v -0.3560650 0.1000000 0.1439350
v -0.3560650 -0.0000000 0.1439350
v -0.3560650 -0.0000000 0.1439350
v -0.3560650 0.1000000 0.1439350
v -0.3074050 0.1000000 0.1114150
v -0.3074050 -0.0000000 0.1114150
v -0.3074050 -0.0000000 0.1114150
v -0.3074050 0.1000000 0.1114150
v -0.2500000 0.1000000 0.1000000
v -0.2500000 -0.0000000 0.1000000
v -0.2500000 -0.0000000 0.1000000
v -0.2500000 0.1000000 0.1000000
v -0.1925950 0.1000000 0.1114150
v -0.1925950 -0.0000000 0.1114150
v -0.1925950 -0.0000000 0.1114150
v -0.1925950 0.1000000 0.1114150
v -0.1439350 0.1000000 0.1439350
v -0.1439350 -0.0000000 0.1439350
v -0.1439350 -0.0000000 0.1439350
v -0.1439350 0.1000000 0.1439350
v -0.1114150 0.1000000 0.1925950
v -0.1114150 -0.0000000 0.1925950
v -0.1114150 -0.0000000 0.1925950
v -0.1114150 0.1000000 0.1925950
v -0.1000000 0.1000000 0.2500000
v -0.1000000 -0.0000000 0.2500000
v -0.1000000 -0.0000000 0.2500000
v -0.1000000 0.1000000 0.2500000
v -0.1114150 0.1000000 0.3074050
v -0.1114150 -0.0000000 0.3074050
v -0.1114150 -0.0000000 0.3074050
v -0.1114150 0.1000000 0.3074050
v -0.1439350 0.1000000 0.3560650
v -0.1439350 -0.0000000 0.3560650
v -0.1439350 -0.0000000 0.3560650
v -0.1439350 0.1000000 0.3560650
v -0.1925950 0.1000000 0.3885850
v -0.1925950 -0.0000000 0.3885850
v -0.1925950 -0.0000000 0.3885850
v -0.1925950 0.1000000 0.3885850
v -0.2500000 0.1000000 0.4000000
v -0.2500000 -0.0000000 0.4000000
v -0.4000000 0.1000000 0.2500000
v -0.4000000 -0.0000000 0.2500000
v -0.3903625 -0.0000000 0.2984700
v -0.3903625 0.1000000 0.2984700
v -0.3903625 -0.0000000 0.2984700
v -0.2984700 -0.0000000 0.3903625
v -0.2984700 0.1000000 0.3903625
v -0.3903625 0.1000000 0.2984700
v -0.2984700 -0.0000000 0.3903625
v -0.2500000 -0.0000000 0.4000000
v -0.2500000 0.1000000 0.4000000
v -0.2984700 0.1000000 0.3903625
v -0.2500000 0.1000000 0.2500000
v -0.4000000 0.1000000 0.2500000
v -0.2500000 0.1000000 0.4000000
v -0.3903625 0.1000000 0.2984700
v -0.2984700 0.1000000 0.3903625
v -0.2500000 0.1000000 0.4000000
v -0.4000000 0.1000000 0.2500000
s off
f 1 2 3
f 1 3 4
f 5 6 7
f 5 7 8
f 9 10 11
f 9 11 12
f 13 14 15
f 13 15 16
f 17 18 19
f 17 19 20
f 21 22 23
f 21 23 24
f 25 26 27
f 25 27 28
f 29 30 31
f 29 31 32
f 33 34 35
f 33 35 36
f 37 38 39
f 37 39 40
f 41 42 43
f 41 43 44
f 45 46 47
f 45 47 48
f 49 50 51
f 49 51 52
f 53 54 55
f 53 55 56
f 57 58 59
f 57 59 60
f 61 62 63
f 61 63 64
f 65 66 67
f 65 67 68
f 69 70 71
f 69 71 72
f 73 74 75
f 73 75 76
f 77 78 79
f 77 79 80
f 81 82 83
f 81 83 84
f 85 86 87
f 85 87 88
f 89 90 91
f 89 91 92
f 93 94 95
f 93 95 96
f 97 98 99
f 97 99 100
f 101 102 103
f 101 103 104
f 105 106 107
f 105 107 108
f 109 110 111
f 109 111 112
f 113 114 115
f 113 115 116
f 117 118 119
f 117 119 120
f 121 122 123
f 121 123 124
f 125 126 127
f 125 127 128
f 129 130 131
f 129 131 132
f 133 134 135
f 133 135 136
f 137 138 139
f 137 139 140
f 141 142 143
f 141 143 144
f 145 146 147
f 145 147 148
f 149 150 151
f 149 151 152
f 153 154 155
f 153 155 156
f 157 158 159
f 157 159 160
f 161 162 163
f 161 163 164
f 165 166 167
f 165 167 168
f 169 170 171
f 169 171 172
f 173 174 175
f 173 175 176
f 177 178 179
f 177 179 180
f 181 182 183
f 181 183 184
f 185 186 187
f 185 187 188
f 189 190 191
f 189 191 192
f 193 194 195
f 193 195 196
f 197 198 199
f 197 199 200
f 201 202 203
f 201 203 204
f 205 206 207
f 205 207 208
f 209 210 211
f 209 211 212
f 213 214 215
f 213 215 216
f 217 218 219
f 217 219 220
f 221 222 223
f 221 223 224
f 225 226 227
f 225 227 228
f 229 230 231
f 229 231 232
f 233 234 235
f 233 235 236
f 237 238 239
f 237 239 240
f 241 242 243
f 241 243 244
f 245 246 247
f 245 247 248
f 249 250 251
f 249 251 252
f 253 254 255
f 253 255 256
f 257 258 259
f 257 259 260
f 261 262 263
f 261 263 264
f 265 266 267
f 265 267 268
f 269 270 271
f 269 271 272
f 273 274 275
f 273 275 276
f 277 278 279
f 277 279 280
f 281 282 283
f 281 283 284
f 285 286 287
f 285 287 288
f 289 290 291
f 289 291 292
f 293 294 295
f 293 295 296
f 297 298 299
f 297 299 300
f 301 302 303
f 301 303 304
f 305 306 307
f 305 307 308
f 309 310 311
f 309 311 312
f 313 314 315
f 313 315 316
f 317 318 319
f 317 319 320
f 321 322 323
f 321 323 324
f 325 326 327
f 325 327 328
f 329 330 331
f 329 331 332
f 333 334 335
f 333 335 336
f 337 338 339
f 337 339 340
f 341 342 343
f 341 343 344
f 345 346 347
f 345 347 348
f 349 350 351
f 349 351 352
f 353 354 355
f 353 355 356
f 357 358 359
f 357 359 360
f 361 362 363
f 361 363 364
f 365 366 367
f 365 367 368
f 369 370 371
f 369 371 372
f 373 374 375
f 373 375 376
f 377 378 379
f 377 379 380
f 381 382 383
f 381 383 384
f 385 386 387
f 385 387 388
f 389 390 391
f 389 391 392
f 393 394 395
f 393 395 396
f 397 398 399
f 397 399 400
f 401 402 403
f 401 403 404
f 405 406 407
f 405 407 408
f 409 410 411
f 409 411 412
f 413 414 415
f 413 415 416
f 417 418 419
f 417 419 420
f 421 422 423
f 421 423 424
f 425 426 427
f 425 427 428
f 429 430 431
f 429 431 432
f 433 434 435
f 433 435 436
f 437 438 439
f 437 439 440
f 441 442 443
f 441 443 444
f 445 446 447
f 445 447 448
f 449 450 451
f 449 451 452
f 453 454 455
f 453 455 456
f 457 458 459
f 457 459 460
f 461 462 463
f 461 463 464
f 465 466 467
f 465 467 468
f 469 470 471
f 469 471 472
f 473 474 475
f 473 475 476
f 477 478 479
f 477 479 480
f 481 482 483
f 481 483 484
f 485 486 487
f 485 487 488
f 489 490 491
f 489 491 492
f 493 494 495
f 493 495 496
f 497 498 499
f 497 499 500
f 501 502 503
f 501 503 504
f 505 506 507
f 505 507 508
f 509 510 511
f 509 511 512
f 513 514 515
f 513 515 516
f 517 518 519
f 517 519 520
f 521 522 523
f 521 523 524
f 525 526 527
f 525 527 528
f 529 530 531
f 529 531 532
f 533 534 535
f 533 535 536
f 537 538 539
f 537 539 540
f 541 542 543
f 541 543 544
f 545 546 547
f 545 547 548
f 549 550 551
f 549 551 552
f 553 554 555
f 553 555 556
f 557 558 559
f 557 559 560
f 561 562 563
f 561 563 564
f 565 566 567
f 565 567 568
f 569 570 571
f 569 571 572
f 573 574 575
f 573 575 576
f 577 578 579
f 577 579 580
f 581 582 583
f 581 583 584
f 585 586 587
f 588 589 590
f 588 590 591
f 592 593 594
f 592 594 595
f 596 597 598
f 596 598 599
f 600 601 602
f 603 604 605
f 603 605 606
f 607 608 609
f 607 609 610
f 611 612 613
f 611 613 614
f 615 616 617
f 615 617 618
f 619 620 621
f 619 621 622
f 623 624 625
f 623 625 626
f 627 628 629
f 627 629 630
f 631 632 633
f 631 633 634
f 635 636 637
f 635 637 638
f 639 640 641
f 639 641 642
f 643 644 645
f 643 645 646
f 647 648 649
f 650 651 652
f 650 652 653
f 654 655 656
f 654 656 657
f 658 659 660
f 658 660 661
f 662 663 664
f 662 664 665
f 666 667 668
f 666 668 669
f 670 671 672
f 670 672 673
f 674 675 676
f 674 676 677
f 678 679 680
f 678 680 681
f 682 683 684
f 682 684 685
f 686 687 688
f 686 688 689
f 690 691 692
f 693 694 695
f 693 695 696
f 697 698 699
f 697 699 700
f 701 702 703
f 701 703 704
f 705 706 707
f 705 707 708
f 709 710 711
f 709 711 712
f 713 714 715
f 713 715 716
f 717 718 719
f 720 721 722
f 720 722 723
f 724 725 726
f 724 726 727
f 728 729 730
f 728 730 731
f 732 733 734
f 732 734 735
f 736 737 738
f 736 738 739
f 740 741 742
f 740 742 743
f 744 745 746
f 744 746 747
f 748 749 750
f 748 750 751
f 752 753 754
f 752 754 755
f 756 757 758
f 756 758 759
f 760 761 762
f 763 764 765
f 763 765 766
f 767 768 769
f 767 769 770
f 771 772 773
f 771 773 774
f 775 776 777
f 778 779 780
f 778 780 781
f 782 783 784
f 782 784 785
f 786 787 788
f 786 788 789
f 790 791 792
f 790 792 793
f 794 795 796
f 794 796 797
f 798 799 800
f 798 800 801
f 802 803 804
f 802 804 805
f 806 807 808
f 806 808 809
f 810 811 812
f 810 812 813
f 814 815 816
f 814 816 817
f 818 819 820
f 818 820 821
f 822 823 824
f 825 826 827
f 825 827 828
f 829 830 831
f 829 831 832
f 833 834 835
f 833 835 836
f 837 838 839
f 837 839 840
f 841 842 843
f 841 843 844
f 845 846 847
f 845 847 848
f 849 850 851
f 849 851 852
f 853 854 855
f 853 855 856
f 857 858 859
f 857 859 860
f 861 862 863
f 861 863 864
f 865 866 867
f 868 869 870
f 868 870 871
f 872 873 874
f 872 874 875
f 876 877 878
f 876 878 879
f 880 881 882
f 880 882 883
f 884 885 886
f 884 886 887
f 888 889 890
f 888 890 891
f 892 893 894
f 895 896 897
f 895 897 898
f 899 900 901
f 899 901 902
f 903 904 905
f 903 905 906
f 907 908 909
f 907 909 910
f 911 912 913
f 911 913 914
f 915 916 917
f 915 917 918
f 919 920 921
f 919 921 922
f 923 924 925
f 923 925 926
f 927 928 929
f 927 929 930
f 931 932 933
f 931 933 934
f 935 936 937
f 938 939 940
f 938 940 941
f 942 943 944
f 942 944 945
f 946 947 948
f 946 948 949
f 950 951 952
f 953 954 955
f 953 955 956
f 957 958 959
f 957 959 960
f 961 962 963
f 961 963 964
f 965 966 967
f 965 967 968
f 969 970 971
f 969 971 972
f 973 974 975
f 973 975 976
f 977 978 979
f 977 979 980
f 981 982 983
f 981 983 984
f 985 986 987
f 985 987 988
f 989 990 991
f 989 991 992
f 993 994 995
f 993 995 996
f 997 998 999
f 1000 1001 1002
f 1000 1002 1003
f 1004 1005 1006
f 1004 1006 1007
f 1008 1009 1010
f 1008 1010 1011
f 1012 1013 1014
f 1012 1014 1015
f 1016 1017 1018
f 1016 1018 1019
f 1020 1021 1022
f 1020 1022 1023
f 1024 1025 1026
f 1024 1026 1027
f 1028 1029 1030
f 1028 1030 1031
f 1032 1033 1034
f 1032 1034 1035
f 1036 1037 1038
f 1036 1038 1039
f 1040 1041 1042
f 1043 1044 1045
f 1043 1045 1046
f 1047 1048 1049
f 1047 1049 1050
f 1051 1052 1053
f 1051 1053 1054
f 1055 1056 1057
f 1055 1057 1058
f 1059 1060 1061
f 1059 1061 1062
f 1063 1064 1065
f 1063 1065 1066
f 1067 1068 1069
f 1070 1071 1072
f 1070 1072 1073
f 1074 1075 1076
f 1074 1076 1077
f 1078 1079 1080
f 1078 1080 1081
f 1082 1083 1084
f 1082 1084 1085
f 1086 1087 1088
f 1086 1088 1089
f 1090 1091 1092
f 1090 1092 1093
f 1094 1095 1096
f 1094 1096 1097
f 1098 1099 1100
f 1098 1100 1101
f 1102 1103 1104
f 1102 1104 1105
f 1106 1107 1108
f 1106 1108 1109
f 1110 1111 1112
f 1113 1114 1115
f 1113 1115 1116
f 1117 1118 1119
f 1117 1119 1120
f 1121 1122 1123
f 1121 1123 1124
f 1125 1126 1127
f 1128 1129 1130
f 1128 1130 1131
f 1132 1133 1134
f 1132 1134 1135
f 1136 1137 1138
f 1136 1138 1139
f 1140 1141 1142
f 1140 1142 1143
f 1144 1145 1146
f 1144 1146 1147
f 1148 1149 1150
f 1148 1150 1151
f 1152 1153 1154
f 1152 1154 1155
f 1156 1157 1158
f 1156 1158 1159
f 1160 1161 1162
f 1160 1162 1163
f 1164 1165 1166
f 1164 1166 1167
f 1168 1169 1170
f 1168 1170 1171
f 1172 1173 1174
f 1175 1176 1177
f 1175 1177 1178
f 1179 1180 1181
f 1179 1181 1182
f 1183 1184 1185
f 1183 1185 1186
f 1187 1188 1189
f 1187 1189 1190
f 1191 1192 1193
f 1191 1193 1194
f 1195 1196 1197
f 1195 1197 1198
f 1199 1200 1201
f 1199 1201 1202
f 1203 1204 1205
f 1203 1205 1206
f 1207 1208 1209
f 1207 1209 1210
f 1211 1212 1213
f 1211 1213 1214
f 1215 1216 1217
f 1218 1219 1220
f 1218 1220 1221
f 1222 1223 1224
f 1222 1224 1225
f 1226 1227 1228
f 1226 1228 1229
f 1230 1231 1232
f 1230 1232 1233
f 1234 1235 1236
f 1234 1236 1237
f 1238 1239 1240
f 1238 1240 1241
f 1242 1243 1244
f 1245 1246 1247
f 1245 1247 1248
f 1249 1250 1251
f 1249 1251 1252
f 1253 1254 1255
f 1253 1255 1256
f 1257 1258 1259
f 1257 1259 1260
f 1261 1262 1263
f 1261 1263 1264
f 1265 1266 1267
f 1265 1267 1268
f 1269 1270 1271
f 1269 1271 1272
f 1273 1274 1275
f 1273 1275 1276
f 1277 1278 1279
f 1277 1279 1280
f 1281 1282 1283
f 1281 1283 1284
f 1285 1286 1287
f 1288 1289 1290
f 1288 1290 1291
f 1292 1293 1294
f 1292 1294 1295
f 1296 1297 1298
f 1296 1298 1299
f 1300 1301 1302
f 1303 1304 1305
f 1303 1305 1306
f 1307 1308 1309
f 1307 1309 1310
f 1311 1312 1313
f 1311 1313 1314
f 1315 1316 1317
f 1315 1317 1318
f 1319 1320 1321
f 1319 1321 1322
f 1323 1324 1325
f 1323 1325 1326
f 1327 1328 1329
f 1327 1329 1330
f 1331 1332 1333
f 1331 1333 1334
f 1335 1336 1337
f 1335 1337 1338
f 1339 1340 1341
f 1339 1341 1342
f 1343 1344 1345
f 1343 1345 1346
f 1347 1348 1349
f 1350 1351 1352
f 1350 1352 1353
f 1354 1355 1356
f 1354 1356 1357
f 1358 1359 1360
f 1358 1360 1361
f 1362 1363 1364
f 1362 1364 1365
f 1366 1367 1368
f 1366 1368 1369
f 1370 1371 1372
f 1370 1372 1373
f 1374 1375 1376
f 1374 1376 1377
f 1378 1379 1380
f 1378 1380 1381
f 1382 1383 1384
f 1382 1384 1385
f 1386 1387 1388
f 1386 1388 1389
f 1390 1391 1392
f 1393 1394 1395
f 1393 1395 1396
f 1397 1398 1399
f 1397 1399 1400
f 1401 1402 1403
f 1401 1403 1404
f 1405 1406 1407
f 1405 1407 1408
f 1409 1410 1411
f 1409 1411 1412
f 1413 1414 1415
f 1413 1415 1416
f 1417 1418 1419
f 1420 1421 1422
f 1420 1422 1423
f 1424 1425 1426
f 1424 1426 1427
f 1428 1429 1430
f 1428 1430 1431
f 1432 1433 1434
f 1432 1434 1435
f 1436 1437 1438
f 1436 1438 1439
f 1440 1441 1442
f 1440 1442 1443
f 1444 1445 1446
f 1444 1446 1447
f 1448 1449 1450
f 1448 1450 1451
f 1452 1453 1454
f 1452 1454 1455
f 1456 1457 1458
f 1456 1458 1459
f 1460 1461 1462
f 1463 1464 1465
f 1463 1465 1466
f 1467 1468 1469
f 1467 1469 1470
f 1471 1472 1473
f 1471 1473 1474
f 1475 1476 1477
f 1478 1479 1480
f 1478 1480 1481
f 1482 1483 1484
f 1482 1484 1485
f 1486 1487 1488
f 1486 1488 1489
f 1490 1491 1492
f 1490 1492 1493
f 1494 1495 1496
f 1494 1496 1497
f 1498 1499 1500
f 1498 1500 1501
f 1502 1503 1504
f 1502 1504 1505
f 1506 1507 1508
f 1506 1508 1509
f 1510 1511 1512
f 1510 1512 1513
f 1514 1515 1516
f 1514 1516 1517
f 1518 1519 1520
f 1518 1520 1521
f 1522 1523 1524
f 1525 1526 1527
f 1525 1527 1528
f 1529 1530 1531
f 1529 1531 1532
f 1533 1534 1535
f 1533 1535 1536
f 1537 1538 1539
f 1537 1539 1540
f 1541 1542 1543
f 1541 1543 1544
f 1545 1546 1547
f 1545 1547 1548
f 1549 1550 1551
f 1549 1551 1552
f 1553 1554 1555
f 1553 1555 1556
f 1557 1558 1559
f 1557 1559 1560
f 1561 1562 1563
f 1561 1563 1564
f 1565 1566 1567
f 1568 1569 1570
f 1568 1570 1571
f 1572 1573 1574
f 1572 1574 1575
f 1576 1577 1578
f 1576 1578 1579
f 1580 1581 1582
f 1580 1582 1583
f 1584 1585 1586
f 1584 1586 1587
f 1588 1589 1590
f 1588 1590 1591
f 1592 1593 1594
f 1595 1596 1597
f 1595 1597 1598
f 1599 1600 1601
f 1599 1601 1602
f 1603 1604 1605
f 1603 1605 1606
f 1607 1608 1609
f 1607 1609 1610
f 1611 1612 1613
f 1611 1613 1614
f 1615 1616 1617
f 1615 1617 1618
f 1619 1620 1621
f 1619 1621 1622
f 1623 1624 1625
f 1623 1625 1626
f 1627 1628 1629
f 1627 1629 1630
f 1631 1632 1633
f 1631 1633 1634
f 1635 1636 1637
f 1638 1639 1640
f 1638 1640 1641
f 1642 1643 1644
f 1642 1644 1645
f 1646 1647 1648
f 1646 1648 1649
f 1650 1651 1652
f 1653 1654 1655
f 1653 1655 1656
f 1657 1658 1659
f 1657 1659 1660
f 1661 1662 1663
f 1661 1663 1664
f 1665 1666 1667
f 1665 1667 1668
f 1669 1670 1671
f 1669 1671 1672
f 1673 1674 1675
f 1673 1675 1676
f 1677 1678 1679
f 1677 1679 1680
f 1681 1682 1683
f 1681 1683 1684
f 1685 1686 1687
f 1685 1687 1688
f 1689 1690 1691
f 1689 1691 1692
f 1693 1694 1695
f 1693 1695 1696
f 1697 1698 1699
f 1700 1701 1702
f 1700 1702 1703
f 1704 1705 1706
f 1704 1706 1707
f 1708 1709 1710
f 1708 1710 1711
f 1712 1713 1714
f 1712 1714 1715
f 1716 1717 1718
f 1716 1718 1719
f 1720 1721 1722
f 1720 1722 1723
f 1724 1725 1726
f 1724 1726 1727
f 1728 1729 1730
f 1728 1730 1731
f 1732 1733 1734
f 1732 1734 1735
f 1736 1737 1738
f 1736 1738 1739
f 1740 1741 1742
f 1743 1744 1745
f 1743 1745 1746
f 1747 1748 1749
f 1747 1749 1750
f 1751 1752 1753
f 1751 1753 1754
f 1755 1756 1757
f 1755 1757 1758
f 1759 1760 1761
f 1759 1761 1762
f 1763 1764 1765
f 1763 1765 1766
f 1767 1768 1769
f 1770 1771 1772
f 1770 1772 1773
f 1774 1775 1776
f 1774 1776 1777
f 1778 1779 1780
f 1778 1780 1781
f 1782 1783 1784
f 1782 1784 1785
f 1786 1787 1788
f 1786 1788 1789
f 1790 1791 1792
f 1790 1792 1793
f 1794 1795 1796
f 1794 1796 1797
f 1798 1799 1800
f 1798 1800 1801
f 1802 1803 1804
f 1802 1804 1805
f 1806 1807 1808
f 1806 1808 1809
f 1810 1811 1812
f 1813 1814 1815
f 1813 1815 1816
f 1817 1818 1819
f 1817 1819 1820
f 1821 1822 1823
f 1821 1823 1824
f 1825 1826 1827
f 1828 1829 1830
f 1828 1830 1831
f 1832 1833 1834
f 1832 1834 1835
f 1836 1837 1838
f 1836 1838 1839
f 1840 1841 1842
f 1840 1842 1843
f 1844 1845 1846
f 1844 1846 1847
f 1848 1849 1850
f 1848 1850 1851
f 1852 1853 1854
f 1852 1854 1855
f 1856 1857 1858
f 1856 1858 1859
f 1860 1861 1862
f 1860 1862 1863
f 1864 1865 1866
f 1864 1866 1867
f 1868 1869 1870
f 1868 1870 1871
f 1872 1873 1874
f 1875 1876 1877
f 1875 1877 1878
f 1879 1880 1881
f 1879 1881 1882
f 1883 1884 1885
f 1883 1885 1886
f 1887 1888 1889
f 1887 1889 1890
f 1891 1892 1893
f 1891 1893 1894
f 1895 1896 1897
f 1895 1897 1898
f 1899 1900 1901
f 1899 1901 1902
f 1903 1904 1905
f 1903 1905 1906
f 1907 1908 1909
f 1907 1909 1910
f 1911 1912 1913
f 1911 1913 1914
f 1915 1916 1917
f 1918 1919 1920
f 1918 1920 1921
f 1922 1923 1924
f 1922 1924 1925
f 1926 1927 1928
f 1926 1928 1929
f 1930 1931 1932
f 1930 1932 1933
f 1934 1935 1936
f 1934 1936 1937
f 1938 1939 1940
f 1938 1940 1941
f 1942 1943 1944
f 1945 1946 1947
f 1948 1949 1950
f 1951 1952 1953
f 1954 1955 1956
f 1957 1958 1959
f 1960 1961 1962
f 1963 1964 1965
f 1966 1967 1968
f 1969 1970 1971
f 1972 1973 1974
f 1975 1976 1977
f 1978 1979 1980
f 1981 1982 1983
f 1981 1983 1984
f 1985 1986 1987
f 1985 1987 1988
f 1989 1990 1991
f 1989 1991 1992
f 1993 1994 1995
f 1993 1995 1996
f 1997 1998 1999
f 1997 1999 2000
f 2001 2002 2003
f 2001 2003 2004
f 2005 2006 2007
f 2005 2007 2008
f 2009 2010 2011
f 2009 2011 2012
f 2013 2014 2015
f 2013 2015 2016
f 2017 2018 2019
f 2017 2019 2020
f 2021 2022 2023
f 2021 2023 2024
f 2025 2026 2027
f 2025 2027 2028
f 2029 2030 2031
f 2029 2031 2032
f 2033 2034 2035
f 2033 2035 2036
f 2037 2038 2039
f 2037 2039 2040
f 2041 2042 2043
f 2044 2045 2046
f 2044 2046 2047
f 2048 2049 2050
f 2051 2052 2053
f 2054 2055 2056
f 2057 2058 2059
f 2060 2061 2062
f 2063 2064 2065
f 2066 2067 2068
f 2069 2070 2071
f 2072 2073 2074
f 2075 2076 2077
f 2078 2079 2080
f 2081 2082 2083
f 2084 2085 2086
f 2084 2086 2087
f 2088 2089 2090
f 2088 2090 2091
f 2092 2093 2094
f 2092 2094 2095
f 2096 2097 2098
f 2096 2098 2099
f 2100 2101 2102
f 2100 2102 2103
f 2104 2105 2106
f 2104 2106 2107
f 2108 2109 2110
f 2108 2110 2111
f 2112 2113 2114
f 2112 2114 2115
f 2116 2117 2118
f 2116 2118 2119
f 2120 2121 2122
f 2120 2122 2123
f 2124 2125 2126
f 2124 2126 2127
f 2128 2129 2130
f 2128 2130 2131
f 2132 2133 2134
f 2132 2134 2135
f 2136 2137 2138
f 2136 2138 2139
f 2140 2141 2142
f 2140 2142 2143
f 2144 2145 2146
f 2147 2148 2149
f 2147 2149 2150
f 2151 2152 2153
f 2154 2155 2156
f 2157 2158 2159
f 2160 2161 2162
f 2163 2164 2165
f 2166 2167 2168
f 2169 2170 2171
f 2172 2173 2174
f 2175 2176 2177
f 2178 2179 2180
f 2181 2182 2183
f 2184 2185 2186
f 2187 2188 2189
f 2187 2189 2190
f 2191 2192 2193
f 2191 2193 2194
f 2195 2196 2197
f 2195 2197 2198
f 2199 2200 2201
f 2199 2201 2202
f 2203 2204 2205
f 2203 2205 2206
f 2207 2208 2209
f 2207 2209 2210
f 2211 2212 2213
f 2211 2213 2214
f 2215 2216 2217
f 2215 2217 2218
f 2219 2220 2221
f 2219 2221 2222
f 2223 2224 2225
f 2223 2225 2226
f 2227 2228 2229
f 2227 2229 2230
f 2231 2232 2233
f 2231 2233 2234
f 2235 2236 2237
f 2235 2237 2238
f 2239 2240 2241
f 2239 2241 2242
f 2243 2244 2245
f 2243 2245 2246
f 2247 2248 2249
f 2250 2251 2252
f 2250 2252 2253
f 2254 2255 2256
f 2257 2258 2259
f 2260 2261 2262
f 2263 2264 2265
f 2266 2267 2268
f 2269 2270 2271
f 2272 2273 2274
f 2275 2276 2277
f 2278 2279 2280
f 2281 2282 2283
f 2284 2285 2286
f 2287 2288 2289
f 2290 2291 2292
f 2290 2292 2293
f 2294 2295 2296
f 2294 2296 2297
f 2298 2299 2300
f 2298 2300 2301
f 2302 2303 2304
f 2302 2304 2305
f 2306 2307 2308
f 2306 2308 2309
f 2310 2311 2312
f 2310 2312 2313
f 2314 2315 2316
f 2314 2316 2317
f 2318 2319 2320
f 2318 2320 2321
f 2322 2323 2324
f 2322 2324 2325
f 2326 2327 2328
f 2326 2328 2329
f 2330 2331 2332
f 2330 2332 2333
f 2334 2335 2336
f 2334 2336 2337
f 2338 2339 2340
f 2338 2340 2341
f 2342 2343 2344
f 2342 2344 2345
f 2346 2347 2348
f 2346 2348 2349
f 2350 2351 2352
f 2353 2354 2355
f 2353 2355 2356
