# Baked from official LDraw part 973.dat
o ldraw_973
v -0.4000000 -0.8000000 -0.1500000
v -0.4750000 -0.8000000 -0.2500000
v 0.4750000 -0.8000000 -0.2500000
v 0.4000000 -0.8000000 -0.1500000
v 0.4000000 -0.8000000 -0.1500000
v 0.4750000 -0.8000000 -0.2500000
v 0.4750000 -0.8000000 0.2500000
v 0.4000000 -0.8000000 0.1500000
v 0.4000000 -0.8000000 0.1500000
v 0.4750000 -0.8000000 0.2500000
v -0.4750000 -0.8000000 0.2500000
v -0.4000000 -0.8000000 0.1500000
v -0.4000000 -0.8000000 0.1500000
v -0.4750000 -0.8000000 0.2500000
v -0.4750000 -0.8000000 -0.2500000
v -0.4000000 -0.8000000 -0.1500000
v -0.4000000 -0.5842500 0.1500000
v -0.4000000 -0.8000000 0.1500000
v -0.4000000 -0.8000000 -0.1500000
v -0.4000000 -0.5842500 -0.1500000
v 0.4000000 -0.8000000 -0.1500000
v 0.4000000 -0.8000000 0.1500000
v 0.4000000 -0.5842500 0.1500000
v 0.4000000 -0.5842500 -0.1500000
v -0.3121000 -0.0750000 -0.1500000
v 0.3121000 -0.0750000 -0.1500000
v 0.3121000 -0.0750000 0.1500000
v -0.3121000 -0.0750000 0.1500000
v 0.4750000 -0.7250000 0.2500000
v 0.4750000 -0.8000000 0.2500000
v 0.4750000 -0.8000000 -0.2500000
v 0.4750000 -0.7250000 -0.2500000
v -0.4750000 -0.7250000 -0.2500000
v -0.4750000 -0.8000000 -0.2500000
v -0.4750000 -0.8000000 0.2500000
v -0.4750000 -0.7250000 0.2500000
v -0.3500000 -0.0000000 -0.2000000
v -0.3586250 -0.0500000 -0.2500000
v -0.3586250 -0.0500000 0.2500000
v -0.3500000 -0.0000000 0.2000000
v 0.3500000 -0.0000000 -0.2000000
v 0.3500000 -0.0000000 0.2000000
v 0.3586250 -0.0500000 0.2500000
v 0.3586250 -0.0500000 -0.2500000
v -0.3500000 -0.0000000 0.2000000
v -0.3000000 -0.0000000 0.2500000
v -0.3000000 -0.0000000 -0.2500000
v -0.3500000 -0.0000000 -0.2000000
v -0.3000000 -0.0000000 -0.2500000
v -0.3000000 -0.0000000 0.2500000
v 0.3000000 -0.0000000 0.2500000
v 0.3000000 -0.0000000 -0.2500000
v 0.3500000 -0.0000000 -0.2000000
v 0.3000000 -0.0000000 -0.2500000
v 0.3000000 -0.0000000 0.2500000
v 0.3500000 -0.0000000 0.2000000
v -0.3000000 -0.0000000 -0.2500000
v -0.3586250 -0.0500000 -0.2500000
v -0.3500000 -0.0000000 -0.2000000
v 0.3586250 -0.0500000 -0.2500000
v 0.3000000 -0.0000000 -0.2500000
v 0.3500000 -0.0000000 -0.2000000
v 0.3000000 -0.0000000 0.2500000
v 0.3586250 -0.0500000 0.2500000
v 0.3500000 -0.0000000 0.2000000
v -0.3586250 -0.0500000 0.2500000
v -0.3000000 -0.0000000 0.2500000
v -0.3500000 -0.0000000 0.2000000
v 0.1500000 0.1000000 0.0000000
v 0.1385850 0.1000000 0.0574050
v 0.1385850 -0.0000000 0.0574050
v 0.1500000 -0.0000000 0.0000000
v 0.1385850 0.1000000 0.0574050
v 0.1060650 0.1000000 0.1060650
v 0.1060650 -0.0000000 0.1060650
v 0.1385850 -0.0000000 0.0574050
v 0.1060650 0.1000000 0.1060650
v 0.0574050 0.1000000 0.1385850
v 0.0574050 -0.0000000 0.1385850
v 0.1060650 -0.0000000 0.1060650
v 0.0574050 0.1000000 0.1385850
v 0.0000000 0.1000000 0.1500000
v 0.0000000 -0.0000000 0.1500000
v 0.0574050 -0.0000000 0.1385850
v 0.0000000 0.1000000 0.1500000
v -0.0574050 0.1000000 0.1385850
v -0.0574050 -0.0000000 0.1385850
v 0.0000000 -0.0000000 0.1500000
v -0.0574050 0.1000000 0.1385850
v -0.1060650 0.1000000 0.1060650
v -0.1060650 -0.0000000 0.1060650
v -0.0574050 -0.0000000 0.1385850
v -0.1060650 0.1000000 0.1060650
v -0.1385850 0.1000000 0.0574050
v -0.1385850 -0.0000000 0.0574050
v -0.1060650 -0.0000000 0.1060650
v -0.1385850 0.1000000 0.0574050
v -0.1500000 0.1000000 0.0000000
v -0.1500000 -0.0000000 0.0000000
v -0.1385850 -0.0000000 0.0574050
v -0.1500000 0.1000000 0.0000000
v -0.1385850 0.1000000 -0.0574050
v -0.1385850 -0.0000000 -0.0574050
v -0.1500000 -0.0000000 0.0000000
v -0.1385850 0.1000000 -0.0574050
v -0.1060650 0.1000000 -0.1060650
v -0.1060650 -0.0000000 -0.1060650
v -0.1385850 -0.0000000 -0.0574050
v -0.1060650 0.1000000 -0.1060650
v -0.0574050 0.1000000 -0.1385850
v -0.0574050 -0.0000000 -0.1385850
v -0.1060650 -0.0000000 -0.1060650
v -0.0574050 0.1000000 -0.1385850
v 0.0000000 0.1000000 -0.1500000
v 0.0000000 -0.0000000 -0.1500000
v -0.0574050 -0.0000000 -0.1385850
v 0.0000000 0.1000000 -0.1500000
v 0.0574050 0.1000000 -0.1385850
v 0.0574050 -0.0000000 -0.1385850
v 0.0000000 -0.0000000 -0.1500000
v 0.0574050 0.1000000 -0.1385850
v 0.1060650 0.1000000 -0.1060650
v 0.1060650 -0.0000000 -0.1060650
v 0.0574050 -0.0000000 -0.1385850
v 0.1060650 0.1000000 -0.1060650
v 0.1385850 0.1000000 -0.0574050
v 0.1385850 -0.0000000 -0.0574050
v 0.1060650 -0.0000000 -0.1060650
v 0.1385850 0.1000000 -0.0574050
v 0.1500000 0.1000000 0.0000000
v 0.1500000 -0.0000000 0.0000000
v 0.1385850 -0.0000000 -0.0574050
v 0.1385976 0.3000000 -0.0574078
v 0.1385976 0.1000000 -0.0574078
v 0.1060750 0.1000000 -0.1060750
v 0.1060750 0.3000000 -0.1060750
v 0.1500113 0.3000000 0.0000000
v 0.1500113 0.1000000 0.0000000
v 0.1385976 0.1000000 -0.0574078
v 0.1385976 0.3000000 -0.0574078
v 0.1385976 0.3000000 0.0574078
v 0.1385976 0.1000000 0.0574078
v 0.1500113 0.1000000 0.0000000
v 0.1500113 0.3000000 0.0000000
v 0.1060750 0.3000000 0.1060750
v 0.1060750 0.1000000 0.1060750
v 0.1385976 0.1000000 0.0574078
v 0.1385976 0.3000000 0.0574078
v 0.0574078 0.3000000 0.1385976
v 0.0574078 0.1000000 0.1385976
v 0.1060750 0.1000000 0.1060750
v 0.1060750 0.3000000 0.1060750
v 0.0000000 0.3000000 0.1500113
v 0.0000000 0.1000000 0.1500113
v 0.0574078 0.1000000 0.1385976
v 0.0574078 0.3000000 0.1385976
v -0.0574078 0.3000000 0.1385976
v -0.0574078 0.1000000 0.1385976
v 0.0000000 0.1000000 0.1500113
v 0.0000000 0.3000000 0.1500113
v -0.1060750 0.3000000 0.1060750
v -0.1060750 0.1000000 0.1060750
v -0.0574078 0.1000000 0.1385976
v -0.0574078 0.3000000 0.1385976
v -0.1385976 0.3000000 0.0574078
v -0.1385976 0.1000000 0.0574078
v -0.1060750 0.1000000 0.1060750
v -0.1060750 0.3000000 0.1060750
v -0.1500113 0.3000000 0.0000000
v -0.1500113 0.1000000 0.0000000
v -0.1385976 0.1000000 0.0574078
v -0.1385976 0.3000000 0.0574078
v -0.1385976 0.3000000 -0.0574078
v -0.1385976 0.1000000 -0.0574078
v -0.1500113 0.1000000 0.0000000
v -0.1500113 0.3000000 0.0000000
v -0.1060750 0.3000000 -0.1060750
v -0.1060750 0.1000000 -0.1060750
v -0.1385976 0.1000000 -0.0574078
v -0.1385976 0.3000000 -0.0574078
v 0.1385850 0.3000000 0.0574050
v 0.1500000 0.3000000 0.0000000
v 0.0000000 0.3000000 0.0000000
v 0.1060650 0.3000000 0.1060650
v 0.1385850 0.3000000 0.0574050
v 0.0000000 0.3000000 0.0000000
v 0.0574050 0.3000000 0.1385850
v 0.1060650 0.3000000 0.1060650
v 0.0000000 0.3000000 0.0000000
v 0.0000000 0.3000000 0.1500000
v 0.0574050 0.3000000 0.1385850
v 0.0000000 0.3000000 0.0000000
v -0.0574050 0.3000000 0.1385850
v 0.0000000 0.3000000 0.1500000
v 0.0000000 0.3000000 0.0000000
v -0.1060650 0.3000000 0.1060650
v -0.0574050 0.3000000 0.1385850
v 0.0000000 0.3000000 0.0000000
v -0.1385850 0.3000000 0.0574050
v -0.1060650 0.3000000 0.1060650
v 0.0000000 0.3000000 0.0000000
v -0.1500000 0.3000000 0.0000000
v -0.1385850 0.3000000 0.0574050
v 0.0000000 0.3000000 0.0000000
v -0.1385850 0.3000000 -0.0574050
v -0.1500000 0.3000000 0.0000000
v 0.0000000 0.3000000 0.0000000
v -0.1060650 0.3000000 -0.1060650
v -0.1385850 0.3000000 -0.0574050
v 0.0000000 0.3000000 0.0000000
v -0.0574050 0.3000000 -0.1385850
v -0.1060650 0.3000000 -0.1060650
v 0.0000000 0.3000000 0.0000000
v 0.0000000 0.3000000 -0.1500000
v -0.0574050 0.3000000 -0.1385850
v 0.0000000 0.3000000 0.0000000
v 0.0574050 0.3000000 -0.1385850
v 0.0000000 0.3000000 -0.1500000
v 0.0000000 0.3000000 0.0000000
v 0.1060650 0.3000000 -0.1060650
v 0.0574050 0.3000000 -0.1385850
v 0.0000000 0.3000000 0.0000000
v 0.1385850 0.3000000 -0.0574050
v 0.1060650 0.3000000 -0.1060650
v 0.0000000 0.3000000 0.0000000
v 0.1500000 0.3000000 0.0000000
v 0.1385850 0.3000000 -0.0574050
v 0.0000000 0.3000000 0.0000000
v 0.3602000 -0.3536500 0.0000000
v 0.3585829 -0.3442802 0.0478375
v 0.4078329 -0.3357802 0.0478375
v 0.4094500 -0.3451500 0.0000000
v 0.3585829 -0.3442802 0.0478375
v 0.3539759 -0.3175867 0.0883875
v 0.4032259 -0.3090867 0.0883875
v 0.4078329 -0.3357802 0.0478375
v 0.3539759 -0.3175867 0.0883875
v 0.3470824 -0.2776449 0.1154875
v 0.3963324 -0.2691449 0.1154875
v 0.4032259 -0.3090867 0.0883875
v 0.3470824 -0.2776449 0.1154875
v 0.3389500 -0.2305250 0.1250000
v 0.3882000 -0.2220250 0.1250000
v 0.3963324 -0.2691449 0.1154875
v 0.3389500 -0.2305250 0.1250000
v 0.3308176 -0.1834051 0.1154875
v 0.3800676 -0.1749051 0.1154875
v 0.3882000 -0.2220250 0.1250000
v 0.3308176 -0.1834051 0.1154875
v 0.3239241 -0.1434633 0.0883875
v 0.3731741 -0.1349633 0.0883875
v 0.3800676 -0.1749051 0.1154875
v 0.3239241 -0.1434633 0.0883875
v 0.3193171 -0.1167698 0.0478375
v 0.3685671 -0.1082698 0.0478375
v 0.3731741 -0.1349633 0.0883875
v 0.3193171 -0.1167698 0.0478375
v 0.3177000 -0.1074000 0.0000000
v 0.3669500 -0.0989000 0.0000000
v 0.3685671 -0.1082698 0.0478375
v 0.3177000 -0.1074000 0.0000000
v 0.3193171 -0.1167698 -0.0478375
v 0.3685671 -0.1082698 -0.0478375
v 0.3669500 -0.0989000 0.0000000
v 0.3193171 -0.1167698 -0.0478375
v 0.3239241 -0.1434633 -0.0883875
v 0.3731741 -0.1349633 -0.0883875
v 0.3685671 -0.1082698 -0.0478375
v 0.3239241 -0.1434633 -0.0883875
v 0.3308176 -0.1834051 -0.1154875
v 0.3800676 -0.1749051 -0.1154875
v 0.3731741 -0.1349633 -0.0883875
v 0.3308176 -0.1834051 -0.1154875
v 0.3389500 -0.2305250 -0.1250000
v 0.3882000 -0.2220250 -0.1250000
v 0.3800676 -0.1749051 -0.1154875
v 0.3389500 -0.2305250 -0.1250000
v 0.3470824 -0.2776449 -0.1154875
v 0.3963324 -0.2691449 -0.1154875
v 0.3882000 -0.2220250 -0.1250000
v 0.3470824 -0.2776449 -0.1154875
v 0.3539759 -0.3175867 -0.0883875
v 0.4032259 -0.3090867 -0.0883875
v 0.3963324 -0.2691449 -0.1154875
v 0.3539759 -0.3175867 -0.0883875
v 0.3585829 -0.3442802 -0.0478375
v 0.4078329 -0.3357802 -0.0478375
v 0.4032259 -0.3090867 -0.0883875
v 0.3585829 -0.3442802 -0.0478375
v 0.3602000 -0.3536500 0.0000000
v 0.4094500 -0.3451500 0.0000000
v 0.4078329 -0.3357802 -0.0478375
v 0.3585829 -0.3442802 0.0478375
v 0.3602000 -0.3536500 0.0000000
v 0.3602000 -0.3536500 0.1250000
v 0.3539759 -0.3175867 0.0883875
v 0.3585829 -0.3442802 0.0478375
v 0.3602000 -0.3536500 0.1250000
v 0.3470824 -0.2776449 0.1154875
v 0.3539759 -0.3175867 0.0883875
v 0.3602000 -0.3536500 0.1250000
v 0.3389500 -0.2305250 0.1250000
v 0.3470824 -0.2776449 0.1154875
v 0.3602000 -0.3536500 0.1250000
v 0.3308176 -0.1834051 0.1154875
v 0.3389500 -0.2305250 0.1250000
v 0.3177000 -0.1074000 0.1250000
v 0.3239241 -0.1434633 0.0883875
v 0.3308176 -0.1834051 0.1154875
v 0.3177000 -0.1074000 0.1250000
v 0.3193171 -0.1167698 0.0478375
v 0.3239241 -0.1434633 0.0883875
v 0.3177000 -0.1074000 0.1250000
v 0.3177000 -0.1074000 0.0000000
v 0.3193171 -0.1167698 0.0478375
v 0.3177000 -0.1074000 0.1250000
v 0.3193171 -0.1167698 -0.0478375
v 0.3177000 -0.1074000 0.0000000
v 0.3177000 -0.1074000 -0.1250000
v 0.3239241 -0.1434633 -0.0883875
v 0.3193171 -0.1167698 -0.0478375
v 0.3177000 -0.1074000 -0.1250000
v 0.3308176 -0.1834051 -0.1154875
v 0.3239241 -0.1434633 -0.0883875
v 0.3177000 -0.1074000 -0.1250000
v 0.3389500 -0.2305250 -0.1250000
v 0.3308176 -0.1834051 -0.1154875
v 0.3177000 -0.1074000 -0.1250000
v 0.3470824 -0.2776449 -0.1154875
v 0.3389500 -0.2305250 -0.1250000
v 0.3602000 -0.3536500 -0.1250000
v 0.3539759 -0.3175867 -0.0883875
v 0.3470824 -0.2776449 -0.1154875
v 0.3602000 -0.3536500 -0.1250000
v 0.3585829 -0.3442802 -0.0478375
v 0.3539759 -0.3175867 -0.0883875
v 0.3602000 -0.3536500 -0.1250000
v 0.3602000 -0.3536500 0.0000000
v 0.3585829 -0.3442802 -0.0478375
v 0.3602000 -0.3536500 -0.1250000
v 0.4094500 -0.3451500 0.1250000
v 0.4094500 -0.3451500 0.0000000
v 0.4078329 -0.3357802 0.0478375
v 0.4094500 -0.3451500 0.1250000
v 0.4078329 -0.3357802 0.0478375
v 0.4032259 -0.3090867 0.0883875
v 0.4094500 -0.3451500 0.1250000
v 0.4032259 -0.3090867 0.0883875
v 0.3963324 -0.2691449 0.1154875
v 0.4094500 -0.3451500 0.1250000
v 0.3963324 -0.2691449 0.1154875
v 0.3882000 -0.2220250 0.1250000
v 0.3669500 -0.0989000 0.1250000
v 0.3882000 -0.2220250 0.1250000
v 0.3800676 -0.1749051 0.1154875
v 0.3669500 -0.0989000 0.1250000
v 0.3800676 -0.1749051 0.1154875
v 0.3731741 -0.1349633 0.0883875
v 0.3669500 -0.0989000 0.1250000
v 0.3731741 -0.1349633 0.0883875
v 0.3685671 -0.1082698 0.0478375
v 0.3669500 -0.0989000 0.1250000
v 0.3685671 -0.1082698 0.0478375
v 0.3669500 -0.0989000 0.0000000
v 0.3669500 -0.0989000 -0.1250000
v 0.3669500 -0.0989000 0.0000000
v 0.3685671 -0.1082698 -0.0478375
v 0.3669500 -0.0989000 -0.1250000
v 0.3685671 -0.1082698 -0.0478375
v 0.3731741 -0.1349633 -0.0883875
v 0.3669500 -0.0989000 -0.1250000
v 0.3731741 -0.1349633 -0.0883875
v 0.3800676 -0.1749051 -0.1154875
v 0.3669500 -0.0989000 -0.1250000
v 0.3800676 -0.1749051 -0.1154875
v 0.3882000 -0.2220250 -0.1250000
v 0.4094500 -0.3451500 -0.1250000
v 0.3882000 -0.2220250 -0.1250000
v 0.3963324 -0.2691449 -0.1154875
v 0.4094500 -0.3451500 -0.1250000
v 0.3963324 -0.2691449 -0.1154875
v 0.4032259 -0.3090867 -0.0883875
v 0.4094500 -0.3451500 -0.1250000
v 0.4032259 -0.3090867 -0.0883875
v 0.4078329 -0.3357802 -0.0478375
v 0.4094500 -0.3451500 -0.1250000
v 0.4078329 -0.3357802 -0.0478375
v 0.4094500 -0.3451500 0.0000000
v -0.4094500 -0.3451500 0.0000000
v -0.4078329 -0.3357802 0.0478375
v -0.3585829 -0.3442802 0.0478375
v -0.3602000 -0.3536500 0.0000000
v -0.4078329 -0.3357802 0.0478375
v -0.4032259 -0.3090867 0.0883875
v -0.3539759 -0.3175867 0.0883875
v -0.3585829 -0.3442802 0.0478375
v -0.4032259 -0.3090867 0.0883875
v -0.3963324 -0.2691449 0.1154875
v -0.3470824 -0.2776449 0.1154875
v -0.3539759 -0.3175867 0.0883875
v -0.3963324 -0.2691449 0.1154875
v -0.3882000 -0.2220250 0.1250000
v -0.3389500 -0.2305250 0.1250000
v -0.3470824 -0.2776449 0.1154875
v -0.3882000 -0.2220250 0.1250000
v -0.3800676 -0.1749051 0.1154875
v -0.3308176 -0.1834051 0.1154875
v -0.3389500 -0.2305250 0.1250000
v -0.3800676 -0.1749051 0.1154875
v -0.3731741 -0.1349633 0.0883875
v -0.3239241 -0.1434633 0.0883875
v -0.3308176 -0.1834051 0.1154875
v -0.3731741 -0.1349633 0.0883875
v -0.3685671 -0.1082698 0.0478375
v -0.3193171 -0.1167698 0.0478375
v -0.3239241 -0.1434633 0.0883875
v -0.3685671 -0.1082698 0.0478375
v -0.3669500 -0.0989000 0.0000000
v -0.3177000 -0.1074000 0.0000000
v -0.3193171 -0.1167698 0.0478375
v -0.3669500 -0.0989000 0.0000000
v -0.3685671 -0.1082698 -0.0478375
v -0.3193171 -0.1167698 -0.0478375
v -0.3177000 -0.1074000 0.0000000
v -0.3685671 -0.1082698 -0.0478375
v -0.3731741 -0.1349633 -0.0883875
v -0.3239241 -0.1434633 -0.0883875
v -0.3193171 -0.1167698 -0.0478375
v -0.3731741 -0.1349633 -0.0883875
v -0.3800676 -0.1749051 -0.1154875
v -0.3308176 -0.1834051 -0.1154875
v -0.3239241 -0.1434633 -0.0883875
v -0.3800676 -0.1749051 -0.1154875
v -0.3882000 -0.2220250 -0.1250000
v -0.3389500 -0.2305250 -0.1250000
v -0.3308176 -0.1834051 -0.1154875
v -0.3882000 -0.2220250 -0.1250000
v -0.3963324 -0.2691449 -0.1154875
v -0.3470824 -0.2776449 -0.1154875
v -0.3389500 -0.2305250 -0.1250000
v -0.3963324 -0.2691449 -0.1154875
v -0.4032259 -0.3090867 -0.0883875
v -0.3539759 -0.3175867 -0.0883875
v -0.3470824 -0.2776449 -0.1154875
v -0.4032259 -0.3090867 -0.0883875
v -0.4078329 -0.3357802 -0.0478375
v -0.3585829 -0.3442802 -0.0478375
v -0.3539759 -0.3175867 -0.0883875
v -0.4078329 -0.3357802 -0.0478375
v -0.4094500 -0.3451500 0.0000000
v -0.3602000 -0.3536500 0.0000000
v -0.3585829 -0.3442802 -0.0478375
v -0.3602000 -0.3536500 0.1250000
v -0.3602000 -0.3536500 0.0000000
v -0.3585829 -0.3442802 0.0478375
v -0.3602000 -0.3536500 0.1250000
v -0.3585829 -0.3442802 0.0478375
v -0.3539759 -0.3175867 0.0883875
v -0.3602000 -0.3536500 0.1250000
v -0.3539759 -0.3175867 0.0883875
v -0.3470824 -0.2776449 0.1154875
v -0.3602000 -0.3536500 0.1250000
v -0.3470824 -0.2776449 0.1154875
v -0.3389500 -0.2305250 0.1250000
v -0.3177000 -0.1074000 0.1250000
v -0.3389500 -0.2305250 0.1250000
v -0.3308176 -0.1834051 0.1154875
v -0.3177000 -0.1074000 0.1250000
v -0.3308176 -0.1834051 0.1154875
v -0.3239241 -0.1434633 0.0883875
v -0.3177000 -0.1074000 0.1250000
v -0.3239241 -0.1434633 0.0883875
v -0.3193171 -0.1167698 0.0478375
v -0.3177000 -0.1074000 0.1250000
v -0.3193171 -0.1167698 0.0478375
v -0.3177000 -0.1074000 0.0000000
v -0.3177000 -0.1074000 -0.1250000
v -0.3177000 -0.1074000 0.0000000
v -0.3193171 -0.1167698 -0.0478375
v -0.3177000 -0.1074000 -0.1250000
v -0.3193171 -0.1167698 -0.0478375
v -0.3239241 -0.1434633 -0.0883875
v -0.3177000 -0.1074000 -0.1250000
v -0.3239241 -0.1434633 -0.0883875
v -0.3308176 -0.1834051 -0.1154875
v -0.3177000 -0.1074000 -0.1250000
v -0.3308176 -0.1834051 -0.1154875
v -0.3389500 -0.2305250 -0.1250000
v -0.3602000 -0.3536500 -0.1250000
v -0.3389500 -0.2305250 -0.1250000
v -0.3470824 -0.2776449 -0.1154875
v -0.3602000 -0.3536500 -0.1250000
v -0.3470824 -0.2776449 -0.1154875
v -0.3539759 -0.3175867 -0.0883875
v -0.3602000 -0.3536500 -0.1250000
v -0.3539759 -0.3175867 -0.0883875
v -0.3585829 -0.3442802 -0.0478375
v -0.3602000 -0.3536500 -0.1250000
v -0.3585829 -0.3442802 -0.0478375
v -0.3602000 -0.3536500 0.0000000
v -0.4078329 -0.3357802 0.0478375
v -0.4094500 -0.3451500 0.0000000
v -0.4094500 -0.3451500 0.1250000
v -0.4032259 -0.3090867 0.0883875
v -0.4078329 -0.3357802 0.0478375
v -0.4094500 -0.3451500 0.1250000
v -0.3963324 -0.2691449 0.1154875
v -0.4032259 -0.3090867 0.0883875
v -0.4094500 -0.3451500 0.1250000
v -0.3882000 -0.2220250 0.1250000
v -0.3963324 -0.2691449 0.1154875
v -0.4094500 -0.3451500 0.1250000
v -0.3800676 -0.1749051 0.1154875
v -0.3882000 -0.2220250 0.1250000
v -0.3669500 -0.0989000 0.1250000
v -0.3731741 -0.1349633 0.0883875
v -0.3800676 -0.1749051 0.1154875
v -0.3669500 -0.0989000 0.1250000
v -0.3685671 -0.1082698 0.0478375
v -0.3731741 -0.1349633 0.0883875
v -0.3669500 -0.0989000 0.1250000
v -0.3669500 -0.0989000 0.0000000
v -0.3685671 -0.1082698 0.0478375
v -0.3669500 -0.0989000 0.1250000
v -0.3685671 -0.1082698 -0.0478375
v -0.3669500 -0.0989000 0.0000000
v -0.3669500 -0.0989000 -0.1250000
v -0.3731741 -0.1349633 -0.0883875
v -0.3685671 -0.1082698 -0.0478375
v -0.3669500 -0.0989000 -0.1250000
v -0.3800676 -0.1749051 -0.1154875
v -0.3731741 -0.1349633 -0.0883875
v -0.3669500 -0.0989000 -0.1250000
v -0.3882000 -0.2220250 -0.1250000
v -0.3800676 -0.1749051 -0.1154875
v -0.3669500 -0.0989000 -0.1250000
v -0.3963324 -0.2691449 -0.1154875
v -0.3882000 -0.2220250 -0.1250000
v -0.4094500 -0.3451500 -0.1250000
v -0.4032259 -0.3090867 -0.0883875
v -0.3963324 -0.2691449 -0.1154875
v -0.4094500 -0.3451500 -0.1250000
v -0.4078329 -0.3357802 -0.0478375
v -0.4032259 -0.3090867 -0.0883875
v -0.4094500 -0.3451500 -0.1250000
v -0.4094500 -0.3451500 0.0000000
v -0.4078329 -0.3357802 -0.0478375
v -0.4094500 -0.3451500 -0.1250000
v -0.3586250 -0.0500000 -0.2500000
v -0.3669500 -0.0989000 -0.1250000
v -0.3669500 -0.0989000 0.1250000
v -0.3586250 -0.0500000 0.2500000
v -0.4094500 -0.3451500 -0.1250000
v -0.3669500 -0.0989000 -0.1250000
v -0.3586250 -0.0500000 -0.2500000
v -0.4750000 -0.7250000 -0.2500000
v -0.4750000 -0.7250000 0.2500000
v -0.4094500 -0.3451500 0.1250000
v -0.4094500 -0.3451500 -0.1250000
v -0.4750000 -0.7250000 -0.2500000
v -0.3586250 -0.0500000 0.2500000
v -0.3669500 -0.0989000 0.1250000
v -0.4094500 -0.3451500 0.1250000
v -0.4750000 -0.7250000 0.2500000
v -0.3121000 -0.0750000 0.1500000
v -0.3177000 -0.1074000 0.1250000
v -0.3177000 -0.1074000 -0.1250000
v -0.3121000 -0.0750000 -0.1500000
v -0.4000000 -0.5842500 0.1500000
v -0.3602000 -0.3536500 0.1250000
v -0.3177000 -0.1074000 0.1250000
v -0.3121000 -0.0750000 0.1500000
v -0.3602000 -0.3536500 -0.1250000
v -0.3602000 -0.3536500 0.1250000
v -0.4000000 -0.5842500 0.1500000
v -0.4000000 -0.5842500 -0.1500000
v -0.3121000 -0.0750000 -0.1500000
v -0.3177000 -0.1074000 -0.1250000
v -0.3602000 -0.3536500 -0.1250000
v -0.4000000 -0.5842500 -0.1500000
v 0.3586250 -0.0500000 -0.2500000
v 0.3586250 -0.0500000 0.2500000
v 0.3669500 -0.0989000 0.1250000
v 0.3669500 -0.0989000 -0.1250000
v 0.4094500 -0.3451500 -0.1250000
v 0.4750000 -0.7250000 -0.2500000
v 0.3586250 -0.0500000 -0.2500000
v 0.3669500 -0.0989000 -0.1250000
v 0.4750000 -0.7250000 0.2500000
v 0.4750000 -0.7250000 -0.2500000
v 0.4094500 -0.3451500 -0.1250000
v 0.4094500 -0.3451500 0.1250000
v 0.3586250 -0.0500000 0.2500000
v 0.4750000 -0.7250000 0.2500000
v 0.4094500 -0.3451500 0.1250000
v 0.3669500 -0.0989000 0.1250000
v 0.3121000 -0.0750000 0.1500000
v 0.3121000 -0.0750000 -0.1500000
v 0.3177000 -0.1074000 -0.1250000
v 0.3177000 -0.1074000 0.1250000
v 0.4000000 -0.5842500 0.1500000
v 0.3121000 -0.0750000 0.1500000
v 0.3177000 -0.1074000 0.1250000
v 0.3602000 -0.3536500 0.1250000
v 0.3602000 -0.3536500 -0.1250000
v 0.4000000 -0.5842500 -0.1500000
v 0.4000000 -0.5842500 0.1500000
v 0.3602000 -0.3536500 0.1250000
v 0.3121000 -0.0750000 -0.1500000
v 0.4000000 -0.5842500 -0.1500000
v 0.3602000 -0.3536500 -0.1250000
v 0.3177000 -0.1074000 -0.1250000
v 0.1000000 -0.0750000 0.1500000
v 0.1000000 -0.0750000 0.0866000
v 0.1000000 -0.8000000 0.0866000
v 0.1000000 -0.8000000 0.1500000
v 0.1000000 -0.0750000 0.0866000
v 0.1634000 -0.0750000 0.1500000
v 0.1634000 -0.8000000 0.1500000
v 0.1000000 -0.8000000 0.0866000
v 0.1634000 -0.8000000 0.1500000
v 0.1000000 -0.8000000 0.1500000
v 0.1000000 -0.8000000 0.0866000
v -0.1000000 -0.8000000 0.1500000
v -0.1000000 -0.8000000 0.0866000
v -0.1000000 -0.0750000 0.0866000
v -0.1000000 -0.0750000 0.1500000
v -0.1000000 -0.8000000 0.0866000
v -0.1634000 -0.8000000 0.1500000
v -0.1634000 -0.0750000 0.1500000
v -0.1000000 -0.0750000 0.0866000
v -0.1000000 -0.8000000 0.0866000
v -0.1000000 -0.8000000 0.1500000
v -0.1634000 -0.8000000 0.1500000
v 0.1000000 -0.8000000 -0.1500000
v 0.1000000 -0.8000000 -0.0866000
v 0.1000000 -0.0750000 -0.0866000
v 0.1000000 -0.0750000 -0.1500000
v 0.1000000 -0.8000000 -0.0866000
v 0.1634000 -0.8000000 -0.1500000
v 0.1634000 -0.0750000 -0.1500000
v 0.1000000 -0.0750000 -0.0866000
v 0.1000000 -0.8000000 -0.0866000
v 0.1000000 -0.8000000 -0.1500000
v 0.1634000 -0.8000000 -0.1500000
v -0.1000000 -0.0750000 -0.1500000
v -0.1000000 -0.0750000 -0.0866000
v -0.1000000 -0.8000000 -0.0866000
v -0.1000000 -0.8000000 -0.1500000
v -0.1000000 -0.0750000 -0.0866000
v -0.1634000 -0.0750000 -0.1500000
v -0.1634000 -0.8000000 -0.1500000
v -0.1000000 -0.8000000 -0.0866000
v -0.1634000 -0.8000000 -0.1500000
v -0.1000000 -0.8000000 -0.1500000
v -0.1000000 -0.8000000 -0.0866000
v -0.1634000 -0.0750000 -0.1500000
v -0.3121000 -0.0750000 -0.1500000
v -0.4000000 -0.8000000 -0.1500000
v -0.1634000 -0.8000000 -0.1500000
v -0.4000000 -0.8000000 -0.1500000
v -0.3121000 -0.0750000 -0.1500000
v -0.4000000 -0.5842500 -0.1500000
v 0.1634000 -0.0750000 -0.1500000
v 0.1634000 -0.8000000 -0.1500000
v 0.4000000 -0.8000000 -0.1500000
v 0.3121000 -0.0750000 -0.1500000
v 0.4000000 -0.8000000 -0.1500000
v 0.4000000 -0.5842500 -0.1500000
v 0.3121000 -0.0750000 -0.1500000
v -0.1000000 -0.0750000 -0.1500000
v -0.1000000 -0.8000000 -0.1500000
v 0.1000000 -0.8000000 -0.1500000
v 0.1000000 -0.0750000 -0.1500000
v -0.1634000 -0.0750000 0.1500000
v -0.1634000 -0.8000000 0.1500000
v -0.4000000 -0.8000000 0.1500000
v -0.3121000 -0.0750000 0.1500000
v -0.4000000 -0.8000000 0.1500000
v -0.4000000 -0.5842500 0.1500000
v -0.3121000 -0.0750000 0.1500000
v 0.1634000 -0.0750000 0.1500000
v 0.3121000 -0.0750000 0.1500000
v 0.4000000 -0.8000000 0.1500000
v 0.1634000 -0.8000000 0.1500000
v 0.4000000 -0.8000000 0.1500000
v 0.3121000 -0.0750000 0.1500000
v 0.4000000 -0.5842500 0.1500000
v 0.1000000 -0.8000000 0.1500000
v -0.1000000 -0.8000000 0.1500000
v -0.1000000 -0.0750000 0.1500000
v 0.1000000 -0.0750000 0.1500000
v -0.4750000 -0.7250000 -0.2500000
v 0.4750000 -0.7250000 -0.2500000
v 0.4750000 -0.8000000 -0.2500000
v -0.4750000 -0.8000000 -0.2500000
v 0.4750000 -0.7250000 -0.2500000
v -0.4750000 -0.7250000 -0.2500000
v -0.3586250 -0.0500000 -0.2500000
v 0.3586250 -0.0500000 -0.2500000
v 0.3586250 -0.0500000 -0.2500000
v -0.3586250 -0.0500000 -0.2500000
v -0.3000000 -0.0000000 -0.2500000
v 0.3000000 -0.0000000 -0.2500000
v -0.4750000 -0.8000000 0.2500000
v 0.4750000 -0.8000000 0.2500000
v 0.4750000 -0.7250000 0.2500000
v -0.4750000 -0.7250000 0.2500000
v 0.3586250 -0.0500000 0.2500000
v -0.3586250 -0.0500000 0.2500000
v -0.4750000 -0.7250000 0.2500000
v 0.4750000 -0.7250000 0.2500000
v 0.3000000 -0.0000000 0.2500000
v -0.3000000 -0.0000000 0.2500000
v -0.3586250 -0.0500000 0.2500000
v 0.3586250 -0.0500000 0.2500000
v 0.1060750 0.1000000 -0.1060750
v 0.0574078 0.1000000 -0.1385976
v 0.0574078 0.3000000 -0.1385976
v 0.1060750 0.3000000 -0.1060750
v 0.0574078 0.1000000 -0.1385976
v 0.0000000 0.1000000 -0.1500113
v 0.0000000 0.3000000 -0.1500113
v 0.0574078 0.3000000 -0.1385976
v 0.0000000 0.1000000 -0.1500113
v -0.0574078 0.1000000 -0.1385976
v -0.0574078 0.3000000 -0.1385976
v 0.0000000 0.3000000 -0.1500113
v -0.0574078 0.1000000 -0.1385976
v -0.1060750 0.1000000 -0.1060750
v -0.1060750 0.3000000 -0.1060750
v -0.0574078 0.3000000 -0.1385976
s off
f 1 2 3
f 1 3 4
f 5 6 7
f 5 7 8
f 9 10 11
f 9 11 12
f 13 14 15
f 13 15 16
f 17 18 19
f 17 19 20
f 21 22 23
f 21 23 24
f 25 26 27
f 25 27 28
f 29 30 31
f 29 31 32
f 33 34 35
f 33 35 36
f 37 38 39
f 37 39 40
f 41 42 43
f 41 43 44
f 45 46 47
f 45 47 48
f 49 50 51
f 49 51 52
f 53 54 55
f 53 55 56
f 57 58 59
f 60 61 62
f 63 64 65
f 66 67 68
f 69 70 71
f 69 71 72
f 73 74 75
f 73 75 76
f 77 78 79
f 77 79 80
f 81 82 83
f 81 83 84
f 85 86 87
f 85 87 88
f 89 90 91
f 89 91 92
f 93 94 95
f 93 95 96
f 97 98 99
f 97 99 100
f 101 102 103
f 101 103 104
f 105 106 107
f 105 107 108
f 109 110 111
f 109 111 112
f 113 114 115
f 113 115 116
f 117 118 119
f 117 119 120
f 121 122 123
f 121 123 124
f 125 126 127
f 125 127 128
f 129 130 131
f 129 131 132
f 133 134 135
f 133 135 136
f 137 138 139
f 137 139 140
f 141 142 143
f 141 143 144
f 145 146 147
f 145 147 148
f 149 150 151
f 149 151 152
f 153 154 155
f 153 155 156
f 157 158 159
f 157 159 160
f 161 162 163
f 161 163 164
f 165 166 167
f 165 167 168
f 169 170 171
f 169 171 172
f 173 174 175
f 173 175 176
f 177 178 179
f 177 179 180
f 181 182 183
f 184 185 186
f 187 188 189
f 190 191 192
f 193 194 195
f 196 197 198
f 199 200 201
f 202 203 204
f 205 206 207
f 208 209 210
f 211 212 213
f 214 215 216
f 217 218 219
f 220 221 222
f 223 224 225
f 226 227 228
f 229 230 231
f 229 231 232
f 233 234 235
f 233 235 236
f 237 238 239
f 237 239 240
f 241 242 243
f 241 243 244
f 245 246 247
f 245 247 248
f 249 250 251
f 249 251 252
f 253 254 255
f 253 255 256
f 257 258 259
f 257 259 260
f 261 262 263
f 261 263 264
f 265 266 267
f 265 267 268
f 269 270 271
f 269 271 272
f 273 274 275
f 273 275 276
f 277 278 279
f 277 279 280
f 281 282 283
f 281 283 284
f 285 286 287
f 285 287 288
f 289 290 291
f 289 291 292
f 293 294 295
f 296 297 298
f 299 300 301
f 302 303 304
f 305 306 307
f 308 309 310
f 311 312 313
f 314 315 316
f 317 318 319
f 320 321 322
f 323 324 325
f 326 327 328
f 329 330 331
f 332 333 334
f 335 336 337
f 338 339 340
f 341 342 343
f 344 345 346
f 347 348 349
f 350 351 352
f 353 354 355
f 356 357 358
f 359 360 361
f 362 363 364
f 365 366 367
f 368 369 370
f 371 372 373
f 374 375 376
f 377 378 379
f 380 381 382
f 383 384 385
f 386 387 388
f 389 390 391
f 389 391 392
f 393 394 395
f 393 395 396
f 397 398 399
f 397 399 400
f 401 402 403
f 401 403 404
f 405 406 407
f 405 407 408
f 409 410 411
f 409 411 412
f 413 414 415
f 413 415 416
f 417 418 419
f 417 419 420
f 421 422 423
f 421 423 424
f 425 426 427
f 425 427 428
f 429 430 431
f 429 431 432
f 433 434 435
f 433 435 436
f 437 438 439
f 437 439 440
f 441 442 443
f 441 443 444
f 445 446 447
f 445 447 448
f 449 450 451
f 449 451 452
f 453 454 455
f 456 457 458
f 459 460 461
f 462 463 464
f 465 466 467
f 468 469 470
f 471 472 473
f 474 475 476
f 477 478 479
f 480 481 482
f 483 484 485
f 486 487 488
f 489 490 491
f 492 493 494
f 495 496 497
f 498 499 500
f 501 502 503
f 504 505 506
f 507 508 509
f 510 511 512
f 513 514 515
f 516 517 518
f 519 520 521
f 522 523 524
f 525 526 527
f 528 529 530
f 531 532 533
f 534 535 536
f 537 538 539
f 540 541 542
f 543 544 545
f 546 547 548
f 549 550 551
f 549 551 552
f 553 554 555
f 553 555 556
f 557 558 559
f 557 559 560
f 561 562 563
f 561 563 564
f 565 566 567
f 565 567 568
f 569 570 571
f 569 571 572
f 573 574 575
f 573 575 576
f 577 578 579
f 577 579 580
f 581 582 583
f 581 583 584
f 585 586 587
f 585 587 588
f 589 590 591
f 589 591 592
f 593 594 595
f 593 595 596
f 597 598 599
f 597 599 600
f 601 602 603
f 601 603 604
f 605 606 607
f 605 607 608
f 609 610 611
f 609 611 612
f 613 614 615
f 613 615 616
f 617 618 619
f 617 619 620
f 621 622 623
f 624 625 626
f 624 626 627
f 628 629 630
f 628 630 631
f 632 633 634
f 635 636 637
f 635 637 638
f 639 640 641
f 639 641 642
f 643 644 645
f 646 647 648
f 646 648 649
f 650 651 652
f 650 652 653
f 654 655 656
f 657 658 659
f 657 659 660
f 661 662 663
f 664 665 666
f 664 666 667
f 668 669 670
f 671 672 673
f 671 673 674
f 675 676 677
f 675 677 678
f 679 680 681
f 682 683 684
f 682 684 685
f 686 687 688
f 689 690 691
f 689 691 692
f 693 694 695
f 693 695 696
f 697 698 699
f 697 699 700
f 701 702 703
f 701 703 704
f 705 706 707
f 705 707 708
f 709 710 711
f 709 711 712
f 713 714 715
f 713 715 716
f 717 718 719
f 717 719 720
f 721 722 723
f 721 723 724
f 725 726 727
f 725 727 728
f 729 730 731
f 729 731 732
